<?xml version="1.0" encoding="UTF-8" standalone="no"?>
<!DOCTYPE svg PUBLIC "-//W3C//DTD SVG 1.1//EN"
 "http://www.w3.org/Graphics/SVG/1.1/DTD/svg11.dtd">
<!-- Generated by graphviz version 2.43.0 (0)
 -->
<!-- Title: User.LoggedInChecker.CheckLoggedInPeriodically Pages: 1 -->
<svg width="659pt" height="101pt"
 viewBox="0.00 0.00 659.00 101.00" xmlns="http://www.w3.org/2000/svg" xmlns:xlink="http://www.w3.org/1999/xlink">
<g id="graph0" class="graph" transform="scale(1 1) rotate(0) translate(4 97)">
<title>User.LoggedInChecker.CheckLoggedInPeriodically</title>
<!-- Node1 -->
<g id="Node000001" class="node">
<title>Node1</title>
<g id="a_Node000001"><a xlink:title="Coroutine which calls the api endpoint to check if the user is still logged in.">
<polygon fill="#999999" stroke="#666666" points="258,-56 0,-56 0,-37 258,-37 258,-56"/>
<text text-anchor="middle" x="129" y="-44" font-family="Helvetica,sans-Serif" font-size="10.00">User.LoggedInChecker.CheckLoggedInPeriodically</text>
</a>
</g>
</g>
<!-- Node2 -->
<g id="Node000002" class="node">
<title>Node2</title>
<g id="a_Node000002"><a xlink:href="classUser_1_1LoggedInChecker.html#a142873ff5324726072d218102f0bee8b" target="_top" xlink:title="Update the user data from the server data.">
<polygon fill="white" stroke="#666666" points="478.5,-93 307.5,-93 307.5,-74 478.5,-74 478.5,-93"/>
<text text-anchor="middle" x="393" y="-81" font-family="Helvetica,sans-Serif" font-size="10.00">User.LoggedInChecker.LoggedIn</text>
</a>
</g>
</g>
<!-- Node1&#45;&gt;Node2 -->
<g id="edge1_Node000001_Node000002" class="edge">
<title>Node1&#45;&gt;Node2</title>
<g id="a_edge1_Node000001_Node000002"><a xlink:title=" ">
<path fill="none" stroke="#63b8ff" d="M197.47,-56.03C233.09,-61.06 276.97,-67.26 314.04,-72.49"/>
<polygon fill="#63b8ff" stroke="#63b8ff" points="313.91,-76.01 324.3,-73.94 314.89,-69.08 313.91,-76.01"/>
</a>
</g>
</g>
<!-- Node4 -->
<g id="Node000004" class="node">
<title>Node4</title>
<g id="a_Node000004"><a xlink:href="classUser_1_1LoggedInChecker.html#aa0be140ec2e3efb96d0a9c306e6d811a" target="_top" xlink:title="Handles if the user is not logged in.">
<polygon fill="white" stroke="#666666" points="482.5,-56 303.5,-56 303.5,-37 482.5,-37 482.5,-56"/>
<text text-anchor="middle" x="393" y="-44" font-family="Helvetica,sans-Serif" font-size="10.00">User.LoggedInChecker.LoggedOut</text>
</a>
</g>
</g>
<!-- Node1&#45;&gt;Node4 -->
<g id="edge3_Node000001_Node000004" class="edge">
<title>Node1&#45;&gt;Node4</title>
<g id="a_edge3_Node000001_Node000004"><a xlink:title=" ">
<path fill="none" stroke="#63b8ff" d="M258.31,-46.5C269.93,-46.5 281.57,-46.5 292.88,-46.5"/>
<polygon fill="#63b8ff" stroke="#63b8ff" points="293.15,-50 303.15,-46.5 293.15,-43 293.15,-50"/>
</a>
</g>
</g>
<!-- Node6 -->
<g id="Node000006" class="node">
<title>Node6</title>
<g id="a_Node000006"><a xlink:href="classUtility_1_1CoroutineRunner.html#a1c473dee723f16d86bab9d8475c8214a" target="_top" xlink:title="A helper method to start coroutines.">
<polygon fill="white" stroke="#666666" points="492,-19 294,-19 294,0 492,0 492,-19"/>
<text text-anchor="middle" x="393" y="-7" font-family="Helvetica,sans-Serif" font-size="10.00">Utility.CoroutineRunner.RunCoroutine</text>
</a>
</g>
</g>
<!-- Node1&#45;&gt;Node6 -->
<g id="edge5_Node000001_Node000006" class="edge">
<title>Node1&#45;&gt;Node6</title>
<g id="a_edge5_Node000001_Node000006"><a xlink:title=" ">
<path fill="none" stroke="#63b8ff" d="M197.47,-36.97C233.09,-31.94 276.97,-25.74 314.04,-20.51"/>
<polygon fill="#63b8ff" stroke="#63b8ff" points="314.89,-23.92 324.3,-19.06 313.91,-16.99 314.89,-23.92"/>
</a>
</g>
</g>
<!-- Node3 -->
<g id="Node000003" class="node">
<title>Node3</title>
<g id="a_Node000003"><a xlink:href="classUser_1_1UserData.html#abb372911b5e49023a977bd064f46bb6e" target="_top" xlink:title="Initialises the user instance with proper data.">
<polygon fill="white" stroke="#666666" points="642.5,-93 536.5,-93 536.5,-74 642.5,-74 642.5,-93"/>
<text text-anchor="middle" x="589.5" y="-81" font-family="Helvetica,sans-Serif" font-size="10.00">User.UserData.Init</text>
</a>
</g>
</g>
<!-- Node2&#45;&gt;Node3 -->
<g id="edge2_Node000002_Node000003" class="edge">
<title>Node2&#45;&gt;Node3</title>
<g id="a_edge2_Node000002_Node000003"><a xlink:title=" ">
<path fill="none" stroke="#63b8ff" d="M478.74,-83.5C494.63,-83.5 510.97,-83.5 526.03,-83.5"/>
<polygon fill="#63b8ff" stroke="#63b8ff" points="526.23,-87 536.23,-83.5 526.23,-80 526.23,-87"/>
</a>
</g>
</g>
<!-- Node5 -->
<g id="Node000005" class="node">
<title>Node5</title>
<g id="a_Node000005"><a xlink:href="classUser_1_1UserData.html#a8c8911482003919ea4fbab040c755f8f" target="_top" xlink:title="Signal&#39;s that the user is logged out.">
<polygon fill="white" stroke="#666666" points="651,-56 528,-56 528,-37 651,-37 651,-56"/>
<text text-anchor="middle" x="589.5" y="-44" font-family="Helvetica,sans-Serif" font-size="10.00">User.UserData.Logout</text>
</a>
</g>
</g>
<!-- Node4&#45;&gt;Node5 -->
<g id="edge4_Node000004_Node000005" class="edge">
<title>Node4&#45;&gt;Node5</title>
<g id="a_edge4_Node000004_Node000005"><a xlink:title=" ">
<path fill="none" stroke="#63b8ff" d="M482.71,-46.5C494.37,-46.5 506.2,-46.5 517.51,-46.5"/>
<polygon fill="#63b8ff" stroke="#63b8ff" points="517.73,-50 527.73,-46.5 517.73,-43 517.73,-50"/>
</a>
</g>
</g>
</g>
</svg>
