<?xml version="1.0" encoding="UTF-8" standalone="no"?>
<!DOCTYPE svg PUBLIC "-//W3C//DTD SVG 1.1//EN"
 "http://www.w3.org/Graphics/SVG/1.1/DTD/svg11.dtd">
<!-- Generated by graphviz version 2.43.0 (0)
 -->
<!-- Title: Game.UI.LeaderboardWindow.Show Pages: 1 -->
<!--zoomable 138 -->

<svg id="main" version="1.1" xmlns="http://www.w3.org/2000/svg" xmlns:xlink="http://www.w3.org/1999/xlink" xml:space="preserve" onload="init(evt)">
<style type="text/css"><![CDATA[
.node, .edge {opacity: 0.7;}
.node.selected, .edge.selected {opacity: 1;}
.edge:hover path { stroke: red; }
.edge:hover polygon { stroke: red; fill: red; }
]]></style>

<defs>
  <circle id="rim" cx="0" cy="0" r="7"/>
  <circle id="rim2" cx="0" cy="0" r="3.5"/>
  <g id="zoomPlus">
    <use xlink:href="#rim" fill="#404040"><set attributeName="fill" to="#808080" begin="zoomplus.mouseover" end="zoomplus.mouseout"/></use>
    <path d="M-4,0h8M0,-4v8" fill="none" stroke="white" stroke-width="1.5" pointer-events="none"/>
  </g>
  <g id="zoomMin">
    <use xlink:href="#rim" fill="#404040"><set attributeName="fill" to="#808080" begin="zoomminus.mouseover" end="zoomminus.mouseout"/></use>
    <path d="M-4,0h8" fill="none" stroke="white" stroke-width="1.5" pointer-events="none"/>
  </g>
  <g id="arrowUp" transform="translate(30 24)">
    <use xlink:href="#rim"/>
    <path pointer-events="none" fill="none" stroke="white" stroke-width="1.5" d="M0,-3.0v7 M-2.5,-0.5L0,-3.0L2.5,-0.5"/>
  </g>
  <g id="arrowRight" transform="rotate(90) translate(36 -43)">
    <use xlink:href="#rim"/>
    <path pointer-events="none" fill="none" stroke="white" stroke-width="1.5" d="M0,-3.0v7 M-2.5,-0.5L0,-3.0L2.5,-0.5"/>
  </g>
  <g id="arrowDown" transform="rotate(180) translate(-30 -48)">
    <use xlink:href="#rim"/>
    <path pointer-events="none" fill="none" stroke="white" stroke-width="1.5" d="M0,-3.0v7 M-2.5,-0.5L0,-3.0L2.5,-0.5"/>
  </g>
  <g id="arrowLeft" transform="rotate(270) translate(-36 17)">
    <use xlink:href="#rim"/>
    <path pointer-events="none" fill="none" stroke="white" stroke-width="1.5" d="M0,-3.0v7 M-2.5,-0.5L0,-3.0L2.5,-0.5"/>
  </g>
  <g id="resetDef">
    <use xlink:href="#rim2" fill="#404040"><set attributeName="fill" to="#808080" begin="reset.mouseover" end="reset.mouseout"/></use>
  </g>
</defs>
<script type="application/ecmascript">
var viewWidth = 960;
var viewHeight = 138;
var sectionId = 'dynsection-2';
</script>
<script type="application/ecmascript" xlink:href="svg.min.js"/>
<svg id="graph" class="graph">
<g id="viewport">
<title>Game.UI.LeaderboardWindow.Show</title>
<!-- Node1 -->
<g id="Node000001" class="node">
<title>Node1</title>
<g id="a_Node000001"><a xlink:title="Show the window.">
<polygon fill="#999999" stroke="#666666" points="191,-74 0,-74 0,-55 191,-55 191,-74"/>
<text text-anchor="middle" x="95.5" y="-62" font-family="Helvetica,sans-Serif" font-size="10.00">Game.UI.LeaderboardWindow.Show</text>
</a>
</g>
</g>
<!-- Node2 -->
<g id="Node000002" class="node">
<title>Node2</title>
<g id="a_Node000002"><a xlink:href="classGame_1_1UI_1_1LeaderboardWindow.html#a6d7212efa2c2627d119bac3318ea0d00" target="_top" xlink:title="Load the scores.">
<polygon fill="white" stroke="#666666" points="447,-74 227,-74 227,-55 447,-55 447,-74"/>
<text text-anchor="middle" x="337" y="-62" font-family="Helvetica,sans-Serif" font-size="10.00">Game.UI.LeaderboardWindow.LoadScores</text>
</a>
</g>
</g>
<!-- Node1&#45;&gt;Node2 -->
<g id="edge1_Node000001_Node000002" class="edge">
<title>Node1&#45;&gt;Node2</title>
<g id="a_edge1_Node000001_Node000002"><a xlink:title=" ">
<path fill="none" stroke="#63b8ff" d="M191.16,-64.5C199.61,-64.5 208.25,-64.5 216.88,-64.5"/>
<polygon fill="#63b8ff" stroke="#63b8ff" points="216.99,-68 226.99,-64.5 216.99,-61 216.99,-68"/>
</a>
</g>
</g>
<!-- Node3 -->
<g id="Node000003" class="node">
<title>Node3</title>
<g id="a_Node000003"><a xlink:href="classGame_1_1UI_1_1LeaderboardWindow.html#aa83c9458d4a3cf1ea754268c3c584416" target="_top" xlink:title="Callback after the scores were loaded.">
<polygon fill="white" stroke="#666666" points="733.5,-130 501.5,-130 501.5,-111 733.5,-111 733.5,-130"/>
<text text-anchor="middle" x="617.5" y="-118" font-family="Helvetica,sans-Serif" font-size="10.00">Game.UI.LeaderboardWindow.LoadedScores</text>
</a>
</g>
</g>
<!-- Node2&#45;&gt;Node3 -->
<g id="edge2_Node000002_Node000003" class="edge">
<title>Node2&#45;&gt;Node3</title>
<g id="a_edge2_Node000002_Node000003"><a xlink:title=" ">
<path fill="none" stroke="#63b8ff" d="M369.71,-74.01C398.91,-82.48 443.56,-94.7 483,-102.5 496.2,-105.11 510.21,-107.46 524,-109.52"/>
<polygon fill="#63b8ff" stroke="#63b8ff" points="523.59,-113 533.99,-110.98 524.6,-106.07 523.59,-113"/>
</a>
</g>
</g>
<!-- Node5 -->
<g id="Node000005" class="node">
<title>Node5</title>
<g id="a_Node000005"><a xlink:href="classConfig_1_1ServerConfig.html#ae1592f2810947e426b77b35e99934e4b" target="_top" xlink:title="Path to api endpoint to get all the game scores since the given time (limit 100)">
<polygon fill="white" stroke="#666666" points="752,-93 483,-93 483,-74 752,-74 752,-93"/>
<text text-anchor="middle" x="617.5" y="-81" font-family="Helvetica,sans-Serif" font-size="10.00">Config.ServerConfig.PATH_FOR_GET_GAME_SCORES</text>
</a>
</g>
</g>
<!-- Node2&#45;&gt;Node5 -->
<g id="edge4_Node000002_Node000005" class="edge">
<title>Node2&#45;&gt;Node5</title>
<g id="a_edge4_Node000002_Node000005"><a xlink:title=" ">
<path fill="none" stroke="#63b8ff" d="M447.27,-71.95C455.6,-72.52 464.07,-73.1 472.57,-73.68"/>
<polygon fill="#63b8ff" stroke="#63b8ff" points="472.33,-77.17 482.55,-74.36 472.81,-70.19 472.33,-77.17"/>
</a>
</g>
</g>
<!-- Node6 -->
<g id="Node000006" class="node">
<title>Node6</title>
<g id="a_Node000006"><a xlink:href="classUtility_1_1CoroutineRunner.html#a1c473dee723f16d86bab9d8475c8214a" target="_top" xlink:title="A helper method to start coroutines.">
<polygon fill="white" stroke="#666666" points="716.5,-56 518.5,-56 518.5,-37 716.5,-37 716.5,-56"/>
<text text-anchor="middle" x="617.5" y="-44" font-family="Helvetica,sans-Serif" font-size="10.00">Utility.CoroutineRunner.RunCoroutine</text>
</a>
</g>
</g>
<!-- Node2&#45;&gt;Node6 -->
<g id="edge5_Node000002_Node000006" class="edge">
<title>Node2&#45;&gt;Node6</title>
<g id="a_edge5_Node000002_Node000006"><a xlink:title=" ">
<path fill="none" stroke="#63b8ff" d="M447.27,-57.44C467.35,-56.14 488.3,-54.79 508.34,-53.49"/>
<polygon fill="#63b8ff" stroke="#63b8ff" points="508.66,-56.98 518.41,-52.84 508.21,-49.99 508.66,-56.98"/>
</a>
</g>
</g>
<!-- Node7 -->
<g id="Node000007" class="node">
<title>Node7</title>
<g id="a_Node000007"><a xlink:href="classGame_1_1UI_1_1LeaderboardWindow.html#add244b5633e10a828542b586844e9ef2" target="_top" xlink:title="Show if the request failed in the modal.">
<polygon fill="white" stroke="#666666" points="741,-19 494,-19 494,0 741,0 741,-19"/>
<text text-anchor="middle" x="617.5" y="-7" font-family="Helvetica,sans-Serif" font-size="10.00">Game.UI.LeaderboardWindow.ShowRequestFail</text>
</a>
</g>
</g>
<!-- Node2&#45;&gt;Node7 -->
<g id="edge6_Node000002_Node000007" class="edge">
<title>Node2&#45;&gt;Node7</title>
<g id="a_edge6_Node000002_Node000007"><a xlink:title=" ">
<path fill="none" stroke="#63b8ff" d="M372.06,-55C401.3,-47.09 444.68,-35.96 483,-28.5 498.08,-25.56 514.2,-22.88 529.84,-20.52"/>
<polygon fill="#63b8ff" stroke="#63b8ff" points="530.65,-23.94 540.03,-19.02 529.63,-17.02 530.65,-23.94"/>
</a>
</g>
</g>
<!-- Node4 -->
<g id="Node000004" class="node">
<title>Node4</title>
<g id="a_Node000004"><a xlink:href="classGame_1_1UI_1_1LeaderboardItem.html#a3d41fb9a51ff51b9e249c0831f4d788a" target="_top" xlink:title="Initializes the item.">
<polygon fill="white" stroke="#666666" points="952,-130 788,-130 788,-111 952,-111 952,-130"/>
<text text-anchor="middle" x="870" y="-118" font-family="Helvetica,sans-Serif" font-size="10.00">Game.UI.LeaderboardItem.Init</text>
</a>
</g>
</g>
<!-- Node3&#45;&gt;Node4 -->
<g id="edge3_Node000003_Node000004" class="edge">
<title>Node3&#45;&gt;Node4</title>
<g id="a_edge3_Node000003_Node000004"><a xlink:title=" ">
<path fill="none" stroke="#63b8ff" d="M733.85,-120.5C748.52,-120.5 763.38,-120.5 777.6,-120.5"/>
<polygon fill="#63b8ff" stroke="#63b8ff" points="777.84,-124 787.84,-120.5 777.84,-117 777.84,-124"/>
</a>
</g>
</g>
<!-- Node8 -->
<g id="Node000008" class="node">
<title>Node8</title>
<g id="a_Node000008"><a xlink:href="classUtility_1_1ModalWindow.html#adcef8cae2dffe4247c905d042ff0a8e3" target="_top" xlink:title="Show the modal window.">
<polygon fill="white" stroke="#666666" points="943,-19 797,-19 797,0 943,0 943,-19"/>
<text text-anchor="middle" x="870" y="-7" font-family="Helvetica,sans-Serif" font-size="10.00">Utility.ModalWindow.Show</text>
</a>
</g>
</g>
<!-- Node7&#45;&gt;Node8 -->
<g id="edge7_Node000007_Node000008" class="edge">
<title>Node7&#45;&gt;Node8</title>
<g id="a_edge7_Node000007_Node000008"><a xlink:title=" ">
<path fill="none" stroke="#63b8ff" d="M741.18,-9.5C756.54,-9.5 771.96,-9.5 786.5,-9.5"/>
<polygon fill="#63b8ff" stroke="#63b8ff" points="786.92,-13 796.92,-9.5 786.92,-6 786.92,-13"/>
</a>
</g>
</g>
</g>
</svg>

<g id="navigator" transform="translate(0 0)" fill="#404254">
  <rect fill="#f2f5e9" fill-opacity="0.5" stroke="#606060" stroke-width=".5" x="0" y="0" width="60" height="60"/>
  <use id="zoomplus" xlink:href="#zoomPlus" x="17" y="9" onmousedown="handleZoom(evt,'in')"/>
  <use id="zoomminus" xlink:href="#zoomMin" x="42" y="9" onmousedown="handleZoom(evt,'out')"/>
  <use id="reset" xlink:href="#resetDef" x="30" y="36" onmousedown="handleReset()"/>
   <use id="arrowup" xlink:href="#arrowUp" x="0" y="0" onmousedown="handlePan(0,-1)"/>
  <use id="arrowright" xlink:href="#arrowRight" x="0" y="0" onmousedown="handlePan(1,0)"/>
  <use id="arrowdown" xlink:href="#arrowDown" x="0" y="0" onmousedown="handlePan(0,1)"/>
  <use id="arrowleft" xlink:href="#arrowLeft" x="0" y="0" onmousedown="handlePan(-1,0)"/>
</g>
<svg viewBox="0 0 15 15" width="100%" height="30px" preserveAspectRatio="xMaxYMin meet">
 <g id="arrow_out" transform="scale(0.3 0.3)">
  <a xlink:href="classGame_1_1UI_1_1LeaderboardWindow_a8404b4a49a1f74f3b634ec77eb4b1d87_cgraph_org.svg" target="_base">
   <rect id="button" ry="5" rx="5" y="6" x="6" height="38" width="38"
        fill="#f2f5e9" fill-opacity="0.5" stroke="#606060" stroke-width="1.0"/>
   <path id="arrow"
     d="M 11.500037,31.436501 C 11.940474,20.09759 22.043105,11.32322 32.158766,21.979434 L 37.068811,17.246167 C 37.068811,17.246167 37.088388,32 37.088388,32 L 22.160133,31.978069 C 22.160133,31.978069 26.997745,27.140456 26.997745,27.140456 C 18.528582,18.264221 13.291696,25.230495 11.500037,31.436501 z"
     style="fill:#404040;"/>
  </a>
 </g>
</svg>

<style type='text/css'>
<![CDATA[
[data-mouse-over-selected='false'] { opacity: 0.7; }
[data-mouse-over-selected='true']  { opacity: 1.0; }
]]>
</style>
<script type="application/ecmascript"><![CDATA[
document.addEventListener('DOMContentLoaded', (event) => {
  highlightEdges();
  highlightAdjacentNodes();
});
]]></script>
</svg>
