<?xml version="1.0" encoding="UTF-8" standalone="no"?>
<!DOCTYPE svg PUBLIC "-//W3C//DTD SVG 1.1//EN"
 "http://www.w3.org/Graphics/SVG/1.1/DTD/svg11.dtd">
<!-- Generated by graphviz version 2.43.0 (0)
 -->
<!-- Title: MainPage.TaskDisplayHandler.TaskCompleted Pages: 1 -->
<svg width="1772pt" height="156pt"
 viewBox="0.00 0.00 1772.00 156.00" xmlns="http://www.w3.org/2000/svg" xmlns:xlink="http://www.w3.org/1999/xlink">
<g id="graph0" class="graph" transform="scale(1 1) rotate(0) translate(4 152)">
<title>MainPage.TaskDisplayHandler.TaskCompleted</title>
<!-- Node1 -->
<g id="Node000001" class="node">
<title>Node1</title>
<g id="a_Node000001"><a xlink:title="When the complete acknowledge were recieved from the server update the display.">
<polygon fill="#999999" stroke="#666666" points="241,-56 0,-56 0,-37 241,-37 241,-56"/>
<text text-anchor="middle" x="120.5" y="-44" font-family="Helvetica,sans-Serif" font-size="10.00">MainPage.TaskDisplayHandler.TaskCompleted</text>
</a>
</g>
</g>
<!-- Node2 -->
<g id="Node000002" class="node">
<title>Node2</title>
<g id="a_Node000002"><a xlink:href="classMainPage_1_1TaskDisplayHandler.html#a754a230e53cedd3209a29d4d6a743719" target="_top" xlink:title="When the complete state is changed update the display to match it.">
<polygon fill="white" stroke="#666666" points="552,-93 277,-93 277,-74 552,-74 552,-93"/>
<text text-anchor="middle" x="414.5" y="-81" font-family="Helvetica,sans-Serif" font-size="10.00">MainPage.TaskDisplayHandler.CompleteStateChange</text>
</a>
</g>
</g>
<!-- Node1&#45;&gt;Node2 -->
<g id="edge1_Node000001_Node000002" class="edge">
<title>Node1&#45;&gt;Node2</title>
<g id="a_edge1_Node000001_Node000002"><a xlink:title=" ">
<path fill="none" stroke="#63b8ff" d="M196.7,-56.03C236.9,-61.12 286.54,-67.41 328.18,-72.69"/>
<polygon fill="#63b8ff" stroke="#63b8ff" points="327.94,-76.19 338.3,-73.97 328.82,-69.24 327.94,-76.19"/>
</a>
</g>
</g>
<!-- Node10 -->
<g id="Node000010" class="node">
<title>Node10</title>
<g id="a_Node000010"><a xlink:href="classUtility_1_1CoroutineRunner.html#a1c473dee723f16d86bab9d8475c8214a" target="_top" xlink:title="A helper method to start coroutines.">
<polygon fill="white" stroke="#666666" points="513.5,-56 315.5,-56 315.5,-37 513.5,-37 513.5,-56"/>
<text text-anchor="middle" x="414.5" y="-44" font-family="Helvetica,sans-Serif" font-size="10.00">Utility.CoroutineRunner.RunCoroutine</text>
</a>
</g>
</g>
<!-- Node1&#45;&gt;Node10 -->
<g id="edge13_Node000001_Node000010" class="edge">
<title>Node1&#45;&gt;Node10</title>
<g id="a_edge13_Node000001_Node000010"><a xlink:title=" ">
<path fill="none" stroke="#63b8ff" d="M241.11,-46.5C262.36,-46.5 284.38,-46.5 305.29,-46.5"/>
<polygon fill="#63b8ff" stroke="#63b8ff" points="305.46,-50 315.46,-46.5 305.46,-43 305.46,-50"/>
</a>
</g>
</g>
<!-- Node11 -->
<g id="Node000011" class="node">
<title>Node11</title>
<g id="a_Node000011"><a xlink:href="classMainPage_1_1MainWindowController.html#afea342e3985134e17406ed61958ecc6f" target="_top" xlink:title="Show the task request fail in the modal window.">
<polygon fill="white" stroke="#666666" points="537,-19 292,-19 292,0 537,0 537,-19"/>
<text text-anchor="middle" x="414.5" y="-7" font-family="Helvetica,sans-Serif" font-size="10.00">MainPage.MainWindowController.ShowTaskFail</text>
</a>
</g>
</g>
<!-- Node1&#45;&gt;Node11 -->
<g id="edge14_Node000001_Node000011" class="edge">
<title>Node1&#45;&gt;Node11</title>
<g id="a_edge14_Node000001_Node000011"><a xlink:title=" ">
<path fill="none" stroke="#63b8ff" d="M196.7,-36.97C236.9,-31.88 286.54,-25.59 328.18,-20.31"/>
<polygon fill="#63b8ff" stroke="#63b8ff" points="328.82,-23.76 338.3,-19.03 327.94,-16.81 328.82,-23.76"/>
</a>
</g>
</g>
<!-- Node3 -->
<g id="Node000003" class="node">
<title>Node3</title>
<g id="a_Node000003"><a xlink:href="classMainPage_1_1MainWindowController.html#a85072f5d92f4145d6213209a13936639" target="_top" xlink:title="Refreshes the tasks with the proper sorting order.">
<polygon fill="white" stroke="#666666" points="855.5,-130 598.5,-130 598.5,-111 855.5,-111 855.5,-130"/>
<text text-anchor="middle" x="727" y="-118" font-family="Helvetica,sans-Serif" font-size="10.00">MainPage.MainWindowController.SortingChanged</text>
</a>
</g>
</g>
<!-- Node2&#45;&gt;Node3 -->
<g id="edge2_Node000002_Node000003" class="edge">
<title>Node2&#45;&gt;Node3</title>
<g id="a_edge2_Node000002_Node000003"><a xlink:title=" ">
<path fill="none" stroke="#63b8ff" d="M495.46,-93.03C538.39,-98.14 591.44,-104.47 635.83,-109.76"/>
<polygon fill="#63b8ff" stroke="#63b8ff" points="635.7,-113.26 646.04,-110.97 636.52,-106.31 635.7,-113.26"/>
</a>
</g>
</g>
<!-- Node9 -->
<g id="Node000009" class="node">
<title>Node9</title>
<g id="a_Node000009"><a xlink:href="classMainPage_1_1TaskDisplayHandler.html#aa63f1bc894519b9d5872c2bb50b84415" target="_top" xlink:title="Update the time remaining until the task can be completed again.">
<polygon fill="white" stroke="#666666" points="866,-93 588,-93 588,-74 866,-74 866,-93"/>
<text text-anchor="middle" x="727" y="-81" font-family="Helvetica,sans-Serif" font-size="10.00">MainPage.TaskDisplayHandler.UpdateTimeRemaining</text>
</a>
</g>
</g>
<!-- Node2&#45;&gt;Node9 -->
<g id="edge11_Node000002_Node000009" class="edge">
<title>Node2&#45;&gt;Node9</title>
<g id="a_edge11_Node000002_Node000009"><a xlink:title=" ">
<path fill="none" stroke="#63b8ff" d="M552.14,-76.79C560.68,-76.75 569.29,-76.74 577.88,-76.76"/>
<polygon fill="#63b8ff" stroke="#63b8ff" points="577.92,-80.26 587.93,-76.79 577.94,-73.26 577.92,-80.26"/>
</a>
</g>
</g>
<!-- Node4 -->
<g id="Node000004" class="node">
<title>Node4</title>
<g id="a_Node000004"><a xlink:href="classMainPage_1_1MainWindowController.html#a241b480aeebdab1bc34320cad8de7712" target="_top" xlink:title="Load the good habits.">
<polygon fill="white" stroke="#666666" points="1157,-148 903,-148 903,-129 1157,-129 1157,-148"/>
<text text-anchor="middle" x="1030" y="-136" font-family="Helvetica,sans-Serif" font-size="10.00">MainPage.MainWindowController.LoadBadHabits</text>
</a>
</g>
</g>
<!-- Node3&#45;&gt;Node4 -->
<g id="edge3_Node000003_Node000004" class="edge">
<title>Node3&#45;&gt;Node4</title>
<g id="a_edge3_Node000003_Node000004"><a xlink:title=" ">
<path fill="none" stroke="#63b8ff" d="M855.65,-128.13C867.79,-128.86 880.14,-129.6 892.36,-130.33"/>
<polygon fill="#63b8ff" stroke="#63b8ff" points="892.4,-133.84 902.59,-130.94 892.82,-126.85 892.4,-133.84"/>
</a>
</g>
</g>
<!-- Node7 -->
<g id="Node000007" class="node">
<title>Node7</title>
<g id="a_Node000007"><a xlink:href="classMainPage_1_1MainWindowController.html#ab5b80370512cd4273e86927fe696462d" target="_top" xlink:title="Load the good tasks.">
<polygon fill="white" stroke="#666666" points="1158,-111 902,-111 902,-92 1158,-92 1158,-111"/>
<text text-anchor="middle" x="1030" y="-99" font-family="Helvetica,sans-Serif" font-size="10.00">MainPage.MainWindowController.LoadGoodTasks</text>
</a>
</g>
</g>
<!-- Node3&#45;&gt;Node7 -->
<g id="edge7_Node000003_Node000007" class="edge">
<title>Node3&#45;&gt;Node7</title>
<g id="a_edge7_Node000003_Node000007"><a xlink:title=" ">
<path fill="none" stroke="#63b8ff" d="M855.65,-112.44C867.54,-111.69 879.63,-110.93 891.61,-110.17"/>
<polygon fill="#63b8ff" stroke="#63b8ff" points="891.87,-113.66 901.63,-109.54 891.43,-106.68 891.87,-113.66"/>
</a>
</g>
</g>
<!-- Node5 -->
<g id="Node000005" class="node">
<title>Node5</title>
<g id="a_Node000005"><a xlink:href="classMainPage_1_1TaskOpenPanelController.html#a5513399c20f650915ca10f54805f416e" target="_top" xlink:title="Make this task a bad habit.">
<polygon fill="white" stroke="#666666" points="1464,-148 1195,-148 1195,-129 1464,-129 1464,-148"/>
<text text-anchor="middle" x="1329.5" y="-136" font-family="Helvetica,sans-Serif" font-size="10.00">MainPage.TaskOpenPanelController.MakeItBadHabit</text>
</a>
</g>
</g>
<!-- Node4&#45;&gt;Node5 -->
<g id="edge4_Node000004_Node000005" class="edge">
<title>Node4&#45;&gt;Node5</title>
<g id="a_edge4_Node000004_Node000005"><a xlink:title=" ">
<path fill="none" stroke="#63b8ff" d="M1157.17,-131.82C1166.35,-131.76 1175.66,-131.74 1184.94,-131.75"/>
<polygon fill="#63b8ff" stroke="#63b8ff" points="1184.98,-135.25 1194.99,-131.78 1185,-128.25 1184.98,-135.25"/>
</a>
</g>
</g>
<!-- Node5&#45;&gt;Node4 -->
<g id="edge5_Node000005_Node000004" class="edge">
<title>Node5&#45;&gt;Node4</title>
<g id="a_edge5_Node000005_Node000004"><a xlink:title=" ">
<path fill="none" stroke="#63b8ff" d="M1194.99,-145.22C1185.75,-145.26 1176.43,-145.26 1167.18,-145.23"/>
<polygon fill="#63b8ff" stroke="#63b8ff" points="1167.18,-141.73 1157.17,-145.18 1167.15,-148.73 1167.18,-141.73"/>
</a>
</g>
</g>
<!-- Node6 -->
<g id="Node000006" class="node">
<title>Node6</title>
<g id="a_Node000006"><a xlink:href="classMainPage_1_1TaskOpenPanelController.html#aa0b6757dbad141375c50282278b23b1a" target="_top" xlink:title="Update the buttons with the appropriate color based on the current task.">
<polygon fill="white" stroke="#666666" points="1764,-129 1501,-129 1501,-110 1764,-110 1764,-129"/>
<text text-anchor="middle" x="1632.5" y="-117" font-family="Helvetica,sans-Serif" font-size="10.00">MainPage.TaskOpenPanelController.UpdateButtons</text>
</a>
</g>
</g>
<!-- Node5&#45;&gt;Node6 -->
<g id="edge6_Node000005_Node000006" class="edge">
<title>Node5&#45;&gt;Node6</title>
<g id="a_edge6_Node000005_Node000006"><a xlink:title=" ">
<path fill="none" stroke="#63b8ff" d="M1464.28,-130.06C1472.97,-129.51 1481.73,-128.95 1490.45,-128.4"/>
<polygon fill="#63b8ff" stroke="#63b8ff" points="1490.91,-131.88 1500.67,-127.76 1490.46,-124.9 1490.91,-131.88"/>
</a>
</g>
</g>
<!-- Node8 -->
<g id="Node000008" class="node">
<title>Node8</title>
<g id="a_Node000008"><a xlink:href="classMainPage_1_1TaskOpenPanelController.html#a069a63e2b7e70cc4cb4c7e487b655700" target="_top" xlink:title="Make it a good task.">
<polygon fill="white" stroke="#666666" points="1465,-111 1194,-111 1194,-92 1465,-92 1465,-111"/>
<text text-anchor="middle" x="1329.5" y="-99" font-family="Helvetica,sans-Serif" font-size="10.00">MainPage.TaskOpenPanelController.MakeItGoodTask</text>
</a>
</g>
</g>
<!-- Node7&#45;&gt;Node8 -->
<g id="edge8_Node000007_Node000008" class="edge">
<title>Node7&#45;&gt;Node8</title>
<g id="a_edge8_Node000007_Node000008"><a xlink:title=" ">
<path fill="none" stroke="#63b8ff" d="M1158.03,-94.81C1166.54,-94.76 1175.15,-94.74 1183.75,-94.75"/>
<polygon fill="#63b8ff" stroke="#63b8ff" points="1183.81,-98.25 1193.82,-94.78 1183.83,-91.25 1183.81,-98.25"/>
</a>
</g>
</g>
<!-- Node8&#45;&gt;Node6 -->
<g id="edge10_Node000008_Node000006" class="edge">
<title>Node8&#45;&gt;Node6</title>
<g id="a_edge10_Node000008_Node000006"><a xlink:title=" ">
<path fill="none" stroke="#63b8ff" d="M1465.15,-109.55C1473.7,-110.06 1482.32,-110.58 1490.9,-111.09"/>
<polygon fill="#63b8ff" stroke="#63b8ff" points="1490.75,-114.59 1500.94,-111.69 1491.17,-107.6 1490.75,-114.59"/>
</a>
</g>
</g>
<!-- Node8&#45;&gt;Node7 -->
<g id="edge9_Node000008_Node000007" class="edge">
<title>Node8&#45;&gt;Node7</title>
<g id="a_edge9_Node000008_Node000007"><a xlink:title=" ">
<path fill="none" stroke="#63b8ff" d="M1193.82,-108.22C1185.26,-108.26 1176.63,-108.26 1168.06,-108.23"/>
<polygon fill="#63b8ff" stroke="#63b8ff" points="1168.05,-104.73 1158.03,-108.19 1168.01,-111.73 1168.05,-104.73"/>
</a>
</g>
</g>
<!-- Node9&#45;&gt;Node2 -->
<g id="edge12_Node000009_Node000002" class="edge">
<title>Node9&#45;&gt;Node2</title>
<g id="a_edge12_Node000009_Node000002"><a xlink:title=" ">
<path fill="none" stroke="#63b8ff" d="M587.93,-90.21C579.39,-90.25 570.77,-90.26 562.19,-90.24"/>
<polygon fill="#63b8ff" stroke="#63b8ff" points="562.15,-86.74 552.14,-90.21 562.13,-93.74 562.15,-86.74"/>
</a>
</g>
</g>
<!-- Node12 -->
<g id="Node000012" class="node">
<title>Node12</title>
<g id="a_Node000012"><a xlink:href="classUtility_1_1ModalWindow.html#adcef8cae2dffe4247c905d042ff0a8e3" target="_top" xlink:title="Show the modal window.">
<polygon fill="white" stroke="#666666" points="800,-19 654,-19 654,0 800,0 800,-19"/>
<text text-anchor="middle" x="727" y="-7" font-family="Helvetica,sans-Serif" font-size="10.00">Utility.ModalWindow.Show</text>
</a>
</g>
</g>
<!-- Node11&#45;&gt;Node12 -->
<g id="edge15_Node000011_Node000012" class="edge">
<title>Node11&#45;&gt;Node12</title>
<g id="a_edge15_Node000011_Node000012"><a xlink:title=" ">
<path fill="none" stroke="#63b8ff" d="M537.33,-9.5C572.89,-9.5 610.92,-9.5 643.44,-9.5"/>
<polygon fill="#63b8ff" stroke="#63b8ff" points="643.8,-13 653.8,-9.5 643.8,-6 643.8,-13"/>
</a>
</g>
</g>
</g>
</svg>
