<?xml version="1.0" encoding="UTF-8" standalone="no"?>
<!DOCTYPE svg PUBLIC "-//W3C//DTD SVG 1.1//EN"
 "http://www.w3.org/Graphics/SVG/1.1/DTD/svg11.dtd">
<!-- Generated by graphviz version 2.43.0 (0)
 -->
<!-- Title: MainPage.FriendHandler Pages: 1 -->
<svg width="208pt" height="364pt"
 viewBox="0.00 0.00 208.00 364.00" xmlns="http://www.w3.org/2000/svg" xmlns:xlink="http://www.w3.org/1999/xlink">
<g id="graph0" class="graph" transform="scale(1 1) rotate(0) translate(4 360)">
<title>MainPage.FriendHandler</title>
<polygon fill="white" stroke="transparent" points="-4,4 -4,-360 204,-360 204,4 -4,4"/>
<!-- Node1 -->
<g id="node1" class="node">
<title>Node1</title>
<g id="a_node1"><a xlink:title="Handles a single friend entry display">
<polygon fill="#bfbfbf" stroke="black" points="0,-0.5 0,-167.5 200,-167.5 200,-0.5 0,-0.5"/>
<text text-anchor="middle" x="100" y="-155.5" font-family="Helvetica,sans-Serif" font-size="10.00">MainPage.FriendHandler</text>
<polyline fill="none" stroke="black" points="0,-148.5 200,-148.5 "/>
<text text-anchor="start" x="8" y="-136.5" font-family="Helvetica,sans-Serif" font-size="10.00">+ Friend Friend</text>
<text text-anchor="start" x="8" y="-125.5" font-family="Helvetica,sans-Serif" font-size="10.00">&#45; TMP_Text friendNameLabel</text>
<text text-anchor="start" x="8" y="-114.5" font-family="Helvetica,sans-Serif" font-size="10.00">&#45; TMP_Text scoreText</text>
<text text-anchor="start" x="8" y="-103.5" font-family="Helvetica,sans-Serif" font-size="10.00">&#45; TMP_Text scoreLabelText</text>
<text text-anchor="start" x="8" y="-92.5" font-family="Helvetica,sans-Serif" font-size="10.00">&#45; Button acceptButton</text>
<text text-anchor="start" x="8" y="-81.5" font-family="Helvetica,sans-Serif" font-size="10.00">&#45; TMP_Text pendingtext</text>
<polyline fill="none" stroke="black" points="0,-74.5 200,-74.5 "/>
<text text-anchor="start" x="8" y="-62.5" font-family="Helvetica,sans-Serif" font-size="10.00">+ void InitValues(Friend friend)</text>
<text text-anchor="start" x="8" y="-51.5" font-family="Helvetica,sans-Serif" font-size="10.00">+ void AcceptFriendRequest()</text>
<text text-anchor="start" x="8" y="-40.5" font-family="Helvetica,sans-Serif" font-size="10.00">+ void DeleteFriend()</text>
<text text-anchor="start" x="8" y="-29.5" font-family="Helvetica,sans-Serif" font-size="10.00">&#45; void Accepted(Thesis_backend.Data</text>
<text text-anchor="start" x="8" y="-18.5" font-family="Helvetica,sans-Serif" font-size="10.00">_Structures.Friend result)</text>
<text text-anchor="start" x="8" y="-7.5" font-family="Helvetica,sans-Serif" font-size="10.00">&#45; void Deleted(string result)</text>
</a>
</g>
</g>
<!-- Node2 -->
<g id="node2" class="node">
<title>Node2</title>
<g id="a_node2"><a xlink:href="classUtility_1_1ThreadSafeMonoBehaviour.html" target="_top" xlink:title="Safely stores if the gameobject been destroyed in a bool">
<polygon fill="white" stroke="black" points="25.5,-204.5 25.5,-261.5 174.5,-261.5 174.5,-204.5 25.5,-204.5"/>
<text text-anchor="middle" x="100" y="-249.5" font-family="Helvetica,sans-Serif" font-size="10.00">ThreadSafeMonoBehaviour</text>
<polyline fill="none" stroke="black" points="25.5,-242.5 174.5,-242.5 "/>
<text text-anchor="start" x="33.5" y="-230.5" font-family="Helvetica,sans-Serif" font-size="10.00">+ bool Destroyed</text>
<polyline fill="none" stroke="black" points="25.5,-223.5 174.5,-223.5 "/>
<text text-anchor="start" x="33.5" y="-211.5" font-family="Helvetica,sans-Serif" font-size="10.00"># void OnDestroy()</text>
</a>
</g>
</g>
<!-- Node2&#45;&gt;Node1 -->
<g id="edge1" class="edge">
<title>Node2&#45;&gt;Node1</title>
<path fill="none" stroke="midnightblue" d="M100,-194.35C100,-186.08 100,-177.01 100,-167.74"/>
<polygon fill="none" stroke="midnightblue" points="96.5,-194.35 100,-204.35 103.5,-194.35 96.5,-194.35"/>
</g>
<!-- Node3 -->
<g id="node3" class="node">
<title>Node3</title>
<g id="a_node3"><a xlink:title=" ">
<polygon fill="white" stroke="#bfbfbf" points="53.5,-298.5 53.5,-355.5 146.5,-355.5 146.5,-298.5 53.5,-298.5"/>
<text text-anchor="middle" x="100" y="-343.5" font-family="Helvetica,sans-Serif" font-size="10.00">MonoBehaviour</text>
<polyline fill="none" stroke="#bfbfbf" points="53.5,-336.5 146.5,-336.5 "/>
<text text-anchor="middle" x="100" y="-324.5" font-family="Helvetica,sans-Serif" font-size="10.00"> </text>
<polyline fill="none" stroke="#bfbfbf" points="53.5,-317.5 146.5,-317.5 "/>
<text text-anchor="middle" x="100" y="-305.5" font-family="Helvetica,sans-Serif" font-size="10.00"> </text>
</a>
</g>
</g>
<!-- Node3&#45;&gt;Node2 -->
<g id="edge2" class="edge">
<title>Node3&#45;&gt;Node2</title>
<path fill="none" stroke="midnightblue" d="M100,-288.21C100,-279.29 100,-269.95 100,-261.58"/>
<polygon fill="none" stroke="midnightblue" points="96.5,-288.4 100,-298.4 103.5,-288.4 96.5,-288.4"/>
</g>
</g>
</svg>
