<?xml version="1.0" encoding="UTF-8" standalone="no"?>
<!DOCTYPE svg PUBLIC "-//W3C//DTD SVG 1.1//EN"
 "http://www.w3.org/Graphics/SVG/1.1/DTD/svg11.dtd">
<!-- Generated by graphviz version 2.43.0 (0)
 -->
<!-- Title: Game.UI.GameUI.ShowRequestFail Pages: 1 -->
<svg width="964pt" height="193pt"
 viewBox="0.00 0.00 964.00 193.00" xmlns="http://www.w3.org/2000/svg" xmlns:xlink="http://www.w3.org/1999/xlink">
<g id="graph0" class="graph" transform="scale(1 1) rotate(0) translate(4 189)">
<title>Game.UI.GameUI.ShowRequestFail</title>
<!-- Node1 -->
<g id="Node000001" class="node">
<title>Node1</title>
<g id="a_Node000001"><a xlink:title="Show if the request failed on the modal window.">
<polygon fill="#999999" stroke="#666666" points="956,-129 768,-129 768,-110 956,-110 956,-129"/>
<text text-anchor="middle" x="862" y="-117" font-family="Helvetica,sans-Serif" font-size="10.00">Game.UI.GameUI.ShowRequestFail</text>
</a>
</g>
</g>
<!-- Node2 -->
<g id="Node000002" class="node">
<title>Node2</title>
<g id="a_Node000002"><a xlink:href="classGame_1_1UI_1_1GameUI.html#acd930ff070019fc74a3795a8b1452923" target="_top" xlink:title="Buy the immunity power up.">
<polygon fill="white" stroke="#666666" points="723,-185 552,-185 552,-166 723,-166 723,-185"/>
<text text-anchor="middle" x="637.5" y="-173" font-family="Helvetica,sans-Serif" font-size="10.00">Game.UI.GameUI.BuyImmunity</text>
</a>
</g>
</g>
<!-- Node1&#45;&gt;Node2 -->
<g id="edge1_Node000001_Node000002" class="edge">
<title>Node1&#45;&gt;Node2</title>
<g id="a_edge1_Node000001_Node000002"><a xlink:title=" ">
<path fill="none" stroke="#63b8ff" d="M821.85,-132.1C796.42,-140.02 762.44,-150.1 732,-157.5 719.47,-160.54 705.9,-163.4 693.08,-165.91"/>
<polygon fill="#63b8ff" stroke="#63b8ff" points="823.01,-135.4 831.5,-129.07 820.91,-128.73 823.01,-135.4"/>
</a>
</g>
</g>
<!-- Node4 -->
<g id="Node000004" class="node">
<title>Node4</title>
<g id="a_Node000004"><a xlink:href="classGame_1_1UI_1_1GameUI.html#a97a84e72b5ac1d245d1bfd3eb802fdfd" target="_top" xlink:title="Buy the turbo power up.">
<polygon fill="white" stroke="#666666" points="712.5,-148 562.5,-148 562.5,-129 712.5,-129 712.5,-148"/>
<text text-anchor="middle" x="637.5" y="-136" font-family="Helvetica,sans-Serif" font-size="10.00">Game.UI.GameUI.BuyTurbo</text>
</a>
</g>
</g>
<!-- Node1&#45;&gt;Node4 -->
<g id="edge3_Node000001_Node000004" class="edge">
<title>Node1&#45;&gt;Node4</title>
<g id="a_edge3_Node000001_Node000004"><a xlink:title=" ">
<path fill="none" stroke="#63b8ff" d="M757.92,-128.3C742.64,-129.61 727.14,-130.93 712.6,-132.17"/>
<polygon fill="#63b8ff" stroke="#63b8ff" points="758.26,-131.79 767.93,-127.45 757.67,-124.81 758.26,-131.79"/>
</a>
</g>
</g>
<!-- Node5 -->
<g id="Node000005" class="node">
<title>Node5</title>
<g id="a_Node000005"><a xlink:href="classGame_1_1UI_1_1GameUI.html#aaed9ba7f6e28b2260d488f01c803e60a" target="_top" xlink:title="Buy the double coins bonus.">
<polygon fill="white" stroke="#666666" points="721,-111 554,-111 554,-92 721,-92 721,-111"/>
<text text-anchor="middle" x="637.5" y="-99" font-family="Helvetica,sans-Serif" font-size="10.00">Game.UI.GameUI.DoubleCoins</text>
</a>
</g>
</g>
<!-- Node1&#45;&gt;Node5 -->
<g id="edge5_Node000001_Node000005" class="edge">
<title>Node1&#45;&gt;Node5</title>
<g id="a_edge5_Node000001_Node000005"><a xlink:title=" ">
<path fill="none" stroke="#63b8ff" d="M757.71,-111.14C745.5,-110.16 733.16,-109.16 721.28,-108.2"/>
<polygon fill="#63b8ff" stroke="#63b8ff" points="757.68,-114.65 767.93,-111.97 758.24,-107.68 757.68,-114.65"/>
</a>
</g>
</g>
<!-- Node6 -->
<g id="Node000006" class="node">
<title>Node6</title>
<g id="a_Node000006"><a xlink:href="classGame_1_1UI_1_1GameUI.html#a4f9c8b23e2a0e5d86c53377ece2c9bac" target="_top" xlink:title="Save the game&#39;s result.">
<polygon fill="white" stroke="#666666" points="732,-74 543,-74 543,-55 732,-55 732,-74"/>
<text text-anchor="middle" x="637.5" y="-62" font-family="Helvetica,sans-Serif" font-size="10.00">Game.UI.GameUI.SaveGameResult</text>
</a>
</g>
</g>
<!-- Node1&#45;&gt;Node6 -->
<g id="edge6_Node000001_Node000006" class="edge">
<title>Node1&#45;&gt;Node6</title>
<g id="a_edge6_Node000001_Node000006"><a xlink:title=" ">
<path fill="none" stroke="#63b8ff" d="M819.75,-107.18C794.52,-99.84 761.54,-90.61 732,-83.5 718.15,-80.16 703.05,-76.93 689.11,-74.1"/>
<polygon fill="#63b8ff" stroke="#63b8ff" points="818.78,-110.54 829.36,-109.99 820.74,-103.82 818.78,-110.54"/>
</a>
</g>
</g>
<!-- Node3 -->
<g id="Node000003" class="node">
<title>Node3</title>
<g id="a_Node000003"><a xlink:href="classGame_1_1UI_1_1GameUI.html#a77f6894867ecdecc2f7ca4bea695849f" target="_top" xlink:title="Called every frame.">
<polygon fill="white" stroke="#666666" points="470.5,-166 330.5,-166 330.5,-147 470.5,-147 470.5,-166"/>
<text text-anchor="middle" x="400.5" y="-154" font-family="Helvetica,sans-Serif" font-size="10.00">Game.UI.GameUI.Update</text>
</a>
</g>
</g>
<!-- Node2&#45;&gt;Node3 -->
<g id="edge2_Node000002_Node000003" class="edge">
<title>Node2&#45;&gt;Node3</title>
<g id="a_edge2_Node000002_Node000003"><a xlink:title=" ">
<path fill="none" stroke="#63b8ff" d="M541.87,-167.85C518.04,-165.92 492.9,-163.89 470.59,-162.09"/>
<polygon fill="#63b8ff" stroke="#63b8ff" points="541.74,-171.35 551.99,-168.67 542.31,-164.37 541.74,-171.35"/>
</a>
</g>
</g>
<!-- Node4&#45;&gt;Node3 -->
<g id="edge4_Node000004_Node000003" class="edge">
<title>Node4&#45;&gt;Node3</title>
<g id="a_edge4_Node000004_Node000003"><a xlink:title=" ">
<path fill="none" stroke="#63b8ff" d="M552.35,-144.95C525.6,-146.99 496.34,-149.24 470.76,-151.19"/>
<polygon fill="#63b8ff" stroke="#63b8ff" points="552.76,-148.42 562.47,-144.17 552.23,-141.44 552.76,-148.42"/>
</a>
</g>
</g>
<!-- Node7 -->
<g id="Node000007" class="node">
<title>Node7</title>
<g id="a_Node000007"><a xlink:href="classGame_1_1UI_1_1GameUI.html#a87baf7b6bd70298f817e2c8e5e52a33a" target="_top" xlink:title="Hide the game over screen.">
<polygon fill="white" stroke="#666666" points="507,-74 294,-74 294,-55 507,-55 507,-74"/>
<text text-anchor="middle" x="400.5" y="-62" font-family="Helvetica,sans-Serif" font-size="10.00">Game.UI.GameUI.HideGameOverScreen</text>
</a>
</g>
</g>
<!-- Node6&#45;&gt;Node7 -->
<g id="edge7_Node000006_Node000007" class="edge">
<title>Node6&#45;&gt;Node7</title>
<g id="a_edge7_Node000006_Node000007"><a xlink:title=" ">
<path fill="none" stroke="#63b8ff" d="M532.94,-64.5C524.37,-64.5 515.7,-64.5 507.11,-64.5"/>
<polygon fill="#63b8ff" stroke="#63b8ff" points="532.95,-68 542.95,-64.5 532.95,-61 532.95,-68"/>
</a>
</g>
</g>
<!-- Node8 -->
<g id="Node000008" class="node">
<title>Node8</title>
<g id="a_Node000008"><a xlink:href="classGame_1_1UI_1_1GameUI.html#ae468c173078a10af94f671a2f8db940b" target="_top" xlink:title="Show the main menu.">
<polygon fill="white" stroke="#666666" points="227,-130 31,-130 31,-111 227,-111 227,-130"/>
<text text-anchor="middle" x="129" y="-118" font-family="Helvetica,sans-Serif" font-size="10.00">Game.UI.GameUI.BackToGameMenu</text>
</a>
</g>
</g>
<!-- Node7&#45;&gt;Node8 -->
<g id="edge8_Node000007_Node000008" class="edge">
<title>Node7&#45;&gt;Node8</title>
<g id="a_edge8_Node000007_Node000008"><a xlink:title=" ">
<path fill="none" stroke="#63b8ff" d="M358.43,-76.96C330.36,-85.12 292.18,-95.53 258,-102.5 242.17,-105.73 225.12,-108.56 208.78,-110.97"/>
<polygon fill="#63b8ff" stroke="#63b8ff" points="359.68,-80.24 368.29,-74.07 357.71,-73.52 359.68,-80.24"/>
</a>
</g>
</g>
<!-- Node9 -->
<g id="Node000009" class="node">
<title>Node9</title>
<g id="a_Node000009"><a xlink:href="classGame_1_1UI_1_1GameUI.html#aaec0b0e9165ba1d2dc25f1c562f5478a" target="_top" xlink:title="Show the main menu, but don&#39;t save the scores.">
<polygon fill="white" stroke="#666666" points="258,-93 0,-93 0,-74 258,-74 258,-93"/>
<text text-anchor="middle" x="129" y="-81" font-family="Helvetica,sans-Serif" font-size="10.00">Game.UI.GameUI.BackToGameMenuWithoutSave</text>
</a>
</g>
</g>
<!-- Node7&#45;&gt;Node9 -->
<g id="edge9_Node000007_Node000009" class="edge">
<title>Node7&#45;&gt;Node9</title>
<g id="a_edge9_Node000007_Node000009"><a xlink:title=" ">
<path fill="none" stroke="#63b8ff" d="M283.59,-72.67C275.21,-73.26 266.72,-73.86 258.27,-74.46"/>
<polygon fill="#63b8ff" stroke="#63b8ff" points="284.03,-76.15 293.76,-71.95 283.54,-69.17 284.03,-76.15"/>
</a>
</g>
</g>
<!-- Node10 -->
<g id="Node000010" class="node">
<title>Node10</title>
<g id="a_Node000010"><a xlink:href="classGame_1_1UI_1_1GameUI.html#a4248468e8aaa0b1f7bb24162e9bef6c7" target="_top" xlink:title="Move back to the tasks.">
<polygon fill="white" stroke="#666666" points="212.5,-56 45.5,-56 45.5,-37 212.5,-37 212.5,-56"/>
<text text-anchor="middle" x="129" y="-44" font-family="Helvetica,sans-Serif" font-size="10.00">Game.UI.GameUI.BackToTasks</text>
</a>
</g>
</g>
<!-- Node7&#45;&gt;Node10 -->
<g id="edge10_Node000007_Node000010" class="edge">
<title>Node7&#45;&gt;Node10</title>
<g id="a_edge10_Node000007_Node000010"><a xlink:title=" ">
<path fill="none" stroke="#63b8ff" d="M283.57,-56.76C259.67,-55.16 234.95,-53.51 212.53,-52.01"/>
<polygon fill="#63b8ff" stroke="#63b8ff" points="283.55,-60.26 293.76,-57.44 284.02,-53.28 283.55,-60.26"/>
</a>
</g>
</g>
<!-- Node11 -->
<g id="Node000011" class="node">
<title>Node11</title>
<g id="a_Node000011"><a xlink:href="classGame_1_1UI_1_1GameUI.html#ad581ee67e01ac3bcdec06cf2538f06e4" target="_top" xlink:title="Start a new game.">
<polygon fill="white" stroke="#666666" points="207,-19 51,-19 51,0 207,0 207,-19"/>
<text text-anchor="middle" x="129" y="-7" font-family="Helvetica,sans-Serif" font-size="10.00">Game.UI.GameUI.NewGame</text>
</a>
</g>
</g>
<!-- Node7&#45;&gt;Node11 -->
<g id="edge11_Node000007_Node000011" class="edge">
<title>Node7&#45;&gt;Node11</title>
<g id="a_edge11_Node000007_Node000011"><a xlink:title=" ">
<path fill="none" stroke="#63b8ff" d="M356.16,-52.25C328.28,-44.68 291.2,-35.17 258,-28.5 240.27,-24.94 221.03,-21.74 202.99,-19.02"/>
<polygon fill="#63b8ff" stroke="#63b8ff" points="355.41,-55.68 365.98,-54.95 357.26,-48.93 355.41,-55.68"/>
</a>
</g>
</g>
</g>
</svg>
