<?xml version="1.0" encoding="UTF-8" standalone="no"?>
<!DOCTYPE svg PUBLIC "-//W3C//DTD SVG 1.1//EN"
 "http://www.w3.org/Graphics/SVG/1.1/DTD/svg11.dtd">
<!-- Generated by graphviz version 2.43.0 (0)
 -->
<!-- Title: Game.UI.GameUI.BuyImmunity Pages: 1 -->
<svg width="623pt" height="180pt"
 viewBox="0.00 0.00 623.00 180.00" xmlns="http://www.w3.org/2000/svg" xmlns:xlink="http://www.w3.org/1999/xlink">
<g id="graph0" class="graph" transform="scale(1 1) rotate(0) translate(4 176)">
<title>Game.UI.GameUI.BuyImmunity</title>
<polygon fill="white" stroke="transparent" points="-4,4 -4,-176 619,-176 619,4 -4,4"/>
<!-- Node1 -->
<g id="node1" class="node">
<title>Node1</title>
<g id="a_node1"><a xlink:title="Buy the immunity power up">
<polygon fill="#bfbfbf" stroke="black" points="0,-76.5 0,-95.5 171,-95.5 171,-76.5 0,-76.5"/>
<text text-anchor="middle" x="85.5" y="-83.5" font-family="Helvetica,sans-Serif" font-size="10.00">Game.UI.GameUI.BuyImmunity</text>
</a>
</g>
</g>
<!-- Node2 -->
<g id="node2" class="node">
<title>Node2</title>
<g id="a_node2"><a xlink:href="classGame_1_1PlayerCar.html#a17bdd48255bfc4b1f00c106451981bc3" target="_top" xlink:title=" ">
<polygon fill="white" stroke="black" points="219.5,-152.5 219.5,-171.5 392.5,-171.5 392.5,-152.5 219.5,-152.5"/>
<text text-anchor="middle" x="306" y="-159.5" font-family="Helvetica,sans-Serif" font-size="10.00">Game.PlayerCar.ApplyImmunity</text>
</a>
</g>
</g>
<!-- Node1&#45;&gt;Node2 -->
<g id="edge1" class="edge">
<title>Node1&#45;&gt;Node2</title>
<path fill="none" stroke="midnightblue" d="M103.11,-95.5C125.85,-108.13 168.29,-130.32 207,-143 215.38,-145.74 224.29,-148.15 233.2,-150.24"/>
<polygon fill="midnightblue" stroke="midnightblue" points="232.71,-153.72 243.23,-152.47 234.23,-146.88 232.71,-153.72"/>
</g>
<!-- Node3 -->
<g id="node3" class="node">
<title>Node3</title>
<g id="a_node3"><a xlink:href="classGame_1_1UI_1_1GameUI.html#a5917dd3ff591dc192c83474a0db6b79d" target="_top" xlink:title="Callback after the player bought the immunity">
<polygon fill="white" stroke="black" points="212.5,-114.5 212.5,-133.5 399.5,-133.5 399.5,-114.5 212.5,-114.5"/>
<text text-anchor="middle" x="306" y="-121.5" font-family="Helvetica,sans-Serif" font-size="10.00">Game.UI.GameUI.BoughtImmunity</text>
</a>
</g>
</g>
<!-- Node1&#45;&gt;Node3 -->
<g id="edge2" class="edge">
<title>Node1&#45;&gt;Node3</title>
<path fill="none" stroke="midnightblue" d="M141.35,-95.54C171.35,-100.76 208.7,-107.25 240.14,-112.72"/>
<polygon fill="midnightblue" stroke="midnightblue" points="239.67,-116.19 250.12,-114.46 240.87,-109.29 239.67,-116.19"/>
</g>
<!-- Node5 -->
<g id="node5" class="node">
<title>Node5</title>
<g id="a_node5"><a xlink:href="classGame_1_1PlayerCar.html#a1c74b2e5f747bf336b29e1ebc7be878a" target="_top" xlink:title=" ">
<polygon fill="white" stroke="black" points="216.5,-76.5 216.5,-95.5 395.5,-95.5 395.5,-76.5 216.5,-76.5"/>
<text text-anchor="middle" x="306" y="-83.5" font-family="Helvetica,sans-Serif" font-size="10.00">Game.PlayerCar.CancelImmunity</text>
</a>
</g>
</g>
<!-- Node1&#45;&gt;Node5 -->
<g id="edge4" class="edge">
<title>Node1&#45;&gt;Node5</title>
<path fill="none" stroke="midnightblue" d="M171.29,-86C182.7,-86 194.49,-86 206.12,-86"/>
<polygon fill="midnightblue" stroke="midnightblue" points="206.28,-89.5 216.28,-86 206.28,-82.5 206.28,-89.5"/>
</g>
<!-- Node6 -->
<g id="node6" class="node">
<title>Node6</title>
<g id="a_node6"><a xlink:href="classUtility_1_1CoroutineRunner.html#a1c473dee723f16d86bab9d8475c8214a" target="_top" xlink:title="A helper method to start coroutines">
<polygon fill="white" stroke="black" points="207,-38.5 207,-57.5 405,-57.5 405,-38.5 207,-38.5"/>
<text text-anchor="middle" x="306" y="-45.5" font-family="Helvetica,sans-Serif" font-size="10.00">Utility.CoroutineRunner.RunCoroutine</text>
</a>
</g>
</g>
<!-- Node1&#45;&gt;Node6 -->
<g id="edge5" class="edge">
<title>Node1&#45;&gt;Node6</title>
<path fill="none" stroke="midnightblue" d="M141.35,-76.46C171.35,-71.24 208.7,-64.75 240.14,-59.28"/>
<polygon fill="midnightblue" stroke="midnightblue" points="240.87,-62.71 250.12,-57.54 239.67,-55.81 240.87,-62.71"/>
</g>
<!-- Node7 -->
<g id="node7" class="node">
<title>Node7</title>
<g id="a_node7"><a xlink:href="classGame_1_1UI_1_1GameUI.html#ac464d5a547acb44085748e2ee265272f" target="_top" xlink:title="Show if the request failed on the modal window">
<polygon fill="white" stroke="black" points="212,-0.5 212,-19.5 400,-19.5 400,-0.5 212,-0.5"/>
<text text-anchor="middle" x="306" y="-7.5" font-family="Helvetica,sans-Serif" font-size="10.00">Game.UI.GameUI.ShowRequestFail</text>
</a>
</g>
</g>
<!-- Node1&#45;&gt;Node7 -->
<g id="edge6" class="edge">
<title>Node1&#45;&gt;Node7</title>
<path fill="none" stroke="midnightblue" d="M103.11,-76.5C125.85,-63.87 168.29,-41.68 207,-29 215.38,-26.26 224.29,-23.85 233.2,-21.76"/>
<polygon fill="midnightblue" stroke="midnightblue" points="234.23,-25.12 243.23,-19.53 232.71,-18.28 234.23,-25.12"/>
</g>
<!-- Node4 -->
<g id="node4" class="node">
<title>Node4</title>
<g id="a_node4"><a xlink:href="classUser_1_1UserData.html#a103846d4ce97a5d089423d4efd1a5ec0" target="_top" xlink:title="Update the user&#39;s task score">
<polygon fill="white" stroke="black" points="441,-114.5 441,-133.5 615,-133.5 615,-114.5 441,-114.5"/>
<text text-anchor="middle" x="528" y="-121.5" font-family="Helvetica,sans-Serif" font-size="10.00">User.UserData.UpdateTaskScore</text>
</a>
</g>
</g>
<!-- Node3&#45;&gt;Node4 -->
<g id="edge3" class="edge">
<title>Node3&#45;&gt;Node4</title>
<path fill="none" stroke="midnightblue" d="M399.66,-124C409.88,-124 420.3,-124 430.56,-124"/>
<polygon fill="midnightblue" stroke="midnightblue" points="430.76,-127.5 440.76,-124 430.76,-120.5 430.76,-127.5"/>
</g>
<!-- Node8 -->
<g id="node8" class="node">
<title>Node8</title>
<g id="a_node8"><a xlink:href="classUtility_1_1ModalWindow.html#adcef8cae2dffe4247c905d042ff0a8e3" target="_top" xlink:title="Show the modal window">
<polygon fill="white" stroke="black" points="455,-0.5 455,-19.5 601,-19.5 601,-0.5 455,-0.5"/>
<text text-anchor="middle" x="528" y="-7.5" font-family="Helvetica,sans-Serif" font-size="10.00">Utility.ModalWindow.Show</text>
</a>
</g>
</g>
<!-- Node7&#45;&gt;Node8 -->
<g id="edge7" class="edge">
<title>Node7&#45;&gt;Node8</title>
<path fill="none" stroke="midnightblue" d="M400.3,-10C415,-10 430.11,-10 444.54,-10"/>
<polygon fill="midnightblue" stroke="midnightblue" points="444.92,-13.5 454.92,-10 444.92,-6.5 444.92,-13.5"/>
</g>
</g>
</svg>
