<?xml version="1.0" encoding="UTF-8" standalone="no"?>
<!DOCTYPE svg PUBLIC "-//W3C//DTD SVG 1.1//EN"
 "http://www.w3.org/Graphics/SVG/1.1/DTD/svg11.dtd">
<!-- Generated by graphviz version 2.43.0 (0)
 -->
<!-- Title: Game.UI.ShopItem Pages: 1 -->
<!--zoomable 763 -->
<svg id="main" version="1.1" xmlns="http://www.w3.org/2000/svg" xmlns:xlink="http://www.w3.org/1999/xlink" xml:space="preserve" onload="init(evt)">
<style type="text/css"><![CDATA[
.edge:hover path { stroke: red; }
.edge:hover polygon { stroke: red; fill: red; }
]]></style>
<script type="text/javascript"><![CDATA[
var edges = document.getElementsByTagName('g');
if (edges && edges.length) {
  for (var i=0;i<edges.length;i++) {
    if (edges[i].id.substr(0,4)=='edge') {
      edges[i].setAttribute('class','edge');
    }
  }
}
]]></script>
        <defs>
                <circle id="rim" cx="0" cy="0" r="7"/>
                <circle id="rim2" cx="0" cy="0" r="3.5"/>
                <g id="zoomPlus">
                        <use xlink:href="#rim" fill="#404040">
                                <set attributeName="fill" to="#808080" begin="zoomplus.mouseover" end="zoomplus.mouseout"/>
                        </use>
                        <path d="M-4,0h8M0,-4v8" fill="none" stroke="white" stroke-width="1.5" pointer-events="none"/>
                </g>
                <g id="zoomMin">
                        <use xlink:href="#rim" fill="#404040">
                                <set attributeName="fill" to="#808080" begin="zoomminus.mouseover" end="zoomminus.mouseout"/>
                        </use>
                        <path d="M-4,0h8" fill="none" stroke="white" stroke-width="1.5" pointer-events="none"/>
                </g>
                <g id="dirArrow">
                        <path fill="none" stroke="white" stroke-width="1.5" d="M0,-3.0v7 M-2.5,-0.5L0,-3.0L2.5,-0.5"/>
                </g>
               <g id="resetDef">
                       <use xlink:href="#rim2" fill="#404040">
                               <set attributeName="fill" to="#808080" begin="reset.mouseover" end="reset.mouseout"/>
                       </use>
               </g>
        </defs>

<script type="text/javascript">
var viewWidth = 373;
var viewHeight = 763;
var sectionId = 'dynsection-1';
</script>
<script xlink:href="svgpan.js"/>
<svg id="graph" class="graph">
<g id="viewport">
<title>Game.UI.ShopItem</title>
<polygon fill="white" stroke="transparent" points="-4,4 -4,-759 369,-759 369,4 -4,4"/>
<!-- Node1 -->
<g id="node1" class="node">
<title>Node1</title>
<g id="a_node1"><a xlink:title="A single shop item">
<polygon fill="#bfbfbf" stroke="black" points="0,-0.5 0,-167.5 211,-167.5 211,-0.5 0,-0.5"/>
<text text-anchor="middle" x="105.5" y="-155.5" font-family="Helvetica,sans-Serif" font-size="10.00">Game.UI.ShopItem</text>
<polyline fill="none" stroke="black" points="0,-148.5 211,-148.5 "/>
<text text-anchor="start" x="8" y="-136.5" font-family="Helvetica,sans-Serif" font-size="10.00">+ long Id</text>
<text text-anchor="start" x="8" y="-125.5" font-family="Helvetica,sans-Serif" font-size="10.00">+ bool Owned</text>
<text text-anchor="start" x="8" y="-114.5" font-family="Helvetica,sans-Serif" font-size="10.00">&#45; TMP_Text ProductName</text>
<text text-anchor="start" x="8" y="-103.5" font-family="Helvetica,sans-Serif" font-size="10.00">&#45; Image ProductImage</text>
<text text-anchor="start" x="8" y="-92.5" font-family="Helvetica,sans-Serif" font-size="10.00">&#45; TMP_Text Price</text>
<text text-anchor="start" x="8" y="-81.5" font-family="Helvetica,sans-Serif" font-size="10.00">&#45; Button BuyButton</text>
<polyline fill="none" stroke="black" points="0,-74.5 211,-74.5 "/>
<text text-anchor="start" x="8" y="-62.5" font-family="Helvetica,sans-Serif" font-size="10.00">+ void Init(ShopWindow parentWindow,</text>
<text text-anchor="start" x="8" y="-51.5" font-family="Helvetica,sans-Serif" font-size="10.00"> Shop item, Sprite image, bool owned)</text>
<text text-anchor="start" x="8" y="-40.5" font-family="Helvetica,sans-Serif" font-size="10.00">+ void Buy()</text>
<text text-anchor="start" x="8" y="-29.5" font-family="Helvetica,sans-Serif" font-size="10.00">+ string GetDisplayedPrice()</text>
<text text-anchor="start" x="8" y="-18.5" font-family="Helvetica,sans-Serif" font-size="10.00">&#45; void Bought(Thesis_backend.Data</text>
<text text-anchor="start" x="8" y="-7.5" font-family="Helvetica,sans-Serif" font-size="10.00">_Structures.Game game)</text>
</a>
</g>
</g>
<!-- Node2 -->
<g id="node2" class="node">
<title>Node2</title>
<g id="a_node2"><a xlink:href="classUtility_1_1ThreadSafeMonoBehaviour.html" target="_top" xlink:title="Safely stores if the gameobject been destroyed in a bool">
<polygon fill="white" stroke="black" points="53,-602.5 53,-659.5 202,-659.5 202,-602.5 53,-602.5"/>
<text text-anchor="middle" x="127.5" y="-647.5" font-family="Helvetica,sans-Serif" font-size="10.00">ThreadSafeMonoBehaviour</text>
<polyline fill="none" stroke="black" points="53,-640.5 202,-640.5 "/>
<text text-anchor="start" x="61" y="-628.5" font-family="Helvetica,sans-Serif" font-size="10.00">+ bool Destroyed</text>
<polyline fill="none" stroke="black" points="53,-621.5 202,-621.5 "/>
<text text-anchor="start" x="61" y="-609.5" font-family="Helvetica,sans-Serif" font-size="10.00"># void OnDestroy()</text>
</a>
</g>
</g>
<!-- Node2&#45;&gt;Node1 -->
<g id="edge1" class="edge">
<title>Node2&#45;&gt;Node1</title>
<path fill="none" stroke="midnightblue" d="M124.19,-592.23C123.95,-589.44 123.72,-586.68 123.5,-584 116.5,-499.58 112.25,-478.62 108.5,-394 105.11,-317.36 104.57,-229.92 104.75,-167.67"/>
<polygon fill="none" stroke="midnightblue" points="120.71,-592.61 125.05,-602.27 127.69,-592.01 120.71,-592.61"/>
</g>
<!-- Node4 -->
<g id="node4" class="node">
<title>Node4</title>
<g id="a_node4"><a xlink:href="classGame_1_1UI_1_1ShopWindow.html" target="_top" xlink:title="Handles the shop window&#39;s content display">
<polygon fill="white" stroke="black" points="118,-215.5 118,-393.5 327,-393.5 327,-215.5 118,-215.5"/>
<text text-anchor="middle" x="222.5" y="-381.5" font-family="Helvetica,sans-Serif" font-size="10.00">Game.UI.ShopWindow</text>
<polyline fill="none" stroke="black" points="118,-374.5 327,-374.5 "/>
<text text-anchor="start" x="126" y="-362.5" font-family="Helvetica,sans-Serif" font-size="10.00">+ List&lt; Sprite &gt; ShopItemSprites</text>
<text text-anchor="start" x="126" y="-351.5" font-family="Helvetica,sans-Serif" font-size="10.00">&#45; GameObject ShopParent</text>
<text text-anchor="start" x="126" y="-340.5" font-family="Helvetica,sans-Serif" font-size="10.00">&#45; GameObject ShopItemPrefab</text>
<text text-anchor="start" x="126" y="-329.5" font-family="Helvetica,sans-Serif" font-size="10.00">&#45; TMP_Text CoinText</text>
<text text-anchor="start" x="126" y="-318.5" font-family="Helvetica,sans-Serif" font-size="10.00">&#45; List&lt; Shop &gt; shopItemsCache</text>
<polyline fill="none" stroke="black" points="118,-311.5 327,-311.5 "/>
<text text-anchor="start" x="126" y="-299.5" font-family="Helvetica,sans-Serif" font-size="10.00">+ void Show()</text>
<text text-anchor="start" x="126" y="-288.5" font-family="Helvetica,sans-Serif" font-size="10.00">+ void Hide()</text>
<text text-anchor="start" x="126" y="-277.5" font-family="Helvetica,sans-Serif" font-size="10.00">+ void ShowRequestFail(string content)</text>
<text text-anchor="start" x="126" y="-266.5" font-family="Helvetica,sans-Serif" font-size="10.00">+ void UpdateShop()</text>
<text text-anchor="start" x="126" y="-255.5" font-family="Helvetica,sans-Serif" font-size="10.00">+ string GetCoinText()</text>
<text text-anchor="start" x="126" y="-244.5" font-family="Helvetica,sans-Serif" font-size="10.00">+ GameObject GetShopParent()</text>
<text text-anchor="start" x="126" y="-233.5" font-family="Helvetica,sans-Serif" font-size="10.00">&#45; void LoadedShopItems(List&lt; Shop</text>
<text text-anchor="start" x="126" y="-222.5" font-family="Helvetica,sans-Serif" font-size="10.00"> &gt; shopItems)</text>
</a>
</g>
</g>
<!-- Node2&#45;&gt;Node4 -->
<g id="edge4" class="edge">
<title>Node2&#45;&gt;Node4</title>
<path fill="none" stroke="midnightblue" d="M126.81,-592.06C127.13,-553.24 130.53,-491.59 146.5,-441 151.53,-425.05 158.59,-408.88 166.38,-393.53"/>
<polygon fill="none" stroke="midnightblue" points="123.31,-592.37 126.79,-602.38 130.31,-592.39 123.31,-592.37"/>
</g>
<!-- Node5 -->
<g id="node5" class="node">
<title>Node5</title>
<g id="a_node5"><a xlink:href="classUtility_1_1ModalWindow.html" target="_top" xlink:title="Modal window for alerting the user">
<polygon fill="white" stroke="black" points="156,-441.5 156,-564.5 365,-564.5 365,-441.5 156,-441.5"/>
<text text-anchor="middle" x="260.5" y="-552.5" font-family="Helvetica,sans-Serif" font-size="10.00">Utility.ModalWindow</text>
<polyline fill="none" stroke="black" points="156,-545.5 365,-545.5 "/>
<text text-anchor="start" x="164" y="-533.5" font-family="Helvetica,sans-Serif" font-size="10.00">&#45; TMP_Text ModalTitleText</text>
<text text-anchor="start" x="164" y="-522.5" font-family="Helvetica,sans-Serif" font-size="10.00">&#45; TMP_Text ModalContentText</text>
<text text-anchor="start" x="164" y="-511.5" font-family="Helvetica,sans-Serif" font-size="10.00">&#45; Action onOkAction</text>
<polyline fill="none" stroke="black" points="156,-504.5 365,-504.5 "/>
<text text-anchor="start" x="164" y="-492.5" font-family="Helvetica,sans-Serif" font-size="10.00">+ void Show()</text>
<text text-anchor="start" x="164" y="-481.5" font-family="Helvetica,sans-Serif" font-size="10.00">+ void Show(string title, string content,</text>
<text text-anchor="start" x="164" y="-470.5" font-family="Helvetica,sans-Serif" font-size="10.00"> Action onOkAction=null)</text>
<text text-anchor="start" x="164" y="-459.5" font-family="Helvetica,sans-Serif" font-size="10.00">+ void Hide()</text>
<text text-anchor="start" x="164" y="-448.5" font-family="Helvetica,sans-Serif" font-size="10.00">+ void ConfirmButtonClick()</text>
</a>
</g>
</g>
<!-- Node2&#45;&gt;Node5 -->
<g id="edge6" class="edge">
<title>Node2&#45;&gt;Node5</title>
<path fill="none" stroke="midnightblue" d="M164.13,-595.3C174.18,-585.78 185.38,-575.17 196.49,-564.65"/>
<polygon fill="none" stroke="midnightblue" points="161.54,-592.93 156.69,-602.35 166.35,-598.01 161.54,-592.93"/>
</g>
<!-- Node3 -->
<g id="node3" class="node">
<title>Node3</title>
<g id="a_node3"><a xlink:title=" ">
<polygon fill="white" stroke="#bfbfbf" points="81,-697.5 81,-754.5 174,-754.5 174,-697.5 81,-697.5"/>
<text text-anchor="middle" x="127.5" y="-742.5" font-family="Helvetica,sans-Serif" font-size="10.00">MonoBehaviour</text>
<polyline fill="none" stroke="#bfbfbf" points="81,-735.5 174,-735.5 "/>
<text text-anchor="middle" x="127.5" y="-723.5" font-family="Helvetica,sans-Serif" font-size="10.00"> </text>
<polyline fill="none" stroke="#bfbfbf" points="81,-716.5 174,-716.5 "/>
<text text-anchor="middle" x="127.5" y="-704.5" font-family="Helvetica,sans-Serif" font-size="10.00"> </text>
</a>
</g>
</g>
<!-- Node3&#45;&gt;Node2 -->
<g id="edge2" class="edge">
<title>Node3&#45;&gt;Node2</title>
<path fill="none" stroke="midnightblue" d="M127.5,-687.24C127.5,-678.03 127.5,-668.35 127.5,-659.71"/>
<polygon fill="none" stroke="midnightblue" points="124,-687.35 127.5,-697.35 131,-687.35 124,-687.35"/>
</g>
<!-- Node4&#45;&gt;Node1 -->
<g id="edge3" class="edge">
<title>Node4&#45;&gt;Node1</title>
<path fill="none" stroke="#404040" d="M175.25,-215.26C168.72,-203.07 162.01,-190.53 155.44,-178.26"/>
<polygon fill="none" stroke="#404040" points="155.37,-178.14 149.01,-174.74 149.71,-167.56 156.07,-170.96 155.37,-178.14"/>
<text text-anchor="middle" x="199.5" y="-189" font-family="Helvetica,sans-Serif" font-size="10.00"> &#45;shopWindow</text>
</g>
<!-- Node5&#45;&gt;Node4 -->
<g id="edge5" class="edge">
<title>Node5&#45;&gt;Node4</title>
<path fill="none" stroke="#404040" d="M248.79,-441.44C246.6,-430.11 244.25,-417.99 241.9,-405.82"/>
<polygon fill="none" stroke="#404040" points="241.83,-405.45 236.76,-400.32 239.55,-393.67 244.62,-398.8 241.83,-405.45"/>
<text text-anchor="middle" x="282.5" y="-415" font-family="Helvetica,sans-Serif" font-size="10.00"> &#45;ModalWindow</text>
</g>
</g>
</svg>
        <g id="navigator" transform="translate(0 0)" fill="#404254">
                <rect fill="#f2f5e9" fill-opacity="0.5" stroke="#606060" stroke-width=".5" x="0" y="0" width="60" height="60"/>
                <use id="zoomplus" xlink:href="#zoomPlus" x="17" y="9" onmousedown="handleZoom(evt,'in')"/>
                <use id="zoomminus" xlink:href="#zoomMin" x="42" y="9" onmousedown="handleZoom(evt,'out')"/>
                <use id="reset" xlink:href="#resetDef" x="30" y="36" onmousedown="handleReset()"/>
                <g id="arrowUp" xlink:href="#dirArrow" transform="translate(30 24)" onmousedown="handlePan(0,-1)">
                  <use xlink:href="#rim" fill="#404040">
                        <set attributeName="fill" to="#808080" begin="arrowUp.mouseover" end="arrowUp.mouseout"/>
                  </use>
                  <path fill="none" stroke="white" stroke-width="1.5" d="M0,-3.0v7 M-2.5,-0.5L0,-3.0L2.5,-0.5"/>
                </g>
                <g id="arrowRight" xlink:href="#dirArrow" transform="rotate(90) translate(36 -43)" onmousedown="handlePan(1,0)">
                  <use xlink:href="#rim" fill="#404040">
                        <set attributeName="fill" to="#808080" begin="arrowRight.mouseover" end="arrowRight.mouseout"/>
                  </use>
                  <path fill="none" stroke="white" stroke-width="1.5" d="M0,-3.0v7 M-2.5,-0.5L0,-3.0L2.5,-0.5"/>
                </g>
                <g id="arrowDown" xlink:href="#dirArrow" transform="rotate(180) translate(-30 -48)" onmousedown="handlePan(0,1)">
                  <use xlink:href="#rim" fill="#404040">
                        <set attributeName="fill" to="#808080" begin="arrowDown.mouseover" end="arrowDown.mouseout"/>
                  </use>
                  <path fill="none" stroke="white" stroke-width="1.5" d="M0,-3.0v7 M-2.5,-0.5L0,-3.0L2.5,-0.5"/>
                </g>
                <g id="arrowLeft" xlink:href="#dirArrow" transform="rotate(270) translate(-36 17)" onmousedown="handlePan(-1,0)">
                  <use xlink:href="#rim" fill="#404040">
                        <set attributeName="fill" to="#808080" begin="arrowLeft.mouseover" end="arrowLeft.mouseout"/>
                  </use>
                  <path fill="none" stroke="white" stroke-width="1.5" d="M0,-3.0v7 M-2.5,-0.5L0,-3.0L2.5,-0.5"/>
                </g>
        </g>
        <svg viewBox="0 0 15 15" width="100%" height="30px" preserveAspectRatio="xMaxYMin meet">
         <g id="arrow_out" transform="scale(0.3 0.3)">
          <a xlink:href="classGame_1_1UI_1_1ShopItem__coll__graph_org.svg" target="_base">
           <rect id="button" ry="5" rx="5" y="6" x="6" height="38" width="38"
                fill="#f2f5e9" fill-opacity="0.5" stroke="#606060" stroke-width="1.0"/>
           <path id="arrow"
             d="M 11.500037,31.436501 C 11.940474,20.09759 22.043105,11.32322 32.158766,21.979434 L 37.068811,17.246167 C 37.068811,17.246167 37.088388,32 37.088388,32 L 22.160133,31.978069 C 22.160133,31.978069 26.997745,27.140456 26.997745,27.140456 C 18.528582,18.264221 13.291696,25.230495 11.500037,31.436501 z"
             style="fill:#404040;"/>
          </a>
         </g>
        </svg>
</svg>
