<?xml version="1.0" encoding="UTF-8" standalone="no"?>
<!DOCTYPE svg PUBLIC "-//W3C//DTD SVG 1.1//EN"
 "http://www.w3.org/Graphics/SVG/1.1/DTD/svg11.dtd">
<!-- Generated by graphviz version 2.43.0 (0)
 -->
<!-- Title: Game.GameController.Awake Pages: 1 -->
<svg width="426pt" height="64pt"
 viewBox="0.00 0.00 426.00 64.00" xmlns="http://www.w3.org/2000/svg" xmlns:xlink="http://www.w3.org/1999/xlink">
<g id="graph0" class="graph" transform="scale(1 1) rotate(0) translate(4 60)">
<title>Game.GameController.Awake</title>
<!-- Node1 -->
<g id="Node000001" class="node">
<title>Node1</title>
<g id="a_Node000001"><a xlink:title="Called when script is loaded.">
<polygon fill="#999999" stroke="#666666" points="161,-37 0,-37 0,-18 161,-18 161,-37"/>
<text text-anchor="middle" x="80.5" y="-25" font-family="Helvetica,sans-Serif" font-size="10.00">Game.GameController.Awake</text>
</a>
</g>
</g>
<!-- Node2 -->
<g id="Node000002" class="node">
<title>Node2</title>
<g id="a_Node000002"><a xlink:href="classGame_1_1UI_1_1GameUI.html#ab68cafc652bf0b99b73dbc4742bf6973" target="_top" xlink:title="Initializes the game use.">
<polygon fill="white" stroke="#666666" points="368,-56 247,-56 247,-37 368,-37 368,-56"/>
<text text-anchor="middle" x="307.5" y="-44" font-family="Helvetica,sans-Serif" font-size="10.00">Game.UI.GameUI.Init</text>
</a>
</g>
</g>
<!-- Node1&#45;&gt;Node2 -->
<g id="edge1_Node000001_Node000002" class="edge">
<title>Node1&#45;&gt;Node2</title>
<g id="a_edge1_Node000001_Node000002"><a xlink:title=" ">
<path fill="none" stroke="#63b8ff" d="M161.14,-34.23C185.81,-36.31 212.79,-38.59 236.73,-40.61"/>
<polygon fill="#63b8ff" stroke="#63b8ff" points="236.53,-44.1 246.79,-41.46 237.12,-37.13 236.53,-44.1"/>
</a>
</g>
</g>
<!-- Node3 -->
<g id="Node000003" class="node">
<title>Node3</title>
<g id="a_Node000003"><a xlink:href="classGame_1_1GameController.html#ac1d8730413951a2e3f61985ebb2470cf" target="_top" xlink:title="Add the loaded skin to the player variants list.">
<polygon fill="white" stroke="#666666" points="418,-19 197,-19 197,0 418,0 418,-19"/>
<text text-anchor="middle" x="307.5" y="-7" font-family="Helvetica,sans-Serif" font-size="10.00">Game.GameController.PlayerSkinsLoaded</text>
</a>
</g>
</g>
<!-- Node1&#45;&gt;Node3 -->
<g id="edge2_Node000001_Node000003" class="edge">
<title>Node1&#45;&gt;Node3</title>
<g id="a_edge2_Node000001_Node000003"><a xlink:title=" ">
<path fill="none" stroke="#63b8ff" d="M161.14,-21.13C169.41,-20.47 177.94,-19.78 186.53,-19.1"/>
<polygon fill="#63b8ff" stroke="#63b8ff" points="186.93,-22.58 196.62,-18.29 186.37,-15.6 186.93,-22.58"/>
</a>
</g>
</g>
</g>
</svg>
