<?xml version="1.0" encoding="UTF-8" standalone="no"?>
<!DOCTYPE svg PUBLIC "-//W3C//DTD SVG 1.1//EN"
 "http://www.w3.org/Graphics/SVG/1.1/DTD/svg11.dtd">
<!-- Generated by graphviz version 2.43.0 (0)
 -->
<!-- Title: MainPage.ProfileHandler.MoveToLoginScene Pages: 1 -->
<svg width="697pt" height="28pt"
 viewBox="0.00 0.00 697.00 28.00" xmlns="http://www.w3.org/2000/svg" xmlns:xlink="http://www.w3.org/1999/xlink">
<g id="graph0" class="graph" transform="scale(1 1) rotate(0) translate(4 24)">
<title>MainPage.ProfileHandler.MoveToLoginScene</title>
<polygon fill="white" stroke="transparent" points="-4,4 -4,-24 693,-24 693,4 -4,4"/>
<!-- Node1 -->
<g id="node1" class="node">
<title>Node1</title>
<g id="a_node1"><a xlink:title="Move to the login screen after the user has logged out">
<polygon fill="#bfbfbf" stroke="black" points="458,-0.5 458,-19.5 689,-19.5 689,-0.5 458,-0.5"/>
<text text-anchor="middle" x="573.5" y="-7.5" font-family="Helvetica,sans-Serif" font-size="10.00">MainPage.ProfileHandler.MoveToLoginScene</text>
</a>
</g>
</g>
<!-- Node2 -->
<g id="node2" class="node">
<title>Node2</title>
<g id="a_node2"><a xlink:href="classMainPage_1_1ProfileHandler.html#ad54f411a26e9a3dd6d0efa9ad5f58914" target="_top" xlink:title="When the logout was a success">
<polygon fill="white" stroke="black" points="231,-0.5 231,-19.5 422,-19.5 422,-0.5 231,-0.5"/>
<text text-anchor="middle" x="326.5" y="-7.5" font-family="Helvetica,sans-Serif" font-size="10.00">MainPage.ProfileHandler.LoggedOut</text>
</a>
</g>
</g>
<!-- Node1&#45;&gt;Node2 -->
<g id="edge1" class="edge">
<title>Node1&#45;&gt;Node2</title>
<path fill="none" stroke="midnightblue" d="M447.79,-10C439.18,-10 430.59,-10 422.18,-10"/>
<polygon fill="midnightblue" stroke="midnightblue" points="447.89,-13.5 457.89,-10 447.89,-6.5 447.89,-13.5"/>
</g>
<!-- Node3 -->
<g id="node3" class="node">
<title>Node3</title>
<g id="a_node3"><a xlink:href="classMainPage_1_1ProfileHandler.html#a19e78cd452fa87ca5a0bbb36a35882d4" target="_top" xlink:title="Send a login request with the login panel&#39;s fields">
<polygon fill="white" stroke="black" points="0,-0.5 0,-19.5 195,-19.5 195,-0.5 0,-0.5"/>
<text text-anchor="middle" x="97.5" y="-7.5" font-family="Helvetica,sans-Serif" font-size="10.00">MainPage.ProfileHandler.SendLogout</text>
</a>
</g>
</g>
<!-- Node2&#45;&gt;Node3 -->
<g id="edge2" class="edge">
<title>Node2&#45;&gt;Node3</title>
<path fill="none" stroke="midnightblue" d="M220.86,-10C212.3,-10 203.67,-10 195.16,-10"/>
<polygon fill="midnightblue" stroke="midnightblue" points="220.88,-13.5 230.88,-10 220.88,-6.5 220.88,-13.5"/>
</g>
</g>
</svg>
