<?xml version="1.0" encoding="UTF-8" standalone="no"?>
<!DOCTYPE svg PUBLIC "-//W3C//DTD SVG 1.1//EN"
 "http://www.w3.org/Graphics/SVG/1.1/DTD/svg11.dtd">
<!-- Generated by graphviz version 2.43.0 (0)
 -->
<!-- Title: Game.UI.ShopItem.Bought Pages: 1 -->
<svg width="810pt" height="104pt"
 viewBox="0.00 0.00 810.00 104.00" xmlns="http://www.w3.org/2000/svg" xmlns:xlink="http://www.w3.org/1999/xlink">
<g id="graph0" class="graph" transform="scale(1 1) rotate(0) translate(4 100)">
<title>Game.UI.ShopItem.Bought</title>
<polygon fill="white" stroke="transparent" points="-4,4 -4,-100 806,-100 806,4 -4,4"/>
<!-- Node1 -->
<g id="node1" class="node">
<title>Node1</title>
<g id="a_node1"><a xlink:title="Callback when it is bought">
<polygon fill="#bfbfbf" stroke="black" points="0,-38.5 0,-57.5 146,-57.5 146,-38.5 0,-38.5"/>
<text text-anchor="middle" x="73" y="-45.5" font-family="Helvetica,sans-Serif" font-size="10.00">Game.UI.ShopItem.Bought</text>
</a>
</g>
</g>
<!-- Node2 -->
<g id="node2" class="node">
<title>Node2</title>
<g id="a_node2"><a xlink:href="classGame_1_1UI_1_1ShopWindow.html#a9297b39a0fa7a77e8cf3022bc28c0b35" target="_top" xlink:title="Update the shop items">
<polygon fill="white" stroke="black" points="182,-38.5 182,-57.5 369,-57.5 369,-38.5 182,-38.5"/>
<text text-anchor="middle" x="275.5" y="-45.5" font-family="Helvetica,sans-Serif" font-size="10.00">Game.UI.ShopWindow.UpdateShop</text>
</a>
</g>
</g>
<!-- Node1&#45;&gt;Node2 -->
<g id="edge1" class="edge">
<title>Node1&#45;&gt;Node2</title>
<path fill="none" stroke="midnightblue" d="M146.1,-48C154.41,-48 163.01,-48 171.62,-48"/>
<polygon fill="midnightblue" stroke="midnightblue" points="171.74,-51.5 181.74,-48 171.74,-44.5 171.74,-51.5"/>
</g>
<!-- Node3 -->
<g id="node3" class="node">
<title>Node3</title>
<g id="a_node3"><a xlink:href="classGame_1_1UI_1_1ShopWindow.html#a6a703aeb6610fe526d65a9b89ad4c78e" target="_top" xlink:title="Display the loaded shop items">
<polygon fill="white" stroke="black" points="405,-76.5 405,-95.5 620,-95.5 620,-76.5 405,-76.5"/>
<text text-anchor="middle" x="512.5" y="-83.5" font-family="Helvetica,sans-Serif" font-size="10.00">Game.UI.ShopWindow.LoadedShopItems</text>
</a>
</g>
</g>
<!-- Node2&#45;&gt;Node3 -->
<g id="edge2" class="edge">
<title>Node2&#45;&gt;Node3</title>
<path fill="none" stroke="midnightblue" d="M335.5,-57.54C367.9,-62.78 408.28,-69.31 442.18,-74.79"/>
<polygon fill="midnightblue" stroke="midnightblue" points="442.05,-78.31 452.48,-76.46 443.17,-71.4 442.05,-78.31"/>
</g>
<!-- Node5 -->
<g id="node5" class="node">
<title>Node5</title>
<g id="a_node5"><a xlink:href="classUtility_1_1CoroutineRunner.html#a1c473dee723f16d86bab9d8475c8214a" target="_top" xlink:title="A helper method to start coroutines">
<polygon fill="white" stroke="black" points="413.5,-38.5 413.5,-57.5 611.5,-57.5 611.5,-38.5 413.5,-38.5"/>
<text text-anchor="middle" x="512.5" y="-45.5" font-family="Helvetica,sans-Serif" font-size="10.00">Utility.CoroutineRunner.RunCoroutine</text>
</a>
</g>
</g>
<!-- Node2&#45;&gt;Node5 -->
<g id="edge4" class="edge">
<title>Node2&#45;&gt;Node5</title>
<path fill="none" stroke="midnightblue" d="M369.04,-48C380.27,-48 391.81,-48 403.24,-48"/>
<polygon fill="midnightblue" stroke="midnightblue" points="403.24,-51.5 413.24,-48 403.24,-44.5 403.24,-51.5"/>
</g>
<!-- Node6 -->
<g id="node6" class="node">
<title>Node6</title>
<g id="a_node6"><a xlink:href="classGame_1_1UI_1_1ShopWindow.html#ab11a75acddb1467e29d7624a4d12b8b9" target="_top" xlink:title="Show if the request failed on the modal window">
<polygon fill="white" stroke="black" points="407.5,-0.5 407.5,-19.5 617.5,-19.5 617.5,-0.5 407.5,-0.5"/>
<text text-anchor="middle" x="512.5" y="-7.5" font-family="Helvetica,sans-Serif" font-size="10.00">Game.UI.ShopWindow.ShowRequestFail</text>
</a>
</g>
</g>
<!-- Node2&#45;&gt;Node6 -->
<g id="edge5" class="edge">
<title>Node2&#45;&gt;Node6</title>
<path fill="none" stroke="midnightblue" d="M335.5,-38.46C367.9,-33.22 408.28,-26.69 442.18,-21.21"/>
<polygon fill="midnightblue" stroke="midnightblue" points="443.17,-24.6 452.48,-19.54 442.05,-17.69 443.17,-24.6"/>
</g>
<!-- Node4 -->
<g id="node4" class="node">
<title>Node4</title>
<g id="a_node4"><a xlink:href="classGame_1_1UI_1_1ShopItem.html#a8f8263dc4d8a04ebbd12545537c98879" target="_top" xlink:title="Initializes this shop item">
<polygon fill="white" stroke="black" points="665,-76.5 665,-95.5 793,-95.5 793,-76.5 665,-76.5"/>
<text text-anchor="middle" x="729" y="-83.5" font-family="Helvetica,sans-Serif" font-size="10.00">Game.UI.ShopItem.Init</text>
</a>
</g>
</g>
<!-- Node3&#45;&gt;Node4 -->
<g id="edge3" class="edge">
<title>Node3&#45;&gt;Node4</title>
<path fill="none" stroke="midnightblue" d="M620.12,-86C631.87,-86 643.64,-86 654.85,-86"/>
<polygon fill="midnightblue" stroke="midnightblue" points="654.97,-89.5 664.97,-86 654.97,-82.5 654.97,-89.5"/>
</g>
<!-- Node7 -->
<g id="node7" class="node">
<title>Node7</title>
<g id="a_node7"><a xlink:href="classUtility_1_1ModalWindow.html#adcef8cae2dffe4247c905d042ff0a8e3" target="_top" xlink:title="Show the modal window">
<polygon fill="white" stroke="black" points="656,-0.5 656,-19.5 802,-19.5 802,-0.5 656,-0.5"/>
<text text-anchor="middle" x="729" y="-7.5" font-family="Helvetica,sans-Serif" font-size="10.00">Utility.ModalWindow.Show</text>
</a>
</g>
</g>
<!-- Node6&#45;&gt;Node7 -->
<g id="edge6" class="edge">
<title>Node6&#45;&gt;Node7</title>
<path fill="none" stroke="midnightblue" d="M617.61,-10C626.99,-10 636.41,-10 645.57,-10"/>
<polygon fill="midnightblue" stroke="midnightblue" points="645.79,-13.5 655.79,-10 645.79,-6.5 645.79,-13.5"/>
</g>
</g>
</svg>
