<?xml version="1.0" encoding="UTF-8" standalone="no"?>
<!DOCTYPE svg PUBLIC "-//W3C//DTD SVG 1.1//EN"
 "http://www.w3.org/Graphics/SVG/1.1/DTD/svg11.dtd">
<!-- Generated by graphviz version 2.43.0 (0)
 -->
<!-- Title: Game.Car.ChunkChanged Pages: 1 -->
<svg width="503pt" height="28pt"
 viewBox="0.00 0.00 503.00 28.00" xmlns="http://www.w3.org/2000/svg" xmlns:xlink="http://www.w3.org/1999/xlink">
<g id="graph0" class="graph" transform="scale(1 1) rotate(0) translate(4 24)">
<title>Game.Car.ChunkChanged</title>
<polygon fill="white" stroke="transparent" points="-4,4 -4,-24 499,-24 499,4 -4,4"/>
<!-- Node1 -->
<g id="node1" class="node">
<title>Node1</title>
<g id="a_node1"><a xlink:title="Virtual method for chunk changed">
<polygon fill="#bfbfbf" stroke="black" points="354,-0.5 354,-19.5 495,-19.5 495,-0.5 354,-0.5"/>
<text text-anchor="middle" x="424.5" y="-7.5" font-family="Helvetica,sans-Serif" font-size="10.00">Game.Car.ChunkChanged</text>
</a>
</g>
</g>
<!-- Node2 -->
<g id="node2" class="node">
<title>Node2</title>
<g id="a_node2"><a xlink:href="classGame_1_1Car.html#aee18ec29b76c64797a649d50a6f83eed" target="_top" xlink:title="Change the chunk if it went over the chunk border">
<polygon fill="white" stroke="black" points="139,-0.5 139,-19.5 318,-19.5 318,-0.5 139,-0.5"/>
<text text-anchor="middle" x="228.5" y="-7.5" font-family="Helvetica,sans-Serif" font-size="10.00">Game.Car.ChangeChunkIfNeeded</text>
</a>
</g>
</g>
<!-- Node1&#45;&gt;Node2 -->
<g id="edge1" class="edge">
<title>Node1&#45;&gt;Node2</title>
<path fill="none" stroke="midnightblue" d="M343.63,-10C335.26,-10 326.71,-10 318.24,-10"/>
<polygon fill="midnightblue" stroke="midnightblue" points="343.74,-13.5 353.74,-10 343.74,-6.5 343.74,-13.5"/>
</g>
<!-- Node3 -->
<g id="node3" class="node">
<title>Node3</title>
<g id="a_node3"><a xlink:href="classGame_1_1Car.html#a1efffc1014c81e16512eee6c311dbb97" target="_top" xlink:title="Called every frame">
<polygon fill="white" stroke="black" points="0,-0.5 0,-19.5 103,-19.5 103,-0.5 0,-0.5"/>
<text text-anchor="middle" x="51.5" y="-7.5" font-family="Helvetica,sans-Serif" font-size="10.00">Game.Car.Update</text>
</a>
</g>
</g>
<!-- Node2&#45;&gt;Node3 -->
<g id="edge2" class="edge">
<title>Node2&#45;&gt;Node3</title>
<path fill="none" stroke="midnightblue" d="M128.7,-10C119.99,-10 111.43,-10 103.38,-10"/>
<polygon fill="midnightblue" stroke="midnightblue" points="128.97,-13.5 138.97,-10 128.97,-6.5 128.97,-13.5"/>
</g>
</g>
</svg>
