<?xml version="1.0" encoding="UTF-8" standalone="no"?>
<!DOCTYPE svg PUBLIC "-//W3C//DTD SVG 1.1//EN"
 "http://www.w3.org/Graphics/SVG/1.1/DTD/svg11.dtd">
<!-- Generated by graphviz version 2.43.0 (0)
 -->
<!-- Title: MainPage.MainWindowController.SortingChanged Pages: 1 -->
<svg width="2493pt" height="189pt"
 viewBox="0.00 0.00 2493.00 189.09" xmlns="http://www.w3.org/2000/svg" xmlns:xlink="http://www.w3.org/1999/xlink">
<g id="graph0" class="graph" transform="scale(1 1) rotate(0) translate(4 185.09)">
<title>MainPage.MainWindowController.SortingChanged</title>
<!-- Node1 -->
<g id="Node000001" class="node">
<title>Node1</title>
<g id="a_Node000001"><a xlink:title="Refreshes the tasks with the proper sorting order.">
<polygon fill="#999999" stroke="#666666" points="2485,-55 2228,-55 2228,-36 2485,-36 2485,-55"/>
<text text-anchor="middle" x="2356.5" y="-43" font-family="Helvetica,sans-Serif" font-size="10.00">MainPage.MainWindowController.SortingChanged</text>
</a>
</g>
</g>
<!-- Node2 -->
<g id="Node000002" class="node">
<title>Node2</title>
<g id="a_Node000002"><a xlink:href="classMainPage_1_1TaskDisplayHandler.html#a754a230e53cedd3209a29d4d6a743719" target="_top" xlink:title="When the complete state is changed update the display to match it.">
<polygon fill="white" stroke="#666666" points="2192,-93 1917,-93 1917,-74 2192,-74 2192,-93"/>
<text text-anchor="middle" x="2054.5" y="-81" font-family="Helvetica,sans-Serif" font-size="10.00">MainPage.TaskDisplayHandler.CompleteStateChange</text>
</a>
</g>
</g>
<!-- Node1&#45;&gt;Node2 -->
<g id="edge1_Node000001_Node000002" class="edge">
<title>Node1&#45;&gt;Node2</title>
<g id="a_edge1_Node000001_Node000002"><a xlink:title=" ">
<path fill="none" stroke="#63b8ff" d="M2270.08,-56.32C2226.11,-61.89 2172.98,-68.62 2130.59,-73.99"/>
<polygon fill="#63b8ff" stroke="#63b8ff" points="2270.7,-59.77 2280.18,-55.04 2269.82,-52.82 2270.7,-59.77"/>
</a>
</g>
</g>
<!-- Node8 -->
<g id="Node000008" class="node">
<title>Node8</title>
<g id="a_Node000008"><a xlink:href="classMainPage_1_1TaskOpenPanelController.html#a750d1acc6fd173296467fb9aca366a3d" target="_top" xlink:title="When the task was stored on the server show it also visually and close the panel.">
<polygon fill="white" stroke="#666666" points="761.5,-19 519.5,-19 519.5,0 761.5,0 761.5,-19"/>
<text text-anchor="middle" x="640.5" y="-7" font-family="Helvetica,sans-Serif" font-size="10.00">MainPage.TaskOpenPanelController.SavedTask</text>
</a>
</g>
</g>
<!-- Node1&#45;&gt;Node8 -->
<g id="edge16_Node000001_Node000008" class="edge">
<title>Node1&#45;&gt;Node8</title>
<g id="a_edge16_Node000001_Node000008"><a xlink:title=" ">
<path fill="none" stroke="#63b8ff" d="M2248.17,-35.08C2125.98,-24.14 1920.32,-8.5 1743,-8.5 1743,-8.5 1743,-8.5 1188,-8.5 1041.29,-8.5 872.44,-8.86 761.71,-9.15"/>
<polygon fill="#63b8ff" stroke="#63b8ff" points="2248.01,-38.58 2258.28,-36 2248.63,-31.61 2248.01,-38.58"/>
</a>
</g>
</g>
<!-- Node3 -->
<g id="Node000003" class="node">
<title>Node3</title>
<g id="a_Node000003"><a xlink:href="classMainPage_1_1TaskDisplayHandler.html#a8aedc4afb32d220352cf04cc77fdedf6" target="_top" xlink:title="Init it with the task to display and references to the controls.">
<polygon fill="white" stroke="#666666" points="1296,-56 1082,-56 1082,-37 1296,-37 1296,-56"/>
<text text-anchor="middle" x="1189" y="-44" font-family="Helvetica,sans-Serif" font-size="10.00">MainPage.TaskDisplayHandler.InitValues</text>
</a>
</g>
</g>
<!-- Node2&#45;&gt;Node3 -->
<g id="edge2_Node000002_Node000003" class="edge">
<title>Node2&#45;&gt;Node3</title>
<g id="a_edge2_Node000002_Node000003"><a xlink:title=" ">
<path fill="none" stroke="#63b8ff" d="M2022.33,-96.92C1988.33,-110.76 1931.95,-131.44 1881,-139.5 1640,-177.64 1565.82,-209.25 1332,-139.5 1276.09,-122.82 1221.72,-76.31 1199.95,-56.09"/>
<polygon fill="#63b8ff" stroke="#63b8ff" points="2023.81,-100.09 2031.72,-93.03 2021.14,-93.62 2023.81,-100.09"/>
</a>
</g>
</g>
<!-- Node10 -->
<g id="Node000010" class="node">
<title>Node10</title>
<g id="a_Node000010"><a xlink:href="classMainPage_1_1TaskDisplayHandler.html#a98b63052d0efc73233a32b69a06bf68e" target="_top" xlink:title="When the complete acknowledge were recieved from the server update the display.">
<polygon fill="white" stroke="#666666" points="1862.5,-130 1621.5,-130 1621.5,-111 1862.5,-111 1862.5,-130"/>
<text text-anchor="middle" x="1742" y="-118" font-family="Helvetica,sans-Serif" font-size="10.00">MainPage.TaskDisplayHandler.TaskCompleted</text>
</a>
</g>
</g>
<!-- Node2&#45;&gt;Node10 -->
<g id="edge9_Node000002_Node000010" class="edge">
<title>Node2&#45;&gt;Node10</title>
<g id="a_edge9_Node000002_Node000010"><a xlink:title=" ">
<path fill="none" stroke="#63b8ff" d="M1963.33,-94.24C1918.94,-99.53 1865.88,-105.86 1822.96,-110.97"/>
<polygon fill="#63b8ff" stroke="#63b8ff" points="1964.02,-97.69 1973.54,-93.03 1963.19,-90.74 1964.02,-97.69"/>
</a>
</g>
</g>
<!-- Node12 -->
<g id="Node000012" class="node">
<title>Node12</title>
<g id="a_Node000012"><a xlink:href="classMainPage_1_1TaskDisplayHandler.html#aa63f1bc894519b9d5872c2bb50b84415" target="_top" xlink:title="Update the time remaining until the task can be completed again.">
<polygon fill="white" stroke="#666666" points="1881,-93 1603,-93 1603,-74 1881,-74 1881,-93"/>
<text text-anchor="middle" x="1742" y="-81" font-family="Helvetica,sans-Serif" font-size="10.00">MainPage.TaskDisplayHandler.UpdateTimeRemaining</text>
</a>
</g>
</g>
<!-- Node2&#45;&gt;Node12 -->
<g id="edge11_Node000002_Node000012" class="edge">
<title>Node2&#45;&gt;Node12</title>
<g id="a_edge11_Node000002_Node000012"><a xlink:title=" ">
<path fill="none" stroke="#63b8ff" d="M1906.81,-76.76C1898.23,-76.74 1889.61,-76.75 1881.07,-76.79"/>
<polygon fill="#63b8ff" stroke="#63b8ff" points="1906.85,-80.26 1916.86,-76.79 1906.87,-73.26 1906.85,-80.26"/>
</a>
</g>
</g>
<!-- Node4 -->
<g id="Node000004" class="node">
<title>Node4</title>
<g id="a_Node000004"><a xlink:href="classMainPage_1_1MainWindowController.html#a827f62c47eb691eadd994bd51bf7cb74" target="_top" xlink:title="Creates a new task prefab to display.">
<polygon fill="white" stroke="#666666" points="1046,-56 812,-56 812,-37 1046,-37 1046,-56"/>
<text text-anchor="middle" x="929" y="-44" font-family="Helvetica,sans-Serif" font-size="10.00">MainPage.MainWindowController.CreateTask</text>
</a>
</g>
</g>
<!-- Node3&#45;&gt;Node4 -->
<g id="edge3_Node000003_Node000004" class="edge">
<title>Node3&#45;&gt;Node4</title>
<g id="a_edge3_Node000003_Node000004"><a xlink:title=" ">
<path fill="none" stroke="#63b8ff" d="M1071.92,-46.5C1063.35,-46.5 1054.7,-46.5 1046.12,-46.5"/>
<polygon fill="#63b8ff" stroke="#63b8ff" points="1071.94,-50 1081.94,-46.5 1071.94,-43 1071.94,-50"/>
</a>
</g>
</g>
<!-- Node5 -->
<g id="Node000005" class="node">
<title>Node5</title>
<g id="a_Node000005"><a xlink:href="classMainPage_1_1MainWindowController.html#ab40b51689d2d8ca0497b0e53128f4992" target="_top" xlink:title="Create the task prefabs.">
<polygon fill="white" stroke="#666666" points="776,-56 505,-56 505,-37 776,-37 776,-56"/>
<text text-anchor="middle" x="640.5" y="-44" font-family="Helvetica,sans-Serif" font-size="10.00">MainPage.MainWindowController.CreateTaskPrefabs</text>
</a>
</g>
</g>
<!-- Node4&#45;&gt;Node5 -->
<g id="edge4_Node000004_Node000005" class="edge">
<title>Node4&#45;&gt;Node5</title>
<g id="a_edge4_Node000004_Node000005"><a xlink:title=" ">
<path fill="none" stroke="#63b8ff" d="M801.6,-46.5C793.14,-46.5 784.59,-46.5 776.09,-46.5"/>
<polygon fill="#63b8ff" stroke="#63b8ff" points="801.88,-50 811.88,-46.5 801.88,-43 801.88,-50"/>
</a>
</g>
</g>
<!-- Node4&#45;&gt;Node8 -->
<g id="edge7_Node000004_Node000008" class="edge">
<title>Node4&#45;&gt;Node8</title>
<g id="a_edge7_Node000004_Node000008"><a xlink:title=" ">
<path fill="none" stroke="#63b8ff" d="M844.04,-35.66C803.33,-30.4 754.85,-24.14 715.53,-19.06"/>
<polygon fill="#63b8ff" stroke="#63b8ff" points="843.85,-39.16 854.22,-36.97 844.75,-32.22 843.85,-39.16"/>
</a>
</g>
</g>
<!-- Node6 -->
<g id="Node000006" class="node">
<title>Node6</title>
<g id="a_Node000006"><a xlink:href="classMainPage_1_1MainWindowController.html#a47c21c97b7ba52af405119044e1434d0" target="_top" xlink:title="Load the tasks from the server.">
<polygon fill="white" stroke="#666666" points="469,-56 239,-56 239,-37 469,-37 469,-56"/>
<text text-anchor="middle" x="354" y="-44" font-family="Helvetica,sans-Serif" font-size="10.00">MainPage.MainWindowController.LoadTasks</text>
</a>
</g>
</g>
<!-- Node5&#45;&gt;Node6 -->
<g id="edge5_Node000005_Node000006" class="edge">
<title>Node5&#45;&gt;Node6</title>
<g id="a_edge5_Node000005_Node000006"><a xlink:title=" ">
<path fill="none" stroke="#63b8ff" d="M494.68,-46.5C486.1,-46.5 477.54,-46.5 469.11,-46.5"/>
<polygon fill="#63b8ff" stroke="#63b8ff" points="494.75,-50 504.75,-46.5 494.75,-43 494.75,-50"/>
</a>
</g>
</g>
<!-- Node7 -->
<g id="Node000007" class="node">
<title>Node7</title>
<g id="a_Node000007"><a xlink:href="classMainPage_1_1MainWindowController.html#acea2170099ea435298139c6c7fdce719" target="_top" xlink:title="Start is called before the first frame update.">
<polygon fill="white" stroke="#666666" points="203,-56 0,-56 0,-37 203,-37 203,-56"/>
<text text-anchor="middle" x="101.5" y="-44" font-family="Helvetica,sans-Serif" font-size="10.00">MainPage.MainWindowController.Start</text>
</a>
</g>
</g>
<!-- Node6&#45;&gt;Node7 -->
<g id="edge6_Node000006_Node000007" class="edge">
<title>Node6&#45;&gt;Node7</title>
<g id="a_edge6_Node000006_Node000007"><a xlink:title=" ">
<path fill="none" stroke="#63b8ff" d="M228.71,-46.5C220.15,-46.5 211.58,-46.5 203.16,-46.5"/>
<polygon fill="#63b8ff" stroke="#63b8ff" points="228.75,-50 238.75,-46.5 228.75,-43 228.75,-50"/>
</a>
</g>
</g>
<!-- Node9 -->
<g id="Node000009" class="node">
<title>Node9</title>
<g id="a_Node000009"><a xlink:href="classMainPage_1_1TaskOpenPanelController.html#ab8def75cd4cdbdaf3033022ea114a8a6" target="_top" xlink:title="Save the task to the server.">
<polygon fill="white" stroke="#666666" points="461.5,-19 246.5,-19 246.5,0 461.5,0 461.5,-19"/>
<text text-anchor="middle" x="354" y="-7" font-family="Helvetica,sans-Serif" font-size="10.00">MainPage.TaskOpenPanelController.Save</text>
</a>
</g>
</g>
<!-- Node8&#45;&gt;Node9 -->
<g id="edge8_Node000008_Node000009" class="edge">
<title>Node8&#45;&gt;Node9</title>
<g id="a_edge8_Node000008_Node000009"><a xlink:title=" ">
<path fill="none" stroke="#63b8ff" d="M508.91,-9.5C493.12,-9.5 477.13,-9.5 461.73,-9.5"/>
<polygon fill="#63b8ff" stroke="#63b8ff" points="509.26,-13 519.26,-9.5 509.26,-6 509.26,-13"/>
</a>
</g>
</g>
<!-- Node11 -->
<g id="Node000011" class="node">
<title>Node11</title>
<g id="a_Node000011"><a xlink:href="classMainPage_1_1TaskDisplayHandler.html#ab553f8eb77d9d038521af3813275a43d" target="_top" xlink:title="Complete the task and send this to the server.">
<polygon fill="white" stroke="#666666" points="1567,-130 1332,-130 1332,-111 1567,-111 1567,-130"/>
<text text-anchor="middle" x="1449.5" y="-118" font-family="Helvetica,sans-Serif" font-size="10.00">MainPage.TaskDisplayHandler.CompleteTask</text>
</a>
</g>
</g>
<!-- Node10&#45;&gt;Node11 -->
<g id="edge10_Node000010_Node000011" class="edge">
<title>Node10&#45;&gt;Node11</title>
<g id="a_edge10_Node000010_Node000011"><a xlink:title=" ">
<path fill="none" stroke="#63b8ff" d="M1611.09,-120.5C1596.49,-120.5 1581.68,-120.5 1567.25,-120.5"/>
<polygon fill="#63b8ff" stroke="#63b8ff" points="1611.17,-124 1621.17,-120.5 1611.17,-117 1611.17,-124"/>
</a>
</g>
</g>
<!-- Node12&#45;&gt;Node2 -->
<g id="edge12_Node000012_Node000002" class="edge">
<title>Node12&#45;&gt;Node2</title>
<g id="a_edge12_Node000012_Node000002"><a xlink:title=" ">
<path fill="none" stroke="#63b8ff" d="M1891.12,-90.24C1899.71,-90.26 1908.32,-90.25 1916.86,-90.21"/>
<polygon fill="#63b8ff" stroke="#63b8ff" points="1891.08,-86.74 1881.07,-90.21 1891.06,-93.74 1891.08,-86.74"/>
</a>
</g>
</g>
<!-- Node13 -->
<g id="Node000013" class="node">
<title>Node13</title>
<g id="a_Node000013"><a xlink:href="classMainPage_1_1TaskDisplayHandler.html#a19067f6c6b504e4947d9473721e6877f" target="_top" xlink:title="Called every frame if it has been completed update the remaining time.">
<polygon fill="white" stroke="#666666" points="1550,-93 1349,-93 1349,-74 1550,-74 1550,-93"/>
<text text-anchor="middle" x="1449.5" y="-81" font-family="Helvetica,sans-Serif" font-size="10.00">MainPage.TaskDisplayHandler.Update</text>
</a>
</g>
</g>
<!-- Node12&#45;&gt;Node13 -->
<g id="edge13_Node000012_Node000013" class="edge">
<title>Node12&#45;&gt;Node13</title>
<g id="a_edge13_Node000012_Node000013"><a xlink:title=" ">
<path fill="none" stroke="#63b8ff" d="M1592.93,-83.5C1578.4,-83.5 1563.91,-83.5 1550.05,-83.5"/>
<polygon fill="#63b8ff" stroke="#63b8ff" points="1592.98,-87 1602.98,-83.5 1592.98,-80 1592.98,-87"/>
</a>
</g>
</g>
<!-- Node14 -->
<g id="Node000014" class="node">
<title>Node14</title>
<g id="a_Node000014"><a xlink:href="classMainPage_1_1TaskDisplayHandler.html#ac3773b76adb09298978a65c89136c20f" target="_top" xlink:title="Update the task&#39;s labels.">
<polygon fill="white" stroke="#666666" points="1566,-56 1333,-56 1333,-37 1566,-37 1566,-56"/>
<text text-anchor="middle" x="1449.5" y="-44" font-family="Helvetica,sans-Serif" font-size="10.00">MainPage.TaskDisplayHandler.UpdateLabels</text>
</a>
</g>
</g>
<!-- Node12&#45;&gt;Node14 -->
<g id="edge14_Node000012_Node000014" class="edge">
<title>Node12&#45;&gt;Node14</title>
<g id="a_edge14_Node000012_Node000014"><a xlink:title=" ">
<path fill="none" stroke="#63b8ff" d="M1656.11,-72.69C1614.69,-67.41 1565.3,-61.12 1525.31,-56.03"/>
<polygon fill="#63b8ff" stroke="#63b8ff" points="1655.83,-76.18 1666.19,-73.97 1656.71,-69.24 1655.83,-76.18"/>
</a>
</g>
</g>
<!-- Node14&#45;&gt;Node3 -->
<g id="edge15_Node000014_Node000003" class="edge">
<title>Node14&#45;&gt;Node3</title>
<g id="a_edge15_Node000014_Node000003"><a xlink:title=" ">
<path fill="none" stroke="#63b8ff" d="M1322.8,-46.5C1313.87,-46.5 1304.92,-46.5 1296.11,-46.5"/>
<polygon fill="#63b8ff" stroke="#63b8ff" points="1322.86,-50 1332.86,-46.5 1322.86,-43 1322.86,-50"/>
</a>
</g>
</g>
</g>
</svg>
