<?xml version="1.0" encoding="UTF-8" standalone="no"?>
<!DOCTYPE svg PUBLIC "-//W3C//DTD SVG 1.1//EN"
 "http://www.w3.org/Graphics/SVG/1.1/DTD/svg11.dtd">
<!-- Generated by graphviz version 2.43.0 (0)
 -->
<!-- Title: MainPage.FriendWindowHandler.LoadFriends Pages: 1 -->
<svg width="748pt" height="66pt"
 viewBox="0.00 0.00 748.00 66.00" xmlns="http://www.w3.org/2000/svg" xmlns:xlink="http://www.w3.org/1999/xlink">
<g id="graph0" class="graph" transform="scale(1 1) rotate(0) translate(4 62)">
<title>MainPage.FriendWindowHandler.LoadFriends</title>
<polygon fill="white" stroke="transparent" points="-4,4 -4,-62 744,-62 744,4 -4,4"/>
<!-- Node1 -->
<g id="node1" class="node">
<title>Node1</title>
<g id="a_node1"><a xlink:title="Loads the friends from the server">
<polygon fill="#bfbfbf" stroke="black" points="0,-19.5 0,-38.5 235,-38.5 235,-19.5 0,-19.5"/>
<text text-anchor="middle" x="117.5" y="-26.5" font-family="Helvetica,sans-Serif" font-size="10.00">MainPage.FriendWindowHandler.LoadFriends</text>
</a>
</g>
</g>
<!-- Node2 -->
<g id="node2" class="node">
<title>Node2</title>
<g id="a_node2"><a xlink:href="classMainPage_1_1FriendWindowHandler.html#abce9cb8e608691cfbc50bf47c17a1b34" target="_top" xlink:title="Display the friends which was recieved from the server">
<polygon fill="white" stroke="black" points="271,-38.5 271,-57.5 519,-57.5 519,-38.5 271,-38.5"/>
<text text-anchor="middle" x="395" y="-45.5" font-family="Helvetica,sans-Serif" font-size="10.00">MainPage.FriendWindowHandler.DisplayFriends</text>
</a>
</g>
</g>
<!-- Node1&#45;&gt;Node2 -->
<g id="edge1" class="edge">
<title>Node1&#45;&gt;Node2</title>
<path fill="none" stroke="midnightblue" d="M235.34,-37.06C243.77,-37.64 252.31,-38.23 260.83,-38.82"/>
<polygon fill="midnightblue" stroke="midnightblue" points="260.59,-42.31 270.8,-39.5 261.07,-35.32 260.59,-42.31"/>
</g>
<!-- Node4 -->
<g id="node4" class="node">
<title>Node4</title>
<g id="a_node4"><a xlink:href="classUtility_1_1CoroutineRunner.html#a1c473dee723f16d86bab9d8475c8214a" target="_top" xlink:title="A helper method to start coroutines">
<polygon fill="white" stroke="black" points="296,-0.5 296,-19.5 494,-19.5 494,-0.5 296,-0.5"/>
<text text-anchor="middle" x="395" y="-7.5" font-family="Helvetica,sans-Serif" font-size="10.00">Utility.CoroutineRunner.RunCoroutine</text>
</a>
</g>
</g>
<!-- Node1&#45;&gt;Node4 -->
<g id="edge3" class="edge">
<title>Node1&#45;&gt;Node4</title>
<path fill="none" stroke="midnightblue" d="M235.34,-20.94C251.98,-19.79 269.03,-18.62 285.5,-17.48"/>
<polygon fill="midnightblue" stroke="midnightblue" points="285.94,-20.96 295.67,-16.78 285.45,-13.98 285.94,-20.96"/>
</g>
<!-- Node3 -->
<g id="node3" class="node">
<title>Node3</title>
<g id="a_node3"><a xlink:href="classMainPage_1_1FriendHandler.html#ab894b96203019d08e341bbb6090af8b8" target="_top" xlink:title="Inititializes a new display with the given friend to display">
<polygon fill="white" stroke="black" points="555,-38.5 555,-57.5 740,-57.5 740,-38.5 555,-38.5"/>
<text text-anchor="middle" x="647.5" y="-45.5" font-family="Helvetica,sans-Serif" font-size="10.00">MainPage.FriendHandler.InitValues</text>
</a>
</g>
</g>
<!-- Node2&#45;&gt;Node3 -->
<g id="edge2" class="edge">
<title>Node2&#45;&gt;Node3</title>
<path fill="none" stroke="midnightblue" d="M519.05,-48C527.58,-48 536.13,-48 544.53,-48"/>
<polygon fill="midnightblue" stroke="midnightblue" points="544.69,-51.5 554.69,-48 544.69,-44.5 544.69,-51.5"/>
</g>
</g>
</svg>
