<?xml version="1.0" encoding="UTF-8" standalone="no"?>
<!DOCTYPE svg PUBLIC "-//W3C//DTD SVG 1.1//EN"
 "http://www.w3.org/Graphics/SVG/1.1/DTD/svg11.dtd">
<!-- Generated by graphviz version 2.43.0 (0)
 -->
<!-- Title: User.UserController.SendLogin Pages: 1 -->
<svg width="644pt" height="142pt"
 viewBox="0.00 0.00 644.00 142.00" xmlns="http://www.w3.org/2000/svg" xmlns:xlink="http://www.w3.org/1999/xlink">
<g id="graph0" class="graph" transform="scale(1 1) rotate(0) translate(4 138)">
<title>User.UserController.SendLogin</title>
<polygon fill="white" stroke="transparent" points="-4,4 -4,-138 640,-138 640,4 -4,4"/>
<!-- Node1 -->
<g id="node1" class="node">
<title>Node1</title>
<g id="a_node1"><a xlink:title="Send a login request with the login panel&#39;s fields">
<polygon fill="#bfbfbf" stroke="black" points="0,-38.5 0,-57.5 164,-57.5 164,-38.5 0,-38.5"/>
<text text-anchor="middle" x="82" y="-45.5" font-family="Helvetica,sans-Serif" font-size="10.00">User.UserController.SendLogin</text>
</a>
</g>
</g>
<!-- Node2 -->
<g id="node2" class="node">
<title>Node2</title>
<g id="a_node2"><a xlink:href="classUser_1_1UserController.html#a02fa4701a3a181ec2228737a5f2c57e9" target="_top" xlink:title="When the login request&#39;s was responded log the user in">
<polygon fill="white" stroke="black" points="216,-76.5 216,-95.5 374,-95.5 374,-76.5 216,-76.5"/>
<text text-anchor="middle" x="295" y="-83.5" font-family="Helvetica,sans-Serif" font-size="10.00">User.UserController.LoggedIn</text>
</a>
</g>
</g>
<!-- Node1&#45;&gt;Node2 -->
<g id="edge1" class="edge">
<title>Node1&#45;&gt;Node2</title>
<path fill="none" stroke="midnightblue" d="M135.97,-57.54C164.82,-62.73 200.7,-69.2 230.97,-74.65"/>
<polygon fill="midnightblue" stroke="midnightblue" points="230.54,-78.13 241.01,-76.46 231.79,-71.24 230.54,-78.13"/>
</g>
<!-- Node5 -->
<g id="node5" class="node">
<title>Node5</title>
<g id="a_node5"><a xlink:href="classUtility_1_1CoroutineRunner.html#a1c473dee723f16d86bab9d8475c8214a" target="_top" xlink:title="A helper method to start coroutines">
<polygon fill="white" stroke="black" points="432,-38.5 432,-57.5 630,-57.5 630,-38.5 432,-38.5"/>
<text text-anchor="middle" x="531" y="-45.5" font-family="Helvetica,sans-Serif" font-size="10.00">Utility.CoroutineRunner.RunCoroutine</text>
</a>
</g>
</g>
<!-- Node1&#45;&gt;Node5 -->
<g id="edge5" class="edge">
<title>Node1&#45;&gt;Node5</title>
<path fill="none" stroke="midnightblue" d="M164.21,-48C236.38,-48 342.44,-48 421.8,-48"/>
<polygon fill="midnightblue" stroke="midnightblue" points="421.83,-51.5 431.83,-48 421.83,-44.5 421.83,-51.5"/>
</g>
<!-- Node6 -->
<g id="node6" class="node">
<title>Node6</title>
<g id="a_node6"><a xlink:href="classUser_1_1UserController.html#a156a37eabac915f5d287201599b3a0b1" target="_top" xlink:title="Show the login error on the modal window">
<polygon fill="white" stroke="black" points="200,-0.5 200,-19.5 390,-19.5 390,-0.5 200,-0.5"/>
<text text-anchor="middle" x="295" y="-7.5" font-family="Helvetica,sans-Serif" font-size="10.00">User.UserController.ShowLoginError</text>
</a>
</g>
</g>
<!-- Node1&#45;&gt;Node6 -->
<g id="edge6" class="edge">
<title>Node1&#45;&gt;Node6</title>
<path fill="none" stroke="midnightblue" d="M135.97,-38.46C164.82,-33.27 200.7,-26.8 230.97,-21.35"/>
<polygon fill="midnightblue" stroke="midnightblue" points="231.79,-24.76 241.01,-19.54 230.54,-17.87 231.79,-24.76"/>
</g>
<!-- Node3 -->
<g id="node3" class="node">
<title>Node3</title>
<g id="a_node3"><a xlink:href="classUser_1_1UserData.html#abb372911b5e49023a977bd064f46bb6e" target="_top" xlink:title="Initialises the user instance with proper data">
<polygon fill="white" stroke="black" points="478,-114.5 478,-133.5 584,-133.5 584,-114.5 478,-114.5"/>
<text text-anchor="middle" x="531" y="-121.5" font-family="Helvetica,sans-Serif" font-size="10.00">User.UserData.Init</text>
</a>
</g>
</g>
<!-- Node2&#45;&gt;Node3 -->
<g id="edge2" class="edge">
<title>Node2&#45;&gt;Node3</title>
<path fill="none" stroke="midnightblue" d="M354.75,-95.54C389.12,-101.12 432.51,-108.17 467.51,-113.85"/>
<polygon fill="midnightblue" stroke="midnightblue" points="467.19,-117.35 477.62,-115.49 468.31,-110.44 467.19,-117.35"/>
</g>
<!-- Node4 -->
<g id="node4" class="node">
<title>Node4</title>
<g id="a_node4"><a xlink:href="classUser_1_1UserController.html#a3ba5f73e6358fff37d2ec5e255659756" target="_top" xlink:title="Move from the user creation and login scene">
<polygon fill="white" stroke="black" points="426,-76.5 426,-95.5 636,-95.5 636,-76.5 426,-76.5"/>
<text text-anchor="middle" x="531" y="-83.5" font-family="Helvetica,sans-Serif" font-size="10.00">User.UserController.MoveToMainScence</text>
</a>
</g>
</g>
<!-- Node2&#45;&gt;Node4 -->
<g id="edge3" class="edge">
<title>Node2&#45;&gt;Node4</title>
<path fill="none" stroke="midnightblue" d="M374.24,-86C387.5,-86 401.51,-86 415.47,-86"/>
<polygon fill="midnightblue" stroke="midnightblue" points="415.61,-89.5 425.61,-86 415.61,-82.5 415.61,-89.5"/>
</g>
<!-- Node2&#45;&gt;Node5 -->
<g id="edge4" class="edge">
<title>Node2&#45;&gt;Node5</title>
<path fill="none" stroke="midnightblue" d="M354.75,-76.46C387.01,-71.22 427.22,-64.69 460.98,-59.21"/>
<polygon fill="midnightblue" stroke="midnightblue" points="461.92,-62.6 471.23,-57.54 460.8,-55.69 461.92,-62.6"/>
</g>
<!-- Node7 -->
<g id="node7" class="node">
<title>Node7</title>
<g id="a_node7"><a xlink:href="classUtility_1_1ModalWindow.html#adcef8cae2dffe4247c905d042ff0a8e3" target="_top" xlink:title="Show the modal window">
<polygon fill="white" stroke="black" points="458,-0.5 458,-19.5 604,-19.5 604,-0.5 458,-0.5"/>
<text text-anchor="middle" x="531" y="-7.5" font-family="Helvetica,sans-Serif" font-size="10.00">Utility.ModalWindow.Show</text>
</a>
</g>
</g>
<!-- Node6&#45;&gt;Node7 -->
<g id="edge7" class="edge">
<title>Node6&#45;&gt;Node7</title>
<path fill="none" stroke="midnightblue" d="M390.17,-10C409.24,-10 429.15,-10 447.78,-10"/>
<polygon fill="midnightblue" stroke="midnightblue" points="447.98,-13.5 457.98,-10 447.98,-6.5 447.98,-13.5"/>
</g>
</g>
</svg>
