<?xml version="1.0" encoding="UTF-8" standalone="no"?>
<!DOCTYPE svg PUBLIC "-//W3C//DTD SVG 1.1//EN"
 "http://www.w3.org/Graphics/SVG/1.1/DTD/svg11.dtd">
<!-- Generated by graphviz version 2.43.0 (0)
 -->
<!-- Title: MainPage.TaskHistoryWindowHandler Pages: 1 -->
<svg width="411pt" height="482pt"
 viewBox="0.00 0.00 411.00 482.00" xmlns="http://www.w3.org/2000/svg" xmlns:xlink="http://www.w3.org/1999/xlink">
<g id="graph0" class="graph" transform="scale(1 1) rotate(0) translate(4 478)">
<title>MainPage.TaskHistoryWindowHandler</title>
<polygon fill="white" stroke="transparent" points="-4,4 -4,-478 407,-478 407,4 -4,4"/>
<!-- Node1 -->
<g id="node1" class="node">
<title>Node1</title>
<g id="a_node1"><a xlink:title="Task histories window controller">
<polygon fill="#bfbfbf" stroke="black" points="0,-0.5 0,-112.5 298,-112.5 298,-0.5 0,-0.5"/>
<text text-anchor="middle" x="149" y="-100.5" font-family="Helvetica,sans-Serif" font-size="10.00">MainPage.TaskHistoryWindowHandler</text>
<polyline fill="none" stroke="black" points="0,-93.5 298,-93.5 "/>
<text text-anchor="start" x="8" y="-81.5" font-family="Helvetica,sans-Serif" font-size="10.00">&#45; GameObject taskHistoriesParent</text>
<text text-anchor="start" x="8" y="-70.5" font-family="Helvetica,sans-Serif" font-size="10.00">&#45; GameObject taskHistoryItemPrefab</text>
<polyline fill="none" stroke="black" points="0,-63.5 298,-63.5 "/>
<text text-anchor="start" x="8" y="-51.5" font-family="Helvetica,sans-Serif" font-size="10.00">+ void Show()</text>
<text text-anchor="start" x="8" y="-40.5" font-family="Helvetica,sans-Serif" font-size="10.00">+ void Hide()</text>
<text text-anchor="start" x="8" y="-29.5" font-family="Helvetica,sans-Serif" font-size="10.00">+ void LoadTaskHistories()</text>
<text text-anchor="start" x="8" y="-18.5" font-family="Helvetica,sans-Serif" font-size="10.00">&#45; void ShowRequestFail(string content)</text>
<text text-anchor="start" x="8" y="-7.5" font-family="Helvetica,sans-Serif" font-size="10.00">&#45; void LoadedHistories(List&lt; TaskHistory &gt; taskHistories)</text>
</a>
</g>
</g>
<!-- Node2 -->
<g id="node2" class="node">
<title>Node2</title>
<g id="a_node2"><a xlink:href="classUtility_1_1ThreadSafeMonoBehaviour.html" target="_top" xlink:title="Safely stores if the gameobject been destroyed in a bool">
<polygon fill="white" stroke="black" points="70.5,-321.5 70.5,-378.5 219.5,-378.5 219.5,-321.5 70.5,-321.5"/>
<text text-anchor="middle" x="145" y="-366.5" font-family="Helvetica,sans-Serif" font-size="10.00">ThreadSafeMonoBehaviour</text>
<polyline fill="none" stroke="black" points="70.5,-359.5 219.5,-359.5 "/>
<text text-anchor="start" x="78.5" y="-347.5" font-family="Helvetica,sans-Serif" font-size="10.00">+ bool Destroyed</text>
<polyline fill="none" stroke="black" points="70.5,-340.5 219.5,-340.5 "/>
<text text-anchor="start" x="78.5" y="-328.5" font-family="Helvetica,sans-Serif" font-size="10.00"># void OnDestroy()</text>
</a>
</g>
</g>
<!-- Node2&#45;&gt;Node1 -->
<g id="edge1" class="edge">
<title>Node2&#45;&gt;Node1</title>
<path fill="none" stroke="midnightblue" d="M145.52,-311.15C146.21,-260.62 147.45,-170.74 148.24,-112.66"/>
<polygon fill="none" stroke="midnightblue" points="142.02,-311.27 145.38,-321.31 149.02,-311.36 142.02,-311.27"/>
</g>
<!-- Node4 -->
<g id="node4" class="node">
<title>Node4</title>
<g id="a_node4"><a xlink:href="classUtility_1_1ModalWindow.html" target="_top" xlink:title="Modal window for alerting the user">
<polygon fill="white" stroke="black" points="161,-160.5 161,-283.5 403,-283.5 403,-160.5 161,-160.5"/>
<text text-anchor="middle" x="282" y="-271.5" font-family="Helvetica,sans-Serif" font-size="10.00">Utility.ModalWindow</text>
<polyline fill="none" stroke="black" points="161,-264.5 403,-264.5 "/>
<text text-anchor="start" x="169" y="-252.5" font-family="Helvetica,sans-Serif" font-size="10.00">&#45; TMP_Text ModalTitleText</text>
<text text-anchor="start" x="169" y="-241.5" font-family="Helvetica,sans-Serif" font-size="10.00">&#45; TMP_Text ModalContentText</text>
<text text-anchor="start" x="169" y="-230.5" font-family="Helvetica,sans-Serif" font-size="10.00">&#45; Action onOkAction</text>
<polyline fill="none" stroke="black" points="161,-223.5 403,-223.5 "/>
<text text-anchor="start" x="169" y="-211.5" font-family="Helvetica,sans-Serif" font-size="10.00">+ void Show()</text>
<text text-anchor="start" x="169" y="-200.5" font-family="Helvetica,sans-Serif" font-size="10.00">+ void Show(string title, string content, Action</text>
<text text-anchor="start" x="169" y="-189.5" font-family="Helvetica,sans-Serif" font-size="10.00"> onOkAction=null)</text>
<text text-anchor="start" x="169" y="-178.5" font-family="Helvetica,sans-Serif" font-size="10.00">+ void Hide()</text>
<text text-anchor="start" x="169" y="-167.5" font-family="Helvetica,sans-Serif" font-size="10.00">+ void ConfirmButtonClick()</text>
</a>
</g>
</g>
<!-- Node2&#45;&gt;Node4 -->
<g id="edge4" class="edge">
<title>Node2&#45;&gt;Node4</title>
<path fill="none" stroke="midnightblue" d="M182.43,-314.58C192.86,-304.99 204.51,-294.27 216.06,-283.65"/>
<polygon fill="none" stroke="midnightblue" points="180.06,-312 175.07,-321.35 184.79,-317.16 180.06,-312"/>
</g>
<!-- Node3 -->
<g id="node3" class="node">
<title>Node3</title>
<g id="a_node3"><a xlink:title=" ">
<polygon fill="white" stroke="#bfbfbf" points="98.5,-416.5 98.5,-473.5 191.5,-473.5 191.5,-416.5 98.5,-416.5"/>
<text text-anchor="middle" x="145" y="-461.5" font-family="Helvetica,sans-Serif" font-size="10.00">MonoBehaviour</text>
<polyline fill="none" stroke="#bfbfbf" points="98.5,-454.5 191.5,-454.5 "/>
<text text-anchor="middle" x="145" y="-442.5" font-family="Helvetica,sans-Serif" font-size="10.00"> </text>
<polyline fill="none" stroke="#bfbfbf" points="98.5,-435.5 191.5,-435.5 "/>
<text text-anchor="middle" x="145" y="-423.5" font-family="Helvetica,sans-Serif" font-size="10.00"> </text>
</a>
</g>
</g>
<!-- Node3&#45;&gt;Node2 -->
<g id="edge2" class="edge">
<title>Node3&#45;&gt;Node2</title>
<path fill="none" stroke="midnightblue" d="M145,-406.24C145,-397.03 145,-387.35 145,-378.71"/>
<polygon fill="none" stroke="midnightblue" points="141.5,-406.35 145,-416.35 148.5,-406.35 141.5,-406.35"/>
</g>
<!-- Node4&#45;&gt;Node1 -->
<g id="edge3" class="edge">
<title>Node4&#45;&gt;Node1</title>
<path fill="none" stroke="#404040" d="M232.48,-160.12C222.41,-147.75 211.79,-134.69 201.63,-122.19"/>
<polygon fill="none" stroke="#404040" points="201.53,-122.07 194.64,-119.94 193.96,-112.76 200.84,-114.89 201.53,-122.07"/>
<text text-anchor="middle" x="253.5" y="-134" font-family="Helvetica,sans-Serif" font-size="10.00"> &#45;modalWindow</text>
</g>
</g>
</svg>
