<?xml version="1.0" encoding="UTF-8" standalone="no"?>
<!DOCTYPE svg PUBLIC "-//W3C//DTD SVG 1.1//EN"
 "http://www.w3.org/Graphics/SVG/1.1/DTD/svg11.dtd">
<!-- Generated by graphviz version 2.43.0 (0)
 -->
<!-- Title: Game.GameController.SpawnNearbyChunks Pages: 1 -->
<svg width="2003pt" height="218pt"
 viewBox="0.00 0.00 2003.00 218.00" xmlns="http://www.w3.org/2000/svg" xmlns:xlink="http://www.w3.org/1999/xlink">
<g id="graph0" class="graph" transform="scale(1 1) rotate(0) translate(4 214)">
<title>Game.GameController.SpawnNearbyChunks</title>
<polygon fill="white" stroke="transparent" points="-4,4 -4,-214 1999,-214 1999,4 -4,4"/>
<!-- Node1 -->
<g id="node1" class="node">
<title>Node1</title>
<g id="a_node1"><a xlink:title="Spawns and loads the nearby chunks">
<polygon fill="#bfbfbf" stroke="black" points="0,-171.5 0,-190.5 232,-190.5 232,-171.5 0,-171.5"/>
<text text-anchor="middle" x="116" y="-178.5" font-family="Helvetica,sans-Serif" font-size="10.00">Game.GameController.SpawnNearbyChunks</text>
</a>
</g>
</g>
<!-- Node2 -->
<g id="node2" class="node">
<title>Node2</title>
<g id="a_node2"><a xlink:href="classGame_1_1GameController.html#a9818f49a9c0638be6cc6449e5e5000f7" target="_top" xlink:title="Checks if the selected chunk is in range and loads it if the world exists">
<polygon fill="white" stroke="black" points="268,-171.5 268,-190.5 509,-190.5 509,-171.5 268,-171.5"/>
<text text-anchor="middle" x="388.5" y="-178.5" font-family="Helvetica,sans-Serif" font-size="10.00">Game.GameController.ValidateAndLoadChunk</text>
</a>
</g>
</g>
<!-- Node1&#45;&gt;Node2 -->
<g id="edge1" class="edge">
<title>Node1&#45;&gt;Node2</title>
<path fill="none" stroke="midnightblue" d="M232.11,-181C240.58,-181 249.17,-181 257.72,-181"/>
<polygon fill="midnightblue" stroke="midnightblue" points="257.74,-184.5 267.74,-181 257.74,-177.5 257.74,-184.5"/>
</g>
<!-- Node3 -->
<g id="node3" class="node">
<title>Node3</title>
<g id="a_node3"><a xlink:href="classGame_1_1World_1_1GameWorld.html#a730e116826e3519544de155b667042ba" target="_top" xlink:title="Loads a chunk">
<polygon fill="white" stroke="black" points="545,-171.5 545,-190.5 739,-190.5 739,-171.5 545,-171.5"/>
<text text-anchor="middle" x="642" y="-178.5" font-family="Helvetica,sans-Serif" font-size="10.00">Game.World.GameWorld.LoadChunk</text>
</a>
</g>
</g>
<!-- Node2&#45;&gt;Node3 -->
<g id="edge2" class="edge">
<title>Node2&#45;&gt;Node3</title>
<path fill="none" stroke="midnightblue" d="M509.36,-181C517.81,-181 526.3,-181 534.68,-181"/>
<polygon fill="midnightblue" stroke="midnightblue" points="534.82,-184.5 544.82,-181 534.82,-177.5 534.82,-184.5"/>
</g>
<!-- Node4 -->
<g id="node4" class="node">
<title>Node4</title>
<g id="a_node4"><a xlink:href="classGame_1_1World_1_1Chunk.html#a475512064d145228ca7084735b7e2f2f" target="_top" xlink:title="Show the chunk">
<polygon fill="white" stroke="black" points="780,-190.5 780,-209.5 930,-209.5 930,-190.5 780,-190.5"/>
<text text-anchor="middle" x="855" y="-197.5" font-family="Helvetica,sans-Serif" font-size="10.00">Game.World.Chunk.Display</text>
</a>
</g>
</g>
<!-- Node3&#45;&gt;Node4 -->
<g id="edge3" class="edge">
<title>Node3&#45;&gt;Node4</title>
<path fill="none" stroke="midnightblue" d="M739.24,-189.67C749.32,-190.57 759.52,-191.49 769.46,-192.39"/>
<polygon fill="midnightblue" stroke="midnightblue" points="769.43,-195.9 779.71,-193.31 770.06,-188.93 769.43,-195.9"/>
</g>
<!-- Node5 -->
<g id="node5" class="node">
<title>Node5</title>
<g id="a_node5"><a xlink:href="classGame_1_1World_1_1Chunk.html#a0616c2f9600a4bcc1dbe97a93a947e7a" target="_top" xlink:title="Initialize the chunk">
<polygon fill="white" stroke="black" points="775,-152.5 775,-171.5 935,-171.5 935,-152.5 775,-152.5"/>
<text text-anchor="middle" x="855" y="-159.5" font-family="Helvetica,sans-Serif" font-size="10.00">Game.World.Chunk.InitChunk</text>
</a>
</g>
</g>
<!-- Node3&#45;&gt;Node5 -->
<g id="edge4" class="edge">
<title>Node3&#45;&gt;Node5</title>
<path fill="none" stroke="midnightblue" d="M739.24,-172.33C747.74,-171.57 756.32,-170.8 764.76,-170.04"/>
<polygon fill="midnightblue" stroke="midnightblue" points="765.32,-173.5 774.96,-169.12 764.69,-166.53 765.32,-173.5"/>
</g>
<!-- Node6 -->
<g id="node6" class="node">
<title>Node6</title>
<g id="a_node6"><a xlink:href="classGame_1_1World_1_1Chunk.html#aac3343253a33a36a09318ebc76bd9f08" target="_top" xlink:title="Creates the tiles for the chunk">
<polygon fill="white" stroke="black" points="991.5,-190.5 991.5,-209.5 1160.5,-209.5 1160.5,-190.5 991.5,-190.5"/>
<text text-anchor="middle" x="1076" y="-197.5" font-family="Helvetica,sans-Serif" font-size="10.00">Game.World.Chunk.CreateTiles</text>
</a>
</g>
</g>
<!-- Node5&#45;&gt;Node6 -->
<g id="edge5" class="edge">
<title>Node5&#45;&gt;Node6</title>
<path fill="none" stroke="midnightblue" d="M910.98,-171.54C941.05,-176.76 978.48,-183.25 1009.99,-188.72"/>
<polygon fill="midnightblue" stroke="midnightblue" points="1009.55,-192.19 1020,-190.46 1010.74,-185.3 1009.55,-192.19"/>
</g>
<!-- Node9 -->
<g id="node9" class="node">
<title>Node9</title>
<g id="a_node9"><a xlink:href="classGame_1_1World_1_1Chunk.html#af8d6134551597f12a028155b1466c0ff" target="_top" xlink:title="Gets tthe nearby chunks">
<polygon fill="white" stroke="black" points="975,-152.5 975,-171.5 1177,-171.5 1177,-152.5 975,-152.5"/>
<text text-anchor="middle" x="1076" y="-159.5" font-family="Helvetica,sans-Serif" font-size="10.00">Game.World.Chunk.GetNearbyChunks</text>
</a>
</g>
</g>
<!-- Node5&#45;&gt;Node9 -->
<g id="edge8" class="edge">
<title>Node5&#45;&gt;Node9</title>
<path fill="none" stroke="midnightblue" d="M935.06,-162C944.61,-162 954.5,-162 964.39,-162"/>
<polygon fill="midnightblue" stroke="midnightblue" points="964.69,-165.5 974.69,-162 964.69,-158.5 964.69,-165.5"/>
</g>
<!-- Node11 -->
<g id="node11" class="node">
<title>Node11</title>
<g id="a_node11"><a xlink:href="classGame_1_1World_1_1Chunk.html#a08f4b5e8b362b98f4b3f01225d12b4af" target="_top" xlink:title="Spawns the buildings and the props on a seperate thread">
<polygon fill="white" stroke="black" points="971,-76.5 971,-95.5 1181,-95.5 1181,-76.5 971,-76.5"/>
<text text-anchor="middle" x="1076" y="-83.5" font-family="Helvetica,sans-Serif" font-size="10.00">Game.World.Chunk.SpawnWorldObjects</text>
</a>
</g>
</g>
<!-- Node5&#45;&gt;Node11 -->
<g id="edge10" class="edge">
<title>Node5&#45;&gt;Node11</title>
<path fill="none" stroke="midnightblue" d="M883.74,-152.37C922.82,-138.81 994.18,-114.05 1037.82,-98.9"/>
<polygon fill="midnightblue" stroke="midnightblue" points="1039.19,-102.13 1047.49,-95.55 1036.89,-95.52 1039.19,-102.13"/>
</g>
<!-- Node7 -->
<g id="node7" class="node">
<title>Node7</title>
<g id="a_node7"><a xlink:href="classGame_1_1World_1_1Chunk.html#ac4b762352bb5f90952fe57e5c0ee208f" target="_top" xlink:title="Determines the type of the tile at the coord">
<polygon fill="white" stroke="black" points="1238.5,-190.5 1238.5,-209.5 1444.5,-209.5 1444.5,-190.5 1238.5,-190.5"/>
<text text-anchor="middle" x="1341.5" y="-197.5" font-family="Helvetica,sans-Serif" font-size="10.00">Game.World.Chunk.DetermineTileType</text>
</a>
</g>
</g>
<!-- Node6&#45;&gt;Node7 -->
<g id="edge6" class="edge">
<title>Node6&#45;&gt;Node7</title>
<path fill="none" stroke="midnightblue" d="M1160.74,-200C1182.04,-200 1205.28,-200 1227.76,-200"/>
<polygon fill="midnightblue" stroke="midnightblue" points="1228.03,-203.5 1238.03,-200 1228.03,-196.5 1228.03,-203.5"/>
</g>
<!-- Node8 -->
<g id="node8" class="node">
<title>Node8</title>
<g id="a_node8"><a xlink:href="classGame_1_1World_1_1Chunk.html#a2d39efc9f5c0f3c302dd7e9d007096c7" target="_top" xlink:title="Determine what type of road it is">
<polygon fill="white" stroke="black" points="1518.5,-190.5 1518.5,-209.5 1730.5,-209.5 1730.5,-190.5 1518.5,-190.5"/>
<text text-anchor="middle" x="1624.5" y="-197.5" font-family="Helvetica,sans-Serif" font-size="10.00">Game.World.Chunk.DetermineRoadType</text>
</a>
</g>
</g>
<!-- Node7&#45;&gt;Node8 -->
<g id="edge7" class="edge">
<title>Node7&#45;&gt;Node8</title>
<path fill="none" stroke="midnightblue" d="M1444.74,-200C1465.24,-200 1486.91,-200 1507.83,-200"/>
<polygon fill="midnightblue" stroke="midnightblue" points="1508.03,-203.5 1518.03,-200 1508.03,-196.5 1508.03,-203.5"/>
</g>
<!-- Node10 -->
<g id="node10" class="node">
<title>Node10</title>
<g id="a_node10"><a xlink:href="classGame_1_1World_1_1GameWorld.html#a6188226b54eb7e38659cbe8d9d76b620" target="_top" xlink:title="Get the chunk without trying it to load">
<polygon fill="white" stroke="black" points="1217,-152.5 1217,-171.5 1466,-171.5 1466,-152.5 1217,-152.5"/>
<text text-anchor="middle" x="1341.5" y="-159.5" font-family="Helvetica,sans-Serif" font-size="10.00">Game.World.GameWorld.GetChunkWithoutLoad</text>
</a>
</g>
</g>
<!-- Node9&#45;&gt;Node10 -->
<g id="edge9" class="edge">
<title>Node9&#45;&gt;Node10</title>
<path fill="none" stroke="midnightblue" d="M1177.37,-162C1186.98,-162 1196.82,-162 1206.68,-162"/>
<polygon fill="midnightblue" stroke="midnightblue" points="1206.95,-165.5 1216.95,-162 1206.95,-158.5 1206.95,-165.5"/>
</g>
<!-- Node12 -->
<g id="node12" class="node">
<title>Node12</title>
<g id="a_node12"><a xlink:href="classGame_1_1World_1_1Chunk.html#a12ff4b268fb99d10493398cfe555b46c" target="_top" xlink:title=" ">
<polygon fill="white" stroke="black" points="1514,-114.5 1514,-133.5 1735,-133.5 1735,-114.5 1514,-114.5"/>
<text text-anchor="middle" x="1624.5" y="-121.5" font-family="Helvetica,sans-Serif" font-size="10.00">Game.World.Chunk.AddEnvironmentProps</text>
</a>
</g>
</g>
<!-- Node11&#45;&gt;Node12 -->
<g id="edge11" class="edge">
<title>Node11&#45;&gt;Node12</title>
<path fill="none" stroke="midnightblue" d="M1138.55,-95.55C1162.92,-99.01 1191.23,-102.65 1217,-105 1313.15,-113.75 1422.48,-118.58 1503.52,-121.17"/>
<polygon fill="midnightblue" stroke="midnightblue" points="1503.66,-124.68 1513.76,-121.49 1503.88,-117.68 1503.66,-124.68"/>
</g>
<!-- Node14 -->
<g id="node14" class="node">
<title>Node14</title>
<g id="a_node14"><a xlink:href="classGame_1_1World_1_1Chunk.html#a00a9cd484ae1ddffec928a75f6b2db15" target="_top" xlink:title="Add the buildings which are next to the roads">
<polygon fill="white" stroke="black" points="1240.5,-76.5 1240.5,-95.5 1442.5,-95.5 1442.5,-76.5 1240.5,-76.5"/>
<text text-anchor="middle" x="1341.5" y="-83.5" font-family="Helvetica,sans-Serif" font-size="10.00">Game.World.Chunk.AddRoadBuildings</text>
</a>
</g>
</g>
<!-- Node11&#45;&gt;Node14 -->
<g id="edge13" class="edge">
<title>Node11&#45;&gt;Node14</title>
<path fill="none" stroke="midnightblue" d="M1181.14,-86C1197.22,-86 1213.88,-86 1230.1,-86"/>
<polygon fill="midnightblue" stroke="midnightblue" points="1230.12,-89.5 1240.12,-86 1230.12,-82.5 1230.12,-89.5"/>
</g>
<!-- Node16 -->
<g id="node16" class="node">
<title>Node16</title>
<g id="a_node16"><a xlink:href="classGame_1_1World_1_1Chunk.html#a443ede65d8aeb566a385cb3bcad9d8f7" target="_top" xlink:title="Generate the building cells matrix so we know which way the roads are">
<polygon fill="white" stroke="black" points="1237,-38.5 1237,-57.5 1446,-57.5 1446,-38.5 1237,-38.5"/>
<text text-anchor="middle" x="1341.5" y="-45.5" font-family="Helvetica,sans-Serif" font-size="10.00">Game.World.Chunk.GenerateCellMatrix</text>
</a>
</g>
</g>
<!-- Node11&#45;&gt;Node16 -->
<g id="edge16" class="edge">
<title>Node11&#45;&gt;Node16</title>
<path fill="none" stroke="midnightblue" d="M1143.15,-76.46C1179.96,-71.15 1225.93,-64.52 1264.25,-59"/>
<polygon fill="midnightblue" stroke="midnightblue" points="1264.92,-62.44 1274.32,-57.54 1263.92,-55.51 1264.92,-62.44"/>
</g>
<!-- Node17 -->
<g id="node17" class="node">
<title>Node17</title>
<g id="a_node17"><a xlink:href="classUtility_1_1CoroutineRunner.html#a1c473dee723f16d86bab9d8475c8214a" target="_top" xlink:title="A helper method to start coroutines">
<polygon fill="white" stroke="black" points="1242.5,-0.5 1242.5,-19.5 1440.5,-19.5 1440.5,-0.5 1242.5,-0.5"/>
<text text-anchor="middle" x="1341.5" y="-7.5" font-family="Helvetica,sans-Serif" font-size="10.00">Utility.CoroutineRunner.RunCoroutine</text>
</a>
</g>
</g>
<!-- Node11&#45;&gt;Node17 -->
<g id="edge17" class="edge">
<title>Node11&#45;&gt;Node17</title>
<path fill="none" stroke="midnightblue" d="M1096.43,-76.38C1123,-63.63 1172.48,-41.3 1217,-29 1227.75,-26.03 1239.17,-23.48 1250.55,-21.31"/>
<polygon fill="midnightblue" stroke="midnightblue" points="1251.31,-24.73 1260.53,-19.5 1250.06,-17.85 1251.31,-24.73"/>
</g>
<!-- Node13 -->
<g id="node13" class="node">
<title>Node13</title>
<g id="a_node13"><a xlink:href="classGame_1_1World_1_1Chunk.html#af37779d40ed9cd07b577d5bca61627b7" target="_top" xlink:title=" ">
<polygon fill="white" stroke="black" points="1783,-95.5 1783,-114.5 1995,-114.5 1995,-95.5 1783,-95.5"/>
<text text-anchor="middle" x="1889" y="-102.5" font-family="Helvetica,sans-Serif" font-size="10.00">Game.World.Chunk.GetAbsolutePosition</text>
</a>
</g>
</g>
<!-- Node12&#45;&gt;Node13 -->
<g id="edge12" class="edge">
<title>Node12&#45;&gt;Node13</title>
<path fill="none" stroke="midnightblue" d="M1735.3,-116.05C1747.6,-115.16 1760.15,-114.25 1772.51,-113.36"/>
<polygon fill="midnightblue" stroke="midnightblue" points="1773.12,-116.82 1782.84,-112.61 1772.61,-109.84 1773.12,-116.82"/>
</g>
<!-- Node15 -->
<g id="node15" class="node">
<title>Node15</title>
<g id="a_node15"><a xlink:href="classGame_1_1World_1_1Chunk.html#af2946e1e1b9e325d6004d166b2b26193" target="_top" xlink:title="Lock the cell and try to place it">
<polygon fill="white" stroke="black" points="1502,-76.5 1502,-95.5 1747,-95.5 1747,-76.5 1502,-76.5"/>
<text text-anchor="middle" x="1624.5" y="-83.5" font-family="Helvetica,sans-Serif" font-size="10.00">Game.World.Chunk.LockAndTryToPlaceBuilding</text>
</a>
</g>
</g>
<!-- Node14&#45;&gt;Node15 -->
<g id="edge14" class="edge">
<title>Node14&#45;&gt;Node15</title>
<path fill="none" stroke="midnightblue" d="M1442.76,-86C1458.55,-86 1475.09,-86 1491.47,-86"/>
<polygon fill="midnightblue" stroke="midnightblue" points="1491.64,-89.5 1501.64,-86 1491.64,-82.5 1491.64,-89.5"/>
</g>
<!-- Node15&#45;&gt;Node13 -->
<g id="edge15" class="edge">
<title>Node15&#45;&gt;Node13</title>
<path fill="none" stroke="midnightblue" d="M1747.14,-94.8C1755.72,-95.43 1764.36,-96.05 1772.9,-96.67"/>
<polygon fill="midnightblue" stroke="midnightblue" points="1772.65,-100.16 1782.87,-97.39 1773.15,-93.18 1772.65,-100.16"/>
</g>
</g>
</svg>
