<?xml version="1.0" encoding="UTF-8" standalone="no"?>
<!DOCTYPE svg PUBLIC "-//W3C//DTD SVG 1.1//EN"
 "http://www.w3.org/Graphics/SVG/1.1/DTD/svg11.dtd">
<!-- Generated by graphviz version 2.43.0 (0)
 -->
<!-- Title: User.UserController.LoggedIn Pages: 1 -->
<svg width="563pt" height="64pt"
 viewBox="0.00 0.00 563.00 64.00" xmlns="http://www.w3.org/2000/svg" xmlns:xlink="http://www.w3.org/1999/xlink">
<g id="graph0" class="graph" transform="scale(1 1) rotate(0) translate(4 60)">
<title>User.UserController.LoggedIn</title>
<!-- Node1 -->
<g id="Node000001" class="node">
<title>Node1</title>
<g id="a_Node000001"><a xlink:title="When the login request&#39;s was responded log the user in.">
<polygon fill="#999999" stroke="#666666" points="555,-37 397,-37 397,-18 555,-18 555,-37"/>
<text text-anchor="middle" x="476" y="-25" font-family="Helvetica,sans-Serif" font-size="10.00">User.UserController.LoggedIn</text>
</a>
</g>
</g>
<!-- Node2 -->
<g id="Node000002" class="node">
<title>Node2</title>
<g id="a_Node000002"><a xlink:href="classUser_1_1UserController.html#a0e115007266961c890001eb18f11bd1f" target="_top" xlink:title="Send a request to check if the user has logged in already.">
<polygon fill="white" stroke="#666666" points="361,-56 173,-56 173,-37 361,-37 361,-56"/>
<text text-anchor="middle" x="267" y="-44" font-family="Helvetica,sans-Serif" font-size="10.00">User.UserController.CheckLoggedIn</text>
</a>
</g>
</g>
<!-- Node1&#45;&gt;Node2 -->
<g id="edge1_Node000001_Node000002" class="edge">
<title>Node1&#45;&gt;Node2</title>
<g id="a_edge1_Node000001_Node000002"><a xlink:title=" ">
<path fill="none" stroke="#63b8ff" d="M386.62,-35.61C378.25,-36.38 369.75,-37.16 361.34,-37.93"/>
<polygon fill="#63b8ff" stroke="#63b8ff" points="387.1,-39.08 396.74,-34.68 386.46,-32.11 387.1,-39.08"/>
</a>
</g>
</g>
<!-- Node4 -->
<g id="Node000004" class="node">
<title>Node4</title>
<g id="a_Node000004"><a xlink:href="classUser_1_1UserController.html#a7d9a8e16cdb6bc3702ab7987cc141b09" target="_top" xlink:title="Send a login request with the login panel&#39;s fields.">
<polygon fill="white" stroke="#666666" points="349,-19 185,-19 185,0 349,0 349,-19"/>
<text text-anchor="middle" x="267" y="-7" font-family="Helvetica,sans-Serif" font-size="10.00">User.UserController.SendLogin</text>
</a>
</g>
</g>
<!-- Node1&#45;&gt;Node4 -->
<g id="edge3_Node000001_Node000004" class="edge">
<title>Node1&#45;&gt;Node4</title>
<g id="a_edge3_Node000001_Node000004"><a xlink:title=" ">
<path fill="none" stroke="#63b8ff" d="M386.42,-19.8C374.04,-18.72 361.36,-17.62 349.12,-16.55"/>
<polygon fill="#63b8ff" stroke="#63b8ff" points="386.48,-23.32 396.74,-20.69 387.08,-16.34 386.48,-23.32"/>
</a>
</g>
</g>
<!-- Node3 -->
<g id="Node000003" class="node">
<title>Node3</title>
<g id="a_Node000003"><a xlink:href="classUser_1_1UserController.html#a8d7a7b7d698dd47d420cc52ca90def5d" target="_top" xlink:title="Start is called before the first frame update.">
<polygon fill="white" stroke="#666666" points="137,-56 0,-56 0,-37 137,-37 137,-56"/>
<text text-anchor="middle" x="68.5" y="-44" font-family="Helvetica,sans-Serif" font-size="10.00">User.UserController.Start</text>
</a>
</g>
</g>
<!-- Node2&#45;&gt;Node3 -->
<g id="edge2_Node000002_Node000003" class="edge">
<title>Node2&#45;&gt;Node3</title>
<g id="a_edge2_Node000002_Node000003"><a xlink:title=" ">
<path fill="none" stroke="#63b8ff" d="M162.71,-46.5C154.01,-46.5 145.36,-46.5 137.04,-46.5"/>
<polygon fill="#63b8ff" stroke="#63b8ff" points="162.93,-50 172.93,-46.5 162.93,-43 162.93,-50"/>
</a>
</g>
</g>
</g>
</svg>
