<?xml version="1.0" encoding="UTF-8" standalone="no"?>
<!DOCTYPE svg PUBLIC "-//W3C//DTD SVG 1.1//EN"
 "http://www.w3.org/Graphics/SVG/1.1/DTD/svg11.dtd">
<!-- Generated by graphviz version 2.43.0 (0)
 -->
<!-- Title: Game.World.GameWorld.HideChunk Pages: 1 -->
<svg width="983pt" height="64pt"
 viewBox="0.00 0.00 983.00 64.00" xmlns="http://www.w3.org/2000/svg" xmlns:xlink="http://www.w3.org/1999/xlink">
<g id="graph0" class="graph" transform="scale(1 1) rotate(0) translate(4 60)">
<title>Game.World.GameWorld.HideChunk</title>
<!-- Node1 -->
<g id="Node000001" class="node">
<title>Node1</title>
<g id="a_Node000001"><a xlink:title="Hide the given chunk.">
<polygon fill="#999999" stroke="#666666" points="975,-37 782,-37 782,-18 975,-18 975,-37"/>
<text text-anchor="middle" x="878.5" y="-25" font-family="Helvetica,sans-Serif" font-size="10.00">Game.World.GameWorld.HideChunk</text>
</a>
</g>
</g>
<!-- Node2 -->
<g id="Node000002" class="node">
<title>Node2</title>
<g id="a_Node000002"><a xlink:href="classGame_1_1GameController.html#a9d697eb362c93e3208af1a5c2385742d" target="_top" xlink:title="Despawn the chunks which are too far away from the player.">
<polygon fill="white" stroke="#666666" points="746,-56 495,-56 495,-37 746,-37 746,-56"/>
<text text-anchor="middle" x="620.5" y="-44" font-family="Helvetica,sans-Serif" font-size="10.00">Game.GameController.DespawnFarAwayChunks</text>
</a>
</g>
</g>
<!-- Node1&#45;&gt;Node2 -->
<g id="edge1_Node000001_Node000002" class="edge">
<title>Node1&#45;&gt;Node2</title>
<g id="a_edge1_Node000001_Node000002"><a xlink:title=" ">
<path fill="none" stroke="#63b8ff" d="M771.63,-35.36C763.22,-35.98 754.67,-36.62 746.15,-37.25"/>
<polygon fill="#63b8ff" stroke="#63b8ff" points="772.1,-38.83 781.81,-34.6 771.58,-31.85 772.1,-38.83"/>
</a>
</g>
</g>
<!-- Node5 -->
<g id="Node000005" class="node">
<title>Node5</title>
<g id="a_Node000005"><a xlink:href="classGame_1_1World_1_1GameWorld.html#a34489f9fa15c207fce7c280ab1aeb08c" target="_top" xlink:title="Gets the chunk it will load it if it hasn&#39;t been and hide it then otherwise just return it.">
<polygon fill="white" stroke="#666666" points="714.5,-19 526.5,-19 526.5,0 714.5,0 714.5,-19"/>
<text text-anchor="middle" x="620.5" y="-7" font-family="Helvetica,sans-Serif" font-size="10.00">Game.World.GameWorld.GetChunk</text>
</a>
</g>
</g>
<!-- Node1&#45;&gt;Node5 -->
<g id="edge4_Node000001_Node000005" class="edge">
<title>Node1&#45;&gt;Node5</title>
<g id="a_edge4_Node000001_Node000005"><a xlink:title=" ">
<path fill="none" stroke="#63b8ff" d="M771.67,-20.06C752.71,-18.73 733.09,-17.35 714.52,-16.04"/>
<polygon fill="#63b8ff" stroke="#63b8ff" points="771.59,-23.56 781.81,-20.77 772.08,-16.58 771.59,-23.56"/>
</a>
</g>
</g>
<!-- Node3 -->
<g id="Node000003" class="node">
<title>Node3</title>
<g id="a_Node000003"><a xlink:href="classGame_1_1GameController.html#af623e7876622503e3d0f985ad9b08e47" target="_top" xlink:title="Handle the load and despawning of the chunks relative to the given indices.">
<polygon fill="white" stroke="#666666" points="459,-56 208,-56 208,-37 459,-37 459,-56"/>
<text text-anchor="middle" x="333.5" y="-44" font-family="Helvetica,sans-Serif" font-size="10.00">Game.GameController.LoadAndDespawnChunks</text>
</a>
</g>
</g>
<!-- Node2&#45;&gt;Node3 -->
<g id="edge2_Node000002_Node000003" class="edge">
<title>Node2&#45;&gt;Node3</title>
<g id="a_edge2_Node000002_Node000003"><a xlink:title=" ">
<path fill="none" stroke="#63b8ff" d="M484.89,-46.5C476.34,-46.5 467.75,-46.5 459.24,-46.5"/>
<polygon fill="#63b8ff" stroke="#63b8ff" points="484.91,-50 494.91,-46.5 484.91,-43 484.91,-50"/>
</a>
</g>
</g>
<!-- Node4 -->
<g id="Node000004" class="node">
<title>Node4</title>
<g id="a_Node000004"><a xlink:href="classGame_1_1PlayerCar.html#a18f30f1f6873f043457ce9f81ac47ed4" target="_top" xlink:title="Override the chunk changed method to make it load and despawn the chunks.">
<polygon fill="white" stroke="#666666" points="172,-56 0,-56 0,-37 172,-37 172,-56"/>
<text text-anchor="middle" x="86" y="-44" font-family="Helvetica,sans-Serif" font-size="10.00">Game.PlayerCar.ChunkChanged</text>
</a>
</g>
</g>
<!-- Node3&#45;&gt;Node4 -->
<g id="edge3_Node000003_Node000004" class="edge">
<title>Node3&#45;&gt;Node4</title>
<g id="a_edge3_Node000003_Node000004"><a xlink:title=" ">
<path fill="none" stroke="#63b8ff" d="M197.75,-46.5C189.09,-46.5 180.5,-46.5 172.17,-46.5"/>
<polygon fill="#63b8ff" stroke="#63b8ff" points="197.95,-50 207.95,-46.5 197.95,-43 197.95,-50"/>
</a>
</g>
</g>
</g>
</svg>
