<?xml version="1.0" encoding="UTF-8" standalone="no"?>
<!DOCTYPE svg PUBLIC "-//W3C//DTD SVG 1.1//EN"
 "http://www.w3.org/Graphics/SVG/1.1/DTD/svg11.dtd">
<!-- Generated by graphviz version 2.43.0 (0)
 -->
<!-- Title: MainPage.MainWindowController.CreateTask Pages: 1 -->
<svg width="2027pt" height="104pt"
 viewBox="0.00 0.00 2027.00 104.00" xmlns="http://www.w3.org/2000/svg" xmlns:xlink="http://www.w3.org/1999/xlink">
<g id="graph0" class="graph" transform="scale(1 1) rotate(0) translate(4 100)">
<title>MainPage.MainWindowController.CreateTask</title>
<polygon fill="white" stroke="transparent" points="-4,4 -4,-100 2023,-100 2023,4 -4,4"/>
<!-- Node1 -->
<g id="node1" class="node">
<title>Node1</title>
<g id="a_node1"><a xlink:title="Creates a new task prefab to display">
<polygon fill="#bfbfbf" stroke="black" points="0,-38.5 0,-57.5 234,-57.5 234,-38.5 0,-38.5"/>
<text text-anchor="middle" x="117" y="-45.5" font-family="Helvetica,sans-Serif" font-size="10.00">MainPage.MainWindowController.CreateTask</text>
</a>
</g>
</g>
<!-- Node2 -->
<g id="node2" class="node">
<title>Node2</title>
<g id="a_node2"><a xlink:href="classMainPage_1_1TaskDisplayHandler.html#a8aedc4afb32d220352cf04cc77fdedf6" target="_top" xlink:title="Init it with the task to display and references to the controls">
<polygon fill="white" stroke="black" points="270,-38.5 270,-57.5 484,-57.5 484,-38.5 270,-38.5"/>
<text text-anchor="middle" x="377" y="-45.5" font-family="Helvetica,sans-Serif" font-size="10.00">MainPage.TaskDisplayHandler.InitValues</text>
</a>
</g>
</g>
<!-- Node1&#45;&gt;Node2 -->
<g id="edge1" class="edge">
<title>Node1&#45;&gt;Node2</title>
<path fill="none" stroke="midnightblue" d="M234.17,-48C242.63,-48 251.17,-48 259.63,-48"/>
<polygon fill="midnightblue" stroke="midnightblue" points="259.91,-51.5 269.91,-48 259.91,-44.5 259.91,-51.5"/>
</g>
<!-- Node3 -->
<g id="node3" class="node">
<title>Node3</title>
<g id="a_node3"><a xlink:href="classMainPage_1_1TaskDisplayHandler.html#aa49063eb8db092920d512f9869df6e98" target="_top" xlink:title="Calculate if the task can be completed again">
<polygon fill="white" stroke="black" points="520,-76.5 520,-95.5 807,-95.5 807,-76.5 520,-76.5"/>
<text text-anchor="middle" x="663.5" y="-83.5" font-family="Helvetica,sans-Serif" font-size="10.00">MainPage.TaskDisplayHandler.CalculateIfCompleteable</text>
</a>
</g>
</g>
<!-- Node2&#45;&gt;Node3 -->
<g id="edge2" class="edge">
<title>Node2&#45;&gt;Node3</title>
<path fill="none" stroke="midnightblue" d="M449.15,-57.53C471.79,-60.56 496.95,-63.92 520,-67 539.79,-69.64 561.12,-72.49 581.1,-75.15"/>
<polygon fill="midnightblue" stroke="midnightblue" points="580.73,-78.63 591.1,-76.49 581.65,-71.7 580.73,-78.63"/>
</g>
<!-- Node4 -->
<g id="node4" class="node">
<title>Node4</title>
<g id="a_node4"><a xlink:href="classMainPage_1_1TaskDisplayHandler.html#a754a230e53cedd3209a29d4d6a743719" target="_top" xlink:title="When the complete state is changed update the display to match it">
<polygon fill="white" stroke="black" points="526,-38.5 526,-57.5 801,-57.5 801,-38.5 526,-38.5"/>
<text text-anchor="middle" x="663.5" y="-45.5" font-family="Helvetica,sans-Serif" font-size="10.00">MainPage.TaskDisplayHandler.CompleteStateChange</text>
</a>
</g>
</g>
<!-- Node2&#45;&gt;Node4 -->
<g id="edge3" class="edge">
<title>Node2&#45;&gt;Node4</title>
<path fill="none" stroke="midnightblue" d="M484.34,-48C494.63,-48 505.18,-48 515.77,-48"/>
<polygon fill="midnightblue" stroke="midnightblue" points="515.92,-51.5 525.92,-48 515.92,-44.5 515.92,-51.5"/>
</g>
<!-- Node12 -->
<g id="node12" class="node">
<title>Node12</title>
<g id="a_node12"><a xlink:href="classMainPage_1_1TaskDisplayHandler.html#ac3773b76adb09298978a65c89136c20f" target="_top" xlink:title="Update the task&#39;s labels">
<polygon fill="white" stroke="black" points="547,-0.5 547,-19.5 780,-19.5 780,-0.5 547,-0.5"/>
<text text-anchor="middle" x="663.5" y="-7.5" font-family="Helvetica,sans-Serif" font-size="10.00">MainPage.TaskDisplayHandler.UpdateLabels</text>
</a>
</g>
</g>
<!-- Node2&#45;&gt;Node12 -->
<g id="edge15" class="edge">
<title>Node2&#45;&gt;Node12</title>
<path fill="none" stroke="midnightblue" d="M449.15,-38.47C471.79,-35.44 496.95,-32.08 520,-29 539.79,-26.36 561.12,-23.51 581.1,-20.85"/>
<polygon fill="midnightblue" stroke="midnightblue" points="581.65,-24.3 591.1,-19.51 580.73,-17.37 581.65,-24.3"/>
</g>
<!-- Node5 -->
<g id="node5" class="node">
<title>Node5</title>
<g id="a_node5"><a xlink:href="classMainPage_1_1MainWindowController.html#a85072f5d92f4145d6213209a13936639" target="_top" xlink:title="Refreshes the tasks with the proper sorting order">
<polygon fill="white" stroke="black" points="853.5,-57.5 853.5,-76.5 1110.5,-76.5 1110.5,-57.5 853.5,-57.5"/>
<text text-anchor="middle" x="982" y="-64.5" font-family="Helvetica,sans-Serif" font-size="10.00">MainPage.MainWindowController.SortingChanged</text>
</a>
</g>
</g>
<!-- Node4&#45;&gt;Node5 -->
<g id="edge4" class="edge">
<title>Node4&#45;&gt;Node5</title>
<path fill="none" stroke="midnightblue" d="M801.02,-56.2C815.02,-57.04 829.26,-57.89 843.27,-58.73"/>
<polygon fill="midnightblue" stroke="midnightblue" points="843.24,-62.24 853.43,-59.34 843.66,-55.25 843.24,-62.24"/>
</g>
<!-- Node11 -->
<g id="node11" class="node">
<title>Node11</title>
<g id="a_node11"><a xlink:href="classMainPage_1_1TaskDisplayHandler.html#aa63f1bc894519b9d5872c2bb50b84415" target="_top" xlink:title="Update the time remaining until the task can be completed again">
<polygon fill="white" stroke="black" points="843,-19.5 843,-38.5 1121,-38.5 1121,-19.5 843,-19.5"/>
<text text-anchor="middle" x="982" y="-26.5" font-family="Helvetica,sans-Serif" font-size="10.00">MainPage.TaskDisplayHandler.UpdateTimeRemaining</text>
</a>
</g>
</g>
<!-- Node4&#45;&gt;Node11 -->
<g id="edge13" class="edge">
<title>Node4&#45;&gt;Node11</title>
<path fill="none" stroke="midnightblue" d="M730.08,-38.47C759.95,-35.83 796.63,-33.24 832.62,-31.17"/>
<polygon fill="midnightblue" stroke="midnightblue" points="832.96,-34.66 842.75,-30.6 832.57,-27.67 832.96,-34.66"/>
</g>
<!-- Node6 -->
<g id="node6" class="node">
<title>Node6</title>
<g id="a_node6"><a xlink:href="classMainPage_1_1MainWindowController.html#a241b480aeebdab1bc34320cad8de7712" target="_top" xlink:title="Load the good habits">
<polygon fill="white" stroke="black" points="1158,-76.5 1158,-95.5 1412,-95.5 1412,-76.5 1158,-76.5"/>
<text text-anchor="middle" x="1285" y="-83.5" font-family="Helvetica,sans-Serif" font-size="10.00">MainPage.MainWindowController.LoadBadHabits</text>
</a>
</g>
</g>
<!-- Node5&#45;&gt;Node6 -->
<g id="edge5" class="edge">
<title>Node5&#45;&gt;Node6</title>
<path fill="none" stroke="midnightblue" d="M1110.65,-75.06C1122.79,-75.82 1135.14,-76.6 1147.36,-77.37"/>
<polygon fill="midnightblue" stroke="midnightblue" points="1147.39,-80.88 1157.59,-78.02 1147.83,-73.9 1147.39,-80.88"/>
</g>
<!-- Node9 -->
<g id="node9" class="node">
<title>Node9</title>
<g id="a_node9"><a xlink:href="classMainPage_1_1MainWindowController.html#ab5b80370512cd4273e86927fe696462d" target="_top" xlink:title="Load the good tasks">
<polygon fill="white" stroke="black" points="1157,-38.5 1157,-57.5 1413,-57.5 1413,-38.5 1157,-38.5"/>
<text text-anchor="middle" x="1285" y="-45.5" font-family="Helvetica,sans-Serif" font-size="10.00">MainPage.MainWindowController.LoadGoodTasks</text>
</a>
</g>
</g>
<!-- Node5&#45;&gt;Node9 -->
<g id="edge9" class="edge">
<title>Node5&#45;&gt;Node9</title>
<path fill="none" stroke="midnightblue" d="M1110.65,-58.94C1122.54,-58.19 1134.63,-57.43 1146.61,-56.67"/>
<polygon fill="midnightblue" stroke="midnightblue" points="1146.87,-60.16 1156.63,-56.04 1146.43,-53.18 1146.87,-60.16"/>
</g>
<!-- Node7 -->
<g id="node7" class="node">
<title>Node7</title>
<g id="a_node7"><a xlink:href="classMainPage_1_1TaskOpenPanelController.html#a5513399c20f650915ca10f54805f416e" target="_top" xlink:title="Make this task a bad habit">
<polygon fill="white" stroke="black" points="1450,-76.5 1450,-95.5 1719,-95.5 1719,-76.5 1450,-76.5"/>
<text text-anchor="middle" x="1584.5" y="-83.5" font-family="Helvetica,sans-Serif" font-size="10.00">MainPage.TaskOpenPanelController.MakeItBadHabit</text>
</a>
</g>
</g>
<!-- Node6&#45;&gt;Node7 -->
<g id="edge6" class="edge">
<title>Node6&#45;&gt;Node7</title>
<path fill="none" stroke="midnightblue" d="M1412.17,-79.32C1421.35,-79.26 1430.66,-79.24 1439.94,-79.25"/>
<polygon fill="midnightblue" stroke="midnightblue" points="1439.98,-82.75 1449.99,-79.28 1440,-75.75 1439.98,-82.75"/>
</g>
<!-- Node7&#45;&gt;Node6 -->
<g id="edge7" class="edge">
<title>Node7&#45;&gt;Node6</title>
<path fill="none" stroke="midnightblue" d="M1449.99,-92.72C1440.75,-92.76 1431.43,-92.76 1422.18,-92.73"/>
<polygon fill="midnightblue" stroke="midnightblue" points="1422.18,-89.23 1412.17,-92.68 1422.15,-96.23 1422.18,-89.23"/>
</g>
<!-- Node8 -->
<g id="node8" class="node">
<title>Node8</title>
<g id="a_node8"><a xlink:href="classMainPage_1_1TaskOpenPanelController.html#aa0b6757dbad141375c50282278b23b1a" target="_top" xlink:title="Update the buttons with the appropriate color based on the current task">
<polygon fill="white" stroke="black" points="1756,-57.5 1756,-76.5 2019,-76.5 2019,-57.5 1756,-57.5"/>
<text text-anchor="middle" x="1887.5" y="-64.5" font-family="Helvetica,sans-Serif" font-size="10.00">MainPage.TaskOpenPanelController.UpdateButtons</text>
</a>
</g>
</g>
<!-- Node7&#45;&gt;Node8 -->
<g id="edge8" class="edge">
<title>Node7&#45;&gt;Node8</title>
<path fill="none" stroke="midnightblue" d="M1719.28,-77.56C1727.97,-77.01 1736.73,-76.45 1745.45,-75.9"/>
<polygon fill="midnightblue" stroke="midnightblue" points="1745.91,-79.38 1755.67,-75.26 1745.46,-72.4 1745.91,-79.38"/>
</g>
<!-- Node10 -->
<g id="node10" class="node">
<title>Node10</title>
<g id="a_node10"><a xlink:href="classMainPage_1_1TaskOpenPanelController.html#a069a63e2b7e70cc4cb4c7e487b655700" target="_top" xlink:title="Make it a good task">
<polygon fill="white" stroke="black" points="1449,-38.5 1449,-57.5 1720,-57.5 1720,-38.5 1449,-38.5"/>
<text text-anchor="middle" x="1584.5" y="-45.5" font-family="Helvetica,sans-Serif" font-size="10.00">MainPage.TaskOpenPanelController.MakeItGoodTask</text>
</a>
</g>
</g>
<!-- Node9&#45;&gt;Node10 -->
<g id="edge10" class="edge">
<title>Node9&#45;&gt;Node10</title>
<path fill="none" stroke="midnightblue" d="M1413.03,-41.31C1421.54,-41.26 1430.15,-41.24 1438.75,-41.25"/>
<polygon fill="midnightblue" stroke="midnightblue" points="1438.81,-44.75 1448.82,-41.28 1438.83,-37.75 1438.81,-44.75"/>
</g>
<!-- Node10&#45;&gt;Node8 -->
<g id="edge12" class="edge">
<title>Node10&#45;&gt;Node8</title>
<path fill="none" stroke="midnightblue" d="M1720.15,-56.5C1728.7,-57.04 1737.32,-57.58 1745.9,-58.12"/>
<polygon fill="midnightblue" stroke="midnightblue" points="1745.74,-61.62 1755.94,-58.76 1746.18,-54.64 1745.74,-61.62"/>
</g>
<!-- Node10&#45;&gt;Node9 -->
<g id="edge11" class="edge">
<title>Node10&#45;&gt;Node9</title>
<path fill="none" stroke="midnightblue" d="M1448.82,-54.72C1440.26,-54.76 1431.63,-54.76 1423.06,-54.73"/>
<polygon fill="midnightblue" stroke="midnightblue" points="1423.05,-51.23 1413.03,-54.69 1423.01,-58.23 1423.05,-51.23"/>
</g>
<!-- Node11&#45;&gt;Node4 -->
<g id="edge14" class="edge">
<title>Node11&#45;&gt;Node4</title>
<path fill="none" stroke="midnightblue" d="M915.75,-38.5C885.38,-41.19 847.94,-43.82 811.32,-45.92"/>
<polygon fill="midnightblue" stroke="midnightblue" points="810.81,-42.44 801.02,-46.5 811.2,-49.43 810.81,-42.44"/>
</g>
<!-- Node12&#45;&gt;Node11 -->
<g id="edge16" class="edge">
<title>Node12&#45;&gt;Node11</title>
<path fill="none" stroke="midnightblue" d="M780.11,-16.94C797.16,-17.96 814.92,-19.03 832.52,-20.09"/>
<polygon fill="midnightblue" stroke="midnightblue" points="832.67,-23.6 842.86,-20.71 833.09,-16.61 832.67,-23.6"/>
</g>
</g>
</svg>
