<?xml version="1.0" encoding="UTF-8" standalone="no"?>
<!DOCTYPE svg PUBLIC "-//W3C//DTD SVG 1.1//EN"
 "http://www.w3.org/Graphics/SVG/1.1/DTD/svg11.dtd">
<!-- Generated by graphviz version 2.43.0 (0)
 -->
<!-- Title: MainPage.TaskHistoryWindowHandler.LoadTaskHistories Pages: 1 -->
<svg width="838pt" height="101pt"
 viewBox="0.00 0.00 838.00 101.00" xmlns="http://www.w3.org/2000/svg" xmlns:xlink="http://www.w3.org/1999/xlink">
<g id="graph0" class="graph" transform="scale(1 1) rotate(0) translate(4 97)">
<title>MainPage.TaskHistoryWindowHandler.LoadTaskHistories</title>
<!-- Node1 -->
<g id="Node000001" class="node">
<title>Node1</title>
<g id="a_Node000001"><a xlink:title="Loads the task histories from the server.">
<polygon fill="#999999" stroke="#666666" points="292,-56 0,-56 0,-37 292,-37 292,-56"/>
<text text-anchor="middle" x="146" y="-44" font-family="Helvetica,sans-Serif" font-size="10.00">MainPage.TaskHistoryWindowHandler.LoadTaskHistories</text>
</a>
</g>
</g>
<!-- Node2 -->
<g id="Node000002" class="node">
<title>Node2</title>
<g id="a_Node000002"><a xlink:href="classMainPage_1_1TaskHistoryWindowHandler.html#a270045b1192940fa409807d0624e0ba7" target="_top" xlink:title="When the server response is recieved load the histories.">
<polygon fill="white" stroke="#666666" points="612,-93 330,-93 330,-74 612,-74 612,-93"/>
<text text-anchor="middle" x="471" y="-81" font-family="Helvetica,sans-Serif" font-size="10.00">MainPage.TaskHistoryWindowHandler.LoadedHistories</text>
</a>
</g>
</g>
<!-- Node1&#45;&gt;Node2 -->
<g id="edge1_Node000001_Node000002" class="edge">
<title>Node1&#45;&gt;Node2</title>
<g id="a_edge1_Node000001_Node000002"><a xlink:title=" ">
<path fill="none" stroke="#63b8ff" d="M230.18,-56.03C275.02,-61.17 330.49,-67.52 376.79,-72.82"/>
<polygon fill="#63b8ff" stroke="#63b8ff" points="376.49,-76.31 386.82,-73.97 377.28,-69.36 376.49,-76.31"/>
</a>
</g>
</g>
<!-- Node4 -->
<g id="Node000004" class="node">
<title>Node4</title>
<g id="a_Node000004"><a xlink:href="classUtility_1_1CoroutineRunner.html#a1c473dee723f16d86bab9d8475c8214a" target="_top" xlink:title="A helper method to start coroutines.">
<polygon fill="white" stroke="#666666" points="570,-56 372,-56 372,-37 570,-37 570,-56"/>
<text text-anchor="middle" x="471" y="-44" font-family="Helvetica,sans-Serif" font-size="10.00">Utility.CoroutineRunner.RunCoroutine</text>
</a>
</g>
</g>
<!-- Node1&#45;&gt;Node4 -->
<g id="edge3_Node000001_Node000004" class="edge">
<title>Node1&#45;&gt;Node4</title>
<g id="a_edge3_Node000001_Node000004"><a xlink:title=" ">
<path fill="none" stroke="#63b8ff" d="M292.44,-46.5C315.67,-46.5 339.35,-46.5 361.53,-46.5"/>
<polygon fill="#63b8ff" stroke="#63b8ff" points="361.61,-50 371.61,-46.5 361.61,-43 361.61,-50"/>
</a>
</g>
</g>
<!-- Node5 -->
<g id="Node000005" class="node">
<title>Node5</title>
<g id="a_Node000005"><a xlink:href="classMainPage_1_1TaskHistoryWindowHandler.html#a74232871cc96faede9c1b89314bc7ce6" target="_top" xlink:title="Show the server response errors.">
<polygon fill="white" stroke="#666666" points="614,-19 328,-19 328,0 614,0 614,-19"/>
<text text-anchor="middle" x="471" y="-7" font-family="Helvetica,sans-Serif" font-size="10.00">MainPage.TaskHistoryWindowHandler.ShowRequestFail</text>
</a>
</g>
</g>
<!-- Node1&#45;&gt;Node5 -->
<g id="edge4_Node000001_Node000005" class="edge">
<title>Node1&#45;&gt;Node5</title>
<g id="a_edge4_Node000001_Node000005"><a xlink:title=" ">
<path fill="none" stroke="#63b8ff" d="M230.18,-36.97C275.02,-31.83 330.49,-25.48 376.79,-20.18"/>
<polygon fill="#63b8ff" stroke="#63b8ff" points="377.28,-23.64 386.82,-19.03 376.49,-16.69 377.28,-23.64"/>
</a>
</g>
</g>
<!-- Node3 -->
<g id="Node000003" class="node">
<title>Node3</title>
<g id="a_Node000003"><a xlink:href="classMainPage_1_1TaskHistoryHandler.html#aa0125cc571c13b416fb8c3b1ffe469af" target="_top" xlink:title="Init the task history&#39;s with the data from the server.">
<polygon fill="white" stroke="#666666" points="830,-93 650,-93 650,-74 830,-74 830,-93"/>
<text text-anchor="middle" x="740" y="-81" font-family="Helvetica,sans-Serif" font-size="10.00">MainPage.TaskHistoryHandler.Init</text>
</a>
</g>
</g>
<!-- Node2&#45;&gt;Node3 -->
<g id="edge2_Node000002_Node000003" class="edge">
<title>Node2&#45;&gt;Node3</title>
<g id="a_edge2_Node000002_Node000003"><a xlink:title=" ">
<path fill="none" stroke="#63b8ff" d="M612.15,-83.5C621.48,-83.5 630.76,-83.5 639.83,-83.5"/>
<polygon fill="#63b8ff" stroke="#63b8ff" points="639.95,-87 649.95,-83.5 639.95,-80 639.95,-87"/>
</a>
</g>
</g>
<!-- Node6 -->
<g id="Node000006" class="node">
<title>Node6</title>
<g id="a_Node000006"><a xlink:href="classUtility_1_1ModalWindow.html#adcef8cae2dffe4247c905d042ff0a8e3" target="_top" xlink:title="Show the modal window.">
<polygon fill="white" stroke="#666666" points="813,-19 667,-19 667,0 813,0 813,-19"/>
<text text-anchor="middle" x="740" y="-7" font-family="Helvetica,sans-Serif" font-size="10.00">Utility.ModalWindow.Show</text>
</a>
</g>
</g>
<!-- Node5&#45;&gt;Node6 -->
<g id="edge5_Node000005_Node000006" class="edge">
<title>Node5&#45;&gt;Node6</title>
<g id="a_edge5_Node000005_Node000006"><a xlink:title=" ">
<path fill="none" stroke="#63b8ff" d="M614.1,-9.5C628.69,-9.5 643.14,-9.5 656.75,-9.5"/>
<polygon fill="#63b8ff" stroke="#63b8ff" points="656.99,-13 666.99,-9.5 656.99,-6 656.99,-13"/>
</a>
</g>
</g>
</g>
</svg>
