<?xml version="1.0" encoding="UTF-8" standalone="no"?>
<!DOCTYPE svg PUBLIC "-//W3C//DTD SVG 1.1//EN"
 "http://www.w3.org/Graphics/SVG/1.1/DTD/svg11.dtd">
<!-- Generated by graphviz version 2.43.0 (0)
 -->
<!-- Title: Game.UI.ShopItem Pages: 1 -->
<svg width="319pt" height="364pt"
 viewBox="0.00 0.00 319.00 364.00" xmlns="http://www.w3.org/2000/svg" xmlns:xlink="http://www.w3.org/1999/xlink">
<g id="graph0" class="graph" transform="scale(1 1) rotate(0) translate(4 360)">
<title>Game.UI.ShopItem</title>
<polygon fill="white" stroke="transparent" points="-4,4 -4,-360 315,-360 315,4 -4,4"/>
<!-- Node1 -->
<g id="node1" class="node">
<title>Node1</title>
<g id="a_node1"><a xlink:title="A single shop item">
<polygon fill="#bfbfbf" stroke="black" points="0,-0.5 0,-167.5 311,-167.5 311,-0.5 0,-0.5"/>
<text text-anchor="middle" x="155.5" y="-155.5" font-family="Helvetica,sans-Serif" font-size="10.00">Game.UI.ShopItem</text>
<polyline fill="none" stroke="black" points="0,-148.5 311,-148.5 "/>
<text text-anchor="start" x="8" y="-136.5" font-family="Helvetica,sans-Serif" font-size="10.00">+ long Id</text>
<text text-anchor="start" x="8" y="-125.5" font-family="Helvetica,sans-Serif" font-size="10.00">+ bool Owned</text>
<text text-anchor="start" x="8" y="-114.5" font-family="Helvetica,sans-Serif" font-size="10.00">&#45; TMP_Text ProductName</text>
<text text-anchor="start" x="8" y="-103.5" font-family="Helvetica,sans-Serif" font-size="10.00">&#45; Image ProductImage</text>
<text text-anchor="start" x="8" y="-92.5" font-family="Helvetica,sans-Serif" font-size="10.00">&#45; TMP_Text Price</text>
<text text-anchor="start" x="8" y="-81.5" font-family="Helvetica,sans-Serif" font-size="10.00">&#45; Button BuyButton</text>
<text text-anchor="start" x="8" y="-70.5" font-family="Helvetica,sans-Serif" font-size="10.00">&#45; ShopWindow shopWindow</text>
<polyline fill="none" stroke="black" points="0,-63.5 311,-63.5 "/>
<text text-anchor="start" x="8" y="-51.5" font-family="Helvetica,sans-Serif" font-size="10.00">+ void Init(ShopWindow parentWindow, Shop item, Sprite</text>
<text text-anchor="start" x="8" y="-40.5" font-family="Helvetica,sans-Serif" font-size="10.00"> image, bool owned)</text>
<text text-anchor="start" x="8" y="-29.5" font-family="Helvetica,sans-Serif" font-size="10.00">+ void Buy()</text>
<text text-anchor="start" x="8" y="-18.5" font-family="Helvetica,sans-Serif" font-size="10.00">+ string GetDisplayedPrice()</text>
<text text-anchor="start" x="8" y="-7.5" font-family="Helvetica,sans-Serif" font-size="10.00">&#45; void Bought(Thesis_backend.Data_Structures.Game game)</text>
</a>
</g>
</g>
<!-- Node2 -->
<g id="node2" class="node">
<title>Node2</title>
<g id="a_node2"><a xlink:href="classUtility_1_1ThreadSafeMonoBehaviour.html" target="_top" xlink:title="Safely stores if the gameobject been destroyed in a bool">
<polygon fill="white" stroke="black" points="81,-204.5 81,-261.5 230,-261.5 230,-204.5 81,-204.5"/>
<text text-anchor="middle" x="155.5" y="-249.5" font-family="Helvetica,sans-Serif" font-size="10.00">ThreadSafeMonoBehaviour</text>
<polyline fill="none" stroke="black" points="81,-242.5 230,-242.5 "/>
<text text-anchor="start" x="89" y="-230.5" font-family="Helvetica,sans-Serif" font-size="10.00">+ bool Destroyed</text>
<polyline fill="none" stroke="black" points="81,-223.5 230,-223.5 "/>
<text text-anchor="start" x="89" y="-211.5" font-family="Helvetica,sans-Serif" font-size="10.00"># void OnDestroy()</text>
</a>
</g>
</g>
<!-- Node2&#45;&gt;Node1 -->
<g id="edge1" class="edge">
<title>Node2&#45;&gt;Node1</title>
<path fill="none" stroke="midnightblue" d="M155.5,-194.35C155.5,-186.08 155.5,-177.01 155.5,-167.74"/>
<polygon fill="none" stroke="midnightblue" points="152,-194.35 155.5,-204.35 159,-194.35 152,-194.35"/>
</g>
<!-- Node3 -->
<g id="node3" class="node">
<title>Node3</title>
<g id="a_node3"><a xlink:title=" ">
<polygon fill="white" stroke="#bfbfbf" points="109,-298.5 109,-355.5 202,-355.5 202,-298.5 109,-298.5"/>
<text text-anchor="middle" x="155.5" y="-343.5" font-family="Helvetica,sans-Serif" font-size="10.00">MonoBehaviour</text>
<polyline fill="none" stroke="#bfbfbf" points="109,-336.5 202,-336.5 "/>
<text text-anchor="middle" x="155.5" y="-324.5" font-family="Helvetica,sans-Serif" font-size="10.00"> </text>
<polyline fill="none" stroke="#bfbfbf" points="109,-317.5 202,-317.5 "/>
<text text-anchor="middle" x="155.5" y="-305.5" font-family="Helvetica,sans-Serif" font-size="10.00"> </text>
</a>
</g>
</g>
<!-- Node3&#45;&gt;Node2 -->
<g id="edge2" class="edge">
<title>Node3&#45;&gt;Node2</title>
<path fill="none" stroke="midnightblue" d="M155.5,-288.21C155.5,-279.29 155.5,-269.95 155.5,-261.58"/>
<polygon fill="none" stroke="midnightblue" points="152,-288.4 155.5,-298.4 159,-288.4 152,-288.4"/>
</g>
</g>
</svg>
