<?xml version="1.0" encoding="UTF-8" standalone="no"?>
<!DOCTYPE svg PUBLIC "-//W3C//DTD SVG 1.1//EN"
 "http://www.w3.org/Graphics/SVG/1.1/DTD/svg11.dtd">
<!-- Generated by graphviz version 2.43.0 (0)
 -->
<!-- Title: User.LoggedInChecker.CheckLoggedInPeriodically Pages: 1 -->
<svg width="659pt" height="104pt"
 viewBox="0.00 0.00 659.00 104.00" xmlns="http://www.w3.org/2000/svg" xmlns:xlink="http://www.w3.org/1999/xlink">
<g id="graph0" class="graph" transform="scale(1 1) rotate(0) translate(4 100)">
<title>User.LoggedInChecker.CheckLoggedInPeriodically</title>
<polygon fill="white" stroke="transparent" points="-4,4 -4,-100 655,-100 655,4 -4,4"/>
<!-- Node1 -->
<g id="node1" class="node">
<title>Node1</title>
<g id="a_node1"><a xlink:title="Coroutine which calls the api endpoint to check if the user is still logged in">
<polygon fill="#bfbfbf" stroke="black" points="0,-38.5 0,-57.5 258,-57.5 258,-38.5 0,-38.5"/>
<text text-anchor="middle" x="129" y="-45.5" font-family="Helvetica,sans-Serif" font-size="10.00">User.LoggedInChecker.CheckLoggedInPeriodically</text>
</a>
</g>
</g>
<!-- Node2 -->
<g id="node2" class="node">
<title>Node2</title>
<g id="a_node2"><a xlink:href="classUser_1_1LoggedInChecker.html#a142873ff5324726072d218102f0bee8b" target="_top" xlink:title="Update the user data from the server data">
<polygon fill="white" stroke="black" points="307.5,-76.5 307.5,-95.5 478.5,-95.5 478.5,-76.5 307.5,-76.5"/>
<text text-anchor="middle" x="393" y="-83.5" font-family="Helvetica,sans-Serif" font-size="10.00">User.LoggedInChecker.LoggedIn</text>
</a>
</g>
</g>
<!-- Node1&#45;&gt;Node2 -->
<g id="edge1" class="edge">
<title>Node1&#45;&gt;Node2</title>
<path fill="none" stroke="midnightblue" d="M195.78,-57.54C232.37,-62.85 278.08,-69.48 316.18,-75"/>
<polygon fill="midnightblue" stroke="midnightblue" points="315.8,-78.48 326.2,-76.46 316.8,-71.56 315.8,-78.48"/>
</g>
<!-- Node4 -->
<g id="node4" class="node">
<title>Node4</title>
<g id="a_node4"><a xlink:href="classUser_1_1LoggedInChecker.html#aa0be140ec2e3efb96d0a9c306e6d811a" target="_top" xlink:title="Handles if the user is not logged in">
<polygon fill="white" stroke="black" points="303.5,-38.5 303.5,-57.5 482.5,-57.5 482.5,-38.5 303.5,-38.5"/>
<text text-anchor="middle" x="393" y="-45.5" font-family="Helvetica,sans-Serif" font-size="10.00">User.LoggedInChecker.LoggedOut</text>
</a>
</g>
</g>
<!-- Node1&#45;&gt;Node4 -->
<g id="edge3" class="edge">
<title>Node1&#45;&gt;Node4</title>
<path fill="none" stroke="midnightblue" d="M258.31,-48C269.93,-48 281.57,-48 292.88,-48"/>
<polygon fill="midnightblue" stroke="midnightblue" points="293.15,-51.5 303.15,-48 293.15,-44.5 293.15,-51.5"/>
</g>
<!-- Node6 -->
<g id="node6" class="node">
<title>Node6</title>
<g id="a_node6"><a xlink:href="classUtility_1_1CoroutineRunner.html#a1c473dee723f16d86bab9d8475c8214a" target="_top" xlink:title="A helper method to start coroutines">
<polygon fill="white" stroke="black" points="294,-0.5 294,-19.5 492,-19.5 492,-0.5 294,-0.5"/>
<text text-anchor="middle" x="393" y="-7.5" font-family="Helvetica,sans-Serif" font-size="10.00">Utility.CoroutineRunner.RunCoroutine</text>
</a>
</g>
</g>
<!-- Node1&#45;&gt;Node6 -->
<g id="edge5" class="edge">
<title>Node1&#45;&gt;Node6</title>
<path fill="none" stroke="midnightblue" d="M195.78,-38.46C232.37,-33.15 278.08,-26.52 316.18,-21"/>
<polygon fill="midnightblue" stroke="midnightblue" points="316.8,-24.44 326.2,-19.54 315.8,-17.52 316.8,-24.44"/>
</g>
<!-- Node3 -->
<g id="node3" class="node">
<title>Node3</title>
<g id="a_node3"><a xlink:href="classUser_1_1UserData.html#abb372911b5e49023a977bd064f46bb6e" target="_top" xlink:title="Initialises the user instance with proper data">
<polygon fill="white" stroke="black" points="536.5,-76.5 536.5,-95.5 642.5,-95.5 642.5,-76.5 536.5,-76.5"/>
<text text-anchor="middle" x="589.5" y="-83.5" font-family="Helvetica,sans-Serif" font-size="10.00">User.UserData.Init</text>
</a>
</g>
</g>
<!-- Node2&#45;&gt;Node3 -->
<g id="edge2" class="edge">
<title>Node2&#45;&gt;Node3</title>
<path fill="none" stroke="midnightblue" d="M478.74,-86C494.63,-86 510.97,-86 526.03,-86"/>
<polygon fill="midnightblue" stroke="midnightblue" points="526.23,-89.5 536.23,-86 526.23,-82.5 526.23,-89.5"/>
</g>
<!-- Node5 -->
<g id="node5" class="node">
<title>Node5</title>
<g id="a_node5"><a xlink:href="classUser_1_1UserData.html#a8c8911482003919ea4fbab040c755f8f" target="_top" xlink:title="Signal&#39;s that the user is logged out">
<polygon fill="white" stroke="black" points="528,-38.5 528,-57.5 651,-57.5 651,-38.5 528,-38.5"/>
<text text-anchor="middle" x="589.5" y="-45.5" font-family="Helvetica,sans-Serif" font-size="10.00">User.UserData.Logout</text>
</a>
</g>
</g>
<!-- Node4&#45;&gt;Node5 -->
<g id="edge4" class="edge">
<title>Node4&#45;&gt;Node5</title>
<path fill="none" stroke="midnightblue" d="M482.71,-48C494.37,-48 506.2,-48 517.51,-48"/>
<polygon fill="midnightblue" stroke="midnightblue" points="517.73,-51.5 527.73,-48 517.73,-44.5 517.73,-51.5"/>
</g>
</g>
</svg>
