<?xml version="1.0" encoding="UTF-8" standalone="no"?>
<!DOCTYPE svg PUBLIC "-//W3C//DTD SVG 1.1//EN"
 "http://www.w3.org/Graphics/SVG/1.1/DTD/svg11.dtd">
<!-- Generated by graphviz version 2.43.0 (0)
 -->
<!-- Title: Game.World.CarSpawner Pages: 1 -->
<!--zoomable 1228 -->
<svg id="main" version="1.1" xmlns="http://www.w3.org/2000/svg" xmlns:xlink="http://www.w3.org/1999/xlink" xml:space="preserve" onload="init(evt)">
<style type="text/css"><![CDATA[
.edge:hover path { stroke: red; }
.edge:hover polygon { stroke: red; fill: red; }
]]></style>
<script type="text/javascript"><![CDATA[
var edges = document.getElementsByTagName('g');
if (edges && edges.length) {
  for (var i=0;i<edges.length;i++) {
    if (edges[i].id.substr(0,4)=='edge') {
      edges[i].setAttribute('class','edge');
    }
  }
}
]]></script>
        <defs>
                <circle id="rim" cx="0" cy="0" r="7"/>
                <circle id="rim2" cx="0" cy="0" r="3.5"/>
                <g id="zoomPlus">
                        <use xlink:href="#rim" fill="#404040">
                                <set attributeName="fill" to="#808080" begin="zoomplus.mouseover" end="zoomplus.mouseout"/>
                        </use>
                        <path d="M-4,0h8M0,-4v8" fill="none" stroke="white" stroke-width="1.5" pointer-events="none"/>
                </g>
                <g id="zoomMin">
                        <use xlink:href="#rim" fill="#404040">
                                <set attributeName="fill" to="#808080" begin="zoomminus.mouseover" end="zoomminus.mouseout"/>
                        </use>
                        <path d="M-4,0h8" fill="none" stroke="white" stroke-width="1.5" pointer-events="none"/>
                </g>
                <g id="dirArrow">
                        <path fill="none" stroke="white" stroke-width="1.5" d="M0,-3.0v7 M-2.5,-0.5L0,-3.0L2.5,-0.5"/>
                </g>
               <g id="resetDef">
                       <use xlink:href="#rim2" fill="#404040">
                               <set attributeName="fill" to="#808080" begin="reset.mouseover" end="reset.mouseout"/>
                       </use>
               </g>
        </defs>

<script type="text/javascript">
var viewWidth = 1127;
var viewHeight = 1228;
var sectionId = 'dynsection-1';
</script>
<script xlink:href="svgpan.js"/>
<svg id="graph" class="graph">
<g id="viewport">
<title>Game.World.CarSpawner</title>
<polygon fill="white" stroke="transparent" points="-4,4 -4,-1224 1123.12,-1224 1123.12,4 -4,4"/>
<!-- Node1 -->
<g id="node1" class="node">
<title>Node1</title>
<g id="a_node1"><a xlink:title="Car spawner">
<polygon fill="#bfbfbf" stroke="black" points="69.62,-862.5 69.62,-1029.5 308.62,-1029.5 308.62,-862.5 69.62,-862.5"/>
<text text-anchor="middle" x="189.12" y="-1017.5" font-family="Helvetica,sans-Serif" font-size="10.00">Game.World.CarSpawner</text>
<polyline fill="none" stroke="black" points="69.62,-1010.5 308.62,-1010.5 "/>
<text text-anchor="start" x="77.62" y="-998.5" font-family="Helvetica,sans-Serif" font-size="10.00">&#45; List&lt; GameObject &gt; CopCars</text>
<text text-anchor="start" x="77.62" y="-987.5" font-family="Helvetica,sans-Serif" font-size="10.00">&#45; List&lt; GameObject &gt; CitizenCars</text>
<text text-anchor="start" x="77.62" y="-976.5" font-family="Helvetica,sans-Serif" font-size="10.00">&#45; Dictionary&lt; int, float &gt; spawnIntervalsTier1</text>
<text text-anchor="start" x="77.62" y="-965.5" font-family="Helvetica,sans-Serif" font-size="10.00">&#45; Dictionary&lt; int, float &gt; spawnIntervalsTier2</text>
<text text-anchor="start" x="77.62" y="-954.5" font-family="Helvetica,sans-Serif" font-size="10.00">&#45; Dictionary&lt; int, float &gt; spawnIntervalsTier3</text>
<text text-anchor="start" x="77.62" y="-943.5" font-family="Helvetica,sans-Serif" font-size="10.00">&#45; float tier1SpawnerTimer</text>
<text text-anchor="start" x="77.62" y="-932.5" font-family="Helvetica,sans-Serif" font-size="10.00">&#45; float tier2SpawnerTimer</text>
<text text-anchor="start" x="77.62" y="-921.5" font-family="Helvetica,sans-Serif" font-size="10.00">&#45; float tier3SpawnerTimer</text>
<polyline fill="none" stroke="black" points="69.62,-914.5 308.62,-914.5 "/>
<text text-anchor="start" x="77.62" y="-902.5" font-family="Helvetica,sans-Serif" font-size="10.00">+ void Update()</text>
<text text-anchor="start" x="77.62" y="-891.5" font-family="Helvetica,sans-Serif" font-size="10.00">+ void SpawnPolice(GameObject carPrefab)</text>
<text text-anchor="start" x="77.62" y="-880.5" font-family="Helvetica,sans-Serif" font-size="10.00">+ void Reset()</text>
<text text-anchor="start" x="77.62" y="-869.5" font-family="Helvetica,sans-Serif" font-size="10.00">+ void SpawnNpc()</text>
</a>
</g>
</g>
<!-- Node4 -->
<g id="node4" class="node">
<title>Node4</title>
<g id="a_node4"><a xlink:href="classGame_1_1GameController.html" target="_top" xlink:title="Handles the main flow of the game scene">
<polygon fill="white" stroke="black" points="38.62,-468.5 38.62,-745.5 319.62,-745.5 319.62,-468.5 38.62,-468.5"/>
<text text-anchor="middle" x="179.12" y="-733.5" font-family="Helvetica,sans-Serif" font-size="10.00">Game.GameController</text>
<polyline fill="none" stroke="black" points="38.62,-726.5 319.62,-726.5 "/>
<text text-anchor="start" x="46.62" y="-714.5" font-family="Helvetica,sans-Serif" font-size="10.00">+ World.GameWorld World</text>
<text text-anchor="start" x="46.62" y="-703.5" font-family="Helvetica,sans-Serif" font-size="10.00">+ int Score</text>
<text text-anchor="start" x="46.62" y="-692.5" font-family="Helvetica,sans-Serif" font-size="10.00">+ PlayerCar? Player</text>
<text text-anchor="start" x="46.62" y="-681.5" font-family="Helvetica,sans-Serif" font-size="10.00">+ Vector3 PlayerPos</text>
<text text-anchor="start" x="46.62" y="-670.5" font-family="Helvetica,sans-Serif" font-size="10.00">+ bool Running</text>
<text text-anchor="start" x="46.62" y="-659.5" font-family="Helvetica,sans-Serif" font-size="10.00">+ int Difficulty</text>
<text text-anchor="start" x="46.62" y="-648.5" font-family="Helvetica,sans-Serif" font-size="10.00">+ float Coins</text>
<text text-anchor="start" x="46.62" y="-637.5" font-family="Helvetica,sans-Serif" font-size="10.00">&#45; int chunkLoadDistance</text>
<text text-anchor="start" x="46.62" y="-626.5" font-family="Helvetica,sans-Serif" font-size="10.00">&#45; Dictionary&lt; long, GameObject &gt; playerVariants</text>
<text text-anchor="start" x="46.62" y="-615.5" font-family="Helvetica,sans-Serif" font-size="10.00">&#45; float elapsedTime</text>
<polyline fill="none" stroke="black" points="38.62,-608.5 319.62,-608.5 "/>
<text text-anchor="start" x="46.62" y="-596.5" font-family="Helvetica,sans-Serif" font-size="10.00">+ void IncreaseCoinCount(float amount)</text>
<text text-anchor="start" x="46.62" y="-585.5" font-family="Helvetica,sans-Serif" font-size="10.00">+ async Task NewGame()</text>
<text text-anchor="start" x="46.62" y="-574.5" font-family="Helvetica,sans-Serif" font-size="10.00">+ async Task LoadAndDespawnChunks(int centerRow,</text>
<text text-anchor="start" x="46.62" y="-563.5" font-family="Helvetica,sans-Serif" font-size="10.00"> int centerColumn)</text>
<text text-anchor="start" x="46.62" y="-552.5" font-family="Helvetica,sans-Serif" font-size="10.00">&#45; void Awake()</text>
<text text-anchor="start" x="46.62" y="-541.5" font-family="Helvetica,sans-Serif" font-size="10.00">&#45; void Start()</text>
<text text-anchor="start" x="46.62" y="-530.5" font-family="Helvetica,sans-Serif" font-size="10.00">&#45; void Update()</text>
<text text-anchor="start" x="46.62" y="-519.5" font-family="Helvetica,sans-Serif" font-size="10.00">&#45; void PlayerSkinsLoaded(GameObject playerSkin)</text>
<text text-anchor="start" x="46.62" y="-508.5" font-family="Helvetica,sans-Serif" font-size="10.00">&#45; void PlayerDied(object? sender, EventArgs args)</text>
<text text-anchor="start" x="46.62" y="-497.5" font-family="Helvetica,sans-Serif" font-size="10.00">&#45; void DespawnFarAwayChunks(int row, int col)</text>
<text text-anchor="start" x="46.62" y="-486.5" font-family="Helvetica,sans-Serif" font-size="10.00">&#45; async Task SpawnNearbyChunks(int row, int col)</text>
<text text-anchor="start" x="46.62" y="-475.5" font-family="Helvetica,sans-Serif" font-size="10.00">&#45; async Task ValidateAndLoadChunk(int row, int col)</text>
</a>
</g>
</g>
<!-- Node1&#45;&gt;Node4 -->
<g id="edge19" class="edge">
<title>Node1&#45;&gt;Node4</title>
<path fill="none" stroke="#404040" d="M129.06,-862.26C126.34,-856.26 123.97,-850.14 122.12,-844 113.75,-816.25 113.99,-786.37 118.82,-757.52"/>
<polygon fill="none" stroke="#404040" points="118.84,-757.45 116.02,-750.81 121.07,-745.66 123.88,-752.3 118.84,-757.45"/>
<text text-anchor="middle" x="154.12" y="-801.5" font-family="Helvetica,sans-Serif" font-size="10.00"> &#45;carSpawner</text>
</g>
<!-- Node2 -->
<g id="node2" class="node">
<title>Node2</title>
<g id="a_node2"><a xlink:href="classUtility_1_1ThreadSafeMonoBehaviour.html" target="_top" xlink:title="Safely stores if the gameobject been destroyed in a bool">
<polygon fill="white" stroke="black" points="393.62,-1067.5 393.62,-1124.5 542.62,-1124.5 542.62,-1067.5 393.62,-1067.5"/>
<text text-anchor="middle" x="468.12" y="-1112.5" font-family="Helvetica,sans-Serif" font-size="10.00">ThreadSafeMonoBehaviour</text>
<polyline fill="none" stroke="black" points="393.62,-1105.5 542.62,-1105.5 "/>
<text text-anchor="start" x="401.62" y="-1093.5" font-family="Helvetica,sans-Serif" font-size="10.00">+ bool Destroyed</text>
<polyline fill="none" stroke="black" points="393.62,-1086.5 542.62,-1086.5 "/>
<text text-anchor="start" x="401.62" y="-1074.5" font-family="Helvetica,sans-Serif" font-size="10.00"># void OnDestroy()</text>
</a>
</g>
</g>
<!-- Node2&#45;&gt;Node1 -->
<g id="edge1" class="edge">
<title>Node2&#45;&gt;Node1</title>
<path fill="none" stroke="midnightblue" d="M383.89,-1073.65C363.44,-1067.03 342.04,-1058.82 323.12,-1049 312.09,-1043.27 301.03,-1036.64 290.26,-1029.55"/>
<polygon fill="none" stroke="midnightblue" points="382.92,-1077.02 393.51,-1076.68 385.02,-1070.34 382.92,-1077.02"/>
</g>
<!-- Node2&#45;&gt;Node4 -->
<g id="edge4" class="edge">
<title>Node2&#45;&gt;Node4</title>
<path fill="none" stroke="midnightblue" d="M391.56,-1062.02C378.14,-1053.29 365.49,-1042.68 356.12,-1030 310.56,-968.36 340.02,-935.15 317.12,-862 303.12,-817.26 299.44,-805.75 278.12,-764 275.06,-758 271.83,-751.94 268.49,-745.86"/>
<polygon fill="none" stroke="midnightblue" points="390.11,-1065.23 400.46,-1067.48 393.77,-1059.27 390.11,-1065.23"/>
</g>
<!-- Node5 -->
<g id="node5" class="node">
<title>Node5</title>
<g id="a_node5"><a xlink:href="classGame_1_1UI_1_1GameUI.html" target="_top" xlink:title="Controller for the game&#39;s UI">
<polygon fill="white" stroke="black" points="296.12,-0.5 296.12,-420.5 640.12,-420.5 640.12,-0.5 296.12,-0.5"/>
<text text-anchor="middle" x="468.12" y="-408.5" font-family="Helvetica,sans-Serif" font-size="10.00">Game.UI.GameUI</text>
<polyline fill="none" stroke="black" points="296.12,-401.5 640.12,-401.5 "/>
<text text-anchor="start" x="304.12" y="-389.5" font-family="Helvetica,sans-Serif" font-size="10.00">+ bool Doubled</text>
<text text-anchor="start" x="304.12" y="-378.5" font-family="Helvetica,sans-Serif" font-size="10.00">+ int SelectedSkinIndex</text>
<text text-anchor="start" x="304.12" y="-367.5" font-family="Helvetica,sans-Serif" font-size="10.00">&#45; GameObject gameOverContainer</text>
<text text-anchor="start" x="304.12" y="-356.5" font-family="Helvetica,sans-Serif" font-size="10.00">&#45; GameObject ingameContainer</text>
<text text-anchor="start" x="304.12" y="-345.5" font-family="Helvetica,sans-Serif" font-size="10.00">&#45; GameObject mainMenuContainer</text>
<text text-anchor="start" x="304.12" y="-334.5" font-family="Helvetica,sans-Serif" font-size="10.00">&#45; Image SkinDisplay</text>
<text text-anchor="start" x="304.12" y="-323.5" font-family="Helvetica,sans-Serif" font-size="10.00">&#45; TMP_Text InfamyGameOverText</text>
<text text-anchor="start" x="304.12" y="-312.5" font-family="Helvetica,sans-Serif" font-size="10.00">&#45; TMP_Text CoinGameOverText</text>
<text text-anchor="start" x="304.12" y="-301.5" font-family="Helvetica,sans-Serif" font-size="10.00">&#45; TMP_Text InfamyInGameText</text>
<text text-anchor="start" x="304.12" y="-290.5" font-family="Helvetica,sans-Serif" font-size="10.00">&#45; TMP_Text TaskScoreInGameText</text>
<text text-anchor="start" x="304.12" y="-279.5" font-family="Helvetica,sans-Serif" font-size="10.00">&#45; TMP_Text CoinInGameText</text>
<text text-anchor="start" x="304.12" y="-268.5" font-family="Helvetica,sans-Serif" font-size="10.00">&#45; Button DoubleCoinButon</text>
<polyline fill="none" stroke="black" points="296.12,-261.5 640.12,-261.5 "/>
<text text-anchor="start" x="304.12" y="-249.5" font-family="Helvetica,sans-Serif" font-size="10.00">+ void SaveGameResult()</text>
<text text-anchor="start" x="304.12" y="-238.5" font-family="Helvetica,sans-Serif" font-size="10.00">+ void DoubleCoins()</text>
<text text-anchor="start" x="304.12" y="-227.5" font-family="Helvetica,sans-Serif" font-size="10.00">+ void BuyImmunity()</text>
<text text-anchor="start" x="304.12" y="-216.5" font-family="Helvetica,sans-Serif" font-size="10.00">+ void BuyTurbo()</text>
<text text-anchor="start" x="304.12" y="-205.5" font-family="Helvetica,sans-Serif" font-size="10.00">+ void ShowLeaderboard()</text>
<text text-anchor="start" x="304.12" y="-194.5" font-family="Helvetica,sans-Serif" font-size="10.00">+ void LeftRotateSkin()</text>
<text text-anchor="start" x="304.12" y="-183.5" font-family="Helvetica,sans-Serif" font-size="10.00">+ void RightRotateSkin()</text>
<text text-anchor="start" x="304.12" y="-172.5" font-family="Helvetica,sans-Serif" font-size="10.00">+ void Init(GameController gameController)</text>
<text text-anchor="start" x="304.12" y="-161.5" font-family="Helvetica,sans-Serif" font-size="10.00">+ async void NewGame(bool save=true)</text>
<text text-anchor="start" x="304.12" y="-150.5" font-family="Helvetica,sans-Serif" font-size="10.00">+ void ChangeDifficulyDisplay(int difficulty)</text>
<text text-anchor="start" x="304.12" y="-139.5" font-family="Helvetica,sans-Serif" font-size="10.00">+ void ShowEndGameScreen()</text>
<text text-anchor="start" x="304.12" y="-128.5" font-family="Helvetica,sans-Serif" font-size="10.00">+ void HideGameOverScreen(bool saveGameResults=true)</text>
<text text-anchor="start" x="304.12" y="-117.5" font-family="Helvetica,sans-Serif" font-size="10.00">+ void ShowShopWindow()</text>
<text text-anchor="start" x="304.12" y="-106.5" font-family="Helvetica,sans-Serif" font-size="10.00">+ void HideShopWindow()</text>
<text text-anchor="start" x="304.12" y="-95.5" font-family="Helvetica,sans-Serif" font-size="10.00">+ void BackToTasks()</text>
<text text-anchor="start" x="304.12" y="-84.5" font-family="Helvetica,sans-Serif" font-size="10.00">+ void BackToGameMenuWithoutSave()</text>
<text text-anchor="start" x="304.12" y="-73.5" font-family="Helvetica,sans-Serif" font-size="10.00">+ void BackToGameMenu()</text>
<text text-anchor="start" x="304.12" y="-62.5" font-family="Helvetica,sans-Serif" font-size="10.00">&#45; void Update()</text>
<text text-anchor="start" x="304.12" y="-51.5" font-family="Helvetica,sans-Serif" font-size="10.00">&#45; void SavedCoins(Thesis_backend.Data_Structures.Game game)</text>
<text text-anchor="start" x="304.12" y="-40.5" font-family="Helvetica,sans-Serif" font-size="10.00">&#45; void BoughtImmunity(Thesis_backend.Data_Structures.User user)</text>
<text text-anchor="start" x="304.12" y="-29.5" font-family="Helvetica,sans-Serif" font-size="10.00">&#45; void BoughtTurbo(Thesis_backend.Data_Structures.User user)</text>
<text text-anchor="start" x="304.12" y="-18.5" font-family="Helvetica,sans-Serif" font-size="10.00">&#45; void DoubledCoins(Thesis_backend.Data_Structures.User user)</text>
<text text-anchor="start" x="304.12" y="-7.5" font-family="Helvetica,sans-Serif" font-size="10.00">&#45; void ShowRequestFail(string content)</text>
</a>
</g>
</g>
<!-- Node2&#45;&gt;Node5 -->
<g id="edge6" class="edge">
<title>Node2&#45;&gt;Node5</title>
<path fill="none" stroke="midnightblue" d="M383.29,-1093.2C276.92,-1089.04 103.24,-1075.3 60.12,-1030 -27.42,-938.03 36.02,-872.78 29.12,-746 22.41,-622.63 -32.38,-575.16 29.12,-468 86.41,-368.19 199.2,-303.51 296.11,-264.07"/>
<polygon fill="none" stroke="midnightblue" points="383.24,-1096.7 393.36,-1093.58 383.5,-1089.71 383.24,-1096.7"/>
</g>
<!-- Node6 -->
<g id="node6" class="node">
<title>Node6</title>
<g id="a_node6"><a xlink:href="classGame_1_1UI_1_1ShopWindow.html" target="_top" xlink:title="Handles the shop window&#39;s content display">
<polygon fill="white" stroke="black" points="338.12,-523.5 338.12,-690.5 598.12,-690.5 598.12,-523.5 338.12,-523.5"/>
<text text-anchor="middle" x="468.12" y="-678.5" font-family="Helvetica,sans-Serif" font-size="10.00">Game.UI.ShopWindow</text>
<polyline fill="none" stroke="black" points="338.12,-671.5 598.12,-671.5 "/>
<text text-anchor="start" x="346.12" y="-659.5" font-family="Helvetica,sans-Serif" font-size="10.00">+ List&lt; Sprite &gt; ShopItemSprites</text>
<text text-anchor="start" x="346.12" y="-648.5" font-family="Helvetica,sans-Serif" font-size="10.00">&#45; GameObject ShopParent</text>
<text text-anchor="start" x="346.12" y="-637.5" font-family="Helvetica,sans-Serif" font-size="10.00">&#45; GameObject ShopItemPrefab</text>
<text text-anchor="start" x="346.12" y="-626.5" font-family="Helvetica,sans-Serif" font-size="10.00">&#45; TMP_Text CoinText</text>
<text text-anchor="start" x="346.12" y="-615.5" font-family="Helvetica,sans-Serif" font-size="10.00">&#45; List&lt; Shop &gt; shopItemsCache</text>
<polyline fill="none" stroke="black" points="338.12,-608.5 598.12,-608.5 "/>
<text text-anchor="start" x="346.12" y="-596.5" font-family="Helvetica,sans-Serif" font-size="10.00">+ void Show()</text>
<text text-anchor="start" x="346.12" y="-585.5" font-family="Helvetica,sans-Serif" font-size="10.00">+ void Hide()</text>
<text text-anchor="start" x="346.12" y="-574.5" font-family="Helvetica,sans-Serif" font-size="10.00">+ void ShowRequestFail(string content)</text>
<text text-anchor="start" x="346.12" y="-563.5" font-family="Helvetica,sans-Serif" font-size="10.00">+ void UpdateShop()</text>
<text text-anchor="start" x="346.12" y="-552.5" font-family="Helvetica,sans-Serif" font-size="10.00">+ string GetCoinText()</text>
<text text-anchor="start" x="346.12" y="-541.5" font-family="Helvetica,sans-Serif" font-size="10.00">+ GameObject GetShopParent()</text>
<text text-anchor="start" x="346.12" y="-530.5" font-family="Helvetica,sans-Serif" font-size="10.00">&#45; void LoadedShopItems(List&lt; Shop &gt; shopItems)</text>
</a>
</g>
</g>
<!-- Node2&#45;&gt;Node6 -->
<g id="edge8" class="edge">
<title>Node2&#45;&gt;Node6</title>
<path fill="none" stroke="midnightblue" d="M468.12,-1057.08C468.12,-978.79 468.12,-797.73 468.12,-690.95"/>
<polygon fill="none" stroke="midnightblue" points="464.62,-1057.42 468.12,-1067.42 471.62,-1057.42 464.62,-1057.42"/>
</g>
<!-- Node7 -->
<g id="node7" class="node">
<title>Node7</title>
<g id="a_node7"><a xlink:href="classUtility_1_1ModalWindow.html" target="_top" xlink:title="Modal window for alerting the user">
<polygon fill="white" stroke="black" points="504.12,-884.5 504.12,-1007.5 746.12,-1007.5 746.12,-884.5 504.12,-884.5"/>
<text text-anchor="middle" x="625.12" y="-995.5" font-family="Helvetica,sans-Serif" font-size="10.00">Utility.ModalWindow</text>
<polyline fill="none" stroke="black" points="504.12,-988.5 746.12,-988.5 "/>
<text text-anchor="start" x="512.12" y="-976.5" font-family="Helvetica,sans-Serif" font-size="10.00">&#45; TMP_Text ModalTitleText</text>
<text text-anchor="start" x="512.12" y="-965.5" font-family="Helvetica,sans-Serif" font-size="10.00">&#45; TMP_Text ModalContentText</text>
<text text-anchor="start" x="512.12" y="-954.5" font-family="Helvetica,sans-Serif" font-size="10.00">&#45; Action onOkAction</text>
<polyline fill="none" stroke="black" points="504.12,-947.5 746.12,-947.5 "/>
<text text-anchor="start" x="512.12" y="-935.5" font-family="Helvetica,sans-Serif" font-size="10.00">+ void Show()</text>
<text text-anchor="start" x="512.12" y="-924.5" font-family="Helvetica,sans-Serif" font-size="10.00">+ void Show(string title, string content, Action</text>
<text text-anchor="start" x="512.12" y="-913.5" font-family="Helvetica,sans-Serif" font-size="10.00"> onOkAction=null)</text>
<text text-anchor="start" x="512.12" y="-902.5" font-family="Helvetica,sans-Serif" font-size="10.00">+ void Hide()</text>
<text text-anchor="start" x="512.12" y="-891.5" font-family="Helvetica,sans-Serif" font-size="10.00">+ void ConfirmButtonClick()</text>
</a>
</g>
</g>
<!-- Node2&#45;&gt;Node7 -->
<g id="edge10" class="edge">
<title>Node2&#45;&gt;Node7</title>
<path fill="none" stroke="midnightblue" d="M505.05,-1060.19C521.72,-1044.48 541.9,-1025.45 560.93,-1007.52"/>
<polygon fill="none" stroke="midnightblue" points="502.53,-1057.76 497.65,-1067.16 507.33,-1062.85 502.53,-1057.76"/>
</g>
<!-- Node8 -->
<g id="node8" class="node">
<title>Node8</title>
<g id="a_node8"><a xlink:href="classGame_1_1UI_1_1LeaderboardWindow.html" target="_top" xlink:title="Handles the leaderboard display window">
<polygon fill="white" stroke="black" points="728.62,-545.5 728.62,-668.5 1009.62,-668.5 1009.62,-545.5 728.62,-545.5"/>
<text text-anchor="middle" x="869.12" y="-656.5" font-family="Helvetica,sans-Serif" font-size="10.00">Game.UI.LeaderboardWindow</text>
<polyline fill="none" stroke="black" points="728.62,-649.5 1009.62,-649.5 "/>
<text text-anchor="start" x="736.62" y="-637.5" font-family="Helvetica,sans-Serif" font-size="10.00">&#45; GameObject scoreParent</text>
<text text-anchor="start" x="736.62" y="-626.5" font-family="Helvetica,sans-Serif" font-size="10.00">&#45; TMP_Dropdown filterTypeDropdown</text>
<text text-anchor="start" x="736.62" y="-615.5" font-family="Helvetica,sans-Serif" font-size="10.00">&#45; GameObject LeaderboardItemPrefab</text>
<polyline fill="none" stroke="black" points="728.62,-608.5 1009.62,-608.5 "/>
<text text-anchor="start" x="736.62" y="-596.5" font-family="Helvetica,sans-Serif" font-size="10.00">+ void Show()</text>
<text text-anchor="start" x="736.62" y="-585.5" font-family="Helvetica,sans-Serif" font-size="10.00">+ void Hide()</text>
<text text-anchor="start" x="736.62" y="-574.5" font-family="Helvetica,sans-Serif" font-size="10.00">+ void LoadScores()</text>
<text text-anchor="start" x="736.62" y="-563.5" font-family="Helvetica,sans-Serif" font-size="10.00">&#45; void ShowRequestFail(string content)</text>
<text text-anchor="start" x="736.62" y="-552.5" font-family="Helvetica,sans-Serif" font-size="10.00">&#45; void LoadedScores(List&lt; GameScore &gt; gameScores)</text>
</a>
</g>
</g>
<!-- Node2&#45;&gt;Node8 -->
<g id="edge12" class="edge">
<title>Node2&#45;&gt;Node8</title>
<path fill="none" stroke="midnightblue" d="M552.87,-1085.46C626.71,-1075.46 726.35,-1057.37 755.12,-1030 855.47,-934.54 870.68,-760.72 871.14,-668.78"/>
<polygon fill="none" stroke="midnightblue" points="552.08,-1082.03 542.63,-1086.82 553,-1088.97 552.08,-1082.03"/>
</g>
<!-- Node9 -->
<g id="node9" class="node">
<title>Node9</title>
<g id="a_node9"><a xlink:href="classGame_1_1UI_1_1StarHandler.html" target="_top" xlink:title="Star handler">
<polygon fill="white" stroke="black" points="891.62,-764.5 891.62,-843.5 1090.62,-843.5 1090.62,-764.5 891.62,-764.5"/>
<text text-anchor="middle" x="991.12" y="-831.5" font-family="Helvetica,sans-Serif" font-size="10.00">Game.UI.StarHandler</text>
<polyline fill="none" stroke="black" points="891.62,-824.5 1090.62,-824.5 "/>
<text text-anchor="start" x="899.62" y="-812.5" font-family="Helvetica,sans-Serif" font-size="10.00">&#45; List&lt; Image &gt; Stars</text>
<text text-anchor="start" x="899.62" y="-801.5" font-family="Helvetica,sans-Serif" font-size="10.00">&#45; Sprite fullStarSprite</text>
<text text-anchor="start" x="899.62" y="-790.5" font-family="Helvetica,sans-Serif" font-size="10.00">&#45; Sprite emptyStarSprite</text>
<polyline fill="none" stroke="black" points="891.62,-783.5 1090.62,-783.5 "/>
<text text-anchor="start" x="899.62" y="-771.5" font-family="Helvetica,sans-Serif" font-size="10.00">+ void ChangeDifficulty(int difficulty)</text>
</a>
</g>
</g>
<!-- Node2&#45;&gt;Node9 -->
<g id="edge15" class="edge">
<title>Node2&#45;&gt;Node9</title>
<path fill="none" stroke="midnightblue" d="M552.84,-1092.62C646.33,-1088.57 789.61,-1077.74 835.12,-1049 911.85,-1000.54 957.93,-899.11 978.44,-843.5"/>
<polygon fill="none" stroke="midnightblue" points="552.67,-1089.12 542.82,-1093.03 552.96,-1096.11 552.67,-1089.12"/>
</g>
<!-- Node3 -->
<g id="node3" class="node">
<title>Node3</title>
<g id="a_node3"><a xlink:title=" ">
<polygon fill="white" stroke="#bfbfbf" points="421.62,-1162.5 421.62,-1219.5 514.62,-1219.5 514.62,-1162.5 421.62,-1162.5"/>
<text text-anchor="middle" x="468.12" y="-1207.5" font-family="Helvetica,sans-Serif" font-size="10.00">MonoBehaviour</text>
<polyline fill="none" stroke="#bfbfbf" points="421.62,-1200.5 514.62,-1200.5 "/>
<text text-anchor="middle" x="468.12" y="-1188.5" font-family="Helvetica,sans-Serif" font-size="10.00"> </text>
<polyline fill="none" stroke="#bfbfbf" points="421.62,-1181.5 514.62,-1181.5 "/>
<text text-anchor="middle" x="468.12" y="-1169.5" font-family="Helvetica,sans-Serif" font-size="10.00"> </text>
</a>
</g>
</g>
<!-- Node3&#45;&gt;Node2 -->
<g id="edge2" class="edge">
<title>Node3&#45;&gt;Node2</title>
<path fill="none" stroke="midnightblue" d="M468.12,-1152.24C468.12,-1143.03 468.12,-1133.35 468.12,-1124.71"/>
<polygon fill="none" stroke="midnightblue" points="464.62,-1152.35 468.12,-1162.35 471.62,-1152.35 464.62,-1152.35"/>
</g>
<!-- Node4&#45;&gt;Node1 -->
<g id="edge3" class="edge">
<title>Node4&#45;&gt;Node1</title>
<path fill="none" stroke="#404040" d="M189.37,-745.78C189.66,-751.94 189.91,-758.03 190.12,-764 191.37,-799.53 190.3,-808.44 190.12,-844 190.11,-846.05 190.1,-848.12 190.09,-850.21"/>
<polygon fill="none" stroke="#404040" points="190.09,-850.32 194.05,-856.35 190.01,-862.32 186.05,-856.3 190.09,-850.32"/>
<text text-anchor="middle" x="232.62" y="-801.5" font-family="Helvetica,sans-Serif" font-size="10.00"> &#45;gameController</text>
</g>
<!-- Node4&#45;&gt;Node5 -->
<g id="edge17" class="edge">
<title>Node4&#45;&gt;Node5</title>
<path fill="none" stroke="#404040" d="M194.17,-468.44C197.69,-458.18 201.96,-448.24 207.12,-439 227.49,-402.59 255.99,-369.21 286.72,-339.88"/>
<polygon fill="none" stroke="#404040" points="287.12,-339.51 288.77,-332.49 295.89,-331.31 294.24,-338.33 287.12,-339.51"/>
<text text-anchor="middle" x="248.62" y="-442" font-family="Helvetica,sans-Serif" font-size="10.00"> &#45;gameController</text>
</g>
<!-- Node5&#45;&gt;Node4 -->
<g id="edge5" class="edge">
<title>Node5&#45;&gt;Node4</title>
<path fill="none" stroke="#404040" d="M315.64,-420.63C308.37,-430.56 301.17,-440.39 294.12,-450 292.07,-452.8 290,-455.62 287.91,-458.47"/>
<polygon fill="none" stroke="#404040" points="287.85,-458.55 287.52,-465.75 280.75,-468.22 281.07,-461.02 287.85,-458.55"/>
<text text-anchor="middle" x="322.12" y="-442" font-family="Helvetica,sans-Serif" font-size="10.00"> &#45;gameUI</text>
</g>
<!-- Node6&#45;&gt;Node5 -->
<g id="edge7" class="edge">
<title>Node6&#45;&gt;Node5</title>
<path fill="none" stroke="#404040" d="M468.12,-523.3C468.12,-496.45 468.12,-465.28 468.12,-433.22"/>
<polygon fill="none" stroke="#404040" points="468.12,-432.9 464.12,-426.9 468.12,-420.9 472.12,-426.9 468.12,-432.9"/>
<text text-anchor="middle" x="503.12" y="-442" font-family="Helvetica,sans-Serif" font-size="10.00"> &#45;ShopWindow</text>
</g>
<!-- Node7&#45;&gt;Node5 -->
<g id="edge16" class="edge">
<title>Node7&#45;&gt;Node5</title>
<path fill="none" stroke="#404040" d="M631.64,-884.15C639.54,-792.14 647.28,-612.95 607.12,-468 603.82,-456.07 599.88,-444.08 595.45,-432.15"/>
<polygon fill="none" stroke="#404040" points="595.37,-431.94 589.48,-427.77 591.07,-420.74 596.95,-424.9 595.37,-431.94"/>
<text text-anchor="middle" x="675.12" y="-604.5" font-family="Helvetica,sans-Serif" font-size="10.00"> &#45;ModalWindow</text>
</g>
<!-- Node7&#45;&gt;Node6 -->
<g id="edge9" class="edge">
<title>Node7&#45;&gt;Node6</title>
<path fill="none" stroke="#404040" d="M570.79,-884.47C561.01,-871.68 551.58,-857.85 544.12,-844 520.34,-799.81 502.46,-746.93 490.03,-702.43"/>
<polygon fill="none" stroke="#404040" points="489.99,-702.29 484.55,-697.56 486.83,-690.71 492.27,-695.45 489.99,-702.29"/>
<text text-anchor="middle" x="582.12" y="-801.5" font-family="Helvetica,sans-Serif" font-size="10.00"> &#45;ModalWindow</text>
</g>
<!-- Node7&#45;&gt;Node8 -->
<g id="edge13" class="edge">
<title>Node7&#45;&gt;Node8</title>
<path fill="none" stroke="#404040" d="M656.69,-884.48C676.44,-848.41 703.35,-802.34 731.12,-764 752.57,-734.4 778.59,-703.86 802.24,-677.73"/>
<polygon fill="none" stroke="#404040" points="802.4,-677.54 803.49,-670.41 810.49,-668.68 809.4,-675.8 802.4,-677.54"/>
<text text-anchor="middle" x="769.12" y="-801.5" font-family="Helvetica,sans-Serif" font-size="10.00"> &#45;ModalWindow</text>
</g>
<!-- Node8&#45;&gt;Node5 -->
<g id="edge11" class="edge">
<title>Node8&#45;&gt;Node5</title>
<path fill="none" stroke="#404040" d="M807.34,-545.22C764.82,-503.39 705.96,-445.49 649.21,-389.65"/>
<polygon fill="none" stroke="#404040" points="649.04,-389.48 641.95,-388.13 640.48,-381.07 647.57,-382.42 649.04,-389.48"/>
<text text-anchor="middle" x="756.62" y="-442" font-family="Helvetica,sans-Serif" font-size="10.00"> &#45;leaderboardWindow</text>
</g>
<!-- Node9&#45;&gt;Node5 -->
<g id="edge14" class="edge">
<title>Node9&#45;&gt;Node5</title>
<path fill="none" stroke="#404040" d="M1013,-764.32C1015.52,-758.34 1017.7,-752.12 1019.12,-746 1047.09,-625.65 1085.54,-572.18 1019.12,-468 938.88,-342.14 779.08,-277.05 652.14,-244.01"/>
<polygon fill="none" stroke="#404040" points="651.98,-243.97 645.18,-246.36 640.35,-241.01 647.15,-238.61 651.98,-243.97"/>
<text text-anchor="middle" x="1087.12" y="-604.5" font-family="Helvetica,sans-Serif" font-size="10.00"> &#45;starHandler</text>
</g>
<!-- Node10 -->
<g id="node10" class="node">
<title>Node10</title>
<g id="a_node10"><a xlink:title=" ">
<polygon fill="white" stroke="#bfbfbf" points="365.12,-917.5 365.12,-974.5 409.12,-974.5 409.12,-917.5 365.12,-917.5"/>
<text text-anchor="middle" x="387.12" y="-962.5" font-family="Helvetica,sans-Serif" font-size="10.00">World</text>
<polyline fill="none" stroke="#bfbfbf" points="365.12,-955.5 409.12,-955.5 "/>
<text text-anchor="middle" x="387.12" y="-943.5" font-family="Helvetica,sans-Serif" font-size="10.00"> </text>
<polyline fill="none" stroke="#bfbfbf" points="365.12,-936.5 409.12,-936.5 "/>
<text text-anchor="middle" x="387.12" y="-924.5" font-family="Helvetica,sans-Serif" font-size="10.00"> </text>
</a>
</g>
</g>
<!-- Node10&#45;&gt;Node4 -->
<g id="edge18" class="edge">
<title>Node10&#45;&gt;Node4</title>
<path fill="none" stroke="#404040" d="M387.28,-917.18C386.28,-879.77 380.15,-812.34 351.12,-764 344.62,-753.17 338.66,-754.28 329.12,-746 329.03,-745.92 328.93,-745.83 328.83,-745.75"/>
<polygon fill="none" stroke="#404040" points="328.87,-745.78 321.72,-744.85 319.83,-737.89 326.98,-738.82 328.87,-745.78"/>
<text text-anchor="middle" x="396.12" y="-801.5" font-family="Helvetica,sans-Serif" font-size="10.00"> &#45;world</text>
</g>
</g>
</svg>
        <g id="navigator" transform="translate(0 0)" fill="#404254">
                <rect fill="#f2f5e9" fill-opacity="0.5" stroke="#606060" stroke-width=".5" x="0" y="0" width="60" height="60"/>
                <use id="zoomplus" xlink:href="#zoomPlus" x="17" y="9" onmousedown="handleZoom(evt,'in')"/>
                <use id="zoomminus" xlink:href="#zoomMin" x="42" y="9" onmousedown="handleZoom(evt,'out')"/>
                <use id="reset" xlink:href="#resetDef" x="30" y="36" onmousedown="handleReset()"/>
                <g id="arrowUp" xlink:href="#dirArrow" transform="translate(30 24)" onmousedown="handlePan(0,-1)">
                  <use xlink:href="#rim" fill="#404040">
                        <set attributeName="fill" to="#808080" begin="arrowUp.mouseover" end="arrowUp.mouseout"/>
                  </use>
                  <path fill="none" stroke="white" stroke-width="1.5" d="M0,-3.0v7 M-2.5,-0.5L0,-3.0L2.5,-0.5"/>
                </g>
                <g id="arrowRight" xlink:href="#dirArrow" transform="rotate(90) translate(36 -43)" onmousedown="handlePan(1,0)">
                  <use xlink:href="#rim" fill="#404040">
                        <set attributeName="fill" to="#808080" begin="arrowRight.mouseover" end="arrowRight.mouseout"/>
                  </use>
                  <path fill="none" stroke="white" stroke-width="1.5" d="M0,-3.0v7 M-2.5,-0.5L0,-3.0L2.5,-0.5"/>
                </g>
                <g id="arrowDown" xlink:href="#dirArrow" transform="rotate(180) translate(-30 -48)" onmousedown="handlePan(0,1)">
                  <use xlink:href="#rim" fill="#404040">
                        <set attributeName="fill" to="#808080" begin="arrowDown.mouseover" end="arrowDown.mouseout"/>
                  </use>
                  <path fill="none" stroke="white" stroke-width="1.5" d="M0,-3.0v7 M-2.5,-0.5L0,-3.0L2.5,-0.5"/>
                </g>
                <g id="arrowLeft" xlink:href="#dirArrow" transform="rotate(270) translate(-36 17)" onmousedown="handlePan(-1,0)">
                  <use xlink:href="#rim" fill="#404040">
                        <set attributeName="fill" to="#808080" begin="arrowLeft.mouseover" end="arrowLeft.mouseout"/>
                  </use>
                  <path fill="none" stroke="white" stroke-width="1.5" d="M0,-3.0v7 M-2.5,-0.5L0,-3.0L2.5,-0.5"/>
                </g>
        </g>
        <svg viewBox="0 0 15 15" width="100%" height="30px" preserveAspectRatio="xMaxYMin meet">
         <g id="arrow_out" transform="scale(0.3 0.3)">
          <a xlink:href="classGame_1_1World_1_1CarSpawner__coll__graph_org.svg" target="_base">
           <rect id="button" ry="5" rx="5" y="6" x="6" height="38" width="38"
                fill="#f2f5e9" fill-opacity="0.5" stroke="#606060" stroke-width="1.0"/>
           <path id="arrow"
             d="M 11.500037,31.436501 C 11.940474,20.09759 22.043105,11.32322 32.158766,21.979434 L 37.068811,17.246167 C 37.068811,17.246167 37.088388,32 37.088388,32 L 22.160133,31.978069 C 22.160133,31.978069 26.997745,27.140456 26.997745,27.140456 C 18.528582,18.264221 13.291696,25.230495 11.500037,31.436501 z"
             style="fill:#404040;"/>
          </a>
         </g>
        </svg>
</svg>
