<?xml version="1.0" encoding="UTF-8" standalone="no"?>
<!DOCTYPE svg PUBLIC "-//W3C//DTD SVG 1.1//EN"
 "http://www.w3.org/Graphics/SVG/1.1/DTD/svg11.dtd">
<!-- Generated by graphviz version 2.43.0 (0)
 -->
<!-- Title: MainPage.TaskOpenPanelController.Save Pages: 1 -->
<svg width="2621pt" height="218pt"
 viewBox="0.00 0.00 2621.00 218.00" xmlns="http://www.w3.org/2000/svg" xmlns:xlink="http://www.w3.org/1999/xlink">
<g id="graph0" class="graph" transform="scale(1 1) rotate(0) translate(4 214)">
<title>MainPage.TaskOpenPanelController.Save</title>
<polygon fill="white" stroke="transparent" points="-4,4 -4,-214 2617,-214 2617,4 -4,4"/>
<!-- Node1 -->
<g id="node1" class="node">
<title>Node1</title>
<g id="a_node1"><a xlink:title="Save the task to the server">
<polygon fill="#bfbfbf" stroke="black" points="0,-104.5 0,-123.5 215,-123.5 215,-104.5 0,-104.5"/>
<text text-anchor="middle" x="107.5" y="-111.5" font-family="Helvetica,sans-Serif" font-size="10.00">MainPage.TaskOpenPanelController.Save</text>
</a>
</g>
</g>
<!-- Node2 -->
<g id="node2" class="node">
<title>Node2</title>
<g id="a_node2"><a xlink:href="classMainPage_1_1TaskOpenPanelController.html#ac66bfe4cec26cf62dd22db230ab9c5f1" target="_top" xlink:title="Collect the values from the inputs">
<polygon fill="white" stroke="black" points="251,-180.5 251,-199.5 529,-199.5 529,-180.5 251,-180.5"/>
<text text-anchor="middle" x="390" y="-187.5" font-family="Helvetica,sans-Serif" font-size="10.00">MainPage.TaskOpenPanelController.CollectFromFields</text>
</a>
</g>
</g>
<!-- Node1&#45;&gt;Node2 -->
<g id="edge1" class="edge">
<title>Node1&#45;&gt;Node2</title>
<path fill="none" stroke="midnightblue" d="M128.27,-123.71C155.31,-136.56 205.66,-159 251,-171 262.42,-174.02 274.5,-176.58 286.58,-178.74"/>
<polygon fill="midnightblue" stroke="midnightblue" points="286.26,-182.24 296.71,-180.47 287.44,-175.34 286.26,-182.24"/>
</g>
<!-- Node3 -->
<g id="node3" class="node">
<title>Node3</title>
<g id="a_node3"><a xlink:href="classConfig_1_1ServerConfig.html#a69cfac1052256f93e049889a0594911d" target="_top" xlink:title="Pah to api endpoin to update a task">
<polygon fill="white" stroke="black" points="278.5,-142.5 278.5,-161.5 501.5,-161.5 501.5,-142.5 278.5,-142.5"/>
<text text-anchor="middle" x="390" y="-149.5" font-family="Helvetica,sans-Serif" font-size="10.00">Config.ServerConfig.PATHFORTASKUPDATE</text>
</a>
</g>
</g>
<!-- Node1&#45;&gt;Node3 -->
<g id="edge2" class="edge">
<title>Node1&#45;&gt;Node3</title>
<path fill="none" stroke="midnightblue" d="M178.92,-123.54C218.35,-128.88 267.67,-135.56 308.61,-141.11"/>
<polygon fill="midnightblue" stroke="midnightblue" points="308.17,-144.58 318.55,-142.46 309.11,-137.65 308.17,-144.58"/>
</g>
<!-- Node4 -->
<g id="node4" class="node">
<title>Node4</title>
<g id="a_node4"><a xlink:href="classUtility_1_1CoroutineRunner.html#a1c473dee723f16d86bab9d8475c8214a" target="_top" xlink:title="A helper method to start coroutines">
<polygon fill="white" stroke="black" points="291,-104.5 291,-123.5 489,-123.5 489,-104.5 291,-104.5"/>
<text text-anchor="middle" x="390" y="-111.5" font-family="Helvetica,sans-Serif" font-size="10.00">Utility.CoroutineRunner.RunCoroutine</text>
</a>
</g>
</g>
<!-- Node1&#45;&gt;Node4 -->
<g id="edge3" class="edge">
<title>Node1&#45;&gt;Node4</title>
<path fill="none" stroke="midnightblue" d="M215.35,-114C236.73,-114 259.22,-114 280.65,-114"/>
<polygon fill="midnightblue" stroke="midnightblue" points="280.75,-117.5 290.75,-114 280.75,-110.5 280.75,-117.5"/>
</g>
<!-- Node5 -->
<g id="node5" class="node">
<title>Node5</title>
<g id="a_node5"><a xlink:href="classMainPage_1_1TaskOpenPanelController.html#a750d1acc6fd173296467fb9aca366a3d" target="_top" xlink:title="When the task was stored on the server show it also visually and close the panel">
<polygon fill="white" stroke="black" points="269,-66.5 269,-85.5 511,-85.5 511,-66.5 269,-66.5"/>
<text text-anchor="middle" x="390" y="-73.5" font-family="Helvetica,sans-Serif" font-size="10.00">MainPage.TaskOpenPanelController.SavedTask</text>
</a>
</g>
</g>
<!-- Node1&#45;&gt;Node5 -->
<g id="edge4" class="edge">
<title>Node1&#45;&gt;Node5</title>
<path fill="none" stroke="midnightblue" d="M178.92,-104.46C218.35,-99.12 267.67,-92.44 308.61,-86.89"/>
<polygon fill="midnightblue" stroke="midnightblue" points="309.11,-90.35 318.55,-85.54 308.17,-83.42 309.11,-90.35"/>
</g>
<!-- Node19 -->
<g id="node19" class="node">
<title>Node19</title>
<g id="a_node19"><a xlink:href="classMainPage_1_1MainWindowController.html#afea342e3985134e17406ed61958ecc6f" target="_top" xlink:title="Show the task request fail in the modal window">
<polygon fill="white" stroke="black" points="267.5,-19.5 267.5,-38.5 512.5,-38.5 512.5,-19.5 267.5,-19.5"/>
<text text-anchor="middle" x="390" y="-26.5" font-family="Helvetica,sans-Serif" font-size="10.00">MainPage.MainWindowController.ShowTaskFail</text>
</a>
</g>
</g>
<!-- Node1&#45;&gt;Node19 -->
<g id="edge24" class="edge">
<title>Node1&#45;&gt;Node19</title>
<path fill="none" stroke="midnightblue" d="M129.32,-104.29C156.71,-91.84 206.58,-70.27 251,-57 273.14,-50.38 297.74,-44.84 319.98,-40.47"/>
<polygon fill="midnightblue" stroke="midnightblue" points="320.84,-43.87 330,-38.55 319.52,-36.99 320.84,-43.87"/>
</g>
<!-- Node6 -->
<g id="node6" class="node">
<title>Node6</title>
<g id="a_node6"><a xlink:href="classMainPage_1_1MainWindowController.html#a827f62c47eb691eadd994bd51bf7cb74" target="_top" xlink:title="Creates a new task prefab to display">
<polygon fill="white" stroke="black" points="579.5,-124.5 579.5,-143.5 813.5,-143.5 813.5,-124.5 579.5,-124.5"/>
<text text-anchor="middle" x="696.5" y="-131.5" font-family="Helvetica,sans-Serif" font-size="10.00">MainPage.MainWindowController.CreateTask</text>
</a>
</g>
</g>
<!-- Node5&#45;&gt;Node6 -->
<g id="edge5" class="edge">
<title>Node5&#45;&gt;Node6</title>
<path fill="none" stroke="midnightblue" d="M469.66,-85.54C489.11,-88.25 509.86,-91.45 529,-95 570,-102.61 616.14,-113.61 649.43,-121.99"/>
<polygon fill="midnightblue" stroke="midnightblue" points="648.77,-125.43 659.33,-124.5 650.49,-118.65 648.77,-125.43"/>
</g>
<!-- Node10 -->
<g id="node10" class="node">
<title>Node10</title>
<g id="a_node10"><a xlink:href="classMainPage_1_1MainWindowController.html#a85072f5d92f4145d6213209a13936639" target="_top" xlink:title="Refreshes the tasks with the proper sorting order">
<polygon fill="white" stroke="black" points="1447.5,-76.5 1447.5,-95.5 1704.5,-95.5 1704.5,-76.5 1447.5,-76.5"/>
<text text-anchor="middle" x="1576" y="-83.5" font-family="Helvetica,sans-Serif" font-size="10.00">MainPage.MainWindowController.SortingChanged</text>
</a>
</g>
</g>
<!-- Node5&#45;&gt;Node10 -->
<g id="edge22" class="edge">
<title>Node5&#45;&gt;Node10</title>
<path fill="none" stroke="midnightblue" d="M511.04,-77.01C732.33,-78.88 1203.29,-82.86 1437.22,-84.84"/>
<polygon fill="midnightblue" stroke="midnightblue" points="1437.46,-88.34 1447.49,-84.92 1437.52,-81.34 1437.46,-88.34"/>
</g>
<!-- Node18 -->
<g id="node18" class="node">
<title>Node18</title>
<g id="a_node18"><a xlink:href="classMainPage_1_1MainWindowController.html#aee6fc5b4f9a2dfbfc32567557a745241" target="_top" xlink:title="Update the task prebab&#39;s label">
<polygon fill="white" stroke="black" points="565,-38.5 565,-57.5 828,-57.5 828,-38.5 565,-38.5"/>
<text text-anchor="middle" x="696.5" y="-45.5" font-family="Helvetica,sans-Serif" font-size="10.00">MainPage.MainWindowController.UpdateTaskLabel</text>
</a>
</g>
</g>
<!-- Node5&#45;&gt;Node18 -->
<g id="edge23" class="edge">
<title>Node5&#45;&gt;Node18</title>
<path fill="none" stroke="midnightblue" d="M494.51,-66.48C522.66,-63.89 553.29,-61.08 581.96,-58.44"/>
<polygon fill="midnightblue" stroke="midnightblue" points="582.38,-61.92 592.01,-57.52 581.73,-54.95 582.38,-61.92"/>
</g>
<!-- Node7 -->
<g id="node7" class="node">
<title>Node7</title>
<g id="a_node7"><a xlink:href="classMainPage_1_1TaskDisplayHandler.html#a8aedc4afb32d220352cf04cc77fdedf6" target="_top" xlink:title="Init it with the task to display and references to the controls">
<polygon fill="white" stroke="black" points="864,-133.5 864,-152.5 1078,-152.5 1078,-133.5 864,-133.5"/>
<text text-anchor="middle" x="971" y="-140.5" font-family="Helvetica,sans-Serif" font-size="10.00">MainPage.TaskDisplayHandler.InitValues</text>
</a>
</g>
</g>
<!-- Node6&#45;&gt;Node7 -->
<g id="edge6" class="edge">
<title>Node6&#45;&gt;Node7</title>
<path fill="none" stroke="midnightblue" d="M813.85,-137.84C827.11,-138.28 840.62,-138.73 853.88,-139.16"/>
<polygon fill="midnightblue" stroke="midnightblue" points="853.84,-142.67 863.95,-139.5 854.08,-135.67 853.84,-142.67"/>
</g>
<!-- Node8 -->
<g id="node8" class="node">
<title>Node8</title>
<g id="a_node8"><a xlink:href="classMainPage_1_1TaskDisplayHandler.html#aa49063eb8db092920d512f9869df6e98" target="_top" xlink:title="Calculate if the task can be completed again">
<polygon fill="white" stroke="black" points="1114,-190.5 1114,-209.5 1401,-209.5 1401,-190.5 1114,-190.5"/>
<text text-anchor="middle" x="1257.5" y="-197.5" font-family="Helvetica,sans-Serif" font-size="10.00">MainPage.TaskDisplayHandler.CalculateIfCompleteable</text>
</a>
</g>
</g>
<!-- Node7&#45;&gt;Node8 -->
<g id="edge7" class="edge">
<title>Node7&#45;&gt;Node8</title>
<path fill="none" stroke="midnightblue" d="M1003.03,-152.54C1031.62,-161.04 1075.33,-173.28 1114,-181 1129.16,-184.03 1145.32,-186.7 1161.12,-189.01"/>
<polygon fill="midnightblue" stroke="midnightblue" points="1161.04,-192.54 1171.43,-190.48 1162.03,-185.61 1161.04,-192.54"/>
</g>
<!-- Node9 -->
<g id="node9" class="node">
<title>Node9</title>
<g id="a_node9"><a xlink:href="classMainPage_1_1TaskDisplayHandler.html#a754a230e53cedd3209a29d4d6a743719" target="_top" xlink:title="When the complete state is changed update the display to match it">
<polygon fill="white" stroke="black" points="1120,-114.5 1120,-133.5 1395,-133.5 1395,-114.5 1120,-114.5"/>
<text text-anchor="middle" x="1257.5" y="-121.5" font-family="Helvetica,sans-Serif" font-size="10.00">MainPage.TaskDisplayHandler.CompleteStateChange</text>
</a>
</g>
</g>
<!-- Node7&#45;&gt;Node9 -->
<g id="edge8" class="edge">
<title>Node7&#45;&gt;Node9</title>
<path fill="none" stroke="midnightblue" d="M1078.34,-135.9C1088.63,-135.21 1099.18,-134.51 1109.77,-133.8"/>
<polygon fill="midnightblue" stroke="midnightblue" points="1110.18,-137.28 1119.92,-133.12 1109.71,-130.3 1110.18,-137.28"/>
</g>
<!-- Node17 -->
<g id="node17" class="node">
<title>Node17</title>
<g id="a_node17"><a xlink:href="classMainPage_1_1TaskDisplayHandler.html#ac3773b76adb09298978a65c89136c20f" target="_top" xlink:title="Update the task&#39;s labels">
<polygon fill="white" stroke="black" points="1141,-152.5 1141,-171.5 1374,-171.5 1374,-152.5 1141,-152.5"/>
<text text-anchor="middle" x="1257.5" y="-159.5" font-family="Helvetica,sans-Serif" font-size="10.00">MainPage.TaskDisplayHandler.UpdateLabels</text>
</a>
</g>
</g>
<!-- Node7&#45;&gt;Node17 -->
<g id="edge20" class="edge">
<title>Node7&#45;&gt;Node17</title>
<path fill="none" stroke="midnightblue" d="M1078.34,-150.1C1095.36,-151.24 1113.11,-152.42 1130.54,-153.59"/>
<polygon fill="midnightblue" stroke="midnightblue" points="1130.54,-157.1 1140.75,-154.27 1131.01,-150.11 1130.54,-157.1"/>
</g>
<!-- Node9&#45;&gt;Node10 -->
<g id="edge9" class="edge">
<title>Node9&#45;&gt;Node10</title>
<path fill="none" stroke="midnightblue" d="M1337.96,-114.46C1382.91,-109.06 1439.25,-102.3 1485.72,-96.72"/>
<polygon fill="midnightblue" stroke="midnightblue" points="1486.27,-100.18 1495.78,-95.51 1485.44,-93.23 1486.27,-100.18"/>
</g>
<!-- Node16 -->
<g id="node16" class="node">
<title>Node16</title>
<g id="a_node16"><a xlink:href="classMainPage_1_1TaskDisplayHandler.html#aa63f1bc894519b9d5872c2bb50b84415" target="_top" xlink:title="Update the time remaining until the task can be completed again">
<polygon fill="white" stroke="black" points="1437,-114.5 1437,-133.5 1715,-133.5 1715,-114.5 1437,-114.5"/>
<text text-anchor="middle" x="1576" y="-121.5" font-family="Helvetica,sans-Serif" font-size="10.00">MainPage.TaskDisplayHandler.UpdateTimeRemaining</text>
</a>
</g>
</g>
<!-- Node9&#45;&gt;Node16 -->
<g id="edge18" class="edge">
<title>Node9&#45;&gt;Node16</title>
<path fill="none" stroke="midnightblue" d="M1395.02,-117.31C1405.54,-117.25 1416.2,-117.24 1426.79,-117.26"/>
<polygon fill="midnightblue" stroke="midnightblue" points="1426.91,-120.76 1436.92,-117.3 1426.94,-113.76 1426.91,-120.76"/>
</g>
<!-- Node11 -->
<g id="node11" class="node">
<title>Node11</title>
<g id="a_node11"><a xlink:href="classMainPage_1_1MainWindowController.html#a241b480aeebdab1bc34320cad8de7712" target="_top" xlink:title="Load the good habits">
<polygon fill="white" stroke="black" points="1752,-95.5 1752,-114.5 2006,-114.5 2006,-95.5 1752,-95.5"/>
<text text-anchor="middle" x="1879" y="-102.5" font-family="Helvetica,sans-Serif" font-size="10.00">MainPage.MainWindowController.LoadBadHabits</text>
</a>
</g>
</g>
<!-- Node10&#45;&gt;Node11 -->
<g id="edge10" class="edge">
<title>Node10&#45;&gt;Node11</title>
<path fill="none" stroke="midnightblue" d="M1704.65,-94.06C1716.79,-94.82 1729.14,-95.6 1741.36,-96.37"/>
<polygon fill="midnightblue" stroke="midnightblue" points="1741.39,-99.88 1751.59,-97.02 1741.83,-92.9 1741.39,-99.88"/>
</g>
<!-- Node14 -->
<g id="node14" class="node">
<title>Node14</title>
<g id="a_node14"><a xlink:href="classMainPage_1_1MainWindowController.html#ab5b80370512cd4273e86927fe696462d" target="_top" xlink:title="Load the good tasks">
<polygon fill="white" stroke="black" points="1751,-57.5 1751,-76.5 2007,-76.5 2007,-57.5 1751,-57.5"/>
<text text-anchor="middle" x="1879" y="-64.5" font-family="Helvetica,sans-Serif" font-size="10.00">MainPage.MainWindowController.LoadGoodTasks</text>
</a>
</g>
</g>
<!-- Node10&#45;&gt;Node14 -->
<g id="edge14" class="edge">
<title>Node10&#45;&gt;Node14</title>
<path fill="none" stroke="midnightblue" d="M1704.65,-77.94C1716.54,-77.19 1728.63,-76.43 1740.61,-75.67"/>
<polygon fill="midnightblue" stroke="midnightblue" points="1740.87,-79.16 1750.63,-75.04 1740.43,-72.18 1740.87,-79.16"/>
</g>
<!-- Node12 -->
<g id="node12" class="node">
<title>Node12</title>
<g id="a_node12"><a xlink:href="classMainPage_1_1TaskOpenPanelController.html#a5513399c20f650915ca10f54805f416e" target="_top" xlink:title="Make this task a bad habit">
<polygon fill="white" stroke="black" points="2044,-95.5 2044,-114.5 2313,-114.5 2313,-95.5 2044,-95.5"/>
<text text-anchor="middle" x="2178.5" y="-102.5" font-family="Helvetica,sans-Serif" font-size="10.00">MainPage.TaskOpenPanelController.MakeItBadHabit</text>
</a>
</g>
</g>
<!-- Node11&#45;&gt;Node12 -->
<g id="edge11" class="edge">
<title>Node11&#45;&gt;Node12</title>
<path fill="none" stroke="midnightblue" d="M2006.17,-98.32C2015.35,-98.26 2024.66,-98.24 2033.94,-98.25"/>
<polygon fill="midnightblue" stroke="midnightblue" points="2033.98,-101.75 2043.99,-98.28 2034,-94.75 2033.98,-101.75"/>
</g>
<!-- Node12&#45;&gt;Node11 -->
<g id="edge12" class="edge">
<title>Node12&#45;&gt;Node11</title>
<path fill="none" stroke="midnightblue" d="M2043.99,-111.72C2034.75,-111.76 2025.43,-111.76 2016.18,-111.73"/>
<polygon fill="midnightblue" stroke="midnightblue" points="2016.18,-108.23 2006.17,-111.68 2016.15,-115.23 2016.18,-108.23"/>
</g>
<!-- Node13 -->
<g id="node13" class="node">
<title>Node13</title>
<g id="a_node13"><a xlink:href="classMainPage_1_1TaskOpenPanelController.html#aa0b6757dbad141375c50282278b23b1a" target="_top" xlink:title="Update the buttons with the appropriate color based on the current task">
<polygon fill="white" stroke="black" points="2350,-76.5 2350,-95.5 2613,-95.5 2613,-76.5 2350,-76.5"/>
<text text-anchor="middle" x="2481.5" y="-83.5" font-family="Helvetica,sans-Serif" font-size="10.00">MainPage.TaskOpenPanelController.UpdateButtons</text>
</a>
</g>
</g>
<!-- Node12&#45;&gt;Node13 -->
<g id="edge13" class="edge">
<title>Node12&#45;&gt;Node13</title>
<path fill="none" stroke="midnightblue" d="M2313.28,-96.56C2321.97,-96.01 2330.73,-95.45 2339.45,-94.9"/>
<polygon fill="midnightblue" stroke="midnightblue" points="2339.91,-98.38 2349.67,-94.26 2339.46,-91.4 2339.91,-98.38"/>
</g>
<!-- Node15 -->
<g id="node15" class="node">
<title>Node15</title>
<g id="a_node15"><a xlink:href="classMainPage_1_1TaskOpenPanelController.html#a069a63e2b7e70cc4cb4c7e487b655700" target="_top" xlink:title="Make it a good task">
<polygon fill="white" stroke="black" points="2043,-57.5 2043,-76.5 2314,-76.5 2314,-57.5 2043,-57.5"/>
<text text-anchor="middle" x="2178.5" y="-64.5" font-family="Helvetica,sans-Serif" font-size="10.00">MainPage.TaskOpenPanelController.MakeItGoodTask</text>
</a>
</g>
</g>
<!-- Node14&#45;&gt;Node15 -->
<g id="edge15" class="edge">
<title>Node14&#45;&gt;Node15</title>
<path fill="none" stroke="midnightblue" d="M2007.03,-60.31C2015.54,-60.26 2024.15,-60.24 2032.75,-60.25"/>
<polygon fill="midnightblue" stroke="midnightblue" points="2032.81,-63.75 2042.82,-60.28 2032.83,-56.75 2032.81,-63.75"/>
</g>
<!-- Node15&#45;&gt;Node13 -->
<g id="edge17" class="edge">
<title>Node15&#45;&gt;Node13</title>
<path fill="none" stroke="midnightblue" d="M2314.15,-75.5C2322.7,-76.04 2331.32,-76.58 2339.9,-77.12"/>
<polygon fill="midnightblue" stroke="midnightblue" points="2339.74,-80.62 2349.94,-77.76 2340.18,-73.64 2339.74,-80.62"/>
</g>
<!-- Node15&#45;&gt;Node14 -->
<g id="edge16" class="edge">
<title>Node15&#45;&gt;Node14</title>
<path fill="none" stroke="midnightblue" d="M2042.82,-73.72C2034.26,-73.76 2025.63,-73.76 2017.06,-73.73"/>
<polygon fill="midnightblue" stroke="midnightblue" points="2017.05,-70.23 2007.03,-73.69 2017.01,-77.23 2017.05,-70.23"/>
</g>
<!-- Node16&#45;&gt;Node9 -->
<g id="edge19" class="edge">
<title>Node16&#45;&gt;Node9</title>
<path fill="none" stroke="midnightblue" d="M1436.92,-130.7C1426.39,-130.75 1415.73,-130.76 1405.14,-130.73"/>
<polygon fill="midnightblue" stroke="midnightblue" points="1405.03,-127.23 1395.02,-130.69 1405.01,-134.23 1405.03,-127.23"/>
</g>
<!-- Node17&#45;&gt;Node16 -->
<g id="edge21" class="edge">
<title>Node17&#45;&gt;Node16</title>
<path fill="none" stroke="midnightblue" d="M1337.96,-152.46C1382.91,-147.06 1439.25,-140.3 1485.72,-134.72"/>
<polygon fill="midnightblue" stroke="midnightblue" points="1486.27,-138.18 1495.78,-133.51 1485.44,-131.23 1486.27,-138.18"/>
</g>
<!-- Node20 -->
<g id="node20" class="node">
<title>Node20</title>
<g id="a_node20"><a xlink:href="classUtility_1_1ModalWindow.html#adcef8cae2dffe4247c905d042ff0a8e3" target="_top" xlink:title="Show the modal window">
<polygon fill="white" stroke="black" points="623.5,-0.5 623.5,-19.5 769.5,-19.5 769.5,-0.5 623.5,-0.5"/>
<text text-anchor="middle" x="696.5" y="-7.5" font-family="Helvetica,sans-Serif" font-size="10.00">Utility.ModalWindow.Show</text>
</a>
</g>
</g>
<!-- Node19&#45;&gt;Node20 -->
<g id="edge25" class="edge">
<title>Node19&#45;&gt;Node20</title>
<path fill="none" stroke="midnightblue" d="M512.66,-21.41C546.29,-19.31 582.01,-17.08 612.86,-15.16"/>
<polygon fill="midnightblue" stroke="midnightblue" points="613.37,-18.63 623.13,-14.52 612.93,-11.65 613.37,-18.63"/>
</g>
</g>
</svg>
