<?xml version="1.0" encoding="UTF-8" standalone="no"?>
<!DOCTYPE svg PUBLIC "-//W3C//DTD SVG 1.1//EN"
 "http://www.w3.org/Graphics/SVG/1.1/DTD/svg11.dtd">
<!-- Generated by graphviz version 2.43.0 (0)
 -->
<!-- Title: MainPage.FriendWindowHandler.DisplayFriends Pages: 1 -->
<svg width="847pt" height="64pt"
 viewBox="0.00 0.00 847.00 64.00" xmlns="http://www.w3.org/2000/svg" xmlns:xlink="http://www.w3.org/1999/xlink">
<g id="graph0" class="graph" transform="scale(1 1) rotate(0) translate(4 60)">
<title>MainPage.FriendWindowHandler.DisplayFriends</title>
<!-- Node1 -->
<g id="Node000001" class="node">
<title>Node1</title>
<g id="a_Node000001"><a xlink:title="Display the friends which was recieved from the server.">
<polygon fill="#999999" stroke="#666666" points="839,-37 591,-37 591,-18 839,-18 839,-37"/>
<text text-anchor="middle" x="715" y="-25" font-family="Helvetica,sans-Serif" font-size="10.00">MainPage.FriendWindowHandler.DisplayFriends</text>
</a>
</g>
</g>
<!-- Node2 -->
<g id="Node000002" class="node">
<title>Node2</title>
<g id="a_Node000002"><a xlink:href="classMainPage_1_1FriendWindowHandler.html#a6ebf0f7c70458f53c427517bf84bef7d" target="_top" xlink:title="Loads the friends from the server.">
<polygon fill="white" stroke="#666666" points="555,-37 320,-37 320,-18 555,-18 555,-37"/>
<text text-anchor="middle" x="437.5" y="-25" font-family="Helvetica,sans-Serif" font-size="10.00">MainPage.FriendWindowHandler.LoadFriends</text>
</a>
</g>
</g>
<!-- Node1&#45;&gt;Node2 -->
<g id="edge1_Node000001_Node000002" class="edge">
<title>Node1&#45;&gt;Node2</title>
<g id="a_edge1_Node000001_Node000002"><a xlink:title=" ">
<path fill="none" stroke="#63b8ff" d="M580.69,-27.5C572.11,-27.5 563.5,-27.5 555,-27.5"/>
<polygon fill="#63b8ff" stroke="#63b8ff" points="580.75,-31 590.75,-27.5 580.75,-24 580.75,-31"/>
</a>
</g>
</g>
<!-- Node3 -->
<g id="Node000003" class="node">
<title>Node3</title>
<g id="a_Node000003"><a xlink:href="classMainPage_1_1FriendWindowHandler.html#aa9e14952826cc8ae861f67015c1156e1" target="_top" xlink:title="Shows the profile window.">
<polygon fill="white" stroke="#666666" points="243.5,-56 40.5,-56 40.5,-37 243.5,-37 243.5,-56"/>
<text text-anchor="middle" x="142" y="-44" font-family="Helvetica,sans-Serif" font-size="10.00">MainPage.FriendWindowHandler.Show</text>
</a>
</g>
</g>
<!-- Node2&#45;&gt;Node3 -->
<g id="edge2_Node000002_Node000003" class="edge">
<title>Node2&#45;&gt;Node3</title>
<g id="a_edge2_Node000002_Node000003"><a xlink:title=" ">
<path fill="none" stroke="#63b8ff" d="M309.6,-35.71C287.6,-37.14 265,-38.6 243.82,-39.97"/>
<polygon fill="#63b8ff" stroke="#63b8ff" points="309.9,-39.2 319.66,-35.06 309.45,-32.22 309.9,-39.2"/>
</a>
</g>
</g>
<!-- Node4 -->
<g id="Node000004" class="node">
<title>Node4</title>
<g id="a_Node000004"><a xlink:href="classMainPage_1_1FriendWindowHandler.html#af27eee4e5b363a39878fe5f94c03f9cd" target="_top" xlink:title="Changed event for pending checkbox Loads/Unloads the pending friend requests.">
<polygon fill="white" stroke="#666666" points="284,-19 0,-19 0,0 284,0 284,-19"/>
<text text-anchor="middle" x="142" y="-7" font-family="Helvetica,sans-Serif" font-size="10.00">MainPage.FriendWindowHandler.ShowPendingChanged</text>
</a>
</g>
</g>
<!-- Node2&#45;&gt;Node4 -->
<g id="edge3_Node000002_Node000004" class="edge">
<title>Node2&#45;&gt;Node4</title>
<g id="a_edge3_Node000002_Node000004"><a xlink:title=" ">
<path fill="none" stroke="#63b8ff" d="M309.48,-19.71C301.09,-19.2 292.62,-18.68 284.17,-18.16"/>
<polygon fill="#63b8ff" stroke="#63b8ff" points="309.46,-23.22 319.66,-20.33 309.89,-16.23 309.46,-23.22"/>
</a>
</g>
</g>
</g>
</svg>
