<?xml version="1.0" encoding="UTF-8" standalone="no"?>
<!DOCTYPE svg PUBLIC "-//W3C//DTD SVG 1.1//EN"
 "http://www.w3.org/Graphics/SVG/1.1/DTD/svg11.dtd">
<!-- Generated by graphviz version 2.43.0 (0)
 -->
<!-- Title: Utility.ModalWindow.Show Pages: 1 -->
<svg width="1347pt" height="623pt"
 viewBox="0.00 0.00 1347.00 623.12" xmlns="http://www.w3.org/2000/svg" xmlns:xlink="http://www.w3.org/1999/xlink">
<g id="graph0" class="graph" transform="scale(1 1) rotate(0) translate(4 619.12)">
<title>Utility.ModalWindow.Show</title>
<polygon fill="white" stroke="transparent" points="-4,4 -4,-619.12 1343,-619.12 1343,4 -4,4"/>
<!-- Node1 -->
<g id="node1" class="node">
<title>Node1</title>
<g id="a_node1"><a xlink:title="Show the modal window">
<polygon fill="#bfbfbf" stroke="black" points="1193,-354.5 1193,-373.5 1339,-373.5 1339,-354.5 1193,-354.5"/>
<text text-anchor="middle" x="1266" y="-361.5" font-family="Helvetica,sans-Serif" font-size="10.00">Utility.ModalWindow.Show</text>
</a>
</g>
</g>
<!-- Node2 -->
<g id="node2" class="node">
<title>Node2</title>
<g id="a_node2"><a xlink:href="classUser_1_1UserController.html#ae7159709fe17c18b3f9e3a15617c1db1" target="_top" xlink:title="Send a register request with the register panel&#39;s fields">
<polygon fill="white" stroke="black" points="610.5,-582.5 610.5,-601.5 789.5,-601.5 789.5,-582.5 610.5,-582.5"/>
<text text-anchor="middle" x="700" y="-589.5" font-family="Helvetica,sans-Serif" font-size="10.00">User.UserController.SendRegister</text>
</a>
</g>
</g>
<!-- Node1&#45;&gt;Node2 -->
<g id="edge1" class="edge">
<title>Node1&#45;&gt;Node2</title>
<path fill="none" stroke="midnightblue" d="M1260.4,-383.5C1249.84,-423.38 1219.84,-513.85 1157,-554 1028.63,-636.01 836.73,-616.49 748.49,-601.52"/>
<polygon fill="midnightblue" stroke="midnightblue" points="1263.82,-384.23 1262.87,-373.68 1257.03,-382.52 1263.82,-384.23"/>
</g>
<!-- Node3 -->
<g id="node3" class="node">
<title>Node3</title>
<g id="a_node3"><a xlink:href="classUtility_1_1ModalWindow.html#aefa109efe486b5a93c22bef9105bf2ee" target="_top" xlink:title="Show the modal window with custom content">
<polygon fill="white" stroke="black" points="941,-525.5 941,-544.5 1087,-544.5 1087,-525.5 941,-525.5"/>
<text text-anchor="middle" x="1014" y="-532.5" font-family="Helvetica,sans-Serif" font-size="10.00">Utility.ModalWindow.Show</text>
</a>
</g>
</g>
<!-- Node1&#45;&gt;Node3 -->
<g id="edge2" class="edge">
<title>Node1&#45;&gt;Node3</title>
<path fill="none" stroke="midnightblue" d="M1257.55,-383.03C1243.46,-416.25 1209.52,-484.3 1157,-516 1136.24,-528.53 1110.69,-534.27 1087.02,-536.58"/>
<polygon fill="midnightblue" stroke="midnightblue" points="1260.88,-384.14 1261.43,-373.56 1254.4,-381.49 1260.88,-384.14"/>
</g>
<!-- Node4 -->
<g id="node4" class="node">
<title>Node4</title>
<g id="a_node4"><a xlink:href="classUser_1_1UserController.html#a156a37eabac915f5d287201599b3a0b1" target="_top" xlink:title="Show the login error on the modal window">
<polygon fill="white" stroke="black" points="919,-449.5 919,-468.5 1109,-468.5 1109,-449.5 919,-449.5"/>
<text text-anchor="middle" x="1014" y="-456.5" font-family="Helvetica,sans-Serif" font-size="10.00">User.UserController.ShowLoginError</text>
</a>
</g>
</g>
<!-- Node1&#45;&gt;Node4 -->
<g id="edge3" class="edge">
<title>Node1&#45;&gt;Node4</title>
<path fill="none" stroke="midnightblue" d="M1247.52,-380.39C1227.38,-398.25 1192.46,-426.12 1157,-440 1141.95,-445.89 1125.38,-450.02 1109.04,-452.89"/>
<polygon fill="midnightblue" stroke="midnightblue" points="1249.91,-382.95 1254.97,-373.65 1245.21,-377.77 1249.91,-382.95"/>
</g>
<!-- Node6 -->
<g id="node6" class="node">
<title>Node6</title>
<g id="a_node6"><a xlink:href="classUser_1_1UserController.html#a07a456882c4f5619e468f30cc0cdf76c" target="_top" xlink:title="Show the register error on the modal window">
<polygon fill="white" stroke="black" points="912,-487.5 912,-506.5 1116,-506.5 1116,-487.5 912,-487.5"/>
<text text-anchor="middle" x="1014" y="-494.5" font-family="Helvetica,sans-Serif" font-size="10.00">User.UserController.ShowRegisterError</text>
</a>
</g>
</g>
<!-- Node1&#45;&gt;Node6 -->
<g id="edge5" class="edge">
<title>Node1&#45;&gt;Node6</title>
<path fill="none" stroke="midnightblue" d="M1253.62,-382.31C1236.3,-408.42 1200.67,-455.67 1157,-478 1144.38,-484.46 1130.34,-488.98 1116.13,-492.11"/>
<polygon fill="midnightblue" stroke="midnightblue" points="1256.68,-384.03 1259.16,-373.73 1250.79,-380.24 1256.68,-384.03"/>
</g>
<!-- Node7 -->
<g id="node7" class="node">
<title>Node7</title>
<g id="a_node7"><a xlink:href="classGame_1_1UI_1_1GameUI.html#ac464d5a547acb44085748e2ee265272f" target="_top" xlink:title="Show if the request failed on the modal window">
<polygon fill="white" stroke="black" points="920,-411.5 920,-430.5 1108,-430.5 1108,-411.5 920,-411.5"/>
<text text-anchor="middle" x="1014" y="-418.5" font-family="Helvetica,sans-Serif" font-size="10.00">Game.UI.GameUI.ShowRequestFail</text>
</a>
</g>
</g>
<!-- Node1&#45;&gt;Node7 -->
<g id="edge7" class="edge">
<title>Node1&#45;&gt;Node7</title>
<path fill="none" stroke="midnightblue" d="M1213.32,-375.78C1167.04,-386.33 1100.03,-401.61 1056.98,-411.43"/>
<polygon fill="midnightblue" stroke="midnightblue" points="1214.18,-379.18 1223.16,-373.54 1212.63,-372.35 1214.18,-379.18"/>
</g>
<!-- Node18 -->
<g id="node18" class="node">
<title>Node18</title>
<g id="a_node18"><a xlink:href="classGame_1_1UI_1_1LeaderboardWindow.html#add244b5633e10a828542b586844e9ef2" target="_top" xlink:title="Show if the request failed in the modal">
<polygon fill="white" stroke="black" points="890.5,-354.5 890.5,-373.5 1137.5,-373.5 1137.5,-354.5 890.5,-354.5"/>
<text text-anchor="middle" x="1014" y="-361.5" font-family="Helvetica,sans-Serif" font-size="10.00">Game.UI.LeaderboardWindow.ShowRequestFail</text>
</a>
</g>
</g>
<!-- Node1&#45;&gt;Node18 -->
<g id="edge19" class="edge">
<title>Node1&#45;&gt;Node18</title>
<path fill="none" stroke="midnightblue" d="M1182.37,-364C1167.98,-364 1152.74,-364 1137.55,-364"/>
<polygon fill="midnightblue" stroke="midnightblue" points="1182.69,-367.5 1192.69,-364 1182.69,-360.5 1182.69,-367.5"/>
</g>
<!-- Node22 -->
<g id="node22" class="node">
<title>Node22</title>
<g id="a_node22"><a xlink:href="classGame_1_1UI_1_1ShopWindow.html#ab11a75acddb1467e29d7624a4d12b8b9" target="_top" xlink:title="Show if the request failed on the modal window">
<polygon fill="white" stroke="black" points="909,-316.5 909,-335.5 1119,-335.5 1119,-316.5 909,-316.5"/>
<text text-anchor="middle" x="1014" y="-323.5" font-family="Helvetica,sans-Serif" font-size="10.00">Game.UI.ShopWindow.ShowRequestFail</text>
</a>
</g>
</g>
<!-- Node1&#45;&gt;Node22 -->
<g id="edge23" class="edge">
<title>Node1&#45;&gt;Node22</title>
<path fill="none" stroke="midnightblue" d="M1203.18,-352.67C1188.09,-350.03 1171.98,-347.32 1157,-345 1135.49,-341.67 1112.1,-338.4 1090.62,-335.53"/>
<polygon fill="midnightblue" stroke="midnightblue" points="1202.98,-356.19 1213.43,-354.48 1204.19,-349.3 1202.98,-356.19"/>
</g>
<!-- Node28 -->
<g id="node28" class="node">
<title>Node28</title>
<g id="a_node28"><a xlink:href="classMainPage_1_1MainWindowController.html#aca9938481cb1ebf9d9b46ca9779e48f4" target="_top" xlink:title="Show the server request fail in the modal window">
<polygon fill="white" stroke="black" points="882.5,-273.5 882.5,-292.5 1145.5,-292.5 1145.5,-273.5 882.5,-273.5"/>
<text text-anchor="middle" x="1014" y="-280.5" font-family="Helvetica,sans-Serif" font-size="10.00">MainPage.MainWindowController.ShowRequestFail</text>
</a>
</g>
</g>
<!-- Node1&#45;&gt;Node28 -->
<g id="edge30" class="edge">
<title>Node1&#45;&gt;Node28</title>
<path fill="none" stroke="midnightblue" d="M1241.67,-348.88C1220.43,-335.81 1187.79,-317.43 1157,-307 1138.41,-300.7 1117.87,-296.01 1098.32,-292.53"/>
<polygon fill="midnightblue" stroke="midnightblue" points="1239.97,-351.94 1250.31,-354.29 1243.69,-346.01 1239.97,-351.94"/>
</g>
<!-- Node31 -->
<g id="node31" class="node">
<title>Node31</title>
<g id="a_node31"><a xlink:href="classMainPage_1_1FriendWindowHandler.html#a426fe4fa5825088784861d79cf48048d" target="_top" xlink:title="Show api request failure">
<polygon fill="white" stroke="black" points="884.5,-224.5 884.5,-243.5 1143.5,-243.5 1143.5,-224.5 884.5,-224.5"/>
<text text-anchor="middle" x="1014" y="-231.5" font-family="Helvetica,sans-Serif" font-size="10.00">MainPage.FriendWindowHandler.ShowRequestFail</text>
</a>
</g>
</g>
<!-- Node1&#45;&gt;Node31 -->
<g id="edge33" class="edge">
<title>Node1&#45;&gt;Node31</title>
<path fill="none" stroke="midnightblue" d="M1251.23,-346.35C1232.47,-323.6 1196.64,-284.52 1157,-264 1138.65,-254.5 1117.49,-248.01 1097.19,-243.58"/>
<polygon fill="midnightblue" stroke="midnightblue" points="1248.56,-348.61 1257.56,-354.2 1254.01,-344.22 1248.56,-348.61"/>
</g>
<!-- Node33 -->
<g id="node33" class="node">
<title>Node33</title>
<g id="a_node33"><a xlink:href="classMainPage_1_1TaskHistoryWindowHandler.html#a74232871cc96faede9c1b89314bc7ce6" target="_top" xlink:title="Show the server response errors">
<polygon fill="white" stroke="black" points="871,-164.5 871,-183.5 1157,-183.5 1157,-164.5 871,-164.5"/>
<text text-anchor="middle" x="1014" y="-171.5" font-family="Helvetica,sans-Serif" font-size="10.00">MainPage.TaskHistoryWindowHandler.ShowRequestFail</text>
</a>
</g>
</g>
<!-- Node1&#45;&gt;Node33 -->
<g id="edge35" class="edge">
<title>Node1&#45;&gt;Node33</title>
<path fill="none" stroke="midnightblue" d="M1256.52,-345.2C1241.24,-313.48 1206.07,-249.47 1157,-215 1134.64,-199.29 1106.31,-189.56 1080.84,-183.55"/>
<polygon fill="midnightblue" stroke="midnightblue" points="1253.36,-346.71 1260.77,-354.28 1259.7,-343.74 1253.36,-346.71"/>
</g>
<!-- Node36 -->
<g id="node36" class="node">
<title>Node36</title>
<g id="a_node36"><a xlink:href="classMainPage_1_1MainWindowController.html#afea342e3985134e17406ed61958ecc6f" target="_top" xlink:title="Show the task request fail in the modal window">
<polygon fill="white" stroke="black" points="891.5,-76.5 891.5,-95.5 1136.5,-95.5 1136.5,-76.5 891.5,-76.5"/>
<text text-anchor="middle" x="1014" y="-83.5" font-family="Helvetica,sans-Serif" font-size="10.00">MainPage.MainWindowController.ShowTaskFail</text>
</a>
</g>
</g>
<!-- Node1&#45;&gt;Node36 -->
<g id="edge38" class="edge">
<title>Node1&#45;&gt;Node36</title>
<path fill="none" stroke="midnightblue" d="M1259.6,-344.73C1247.48,-304.61 1214.57,-211.17 1157,-155 1126.3,-125.04 1080.06,-105.93 1048.76,-95.59"/>
<polygon fill="midnightblue" stroke="midnightblue" points="1256.25,-345.74 1262.41,-354.35 1262.97,-343.77 1256.25,-345.74"/>
</g>
<!-- Node5 -->
<g id="node5" class="node">
<title>Node5</title>
<g id="a_node5"><a xlink:href="classUser_1_1UserController.html#a7d9a8e16cdb6bc3702ab7987cc141b09" target="_top" xlink:title="Send a login request with the login panel&#39;s fields">
<polygon fill="white" stroke="black" points="618,-544.5 618,-563.5 782,-563.5 782,-544.5 618,-544.5"/>
<text text-anchor="middle" x="700" y="-551.5" font-family="Helvetica,sans-Serif" font-size="10.00">User.UserController.SendLogin</text>
</a>
</g>
</g>
<!-- Node4&#45;&gt;Node5 -->
<g id="edge4" class="edge">
<title>Node4&#45;&gt;Node5</title>
<path fill="none" stroke="midnightblue" d="M908.94,-462.14C895.5,-465.58 882.46,-470.65 871,-478 845.78,-494.18 860.16,-518.73 835,-535 819.41,-545.08 800.69,-550.75 782.24,-553.77"/>
<polygon fill="midnightblue" stroke="midnightblue" points="909.79,-465.54 918.77,-459.92 908.24,-458.71 909.79,-465.54"/>
</g>
<!-- Node6&#45;&gt;Node2 -->
<g id="edge6" class="edge">
<title>Node6&#45;&gt;Node2</title>
<path fill="none" stroke="midnightblue" d="M902,-502.08C891.03,-505.4 880.47,-509.92 871,-516 845.78,-532.18 860.16,-556.73 835,-573 821.49,-581.74 805.61,-587.17 789.6,-590.42"/>
<polygon fill="midnightblue" stroke="midnightblue" points="902.98,-505.44 911.73,-499.45 901.16,-498.68 902.98,-505.44"/>
</g>
<!-- Node8 -->
<g id="node8" class="node">
<title>Node8</title>
<g id="a_node8"><a xlink:href="classGame_1_1UI_1_1GameUI.html#acd930ff070019fc74a3795a8b1452923" target="_top" xlink:title="Buy the immunity power up">
<polygon fill="white" stroke="black" points="614.5,-506.5 614.5,-525.5 785.5,-525.5 785.5,-506.5 614.5,-506.5"/>
<text text-anchor="middle" x="700" y="-513.5" font-family="Helvetica,sans-Serif" font-size="10.00">Game.UI.GameUI.BuyImmunity</text>
</a>
</g>
</g>
<!-- Node7&#45;&gt;Node8 -->
<g id="edge8" class="edge">
<title>Node7&#45;&gt;Node8</title>
<path fill="none" stroke="midnightblue" d="M909.83,-423.92C896.08,-427.36 882.71,-432.49 871,-440 845.78,-456.18 860.16,-480.73 835,-497 820.4,-506.44 803.04,-512.02 785.75,-515.16"/>
<polygon fill="midnightblue" stroke="midnightblue" points="910.87,-427.27 919.88,-421.7 909.36,-420.43 910.87,-427.27"/>
</g>
<!-- Node10 -->
<g id="node10" class="node">
<title>Node10</title>
<g id="a_node10"><a xlink:href="classGame_1_1UI_1_1GameUI.html#a97a84e72b5ac1d245d1bfd3eb802fdfd" target="_top" xlink:title="Buy the turbo power up">
<polygon fill="white" stroke="black" points="625,-468.5 625,-487.5 775,-487.5 775,-468.5 625,-468.5"/>
<text text-anchor="middle" x="700" y="-475.5" font-family="Helvetica,sans-Serif" font-size="10.00">Game.UI.GameUI.BuyTurbo</text>
</a>
</g>
</g>
<!-- Node7&#45;&gt;Node10 -->
<g id="edge10" class="edge">
<title>Node7&#45;&gt;Node10</title>
<path fill="none" stroke="midnightblue" d="M909.81,-430.44C896.59,-432.92 883.37,-436.05 871,-440 853.77,-445.51 852.21,-453.43 835,-459 816,-465.15 794.84,-469.32 775.06,-472.13"/>
<polygon fill="midnightblue" stroke="midnightblue" points="910.67,-433.84 919.91,-428.67 909.46,-426.95 910.67,-433.84"/>
</g>
<!-- Node11 -->
<g id="node11" class="node">
<title>Node11</title>
<g id="a_node11"><a xlink:href="classGame_1_1UI_1_1GameUI.html#aaed9ba7f6e28b2260d488f01c803e60a" target="_top" xlink:title="Buy the double coins bonus">
<polygon fill="white" stroke="black" points="616.5,-430.5 616.5,-449.5 783.5,-449.5 783.5,-430.5 616.5,-430.5"/>
<text text-anchor="middle" x="700" y="-437.5" font-family="Helvetica,sans-Serif" font-size="10.00">Game.UI.GameUI.DoubleCoins</text>
</a>
</g>
</g>
<!-- Node7&#45;&gt;Node11 -->
<g id="edge12" class="edge">
<title>Node7&#45;&gt;Node11</title>
<path fill="none" stroke="midnightblue" d="M909.8,-427.28C868.82,-429.78 822.33,-432.61 783.64,-434.97"/>
<polygon fill="midnightblue" stroke="midnightblue" points="910.04,-430.78 919.81,-426.67 909.62,-423.79 910.04,-430.78"/>
</g>
<!-- Node12 -->
<g id="node12" class="node">
<title>Node12</title>
<g id="a_node12"><a xlink:href="classGame_1_1UI_1_1GameUI.html#a4f9c8b23e2a0e5d86c53377ece2c9bac" target="_top" xlink:title="Save the game&#39;s result">
<polygon fill="white" stroke="black" points="605.5,-392.5 605.5,-411.5 794.5,-411.5 794.5,-392.5 605.5,-392.5"/>
<text text-anchor="middle" x="700" y="-399.5" font-family="Helvetica,sans-Serif" font-size="10.00">Game.UI.GameUI.SaveGameResult</text>
</a>
</g>
</g>
<!-- Node7&#45;&gt;Node12 -->
<g id="edge13" class="edge">
<title>Node7&#45;&gt;Node12</title>
<path fill="none" stroke="midnightblue" d="M909.47,-414.7C872.35,-412.43 830.74,-409.9 794.52,-407.69"/>
<polygon fill="midnightblue" stroke="midnightblue" points="909.62,-418.21 919.81,-415.33 910.04,-411.22 909.62,-418.21"/>
</g>
<!-- Node9 -->
<g id="node9" class="node">
<title>Node9</title>
<g id="a_node9"><a xlink:href="classGame_1_1UI_1_1GameUI.html#a77f6894867ecdecc2f7ca4bea695849f" target="_top" xlink:title="Called every frame">
<polygon fill="white" stroke="black" points="341.5,-487.5 341.5,-506.5 481.5,-506.5 481.5,-487.5 341.5,-487.5"/>
<text text-anchor="middle" x="411.5" y="-494.5" font-family="Helvetica,sans-Serif" font-size="10.00">Game.UI.GameUI.Update</text>
</a>
</g>
</g>
<!-- Node8&#45;&gt;Node9 -->
<g id="edge9" class="edge">
<title>Node8&#45;&gt;Node9</title>
<path fill="none" stroke="midnightblue" d="M604.16,-509.71C564.15,-507.06 518.42,-504.02 481.67,-501.59"/>
<polygon fill="midnightblue" stroke="midnightblue" points="603.99,-513.21 614.2,-510.38 604.46,-506.22 603.99,-513.21"/>
</g>
<!-- Node10&#45;&gt;Node9 -->
<g id="edge11" class="edge">
<title>Node10&#45;&gt;Node9</title>
<path fill="none" stroke="midnightblue" d="M614.85,-483.58C572.56,-486.39 521.94,-489.74 481.91,-492.4"/>
<polygon fill="midnightblue" stroke="midnightblue" points="615.1,-487.07 624.85,-482.92 614.64,-480.09 615.1,-487.07"/>
</g>
<!-- Node13 -->
<g id="node13" class="node">
<title>Node13</title>
<g id="a_node13"><a xlink:href="classGame_1_1UI_1_1GameUI.html#a87baf7b6bd70298f817e2c8e5e52a33a" target="_top" xlink:title="Hide the game over screen">
<polygon fill="white" stroke="black" points="305,-411.5 305,-430.5 518,-430.5 518,-411.5 305,-411.5"/>
<text text-anchor="middle" x="411.5" y="-418.5" font-family="Helvetica,sans-Serif" font-size="10.00">Game.UI.GameUI.HideGameOverScreen</text>
</a>
</g>
</g>
<!-- Node12&#45;&gt;Node13 -->
<g id="edge14" class="edge">
<title>Node12&#45;&gt;Node13</title>
<path fill="none" stroke="midnightblue" d="M594.97,-408.9C569.97,-410.56 543.25,-412.33 518.18,-413.99"/>
<polygon fill="midnightblue" stroke="midnightblue" points="595.44,-412.38 605.19,-408.22 594.98,-405.39 595.44,-412.38"/>
</g>
<!-- Node14 -->
<g id="node14" class="node">
<title>Node14</title>
<g id="a_node14"><a xlink:href="classGame_1_1UI_1_1GameUI.html#ae468c173078a10af94f671a2f8db940b" target="_top" xlink:title="Show the main menu">
<polygon fill="white" stroke="black" points="31,-487.5 31,-506.5 227,-506.5 227,-487.5 31,-487.5"/>
<text text-anchor="middle" x="129" y="-494.5" font-family="Helvetica,sans-Serif" font-size="10.00">Game.UI.GameUI.BackToGameMenu</text>
</a>
</g>
</g>
<!-- Node13&#45;&gt;Node14 -->
<g id="edge15" class="edge">
<title>Node13&#45;&gt;Node14</title>
<path fill="none" stroke="midnightblue" d="M380.04,-434.56C349.69,-447.55 301.46,-466.78 258,-478 243.21,-481.82 227.24,-484.95 211.77,-487.48"/>
<polygon fill="midnightblue" stroke="midnightblue" points="381.45,-437.76 389.24,-430.58 378.67,-431.34 381.45,-437.76"/>
</g>
<!-- Node15 -->
<g id="node15" class="node">
<title>Node15</title>
<g id="a_node15"><a xlink:href="classGame_1_1UI_1_1GameUI.html#aaec0b0e9165ba1d2dc25f1c562f5478a" target="_top" xlink:title="Show the main menu, but don&#39;t save the scores">
<polygon fill="white" stroke="black" points="0,-449.5 0,-468.5 258,-468.5 258,-449.5 0,-449.5"/>
<text text-anchor="middle" x="129" y="-456.5" font-family="Helvetica,sans-Serif" font-size="10.00">Game.UI.GameUI.BackToGameMenuWithoutSave</text>
</a>
</g>
</g>
<!-- Node13&#45;&gt;Node15 -->
<g id="edge16" class="edge">
<title>Node13&#45;&gt;Node15</title>
<path fill="none" stroke="midnightblue" d="M330.14,-431.89C289.2,-437.43 239.88,-444.11 200.45,-449.46"/>
<polygon fill="midnightblue" stroke="midnightblue" points="330.64,-435.35 340.08,-430.54 329.7,-428.41 330.64,-435.35"/>
</g>
<!-- Node16 -->
<g id="node16" class="node">
<title>Node16</title>
<g id="a_node16"><a xlink:href="classGame_1_1UI_1_1GameUI.html#a4248468e8aaa0b1f7bb24162e9bef6c7" target="_top" xlink:title="Move back to the tasks">
<polygon fill="white" stroke="black" points="45.5,-411.5 45.5,-430.5 212.5,-430.5 212.5,-411.5 45.5,-411.5"/>
<text text-anchor="middle" x="129" y="-418.5" font-family="Helvetica,sans-Serif" font-size="10.00">Game.UI.GameUI.BackToTasks</text>
</a>
</g>
</g>
<!-- Node13&#45;&gt;Node16 -->
<g id="edge17" class="edge">
<title>Node13&#45;&gt;Node16</title>
<path fill="none" stroke="midnightblue" d="M294.79,-421C267.3,-421 238.5,-421 212.82,-421"/>
<polygon fill="midnightblue" stroke="midnightblue" points="294.85,-424.5 304.85,-421 294.85,-417.5 294.85,-424.5"/>
</g>
<!-- Node17 -->
<g id="node17" class="node">
<title>Node17</title>
<g id="a_node17"><a xlink:href="classGame_1_1UI_1_1GameUI.html#ad581ee67e01ac3bcdec06cf2538f06e4" target="_top" xlink:title="Start a new game">
<polygon fill="white" stroke="black" points="51,-373.5 51,-392.5 207,-392.5 207,-373.5 51,-373.5"/>
<text text-anchor="middle" x="129" y="-380.5" font-family="Helvetica,sans-Serif" font-size="10.00">Game.UI.GameUI.NewGame</text>
</a>
</g>
</g>
<!-- Node13&#45;&gt;Node17 -->
<g id="edge18" class="edge">
<title>Node13&#45;&gt;Node17</title>
<path fill="none" stroke="midnightblue" d="M330.14,-410.11C289.2,-404.57 239.88,-397.89 200.45,-392.54"/>
<polygon fill="midnightblue" stroke="midnightblue" points="329.7,-413.59 340.08,-411.46 330.64,-406.65 329.7,-413.59"/>
</g>
<!-- Node19 -->
<g id="node19" class="node">
<title>Node19</title>
<g id="a_node19"><a xlink:href="classGame_1_1UI_1_1LeaderboardWindow.html#a6d7212efa2c2627d119bac3318ea0d00" target="_top" xlink:title="Load the scores">
<polygon fill="white" stroke="black" points="590,-354.5 590,-373.5 810,-373.5 810,-354.5 590,-354.5"/>
<text text-anchor="middle" x="700" y="-361.5" font-family="Helvetica,sans-Serif" font-size="10.00">Game.UI.LeaderboardWindow.LoadScores</text>
</a>
</g>
</g>
<!-- Node18&#45;&gt;Node19 -->
<g id="edge20" class="edge">
<title>Node18&#45;&gt;Node19</title>
<path fill="none" stroke="midnightblue" d="M879.86,-364C856.58,-364 832.61,-364 810.08,-364"/>
<polygon fill="midnightblue" stroke="midnightblue" points="880.14,-367.5 890.14,-364 880.14,-360.5 880.14,-367.5"/>
</g>
<!-- Node20 -->
<g id="node20" class="node">
<title>Node20</title>
<g id="a_node20"><a xlink:href="classGame_1_1UI_1_1LeaderboardWindow.html#a8404b4a49a1f74f3b634ec77eb4b1d87" target="_top" xlink:title="Show the window">
<polygon fill="white" stroke="black" points="316,-354.5 316,-373.5 507,-373.5 507,-354.5 316,-354.5"/>
<text text-anchor="middle" x="411.5" y="-361.5" font-family="Helvetica,sans-Serif" font-size="10.00">Game.UI.LeaderboardWindow.Show</text>
</a>
</g>
</g>
<!-- Node19&#45;&gt;Node20 -->
<g id="edge21" class="edge">
<title>Node19&#45;&gt;Node20</title>
<path fill="none" stroke="midnightblue" d="M579.6,-364C555.47,-364 530.42,-364 507.28,-364"/>
<polygon fill="midnightblue" stroke="midnightblue" points="579.87,-367.5 589.87,-364 579.87,-360.5 579.87,-367.5"/>
</g>
<!-- Node21 -->
<g id="node21" class="node">
<title>Node21</title>
<g id="a_node21"><a xlink:href="classGame_1_1UI_1_1GameUI.html#a4258f849b2e7d8cdb72dd01c26de3a71" target="_top" xlink:title="Show the leaderboard window">
<polygon fill="white" stroke="black" points="33,-335.5 33,-354.5 225,-354.5 225,-335.5 33,-335.5"/>
<text text-anchor="middle" x="129" y="-342.5" font-family="Helvetica,sans-Serif" font-size="10.00">Game.UI.GameUI.ShowLeaderboard</text>
</a>
</g>
</g>
<!-- Node20&#45;&gt;Node21 -->
<g id="edge22" class="edge">
<title>Node20&#45;&gt;Node21</title>
<path fill="none" stroke="midnightblue" d="M305.88,-356.91C279.39,-355.12 251.1,-353.2 225.12,-351.44"/>
<polygon fill="midnightblue" stroke="midnightblue" points="305.71,-360.41 315.93,-357.59 306.19,-353.43 305.71,-360.41"/>
</g>
<!-- Node23 -->
<g id="node23" class="node">
<title>Node23</title>
<g id="a_node23"><a xlink:href="classGame_1_1UI_1_1ShopItem.html#a08030b9b33414329032136c2db442bef" target="_top" xlink:title="Buy this shop item">
<polygon fill="white" stroke="black" points="63.5,-287.5 63.5,-306.5 194.5,-306.5 194.5,-287.5 63.5,-287.5"/>
<text text-anchor="middle" x="129" y="-294.5" font-family="Helvetica,sans-Serif" font-size="10.00">Game.UI.ShopItem.Buy</text>
</a>
</g>
</g>
<!-- Node22&#45;&gt;Node23 -->
<g id="edge24" class="edge">
<title>Node22&#45;&gt;Node23</title>
<path fill="none" stroke="midnightblue" d="M898.75,-324.2C756.88,-321.68 507.5,-316.33 294,-307 261.23,-305.57 224.8,-303.4 194.62,-301.46"/>
<polygon fill="midnightblue" stroke="midnightblue" points="898.71,-327.7 908.77,-324.37 898.84,-320.7 898.71,-327.7"/>
</g>
<!-- Node24 -->
<g id="node24" class="node">
<title>Node24</title>
<g id="a_node24"><a xlink:href="classGame_1_1UI_1_1ShopWindow.html#a9297b39a0fa7a77e8cf3022bc28c0b35" target="_top" xlink:title="Update the shop items">
<polygon fill="white" stroke="black" points="606.5,-278.5 606.5,-297.5 793.5,-297.5 793.5,-278.5 606.5,-278.5"/>
<text text-anchor="middle" x="700" y="-285.5" font-family="Helvetica,sans-Serif" font-size="10.00">Game.UI.ShopWindow.UpdateShop</text>
</a>
</g>
</g>
<!-- Node22&#45;&gt;Node24 -->
<g id="edge25" class="edge">
<title>Node22&#45;&gt;Node24</title>
<path fill="none" stroke="midnightblue" d="M924.74,-315.25C878.9,-309.67 823.36,-302.9 779.09,-297.51"/>
<polygon fill="midnightblue" stroke="midnightblue" points="924.32,-318.73 934.67,-316.46 925.17,-311.78 924.32,-318.73"/>
</g>
<!-- Node25 -->
<g id="node25" class="node">
<title>Node25</title>
<g id="a_node25"><a xlink:href="classGame_1_1UI_1_1ShopItem.html#aba8c6371c3eeaecb2bb7ab1f07311869" target="_top" xlink:title="Callback when it is bought">
<polygon fill="white" stroke="black" points="338.5,-278.5 338.5,-297.5 484.5,-297.5 484.5,-278.5 338.5,-278.5"/>
<text text-anchor="middle" x="411.5" y="-285.5" font-family="Helvetica,sans-Serif" font-size="10.00">Game.UI.ShopItem.Bought</text>
</a>
</g>
</g>
<!-- Node24&#45;&gt;Node25 -->
<g id="edge26" class="edge">
<title>Node24&#45;&gt;Node25</title>
<path fill="none" stroke="midnightblue" d="M596.1,-288C559.26,-288 518.54,-288 484.83,-288"/>
<polygon fill="midnightblue" stroke="midnightblue" points="596.38,-291.5 606.38,-288 596.38,-284.5 596.38,-291.5"/>
</g>
<!-- Node26 -->
<g id="node26" class="node">
<title>Node26</title>
<g id="a_node26"><a xlink:href="classGame_1_1UI_1_1ShopWindow.html#ad9204f9c12eb8520523232c340f477b0" target="_top" xlink:title="Show the shop window">
<polygon fill="white" stroke="black" points="334.5,-240.5 334.5,-259.5 488.5,-259.5 488.5,-240.5 334.5,-240.5"/>
<text text-anchor="middle" x="411.5" y="-247.5" font-family="Helvetica,sans-Serif" font-size="10.00">Game.UI.ShopWindow.Show</text>
</a>
</g>
</g>
<!-- Node24&#45;&gt;Node26 -->
<g id="edge28" class="edge">
<title>Node24&#45;&gt;Node26</title>
<path fill="none" stroke="midnightblue" d="M616.92,-277.11C575.1,-271.57 524.73,-264.89 484.46,-259.54"/>
<polygon fill="midnightblue" stroke="midnightblue" points="616.7,-280.61 627.07,-278.46 617.62,-273.68 616.7,-280.61"/>
</g>
<!-- Node25&#45;&gt;Node23 -->
<g id="edge27" class="edge">
<title>Node25&#45;&gt;Node23</title>
<path fill="none" stroke="midnightblue" d="M328.21,-290.64C285.67,-292.01 234.5,-293.65 194.81,-294.92"/>
<polygon fill="midnightblue" stroke="midnightblue" points="328.38,-294.14 338.26,-290.32 328.16,-287.14 328.38,-294.14"/>
</g>
<!-- Node27 -->
<g id="node27" class="node">
<title>Node27</title>
<g id="a_node27"><a xlink:href="classGame_1_1UI_1_1GameUI.html#a443a0569c632ba816be0bd1511b62bca" target="_top" xlink:title="Display the shop window">
<polygon fill="white" stroke="black" points="32,-240.5 32,-259.5 226,-259.5 226,-240.5 32,-240.5"/>
<text text-anchor="middle" x="129" y="-247.5" font-family="Helvetica,sans-Serif" font-size="10.00">Game.UI.GameUI.ShowShopWindow</text>
</a>
</g>
</g>
<!-- Node26&#45;&gt;Node27 -->
<g id="edge29" class="edge">
<title>Node26&#45;&gt;Node27</title>
<path fill="none" stroke="midnightblue" d="M323.89,-250C292.91,-250 257.82,-250 226.09,-250"/>
<polygon fill="midnightblue" stroke="midnightblue" points="324.22,-253.5 334.22,-250 324.22,-246.5 324.22,-253.5"/>
</g>
<!-- Node29 -->
<g id="node29" class="node">
<title>Node29</title>
<g id="a_node29"><a xlink:href="classMainPage_1_1MainWindowController.html#a47c21c97b7ba52af405119044e1434d0" target="_top" xlink:title="Load the tasks from the server">
<polygon fill="white" stroke="black" points="585,-240.5 585,-259.5 815,-259.5 815,-240.5 585,-240.5"/>
<text text-anchor="middle" x="700" y="-247.5" font-family="Helvetica,sans-Serif" font-size="10.00">MainPage.MainWindowController.LoadTasks</text>
</a>
</g>
</g>
<!-- Node28&#45;&gt;Node29 -->
<g id="edge31" class="edge">
<title>Node28&#45;&gt;Node29</title>
<path fill="none" stroke="midnightblue" d="M913.07,-272.43C873.86,-268.28 829.19,-263.56 791,-259.52"/>
<polygon fill="midnightblue" stroke="midnightblue" points="912.86,-275.93 923.18,-273.5 913.6,-268.97 912.86,-275.93"/>
</g>
<!-- Node30 -->
<g id="node30" class="node">
<title>Node30</title>
<g id="a_node30"><a xlink:href="classMainPage_1_1MainWindowController.html#acea2170099ea435298139c6c7fdce719" target="_top" xlink:title="Start is called before the first frame update">
<polygon fill="white" stroke="black" points="310,-202.5 310,-221.5 513,-221.5 513,-202.5 310,-202.5"/>
<text text-anchor="middle" x="411.5" y="-209.5" font-family="Helvetica,sans-Serif" font-size="10.00">MainPage.MainWindowController.Start</text>
</a>
</g>
</g>
<!-- Node29&#45;&gt;Node30 -->
<g id="edge32" class="edge">
<title>Node29&#45;&gt;Node30</title>
<path fill="none" stroke="midnightblue" d="M616.92,-239.11C575.1,-233.57 524.73,-226.89 484.46,-221.54"/>
<polygon fill="midnightblue" stroke="midnightblue" points="616.7,-242.61 627.07,-240.46 617.62,-235.68 616.7,-242.61"/>
</g>
<!-- Node32 -->
<g id="node32" class="node">
<title>Node32</title>
<g id="a_node32"><a xlink:href="classMainPage_1_1FriendWindowHandler.html#ad0c4b894708ceb9acc635e9a87b306ae" target="_top" xlink:title="Sends a friend request to the user which was specified in the useridentification input">
<polygon fill="white" stroke="black" points="565,-202.5 565,-221.5 835,-221.5 835,-202.5 565,-202.5"/>
<text text-anchor="middle" x="700" y="-209.5" font-family="Helvetica,sans-Serif" font-size="10.00">MainPage.FriendWindowHandler.SendFriendRequest</text>
</a>
</g>
</g>
<!-- Node31&#45;&gt;Node32 -->
<g id="edge34" class="edge">
<title>Node31&#45;&gt;Node32</title>
<path fill="none" stroke="midnightblue" d="M874,-224.2C861.11,-223.29 848.06,-222.37 835.21,-221.46"/>
<polygon fill="midnightblue" stroke="midnightblue" points="874.07,-227.71 884.3,-224.92 874.57,-220.73 874.07,-227.71"/>
</g>
<!-- Node34 -->
<g id="node34" class="node">
<title>Node34</title>
<g id="a_node34"><a xlink:href="classMainPage_1_1TaskHistoryWindowHandler.html#ada3a664597d8e1b1b9a261c3c34badba" target="_top" xlink:title="Loads the task histories from the server">
<polygon fill="white" stroke="black" points="576,-153 576,-183 824,-183 824,-153 576,-153"/>
<text text-anchor="start" x="584" y="-171" font-family="Helvetica,sans-Serif" font-size="10.00">MainPage.TaskHistoryWindowHandler.LoadTask</text>
<text text-anchor="middle" x="700" y="-160" font-family="Helvetica,sans-Serif" font-size="10.00">Histories</text>
</a>
</g>
</g>
<!-- Node33&#45;&gt;Node34 -->
<g id="edge36" class="edge">
<title>Node33&#45;&gt;Node34</title>
<path fill="none" stroke="midnightblue" d="M860.44,-171.07C848.23,-170.83 835.98,-170.6 824,-170.37"/>
<polygon fill="midnightblue" stroke="midnightblue" points="860.63,-174.57 870.7,-171.26 860.76,-167.57 860.63,-174.57"/>
</g>
<!-- Node35 -->
<g id="node35" class="node">
<title>Node35</title>
<g id="a_node35"><a xlink:href="classMainPage_1_1TaskHistoryWindowHandler.html#aa726ff0b77b9245e98854bbd827ae9dd" target="_top" xlink:title="Shows the task history window">
<polygon fill="white" stroke="black" points="296.5,-158.5 296.5,-177.5 526.5,-177.5 526.5,-158.5 296.5,-158.5"/>
<text text-anchor="middle" x="411.5" y="-165.5" font-family="Helvetica,sans-Serif" font-size="10.00">MainPage.TaskHistoryWindowHandler.Show</text>
</a>
</g>
</g>
<!-- Node34&#45;&gt;Node35 -->
<g id="edge37" class="edge">
<title>Node34&#45;&gt;Node35</title>
<path fill="none" stroke="midnightblue" d="M565.82,-168C552.68,-168 539.43,-168 526.5,-168"/>
<polygon fill="midnightblue" stroke="midnightblue" points="565.84,-171.5 575.84,-168 565.84,-164.5 565.84,-171.5"/>
</g>
<!-- Node37 -->
<g id="node37" class="node">
<title>Node37</title>
<g id="a_node37"><a xlink:href="classMainPage_1_1TaskDisplayHandler.html#ab553f8eb77d9d038521af3813275a43d" target="_top" xlink:title="Complete the task and send this to the server">
<polygon fill="white" stroke="black" points="294,-57.5 294,-76.5 529,-76.5 529,-57.5 294,-57.5"/>
<text text-anchor="middle" x="411.5" y="-64.5" font-family="Helvetica,sans-Serif" font-size="10.00">MainPage.TaskDisplayHandler.CompleteTask</text>
</a>
</g>
</g>
<!-- Node36&#45;&gt;Node37 -->
<g id="edge39" class="edge">
<title>Node36&#45;&gt;Node37</title>
<path fill="none" stroke="midnightblue" d="M937.02,-96.79C847.66,-107.73 695.02,-120.95 565,-105 521.26,-99.63 472.02,-85.91 441.62,-76.52"/>
<polygon fill="midnightblue" stroke="midnightblue" points="937.58,-100.25 947.07,-95.53 936.71,-93.3 937.58,-100.25"/>
</g>
<!-- Node38 -->
<g id="node38" class="node">
<title>Node38</title>
<g id="a_node38"><a xlink:href="classMainPage_1_1TaskOpenPanelController.html#a3107b94793886f6af28ac9415fb44370" target="_top" xlink:title="Send a delete task request to the server">
<polygon fill="white" stroke="black" points="577.5,-76.5 577.5,-95.5 822.5,-95.5 822.5,-76.5 577.5,-76.5"/>
<text text-anchor="middle" x="700" y="-83.5" font-family="Helvetica,sans-Serif" font-size="10.00">MainPage.TaskOpenPanelController.DeleteTask</text>
</a>
</g>
</g>
<!-- Node36&#45;&gt;Node38 -->
<g id="edge40" class="edge">
<title>Node36&#45;&gt;Node38</title>
<path fill="none" stroke="midnightblue" d="M881.36,-86C861.91,-86 841.94,-86 822.7,-86"/>
<polygon fill="midnightblue" stroke="midnightblue" points="881.48,-89.5 891.48,-86 881.48,-82.5 881.48,-89.5"/>
</g>
<!-- Node39 -->
<g id="node39" class="node">
<title>Node39</title>
<g id="a_node39"><a xlink:href="classMainPage_1_1TaskOpenPanelController.html#ab8def75cd4cdbdaf3033022ea114a8a6" target="_top" xlink:title="Save the task to the server">
<polygon fill="white" stroke="black" points="592.5,-38.5 592.5,-57.5 807.5,-57.5 807.5,-38.5 592.5,-38.5"/>
<text text-anchor="middle" x="700" y="-45.5" font-family="Helvetica,sans-Serif" font-size="10.00">MainPage.TaskOpenPanelController.Save</text>
</a>
</g>
</g>
<!-- Node36&#45;&gt;Node39 -->
<g id="edge41" class="edge">
<title>Node36&#45;&gt;Node39</title>
<path fill="none" stroke="midnightblue" d="M924.74,-75.25C878.9,-69.67 823.36,-62.9 779.09,-57.51"/>
<polygon fill="midnightblue" stroke="midnightblue" points="924.32,-78.73 934.67,-76.46 925.17,-71.78 924.32,-78.73"/>
</g>
<!-- Node40 -->
<g id="node40" class="node">
<title>Node40</title>
<g id="a_node40"><a xlink:href="classMainPage_1_1TaskDisplayHandler.html#a98b63052d0efc73233a32b69a06bf68e" target="_top" xlink:title="When the complete acknowledge were recieved from the server update the display">
<polygon fill="white" stroke="black" points="579.5,-0.5 579.5,-19.5 820.5,-19.5 820.5,-0.5 579.5,-0.5"/>
<text text-anchor="middle" x="700" y="-7.5" font-family="Helvetica,sans-Serif" font-size="10.00">MainPage.TaskDisplayHandler.TaskCompleted</text>
</a>
</g>
</g>
<!-- Node36&#45;&gt;Node40 -->
<g id="edge42" class="edge">
<title>Node36&#45;&gt;Node40</title>
<path fill="none" stroke="midnightblue" d="M978.31,-72.96C942.78,-60.07 885.74,-40.63 835,-29 818.62,-25.25 800.94,-22.11 783.96,-19.53"/>
<polygon fill="midnightblue" stroke="midnightblue" points="977.14,-76.26 987.73,-76.41 979.55,-69.69 977.14,-76.26"/>
</g>
<!-- Node40&#45;&gt;Node37 -->
<g id="edge43" class="edge">
<title>Node40&#45;&gt;Node37</title>
<path fill="none" stroke="midnightblue" d="M611.72,-21.04C596.11,-23.4 580.04,-26.07 565,-29 523.89,-37.01 477.25,-49.08 446.49,-57.46"/>
<polygon fill="midnightblue" stroke="midnightblue" points="612.51,-24.47 621.89,-19.54 611.48,-17.54 612.51,-24.47"/>
</g>
</g>
</svg>
