<?xml version="1.0" encoding="UTF-8" standalone="no"?>
<!DOCTYPE svg PUBLIC "-//W3C//DTD SVG 1.1//EN"
 "http://www.w3.org/Graphics/SVG/1.1/DTD/svg11.dtd">
<!-- Generated by graphviz version 2.43.0 (0)
 -->
<!-- Title: MainPage.TaskOpenPanelController Pages: 1 -->
<!--zoomable 856 -->
<svg id="main" version="1.1" xmlns="http://www.w3.org/2000/svg" xmlns:xlink="http://www.w3.org/1999/xlink" xml:space="preserve" onload="init(evt)">
<style type="text/css"><![CDATA[
.edge:hover path { stroke: red; }
.edge:hover polygon { stroke: red; fill: red; }
]]></style>
<script type="text/javascript"><![CDATA[
var edges = document.getElementsByTagName('g');
if (edges && edges.length) {
  for (var i=0;i<edges.length;i++) {
    if (edges[i].id.substr(0,4)=='edge') {
      edges[i].setAttribute('class','edge');
    }
  }
}
]]></script>
        <defs>
                <circle id="rim" cx="0" cy="0" r="7"/>
                <circle id="rim2" cx="0" cy="0" r="3.5"/>
                <g id="zoomPlus">
                        <use xlink:href="#rim" fill="#404040">
                                <set attributeName="fill" to="#808080" begin="zoomplus.mouseover" end="zoomplus.mouseout"/>
                        </use>
                        <path d="M-4,0h8M0,-4v8" fill="none" stroke="white" stroke-width="1.5" pointer-events="none"/>
                </g>
                <g id="zoomMin">
                        <use xlink:href="#rim" fill="#404040">
                                <set attributeName="fill" to="#808080" begin="zoomminus.mouseover" end="zoomminus.mouseout"/>
                        </use>
                        <path d="M-4,0h8" fill="none" stroke="white" stroke-width="1.5" pointer-events="none"/>
                </g>
                <g id="dirArrow">
                        <path fill="none" stroke="white" stroke-width="1.5" d="M0,-3.0v7 M-2.5,-0.5L0,-3.0L2.5,-0.5"/>
                </g>
               <g id="resetDef">
                       <use xlink:href="#rim2" fill="#404040">
                               <set attributeName="fill" to="#808080" begin="reset.mouseover" end="reset.mouseout"/>
                       </use>
               </g>
        </defs>

<script type="text/javascript">
var viewWidth = 498;
var viewHeight = 856;
var sectionId = 'dynsection-1';
</script>
<script xlink:href="svgpan.js"/>
<svg id="graph" class="graph">
<g id="viewport">
<title>MainPage.TaskOpenPanelController</title>
<polygon fill="white" stroke="transparent" points="-4,4 -4,-852 493.5,-852 493.5,4 -4,4"/>
<!-- Node1 -->
<g id="node1" class="node">
<title>Node1</title>
<g id="a_node1"><a xlink:title="Controller for displaying, editing and creating tasks">
<polygon fill="#bfbfbf" stroke="black" points="0,-347.5 0,-657.5 224,-657.5 224,-347.5 0,-347.5"/>
<text text-anchor="middle" x="112" y="-645.5" font-family="Helvetica,sans-Serif" font-size="10.00">MainPage.TaskOpenPanelController</text>
<polyline fill="none" stroke="black" points="0,-638.5 224,-638.5 "/>
<text text-anchor="start" x="8" y="-626.5" font-family="Helvetica,sans-Serif" font-size="10.00">+ EventHandler&lt; TaskClosedEventArgs</text>
<text text-anchor="start" x="8" y="-615.5" font-family="Helvetica,sans-Serif" font-size="10.00"> &gt; TaskClosedEventHandler</text>
<text text-anchor="start" x="8" y="-604.5" font-family="Helvetica,sans-Serif" font-size="10.00">+ static readonly int[] TASKINTERVALS</text>
<text text-anchor="start" x="8" y="-593.5" font-family="Helvetica,sans-Serif" font-size="10.00">+ PlayerTask CurrentTask</text>
<text text-anchor="start" x="8" y="-582.5" font-family="Helvetica,sans-Serif" font-size="10.00">&#45; TMP_InputField taskNameInput</text>
<text text-anchor="start" x="8" y="-571.5" font-family="Helvetica,sans-Serif" font-size="10.00">&#45; TMP_Dropdown taskIntervals</text>
<text text-anchor="start" x="8" y="-560.5" font-family="Helvetica,sans-Serif" font-size="10.00">&#45; TMP_InputField descriptionInput</text>
<text text-anchor="start" x="8" y="-549.5" font-family="Helvetica,sans-Serif" font-size="10.00">&#45; Button goodTaskButton</text>
<text text-anchor="start" x="8" y="-538.5" font-family="Helvetica,sans-Serif" font-size="10.00">&#45; Button badHabitButton</text>
<text text-anchor="start" x="8" y="-527.5" font-family="Helvetica,sans-Serif" font-size="10.00">&#45; Button deleteTaskButton</text>
<text text-anchor="start" x="8" y="-516.5" font-family="Helvetica,sans-Serif" font-size="10.00">&#45; bool isNewTask</text>
<text text-anchor="start" x="8" y="-505.5" font-family="Helvetica,sans-Serif" font-size="10.00">&#45; PlayerTask playerTaskOnOpen</text>
<polyline fill="none" stroke="black" points="0,-498.5 224,-498.5 "/>
<text text-anchor="start" x="8" y="-486.5" font-family="Helvetica,sans-Serif" font-size="10.00">+ void OpenUp()</text>
<text text-anchor="start" x="8" y="-475.5" font-family="Helvetica,sans-Serif" font-size="10.00">+ void OpenUp(PlayerTask taskContainer</text>
<text text-anchor="start" x="8" y="-464.5" font-family="Helvetica,sans-Serif" font-size="10.00">=null, TaskType type=TaskType.GoodTask)</text>
<text text-anchor="start" x="8" y="-453.5" font-family="Helvetica,sans-Serif" font-size="10.00">+ void MakeItBadHabit()</text>
<text text-anchor="start" x="8" y="-442.5" font-family="Helvetica,sans-Serif" font-size="10.00">+ void MakeItGoodTask()</text>
<text text-anchor="start" x="8" y="-431.5" font-family="Helvetica,sans-Serif" font-size="10.00">+ void Cancel()</text>
<text text-anchor="start" x="8" y="-420.5" font-family="Helvetica,sans-Serif" font-size="10.00">+ void Save()</text>
<text text-anchor="start" x="8" y="-409.5" font-family="Helvetica,sans-Serif" font-size="10.00">+ void DeleteTask()</text>
<text text-anchor="start" x="8" y="-398.5" font-family="Helvetica,sans-Serif" font-size="10.00">&#45; void SavedTask(Thesis_backend.Data</text>
<text text-anchor="start" x="8" y="-387.5" font-family="Helvetica,sans-Serif" font-size="10.00">_Structures.PlayerTask savedTask)</text>
<text text-anchor="start" x="8" y="-376.5" font-family="Helvetica,sans-Serif" font-size="10.00">&#45; void DeletedTask(string result)</text>
<text text-anchor="start" x="8" y="-365.5" font-family="Helvetica,sans-Serif" font-size="10.00">&#45; void CollectFromFields()</text>
<text text-anchor="start" x="8" y="-354.5" font-family="Helvetica,sans-Serif" font-size="10.00">&#45; void UpdateButtons()</text>
</a>
</g>
</g>
<!-- Node4 -->
<g id="node4" class="node">
<title>Node4</title>
<g id="a_node4"><a xlink:href="classMainPage_1_1MainWindowController.html" target="_top" xlink:title="Handles the main window&#39;s controls">
<polygon fill="white" stroke="black" points="83.5,-0.5 83.5,-299.5 340.5,-299.5 340.5,-0.5 83.5,-0.5"/>
<text text-anchor="middle" x="212" y="-287.5" font-family="Helvetica,sans-Serif" font-size="10.00">MainPage.MainWindowController</text>
<polyline fill="none" stroke="black" points="83.5,-280.5 340.5,-280.5 "/>
<text text-anchor="start" x="91.5" y="-268.5" font-family="Helvetica,sans-Serif" font-size="10.00">+ Dictionary&lt; long, TaskDisplayHandler &gt; Tasks</text>
<text text-anchor="start" x="91.5" y="-257.5" font-family="Helvetica,sans-Serif" font-size="10.00">+ TaskSortType TaskSortType</text>
<text text-anchor="start" x="91.5" y="-246.5" font-family="Helvetica,sans-Serif" font-size="10.00">&#45; TMP_Text usernameText</text>
<text text-anchor="start" x="91.5" y="-235.5" font-family="Helvetica,sans-Serif" font-size="10.00">&#45; TMP_Text currentTaskScoreText</text>
<text text-anchor="start" x="91.5" y="-224.5" font-family="Helvetica,sans-Serif" font-size="10.00">&#45; GameObject taskParent</text>
<text text-anchor="start" x="91.5" y="-213.5" font-family="Helvetica,sans-Serif" font-size="10.00">&#45; GameObject taskPrefab</text>
<text text-anchor="start" x="91.5" y="-202.5" font-family="Helvetica,sans-Serif" font-size="10.00">&#45; TMP_Dropdown taskSortDropdown</text>
<polyline fill="none" stroke="black" points="83.5,-195.5 340.5,-195.5 "/>
<text text-anchor="start" x="91.5" y="-183.5" font-family="Helvetica,sans-Serif" font-size="10.00">+ void UpdateUserData(Thesis_backend.Data</text>
<text text-anchor="start" x="91.5" y="-172.5" font-family="Helvetica,sans-Serif" font-size="10.00">_Structures.User user)</text>
<text text-anchor="start" x="91.5" y="-161.5" font-family="Helvetica,sans-Serif" font-size="10.00">+ void RemoveTask(long taskId)</text>
<text text-anchor="start" x="91.5" y="-150.5" font-family="Helvetica,sans-Serif" font-size="10.00">+ void UpdateTaskLabel(long taskId)</text>
<text text-anchor="start" x="91.5" y="-139.5" font-family="Helvetica,sans-Serif" font-size="10.00">+ void SortingChanged()</text>
<text text-anchor="start" x="91.5" y="-128.5" font-family="Helvetica,sans-Serif" font-size="10.00">+ void LoadGoodTasks(bool updateDisplay=true)</text>
<text text-anchor="start" x="91.5" y="-117.5" font-family="Helvetica,sans-Serif" font-size="10.00">+ void LoadBadHabits(bool updateDisplay=true)</text>
<text text-anchor="start" x="91.5" y="-106.5" font-family="Helvetica,sans-Serif" font-size="10.00">+ GameObject CreateTask(PlayerTask</text>
<text text-anchor="start" x="91.5" y="-95.5" font-family="Helvetica,sans-Serif" font-size="10.00"> taskContainer)</text>
<text text-anchor="start" x="91.5" y="-84.5" font-family="Helvetica,sans-Serif" font-size="10.00">+ void ShowTaskFail(string content)</text>
<text text-anchor="start" x="91.5" y="-73.5" font-family="Helvetica,sans-Serif" font-size="10.00">+ void LoadGameScene()</text>
<text text-anchor="start" x="91.5" y="-62.5" font-family="Helvetica,sans-Serif" font-size="10.00">&#45; async void Start()</text>
<text text-anchor="start" x="91.5" y="-51.5" font-family="Helvetica,sans-Serif" font-size="10.00">&#45; void LoadTasks()</text>
<text text-anchor="start" x="91.5" y="-40.5" font-family="Helvetica,sans-Serif" font-size="10.00">&#45; void ShowRequestFail(string content)</text>
<text text-anchor="start" x="91.5" y="-29.5" font-family="Helvetica,sans-Serif" font-size="10.00">&#45; void CreateTaskPrefabs(List&lt; Thesis</text>
<text text-anchor="start" x="91.5" y="-18.5" font-family="Helvetica,sans-Serif" font-size="10.00">_backend.Data_Structures.PlayerTask</text>
<text text-anchor="start" x="91.5" y="-7.5" font-family="Helvetica,sans-Serif" font-size="10.00"> &gt; requestResult)</text>
</a>
</g>
</g>
<!-- Node1&#45;&gt;Node4 -->
<g id="edge5" class="edge">
<title>Node1&#45;&gt;Node4</title>
<path fill="none" stroke="#404040" d="M23.26,-347.38C23.69,-337.44 25.79,-327.58 30,-318 40.63,-293.83 56.67,-271.62 74.91,-251.84"/>
<polygon fill="none" stroke="#404040" points="75.14,-251.6 76.39,-244.49 83.43,-242.92 82.18,-250.02 75.14,-251.6"/>
<text text-anchor="middle" x="94" y="-321" font-family="Helvetica,sans-Serif" font-size="10.00"> &#45;taskOpenPanelController</text>
</g>
<!-- Node2 -->
<g id="node2" class="node">
<title>Node2</title>
<g id="a_node2"><a xlink:href="classUtility_1_1ThreadSafeMonoBehaviour.html" target="_top" xlink:title="Safely stores if the gameobject been destroyed in a bool">
<polygon fill="white" stroke="black" points="177.5,-695.5 177.5,-752.5 326.5,-752.5 326.5,-695.5 177.5,-695.5"/>
<text text-anchor="middle" x="252" y="-740.5" font-family="Helvetica,sans-Serif" font-size="10.00">ThreadSafeMonoBehaviour</text>
<polyline fill="none" stroke="black" points="177.5,-733.5 326.5,-733.5 "/>
<text text-anchor="start" x="185.5" y="-721.5" font-family="Helvetica,sans-Serif" font-size="10.00">+ bool Destroyed</text>
<polyline fill="none" stroke="black" points="177.5,-714.5 326.5,-714.5 "/>
<text text-anchor="start" x="185.5" y="-702.5" font-family="Helvetica,sans-Serif" font-size="10.00"># void OnDestroy()</text>
</a>
</g>
</g>
<!-- Node2&#45;&gt;Node1 -->
<g id="edge1" class="edge">
<title>Node2&#45;&gt;Node1</title>
<path fill="none" stroke="midnightblue" d="M228.81,-686.64C223.31,-678.01 217.1,-668.27 210.47,-657.89"/>
<polygon fill="none" stroke="midnightblue" points="225.94,-688.65 234.27,-695.2 231.84,-684.89 225.94,-688.65"/>
</g>
<!-- Node2&#45;&gt;Node4 -->
<g id="edge4" class="edge">
<title>Node2&#45;&gt;Node4</title>
<path fill="none" stroke="midnightblue" d="M250.74,-684.92C248.34,-616.98 242.49,-470.41 233,-347 232.01,-334.08 231.36,-330.89 230,-318 229.37,-312.06 228.73,-305.99 228.08,-299.87"/>
<polygon fill="none" stroke="midnightblue" points="247.25,-685.27 251.09,-695.14 254.24,-685.02 247.25,-685.27"/>
</g>
<!-- Node5 -->
<g id="node5" class="node">
<title>Node5</title>
<g id="a_node5"><a xlink:href="classUtility_1_1ModalWindow.html" target="_top" xlink:title="Modal window for alerting the user">
<polygon fill="white" stroke="black" points="280.5,-441 280.5,-564 489.5,-564 489.5,-441 280.5,-441"/>
<text text-anchor="middle" x="385" y="-552" font-family="Helvetica,sans-Serif" font-size="10.00">Utility.ModalWindow</text>
<polyline fill="none" stroke="black" points="280.5,-545 489.5,-545 "/>
<text text-anchor="start" x="288.5" y="-533" font-family="Helvetica,sans-Serif" font-size="10.00">&#45; TMP_Text ModalTitleText</text>
<text text-anchor="start" x="288.5" y="-522" font-family="Helvetica,sans-Serif" font-size="10.00">&#45; TMP_Text ModalContentText</text>
<text text-anchor="start" x="288.5" y="-511" font-family="Helvetica,sans-Serif" font-size="10.00">&#45; Action onOkAction</text>
<polyline fill="none" stroke="black" points="280.5,-504 489.5,-504 "/>
<text text-anchor="start" x="288.5" y="-492" font-family="Helvetica,sans-Serif" font-size="10.00">+ void Show()</text>
<text text-anchor="start" x="288.5" y="-481" font-family="Helvetica,sans-Serif" font-size="10.00">+ void Show(string title, string content,</text>
<text text-anchor="start" x="288.5" y="-470" font-family="Helvetica,sans-Serif" font-size="10.00"> Action onOkAction=null)</text>
<text text-anchor="start" x="288.5" y="-459" font-family="Helvetica,sans-Serif" font-size="10.00">+ void Hide()</text>
<text text-anchor="start" x="288.5" y="-448" font-family="Helvetica,sans-Serif" font-size="10.00">+ void ConfirmButtonClick()</text>
</a>
</g>
</g>
<!-- Node2&#45;&gt;Node5 -->
<g id="edge7" class="edge">
<title>Node2&#45;&gt;Node5</title>
<path fill="none" stroke="midnightblue" d="M274.25,-686.27C294.41,-653.01 324.49,-603.36 348.22,-564.2"/>
<polygon fill="none" stroke="midnightblue" points="271.03,-684.83 268.84,-695.2 277.02,-688.46 271.03,-684.83"/>
</g>
<!-- Node3 -->
<g id="node3" class="node">
<title>Node3</title>
<g id="a_node3"><a xlink:title=" ">
<polygon fill="white" stroke="#bfbfbf" points="205.5,-790.5 205.5,-847.5 298.5,-847.5 298.5,-790.5 205.5,-790.5"/>
<text text-anchor="middle" x="252" y="-835.5" font-family="Helvetica,sans-Serif" font-size="10.00">MonoBehaviour</text>
<polyline fill="none" stroke="#bfbfbf" points="205.5,-828.5 298.5,-828.5 "/>
<text text-anchor="middle" x="252" y="-816.5" font-family="Helvetica,sans-Serif" font-size="10.00"> </text>
<polyline fill="none" stroke="#bfbfbf" points="205.5,-809.5 298.5,-809.5 "/>
<text text-anchor="middle" x="252" y="-797.5" font-family="Helvetica,sans-Serif" font-size="10.00"> </text>
</a>
</g>
</g>
<!-- Node3&#45;&gt;Node2 -->
<g id="edge2" class="edge">
<title>Node3&#45;&gt;Node2</title>
<path fill="none" stroke="midnightblue" d="M252,-780.24C252,-771.03 252,-761.35 252,-752.71"/>
<polygon fill="none" stroke="midnightblue" points="248.5,-780.35 252,-790.35 255.5,-780.35 248.5,-780.35"/>
</g>
<!-- Node4&#45;&gt;Node1 -->
<g id="edge3" class="edge">
<title>Node4&#45;&gt;Node1</title>
<path fill="none" stroke="#404040" d="M169.57,-299.7C166.21,-311.5 162.79,-323.47 159.4,-335.37"/>
<polygon fill="none" stroke="#404040" points="159.3,-335.72 161.5,-342.58 156.01,-347.26 153.81,-340.39 159.3,-335.72"/>
<text text-anchor="middle" x="194" y="-321" font-family="Helvetica,sans-Serif" font-size="10.00"> &#45;uIController</text>
</g>
<!-- Node5&#45;&gt;Node4 -->
<g id="edge6" class="edge">
<title>Node5&#45;&gt;Node4</title>
<path fill="none" stroke="#404040" d="M355.06,-440.85C337.21,-404.67 313.63,-356.9 290.77,-310.6"/>
<polygon fill="none" stroke="#404040" points="290.76,-310.57 284.52,-306.96 285.45,-299.81 291.69,-303.42 290.76,-310.57"/>
<text text-anchor="middle" x="337.5" y="-321" font-family="Helvetica,sans-Serif" font-size="10.00"> &#45;modalWindow</text>
</g>
</g>
</svg>
        <g id="navigator" transform="translate(0 0)" fill="#404254">
                <rect fill="#f2f5e9" fill-opacity="0.5" stroke="#606060" stroke-width=".5" x="0" y="0" width="60" height="60"/>
                <use id="zoomplus" xlink:href="#zoomPlus" x="17" y="9" onmousedown="handleZoom(evt,'in')"/>
                <use id="zoomminus" xlink:href="#zoomMin" x="42" y="9" onmousedown="handleZoom(evt,'out')"/>
                <use id="reset" xlink:href="#resetDef" x="30" y="36" onmousedown="handleReset()"/>
                <g id="arrowUp" xlink:href="#dirArrow" transform="translate(30 24)" onmousedown="handlePan(0,-1)">
                  <use xlink:href="#rim" fill="#404040">
                        <set attributeName="fill" to="#808080" begin="arrowUp.mouseover" end="arrowUp.mouseout"/>
                  </use>
                  <path fill="none" stroke="white" stroke-width="1.5" d="M0,-3.0v7 M-2.5,-0.5L0,-3.0L2.5,-0.5"/>
                </g>
                <g id="arrowRight" xlink:href="#dirArrow" transform="rotate(90) translate(36 -43)" onmousedown="handlePan(1,0)">
                  <use xlink:href="#rim" fill="#404040">
                        <set attributeName="fill" to="#808080" begin="arrowRight.mouseover" end="arrowRight.mouseout"/>
                  </use>
                  <path fill="none" stroke="white" stroke-width="1.5" d="M0,-3.0v7 M-2.5,-0.5L0,-3.0L2.5,-0.5"/>
                </g>
                <g id="arrowDown" xlink:href="#dirArrow" transform="rotate(180) translate(-30 -48)" onmousedown="handlePan(0,1)">
                  <use xlink:href="#rim" fill="#404040">
                        <set attributeName="fill" to="#808080" begin="arrowDown.mouseover" end="arrowDown.mouseout"/>
                  </use>
                  <path fill="none" stroke="white" stroke-width="1.5" d="M0,-3.0v7 M-2.5,-0.5L0,-3.0L2.5,-0.5"/>
                </g>
                <g id="arrowLeft" xlink:href="#dirArrow" transform="rotate(270) translate(-36 17)" onmousedown="handlePan(-1,0)">
                  <use xlink:href="#rim" fill="#404040">
                        <set attributeName="fill" to="#808080" begin="arrowLeft.mouseover" end="arrowLeft.mouseout"/>
                  </use>
                  <path fill="none" stroke="white" stroke-width="1.5" d="M0,-3.0v7 M-2.5,-0.5L0,-3.0L2.5,-0.5"/>
                </g>
        </g>
        <svg viewBox="0 0 15 15" width="100%" height="30px" preserveAspectRatio="xMaxYMin meet">
         <g id="arrow_out" transform="scale(0.3 0.3)">
          <a xlink:href="classMainPage_1_1TaskOpenPanelController__coll__graph_org.svg" target="_base">
           <rect id="button" ry="5" rx="5" y="6" x="6" height="38" width="38"
                fill="#f2f5e9" fill-opacity="0.5" stroke="#606060" stroke-width="1.0"/>
           <path id="arrow"
             d="M 11.500037,31.436501 C 11.940474,20.09759 22.043105,11.32322 32.158766,21.979434 L 37.068811,17.246167 C 37.068811,17.246167 37.088388,32 37.088388,32 L 22.160133,31.978069 C 22.160133,31.978069 26.997745,27.140456 26.997745,27.140456 C 18.528582,18.264221 13.291696,25.230495 11.500037,31.436501 z"
             style="fill:#404040;"/>
          </a>
         </g>
        </svg>
</svg>
