<?xml version="1.0" encoding="UTF-8" standalone="no"?>
<!DOCTYPE svg PUBLIC "-//W3C//DTD SVG 1.1//EN"
 "http://www.w3.org/Graphics/SVG/1.1/DTD/svg11.dtd">
<!-- Generated by graphviz version 2.43.0 (0)
 -->
<!-- Title: MainPage.FriendHandler.AcceptFriendRequest Pages: 1 -->
<svg width="535pt" height="101pt"
 viewBox="0.00 0.00 535.00 101.00" xmlns="http://www.w3.org/2000/svg" xmlns:xlink="http://www.w3.org/1999/xlink">
<g id="graph0" class="graph" transform="scale(1 1) rotate(0) translate(4 97)">
<title>MainPage.FriendHandler.AcceptFriendRequest</title>
<!-- Node1 -->
<g id="Node000001" class="node">
<title>Node1</title>
<g id="a_Node000001"><a xlink:title="Send a request to the server that the user accepted the friend request.">
<polygon fill="#999999" stroke="#666666" points="240,-56 0,-56 0,-37 240,-37 240,-56"/>
<text text-anchor="middle" x="120" y="-44" font-family="Helvetica,sans-Serif" font-size="10.00">MainPage.FriendHandler.AcceptFriendRequest</text>
</a>
</g>
</g>
<!-- Node2 -->
<g id="Node000002" class="node">
<title>Node2</title>
<g id="a_Node000002"><a xlink:href="classMainPage_1_1FriendHandler.html#afedea0dd2e647f77ec7968750395b004" target="_top" xlink:title="After the server responded successfully to the friend accept.">
<polygon fill="white" stroke="#666666" points="492.5,-93 310.5,-93 310.5,-74 492.5,-74 492.5,-93"/>
<text text-anchor="middle" x="401.5" y="-81" font-family="Helvetica,sans-Serif" font-size="10.00">MainPage.FriendHandler.Accepted</text>
</a>
</g>
</g>
<!-- Node1&#45;&gt;Node2 -->
<g id="edge1_Node000001_Node000002" class="edge">
<title>Node1&#45;&gt;Node2</title>
<g id="a_edge1_Node000001_Node000002"><a xlink:title=" ">
<path fill="none" stroke="#63b8ff" d="M192.98,-56.03C231.3,-61.1 278.59,-67.36 318.35,-72.62"/>
<polygon fill="#63b8ff" stroke="#63b8ff" points="317.91,-76.1 328.28,-73.94 318.83,-69.16 317.91,-76.1"/>
</a>
</g>
</g>
<!-- Node3 -->
<g id="Node000003" class="node">
<title>Node3</title>
<g id="a_Node000003"><a xlink:href="classConfig_1_1ServerConfig.html#a7e8a6c00e86ee263e4e91d76e91865d8" target="_top" xlink:title="Path for the friend accept api endpoint.">
<polygon fill="white" stroke="#666666" points="527,-56 276,-56 276,-37 527,-37 527,-56"/>
<text text-anchor="middle" x="401.5" y="-44" font-family="Helvetica,sans-Serif" font-size="10.00">Config.ServerConfig.PATH_FOR_FRIEND_ACCEPT</text>
</a>
</g>
</g>
<!-- Node1&#45;&gt;Node3 -->
<g id="edge2_Node000001_Node000003" class="edge">
<title>Node1&#45;&gt;Node3</title>
<g id="a_edge2_Node000001_Node000003"><a xlink:title=" ">
<path fill="none" stroke="#63b8ff" d="M240.34,-46.5C248.68,-46.5 257.11,-46.5 265.52,-46.5"/>
<polygon fill="#63b8ff" stroke="#63b8ff" points="265.76,-50 275.76,-46.5 265.76,-43 265.76,-50"/>
</a>
</g>
</g>
<!-- Node4 -->
<g id="Node000004" class="node">
<title>Node4</title>
<g id="a_Node000004"><a xlink:href="classUtility_1_1CoroutineRunner.html#a1c473dee723f16d86bab9d8475c8214a" target="_top" xlink:title="A helper method to start coroutines.">
<polygon fill="white" stroke="#666666" points="500.5,-19 302.5,-19 302.5,0 500.5,0 500.5,-19"/>
<text text-anchor="middle" x="401.5" y="-7" font-family="Helvetica,sans-Serif" font-size="10.00">Utility.CoroutineRunner.RunCoroutine</text>
</a>
</g>
</g>
<!-- Node1&#45;&gt;Node4 -->
<g id="edge3_Node000001_Node000004" class="edge">
<title>Node1&#45;&gt;Node4</title>
<g id="a_edge3_Node000001_Node000004"><a xlink:title=" ">
<path fill="none" stroke="#63b8ff" d="M192.98,-36.97C231.3,-31.9 278.59,-25.64 318.35,-20.38"/>
<polygon fill="#63b8ff" stroke="#63b8ff" points="318.83,-23.84 328.28,-19.06 317.91,-16.9 318.83,-23.84"/>
</a>
</g>
</g>
</g>
</svg>
