<?xml version="1.0" encoding="UTF-8" standalone="no"?>
<!DOCTYPE svg PUBLIC "-//W3C//DTD SVG 1.1//EN"
 "http://www.w3.org/Graphics/SVG/1.1/DTD/svg11.dtd">
<!-- Generated by graphviz version 2.43.0 (0)
 -->
<!-- Title: Game.World.Chunk.Awake Pages: 1 -->
<svg width="391pt" height="104pt"
 viewBox="0.00 0.00 391.00 104.00" xmlns="http://www.w3.org/2000/svg" xmlns:xlink="http://www.w3.org/1999/xlink">
<g id="graph0" class="graph" transform="scale(1 1) rotate(0) translate(4 100)">
<title>Game.World.Chunk.Awake</title>
<polygon fill="white" stroke="transparent" points="-4,4 -4,-100 387,-100 387,4 -4,4"/>
<!-- Node1 -->
<g id="node1" class="node">
<title>Node1</title>
<g id="a_node1"><a xlink:title="Start when the script is loaded">
<polygon fill="#bfbfbf" stroke="black" points="0,-38.5 0,-57.5 146,-57.5 146,-38.5 0,-38.5"/>
<text text-anchor="middle" x="73" y="-45.5" font-family="Helvetica,sans-Serif" font-size="10.00">Game.World.Chunk.Awake</text>
</a>
</g>
</g>
<!-- Node2 -->
<g id="node2" class="node">
<title>Node2</title>
<g id="a_node2"><a xlink:href="classGame_1_1World_1_1Chunk.html#ad96b568d5f7a03b6b4ea194b387c0af1" target="_top" xlink:title="Callback for when each building asset is loaded">
<polygon fill="white" stroke="black" points="188.5,-76.5 188.5,-95.5 376.5,-95.5 376.5,-76.5 188.5,-76.5"/>
<text text-anchor="middle" x="282.5" y="-83.5" font-family="Helvetica,sans-Serif" font-size="10.00">Game.World.Chunk.BuildingLoaded</text>
</a>
</g>
</g>
<!-- Node1&#45;&gt;Node2 -->
<g id="edge1" class="edge">
<title>Node1&#45;&gt;Node2</title>
<path fill="none" stroke="midnightblue" d="M126.09,-57.54C154.46,-62.73 189.74,-69.2 219.52,-74.65"/>
<polygon fill="midnightblue" stroke="midnightblue" points="218.92,-78.1 229.39,-76.46 220.18,-71.21 218.92,-78.1"/>
</g>
<!-- Node3 -->
<g id="node3" class="node">
<title>Node3</title>
<g id="a_node3"><a xlink:href="classGame_1_1World_1_1Chunk.html#adc0bbcb5890b573408d5f323ce40f1d5" target="_top" xlink:title="Load the chunk&#39;s sizes">
<polygon fill="white" stroke="black" points="182,-38.5 182,-57.5 383,-57.5 383,-38.5 182,-38.5"/>
<text text-anchor="middle" x="282.5" y="-45.5" font-family="Helvetica,sans-Serif" font-size="10.00">Game.World.Chunk.LoadFromSettings</text>
</a>
</g>
</g>
<!-- Node1&#45;&gt;Node3 -->
<g id="edge2" class="edge">
<title>Node1&#45;&gt;Node3</title>
<path fill="none" stroke="midnightblue" d="M146.28,-48C154.52,-48 163.05,-48 171.64,-48"/>
<polygon fill="midnightblue" stroke="midnightblue" points="171.73,-51.5 181.73,-48 171.73,-44.5 171.73,-51.5"/>
</g>
<!-- Node4 -->
<g id="node4" class="node">
<title>Node4</title>
<g id="a_node4"><a xlink:href="classGame_1_1World_1_1Chunk.html#ac1bb228d8532a70f4189c8887383f8a1" target="_top" xlink:title="Callback for when each prop asset is loaded">
<polygon fill="white" stroke="black" points="197.5,-0.5 197.5,-19.5 367.5,-19.5 367.5,-0.5 197.5,-0.5"/>
<text text-anchor="middle" x="282.5" y="-7.5" font-family="Helvetica,sans-Serif" font-size="10.00">Game.World.Chunk.PropLoaded</text>
</a>
</g>
</g>
<!-- Node1&#45;&gt;Node4 -->
<g id="edge3" class="edge">
<title>Node1&#45;&gt;Node4</title>
<path fill="none" stroke="midnightblue" d="M126.09,-38.46C154.46,-33.27 189.74,-26.8 219.52,-21.35"/>
<polygon fill="midnightblue" stroke="midnightblue" points="220.18,-24.79 229.39,-19.54 218.92,-17.9 220.18,-24.79"/>
</g>
</g>
</svg>
