<?xml version="1.0" encoding="UTF-8" standalone="no"?>
<!DOCTYPE svg PUBLIC "-//W3C//DTD SVG 1.1//EN"
 "http://www.w3.org/Graphics/SVG/1.1/DTD/svg11.dtd">
<!-- Generated by graphviz version 2.43.0 (0)
 -->
<!-- Title: Game.PlayerCar.FixedUpdate Pages: 1 -->
<svg width="786pt" height="175pt"
 viewBox="0.00 0.00 786.00 175.00" xmlns="http://www.w3.org/2000/svg" xmlns:xlink="http://www.w3.org/1999/xlink">
<g id="graph0" class="graph" transform="scale(1 1) rotate(0) translate(4 171)">
<title>Game.PlayerCar.FixedUpdate</title>
<!-- Node1 -->
<g id="Node000001" class="node">
<title>Node1</title>
<g id="a_Node000001"><a xlink:title="Handle the user inputs.">
<polygon fill="#999999" stroke="#666666" points="159,-93 0,-93 0,-74 159,-74 159,-93"/>
<text text-anchor="middle" x="79.5" y="-81" font-family="Helvetica,sans-Serif" font-size="10.00">Game.PlayerCar.FixedUpdate</text>
</a>
</g>
</g>
<!-- Node2 -->
<g id="Node000002" class="node">
<title>Node2</title>
<g id="a_Node000002"><a xlink:href="classGame_1_1CarController.html#ae3eb6260519b20b09bc1226be3919be2" target="_top" xlink:title=" ">
<polygon fill="white" stroke="#666666" points="338,-93 195,-93 195,-74 338,-74 338,-93"/>
<text text-anchor="middle" x="266.5" y="-81" font-family="Helvetica,sans-Serif" font-size="10.00">Game.CarController.Move</text>
</a>
</g>
</g>
<!-- Node1&#45;&gt;Node2 -->
<g id="edge1_Node000001_Node000002" class="edge">
<title>Node1&#45;&gt;Node2</title>
<g id="a_edge1_Node000001_Node000002"><a xlink:title=" ">
<path fill="none" stroke="#63b8ff" d="M159.22,-83.5C167.61,-83.5 176.16,-83.5 184.57,-83.5"/>
<polygon fill="#63b8ff" stroke="#63b8ff" points="184.76,-87 194.76,-83.5 184.76,-80 184.76,-87"/>
</a>
</g>
</g>
<!-- Node3 -->
<g id="Node000003" class="node">
<title>Node3</title>
<g id="a_Node000003"><a xlink:href="classGame_1_1CarController.html#afadda4712607531e93172fcd43557f14" target="_top" xlink:title=" ">
<polygon fill="white" stroke="#666666" points="562.5,-167 374.5,-167 374.5,-148 562.5,-148 562.5,-167"/>
<text text-anchor="middle" x="468.5" y="-155" font-family="Helvetica,sans-Serif" font-size="10.00">Game.CarController.AddDownForce</text>
</a>
</g>
</g>
<!-- Node2&#45;&gt;Node3 -->
<g id="edge2_Node000002_Node000003" class="edge">
<title>Node2&#45;&gt;Node3</title>
<g id="a_edge2_Node000002_Node000003"><a xlink:title=" ">
<path fill="none" stroke="#63b8ff" d="M282.38,-93.14C302.4,-105.68 339.5,-127.41 374,-139.5 380.5,-141.78 387.36,-143.79 394.29,-145.57"/>
<polygon fill="#63b8ff" stroke="#63b8ff" points="393.92,-149.08 404.46,-148 395.55,-142.27 393.92,-149.08"/>
</a>
</g>
</g>
<!-- Node4 -->
<g id="Node000004" class="node">
<title>Node4</title>
<g id="a_Node000004"><a xlink:href="classGame_1_1CarController.html#aebd7dfca747e22622550ce42076052af" target="_top" xlink:title=" ">
<polygon fill="white" stroke="#666666" points="553.5,-130 383.5,-130 383.5,-111 553.5,-111 553.5,-130"/>
<text text-anchor="middle" x="468.5" y="-118" font-family="Helvetica,sans-Serif" font-size="10.00">Game.CarController.ApplyDrive</text>
</a>
</g>
</g>
<!-- Node2&#45;&gt;Node4 -->
<g id="edge3_Node000002_Node000004" class="edge">
<title>Node2&#45;&gt;Node4</title>
<g id="a_edge3_Node000002_Node000004"><a xlink:title=" ">
<path fill="none" stroke="#63b8ff" d="M319,-93.03C345.5,-97.93 377.98,-103.94 405.8,-109.09"/>
<polygon fill="#63b8ff" stroke="#63b8ff" points="405.35,-112.56 415.82,-110.94 406.63,-105.68 405.35,-112.56"/>
</a>
</g>
</g>
<!-- Node5 -->
<g id="Node000005" class="node">
<title>Node5</title>
<g id="a_Node000005"><a xlink:href="classGame_1_1CarController.html#a906b060eb3177f7706893b9e0e098dc8" target="_top" xlink:title=" ">
<polygon fill="white" stroke="#666666" points="550.5,-93 386.5,-93 386.5,-74 550.5,-74 550.5,-93"/>
<text text-anchor="middle" x="468.5" y="-81" font-family="Helvetica,sans-Serif" font-size="10.00">Game.CarController.CapSpeed</text>
</a>
</g>
</g>
<!-- Node2&#45;&gt;Node5 -->
<g id="edge4_Node000002_Node000005" class="edge">
<title>Node2&#45;&gt;Node5</title>
<g id="a_edge4_Node000002_Node000005"><a xlink:title=" ">
<path fill="none" stroke="#63b8ff" d="M338.01,-83.5C350.35,-83.5 363.34,-83.5 376.14,-83.5"/>
<polygon fill="#63b8ff" stroke="#63b8ff" points="376.35,-87 386.35,-83.5 376.35,-80 376.35,-87"/>
</a>
</g>
</g>
<!-- Node6 -->
<g id="Node000006" class="node">
<title>Node6</title>
<g id="a_Node000006"><a xlink:href="classGame_1_1CarController.html#a764c5ed47cd5bb83923e9fa443935af7" target="_top" xlink:title=" ">
<polygon fill="white" stroke="#666666" points="555,-56 382,-56 382,-37 555,-37 555,-56"/>
<text text-anchor="middle" x="468.5" y="-44" font-family="Helvetica,sans-Serif" font-size="10.00">Game.CarController.SteerHelper</text>
</a>
</g>
</g>
<!-- Node2&#45;&gt;Node6 -->
<g id="edge5_Node000002_Node000006" class="edge">
<title>Node2&#45;&gt;Node6</title>
<g id="a_edge5_Node000002_Node000006"><a xlink:title=" ">
<path fill="none" stroke="#63b8ff" d="M319,-73.97C345.5,-69.07 377.98,-63.06 405.8,-57.91"/>
<polygon fill="#63b8ff" stroke="#63b8ff" points="406.63,-61.32 415.82,-56.06 405.35,-54.44 406.63,-61.32"/>
</a>
</g>
</g>
<!-- Node7 -->
<g id="Node000007" class="node">
<title>Node7</title>
<g id="a_Node000007"><a xlink:href="classGame_1_1CarController.html#a298e55b1a36b51f9c4e4aa7883056a00" target="_top" xlink:title=" ">
<polygon fill="white" stroke="#666666" points="563,-19 374,-19 374,0 563,0 563,-19"/>
<text text-anchor="middle" x="468.5" y="-7" font-family="Helvetica,sans-Serif" font-size="10.00">Game.CarController.TractionControl</text>
</a>
</g>
</g>
<!-- Node2&#45;&gt;Node7 -->
<g id="edge6_Node000002_Node000007" class="edge">
<title>Node2&#45;&gt;Node7</title>
<g id="a_edge6_Node000002_Node000007"><a xlink:title=" ">
<path fill="none" stroke="#63b8ff" d="M282.77,-73.89C302.92,-61.61 339.85,-40.53 374,-28.5 381.66,-25.8 389.82,-23.44 398.01,-21.38"/>
<polygon fill="#63b8ff" stroke="#63b8ff" points="399.05,-24.73 407.97,-19.03 397.44,-17.92 399.05,-24.73"/>
</a>
</g>
</g>
<!-- Node8 -->
<g id="Node000008" class="node">
<title>Node8</title>
<g id="a_Node000008"><a xlink:href="classGame_1_1CarController.html#a7589f8f5b951a0d3283790774bf97493" target="_top" xlink:title=" ">
<polygon fill="white" stroke="#666666" points="778,-19 599,-19 599,0 778,0 778,-19"/>
<text text-anchor="middle" x="688.5" y="-7" font-family="Helvetica,sans-Serif" font-size="10.00">Game.CarController.AdjustTorque</text>
</a>
</g>
</g>
<!-- Node7&#45;&gt;Node8 -->
<g id="edge7_Node000007_Node000008" class="edge">
<title>Node7&#45;&gt;Node8</title>
<g id="a_edge7_Node000007_Node000008"><a xlink:title=" ">
<path fill="none" stroke="#63b8ff" d="M563.22,-9.5C571.59,-9.5 580.08,-9.5 588.49,-9.5"/>
<polygon fill="#63b8ff" stroke="#63b8ff" points="588.69,-13 598.69,-9.5 588.69,-6 588.69,-13"/>
</a>
</g>
</g>
</g>
</svg>
