<?xml version="1.0" encoding="UTF-8" standalone="no"?>
<!DOCTYPE svg PUBLIC "-//W3C//DTD SVG 1.1//EN"
 "http://www.w3.org/Graphics/SVG/1.1/DTD/svg11.dtd">
<!-- Generated by graphviz version 2.43.0 (0)
 -->
<!-- Title: MainPage.TaskHistoryWindowHandler Pages: 1 -->
<svg width="304pt" height="317pt"
 viewBox="0.00 0.00 304.00 317.00" xmlns="http://www.w3.org/2000/svg" xmlns:xlink="http://www.w3.org/1999/xlink">

<svg id="main" version="1.1" xmlns="http://www.w3.org/2000/svg" xmlns:xlink="http://www.w3.org/1999/xlink" xml:space="preserve" onload="init(evt)">
<style type="text/css"><![CDATA[
.node, .edge {opacity: 0.7;}
.node.selected, .edge.selected {opacity: 1;}
.edge:hover path { stroke: red; }
.edge:hover polygon { stroke: red; fill: red; }
]]></style>
<script type="application/ecmascript" xlink:href="svg.min.js"/>
<svg id="graph" class="graph">
<g id="graph0" class="graph" transform="scale(1 1) rotate(0) translate(4 313)">
<title>MainPage.TaskHistoryWindowHandler</title>
<!-- Node1 -->
<g id="Node000001" class="node">
<title>Node1</title>
<g id="a_Node000001"><a xlink:title="Task histories window controller.">
<polygon fill="#999999" stroke="transparent" points="296,-139 0,-139 0,0 296,0 296,-139"/>
<text text-anchor="start" x="55.5" y="-126.5" font-family="Helvetica,sans-Serif" font-size="10.00">MainPage.TaskHistoryWindowHandler</text>
<text text-anchor="start" x="6.5" y="-111.5" font-family="Helvetica,sans-Serif" font-size="10.00">&#45;</text>
<text text-anchor="start" x="17" y="-111.5" font-family="Helvetica,sans-Serif" font-size="10.00">GameObject taskHistoriesParent</text>
<text text-anchor="start" x="6.5" y="-96.5" font-family="Helvetica,sans-Serif" font-size="10.00">&#45;</text>
<text text-anchor="start" x="17" y="-96.5" font-family="Helvetica,sans-Serif" font-size="10.00">ModalWindow modalWindow</text>
<text text-anchor="start" x="6.5" y="-81.5" font-family="Helvetica,sans-Serif" font-size="10.00">&#45;</text>
<text text-anchor="start" x="17" y="-81.5" font-family="Helvetica,sans-Serif" font-size="10.00">GameObject taskHistoryItemPrefab</text>
<text text-anchor="start" x="4" y="-66.5" font-family="Helvetica,sans-Serif" font-size="10.00">+</text>
<text text-anchor="start" x="17" y="-66.5" font-family="Helvetica,sans-Serif" font-size="10.00">void Show()</text>
<text text-anchor="start" x="4" y="-51.5" font-family="Helvetica,sans-Serif" font-size="10.00">+</text>
<text text-anchor="start" x="17" y="-51.5" font-family="Helvetica,sans-Serif" font-size="10.00">void Hide()</text>
<text text-anchor="start" x="4" y="-36.5" font-family="Helvetica,sans-Serif" font-size="10.00">+</text>
<text text-anchor="start" x="17" y="-36.5" font-family="Helvetica,sans-Serif" font-size="10.00">void LoadTaskHistories()</text>
<text text-anchor="start" x="6.5" y="-21.5" font-family="Helvetica,sans-Serif" font-size="10.00">&#45;</text>
<text text-anchor="start" x="17" y="-21.5" font-family="Helvetica,sans-Serif" font-size="10.00">void ShowRequestFail(string content)</text>
<text text-anchor="start" x="6.5" y="-6.5" font-family="Helvetica,sans-Serif" font-size="10.00">&#45;</text>
<text text-anchor="start" x="17" y="-6.5" font-family="Helvetica,sans-Serif" font-size="10.00">void LoadedHistories(List&lt; TaskHistory &gt; taskHistories)</text>
<polygon fill="#666666" stroke="#666666" points="0,-121.5 0,-121.5 296,-121.5 296,-121.5 0,-121.5"/>
<polygon fill="#666666" stroke="#666666" points="0,-76.5 0,-76.5 15,-76.5 15,-76.5 0,-76.5"/>
<polygon fill="#666666" stroke="#666666" points="15,-76.5 15,-76.5 296,-76.5 296,-76.5 15,-76.5"/>
<polygon fill="none" stroke="#666666" points="0,0 0,-139 296,-139 296,0 0,0"/>
</a>
</g>
</g>
<!-- Node2 -->
<g id="Node000002" class="node">
<title>Node2</title>
<g id="a_Node000002"><a xlink:href="classUtility_1_1ThreadSafeMonoBehaviour.html" target="_top" xlink:title="Safely stores if the gameobject been destroyed in a bool.">
<polygon fill="white" stroke="transparent" points="219.5,-224 76.5,-224 76.5,-175 219.5,-175 219.5,-224"/>
<text text-anchor="start" x="82" y="-211.5" font-family="Helvetica,sans-Serif" font-size="10.00">ThreadSafeMonoBehaviour</text>
<text text-anchor="start" x="90.5" y="-196.5" font-family="Helvetica,sans-Serif" font-size="10.00">+</text>
<text text-anchor="start" x="113" y="-196.5" font-family="Helvetica,sans-Serif" font-size="10.00">bool Destroyed</text>
<text text-anchor="start" x="90.5" y="-181.5" font-family="Helvetica,sans-Serif" font-size="10.00">#</text>
<text text-anchor="start" x="113" y="-181.5" font-family="Helvetica,sans-Serif" font-size="10.00">void OnDestroy()</text>
<polygon fill="#666666" stroke="#666666" points="77,-206.5 77,-206.5 220,-206.5 220,-206.5 77,-206.5"/>
<polygon fill="#666666" stroke="#666666" points="77,-191.5 77,-191.5 111,-191.5 111,-191.5 77,-191.5"/>
<polygon fill="#666666" stroke="#666666" points="111,-191.5 111,-191.5 220,-191.5 220,-191.5 111,-191.5"/>
<polygon fill="none" stroke="#666666" points="76.5,-175 76.5,-224 219.5,-224 219.5,-175 76.5,-175"/>
</a>
</g>
</g>
<!-- Node2&#45;&gt;Node1 -->
<g id="edge1_Node000001_Node000002" class="edge">
<title>Node2&#45;&gt;Node1</title>
<g id="a_edge1_Node000001_Node000002"><a xlink:title=" ">
<path fill="none" stroke="#63b8ff" d="M148,-164.48C148,-156.57 148,-147.86 148,-139.04"/>
<polygon fill="none" stroke="#63b8ff" points="144.5,-164.72 148,-174.72 151.5,-164.72 144.5,-164.72"/>
</a>
</g>
</g>
<!-- Node3 -->
<g id="Node000003" class="node">
<title>Node3</title>
<g id="a_Node000003"><a xlink:title=" ">
<polygon fill="white" stroke="transparent" points="191.5,-309 104.5,-309 104.5,-260 191.5,-260 191.5,-309"/>
<text text-anchor="start" x="110" y="-296.5" font-family="Helvetica,sans-Serif" font-size="10.00">MonoBehaviour</text>
<text text-anchor="start" x="146.5" y="-281.5" font-family="Helvetica,sans-Serif" font-size="10.00"> </text>
<text text-anchor="start" x="146.5" y="-266.5" font-family="Helvetica,sans-Serif" font-size="10.00"> </text>
<polygon fill="#666666" stroke="#666666" points="105,-291.5 105,-291.5 192,-291.5 192,-291.5 105,-291.5"/>
<polygon fill="#666666" stroke="#666666" points="105,-276.5 105,-276.5 192,-276.5 192,-276.5 105,-276.5"/>
<polygon fill="none" stroke="#666666" points="104.5,-260 104.5,-309 191.5,-309 191.5,-260 104.5,-260"/>
</a>
</g>
</g>
<!-- Node3&#45;&gt;Node2 -->
<g id="edge2_Node000002_Node000003" class="edge">
<title>Node3&#45;&gt;Node2</title>
<g id="a_edge2_Node000002_Node000003"><a xlink:title=" ">
<path fill="none" stroke="#63b8ff" d="M148,-249.77C148,-241.17 148,-232.1 148,-224.12"/>
<polygon fill="none" stroke="#63b8ff" points="144.5,-249.94 148,-259.94 151.5,-249.94 144.5,-249.94"/>
</a>
</g>
</g>
</g>
</svg>
</svg>

<style type='text/css'>
<![CDATA[
[data-mouse-over-selected='false'] { opacity: 0.7; }
[data-mouse-over-selected='true']  { opacity: 1.0; }
]]>
</style>
<script type="application/ecmascript"><![CDATA[
document.addEventListener('DOMContentLoaded', (event) => {
  highlightEdges();
  highlightAdjacentNodes();
});
]]></script>
</svg>
