<?xml version="1.0" encoding="UTF-8" standalone="no"?>
<!DOCTYPE svg PUBLIC "-//W3C//DTD SVG 1.1//EN"
 "http://www.w3.org/Graphics/SVG/1.1/DTD/svg11.dtd">
<!-- Generated by graphviz version 2.43.0 (0)
 -->
<!-- Title: MainPage.TaskOpenPanelController.DeletedTask Pages: 1 -->
<svg width="1435pt" height="82pt"
 viewBox="0.00 0.00 1435.00 82.00" xmlns="http://www.w3.org/2000/svg" xmlns:xlink="http://www.w3.org/1999/xlink">
<g id="graph0" class="graph" transform="scale(1 1) rotate(0) translate(4 78)">
<title>MainPage.TaskOpenPanelController.DeletedTask</title>
<!-- Node1 -->
<g id="Node000001" class="node">
<title>Node1</title>
<g id="a_Node000001"><a xlink:title="After the task were deleted from the server delete it also from the client.">
<polygon fill="#999999" stroke="#666666" points="251,-37 0,-37 0,-18 251,-18 251,-37"/>
<text text-anchor="middle" x="125.5" y="-25" font-family="Helvetica,sans-Serif" font-size="10.00">MainPage.TaskOpenPanelController.DeletedTask</text>
</a>
</g>
</g>
<!-- Node2 -->
<g id="Node000002" class="node">
<title>Node2</title>
<g id="a_Node000002"><a xlink:href="classMainPage_1_1TaskOpenPanelController.html#af1b5c03c4cfe46084a34093435f79fee" target="_top" xlink:title="Cancel this edit/task creation.">
<polygon fill="white" stroke="#666666" points="520,-56 296,-56 296,-37 520,-37 520,-56"/>
<text text-anchor="middle" x="408" y="-44" font-family="Helvetica,sans-Serif" font-size="10.00">MainPage.TaskOpenPanelController.Cancel</text>
</a>
</g>
</g>
<!-- Node1&#45;&gt;Node2 -->
<g id="edge1_Node000001_Node000002" class="edge">
<title>Node1&#45;&gt;Node2</title>
<g id="a_edge1_Node000001_Node000002"><a xlink:title=" ">
<path fill="none" stroke="#63b8ff" d="M251.16,-35.94C262.71,-36.73 274.39,-37.52 285.9,-38.3"/>
<polygon fill="#63b8ff" stroke="#63b8ff" points="285.75,-41.8 295.97,-38.98 286.23,-34.81 285.75,-41.8"/>
</a>
</g>
</g>
<!-- Node8 -->
<g id="Node000008" class="node">
<title>Node8</title>
<g id="a_Node000008"><a xlink:href="classMainPage_1_1MainWindowController.html#ab6e865f33e604878bb40346d5f6657c9" target="_top" xlink:title="Remove the task with the given id.">
<polygon fill="white" stroke="#666666" points="529,-19 287,-19 287,0 529,0 529,-19"/>
<text text-anchor="middle" x="408" y="-7" font-family="Helvetica,sans-Serif" font-size="10.00">MainPage.MainWindowController.RemoveTask</text>
</a>
</g>
</g>
<!-- Node1&#45;&gt;Node8 -->
<g id="edge10_Node000001_Node000008" class="edge">
<title>Node1&#45;&gt;Node8</title>
<g id="a_edge10_Node000001_Node000008"><a xlink:title=" ">
<path fill="none" stroke="#63b8ff" d="M251.16,-19.5C259.68,-18.95 268.28,-18.4 276.83,-17.85"/>
<polygon fill="#63b8ff" stroke="#63b8ff" points="277.07,-21.34 286.83,-17.21 276.62,-14.36 277.07,-21.34"/>
</a>
</g>
</g>
<!-- Node3 -->
<g id="Node000003" class="node">
<title>Node3</title>
<g id="a_Node000003"><a xlink:href="classMainPage_1_1MainWindowController.html#a241b480aeebdab1bc34320cad8de7712" target="_top" xlink:title="Load the good habits.">
<polygon fill="white" stroke="#666666" points="820,-74 566,-74 566,-55 820,-55 820,-74"/>
<text text-anchor="middle" x="693" y="-62" font-family="Helvetica,sans-Serif" font-size="10.00">MainPage.MainWindowController.LoadBadHabits</text>
</a>
</g>
</g>
<!-- Node2&#45;&gt;Node3 -->
<g id="edge2_Node000002_Node000003" class="edge">
<title>Node2&#45;&gt;Node3</title>
<g id="a_edge2_Node000002_Node000003"><a xlink:title=" ">
<path fill="none" stroke="#63b8ff" d="M520.04,-53.56C531.77,-54.31 543.8,-55.07 555.78,-55.84"/>
<polygon fill="#63b8ff" stroke="#63b8ff" points="555.62,-59.33 565.82,-56.47 556.06,-52.35 555.62,-59.33"/>
</a>
</g>
</g>
<!-- Node6 -->
<g id="Node000006" class="node">
<title>Node6</title>
<g id="a_Node000006"><a xlink:href="classMainPage_1_1MainWindowController.html#ab5b80370512cd4273e86927fe696462d" target="_top" xlink:title="Load the good tasks.">
<polygon fill="white" stroke="#666666" points="821,-37 565,-37 565,-18 821,-18 821,-37"/>
<text text-anchor="middle" x="693" y="-25" font-family="Helvetica,sans-Serif" font-size="10.00">MainPage.MainWindowController.LoadGoodTasks</text>
</a>
</g>
</g>
<!-- Node2&#45;&gt;Node6 -->
<g id="edge6_Node000002_Node000006" class="edge">
<title>Node2&#45;&gt;Node6</title>
<g id="a_edge6_Node000002_Node000006"><a xlink:title=" ">
<path fill="none" stroke="#63b8ff" d="M520.04,-39.05C531.41,-38.28 543.07,-37.5 554.68,-36.72"/>
<polygon fill="#63b8ff" stroke="#63b8ff" points="555.13,-40.2 564.88,-36.03 554.66,-33.21 555.13,-40.2"/>
</a>
</g>
</g>
<!-- Node4 -->
<g id="Node000004" class="node">
<title>Node4</title>
<g id="a_Node000004"><a xlink:href="classMainPage_1_1TaskOpenPanelController.html#a5513399c20f650915ca10f54805f416e" target="_top" xlink:title="Make this task a bad habit.">
<polygon fill="white" stroke="#666666" points="1127,-74 858,-74 858,-55 1127,-55 1127,-74"/>
<text text-anchor="middle" x="992.5" y="-62" font-family="Helvetica,sans-Serif" font-size="10.00">MainPage.TaskOpenPanelController.MakeItBadHabit</text>
</a>
</g>
</g>
<!-- Node3&#45;&gt;Node4 -->
<g id="edge3_Node000003_Node000004" class="edge">
<title>Node3&#45;&gt;Node4</title>
<g id="a_edge3_Node000003_Node000004"><a xlink:title=" ">
<path fill="none" stroke="#63b8ff" d="M820.17,-57.82C829.35,-57.76 838.66,-57.74 847.94,-57.75"/>
<polygon fill="#63b8ff" stroke="#63b8ff" points="847.98,-61.25 857.99,-57.78 848,-54.25 847.98,-61.25"/>
</a>
</g>
</g>
<!-- Node4&#45;&gt;Node3 -->
<g id="edge4_Node000004_Node000003" class="edge">
<title>Node4&#45;&gt;Node3</title>
<g id="a_edge4_Node000004_Node000003"><a xlink:title=" ">
<path fill="none" stroke="#63b8ff" d="M857.99,-71.22C848.75,-71.26 839.43,-71.26 830.18,-71.23"/>
<polygon fill="#63b8ff" stroke="#63b8ff" points="830.18,-67.73 820.17,-71.18 830.15,-74.73 830.18,-67.73"/>
</a>
</g>
</g>
<!-- Node5 -->
<g id="Node000005" class="node">
<title>Node5</title>
<g id="a_Node000005"><a xlink:href="classMainPage_1_1TaskOpenPanelController.html#aa0b6757dbad141375c50282278b23b1a" target="_top" xlink:title="Update the buttons with the appropriate color based on the current task.">
<polygon fill="white" stroke="#666666" points="1427,-55 1164,-55 1164,-36 1427,-36 1427,-55"/>
<text text-anchor="middle" x="1295.5" y="-43" font-family="Helvetica,sans-Serif" font-size="10.00">MainPage.TaskOpenPanelController.UpdateButtons</text>
</a>
</g>
</g>
<!-- Node4&#45;&gt;Node5 -->
<g id="edge5_Node000004_Node000005" class="edge">
<title>Node4&#45;&gt;Node5</title>
<g id="a_edge5_Node000004_Node000005"><a xlink:title=" ">
<path fill="none" stroke="#63b8ff" d="M1127.28,-56.06C1135.97,-55.51 1144.73,-54.95 1153.45,-54.4"/>
<polygon fill="#63b8ff" stroke="#63b8ff" points="1153.91,-57.88 1163.67,-53.76 1153.46,-50.9 1153.91,-57.88"/>
</a>
</g>
</g>
<!-- Node7 -->
<g id="Node000007" class="node">
<title>Node7</title>
<g id="a_Node000007"><a xlink:href="classMainPage_1_1TaskOpenPanelController.html#a069a63e2b7e70cc4cb4c7e487b655700" target="_top" xlink:title="Make it a good task.">
<polygon fill="white" stroke="#666666" points="1128,-37 857,-37 857,-18 1128,-18 1128,-37"/>
<text text-anchor="middle" x="992.5" y="-25" font-family="Helvetica,sans-Serif" font-size="10.00">MainPage.TaskOpenPanelController.MakeItGoodTask</text>
</a>
</g>
</g>
<!-- Node6&#45;&gt;Node7 -->
<g id="edge7_Node000006_Node000007" class="edge">
<title>Node6&#45;&gt;Node7</title>
<g id="a_edge7_Node000006_Node000007"><a xlink:title=" ">
<path fill="none" stroke="#63b8ff" d="M821.03,-20.81C829.54,-20.76 838.15,-20.74 846.75,-20.75"/>
<polygon fill="#63b8ff" stroke="#63b8ff" points="846.81,-24.25 856.82,-20.78 846.83,-17.25 846.81,-24.25"/>
</a>
</g>
</g>
<!-- Node7&#45;&gt;Node5 -->
<g id="edge9_Node000007_Node000005" class="edge">
<title>Node7&#45;&gt;Node5</title>
<g id="a_edge9_Node000007_Node000005"><a xlink:title=" ">
<path fill="none" stroke="#63b8ff" d="M1128.15,-35.55C1136.7,-36.06 1145.32,-36.58 1153.9,-37.09"/>
<polygon fill="#63b8ff" stroke="#63b8ff" points="1153.75,-40.59 1163.94,-37.69 1154.17,-33.6 1153.75,-40.59"/>
</a>
</g>
</g>
<!-- Node7&#45;&gt;Node6 -->
<g id="edge8_Node000007_Node000006" class="edge">
<title>Node7&#45;&gt;Node6</title>
<g id="a_edge8_Node000007_Node000006"><a xlink:title=" ">
<path fill="none" stroke="#63b8ff" d="M856.82,-34.22C848.26,-34.26 839.63,-34.26 831.06,-34.23"/>
<polygon fill="#63b8ff" stroke="#63b8ff" points="831.05,-30.73 821.03,-34.19 831.01,-37.73 831.05,-30.73"/>
</a>
</g>
</g>
</g>
</svg>
