<?xml version="1.0" encoding="UTF-8" standalone="no"?>
<!DOCTYPE svg PUBLIC "-//W3C//DTD SVG 1.1//EN"
 "http://www.w3.org/Graphics/SVG/1.1/DTD/svg11.dtd">
<!-- Generated by graphviz version 2.43.0 (0)
 -->
<!-- Title: MainPage.MainWindowController.ShowTaskFail Pages: 1 -->
<svg width="805pt" height="123pt"
 viewBox="0.00 0.00 805.00 122.82" xmlns="http://www.w3.org/2000/svg" xmlns:xlink="http://www.w3.org/1999/xlink">
<g id="graph0" class="graph" transform="scale(1 1) rotate(0) translate(4 118.82)">
<title>MainPage.MainWindowController.ShowTaskFail</title>
<polygon fill="white" stroke="transparent" points="-4,4 -4,-118.82 801,-118.82 801,4 -4,4"/>
<!-- Node1 -->
<g id="node1" class="node">
<title>Node1</title>
<g id="a_node1"><a xlink:title="Show the task request fail in the modal window">
<polygon fill="#bfbfbf" stroke="black" points="552,-57.5 552,-76.5 797,-76.5 797,-57.5 552,-57.5"/>
<text text-anchor="middle" x="674.5" y="-64.5" font-family="Helvetica,sans-Serif" font-size="10.00">MainPage.MainWindowController.ShowTaskFail</text>
</a>
</g>
</g>
<!-- Node2 -->
<g id="node2" class="node">
<title>Node2</title>
<g id="a_node2"><a xlink:href="classMainPage_1_1TaskDisplayHandler.html#ab553f8eb77d9d038521af3813275a43d" target="_top" xlink:title="Complete the task and send this to the server">
<polygon fill="white" stroke="black" points="0,-57.5 0,-76.5 235,-76.5 235,-57.5 0,-57.5"/>
<text text-anchor="middle" x="117.5" y="-64.5" font-family="Helvetica,sans-Serif" font-size="10.00">MainPage.TaskDisplayHandler.CompleteTask</text>
</a>
</g>
</g>
<!-- Node1&#45;&gt;Node2 -->
<g id="edge1" class="edge">
<title>Node1&#45;&gt;Node2</title>
<path fill="none" stroke="midnightblue" d="M633.66,-79.38C602.1,-88.52 556.7,-100.16 516,-105 407.87,-117.86 379.08,-118.26 271,-105 227.26,-99.63 178.02,-85.91 147.62,-76.52"/>
<polygon fill="midnightblue" stroke="midnightblue" points="634.79,-82.7 643.4,-76.52 632.82,-75.98 634.79,-82.7"/>
</g>
<!-- Node3 -->
<g id="node3" class="node">
<title>Node3</title>
<g id="a_node3"><a xlink:href="classMainPage_1_1TaskOpenPanelController.html#a3107b94793886f6af28ac9415fb44370" target="_top" xlink:title="Send a delete task request to the server">
<polygon fill="white" stroke="black" points="271,-76.5 271,-95.5 516,-95.5 516,-76.5 271,-76.5"/>
<text text-anchor="middle" x="393.5" y="-83.5" font-family="Helvetica,sans-Serif" font-size="10.00">MainPage.TaskOpenPanelController.DeleteTask</text>
</a>
</g>
</g>
<!-- Node1&#45;&gt;Node3 -->
<g id="edge2" class="edge">
<title>Node1&#45;&gt;Node3</title>
<path fill="none" stroke="midnightblue" d="M541.87,-75.96C533.27,-76.55 524.63,-77.14 516.08,-77.72"/>
<polygon fill="midnightblue" stroke="midnightblue" points="542.2,-79.45 551.94,-75.28 541.72,-72.47 542.2,-79.45"/>
</g>
<!-- Node4 -->
<g id="node4" class="node">
<title>Node4</title>
<g id="a_node4"><a xlink:href="classMainPage_1_1TaskOpenPanelController.html#ab8def75cd4cdbdaf3033022ea114a8a6" target="_top" xlink:title="Save the task to the server">
<polygon fill="white" stroke="black" points="286,-38.5 286,-57.5 501,-57.5 501,-38.5 286,-38.5"/>
<text text-anchor="middle" x="393.5" y="-45.5" font-family="Helvetica,sans-Serif" font-size="10.00">MainPage.TaskOpenPanelController.Save</text>
</a>
</g>
</g>
<!-- Node1&#45;&gt;Node4 -->
<g id="edge3" class="edge">
<title>Node1&#45;&gt;Node4</title>
<path fill="none" stroke="midnightblue" d="M541.61,-58.02C528.07,-57.1 514.44,-56.17 501.22,-55.27"/>
<polygon fill="midnightblue" stroke="midnightblue" points="541.72,-61.53 551.94,-58.72 542.2,-54.55 541.72,-61.53"/>
</g>
<!-- Node5 -->
<g id="node5" class="node">
<title>Node5</title>
<g id="a_node5"><a xlink:href="classMainPage_1_1TaskDisplayHandler.html#a98b63052d0efc73233a32b69a06bf68e" target="_top" xlink:title="When the complete acknowledge were recieved from the server update the display">
<polygon fill="white" stroke="black" points="273,-0.5 273,-19.5 514,-19.5 514,-0.5 273,-0.5"/>
<text text-anchor="middle" x="393.5" y="-7.5" font-family="Helvetica,sans-Serif" font-size="10.00">MainPage.TaskDisplayHandler.TaskCompleted</text>
</a>
</g>
</g>
<!-- Node1&#45;&gt;Node5 -->
<g id="edge4" class="edge">
<title>Node1&#45;&gt;Node5</title>
<path fill="none" stroke="midnightblue" d="M627.96,-54.97C596.62,-46.95 553.97,-36.54 516,-29 498.51,-25.53 479.51,-22.3 461.84,-19.53"/>
<polygon fill="midnightblue" stroke="midnightblue" points="627.16,-58.38 637.72,-57.48 628.91,-51.6 627.16,-58.38"/>
</g>
<!-- Node5&#45;&gt;Node2 -->
<g id="edge5" class="edge">
<title>Node5&#45;&gt;Node2</title>
<path fill="none" stroke="midnightblue" d="M314.56,-21.13C300.04,-23.51 285.03,-26.16 271,-29 230.22,-37.25 183.91,-49.16 153.13,-57.44"/>
<polygon fill="midnightblue" stroke="midnightblue" points="315.19,-24.58 324.51,-19.54 314.08,-17.67 315.19,-24.58"/>
</g>
</g>
</svg>
