<?xml version="1.0" encoding="UTF-8" standalone="no"?>
<!DOCTYPE svg PUBLIC "-//W3C//DTD SVG 1.1//EN"
 "http://www.w3.org/Graphics/SVG/1.1/DTD/svg11.dtd">
<!-- Generated by graphviz version 2.43.0 (0)
 -->
<!-- Title: Utility.ModalWindow.Show Pages: 1 -->
<svg width="1369pt" height="612pt"
 viewBox="0.00 0.00 1369.00 612.13" xmlns="http://www.w3.org/2000/svg" xmlns:xlink="http://www.w3.org/1999/xlink">
<g id="graph0" class="graph" transform="scale(1 1) rotate(0) translate(4 608.13)">
<title>Utility.ModalWindow.Show</title>
<polygon fill="white" stroke="transparent" points="-4,4 -4,-608.13 1365,-608.13 1365,4 -4,4"/>
<!-- Node1 -->
<g id="node1" class="node">
<title>Node1</title>
<g id="a_node1"><a xlink:title="Show the modal window">
<polygon fill="#bfbfbf" stroke="black" points="1215,-342.5 1215,-361.5 1361,-361.5 1361,-342.5 1215,-342.5"/>
<text text-anchor="middle" x="1288" y="-349.5" font-family="Helvetica,sans-Serif" font-size="10.00">Utility.ModalWindow.Show</text>
</a>
</g>
</g>
<!-- Node2 -->
<g id="node2" class="node">
<title>Node2</title>
<g id="a_node2"><a xlink:href="classUser_1_1UserController.html#ae7159709fe17c18b3f9e3a15617c1db1" target="_top" xlink:title="Send a register request with the register panel&#39;s fields">
<polygon fill="white" stroke="black" points="621.5,-570.5 621.5,-589.5 800.5,-589.5 800.5,-570.5 621.5,-570.5"/>
<text text-anchor="middle" x="711" y="-577.5" font-family="Helvetica,sans-Serif" font-size="10.00">User.UserController.SendRegister</text>
</a>
</g>
</g>
<!-- Node1&#45;&gt;Node2 -->
<g id="edge1" class="edge">
<title>Node1&#45;&gt;Node2</title>
<path fill="none" stroke="midnightblue" d="M1282.4,-371.51C1271.86,-411.4 1241.88,-501.92 1179,-542 1046.45,-626.51 847.9,-605.08 758.53,-589.5"/>
<polygon fill="midnightblue" stroke="midnightblue" points="1285.83,-372.24 1284.87,-361.68 1279.04,-370.53 1285.83,-372.24"/>
</g>
<!-- Node3 -->
<g id="node3" class="node">
<title>Node3</title>
<g id="a_node3"><a xlink:href="classUtility_1_1ModalWindow.html#aefa109efe486b5a93c22bef9105bf2ee" target="_top" xlink:title="Show the modal window with custom content">
<polygon fill="white" stroke="black" points="963,-513.5 963,-532.5 1109,-532.5 1109,-513.5 963,-513.5"/>
<text text-anchor="middle" x="1036" y="-520.5" font-family="Helvetica,sans-Serif" font-size="10.00">Utility.ModalWindow.Show</text>
</a>
</g>
</g>
<!-- Node1&#45;&gt;Node3 -->
<g id="edge2" class="edge">
<title>Node1&#45;&gt;Node3</title>
<path fill="none" stroke="midnightblue" d="M1279.55,-371.03C1265.46,-404.25 1231.52,-472.3 1179,-504 1158.24,-516.53 1132.69,-522.27 1109.02,-524.58"/>
<polygon fill="midnightblue" stroke="midnightblue" points="1282.88,-372.14 1283.43,-361.56 1276.4,-369.49 1282.88,-372.14"/>
</g>
<!-- Node4 -->
<g id="node4" class="node">
<title>Node4</title>
<g id="a_node4"><a xlink:href="classUser_1_1UserController.html#a156a37eabac915f5d287201599b3a0b1" target="_top" xlink:title="Show the login error on the modal window">
<polygon fill="white" stroke="black" points="941,-437.5 941,-456.5 1131,-456.5 1131,-437.5 941,-437.5"/>
<text text-anchor="middle" x="1036" y="-444.5" font-family="Helvetica,sans-Serif" font-size="10.00">User.UserController.ShowLoginError</text>
</a>
</g>
</g>
<!-- Node1&#45;&gt;Node4 -->
<g id="edge3" class="edge">
<title>Node1&#45;&gt;Node4</title>
<path fill="none" stroke="midnightblue" d="M1269.52,-368.39C1249.38,-386.25 1214.46,-414.12 1179,-428 1163.95,-433.89 1147.38,-438.02 1131.04,-440.89"/>
<polygon fill="midnightblue" stroke="midnightblue" points="1271.91,-370.95 1276.97,-361.65 1267.21,-365.77 1271.91,-370.95"/>
</g>
<!-- Node6 -->
<g id="node6" class="node">
<title>Node6</title>
<g id="a_node6"><a xlink:href="classUser_1_1UserController.html#a07a456882c4f5619e468f30cc0cdf76c" target="_top" xlink:title="Show the register error on the modal window">
<polygon fill="white" stroke="black" points="934,-475.5 934,-494.5 1138,-494.5 1138,-475.5 934,-475.5"/>
<text text-anchor="middle" x="1036" y="-482.5" font-family="Helvetica,sans-Serif" font-size="10.00">User.UserController.ShowRegisterError</text>
</a>
</g>
</g>
<!-- Node1&#45;&gt;Node6 -->
<g id="edge5" class="edge">
<title>Node1&#45;&gt;Node6</title>
<path fill="none" stroke="midnightblue" d="M1275.62,-370.31C1258.3,-396.42 1222.67,-443.67 1179,-466 1166.38,-472.46 1152.34,-476.98 1138.13,-480.11"/>
<polygon fill="midnightblue" stroke="midnightblue" points="1278.68,-372.03 1281.16,-361.73 1272.79,-368.24 1278.68,-372.03"/>
</g>
<!-- Node7 -->
<g id="node7" class="node">
<title>Node7</title>
<g id="a_node7"><a xlink:href="classGame_1_1UI_1_1GameUI.html#ac464d5a547acb44085748e2ee265272f" target="_top" xlink:title="Show if the request failed on the modal window">
<polygon fill="white" stroke="black" points="942,-399.5 942,-418.5 1130,-418.5 1130,-399.5 942,-399.5"/>
<text text-anchor="middle" x="1036" y="-406.5" font-family="Helvetica,sans-Serif" font-size="10.00">Game.UI.GameUI.ShowRequestFail</text>
</a>
</g>
</g>
<!-- Node1&#45;&gt;Node7 -->
<g id="edge7" class="edge">
<title>Node1&#45;&gt;Node7</title>
<path fill="none" stroke="midnightblue" d="M1235.32,-363.78C1189.04,-374.33 1122.03,-389.61 1078.98,-399.43"/>
<polygon fill="midnightblue" stroke="midnightblue" points="1236.18,-367.18 1245.16,-361.54 1234.63,-360.35 1236.18,-367.18"/>
</g>
<!-- Node18 -->
<g id="node18" class="node">
<title>Node18</title>
<g id="a_node18"><a xlink:href="classGame_1_1UI_1_1LeaderboardWindow.html#add244b5633e10a828542b586844e9ef2" target="_top" xlink:title="Show if the request failed in the modal">
<polygon fill="white" stroke="black" points="912.5,-342.5 912.5,-361.5 1159.5,-361.5 1159.5,-342.5 912.5,-342.5"/>
<text text-anchor="middle" x="1036" y="-349.5" font-family="Helvetica,sans-Serif" font-size="10.00">Game.UI.LeaderboardWindow.ShowRequestFail</text>
</a>
</g>
</g>
<!-- Node1&#45;&gt;Node18 -->
<g id="edge19" class="edge">
<title>Node1&#45;&gt;Node18</title>
<path fill="none" stroke="midnightblue" d="M1204.37,-352C1189.98,-352 1174.74,-352 1159.55,-352"/>
<polygon fill="midnightblue" stroke="midnightblue" points="1204.69,-355.5 1214.69,-352 1204.69,-348.5 1204.69,-355.5"/>
</g>
<!-- Node22 -->
<g id="node22" class="node">
<title>Node22</title>
<g id="a_node22"><a xlink:href="classGame_1_1UI_1_1ShopWindow.html#ab11a75acddb1467e29d7624a4d12b8b9" target="_top" xlink:title="Show if the request failed on the modal window">
<polygon fill="white" stroke="black" points="931,-304.5 931,-323.5 1141,-323.5 1141,-304.5 931,-304.5"/>
<text text-anchor="middle" x="1036" y="-311.5" font-family="Helvetica,sans-Serif" font-size="10.00">Game.UI.ShopWindow.ShowRequestFail</text>
</a>
</g>
</g>
<!-- Node1&#45;&gt;Node22 -->
<g id="edge23" class="edge">
<title>Node1&#45;&gt;Node22</title>
<path fill="none" stroke="midnightblue" d="M1225.18,-340.67C1210.09,-338.03 1193.98,-335.32 1179,-333 1157.49,-329.67 1134.1,-326.4 1112.62,-323.53"/>
<polygon fill="midnightblue" stroke="midnightblue" points="1224.98,-344.19 1235.43,-342.48 1226.19,-337.3 1224.98,-344.19"/>
</g>
<!-- Node28 -->
<g id="node28" class="node">
<title>Node28</title>
<g id="a_node28"><a xlink:href="classMainPage_1_1MainWindowController.html#aca9938481cb1ebf9d9b46ca9779e48f4" target="_top" xlink:title="Show the server request fail in the modal window">
<polygon fill="white" stroke="black" points="904.5,-261.5 904.5,-280.5 1167.5,-280.5 1167.5,-261.5 904.5,-261.5"/>
<text text-anchor="middle" x="1036" y="-268.5" font-family="Helvetica,sans-Serif" font-size="10.00">MainPage.MainWindowController.ShowRequestFail</text>
</a>
</g>
</g>
<!-- Node1&#45;&gt;Node28 -->
<g id="edge30" class="edge">
<title>Node1&#45;&gt;Node28</title>
<path fill="none" stroke="midnightblue" d="M1263.67,-336.88C1242.43,-323.81 1209.79,-305.43 1179,-295 1160.41,-288.7 1139.87,-284.01 1120.32,-280.53"/>
<polygon fill="midnightblue" stroke="midnightblue" points="1261.97,-339.94 1272.31,-342.29 1265.69,-334.01 1261.97,-339.94"/>
</g>
<!-- Node31 -->
<g id="node31" class="node">
<title>Node31</title>
<g id="a_node31"><a xlink:href="classMainPage_1_1FriendWindowHandler.html#a426fe4fa5825088784861d79cf48048d" target="_top" xlink:title="Show api request failure">
<polygon fill="white" stroke="black" points="906.5,-214.5 906.5,-233.5 1165.5,-233.5 1165.5,-214.5 906.5,-214.5"/>
<text text-anchor="middle" x="1036" y="-221.5" font-family="Helvetica,sans-Serif" font-size="10.00">MainPage.FriendWindowHandler.ShowRequestFail</text>
</a>
</g>
</g>
<!-- Node1&#45;&gt;Node31 -->
<g id="edge33" class="edge">
<title>Node1&#45;&gt;Node31</title>
<path fill="none" stroke="midnightblue" d="M1273.56,-334.62C1254.92,-311.82 1218.98,-272.35 1179,-252 1162.43,-243.57 1143.57,-237.67 1125.14,-233.54"/>
<polygon fill="midnightblue" stroke="midnightblue" points="1270.85,-336.83 1279.82,-342.46 1276.32,-332.46 1270.85,-336.83"/>
</g>
<!-- Node33 -->
<g id="node33" class="node">
<title>Node33</title>
<g id="a_node33"><a xlink:href="classMainPage_1_1TaskHistoryWindowHandler.html#a74232871cc96faede9c1b89314bc7ce6" target="_top" xlink:title="Show the server response errors">
<polygon fill="white" stroke="black" points="893,-157.5 893,-176.5 1179,-176.5 1179,-157.5 893,-157.5"/>
<text text-anchor="middle" x="1036" y="-164.5" font-family="Helvetica,sans-Serif" font-size="10.00">MainPage.TaskHistoryWindowHandler.ShowRequestFail</text>
</a>
</g>
</g>
<!-- Node1&#45;&gt;Node33 -->
<g id="edge35" class="edge">
<title>Node1&#45;&gt;Node33</title>
<path fill="none" stroke="midnightblue" d="M1278.32,-332.94C1262.94,-301.36 1227.87,-238.38 1179,-205 1158.45,-190.96 1132.96,-182.11 1109.27,-176.52"/>
<polygon fill="midnightblue" stroke="midnightblue" points="1275.33,-334.81 1282.77,-342.35 1281.66,-331.82 1275.33,-334.81"/>
</g>
<!-- Node36 -->
<g id="node36" class="node">
<title>Node36</title>
<g id="a_node36"><a xlink:href="classMainPage_1_1MainWindowController.html#afea342e3985134e17406ed61958ecc6f" target="_top" xlink:title="Show the task request fail in the modal window">
<polygon fill="white" stroke="black" points="913.5,-76.5 913.5,-95.5 1158.5,-95.5 1158.5,-76.5 913.5,-76.5"/>
<text text-anchor="middle" x="1036" y="-83.5" font-family="Helvetica,sans-Serif" font-size="10.00">MainPage.MainWindowController.ShowTaskFail</text>
</a>
</g>
</g>
<!-- Node1&#45;&gt;Node36 -->
<g id="edge38" class="edge">
<title>Node1&#45;&gt;Node36</title>
<path fill="none" stroke="midnightblue" d="M1281.57,-332.75C1269.48,-293.11 1236.74,-201.55 1179,-148 1150.01,-121.11 1107.49,-104.66 1076.54,-95.52"/>
<polygon fill="midnightblue" stroke="midnightblue" points="1278.25,-333.88 1284.44,-342.49 1284.97,-331.91 1278.25,-333.88"/>
</g>
<!-- Node5 -->
<g id="node5" class="node">
<title>Node5</title>
<g id="a_node5"><a xlink:href="classUser_1_1UserController.html#a7d9a8e16cdb6bc3702ab7987cc141b09" target="_top" xlink:title="Send a login request with the login panel&#39;s fields">
<polygon fill="white" stroke="black" points="629,-532.5 629,-551.5 793,-551.5 793,-532.5 629,-532.5"/>
<text text-anchor="middle" x="711" y="-539.5" font-family="Helvetica,sans-Serif" font-size="10.00">User.UserController.SendLogin</text>
</a>
</g>
</g>
<!-- Node4&#45;&gt;Node5 -->
<g id="edge4" class="edge">
<title>Node4&#45;&gt;Node5</title>
<path fill="none" stroke="midnightblue" d="M930.94,-450.14C917.5,-453.58 904.46,-458.65 893,-466 867.78,-482.18 882.24,-506.86 857,-523 838.18,-535.04 815.16,-541.04 793.06,-543.74"/>
<polygon fill="midnightblue" stroke="midnightblue" points="931.79,-453.54 940.77,-447.92 930.24,-446.71 931.79,-453.54"/>
</g>
<!-- Node6&#45;&gt;Node2 -->
<g id="edge6" class="edge">
<title>Node6&#45;&gt;Node2</title>
<path fill="none" stroke="midnightblue" d="M924,-490.08C913.03,-493.4 902.47,-497.92 893,-504 867.78,-520.18 882.24,-544.86 857,-561 840.32,-571.67 820.34,-577.6 800.62,-580.69"/>
<polygon fill="midnightblue" stroke="midnightblue" points="924.98,-493.44 933.73,-487.45 923.16,-486.68 924.98,-493.44"/>
</g>
<!-- Node8 -->
<g id="node8" class="node">
<title>Node8</title>
<g id="a_node8"><a xlink:href="classGame_1_1UI_1_1GameUI.html#acd930ff070019fc74a3795a8b1452923" target="_top" xlink:title="Buy the immunity power up">
<polygon fill="white" stroke="black" points="625.5,-494.5 625.5,-513.5 796.5,-513.5 796.5,-494.5 625.5,-494.5"/>
<text text-anchor="middle" x="711" y="-501.5" font-family="Helvetica,sans-Serif" font-size="10.00">Game.UI.GameUI.BuyImmunity</text>
</a>
</g>
</g>
<!-- Node7&#45;&gt;Node8 -->
<g id="edge8" class="edge">
<title>Node7&#45;&gt;Node8</title>
<path fill="none" stroke="midnightblue" d="M931.83,-411.92C918.08,-415.36 904.71,-420.49 893,-428 867.78,-444.18 882.24,-468.86 857,-485 839.25,-496.35 817.76,-502.34 796.83,-505.25"/>
<polygon fill="midnightblue" stroke="midnightblue" points="932.87,-415.27 941.88,-409.7 931.36,-408.43 932.87,-415.27"/>
</g>
<!-- Node10 -->
<g id="node10" class="node">
<title>Node10</title>
<g id="a_node10"><a xlink:href="classGame_1_1UI_1_1GameUI.html#a97a84e72b5ac1d245d1bfd3eb802fdfd" target="_top" xlink:title="Buy the turbo power up">
<polygon fill="white" stroke="black" points="636,-456.5 636,-475.5 786,-475.5 786,-456.5 636,-456.5"/>
<text text-anchor="middle" x="711" y="-463.5" font-family="Helvetica,sans-Serif" font-size="10.00">Game.UI.GameUI.BuyTurbo</text>
</a>
</g>
</g>
<!-- Node7&#45;&gt;Node10 -->
<g id="edge10" class="edge">
<title>Node7&#45;&gt;Node10</title>
<path fill="none" stroke="midnightblue" d="M931.81,-418.44C918.59,-420.92 905.37,-424.05 893,-428 875.77,-433.51 874.24,-441.52 857,-447 834.5,-454.16 809.21,-458.62 786.13,-461.41"/>
<polygon fill="midnightblue" stroke="midnightblue" points="932.67,-421.84 941.91,-416.67 931.46,-414.95 932.67,-421.84"/>
</g>
<!-- Node11 -->
<g id="node11" class="node">
<title>Node11</title>
<g id="a_node11"><a xlink:href="classGame_1_1UI_1_1GameUI.html#aaed9ba7f6e28b2260d488f01c803e60a" target="_top" xlink:title="Buy the double coins bonus">
<polygon fill="white" stroke="black" points="627.5,-418.5 627.5,-437.5 794.5,-437.5 794.5,-418.5 627.5,-418.5"/>
<text text-anchor="middle" x="711" y="-425.5" font-family="Helvetica,sans-Serif" font-size="10.00">Game.UI.GameUI.DoubleCoins</text>
</a>
</g>
</g>
<!-- Node7&#45;&gt;Node11 -->
<g id="edge12" class="edge">
<title>Node7&#45;&gt;Node11</title>
<path fill="none" stroke="midnightblue" d="M931.36,-415.1C887.1,-417.7 836.15,-420.7 794.5,-423.15"/>
<polygon fill="midnightblue" stroke="midnightblue" points="931.8,-418.58 941.58,-414.5 931.39,-411.59 931.8,-418.58"/>
</g>
<!-- Node12 -->
<g id="node12" class="node">
<title>Node12</title>
<g id="a_node12"><a xlink:href="classGame_1_1UI_1_1GameUI.html#a4f9c8b23e2a0e5d86c53377ece2c9bac" target="_top" xlink:title="Save the game&#39;s result">
<polygon fill="white" stroke="black" points="616.5,-380.5 616.5,-399.5 805.5,-399.5 805.5,-380.5 616.5,-380.5"/>
<text text-anchor="middle" x="711" y="-387.5" font-family="Helvetica,sans-Serif" font-size="10.00">Game.UI.GameUI.SaveGameResult</text>
</a>
</g>
</g>
<!-- Node7&#45;&gt;Node12 -->
<g id="edge13" class="edge">
<title>Node7&#45;&gt;Node12</title>
<path fill="none" stroke="midnightblue" d="M931.44,-402.91C891.08,-400.53 845.15,-397.83 805.77,-395.52"/>
<polygon fill="midnightblue" stroke="midnightblue" points="931.39,-406.41 941.58,-403.5 931.8,-399.42 931.39,-406.41"/>
</g>
<!-- Node9 -->
<g id="node9" class="node">
<title>Node9</title>
<g id="a_node9"><a xlink:href="classGame_1_1UI_1_1GameUI.html#a77f6894867ecdecc2f7ca4bea695849f" target="_top" xlink:title="Called every frame">
<polygon fill="white" stroke="black" points="341.5,-475.5 341.5,-494.5 481.5,-494.5 481.5,-475.5 341.5,-475.5"/>
<text text-anchor="middle" x="411.5" y="-482.5" font-family="Helvetica,sans-Serif" font-size="10.00">Game.UI.GameUI.Update</text>
</a>
</g>
</g>
<!-- Node8&#45;&gt;Node9 -->
<g id="edge9" class="edge">
<title>Node8&#45;&gt;Node9</title>
<path fill="none" stroke="midnightblue" d="M614.9,-497.93C571.69,-495.17 521.51,-491.96 481.93,-489.43"/>
<polygon fill="midnightblue" stroke="midnightblue" points="614.94,-501.44 625.15,-498.58 615.39,-494.45 614.94,-501.44"/>
</g>
<!-- Node10&#45;&gt;Node9 -->
<g id="edge11" class="edge">
<title>Node10&#45;&gt;Node9</title>
<path fill="none" stroke="midnightblue" d="M625.54,-471.39C579.98,-474.3 524.46,-477.85 481.53,-480.59"/>
<polygon fill="midnightblue" stroke="midnightblue" points="625.94,-474.88 635.7,-470.75 625.49,-467.89 625.94,-474.88"/>
</g>
<!-- Node13 -->
<g id="node13" class="node">
<title>Node13</title>
<g id="a_node13"><a xlink:href="classGame_1_1UI_1_1GameUI.html#a87baf7b6bd70298f817e2c8e5e52a33a" target="_top" xlink:title="Hide the game over screen">
<polygon fill="white" stroke="black" points="305,-399.5 305,-418.5 518,-418.5 518,-399.5 305,-399.5"/>
<text text-anchor="middle" x="411.5" y="-406.5" font-family="Helvetica,sans-Serif" font-size="10.00">Game.UI.GameUI.HideGameOverScreen</text>
</a>
</g>
</g>
<!-- Node12&#45;&gt;Node13 -->
<g id="edge14" class="edge">
<title>Node12&#45;&gt;Node13</title>
<path fill="none" stroke="midnightblue" d="M605.92,-396.65C577.51,-398.46 546.69,-400.43 518.18,-402.25"/>
<polygon fill="midnightblue" stroke="midnightblue" points="606.52,-400.12 616.28,-395.99 606.07,-393.13 606.52,-400.12"/>
</g>
<!-- Node14 -->
<g id="node14" class="node">
<title>Node14</title>
<g id="a_node14"><a xlink:href="classGame_1_1UI_1_1GameUI.html#ae468c173078a10af94f671a2f8db940b" target="_top" xlink:title="Show the main menu">
<polygon fill="white" stroke="black" points="31,-475.5 31,-494.5 227,-494.5 227,-475.5 31,-475.5"/>
<text text-anchor="middle" x="129" y="-482.5" font-family="Helvetica,sans-Serif" font-size="10.00">Game.UI.GameUI.BackToGameMenu</text>
</a>
</g>
</g>
<!-- Node13&#45;&gt;Node14 -->
<g id="edge15" class="edge">
<title>Node13&#45;&gt;Node14</title>
<path fill="none" stroke="midnightblue" d="M380.04,-422.56C349.69,-435.55 301.46,-454.78 258,-466 243.21,-469.82 227.24,-472.95 211.77,-475.48"/>
<polygon fill="midnightblue" stroke="midnightblue" points="381.45,-425.76 389.24,-418.58 378.67,-419.34 381.45,-425.76"/>
</g>
<!-- Node15 -->
<g id="node15" class="node">
<title>Node15</title>
<g id="a_node15"><a xlink:href="classGame_1_1UI_1_1GameUI.html#aaec0b0e9165ba1d2dc25f1c562f5478a" target="_top" xlink:title="Show the main menu, but don&#39;t save the scores">
<polygon fill="white" stroke="black" points="0,-437.5 0,-456.5 258,-456.5 258,-437.5 0,-437.5"/>
<text text-anchor="middle" x="129" y="-444.5" font-family="Helvetica,sans-Serif" font-size="10.00">Game.UI.GameUI.BackToGameMenuWithoutSave</text>
</a>
</g>
</g>
<!-- Node13&#45;&gt;Node15 -->
<g id="edge16" class="edge">
<title>Node13&#45;&gt;Node15</title>
<path fill="none" stroke="midnightblue" d="M330.14,-419.89C289.2,-425.43 239.88,-432.11 200.45,-437.46"/>
<polygon fill="midnightblue" stroke="midnightblue" points="330.64,-423.35 340.08,-418.54 329.7,-416.41 330.64,-423.35"/>
</g>
<!-- Node16 -->
<g id="node16" class="node">
<title>Node16</title>
<g id="a_node16"><a xlink:href="classGame_1_1UI_1_1GameUI.html#a4248468e8aaa0b1f7bb24162e9bef6c7" target="_top" xlink:title="Move back to the tasks">
<polygon fill="white" stroke="black" points="45.5,-399.5 45.5,-418.5 212.5,-418.5 212.5,-399.5 45.5,-399.5"/>
<text text-anchor="middle" x="129" y="-406.5" font-family="Helvetica,sans-Serif" font-size="10.00">Game.UI.GameUI.BackToTasks</text>
</a>
</g>
</g>
<!-- Node13&#45;&gt;Node16 -->
<g id="edge17" class="edge">
<title>Node13&#45;&gt;Node16</title>
<path fill="none" stroke="midnightblue" d="M294.79,-409C267.3,-409 238.5,-409 212.82,-409"/>
<polygon fill="midnightblue" stroke="midnightblue" points="294.85,-412.5 304.85,-409 294.85,-405.5 294.85,-412.5"/>
</g>
<!-- Node17 -->
<g id="node17" class="node">
<title>Node17</title>
<g id="a_node17"><a xlink:href="classGame_1_1UI_1_1GameUI.html#ad581ee67e01ac3bcdec06cf2538f06e4" target="_top" xlink:title="Start a new game">
<polygon fill="white" stroke="black" points="51,-361.5 51,-380.5 207,-380.5 207,-361.5 51,-361.5"/>
<text text-anchor="middle" x="129" y="-368.5" font-family="Helvetica,sans-Serif" font-size="10.00">Game.UI.GameUI.NewGame</text>
</a>
</g>
</g>
<!-- Node13&#45;&gt;Node17 -->
<g id="edge18" class="edge">
<title>Node13&#45;&gt;Node17</title>
<path fill="none" stroke="midnightblue" d="M330.14,-398.11C289.2,-392.57 239.88,-385.89 200.45,-380.54"/>
<polygon fill="midnightblue" stroke="midnightblue" points="329.7,-401.59 340.08,-399.46 330.64,-394.65 329.7,-401.59"/>
</g>
<!-- Node19 -->
<g id="node19" class="node">
<title>Node19</title>
<g id="a_node19"><a xlink:href="classGame_1_1UI_1_1LeaderboardWindow.html#a6d7212efa2c2627d119bac3318ea0d00" target="_top" xlink:title="Load the scores">
<polygon fill="white" stroke="black" points="601,-342.5 601,-361.5 821,-361.5 821,-342.5 601,-342.5"/>
<text text-anchor="middle" x="711" y="-349.5" font-family="Helvetica,sans-Serif" font-size="10.00">Game.UI.LeaderboardWindow.LoadScores</text>
</a>
</g>
</g>
<!-- Node18&#45;&gt;Node19 -->
<g id="edge20" class="edge">
<title>Node18&#45;&gt;Node19</title>
<path fill="none" stroke="midnightblue" d="M902.17,-352C875.25,-352 847.24,-352 821.25,-352"/>
<polygon fill="midnightblue" stroke="midnightblue" points="902.43,-355.5 912.43,-352 902.43,-348.5 902.43,-355.5"/>
</g>
<!-- Node20 -->
<g id="node20" class="node">
<title>Node20</title>
<g id="a_node20"><a xlink:href="classGame_1_1UI_1_1LeaderboardWindow.html#a8404b4a49a1f74f3b634ec77eb4b1d87" target="_top" xlink:title="Show the window">
<polygon fill="white" stroke="black" points="316,-342.5 316,-361.5 507,-361.5 507,-342.5 316,-342.5"/>
<text text-anchor="middle" x="411.5" y="-349.5" font-family="Helvetica,sans-Serif" font-size="10.00">Game.UI.LeaderboardWindow.Show</text>
</a>
</g>
</g>
<!-- Node19&#45;&gt;Node20 -->
<g id="edge21" class="edge">
<title>Node19&#45;&gt;Node20</title>
<path fill="none" stroke="midnightblue" d="M590.77,-352C563.03,-352 533.87,-352 507.35,-352"/>
<polygon fill="midnightblue" stroke="midnightblue" points="590.91,-355.5 600.91,-352 590.91,-348.5 590.91,-355.5"/>
</g>
<!-- Node21 -->
<g id="node21" class="node">
<title>Node21</title>
<g id="a_node21"><a xlink:href="classGame_1_1UI_1_1GameUI.html#a4258f849b2e7d8cdb72dd01c26de3a71" target="_top" xlink:title="Show the leaderboard window">
<polygon fill="white" stroke="black" points="33,-323.5 33,-342.5 225,-342.5 225,-323.5 33,-323.5"/>
<text text-anchor="middle" x="129" y="-330.5" font-family="Helvetica,sans-Serif" font-size="10.00">Game.UI.GameUI.ShowLeaderboard</text>
</a>
</g>
</g>
<!-- Node20&#45;&gt;Node21 -->
<g id="edge22" class="edge">
<title>Node20&#45;&gt;Node21</title>
<path fill="none" stroke="midnightblue" d="M305.88,-344.91C279.39,-343.12 251.1,-341.2 225.12,-339.44"/>
<polygon fill="midnightblue" stroke="midnightblue" points="305.71,-348.41 315.93,-345.59 306.19,-341.43 305.71,-348.41"/>
</g>
<!-- Node23 -->
<g id="node23" class="node">
<title>Node23</title>
<g id="a_node23"><a xlink:href="classGame_1_1UI_1_1ShopItem.html#a08030b9b33414329032136c2db442bef" target="_top" xlink:title="Buy this shop item">
<polygon fill="white" stroke="black" points="63.5,-276.5 63.5,-295.5 194.5,-295.5 194.5,-276.5 63.5,-276.5"/>
<text text-anchor="middle" x="129" y="-283.5" font-family="Helvetica,sans-Serif" font-size="10.00">Game.UI.ShopItem.Buy</text>
</a>
</g>
</g>
<!-- Node22&#45;&gt;Node23 -->
<g id="edge24" class="edge">
<title>Node22&#45;&gt;Node23</title>
<path fill="none" stroke="midnightblue" d="M920.68,-312.1C775.1,-309.45 515.79,-303.93 294,-295 261.23,-293.68 224.81,-291.73 194.63,-289.98"/>
<polygon fill="midnightblue" stroke="midnightblue" points="920.9,-315.61 930.97,-312.29 921.03,-308.61 920.9,-315.61"/>
</g>
<!-- Node24 -->
<g id="node24" class="node">
<title>Node24</title>
<g id="a_node24"><a xlink:href="classGame_1_1UI_1_1ShopWindow.html#a9297b39a0fa7a77e8cf3022bc28c0b35" target="_top" xlink:title="Update the shop items">
<polygon fill="white" stroke="black" points="617.5,-266.5 617.5,-285.5 804.5,-285.5 804.5,-266.5 617.5,-266.5"/>
<text text-anchor="middle" x="711" y="-273.5" font-family="Helvetica,sans-Serif" font-size="10.00">Game.UI.ShopWindow.UpdateShop</text>
</a>
</g>
</g>
<!-- Node22&#45;&gt;Node24 -->
<g id="edge25" class="edge">
<title>Node22&#45;&gt;Node24</title>
<path fill="none" stroke="midnightblue" d="M943.93,-303.29C896.41,-297.7 838.77,-290.91 792.84,-285.51"/>
<polygon fill="midnightblue" stroke="midnightblue" points="943.57,-306.77 953.91,-304.46 944.39,-299.82 943.57,-306.77"/>
</g>
<!-- Node25 -->
<g id="node25" class="node">
<title>Node25</title>
<g id="a_node25"><a xlink:href="classGame_1_1UI_1_1ShopItem.html#aba8c6371c3eeaecb2bb7ab1f07311869" target="_top" xlink:title="Callback when it is bought">
<polygon fill="white" stroke="black" points="338.5,-266.5 338.5,-285.5 484.5,-285.5 484.5,-266.5 338.5,-266.5"/>
<text text-anchor="middle" x="411.5" y="-273.5" font-family="Helvetica,sans-Serif" font-size="10.00">Game.UI.ShopItem.Bought</text>
</a>
</g>
</g>
<!-- Node24&#45;&gt;Node25 -->
<g id="edge26" class="edge">
<title>Node24&#45;&gt;Node25</title>
<path fill="none" stroke="midnightblue" d="M607.34,-276C566.92,-276 521.46,-276 484.63,-276"/>
<polygon fill="midnightblue" stroke="midnightblue" points="607.5,-279.5 617.5,-276 607.5,-272.5 607.5,-279.5"/>
</g>
<!-- Node26 -->
<g id="node26" class="node">
<title>Node26</title>
<g id="a_node26"><a xlink:href="classGame_1_1UI_1_1ShopWindow.html#ad9204f9c12eb8520523232c340f477b0" target="_top" xlink:title="Show the shop window">
<polygon fill="white" stroke="black" points="334.5,-228.5 334.5,-247.5 488.5,-247.5 488.5,-228.5 334.5,-228.5"/>
<text text-anchor="middle" x="411.5" y="-235.5" font-family="Helvetica,sans-Serif" font-size="10.00">Game.UI.ShopWindow.Show</text>
</a>
</g>
</g>
<!-- Node24&#45;&gt;Node26 -->
<g id="edge28" class="edge">
<title>Node24&#45;&gt;Node26</title>
<path fill="none" stroke="midnightblue" d="M625.3,-265.18C581.69,-259.61 529,-252.88 486.96,-247.51"/>
<polygon fill="midnightblue" stroke="midnightblue" points="624.95,-268.66 635.31,-266.46 625.84,-261.72 624.95,-268.66"/>
</g>
<!-- Node25&#45;&gt;Node23 -->
<g id="edge27" class="edge">
<title>Node25&#45;&gt;Node23</title>
<path fill="none" stroke="midnightblue" d="M328.21,-278.93C285.67,-280.45 234.5,-282.27 194.81,-283.69"/>
<polygon fill="midnightblue" stroke="midnightblue" points="328.4,-282.43 338.26,-278.58 328.15,-275.43 328.4,-282.43"/>
</g>
<!-- Node27 -->
<g id="node27" class="node">
<title>Node27</title>
<g id="a_node27"><a xlink:href="classGame_1_1UI_1_1GameUI.html#a443a0569c632ba816be0bd1511b62bca" target="_top" xlink:title="Display the shop window">
<polygon fill="white" stroke="black" points="32,-228.5 32,-247.5 226,-247.5 226,-228.5 32,-228.5"/>
<text text-anchor="middle" x="129" y="-235.5" font-family="Helvetica,sans-Serif" font-size="10.00">Game.UI.GameUI.ShowShopWindow</text>
</a>
</g>
</g>
<!-- Node26&#45;&gt;Node27 -->
<g id="edge29" class="edge">
<title>Node26&#45;&gt;Node27</title>
<path fill="none" stroke="midnightblue" d="M323.89,-238C292.91,-238 257.82,-238 226.09,-238"/>
<polygon fill="midnightblue" stroke="midnightblue" points="324.22,-241.5 334.22,-238 324.22,-234.5 324.22,-241.5"/>
</g>
<!-- Node29 -->
<g id="node29" class="node">
<title>Node29</title>
<g id="a_node29"><a xlink:href="classMainPage_1_1MainWindowController.html#a47c21c97b7ba52af405119044e1434d0" target="_top" xlink:title="Load the tasks from the server">
<polygon fill="white" stroke="black" points="596,-228.5 596,-247.5 826,-247.5 826,-228.5 596,-228.5"/>
<text text-anchor="middle" x="711" y="-235.5" font-family="Helvetica,sans-Serif" font-size="10.00">MainPage.MainWindowController.LoadTasks</text>
</a>
</g>
</g>
<!-- Node28&#45;&gt;Node29 -->
<g id="edge31" class="edge">
<title>Node28&#45;&gt;Node29</title>
<path fill="none" stroke="midnightblue" d="M931.8,-260.46C891.15,-256.3 844.8,-251.57 805.17,-247.52"/>
<polygon fill="midnightblue" stroke="midnightblue" points="931.7,-263.96 942.01,-261.5 932.42,-257 931.7,-263.96"/>
</g>
<!-- Node30 -->
<g id="node30" class="node">
<title>Node30</title>
<g id="a_node30"><a xlink:href="classMainPage_1_1MainWindowController.html#acea2170099ea435298139c6c7fdce719" target="_top" xlink:title="Start is called before the first frame update">
<polygon fill="white" stroke="black" points="310,-190.5 310,-209.5 513,-209.5 513,-190.5 310,-190.5"/>
<text text-anchor="middle" x="411.5" y="-197.5" font-family="Helvetica,sans-Serif" font-size="10.00">MainPage.MainWindowController.Start</text>
</a>
</g>
</g>
<!-- Node29&#45;&gt;Node30 -->
<g id="edge32" class="edge">
<title>Node29&#45;&gt;Node30</title>
<path fill="none" stroke="midnightblue" d="M625.3,-227.18C581.69,-221.61 529,-214.88 486.96,-209.51"/>
<polygon fill="midnightblue" stroke="midnightblue" points="624.95,-230.66 635.31,-228.46 625.84,-223.72 624.95,-230.66"/>
</g>
<!-- Node32 -->
<g id="node32" class="node">
<title>Node32</title>
<g id="a_node32"><a xlink:href="classMainPage_1_1FriendWindowHandler.html#ad0c4b894708ceb9acc635e9a87b306ae" target="_top" xlink:title="Sends a friend request to the user which was specified in the useridentification input">
<polygon fill="white" stroke="black" points="576,-190.5 576,-209.5 846,-209.5 846,-190.5 576,-190.5"/>
<text text-anchor="middle" x="711" y="-197.5" font-family="Helvetica,sans-Serif" font-size="10.00">MainPage.FriendWindowHandler.SendFriendRequest</text>
</a>
</g>
</g>
<!-- Node31&#45;&gt;Node32 -->
<g id="edge34" class="edge">
<title>Node31&#45;&gt;Node32</title>
<path fill="none" stroke="midnightblue" d="M896.76,-213.73C877.91,-212.33 858.63,-210.89 839.97,-209.51"/>
<polygon fill="midnightblue" stroke="midnightblue" points="896.65,-217.23 906.88,-214.48 897.16,-210.25 896.65,-217.23"/>
</g>
<!-- Node34 -->
<g id="node34" class="node">
<title>Node34</title>
<g id="a_node34"><a xlink:href="classMainPage_1_1TaskHistoryWindowHandler.html#ada3a664597d8e1b1b9a261c3c34badba" target="_top" xlink:title="Loads the task histories from the server">
<polygon fill="white" stroke="black" points="565,-152.5 565,-171.5 857,-171.5 857,-152.5 565,-152.5"/>
<text text-anchor="middle" x="711" y="-159.5" font-family="Helvetica,sans-Serif" font-size="10.00">MainPage.TaskHistoryWindowHandler.LoadTaskHistories</text>
</a>
</g>
</g>
<!-- Node33&#45;&gt;Node34 -->
<g id="edge36" class="edge">
<title>Node33&#45;&gt;Node34</title>
<path fill="none" stroke="midnightblue" d="M882.83,-164.64C874.28,-164.51 865.68,-164.38 857.15,-164.25"/>
<polygon fill="midnightblue" stroke="midnightblue" points="882.8,-168.14 892.86,-164.8 882.91,-161.15 882.8,-168.14"/>
</g>
<!-- Node35 -->
<g id="node35" class="node">
<title>Node35</title>
<g id="a_node35"><a xlink:href="classMainPage_1_1TaskHistoryWindowHandler.html#aa726ff0b77b9245e98854bbd827ae9dd" target="_top" xlink:title="Shows the task history window">
<polygon fill="white" stroke="black" points="296.5,-152.5 296.5,-171.5 526.5,-171.5 526.5,-152.5 296.5,-152.5"/>
<text text-anchor="middle" x="411.5" y="-159.5" font-family="Helvetica,sans-Serif" font-size="10.00">MainPage.TaskHistoryWindowHandler.Show</text>
</a>
</g>
</g>
<!-- Node34&#45;&gt;Node35 -->
<g id="edge37" class="edge">
<title>Node34&#45;&gt;Node35</title>
<path fill="none" stroke="midnightblue" d="M554.51,-162C545.09,-162 535.71,-162 526.52,-162"/>
<polygon fill="midnightblue" stroke="midnightblue" points="554.74,-165.5 564.74,-162 554.74,-158.5 554.74,-165.5"/>
</g>
<!-- Node37 -->
<g id="node37" class="node">
<title>Node37</title>
<g id="a_node37"><a xlink:href="classMainPage_1_1TaskDisplayHandler.html#ab553f8eb77d9d038521af3813275a43d" target="_top" xlink:title="Complete the task and send this to the server">
<polygon fill="white" stroke="black" points="294,-57.5 294,-76.5 529,-76.5 529,-57.5 294,-57.5"/>
<text text-anchor="middle" x="411.5" y="-64.5" font-family="Helvetica,sans-Serif" font-size="10.00">MainPage.TaskDisplayHandler.CompleteTask</text>
</a>
</g>
</g>
<!-- Node36&#45;&gt;Node37 -->
<g id="edge39" class="edge">
<title>Node36&#45;&gt;Node37</title>
<path fill="none" stroke="midnightblue" d="M957.86,-96.75C864.48,-108.01 702.64,-121.89 565,-105 521.26,-99.63 472.02,-85.91 441.62,-76.52"/>
<polygon fill="midnightblue" stroke="midnightblue" points="958.29,-100.23 967.79,-95.54 957.43,-93.28 958.29,-100.23"/>
</g>
<!-- Node38 -->
<g id="node38" class="node">
<title>Node38</title>
<g id="a_node38"><a xlink:href="classMainPage_1_1TaskOpenPanelController.html#a3107b94793886f6af28ac9415fb44370" target="_top" xlink:title="Send a delete task request to the server">
<polygon fill="white" stroke="black" points="588.5,-76.5 588.5,-95.5 833.5,-95.5 833.5,-76.5 588.5,-76.5"/>
<text text-anchor="middle" x="711" y="-83.5" font-family="Helvetica,sans-Serif" font-size="10.00">MainPage.TaskOpenPanelController.DeleteTask</text>
</a>
</g>
</g>
<!-- Node36&#45;&gt;Node38 -->
<g id="edge40" class="edge">
<title>Node36&#45;&gt;Node38</title>
<path fill="none" stroke="midnightblue" d="M903.18,-86C880.15,-86 856.28,-86 833.54,-86"/>
<polygon fill="midnightblue" stroke="midnightblue" points="903.35,-89.5 913.35,-86 903.35,-82.5 903.35,-89.5"/>
</g>
<!-- Node39 -->
<g id="node39" class="node">
<title>Node39</title>
<g id="a_node39"><a xlink:href="classMainPage_1_1TaskOpenPanelController.html#ab8def75cd4cdbdaf3033022ea114a8a6" target="_top" xlink:title="Save the task to the server">
<polygon fill="white" stroke="black" points="603.5,-38.5 603.5,-57.5 818.5,-57.5 818.5,-38.5 603.5,-38.5"/>
<text text-anchor="middle" x="711" y="-45.5" font-family="Helvetica,sans-Serif" font-size="10.00">MainPage.TaskOpenPanelController.Save</text>
</a>
</g>
</g>
<!-- Node36&#45;&gt;Node39 -->
<g id="edge41" class="edge">
<title>Node36&#45;&gt;Node39</title>
<path fill="none" stroke="midnightblue" d="M943.93,-75.29C896.41,-69.7 838.77,-62.91 792.84,-57.51"/>
<polygon fill="midnightblue" stroke="midnightblue" points="943.57,-78.77 953.91,-76.46 944.39,-71.82 943.57,-78.77"/>
</g>
<!-- Node40 -->
<g id="node40" class="node">
<title>Node40</title>
<g id="a_node40"><a xlink:href="classMainPage_1_1TaskDisplayHandler.html#a98b63052d0efc73233a32b69a06bf68e" target="_top" xlink:title="When the complete acknowledge were recieved from the server update the display">
<polygon fill="white" stroke="black" points="590.5,-0.5 590.5,-19.5 831.5,-19.5 831.5,-0.5 590.5,-0.5"/>
<text text-anchor="middle" x="711" y="-7.5" font-family="Helvetica,sans-Serif" font-size="10.00">MainPage.TaskDisplayHandler.TaskCompleted</text>
</a>
</g>
</g>
<!-- Node36&#45;&gt;Node40 -->
<g id="edge42" class="edge">
<title>Node36&#45;&gt;Node40</title>
<path fill="none" stroke="midnightblue" d="M1000.63,-72.96C965.15,-59.98 907.94,-40.4 857,-29 840.03,-25.2 821.76,-22.08 804.1,-19.54"/>
<polygon fill="midnightblue" stroke="midnightblue" points="999.45,-76.25 1010.04,-76.43 1001.87,-69.69 999.45,-76.25"/>
</g>
<!-- Node40&#45;&gt;Node37 -->
<g id="edge43" class="edge">
<title>Node40&#45;&gt;Node37</title>
<path fill="none" stroke="midnightblue" d="M614.41,-20.95C597.88,-23.3 580.91,-25.99 565,-29 523.72,-36.82 476.91,-48.98 446.17,-57.43"/>
<polygon fill="midnightblue" stroke="midnightblue" points="615.21,-24.38 624.64,-19.54 614.25,-17.44 615.21,-24.38"/>
</g>
</g>
</svg>
