<?xml version="1.0" encoding="UTF-8" standalone="no"?>
<!DOCTYPE svg PUBLIC "-//W3C//DTD SVG 1.1//EN"
 "http://www.w3.org/Graphics/SVG/1.1/DTD/svg11.dtd">
<!-- Generated by graphviz version 2.43.0 (0)
 -->
<!-- Title: Game.UI.GameUI.ChangeDifficulyDisplay Pages: 1 -->
<svg width="634pt" height="66pt"
 viewBox="0.00 0.00 634.00 66.00" xmlns="http://www.w3.org/2000/svg" xmlns:xlink="http://www.w3.org/1999/xlink">
<g id="graph0" class="graph" transform="scale(1 1) rotate(0) translate(4 62)">
<title>Game.UI.GameUI.ChangeDifficulyDisplay</title>
<polygon fill="white" stroke="transparent" points="-4,4 -4,-62 630,-62 630,4 -4,4"/>
<!-- Node1 -->
<g id="node1" class="node">
<title>Node1</title>
<g id="a_node1"><a xlink:title="Change the difficulty and update its display">
<polygon fill="#bfbfbf" stroke="black" points="407,-19.5 407,-38.5 626,-38.5 626,-19.5 407,-19.5"/>
<text text-anchor="middle" x="516.5" y="-26.5" font-family="Helvetica,sans-Serif" font-size="10.00">Game.UI.GameUI.ChangeDifficulyDisplay</text>
</a>
</g>
</g>
<!-- Node2 -->
<g id="node2" class="node">
<title>Node2</title>
<g id="a_node2"><a xlink:href="classGame_1_1GameController.html#af5c50c52cffcab3018ca54be6a421d7f" target="_top" xlink:title="Create a new game">
<polygon fill="white" stroke="black" points="192,-38.5 192,-57.5 371,-57.5 371,-38.5 192,-38.5"/>
<text text-anchor="middle" x="281.5" y="-45.5" font-family="Helvetica,sans-Serif" font-size="10.00">Game.GameController.NewGame</text>
</a>
</g>
</g>
<!-- Node1&#45;&gt;Node2 -->
<g id="edge1" class="edge">
<title>Node1&#45;&gt;Node2</title>
<path fill="none" stroke="midnightblue" d="M396.72,-38.69C388.09,-39.39 379.48,-40.09 371.07,-40.78"/>
<polygon fill="midnightblue" stroke="midnightblue" points="397.16,-42.16 406.84,-37.86 396.59,-35.18 397.16,-42.16"/>
</g>
<!-- Node4 -->
<g id="node4" class="node">
<title>Node4</title>
<g id="a_node4"><a xlink:href="classGame_1_1GameController.html#ac7bf604631786f89b01d5313ad796b8b" target="_top" xlink:title="Called every frame">
<polygon fill="white" stroke="black" points="199.5,-0.5 199.5,-19.5 363.5,-19.5 363.5,-0.5 199.5,-0.5"/>
<text text-anchor="middle" x="281.5" y="-7.5" font-family="Helvetica,sans-Serif" font-size="10.00">Game.GameController.Update</text>
</a>
</g>
</g>
<!-- Node1&#45;&gt;Node4 -->
<g id="edge3" class="edge">
<title>Node1&#45;&gt;Node4</title>
<path fill="none" stroke="midnightblue" d="M396.65,-19.31C385.55,-18.4 374.48,-17.5 363.83,-16.63"/>
<polygon fill="midnightblue" stroke="midnightblue" points="396.59,-22.82 406.84,-20.14 397.16,-15.84 396.59,-22.82"/>
</g>
<!-- Node3 -->
<g id="node3" class="node">
<title>Node3</title>
<g id="a_node3"><a xlink:href="classGame_1_1UI_1_1GameUI.html#ad581ee67e01ac3bcdec06cf2538f06e4" target="_top" xlink:title="Start a new game">
<polygon fill="white" stroke="black" points="0,-38.5 0,-57.5 156,-57.5 156,-38.5 0,-38.5"/>
<text text-anchor="middle" x="78" y="-45.5" font-family="Helvetica,sans-Serif" font-size="10.00">Game.UI.GameUI.NewGame</text>
</a>
</g>
</g>
<!-- Node2&#45;&gt;Node3 -->
<g id="edge2" class="edge">
<title>Node2&#45;&gt;Node3</title>
<path fill="none" stroke="midnightblue" d="M181.72,-48C173.09,-48 164.44,-48 156.03,-48"/>
<polygon fill="midnightblue" stroke="midnightblue" points="181.83,-51.5 191.83,-48 181.83,-44.5 181.83,-51.5"/>
</g>
</g>
</svg>
