<?xml version="1.0" encoding="UTF-8" standalone="no"?>
<!DOCTYPE svg PUBLIC "-//W3C//DTD SVG 1.1//EN"
 "http://www.w3.org/Graphics/SVG/1.1/DTD/svg11.dtd">
<!-- Generated by graphviz version 2.43.0 (0)
 -->
<!-- Title: Game.GameController.SpawnNearbyChunks Pages: 1 -->
<svg width="2003pt" height="214pt"
 viewBox="0.00 0.00 2003.00 214.00" xmlns="http://www.w3.org/2000/svg" xmlns:xlink="http://www.w3.org/1999/xlink">
<g id="graph0" class="graph" transform="scale(1 1) rotate(0) translate(4 210)">
<title>Game.GameController.SpawnNearbyChunks</title>
<!-- Node1 -->
<g id="Node000001" class="node">
<title>Node1</title>
<g id="a_Node000001"><a xlink:title="Spawns and loads the nearby chunks.">
<polygon fill="#999999" stroke="#666666" points="232,-187 0,-187 0,-168 232,-168 232,-187"/>
<text text-anchor="middle" x="116" y="-175" font-family="Helvetica,sans-Serif" font-size="10.00">Game.GameController.SpawnNearbyChunks</text>
</a>
</g>
</g>
<!-- Node2 -->
<g id="Node000002" class="node">
<title>Node2</title>
<g id="a_Node000002"><a xlink:href="classGame_1_1GameController.html#a9818f49a9c0638be6cc6449e5e5000f7" target="_top" xlink:title="Checks if the selected chunk is in range and loads it if the world exists.">
<polygon fill="white" stroke="#666666" points="509,-187 268,-187 268,-168 509,-168 509,-187"/>
<text text-anchor="middle" x="388.5" y="-175" font-family="Helvetica,sans-Serif" font-size="10.00">Game.GameController.ValidateAndLoadChunk</text>
</a>
</g>
</g>
<!-- Node1&#45;&gt;Node2 -->
<g id="edge1_Node000001_Node000002" class="edge">
<title>Node1&#45;&gt;Node2</title>
<g id="a_edge1_Node000001_Node000002"><a xlink:title=" ">
<path fill="none" stroke="#63b8ff" d="M232.11,-177.5C240.58,-177.5 249.17,-177.5 257.72,-177.5"/>
<polygon fill="#63b8ff" stroke="#63b8ff" points="257.74,-181 267.74,-177.5 257.74,-174 257.74,-181"/>
</a>
</g>
</g>
<!-- Node3 -->
<g id="Node000003" class="node">
<title>Node3</title>
<g id="a_Node000003"><a xlink:href="classGame_1_1World_1_1GameWorld.html#a730e116826e3519544de155b667042ba" target="_top" xlink:title="Loads a chunk.">
<polygon fill="white" stroke="#666666" points="739,-187 545,-187 545,-168 739,-168 739,-187"/>
<text text-anchor="middle" x="642" y="-175" font-family="Helvetica,sans-Serif" font-size="10.00">Game.World.GameWorld.LoadChunk</text>
</a>
</g>
</g>
<!-- Node2&#45;&gt;Node3 -->
<g id="edge2_Node000002_Node000003" class="edge">
<title>Node2&#45;&gt;Node3</title>
<g id="a_edge2_Node000002_Node000003"><a xlink:title=" ">
<path fill="none" stroke="#63b8ff" d="M509.36,-177.5C517.81,-177.5 526.3,-177.5 534.68,-177.5"/>
<polygon fill="#63b8ff" stroke="#63b8ff" points="534.82,-181 544.82,-177.5 534.82,-174 534.82,-181"/>
</a>
</g>
</g>
<!-- Node4 -->
<g id="Node000004" class="node">
<title>Node4</title>
<g id="a_Node000004"><a xlink:href="classGame_1_1World_1_1Chunk.html#a475512064d145228ca7084735b7e2f2f" target="_top" xlink:title="Show the chunk.">
<polygon fill="white" stroke="#666666" points="930,-206 780,-206 780,-187 930,-187 930,-206"/>
<text text-anchor="middle" x="855" y="-194" font-family="Helvetica,sans-Serif" font-size="10.00">Game.World.Chunk.Display</text>
</a>
</g>
</g>
<!-- Node3&#45;&gt;Node4 -->
<g id="edge3_Node000003_Node000004" class="edge">
<title>Node3&#45;&gt;Node4</title>
<g id="a_edge3_Node000003_Node000004"><a xlink:title=" ">
<path fill="none" stroke="#63b8ff" d="M739.24,-186.17C749.32,-187.07 759.52,-187.99 769.46,-188.89"/>
<polygon fill="#63b8ff" stroke="#63b8ff" points="769.43,-192.4 779.71,-189.81 770.06,-185.43 769.43,-192.4"/>
</a>
</g>
</g>
<!-- Node5 -->
<g id="Node000005" class="node">
<title>Node5</title>
<g id="a_Node000005"><a xlink:href="classGame_1_1World_1_1Chunk.html#a0616c2f9600a4bcc1dbe97a93a947e7a" target="_top" xlink:title="Initialize the chunk.">
<polygon fill="white" stroke="#666666" points="935,-169 775,-169 775,-150 935,-150 935,-169"/>
<text text-anchor="middle" x="855" y="-157" font-family="Helvetica,sans-Serif" font-size="10.00">Game.World.Chunk.InitChunk</text>
</a>
</g>
</g>
<!-- Node3&#45;&gt;Node5 -->
<g id="edge4_Node000003_Node000005" class="edge">
<title>Node3&#45;&gt;Node5</title>
<g id="a_edge4_Node000003_Node000005"><a xlink:title=" ">
<path fill="none" stroke="#63b8ff" d="M739.24,-169.29C747.74,-168.57 756.32,-167.83 764.76,-167.11"/>
<polygon fill="#63b8ff" stroke="#63b8ff" points="765.3,-170.58 774.96,-166.24 764.7,-163.61 765.3,-170.58"/>
</a>
</g>
</g>
<!-- Node6 -->
<g id="Node000006" class="node">
<title>Node6</title>
<g id="a_Node000006"><a xlink:href="classGame_1_1World_1_1Chunk.html#aac3343253a33a36a09318ebc76bd9f08" target="_top" xlink:title="Creates the tiles for the chunk.">
<polygon fill="white" stroke="#666666" points="1160.5,-206 991.5,-206 991.5,-187 1160.5,-187 1160.5,-206"/>
<text text-anchor="middle" x="1076" y="-194" font-family="Helvetica,sans-Serif" font-size="10.00">Game.World.Chunk.CreateTiles</text>
</a>
</g>
</g>
<!-- Node5&#45;&gt;Node6 -->
<g id="edge5_Node000005_Node000006" class="edge">
<title>Node5&#45;&gt;Node6</title>
<g id="a_edge5_Node000005_Node000006"><a xlink:title=" ">
<path fill="none" stroke="#63b8ff" d="M912.4,-169.03C941.66,-173.97 977.6,-180.04 1008.24,-185.22"/>
<polygon fill="#63b8ff" stroke="#63b8ff" points="1007.97,-188.72 1018.41,-186.94 1009.14,-181.82 1007.97,-188.72"/>
</a>
</g>
</g>
<!-- Node9 -->
<g id="Node000009" class="node">
<title>Node9</title>
<g id="a_Node000009"><a xlink:href="classGame_1_1World_1_1Chunk.html#a1fb214fa85481a42c651b9d6b0d45cb9" target="_top" xlink:title="Gets tthe nearby chunks.">
<polygon fill="white" stroke="#666666" points="1177,-169 975,-169 975,-150 1177,-150 1177,-169"/>
<text text-anchor="middle" x="1076" y="-157" font-family="Helvetica,sans-Serif" font-size="10.00">Game.World.Chunk.GetNearbyChunks</text>
</a>
</g>
</g>
<!-- Node5&#45;&gt;Node9 -->
<g id="edge8_Node000005_Node000009" class="edge">
<title>Node5&#45;&gt;Node9</title>
<g id="a_edge8_Node000005_Node000009"><a xlink:title=" ">
<path fill="none" stroke="#63b8ff" d="M935.06,-159.5C944.61,-159.5 954.5,-159.5 964.39,-159.5"/>
<polygon fill="#63b8ff" stroke="#63b8ff" points="964.69,-163 974.69,-159.5 964.69,-156 964.69,-163"/>
</a>
</g>
</g>
<!-- Node11 -->
<g id="Node000011" class="node">
<title>Node11</title>
<g id="a_Node000011"><a xlink:href="classGame_1_1World_1_1Chunk.html#a08f4b5e8b362b98f4b3f01225d12b4af" target="_top" xlink:title="Spawns the buildings and the props on a seperate thread.">
<polygon fill="white" stroke="#666666" points="1181,-93 971,-93 971,-74 1181,-74 1181,-93"/>
<text text-anchor="middle" x="1076" y="-81" font-family="Helvetica,sans-Serif" font-size="10.00">Game.World.Chunk.SpawnWorldObjects</text>
</a>
</g>
</g>
<!-- Node5&#45;&gt;Node11 -->
<g id="edge10_Node000005_Node000011" class="edge">
<title>Node5&#45;&gt;Node11</title>
<g id="a_edge10_Node000005_Node000011"><a xlink:title=" ">
<path fill="none" stroke="#63b8ff" d="M883.74,-149.87C922.82,-136.31 994.18,-111.55 1037.82,-96.4"/>
<polygon fill="#63b8ff" stroke="#63b8ff" points="1039.19,-99.63 1047.49,-93.05 1036.89,-93.02 1039.19,-99.63"/>
</a>
</g>
</g>
<!-- Node7 -->
<g id="Node000007" class="node">
<title>Node7</title>
<g id="a_Node000007"><a xlink:href="classGame_1_1World_1_1Chunk.html#ac4b762352bb5f90952fe57e5c0ee208f" target="_top" xlink:title="Determines the type of the tile at the coord.">
<polygon fill="white" stroke="#666666" points="1444.5,-206 1238.5,-206 1238.5,-187 1444.5,-187 1444.5,-206"/>
<text text-anchor="middle" x="1341.5" y="-194" font-family="Helvetica,sans-Serif" font-size="10.00">Game.World.Chunk.DetermineTileType</text>
</a>
</g>
</g>
<!-- Node6&#45;&gt;Node7 -->
<g id="edge6_Node000006_Node000007" class="edge">
<title>Node6&#45;&gt;Node7</title>
<g id="a_edge6_Node000006_Node000007"><a xlink:title=" ">
<path fill="none" stroke="#63b8ff" d="M1160.74,-196.5C1182.04,-196.5 1205.28,-196.5 1227.76,-196.5"/>
<polygon fill="#63b8ff" stroke="#63b8ff" points="1228.03,-200 1238.03,-196.5 1228.03,-193 1228.03,-200"/>
</a>
</g>
</g>
<!-- Node8 -->
<g id="Node000008" class="node">
<title>Node8</title>
<g id="a_Node000008"><a xlink:href="classGame_1_1World_1_1Chunk.html#a2d39efc9f5c0f3c302dd7e9d007096c7" target="_top" xlink:title="Determine what type of road it is.">
<polygon fill="white" stroke="#666666" points="1730.5,-206 1518.5,-206 1518.5,-187 1730.5,-187 1730.5,-206"/>
<text text-anchor="middle" x="1624.5" y="-194" font-family="Helvetica,sans-Serif" font-size="10.00">Game.World.Chunk.DetermineRoadType</text>
</a>
</g>
</g>
<!-- Node7&#45;&gt;Node8 -->
<g id="edge7_Node000007_Node000008" class="edge">
<title>Node7&#45;&gt;Node8</title>
<g id="a_edge7_Node000007_Node000008"><a xlink:title=" ">
<path fill="none" stroke="#63b8ff" d="M1444.74,-196.5C1465.24,-196.5 1486.91,-196.5 1507.83,-196.5"/>
<polygon fill="#63b8ff" stroke="#63b8ff" points="1508.03,-200 1518.03,-196.5 1508.03,-193 1508.03,-200"/>
</a>
</g>
</g>
<!-- Node10 -->
<g id="Node000010" class="node">
<title>Node10</title>
<g id="a_Node000010"><a xlink:href="classGame_1_1World_1_1GameWorld.html#a6188226b54eb7e38659cbe8d9d76b620" target="_top" xlink:title="Get the chunk without trying it to load.">
<polygon fill="white" stroke="#666666" points="1466,-169 1217,-169 1217,-150 1466,-150 1466,-169"/>
<text text-anchor="middle" x="1341.5" y="-157" font-family="Helvetica,sans-Serif" font-size="10.00">Game.World.GameWorld.GetChunkWithoutLoad</text>
</a>
</g>
</g>
<!-- Node9&#45;&gt;Node10 -->
<g id="edge9_Node000009_Node000010" class="edge">
<title>Node9&#45;&gt;Node10</title>
<g id="a_edge9_Node000009_Node000010"><a xlink:title=" ">
<path fill="none" stroke="#63b8ff" d="M1177.37,-159.5C1186.98,-159.5 1196.82,-159.5 1206.68,-159.5"/>
<polygon fill="#63b8ff" stroke="#63b8ff" points="1206.95,-163 1216.95,-159.5 1206.95,-156 1206.95,-163"/>
</a>
</g>
</g>
<!-- Node12 -->
<g id="Node000012" class="node">
<title>Node12</title>
<g id="a_Node000012"><a xlink:href="classGame_1_1World_1_1Chunk.html#a12ff4b268fb99d10493398cfe555b46c" target="_top" xlink:title=" ">
<polygon fill="white" stroke="#666666" points="1735,-131 1514,-131 1514,-112 1735,-112 1735,-131"/>
<text text-anchor="middle" x="1624.5" y="-119" font-family="Helvetica,sans-Serif" font-size="10.00">Game.World.Chunk.AddEnvironmentProps</text>
</a>
</g>
</g>
<!-- Node11&#45;&gt;Node12 -->
<g id="edge11_Node000011_Node000012" class="edge">
<title>Node11&#45;&gt;Node12</title>
<g id="a_edge11_Node000011_Node000012"><a xlink:title=" ">
<path fill="none" stroke="#63b8ff" d="M1142.76,-93.04C1166.16,-96.15 1192.71,-99.34 1217,-101.5 1313.18,-110.04 1422.51,-115.16 1503.54,-118.08"/>
<polygon fill="#63b8ff" stroke="#63b8ff" points="1503.66,-121.58 1513.78,-118.44 1503.91,-114.59 1503.66,-121.58"/>
</a>
</g>
</g>
<!-- Node14 -->
<g id="Node000014" class="node">
<title>Node14</title>
<g id="a_Node000014"><a xlink:href="classGame_1_1World_1_1Chunk.html#a00a9cd484ae1ddffec928a75f6b2db15" target="_top" xlink:title="Add the buildings which are next to the roads.">
<polygon fill="white" stroke="#666666" points="1442.5,-93 1240.5,-93 1240.5,-74 1442.5,-74 1442.5,-93"/>
<text text-anchor="middle" x="1341.5" y="-81" font-family="Helvetica,sans-Serif" font-size="10.00">Game.World.Chunk.AddRoadBuildings</text>
</a>
</g>
</g>
<!-- Node11&#45;&gt;Node14 -->
<g id="edge13_Node000011_Node000014" class="edge">
<title>Node11&#45;&gt;Node14</title>
<g id="a_edge13_Node000011_Node000014"><a xlink:title=" ">
<path fill="none" stroke="#63b8ff" d="M1181.14,-83.5C1197.22,-83.5 1213.88,-83.5 1230.1,-83.5"/>
<polygon fill="#63b8ff" stroke="#63b8ff" points="1230.12,-87 1240.12,-83.5 1230.12,-80 1230.12,-87"/>
</a>
</g>
</g>
<!-- Node16 -->
<g id="Node000016" class="node">
<title>Node16</title>
<g id="a_Node000016"><a xlink:href="classGame_1_1World_1_1Chunk.html#a443ede65d8aeb566a385cb3bcad9d8f7" target="_top" xlink:title="Generate the building cells matrix so we know which way the roads are.">
<polygon fill="white" stroke="#666666" points="1446,-56 1237,-56 1237,-37 1446,-37 1446,-56"/>
<text text-anchor="middle" x="1341.5" y="-44" font-family="Helvetica,sans-Serif" font-size="10.00">Game.World.Chunk.GenerateCellMatrix</text>
</a>
</g>
</g>
<!-- Node11&#45;&gt;Node16 -->
<g id="edge16_Node000011_Node000016" class="edge">
<title>Node11&#45;&gt;Node16</title>
<g id="a_edge16_Node000011_Node000016"><a xlink:title=" ">
<path fill="none" stroke="#63b8ff" d="M1144.86,-73.97C1180.68,-68.94 1224.81,-62.74 1262.09,-57.51"/>
<polygon fill="#63b8ff" stroke="#63b8ff" points="1263,-60.92 1272.41,-56.06 1262.03,-53.98 1263,-60.92"/>
</a>
</g>
</g>
<!-- Node17 -->
<g id="Node000017" class="node">
<title>Node17</title>
<g id="a_Node000017"><a xlink:href="classUtility_1_1CoroutineRunner.html#a1c473dee723f16d86bab9d8475c8214a" target="_top" xlink:title="A helper method to start coroutines.">
<polygon fill="white" stroke="#666666" points="1440.5,-19 1242.5,-19 1242.5,0 1440.5,0 1440.5,-19"/>
<text text-anchor="middle" x="1341.5" y="-7" font-family="Helvetica,sans-Serif" font-size="10.00">Utility.CoroutineRunner.RunCoroutine</text>
</a>
</g>
</g>
<!-- Node11&#45;&gt;Node17 -->
<g id="edge17_Node000011_Node000017" class="edge">
<title>Node11&#45;&gt;Node17</title>
<g id="a_edge17_Node000011_Node000017"><a xlink:title=" ">
<path fill="none" stroke="#63b8ff" d="M1096.89,-73.8C1123.58,-61.19 1172.76,-39.39 1217,-27.5 1226.49,-24.95 1236.5,-22.73 1246.55,-20.82"/>
<polygon fill="#63b8ff" stroke="#63b8ff" points="1247.36,-24.23 1256.58,-19.01 1246.12,-17.34 1247.36,-24.23"/>
</a>
</g>
</g>
<!-- Node13 -->
<g id="Node000013" class="node">
<title>Node13</title>
<g id="a_Node000013"><a xlink:href="classGame_1_1World_1_1Chunk.html#af37779d40ed9cd07b577d5bca61627b7" target="_top" xlink:title=" ">
<polygon fill="white" stroke="#666666" points="1995,-112 1783,-112 1783,-93 1995,-93 1995,-112"/>
<text text-anchor="middle" x="1889" y="-100" font-family="Helvetica,sans-Serif" font-size="10.00">Game.World.Chunk.GetAbsolutePosition</text>
</a>
</g>
</g>
<!-- Node12&#45;&gt;Node13 -->
<g id="edge12_Node000012_Node000013" class="edge">
<title>Node12&#45;&gt;Node13</title>
<g id="a_edge12_Node000012_Node000013"><a xlink:title=" ">
<path fill="none" stroke="#63b8ff" d="M1735.3,-113.55C1747.6,-112.66 1760.15,-111.75 1772.51,-110.86"/>
<polygon fill="#63b8ff" stroke="#63b8ff" points="1773.12,-114.32 1782.84,-110.11 1772.61,-107.34 1773.12,-114.32"/>
</a>
</g>
</g>
<!-- Node15 -->
<g id="Node000015" class="node">
<title>Node15</title>
<g id="a_Node000015"><a xlink:href="classGame_1_1World_1_1Chunk.html#af2946e1e1b9e325d6004d166b2b26193" target="_top" xlink:title="Lock the cell and try to place it.">
<polygon fill="white" stroke="#666666" points="1747,-94 1502,-94 1502,-75 1747,-75 1747,-94"/>
<text text-anchor="middle" x="1624.5" y="-82" font-family="Helvetica,sans-Serif" font-size="10.00">Game.World.Chunk.LockAndTryToPlaceBuilding</text>
</a>
</g>
</g>
<!-- Node14&#45;&gt;Node15 -->
<g id="edge14_Node000014_Node000015" class="edge">
<title>Node14&#45;&gt;Node15</title>
<g id="a_edge14_Node000014_Node000015"><a xlink:title=" ">
<path fill="none" stroke="#63b8ff" d="M1442.76,-83.86C1458.55,-83.91 1475.09,-83.97 1491.47,-84.03"/>
<polygon fill="#63b8ff" stroke="#63b8ff" points="1491.62,-87.53 1501.64,-84.07 1491.65,-80.53 1491.62,-87.53"/>
</a>
</g>
</g>
<!-- Node15&#45;&gt;Node13 -->
<g id="edge15_Node000015_Node000013" class="edge">
<title>Node15&#45;&gt;Node13</title>
<g id="a_edge15_Node000015_Node000013"><a xlink:title=" ">
<path fill="none" stroke="#63b8ff" d="M1747.14,-92.84C1755.63,-93.42 1764.17,-94.01 1772.62,-94.59"/>
<polygon fill="#63b8ff" stroke="#63b8ff" points="1772.66,-98.1 1782.87,-95.29 1773.14,-91.12 1772.66,-98.1"/>
</a>
</g>
</g>
</g>
</svg>
