<?xml version="1.0" encoding="UTF-8" standalone="no"?>
<!DOCTYPE svg PUBLIC "-//W3C//DTD SVG 1.1//EN"
 "http://www.w3.org/Graphics/SVG/1.1/DTD/svg11.dtd">
<!-- Generated by graphviz version 2.43.0 (0)
 -->
<!-- Title: MainPage.TaskDisplayHandler.UpdateTimeRemaining Pages: 1 -->
<svg width="1788pt" height="66pt"
 viewBox="0.00 0.00 1788.00 66.00" xmlns="http://www.w3.org/2000/svg" xmlns:xlink="http://www.w3.org/1999/xlink">
<g id="graph0" class="graph" transform="scale(1 1) rotate(0) translate(4 62)">
<title>MainPage.TaskDisplayHandler.UpdateTimeRemaining</title>
<polygon fill="white" stroke="transparent" points="-4,4 -4,-62 1784,-62 1784,4 -4,4"/>
<!-- Node1 -->
<g id="node1" class="node">
<title>Node1</title>
<g id="a_node1"><a xlink:title="Update the time remaining until the task can be completed again">
<polygon fill="#bfbfbf" stroke="black" points="0,-19.5 0,-38.5 278,-38.5 278,-19.5 0,-19.5"/>
<text text-anchor="middle" x="139" y="-26.5" font-family="Helvetica,sans-Serif" font-size="10.00">MainPage.TaskDisplayHandler.UpdateTimeRemaining</text>
</a>
</g>
</g>
<!-- Node2 -->
<g id="node2" class="node">
<title>Node2</title>
<g id="a_node2"><a xlink:href="classMainPage_1_1TaskDisplayHandler.html#a754a230e53cedd3209a29d4d6a743719" target="_top" xlink:title="When the complete state is changed update the display to match it">
<polygon fill="white" stroke="black" points="314,-19.5 314,-38.5 589,-38.5 589,-19.5 314,-19.5"/>
<text text-anchor="middle" x="451.5" y="-26.5" font-family="Helvetica,sans-Serif" font-size="10.00">MainPage.TaskDisplayHandler.CompleteStateChange</text>
</a>
</g>
</g>
<!-- Node1&#45;&gt;Node2 -->
<g id="edge1" class="edge">
<title>Node1&#45;&gt;Node2</title>
<path fill="none" stroke="midnightblue" d="M278.45,-22.29C286.84,-22.25 295.3,-22.24 303.73,-22.26"/>
<polygon fill="midnightblue" stroke="midnightblue" points="303.97,-25.76 313.98,-22.29 303.99,-18.76 303.97,-25.76"/>
</g>
<!-- Node2&#45;&gt;Node1 -->
<g id="edge11" class="edge">
<title>Node2&#45;&gt;Node1</title>
<path fill="none" stroke="midnightblue" d="M313.98,-35.71C305.6,-35.75 297.14,-35.76 288.71,-35.74"/>
<polygon fill="midnightblue" stroke="midnightblue" points="288.46,-32.24 278.45,-35.71 288.44,-39.24 288.46,-32.24"/>
</g>
<!-- Node3 -->
<g id="node3" class="node">
<title>Node3</title>
<g id="a_node3"><a xlink:href="classMainPage_1_1MainWindowController.html#a85072f5d92f4145d6213209a13936639" target="_top" xlink:title="Refreshes the tasks with the proper sorting order">
<polygon fill="white" stroke="black" points="625,-19.5 625,-38.5 882,-38.5 882,-19.5 625,-19.5"/>
<text text-anchor="middle" x="753.5" y="-26.5" font-family="Helvetica,sans-Serif" font-size="10.00">MainPage.MainWindowController.SortingChanged</text>
</a>
</g>
</g>
<!-- Node2&#45;&gt;Node3 -->
<g id="edge2" class="edge">
<title>Node2&#45;&gt;Node3</title>
<path fill="none" stroke="midnightblue" d="M589.33,-29C597.68,-29 606.09,-29 614.44,-29"/>
<polygon fill="midnightblue" stroke="midnightblue" points="614.6,-32.5 624.6,-29 614.6,-25.5 614.6,-32.5"/>
</g>
<!-- Node4 -->
<g id="node4" class="node">
<title>Node4</title>
<g id="a_node4"><a xlink:href="classMainPage_1_1MainWindowController.html#a241b480aeebdab1bc34320cad8de7712" target="_top" xlink:title="Load the good habits">
<polygon fill="white" stroke="black" points="919,-38.5 919,-57.5 1173,-57.5 1173,-38.5 919,-38.5"/>
<text text-anchor="middle" x="1046" y="-45.5" font-family="Helvetica,sans-Serif" font-size="10.00">MainPage.MainWindowController.LoadBadHabits</text>
</a>
</g>
</g>
<!-- Node3&#45;&gt;Node4 -->
<g id="edge3" class="edge">
<title>Node3&#45;&gt;Node4</title>
<path fill="none" stroke="midnightblue" d="M882.34,-37.36C890.98,-37.93 899.71,-38.5 908.4,-39.07"/>
<polygon fill="midnightblue" stroke="midnightblue" points="908.36,-42.57 918.57,-39.73 908.82,-35.59 908.36,-42.57"/>
</g>
<!-- Node7 -->
<g id="node7" class="node">
<title>Node7</title>
<g id="a_node7"><a xlink:href="classMainPage_1_1MainWindowController.html#ab5b80370512cd4273e86927fe696462d" target="_top" xlink:title="Load the good tasks">
<polygon fill="white" stroke="black" points="918,-0.5 918,-19.5 1174,-19.5 1174,-0.5 918,-0.5"/>
<text text-anchor="middle" x="1046" y="-7.5" font-family="Helvetica,sans-Serif" font-size="10.00">MainPage.MainWindowController.LoadGoodTasks</text>
</a>
</g>
</g>
<!-- Node3&#45;&gt;Node7 -->
<g id="edge7" class="edge">
<title>Node3&#45;&gt;Node7</title>
<path fill="none" stroke="midnightblue" d="M882.34,-20.64C890.67,-20.09 899.08,-19.54 907.46,-19"/>
<polygon fill="midnightblue" stroke="midnightblue" points="907.9,-22.47 917.65,-18.33 907.45,-15.49 907.9,-22.47"/>
</g>
<!-- Node5 -->
<g id="node5" class="node">
<title>Node5</title>
<g id="a_node5"><a xlink:href="classMainPage_1_1TaskOpenPanelController.html#a5513399c20f650915ca10f54805f416e" target="_top" xlink:title="Make this task a bad habit">
<polygon fill="white" stroke="black" points="1211,-38.5 1211,-57.5 1480,-57.5 1480,-38.5 1211,-38.5"/>
<text text-anchor="middle" x="1345.5" y="-45.5" font-family="Helvetica,sans-Serif" font-size="10.00">MainPage.TaskOpenPanelController.MakeItBadHabit</text>
</a>
</g>
</g>
<!-- Node4&#45;&gt;Node5 -->
<g id="edge4" class="edge">
<title>Node4&#45;&gt;Node5</title>
<path fill="none" stroke="midnightblue" d="M1173.17,-41.32C1182.35,-41.26 1191.66,-41.24 1200.94,-41.25"/>
<polygon fill="midnightblue" stroke="midnightblue" points="1200.98,-44.75 1210.99,-41.28 1201,-37.75 1200.98,-44.75"/>
</g>
<!-- Node5&#45;&gt;Node4 -->
<g id="edge5" class="edge">
<title>Node5&#45;&gt;Node4</title>
<path fill="none" stroke="midnightblue" d="M1210.99,-54.72C1201.75,-54.76 1192.43,-54.76 1183.18,-54.73"/>
<polygon fill="midnightblue" stroke="midnightblue" points="1183.18,-51.23 1173.17,-54.68 1183.15,-58.23 1183.18,-51.23"/>
</g>
<!-- Node6 -->
<g id="node6" class="node">
<title>Node6</title>
<g id="a_node6"><a xlink:href="classMainPage_1_1TaskOpenPanelController.html#aa0b6757dbad141375c50282278b23b1a" target="_top" xlink:title="Update the buttons with the appropriate color based on the current task">
<polygon fill="white" stroke="black" points="1517,-19.5 1517,-38.5 1780,-38.5 1780,-19.5 1517,-19.5"/>
<text text-anchor="middle" x="1648.5" y="-26.5" font-family="Helvetica,sans-Serif" font-size="10.00">MainPage.TaskOpenPanelController.UpdateButtons</text>
</a>
</g>
</g>
<!-- Node5&#45;&gt;Node6 -->
<g id="edge6" class="edge">
<title>Node5&#45;&gt;Node6</title>
<path fill="none" stroke="midnightblue" d="M1480.28,-39.56C1488.97,-39.01 1497.73,-38.45 1506.45,-37.9"/>
<polygon fill="midnightblue" stroke="midnightblue" points="1506.91,-41.38 1516.67,-37.26 1506.46,-34.4 1506.91,-41.38"/>
</g>
<!-- Node8 -->
<g id="node8" class="node">
<title>Node8</title>
<g id="a_node8"><a xlink:href="classMainPage_1_1TaskOpenPanelController.html#a069a63e2b7e70cc4cb4c7e487b655700" target="_top" xlink:title="Make it a good task">
<polygon fill="white" stroke="black" points="1210,-0.5 1210,-19.5 1481,-19.5 1481,-0.5 1210,-0.5"/>
<text text-anchor="middle" x="1345.5" y="-7.5" font-family="Helvetica,sans-Serif" font-size="10.00">MainPage.TaskOpenPanelController.MakeItGoodTask</text>
</a>
</g>
</g>
<!-- Node7&#45;&gt;Node8 -->
<g id="edge8" class="edge">
<title>Node7&#45;&gt;Node8</title>
<path fill="none" stroke="midnightblue" d="M1174.03,-3.31C1182.54,-3.26 1191.15,-3.24 1199.75,-3.25"/>
<polygon fill="midnightblue" stroke="midnightblue" points="1199.81,-6.75 1209.82,-3.28 1199.83,0.25 1199.81,-6.75"/>
</g>
<!-- Node8&#45;&gt;Node6 -->
<g id="edge10" class="edge">
<title>Node8&#45;&gt;Node6</title>
<path fill="none" stroke="midnightblue" d="M1481.15,-18.5C1489.7,-19.04 1498.32,-19.58 1506.9,-20.12"/>
<polygon fill="midnightblue" stroke="midnightblue" points="1506.74,-23.62 1516.94,-20.76 1507.18,-16.64 1506.74,-23.62"/>
</g>
<!-- Node8&#45;&gt;Node7 -->
<g id="edge9" class="edge">
<title>Node8&#45;&gt;Node7</title>
<path fill="none" stroke="midnightblue" d="M1209.82,-16.72C1201.26,-16.76 1192.63,-16.76 1184.06,-16.73"/>
<polygon fill="midnightblue" stroke="midnightblue" points="1184.05,-13.23 1174.03,-16.69 1184.01,-20.23 1184.05,-13.23"/>
</g>
</g>
</svg>
