<?xml version="1.0" encoding="UTF-8" standalone="no"?>
<!DOCTYPE svg PUBLIC "-//W3C//DTD SVG 1.1//EN"
 "http://www.w3.org/Graphics/SVG/1.1/DTD/svg11.dtd">
<!-- Generated by graphviz version 2.43.0 (0)
 -->
<!-- Title: Game.World.Chunk.SpawnWorldObjects Pages: 1 -->
<svg width="992pt" height="142pt"
 viewBox="0.00 0.00 992.00 142.00" xmlns="http://www.w3.org/2000/svg" xmlns:xlink="http://www.w3.org/1999/xlink">
<g id="graph0" class="graph" transform="scale(1 1) rotate(0) translate(4 138)">
<title>Game.World.Chunk.SpawnWorldObjects</title>
<polygon fill="white" stroke="transparent" points="-4,4 -4,-138 988,-138 988,4 -4,4"/>
<!-- Node1 -->
<g id="node1" class="node">
<title>Node1</title>
<g id="a_node1"><a xlink:title="Spawns the buildings and the props on a seperate thread">
<polygon fill="#bfbfbf" stroke="black" points="0,-57.5 0,-76.5 210,-76.5 210,-57.5 0,-57.5"/>
<text text-anchor="middle" x="105" y="-64.5" font-family="Helvetica,sans-Serif" font-size="10.00">Game.World.Chunk.SpawnWorldObjects</text>
</a>
</g>
</g>
<!-- Node2 -->
<g id="node2" class="node">
<title>Node2</title>
<g id="a_node2"><a xlink:href="classGame_1_1World_1_1Chunk.html#a12ff4b268fb99d10493398cfe555b46c" target="_top" xlink:title=" ">
<polygon fill="white" stroke="black" points="503,-114.5 503,-133.5 724,-133.5 724,-114.5 503,-114.5"/>
<text text-anchor="middle" x="613.5" y="-121.5" font-family="Helvetica,sans-Serif" font-size="10.00">Game.World.Chunk.AddEnvironmentProps</text>
</a>
</g>
</g>
<!-- Node1&#45;&gt;Node2 -->
<g id="edge1" class="edge">
<title>Node1&#45;&gt;Node2</title>
<path fill="none" stroke="midnightblue" d="M134.04,-76.51C162.03,-85.55 206.46,-98.68 246,-105 327.72,-118.06 420.87,-122.75 492.8,-124.22"/>
<polygon fill="midnightblue" stroke="midnightblue" points="492.75,-127.71 502.81,-124.4 492.88,-120.72 492.75,-127.71"/>
</g>
<!-- Node4 -->
<g id="node4" class="node">
<title>Node4</title>
<g id="a_node4"><a xlink:href="classGame_1_1World_1_1Chunk.html#a00a9cd484ae1ddffec928a75f6b2db15" target="_top" xlink:title="Add the buildings which are next to the roads">
<polygon fill="white" stroke="black" points="249.5,-76.5 249.5,-95.5 451.5,-95.5 451.5,-76.5 249.5,-76.5"/>
<text text-anchor="middle" x="350.5" y="-83.5" font-family="Helvetica,sans-Serif" font-size="10.00">Game.World.Chunk.AddRoadBuildings</text>
</a>
</g>
</g>
<!-- Node1&#45;&gt;Node4 -->
<g id="edge3" class="edge">
<title>Node1&#45;&gt;Node4</title>
<path fill="none" stroke="midnightblue" d="M210.33,-75.14C219.91,-75.89 229.63,-76.65 239.26,-77.4"/>
<polygon fill="midnightblue" stroke="midnightblue" points="239.01,-80.89 249.25,-78.18 239.56,-73.91 239.01,-80.89"/>
</g>
<!-- Node6 -->
<g id="node6" class="node">
<title>Node6</title>
<g id="a_node6"><a xlink:href="classGame_1_1World_1_1Chunk.html#a443ede65d8aeb566a385cb3bcad9d8f7" target="_top" xlink:title="Generate the building cells matrix so we know which way the roads are">
<polygon fill="white" stroke="black" points="246,-38.5 246,-57.5 455,-57.5 455,-38.5 246,-38.5"/>
<text text-anchor="middle" x="350.5" y="-45.5" font-family="Helvetica,sans-Serif" font-size="10.00">Game.World.Chunk.GenerateCellMatrix</text>
</a>
</g>
</g>
<!-- Node1&#45;&gt;Node6 -->
<g id="edge6" class="edge">
<title>Node1&#45;&gt;Node6</title>
<path fill="none" stroke="midnightblue" d="M210.33,-58.86C218.68,-58.21 227.14,-57.55 235.55,-56.89"/>
<polygon fill="midnightblue" stroke="midnightblue" points="236.08,-60.36 245.78,-56.09 235.54,-53.38 236.08,-60.36"/>
</g>
<!-- Node7 -->
<g id="node7" class="node">
<title>Node7</title>
<g id="a_node7"><a xlink:href="classUtility_1_1CoroutineRunner.html#a1c473dee723f16d86bab9d8475c8214a" target="_top" xlink:title="A helper method to start coroutines">
<polygon fill="white" stroke="black" points="251.5,-0.5 251.5,-19.5 449.5,-19.5 449.5,-0.5 251.5,-0.5"/>
<text text-anchor="middle" x="350.5" y="-7.5" font-family="Helvetica,sans-Serif" font-size="10.00">Utility.CoroutineRunner.RunCoroutine</text>
</a>
</g>
</g>
<!-- Node1&#45;&gt;Node7 -->
<g id="edge7" class="edge">
<title>Node1&#45;&gt;Node7</title>
<path fill="none" stroke="midnightblue" d="M138.06,-57.48C166.31,-49.28 208.67,-37.48 246,-29 257.83,-26.31 270.49,-23.74 282.75,-21.41"/>
<polygon fill="midnightblue" stroke="midnightblue" points="283.74,-24.78 292.92,-19.5 282.45,-17.9 283.74,-24.78"/>
</g>
<!-- Node3 -->
<g id="node3" class="node">
<title>Node3</title>
<g id="a_node3"><a xlink:href="classGame_1_1World_1_1Chunk.html#af37779d40ed9cd07b577d5bca61627b7" target="_top" xlink:title=" ">
<polygon fill="white" stroke="black" points="772,-95.5 772,-114.5 984,-114.5 984,-95.5 772,-95.5"/>
<text text-anchor="middle" x="878" y="-102.5" font-family="Helvetica,sans-Serif" font-size="10.00">Game.World.Chunk.GetAbsolutePosition</text>
</a>
</g>
</g>
<!-- Node2&#45;&gt;Node3 -->
<g id="edge2" class="edge">
<title>Node2&#45;&gt;Node3</title>
<path fill="none" stroke="midnightblue" d="M724.3,-116.05C736.6,-115.16 749.15,-114.25 761.51,-113.36"/>
<polygon fill="midnightblue" stroke="midnightblue" points="762.12,-116.82 771.84,-112.61 761.61,-109.84 762.12,-116.82"/>
</g>
<!-- Node5 -->
<g id="node5" class="node">
<title>Node5</title>
<g id="a_node5"><a xlink:href="classGame_1_1World_1_1Chunk.html#af2946e1e1b9e325d6004d166b2b26193" target="_top" xlink:title="Lock the cell and try to place it">
<polygon fill="white" stroke="black" points="491,-76.5 491,-95.5 736,-95.5 736,-76.5 491,-76.5"/>
<text text-anchor="middle" x="613.5" y="-83.5" font-family="Helvetica,sans-Serif" font-size="10.00">Game.World.Chunk.LockAndTryToPlaceBuilding</text>
</a>
</g>
</g>
<!-- Node4&#45;&gt;Node5 -->
<g id="edge4" class="edge">
<title>Node4&#45;&gt;Node5</title>
<path fill="none" stroke="midnightblue" d="M451.66,-86C461.16,-86 470.88,-86 480.61,-86"/>
<polygon fill="midnightblue" stroke="midnightblue" points="480.75,-89.5 490.75,-86 480.75,-82.5 480.75,-89.5"/>
</g>
<!-- Node5&#45;&gt;Node3 -->
<g id="edge5" class="edge">
<title>Node5&#45;&gt;Node3</title>
<path fill="none" stroke="midnightblue" d="M736.14,-94.8C744.72,-95.43 753.36,-96.05 761.9,-96.67"/>
<polygon fill="midnightblue" stroke="midnightblue" points="761.65,-100.16 771.87,-97.39 762.15,-93.18 761.65,-100.16"/>
</g>
</g>
</svg>
