<?xml version="1.0" encoding="UTF-8" standalone="no"?>
<!DOCTYPE svg PUBLIC "-//W3C//DTD SVG 1.1//EN"
 "http://www.w3.org/Graphics/SVG/1.1/DTD/svg11.dtd">
<!-- Generated by graphviz version 2.43.0 (0)
 -->
<!-- Title: MainPage.TaskOpenPanelController.Cancel Pages: 1 -->
<svg width="800pt" height="28pt"
 viewBox="0.00 0.00 800.00 28.00" xmlns="http://www.w3.org/2000/svg" xmlns:xlink="http://www.w3.org/1999/xlink">
<g id="graph0" class="graph" transform="scale(1 1) rotate(0) translate(4 24)">
<title>MainPage.TaskOpenPanelController.Cancel</title>
<polygon fill="white" stroke="transparent" points="-4,4 -4,-24 796,-24 796,4 -4,4"/>
<!-- Node1 -->
<g id="node1" class="node">
<title>Node1</title>
<g id="a_node1"><a xlink:title="Cancel this edit/task creation">
<polygon fill="#bfbfbf" stroke="black" points="568,-0.5 568,-19.5 792,-19.5 792,-0.5 568,-0.5"/>
<text text-anchor="middle" x="680" y="-7.5" font-family="Helvetica,sans-Serif" font-size="10.00">MainPage.TaskOpenPanelController.Cancel</text>
</a>
</g>
</g>
<!-- Node2 -->
<g id="node2" class="node">
<title>Node2</title>
<g id="a_node2"><a xlink:href="classMainPage_1_1TaskOpenPanelController.html#a254ff7d6e427208a7f9ae3bec5ae7ba7" target="_top" xlink:title="After the task were deleted from the server delete it also from the client">
<polygon fill="white" stroke="black" points="281,-0.5 281,-19.5 532,-19.5 532,-0.5 281,-0.5"/>
<text text-anchor="middle" x="406.5" y="-7.5" font-family="Helvetica,sans-Serif" font-size="10.00">MainPage.TaskOpenPanelController.DeletedTask</text>
</a>
</g>
</g>
<!-- Node1&#45;&gt;Node2 -->
<g id="edge1" class="edge">
<title>Node1&#45;&gt;Node2</title>
<path fill="none" stroke="midnightblue" d="M557.57,-10C549.16,-10 540.68,-10 532.25,-10"/>
<polygon fill="midnightblue" stroke="midnightblue" points="557.79,-13.5 567.79,-10 557.79,-6.5 557.79,-13.5"/>
</g>
<!-- Node3 -->
<g id="node3" class="node">
<title>Node3</title>
<g id="a_node3"><a xlink:href="classMainPage_1_1TaskOpenPanelController.html#a3107b94793886f6af28ac9415fb44370" target="_top" xlink:title="Send a delete task request to the server">
<polygon fill="white" stroke="black" points="0,-0.5 0,-19.5 245,-19.5 245,-0.5 0,-0.5"/>
<text text-anchor="middle" x="122.5" y="-7.5" font-family="Helvetica,sans-Serif" font-size="10.00">MainPage.TaskOpenPanelController.DeleteTask</text>
</a>
</g>
</g>
<!-- Node2&#45;&gt;Node3 -->
<g id="edge2" class="edge">
<title>Node2&#45;&gt;Node3</title>
<path fill="none" stroke="midnightblue" d="M270.88,-10C262.24,-10 253.57,-10 245.01,-10"/>
<polygon fill="midnightblue" stroke="midnightblue" points="270.99,-13.5 280.99,-10 270.99,-6.5 270.99,-13.5"/>
</g>
</g>
</svg>
