<?xml version="1.0" encoding="UTF-8" standalone="no"?>
<!DOCTYPE svg PUBLIC "-//W3C//DTD SVG 1.1//EN"
 "http://www.w3.org/Graphics/SVG/1.1/DTD/svg11.dtd">
<!-- Generated by graphviz version 2.43.0 (0)
 -->
<!-- Title: MainPage.FriendWindowHandler.ShowPendingChanged Pages: 1 -->
<svg width="1068pt" height="64pt"
 viewBox="0.00 0.00 1068.00 64.00" xmlns="http://www.w3.org/2000/svg" xmlns:xlink="http://www.w3.org/1999/xlink">
<g id="graph0" class="graph" transform="scale(1 1) rotate(0) translate(4 60)">
<title>MainPage.FriendWindowHandler.ShowPendingChanged</title>
<!-- Node1 -->
<g id="Node000001" class="node">
<title>Node1</title>
<g id="a_Node000001"><a xlink:title="Changed event for pending checkbox Loads/Unloads the pending friend requests.">
<polygon fill="#999999" stroke="#666666" points="284,-37 0,-37 0,-18 284,-18 284,-37"/>
<text text-anchor="middle" x="142" y="-25" font-family="Helvetica,sans-Serif" font-size="10.00">MainPage.FriendWindowHandler.ShowPendingChanged</text>
</a>
</g>
</g>
<!-- Node2 -->
<g id="Node000002" class="node">
<title>Node2</title>
<g id="a_Node000002"><a xlink:href="classMainPage_1_1FriendWindowHandler.html#a6ebf0f7c70458f53c427517bf84bef7d" target="_top" xlink:title="Loads the friends from the server.">
<polygon fill="white" stroke="#666666" points="555,-37 320,-37 320,-18 555,-18 555,-37"/>
<text text-anchor="middle" x="437.5" y="-25" font-family="Helvetica,sans-Serif" font-size="10.00">MainPage.FriendWindowHandler.LoadFriends</text>
</a>
</g>
</g>
<!-- Node1&#45;&gt;Node2 -->
<g id="edge1_Node000001_Node000002" class="edge">
<title>Node1&#45;&gt;Node2</title>
<g id="a_edge1_Node000001_Node000002"><a xlink:title=" ">
<path fill="none" stroke="#63b8ff" d="M284.16,-27.5C292.62,-27.5 301.1,-27.5 309.49,-27.5"/>
<polygon fill="#63b8ff" stroke="#63b8ff" points="309.68,-31 319.68,-27.5 309.68,-24 309.68,-31"/>
</a>
</g>
</g>
<!-- Node3 -->
<g id="Node000003" class="node">
<title>Node3</title>
<g id="a_Node000003"><a xlink:href="classMainPage_1_1FriendWindowHandler.html#abce9cb8e608691cfbc50bf47c17a1b34" target="_top" xlink:title="Display the friends which was recieved from the server.">
<polygon fill="white" stroke="#666666" points="839,-56 591,-56 591,-37 839,-37 839,-56"/>
<text text-anchor="middle" x="715" y="-44" font-family="Helvetica,sans-Serif" font-size="10.00">MainPage.FriendWindowHandler.DisplayFriends</text>
</a>
</g>
</g>
<!-- Node2&#45;&gt;Node3 -->
<g id="edge2_Node000002_Node000003" class="edge">
<title>Node2&#45;&gt;Node3</title>
<g id="a_edge2_Node000002_Node000003"><a xlink:title=" ">
<path fill="none" stroke="#63b8ff" d="M555.34,-35.56C563.77,-36.14 572.31,-36.73 580.83,-37.32"/>
<polygon fill="#63b8ff" stroke="#63b8ff" points="580.59,-40.81 590.8,-38 581.07,-33.82 580.59,-40.81"/>
</a>
</g>
</g>
<!-- Node5 -->
<g id="Node000005" class="node">
<title>Node5</title>
<g id="a_Node000005"><a xlink:href="classUtility_1_1CoroutineRunner.html#a1c473dee723f16d86bab9d8475c8214a" target="_top" xlink:title="A helper method to start coroutines.">
<polygon fill="white" stroke="#666666" points="814,-19 616,-19 616,0 814,0 814,-19"/>
<text text-anchor="middle" x="715" y="-7" font-family="Helvetica,sans-Serif" font-size="10.00">Utility.CoroutineRunner.RunCoroutine</text>
</a>
</g>
</g>
<!-- Node2&#45;&gt;Node5 -->
<g id="edge4_Node000002_Node000005" class="edge">
<title>Node2&#45;&gt;Node5</title>
<g id="a_edge4_Node000002_Node000005"><a xlink:title=" ">
<path fill="none" stroke="#63b8ff" d="M555.34,-19.87C571.98,-18.78 589.03,-17.66 605.5,-16.59"/>
<polygon fill="#63b8ff" stroke="#63b8ff" points="605.92,-20.07 615.67,-15.92 605.46,-13.08 605.92,-20.07"/>
</a>
</g>
</g>
<!-- Node4 -->
<g id="Node000004" class="node">
<title>Node4</title>
<g id="a_Node000004"><a xlink:href="classMainPage_1_1FriendHandler.html#ab894b96203019d08e341bbb6090af8b8" target="_top" xlink:title="Inititializes a new display with the given friend to display.">
<polygon fill="white" stroke="#666666" points="1060,-56 875,-56 875,-37 1060,-37 1060,-56"/>
<text text-anchor="middle" x="967.5" y="-44" font-family="Helvetica,sans-Serif" font-size="10.00">MainPage.FriendHandler.InitValues</text>
</a>
</g>
</g>
<!-- Node3&#45;&gt;Node4 -->
<g id="edge3_Node000003_Node000004" class="edge">
<title>Node3&#45;&gt;Node4</title>
<g id="a_edge3_Node000003_Node000004"><a xlink:title=" ">
<path fill="none" stroke="#63b8ff" d="M839.05,-46.5C847.58,-46.5 856.13,-46.5 864.53,-46.5"/>
<polygon fill="#63b8ff" stroke="#63b8ff" points="864.69,-50 874.69,-46.5 864.69,-43 864.69,-50"/>
</a>
</g>
</g>
</g>
</svg>
