<?xml version="1.0" encoding="UTF-8" standalone="no"?>
<!DOCTYPE svg PUBLIC "-//W3C//DTD SVG 1.1//EN"
 "http://www.w3.org/Graphics/SVG/1.1/DTD/svg11.dtd">
<!-- Generated by graphviz version 2.43.0 (0)
 -->
<!-- Title: Game.World.GameWorld.GetChunk Pages: 1 -->
<!--zoomable 251 -->

<svg id="main" version="1.1" xmlns="http://www.w3.org/2000/svg" xmlns:xlink="http://www.w3.org/1999/xlink" xml:space="preserve" onload="init(evt)">
<style type="text/css"><![CDATA[
.node, .edge {opacity: 0.7;}
.node.selected, .edge.selected {opacity: 1;}
.edge:hover path { stroke: red; }
.edge:hover polygon { stroke: red; fill: red; }
]]></style>

<defs>
  <circle id="rim" cx="0" cy="0" r="7"/>
  <circle id="rim2" cx="0" cy="0" r="3.5"/>
  <g id="zoomPlus">
    <use xlink:href="#rim" fill="#404040"><set attributeName="fill" to="#808080" begin="zoomplus.mouseover" end="zoomplus.mouseout"/></use>
    <path d="M-4,0h8M0,-4v8" fill="none" stroke="white" stroke-width="1.5" pointer-events="none"/>
  </g>
  <g id="zoomMin">
    <use xlink:href="#rim" fill="#404040"><set attributeName="fill" to="#808080" begin="zoomminus.mouseover" end="zoomminus.mouseout"/></use>
    <path d="M-4,0h8" fill="none" stroke="white" stroke-width="1.5" pointer-events="none"/>
  </g>
  <g id="arrowUp" transform="translate(30 24)">
    <use xlink:href="#rim"/>
    <path pointer-events="none" fill="none" stroke="white" stroke-width="1.5" d="M0,-3.0v7 M-2.5,-0.5L0,-3.0L2.5,-0.5"/>
  </g>
  <g id="arrowRight" transform="rotate(90) translate(36 -43)">
    <use xlink:href="#rim"/>
    <path pointer-events="none" fill="none" stroke="white" stroke-width="1.5" d="M0,-3.0v7 M-2.5,-0.5L0,-3.0L2.5,-0.5"/>
  </g>
  <g id="arrowDown" transform="rotate(180) translate(-30 -48)">
    <use xlink:href="#rim"/>
    <path pointer-events="none" fill="none" stroke="white" stroke-width="1.5" d="M0,-3.0v7 M-2.5,-0.5L0,-3.0L2.5,-0.5"/>
  </g>
  <g id="arrowLeft" transform="rotate(270) translate(-36 17)">
    <use xlink:href="#rim"/>
    <path pointer-events="none" fill="none" stroke="white" stroke-width="1.5" d="M0,-3.0v7 M-2.5,-0.5L0,-3.0L2.5,-0.5"/>
  </g>
  <g id="resetDef">
    <use xlink:href="#rim2" fill="#404040"><set attributeName="fill" to="#808080" begin="reset.mouseover" end="reset.mouseout"/></use>
  </g>
</defs>
<script type="application/ecmascript">
var viewWidth = 1689;
var viewHeight = 251;
var sectionId = 'dynsection-10';
</script>
<script type="application/ecmascript" xlink:href="svg.min.js"/>
<svg id="graph" class="graph">
<g id="viewport">
<title>Game.World.GameWorld.GetChunk</title>
<!-- Node1 -->
<g id="Node000001" class="node">
<title>Node1</title>
<g id="a_Node000001"><a xlink:title="Gets the chunk it will load it if it hasn&#39;t been and hide it then otherwise just return it.">
<polygon fill="#999999" stroke="#666666" points="188,-224 0,-224 0,-205 188,-205 188,-224"/>
<text text-anchor="middle" x="94" y="-212" font-family="Helvetica,sans-Serif" font-size="10.00">Game.World.GameWorld.GetChunk</text>
</a>
</g>
</g>
<!-- Node2 -->
<g id="Node000002" class="node">
<title>Node2</title>
<g id="a_Node000002"><a xlink:href="classGame_1_1World_1_1GameWorld.html#a6e38b875a4ad69b6a285701336e9e29c" target="_top" xlink:title="Hide the given chunk.">
<polygon fill="white" stroke="#666666" points="417.5,-243 224.5,-243 224.5,-224 417.5,-224 417.5,-243"/>
<text text-anchor="middle" x="321" y="-231" font-family="Helvetica,sans-Serif" font-size="10.00">Game.World.GameWorld.HideChunk</text>
</a>
</g>
</g>
<!-- Node1&#45;&gt;Node2 -->
<g id="edge1_Node000001_Node000002" class="edge">
<title>Node1&#45;&gt;Node2</title>
<g id="a_edge1_Node000001_Node000002"><a xlink:title=" ">
<path fill="none" stroke="#63b8ff" d="M188.14,-222.37C196.74,-223.09 205.5,-223.83 214.21,-224.57"/>
<polygon fill="#63b8ff" stroke="#63b8ff" points="214.13,-228.07 224.39,-225.43 214.72,-221.1 214.13,-228.07"/>
</a>
</g>
</g>
<!-- Node4 -->
<g id="Node000004" class="node">
<title>Node4</title>
<g id="a_Node000004"><a xlink:href="classGame_1_1World_1_1GameWorld.html#a730e116826e3519544de155b667042ba" target="_top" xlink:title="Loads a chunk.">
<polygon fill="white" stroke="#666666" points="418,-206 224,-206 224,-187 418,-187 418,-206"/>
<text text-anchor="middle" x="321" y="-194" font-family="Helvetica,sans-Serif" font-size="10.00">Game.World.GameWorld.LoadChunk</text>
</a>
</g>
</g>
<!-- Node1&#45;&gt;Node4 -->
<g id="edge3_Node000001_Node000004" class="edge">
<title>Node1&#45;&gt;Node4</title>
<g id="a_edge3_Node000001_Node000004"><a xlink:title=" ">
<path fill="none" stroke="#63b8ff" d="M188.14,-207.05C196.57,-206.37 205.15,-205.69 213.68,-205.01"/>
<polygon fill="#63b8ff" stroke="#63b8ff" points="213.97,-208.49 223.66,-204.21 213.41,-201.52 213.97,-208.49"/>
</a>
</g>
</g>
<!-- Node3 -->
<g id="Node000003" class="node">
<title>Node3</title>
<g id="a_Node000003"><a xlink:href="classGame_1_1World_1_1Chunk.html#a118e0c25d254444e6663404fd61749d9" target="_top" xlink:title="Hide the chunk.">
<polygon fill="white" stroke="#666666" points="621,-243 454,-243 454,-224 621,-224 621,-243"/>
<text text-anchor="middle" x="537.5" y="-231" font-family="Helvetica,sans-Serif" font-size="10.00">Game.World.Chunk.HideChunk</text>
</a>
</g>
</g>
<!-- Node2&#45;&gt;Node3 -->
<g id="edge2_Node000002_Node000003" class="edge">
<title>Node2&#45;&gt;Node3</title>
<g id="a_edge2_Node000002_Node000003"><a xlink:title=" ">
<path fill="none" stroke="#63b8ff" d="M417.64,-233.5C426.32,-233.5 435.09,-233.5 443.74,-233.5"/>
<polygon fill="#63b8ff" stroke="#63b8ff" points="443.82,-237 453.82,-233.5 443.82,-230 443.82,-237"/>
</a>
</g>
</g>
<!-- Node5 -->
<g id="Node000005" class="node">
<title>Node5</title>
<g id="a_Node000005"><a xlink:href="classGame_1_1World_1_1Chunk.html#a475512064d145228ca7084735b7e2f2f" target="_top" xlink:title="Show the chunk.">
<polygon fill="white" stroke="#666666" points="612.5,-206 462.5,-206 462.5,-187 612.5,-187 612.5,-206"/>
<text text-anchor="middle" x="537.5" y="-194" font-family="Helvetica,sans-Serif" font-size="10.00">Game.World.Chunk.Display</text>
</a>
</g>
</g>
<!-- Node4&#45;&gt;Node5 -->
<g id="edge4_Node000004_Node000005" class="edge">
<title>Node4&#45;&gt;Node5</title>
<g id="a_edge4_Node000004_Node000005"><a xlink:title=" ">
<path fill="none" stroke="#63b8ff" d="M418.27,-196.5C429.61,-196.5 441.12,-196.5 452.27,-196.5"/>
<polygon fill="#63b8ff" stroke="#63b8ff" points="452.41,-200 462.41,-196.5 452.41,-193 452.41,-200"/>
</a>
</g>
</g>
<!-- Node6 -->
<g id="Node000006" class="node">
<title>Node6</title>
<g id="a_Node000006"><a xlink:href="classGame_1_1World_1_1Chunk.html#a0616c2f9600a4bcc1dbe97a93a947e7a" target="_top" xlink:title="Initialize the chunk.">
<polygon fill="white" stroke="#666666" points="617.5,-169 457.5,-169 457.5,-150 617.5,-150 617.5,-169"/>
<text text-anchor="middle" x="537.5" y="-157" font-family="Helvetica,sans-Serif" font-size="10.00">Game.World.Chunk.InitChunk</text>
</a>
</g>
</g>
<!-- Node4&#45;&gt;Node6 -->
<g id="edge5_Node000004_Node000006" class="edge">
<title>Node4&#45;&gt;Node6</title>
<g id="a_edge5_Node000004_Node000006"><a xlink:title=" ">
<path fill="none" stroke="#63b8ff" d="M377.24,-186.97C405.9,-182.03 441.1,-175.96 471.11,-170.78"/>
<polygon fill="#63b8ff" stroke="#63b8ff" points="471.82,-174.21 481.08,-169.06 470.63,-167.31 471.82,-174.21"/>
</a>
</g>
</g>
<!-- Node7 -->
<g id="Node000007" class="node">
<title>Node7</title>
<g id="a_Node000007"><a xlink:href="classGame_1_1World_1_1Chunk.html#aac3343253a33a36a09318ebc76bd9f08" target="_top" xlink:title="Creates the tiles for the chunk.">
<polygon fill="white" stroke="#666666" points="846.5,-206 677.5,-206 677.5,-187 846.5,-187 846.5,-206"/>
<text text-anchor="middle" x="762" y="-194" font-family="Helvetica,sans-Serif" font-size="10.00">Game.World.Chunk.CreateTiles</text>
</a>
</g>
</g>
<!-- Node6&#45;&gt;Node7 -->
<g id="edge6_Node000006_Node000007" class="edge">
<title>Node6&#45;&gt;Node7</title>
<g id="a_edge6_Node000006_Node000007"><a xlink:title=" ">
<path fill="none" stroke="#63b8ff" d="M595.8,-169.03C625.66,-173.99 662.36,-180.1 693.58,-185.29"/>
<polygon fill="#63b8ff" stroke="#63b8ff" points="693.07,-188.75 703.51,-186.94 694.22,-181.85 693.07,-188.75"/>
</a>
</g>
</g>
<!-- Node10 -->
<g id="Node000010" class="node">
<title>Node10</title>
<g id="a_Node000010"><a xlink:href="classGame_1_1World_1_1Chunk.html#a1fb214fa85481a42c651b9d6b0d45cb9" target="_top" xlink:title="Gets tthe nearby chunks.">
<polygon fill="white" stroke="#666666" points="863,-169 661,-169 661,-150 863,-150 863,-169"/>
<text text-anchor="middle" x="762" y="-157" font-family="Helvetica,sans-Serif" font-size="10.00">Game.World.Chunk.GetNearbyChunks</text>
</a>
</g>
</g>
<!-- Node6&#45;&gt;Node10 -->
<g id="edge9_Node000006_Node000010" class="edge">
<title>Node6&#45;&gt;Node10</title>
<g id="a_edge9_Node000006_Node000010"><a xlink:title=" ">
<path fill="none" stroke="#63b8ff" d="M617.57,-159.5C628.28,-159.5 639.43,-159.5 650.56,-159.5"/>
<polygon fill="#63b8ff" stroke="#63b8ff" points="650.77,-163 660.77,-159.5 650.77,-156 650.77,-163"/>
</a>
</g>
</g>
<!-- Node12 -->
<g id="Node000012" class="node">
<title>Node12</title>
<g id="a_Node000012"><a xlink:href="classGame_1_1World_1_1Chunk.html#a08f4b5e8b362b98f4b3f01225d12b4af" target="_top" xlink:title="Spawns the buildings and the props on a seperate thread.">
<polygon fill="white" stroke="#666666" points="867,-93 657,-93 657,-74 867,-74 867,-93"/>
<text text-anchor="middle" x="762" y="-81" font-family="Helvetica,sans-Serif" font-size="10.00">Game.World.Chunk.SpawnWorldObjects</text>
</a>
</g>
</g>
<!-- Node6&#45;&gt;Node12 -->
<g id="edge11_Node000006_Node000012" class="edge">
<title>Node6&#45;&gt;Node12</title>
<g id="a_edge11_Node000006_Node000012"><a xlink:title=" ">
<path fill="none" stroke="#63b8ff" d="M566.68,-149.87C606.47,-136.28 679.2,-111.44 723.51,-96.31"/>
<polygon fill="#63b8ff" stroke="#63b8ff" points="724.72,-99.59 733.05,-93.05 722.45,-92.97 724.72,-99.59"/>
</a>
</g>
</g>
<!-- Node8 -->
<g id="Node000008" class="node">
<title>Node8</title>
<g id="a_Node000008"><a xlink:href="classGame_1_1World_1_1Chunk.html#ac4b762352bb5f90952fe57e5c0ee208f" target="_top" xlink:title="Determines the type of the tile at the coord.">
<polygon fill="white" stroke="#666666" points="1130.5,-206 924.5,-206 924.5,-187 1130.5,-187 1130.5,-206"/>
<text text-anchor="middle" x="1027.5" y="-194" font-family="Helvetica,sans-Serif" font-size="10.00">Game.World.Chunk.DetermineTileType</text>
</a>
</g>
</g>
<!-- Node7&#45;&gt;Node8 -->
<g id="edge7_Node000007_Node000008" class="edge">
<title>Node7&#45;&gt;Node8</title>
<g id="a_edge7_Node000007_Node000008"><a xlink:title=" ">
<path fill="none" stroke="#63b8ff" d="M846.74,-196.5C868.04,-196.5 891.28,-196.5 913.76,-196.5"/>
<polygon fill="#63b8ff" stroke="#63b8ff" points="914.03,-200 924.03,-196.5 914.03,-193 914.03,-200"/>
</a>
</g>
</g>
<!-- Node9 -->
<g id="Node000009" class="node">
<title>Node9</title>
<g id="a_Node000009"><a xlink:href="classGame_1_1World_1_1Chunk.html#a2d39efc9f5c0f3c302dd7e9d007096c7" target="_top" xlink:title="Determine what type of road it is.">
<polygon fill="white" stroke="#666666" points="1416.5,-206 1204.5,-206 1204.5,-187 1416.5,-187 1416.5,-206"/>
<text text-anchor="middle" x="1310.5" y="-194" font-family="Helvetica,sans-Serif" font-size="10.00">Game.World.Chunk.DetermineRoadType</text>
</a>
</g>
</g>
<!-- Node8&#45;&gt;Node9 -->
<g id="edge8_Node000008_Node000009" class="edge">
<title>Node8&#45;&gt;Node9</title>
<g id="a_edge8_Node000008_Node000009"><a xlink:title=" ">
<path fill="none" stroke="#63b8ff" d="M1130.74,-196.5C1151.24,-196.5 1172.91,-196.5 1193.83,-196.5"/>
<polygon fill="#63b8ff" stroke="#63b8ff" points="1194.03,-200 1204.03,-196.5 1194.03,-193 1194.03,-200"/>
</a>
</g>
</g>
<!-- Node11 -->
<g id="Node000011" class="node">
<title>Node11</title>
<g id="a_Node000011"><a xlink:href="classGame_1_1World_1_1GameWorld.html#a6188226b54eb7e38659cbe8d9d76b620" target="_top" xlink:title="Get the chunk without trying it to load.">
<polygon fill="white" stroke="#666666" points="1152,-169 903,-169 903,-150 1152,-150 1152,-169"/>
<text text-anchor="middle" x="1027.5" y="-157" font-family="Helvetica,sans-Serif" font-size="10.00">Game.World.GameWorld.GetChunkWithoutLoad</text>
</a>
</g>
</g>
<!-- Node10&#45;&gt;Node11 -->
<g id="edge10_Node000010_Node000011" class="edge">
<title>Node10&#45;&gt;Node11</title>
<g id="a_edge10_Node000010_Node000011"><a xlink:title=" ">
<path fill="none" stroke="#63b8ff" d="M863.37,-159.5C872.98,-159.5 882.82,-159.5 892.68,-159.5"/>
<polygon fill="#63b8ff" stroke="#63b8ff" points="892.95,-163 902.95,-159.5 892.95,-156 892.95,-163"/>
</a>
</g>
</g>
<!-- Node13 -->
<g id="Node000013" class="node">
<title>Node13</title>
<g id="a_Node000013"><a xlink:href="classGame_1_1World_1_1Chunk.html#a12ff4b268fb99d10493398cfe555b46c" target="_top" xlink:title=" ">
<polygon fill="white" stroke="#666666" points="1421,-131 1200,-131 1200,-112 1421,-112 1421,-131"/>
<text text-anchor="middle" x="1310.5" y="-119" font-family="Helvetica,sans-Serif" font-size="10.00">Game.World.Chunk.AddEnvironmentProps</text>
</a>
</g>
</g>
<!-- Node12&#45;&gt;Node13 -->
<g id="edge12_Node000012_Node000013" class="edge">
<title>Node12&#45;&gt;Node13</title>
<g id="a_edge12_Node000012_Node000013"><a xlink:title=" ">
<path fill="none" stroke="#63b8ff" d="M828.76,-93.04C852.16,-96.15 878.71,-99.34 903,-101.5 999.18,-110.04 1108.51,-115.16 1189.54,-118.08"/>
<polygon fill="#63b8ff" stroke="#63b8ff" points="1189.66,-121.58 1199.78,-118.44 1189.91,-114.59 1189.66,-121.58"/>
</a>
</g>
</g>
<!-- Node15 -->
<g id="Node000015" class="node">
<title>Node15</title>
<g id="a_Node000015"><a xlink:href="classGame_1_1World_1_1Chunk.html#a00a9cd484ae1ddffec928a75f6b2db15" target="_top" xlink:title="Add the buildings which are next to the roads.">
<polygon fill="white" stroke="#666666" points="1128.5,-93 926.5,-93 926.5,-74 1128.5,-74 1128.5,-93"/>
<text text-anchor="middle" x="1027.5" y="-81" font-family="Helvetica,sans-Serif" font-size="10.00">Game.World.Chunk.AddRoadBuildings</text>
</a>
</g>
</g>
<!-- Node12&#45;&gt;Node15 -->
<g id="edge14_Node000012_Node000015" class="edge">
<title>Node12&#45;&gt;Node15</title>
<g id="a_edge14_Node000012_Node000015"><a xlink:title=" ">
<path fill="none" stroke="#63b8ff" d="M867.14,-83.5C883.22,-83.5 899.88,-83.5 916.1,-83.5"/>
<polygon fill="#63b8ff" stroke="#63b8ff" points="916.12,-87 926.12,-83.5 916.12,-80 916.12,-87"/>
</a>
</g>
</g>
<!-- Node17 -->
<g id="Node000017" class="node">
<title>Node17</title>
<g id="a_Node000017"><a xlink:href="classGame_1_1World_1_1Chunk.html#a443ede65d8aeb566a385cb3bcad9d8f7" target="_top" xlink:title="Generate the building cells matrix so we know which way the roads are.">
<polygon fill="white" stroke="#666666" points="1132,-56 923,-56 923,-37 1132,-37 1132,-56"/>
<text text-anchor="middle" x="1027.5" y="-44" font-family="Helvetica,sans-Serif" font-size="10.00">Game.World.Chunk.GenerateCellMatrix</text>
</a>
</g>
</g>
<!-- Node12&#45;&gt;Node17 -->
<g id="edge17_Node000012_Node000017" class="edge">
<title>Node12&#45;&gt;Node17</title>
<g id="a_edge17_Node000012_Node000017"><a xlink:title=" ">
<path fill="none" stroke="#63b8ff" d="M830.86,-73.97C866.68,-68.94 910.81,-62.74 948.09,-57.51"/>
<polygon fill="#63b8ff" stroke="#63b8ff" points="949,-60.92 958.41,-56.06 948.03,-53.98 949,-60.92"/>
</a>
</g>
</g>
<!-- Node18 -->
<g id="Node000018" class="node">
<title>Node18</title>
<g id="a_Node000018"><a xlink:href="classUtility_1_1CoroutineRunner.html#a1c473dee723f16d86bab9d8475c8214a" target="_top" xlink:title="A helper method to start coroutines.">
<polygon fill="white" stroke="#666666" points="1126.5,-19 928.5,-19 928.5,0 1126.5,0 1126.5,-19"/>
<text text-anchor="middle" x="1027.5" y="-7" font-family="Helvetica,sans-Serif" font-size="10.00">Utility.CoroutineRunner.RunCoroutine</text>
</a>
</g>
</g>
<!-- Node12&#45;&gt;Node18 -->
<g id="edge18_Node000012_Node000018" class="edge">
<title>Node12&#45;&gt;Node18</title>
<g id="a_edge18_Node000012_Node000018"><a xlink:title=" ">
<path fill="none" stroke="#63b8ff" d="M782.89,-73.8C809.58,-61.19 858.76,-39.39 903,-27.5 912.49,-24.95 922.5,-22.73 932.55,-20.82"/>
<polygon fill="#63b8ff" stroke="#63b8ff" points="933.36,-24.23 942.58,-19.01 932.12,-17.34 933.36,-24.23"/>
</a>
</g>
</g>
<!-- Node14 -->
<g id="Node000014" class="node">
<title>Node14</title>
<g id="a_Node000014"><a xlink:href="classGame_1_1World_1_1Chunk.html#af37779d40ed9cd07b577d5bca61627b7" target="_top" xlink:title=" ">
<polygon fill="white" stroke="#666666" points="1681,-112 1469,-112 1469,-93 1681,-93 1681,-112"/>
<text text-anchor="middle" x="1575" y="-100" font-family="Helvetica,sans-Serif" font-size="10.00">Game.World.Chunk.GetAbsolutePosition</text>
</a>
</g>
</g>
<!-- Node13&#45;&gt;Node14 -->
<g id="edge13_Node000013_Node000014" class="edge">
<title>Node13&#45;&gt;Node14</title>
<g id="a_edge13_Node000013_Node000014"><a xlink:title=" ">
<path fill="none" stroke="#63b8ff" d="M1421.3,-113.55C1433.6,-112.66 1446.15,-111.75 1458.51,-110.86"/>
<polygon fill="#63b8ff" stroke="#63b8ff" points="1459.12,-114.32 1468.84,-110.11 1458.61,-107.34 1459.12,-114.32"/>
</a>
</g>
</g>
<!-- Node16 -->
<g id="Node000016" class="node">
<title>Node16</title>
<g id="a_Node000016"><a xlink:href="classGame_1_1World_1_1Chunk.html#af2946e1e1b9e325d6004d166b2b26193" target="_top" xlink:title="Lock the cell and try to place it.">
<polygon fill="white" stroke="#666666" points="1433,-94 1188,-94 1188,-75 1433,-75 1433,-94"/>
<text text-anchor="middle" x="1310.5" y="-82" font-family="Helvetica,sans-Serif" font-size="10.00">Game.World.Chunk.LockAndTryToPlaceBuilding</text>
</a>
</g>
</g>
<!-- Node15&#45;&gt;Node16 -->
<g id="edge15_Node000015_Node000016" class="edge">
<title>Node15&#45;&gt;Node16</title>
<g id="a_edge15_Node000015_Node000016"><a xlink:title=" ">
<path fill="none" stroke="#63b8ff" d="M1128.76,-83.86C1144.55,-83.91 1161.09,-83.97 1177.47,-84.03"/>
<polygon fill="#63b8ff" stroke="#63b8ff" points="1177.62,-87.53 1187.64,-84.07 1177.65,-80.53 1177.62,-87.53"/>
</a>
</g>
</g>
<!-- Node16&#45;&gt;Node14 -->
<g id="edge16_Node000016_Node000014" class="edge">
<title>Node16&#45;&gt;Node14</title>
<g id="a_edge16_Node000016_Node000014"><a xlink:title=" ">
<path fill="none" stroke="#63b8ff" d="M1433.14,-92.84C1441.63,-93.42 1450.17,-94.01 1458.62,-94.59"/>
<polygon fill="#63b8ff" stroke="#63b8ff" points="1458.66,-98.1 1468.87,-95.29 1459.14,-91.12 1458.66,-98.1"/>
</a>
</g>
</g>
</g>
</svg>

<g id="navigator" transform="translate(0 0)" fill="#404254">
  <rect fill="#f2f5e9" fill-opacity="0.5" stroke="#606060" stroke-width=".5" x="0" y="0" width="60" height="60"/>
  <use id="zoomplus" xlink:href="#zoomPlus" x="17" y="9" onmousedown="handleZoom(evt,'in')"/>
  <use id="zoomminus" xlink:href="#zoomMin" x="42" y="9" onmousedown="handleZoom(evt,'out')"/>
  <use id="reset" xlink:href="#resetDef" x="30" y="36" onmousedown="handleReset()"/>
   <use id="arrowup" xlink:href="#arrowUp" x="0" y="0" onmousedown="handlePan(0,-1)"/>
  <use id="arrowright" xlink:href="#arrowRight" x="0" y="0" onmousedown="handlePan(1,0)"/>
  <use id="arrowdown" xlink:href="#arrowDown" x="0" y="0" onmousedown="handlePan(0,1)"/>
  <use id="arrowleft" xlink:href="#arrowLeft" x="0" y="0" onmousedown="handlePan(-1,0)"/>
</g>
<svg viewBox="0 0 15 15" width="100%" height="30px" preserveAspectRatio="xMaxYMin meet">
 <g id="arrow_out" transform="scale(0.3 0.3)">
  <a xlink:href="classGame_1_1World_1_1GameWorld_a34489f9fa15c207fce7c280ab1aeb08c_cgraph_org.svg" target="_base">
   <rect id="button" ry="5" rx="5" y="6" x="6" height="38" width="38"
        fill="#f2f5e9" fill-opacity="0.5" stroke="#606060" stroke-width="1.0"/>
   <path id="arrow"
     d="M 11.500037,31.436501 C 11.940474,20.09759 22.043105,11.32322 32.158766,21.979434 L 37.068811,17.246167 C 37.068811,17.246167 37.088388,32 37.088388,32 L 22.160133,31.978069 C 22.160133,31.978069 26.997745,27.140456 26.997745,27.140456 C 18.528582,18.264221 13.291696,25.230495 11.500037,31.436501 z"
     style="fill:#404040;"/>
  </a>
 </g>
</svg>

<style type='text/css'>
<![CDATA[
[data-mouse-over-selected='false'] { opacity: 0.7; }
[data-mouse-over-selected='true']  { opacity: 1.0; }
]]>
</style>
<script type="application/ecmascript"><![CDATA[
document.addEventListener('DOMContentLoaded', (event) => {
  highlightEdges();
  highlightAdjacentNodes();
});
]]></script>
</svg>
