<?xml version="1.0" encoding="UTF-8" standalone="no"?>
<!DOCTYPE svg PUBLIC "-//W3C//DTD SVG 1.1//EN"
 "http://www.w3.org/Graphics/SVG/1.1/DTD/svg11.dtd">
<!-- Generated by graphviz version 2.43.0 (0)
 -->
<!-- Title: Game.World.Chunk.Display Pages: 1 -->
<svg width="1428pt" height="101pt"
 viewBox="0.00 0.00 1428.00 101.00" xmlns="http://www.w3.org/2000/svg" xmlns:xlink="http://www.w3.org/1999/xlink">
<g id="graph0" class="graph" transform="scale(1 1) rotate(0) translate(4 97)">
<title>Game.World.Chunk.Display</title>
<!-- Node1 -->
<g id="Node000001" class="node">
<title>Node1</title>
<g id="a_Node000001"><a xlink:title="Show the chunk.">
<polygon fill="#999999" stroke="#666666" points="1420,-56 1270,-56 1270,-37 1420,-37 1420,-56"/>
<text text-anchor="middle" x="1345" y="-44" font-family="Helvetica,sans-Serif" font-size="10.00">Game.World.Chunk.Display</text>
</a>
</g>
</g>
<!-- Node2 -->
<g id="Node000002" class="node">
<title>Node2</title>
<g id="a_Node000002"><a xlink:href="classGame_1_1World_1_1GameWorld.html#a730e116826e3519544de155b667042ba" target="_top" xlink:title="Loads a chunk.">
<polygon fill="white" stroke="#666666" points="1234,-56 1040,-56 1040,-37 1234,-37 1234,-56"/>
<text text-anchor="middle" x="1137" y="-44" font-family="Helvetica,sans-Serif" font-size="10.00">Game.World.GameWorld.LoadChunk</text>
</a>
</g>
</g>
<!-- Node1&#45;&gt;Node2 -->
<g id="edge1_Node000001_Node000002" class="edge">
<title>Node1&#45;&gt;Node2</title>
<g id="a_edge1_Node000001_Node000002"><a xlink:title=" ">
<path fill="none" stroke="#63b8ff" d="M1259.7,-46.5C1251.24,-46.5 1242.6,-46.5 1234.02,-46.5"/>
<polygon fill="#63b8ff" stroke="#63b8ff" points="1259.92,-50 1269.92,-46.5 1259.92,-43 1259.92,-50"/>
</a>
</g>
</g>
<!-- Node3 -->
<g id="Node000003" class="node">
<title>Node3</title>
<g id="a_Node000003"><a xlink:href="classGame_1_1World_1_1GameWorld.html#a5bc9140bbdf4b45f229d4e900db98d9b" target="_top" xlink:title="Creates a new game and create the chunks.">
<polygon fill="white" stroke="#666666" points="995,-93 772,-93 772,-74 995,-74 995,-93"/>
<text text-anchor="middle" x="883.5" y="-81" font-family="Helvetica,sans-Serif" font-size="10.00">Game.World.GameWorld.CreateNewGame</text>
</a>
</g>
</g>
<!-- Node2&#45;&gt;Node3 -->
<g id="edge2_Node000002_Node000003" class="edge">
<title>Node2&#45;&gt;Node3</title>
<g id="a_edge2_Node000002_Node000003"><a xlink:title=" ">
<path fill="none" stroke="#63b8ff" d="M1060.93,-57.54C1025.48,-62.76 983.56,-68.93 949.48,-73.94"/>
<polygon fill="#63b8ff" stroke="#63b8ff" points="1061.85,-60.95 1071.23,-56.03 1060.83,-54.02 1061.85,-60.95"/>
</a>
</g>
</g>
<!-- Node6 -->
<g id="Node000006" class="node">
<title>Node6</title>
<g id="a_Node000006"><a xlink:href="classGame_1_1World_1_1GameWorld.html#a34489f9fa15c207fce7c280ab1aeb08c" target="_top" xlink:title="Gets the chunk it will load it if it hasn&#39;t been and hide it then otherwise just return it.">
<polygon fill="white" stroke="#666666" points="977.5,-56 789.5,-56 789.5,-37 977.5,-37 977.5,-56"/>
<text text-anchor="middle" x="883.5" y="-44" font-family="Helvetica,sans-Serif" font-size="10.00">Game.World.GameWorld.GetChunk</text>
</a>
</g>
</g>
<!-- Node2&#45;&gt;Node6 -->
<g id="edge5_Node000002_Node000006" class="edge">
<title>Node2&#45;&gt;Node6</title>
<g id="a_edge5_Node000002_Node000006"><a xlink:title=" ">
<path fill="none" stroke="#63b8ff" d="M1029.73,-46.5C1012.44,-46.5 994.65,-46.5 977.7,-46.5"/>
<polygon fill="#63b8ff" stroke="#63b8ff" points="1029.84,-50 1039.84,-46.5 1029.84,-43 1029.84,-50"/>
</a>
</g>
</g>
<!-- Node7 -->
<g id="Node000007" class="node">
<title>Node7</title>
<g id="a_Node000007"><a xlink:href="classGame_1_1GameController.html#a9818f49a9c0638be6cc6449e5e5000f7" target="_top" xlink:title="Checks if the selected chunk is in range and loads it if the world exists.">
<polygon fill="white" stroke="#666666" points="1004,-19 763,-19 763,0 1004,0 1004,-19"/>
<text text-anchor="middle" x="883.5" y="-7" font-family="Helvetica,sans-Serif" font-size="10.00">Game.GameController.ValidateAndLoadChunk</text>
</a>
</g>
</g>
<!-- Node2&#45;&gt;Node7 -->
<g id="edge6_Node000002_Node000007" class="edge">
<title>Node2&#45;&gt;Node7</title>
<g id="a_edge6_Node000002_Node000007"><a xlink:title=" ">
<path fill="none" stroke="#63b8ff" d="M1060.93,-35.46C1025.48,-30.24 983.56,-24.07 949.48,-19.06"/>
<polygon fill="#63b8ff" stroke="#63b8ff" points="1060.83,-38.98 1071.23,-36.97 1061.85,-32.05 1060.83,-38.98"/>
</a>
</g>
</g>
<!-- Node4 -->
<g id="Node000004" class="node">
<title>Node4</title>
<g id="a_Node000004"><a xlink:href="classGame_1_1GameController.html#af5c50c52cffcab3018ca54be6a421d7f" target="_top" xlink:title="Create a new game.">
<polygon fill="white" stroke="#666666" points="700.5,-93 521.5,-93 521.5,-74 700.5,-74 700.5,-93"/>
<text text-anchor="middle" x="611" y="-81" font-family="Helvetica,sans-Serif" font-size="10.00">Game.GameController.NewGame</text>
</a>
</g>
</g>
<!-- Node3&#45;&gt;Node4 -->
<g id="edge3_Node000003_Node000004" class="edge">
<title>Node3&#45;&gt;Node4</title>
<g id="a_edge3_Node000003_Node000004"><a xlink:title=" ">
<path fill="none" stroke="#63b8ff" d="M761.67,-83.5C741.16,-83.5 720.2,-83.5 700.72,-83.5"/>
<polygon fill="#63b8ff" stroke="#63b8ff" points="761.7,-87 771.7,-83.5 761.7,-80 761.7,-87"/>
</a>
</g>
</g>
<!-- Node5 -->
<g id="Node000005" class="node">
<title>Node5</title>
<g id="a_Node000005"><a xlink:href="classGame_1_1UI_1_1GameUI.html#ad581ee67e01ac3bcdec06cf2538f06e4" target="_top" xlink:title="Start a new game.">
<polygon fill="white" stroke="#666666" points="411.5,-93 255.5,-93 255.5,-74 411.5,-74 411.5,-93"/>
<text text-anchor="middle" x="333.5" y="-81" font-family="Helvetica,sans-Serif" font-size="10.00">Game.UI.GameUI.NewGame</text>
</a>
</g>
</g>
<!-- Node4&#45;&gt;Node5 -->
<g id="edge4_Node000004_Node000005" class="edge">
<title>Node4&#45;&gt;Node5</title>
<g id="a_edge4_Node000004_Node000005"><a xlink:title=" ">
<path fill="none" stroke="#63b8ff" d="M511.28,-83.5C478.6,-83.5 442.73,-83.5 411.88,-83.5"/>
<polygon fill="#63b8ff" stroke="#63b8ff" points="511.31,-87 521.31,-83.5 511.31,-80 511.31,-87"/>
</a>
</g>
</g>
<!-- Node8 -->
<g id="Node000008" class="node">
<title>Node8</title>
<g id="a_Node000008"><a xlink:href="classGame_1_1GameController.html#a2003e53e493cca6ace00e260e7161a03" target="_top" xlink:title="Spawns and loads the nearby chunks.">
<polygon fill="white" stroke="#666666" points="727,-19 495,-19 495,0 727,0 727,-19"/>
<text text-anchor="middle" x="611" y="-7" font-family="Helvetica,sans-Serif" font-size="10.00">Game.GameController.SpawnNearbyChunks</text>
</a>
</g>
</g>
<!-- Node7&#45;&gt;Node8 -->
<g id="edge7_Node000007_Node000008" class="edge">
<title>Node7&#45;&gt;Node8</title>
<g id="a_edge7_Node000007_Node000008"><a xlink:title=" ">
<path fill="none" stroke="#63b8ff" d="M752.47,-9.5C744.09,-9.5 735.68,-9.5 727.37,-9.5"/>
<polygon fill="#63b8ff" stroke="#63b8ff" points="752.67,-13 762.67,-9.5 752.67,-6 752.67,-13"/>
</a>
</g>
</g>
<!-- Node9 -->
<g id="Node000009" class="node">
<title>Node9</title>
<g id="a_Node000009"><a xlink:href="classGame_1_1GameController.html#af623e7876622503e3d0f985ad9b08e47" target="_top" xlink:title="Handle the load and despawning of the chunks relative to the given indices.">
<polygon fill="white" stroke="#666666" points="459,-19 208,-19 208,0 459,0 459,-19"/>
<text text-anchor="middle" x="333.5" y="-7" font-family="Helvetica,sans-Serif" font-size="10.00">Game.GameController.LoadAndDespawnChunks</text>
</a>
</g>
</g>
<!-- Node8&#45;&gt;Node9 -->
<g id="edge8_Node000008_Node000009" class="edge">
<title>Node8&#45;&gt;Node9</title>
<g id="a_edge8_Node000008_Node000009"><a xlink:title=" ">
<path fill="none" stroke="#63b8ff" d="M484.48,-9.5C476.02,-9.5 467.5,-9.5 459.05,-9.5"/>
<polygon fill="#63b8ff" stroke="#63b8ff" points="484.76,-13 494.76,-9.5 484.76,-6 484.76,-13"/>
</a>
</g>
</g>
<!-- Node10 -->
<g id="Node000010" class="node">
<title>Node10</title>
<g id="a_Node000010"><a xlink:href="classGame_1_1PlayerCar.html#a18f30f1f6873f043457ce9f81ac47ed4" target="_top" xlink:title="Override the chunk changed method to make it load and despawn the chunks.">
<polygon fill="white" stroke="#666666" points="172,-19 0,-19 0,0 172,0 172,-19"/>
<text text-anchor="middle" x="86" y="-7" font-family="Helvetica,sans-Serif" font-size="10.00">Game.PlayerCar.ChunkChanged</text>
</a>
</g>
</g>
<!-- Node9&#45;&gt;Node10 -->
<g id="edge9_Node000009_Node000010" class="edge">
<title>Node9&#45;&gt;Node10</title>
<g id="a_edge9_Node000009_Node000010"><a xlink:title=" ">
<path fill="none" stroke="#63b8ff" d="M197.75,-9.5C189.09,-9.5 180.5,-9.5 172.17,-9.5"/>
<polygon fill="#63b8ff" stroke="#63b8ff" points="197.95,-13 207.95,-9.5 197.95,-6 197.95,-13"/>
</a>
</g>
</g>
</g>
</svg>
