<?xml version="1.0" encoding="UTF-8" standalone="no"?>
<!DOCTYPE svg PUBLIC "-//W3C//DTD SVG 1.1//EN"
 "http://www.w3.org/Graphics/SVG/1.1/DTD/svg11.dtd">
<!-- Generated by graphviz version 2.43.0 (0)
 -->
<!-- Title: MainPage.MainWindowController.SortingChanged Pages: 1 -->
<svg width="1163pt" height="66pt"
 viewBox="0.00 0.00 1163.00 66.00" xmlns="http://www.w3.org/2000/svg" xmlns:xlink="http://www.w3.org/1999/xlink">
<g id="graph0" class="graph" transform="scale(1 1) rotate(0) translate(4 62)">
<title>MainPage.MainWindowController.SortingChanged</title>
<polygon fill="white" stroke="transparent" points="-4,4 -4,-62 1159,-62 1159,4 -4,4"/>
<!-- Node1 -->
<g id="node1" class="node">
<title>Node1</title>
<g id="a_node1"><a xlink:title="Refreshes the tasks with the proper sorting order">
<polygon fill="#bfbfbf" stroke="black" points="0,-19.5 0,-38.5 257,-38.5 257,-19.5 0,-19.5"/>
<text text-anchor="middle" x="128.5" y="-26.5" font-family="Helvetica,sans-Serif" font-size="10.00">MainPage.MainWindowController.SortingChanged</text>
</a>
</g>
</g>
<!-- Node2 -->
<g id="node2" class="node">
<title>Node2</title>
<g id="a_node2"><a xlink:href="classMainPage_1_1MainWindowController.html#a241b480aeebdab1bc34320cad8de7712" target="_top" xlink:title="Load the good habits">
<polygon fill="white" stroke="black" points="294,-38.5 294,-57.5 548,-57.5 548,-38.5 294,-38.5"/>
<text text-anchor="middle" x="421" y="-45.5" font-family="Helvetica,sans-Serif" font-size="10.00">MainPage.MainWindowController.LoadBadHabits</text>
</a>
</g>
</g>
<!-- Node1&#45;&gt;Node2 -->
<g id="edge1" class="edge">
<title>Node1&#45;&gt;Node2</title>
<path fill="none" stroke="midnightblue" d="M257.34,-37.36C265.98,-37.93 274.71,-38.5 283.4,-39.07"/>
<polygon fill="midnightblue" stroke="midnightblue" points="283.36,-42.57 293.57,-39.73 283.82,-35.59 283.36,-42.57"/>
</g>
<!-- Node5 -->
<g id="node5" class="node">
<title>Node5</title>
<g id="a_node5"><a xlink:href="classMainPage_1_1MainWindowController.html#ab5b80370512cd4273e86927fe696462d" target="_top" xlink:title="Load the good tasks">
<polygon fill="white" stroke="black" points="293,-0.5 293,-19.5 549,-19.5 549,-0.5 293,-0.5"/>
<text text-anchor="middle" x="421" y="-7.5" font-family="Helvetica,sans-Serif" font-size="10.00">MainPage.MainWindowController.LoadGoodTasks</text>
</a>
</g>
</g>
<!-- Node1&#45;&gt;Node5 -->
<g id="edge5" class="edge">
<title>Node1&#45;&gt;Node5</title>
<path fill="none" stroke="midnightblue" d="M257.34,-20.64C265.67,-20.09 274.08,-19.54 282.46,-19"/>
<polygon fill="midnightblue" stroke="midnightblue" points="282.9,-22.47 292.65,-18.33 282.45,-15.49 282.9,-22.47"/>
</g>
<!-- Node3 -->
<g id="node3" class="node">
<title>Node3</title>
<g id="a_node3"><a xlink:href="classMainPage_1_1TaskOpenPanelController.html#a5513399c20f650915ca10f54805f416e" target="_top" xlink:title="Make this task a bad habit">
<polygon fill="white" stroke="black" points="586,-38.5 586,-57.5 855,-57.5 855,-38.5 586,-38.5"/>
<text text-anchor="middle" x="720.5" y="-45.5" font-family="Helvetica,sans-Serif" font-size="10.00">MainPage.TaskOpenPanelController.MakeItBadHabit</text>
</a>
</g>
</g>
<!-- Node2&#45;&gt;Node3 -->
<g id="edge2" class="edge">
<title>Node2&#45;&gt;Node3</title>
<path fill="none" stroke="midnightblue" d="M548.17,-41.32C557.35,-41.26 566.66,-41.24 575.94,-41.25"/>
<polygon fill="midnightblue" stroke="midnightblue" points="575.98,-44.75 585.99,-41.28 576,-37.75 575.98,-44.75"/>
</g>
<!-- Node3&#45;&gt;Node2 -->
<g id="edge3" class="edge">
<title>Node3&#45;&gt;Node2</title>
<path fill="none" stroke="midnightblue" d="M585.99,-54.72C576.75,-54.76 567.43,-54.76 558.18,-54.73"/>
<polygon fill="midnightblue" stroke="midnightblue" points="558.18,-51.23 548.17,-54.68 558.15,-58.23 558.18,-51.23"/>
</g>
<!-- Node4 -->
<g id="node4" class="node">
<title>Node4</title>
<g id="a_node4"><a xlink:href="classMainPage_1_1TaskOpenPanelController.html#aa0b6757dbad141375c50282278b23b1a" target="_top" xlink:title="Update the buttons with the appropriate color based on the current task">
<polygon fill="white" stroke="black" points="892,-19.5 892,-38.5 1155,-38.5 1155,-19.5 892,-19.5"/>
<text text-anchor="middle" x="1023.5" y="-26.5" font-family="Helvetica,sans-Serif" font-size="10.00">MainPage.TaskOpenPanelController.UpdateButtons</text>
</a>
</g>
</g>
<!-- Node3&#45;&gt;Node4 -->
<g id="edge4" class="edge">
<title>Node3&#45;&gt;Node4</title>
<path fill="none" stroke="midnightblue" d="M855.28,-39.56C863.97,-39.01 872.73,-38.45 881.45,-37.9"/>
<polygon fill="midnightblue" stroke="midnightblue" points="881.91,-41.38 891.67,-37.26 881.46,-34.4 881.91,-41.38"/>
</g>
<!-- Node6 -->
<g id="node6" class="node">
<title>Node6</title>
<g id="a_node6"><a xlink:href="classMainPage_1_1TaskOpenPanelController.html#a069a63e2b7e70cc4cb4c7e487b655700" target="_top" xlink:title="Make it a good task">
<polygon fill="white" stroke="black" points="585,-0.5 585,-19.5 856,-19.5 856,-0.5 585,-0.5"/>
<text text-anchor="middle" x="720.5" y="-7.5" font-family="Helvetica,sans-Serif" font-size="10.00">MainPage.TaskOpenPanelController.MakeItGoodTask</text>
</a>
</g>
</g>
<!-- Node5&#45;&gt;Node6 -->
<g id="edge6" class="edge">
<title>Node5&#45;&gt;Node6</title>
<path fill="none" stroke="midnightblue" d="M549.03,-3.31C557.54,-3.26 566.15,-3.24 574.75,-3.25"/>
<polygon fill="midnightblue" stroke="midnightblue" points="574.81,-6.75 584.82,-3.28 574.83,0.25 574.81,-6.75"/>
</g>
<!-- Node6&#45;&gt;Node4 -->
<g id="edge8" class="edge">
<title>Node6&#45;&gt;Node4</title>
<path fill="none" stroke="midnightblue" d="M856.15,-18.5C864.7,-19.04 873.32,-19.58 881.9,-20.12"/>
<polygon fill="midnightblue" stroke="midnightblue" points="881.74,-23.62 891.94,-20.76 882.18,-16.64 881.74,-23.62"/>
</g>
<!-- Node6&#45;&gt;Node5 -->
<g id="edge7" class="edge">
<title>Node6&#45;&gt;Node5</title>
<path fill="none" stroke="midnightblue" d="M584.82,-16.72C576.26,-16.76 567.63,-16.76 559.06,-16.73"/>
<polygon fill="midnightblue" stroke="midnightblue" points="559.05,-13.23 549.03,-16.69 559.01,-20.23 559.05,-13.23"/>
</g>
</g>
</svg>
