<?xml version="1.0" encoding="UTF-8" standalone="no"?>
<!DOCTYPE svg PUBLIC "-//W3C//DTD SVG 1.1//EN"
 "http://www.w3.org/Graphics/SVG/1.1/DTD/svg11.dtd">
<!-- Generated by graphviz version 2.43.0 (0)
 -->
<!-- Title: User.UserData Pages: 1 -->
<svg width="330pt" height="253pt"
 viewBox="0.00 0.00 330.00 253.00" xmlns="http://www.w3.org/2000/svg" xmlns:xlink="http://www.w3.org/1999/xlink">
<g id="graph0" class="graph" transform="scale(1 1) rotate(0) translate(4 249)">
<title>User.UserData</title>
<polygon fill="white" stroke="transparent" points="-4,4 -4,-249 326,-249 326,4 -4,4"/>
<!-- Node1 -->
<g id="node1" class="node">
<title>Node1</title>
<g id="a_node1"><a xlink:title="Singleton class for storing the user&#39;s data">
<polygon fill="#bfbfbf" stroke="black" points="0,-0.5 0,-244.5 255,-244.5 255,-0.5 0,-0.5"/>
<text text-anchor="middle" x="127.5" y="-232.5" font-family="Helvetica,sans-Serif" font-size="10.00">User.UserData</text>
<polyline fill="none" stroke="black" points="0,-225.5 255,-225.5 "/>
<text text-anchor="start" x="8" y="-213.5" font-family="Helvetica,sans-Serif" font-size="10.00">+ static UserData Instance</text>
<text text-anchor="start" x="8" y="-202.5" font-family="Helvetica,sans-Serif" font-size="10.00">+ string Username</text>
<text text-anchor="start" x="8" y="-191.5" font-family="Helvetica,sans-Serif" font-size="10.00">+ string Email</text>
<text text-anchor="start" x="8" y="-180.5" font-family="Helvetica,sans-Serif" font-size="10.00">+ long Id</text>
<text text-anchor="start" x="8" y="-169.5" font-family="Helvetica,sans-Serif" font-size="10.00">+ UserSettings UserSettings</text>
<text text-anchor="start" x="8" y="-158.5" font-family="Helvetica,sans-Serif" font-size="10.00">+ Thesis_backend.Data_Structures.Game Game</text>
<text text-anchor="start" x="8" y="-147.5" font-family="Helvetica,sans-Serif" font-size="10.00">+ DateTime LastLoggedIn</text>
<text text-anchor="start" x="8" y="-136.5" font-family="Helvetica,sans-Serif" font-size="10.00">+ DateTime Registered</text>
<text text-anchor="start" x="8" y="-125.5" font-family="Helvetica,sans-Serif" font-size="10.00">+ bool LoggedIn</text>
<text text-anchor="start" x="8" y="-114.5" font-family="Helvetica,sans-Serif" font-size="10.00">+ long TotalScore</text>
<text text-anchor="start" x="8" y="-103.5" font-family="Helvetica,sans-Serif" font-size="10.00">+ long CurrentTaskScore</text>
<text text-anchor="start" x="8" y="-92.5" font-family="Helvetica,sans-Serif" font-size="10.00">+ int CompletedGoodTasks</text>
<text text-anchor="start" x="8" y="-81.5" font-family="Helvetica,sans-Serif" font-size="10.00">+ int CompletedBadTasks</text>
<polyline fill="none" stroke="black" points="0,-74.5 255,-74.5 "/>
<text text-anchor="start" x="8" y="-62.5" font-family="Helvetica,sans-Serif" font-size="10.00">+ void Init(Thesis_backend.Data_Structures.User</text>
<text text-anchor="start" x="8" y="-51.5" font-family="Helvetica,sans-Serif" font-size="10.00"> loggedInUser)</text>
<text text-anchor="start" x="8" y="-40.5" font-family="Helvetica,sans-Serif" font-size="10.00">+ void UpdateTaskScore(long newAmount)</text>
<text text-anchor="start" x="8" y="-29.5" font-family="Helvetica,sans-Serif" font-size="10.00">+ void Logout()</text>
<text text-anchor="start" x="8" y="-18.5" font-family="Helvetica,sans-Serif" font-size="10.00">&#45; UserData()</text>
<text text-anchor="start" x="8" y="-7.5" font-family="Helvetica,sans-Serif" font-size="10.00">&#45; static UserData GetOrCreate()</text>
</a>
</g>
</g>
<!-- Node1&#45;&gt;Node1 -->
<g id="edge1" class="edge">
<title>Node1&#45;&gt;Node1</title>
<path fill="none" stroke="#404040" d="M255.19,-158.2C266.16,-150.6 273,-138.7 273,-122.5 273,-111.36 269.77,-102.25 264.18,-95.18"/>
<polygon fill="none" stroke="#404040" points="263.97,-94.99 256.85,-93.82 255.19,-86.8 262.31,-87.97 263.97,-94.99"/>
<text text-anchor="middle" x="297.5" y="-120" font-family="Helvetica,sans-Serif" font-size="10.00"> &#45;instance</text>
</g>
</g>
</svg>
