<?xml version="1.0" encoding="UTF-8" standalone="no"?>
<!DOCTYPE svg PUBLIC "-//W3C//DTD SVG 1.1//EN"
 "http://www.w3.org/Graphics/SVG/1.1/DTD/svg11.dtd">
<!-- Generated by graphviz version 2.43.0 (0)
 -->
<!-- Title: Utility.ModalWindow.Show Pages: 1 -->
<!--zoomable 601 -->

<svg id="main" version="1.1" xmlns="http://www.w3.org/2000/svg" xmlns:xlink="http://www.w3.org/1999/xlink" xml:space="preserve" onload="init(evt)">
<style type="text/css"><![CDATA[
.node, .edge {opacity: 0.7;}
.node.selected, .edge.selected {opacity: 1;}
.edge:hover path { stroke: red; }
.edge:hover polygon { stroke: red; fill: red; }
]]></style>

<defs>
  <circle id="rim" cx="0" cy="0" r="7"/>
  <circle id="rim2" cx="0" cy="0" r="3.5"/>
  <g id="zoomPlus">
    <use xlink:href="#rim" fill="#404040"><set attributeName="fill" to="#808080" begin="zoomplus.mouseover" end="zoomplus.mouseout"/></use>
    <path d="M-4,0h8M0,-4v8" fill="none" stroke="white" stroke-width="1.5" pointer-events="none"/>
  </g>
  <g id="zoomMin">
    <use xlink:href="#rim" fill="#404040"><set attributeName="fill" to="#808080" begin="zoomminus.mouseover" end="zoomminus.mouseout"/></use>
    <path d="M-4,0h8" fill="none" stroke="white" stroke-width="1.5" pointer-events="none"/>
  </g>
  <g id="arrowUp" transform="translate(30 24)">
    <use xlink:href="#rim"/>
    <path pointer-events="none" fill="none" stroke="white" stroke-width="1.5" d="M0,-3.0v7 M-2.5,-0.5L0,-3.0L2.5,-0.5"/>
  </g>
  <g id="arrowRight" transform="rotate(90) translate(36 -43)">
    <use xlink:href="#rim"/>
    <path pointer-events="none" fill="none" stroke="white" stroke-width="1.5" d="M0,-3.0v7 M-2.5,-0.5L0,-3.0L2.5,-0.5"/>
  </g>
  <g id="arrowDown" transform="rotate(180) translate(-30 -48)">
    <use xlink:href="#rim"/>
    <path pointer-events="none" fill="none" stroke="white" stroke-width="1.5" d="M0,-3.0v7 M-2.5,-0.5L0,-3.0L2.5,-0.5"/>
  </g>
  <g id="arrowLeft" transform="rotate(270) translate(-36 17)">
    <use xlink:href="#rim"/>
    <path pointer-events="none" fill="none" stroke="white" stroke-width="1.5" d="M0,-3.0v7 M-2.5,-0.5L0,-3.0L2.5,-0.5"/>
  </g>
  <g id="resetDef">
    <use xlink:href="#rim2" fill="#404040"><set attributeName="fill" to="#808080" begin="reset.mouseover" end="reset.mouseout"/></use>
  </g>
</defs>
<script type="application/ecmascript">
var viewWidth = 1369;
var viewHeight = 601;
var sectionId = 'dynsection-2';
</script>
<script type="application/ecmascript" xlink:href="svg.min.js"/>
<svg id="graph" class="graph">
<g id="viewport">
<title>Utility.ModalWindow.Show</title>
<!-- Node1 -->
<g id="Node000001" class="node">
<title>Node1</title>
<g id="a_Node000001"><a xlink:title="Show the modal window.">
<polygon fill="#999999" stroke="#666666" points="1361,-356 1215,-356 1215,-337 1361,-337 1361,-356"/>
<text text-anchor="middle" x="1288" y="-344" font-family="Helvetica,sans-Serif" font-size="10.00">Utility.ModalWindow.Show</text>
</a>
</g>
</g>
<!-- Node2 -->
<g id="Node000002" class="node">
<title>Node2</title>
<g id="a_Node000002"><a xlink:href="classUser_1_1UserController.html#ae7159709fe17c18b3f9e3a15617c1db1" target="_top" xlink:title="Send a register request with the register panel&#39;s fields.">
<polygon fill="white" stroke="#666666" points="800.5,-578 621.5,-578 621.5,-559 800.5,-559 800.5,-578"/>
<text text-anchor="middle" x="711" y="-566" font-family="Helvetica,sans-Serif" font-size="10.00">User.UserController.SendRegister</text>
</a>
</g>
</g>
<!-- Node1&#45;&gt;Node2 -->
<g id="edge1_Node000001_Node000002" class="edge">
<title>Node1&#45;&gt;Node2</title>
<g id="a_edge1_Node000001_Node000002"><a xlink:title=" ">
<path fill="none" stroke="#63b8ff" d="M1282.09,-366.07C1271.12,-405.24 1240.61,-492.81 1179,-531.5 1046.07,-614.98 848.14,-593.62 758.78,-578.05"/>
<polygon fill="#63b8ff" stroke="#63b8ff" points="1285.48,-366.95 1284.68,-356.39 1278.71,-365.15 1285.48,-366.95"/>
</a>
</g>
</g>
<!-- Node3 -->
<g id="Node000003" class="node">
<title>Node3</title>
<g id="a_Node000003"><a xlink:href="classUtility_1_1ModalWindow.html#aefa109efe486b5a93c22bef9105bf2ee" target="_top" xlink:title="Show the modal window with custom content.">
<polygon fill="white" stroke="#666666" points="1109,-522 963,-522 963,-503 1109,-503 1109,-522"/>
<text text-anchor="middle" x="1036" y="-510" font-family="Helvetica,sans-Serif" font-size="10.00">Utility.ModalWindow.Show</text>
</a>
</g>
</g>
<!-- Node1&#45;&gt;Node3 -->
<g id="edge2_Node000001_Node000003" class="edge">
<title>Node1&#45;&gt;Node3</title>
<g id="a_edge2_Node000001_Node000003"><a xlink:title=" ">
<path fill="none" stroke="#63b8ff" d="M1279.22,-365.54C1264.82,-398.12 1230.66,-464.01 1179,-494.5 1158.24,-506.75 1132.83,-512.3 1109.27,-514.47"/>
<polygon fill="#63b8ff" stroke="#63b8ff" points="1282.5,-366.79 1283.2,-356.22 1276.06,-364.04 1282.5,-366.79"/>
</a>
</g>
</g>
<!-- Node4 -->
<g id="Node000004" class="node">
<title>Node4</title>
<g id="a_Node000004"><a xlink:href="classUser_1_1UserController.html#a156a37eabac915f5d287201599b3a0b1" target="_top" xlink:title="Show the login error on the modal window.">
<polygon fill="white" stroke="#666666" points="1131,-448 941,-448 941,-429 1131,-429 1131,-448"/>
<text text-anchor="middle" x="1036" y="-436" font-family="Helvetica,sans-Serif" font-size="10.00">User.UserController.ShowLoginError</text>
</a>
</g>
</g>
<!-- Node1&#45;&gt;Node4 -->
<g id="edge3_Node000001_Node000004" class="edge">
<title>Node1&#45;&gt;Node4</title>
<g id="a_edge3_Node000001_Node000004"><a xlink:title=" ">
<path fill="none" stroke="#63b8ff" d="M1268.87,-363.01C1248.58,-380.44 1213.95,-407.21 1179,-420.5 1164.02,-426.2 1147.57,-430.17 1131.35,-432.92"/>
<polygon fill="#63b8ff" stroke="#63b8ff" points="1271.44,-365.41 1276.64,-356.17 1266.82,-360.15 1271.44,-365.41"/>
</a>
</g>
</g>
<!-- Node6 -->
<g id="Node000006" class="node">
<title>Node6</title>
<g id="a_Node000006"><a xlink:href="classUser_1_1UserController.html#a07a456882c4f5619e468f30cc0cdf76c" target="_top" xlink:title="Show the register error on the modal window.">
<polygon fill="white" stroke="#666666" points="1138,-485 934,-485 934,-466 1138,-466 1138,-485"/>
<text text-anchor="middle" x="1036" y="-473" font-family="Helvetica,sans-Serif" font-size="10.00">User.UserController.ShowRegisterError</text>
</a>
</g>
</g>
<!-- Node1&#45;&gt;Node6 -->
<g id="edge5_Node000001_Node000006" class="edge">
<title>Node1&#45;&gt;Node6</title>
<g id="a_edge5_Node000001_Node000006"><a xlink:title=" ">
<path fill="none" stroke="#63b8ff" d="M1275.26,-364.75C1257.72,-390.3 1222.07,-436.02 1179,-457.5 1166.32,-463.82 1152.25,-468.22 1138.04,-471.24"/>
<polygon fill="#63b8ff" stroke="#63b8ff" points="1278.24,-366.59 1280.88,-356.33 1272.42,-362.7 1278.24,-366.59"/>
</a>
</g>
</g>
<!-- Node7 -->
<g id="Node000007" class="node">
<title>Node7</title>
<g id="a_Node000007"><a xlink:href="classGame_1_1UI_1_1GameUI.html#ac464d5a547acb44085748e2ee265272f" target="_top" xlink:title="Show if the request failed on the modal window.">
<polygon fill="white" stroke="#666666" points="1130,-411 942,-411 942,-392 1130,-392 1130,-411"/>
<text text-anchor="middle" x="1036" y="-399" font-family="Helvetica,sans-Serif" font-size="10.00">Game.UI.GameUI.ShowRequestFail</text>
</a>
</g>
</g>
<!-- Node1&#45;&gt;Node7 -->
<g id="edge7_Node000001_Node000007" class="edge">
<title>Node1&#45;&gt;Node7</title>
<g id="a_edge7_Node000001_Node000007"><a xlink:title=" ">
<path fill="none" stroke="#63b8ff" d="M1233.73,-358.22C1188.09,-368.26 1123.16,-382.54 1080.57,-391.91"/>
<polygon fill="#63b8ff" stroke="#63b8ff" points="1234.72,-361.58 1243.74,-356.02 1233.22,-354.75 1234.72,-361.58"/>
</a>
</g>
</g>
<!-- Node18 -->
<g id="Node000018" class="node">
<title>Node18</title>
<g id="a_Node000018"><a xlink:href="classGame_1_1UI_1_1LeaderboardWindow.html#add244b5633e10a828542b586844e9ef2" target="_top" xlink:title="Show if the request failed in the modal.">
<polygon fill="white" stroke="#666666" points="1159.5,-356 912.5,-356 912.5,-337 1159.5,-337 1159.5,-356"/>
<text text-anchor="middle" x="1036" y="-344" font-family="Helvetica,sans-Serif" font-size="10.00">Game.UI.LeaderboardWindow.ShowRequestFail</text>
</a>
</g>
</g>
<!-- Node1&#45;&gt;Node18 -->
<g id="edge19_Node000001_Node000018" class="edge">
<title>Node1&#45;&gt;Node18</title>
<g id="a_edge19_Node000001_Node000018"><a xlink:title=" ">
<path fill="none" stroke="#63b8ff" d="M1204.37,-346.5C1189.98,-346.5 1174.74,-346.5 1159.55,-346.5"/>
<polygon fill="#63b8ff" stroke="#63b8ff" points="1204.69,-350 1214.69,-346.5 1204.69,-343 1204.69,-350"/>
</a>
</g>
</g>
<!-- Node22 -->
<g id="Node000022" class="node">
<title>Node22</title>
<g id="a_Node000022"><a xlink:href="classGame_1_1UI_1_1ShopWindow.html#ab11a75acddb1467e29d7624a4d12b8b9" target="_top" xlink:title="Show if the request failed on the modal window.">
<polygon fill="white" stroke="#666666" points="1141,-318 931,-318 931,-299 1141,-299 1141,-318"/>
<text text-anchor="middle" x="1036" y="-306" font-family="Helvetica,sans-Serif" font-size="10.00">Game.UI.ShopWindow.ShowRequestFail</text>
</a>
</g>
</g>
<!-- Node1&#45;&gt;Node22 -->
<g id="edge23_Node000001_Node000022" class="edge">
<title>Node1&#45;&gt;Node22</title>
<g id="a_edge23_Node000001_Node000022"><a xlink:title=" ">
<path fill="none" stroke="#63b8ff" d="M1221.49,-335.31C1207.48,-332.99 1192.76,-330.61 1179,-328.5 1155.62,-324.91 1130.04,-321.23 1107.11,-318.02"/>
<polygon fill="#63b8ff" stroke="#63b8ff" points="1221.11,-338.79 1231.55,-336.98 1222.26,-331.89 1221.11,-338.79"/>
</a>
</g>
</g>
<!-- Node28 -->
<g id="Node000028" class="node">
<title>Node28</title>
<g id="a_Node000028"><a xlink:href="classMainPage_1_1MainWindowController.html#aca9938481cb1ebf9d9b46ca9779e48f4" target="_top" xlink:title="Show the server request fail in the modal window.">
<polygon fill="white" stroke="#666666" points="1167.5,-262 904.5,-262 904.5,-243 1167.5,-243 1167.5,-262"/>
<text text-anchor="middle" x="1036" y="-250" font-family="Helvetica,sans-Serif" font-size="10.00">MainPage.MainWindowController.ShowRequestFail</text>
</a>
</g>
</g>
<!-- Node1&#45;&gt;Node28 -->
<g id="edge30_Node000001_Node000028" class="edge">
<title>Node1&#45;&gt;Node28</title>
<g id="a_edge30_Node000001_Node000028"><a xlink:title=" ">
<path fill="none" stroke="#63b8ff" d="M1262.28,-331.71C1240.84,-319.37 1208.68,-302.01 1179,-290.5 1147.59,-278.32 1110.82,-268.6 1082.57,-262.04"/>
<polygon fill="#63b8ff" stroke="#63b8ff" points="1260.64,-334.81 1271.05,-336.82 1264.17,-328.76 1260.64,-334.81"/>
</a>
</g>
</g>
<!-- Node31 -->
<g id="Node000031" class="node">
<title>Node31</title>
<g id="a_Node000031"><a xlink:href="classMainPage_1_1FriendWindowHandler.html#a426fe4fa5825088784861d79cf48048d" target="_top" xlink:title="Show api request failure.">
<polygon fill="white" stroke="#666666" points="1165.5,-215 906.5,-215 906.5,-196 1165.5,-196 1165.5,-215"/>
<text text-anchor="middle" x="1036" y="-203" font-family="Helvetica,sans-Serif" font-size="10.00">MainPage.FriendWindowHandler.ShowRequestFail</text>
</a>
</g>
</g>
<!-- Node1&#45;&gt;Node31 -->
<g id="edge33_Node000001_Node000031" class="edge">
<title>Node1&#45;&gt;Node31</title>
<g id="a_edge33_Node000001_Node000031"><a xlink:title=" ">
<path fill="none" stroke="#63b8ff" d="M1275.07,-328.52C1257.3,-303.27 1221.38,-257.79 1179,-234.5 1162.68,-225.53 1143.93,-219.33 1125.52,-215.03"/>
<polygon fill="#63b8ff" stroke="#63b8ff" points="1272.23,-330.57 1280.78,-336.83 1278,-326.61 1272.23,-330.57"/>
</a>
</g>
</g>
<!-- Node33 -->
<g id="Node000033" class="node">
<title>Node33</title>
<g id="a_Node000033"><a xlink:href="classMainPage_1_1TaskHistoryWindowHandler.html#a74232871cc96faede9c1b89314bc7ce6" target="_top" xlink:title="Show the server response errors.">
<polygon fill="white" stroke="#666666" points="1179,-178 893,-178 893,-159 1179,-159 1179,-178"/>
<text text-anchor="middle" x="1036" y="-166" font-family="Helvetica,sans-Serif" font-size="10.00">MainPage.TaskHistoryWindowHandler.ShowRequestFail</text>
</a>
</g>
</g>
<!-- Node1&#45;&gt;Node33 -->
<g id="edge35_Node000001_Node000033" class="edge">
<title>Node1&#45;&gt;Node33</title>
<g id="a_edge35_Node000001_Node000033"><a xlink:title=" ">
<path fill="none" stroke="#63b8ff" d="M1280.18,-327.55C1266.73,-293.19 1233.28,-221.05 1179,-187.5 1172.97,-183.77 1166.52,-180.64 1159.83,-178.02"/>
<polygon fill="#63b8ff" stroke="#63b8ff" points="1276.91,-328.8 1283.71,-336.92 1283.46,-326.33 1276.91,-328.8"/>
</a>
</g>
</g>
<!-- Node36 -->
<g id="Node000036" class="node">
<title>Node36</title>
<g id="a_Node000036"><a xlink:href="classMainPage_1_1MainWindowController.html#afea342e3985134e17406ed61958ecc6f" target="_top" xlink:title="Show the task request fail in the modal window.">
<polygon fill="white" stroke="#666666" points="1158.5,-93 913.5,-93 913.5,-74 1158.5,-74 1158.5,-93"/>
<text text-anchor="middle" x="1036" y="-81" font-family="Helvetica,sans-Serif" font-size="10.00">MainPage.MainWindowController.ShowTaskFail</text>
</a>
</g>
</g>
<!-- Node1&#45;&gt;Node36 -->
<g id="edge38_Node000001_Node000036" class="edge">
<title>Node1&#45;&gt;Node36</title>
<g id="a_edge38_Node000001_Node000036"><a xlink:title=" ">
<path fill="none" stroke="#63b8ff" d="M1280.7,-326.58C1267.59,-287.93 1233.9,-202.06 1179,-150.5 1148.2,-121.58 1102.64,-103.12 1071.49,-93.05"/>
<polygon fill="#63b8ff" stroke="#63b8ff" points="1277.54,-328.16 1283.99,-336.56 1284.19,-325.97 1277.54,-328.16"/>
</a>
</g>
</g>
<!-- Node5 -->
<g id="Node000005" class="node">
<title>Node5</title>
<g id="a_Node000005"><a xlink:href="classUser_1_1UserController.html#a7d9a8e16cdb6bc3702ab7987cc141b09" target="_top" xlink:title="Send a login request with the login panel&#39;s fields.">
<polygon fill="white" stroke="#666666" points="793,-541 629,-541 629,-522 793,-522 793,-541"/>
<text text-anchor="middle" x="711" y="-529" font-family="Helvetica,sans-Serif" font-size="10.00">User.UserController.SendLogin</text>
</a>
</g>
</g>
<!-- Node4&#45;&gt;Node5 -->
<g id="edge4_Node000004_Node000005" class="edge">
<title>Node4&#45;&gt;Node5</title>
<g id="a_edge4_Node000004_Node000005"><a xlink:title=" ">
<path fill="none" stroke="#63b8ff" d="M930.99,-441.73C917.55,-445.15 904.49,-450.2 893,-457.5 868.03,-473.37 882.05,-497.75 857,-513.5 838.21,-525.32 815.33,-531.16 793.34,-533.73"/>
<polygon fill="#63b8ff" stroke="#63b8ff" points="931.84,-445.12 940.83,-439.51 930.3,-438.29 931.84,-445.12"/>
</a>
</g>
</g>
<!-- Node6&#45;&gt;Node2 -->
<g id="edge6_Node000006_Node000002" class="edge">
<title>Node6&#45;&gt;Node2</title>
<g id="a_edge6_Node000006_Node000002"><a xlink:title=" ">
<path fill="none" stroke="#63b8ff" d="M924.05,-480.65C913.07,-483.97 902.5,-488.46 893,-494.5 868.03,-510.37 882.05,-534.75 857,-550.5 840.25,-561.03 820.25,-566.82 800.53,-569.77"/>
<polygon fill="#63b8ff" stroke="#63b8ff" points="925.03,-484.01 933.78,-478.04 923.22,-477.25 925.03,-484.01"/>
</a>
</g>
</g>
<!-- Node8 -->
<g id="Node000008" class="node">
<title>Node8</title>
<g id="a_Node000008"><a xlink:href="classGame_1_1UI_1_1GameUI.html#acd930ff070019fc74a3795a8b1452923" target="_top" xlink:title="Buy the immunity power up.">
<polygon fill="white" stroke="#666666" points="796.5,-504 625.5,-504 625.5,-485 796.5,-485 796.5,-504"/>
<text text-anchor="middle" x="711" y="-492" font-family="Helvetica,sans-Serif" font-size="10.00">Game.UI.GameUI.BuyImmunity</text>
</a>
</g>
</g>
<!-- Node7&#45;&gt;Node8 -->
<g id="edge8_Node000007_Node000008" class="edge">
<title>Node7&#45;&gt;Node8</title>
<g id="a_edge8_Node000007_Node000008"><a xlink:title=" ">
<path fill="none" stroke="#63b8ff" d="M931.88,-404.5C918.13,-407.93 904.74,-413.04 893,-420.5 868.03,-436.37 882.05,-460.75 857,-476.5 839.18,-487.71 817.67,-493.54 796.74,-496.31"/>
<polygon fill="#63b8ff" stroke="#63b8ff" points="932.93,-407.86 941.94,-402.29 931.43,-401.02 932.93,-407.86"/>
</a>
</g>
</g>
<!-- Node10 -->
<g id="Node000010" class="node">
<title>Node10</title>
<g id="a_Node000010"><a xlink:href="classGame_1_1UI_1_1GameUI.html#a97a84e72b5ac1d245d1bfd3eb802fdfd" target="_top" xlink:title="Buy the turbo power up.">
<polygon fill="white" stroke="#666666" points="786,-467 636,-467 636,-448 786,-448 786,-467"/>
<text text-anchor="middle" x="711" y="-455" font-family="Helvetica,sans-Serif" font-size="10.00">Game.UI.GameUI.BuyTurbo</text>
</a>
</g>
</g>
<!-- Node7&#45;&gt;Node10 -->
<g id="edge10_Node000007_Node000010" class="edge">
<title>Node7&#45;&gt;Node10</title>
<g id="a_edge10_Node000007_Node000010"><a xlink:title=" ">
<path fill="none" stroke="#63b8ff" d="M931.81,-410.94C918.59,-413.42 905.37,-416.55 893,-420.5 875.77,-426.01 874.26,-434.07 857,-439.5 834.49,-446.57 809.2,-450.88 786.12,-453.5"/>
<polygon fill="#63b8ff" stroke="#63b8ff" points="932.67,-414.34 941.91,-409.17 931.46,-407.45 932.67,-414.34"/>
</a>
</g>
</g>
<!-- Node11 -->
<g id="Node000011" class="node">
<title>Node11</title>
<g id="a_Node000011"><a xlink:href="classGame_1_1UI_1_1GameUI.html#aaed9ba7f6e28b2260d488f01c803e60a" target="_top" xlink:title="Buy the double coins bonus.">
<polygon fill="white" stroke="#666666" points="794.5,-430 627.5,-430 627.5,-411 794.5,-411 794.5,-430"/>
<text text-anchor="middle" x="711" y="-418" font-family="Helvetica,sans-Serif" font-size="10.00">Game.UI.GameUI.DoubleCoins</text>
</a>
</g>
</g>
<!-- Node7&#45;&gt;Node11 -->
<g id="edge12_Node000007_Node000011" class="edge">
<title>Node7&#45;&gt;Node11</title>
<g id="a_edge12_Node000007_Node000011"><a xlink:title=" ">
<path fill="none" stroke="#63b8ff" d="M931.36,-407.6C887.1,-410.2 836.15,-413.2 794.5,-415.65"/>
<polygon fill="#63b8ff" stroke="#63b8ff" points="931.8,-411.08 941.58,-407 931.39,-404.09 931.8,-411.08"/>
</a>
</g>
</g>
<!-- Node12 -->
<g id="Node000012" class="node">
<title>Node12</title>
<g id="a_Node000012"><a xlink:href="classGame_1_1UI_1_1GameUI.html#a4f9c8b23e2a0e5d86c53377ece2c9bac" target="_top" xlink:title="Save the game&#39;s result.">
<polygon fill="white" stroke="#666666" points="805.5,-393 616.5,-393 616.5,-374 805.5,-374 805.5,-393"/>
<text text-anchor="middle" x="711" y="-381" font-family="Helvetica,sans-Serif" font-size="10.00">Game.UI.GameUI.SaveGameResult</text>
</a>
</g>
</g>
<!-- Node7&#45;&gt;Node12 -->
<g id="edge13_Node000007_Node000012" class="edge">
<title>Node7&#45;&gt;Node12</title>
<g id="a_edge13_Node000007_Node000012"><a xlink:title=" ">
<path fill="none" stroke="#63b8ff" d="M931.44,-395.73C891.08,-393.48 845.15,-390.92 805.77,-388.73"/>
<polygon fill="#63b8ff" stroke="#63b8ff" points="931.4,-399.23 941.58,-396.29 931.79,-392.24 931.4,-399.23"/>
</a>
</g>
</g>
<!-- Node9 -->
<g id="Node000009" class="node">
<title>Node9</title>
<g id="a_Node000009"><a xlink:href="classGame_1_1UI_1_1GameUI.html#a77f6894867ecdecc2f7ca4bea695849f" target="_top" xlink:title="Called every frame.">
<polygon fill="white" stroke="#666666" points="481.5,-485 341.5,-485 341.5,-466 481.5,-466 481.5,-485"/>
<text text-anchor="middle" x="411.5" y="-473" font-family="Helvetica,sans-Serif" font-size="10.00">Game.UI.GameUI.Update</text>
</a>
</g>
</g>
<!-- Node8&#45;&gt;Node9 -->
<g id="edge9_Node000008_Node000009" class="edge">
<title>Node8&#45;&gt;Node9</title>
<g id="a_edge9_Node000008_Node000009"><a xlink:title=" ">
<path fill="none" stroke="#63b8ff" d="M614.9,-488.43C571.69,-485.67 521.51,-482.46 481.93,-479.93"/>
<polygon fill="#63b8ff" stroke="#63b8ff" points="614.94,-491.94 625.15,-489.08 615.39,-484.95 614.94,-491.94"/>
</a>
</g>
</g>
<!-- Node10&#45;&gt;Node9 -->
<g id="edge11_Node000010_Node000009" class="edge">
<title>Node10&#45;&gt;Node9</title>
<g id="a_edge11_Node000010_Node000009"><a xlink:title=" ">
<path fill="none" stroke="#63b8ff" d="M625.54,-462.61C579.98,-465.37 524.46,-468.73 481.53,-471.32"/>
<polygon fill="#63b8ff" stroke="#63b8ff" points="625.93,-466.09 635.7,-462 625.5,-459.11 625.93,-466.09"/>
</a>
</g>
</g>
<!-- Node13 -->
<g id="Node000013" class="node">
<title>Node13</title>
<g id="a_Node000013"><a xlink:href="classGame_1_1UI_1_1GameUI.html#a87baf7b6bd70298f817e2c8e5e52a33a" target="_top" xlink:title="Hide the game over screen.">
<polygon fill="white" stroke="#666666" points="518,-411 305,-411 305,-392 518,-392 518,-411"/>
<text text-anchor="middle" x="411.5" y="-399" font-family="Helvetica,sans-Serif" font-size="10.00">Game.UI.GameUI.HideGameOverScreen</text>
</a>
</g>
</g>
<!-- Node12&#45;&gt;Node13 -->
<g id="edge14_Node000012_Node000013" class="edge">
<title>Node12&#45;&gt;Node13</title>
<g id="a_edge14_Node000012_Node000013"><a xlink:title=" ">
<path fill="none" stroke="#63b8ff" d="M605.92,-389.8C577.51,-391.52 546.69,-393.38 518.18,-395.11"/>
<polygon fill="#63b8ff" stroke="#63b8ff" points="606.51,-393.27 616.28,-389.17 606.08,-386.28 606.51,-393.27"/>
</a>
</g>
</g>
<!-- Node14 -->
<g id="Node000014" class="node">
<title>Node14</title>
<g id="a_Node000014"><a xlink:href="classGame_1_1UI_1_1GameUI.html#ae468c173078a10af94f671a2f8db940b" target="_top" xlink:title="Show the main menu.">
<polygon fill="white" stroke="#666666" points="227,-485 31,-485 31,-466 227,-466 227,-485"/>
<text text-anchor="middle" x="129" y="-473" font-family="Helvetica,sans-Serif" font-size="10.00">Game.UI.GameUI.BackToGameMenu</text>
</a>
</g>
</g>
<!-- Node13&#45;&gt;Node14 -->
<g id="edge15_Node000013_Node000014" class="edge">
<title>Node13&#45;&gt;Node14</title>
<g id="a_edge15_Node000013_Node000014"><a xlink:title=" ">
<path fill="none" stroke="#63b8ff" d="M379.78,-414.98C349.4,-427.78 301.32,-446.63 258,-457.5 244.5,-460.89 230.04,-463.69 215.86,-465.99"/>
<polygon fill="#63b8ff" stroke="#63b8ff" points="381.16,-418.2 388.99,-411.06 378.42,-411.76 381.16,-418.2"/>
</a>
</g>
</g>
<!-- Node15 -->
<g id="Node000015" class="node">
<title>Node15</title>
<g id="a_Node000015"><a xlink:href="classGame_1_1UI_1_1GameUI.html#aaec0b0e9165ba1d2dc25f1c562f5478a" target="_top" xlink:title="Show the main menu, but don&#39;t save the scores.">
<polygon fill="white" stroke="#666666" points="258,-448 0,-448 0,-429 258,-429 258,-448"/>
<text text-anchor="middle" x="129" y="-436" font-family="Helvetica,sans-Serif" font-size="10.00">Game.UI.GameUI.BackToGameMenuWithoutSave</text>
</a>
</g>
</g>
<!-- Node13&#45;&gt;Node15 -->
<g id="edge16_Node000013_Node000015" class="edge">
<title>Node13&#45;&gt;Node15</title>
<g id="a_edge16_Node000013_Node000015"><a xlink:title=" ">
<path fill="none" stroke="#63b8ff" d="M328.3,-412.34C288.44,-417.6 240.97,-423.86 202.48,-428.94"/>
<polygon fill="#63b8ff" stroke="#63b8ff" points="328.81,-415.81 338.26,-411.03 327.89,-408.87 328.81,-415.81"/>
</a>
</g>
</g>
<!-- Node16 -->
<g id="Node000016" class="node">
<title>Node16</title>
<g id="a_Node000016"><a xlink:href="classGame_1_1UI_1_1GameUI.html#a4248468e8aaa0b1f7bb24162e9bef6c7" target="_top" xlink:title="Move back to the tasks.">
<polygon fill="white" stroke="#666666" points="212.5,-411 45.5,-411 45.5,-392 212.5,-392 212.5,-411"/>
<text text-anchor="middle" x="129" y="-399" font-family="Helvetica,sans-Serif" font-size="10.00">Game.UI.GameUI.BackToTasks</text>
</a>
</g>
</g>
<!-- Node13&#45;&gt;Node16 -->
<g id="edge17_Node000013_Node000016" class="edge">
<title>Node13&#45;&gt;Node16</title>
<g id="a_edge17_Node000013_Node000016"><a xlink:title=" ">
<path fill="none" stroke="#63b8ff" d="M294.79,-401.5C267.3,-401.5 238.5,-401.5 212.82,-401.5"/>
<polygon fill="#63b8ff" stroke="#63b8ff" points="294.85,-405 304.85,-401.5 294.85,-398 294.85,-405"/>
</a>
</g>
</g>
<!-- Node17 -->
<g id="Node000017" class="node">
<title>Node17</title>
<g id="a_Node000017"><a xlink:href="classGame_1_1UI_1_1GameUI.html#ad581ee67e01ac3bcdec06cf2538f06e4" target="_top" xlink:title="Start a new game.">
<polygon fill="white" stroke="#666666" points="207,-374 51,-374 51,-355 207,-355 207,-374"/>
<text text-anchor="middle" x="129" y="-362" font-family="Helvetica,sans-Serif" font-size="10.00">Game.UI.GameUI.NewGame</text>
</a>
</g>
</g>
<!-- Node13&#45;&gt;Node17 -->
<g id="edge18_Node000013_Node000017" class="edge">
<title>Node13&#45;&gt;Node17</title>
<g id="a_edge18_Node000013_Node000017"><a xlink:title=" ">
<path fill="none" stroke="#63b8ff" d="M328.3,-390.66C288.44,-385.4 240.97,-379.14 202.48,-374.06"/>
<polygon fill="#63b8ff" stroke="#63b8ff" points="327.89,-394.13 338.26,-391.97 328.81,-387.19 327.89,-394.13"/>
</a>
</g>
</g>
<!-- Node19 -->
<g id="Node000019" class="node">
<title>Node19</title>
<g id="a_Node000019"><a xlink:href="classGame_1_1UI_1_1LeaderboardWindow.html#a6d7212efa2c2627d119bac3318ea0d00" target="_top" xlink:title="Load the scores.">
<polygon fill="white" stroke="#666666" points="821,-356 601,-356 601,-337 821,-337 821,-356"/>
<text text-anchor="middle" x="711" y="-344" font-family="Helvetica,sans-Serif" font-size="10.00">Game.UI.LeaderboardWindow.LoadScores</text>
</a>
</g>
</g>
<!-- Node18&#45;&gt;Node19 -->
<g id="edge20_Node000018_Node000019" class="edge">
<title>Node18&#45;&gt;Node19</title>
<g id="a_edge20_Node000018_Node000019"><a xlink:title=" ">
<path fill="none" stroke="#63b8ff" d="M902.17,-346.5C875.25,-346.5 847.24,-346.5 821.25,-346.5"/>
<polygon fill="#63b8ff" stroke="#63b8ff" points="902.43,-350 912.43,-346.5 902.43,-343 902.43,-350"/>
</a>
</g>
</g>
<!-- Node20 -->
<g id="Node000020" class="node">
<title>Node20</title>
<g id="a_Node000020"><a xlink:href="classGame_1_1UI_1_1LeaderboardWindow.html#a8404b4a49a1f74f3b634ec77eb4b1d87" target="_top" xlink:title="Show the window.">
<polygon fill="white" stroke="#666666" points="507,-356 316,-356 316,-337 507,-337 507,-356"/>
<text text-anchor="middle" x="411.5" y="-344" font-family="Helvetica,sans-Serif" font-size="10.00">Game.UI.LeaderboardWindow.Show</text>
</a>
</g>
</g>
<!-- Node19&#45;&gt;Node20 -->
<g id="edge21_Node000019_Node000020" class="edge">
<title>Node19&#45;&gt;Node20</title>
<g id="a_edge21_Node000019_Node000020"><a xlink:title=" ">
<path fill="none" stroke="#63b8ff" d="M590.77,-346.5C563.03,-346.5 533.87,-346.5 507.35,-346.5"/>
<polygon fill="#63b8ff" stroke="#63b8ff" points="590.91,-350 600.91,-346.5 590.91,-343 590.91,-350"/>
</a>
</g>
</g>
<!-- Node21 -->
<g id="Node000021" class="node">
<title>Node21</title>
<g id="a_Node000021"><a xlink:href="classGame_1_1UI_1_1GameUI.html#a4258f849b2e7d8cdb72dd01c26de3a71" target="_top" xlink:title="Show the leaderboard window.">
<polygon fill="white" stroke="#666666" points="225,-337 33,-337 33,-318 225,-318 225,-337"/>
<text text-anchor="middle" x="129" y="-325" font-family="Helvetica,sans-Serif" font-size="10.00">Game.UI.GameUI.ShowLeaderboard</text>
</a>
</g>
</g>
<!-- Node20&#45;&gt;Node21 -->
<g id="edge22_Node000020_Node000021" class="edge">
<title>Node20&#45;&gt;Node21</title>
<g id="a_edge22_Node000020_Node000021"><a xlink:title=" ">
<path fill="none" stroke="#63b8ff" d="M305.88,-339.41C279.39,-337.62 251.1,-335.7 225.12,-333.94"/>
<polygon fill="#63b8ff" stroke="#63b8ff" points="305.71,-342.91 315.93,-340.09 306.19,-335.93 305.71,-342.91"/>
</a>
</g>
</g>
<!-- Node23 -->
<g id="Node000023" class="node">
<title>Node23</title>
<g id="a_Node000023"><a xlink:href="classGame_1_1UI_1_1ShopItem.html#a08030b9b33414329032136c2db442bef" target="_top" xlink:title="Buy this shop item.">
<polygon fill="white" stroke="#666666" points="194.5,-290 63.5,-290 63.5,-271 194.5,-271 194.5,-290"/>
<text text-anchor="middle" x="129" y="-278" font-family="Helvetica,sans-Serif" font-size="10.00">Game.UI.ShopItem.Buy</text>
</a>
</g>
</g>
<!-- Node22&#45;&gt;Node23 -->
<g id="edge24_Node000022_Node000023" class="edge">
<title>Node22&#45;&gt;Node23</title>
<g id="a_edge24_Node000022_Node000023"><a xlink:title=" ">
<path fill="none" stroke="#63b8ff" d="M920.68,-306.6C775.1,-303.95 515.79,-298.43 294,-289.5 261.23,-288.18 224.81,-286.23 194.63,-284.48"/>
<polygon fill="#63b8ff" stroke="#63b8ff" points="920.9,-310.11 930.97,-306.79 921.03,-303.11 920.9,-310.11"/>
</a>
</g>
</g>
<!-- Node24 -->
<g id="Node000024" class="node">
<title>Node24</title>
<g id="a_Node000024"><a xlink:href="classGame_1_1UI_1_1ShopWindow.html#a9297b39a0fa7a77e8cf3022bc28c0b35" target="_top" xlink:title="Update the shop items.">
<polygon fill="white" stroke="#666666" points="804.5,-280 617.5,-280 617.5,-261 804.5,-261 804.5,-280"/>
<text text-anchor="middle" x="711" y="-268" font-family="Helvetica,sans-Serif" font-size="10.00">Game.UI.ShopWindow.UpdateShop</text>
</a>
</g>
</g>
<!-- Node22&#45;&gt;Node24 -->
<g id="edge25_Node000022_Node000024" class="edge">
<title>Node22&#45;&gt;Node24</title>
<g id="a_edge25_Node000022_Node000024"><a xlink:title=" ">
<path fill="none" stroke="#63b8ff" d="M943.93,-297.79C896.41,-292.2 838.77,-285.41 792.84,-280.01"/>
<polygon fill="#63b8ff" stroke="#63b8ff" points="943.57,-301.27 953.91,-298.96 944.39,-294.32 943.57,-301.27"/>
</a>
</g>
</g>
<!-- Node25 -->
<g id="Node000025" class="node">
<title>Node25</title>
<g id="a_Node000025"><a xlink:href="classGame_1_1UI_1_1ShopItem.html#aba8c6371c3eeaecb2bb7ab1f07311869" target="_top" xlink:title="Callback when it is bought.">
<polygon fill="white" stroke="#666666" points="484.5,-280 338.5,-280 338.5,-261 484.5,-261 484.5,-280"/>
<text text-anchor="middle" x="411.5" y="-268" font-family="Helvetica,sans-Serif" font-size="10.00">Game.UI.ShopItem.Bought</text>
</a>
</g>
</g>
<!-- Node24&#45;&gt;Node25 -->
<g id="edge26_Node000024_Node000025" class="edge">
<title>Node24&#45;&gt;Node25</title>
<g id="a_edge26_Node000024_Node000025"><a xlink:title=" ">
<path fill="none" stroke="#63b8ff" d="M607.34,-270.5C566.92,-270.5 521.46,-270.5 484.63,-270.5"/>
<polygon fill="#63b8ff" stroke="#63b8ff" points="607.5,-274 617.5,-270.5 607.5,-267 607.5,-274"/>
</a>
</g>
</g>
<!-- Node26 -->
<g id="Node000026" class="node">
<title>Node26</title>
<g id="a_Node000026"><a xlink:href="classGame_1_1UI_1_1ShopWindow.html#ad9204f9c12eb8520523232c340f477b0" target="_top" xlink:title="Show the shop window.">
<polygon fill="white" stroke="#666666" points="488.5,-243 334.5,-243 334.5,-224 488.5,-224 488.5,-243"/>
<text text-anchor="middle" x="411.5" y="-231" font-family="Helvetica,sans-Serif" font-size="10.00">Game.UI.ShopWindow.Show</text>
</a>
</g>
</g>
<!-- Node24&#45;&gt;Node26 -->
<g id="edge28_Node000024_Node000026" class="edge">
<title>Node24&#45;&gt;Node26</title>
<g id="a_edge28_Node000024_Node000026"><a xlink:title=" ">
<path fill="none" stroke="#63b8ff" d="M623.31,-259.74C604.11,-257.36 583.86,-254.85 565,-252.5 540.11,-249.4 512.94,-246.02 488.52,-242.98"/>
<polygon fill="#63b8ff" stroke="#63b8ff" points="622.89,-263.22 633.24,-260.98 623.75,-256.27 622.89,-263.22"/>
</a>
</g>
</g>
<!-- Node25&#45;&gt;Node23 -->
<g id="edge27_Node000025_Node000023" class="edge">
<title>Node25&#45;&gt;Node23</title>
<g id="a_edge27_Node000025_Node000023"><a xlink:title=" ">
<path fill="none" stroke="#63b8ff" d="M328.21,-273.43C285.67,-274.95 234.5,-276.77 194.81,-278.19"/>
<polygon fill="#63b8ff" stroke="#63b8ff" points="328.4,-276.93 338.26,-273.08 328.15,-269.93 328.4,-276.93"/>
</a>
</g>
</g>
<!-- Node27 -->
<g id="Node000027" class="node">
<title>Node27</title>
<g id="a_Node000027"><a xlink:href="classGame_1_1UI_1_1GameUI.html#a443a0569c632ba816be0bd1511b62bca" target="_top" xlink:title="Display the shop window.">
<polygon fill="white" stroke="#666666" points="226,-243 32,-243 32,-224 226,-224 226,-243"/>
<text text-anchor="middle" x="129" y="-231" font-family="Helvetica,sans-Serif" font-size="10.00">Game.UI.GameUI.ShowShopWindow</text>
</a>
</g>
</g>
<!-- Node26&#45;&gt;Node27 -->
<g id="edge29_Node000026_Node000027" class="edge">
<title>Node26&#45;&gt;Node27</title>
<g id="a_edge29_Node000026_Node000027"><a xlink:title=" ">
<path fill="none" stroke="#63b8ff" d="M323.89,-233.5C292.91,-233.5 257.82,-233.5 226.09,-233.5"/>
<polygon fill="#63b8ff" stroke="#63b8ff" points="324.22,-237 334.22,-233.5 324.22,-230 324.22,-237"/>
</a>
</g>
</g>
<!-- Node29 -->
<g id="Node000029" class="node">
<title>Node29</title>
<g id="a_Node000029"><a xlink:href="classMainPage_1_1MainWindowController.html#a47c21c97b7ba52af405119044e1434d0" target="_top" xlink:title="Load the tasks from the server.">
<polygon fill="white" stroke="#666666" points="826,-243 596,-243 596,-224 826,-224 826,-243"/>
<text text-anchor="middle" x="711" y="-231" font-family="Helvetica,sans-Serif" font-size="10.00">MainPage.MainWindowController.LoadTasks</text>
</a>
</g>
</g>
<!-- Node28&#45;&gt;Node29 -->
<g id="edge31_Node000028_Node000029" class="edge">
<title>Node28&#45;&gt;Node29</title>
<g id="a_edge31_Node000028_Node000029"><a xlink:title=" ">
<path fill="none" stroke="#63b8ff" d="M894.07,-244.21C871.39,-242.88 848.17,-241.51 826.23,-240.22"/>
<polygon fill="#63b8ff" stroke="#63b8ff" points="893.9,-247.71 904.09,-244.8 894.31,-240.72 893.9,-247.71"/>
</a>
</g>
</g>
<!-- Node30 -->
<g id="Node000030" class="node">
<title>Node30</title>
<g id="a_Node000030"><a xlink:href="classMainPage_1_1MainWindowController.html#acea2170099ea435298139c6c7fdce719" target="_top" xlink:title="Start is called before the first frame update.">
<polygon fill="white" stroke="#666666" points="513,-206 310,-206 310,-187 513,-187 513,-206"/>
<text text-anchor="middle" x="411.5" y="-194" font-family="Helvetica,sans-Serif" font-size="10.00">MainPage.MainWindowController.Start</text>
</a>
</g>
</g>
<!-- Node29&#45;&gt;Node30 -->
<g id="edge32_Node000029_Node000030" class="edge">
<title>Node29&#45;&gt;Node30</title>
<g id="a_edge32_Node000029_Node000030"><a xlink:title=" ">
<path fill="none" stroke="#63b8ff" d="M623.31,-222.74C604.11,-220.36 583.86,-217.85 565,-215.5 540.24,-212.42 513.23,-209.06 488.91,-206.03"/>
<polygon fill="#63b8ff" stroke="#63b8ff" points="622.89,-226.22 633.24,-223.98 623.75,-219.27 622.89,-226.22"/>
</a>
</g>
</g>
<!-- Node32 -->
<g id="Node000032" class="node">
<title>Node32</title>
<g id="a_Node000032"><a xlink:href="classMainPage_1_1FriendWindowHandler.html#ad0c4b894708ceb9acc635e9a87b306ae" target="_top" xlink:title="Sends a friend request to the user which was specified in the useridentification input.">
<polygon fill="white" stroke="#666666" points="846,-206 576,-206 576,-187 846,-187 846,-206"/>
<text text-anchor="middle" x="711" y="-194" font-family="Helvetica,sans-Serif" font-size="10.00">MainPage.FriendWindowHandler.SendFriendRequest</text>
</a>
</g>
</g>
<!-- Node31&#45;&gt;Node32 -->
<g id="edge34_Node000031_Node000032" class="edge">
<title>Node31&#45;&gt;Node32</title>
<g id="a_edge34_Node000031_Node000032"><a xlink:title=" ">
<path fill="none" stroke="#63b8ff" d="M896.15,-201.63C879.6,-201.17 862.72,-200.7 846.23,-200.24"/>
<polygon fill="#63b8ff" stroke="#63b8ff" points="896.32,-205.14 906.41,-201.92 896.52,-198.14 896.32,-205.14"/>
</a>
</g>
</g>
<!-- Node34 -->
<g id="Node000034" class="node">
<title>Node34</title>
<g id="a_Node000034"><a xlink:href="classMainPage_1_1TaskHistoryWindowHandler.html#ada3a664597d8e1b1b9a261c3c34badba" target="_top" xlink:title="Loads the task histories from the server.">
<polygon fill="white" stroke="#666666" points="857,-169 565,-169 565,-150 857,-150 857,-169"/>
<text text-anchor="middle" x="711" y="-157" font-family="Helvetica,sans-Serif" font-size="10.00">MainPage.TaskHistoryWindowHandler.LoadTaskHistories</text>
</a>
</g>
</g>
<!-- Node33&#45;&gt;Node34 -->
<g id="edge36_Node000033_Node000034" class="edge">
<title>Node33&#45;&gt;Node34</title>
<g id="a_edge36_Node000033_Node000034"><a xlink:title=" ">
<path fill="none" stroke="#63b8ff" d="M882.83,-164.26C874.28,-164.02 865.68,-163.78 857.15,-163.54"/>
<polygon fill="#63b8ff" stroke="#63b8ff" points="882.76,-167.76 892.86,-164.54 882.96,-160.76 882.76,-167.76"/>
</a>
</g>
</g>
<!-- Node35 -->
<g id="Node000035" class="node">
<title>Node35</title>
<g id="a_Node000035"><a xlink:href="classMainPage_1_1TaskHistoryWindowHandler.html#aa726ff0b77b9245e98854bbd827ae9dd" target="_top" xlink:title="Shows the task history window.">
<polygon fill="white" stroke="#666666" points="526.5,-169 296.5,-169 296.5,-150 526.5,-150 526.5,-169"/>
<text text-anchor="middle" x="411.5" y="-157" font-family="Helvetica,sans-Serif" font-size="10.00">MainPage.TaskHistoryWindowHandler.Show</text>
</a>
</g>
</g>
<!-- Node34&#45;&gt;Node35 -->
<g id="edge37_Node000034_Node000035" class="edge">
<title>Node34&#45;&gt;Node35</title>
<g id="a_edge37_Node000034_Node000035"><a xlink:title=" ">
<path fill="none" stroke="#63b8ff" d="M554.51,-159.5C545.09,-159.5 535.71,-159.5 526.52,-159.5"/>
<polygon fill="#63b8ff" stroke="#63b8ff" points="554.74,-163 564.74,-159.5 554.74,-156 554.74,-163"/>
</a>
</g>
</g>
<!-- Node37 -->
<g id="Node000037" class="node">
<title>Node37</title>
<g id="a_Node000037"><a xlink:href="classMainPage_1_1TaskDisplayHandler.html#ab553f8eb77d9d038521af3813275a43d" target="_top" xlink:title="Complete the task and send this to the server.">
<polygon fill="white" stroke="#666666" points="529,-75 294,-75 294,-56 529,-56 529,-75"/>
<text text-anchor="middle" x="411.5" y="-63" font-family="Helvetica,sans-Serif" font-size="10.00">MainPage.TaskDisplayHandler.CompleteTask</text>
</a>
</g>
</g>
<!-- Node36&#45;&gt;Node37 -->
<g id="edge39_Node000036_Node000037" class="edge">
<title>Node36&#45;&gt;Node37</title>
<g id="a_edge39_Node000036_Node000037"><a xlink:title=" ">
<path fill="none" stroke="#63b8ff" d="M957.08,-94.2C863.6,-105.3 702.3,-118.92 565,-102.5 521.72,-97.32 472.97,-84.17 442.49,-75.02"/>
<polygon fill="#63b8ff" stroke="#63b8ff" points="957.51,-97.68 967.02,-93 956.67,-90.73 957.51,-97.68"/>
</a>
</g>
</g>
<!-- Node38 -->
<g id="Node000038" class="node">
<title>Node38</title>
<g id="a_Node000038"><a xlink:href="classMainPage_1_1TaskOpenPanelController.html#a3107b94793886f6af28ac9415fb44370" target="_top" xlink:title="Send a delete task request to the server.">
<polygon fill="white" stroke="#666666" points="833.5,-93 588.5,-93 588.5,-74 833.5,-74 833.5,-93"/>
<text text-anchor="middle" x="711" y="-81" font-family="Helvetica,sans-Serif" font-size="10.00">MainPage.TaskOpenPanelController.DeleteTask</text>
</a>
</g>
</g>
<!-- Node36&#45;&gt;Node38 -->
<g id="edge40_Node000036_Node000038" class="edge">
<title>Node36&#45;&gt;Node38</title>
<g id="a_edge40_Node000036_Node000038"><a xlink:title=" ">
<path fill="none" stroke="#63b8ff" d="M903.18,-83.5C880.15,-83.5 856.28,-83.5 833.54,-83.5"/>
<polygon fill="#63b8ff" stroke="#63b8ff" points="903.35,-87 913.35,-83.5 903.35,-80 903.35,-87"/>
</a>
</g>
</g>
<!-- Node39 -->
<g id="Node000039" class="node">
<title>Node39</title>
<g id="a_Node000039"><a xlink:href="classMainPage_1_1TaskOpenPanelController.html#ab8def75cd4cdbdaf3033022ea114a8a6" target="_top" xlink:title="Save the task to the server.">
<polygon fill="white" stroke="#666666" points="818.5,-56 603.5,-56 603.5,-37 818.5,-37 818.5,-56"/>
<text text-anchor="middle" x="711" y="-44" font-family="Helvetica,sans-Serif" font-size="10.00">MainPage.TaskOpenPanelController.Save</text>
</a>
</g>
</g>
<!-- Node36&#45;&gt;Node39 -->
<g id="edge41_Node000036_Node000039" class="edge">
<title>Node36&#45;&gt;Node39</title>
<g id="a_edge41_Node000036_Node000039"><a xlink:title=" ">
<path fill="none" stroke="#63b8ff" d="M941.78,-72.82C895.49,-67.52 840.02,-61.16 795.18,-56.03"/>
<polygon fill="#63b8ff" stroke="#63b8ff" points="941.49,-76.31 951.82,-73.97 942.28,-69.36 941.49,-76.31"/>
</a>
</g>
</g>
<!-- Node40 -->
<g id="Node000040" class="node">
<title>Node40</title>
<g id="a_Node000040"><a xlink:href="classMainPage_1_1TaskDisplayHandler.html#a98b63052d0efc73233a32b69a06bf68e" target="_top" xlink:title="When the complete acknowledge were recieved from the server update the display.">
<polygon fill="white" stroke="#666666" points="831.5,-19 590.5,-19 590.5,0 831.5,0 831.5,-19"/>
<text text-anchor="middle" x="711" y="-7" font-family="Helvetica,sans-Serif" font-size="10.00">MainPage.TaskDisplayHandler.TaskCompleted</text>
</a>
</g>
</g>
<!-- Node36&#45;&gt;Node40 -->
<g id="edge42_Node000036_Node000040" class="edge">
<title>Node36&#45;&gt;Node40</title>
<g id="a_edge42_Node000036_Node000040"><a xlink:title=" ">
<path fill="none" stroke="#63b8ff" d="M1000.33,-70.53C964.82,-57.74 907.78,-38.54 857,-27.5 841.51,-24.13 824.94,-21.33 808.74,-19.03"/>
<polygon fill="#63b8ff" stroke="#63b8ff" points="999.15,-73.83 1009.75,-73.95 1001.55,-67.25 999.15,-73.83"/>
</a>
</g>
</g>
<!-- Node40&#45;&gt;Node37 -->
<g id="edge43_Node000040_Node000037" class="edge">
<title>Node40&#45;&gt;Node37</title>
<g id="a_edge43_Node000040_Node000037"><a xlink:title=" ">
<path fill="none" stroke="#63b8ff" d="M609.35,-20.4C594.44,-22.47 579.29,-24.84 565,-27.5 523.55,-35.21 476.59,-47.45 445.86,-55.95"/>
<polygon fill="#63b8ff" stroke="#63b8ff" points="610.19,-23.82 619.63,-19.01 609.25,-16.88 610.19,-23.82"/>
</a>
</g>
</g>
</g>
</svg>

<g id="navigator" transform="translate(0 0)" fill="#404254">
  <rect fill="#f2f5e9" fill-opacity="0.5" stroke="#606060" stroke-width=".5" x="0" y="0" width="60" height="60"/>
  <use id="zoomplus" xlink:href="#zoomPlus" x="17" y="9" onmousedown="handleZoom(evt,'in')"/>
  <use id="zoomminus" xlink:href="#zoomMin" x="42" y="9" onmousedown="handleZoom(evt,'out')"/>
  <use id="reset" xlink:href="#resetDef" x="30" y="36" onmousedown="handleReset()"/>
   <use id="arrowup" xlink:href="#arrowUp" x="0" y="0" onmousedown="handlePan(0,-1)"/>
  <use id="arrowright" xlink:href="#arrowRight" x="0" y="0" onmousedown="handlePan(1,0)"/>
  <use id="arrowdown" xlink:href="#arrowDown" x="0" y="0" onmousedown="handlePan(0,1)"/>
  <use id="arrowleft" xlink:href="#arrowLeft" x="0" y="0" onmousedown="handlePan(-1,0)"/>
</g>
<svg viewBox="0 0 15 15" width="100%" height="30px" preserveAspectRatio="xMaxYMin meet">
 <g id="arrow_out" transform="scale(0.3 0.3)">
  <a xlink:href="classUtility_1_1ModalWindow_adcef8cae2dffe4247c905d042ff0a8e3_icgraph_org.svg" target="_base">
   <rect id="button" ry="5" rx="5" y="6" x="6" height="38" width="38"
        fill="#f2f5e9" fill-opacity="0.5" stroke="#606060" stroke-width="1.0"/>
   <path id="arrow"
     d="M 11.500037,31.436501 C 11.940474,20.09759 22.043105,11.32322 32.158766,21.979434 L 37.068811,17.246167 C 37.068811,17.246167 37.088388,32 37.088388,32 L 22.160133,31.978069 C 22.160133,31.978069 26.997745,27.140456 26.997745,27.140456 C 18.528582,18.264221 13.291696,25.230495 11.500037,31.436501 z"
     style="fill:#404040;"/>
  </a>
 </g>
</svg>

<style type='text/css'>
<![CDATA[
[data-mouse-over-selected='false'] { opacity: 0.7; }
[data-mouse-over-selected='true']  { opacity: 1.0; }
]]>
</style>
<script type="application/ecmascript"><![CDATA[
document.addEventListener('DOMContentLoaded', (event) => {
  highlightEdges();
  highlightAdjacentNodes();
});
]]></script>
</svg>
