<?xml version="1.0" encoding="UTF-8" standalone="no"?>
<!DOCTYPE svg PUBLIC "-//W3C//DTD SVG 1.1//EN"
 "http://www.w3.org/Graphics/SVG/1.1/DTD/svg11.dtd">
<!-- Generated by graphviz version 2.43.0 (0)
 -->
<!-- Title: MainPage.TaskOpenPanelController.MakeItGoodTask Pages: 1 -->
<svg width="3092pt" height="244pt"
 viewBox="0.00 0.00 3092.00 243.50" xmlns="http://www.w3.org/2000/svg" xmlns:xlink="http://www.w3.org/1999/xlink">
<g id="graph0" class="graph" transform="scale(1 1) rotate(0) translate(4 239.5)">
<title>MainPage.TaskOpenPanelController.MakeItGoodTask</title>
<!-- Node1 -->
<g id="Node000001" class="node">
<title>Node1</title>
<g id="a_Node000001"><a xlink:title="Make it a good task.">
<polygon fill="#999999" stroke="#666666" points="3084,-197.5 2813,-197.5 2813,-178.5 3084,-178.5 3084,-197.5"/>
<text text-anchor="middle" x="2948.5" y="-185.5" font-family="Helvetica,sans-Serif" font-size="10.00">MainPage.TaskOpenPanelController.MakeItGoodTask</text>
</a>
</g>
</g>
<!-- Node2 -->
<g id="Node000002" class="node">
<title>Node2</title>
<g id="a_Node000002"><a xlink:href="classMainPage_1_1MainWindowController.html#ab5b80370512cd4273e86927fe696462d" target="_top" xlink:title="Load the good tasks.">
<polygon fill="white" stroke="#666666" points="2777,-197.5 2521,-197.5 2521,-178.5 2777,-178.5 2777,-197.5"/>
<text text-anchor="middle" x="2649" y="-185.5" font-family="Helvetica,sans-Serif" font-size="10.00">MainPage.MainWindowController.LoadGoodTasks</text>
</a>
</g>
</g>
<!-- Node1&#45;&gt;Node2 -->
<g id="edge1_Node000001_Node000002" class="edge">
<title>Node1&#45;&gt;Node2</title>
<g id="a_edge1_Node000001_Node000002"><a xlink:title=" ">
<path fill="none" stroke="#63b8ff" d="M2802.67,-181.25C2794.13,-181.24 2785.57,-181.26 2777.11,-181.31"/>
<polygon fill="#63b8ff" stroke="#63b8ff" points="2802.67,-184.75 2812.68,-181.28 2802.69,-177.75 2802.67,-184.75"/>
</a>
</g>
</g>
<!-- Node2&#45;&gt;Node1 -->
<g id="edge8_Node000002_Node000001" class="edge">
<title>Node2&#45;&gt;Node1</title>
<g id="a_edge8_Node000002_Node000001"><a xlink:title=" ">
<path fill="none" stroke="#63b8ff" d="M2787.36,-194.73C2795.79,-194.76 2804.26,-194.76 2812.68,-194.72"/>
<polygon fill="#63b8ff" stroke="#63b8ff" points="2787.13,-191.23 2777.11,-194.69 2787.09,-198.23 2787.13,-191.23"/>
</a>
</g>
</g>
<!-- Node3 -->
<g id="Node000003" class="node">
<title>Node3</title>
<g id="a_Node000003"><a xlink:href="classMainPage_1_1TaskOpenPanelController.html#af1b5c03c4cfe46084a34093435f79fee" target="_top" xlink:title="Cancel this edit/task creation.">
<polygon fill="white" stroke="#666666" points="2468.5,-235.5 2244.5,-235.5 2244.5,-216.5 2468.5,-216.5 2468.5,-235.5"/>
<text text-anchor="middle" x="2356.5" y="-223.5" font-family="Helvetica,sans-Serif" font-size="10.00">MainPage.TaskOpenPanelController.Cancel</text>
</a>
</g>
</g>
<!-- Node2&#45;&gt;Node3 -->
<g id="edge2_Node000002_Node000003" class="edge">
<title>Node2&#45;&gt;Node3</title>
<g id="a_edge2_Node000002_Node000003"><a xlink:title=" ">
<path fill="none" stroke="#63b8ff" d="M2565.02,-198.85C2522.49,-204.42 2471.17,-211.13 2430.21,-216.49"/>
<polygon fill="#63b8ff" stroke="#63b8ff" points="2565.61,-202.31 2575.07,-197.54 2564.7,-195.37 2565.61,-202.31"/>
</a>
</g>
</g>
<!-- Node6 -->
<g id="Node000006" class="node">
<title>Node6</title>
<g id="a_Node000006"><a xlink:href="classMainPage_1_1MainWindowController.html#ab40b51689d2d8ca0497b0e53128f4992" target="_top" xlink:title="Create the task prefabs.">
<polygon fill="white" stroke="#666666" points="776,-121.5 505,-121.5 505,-102.5 776,-102.5 776,-121.5"/>
<text text-anchor="middle" x="640.5" y="-109.5" font-family="Helvetica,sans-Serif" font-size="10.00">MainPage.MainWindowController.CreateTaskPrefabs</text>
</a>
</g>
</g>
<!-- Node2&#45;&gt;Node6 -->
<g id="edge5_Node000002_Node000006" class="edge">
<title>Node2&#45;&gt;Node6</title>
<g id="a_edge5_Node000002_Node000006"><a xlink:title=" ">
<path fill="none" stroke="#63b8ff" d="M2510.52,-188C2390.43,-188 2211.42,-188 2055.5,-188 2055.5,-188 2055.5,-188 1188,-188 997.14,-188 772.32,-141.96 682.02,-121.55"/>
<polygon fill="#63b8ff" stroke="#63b8ff" points="2510.86,-191.5 2520.86,-188 2510.86,-184.5 2510.86,-191.5"/>
</a>
</g>
</g>
<!-- Node9 -->
<g id="Node000009" class="node">
<title>Node9</title>
<g id="a_Node000009"><a xlink:href="classMainPage_1_1MainWindowController.html#a85072f5d92f4145d6213209a13936639" target="_top" xlink:title="Refreshes the tasks with the proper sorting order.">
<polygon fill="white" stroke="#666666" points="2485,-103.5 2228,-103.5 2228,-84.5 2485,-84.5 2485,-103.5"/>
<text text-anchor="middle" x="2356.5" y="-91.5" font-family="Helvetica,sans-Serif" font-size="10.00">MainPage.MainWindowController.SortingChanged</text>
</a>
</g>
</g>
<!-- Node2&#45;&gt;Node9 -->
<g id="edge9_Node000002_Node000009" class="edge">
<title>Node2&#45;&gt;Node9</title>
<g id="a_edge9_Node000002_Node000009"><a xlink:title=" ">
<path fill="none" stroke="#63b8ff" d="M2608.85,-175.33C2549.92,-156.26 2439.72,-120.61 2387.03,-103.56"/>
<polygon fill="#63b8ff" stroke="#63b8ff" points="2607.95,-178.72 2618.55,-178.47 2610.11,-172.06 2607.95,-178.72"/>
</a>
</g>
</g>
<!-- Node4 -->
<g id="Node000004" class="node">
<title>Node4</title>
<g id="a_Node000004"><a xlink:href="classMainPage_1_1TaskOpenPanelController.html#a254ff7d6e427208a7f9ae3bec5ae7ba7" target="_top" xlink:title="After the task were deleted from the server delete it also from the client.">
<polygon fill="white" stroke="#666666" points="2180,-235.5 1929,-235.5 1929,-216.5 2180,-216.5 2180,-235.5"/>
<text text-anchor="middle" x="2054.5" y="-223.5" font-family="Helvetica,sans-Serif" font-size="10.00">MainPage.TaskOpenPanelController.DeletedTask</text>
</a>
</g>
</g>
<!-- Node3&#45;&gt;Node4 -->
<g id="edge3_Node000003_Node000004" class="edge">
<title>Node3&#45;&gt;Node4</title>
<g id="a_edge3_Node000003_Node000004"><a xlink:title=" ">
<path fill="none" stroke="#63b8ff" d="M2233.88,-226C2216.2,-226 2197.98,-226 2180.24,-226"/>
<polygon fill="#63b8ff" stroke="#63b8ff" points="2234.22,-229.5 2244.22,-226 2234.22,-222.5 2234.22,-229.5"/>
</a>
</g>
</g>
<!-- Node5 -->
<g id="Node000005" class="node">
<title>Node5</title>
<g id="a_Node000005"><a xlink:href="classMainPage_1_1TaskOpenPanelController.html#a3107b94793886f6af28ac9415fb44370" target="_top" xlink:title="Send a delete task request to the server.">
<polygon fill="white" stroke="#666666" points="1864.5,-235.5 1619.5,-235.5 1619.5,-216.5 1864.5,-216.5 1864.5,-235.5"/>
<text text-anchor="middle" x="1742" y="-223.5" font-family="Helvetica,sans-Serif" font-size="10.00">MainPage.TaskOpenPanelController.DeleteTask</text>
</a>
</g>
</g>
<!-- Node4&#45;&gt;Node5 -->
<g id="edge4_Node000004_Node000005" class="edge">
<title>Node4&#45;&gt;Node5</title>
<g id="a_edge4_Node000004_Node000005"><a xlink:title=" ">
<path fill="none" stroke="#63b8ff" d="M1918.77,-226C1900.81,-226 1882.47,-226 1864.75,-226"/>
<polygon fill="#63b8ff" stroke="#63b8ff" points="1919,-229.5 1929,-226 1919,-222.5 1919,-229.5"/>
</a>
</g>
</g>
<!-- Node7 -->
<g id="Node000007" class="node">
<title>Node7</title>
<g id="a_Node000007"><a xlink:href="classMainPage_1_1MainWindowController.html#a47c21c97b7ba52af405119044e1434d0" target="_top" xlink:title="Load the tasks from the server.">
<polygon fill="white" stroke="#666666" points="469,-121.5 239,-121.5 239,-102.5 469,-102.5 469,-121.5"/>
<text text-anchor="middle" x="354" y="-109.5" font-family="Helvetica,sans-Serif" font-size="10.00">MainPage.MainWindowController.LoadTasks</text>
</a>
</g>
</g>
<!-- Node6&#45;&gt;Node7 -->
<g id="edge6_Node000006_Node000007" class="edge">
<title>Node6&#45;&gt;Node7</title>
<g id="a_edge6_Node000006_Node000007"><a xlink:title=" ">
<path fill="none" stroke="#63b8ff" d="M494.68,-112C486.1,-112 477.54,-112 469.11,-112"/>
<polygon fill="#63b8ff" stroke="#63b8ff" points="494.75,-115.5 504.75,-112 494.75,-108.5 494.75,-115.5"/>
</a>
</g>
</g>
<!-- Node8 -->
<g id="Node000008" class="node">
<title>Node8</title>
<g id="a_Node000008"><a xlink:href="classMainPage_1_1MainWindowController.html#acea2170099ea435298139c6c7fdce719" target="_top" xlink:title="Start is called before the first frame update.">
<polygon fill="white" stroke="#666666" points="203,-121.5 0,-121.5 0,-102.5 203,-102.5 203,-121.5"/>
<text text-anchor="middle" x="101.5" y="-109.5" font-family="Helvetica,sans-Serif" font-size="10.00">MainPage.MainWindowController.Start</text>
</a>
</g>
</g>
<!-- Node7&#45;&gt;Node8 -->
<g id="edge7_Node000007_Node000008" class="edge">
<title>Node7&#45;&gt;Node8</title>
<g id="a_edge7_Node000007_Node000008"><a xlink:title=" ">
<path fill="none" stroke="#63b8ff" d="M228.71,-112C220.15,-112 211.58,-112 203.16,-112"/>
<polygon fill="#63b8ff" stroke="#63b8ff" points="228.75,-115.5 238.75,-112 228.75,-108.5 228.75,-115.5"/>
</a>
</g>
</g>
<!-- Node10 -->
<g id="Node000010" class="node">
<title>Node10</title>
<g id="a_Node000010"><a xlink:href="classMainPage_1_1TaskDisplayHandler.html#a754a230e53cedd3209a29d4d6a743719" target="_top" xlink:title="When the complete state is changed update the display to match it.">
<polygon fill="white" stroke="#666666" points="2192,-103.5 1917,-103.5 1917,-84.5 2192,-84.5 2192,-103.5"/>
<text text-anchor="middle" x="2054.5" y="-91.5" font-family="Helvetica,sans-Serif" font-size="10.00">MainPage.TaskDisplayHandler.CompleteStateChange</text>
</a>
</g>
</g>
<!-- Node9&#45;&gt;Node10 -->
<g id="edge10_Node000009_Node000010" class="edge">
<title>Node9&#45;&gt;Node10</title>
<g id="a_edge10_Node000009_Node000010"><a xlink:title=" ">
<path fill="none" stroke="#63b8ff" d="M2217.56,-94C2209.11,-94 2200.61,-94 2192.17,-94"/>
<polygon fill="#63b8ff" stroke="#63b8ff" points="2217.84,-97.5 2227.84,-94 2217.84,-90.5 2217.84,-97.5"/>
</a>
</g>
</g>
<!-- Node13 -->
<g id="Node000013" class="node">
<title>Node13</title>
<g id="a_Node000013"><a xlink:href="classMainPage_1_1TaskOpenPanelController.html#a750d1acc6fd173296467fb9aca366a3d" target="_top" xlink:title="When the task was stored on the server show it also visually and close the panel.">
<polygon fill="white" stroke="#666666" points="761.5,-84.5 519.5,-84.5 519.5,-65.5 761.5,-65.5 761.5,-84.5"/>
<text text-anchor="middle" x="640.5" y="-72.5" font-family="Helvetica,sans-Serif" font-size="10.00">MainPage.TaskOpenPanelController.SavedTask</text>
</a>
</g>
</g>
<!-- Node9&#45;&gt;Node13 -->
<g id="edge23_Node000009_Node000013" class="edge">
<title>Node9&#45;&gt;Node13</title>
<g id="a_edge23_Node000009_Node000013"><a xlink:title=" ">
<path fill="none" stroke="#63b8ff" d="M2309.27,-81.97C2207.63,-56.62 1956.74,0 1743,0 1743,0 1743,0 1188,0 997.66,0 773.47,-45.21 682.71,-65.43"/>
<polygon fill="#63b8ff" stroke="#63b8ff" points="2308.66,-85.43 2319.21,-84.47 2310.36,-78.64 2308.66,-85.43"/>
</a>
</g>
</g>
<!-- Node11 -->
<g id="Node000011" class="node">
<title>Node11</title>
<g id="a_Node000011"><a xlink:href="classMainPage_1_1TaskDisplayHandler.html#a8aedc4afb32d220352cf04cc77fdedf6" target="_top" xlink:title="Init it with the task to display and references to the controls.">
<polygon fill="white" stroke="#666666" points="1296,-103.5 1082,-103.5 1082,-84.5 1296,-84.5 1296,-103.5"/>
<text text-anchor="middle" x="1189" y="-91.5" font-family="Helvetica,sans-Serif" font-size="10.00">MainPage.TaskDisplayHandler.InitValues</text>
</a>
</g>
</g>
<!-- Node10&#45;&gt;Node11 -->
<g id="edge11_Node000010_Node000011" class="edge">
<title>Node10&#45;&gt;Node11</title>
<g id="a_edge11_Node000010_Node000011"><a xlink:title=" ">
<path fill="none" stroke="#63b8ff" d="M2009.69,-106.08C1975.07,-114.97 1925.35,-126.3 1881,-131 1638.36,-156.73 1574.02,-162.01 1332,-131 1291.57,-125.82 1246.21,-112.66 1217.87,-103.52"/>
<polygon fill="#63b8ff" stroke="#63b8ff" points="2010.69,-109.44 2019.48,-103.53 2008.92,-102.66 2010.69,-109.44"/>
</a>
</g>
</g>
<!-- Node15 -->
<g id="Node000015" class="node">
<title>Node15</title>
<g id="a_Node000015"><a xlink:href="classMainPage_1_1TaskDisplayHandler.html#a98b63052d0efc73233a32b69a06bf68e" target="_top" xlink:title="When the complete acknowledge were recieved from the server update the display.">
<polygon fill="white" stroke="#666666" points="1862.5,-121.5 1621.5,-121.5 1621.5,-102.5 1862.5,-102.5 1862.5,-121.5"/>
<text text-anchor="middle" x="1742" y="-109.5" font-family="Helvetica,sans-Serif" font-size="10.00">MainPage.TaskDisplayHandler.TaskCompleted</text>
</a>
</g>
</g>
<!-- Node10&#45;&gt;Node15 -->
<g id="edge16_Node000010_Node000015" class="edge">
<title>Node10&#45;&gt;Node15</title>
<g id="a_edge16_Node000010_Node000015"><a xlink:title=" ">
<path fill="none" stroke="#63b8ff" d="M1906.67,-102.51C1891.92,-103.37 1877.07,-104.23 1862.65,-105.06"/>
<polygon fill="#63b8ff" stroke="#63b8ff" points="1907.08,-105.99 1916.86,-101.92 1906.67,-99.01 1907.08,-105.99"/>
</a>
</g>
</g>
<!-- Node17 -->
<g id="Node000017" class="node">
<title>Node17</title>
<g id="a_Node000017"><a xlink:href="classMainPage_1_1TaskDisplayHandler.html#aa63f1bc894519b9d5872c2bb50b84415" target="_top" xlink:title="Update the time remaining until the task can be completed again.">
<polygon fill="white" stroke="#666666" points="1881,-84.5 1603,-84.5 1603,-65.5 1881,-65.5 1881,-84.5"/>
<text text-anchor="middle" x="1742" y="-72.5" font-family="Helvetica,sans-Serif" font-size="10.00">MainPage.TaskDisplayHandler.UpdateTimeRemaining</text>
</a>
</g>
</g>
<!-- Node10&#45;&gt;Node17 -->
<g id="edge18_Node000010_Node000017" class="edge">
<title>Node10&#45;&gt;Node17</title>
<g id="a_edge18_Node000010_Node000017"><a xlink:title=" ">
<path fill="none" stroke="#63b8ff" d="M1979,-83.58C1949.6,-81.07 1914.85,-78.66 1881.19,-76.74"/>
<polygon fill="#63b8ff" stroke="#63b8ff" points="1978.9,-87.08 1989.16,-84.47 1979.51,-80.11 1978.9,-87.08"/>
</a>
</g>
</g>
<!-- Node12 -->
<g id="Node000012" class="node">
<title>Node12</title>
<g id="a_Node000012"><a xlink:href="classMainPage_1_1MainWindowController.html#a827f62c47eb691eadd994bd51bf7cb74" target="_top" xlink:title="Creates a new task prefab to display.">
<polygon fill="white" stroke="#666666" points="1046,-103.5 812,-103.5 812,-84.5 1046,-84.5 1046,-103.5"/>
<text text-anchor="middle" x="929" y="-91.5" font-family="Helvetica,sans-Serif" font-size="10.00">MainPage.MainWindowController.CreateTask</text>
</a>
</g>
</g>
<!-- Node11&#45;&gt;Node12 -->
<g id="edge12_Node000011_Node000012" class="edge">
<title>Node11&#45;&gt;Node12</title>
<g id="a_edge12_Node000011_Node000012"><a xlink:title=" ">
<path fill="none" stroke="#63b8ff" d="M1071.92,-94C1063.35,-94 1054.7,-94 1046.12,-94"/>
<polygon fill="#63b8ff" stroke="#63b8ff" points="1071.94,-97.5 1081.94,-94 1071.94,-90.5 1071.94,-97.5"/>
</a>
</g>
</g>
<!-- Node12&#45;&gt;Node6 -->
<g id="edge13_Node000012_Node000006" class="edge">
<title>Node12&#45;&gt;Node6</title>
<g id="a_edge13_Node000012_Node000006"><a xlink:title=" ">
<path fill="none" stroke="#63b8ff" d="M801.88,-101.92C793.33,-102.46 784.69,-103 776.09,-103.54"/>
<polygon fill="#63b8ff" stroke="#63b8ff" points="802.12,-105.42 811.88,-101.3 801.68,-98.43 802.12,-105.42"/>
</a>
</g>
</g>
<!-- Node12&#45;&gt;Node13 -->
<g id="edge14_Node000012_Node000013" class="edge">
<title>Node12&#45;&gt;Node13</title>
<g id="a_edge14_Node000012_Node000013"><a xlink:title=" ">
<path fill="none" stroke="#63b8ff" d="M801.71,-85.63C788.36,-84.74 774.8,-83.84 761.51,-82.96"/>
<polygon fill="#63b8ff" stroke="#63b8ff" points="801.67,-89.13 811.88,-86.3 802.14,-82.15 801.67,-89.13"/>
</a>
</g>
</g>
<!-- Node14 -->
<g id="Node000014" class="node">
<title>Node14</title>
<g id="a_Node000014"><a xlink:href="classMainPage_1_1TaskOpenPanelController.html#ab8def75cd4cdbdaf3033022ea114a8a6" target="_top" xlink:title="Save the task to the server.">
<polygon fill="white" stroke="#666666" points="461.5,-84.5 246.5,-84.5 246.5,-65.5 461.5,-65.5 461.5,-84.5"/>
<text text-anchor="middle" x="354" y="-72.5" font-family="Helvetica,sans-Serif" font-size="10.00">MainPage.TaskOpenPanelController.Save</text>
</a>
</g>
</g>
<!-- Node13&#45;&gt;Node14 -->
<g id="edge15_Node000013_Node000014" class="edge">
<title>Node13&#45;&gt;Node14</title>
<g id="a_edge15_Node000013_Node000014"><a xlink:title=" ">
<path fill="none" stroke="#63b8ff" d="M508.91,-75C493.12,-75 477.13,-75 461.73,-75"/>
<polygon fill="#63b8ff" stroke="#63b8ff" points="509.26,-78.5 519.26,-75 509.26,-71.5 509.26,-78.5"/>
</a>
</g>
</g>
<!-- Node16 -->
<g id="Node000016" class="node">
<title>Node16</title>
<g id="a_Node000016"><a xlink:href="classMainPage_1_1TaskDisplayHandler.html#ab553f8eb77d9d038521af3813275a43d" target="_top" xlink:title="Complete the task and send this to the server.">
<polygon fill="white" stroke="#666666" points="1567,-121.5 1332,-121.5 1332,-102.5 1567,-102.5 1567,-121.5"/>
<text text-anchor="middle" x="1449.5" y="-109.5" font-family="Helvetica,sans-Serif" font-size="10.00">MainPage.TaskDisplayHandler.CompleteTask</text>
</a>
</g>
</g>
<!-- Node15&#45;&gt;Node16 -->
<g id="edge17_Node000015_Node000016" class="edge">
<title>Node15&#45;&gt;Node16</title>
<g id="a_edge17_Node000015_Node000016"><a xlink:title=" ">
<path fill="none" stroke="#63b8ff" d="M1611.09,-112C1596.49,-112 1581.68,-112 1567.25,-112"/>
<polygon fill="#63b8ff" stroke="#63b8ff" points="1611.17,-115.5 1621.17,-112 1611.17,-108.5 1611.17,-115.5"/>
</a>
</g>
</g>
<!-- Node17&#45;&gt;Node10 -->
<g id="edge19_Node000017_Node000010" class="edge">
<title>Node17&#45;&gt;Node10</title>
<g id="a_edge19_Node000017_Node000010"><a xlink:title=" ">
<path fill="none" stroke="#63b8ff" d="M1817.35,-85.41C1847.23,-87.96 1882.66,-90.41 1916.86,-92.35"/>
<polygon fill="#63b8ff" stroke="#63b8ff" points="1817.3,-81.89 1807.03,-84.5 1816.68,-88.86 1817.3,-81.89"/>
</a>
</g>
</g>
<!-- Node18 -->
<g id="Node000018" class="node">
<title>Node18</title>
<g id="a_Node000018"><a xlink:href="classMainPage_1_1TaskDisplayHandler.html#a19067f6c6b504e4947d9473721e6877f" target="_top" xlink:title="Called every frame if it has been completed update the remaining time.">
<polygon fill="white" stroke="#666666" points="1550,-84.5 1349,-84.5 1349,-65.5 1550,-65.5 1550,-84.5"/>
<text text-anchor="middle" x="1449.5" y="-72.5" font-family="Helvetica,sans-Serif" font-size="10.00">MainPage.TaskDisplayHandler.Update</text>
</a>
</g>
</g>
<!-- Node17&#45;&gt;Node18 -->
<g id="edge20_Node000017_Node000018" class="edge">
<title>Node17&#45;&gt;Node18</title>
<g id="a_edge20_Node000017_Node000018"><a xlink:title=" ">
<path fill="none" stroke="#63b8ff" d="M1592.93,-75C1578.4,-75 1563.91,-75 1550.05,-75"/>
<polygon fill="#63b8ff" stroke="#63b8ff" points="1592.98,-78.5 1602.98,-75 1592.98,-71.5 1592.98,-78.5"/>
</a>
</g>
</g>
<!-- Node19 -->
<g id="Node000019" class="node">
<title>Node19</title>
<g id="a_Node000019"><a xlink:href="classMainPage_1_1TaskDisplayHandler.html#ac3773b76adb09298978a65c89136c20f" target="_top" xlink:title="Update the task&#39;s labels.">
<polygon fill="white" stroke="#666666" points="1566,-47.5 1333,-47.5 1333,-28.5 1566,-28.5 1566,-47.5"/>
<text text-anchor="middle" x="1449.5" y="-35.5" font-family="Helvetica,sans-Serif" font-size="10.00">MainPage.TaskDisplayHandler.UpdateLabels</text>
</a>
</g>
</g>
<!-- Node17&#45;&gt;Node19 -->
<g id="edge21_Node000017_Node000019" class="edge">
<title>Node17&#45;&gt;Node19</title>
<g id="a_edge21_Node000017_Node000019"><a xlink:title=" ">
<path fill="none" stroke="#63b8ff" d="M1656.11,-64.19C1614.69,-58.91 1565.3,-52.62 1525.31,-47.53"/>
<polygon fill="#63b8ff" stroke="#63b8ff" points="1655.83,-67.68 1666.19,-65.47 1656.71,-60.74 1655.83,-67.68"/>
</a>
</g>
</g>
<!-- Node19&#45;&gt;Node11 -->
<g id="edge22_Node000019_Node000011" class="edge">
<title>Node19&#45;&gt;Node11</title>
<g id="a_edge22_Node000019_Node000011"><a xlink:title=" ">
<path fill="none" stroke="#63b8ff" d="M1368.45,-49.2C1356.2,-51.25 1343.73,-53.53 1332,-56 1293.67,-64.07 1250.25,-76.12 1221.63,-84.48"/>
<polygon fill="#63b8ff" stroke="#63b8ff" points="1369.36,-52.6 1378.66,-47.53 1368.23,-45.69 1369.36,-52.6"/>
</a>
</g>
</g>
</g>
</svg>
