<?xml version="1.0" encoding="UTF-8" standalone="no"?>
<!DOCTYPE svg PUBLIC "-//W3C//DTD SVG 1.1//EN"
 "http://www.w3.org/Graphics/SVG/1.1/DTD/svg11.dtd">
<!-- Generated by graphviz version 2.43.0 (0)
 -->
<!-- Title: MainPage.MainWindowController.LoadBadHabits Pages: 1 -->
<svg width="866pt" height="28pt"
 viewBox="0.00 0.00 866.00 28.00" xmlns="http://www.w3.org/2000/svg" xmlns:xlink="http://www.w3.org/1999/xlink">
<g id="graph0" class="graph" transform="scale(1 1) rotate(0) translate(4 24)">
<title>MainPage.MainWindowController.LoadBadHabits</title>
<polygon fill="white" stroke="transparent" points="-4,4 -4,-24 862,-24 862,4 -4,4"/>
<!-- Node1 -->
<g id="node1" class="node">
<title>Node1</title>
<g id="a_node1"><a xlink:title="Load the good habits">
<polygon fill="#bfbfbf" stroke="black" points="0,-0.5 0,-19.5 254,-19.5 254,-0.5 0,-0.5"/>
<text text-anchor="middle" x="127" y="-7.5" font-family="Helvetica,sans-Serif" font-size="10.00">MainPage.MainWindowController.LoadBadHabits</text>
</a>
</g>
</g>
<!-- Node2 -->
<g id="node2" class="node">
<title>Node2</title>
<g id="a_node2"><a xlink:href="classMainPage_1_1TaskOpenPanelController.html#a5513399c20f650915ca10f54805f416e" target="_top" xlink:title="Make this task a bad habit">
<polygon fill="white" stroke="black" points="290,-0.5 290,-19.5 559,-19.5 559,-0.5 290,-0.5"/>
<text text-anchor="middle" x="424.5" y="-7.5" font-family="Helvetica,sans-Serif" font-size="10.00">MainPage.TaskOpenPanelController.MakeItBadHabit</text>
</a>
</g>
</g>
<!-- Node1&#45;&gt;Node2 -->
<g id="edge1" class="edge">
<title>Node1&#45;&gt;Node2</title>
<path fill="none" stroke="midnightblue" d="M254.18,-3.31C262.63,-3.26 271.18,-3.24 279.72,-3.25"/>
<polygon fill="midnightblue" stroke="midnightblue" points="279.71,-6.75 289.72,-3.28 279.73,0.25 279.71,-6.75"/>
</g>
<!-- Node2&#45;&gt;Node1 -->
<g id="edge2" class="edge">
<title>Node2&#45;&gt;Node1</title>
<path fill="none" stroke="midnightblue" d="M289.72,-16.72C281.31,-16.76 272.84,-16.76 264.42,-16.73"/>
<polygon fill="midnightblue" stroke="midnightblue" points="264.19,-13.23 254.18,-16.69 264.16,-20.23 264.19,-13.23"/>
</g>
<!-- Node3 -->
<g id="node3" class="node">
<title>Node3</title>
<g id="a_node3"><a xlink:href="classMainPage_1_1TaskOpenPanelController.html#aa0b6757dbad141375c50282278b23b1a" target="_top" xlink:title="Update the buttons with the appropriate color based on the current task">
<polygon fill="white" stroke="black" points="595,-0.5 595,-19.5 858,-19.5 858,-0.5 595,-0.5"/>
<text text-anchor="middle" x="726.5" y="-7.5" font-family="Helvetica,sans-Serif" font-size="10.00">MainPage.TaskOpenPanelController.UpdateButtons</text>
</a>
</g>
</g>
<!-- Node2&#45;&gt;Node3 -->
<g id="edge3" class="edge">
<title>Node2&#45;&gt;Node3</title>
<path fill="none" stroke="midnightblue" d="M559.27,-10C567.6,-10 576,-10 584.36,-10"/>
<polygon fill="midnightblue" stroke="midnightblue" points="584.54,-13.5 594.54,-10 584.54,-6.5 584.54,-13.5"/>
</g>
</g>
</svg>
