<?xml version="1.0" encoding="UTF-8" standalone="no"?>
<!DOCTYPE svg PUBLIC "-//W3C//DTD SVG 1.1//EN"
 "http://www.w3.org/Graphics/SVG/1.1/DTD/svg11.dtd">
<!-- Generated by graphviz version 2.43.0 (0)
 -->
<!-- Title: Game.World.GameWorld.CreateNewGame Pages: 1 -->
<svg width="1717pt" height="218pt"
 viewBox="0.00 0.00 1717.00 218.00" xmlns="http://www.w3.org/2000/svg" xmlns:xlink="http://www.w3.org/1999/xlink">
<g id="graph0" class="graph" transform="scale(1 1) rotate(0) translate(4 214)">
<title>Game.World.GameWorld.CreateNewGame</title>
<polygon fill="white" stroke="transparent" points="-4,4 -4,-214 1713,-214 1713,4 -4,4"/>
<!-- Node1 -->
<g id="node1" class="node">
<title>Node1</title>
<g id="a_node1"><a xlink:title="Creates a new game and create the chunks">
<polygon fill="#bfbfbf" stroke="black" points="0,-171.5 0,-190.5 223,-190.5 223,-171.5 0,-171.5"/>
<text text-anchor="middle" x="111.5" y="-178.5" font-family="Helvetica,sans-Serif" font-size="10.00">Game.World.GameWorld.CreateNewGame</text>
</a>
</g>
</g>
<!-- Node2 -->
<g id="node2" class="node">
<title>Node2</title>
<g id="a_node2"><a xlink:href="classGame_1_1World_1_1GameWorld.html#a730e116826e3519544de155b667042ba" target="_top" xlink:title="Loads a chunk">
<polygon fill="white" stroke="black" points="259,-171.5 259,-190.5 453,-190.5 453,-171.5 259,-171.5"/>
<text text-anchor="middle" x="356" y="-178.5" font-family="Helvetica,sans-Serif" font-size="10.00">Game.World.GameWorld.LoadChunk</text>
</a>
</g>
</g>
<!-- Node1&#45;&gt;Node2 -->
<g id="edge1" class="edge">
<title>Node1&#45;&gt;Node2</title>
<path fill="none" stroke="midnightblue" d="M223.11,-181C231.54,-181 240.05,-181 248.46,-181"/>
<polygon fill="midnightblue" stroke="midnightblue" points="248.66,-184.5 258.66,-181 248.66,-177.5 248.66,-184.5"/>
</g>
<!-- Node3 -->
<g id="node3" class="node">
<title>Node3</title>
<g id="a_node3"><a xlink:href="classGame_1_1World_1_1Chunk.html#a475512064d145228ca7084735b7e2f2f" target="_top" xlink:title="Show the chunk">
<polygon fill="white" stroke="black" points="494,-190.5 494,-209.5 644,-209.5 644,-190.5 494,-190.5"/>
<text text-anchor="middle" x="569" y="-197.5" font-family="Helvetica,sans-Serif" font-size="10.00">Game.World.Chunk.Display</text>
</a>
</g>
</g>
<!-- Node2&#45;&gt;Node3 -->
<g id="edge2" class="edge">
<title>Node2&#45;&gt;Node3</title>
<path fill="none" stroke="midnightblue" d="M453.24,-189.67C463.32,-190.57 473.52,-191.49 483.46,-192.39"/>
<polygon fill="midnightblue" stroke="midnightblue" points="483.43,-195.9 493.71,-193.31 484.06,-188.93 483.43,-195.9"/>
</g>
<!-- Node4 -->
<g id="node4" class="node">
<title>Node4</title>
<g id="a_node4"><a xlink:href="classGame_1_1World_1_1Chunk.html#a0616c2f9600a4bcc1dbe97a93a947e7a" target="_top" xlink:title="Initialize the chunk">
<polygon fill="white" stroke="black" points="489,-152.5 489,-171.5 649,-171.5 649,-152.5 489,-152.5"/>
<text text-anchor="middle" x="569" y="-159.5" font-family="Helvetica,sans-Serif" font-size="10.00">Game.World.Chunk.InitChunk</text>
</a>
</g>
</g>
<!-- Node2&#45;&gt;Node4 -->
<g id="edge3" class="edge">
<title>Node2&#45;&gt;Node4</title>
<path fill="none" stroke="midnightblue" d="M453.24,-172.33C461.74,-171.57 470.32,-170.8 478.76,-170.04"/>
<polygon fill="midnightblue" stroke="midnightblue" points="479.32,-173.5 488.96,-169.12 478.69,-166.53 479.32,-173.5"/>
</g>
<!-- Node5 -->
<g id="node5" class="node">
<title>Node5</title>
<g id="a_node5"><a xlink:href="classGame_1_1World_1_1Chunk.html#aac3343253a33a36a09318ebc76bd9f08" target="_top" xlink:title="Creates the tiles for the chunk">
<polygon fill="white" stroke="black" points="705.5,-190.5 705.5,-209.5 874.5,-209.5 874.5,-190.5 705.5,-190.5"/>
<text text-anchor="middle" x="790" y="-197.5" font-family="Helvetica,sans-Serif" font-size="10.00">Game.World.Chunk.CreateTiles</text>
</a>
</g>
</g>
<!-- Node4&#45;&gt;Node5 -->
<g id="edge4" class="edge">
<title>Node4&#45;&gt;Node5</title>
<path fill="none" stroke="midnightblue" d="M624.98,-171.54C655.05,-176.76 692.48,-183.25 723.99,-188.72"/>
<polygon fill="midnightblue" stroke="midnightblue" points="723.55,-192.19 734,-190.46 724.74,-185.3 723.55,-192.19"/>
</g>
<!-- Node8 -->
<g id="node8" class="node">
<title>Node8</title>
<g id="a_node8"><a xlink:href="classGame_1_1World_1_1Chunk.html#af8d6134551597f12a028155b1466c0ff" target="_top" xlink:title="Gets tthe nearby chunks">
<polygon fill="white" stroke="black" points="689,-152.5 689,-171.5 891,-171.5 891,-152.5 689,-152.5"/>
<text text-anchor="middle" x="790" y="-159.5" font-family="Helvetica,sans-Serif" font-size="10.00">Game.World.Chunk.GetNearbyChunks</text>
</a>
</g>
</g>
<!-- Node4&#45;&gt;Node8 -->
<g id="edge7" class="edge">
<title>Node4&#45;&gt;Node8</title>
<path fill="none" stroke="midnightblue" d="M649.06,-162C658.61,-162 668.5,-162 678.39,-162"/>
<polygon fill="midnightblue" stroke="midnightblue" points="678.69,-165.5 688.69,-162 678.69,-158.5 678.69,-165.5"/>
</g>
<!-- Node10 -->
<g id="node10" class="node">
<title>Node10</title>
<g id="a_node10"><a xlink:href="classGame_1_1World_1_1Chunk.html#a08f4b5e8b362b98f4b3f01225d12b4af" target="_top" xlink:title="Spawns the buildings and the props on a seperate thread">
<polygon fill="white" stroke="black" points="685,-76.5 685,-95.5 895,-95.5 895,-76.5 685,-76.5"/>
<text text-anchor="middle" x="790" y="-83.5" font-family="Helvetica,sans-Serif" font-size="10.00">Game.World.Chunk.SpawnWorldObjects</text>
</a>
</g>
</g>
<!-- Node4&#45;&gt;Node10 -->
<g id="edge9" class="edge">
<title>Node4&#45;&gt;Node10</title>
<path fill="none" stroke="midnightblue" d="M597.74,-152.37C636.82,-138.81 708.18,-114.05 751.82,-98.9"/>
<polygon fill="midnightblue" stroke="midnightblue" points="753.19,-102.13 761.49,-95.55 750.89,-95.52 753.19,-102.13"/>
</g>
<!-- Node6 -->
<g id="node6" class="node">
<title>Node6</title>
<g id="a_node6"><a xlink:href="classGame_1_1World_1_1Chunk.html#ac4b762352bb5f90952fe57e5c0ee208f" target="_top" xlink:title="Determines the type of the tile at the coord">
<polygon fill="white" stroke="black" points="952.5,-190.5 952.5,-209.5 1158.5,-209.5 1158.5,-190.5 952.5,-190.5"/>
<text text-anchor="middle" x="1055.5" y="-197.5" font-family="Helvetica,sans-Serif" font-size="10.00">Game.World.Chunk.DetermineTileType</text>
</a>
</g>
</g>
<!-- Node5&#45;&gt;Node6 -->
<g id="edge5" class="edge">
<title>Node5&#45;&gt;Node6</title>
<path fill="none" stroke="midnightblue" d="M874.74,-200C896.04,-200 919.28,-200 941.76,-200"/>
<polygon fill="midnightblue" stroke="midnightblue" points="942.03,-203.5 952.03,-200 942.03,-196.5 942.03,-203.5"/>
</g>
<!-- Node7 -->
<g id="node7" class="node">
<title>Node7</title>
<g id="a_node7"><a xlink:href="classGame_1_1World_1_1Chunk.html#a2d39efc9f5c0f3c302dd7e9d007096c7" target="_top" xlink:title="Determine what type of road it is">
<polygon fill="white" stroke="black" points="1232.5,-190.5 1232.5,-209.5 1444.5,-209.5 1444.5,-190.5 1232.5,-190.5"/>
<text text-anchor="middle" x="1338.5" y="-197.5" font-family="Helvetica,sans-Serif" font-size="10.00">Game.World.Chunk.DetermineRoadType</text>
</a>
</g>
</g>
<!-- Node6&#45;&gt;Node7 -->
<g id="edge6" class="edge">
<title>Node6&#45;&gt;Node7</title>
<path fill="none" stroke="midnightblue" d="M1158.74,-200C1179.24,-200 1200.91,-200 1221.83,-200"/>
<polygon fill="midnightblue" stroke="midnightblue" points="1222.03,-203.5 1232.03,-200 1222.03,-196.5 1222.03,-203.5"/>
</g>
<!-- Node9 -->
<g id="node9" class="node">
<title>Node9</title>
<g id="a_node9"><a xlink:href="classGame_1_1World_1_1GameWorld.html#a6188226b54eb7e38659cbe8d9d76b620" target="_top" xlink:title="Get the chunk without trying it to load">
<polygon fill="white" stroke="black" points="931,-152.5 931,-171.5 1180,-171.5 1180,-152.5 931,-152.5"/>
<text text-anchor="middle" x="1055.5" y="-159.5" font-family="Helvetica,sans-Serif" font-size="10.00">Game.World.GameWorld.GetChunkWithoutLoad</text>
</a>
</g>
</g>
<!-- Node8&#45;&gt;Node9 -->
<g id="edge8" class="edge">
<title>Node8&#45;&gt;Node9</title>
<path fill="none" stroke="midnightblue" d="M891.37,-162C900.98,-162 910.82,-162 920.68,-162"/>
<polygon fill="midnightblue" stroke="midnightblue" points="920.95,-165.5 930.95,-162 920.95,-158.5 920.95,-165.5"/>
</g>
<!-- Node11 -->
<g id="node11" class="node">
<title>Node11</title>
<g id="a_node11"><a xlink:href="classGame_1_1World_1_1Chunk.html#a12ff4b268fb99d10493398cfe555b46c" target="_top" xlink:title=" ">
<polygon fill="white" stroke="black" points="1228,-114.5 1228,-133.5 1449,-133.5 1449,-114.5 1228,-114.5"/>
<text text-anchor="middle" x="1338.5" y="-121.5" font-family="Helvetica,sans-Serif" font-size="10.00">Game.World.Chunk.AddEnvironmentProps</text>
</a>
</g>
</g>
<!-- Node10&#45;&gt;Node11 -->
<g id="edge10" class="edge">
<title>Node10&#45;&gt;Node11</title>
<path fill="none" stroke="midnightblue" d="M852.55,-95.55C876.92,-99.01 905.23,-102.65 931,-105 1027.15,-113.75 1136.48,-118.58 1217.52,-121.17"/>
<polygon fill="midnightblue" stroke="midnightblue" points="1217.66,-124.68 1227.76,-121.49 1217.88,-117.68 1217.66,-124.68"/>
</g>
<!-- Node13 -->
<g id="node13" class="node">
<title>Node13</title>
<g id="a_node13"><a xlink:href="classGame_1_1World_1_1Chunk.html#a00a9cd484ae1ddffec928a75f6b2db15" target="_top" xlink:title="Add the buildings which are next to the roads">
<polygon fill="white" stroke="black" points="954.5,-76.5 954.5,-95.5 1156.5,-95.5 1156.5,-76.5 954.5,-76.5"/>
<text text-anchor="middle" x="1055.5" y="-83.5" font-family="Helvetica,sans-Serif" font-size="10.00">Game.World.Chunk.AddRoadBuildings</text>
</a>
</g>
</g>
<!-- Node10&#45;&gt;Node13 -->
<g id="edge12" class="edge">
<title>Node10&#45;&gt;Node13</title>
<path fill="none" stroke="midnightblue" d="M895.14,-86C911.22,-86 927.88,-86 944.1,-86"/>
<polygon fill="midnightblue" stroke="midnightblue" points="944.12,-89.5 954.12,-86 944.12,-82.5 944.12,-89.5"/>
</g>
<!-- Node15 -->
<g id="node15" class="node">
<title>Node15</title>
<g id="a_node15"><a xlink:href="classGame_1_1World_1_1Chunk.html#a443ede65d8aeb566a385cb3bcad9d8f7" target="_top" xlink:title="Generate the building cells matrix so we know which way the roads are">
<polygon fill="white" stroke="black" points="951,-38.5 951,-57.5 1160,-57.5 1160,-38.5 951,-38.5"/>
<text text-anchor="middle" x="1055.5" y="-45.5" font-family="Helvetica,sans-Serif" font-size="10.00">Game.World.Chunk.GenerateCellMatrix</text>
</a>
</g>
</g>
<!-- Node10&#45;&gt;Node15 -->
<g id="edge15" class="edge">
<title>Node10&#45;&gt;Node15</title>
<path fill="none" stroke="midnightblue" d="M857.15,-76.46C893.96,-71.15 939.93,-64.52 978.25,-59"/>
<polygon fill="midnightblue" stroke="midnightblue" points="978.92,-62.44 988.32,-57.54 977.92,-55.51 978.92,-62.44"/>
</g>
<!-- Node16 -->
<g id="node16" class="node">
<title>Node16</title>
<g id="a_node16"><a xlink:href="classUtility_1_1CoroutineRunner.html#a1c473dee723f16d86bab9d8475c8214a" target="_top" xlink:title="A helper method to start coroutines">
<polygon fill="white" stroke="black" points="956.5,-0.5 956.5,-19.5 1154.5,-19.5 1154.5,-0.5 956.5,-0.5"/>
<text text-anchor="middle" x="1055.5" y="-7.5" font-family="Helvetica,sans-Serif" font-size="10.00">Utility.CoroutineRunner.RunCoroutine</text>
</a>
</g>
</g>
<!-- Node10&#45;&gt;Node16 -->
<g id="edge16" class="edge">
<title>Node10&#45;&gt;Node16</title>
<path fill="none" stroke="midnightblue" d="M810.43,-76.38C837,-63.63 886.48,-41.3 931,-29 941.75,-26.03 953.17,-23.48 964.55,-21.31"/>
<polygon fill="midnightblue" stroke="midnightblue" points="965.31,-24.73 974.53,-19.5 964.06,-17.85 965.31,-24.73"/>
</g>
<!-- Node12 -->
<g id="node12" class="node">
<title>Node12</title>
<g id="a_node12"><a xlink:href="classGame_1_1World_1_1Chunk.html#af37779d40ed9cd07b577d5bca61627b7" target="_top" xlink:title=" ">
<polygon fill="white" stroke="black" points="1497,-95.5 1497,-114.5 1709,-114.5 1709,-95.5 1497,-95.5"/>
<text text-anchor="middle" x="1603" y="-102.5" font-family="Helvetica,sans-Serif" font-size="10.00">Game.World.Chunk.GetAbsolutePosition</text>
</a>
</g>
</g>
<!-- Node11&#45;&gt;Node12 -->
<g id="edge11" class="edge">
<title>Node11&#45;&gt;Node12</title>
<path fill="none" stroke="midnightblue" d="M1449.3,-116.05C1461.6,-115.16 1474.15,-114.25 1486.51,-113.36"/>
<polygon fill="midnightblue" stroke="midnightblue" points="1487.12,-116.82 1496.84,-112.61 1486.61,-109.84 1487.12,-116.82"/>
</g>
<!-- Node14 -->
<g id="node14" class="node">
<title>Node14</title>
<g id="a_node14"><a xlink:href="classGame_1_1World_1_1Chunk.html#af2946e1e1b9e325d6004d166b2b26193" target="_top" xlink:title="Lock the cell and try to place it">
<polygon fill="white" stroke="black" points="1216,-76.5 1216,-95.5 1461,-95.5 1461,-76.5 1216,-76.5"/>
<text text-anchor="middle" x="1338.5" y="-83.5" font-family="Helvetica,sans-Serif" font-size="10.00">Game.World.Chunk.LockAndTryToPlaceBuilding</text>
</a>
</g>
</g>
<!-- Node13&#45;&gt;Node14 -->
<g id="edge13" class="edge">
<title>Node13&#45;&gt;Node14</title>
<path fill="none" stroke="midnightblue" d="M1156.76,-86C1172.55,-86 1189.09,-86 1205.47,-86"/>
<polygon fill="midnightblue" stroke="midnightblue" points="1205.64,-89.5 1215.64,-86 1205.64,-82.5 1205.64,-89.5"/>
</g>
<!-- Node14&#45;&gt;Node12 -->
<g id="edge14" class="edge">
<title>Node14&#45;&gt;Node12</title>
<path fill="none" stroke="midnightblue" d="M1461.14,-94.8C1469.72,-95.43 1478.36,-96.05 1486.9,-96.67"/>
<polygon fill="midnightblue" stroke="midnightblue" points="1486.65,-100.16 1496.87,-97.39 1487.15,-93.18 1486.65,-100.16"/>
</g>
</g>
</svg>
