<?xml version="1.0" encoding="UTF-8" standalone="no"?>
<!DOCTYPE svg PUBLIC "-//W3C//DTD SVG 1.1//EN"
 "http://www.w3.org/Graphics/SVG/1.1/DTD/svg11.dtd">
<!-- Generated by graphviz version 2.43.0 (0)
 -->
<!-- Title: Game.UI.LeaderboardItem.Init Pages: 1 -->
<svg width="1151pt" height="28pt"
 viewBox="0.00 0.00 1151.00 28.00" xmlns="http://www.w3.org/2000/svg" xmlns:xlink="http://www.w3.org/1999/xlink">
<g id="graph0" class="graph" transform="scale(1 1) rotate(0) translate(4 24)">
<title>Game.UI.LeaderboardItem.Init</title>
<polygon fill="white" stroke="transparent" points="-4,4 -4,-24 1147,-24 1147,4 -4,4"/>
<!-- Node1 -->
<g id="node1" class="node">
<title>Node1</title>
<g id="a_node1"><a xlink:title="Initializes the item">
<polygon fill="#bfbfbf" stroke="black" points="979,-0.5 979,-19.5 1143,-19.5 1143,-0.5 979,-0.5"/>
<text text-anchor="middle" x="1061" y="-7.5" font-family="Helvetica,sans-Serif" font-size="10.00">Game.UI.LeaderboardItem.Init</text>
</a>
</g>
</g>
<!-- Node2 -->
<g id="node2" class="node">
<title>Node2</title>
<g id="a_node2"><a xlink:href="classGame_1_1UI_1_1LeaderboardWindow.html#aa83c9458d4a3cf1ea754268c3c584416" target="_top" xlink:title="Callback after the scores were loaded">
<polygon fill="white" stroke="black" points="711,-0.5 711,-19.5 943,-19.5 943,-0.5 711,-0.5"/>
<text text-anchor="middle" x="827" y="-7.5" font-family="Helvetica,sans-Serif" font-size="10.00">Game.UI.LeaderboardWindow.LoadedScores</text>
</a>
</g>
</g>
<!-- Node1&#45;&gt;Node2 -->
<g id="edge1" class="edge">
<title>Node1&#45;&gt;Node2</title>
<path fill="none" stroke="midnightblue" d="M968.77,-10C960.42,-10 951.89,-10 943.36,-10"/>
<polygon fill="midnightblue" stroke="midnightblue" points="968.86,-13.5 978.86,-10 968.86,-6.5 968.86,-13.5"/>
</g>
<!-- Node3 -->
<g id="node3" class="node">
<title>Node3</title>
<g id="a_node3"><a xlink:href="classGame_1_1UI_1_1LeaderboardWindow.html#a6d7212efa2c2627d119bac3318ea0d00" target="_top" xlink:title="Load the scores">
<polygon fill="white" stroke="black" points="455,-0.5 455,-19.5 675,-19.5 675,-0.5 455,-0.5"/>
<text text-anchor="middle" x="565" y="-7.5" font-family="Helvetica,sans-Serif" font-size="10.00">Game.UI.LeaderboardWindow.LoadScores</text>
</a>
</g>
</g>
<!-- Node2&#45;&gt;Node3 -->
<g id="edge2" class="edge">
<title>Node2&#45;&gt;Node3</title>
<path fill="none" stroke="midnightblue" d="M700.82,-10C692.29,-10 683.72,-10 675.27,-10"/>
<polygon fill="midnightblue" stroke="midnightblue" points="700.82,-13.5 710.82,-10 700.82,-6.5 700.82,-13.5"/>
</g>
<!-- Node4 -->
<g id="node4" class="node">
<title>Node4</title>
<g id="a_node4"><a xlink:href="classGame_1_1UI_1_1LeaderboardWindow.html#a8404b4a49a1f74f3b634ec77eb4b1d87" target="_top" xlink:title="Show the window">
<polygon fill="white" stroke="black" points="228,-0.5 228,-19.5 419,-19.5 419,-0.5 228,-0.5"/>
<text text-anchor="middle" x="323.5" y="-7.5" font-family="Helvetica,sans-Serif" font-size="10.00">Game.UI.LeaderboardWindow.Show</text>
</a>
</g>
</g>
<!-- Node3&#45;&gt;Node4 -->
<g id="edge3" class="edge">
<title>Node3&#45;&gt;Node4</title>
<path fill="none" stroke="midnightblue" d="M444.75,-10C436.21,-10 427.66,-10 419.29,-10"/>
<polygon fill="midnightblue" stroke="midnightblue" points="444.76,-13.5 454.76,-10 444.76,-6.5 444.76,-13.5"/>
</g>
<!-- Node5 -->
<g id="node5" class="node">
<title>Node5</title>
<g id="a_node5"><a xlink:href="classGame_1_1UI_1_1GameUI.html#a4258f849b2e7d8cdb72dd01c26de3a71" target="_top" xlink:title="Show the leaderboard window">
<polygon fill="white" stroke="black" points="0,-0.5 0,-19.5 192,-19.5 192,-0.5 0,-0.5"/>
<text text-anchor="middle" x="96" y="-7.5" font-family="Helvetica,sans-Serif" font-size="10.00">Game.UI.GameUI.ShowLeaderboard</text>
</a>
</g>
</g>
<!-- Node4&#45;&gt;Node5 -->
<g id="edge4" class="edge">
<title>Node4&#45;&gt;Node5</title>
<path fill="none" stroke="midnightblue" d="M217.83,-10C209.26,-10 200.63,-10 192.13,-10"/>
<polygon fill="midnightblue" stroke="midnightblue" points="217.85,-13.5 227.85,-10 217.85,-6.5 217.85,-13.5"/>
</g>
</g>
</svg>
