<?xml version="1.0" encoding="UTF-8" standalone="no"?>
<!DOCTYPE svg PUBLIC "-//W3C//DTD SVG 1.1//EN"
 "http://www.w3.org/Graphics/SVG/1.1/DTD/svg11.dtd">
<!-- Generated by graphviz version 2.43.0 (0)
 -->
<!-- Title: Game.UI.LeaderboardWindow Pages: 1 -->
<svg width="289pt" height="331pt"
 viewBox="0.00 0.00 289.00 331.00" xmlns="http://www.w3.org/2000/svg" xmlns:xlink="http://www.w3.org/1999/xlink">
<g id="graph0" class="graph" transform="scale(1 1) rotate(0) translate(4 327)">
<title>Game.UI.LeaderboardWindow</title>
<polygon fill="white" stroke="transparent" points="-4,4 -4,-327 285,-327 285,4 -4,4"/>
<!-- Node1 -->
<g id="node1" class="node">
<title>Node1</title>
<g id="a_node1"><a xlink:title="Handles the leaderboard display window">
<polygon fill="#bfbfbf" stroke="black" points="0,-0.5 0,-134.5 281,-134.5 281,-0.5 0,-0.5"/>
<text text-anchor="middle" x="140.5" y="-122.5" font-family="Helvetica,sans-Serif" font-size="10.00">Game.UI.LeaderboardWindow</text>
<polyline fill="none" stroke="black" points="0,-115.5 281,-115.5 "/>
<text text-anchor="start" x="8" y="-103.5" font-family="Helvetica,sans-Serif" font-size="10.00">&#45; GameObject scoreParent</text>
<text text-anchor="start" x="8" y="-92.5" font-family="Helvetica,sans-Serif" font-size="10.00">&#45; TMP_Dropdown filterTypeDropdown</text>
<text text-anchor="start" x="8" y="-81.5" font-family="Helvetica,sans-Serif" font-size="10.00">&#45; ModalWindow ModalWindow</text>
<text text-anchor="start" x="8" y="-70.5" font-family="Helvetica,sans-Serif" font-size="10.00">&#45; GameObject LeaderboardItemPrefab</text>
<polyline fill="none" stroke="black" points="0,-63.5 281,-63.5 "/>
<text text-anchor="start" x="8" y="-51.5" font-family="Helvetica,sans-Serif" font-size="10.00">+ void Show()</text>
<text text-anchor="start" x="8" y="-40.5" font-family="Helvetica,sans-Serif" font-size="10.00">+ void Hide()</text>
<text text-anchor="start" x="8" y="-29.5" font-family="Helvetica,sans-Serif" font-size="10.00">+ void LoadScores()</text>
<text text-anchor="start" x="8" y="-18.5" font-family="Helvetica,sans-Serif" font-size="10.00">&#45; void ShowRequestFail(string content)</text>
<text text-anchor="start" x="8" y="-7.5" font-family="Helvetica,sans-Serif" font-size="10.00">&#45; void LoadedScores(List&lt; GameScore &gt; gameScores)</text>
</a>
</g>
</g>
<!-- Node2 -->
<g id="node2" class="node">
<title>Node2</title>
<g id="a_node2"><a xlink:href="classUtility_1_1ThreadSafeMonoBehaviour.html" target="_top" xlink:title="Safely stores if the gameobject been destroyed in a bool">
<polygon fill="white" stroke="black" points="66,-171.5 66,-228.5 215,-228.5 215,-171.5 66,-171.5"/>
<text text-anchor="middle" x="140.5" y="-216.5" font-family="Helvetica,sans-Serif" font-size="10.00">ThreadSafeMonoBehaviour</text>
<polyline fill="none" stroke="black" points="66,-209.5 215,-209.5 "/>
<text text-anchor="start" x="74" y="-197.5" font-family="Helvetica,sans-Serif" font-size="10.00">+ bool Destroyed</text>
<polyline fill="none" stroke="black" points="66,-190.5 215,-190.5 "/>
<text text-anchor="start" x="74" y="-178.5" font-family="Helvetica,sans-Serif" font-size="10.00"># void OnDestroy()</text>
</a>
</g>
</g>
<!-- Node2&#45;&gt;Node1 -->
<g id="edge1" class="edge">
<title>Node2&#45;&gt;Node1</title>
<path fill="none" stroke="midnightblue" d="M140.5,-161.16C140.5,-152.78 140.5,-143.67 140.5,-134.53"/>
<polygon fill="none" stroke="midnightblue" points="137,-161.32 140.5,-171.32 144,-161.32 137,-161.32"/>
</g>
<!-- Node3 -->
<g id="node3" class="node">
<title>Node3</title>
<g id="a_node3"><a xlink:title=" ">
<polygon fill="white" stroke="#bfbfbf" points="94,-265.5 94,-322.5 187,-322.5 187,-265.5 94,-265.5"/>
<text text-anchor="middle" x="140.5" y="-310.5" font-family="Helvetica,sans-Serif" font-size="10.00">MonoBehaviour</text>
<polyline fill="none" stroke="#bfbfbf" points="94,-303.5 187,-303.5 "/>
<text text-anchor="middle" x="140.5" y="-291.5" font-family="Helvetica,sans-Serif" font-size="10.00"> </text>
<polyline fill="none" stroke="#bfbfbf" points="94,-284.5 187,-284.5 "/>
<text text-anchor="middle" x="140.5" y="-272.5" font-family="Helvetica,sans-Serif" font-size="10.00"> </text>
</a>
</g>
</g>
<!-- Node3&#45;&gt;Node2 -->
<g id="edge2" class="edge">
<title>Node3&#45;&gt;Node2</title>
<path fill="none" stroke="midnightblue" d="M140.5,-255.21C140.5,-246.29 140.5,-236.95 140.5,-228.58"/>
<polygon fill="none" stroke="midnightblue" points="137,-255.4 140.5,-265.4 144,-255.4 137,-255.4"/>
</g>
</g>
</svg>
