<?xml version="1.0" encoding="UTF-8" standalone="no"?>
<!DOCTYPE svg PUBLIC "-//W3C//DTD SVG 1.1//EN"
 "http://www.w3.org/Graphics/SVG/1.1/DTD/svg11.dtd">
<!-- Generated by graphviz version 2.43.0 (0)
 -->
<!-- Title: Game.UI.ShopItem.Init Pages: 1 -->
<svg width="1030pt" height="66pt"
 viewBox="0.00 0.00 1030.00 66.00" xmlns="http://www.w3.org/2000/svg" xmlns:xlink="http://www.w3.org/1999/xlink">
<g id="graph0" class="graph" transform="scale(1 1) rotate(0) translate(4 62)">
<title>Game.UI.ShopItem.Init</title>
<polygon fill="white" stroke="transparent" points="-4,4 -4,-62 1026,-62 1026,4 -4,4"/>
<!-- Node1 -->
<g id="node1" class="node">
<title>Node1</title>
<g id="a_node1"><a xlink:title="Initializes this shop item">
<polygon fill="#bfbfbf" stroke="black" points="894,-19.5 894,-38.5 1022,-38.5 1022,-19.5 894,-19.5"/>
<text text-anchor="middle" x="958" y="-26.5" font-family="Helvetica,sans-Serif" font-size="10.00">Game.UI.ShopItem.Init</text>
</a>
</g>
</g>
<!-- Node2 -->
<g id="node2" class="node">
<title>Node2</title>
<g id="a_node2"><a xlink:href="classGame_1_1UI_1_1ShopWindow.html#a6a703aeb6610fe526d65a9b89ad4c78e" target="_top" xlink:title="Display the loaded shop items">
<polygon fill="white" stroke="black" points="643,-19.5 643,-38.5 858,-38.5 858,-19.5 643,-19.5"/>
<text text-anchor="middle" x="750.5" y="-26.5" font-family="Helvetica,sans-Serif" font-size="10.00">Game.UI.ShopWindow.LoadedShopItems</text>
</a>
</g>
</g>
<!-- Node1&#45;&gt;Node2 -->
<g id="edge1" class="edge">
<title>Node1&#45;&gt;Node2</title>
<path fill="none" stroke="midnightblue" d="M883.68,-29C875.44,-29 866.92,-29 858.37,-29"/>
<polygon fill="midnightblue" stroke="midnightblue" points="883.95,-32.5 893.95,-29 883.95,-25.5 883.95,-32.5"/>
</g>
<!-- Node3 -->
<g id="node3" class="node">
<title>Node3</title>
<g id="a_node3"><a xlink:href="classGame_1_1UI_1_1ShopWindow.html#a9297b39a0fa7a77e8cf3022bc28c0b35" target="_top" xlink:title="Update the shop items">
<polygon fill="white" stroke="black" points="420,-19.5 420,-38.5 607,-38.5 607,-19.5 420,-19.5"/>
<text text-anchor="middle" x="513.5" y="-26.5" font-family="Helvetica,sans-Serif" font-size="10.00">Game.UI.ShopWindow.UpdateShop</text>
</a>
</g>
</g>
<!-- Node2&#45;&gt;Node3 -->
<g id="edge2" class="edge">
<title>Node2&#45;&gt;Node3</title>
<path fill="none" stroke="midnightblue" d="M632.61,-29C624.04,-29 615.46,-29 607.06,-29"/>
<polygon fill="midnightblue" stroke="midnightblue" points="632.66,-32.5 642.66,-29 632.66,-25.5 632.66,-32.5"/>
</g>
<!-- Node4 -->
<g id="node4" class="node">
<title>Node4</title>
<g id="a_node4"><a xlink:href="classGame_1_1UI_1_1ShopItem.html#aba8c6371c3eeaecb2bb7ab1f07311869" target="_top" xlink:title="Callback when it is bought">
<polygon fill="white" stroke="black" points="234,-38.5 234,-57.5 380,-57.5 380,-38.5 234,-38.5"/>
<text text-anchor="middle" x="307" y="-45.5" font-family="Helvetica,sans-Serif" font-size="10.00">Game.UI.ShopItem.Bought</text>
</a>
</g>
</g>
<!-- Node3&#45;&gt;Node4 -->
<g id="edge3" class="edge">
<title>Node3&#45;&gt;Node4</title>
<path fill="none" stroke="midnightblue" d="M409.81,-38.54C399.78,-39.47 389.76,-40.4 380.14,-41.3"/>
<polygon fill="midnightblue" stroke="midnightblue" points="410.19,-42.02 419.82,-37.61 409.54,-35.05 410.19,-42.02"/>
</g>
<!-- Node6 -->
<g id="node6" class="node">
<title>Node6</title>
<g id="a_node6"><a xlink:href="classGame_1_1UI_1_1ShopWindow.html#ad9204f9c12eb8520523232c340f477b0" target="_top" xlink:title="Show the shop window">
<polygon fill="white" stroke="black" points="230,-0.5 230,-19.5 384,-19.5 384,-0.5 230,-0.5"/>
<text text-anchor="middle" x="307" y="-7.5" font-family="Helvetica,sans-Serif" font-size="10.00">Game.UI.ShopWindow.Show</text>
</a>
</g>
</g>
<!-- Node3&#45;&gt;Node6 -->
<g id="edge5" class="edge">
<title>Node3&#45;&gt;Node6</title>
<path fill="none" stroke="midnightblue" d="M409.72,-19.45C401.1,-18.65 392.49,-17.85 384.13,-17.07"/>
<polygon fill="midnightblue" stroke="midnightblue" points="409.54,-22.95 419.82,-20.39 410.19,-15.98 409.54,-22.95"/>
</g>
<!-- Node5 -->
<g id="node5" class="node">
<title>Node5</title>
<g id="a_node5"><a xlink:href="classGame_1_1UI_1_1ShopItem.html#a08030b9b33414329032136c2db442bef" target="_top" xlink:title="Buy this shop item">
<polygon fill="white" stroke="black" points="31.5,-38.5 31.5,-57.5 162.5,-57.5 162.5,-38.5 31.5,-38.5"/>
<text text-anchor="middle" x="97" y="-45.5" font-family="Helvetica,sans-Serif" font-size="10.00">Game.UI.ShopItem.Buy</text>
</a>
</g>
</g>
<!-- Node4&#45;&gt;Node5 -->
<g id="edge4" class="edge">
<title>Node4&#45;&gt;Node5</title>
<path fill="none" stroke="midnightblue" d="M223.68,-48C203.43,-48 182.02,-48 162.73,-48"/>
<polygon fill="midnightblue" stroke="midnightblue" points="223.84,-51.5 233.84,-48 223.84,-44.5 223.84,-51.5"/>
</g>
<!-- Node7 -->
<g id="node7" class="node">
<title>Node7</title>
<g id="a_node7"><a xlink:href="classGame_1_1UI_1_1GameUI.html#a443a0569c632ba816be0bd1511b62bca" target="_top" xlink:title="Display the shop window">
<polygon fill="white" stroke="black" points="0,-0.5 0,-19.5 194,-19.5 194,-0.5 0,-0.5"/>
<text text-anchor="middle" x="97" y="-7.5" font-family="Helvetica,sans-Serif" font-size="10.00">Game.UI.GameUI.ShowShopWindow</text>
</a>
</g>
</g>
<!-- Node6&#45;&gt;Node7 -->
<g id="edge6" class="edge">
<title>Node6&#45;&gt;Node7</title>
<path fill="none" stroke="midnightblue" d="M219.57,-10C211.16,-10 202.59,-10 194.09,-10"/>
<polygon fill="midnightblue" stroke="midnightblue" points="219.73,-13.5 229.73,-10 219.73,-6.5 219.73,-13.5"/>
</g>
</g>
</svg>
