<?xml version="1.0" encoding="UTF-8" standalone="no"?>
<!DOCTYPE svg PUBLIC "-//W3C//DTD SVG 1.1//EN"
 "http://www.w3.org/Graphics/SVG/1.1/DTD/svg11.dtd">
<!-- Generated by graphviz version 2.43.0 (0)
 -->
<!-- Title: MainPage.TaskDisplayHandler.CalculateIfCompleteable Pages: 1 -->
<svg width="1627pt" height="64pt"
 viewBox="0.00 0.00 1627.00 64.00" xmlns="http://www.w3.org/2000/svg" xmlns:xlink="http://www.w3.org/1999/xlink">
<g id="graph0" class="graph" transform="scale(1 1) rotate(0) translate(4 60)">
<title>MainPage.TaskDisplayHandler.CalculateIfCompleteable</title>
<!-- Node1 -->
<g id="Node000001" class="node">
<title>Node1</title>
<g id="a_Node000001"><a xlink:title="Calculate if the task can be completed again.">
<polygon fill="#999999" stroke="#666666" points="1619,-37 1332,-37 1332,-18 1619,-18 1619,-37"/>
<text text-anchor="middle" x="1475.5" y="-25" font-family="Helvetica,sans-Serif" font-size="10.00">MainPage.TaskDisplayHandler.CalculateIfCompleteable</text>
</a>
</g>
</g>
<!-- Node2 -->
<g id="Node000002" class="node">
<title>Node2</title>
<g id="a_Node000002"><a xlink:href="classMainPage_1_1TaskDisplayHandler.html#a8aedc4afb32d220352cf04cc77fdedf6" target="_top" xlink:title="Init it with the task to display and references to the controls.">
<polygon fill="white" stroke="#666666" points="1296,-37 1082,-37 1082,-18 1296,-18 1296,-37"/>
<text text-anchor="middle" x="1189" y="-25" font-family="Helvetica,sans-Serif" font-size="10.00">MainPage.TaskDisplayHandler.InitValues</text>
</a>
</g>
</g>
<!-- Node1&#45;&gt;Node2 -->
<g id="edge1_Node000001_Node000002" class="edge">
<title>Node1&#45;&gt;Node2</title>
<g id="a_edge1_Node000001_Node000002"><a xlink:title=" ">
<path fill="none" stroke="#63b8ff" d="M1321.66,-27.5C1313.02,-27.5 1304.42,-27.5 1296.01,-27.5"/>
<polygon fill="#63b8ff" stroke="#63b8ff" points="1321.83,-31 1331.83,-27.5 1321.83,-24 1321.83,-31"/>
</a>
</g>
</g>
<!-- Node3 -->
<g id="Node000003" class="node">
<title>Node3</title>
<g id="a_Node000003"><a xlink:href="classMainPage_1_1MainWindowController.html#a827f62c47eb691eadd994bd51bf7cb74" target="_top" xlink:title="Creates a new task prefab to display.">
<polygon fill="white" stroke="#666666" points="1046,-37 812,-37 812,-18 1046,-18 1046,-37"/>
<text text-anchor="middle" x="929" y="-25" font-family="Helvetica,sans-Serif" font-size="10.00">MainPage.MainWindowController.CreateTask</text>
</a>
</g>
</g>
<!-- Node2&#45;&gt;Node3 -->
<g id="edge2_Node000002_Node000003" class="edge">
<title>Node2&#45;&gt;Node3</title>
<g id="a_edge2_Node000002_Node000003"><a xlink:title=" ">
<path fill="none" stroke="#63b8ff" d="M1071.92,-27.5C1063.35,-27.5 1054.7,-27.5 1046.12,-27.5"/>
<polygon fill="#63b8ff" stroke="#63b8ff" points="1071.94,-31 1081.94,-27.5 1071.94,-24 1071.94,-31"/>
</a>
</g>
</g>
<!-- Node4 -->
<g id="Node000004" class="node">
<title>Node4</title>
<g id="a_Node000004"><a xlink:href="classMainPage_1_1MainWindowController.html#ab40b51689d2d8ca0497b0e53128f4992" target="_top" xlink:title="Create the task prefabs.">
<polygon fill="white" stroke="#666666" points="776,-56 505,-56 505,-37 776,-37 776,-56"/>
<text text-anchor="middle" x="640.5" y="-44" font-family="Helvetica,sans-Serif" font-size="10.00">MainPage.MainWindowController.CreateTaskPrefabs</text>
</a>
</g>
</g>
<!-- Node3&#45;&gt;Node4 -->
<g id="edge3_Node000003_Node000004" class="edge">
<title>Node3&#45;&gt;Node4</title>
<g id="a_edge3_Node000003_Node000004"><a xlink:title=" ">
<path fill="none" stroke="#63b8ff" d="M801.88,-35.86C793.33,-36.43 784.69,-37 776.09,-37.57"/>
<polygon fill="#63b8ff" stroke="#63b8ff" points="802.14,-39.35 811.88,-35.2 801.67,-32.37 802.14,-39.35"/>
</a>
</g>
</g>
<!-- Node7 -->
<g id="Node000007" class="node">
<title>Node7</title>
<g id="a_Node000007"><a xlink:href="classMainPage_1_1TaskOpenPanelController.html#a750d1acc6fd173296467fb9aca366a3d" target="_top" xlink:title="When the task was stored on the server show it also visually and close the panel.">
<polygon fill="white" stroke="#666666" points="761.5,-19 519.5,-19 519.5,0 761.5,0 761.5,-19"/>
<text text-anchor="middle" x="640.5" y="-7" font-family="Helvetica,sans-Serif" font-size="10.00">MainPage.TaskOpenPanelController.SavedTask</text>
</a>
</g>
</g>
<!-- Node3&#45;&gt;Node7 -->
<g id="edge6_Node000003_Node000007" class="edge">
<title>Node3&#45;&gt;Node7</title>
<g id="a_edge6_Node000003_Node000007"><a xlink:title=" ">
<path fill="none" stroke="#63b8ff" d="M801.71,-19.57C788.36,-18.73 774.8,-17.87 761.51,-17.04"/>
<polygon fill="#63b8ff" stroke="#63b8ff" points="801.68,-23.07 811.88,-20.2 802.12,-16.08 801.68,-23.07"/>
</a>
</g>
</g>
<!-- Node5 -->
<g id="Node000005" class="node">
<title>Node5</title>
<g id="a_Node000005"><a xlink:href="classMainPage_1_1MainWindowController.html#a47c21c97b7ba52af405119044e1434d0" target="_top" xlink:title="Load the tasks from the server.">
<polygon fill="white" stroke="#666666" points="469,-56 239,-56 239,-37 469,-37 469,-56"/>
<text text-anchor="middle" x="354" y="-44" font-family="Helvetica,sans-Serif" font-size="10.00">MainPage.MainWindowController.LoadTasks</text>
</a>
</g>
</g>
<!-- Node4&#45;&gt;Node5 -->
<g id="edge4_Node000004_Node000005" class="edge">
<title>Node4&#45;&gt;Node5</title>
<g id="a_edge4_Node000004_Node000005"><a xlink:title=" ">
<path fill="none" stroke="#63b8ff" d="M494.68,-46.5C486.1,-46.5 477.54,-46.5 469.11,-46.5"/>
<polygon fill="#63b8ff" stroke="#63b8ff" points="494.75,-50 504.75,-46.5 494.75,-43 494.75,-50"/>
</a>
</g>
</g>
<!-- Node6 -->
<g id="Node000006" class="node">
<title>Node6</title>
<g id="a_Node000006"><a xlink:href="classMainPage_1_1MainWindowController.html#acea2170099ea435298139c6c7fdce719" target="_top" xlink:title="Start is called before the first frame update.">
<polygon fill="white" stroke="#666666" points="203,-56 0,-56 0,-37 203,-37 203,-56"/>
<text text-anchor="middle" x="101.5" y="-44" font-family="Helvetica,sans-Serif" font-size="10.00">MainPage.MainWindowController.Start</text>
</a>
</g>
</g>
<!-- Node5&#45;&gt;Node6 -->
<g id="edge5_Node000005_Node000006" class="edge">
<title>Node5&#45;&gt;Node6</title>
<g id="a_edge5_Node000005_Node000006"><a xlink:title=" ">
<path fill="none" stroke="#63b8ff" d="M228.71,-46.5C220.15,-46.5 211.58,-46.5 203.16,-46.5"/>
<polygon fill="#63b8ff" stroke="#63b8ff" points="228.75,-50 238.75,-46.5 228.75,-43 228.75,-50"/>
</a>
</g>
</g>
<!-- Node8 -->
<g id="Node000008" class="node">
<title>Node8</title>
<g id="a_Node000008"><a xlink:href="classMainPage_1_1TaskOpenPanelController.html#ab8def75cd4cdbdaf3033022ea114a8a6" target="_top" xlink:title="Save the task to the server.">
<polygon fill="white" stroke="#666666" points="461.5,-19 246.5,-19 246.5,0 461.5,0 461.5,-19"/>
<text text-anchor="middle" x="354" y="-7" font-family="Helvetica,sans-Serif" font-size="10.00">MainPage.TaskOpenPanelController.Save</text>
</a>
</g>
</g>
<!-- Node7&#45;&gt;Node8 -->
<g id="edge7_Node000007_Node000008" class="edge">
<title>Node7&#45;&gt;Node8</title>
<g id="a_edge7_Node000007_Node000008"><a xlink:title=" ">
<path fill="none" stroke="#63b8ff" d="M508.91,-9.5C493.12,-9.5 477.13,-9.5 461.73,-9.5"/>
<polygon fill="#63b8ff" stroke="#63b8ff" points="509.26,-13 519.26,-9.5 509.26,-6 509.26,-13"/>
</a>
</g>
</g>
</g>
</svg>
