<?xml version="1.0" encoding="UTF-8" standalone="no"?>
<!DOCTYPE svg PUBLIC "-//W3C//DTD SVG 1.1//EN"
 "http://www.w3.org/Graphics/SVG/1.1/DTD/svg11.dtd">
<!-- Generated by graphviz version 2.43.0 (0)
 -->
<!-- Title: Game.World.RoadGenerator.GoinTowardsEdge Pages: 1 -->
<svg width="763pt" height="28pt"
 viewBox="0.00 0.00 763.00 28.00" xmlns="http://www.w3.org/2000/svg" xmlns:xlink="http://www.w3.org/1999/xlink">
<g id="graph0" class="graph" transform="scale(1 1) rotate(0) translate(4 24)">
<title>Game.World.RoadGenerator.GoinTowardsEdge</title>
<polygon fill="white" stroke="transparent" points="-4,4 -4,-24 759,-24 759,4 -4,4"/>
<!-- Node1 -->
<g id="node1" class="node">
<title>Node1</title>
<g id="a_node1"><a xlink:title="Check if the road is going towards the edge">
<polygon fill="#bfbfbf" stroke="black" points="513,-0.5 513,-19.5 755,-19.5 755,-0.5 513,-0.5"/>
<text text-anchor="middle" x="634" y="-7.5" font-family="Helvetica,sans-Serif" font-size="10.00">Game.World.RoadGenerator.GoinTowardsEdge</text>
</a>
</g>
</g>
<!-- Node2 -->
<g id="node2" class="node">
<title>Node2</title>
<g id="a_node2"><a xlink:href="classGame_1_1World_1_1RoadGenerator.html#ab3b7fa7ff101a87611b4be39e1777d51" target="_top" xlink:title="Creates the roads recursively">
<polygon fill="white" stroke="black" points="265,-0.5 265,-19.5 477,-19.5 477,-0.5 265,-0.5"/>
<text text-anchor="middle" x="371" y="-7.5" font-family="Helvetica,sans-Serif" font-size="10.00">Game.World.RoadGenerator.CreateRoad</text>
</a>
</g>
</g>
<!-- Node1&#45;&gt;Node2 -->
<g id="edge1" class="edge">
<title>Node1&#45;&gt;Node2</title>
<path fill="none" stroke="midnightblue" d="M502.75,-10C494.17,-10 485.58,-10 477.15,-10"/>
<polygon fill="midnightblue" stroke="midnightblue" points="502.81,-13.5 512.81,-10 502.81,-6.5 502.81,-13.5"/>
</g>
<!-- Node3 -->
<g id="node3" class="node">
<title>Node3</title>
<g id="a_node3"><a xlink:href="classGame_1_1World_1_1RoadGenerator.html#aedcb774ed36687d05b41b26378207e53" target="_top" xlink:title="Creates the road matrix">
<polygon fill="white" stroke="black" points="0,-0.5 0,-19.5 229,-19.5 229,-0.5 0,-0.5"/>
<text text-anchor="middle" x="114.5" y="-7.5" font-family="Helvetica,sans-Serif" font-size="10.00">Game.World.RoadGenerator.RoadGenerator</text>
</a>
</g>
</g>
<!-- Node2&#45;&gt;Node3 -->
<g id="edge2" class="edge">
<title>Node2&#45;&gt;Node3</title>
<path fill="none" stroke="midnightblue" d="M254.4,-10C245.95,-10 237.44,-10 229.01,-10"/>
<polygon fill="midnightblue" stroke="midnightblue" points="254.65,-13.5 264.65,-10 254.65,-6.5 254.65,-13.5"/>
</g>
</g>
</svg>
