<?xml version="1.0" encoding="UTF-8" standalone="no"?>
<!DOCTYPE svg PUBLIC "-//W3C//DTD SVG 1.1//EN"
 "http://www.w3.org/Graphics/SVG/1.1/DTD/svg11.dtd">
<!-- Generated by graphviz version 2.43.0 (0)
 -->
<!-- Title: Game.UI.LeaderboardWindow Pages: 1 -->
<svg width="396pt" height="501pt"
 viewBox="0.00 0.00 396.00 501.00" xmlns="http://www.w3.org/2000/svg" xmlns:xlink="http://www.w3.org/1999/xlink">
<g id="graph0" class="graph" transform="scale(1 1) rotate(0) translate(4 497)">
<title>Game.UI.LeaderboardWindow</title>
<!-- Node1 -->
<g id="Node000001" class="node">
<title>Node1</title>
<g id="a_Node000001"><a xlink:title="Handles the leaderboard display window.">
<polygon fill="#999999" stroke="transparent" points="280,-139 0,-139 0,0 280,0 280,-139"/>
<text text-anchor="start" x="67" y="-126.5" font-family="Helvetica,sans-Serif" font-size="10.00">Game.UI.LeaderboardWindow</text>
<text text-anchor="start" x="6.5" y="-111.5" font-family="Helvetica,sans-Serif" font-size="10.00">&#45;</text>
<text text-anchor="start" x="17" y="-111.5" font-family="Helvetica,sans-Serif" font-size="10.00">GameObject scoreParent</text>
<text text-anchor="start" x="6.5" y="-96.5" font-family="Helvetica,sans-Serif" font-size="10.00">&#45;</text>
<text text-anchor="start" x="17" y="-96.5" font-family="Helvetica,sans-Serif" font-size="10.00">TMP_Dropdown filterTypeDropdown</text>
<text text-anchor="start" x="6.5" y="-81.5" font-family="Helvetica,sans-Serif" font-size="10.00">&#45;</text>
<text text-anchor="start" x="17" y="-81.5" font-family="Helvetica,sans-Serif" font-size="10.00">GameObject LeaderboardItemPrefab</text>
<text text-anchor="start" x="4" y="-66.5" font-family="Helvetica,sans-Serif" font-size="10.00">+</text>
<text text-anchor="start" x="17" y="-66.5" font-family="Helvetica,sans-Serif" font-size="10.00">void Show()</text>
<text text-anchor="start" x="4" y="-51.5" font-family="Helvetica,sans-Serif" font-size="10.00">+</text>
<text text-anchor="start" x="17" y="-51.5" font-family="Helvetica,sans-Serif" font-size="10.00">void Hide()</text>
<text text-anchor="start" x="4" y="-36.5" font-family="Helvetica,sans-Serif" font-size="10.00">+</text>
<text text-anchor="start" x="17" y="-36.5" font-family="Helvetica,sans-Serif" font-size="10.00">void LoadScores()</text>
<text text-anchor="start" x="6.5" y="-21.5" font-family="Helvetica,sans-Serif" font-size="10.00">&#45;</text>
<text text-anchor="start" x="17" y="-21.5" font-family="Helvetica,sans-Serif" font-size="10.00">void ShowRequestFail(string content)</text>
<text text-anchor="start" x="6.5" y="-6.5" font-family="Helvetica,sans-Serif" font-size="10.00">&#45;</text>
<text text-anchor="start" x="17" y="-6.5" font-family="Helvetica,sans-Serif" font-size="10.00">void LoadedScores(List&lt; GameScore &gt; gameScores)</text>
<polygon fill="#666666" stroke="#666666" points="0,-121.5 0,-121.5 280,-121.5 280,-121.5 0,-121.5"/>
<polygon fill="#666666" stroke="#666666" points="0,-76.5 0,-76.5 15,-76.5 15,-76.5 0,-76.5"/>
<polygon fill="#666666" stroke="#666666" points="15,-76.5 15,-76.5 280,-76.5 280,-76.5 15,-76.5"/>
<polygon fill="none" stroke="#666666" points="0,0 0,-139 280,-139 280,0 0,0"/>
</a>
</g>
</g>
<!-- Node2 -->
<g id="Node000002" class="node">
<title>Node2</title>
<g id="a_Node000002"><a xlink:href="classUtility_1_1ThreadSafeMonoBehaviour.html" target="_top" xlink:title="Safely stores if the gameobject been destroyed in a bool.">
<polygon fill="white" stroke="transparent" points="207.5,-407 64.5,-407 64.5,-358 207.5,-358 207.5,-407"/>
<text text-anchor="start" x="70" y="-394.5" font-family="Helvetica,sans-Serif" font-size="10.00">ThreadSafeMonoBehaviour</text>
<text text-anchor="start" x="78.5" y="-379.5" font-family="Helvetica,sans-Serif" font-size="10.00">+</text>
<text text-anchor="start" x="101" y="-379.5" font-family="Helvetica,sans-Serif" font-size="10.00">bool Destroyed</text>
<text text-anchor="start" x="78.5" y="-364.5" font-family="Helvetica,sans-Serif" font-size="10.00">#</text>
<text text-anchor="start" x="101" y="-364.5" font-family="Helvetica,sans-Serif" font-size="10.00">void OnDestroy()</text>
<polygon fill="#666666" stroke="#666666" points="65,-389.5 65,-389.5 208,-389.5 208,-389.5 65,-389.5"/>
<polygon fill="#666666" stroke="#666666" points="65,-374.5 65,-374.5 99,-374.5 99,-374.5 65,-374.5"/>
<polygon fill="#666666" stroke="#666666" points="99,-374.5 99,-374.5 208,-374.5 208,-374.5 99,-374.5"/>
<polygon fill="none" stroke="#666666" points="64.5,-358 64.5,-407 207.5,-407 207.5,-358 64.5,-358"/>
</a>
</g>
</g>
<!-- Node2&#45;&gt;Node1 -->
<g id="edge1_Node000001_Node000002" class="edge">
<title>Node2&#45;&gt;Node1</title>
<g id="a_edge1_Node000001_Node000002"><a xlink:title=" ">
<path fill="none" stroke="#63b8ff" d="M136.44,-347.65C137.08,-297.83 138.29,-203.69 139.12,-139.06"/>
<polygon fill="none" stroke="#63b8ff" points="132.93,-347.82 136.3,-357.87 139.93,-347.92 132.93,-347.82"/>
</a>
</g>
</g>
<!-- Node4 -->
<g id="Node000004" class="node">
<title>Node4</title>
<g id="a_Node000004"><a xlink:href="classUtility_1_1ModalWindow.html" target="_top" xlink:title="Modal window for alerting the user.">
<polygon fill="white" stroke="transparent" points="388,-321 152,-321 152,-186 388,-186 388,-321"/>
<text text-anchor="start" x="219.5" y="-308.5" font-family="Helvetica,sans-Serif" font-size="10.00">Utility.ModalWindow</text>
<text text-anchor="start" x="158.5" y="-293.5" font-family="Helvetica,sans-Serif" font-size="10.00">&#45;</text>
<text text-anchor="start" x="169" y="-293.5" font-family="Helvetica,sans-Serif" font-size="10.00">TMP_Text ModalTitleText</text>
<text text-anchor="start" x="158.5" y="-278.5" font-family="Helvetica,sans-Serif" font-size="10.00">&#45;</text>
<text text-anchor="start" x="169" y="-278.5" font-family="Helvetica,sans-Serif" font-size="10.00">TMP_Text ModalContentText</text>
<text text-anchor="start" x="158.5" y="-263.5" font-family="Helvetica,sans-Serif" font-size="10.00">&#45;</text>
<text text-anchor="start" x="169" y="-263.5" font-family="Helvetica,sans-Serif" font-size="10.00">Action onOkAction</text>
<text text-anchor="start" x="156" y="-248.5" font-family="Helvetica,sans-Serif" font-size="10.00">+</text>
<text text-anchor="start" x="169" y="-248.5" font-family="Helvetica,sans-Serif" font-size="10.00">void Show()</text>
<text text-anchor="start" x="156" y="-233.5" font-family="Helvetica,sans-Serif" font-size="10.00">+</text>
<text text-anchor="start" x="169" y="-233.5" font-family="Helvetica,sans-Serif" font-size="10.00">void Show(string title, string content, Action</text>
<text text-anchor="start" x="169" y="-222.5" font-family="Helvetica,sans-Serif" font-size="10.00"> onOkAction=null)</text>
<text text-anchor="start" x="156" y="-207.5" font-family="Helvetica,sans-Serif" font-size="10.00">+</text>
<text text-anchor="start" x="169" y="-207.5" font-family="Helvetica,sans-Serif" font-size="10.00">void Hide()</text>
<text text-anchor="start" x="156" y="-192.5" font-family="Helvetica,sans-Serif" font-size="10.00">+</text>
<text text-anchor="start" x="169" y="-192.5" font-family="Helvetica,sans-Serif" font-size="10.00">void ConfirmButtonClick()</text>
<polygon fill="#666666" stroke="#666666" points="152,-303.5 152,-303.5 388,-303.5 388,-303.5 152,-303.5"/>
<polygon fill="#666666" stroke="#666666" points="152,-258.5 152,-258.5 167,-258.5 167,-258.5 152,-258.5"/>
<polygon fill="#666666" stroke="#666666" points="167,-258.5 167,-258.5 388,-258.5 388,-258.5 167,-258.5"/>
<polygon fill="none" stroke="#666666" points="152,-186 152,-321 388,-321 388,-186 152,-186"/>
</a>
</g>
</g>
<!-- Node2&#45;&gt;Node4 -->
<g id="edge4_Node000004_Node000002" class="edge">
<title>Node2&#45;&gt;Node4</title>
<g id="a_edge4_Node000004_Node000002"><a xlink:title=" ">
<path fill="none" stroke="#63b8ff" d="M168.26,-350.93C177.82,-341.87 188.68,-331.57 199.67,-321.15"/>
<polygon fill="none" stroke="#63b8ff" points="165.74,-348.49 160.89,-357.91 170.56,-353.57 165.74,-348.49"/>
</a>
</g>
</g>
<!-- Node3 -->
<g id="Node000003" class="node">
<title>Node3</title>
<g id="a_Node000003"><a xlink:title=" ">
<polygon fill="white" stroke="transparent" points="179.5,-493 92.5,-493 92.5,-444 179.5,-444 179.5,-493"/>
<text text-anchor="start" x="98" y="-480.5" font-family="Helvetica,sans-Serif" font-size="10.00">MonoBehaviour</text>
<text text-anchor="start" x="134.5" y="-465.5" font-family="Helvetica,sans-Serif" font-size="10.00"> </text>
<text text-anchor="start" x="134.5" y="-450.5" font-family="Helvetica,sans-Serif" font-size="10.00"> </text>
<polygon fill="#666666" stroke="#666666" points="93,-475.5 93,-475.5 180,-475.5 180,-475.5 93,-475.5"/>
<polygon fill="#666666" stroke="#666666" points="93,-460.5 93,-460.5 180,-460.5 180,-460.5 93,-460.5"/>
<polygon fill="none" stroke="#666666" points="92.5,-444 92.5,-493 179.5,-493 179.5,-444 92.5,-444"/>
</a>
</g>
</g>
<!-- Node3&#45;&gt;Node2 -->
<g id="edge2_Node000002_Node000003" class="edge">
<title>Node3&#45;&gt;Node2</title>
<g id="a_edge2_Node000002_Node000003"><a xlink:title=" ">
<path fill="none" stroke="#63b8ff" d="M136,-433.57C136,-424.69 136,-415.32 136,-407.12"/>
<polygon fill="none" stroke="#63b8ff" points="132.5,-433.65 136,-443.65 139.5,-433.65 132.5,-433.65"/>
</a>
</g>
</g>
<!-- Node4&#45;&gt;Node1 -->
<g id="edge3_Node000001_Node000004" class="edge">
<title>Node4&#45;&gt;Node1</title>
<g id="a_edge3_Node000001_Node000004"><a xlink:title=" ">
<path fill="none" stroke="#63b8ff" d="M222.33,-185.76C213.75,-173.76 204.74,-161.14 195.96,-148.84"/>
<polygon fill="none" stroke="#63b8ff" points="195.95,-148.82 189.2,-146.27 188.97,-139.06 195.71,-141.62 195.95,-148.82"/>
</a>
</g>
<text text-anchor="middle" x="246" y="-160" font-family="Helvetica,sans-Serif" font-size="10.00" fill="grey"> &#45;ModalWindow</text>
</g>
</g>
</svg>
