<?xml version="1.0" encoding="UTF-8" standalone="no"?>
<!DOCTYPE svg PUBLIC "-//W3C//DTD SVG 1.1//EN"
 "http://www.w3.org/Graphics/SVG/1.1/DTD/svg11.dtd">
<!-- Generated by graphviz version 2.43.0 (0)
 -->
<!-- Title: Game.UI.GameUI.DoubleCoins Pages: 1 -->
<svg width="619pt" height="104pt"
 viewBox="0.00 0.00 619.00 104.00" xmlns="http://www.w3.org/2000/svg" xmlns:xlink="http://www.w3.org/1999/xlink">
<g id="graph0" class="graph" transform="scale(1 1) rotate(0) translate(4 100)">
<title>Game.UI.GameUI.DoubleCoins</title>
<polygon fill="white" stroke="transparent" points="-4,4 -4,-100 615,-100 615,4 -4,4"/>
<!-- Node1 -->
<g id="node1" class="node">
<title>Node1</title>
<g id="a_node1"><a xlink:title="Buy the double coins bonus">
<polygon fill="#bfbfbf" stroke="black" points="0,-38.5 0,-57.5 167,-57.5 167,-38.5 0,-38.5"/>
<text text-anchor="middle" x="83.5" y="-45.5" font-family="Helvetica,sans-Serif" font-size="10.00">Game.UI.GameUI.DoubleCoins</text>
</a>
</g>
</g>
<!-- Node2 -->
<g id="node2" class="node">
<title>Node2</title>
<g id="a_node2"><a xlink:href="classGame_1_1UI_1_1GameUI.html#a3c2c26f77375693436ab41d77452948f" target="_top" xlink:title="Callback after the coins were doubled">
<polygon fill="white" stroke="black" points="215.5,-76.5 215.5,-95.5 388.5,-95.5 388.5,-76.5 215.5,-76.5"/>
<text text-anchor="middle" x="302" y="-83.5" font-family="Helvetica,sans-Serif" font-size="10.00">Game.UI.GameUI.DoubledCoins</text>
</a>
</g>
</g>
<!-- Node1&#45;&gt;Node2 -->
<g id="edge1" class="edge">
<title>Node1&#45;&gt;Node2</title>
<path fill="none" stroke="midnightblue" d="M138.85,-57.54C168.58,-62.76 205.58,-69.25 236.73,-74.72"/>
<polygon fill="midnightblue" stroke="midnightblue" points="236.17,-78.17 246.62,-76.46 237.38,-71.28 236.17,-78.17"/>
</g>
<!-- Node4 -->
<g id="node4" class="node">
<title>Node4</title>
<g id="a_node4"><a xlink:href="classUtility_1_1CoroutineRunner.html#a1c473dee723f16d86bab9d8475c8214a" target="_top" xlink:title="A helper method to start coroutines">
<polygon fill="white" stroke="black" points="203,-38.5 203,-57.5 401,-57.5 401,-38.5 203,-38.5"/>
<text text-anchor="middle" x="302" y="-45.5" font-family="Helvetica,sans-Serif" font-size="10.00">Utility.CoroutineRunner.RunCoroutine</text>
</a>
</g>
</g>
<!-- Node1&#45;&gt;Node4 -->
<g id="edge3" class="edge">
<title>Node1&#45;&gt;Node4</title>
<path fill="none" stroke="midnightblue" d="M167.28,-48C175.6,-48 184.13,-48 192.67,-48"/>
<polygon fill="midnightblue" stroke="midnightblue" points="192.68,-51.5 202.68,-48 192.68,-44.5 192.68,-51.5"/>
</g>
<!-- Node5 -->
<g id="node5" class="node">
<title>Node5</title>
<g id="a_node5"><a xlink:href="classGame_1_1UI_1_1GameUI.html#ac464d5a547acb44085748e2ee265272f" target="_top" xlink:title="Show if the request failed on the modal window">
<polygon fill="white" stroke="black" points="208,-0.5 208,-19.5 396,-19.5 396,-0.5 208,-0.5"/>
<text text-anchor="middle" x="302" y="-7.5" font-family="Helvetica,sans-Serif" font-size="10.00">Game.UI.GameUI.ShowRequestFail</text>
</a>
</g>
</g>
<!-- Node1&#45;&gt;Node5 -->
<g id="edge4" class="edge">
<title>Node1&#45;&gt;Node5</title>
<path fill="none" stroke="midnightblue" d="M138.85,-38.46C168.58,-33.24 205.58,-26.75 236.73,-21.28"/>
<polygon fill="midnightblue" stroke="midnightblue" points="237.38,-24.72 246.62,-19.54 236.17,-17.83 237.38,-24.72"/>
</g>
<!-- Node3 -->
<g id="node3" class="node">
<title>Node3</title>
<g id="a_node3"><a xlink:href="classUser_1_1UserData.html#a103846d4ce97a5d089423d4efd1a5ec0" target="_top" xlink:title="Update the user&#39;s task score">
<polygon fill="white" stroke="black" points="437,-76.5 437,-95.5 611,-95.5 611,-76.5 437,-76.5"/>
<text text-anchor="middle" x="524" y="-83.5" font-family="Helvetica,sans-Serif" font-size="10.00">User.UserData.UpdateTaskScore</text>
</a>
</g>
</g>
<!-- Node2&#45;&gt;Node3 -->
<g id="edge2" class="edge">
<title>Node2&#45;&gt;Node3</title>
<path fill="none" stroke="midnightblue" d="M388.69,-86C401.16,-86 414.07,-86 426.73,-86"/>
<polygon fill="midnightblue" stroke="midnightblue" points="426.82,-89.5 436.82,-86 426.82,-82.5 426.82,-89.5"/>
</g>
<!-- Node6 -->
<g id="node6" class="node">
<title>Node6</title>
<g id="a_node6"><a xlink:href="classUtility_1_1ModalWindow.html#adcef8cae2dffe4247c905d042ff0a8e3" target="_top" xlink:title="Show the modal window">
<polygon fill="white" stroke="black" points="451,-0.5 451,-19.5 597,-19.5 597,-0.5 451,-0.5"/>
<text text-anchor="middle" x="524" y="-7.5" font-family="Helvetica,sans-Serif" font-size="10.00">Utility.ModalWindow.Show</text>
</a>
</g>
</g>
<!-- Node5&#45;&gt;Node6 -->
<g id="edge5" class="edge">
<title>Node5&#45;&gt;Node6</title>
<path fill="none" stroke="midnightblue" d="M396.3,-10C411,-10 426.11,-10 440.54,-10"/>
<polygon fill="midnightblue" stroke="midnightblue" points="440.92,-13.5 450.92,-10 440.92,-6.5 440.92,-13.5"/>
</g>
</g>
</svg>
