<?xml version="1.0" encoding="UTF-8" standalone="no"?>
<!DOCTYPE svg PUBLIC "-//W3C//DTD SVG 1.1//EN"
 "http://www.w3.org/Graphics/SVG/1.1/DTD/svg11.dtd">
<!-- Generated by graphviz version 2.43.0 (0)
 -->
<!-- Title: Game.CopCar.Update Pages: 1 -->
<svg width="899pt" height="180pt"
 viewBox="0.00 0.00 899.00 180.00" xmlns="http://www.w3.org/2000/svg" xmlns:xlink="http://www.w3.org/1999/xlink">
<g id="graph0" class="graph" transform="scale(1 1) rotate(0) translate(4 176)">
<title>Game.CopCar.Update</title>
<polygon fill="white" stroke="transparent" points="-4,4 -4,-176 895,-176 895,4 -4,4"/>
<!-- Node1 -->
<g id="node1" class="node">
<title>Node1</title>
<g id="a_node1"><a xlink:title=" ">
<polygon fill="#bfbfbf" stroke="black" points="0,-95.5 0,-114.5 122,-114.5 122,-95.5 0,-95.5"/>
<text text-anchor="middle" x="61" y="-102.5" font-family="Helvetica,sans-Serif" font-size="10.00">Game.CopCar.Update</text>
</a>
</g>
</g>
<!-- Node2 -->
<g id="node2" class="node">
<title>Node2</title>
<g id="a_node2"><a xlink:href="classGame_1_1NpcCar.html#ac7bf4d022d0601c6262c6ffcfcf80a59" target="_top" xlink:title=" ">
<polygon fill="white" stroke="black" points="158,-114.5 158,-133.5 451,-133.5 451,-114.5 158,-114.5"/>
<text text-anchor="middle" x="304.5" y="-121.5" font-family="Helvetica,sans-Serif" font-size="10.00">Game.NpcCar.DetermineSteeringDirectionTowardsPlayer</text>
</a>
</g>
</g>
<!-- Node1&#45;&gt;Node2 -->
<g id="edge1" class="edge">
<title>Node1&#45;&gt;Node2</title>
<path fill="none" stroke="midnightblue" d="M122.01,-109.72C137.42,-110.93 154.62,-112.29 172.12,-113.66"/>
<polygon fill="midnightblue" stroke="midnightblue" points="172.21,-117.18 182.45,-114.48 172.75,-110.2 172.21,-117.18"/>
</g>
<!-- Node3 -->
<g id="node3" class="node">
<title>Node3</title>
<g id="a_node3"><a xlink:href="classGame_1_1CarController.html#ae3eb6260519b20b09bc1226be3919be2" target="_top" xlink:title=" ">
<polygon fill="white" stroke="black" points="233,-76.5 233,-95.5 376,-95.5 376,-76.5 233,-76.5"/>
<text text-anchor="middle" x="304.5" y="-83.5" font-family="Helvetica,sans-Serif" font-size="10.00">Game.CarController.Move</text>
</a>
</g>
</g>
<!-- Node1&#45;&gt;Node3 -->
<g id="edge2" class="edge">
<title>Node1&#45;&gt;Node3</title>
<path fill="none" stroke="midnightblue" d="M122.01,-100.28C152.39,-97.89 189.71,-94.95 222.59,-92.37"/>
<polygon fill="midnightblue" stroke="midnightblue" points="222.95,-95.85 232.64,-91.57 222.4,-88.87 222.95,-95.85"/>
</g>
<!-- Node4 -->
<g id="node4" class="node">
<title>Node4</title>
<g id="a_node4"><a xlink:href="classGame_1_1CarController.html#afadda4712607531e93172fcd43557f14" target="_top" xlink:title=" ">
<polygon fill="white" stroke="black" points="487.5,-152.5 487.5,-171.5 675.5,-171.5 675.5,-152.5 487.5,-152.5"/>
<text text-anchor="middle" x="581.5" y="-159.5" font-family="Helvetica,sans-Serif" font-size="10.00">Game.CarController.AddDownForce</text>
</a>
</g>
</g>
<!-- Node3&#45;&gt;Node4 -->
<g id="edge3" class="edge">
<title>Node3&#45;&gt;Node4</title>
<path fill="none" stroke="midnightblue" d="M376.08,-85.65C400.86,-87.95 428.19,-93.38 451,-105 471.73,-115.56 466.66,-131.72 487,-143 491.02,-145.23 495.27,-147.2 499.64,-148.94"/>
<polygon fill="midnightblue" stroke="midnightblue" points="498.8,-152.35 509.4,-152.39 501.14,-145.76 498.8,-152.35"/>
</g>
<!-- Node5 -->
<g id="node5" class="node">
<title>Node5</title>
<g id="a_node5"><a xlink:href="classGame_1_1CarController.html#aebd7dfca747e22622550ce42076052af" target="_top" xlink:title=" ">
<polygon fill="white" stroke="black" points="496.5,-114.5 496.5,-133.5 666.5,-133.5 666.5,-114.5 496.5,-114.5"/>
<text text-anchor="middle" x="581.5" y="-121.5" font-family="Helvetica,sans-Serif" font-size="10.00">Game.CarController.ApplyDrive</text>
</a>
</g>
</g>
<!-- Node3&#45;&gt;Node5 -->
<g id="edge4" class="edge">
<title>Node3&#45;&gt;Node5</title>
<path fill="none" stroke="midnightblue" d="M376.21,-95C399.98,-98.09 426.65,-101.62 451,-105 469.14,-107.51 488.69,-110.33 506.96,-113"/>
<polygon fill="midnightblue" stroke="midnightblue" points="506.56,-116.48 516.97,-114.47 507.58,-109.56 506.56,-116.48"/>
</g>
<!-- Node6 -->
<g id="node6" class="node">
<title>Node6</title>
<g id="a_node6"><a xlink:href="classGame_1_1CarController.html#a906b060eb3177f7706893b9e0e098dc8" target="_top" xlink:title=" ">
<polygon fill="white" stroke="black" points="499.5,-76.5 499.5,-95.5 663.5,-95.5 663.5,-76.5 499.5,-76.5"/>
<text text-anchor="middle" x="581.5" y="-83.5" font-family="Helvetica,sans-Serif" font-size="10.00">Game.CarController.CapSpeed</text>
</a>
</g>
</g>
<!-- Node3&#45;&gt;Node6 -->
<g id="edge5" class="edge">
<title>Node3&#45;&gt;Node6</title>
<path fill="none" stroke="midnightblue" d="M376.32,-86C410.65,-86 452.3,-86 489,-86"/>
<polygon fill="midnightblue" stroke="midnightblue" points="489.21,-89.5 499.21,-86 489.21,-82.5 489.21,-89.5"/>
</g>
<!-- Node7 -->
<g id="node7" class="node">
<title>Node7</title>
<g id="a_node7"><a xlink:href="classGame_1_1CarController.html#a764c5ed47cd5bb83923e9fa443935af7" target="_top" xlink:title=" ">
<polygon fill="white" stroke="black" points="495,-38.5 495,-57.5 668,-57.5 668,-38.5 495,-38.5"/>
<text text-anchor="middle" x="581.5" y="-45.5" font-family="Helvetica,sans-Serif" font-size="10.00">Game.CarController.SteerHelper</text>
</a>
</g>
</g>
<!-- Node3&#45;&gt;Node7 -->
<g id="edge6" class="edge">
<title>Node3&#45;&gt;Node7</title>
<path fill="none" stroke="midnightblue" d="M374.54,-76.46C413.11,-71.13 461.34,-64.47 501.43,-58.93"/>
<polygon fill="midnightblue" stroke="midnightblue" points="502.01,-62.38 511.43,-57.54 501.05,-55.45 502.01,-62.38"/>
</g>
<!-- Node8 -->
<g id="node8" class="node">
<title>Node8</title>
<g id="a_node8"><a xlink:href="classGame_1_1CarController.html#a298e55b1a36b51f9c4e4aa7883056a00" target="_top" xlink:title=" ">
<polygon fill="white" stroke="black" points="487,-0.5 487,-19.5 676,-19.5 676,-0.5 487,-0.5"/>
<text text-anchor="middle" x="581.5" y="-7.5" font-family="Helvetica,sans-Serif" font-size="10.00">Game.CarController.TractionControl</text>
</a>
</g>
</g>
<!-- Node3&#45;&gt;Node8 -->
<g id="edge7" class="edge">
<title>Node3&#45;&gt;Node8</title>
<path fill="none" stroke="midnightblue" d="M332.92,-76.41C368.24,-64.28 431.67,-43.27 487,-29 497.21,-26.37 508.12,-23.87 518.76,-21.6"/>
<polygon fill="midnightblue" stroke="midnightblue" points="519.76,-24.97 528.84,-19.5 518.34,-18.11 519.76,-24.97"/>
</g>
<!-- Node9 -->
<g id="node9" class="node">
<title>Node9</title>
<g id="a_node9"><a xlink:href="classGame_1_1CarController.html#a7589f8f5b951a0d3283790774bf97493" target="_top" xlink:title=" ">
<polygon fill="white" stroke="black" points="712,-0.5 712,-19.5 891,-19.5 891,-0.5 712,-0.5"/>
<text text-anchor="middle" x="801.5" y="-7.5" font-family="Helvetica,sans-Serif" font-size="10.00">Game.CarController.AdjustTorque</text>
</a>
</g>
</g>
<!-- Node8&#45;&gt;Node9 -->
<g id="edge8" class="edge">
<title>Node8&#45;&gt;Node9</title>
<path fill="none" stroke="midnightblue" d="M676.22,-10C684.59,-10 693.08,-10 701.49,-10"/>
<polygon fill="midnightblue" stroke="midnightblue" points="701.69,-13.5 711.69,-10 701.69,-6.5 701.69,-13.5"/>
</g>
</g>
</svg>
