<?xml version="1.0" encoding="UTF-8" standalone="no"?>
<!DOCTYPE svg PUBLIC "-//W3C//DTD SVG 1.1//EN"
 "http://www.w3.org/Graphics/SVG/1.1/DTD/svg11.dtd">
<!-- Generated by graphviz version 2.43.0 (0)
 -->
<!-- Title: MainPage.TaskOpenPanelController.DeleteTask Pages: 1 -->
<!--zoomable 180 -->
<svg id="main" version="1.1" xmlns="http://www.w3.org/2000/svg" xmlns:xlink="http://www.w3.org/1999/xlink" xml:space="preserve" onload="init(evt)">
<style type="text/css"><![CDATA[
.edge:hover path { stroke: red; }
.edge:hover polygon { stroke: red; fill: red; }
]]></style>
<script type="text/javascript"><![CDATA[
var edges = document.getElementsByTagName('g');
if (edges && edges.length) {
  for (var i=0;i<edges.length;i++) {
    if (edges[i].id.substr(0,4)=='edge') {
      edges[i].setAttribute('class','edge');
    }
  }
}
]]></script>
        <defs>
                <circle id="rim" cx="0" cy="0" r="7"/>
                <circle id="rim2" cx="0" cy="0" r="3.5"/>
                <g id="zoomPlus">
                        <use xlink:href="#rim" fill="#404040">
                                <set attributeName="fill" to="#808080" begin="zoomplus.mouseover" end="zoomplus.mouseout"/>
                        </use>
                        <path d="M-4,0h8M0,-4v8" fill="none" stroke="white" stroke-width="1.5" pointer-events="none"/>
                </g>
                <g id="zoomMin">
                        <use xlink:href="#rim" fill="#404040">
                                <set attributeName="fill" to="#808080" begin="zoomminus.mouseover" end="zoomminus.mouseout"/>
                        </use>
                        <path d="M-4,0h8" fill="none" stroke="white" stroke-width="1.5" pointer-events="none"/>
                </g>
                <g id="dirArrow">
                        <path fill="none" stroke="white" stroke-width="1.5" d="M0,-3.0v7 M-2.5,-0.5L0,-3.0L2.5,-0.5"/>
                </g>
               <g id="resetDef">
                       <use xlink:href="#rim2" fill="#404040">
                               <set attributeName="fill" to="#808080" begin="reset.mouseover" end="reset.mouseout"/>
                       </use>
               </g>
        </defs>

<script type="text/javascript">
var viewWidth = 1716;
var viewHeight = 180;
var sectionId = 'dynsection-13';
</script>
<script xlink:href="svgpan.js"/>
<svg id="graph" class="graph">
<g id="viewport">
<title>MainPage.TaskOpenPanelController.DeleteTask</title>
<polygon fill="white" stroke="transparent" points="-4,4 -4,-176 1712,-176 1712,4 -4,4"/>
<!-- Node1 -->
<g id="node1" class="node">
<title>Node1</title>
<g id="a_node1"><a xlink:title="Send a delete task request to the server">
<polygon fill="#bfbfbf" stroke="black" points="0,-57.5 0,-76.5 245,-76.5 245,-57.5 0,-57.5"/>
<text text-anchor="middle" x="122.5" y="-64.5" font-family="Helvetica,sans-Serif" font-size="10.00">MainPage.TaskOpenPanelController.DeleteTask</text>
</a>
</g>
</g>
<!-- Node2 -->
<g id="node2" class="node">
<title>Node2</title>
<g id="a_node2"><a xlink:href="classMainPage_1_1TaskOpenPanelController.html#a254ff7d6e427208a7f9ae3bec5ae7ba7" target="_top" xlink:title="After the task were deleted from the server delete it also from the client">
<polygon fill="white" stroke="black" points="281,-114.5 281,-133.5 532,-133.5 532,-114.5 281,-114.5"/>
<text text-anchor="middle" x="406.5" y="-121.5" font-family="Helvetica,sans-Serif" font-size="10.00">MainPage.TaskOpenPanelController.DeletedTask</text>
</a>
</g>
</g>
<!-- Node1&#45;&gt;Node2 -->
<g id="edge1" class="edge">
<title>Node1&#45;&gt;Node2</title>
<path fill="none" stroke="midnightblue" d="M159.28,-76.55C191.08,-84.83 238.91,-96.73 281,-105 295.47,-107.84 310.95,-110.51 325.92,-112.89"/>
<polygon fill="midnightblue" stroke="midnightblue" points="325.75,-116.41 336.17,-114.49 326.83,-109.49 325.75,-116.41"/>
</g>
<!-- Node10 -->
<g id="node10" class="node">
<title>Node10</title>
<g id="a_node10"><a xlink:href="classConfig_1_1ServerConfig.html#a9112c3cf42da18b1222b5324f98ee40c" target="_top" xlink:title="Path to the api endpoint to delete the given task">
<polygon fill="white" stroke="black" points="296,-76.5 296,-95.5 517,-95.5 517,-76.5 296,-76.5"/>
<text text-anchor="middle" x="406.5" y="-83.5" font-family="Helvetica,sans-Serif" font-size="10.00">Config.ServerConfig.PATHFORTASKDELETE</text>
</a>
</g>
</g>
<!-- Node1&#45;&gt;Node10 -->
<g id="edge12" class="edge">
<title>Node1&#45;&gt;Node10</title>
<path fill="none" stroke="midnightblue" d="M245.14,-75.2C258.56,-76.1 272.22,-77.02 285.63,-77.92"/>
<polygon fill="midnightblue" stroke="midnightblue" points="285.6,-81.43 295.81,-78.61 286.07,-74.45 285.6,-81.43"/>
</g>
<!-- Node11 -->
<g id="node11" class="node">
<title>Node11</title>
<g id="a_node11"><a xlink:href="classUtility_1_1CoroutineRunner.html#a1c473dee723f16d86bab9d8475c8214a" target="_top" xlink:title="A helper method to start coroutines">
<polygon fill="white" stroke="black" points="307.5,-38.5 307.5,-57.5 505.5,-57.5 505.5,-38.5 307.5,-38.5"/>
<text text-anchor="middle" x="406.5" y="-45.5" font-family="Helvetica,sans-Serif" font-size="10.00">Utility.CoroutineRunner.RunCoroutine</text>
</a>
</g>
</g>
<!-- Node1&#45;&gt;Node11 -->
<g id="edge13" class="edge">
<title>Node1&#45;&gt;Node11</title>
<path fill="none" stroke="midnightblue" d="M245.14,-58.8C262.3,-57.65 279.85,-56.47 296.74,-55.33"/>
<polygon fill="midnightblue" stroke="midnightblue" points="297.43,-58.79 307.17,-54.63 296.96,-51.81 297.43,-58.79"/>
</g>
<!-- Node12 -->
<g id="node12" class="node">
<title>Node12</title>
<g id="a_node12"><a xlink:href="classMainPage_1_1MainWindowController.html#afea342e3985134e17406ed61958ecc6f" target="_top" xlink:title="Show the task request fail in the modal window">
<polygon fill="white" stroke="black" points="284,-0.5 284,-19.5 529,-19.5 529,-0.5 284,-0.5"/>
<text text-anchor="middle" x="406.5" y="-7.5" font-family="Helvetica,sans-Serif" font-size="10.00">MainPage.MainWindowController.ShowTaskFail</text>
</a>
</g>
</g>
<!-- Node1&#45;&gt;Node12 -->
<g id="edge14" class="edge">
<title>Node1&#45;&gt;Node12</title>
<path fill="none" stroke="midnightblue" d="M159.28,-57.45C191.08,-49.17 238.91,-37.27 281,-29 295.47,-26.16 310.95,-23.49 325.92,-21.11"/>
<polygon fill="midnightblue" stroke="midnightblue" points="326.83,-24.51 336.17,-19.51 325.75,-17.59 326.83,-24.51"/>
</g>
<!-- Node3 -->
<g id="node3" class="node">
<title>Node3</title>
<g id="a_node3"><a xlink:href="classMainPage_1_1TaskOpenPanelController.html#af1b5c03c4cfe46084a34093435f79fee" target="_top" xlink:title="Cancel this edit/task creation">
<polygon fill="white" stroke="black" points="577,-133.5 577,-152.5 801,-152.5 801,-133.5 577,-133.5"/>
<text text-anchor="middle" x="689" y="-140.5" font-family="Helvetica,sans-Serif" font-size="10.00">MainPage.TaskOpenPanelController.Cancel</text>
</a>
</g>
</g>
<!-- Node2&#45;&gt;Node3 -->
<g id="edge2" class="edge">
<title>Node2&#45;&gt;Node3</title>
<path fill="none" stroke="midnightblue" d="M532.16,-132.44C543.71,-133.23 555.39,-134.02 566.9,-134.8"/>
<polygon fill="midnightblue" stroke="midnightblue" points="566.75,-138.3 576.97,-135.48 567.23,-131.31 566.75,-138.3"/>
</g>
<!-- Node9 -->
<g id="node9" class="node">
<title>Node9</title>
<g id="a_node9"><a xlink:href="classMainPage_1_1MainWindowController.html#ab6e865f33e604878bb40346d5f6657c9" target="_top" xlink:title="Remove the task with the given id">
<polygon fill="white" stroke="black" points="568,-95.5 568,-114.5 810,-114.5 810,-95.5 568,-95.5"/>
<text text-anchor="middle" x="689" y="-102.5" font-family="Helvetica,sans-Serif" font-size="10.00">MainPage.MainWindowController.RemoveTask</text>
</a>
</g>
</g>
<!-- Node2&#45;&gt;Node9 -->
<g id="edge11" class="edge">
<title>Node2&#45;&gt;Node9</title>
<path fill="none" stroke="midnightblue" d="M532.16,-115.56C540.68,-114.98 549.28,-114.4 557.83,-113.82"/>
<polygon fill="midnightblue" stroke="midnightblue" points="558.09,-117.31 567.83,-113.14 557.61,-110.32 558.09,-117.31"/>
</g>
<!-- Node4 -->
<g id="node4" class="node">
<title>Node4</title>
<g id="a_node4"><a xlink:href="classMainPage_1_1MainWindowController.html#a241b480aeebdab1bc34320cad8de7712" target="_top" xlink:title="Load the good habits">
<polygon fill="white" stroke="black" points="847,-152.5 847,-171.5 1101,-171.5 1101,-152.5 847,-152.5"/>
<text text-anchor="middle" x="974" y="-159.5" font-family="Helvetica,sans-Serif" font-size="10.00">MainPage.MainWindowController.LoadBadHabits</text>
</a>
</g>
</g>
<!-- Node3&#45;&gt;Node4 -->
<g id="edge3" class="edge">
<title>Node3&#45;&gt;Node4</title>
<path fill="none" stroke="midnightblue" d="M801.04,-150.45C812.77,-151.24 824.8,-152.05 836.78,-152.85"/>
<polygon fill="midnightblue" stroke="midnightblue" points="836.61,-156.35 846.82,-153.53 837.08,-149.37 836.61,-156.35"/>
</g>
<!-- Node7 -->
<g id="node7" class="node">
<title>Node7</title>
<g id="a_node7"><a xlink:href="classMainPage_1_1MainWindowController.html#ab5b80370512cd4273e86927fe696462d" target="_top" xlink:title="Load the good tasks">
<polygon fill="white" stroke="black" points="846,-114.5 846,-133.5 1102,-133.5 1102,-114.5 846,-114.5"/>
<text text-anchor="middle" x="974" y="-121.5" font-family="Helvetica,sans-Serif" font-size="10.00">MainPage.MainWindowController.LoadGoodTasks</text>
</a>
</g>
</g>
<!-- Node3&#45;&gt;Node7 -->
<g id="edge7" class="edge">
<title>Node3&#45;&gt;Node7</title>
<path fill="none" stroke="midnightblue" d="M801.04,-135.55C812.41,-134.78 824.07,-134 835.68,-133.22"/>
<polygon fill="midnightblue" stroke="midnightblue" points="836.13,-136.7 845.88,-132.53 835.66,-129.71 836.13,-136.7"/>
</g>
<!-- Node5 -->
<g id="node5" class="node">
<title>Node5</title>
<g id="a_node5"><a xlink:href="classMainPage_1_1TaskOpenPanelController.html#a5513399c20f650915ca10f54805f416e" target="_top" xlink:title="Make this task a bad habit">
<polygon fill="white" stroke="black" points="1139,-152.5 1139,-171.5 1408,-171.5 1408,-152.5 1139,-152.5"/>
<text text-anchor="middle" x="1273.5" y="-159.5" font-family="Helvetica,sans-Serif" font-size="10.00">MainPage.TaskOpenPanelController.MakeItBadHabit</text>
</a>
</g>
</g>
<!-- Node4&#45;&gt;Node5 -->
<g id="edge4" class="edge">
<title>Node4&#45;&gt;Node5</title>
<path fill="none" stroke="midnightblue" d="M1101.17,-155.32C1110.35,-155.26 1119.66,-155.24 1128.94,-155.25"/>
<polygon fill="midnightblue" stroke="midnightblue" points="1128.98,-158.75 1138.99,-155.28 1129,-151.75 1128.98,-158.75"/>
</g>
<!-- Node5&#45;&gt;Node4 -->
<g id="edge5" class="edge">
<title>Node5&#45;&gt;Node4</title>
<path fill="none" stroke="midnightblue" d="M1138.99,-168.72C1129.75,-168.76 1120.43,-168.76 1111.18,-168.73"/>
<polygon fill="midnightblue" stroke="midnightblue" points="1111.18,-165.23 1101.17,-168.68 1111.15,-172.23 1111.18,-165.23"/>
</g>
<!-- Node6 -->
<g id="node6" class="node">
<title>Node6</title>
<g id="a_node6"><a xlink:href="classMainPage_1_1TaskOpenPanelController.html#aa0b6757dbad141375c50282278b23b1a" target="_top" xlink:title="Update the buttons with the appropriate color based on the current task">
<polygon fill="white" stroke="black" points="1445,-133.5 1445,-152.5 1708,-152.5 1708,-133.5 1445,-133.5"/>
<text text-anchor="middle" x="1576.5" y="-140.5" font-family="Helvetica,sans-Serif" font-size="10.00">MainPage.TaskOpenPanelController.UpdateButtons</text>
</a>
</g>
</g>
<!-- Node5&#45;&gt;Node6 -->
<g id="edge6" class="edge">
<title>Node5&#45;&gt;Node6</title>
<path fill="none" stroke="midnightblue" d="M1408.28,-153.56C1416.97,-153.01 1425.73,-152.45 1434.45,-151.9"/>
<polygon fill="midnightblue" stroke="midnightblue" points="1434.91,-155.38 1444.67,-151.26 1434.46,-148.4 1434.91,-155.38"/>
</g>
<!-- Node8 -->
<g id="node8" class="node">
<title>Node8</title>
<g id="a_node8"><a xlink:href="classMainPage_1_1TaskOpenPanelController.html#a069a63e2b7e70cc4cb4c7e487b655700" target="_top" xlink:title="Make it a good task">
<polygon fill="white" stroke="black" points="1138,-114.5 1138,-133.5 1409,-133.5 1409,-114.5 1138,-114.5"/>
<text text-anchor="middle" x="1273.5" y="-121.5" font-family="Helvetica,sans-Serif" font-size="10.00">MainPage.TaskOpenPanelController.MakeItGoodTask</text>
</a>
</g>
</g>
<!-- Node7&#45;&gt;Node8 -->
<g id="edge8" class="edge">
<title>Node7&#45;&gt;Node8</title>
<path fill="none" stroke="midnightblue" d="M1102.03,-117.31C1110.54,-117.26 1119.15,-117.24 1127.75,-117.25"/>
<polygon fill="midnightblue" stroke="midnightblue" points="1127.81,-120.75 1137.82,-117.28 1127.83,-113.75 1127.81,-120.75"/>
</g>
<!-- Node8&#45;&gt;Node6 -->
<g id="edge10" class="edge">
<title>Node8&#45;&gt;Node6</title>
<path fill="none" stroke="midnightblue" d="M1409.15,-132.5C1417.7,-133.04 1426.32,-133.58 1434.9,-134.12"/>
<polygon fill="midnightblue" stroke="midnightblue" points="1434.74,-137.62 1444.94,-134.76 1435.18,-130.64 1434.74,-137.62"/>
</g>
<!-- Node8&#45;&gt;Node7 -->
<g id="edge9" class="edge">
<title>Node8&#45;&gt;Node7</title>
<path fill="none" stroke="midnightblue" d="M1137.82,-130.72C1129.26,-130.76 1120.63,-130.76 1112.06,-130.73"/>
<polygon fill="midnightblue" stroke="midnightblue" points="1112.05,-127.23 1102.03,-130.69 1112.01,-134.23 1112.05,-127.23"/>
</g>
<!-- Node13 -->
<g id="node13" class="node">
<title>Node13</title>
<g id="a_node13"><a xlink:href="classUtility_1_1ModalWindow.html#adcef8cae2dffe4247c905d042ff0a8e3" target="_top" xlink:title="Show the modal window">
<polygon fill="white" stroke="black" points="616,-0.5 616,-19.5 762,-19.5 762,-0.5 616,-0.5"/>
<text text-anchor="middle" x="689" y="-7.5" font-family="Helvetica,sans-Serif" font-size="10.00">Utility.ModalWindow.Show</text>
</a>
</g>
</g>
<!-- Node12&#45;&gt;Node13 -->
<g id="edge15" class="edge">
<title>Node12&#45;&gt;Node13</title>
<path fill="none" stroke="midnightblue" d="M529.31,-10C555.18,-10 581.91,-10 605.88,-10"/>
<polygon fill="midnightblue" stroke="midnightblue" points="605.97,-13.5 615.97,-10 605.97,-6.5 605.97,-13.5"/>
</g>
</g>
</svg>
        <g id="navigator" transform="translate(0 0)" fill="#404254">
                <rect fill="#f2f5e9" fill-opacity="0.5" stroke="#606060" stroke-width=".5" x="0" y="0" width="60" height="60"/>
                <use id="zoomplus" xlink:href="#zoomPlus" x="17" y="9" onmousedown="handleZoom(evt,'in')"/>
                <use id="zoomminus" xlink:href="#zoomMin" x="42" y="9" onmousedown="handleZoom(evt,'out')"/>
                <use id="reset" xlink:href="#resetDef" x="30" y="36" onmousedown="handleReset()"/>
                <g id="arrowUp" xlink:href="#dirArrow" transform="translate(30 24)" onmousedown="handlePan(0,-1)">
                  <use xlink:href="#rim" fill="#404040">
                        <set attributeName="fill" to="#808080" begin="arrowUp.mouseover" end="arrowUp.mouseout"/>
                  </use>
                  <path fill="none" stroke="white" stroke-width="1.5" d="M0,-3.0v7 M-2.5,-0.5L0,-3.0L2.5,-0.5"/>
                </g>
                <g id="arrowRight" xlink:href="#dirArrow" transform="rotate(90) translate(36 -43)" onmousedown="handlePan(1,0)">
                  <use xlink:href="#rim" fill="#404040">
                        <set attributeName="fill" to="#808080" begin="arrowRight.mouseover" end="arrowRight.mouseout"/>
                  </use>
                  <path fill="none" stroke="white" stroke-width="1.5" d="M0,-3.0v7 M-2.5,-0.5L0,-3.0L2.5,-0.5"/>
                </g>
                <g id="arrowDown" xlink:href="#dirArrow" transform="rotate(180) translate(-30 -48)" onmousedown="handlePan(0,1)">
                  <use xlink:href="#rim" fill="#404040">
                        <set attributeName="fill" to="#808080" begin="arrowDown.mouseover" end="arrowDown.mouseout"/>
                  </use>
                  <path fill="none" stroke="white" stroke-width="1.5" d="M0,-3.0v7 M-2.5,-0.5L0,-3.0L2.5,-0.5"/>
                </g>
                <g id="arrowLeft" xlink:href="#dirArrow" transform="rotate(270) translate(-36 17)" onmousedown="handlePan(-1,0)">
                  <use xlink:href="#rim" fill="#404040">
                        <set attributeName="fill" to="#808080" begin="arrowLeft.mouseover" end="arrowLeft.mouseout"/>
                  </use>
                  <path fill="none" stroke="white" stroke-width="1.5" d="M0,-3.0v7 M-2.5,-0.5L0,-3.0L2.5,-0.5"/>
                </g>
        </g>
        <svg viewBox="0 0 15 15" width="100%" height="30px" preserveAspectRatio="xMaxYMin meet">
         <g id="arrow_out" transform="scale(0.3 0.3)">
          <a xlink:href="classMainPage_1_1TaskOpenPanelController_a3107b94793886f6af28ac9415fb44370_cgraph_org.svg" target="_base">
           <rect id="button" ry="5" rx="5" y="6" x="6" height="38" width="38"
                fill="#f2f5e9" fill-opacity="0.5" stroke="#606060" stroke-width="1.0"/>
           <path id="arrow"
             d="M 11.500037,31.436501 C 11.940474,20.09759 22.043105,11.32322 32.158766,21.979434 L 37.068811,17.246167 C 37.068811,17.246167 37.088388,32 37.088388,32 L 22.160133,31.978069 C 22.160133,31.978069 26.997745,27.140456 26.997745,27.140456 C 18.528582,18.264221 13.291696,25.230495 11.500037,31.436501 z"
             style="fill:#404040;"/>
          </a>
         </g>
        </svg>
</svg>
