<?xml version="1.0" encoding="UTF-8" standalone="no"?>
<!DOCTYPE svg PUBLIC "-//W3C//DTD SVG 1.1//EN"
 "http://www.w3.org/Graphics/SVG/1.1/DTD/svg11.dtd">
<!-- Generated by graphviz version 2.43.0 (0)
 -->
<!-- Title: Game.PlayerCar.CancelImmunity Pages: 1 -->
<svg width="570pt" height="28pt"
 viewBox="0.00 0.00 570.00 28.00" xmlns="http://www.w3.org/2000/svg" xmlns:xlink="http://www.w3.org/1999/xlink">
<g id="graph0" class="graph" transform="scale(1 1) rotate(0) translate(4 24)">
<title>Game.PlayerCar.CancelImmunity</title>
<polygon fill="white" stroke="transparent" points="-4,4 -4,-24 566,-24 566,4 -4,4"/>
<!-- Node1 -->
<g id="node1" class="node">
<title>Node1</title>
<g id="a_node1"><a xlink:title="Cancel the immunity bonus">
<polygon fill="#bfbfbf" stroke="black" points="383,-0.5 383,-19.5 562,-19.5 562,-0.5 383,-0.5"/>
<text text-anchor="middle" x="472.5" y="-7.5" font-family="Helvetica,sans-Serif" font-size="10.00">Game.PlayerCar.CancelImmunity</text>
</a>
</g>
</g>
<!-- Node2 -->
<g id="node2" class="node">
<title>Node2</title>
<g id="a_node2"><a xlink:href="classGame_1_1UI_1_1GameUI.html#acd930ff070019fc74a3795a8b1452923" target="_top" xlink:title="Buy the immunity power up">
<polygon fill="white" stroke="black" points="176,-0.5 176,-19.5 347,-19.5 347,-0.5 176,-0.5"/>
<text text-anchor="middle" x="261.5" y="-7.5" font-family="Helvetica,sans-Serif" font-size="10.00">Game.UI.GameUI.BuyImmunity</text>
</a>
</g>
</g>
<!-- Node1&#45;&gt;Node2 -->
<g id="edge1" class="edge">
<title>Node1&#45;&gt;Node2</title>
<path fill="none" stroke="midnightblue" d="M372.86,-10C364.31,-10 355.71,-10 347.28,-10"/>
<polygon fill="midnightblue" stroke="midnightblue" points="372.87,-13.5 382.87,-10 372.87,-6.5 372.87,-13.5"/>
</g>
<!-- Node3 -->
<g id="node3" class="node">
<title>Node3</title>
<g id="a_node3"><a xlink:href="classGame_1_1UI_1_1GameUI.html#a77f6894867ecdecc2f7ca4bea695849f" target="_top" xlink:title="Called every frame">
<polygon fill="white" stroke="black" points="0,-0.5 0,-19.5 140,-19.5 140,-0.5 0,-0.5"/>
<text text-anchor="middle" x="70" y="-7.5" font-family="Helvetica,sans-Serif" font-size="10.00">Game.UI.GameUI.Update</text>
</a>
</g>
</g>
<!-- Node2&#45;&gt;Node3 -->
<g id="edge2" class="edge">
<title>Node2&#45;&gt;Node3</title>
<path fill="none" stroke="midnightblue" d="M165.63,-10C157.02,-10 148.41,-10 140.08,-10"/>
<polygon fill="midnightblue" stroke="midnightblue" points="165.73,-13.5 175.73,-10 165.73,-6.5 165.73,-13.5"/>
</g>
</g>
</svg>
