<?xml version="1.0" encoding="UTF-8" standalone="no"?>
<!DOCTYPE svg PUBLIC "-//W3C//DTD SVG 1.1//EN"
 "http://www.w3.org/Graphics/SVG/1.1/DTD/svg11.dtd">
<!-- Generated by graphviz version 2.43.0 (0)
 -->
<!-- Title: MainPage.ProfileHandler.LoggedOut Pages: 1 -->
<svg width="466pt" height="104pt"
 viewBox="0.00 0.00 466.00 104.00" xmlns="http://www.w3.org/2000/svg" xmlns:xlink="http://www.w3.org/1999/xlink">
<g id="graph0" class="graph" transform="scale(1 1) rotate(0) translate(4 100)">
<title>MainPage.ProfileHandler.LoggedOut</title>
<polygon fill="white" stroke="transparent" points="-4,4 -4,-100 462,-100 462,4 -4,4"/>
<!-- Node1 -->
<g id="node1" class="node">
<title>Node1</title>
<g id="a_node1"><a xlink:title="When the logout was a success">
<polygon fill="#bfbfbf" stroke="black" points="0,-38.5 0,-57.5 191,-57.5 191,-38.5 0,-38.5"/>
<text text-anchor="middle" x="95.5" y="-45.5" font-family="Helvetica,sans-Serif" font-size="10.00">MainPage.ProfileHandler.LoggedOut</text>
</a>
</g>
</g>
<!-- Node2 -->
<g id="node2" class="node">
<title>Node2</title>
<g id="a_node2"><a xlink:href="classUser_1_1UserData.html#a8c8911482003919ea4fbab040c755f8f" target="_top" xlink:title="Signal&#39;s that the user is logged out">
<polygon fill="white" stroke="black" points="281,-76.5 281,-95.5 404,-95.5 404,-76.5 281,-76.5"/>
<text text-anchor="middle" x="342.5" y="-83.5" font-family="Helvetica,sans-Serif" font-size="10.00">User.UserData.Logout</text>
</a>
</g>
</g>
<!-- Node1&#45;&gt;Node2 -->
<g id="edge1" class="edge">
<title>Node1&#45;&gt;Node2</title>
<path fill="none" stroke="midnightblue" d="M158.01,-57.54C192.2,-62.84 234.89,-69.46 270.5,-74.99"/>
<polygon fill="midnightblue" stroke="midnightblue" points="270.4,-78.51 280.82,-76.59 271.47,-71.6 270.4,-78.51"/>
</g>
<!-- Node3 -->
<g id="node3" class="node">
<title>Node3</title>
<g id="a_node3"><a xlink:href="classMainPage_1_1ProfileHandler.html#a1417a9eaae8fd0fd5c3e658562e4e65c" target="_top" xlink:title="Move to the login screen after the user has logged out">
<polygon fill="white" stroke="black" points="227,-38.5 227,-57.5 458,-57.5 458,-38.5 227,-38.5"/>
<text text-anchor="middle" x="342.5" y="-45.5" font-family="Helvetica,sans-Serif" font-size="10.00">MainPage.ProfileHandler.MoveToLoginScene</text>
</a>
</g>
</g>
<!-- Node1&#45;&gt;Node3 -->
<g id="edge2" class="edge">
<title>Node1&#45;&gt;Node3</title>
<path fill="none" stroke="midnightblue" d="M191.22,-48C199.64,-48 208.25,-48 216.87,-48"/>
<polygon fill="midnightblue" stroke="midnightblue" points="216.98,-51.5 226.98,-48 216.98,-44.5 216.98,-51.5"/>
</g>
<!-- Node4 -->
<g id="node4" class="node">
<title>Node4</title>
<g id="a_node4"><a xlink:href="classUtility_1_1CoroutineRunner.html#a1c473dee723f16d86bab9d8475c8214a" target="_top" xlink:title="A helper method to start coroutines">
<polygon fill="white" stroke="black" points="243.5,-0.5 243.5,-19.5 441.5,-19.5 441.5,-0.5 243.5,-0.5"/>
<text text-anchor="middle" x="342.5" y="-7.5" font-family="Helvetica,sans-Serif" font-size="10.00">Utility.CoroutineRunner.RunCoroutine</text>
</a>
</g>
</g>
<!-- Node1&#45;&gt;Node4 -->
<g id="edge3" class="edge">
<title>Node1&#45;&gt;Node4</title>
<path fill="none" stroke="midnightblue" d="M158.01,-38.46C191.94,-33.2 234.25,-26.63 269.69,-21.14"/>
<polygon fill="midnightblue" stroke="midnightblue" points="270.62,-24.54 279.97,-19.54 269.55,-17.62 270.62,-24.54"/>
</g>
</g>
</svg>
