<?xml version="1.0" encoding="UTF-8" standalone="no"?>
<!DOCTYPE svg PUBLIC "-//W3C//DTD SVG 1.1//EN"
 "http://www.w3.org/Graphics/SVG/1.1/DTD/svg11.dtd">
<!-- Generated by graphviz version 2.43.0 (0)
 -->
<!-- Title: MainPage.TaskOpenPanelController Pages: 1 -->
<svg width="680pt" height="801pt"
 viewBox="0.00 0.00 680.00 801.00" xmlns="http://www.w3.org/2000/svg" xmlns:xlink="http://www.w3.org/1999/xlink">
<g id="graph0" class="graph" transform="scale(1 1) rotate(0) translate(4 797)">
<title>MainPage.TaskOpenPanelController</title>
<polygon fill="white" stroke="transparent" points="-4,4 -4,-797 676,-797 676,4 -4,4"/>
<!-- Node1 -->
<g id="node1" class="node">
<title>Node1</title>
<g id="a_node1"><a xlink:title="Controller for displaying, editing and creating tasks">
<polygon fill="#bfbfbf" stroke="black" points="0,-314.5 0,-602.5 374,-602.5 374,-314.5 0,-314.5"/>
<text text-anchor="middle" x="187" y="-590.5" font-family="Helvetica,sans-Serif" font-size="10.00">MainPage.TaskOpenPanelController</text>
<polyline fill="none" stroke="black" points="0,-583.5 374,-583.5 "/>
<text text-anchor="start" x="8" y="-571.5" font-family="Helvetica,sans-Serif" font-size="10.00">+ EventHandler&lt; TaskClosedEventArgs &gt; TaskClosedEventHandler</text>
<text text-anchor="start" x="8" y="-560.5" font-family="Helvetica,sans-Serif" font-size="10.00">+ static readonly int[] TASKINTERVALS</text>
<text text-anchor="start" x="8" y="-549.5" font-family="Helvetica,sans-Serif" font-size="10.00">+ PlayerTask CurrentTask</text>
<text text-anchor="start" x="8" y="-538.5" font-family="Helvetica,sans-Serif" font-size="10.00">&#45; TMP_InputField taskNameInput</text>
<text text-anchor="start" x="8" y="-527.5" font-family="Helvetica,sans-Serif" font-size="10.00">&#45; TMP_Dropdown taskIntervals</text>
<text text-anchor="start" x="8" y="-516.5" font-family="Helvetica,sans-Serif" font-size="10.00">&#45; TMP_InputField descriptionInput</text>
<text text-anchor="start" x="8" y="-505.5" font-family="Helvetica,sans-Serif" font-size="10.00">&#45; Button goodTaskButton</text>
<text text-anchor="start" x="8" y="-494.5" font-family="Helvetica,sans-Serif" font-size="10.00">&#45; Button badHabitButton</text>
<text text-anchor="start" x="8" y="-483.5" font-family="Helvetica,sans-Serif" font-size="10.00">&#45; Button deleteTaskButton</text>
<text text-anchor="start" x="8" y="-472.5" font-family="Helvetica,sans-Serif" font-size="10.00">&#45; bool isNewTask</text>
<text text-anchor="start" x="8" y="-461.5" font-family="Helvetica,sans-Serif" font-size="10.00">&#45; PlayerTask playerTaskOnOpen</text>
<polyline fill="none" stroke="black" points="0,-454.5 374,-454.5 "/>
<text text-anchor="start" x="8" y="-442.5" font-family="Helvetica,sans-Serif" font-size="10.00">+ void OpenUp()</text>
<text text-anchor="start" x="8" y="-431.5" font-family="Helvetica,sans-Serif" font-size="10.00">+ void OpenUp(PlayerTask taskContainer=null, TaskType</text>
<text text-anchor="start" x="8" y="-420.5" font-family="Helvetica,sans-Serif" font-size="10.00"> type=TaskType.GoodTask)</text>
<text text-anchor="start" x="8" y="-409.5" font-family="Helvetica,sans-Serif" font-size="10.00">+ void MakeItBadHabit()</text>
<text text-anchor="start" x="8" y="-398.5" font-family="Helvetica,sans-Serif" font-size="10.00">+ void MakeItGoodTask()</text>
<text text-anchor="start" x="8" y="-387.5" font-family="Helvetica,sans-Serif" font-size="10.00">+ void Cancel()</text>
<text text-anchor="start" x="8" y="-376.5" font-family="Helvetica,sans-Serif" font-size="10.00">+ void Save()</text>
<text text-anchor="start" x="8" y="-365.5" font-family="Helvetica,sans-Serif" font-size="10.00">+ void DeleteTask()</text>
<text text-anchor="start" x="8" y="-354.5" font-family="Helvetica,sans-Serif" font-size="10.00">&#45; void SavedTask(Thesis_backend.Data_Structures.PlayerTask savedTask)</text>
<text text-anchor="start" x="8" y="-343.5" font-family="Helvetica,sans-Serif" font-size="10.00">&#45; void DeletedTask(string result)</text>
<text text-anchor="start" x="8" y="-332.5" font-family="Helvetica,sans-Serif" font-size="10.00">&#45; void CollectFromFields()</text>
<text text-anchor="start" x="8" y="-321.5" font-family="Helvetica,sans-Serif" font-size="10.00">&#45; void UpdateButtons()</text>
</a>
</g>
</g>
<!-- Node4 -->
<g id="node4" class="node">
<title>Node4</title>
<g id="a_node4"><a xlink:href="classMainPage_1_1MainWindowController.html" target="_top" xlink:title="Handles the main window&#39;s controls">
<polygon fill="white" stroke="black" points="188,-0.5 188,-266.5 536,-266.5 536,-0.5 188,-0.5"/>
<text text-anchor="middle" x="362" y="-254.5" font-family="Helvetica,sans-Serif" font-size="10.00">MainPage.MainWindowController</text>
<polyline fill="none" stroke="black" points="188,-247.5 536,-247.5 "/>
<text text-anchor="start" x="196" y="-235.5" font-family="Helvetica,sans-Serif" font-size="10.00">+ Dictionary&lt; long, TaskDisplayHandler &gt; Tasks</text>
<text text-anchor="start" x="196" y="-224.5" font-family="Helvetica,sans-Serif" font-size="10.00">+ TaskSortType TaskSortType</text>
<text text-anchor="start" x="196" y="-213.5" font-family="Helvetica,sans-Serif" font-size="10.00">&#45; TMP_Text usernameText</text>
<text text-anchor="start" x="196" y="-202.5" font-family="Helvetica,sans-Serif" font-size="10.00">&#45; TMP_Text currentTaskScoreText</text>
<text text-anchor="start" x="196" y="-191.5" font-family="Helvetica,sans-Serif" font-size="10.00">&#45; GameObject taskParent</text>
<text text-anchor="start" x="196" y="-180.5" font-family="Helvetica,sans-Serif" font-size="10.00">&#45; GameObject taskPrefab</text>
<text text-anchor="start" x="196" y="-169.5" font-family="Helvetica,sans-Serif" font-size="10.00">&#45; TMP_Dropdown taskSortDropdown</text>
<polyline fill="none" stroke="black" points="188,-162.5 536,-162.5 "/>
<text text-anchor="start" x="196" y="-150.5" font-family="Helvetica,sans-Serif" font-size="10.00">+ void UpdateUserData(Thesis_backend.Data_Structures.User user)</text>
<text text-anchor="start" x="196" y="-139.5" font-family="Helvetica,sans-Serif" font-size="10.00">+ void RemoveTask(long taskId)</text>
<text text-anchor="start" x="196" y="-128.5" font-family="Helvetica,sans-Serif" font-size="10.00">+ void UpdateTaskLabel(long taskId)</text>
<text text-anchor="start" x="196" y="-117.5" font-family="Helvetica,sans-Serif" font-size="10.00">+ void SortingChanged()</text>
<text text-anchor="start" x="196" y="-106.5" font-family="Helvetica,sans-Serif" font-size="10.00">+ void LoadGoodTasks(bool updateDisplay=true)</text>
<text text-anchor="start" x="196" y="-95.5" font-family="Helvetica,sans-Serif" font-size="10.00">+ void LoadBadHabits(bool updateDisplay=true)</text>
<text text-anchor="start" x="196" y="-84.5" font-family="Helvetica,sans-Serif" font-size="10.00">+ GameObject CreateTask(PlayerTask taskContainer)</text>
<text text-anchor="start" x="196" y="-73.5" font-family="Helvetica,sans-Serif" font-size="10.00">+ void ShowTaskFail(string content)</text>
<text text-anchor="start" x="196" y="-62.5" font-family="Helvetica,sans-Serif" font-size="10.00">+ void LoadGameScene()</text>
<text text-anchor="start" x="196" y="-51.5" font-family="Helvetica,sans-Serif" font-size="10.00">&#45; async void Start()</text>
<text text-anchor="start" x="196" y="-40.5" font-family="Helvetica,sans-Serif" font-size="10.00">&#45; void LoadTasks()</text>
<text text-anchor="start" x="196" y="-29.5" font-family="Helvetica,sans-Serif" font-size="10.00">&#45; void ShowRequestFail(string content)</text>
<text text-anchor="start" x="196" y="-18.5" font-family="Helvetica,sans-Serif" font-size="10.00">&#45; void CreateTaskPrefabs(List&lt; Thesis_backend.Data</text>
<text text-anchor="start" x="196" y="-7.5" font-family="Helvetica,sans-Serif" font-size="10.00">_Structures.PlayerTask &gt; requestResult)</text>
</a>
</g>
</g>
<!-- Node1&#45;&gt;Node4 -->
<g id="edge5" class="edge">
<title>Node1&#45;&gt;Node4</title>
<path fill="none" stroke="#404040" d="M159.73,-314.07C161.53,-304 164.51,-294.2 169,-285 172.43,-277.98 176.35,-271.2 180.7,-264.65"/>
<polygon fill="none" stroke="#404040" points="180.91,-264.35 181.11,-257.14 187.84,-254.55 187.64,-261.76 180.91,-264.35"/>
<text text-anchor="middle" x="233" y="-288" font-family="Helvetica,sans-Serif" font-size="10.00"> &#45;taskOpenPanelController</text>
</g>
<!-- Node2 -->
<g id="node2" class="node">
<title>Node2</title>
<g id="a_node2"><a xlink:href="classUtility_1_1ThreadSafeMonoBehaviour.html" target="_top" xlink:title="Safely stores if the gameobject been destroyed in a bool">
<polygon fill="white" stroke="black" points="327.5,-640.5 327.5,-697.5 476.5,-697.5 476.5,-640.5 327.5,-640.5"/>
<text text-anchor="middle" x="402" y="-685.5" font-family="Helvetica,sans-Serif" font-size="10.00">ThreadSafeMonoBehaviour</text>
<polyline fill="none" stroke="black" points="327.5,-678.5 476.5,-678.5 "/>
<text text-anchor="start" x="335.5" y="-666.5" font-family="Helvetica,sans-Serif" font-size="10.00">+ bool Destroyed</text>
<polyline fill="none" stroke="black" points="327.5,-659.5 476.5,-659.5 "/>
<text text-anchor="start" x="335.5" y="-647.5" font-family="Helvetica,sans-Serif" font-size="10.00"># void OnDestroy()</text>
</a>
</g>
</g>
<!-- Node2&#45;&gt;Node1 -->
<g id="edge1" class="edge">
<title>Node2&#45;&gt;Node1</title>
<path fill="none" stroke="midnightblue" d="M366.2,-633.28C356.78,-624.14 346.01,-613.7 334.53,-602.57"/>
<polygon fill="none" stroke="midnightblue" points="363.83,-635.86 373.45,-640.31 368.71,-630.84 363.83,-635.86"/>
</g>
<!-- Node2&#45;&gt;Node4 -->
<g id="edge4" class="edge">
<title>Node2&#45;&gt;Node4</title>
<path fill="none" stroke="midnightblue" d="M400.75,-630.29C398.44,-565.52 392.81,-429.02 383,-314 381.69,-298.68 380.12,-282.65 378.43,-266.74"/>
<polygon fill="none" stroke="midnightblue" points="397.26,-630.55 401.11,-640.42 404.26,-630.3 397.26,-630.55"/>
</g>
<!-- Node5 -->
<g id="node5" class="node">
<title>Node5</title>
<g id="a_node5"><a xlink:href="classUtility_1_1ModalWindow.html" target="_top" xlink:title="Modal window for alerting the user">
<polygon fill="white" stroke="black" points="430,-397 430,-520 672,-520 672,-397 430,-397"/>
<text text-anchor="middle" x="551" y="-508" font-family="Helvetica,sans-Serif" font-size="10.00">Utility.ModalWindow</text>
<polyline fill="none" stroke="black" points="430,-501 672,-501 "/>
<text text-anchor="start" x="438" y="-489" font-family="Helvetica,sans-Serif" font-size="10.00">&#45; TMP_Text ModalTitleText</text>
<text text-anchor="start" x="438" y="-478" font-family="Helvetica,sans-Serif" font-size="10.00">&#45; TMP_Text ModalContentText</text>
<text text-anchor="start" x="438" y="-467" font-family="Helvetica,sans-Serif" font-size="10.00">&#45; Action onOkAction</text>
<polyline fill="none" stroke="black" points="430,-460 672,-460 "/>
<text text-anchor="start" x="438" y="-448" font-family="Helvetica,sans-Serif" font-size="10.00">+ void Show()</text>
<text text-anchor="start" x="438" y="-437" font-family="Helvetica,sans-Serif" font-size="10.00">+ void Show(string title, string content, Action</text>
<text text-anchor="start" x="438" y="-426" font-family="Helvetica,sans-Serif" font-size="10.00"> onOkAction=null)</text>
<text text-anchor="start" x="438" y="-415" font-family="Helvetica,sans-Serif" font-size="10.00">+ void Hide()</text>
<text text-anchor="start" x="438" y="-404" font-family="Helvetica,sans-Serif" font-size="10.00">+ void ConfirmButtonClick()</text>
</a>
</g>
</g>
<!-- Node2&#45;&gt;Node5 -->
<g id="edge7" class="edge">
<title>Node2&#45;&gt;Node5</title>
<path fill="none" stroke="midnightblue" d="M427.69,-632.05C449.63,-601.35 481.65,-556.54 507.57,-520.28"/>
<polygon fill="none" stroke="midnightblue" points="424.75,-630.14 421.79,-640.31 430.45,-634.21 424.75,-630.14"/>
</g>
<!-- Node3 -->
<g id="node3" class="node">
<title>Node3</title>
<g id="a_node3"><a xlink:title=" ">
<polygon fill="white" stroke="#bfbfbf" points="355.5,-735.5 355.5,-792.5 448.5,-792.5 448.5,-735.5 355.5,-735.5"/>
<text text-anchor="middle" x="402" y="-780.5" font-family="Helvetica,sans-Serif" font-size="10.00">MonoBehaviour</text>
<polyline fill="none" stroke="#bfbfbf" points="355.5,-773.5 448.5,-773.5 "/>
<text text-anchor="middle" x="402" y="-761.5" font-family="Helvetica,sans-Serif" font-size="10.00"> </text>
<polyline fill="none" stroke="#bfbfbf" points="355.5,-754.5 448.5,-754.5 "/>
<text text-anchor="middle" x="402" y="-742.5" font-family="Helvetica,sans-Serif" font-size="10.00"> </text>
</a>
</g>
</g>
<!-- Node3&#45;&gt;Node2 -->
<g id="edge2" class="edge">
<title>Node3&#45;&gt;Node2</title>
<path fill="none" stroke="midnightblue" d="M402,-725.24C402,-716.03 402,-706.35 402,-697.71"/>
<polygon fill="none" stroke="midnightblue" points="398.5,-725.35 402,-735.35 405.5,-725.35 398.5,-725.35"/>
</g>
<!-- Node4&#45;&gt;Node1 -->
<g id="edge3" class="edge">
<title>Node4&#45;&gt;Node1</title>
<path fill="none" stroke="#404040" d="M315.29,-266.63C310.77,-276.7 305.99,-286.6 301,-296 299.64,-298.56 298.25,-301.12 296.83,-303.69"/>
<polygon fill="none" stroke="#404040" points="296.75,-303.83 297.26,-311.02 290.82,-314.26 290.31,-307.07 296.75,-303.83"/>
<text text-anchor="middle" x="338" y="-288" font-family="Helvetica,sans-Serif" font-size="10.00"> &#45;uIController</text>
</g>
<!-- Node5&#45;&gt;Node4 -->
<g id="edge6" class="edge">
<title>Node5&#45;&gt;Node4</title>
<path fill="none" stroke="#404040" d="M515.45,-396.75C495.59,-362.81 469.96,-319 445.34,-276.93"/>
<polygon fill="none" stroke="#404040" points="445.34,-276.93 438.86,-273.77 439.28,-266.57 445.76,-269.73 445.34,-276.93"/>
<text text-anchor="middle" x="495.5" y="-288" font-family="Helvetica,sans-Serif" font-size="10.00"> &#45;modalWindow</text>
</g>
</g>
</svg>
