<?xml version="1.0" encoding="UTF-8" standalone="no"?>
<!DOCTYPE svg PUBLIC "-//W3C//DTD SVG 1.1//EN"
 "http://www.w3.org/Graphics/SVG/1.1/DTD/svg11.dtd">
<!-- Generated by graphviz version 2.43.0 (0)
 -->
<!-- Title: User.LoggedInChecker.LoggedOut Pages: 1 -->
<svg width="676pt" height="28pt"
 viewBox="0.00 0.00 676.00 28.00" xmlns="http://www.w3.org/2000/svg" xmlns:xlink="http://www.w3.org/1999/xlink">
<g id="graph0" class="graph" transform="scale(1 1) rotate(0) translate(4 24)">
<title>User.LoggedInChecker.LoggedOut</title>
<polygon fill="white" stroke="transparent" points="-4,4 -4,-24 672,-24 672,4 -4,4"/>
<!-- Node1 -->
<g id="node1" class="node">
<title>Node1</title>
<g id="a_node1"><a xlink:title="Handles if the user is not logged in">
<polygon fill="#bfbfbf" stroke="black" points="489,-0.5 489,-19.5 668,-19.5 668,-0.5 489,-0.5"/>
<text text-anchor="middle" x="578.5" y="-7.5" font-family="Helvetica,sans-Serif" font-size="10.00">User.LoggedInChecker.LoggedOut</text>
</a>
</g>
</g>
<!-- Node2 -->
<g id="node2" class="node">
<title>Node2</title>
<g id="a_node2"><a xlink:href="classUser_1_1LoggedInChecker.html#a306ce5521a6109ae00667a32fd0a442c" target="_top" xlink:title="Coroutine which calls the api endpoint to check if the user is still logged in">
<polygon fill="white" stroke="black" points="195,-0.5 195,-19.5 453,-19.5 453,-0.5 195,-0.5"/>
<text text-anchor="middle" x="324" y="-7.5" font-family="Helvetica,sans-Serif" font-size="10.00">User.LoggedInChecker.CheckLoggedInPeriodically</text>
</a>
</g>
</g>
<!-- Node1&#45;&gt;Node2 -->
<g id="edge1" class="edge">
<title>Node1&#45;&gt;Node2</title>
<path fill="none" stroke="midnightblue" d="M478.75,-10C470.4,-10 461.89,-10 453.36,-10"/>
<polygon fill="midnightblue" stroke="midnightblue" points="478.83,-13.5 488.83,-10 478.83,-6.5 478.83,-13.5"/>
</g>
<!-- Node3 -->
<g id="node3" class="node">
<title>Node3</title>
<g id="a_node3"><a xlink:href="classUser_1_1LoggedInChecker.html#a0f9199eb996ba1309b9bb6bad5d6268e" target="_top" xlink:title="Called when the script is loaded">
<polygon fill="white" stroke="black" points="0,-0.5 0,-19.5 159,-19.5 159,-0.5 0,-0.5"/>
<text text-anchor="middle" x="79.5" y="-7.5" font-family="Helvetica,sans-Serif" font-size="10.00">User.LoggedInChecker.Awake</text>
</a>
</g>
</g>
<!-- Node2&#45;&gt;Node3 -->
<g id="edge2" class="edge">
<title>Node2&#45;&gt;Node3</title>
<path fill="none" stroke="midnightblue" d="M184.52,-10C175.93,-10 167.46,-10 159.28,-10"/>
<polygon fill="midnightblue" stroke="midnightblue" points="184.65,-13.5 194.65,-10 184.65,-6.5 184.65,-13.5"/>
</g>
</g>
</svg>
