<?xml version="1.0" encoding="UTF-8" standalone="no"?>
<!DOCTYPE svg PUBLIC "-//W3C//DTD SVG 1.1//EN"
 "http://www.w3.org/Graphics/SVG/1.1/DTD/svg11.dtd">
<!-- Generated by graphviz version 2.43.0 (0)
 -->
<!-- Title: Game.UI.ShopWindow.ShowRequestFail Pages: 1 -->
<svg width="861pt" height="83pt"
 viewBox="0.00 0.00 861.00 83.00" xmlns="http://www.w3.org/2000/svg" xmlns:xlink="http://www.w3.org/1999/xlink">
<g id="graph0" class="graph" transform="scale(1 1) rotate(0) translate(4 79)">
<title>Game.UI.ShopWindow.ShowRequestFail</title>
<!-- Node1 -->
<g id="Node000001" class="node">
<title>Node1</title>
<g id="a_Node000001"><a xlink:title="Show if the request failed on the modal window.">
<polygon fill="#999999" stroke="#666666" points="853,-75 643,-75 643,-56 853,-56 853,-75"/>
<text text-anchor="middle" x="748" y="-63" font-family="Helvetica,sans-Serif" font-size="10.00">Game.UI.ShopWindow.ShowRequestFail</text>
</a>
</g>
</g>
<!-- Node2 -->
<g id="Node000002" class="node">
<title>Node2</title>
<g id="a_Node000002"><a xlink:href="classGame_1_1UI_1_1ShopItem.html#a08030b9b33414329032136c2db442bef" target="_top" xlink:title="Buy this shop item.">
<polygon fill="white" stroke="#666666" points="162.5,-75 31.5,-75 31.5,-56 162.5,-56 162.5,-75"/>
<text text-anchor="middle" x="97" y="-63" font-family="Helvetica,sans-Serif" font-size="10.00">Game.UI.ShopItem.Buy</text>
</a>
</g>
</g>
<!-- Node1&#45;&gt;Node2 -->
<g id="edge1_Node000001_Node000002" class="edge">
<title>Node1&#45;&gt;Node2</title>
<g id="a_edge1_Node000001_Node000002"><a xlink:title=" ">
<path fill="none" stroke="#63b8ff" d="M632.64,-65.5C496.01,-65.5 272.18,-65.5 162.57,-65.5"/>
<polygon fill="#63b8ff" stroke="#63b8ff" points="632.73,-69 642.73,-65.5 632.73,-62 632.73,-69"/>
</a>
</g>
</g>
<!-- Node3 -->
<g id="Node000003" class="node">
<title>Node3</title>
<g id="a_Node000003"><a xlink:href="classGame_1_1UI_1_1ShopWindow.html#a9297b39a0fa7a77e8cf3022bc28c0b35" target="_top" xlink:title="Update the shop items.">
<polygon fill="white" stroke="#666666" points="607,-56 420,-56 420,-37 607,-37 607,-56"/>
<text text-anchor="middle" x="513.5" y="-44" font-family="Helvetica,sans-Serif" font-size="10.00">Game.UI.ShopWindow.UpdateShop</text>
</a>
</g>
</g>
<!-- Node1&#45;&gt;Node3 -->
<g id="edge2_Node000001_Node000003" class="edge">
<title>Node1&#45;&gt;Node3</title>
<g id="a_edge2_Node000001_Node000003"><a xlink:title=" ">
<path fill="none" stroke="#63b8ff" d="M632.86,-56.17C624.22,-55.47 615.56,-54.76 607.07,-54.06"/>
<polygon fill="#63b8ff" stroke="#63b8ff" points="632.74,-59.67 642.99,-57 633.31,-52.7 632.74,-59.67"/>
</a>
</g>
</g>
<!-- Node4 -->
<g id="Node000004" class="node">
<title>Node4</title>
<g id="a_Node000004"><a xlink:href="classGame_1_1UI_1_1ShopItem.html#aba8c6371c3eeaecb2bb7ab1f07311869" target="_top" xlink:title="Callback when it is bought.">
<polygon fill="white" stroke="#666666" points="380,-56 234,-56 234,-37 380,-37 380,-56"/>
<text text-anchor="middle" x="307" y="-44" font-family="Helvetica,sans-Serif" font-size="10.00">Game.UI.ShopItem.Bought</text>
</a>
</g>
</g>
<!-- Node3&#45;&gt;Node4 -->
<g id="edge3_Node000003_Node000004" class="edge">
<title>Node3&#45;&gt;Node4</title>
<g id="a_edge3_Node000003_Node000004"><a xlink:title=" ">
<path fill="none" stroke="#63b8ff" d="M409.81,-46.5C399.78,-46.5 389.76,-46.5 380.14,-46.5"/>
<polygon fill="#63b8ff" stroke="#63b8ff" points="409.82,-50 419.82,-46.5 409.82,-43 409.82,-50"/>
</a>
</g>
</g>
<!-- Node5 -->
<g id="Node000005" class="node">
<title>Node5</title>
<g id="a_Node000005"><a xlink:href="classGame_1_1UI_1_1ShopWindow.html#ad9204f9c12eb8520523232c340f477b0" target="_top" xlink:title="Show the shop window.">
<polygon fill="white" stroke="#666666" points="384,-19 230,-19 230,0 384,0 384,-19"/>
<text text-anchor="middle" x="307" y="-7" font-family="Helvetica,sans-Serif" font-size="10.00">Game.UI.ShopWindow.Show</text>
</a>
</g>
</g>
<!-- Node3&#45;&gt;Node5 -->
<g id="edge5_Node000003_Node000005" class="edge">
<title>Node3&#45;&gt;Node5</title>
<g id="a_edge5_Node000003_Node000005"><a xlink:title=" ">
<path fill="none" stroke="#63b8ff" d="M449.97,-35.19C421.46,-30.03 388.07,-23.99 360.84,-19.06"/>
<polygon fill="#63b8ff" stroke="#63b8ff" points="449.37,-38.64 459.84,-36.97 450.62,-31.75 449.37,-38.64"/>
</a>
</g>
</g>
<!-- Node4&#45;&gt;Node2 -->
<g id="edge4_Node000004_Node000002" class="edge">
<title>Node4&#45;&gt;Node2</title>
<g id="a_edge4_Node000004_Node000002"><a xlink:title=" ">
<path fill="none" stroke="#63b8ff" d="M223.68,-54.02C203.43,-55.87 182.02,-57.82 162.73,-59.59"/>
<polygon fill="#63b8ff" stroke="#63b8ff" points="224.2,-57.49 233.84,-53.09 223.56,-50.52 224.2,-57.49"/>
</a>
</g>
</g>
<!-- Node6 -->
<g id="Node000006" class="node">
<title>Node6</title>
<g id="a_Node000006"><a xlink:href="classGame_1_1UI_1_1GameUI.html#a443a0569c632ba816be0bd1511b62bca" target="_top" xlink:title="Display the shop window.">
<polygon fill="white" stroke="#666666" points="194,-19 0,-19 0,0 194,0 194,-19"/>
<text text-anchor="middle" x="97" y="-7" font-family="Helvetica,sans-Serif" font-size="10.00">Game.UI.GameUI.ShowShopWindow</text>
</a>
</g>
</g>
<!-- Node5&#45;&gt;Node6 -->
<g id="edge6_Node000005_Node000006" class="edge">
<title>Node5&#45;&gt;Node6</title>
<g id="a_edge6_Node000005_Node000006"><a xlink:title=" ">
<path fill="none" stroke="#63b8ff" d="M219.57,-9.5C211.16,-9.5 202.59,-9.5 194.09,-9.5"/>
<polygon fill="#63b8ff" stroke="#63b8ff" points="219.73,-13 229.73,-9.5 219.73,-6 219.73,-13"/>
</a>
</g>
</g>
</g>
</svg>
