<?xml version="1.0" encoding="UTF-8" standalone="no"?>
<!DOCTYPE svg PUBLIC "-//W3C//DTD SVG 1.1//EN"
 "http://www.w3.org/Graphics/SVG/1.1/DTD/svg11.dtd">
<!-- Generated by graphviz version 2.43.0 (0)
 -->
<!-- Title: Utility.CoroutineRunner Pages: 1 -->
<svg width="318pt" height="183pt"
 viewBox="0.00 0.00 318.00 183.00" xmlns="http://www.w3.org/2000/svg" xmlns:xlink="http://www.w3.org/1999/xlink">
<g id="graph0" class="graph" transform="scale(1 1) rotate(0) translate(4 179)">
<title>Utility.CoroutineRunner</title>
<polygon fill="white" stroke="transparent" points="-4,4 -4,-179 314,-179 314,4 -4,4"/>
<!-- Node1 -->
<g id="node1" class="node">
<title>Node1</title>
<g id="a_node1"><a xlink:title="Singleton class to run the coroutines so they are easier to track">
<polygon fill="#bfbfbf" stroke="black" points="0,-0.5 0,-79.5 238,-79.5 238,-0.5 0,-0.5"/>
<text text-anchor="middle" x="119" y="-67.5" font-family="Helvetica,sans-Serif" font-size="10.00">Utility.CoroutineRunner</text>
<polyline fill="none" stroke="black" points="0,-60.5 238,-60.5 "/>
<text text-anchor="start" x="8" y="-48.5" font-family="Helvetica,sans-Serif" font-size="10.00">+ static CoroutineRunner Instance</text>
<polyline fill="none" stroke="black" points="0,-41.5 238,-41.5 "/>
<text text-anchor="start" x="8" y="-29.5" font-family="Helvetica,sans-Serif" font-size="10.00">+ static Coroutine RunCoroutine(IEnumerator</text>
<text text-anchor="start" x="8" y="-18.5" font-family="Helvetica,sans-Serif" font-size="10.00"> coroutine)</text>
<text text-anchor="start" x="8" y="-7.5" font-family="Helvetica,sans-Serif" font-size="10.00">+ static void StopAllCoroutinesGlobal()</text>
</a>
</g>
</g>
<!-- Node1&#45;&gt;Node1 -->
<g id="edge2" class="edge">
<title>Node1&#45;&gt;Node1</title>
<path fill="none" stroke="#404040" d="M238.31,-48.64C249.17,-46.85 256,-43.96 256,-40 256,-37.77 253.84,-35.88 250.02,-34.34"/>
<polygon fill="none" stroke="#404040" points="249.94,-34.32 243.14,-36.72 238.31,-31.36 245.12,-28.96 249.94,-34.32"/>
<text text-anchor="middle" x="283" y="-37.5" font-family="Helvetica,sans-Serif" font-size="10.00"> &#45;_instance</text>
</g>
<!-- Node2 -->
<g id="node2" class="node">
<title>Node2</title>
<g id="a_node2"><a xlink:title=" ">
<polygon fill="white" stroke="#bfbfbf" points="72.5,-117.5 72.5,-174.5 165.5,-174.5 165.5,-117.5 72.5,-117.5"/>
<text text-anchor="middle" x="119" y="-162.5" font-family="Helvetica,sans-Serif" font-size="10.00">MonoBehaviour</text>
<polyline fill="none" stroke="#bfbfbf" points="72.5,-155.5 165.5,-155.5 "/>
<text text-anchor="middle" x="119" y="-143.5" font-family="Helvetica,sans-Serif" font-size="10.00"> </text>
<polyline fill="none" stroke="#bfbfbf" points="72.5,-136.5 165.5,-136.5 "/>
<text text-anchor="middle" x="119" y="-124.5" font-family="Helvetica,sans-Serif" font-size="10.00"> </text>
</a>
</g>
</g>
<!-- Node2&#45;&gt;Node1 -->
<g id="edge1" class="edge">
<title>Node2&#45;&gt;Node1</title>
<path fill="none" stroke="midnightblue" d="M119,-107.23C119,-98.27 119,-88.69 119,-79.69"/>
<polygon fill="none" stroke="midnightblue" points="115.5,-107.4 119,-117.4 122.5,-107.4 115.5,-107.4"/>
</g>
</g>
</svg>
