<?xml version="1.0" encoding="UTF-8" standalone="no"?>
<!DOCTYPE svg PUBLIC "-//W3C//DTD SVG 1.1//EN"
 "http://www.w3.org/Graphics/SVG/1.1/DTD/svg11.dtd">
<!-- Generated by graphviz version 2.43.0 (0)
 -->
<!-- Title: Game.UI.GameUI.BackToGameMenu Pages: 1 -->
<svg width="1094pt" height="101pt"
 viewBox="0.00 0.00 1094.00 101.00" xmlns="http://www.w3.org/2000/svg" xmlns:xlink="http://www.w3.org/1999/xlink">
<g id="graph0" class="graph" transform="scale(1 1) rotate(0) translate(4 97)">
<title>Game.UI.GameUI.BackToGameMenu</title>
<!-- Node1 -->
<g id="Node000001" class="node">
<title>Node1</title>
<g id="a_Node000001"><a xlink:title="Show the main menu.">
<polygon fill="#999999" stroke="#666666" points="196,-56 0,-56 0,-37 196,-37 196,-56"/>
<text text-anchor="middle" x="98" y="-44" font-family="Helvetica,sans-Serif" font-size="10.00">Game.UI.GameUI.BackToGameMenu</text>
</a>
</g>
</g>
<!-- Node2 -->
<g id="Node000002" class="node">
<title>Node2</title>
<g id="a_Node000002"><a xlink:href="classGame_1_1UI_1_1GameUI.html#a87baf7b6bd70298f817e2c8e5e52a33a" target="_top" xlink:title="Hide the game over screen.">
<polygon fill="white" stroke="#666666" points="445,-56 232,-56 232,-37 445,-37 445,-56"/>
<text text-anchor="middle" x="338.5" y="-44" font-family="Helvetica,sans-Serif" font-size="10.00">Game.UI.GameUI.HideGameOverScreen</text>
</a>
</g>
</g>
<!-- Node1&#45;&gt;Node2 -->
<g id="edge1_Node000001_Node000002" class="edge">
<title>Node1&#45;&gt;Node2</title>
<g id="a_edge1_Node000001_Node000002"><a xlink:title=" ">
<path fill="none" stroke="#63b8ff" d="M196.01,-46.5C204.44,-46.5 213.03,-46.5 221.6,-46.5"/>
<polygon fill="#63b8ff" stroke="#63b8ff" points="221.63,-50 231.63,-46.5 221.63,-43 221.63,-50"/>
</a>
</g>
</g>
<!-- Node3 -->
<g id="Node000003" class="node">
<title>Node3</title>
<g id="a_Node000003"><a xlink:href="classGame_1_1UI_1_1GameUI.html#a4f9c8b23e2a0e5d86c53377ece2c9bac" target="_top" xlink:title="Save the game&#39;s result.">
<polygon fill="white" stroke="#666666" points="670,-56 481,-56 481,-37 670,-37 670,-56"/>
<text text-anchor="middle" x="575.5" y="-44" font-family="Helvetica,sans-Serif" font-size="10.00">Game.UI.GameUI.SaveGameResult</text>
</a>
</g>
</g>
<!-- Node2&#45;&gt;Node3 -->
<g id="edge2_Node000002_Node000003" class="edge">
<title>Node2&#45;&gt;Node3</title>
<g id="a_edge2_Node000002_Node000003"><a xlink:title=" ">
<path fill="none" stroke="#63b8ff" d="M445.31,-46.5C453.71,-46.5 462.2,-46.5 470.58,-46.5"/>
<polygon fill="#63b8ff" stroke="#63b8ff" points="470.76,-50 480.76,-46.5 470.76,-43 470.76,-50"/>
</a>
</g>
</g>
<!-- Node4 -->
<g id="Node000004" class="node">
<title>Node4</title>
<g id="a_Node000004"><a xlink:href="classUtility_1_1CoroutineRunner.html#a1c473dee723f16d86bab9d8475c8214a" target="_top" xlink:title="A helper method to start coroutines.">
<polygon fill="white" stroke="#666666" points="904,-93 706,-93 706,-74 904,-74 904,-93"/>
<text text-anchor="middle" x="805" y="-81" font-family="Helvetica,sans-Serif" font-size="10.00">Utility.CoroutineRunner.RunCoroutine</text>
</a>
</g>
</g>
<!-- Node3&#45;&gt;Node4 -->
<g id="edge3_Node000003_Node000004" class="edge">
<title>Node3&#45;&gt;Node4</title>
<g id="a_edge3_Node000003_Node000004"><a xlink:title=" ">
<path fill="none" stroke="#63b8ff" d="M635.09,-56.03C665.62,-60.99 703.14,-67.1 735.07,-72.29"/>
<polygon fill="#63b8ff" stroke="#63b8ff" points="734.78,-75.79 745.22,-73.94 735.91,-68.88 734.78,-75.79"/>
</a>
</g>
</g>
<!-- Node5 -->
<g id="Node000005" class="node">
<title>Node5</title>
<g id="a_Node000005"><a xlink:href="classGame_1_1UI_1_1GameUI.html#a984a1e174ca8249e0433de8d2d8a462c" target="_top" xlink:title="Callback after the coins amount were saved.">
<polygon fill="white" stroke="#666666" points="886,-56 724,-56 724,-37 886,-37 886,-56"/>
<text text-anchor="middle" x="805" y="-44" font-family="Helvetica,sans-Serif" font-size="10.00">Game.UI.GameUI.SavedCoins</text>
</a>
</g>
</g>
<!-- Node3&#45;&gt;Node5 -->
<g id="edge4_Node000003_Node000005" class="edge">
<title>Node3&#45;&gt;Node5</title>
<g id="a_edge4_Node000003_Node000005"><a xlink:title=" ">
<path fill="none" stroke="#63b8ff" d="M670.02,-46.5C684.42,-46.5 699.26,-46.5 713.59,-46.5"/>
<polygon fill="#63b8ff" stroke="#63b8ff" points="713.92,-50 723.92,-46.5 713.92,-43 713.92,-50"/>
</a>
</g>
</g>
<!-- Node6 -->
<g id="Node000006" class="node">
<title>Node6</title>
<g id="a_Node000006"><a xlink:href="classGame_1_1UI_1_1GameUI.html#ac464d5a547acb44085748e2ee265272f" target="_top" xlink:title="Show if the request failed on the modal window.">
<polygon fill="white" stroke="#666666" points="899,-19 711,-19 711,0 899,0 899,-19"/>
<text text-anchor="middle" x="805" y="-7" font-family="Helvetica,sans-Serif" font-size="10.00">Game.UI.GameUI.ShowRequestFail</text>
</a>
</g>
</g>
<!-- Node3&#45;&gt;Node6 -->
<g id="edge5_Node000003_Node000006" class="edge">
<title>Node3&#45;&gt;Node6</title>
<g id="a_edge5_Node000003_Node000006"><a xlink:title=" ">
<path fill="none" stroke="#63b8ff" d="M635.09,-36.97C665.62,-32.01 703.14,-25.9 735.07,-20.71"/>
<polygon fill="#63b8ff" stroke="#63b8ff" points="735.91,-24.12 745.22,-19.06 734.78,-17.21 735.91,-24.12"/>
</a>
</g>
</g>
<!-- Node7 -->
<g id="Node000007" class="node">
<title>Node7</title>
<g id="a_Node000007"><a xlink:href="classUtility_1_1ModalWindow.html#adcef8cae2dffe4247c905d042ff0a8e3" target="_top" xlink:title="Show the modal window.">
<polygon fill="white" stroke="#666666" points="1086,-19 940,-19 940,0 1086,0 1086,-19"/>
<text text-anchor="middle" x="1013" y="-7" font-family="Helvetica,sans-Serif" font-size="10.00">Utility.ModalWindow.Show</text>
</a>
</g>
</g>
<!-- Node6&#45;&gt;Node7 -->
<g id="edge6_Node000006_Node000007" class="edge">
<title>Node6&#45;&gt;Node7</title>
<g id="a_edge6_Node000006_Node000007"><a xlink:title=" ">
<path fill="none" stroke="#63b8ff" d="M899.06,-9.5C909.19,-9.5 919.44,-9.5 929.44,-9.5"/>
<polygon fill="#63b8ff" stroke="#63b8ff" points="929.73,-13 939.73,-9.5 929.73,-6 929.73,-13"/>
</a>
</g>
</g>
</g>
</svg>
