<?xml version="1.0" encoding="UTF-8" standalone="no"?>
<!DOCTYPE svg PUBLIC "-//W3C//DTD SVG 1.1//EN"
 "http://www.w3.org/Graphics/SVG/1.1/DTD/svg11.dtd">
<!-- Generated by graphviz version 2.43.0 (0)
 -->
<!-- Title: Game.Car.ChangeChunkIfNeeded Pages: 1 -->
<svg width="411pt" height="66pt"
 viewBox="0.00 0.00 411.00 66.00" xmlns="http://www.w3.org/2000/svg" xmlns:xlink="http://www.w3.org/1999/xlink">
<g id="graph0" class="graph" transform="scale(1 1) rotate(0) translate(4 62)">
<title>Game.Car.ChangeChunkIfNeeded</title>
<polygon fill="white" stroke="transparent" points="-4,4 -4,-62 407,-62 407,4 -4,4"/>
<!-- Node1 -->
<g id="node1" class="node">
<title>Node1</title>
<g id="a_node1"><a xlink:title=" ">
<polygon fill="#bfbfbf" stroke="black" points="0,-19.5 0,-38.5 179,-38.5 179,-19.5 0,-19.5"/>
<text text-anchor="middle" x="89.5" y="-26.5" font-family="Helvetica,sans-Serif" font-size="10.00">Game.Car.ChangeChunkIfNeeded</text>
</a>
</g>
</g>
<!-- Node2 -->
<g id="node2" class="node">
<title>Node2</title>
<g id="a_node2"><a xlink:href="classGame_1_1Car.html#aafa1ed6c6d66625c4e9dd1c18fb67fd3" target="_top" xlink:title=" ">
<polygon fill="white" stroke="black" points="238.5,-38.5 238.5,-57.5 379.5,-57.5 379.5,-38.5 238.5,-38.5"/>
<text text-anchor="middle" x="309" y="-45.5" font-family="Helvetica,sans-Serif" font-size="10.00">Game.Car.ChunkChanged</text>
</a>
</g>
</g>
<!-- Node1&#45;&gt;Node2 -->
<g id="edge1" class="edge">
<title>Node1&#45;&gt;Node2</title>
<path fill="none" stroke="midnightblue" d="M179.28,-36.76C195.47,-38.17 212.27,-39.64 228.18,-41.03"/>
<polygon fill="midnightblue" stroke="midnightblue" points="228.22,-44.54 238.49,-41.93 228.83,-37.57 228.22,-44.54"/>
</g>
<!-- Node3 -->
<g id="node3" class="node">
<title>Node3</title>
<g id="a_node3"><a xlink:href="classGame_1_1World_1_1GameWorld.html#a78654137c458c1b1917285e28d3d270b" target="_top" xlink:title="Gets the chunk based on the absolute position which chunk it would fall into">
<polygon fill="white" stroke="black" points="215,-0.5 215,-19.5 403,-19.5 403,-0.5 215,-0.5"/>
<text text-anchor="middle" x="309" y="-7.5" font-family="Helvetica,sans-Serif" font-size="10.00">Game.World.GameWorld.GetChunk</text>
</a>
</g>
</g>
<!-- Node1&#45;&gt;Node3 -->
<g id="edge2" class="edge">
<title>Node1&#45;&gt;Node3</title>
<path fill="none" stroke="midnightblue" d="M179.28,-21.24C187.72,-20.51 196.33,-19.76 204.89,-19.01"/>
<polygon fill="midnightblue" stroke="midnightblue" points="205.25,-22.49 214.91,-18.13 204.64,-15.52 205.25,-22.49"/>
</g>
</g>
</svg>
