<?xml version="1.0" encoding="UTF-8" standalone="no"?>
<!DOCTYPE svg PUBLIC "-//W3C//DTD SVG 1.1//EN"
 "http://www.w3.org/Graphics/SVG/1.1/DTD/svg11.dtd">
<!-- Generated by graphviz version 2.43.0 (0)
 -->
<!-- Title: DataTypes.TaskClosedEventArgs Pages: 1 -->
<svg width="265pt" height="142pt"
 viewBox="0.00 0.00 265.00 142.00" xmlns="http://www.w3.org/2000/svg" xmlns:xlink="http://www.w3.org/1999/xlink">
<g id="graph0" class="graph" transform="scale(1 1) rotate(0) translate(4 138)">
<title>DataTypes.TaskClosedEventArgs</title>
<!-- Node1 -->
<g id="Node000001" class="node">
<title>Node1</title>
<g id="a_Node000001"><a xlink:title="Event for if the task was closed.">
<polygon fill="#999999" stroke="transparent" points="257,-49 0,-49 0,0 257,0 257,-49"/>
<text text-anchor="start" x="49.5" y="-36.5" font-family="Helvetica,sans-Serif" font-size="10.00">DataTypes.TaskClosedEventArgs</text>
<text text-anchor="start" x="4.5" y="-21.5" font-family="Helvetica,sans-Serif" font-size="10.00">+</text>
<text text-anchor="start" x="17.5" y="-21.5" font-family="Helvetica,sans-Serif" font-size="10.00">bool DoesItNeedUpdating</text>
<text text-anchor="start" x="4.5" y="-6.5" font-family="Helvetica,sans-Serif" font-size="10.00">+</text>
<text text-anchor="start" x="17.5" y="-6.5" font-family="Helvetica,sans-Serif" font-size="10.00">TaskClosedEventArgs(bool doesItNeedUpdating)</text>
<polygon fill="#666666" stroke="#666666" points="0.5,-31.5 0.5,-31.5 257.5,-31.5 257.5,-31.5 0.5,-31.5"/>
<polygon fill="#666666" stroke="#666666" points="0.5,-16.5 0.5,-16.5 15.5,-16.5 15.5,-16.5 0.5,-16.5"/>
<polygon fill="#666666" stroke="#666666" points="15.5,-16.5 15.5,-16.5 257.5,-16.5 257.5,-16.5 15.5,-16.5"/>
<polygon fill="none" stroke="#666666" points="0,0 0,-49 257,-49 257,0 0,0"/>
</a>
</g>
</g>
<!-- Node2 -->
<g id="Node000002" class="node">
<title>Node2</title>
<g id="a_Node000002"><a xlink:title=" ">
<polygon fill="white" stroke="transparent" points="158.5,-134 98.5,-134 98.5,-85 158.5,-85 158.5,-134"/>
<text text-anchor="start" x="103.5" y="-121.5" font-family="Helvetica,sans-Serif" font-size="10.00">EventArgs</text>
<text text-anchor="start" x="126.5" y="-106.5" font-family="Helvetica,sans-Serif" font-size="10.00"> </text>
<text text-anchor="start" x="126.5" y="-91.5" font-family="Helvetica,sans-Serif" font-size="10.00"> </text>
<polygon fill="#666666" stroke="#666666" points="98.5,-116.5 98.5,-116.5 158.5,-116.5 158.5,-116.5 98.5,-116.5"/>
<polygon fill="#666666" stroke="#666666" points="98.5,-101.5 98.5,-101.5 158.5,-101.5 158.5,-101.5 98.5,-101.5"/>
<polygon fill="none" stroke="#666666" points="98.5,-85 98.5,-134 158.5,-134 158.5,-85 98.5,-85"/>
</a>
</g>
</g>
<!-- Node2&#45;&gt;Node1 -->
<g id="edge1_Node000001_Node000002" class="edge">
<title>Node2&#45;&gt;Node1</title>
<g id="a_edge1_Node000001_Node000002"><a xlink:title=" ">
<path fill="none" stroke="#63b8ff" d="M128.5,-74.77C128.5,-66.17 128.5,-57.1 128.5,-49.12"/>
<polygon fill="none" stroke="#63b8ff" points="125,-74.94 128.5,-84.94 132,-74.94 125,-74.94"/>
</a>
</g>
</g>
</g>
</svg>
