<?xml version="1.0" encoding="UTF-8" standalone="no"?>
<!DOCTYPE svg PUBLIC "-//W3C//DTD SVG 1.1//EN"
 "http://www.w3.org/Graphics/SVG/1.1/DTD/svg11.dtd">
<!-- Generated by graphviz version 2.43.0 (0)
 -->
<!-- Title: Game.UI.GameUI.BuyImmunity Pages: 1 -->
<svg width="623pt" height="175pt"
 viewBox="0.00 0.00 623.00 175.00" xmlns="http://www.w3.org/2000/svg" xmlns:xlink="http://www.w3.org/1999/xlink">
<g id="graph0" class="graph" transform="scale(1 1) rotate(0) translate(4 171)">
<title>Game.UI.GameUI.BuyImmunity</title>
<!-- Node1 -->
<g id="Node000001" class="node">
<title>Node1</title>
<g id="a_Node000001"><a xlink:title="Buy the immunity power up.">
<polygon fill="#999999" stroke="#666666" points="171,-93 0,-93 0,-74 171,-74 171,-93"/>
<text text-anchor="middle" x="85.5" y="-81" font-family="Helvetica,sans-Serif" font-size="10.00">Game.UI.GameUI.BuyImmunity</text>
</a>
</g>
</g>
<!-- Node2 -->
<g id="Node000002" class="node">
<title>Node2</title>
<g id="a_Node000002"><a xlink:href="classGame_1_1PlayerCar.html#a17bdd48255bfc4b1f00c106451981bc3" target="_top" xlink:title="Apply the immunity bonus to the player.">
<polygon fill="white" stroke="#666666" points="392.5,-167 219.5,-167 219.5,-148 392.5,-148 392.5,-167"/>
<text text-anchor="middle" x="306" y="-155" font-family="Helvetica,sans-Serif" font-size="10.00">Game.PlayerCar.ApplyImmunity</text>
</a>
</g>
</g>
<!-- Node1&#45;&gt;Node2 -->
<g id="edge1_Node000001_Node000002" class="edge">
<title>Node1&#45;&gt;Node2</title>
<g id="a_edge1_Node000001_Node000002"><a xlink:title=" ">
<path fill="none" stroke="#63b8ff" d="M103.5,-93.09C126.35,-105.58 168.53,-127.25 207,-139.5 214.42,-141.86 222.25,-143.95 230.14,-145.79"/>
<polygon fill="#63b8ff" stroke="#63b8ff" points="229.6,-149.25 240.11,-147.98 231.1,-142.42 229.6,-149.25"/>
</a>
</g>
</g>
<!-- Node3 -->
<g id="Node000003" class="node">
<title>Node3</title>
<g id="a_Node000003"><a xlink:href="classGame_1_1UI_1_1GameUI.html#a5917dd3ff591dc192c83474a0db6b79d" target="_top" xlink:title="Callback after the player bought the immunity.">
<polygon fill="white" stroke="#666666" points="399.5,-130 212.5,-130 212.5,-111 399.5,-111 399.5,-130"/>
<text text-anchor="middle" x="306" y="-118" font-family="Helvetica,sans-Serif" font-size="10.00">Game.UI.GameUI.BoughtImmunity</text>
</a>
</g>
</g>
<!-- Node1&#45;&gt;Node3 -->
<g id="edge2_Node000001_Node000003" class="edge">
<title>Node1&#45;&gt;Node3</title>
<g id="a_edge2_Node000001_Node000003"><a xlink:title=" ">
<path fill="none" stroke="#63b8ff" d="M142.77,-93.03C171.97,-97.97 207.82,-104.04 238.39,-109.22"/>
<polygon fill="#63b8ff" stroke="#63b8ff" points="238.1,-112.72 248.54,-110.94 239.27,-105.82 238.1,-112.72"/>
</a>
</g>
</g>
<!-- Node5 -->
<g id="Node000005" class="node">
<title>Node5</title>
<g id="a_Node000005"><a xlink:href="classGame_1_1PlayerCar.html#a1c74b2e5f747bf336b29e1ebc7be878a" target="_top" xlink:title="Cancel the immunity bonus.">
<polygon fill="white" stroke="#666666" points="395.5,-93 216.5,-93 216.5,-74 395.5,-74 395.5,-93"/>
<text text-anchor="middle" x="306" y="-81" font-family="Helvetica,sans-Serif" font-size="10.00">Game.PlayerCar.CancelImmunity</text>
</a>
</g>
</g>
<!-- Node1&#45;&gt;Node5 -->
<g id="edge4_Node000001_Node000005" class="edge">
<title>Node1&#45;&gt;Node5</title>
<g id="a_edge4_Node000001_Node000005"><a xlink:title=" ">
<path fill="none" stroke="#63b8ff" d="M171.29,-83.5C182.7,-83.5 194.49,-83.5 206.12,-83.5"/>
<polygon fill="#63b8ff" stroke="#63b8ff" points="206.28,-87 216.28,-83.5 206.28,-80 206.28,-87"/>
</a>
</g>
</g>
<!-- Node6 -->
<g id="Node000006" class="node">
<title>Node6</title>
<g id="a_Node000006"><a xlink:href="classUtility_1_1CoroutineRunner.html#a1c473dee723f16d86bab9d8475c8214a" target="_top" xlink:title="A helper method to start coroutines.">
<polygon fill="white" stroke="#666666" points="405,-56 207,-56 207,-37 405,-37 405,-56"/>
<text text-anchor="middle" x="306" y="-44" font-family="Helvetica,sans-Serif" font-size="10.00">Utility.CoroutineRunner.RunCoroutine</text>
</a>
</g>
</g>
<!-- Node1&#45;&gt;Node6 -->
<g id="edge5_Node000001_Node000006" class="edge">
<title>Node1&#45;&gt;Node6</title>
<g id="a_edge5_Node000001_Node000006"><a xlink:title=" ">
<path fill="none" stroke="#63b8ff" d="M142.77,-73.97C171.97,-69.03 207.82,-62.96 238.39,-57.78"/>
<polygon fill="#63b8ff" stroke="#63b8ff" points="239.27,-61.18 248.54,-56.06 238.1,-54.28 239.27,-61.18"/>
</a>
</g>
</g>
<!-- Node7 -->
<g id="Node000007" class="node">
<title>Node7</title>
<g id="a_Node000007"><a xlink:href="classGame_1_1UI_1_1GameUI.html#ac464d5a547acb44085748e2ee265272f" target="_top" xlink:title="Show if the request failed on the modal window.">
<polygon fill="white" stroke="#666666" points="400,-19 212,-19 212,0 400,0 400,-19"/>
<text text-anchor="middle" x="306" y="-7" font-family="Helvetica,sans-Serif" font-size="10.00">Game.UI.GameUI.ShowRequestFail</text>
</a>
</g>
</g>
<!-- Node1&#45;&gt;Node7 -->
<g id="edge6_Node000001_Node000007" class="edge">
<title>Node1&#45;&gt;Node7</title>
<g id="a_edge6_Node000001_Node000007"><a xlink:title=" ">
<path fill="none" stroke="#63b8ff" d="M103.94,-73.94C126.92,-61.72 168.89,-40.7 207,-28.5 215.61,-25.74 224.77,-23.32 233.91,-21.21"/>
<polygon fill="#63b8ff" stroke="#63b8ff" points="234.77,-24.61 243.79,-19.05 233.28,-17.77 234.77,-24.61"/>
</a>
</g>
</g>
<!-- Node4 -->
<g id="Node000004" class="node">
<title>Node4</title>
<g id="a_Node000004"><a xlink:href="classUser_1_1UserData.html#a103846d4ce97a5d089423d4efd1a5ec0" target="_top" xlink:title="Update the user&#39;s task score.">
<polygon fill="white" stroke="#666666" points="615,-130 441,-130 441,-111 615,-111 615,-130"/>
<text text-anchor="middle" x="528" y="-118" font-family="Helvetica,sans-Serif" font-size="10.00">User.UserData.UpdateTaskScore</text>
</a>
</g>
</g>
<!-- Node3&#45;&gt;Node4 -->
<g id="edge3_Node000003_Node000004" class="edge">
<title>Node3&#45;&gt;Node4</title>
<g id="a_edge3_Node000003_Node000004"><a xlink:title=" ">
<path fill="none" stroke="#63b8ff" d="M399.66,-120.5C409.88,-120.5 420.3,-120.5 430.56,-120.5"/>
<polygon fill="#63b8ff" stroke="#63b8ff" points="430.76,-124 440.76,-120.5 430.76,-117 430.76,-124"/>
</a>
</g>
</g>
<!-- Node8 -->
<g id="Node000008" class="node">
<title>Node8</title>
<g id="a_Node000008"><a xlink:href="classUtility_1_1ModalWindow.html#adcef8cae2dffe4247c905d042ff0a8e3" target="_top" xlink:title="Show the modal window.">
<polygon fill="white" stroke="#666666" points="601,-19 455,-19 455,0 601,0 601,-19"/>
<text text-anchor="middle" x="528" y="-7" font-family="Helvetica,sans-Serif" font-size="10.00">Utility.ModalWindow.Show</text>
</a>
</g>
</g>
<!-- Node7&#45;&gt;Node8 -->
<g id="edge7_Node000007_Node000008" class="edge">
<title>Node7&#45;&gt;Node8</title>
<g id="a_edge7_Node000007_Node000008"><a xlink:title=" ">
<path fill="none" stroke="#63b8ff" d="M400.3,-9.5C415,-9.5 430.11,-9.5 444.54,-9.5"/>
<polygon fill="#63b8ff" stroke="#63b8ff" points="444.92,-13 454.92,-9.5 444.92,-6 444.92,-13"/>
</a>
</g>
</g>
</g>
</svg>
