<?xml version="1.0" encoding="UTF-8" standalone="no"?>
<!DOCTYPE svg PUBLIC "-//W3C//DTD SVG 1.1//EN"
 "http://www.w3.org/Graphics/SVG/1.1/DTD/svg11.dtd">
<!-- Generated by graphviz version 2.43.0 (0)
 -->
<!-- Title: Game.World.GameWorld Pages: 1 -->
<svg width="931pt" height="1136pt"
 viewBox="0.00 0.00 931.00 1136.00" xmlns="http://www.w3.org/2000/svg" xmlns:xlink="http://www.w3.org/1999/xlink">
<g id="graph0" class="graph" transform="scale(1 1) rotate(0) translate(4 1132)">
<title>Game.World.GameWorld</title>
<!-- Node1 -->
<g id="Node000001" class="node">
<title>Node1</title>
<g id="a_Node000001"><a xlink:title="A class for handling chunk loading and unloading.">
<polygon fill="#999999" stroke="transparent" points="923,-163 667,-163 667,-39 923,-39 923,-163"/>
<text text-anchor="start" x="734.5" y="-151" font-family="Helvetica,sans-Serif" font-size="10.00">Game.World.GameWorld</text>
<text text-anchor="start" x="673.5" y="-136" font-family="Helvetica,sans-Serif" font-size="10.00">&#45;</text>
<text text-anchor="start" x="684" y="-136" font-family="Helvetica,sans-Serif" font-size="10.00">GameObject ChunkPrefab</text>
<text text-anchor="start" x="671" y="-121" font-family="Helvetica,sans-Serif" font-size="10.00">+</text>
<text text-anchor="start" x="684" y="-121" font-family="Helvetica,sans-Serif" font-size="10.00">Chunk GetChunk(Vector3 GameObjectPos)</text>
<text text-anchor="start" x="671" y="-106" font-family="Helvetica,sans-Serif" font-size="10.00">+</text>
<text text-anchor="start" x="684" y="-106" font-family="Helvetica,sans-Serif" font-size="10.00">async Task CreateNewGame()</text>
<text text-anchor="start" x="671" y="-91" font-family="Helvetica,sans-Serif" font-size="10.00">+</text>
<text text-anchor="start" x="684" y="-91" font-family="Helvetica,sans-Serif" font-size="10.00">async Task LoadChunk(int x, int z)</text>
<text text-anchor="start" x="671" y="-76" font-family="Helvetica,sans-Serif" font-size="10.00">+</text>
<text text-anchor="start" x="684" y="-76" font-family="Helvetica,sans-Serif" font-size="10.00">void HideChunk(int col, int row)</text>
<text text-anchor="start" x="671" y="-61" font-family="Helvetica,sans-Serif" font-size="10.00">+</text>
<text text-anchor="start" x="684" y="-61" font-family="Helvetica,sans-Serif" font-size="10.00">Chunk GetChunkWithoutLoad(int col, int row)</text>
<text text-anchor="start" x="671" y="-46" font-family="Helvetica,sans-Serif" font-size="10.00">+</text>
<text text-anchor="start" x="684" y="-46" font-family="Helvetica,sans-Serif" font-size="10.00">async Task&lt; Chunk &gt; GetChunk(int col, int row)</text>
<polygon fill="#666666" stroke="#666666" points="667,-146 667,-146 923,-146 923,-146 667,-146"/>
<polygon fill="#666666" stroke="#666666" points="667,-131 667,-131 682,-131 682,-131 667,-131"/>
<polygon fill="#666666" stroke="#666666" points="682,-131 682,-131 923,-131 923,-131 682,-131"/>
<polygon fill="none" stroke="#666666" points="667,-39 667,-163 923,-163 923,-39 667,-39"/>
</a>
</g>
</g>
<!-- Node2 -->
<g id="Node000002" class="node">
<title>Node2</title>
<g id="a_Node000002"><a xlink:href="classUtility_1_1ThreadSafeMonoBehaviour.html" target="_top" xlink:title="Safely stores if the gameobject been destroyed in a bool.">
<polygon fill="white" stroke="transparent" points="468.5,-1014 325.5,-1014 325.5,-965 468.5,-965 468.5,-1014"/>
<text text-anchor="start" x="331" y="-1001.5" font-family="Helvetica,sans-Serif" font-size="10.00">ThreadSafeMonoBehaviour</text>
<text text-anchor="start" x="339.5" y="-986.5" font-family="Helvetica,sans-Serif" font-size="10.00">+</text>
<text text-anchor="start" x="362" y="-986.5" font-family="Helvetica,sans-Serif" font-size="10.00">bool Destroyed</text>
<text text-anchor="start" x="339.5" y="-971.5" font-family="Helvetica,sans-Serif" font-size="10.00">#</text>
<text text-anchor="start" x="362" y="-971.5" font-family="Helvetica,sans-Serif" font-size="10.00">void OnDestroy()</text>
<polygon fill="#666666" stroke="#666666" points="326,-996.5 326,-996.5 469,-996.5 469,-996.5 326,-996.5"/>
<polygon fill="#666666" stroke="#666666" points="326,-981.5 326,-981.5 360,-981.5 360,-981.5 326,-981.5"/>
<polygon fill="#666666" stroke="#666666" points="360,-981.5 360,-981.5 469,-981.5 469,-981.5 360,-981.5"/>
<polygon fill="none" stroke="#666666" points="325.5,-965 325.5,-1014 468.5,-1014 468.5,-965 325.5,-965"/>
</a>
</g>
</g>
<!-- Node2&#45;&gt;Node1 -->
<g id="edge1_Node000001_Node000002" class="edge">
<title>Node2&#45;&gt;Node1</title>
<g id="a_edge1_Node000001_Node000002"><a xlink:title=" ">
<path fill="none" stroke="#63b8ff" d="M473.34,-960.67C507.34,-944.75 545.22,-921.56 570,-890 747.16,-664.39 784.83,-305.35 792.84,-163.01"/>
<polygon fill="none" stroke="#63b8ff" points="471.52,-957.65 463.86,-964.97 474.42,-964.03 471.52,-957.65"/>
</a>
</g>
</g>
<!-- Node4 -->
<g id="Node000004" class="node">
<title>Node4</title>
<g id="a_Node000004"><a xlink:href="classGame_1_1World_1_1Chunk.html" target="_top" xlink:title="Stores a single chunk of the world.">
<polygon fill="white" stroke="transparent" points="561,-890 233,-890 233,-249 561,-249 561,-890"/>
<text text-anchor="start" x="350" y="-877.5" font-family="Helvetica,sans-Serif" font-size="10.00">Game.World.Chunk</text>
<text text-anchor="start" x="237" y="-862.5" font-family="Helvetica,sans-Serif" font-size="10.00">+</text>
<text text-anchor="start" x="250" y="-862.5" font-family="Helvetica,sans-Serif" font-size="10.00">float XOffset</text>
<text text-anchor="start" x="237" y="-847.5" font-family="Helvetica,sans-Serif" font-size="10.00">+</text>
<text text-anchor="start" x="250" y="-847.5" font-family="Helvetica,sans-Serif" font-size="10.00">float ZOffset</text>
<text text-anchor="start" x="237" y="-832.5" font-family="Helvetica,sans-Serif" font-size="10.00">+</text>
<text text-anchor="start" x="250" y="-832.5" font-family="Helvetica,sans-Serif" font-size="10.00">bool RandomizeOffset</text>
<text text-anchor="start" x="237" y="-817.5" font-family="Helvetica,sans-Serif" font-size="10.00">+</text>
<text text-anchor="start" x="250" y="-817.5" font-family="Helvetica,sans-Serif" font-size="10.00">GameObject straightRoadPrefab</text>
<text text-anchor="start" x="237" y="-802.5" font-family="Helvetica,sans-Serif" font-size="10.00">+</text>
<text text-anchor="start" x="250" y="-802.5" font-family="Helvetica,sans-Serif" font-size="10.00">GameObject grassPrefab</text>
<text text-anchor="start" x="237" y="-787.5" font-family="Helvetica,sans-Serif" font-size="10.00">+</text>
<text text-anchor="start" x="250" y="-787.5" font-family="Helvetica,sans-Serif" font-size="10.00">GameObject coinPrefab</text>
<text text-anchor="start" x="237" y="-772.5" font-family="Helvetica,sans-Serif" font-size="10.00">+</text>
<text text-anchor="start" x="250" y="-772.5" font-family="Helvetica,sans-Serif" font-size="10.00">int? zSize</text>
<text text-anchor="start" x="237" y="-757.5" font-family="Helvetica,sans-Serif" font-size="10.00">+</text>
<text text-anchor="start" x="250" y="-757.5" font-family="Helvetica,sans-Serif" font-size="10.00">int? xSize</text>
<text text-anchor="start" x="237" y="-742.5" font-family="Helvetica,sans-Serif" font-size="10.00">+</text>
<text text-anchor="start" x="250" y="-742.5" font-family="Helvetica,sans-Serif" font-size="10.00">int Row</text>
<text text-anchor="start" x="237" y="-727.5" font-family="Helvetica,sans-Serif" font-size="10.00">+</text>
<text text-anchor="start" x="250" y="-727.5" font-family="Helvetica,sans-Serif" font-size="10.00">int Col</text>
<text text-anchor="start" x="237" y="-712.5" font-family="Helvetica,sans-Serif" font-size="10.00">+</text>
<text text-anchor="start" x="250" y="-712.5" font-family="Helvetica,sans-Serif" font-size="10.00">bool[,] Roads</text>
<text text-anchor="start" x="237" y="-697.5" font-family="Helvetica,sans-Serif" font-size="10.00">+</text>
<text text-anchor="start" x="250" y="-697.5" font-family="Helvetica,sans-Serif" font-size="10.00">List&lt; EdgeRoadContainer &gt; EdgeRoads</text>
<text text-anchor="start" x="239.5" y="-682.5" font-family="Helvetica,sans-Serif" font-size="10.00">&#45;</text>
<text text-anchor="start" x="250" y="-682.5" font-family="Helvetica,sans-Serif" font-size="10.00">GameObject curvedRoadPrefab</text>
<text text-anchor="start" x="239.5" y="-667.5" font-family="Helvetica,sans-Serif" font-size="10.00">&#45;</text>
<text text-anchor="start" x="250" y="-667.5" font-family="Helvetica,sans-Serif" font-size="10.00">GameObject threeWayRoadPrefab</text>
<text text-anchor="start" x="239.5" y="-652.5" font-family="Helvetica,sans-Serif" font-size="10.00">&#45;</text>
<text text-anchor="start" x="250" y="-652.5" font-family="Helvetica,sans-Serif" font-size="10.00">GameObject crossRoadsPrefab</text>
<text text-anchor="start" x="239.5" y="-637.5" font-family="Helvetica,sans-Serif" font-size="10.00">&#45;</text>
<text text-anchor="start" x="250" y="-637.5" font-family="Helvetica,sans-Serif" font-size="10.00">List&lt; Building &gt; buildings</text>
<text text-anchor="start" x="239.5" y="-622.5" font-family="Helvetica,sans-Serif" font-size="10.00">&#45;</text>
<text text-anchor="start" x="250" y="-622.5" font-family="Helvetica,sans-Serif" font-size="10.00">List&lt; Prop &gt; props</text>
<text text-anchor="start" x="239.5" y="-607.5" font-family="Helvetica,sans-Serif" font-size="10.00">&#45;</text>
<text text-anchor="start" x="250" y="-607.5" font-family="Helvetica,sans-Serif" font-size="10.00">Dictionary&lt; ChunkCellType, List&lt; Vector3 &gt; &gt; chunkCells</text>
<text text-anchor="start" x="239.5" y="-592.5" font-family="Helvetica,sans-Serif" font-size="10.00">&#45;</text>
<text text-anchor="start" x="250" y="-592.5" font-family="Helvetica,sans-Serif" font-size="10.00">List&lt; Vector3Int &gt; roads</text>
<text text-anchor="start" x="239.5" y="-577.5" font-family="Helvetica,sans-Serif" font-size="10.00">&#45;</text>
<text text-anchor="start" x="250" y="-577.5" font-family="Helvetica,sans-Serif" font-size="10.00">Dictionary&lt; ChunkCellType, List&lt; GameObject &gt; &gt;</text>
<text text-anchor="start" x="250" y="-566.5" font-family="Helvetica,sans-Serif" font-size="10.00"> objectsToCombine</text>
<text text-anchor="start" x="239.5" y="-551.5" font-family="Helvetica,sans-Serif" font-size="10.00">&#45;</text>
<text text-anchor="start" x="250" y="-551.5" font-family="Helvetica,sans-Serif" font-size="10.00">float</text>
<text text-anchor="start" x="237" y="-536.5" font-family="Helvetica,sans-Serif" font-size="10.00">+</text>
<text text-anchor="start" x="250" y="-536.5" font-family="Helvetica,sans-Serif" font-size="10.00">void Display()</text>
<text text-anchor="start" x="237" y="-521.5" font-family="Helvetica,sans-Serif" font-size="10.00">+</text>
<text text-anchor="start" x="250" y="-521.5" font-family="Helvetica,sans-Serif" font-size="10.00">async Task InitChunk(int col, int row, List&lt; EdgeRoadContainer</text>
<text text-anchor="start" x="250" y="-510.5" font-family="Helvetica,sans-Serif" font-size="10.00"> &gt; edgeRoads, GameWorld world)</text>
<text text-anchor="start" x="237" y="-495.5" font-family="Helvetica,sans-Serif" font-size="10.00">+</text>
<text text-anchor="start" x="250" y="-495.5" font-family="Helvetica,sans-Serif" font-size="10.00">void HideChunk()</text>
<text text-anchor="start" x="237" y="-480.5" font-family="Helvetica,sans-Serif" font-size="10.00">+</text>
<text text-anchor="start" x="250" y="-480.5" font-family="Helvetica,sans-Serif" font-size="10.00">Vector3 GetARandomRoad()</text>
<text text-anchor="start" x="237" y="-465.5" font-family="Helvetica,sans-Serif" font-size="10.00">+</text>
<text text-anchor="start" x="250" y="-465.5" font-family="Helvetica,sans-Serif" font-size="10.00">async Task SpawnWorldObjects()</text>
<text text-anchor="start" x="237" y="-450.5" font-family="Helvetica,sans-Serif" font-size="10.00">+</text>
<text text-anchor="start" x="250" y="-450.5" font-family="Helvetica,sans-Serif" font-size="10.00">static void InitUniTaskLoop()</text>
<text text-anchor="start" x="239.5" y="-435.5" font-family="Helvetica,sans-Serif" font-size="10.00">&#45;</text>
<text text-anchor="start" x="250" y="-435.5" font-family="Helvetica,sans-Serif" font-size="10.00">async void Awake()</text>
<text text-anchor="start" x="239.5" y="-420.5" font-family="Helvetica,sans-Serif" font-size="10.00">&#45;</text>
<text text-anchor="start" x="250" y="-420.5" font-family="Helvetica,sans-Serif" font-size="10.00">void BuildingLoaded(GameObject building)</text>
<text text-anchor="start" x="239.5" y="-405.5" font-family="Helvetica,sans-Serif" font-size="10.00">&#45;</text>
<text text-anchor="start" x="250" y="-405.5" font-family="Helvetica,sans-Serif" font-size="10.00">void PropLoaded(GameObject prop)</text>
<text text-anchor="start" x="239.5" y="-390.5" font-family="Helvetica,sans-Serif" font-size="10.00">&#45;</text>
<text text-anchor="start" x="250" y="-390.5" font-family="Helvetica,sans-Serif" font-size="10.00">float GetAbsolutePosition()</text>
<text text-anchor="start" x="239.5" y="-375.5" font-family="Helvetica,sans-Serif" font-size="10.00">&#45;</text>
<text text-anchor="start" x="250" y="-375.5" font-family="Helvetica,sans-Serif" font-size="10.00">void LoadFromSettings()</text>
<text text-anchor="start" x="239.5" y="-360.5" font-family="Helvetica,sans-Serif" font-size="10.00">&#45;</text>
<text text-anchor="start" x="250" y="-360.5" font-family="Helvetica,sans-Serif" font-size="10.00">void CreateTiles()</text>
<text text-anchor="start" x="239.5" y="-345.5" font-family="Helvetica,sans-Serif" font-size="10.00">&#45;</text>
<text text-anchor="start" x="250" y="-345.5" font-family="Helvetica,sans-Serif" font-size="10.00">ChunkCellContainer DetermineRoadType(int col, int row)</text>
<text text-anchor="start" x="239.5" y="-330.5" font-family="Helvetica,sans-Serif" font-size="10.00">&#45;</text>
<text text-anchor="start" x="250" y="-330.5" font-family="Helvetica,sans-Serif" font-size="10.00">ChunkCellContainer DetermineTileType(int x, int z)</text>
<text text-anchor="start" x="239.5" y="-315.5" font-family="Helvetica,sans-Serif" font-size="10.00">&#45;</text>
<text text-anchor="start" x="250" y="-315.5" font-family="Helvetica,sans-Serif" font-size="10.00">void GenerateCellMatrix()</text>
<text text-anchor="start" x="239.5" y="-300.5" font-family="Helvetica,sans-Serif" font-size="10.00">&#45;</text>
<text text-anchor="start" x="250" y="-300.5" font-family="Helvetica,sans-Serif" font-size="10.00">IEnumerator AddRoadBuildings()</text>
<text text-anchor="start" x="239.5" y="-285.5" font-family="Helvetica,sans-Serif" font-size="10.00">&#45;</text>
<text text-anchor="start" x="250" y="-285.5" font-family="Helvetica,sans-Serif" font-size="10.00">IEnumerator AddEnvironmentProps()</text>
<text text-anchor="start" x="239.5" y="-270.5" font-family="Helvetica,sans-Serif" font-size="10.00">&#45;</text>
<text text-anchor="start" x="250" y="-270.5" font-family="Helvetica,sans-Serif" font-size="10.00">void LockAndTryToPlaceBuilding(int index, int row, int col)</text>
<text text-anchor="start" x="239.5" y="-255.5" font-family="Helvetica,sans-Serif" font-size="10.00">&#45;</text>
<text text-anchor="start" x="250" y="-255.5" font-family="Helvetica,sans-Serif" font-size="10.00">async Task&lt; Chunk[,]&gt; GetNearbyChunks(int row, int col)</text>
<polygon fill="#666666" stroke="#666666" points="233,-872.5 233,-872.5 561,-872.5 561,-872.5 233,-872.5"/>
<polygon fill="#666666" stroke="#666666" points="233,-546.5 233,-546.5 248,-546.5 248,-546.5 233,-546.5"/>
<polygon fill="#666666" stroke="#666666" points="248,-546.5 248,-546.5 561,-546.5 561,-546.5 248,-546.5"/>
<polygon fill="none" stroke="#666666" points="233,-249 233,-890 561,-890 561,-249 233,-249"/>
</a>
</g>
</g>
<!-- Node2&#45;&gt;Node4 -->
<g id="edge4_Node000004_Node000002" class="edge">
<title>Node2&#45;&gt;Node4</title>
<g id="a_edge4_Node000004_Node000002"><a xlink:title=" ">
<path fill="none" stroke="#63b8ff" d="M397,-954.52C397,-937.64 397,-915.44 397,-890.23"/>
<polygon fill="none" stroke="#63b8ff" points="393.5,-954.83 397,-964.83 400.5,-954.83 393.5,-954.83"/>
</a>
</g>
</g>
<!-- Node6 -->
<g id="Node000006" class="node">
<title>Node6</title>
<g id="a_Node000006"><a xlink:href="classGame_1_1World_1_1GameWorld.html" target="_top" xlink:title="A class for handling chunk loading and unloading.">
<polygon fill="white" stroke="transparent" points="329,-163 73,-163 73,-39 329,-39 329,-163"/>
<text text-anchor="start" x="140.5" y="-151" font-family="Helvetica,sans-Serif" font-size="10.00">Game.World.GameWorld</text>
<text text-anchor="start" x="79.5" y="-136" font-family="Helvetica,sans-Serif" font-size="10.00">&#45;</text>
<text text-anchor="start" x="90" y="-136" font-family="Helvetica,sans-Serif" font-size="10.00">GameObject ChunkPrefab</text>
<text text-anchor="start" x="77" y="-121" font-family="Helvetica,sans-Serif" font-size="10.00">+</text>
<text text-anchor="start" x="90" y="-121" font-family="Helvetica,sans-Serif" font-size="10.00">Chunk GetChunk(Vector3 GameObjectPos)</text>
<text text-anchor="start" x="77" y="-106" font-family="Helvetica,sans-Serif" font-size="10.00">+</text>
<text text-anchor="start" x="90" y="-106" font-family="Helvetica,sans-Serif" font-size="10.00">async Task CreateNewGame()</text>
<text text-anchor="start" x="77" y="-91" font-family="Helvetica,sans-Serif" font-size="10.00">+</text>
<text text-anchor="start" x="90" y="-91" font-family="Helvetica,sans-Serif" font-size="10.00">async Task LoadChunk(int x, int z)</text>
<text text-anchor="start" x="77" y="-76" font-family="Helvetica,sans-Serif" font-size="10.00">+</text>
<text text-anchor="start" x="90" y="-76" font-family="Helvetica,sans-Serif" font-size="10.00">void HideChunk(int col, int row)</text>
<text text-anchor="start" x="77" y="-61" font-family="Helvetica,sans-Serif" font-size="10.00">+</text>
<text text-anchor="start" x="90" y="-61" font-family="Helvetica,sans-Serif" font-size="10.00">Chunk GetChunkWithoutLoad(int col, int row)</text>
<text text-anchor="start" x="77" y="-46" font-family="Helvetica,sans-Serif" font-size="10.00">+</text>
<text text-anchor="start" x="90" y="-46" font-family="Helvetica,sans-Serif" font-size="10.00">async Task&lt; Chunk &gt; GetChunk(int col, int row)</text>
<polygon fill="#666666" stroke="#666666" points="73,-146 73,-146 329,-146 329,-146 73,-146"/>
<polygon fill="#666666" stroke="#666666" points="73,-131 73,-131 88,-131 88,-131 73,-131"/>
<polygon fill="#666666" stroke="#666666" points="88,-131 88,-131 329,-131 329,-131 88,-131"/>
<polygon fill="none" stroke="#666666" points="73,-39 73,-163 329,-163 329,-39 73,-39"/>
</a>
</g>
</g>
<!-- Node2&#45;&gt;Node6 -->
<g id="edge8_Node000006_Node000002" class="edge">
<title>Node2&#45;&gt;Node6</title>
<g id="a_edge8_Node000006_Node000002"><a xlink:title=" ">
<path fill="none" stroke="#63b8ff" d="M316.19,-962.86C281.6,-947.49 244.51,-924.13 224,-890 82.37,-654.36 148.84,-303.35 184.04,-163.1"/>
<polygon fill="none" stroke="#63b8ff" points="314.82,-966.08 325.39,-966.79 317.57,-959.64 314.82,-966.08"/>
</a>
</g>
</g>
<!-- Node3 -->
<g id="Node000003" class="node">
<title>Node3</title>
<g id="a_Node000003"><a xlink:title=" ">
<polygon fill="white" stroke="transparent" points="440.5,-1128 353.5,-1128 353.5,-1079 440.5,-1079 440.5,-1128"/>
<text text-anchor="start" x="359" y="-1115.5" font-family="Helvetica,sans-Serif" font-size="10.00">MonoBehaviour</text>
<text text-anchor="start" x="395.5" y="-1100.5" font-family="Helvetica,sans-Serif" font-size="10.00"> </text>
<text text-anchor="start" x="395.5" y="-1085.5" font-family="Helvetica,sans-Serif" font-size="10.00"> </text>
<polygon fill="#666666" stroke="#666666" points="354,-1110.5 354,-1110.5 441,-1110.5 441,-1110.5 354,-1110.5"/>
<polygon fill="#666666" stroke="#666666" points="354,-1095.5 354,-1095.5 441,-1095.5 441,-1095.5 354,-1095.5"/>
<polygon fill="none" stroke="#666666" points="353.5,-1079 353.5,-1128 440.5,-1128 440.5,-1079 353.5,-1079"/>
</a>
</g>
</g>
<!-- Node3&#45;&gt;Node2 -->
<g id="edge2_Node000002_Node000003" class="edge">
<title>Node3&#45;&gt;Node2</title>
<g id="a_edge2_Node000002_Node000003"><a xlink:title=" ">
<path fill="none" stroke="#63b8ff" d="M397,-1068.36C397,-1050.85 397,-1029.95 397,-1014.22"/>
<polygon fill="none" stroke="#63b8ff" points="393.5,-1068.75 397,-1078.75 400.5,-1068.75 393.5,-1068.75"/>
</a>
</g>
</g>
<!-- Node4&#45;&gt;Node1 -->
<g id="edge3_Node000001_Node000004" class="edge">
<title>Node4&#45;&gt;Node1</title>
<g id="a_edge3_Node000001_Node000004"><a xlink:title=" ">
<path fill="none" stroke="#63b8ff" d="M561.18,-376.06C622.71,-303.94 688.83,-226.44 735.01,-172.32"/>
<polygon fill="none" stroke="#63b8ff" points="735.03,-172.3 735.88,-165.13 742.82,-163.17 741.96,-170.33 735.03,-172.3"/>
</a>
</g>
<text text-anchor="middle" x="709.5" y="-223" font-family="Helvetica,sans-Serif" font-size="10.00" fill="grey"> &#45;Chunks</text>
</g>
<!-- Node5 -->
<g id="Node000005" class="node">
<title>Node5</title>
<g id="a_Node000005"><a xlink:href="classGame_1_1World_1_1RoadGenerator.html" target="_top" xlink:title="Generates a new road structure.">
<polygon fill="white" stroke="transparent" points="649,-202 347,-202 347,0 649,0 649,-202"/>
<text text-anchor="start" x="429.5" y="-190" font-family="Helvetica,sans-Serif" font-size="10.00">Game.World.RoadGenerator</text>
<text text-anchor="start" x="351" y="-175" font-family="Helvetica,sans-Serif" font-size="10.00">+</text>
<text text-anchor="start" x="364" y="-175" font-family="Helvetica,sans-Serif" font-size="10.00">int NumberOfEdgeRoads</text>
<text text-anchor="start" x="351" y="-160" font-family="Helvetica,sans-Serif" font-size="10.00">+</text>
<text text-anchor="start" x="364" y="-160" font-family="Helvetica,sans-Serif" font-size="10.00">bool[,] RoadMatrix</text>
<text text-anchor="start" x="351" y="-145" font-family="Helvetica,sans-Serif" font-size="10.00">+</text>
<text text-anchor="start" x="364" y="-145" font-family="Helvetica,sans-Serif" font-size="10.00">List&lt; EdgeRoadContainer &gt; EdgeRoads</text>
<text text-anchor="start" x="353.5" y="-130" font-family="Helvetica,sans-Serif" font-size="10.00">&#45;</text>
<text text-anchor="start" x="364" y="-130" font-family="Helvetica,sans-Serif" font-size="10.00">int size</text>
<text text-anchor="start" x="353.5" y="-115" font-family="Helvetica,sans-Serif" font-size="10.00">&#45;</text>
<text text-anchor="start" x="364" y="-115" font-family="Helvetica,sans-Serif" font-size="10.00">int numberOfPlacedRoads</text>
<text text-anchor="start" x="353.5" y="-100" font-family="Helvetica,sans-Serif" font-size="10.00">&#45;</text>
<text text-anchor="start" x="364" y="-100" font-family="Helvetica,sans-Serif" font-size="10.00">bool[,] lockRoad</text>
<text text-anchor="start" x="351" y="-85" font-family="Helvetica,sans-Serif" font-size="10.00">+</text>
<text text-anchor="start" x="364" y="-85" font-family="Helvetica,sans-Serif" font-size="10.00">RoadGenerator(int size, List&lt; EdgeRoadContainer</text>
<text text-anchor="start" x="364" y="-74" font-family="Helvetica,sans-Serif" font-size="10.00"> &gt; startPositions, Chunk[,] nearbyChunks)</text>
<text text-anchor="start" x="353.5" y="-59" font-family="Helvetica,sans-Serif" font-size="10.00">&#45;</text>
<text text-anchor="start" x="364" y="-59" font-family="Helvetica,sans-Serif" font-size="10.00">void CreateRoad(Vector2Int roadPos, Vector2Int</text>
<text text-anchor="start" x="364" y="-48" font-family="Helvetica,sans-Serif" font-size="10.00"> roadDir, int forwardCounter=0)</text>
<text text-anchor="start" x="353.5" y="-33" font-family="Helvetica,sans-Serif" font-size="10.00">&#45;</text>
<text text-anchor="start" x="364" y="-33" font-family="Helvetica,sans-Serif" font-size="10.00">bool GoinTowardsEdge(Vector2Int position, Vector2Int dir)</text>
<text text-anchor="start" x="353.5" y="-18" font-family="Helvetica,sans-Serif" font-size="10.00">&#45;</text>
<text text-anchor="start" x="364" y="-18" font-family="Helvetica,sans-Serif" font-size="10.00">bool CheckForward(Vector2Int position, Vector2Int</text>
<text text-anchor="start" x="364" y="-7" font-family="Helvetica,sans-Serif" font-size="10.00"> dir, int counter)</text>
<polygon fill="#666666" stroke="#666666" points="347,-185 347,-185 649,-185 649,-185 347,-185"/>
<polygon fill="#666666" stroke="#666666" points="347,-95 347,-95 362,-95 362,-95 347,-95"/>
<polygon fill="#666666" stroke="#666666" points="362,-95 362,-95 649,-95 649,-95 362,-95"/>
<polygon fill="none" stroke="#666666" points="347,0 347,-202 649,-202 649,0 347,0"/>
</a>
</g>
</g>
<!-- Node4&#45;&gt;Node5 -->
<g id="edge6_Node000005_Node000004" class="edge">
<title>Node4&#45;&gt;Node5</title>
<g id="a_edge6_Node000005_Node000004"><a xlink:title=" ">
<path fill="none" stroke="#63b8ff" d="M472.35,-248.84C473.59,-242.85 474.81,-236.9 476,-231 477.12,-225.45 478.23,-219.75 479.33,-213.99"/>
<polygon fill="none" stroke="#63b8ff" points="479.34,-213.91 476.51,-207.28 481.55,-202.12 484.38,-208.75 479.34,-213.91"/>
</a>
</g>
<text text-anchor="middle" x="516.5" y="-223" font-family="Helvetica,sans-Serif" font-size="10.00" fill="grey"> &#45;nearbyChunks</text>
</g>
<!-- Node4&#45;&gt;Node6 -->
<g id="edge9_Node000006_Node000004" class="edge">
<title>Node4&#45;&gt;Node6</title>
<g id="a_edge9_Node000006_Node000004"><a xlink:title=" ">
<path fill="none" stroke="#63b8ff" d="M254.26,-249C251.8,-242.96 249.38,-236.95 247,-231 239.73,-212.81 232.37,-192.96 225.74,-174.41"/>
<polygon fill="none" stroke="#63b8ff" points="225.72,-174.37 219.94,-170.05 221.71,-163.06 227.48,-167.37 225.72,-174.37"/>
</a>
</g>
<text text-anchor="middle" x="268.5" y="-223" font-family="Helvetica,sans-Serif" font-size="10.00" fill="grey"> &#45;Chunks</text>
</g>
<!-- Node5&#45;&gt;Node4 -->
<g id="edge5_Node000004_Node000005" class="edge">
<title>Node5&#45;&gt;Node4</title>
<g id="a_edge5_Node000004_Node000005"><a xlink:title=" ">
<path fill="none" stroke="#63b8ff" d="M405.96,-202.18C402.92,-208 400.23,-213.95 398,-220 395.95,-225.56 394.06,-231.21 392.31,-236.93"/>
<polygon fill="none" stroke="#63b8ff" points="392.23,-237.22 394.42,-244.09 388.93,-248.75 386.73,-241.89 392.23,-237.22"/>
</a>
</g>
<text text-anchor="middle" x="437" y="-223" font-family="Helvetica,sans-Serif" font-size="10.00" fill="grey"> &#45;roadGenerator</text>
</g>
<!-- Node6&#45;&gt;Node4 -->
<g id="edge7_Node000004_Node000006" class="edge">
<title>Node6&#45;&gt;Node4</title>
<g id="a_edge7_Node000004_Node000006"><a xlink:title=" ">
<path fill="none" stroke="#63b8ff" d="M256.41,-163.25C270.14,-180.68 283.81,-200.31 294,-220 297.03,-225.87 299.99,-231.84 302.88,-237.89"/>
<polygon fill="none" stroke="#63b8ff" points="302.93,-237.99 309.08,-241.75 307.99,-248.87 301.83,-245.12 302.93,-237.99"/>
</a>
</g>
<text text-anchor="middle" x="315" y="-223" font-family="Helvetica,sans-Serif" font-size="10.00" fill="grey"> &#45;world</text>
</g>
<!-- Node7 -->
<g id="Node000007" class="node">
<title>Node7</title>
<g id="a_Node000007"><a xlink:title=" ">
<polygon fill="white" stroke="transparent" points="240,-1042 0,-1042 0,-937 240,-937 240,-1042"/>
<text text-anchor="start" x="59" y="-1029.5" font-family="Helvetica,sans-Serif" font-size="10.00">Game.World.BuildingCell</text>
<text text-anchor="start" x="4" y="-1014.5" font-family="Helvetica,sans-Serif" font-size="10.00">+</text>
<text text-anchor="start" x="17" y="-1014.5" font-family="Helvetica,sans-Serif" font-size="10.00">BuildingDirection RoadDirection</text>
<text text-anchor="start" x="4" y="-999.5" font-family="Helvetica,sans-Serif" font-size="10.00">+</text>
<text text-anchor="start" x="17" y="-999.5" font-family="Helvetica,sans-Serif" font-size="10.00">bool Buildable</text>
<text text-anchor="start" x="4" y="-984.5" font-family="Helvetica,sans-Serif" font-size="10.00">+</text>
<text text-anchor="start" x="17" y="-984.5" font-family="Helvetica,sans-Serif" font-size="10.00">bool GotRoadNext</text>
<text text-anchor="start" x="4" y="-969.5" font-family="Helvetica,sans-Serif" font-size="10.00">+</text>
<text text-anchor="start" x="17" y="-969.5" font-family="Helvetica,sans-Serif" font-size="10.00">BuildingCell(BuildingDirection roadDirection,</text>
<text text-anchor="start" x="17" y="-958.5" font-family="Helvetica,sans-Serif" font-size="10.00"> bool buildable)</text>
<text text-anchor="start" x="4" y="-943.5" font-family="Helvetica,sans-Serif" font-size="10.00">+</text>
<text text-anchor="start" x="17" y="-943.5" font-family="Helvetica,sans-Serif" font-size="10.00">void Occupy()</text>
<polygon fill="#666666" stroke="#666666" points="0,-1024.5 0,-1024.5 240,-1024.5 240,-1024.5 0,-1024.5"/>
<polygon fill="#666666" stroke="#666666" points="0,-979.5 0,-979.5 15,-979.5 15,-979.5 0,-979.5"/>
<polygon fill="#666666" stroke="#666666" points="15,-979.5 15,-979.5 240,-979.5 240,-979.5 15,-979.5"/>
<polygon fill="none" stroke="#666666" points="0,-937 0,-1042 240,-1042 240,-937 0,-937"/>
</a>
</g>
</g>
<!-- Node7&#45;&gt;Node4 -->
<g id="edge10_Node000004_Node000007" class="edge">
<title>Node7&#45;&gt;Node4</title>
<g id="a_edge10_Node000004_Node000007"><a xlink:title=" ">
<path fill="none" stroke="#63b8ff" d="M154.24,-936.83C173.37,-907.97 198.78,-869.62 225.97,-828.59"/>
<polygon fill="none" stroke="#63b8ff" points="226.1,-828.39 226.08,-821.18 232.73,-818.39 232.75,-825.6 226.1,-828.39"/>
</a>
</g>
<text text-anchor="middle" x="208" y="-911" font-family="Helvetica,sans-Serif" font-size="10.00" fill="grey"> &#45;buildingCells</text>
</g>
</g>
</svg>
