<?xml version="1.0" encoding="UTF-8" standalone="no"?>
<!DOCTYPE svg PUBLIC "-//W3C//DTD SVG 1.1//EN"
 "http://www.w3.org/Graphics/SVG/1.1/DTD/svg11.dtd">
<!-- Generated by graphviz version 2.43.0 (0)
 -->
<!-- Title: Game.NpcCar Pages: 1 -->
<svg width="285pt" height="607pt"
 viewBox="0.00 0.00 285.00 607.00" xmlns="http://www.w3.org/2000/svg" xmlns:xlink="http://www.w3.org/1999/xlink">
<g id="graph0" class="graph" transform="scale(1 1) rotate(0) translate(4 603)">
<title>Game.NpcCar</title>
<!-- Node1 -->
<g id="Node000001" class="node">
<title>Node1</title>
<g id="a_Node000001"><a xlink:title="Object for the npc cars It is not yet used.">
<polygon fill="#999999" stroke="transparent" points="269,-134 8,-134 8,-85 269,-85 269,-134"/>
<text text-anchor="start" x="105" y="-121.5" font-family="Helvetica,sans-Serif" font-size="10.00">Game.NpcCar</text>
<text text-anchor="start" x="137" y="-106.5" font-family="Helvetica,sans-Serif" font-size="10.00"> </text>
<text text-anchor="start" x="12.5" y="-91.5" font-family="Helvetica,sans-Serif" font-size="10.00">+</text>
<text text-anchor="start" x="25.5" y="-91.5" font-family="Helvetica,sans-Serif" font-size="10.00">float DetermineSteeringDirectionTowardsPlayer()</text>
<polygon fill="#666666" stroke="#666666" points="8.5,-116.5 8.5,-116.5 269.5,-116.5 269.5,-116.5 8.5,-116.5"/>
<polygon fill="#666666" stroke="#666666" points="8.5,-101.5 8.5,-101.5 269.5,-101.5 269.5,-101.5 8.5,-101.5"/>
<polygon fill="none" stroke="#666666" points="8,-85 8,-134 269,-134 269,-85 8,-85"/>
</a>
</g>
</g>
<!-- Node5 -->
<g id="Node000005" class="node">
<title>Node5</title>
<g id="a_Node000005"><a xlink:href="classGame_1_1CopCar.html" target="_top" xlink:title="Handles the police car.">
<polygon fill="white" stroke="transparent" points="204.5,-49 72.5,-49 72.5,0 204.5,0 204.5,-49"/>
<text text-anchor="start" x="104.5" y="-36.5" font-family="Helvetica,sans-Serif" font-size="10.00">Game.CopCar</text>
<text text-anchor="start" x="136.5" y="-21.5" font-family="Helvetica,sans-Serif" font-size="10.00"> </text>
<text text-anchor="start" x="76.5" y="-6.5" font-family="Helvetica,sans-Serif" font-size="10.00">#</text>
<text text-anchor="start" x="89.5" y="-6.5" font-family="Helvetica,sans-Serif" font-size="10.00">override void Update()</text>
<polygon fill="#666666" stroke="#666666" points="72.5,-31.5 72.5,-31.5 204.5,-31.5 204.5,-31.5 72.5,-31.5"/>
<polygon fill="#666666" stroke="#666666" points="72.5,-16.5 72.5,-16.5 204.5,-16.5 204.5,-16.5 72.5,-16.5"/>
<polygon fill="none" stroke="#666666" points="72.5,0 72.5,-49 204.5,-49 204.5,0 72.5,0"/>
</a>
</g>
</g>
<!-- Node1&#45;&gt;Node5 -->
<g id="edge4_Node000001_Node000005" class="edge">
<title>Node1&#45;&gt;Node5</title>
<g id="a_edge4_Node000001_Node000005"><a xlink:title=" ">
<path fill="none" stroke="#63b8ff" d="M138.5,-74.77C138.5,-66.17 138.5,-57.1 138.5,-49.12"/>
<polygon fill="none" stroke="#63b8ff" points="135,-74.94 138.5,-84.94 142,-74.94 135,-74.94"/>
</a>
</g>
</g>
<!-- Node2 -->
<g id="Node000002" class="node">
<title>Node2</title>
<g id="a_Node000002"><a xlink:href="classGame_1_1Car.html" target="_top" xlink:title="Handles the basic Car functionalities.">
<polygon fill="white" stroke="transparent" points="277,-429 0,-429 0,-170 277,-170 277,-429"/>
<text text-anchor="start" x="130.5" y="-416.5" font-family="Helvetica,sans-Serif" font-size="10.00">Car</text>
<text text-anchor="start" x="4.5" y="-401.5" font-family="Helvetica,sans-Serif" font-size="10.00">+</text>
<text text-anchor="start" x="17.5" y="-401.5" font-family="Helvetica,sans-Serif" font-size="10.00">EventHandler DestroyedEvent</text>
<text text-anchor="start" x="4.5" y="-386.5" font-family="Helvetica,sans-Serif" font-size="10.00">+</text>
<text text-anchor="start" x="17.5" y="-386.5" font-family="Helvetica,sans-Serif" font-size="10.00">float Health</text>
<text text-anchor="start" x="4.5" y="-371.5" font-family="Helvetica,sans-Serif" font-size="10.00">+</text>
<text text-anchor="start" x="17.5" y="-371.5" font-family="Helvetica,sans-Serif" font-size="10.00">float MAX_HEALTH</text>
<text text-anchor="start" x="4.5" y="-356.5" font-family="Helvetica,sans-Serif" font-size="10.00">+</text>
<text text-anchor="start" x="17.5" y="-356.5" font-family="Helvetica,sans-Serif" font-size="10.00">bool Alive</text>
<text text-anchor="start" x="4.5" y="-341.5" font-family="Helvetica,sans-Serif" font-size="10.00">#</text>
<text text-anchor="start" x="17.5" y="-341.5" font-family="Helvetica,sans-Serif" font-size="10.00">GameController gameController</text>
<text text-anchor="start" x="4.5" y="-326.5" font-family="Helvetica,sans-Serif" font-size="10.00">#</text>
<text text-anchor="start" x="17.5" y="-326.5" font-family="Helvetica,sans-Serif" font-size="10.00">CarController carController</text>
<text text-anchor="start" x="4.5" y="-311.5" font-family="Helvetica,sans-Serif" font-size="10.00">#</text>
<text text-anchor="start" x="17.5" y="-311.5" font-family="Helvetica,sans-Serif" font-size="10.00">Chunk lastChunk</text>
<text text-anchor="start" x="4.5" y="-296.5" font-family="Helvetica,sans-Serif" font-size="10.00">#</text>
<text text-anchor="start" x="17.5" y="-296.5" font-family="Helvetica,sans-Serif" font-size="10.00">Dictionary&lt; EffectType, EffectScript &gt; effects</text>
<text text-anchor="start" x="7" y="-281.5" font-family="Helvetica,sans-Serif" font-size="10.00">&#45;</text>
<text text-anchor="start" x="17.5" y="-281.5" font-family="Helvetica,sans-Serif" font-size="10.00">float health</text>
<text text-anchor="start" x="4.5" y="-266.5" font-family="Helvetica,sans-Serif" font-size="10.00">+</text>
<text text-anchor="start" x="17.5" y="-266.5" font-family="Helvetica,sans-Serif" font-size="10.00">void Kill()</text>
<text text-anchor="start" x="4.5" y="-251.5" font-family="Helvetica,sans-Serif" font-size="10.00">+</text>
<text text-anchor="start" x="17.5" y="-251.5" font-family="Helvetica,sans-Serif" font-size="10.00">void Init(GameController gameController)</text>
<text text-anchor="start" x="4.5" y="-236.5" font-family="Helvetica,sans-Serif" font-size="10.00">#</text>
<text text-anchor="start" x="17.5" y="-236.5" font-family="Helvetica,sans-Serif" font-size="10.00">virtual void Update()</text>
<text text-anchor="start" x="4.5" y="-221.5" font-family="Helvetica,sans-Serif" font-size="10.00">#</text>
<text text-anchor="start" x="17.5" y="-221.5" font-family="Helvetica,sans-Serif" font-size="10.00">bool ChangeChunkIfNeeded()</text>
<text text-anchor="start" x="4.5" y="-206.5" font-family="Helvetica,sans-Serif" font-size="10.00">#</text>
<text text-anchor="start" x="17.5" y="-206.5" font-family="Helvetica,sans-Serif" font-size="10.00">virtual async void ChunkChanged(Chunk newChunk)</text>
<text text-anchor="start" x="4.5" y="-191.5" font-family="Helvetica,sans-Serif" font-size="10.00">#</text>
<text text-anchor="start" x="17.5" y="-191.5" font-family="Helvetica,sans-Serif" font-size="10.00">virtual void OnCollisionEnter(Collision collision)</text>
<text text-anchor="start" x="4.5" y="-176.5" font-family="Helvetica,sans-Serif" font-size="10.00">#</text>
<text text-anchor="start" x="17.5" y="-176.5" font-family="Helvetica,sans-Serif" font-size="10.00">void Awake()</text>
<polygon fill="#666666" stroke="#666666" points="0.5,-411.5 0.5,-411.5 277.5,-411.5 277.5,-411.5 0.5,-411.5"/>
<polygon fill="#666666" stroke="#666666" points="0.5,-276.5 0.5,-276.5 15.5,-276.5 15.5,-276.5 0.5,-276.5"/>
<polygon fill="#666666" stroke="#666666" points="15.5,-276.5 15.5,-276.5 277.5,-276.5 277.5,-276.5 15.5,-276.5"/>
<polygon fill="none" stroke="#666666" points="0,-170 0,-429 277,-429 277,-170 0,-170"/>
</a>
</g>
</g>
<!-- Node2&#45;&gt;Node1 -->
<g id="edge1_Node000001_Node000002" class="edge">
<title>Node2&#45;&gt;Node1</title>
<g id="a_edge1_Node000001_Node000002"><a xlink:title=" ">
<path fill="none" stroke="#63b8ff" d="M138.5,-159.75C138.5,-150.18 138.5,-141.42 138.5,-134.03"/>
<polygon fill="none" stroke="#63b8ff" points="135,-159.98 138.5,-169.98 142,-159.98 135,-159.98"/>
</a>
</g>
</g>
<!-- Node3 -->
<g id="Node000003" class="node">
<title>Node3</title>
<g id="a_Node000003"><a xlink:href="classUtility_1_1ThreadSafeMonoBehaviour.html" target="_top" xlink:title="Safely stores if the gameobject been destroyed in a bool.">
<polygon fill="white" stroke="transparent" points="210,-514 67,-514 67,-465 210,-465 210,-514"/>
<text text-anchor="start" x="72.5" y="-501.5" font-family="Helvetica,sans-Serif" font-size="10.00">ThreadSafeMonoBehaviour</text>
<text text-anchor="start" x="81" y="-486.5" font-family="Helvetica,sans-Serif" font-size="10.00">+</text>
<text text-anchor="start" x="103.5" y="-486.5" font-family="Helvetica,sans-Serif" font-size="10.00">bool Destroyed</text>
<text text-anchor="start" x="81" y="-471.5" font-family="Helvetica,sans-Serif" font-size="10.00">#</text>
<text text-anchor="start" x="103.5" y="-471.5" font-family="Helvetica,sans-Serif" font-size="10.00">void OnDestroy()</text>
<polygon fill="#666666" stroke="#666666" points="67.5,-496.5 67.5,-496.5 210.5,-496.5 210.5,-496.5 67.5,-496.5"/>
<polygon fill="#666666" stroke="#666666" points="67.5,-481.5 67.5,-481.5 101.5,-481.5 101.5,-481.5 67.5,-481.5"/>
<polygon fill="#666666" stroke="#666666" points="101.5,-481.5 101.5,-481.5 210.5,-481.5 210.5,-481.5 101.5,-481.5"/>
<polygon fill="none" stroke="#666666" points="67,-465 67,-514 210,-514 210,-465 67,-465"/>
</a>
</g>
</g>
<!-- Node3&#45;&gt;Node2 -->
<g id="edge2_Node000002_Node000003" class="edge">
<title>Node3&#45;&gt;Node2</title>
<g id="a_edge2_Node000002_Node000003"><a xlink:title=" ">
<path fill="none" stroke="#63b8ff" d="M138.5,-454.5C138.5,-446.83 138.5,-438.24 138.5,-429.15"/>
<polygon fill="none" stroke="#63b8ff" points="135,-454.69 138.5,-464.69 142,-454.69 135,-454.69"/>
</a>
</g>
</g>
<!-- Node4 -->
<g id="Node000004" class="node">
<title>Node4</title>
<g id="a_Node000004"><a xlink:title=" ">
<polygon fill="white" stroke="transparent" points="182,-599 95,-599 95,-550 182,-550 182,-599"/>
<text text-anchor="start" x="100.5" y="-586.5" font-family="Helvetica,sans-Serif" font-size="10.00">MonoBehaviour</text>
<text text-anchor="start" x="137" y="-571.5" font-family="Helvetica,sans-Serif" font-size="10.00"> </text>
<text text-anchor="start" x="137" y="-556.5" font-family="Helvetica,sans-Serif" font-size="10.00"> </text>
<polygon fill="#666666" stroke="#666666" points="95.5,-581.5 95.5,-581.5 182.5,-581.5 182.5,-581.5 95.5,-581.5"/>
<polygon fill="#666666" stroke="#666666" points="95.5,-566.5 95.5,-566.5 182.5,-566.5 182.5,-566.5 95.5,-566.5"/>
<polygon fill="none" stroke="#666666" points="95,-550 95,-599 182,-599 182,-550 95,-550"/>
</a>
</g>
</g>
<!-- Node4&#45;&gt;Node3 -->
<g id="edge3_Node000003_Node000004" class="edge">
<title>Node4&#45;&gt;Node3</title>
<g id="a_edge3_Node000003_Node000004"><a xlink:title=" ">
<path fill="none" stroke="#63b8ff" d="M138.5,-539.77C138.5,-531.17 138.5,-522.1 138.5,-514.12"/>
<polygon fill="none" stroke="#63b8ff" points="135,-539.94 138.5,-549.94 142,-539.94 135,-539.94"/>
</a>
</g>
</g>
</g>
</svg>
