<?xml version="1.0" encoding="UTF-8" standalone="no"?>
<!DOCTYPE svg PUBLIC "-//W3C//DTD SVG 1.1//EN"
 "http://www.w3.org/Graphics/SVG/1.1/DTD/svg11.dtd">
<!-- Generated by graphviz version 2.43.0 (0)
 -->
<!-- Title: Game.UI.GameUI.SavedCoins Pages: 1 -->
<svg width="938pt" height="142pt"
 viewBox="0.00 0.00 938.00 142.00" xmlns="http://www.w3.org/2000/svg" xmlns:xlink="http://www.w3.org/1999/xlink">
<g id="graph0" class="graph" transform="scale(1 1) rotate(0) translate(4 138)">
<title>Game.UI.GameUI.SavedCoins</title>
<polygon fill="white" stroke="transparent" points="-4,4 -4,-138 934,-138 934,4 -4,4"/>
<!-- Node1 -->
<g id="node1" class="node">
<title>Node1</title>
<g id="a_node1"><a xlink:title="Callback after the coins amount were saved">
<polygon fill="#bfbfbf" stroke="black" points="768,-57.5 768,-76.5 930,-76.5 930,-57.5 768,-57.5"/>
<text text-anchor="middle" x="849" y="-64.5" font-family="Helvetica,sans-Serif" font-size="10.00">Game.UI.GameUI.SavedCoins</text>
</a>
</g>
</g>
<!-- Node2 -->
<g id="node2" class="node">
<title>Node2</title>
<g id="a_node2"><a xlink:href="classGame_1_1UI_1_1GameUI.html#a4f9c8b23e2a0e5d86c53377ece2c9bac" target="_top" xlink:title="Save the game&#39;s result">
<polygon fill="white" stroke="black" points="543,-57.5 543,-76.5 732,-76.5 732,-57.5 543,-57.5"/>
<text text-anchor="middle" x="637.5" y="-64.5" font-family="Helvetica,sans-Serif" font-size="10.00">Game.UI.GameUI.SaveGameResult</text>
</a>
</g>
</g>
<!-- Node1&#45;&gt;Node2 -->
<g id="edge1" class="edge">
<title>Node1&#45;&gt;Node2</title>
<path fill="none" stroke="midnightblue" d="M757.69,-67C749.25,-67 740.69,-67 732.23,-67"/>
<polygon fill="midnightblue" stroke="midnightblue" points="757.9,-70.5 767.9,-67 757.9,-63.5 757.9,-70.5"/>
</g>
<!-- Node3 -->
<g id="node3" class="node">
<title>Node3</title>
<g id="a_node3"><a xlink:href="classGame_1_1UI_1_1GameUI.html#a87baf7b6bd70298f817e2c8e5e52a33a" target="_top" xlink:title="Hide the game over screen">
<polygon fill="white" stroke="black" points="294,-57.5 294,-76.5 507,-76.5 507,-57.5 294,-57.5"/>
<text text-anchor="middle" x="400.5" y="-64.5" font-family="Helvetica,sans-Serif" font-size="10.00">Game.UI.GameUI.HideGameOverScreen</text>
</a>
</g>
</g>
<!-- Node2&#45;&gt;Node3 -->
<g id="edge2" class="edge">
<title>Node2&#45;&gt;Node3</title>
<path fill="none" stroke="midnightblue" d="M532.94,-67C524.37,-67 515.7,-67 507.11,-67"/>
<polygon fill="midnightblue" stroke="midnightblue" points="532.95,-70.5 542.95,-67 532.95,-63.5 532.95,-70.5"/>
</g>
<!-- Node4 -->
<g id="node4" class="node">
<title>Node4</title>
<g id="a_node4"><a xlink:href="classGame_1_1UI_1_1GameUI.html#ae468c173078a10af94f671a2f8db940b" target="_top" xlink:title="Show the main menu">
<polygon fill="white" stroke="black" points="31,-114.5 31,-133.5 227,-133.5 227,-114.5 31,-114.5"/>
<text text-anchor="middle" x="129" y="-121.5" font-family="Helvetica,sans-Serif" font-size="10.00">Game.UI.GameUI.BackToGameMenu</text>
</a>
</g>
</g>
<!-- Node3&#45;&gt;Node4 -->
<g id="edge3" class="edge">
<title>Node3&#45;&gt;Node4</title>
<path fill="none" stroke="midnightblue" d="M358.14,-79.46C330.08,-87.57 292.05,-97.93 258,-105 240.62,-108.61 221.78,-111.8 204.03,-114.49"/>
<polygon fill="midnightblue" stroke="midnightblue" points="359.38,-82.74 368,-76.58 357.42,-76.02 359.38,-82.74"/>
</g>
<!-- Node5 -->
<g id="node5" class="node">
<title>Node5</title>
<g id="a_node5"><a xlink:href="classGame_1_1UI_1_1GameUI.html#aaec0b0e9165ba1d2dc25f1c562f5478a" target="_top" xlink:title="Show the main menu, but don&#39;t save the scores">
<polygon fill="white" stroke="black" points="0,-76.5 0,-95.5 258,-95.5 258,-76.5 0,-76.5"/>
<text text-anchor="middle" x="129" y="-83.5" font-family="Helvetica,sans-Serif" font-size="10.00">Game.UI.GameUI.BackToGameMenuWithoutSave</text>
</a>
</g>
</g>
<!-- Node3&#45;&gt;Node5 -->
<g id="edge4" class="edge">
<title>Node3&#45;&gt;Node5</title>
<path fill="none" stroke="midnightblue" d="M283.59,-75.17C275.21,-75.76 266.72,-76.36 258.27,-76.96"/>
<polygon fill="midnightblue" stroke="midnightblue" points="284.03,-78.65 293.76,-74.45 283.54,-71.67 284.03,-78.65"/>
</g>
<!-- Node6 -->
<g id="node6" class="node">
<title>Node6</title>
<g id="a_node6"><a xlink:href="classGame_1_1UI_1_1GameUI.html#a4248468e8aaa0b1f7bb24162e9bef6c7" target="_top" xlink:title="Move back to the tasks">
<polygon fill="white" stroke="black" points="45.5,-38.5 45.5,-57.5 212.5,-57.5 212.5,-38.5 45.5,-38.5"/>
<text text-anchor="middle" x="129" y="-45.5" font-family="Helvetica,sans-Serif" font-size="10.00">Game.UI.GameUI.BackToTasks</text>
</a>
</g>
</g>
<!-- Node3&#45;&gt;Node6 -->
<g id="edge5" class="edge">
<title>Node3&#45;&gt;Node6</title>
<path fill="none" stroke="midnightblue" d="M283.57,-58.83C259.67,-57.14 234.95,-55.4 212.53,-53.82"/>
<polygon fill="midnightblue" stroke="midnightblue" points="283.54,-62.33 293.76,-59.55 284.03,-55.35 283.54,-62.33"/>
</g>
<!-- Node7 -->
<g id="node7" class="node">
<title>Node7</title>
<g id="a_node7"><a xlink:href="classGame_1_1UI_1_1GameUI.html#ad581ee67e01ac3bcdec06cf2538f06e4" target="_top" xlink:title="Start a new game">
<polygon fill="white" stroke="black" points="51,-0.5 51,-19.5 207,-19.5 207,-0.5 51,-0.5"/>
<text text-anchor="middle" x="129" y="-7.5" font-family="Helvetica,sans-Serif" font-size="10.00">Game.UI.GameUI.NewGame</text>
</a>
</g>
</g>
<!-- Node3&#45;&gt;Node7 -->
<g id="edge6" class="edge">
<title>Node3&#45;&gt;Node7</title>
<path fill="none" stroke="midnightblue" d="M358.14,-54.54C330.08,-46.43 292.05,-36.07 258,-29 240.62,-25.39 221.78,-22.2 204.03,-19.51"/>
<polygon fill="midnightblue" stroke="midnightblue" points="357.42,-57.98 368,-57.42 359.38,-51.26 357.42,-57.98"/>
</g>
</g>
</svg>
