<?xml version="1.0" encoding="UTF-8" standalone="no"?>
<!DOCTYPE svg PUBLIC "-//W3C//DTD SVG 1.1//EN"
 "http://www.w3.org/Graphics/SVG/1.1/DTD/svg11.dtd">
<!-- Generated by graphviz version 2.43.0 (0)
 -->
<!-- Title: MainPage.TaskDisplayHandler.InitValues Pages: 1 -->
<svg width="1757pt" height="101pt"
 viewBox="0.00 0.00 1757.00 101.00" xmlns="http://www.w3.org/2000/svg" xmlns:xlink="http://www.w3.org/1999/xlink">
<g id="graph0" class="graph" transform="scale(1 1) rotate(0) translate(4 97)">
<title>MainPage.TaskDisplayHandler.InitValues</title>
<!-- Node1 -->
<g id="Node000001" class="node">
<title>Node1</title>
<g id="a_Node000001"><a xlink:title="Init it with the task to display and references to the controls.">
<polygon fill="#999999" stroke="#666666" points="214,-56 0,-56 0,-37 214,-37 214,-56"/>
<text text-anchor="middle" x="107" y="-44" font-family="Helvetica,sans-Serif" font-size="10.00">MainPage.TaskDisplayHandler.InitValues</text>
</a>
</g>
</g>
<!-- Node2 -->
<g id="Node000002" class="node">
<title>Node2</title>
<g id="a_Node000002"><a xlink:href="classMainPage_1_1TaskDisplayHandler.html#aa49063eb8db092920d512f9869df6e98" target="_top" xlink:title="Calculate if the task can be completed again.">
<polygon fill="white" stroke="#666666" points="537,-93 250,-93 250,-74 537,-74 537,-93"/>
<text text-anchor="middle" x="393.5" y="-81" font-family="Helvetica,sans-Serif" font-size="10.00">MainPage.TaskDisplayHandler.CalculateIfCompleteable</text>
</a>
</g>
</g>
<!-- Node1&#45;&gt;Node2 -->
<g id="edge1_Node000001_Node000002" class="edge">
<title>Node1&#45;&gt;Node2</title>
<g id="a_edge1_Node000001_Node000002"><a xlink:title=" ">
<path fill="none" stroke="#63b8ff" d="M178.41,-56.02C201.24,-59.09 226.69,-62.47 250,-65.5 268.24,-67.87 287.79,-70.37 306.39,-72.73"/>
<polygon fill="#63b8ff" stroke="#63b8ff" points="305.95,-76.2 316.31,-73.98 306.83,-69.25 305.95,-76.2"/>
</a>
</g>
</g>
<!-- Node3 -->
<g id="Node000003" class="node">
<title>Node3</title>
<g id="a_Node000003"><a xlink:href="classMainPage_1_1TaskDisplayHandler.html#a754a230e53cedd3209a29d4d6a743719" target="_top" xlink:title="When the complete state is changed update the display to match it.">
<polygon fill="white" stroke="#666666" points="531,-56 256,-56 256,-37 531,-37 531,-56"/>
<text text-anchor="middle" x="393.5" y="-44" font-family="Helvetica,sans-Serif" font-size="10.00">MainPage.TaskDisplayHandler.CompleteStateChange</text>
</a>
</g>
</g>
<!-- Node1&#45;&gt;Node3 -->
<g id="edge2_Node000001_Node000003" class="edge">
<title>Node1&#45;&gt;Node3</title>
<g id="a_edge2_Node000001_Node000003"><a xlink:title=" ">
<path fill="none" stroke="#63b8ff" d="M214.34,-46.5C224.63,-46.5 235.18,-46.5 245.77,-46.5"/>
<polygon fill="#63b8ff" stroke="#63b8ff" points="245.92,-50 255.92,-46.5 245.92,-43 245.92,-50"/>
</a>
</g>
</g>
<!-- Node11 -->
<g id="Node000011" class="node">
<title>Node11</title>
<g id="a_Node000011"><a xlink:href="classMainPage_1_1TaskDisplayHandler.html#ac3773b76adb09298978a65c89136c20f" target="_top" xlink:title="Update the task&#39;s labels.">
<polygon fill="white" stroke="#666666" points="510,-19 277,-19 277,0 510,0 510,-19"/>
<text text-anchor="middle" x="393.5" y="-7" font-family="Helvetica,sans-Serif" font-size="10.00">MainPage.TaskDisplayHandler.UpdateLabels</text>
</a>
</g>
</g>
<!-- Node1&#45;&gt;Node11 -->
<g id="edge14_Node000001_Node000011" class="edge">
<title>Node1&#45;&gt;Node11</title>
<g id="a_edge14_Node000001_Node000011"><a xlink:title=" ">
<path fill="none" stroke="#63b8ff" d="M181.27,-36.97C220.27,-31.9 268.41,-25.64 308.88,-20.38"/>
<polygon fill="#63b8ff" stroke="#63b8ff" points="309.52,-23.82 318.99,-19.06 308.62,-16.88 309.52,-23.82"/>
</a>
</g>
</g>
<!-- Node4 -->
<g id="Node000004" class="node">
<title>Node4</title>
<g id="a_Node000004"><a xlink:href="classMainPage_1_1MainWindowController.html#a85072f5d92f4145d6213209a13936639" target="_top" xlink:title="Refreshes the tasks with the proper sorting order.">
<polygon fill="white" stroke="#666666" points="840.5,-74 583.5,-74 583.5,-55 840.5,-55 840.5,-74"/>
<text text-anchor="middle" x="712" y="-62" font-family="Helvetica,sans-Serif" font-size="10.00">MainPage.MainWindowController.SortingChanged</text>
</a>
</g>
</g>
<!-- Node3&#45;&gt;Node4 -->
<g id="edge3_Node000003_Node000004" class="edge">
<title>Node3&#45;&gt;Node4</title>
<g id="a_edge3_Node000003_Node000004"><a xlink:title=" ">
<path fill="none" stroke="#63b8ff" d="M531.02,-54.26C545.02,-55.06 559.26,-55.87 573.27,-56.67"/>
<polygon fill="#63b8ff" stroke="#63b8ff" points="573.25,-60.17 583.43,-57.24 573.64,-53.18 573.25,-60.17"/>
</a>
</g>
</g>
<!-- Node10 -->
<g id="Node000010" class="node">
<title>Node10</title>
<g id="a_Node000010"><a xlink:href="classMainPage_1_1TaskDisplayHandler.html#aa63f1bc894519b9d5872c2bb50b84415" target="_top" xlink:title="Update the time remaining until the task can be completed again.">
<polygon fill="white" stroke="#666666" points="851,-37 573,-37 573,-18 851,-18 851,-37"/>
<text text-anchor="middle" x="712" y="-25" font-family="Helvetica,sans-Serif" font-size="10.00">MainPage.TaskDisplayHandler.UpdateTimeRemaining</text>
</a>
</g>
</g>
<!-- Node3&#45;&gt;Node10 -->
<g id="edge12_Node000003_Node000010" class="edge">
<title>Node3&#45;&gt;Node10</title>
<g id="a_edge12_Node000003_Node000010"><a xlink:title=" ">
<path fill="none" stroke="#63b8ff" d="M460.08,-36.97C489.95,-34.33 526.63,-31.74 562.62,-29.67"/>
<polygon fill="#63b8ff" stroke="#63b8ff" points="562.96,-33.16 572.75,-29.1 562.57,-26.17 562.96,-33.16"/>
</a>
</g>
</g>
<!-- Node5 -->
<g id="Node000005" class="node">
<title>Node5</title>
<g id="a_Node000005"><a xlink:href="classMainPage_1_1MainWindowController.html#a241b480aeebdab1bc34320cad8de7712" target="_top" xlink:title="Load the good habits.">
<polygon fill="white" stroke="#666666" points="1142,-92 888,-92 888,-73 1142,-73 1142,-92"/>
<text text-anchor="middle" x="1015" y="-80" font-family="Helvetica,sans-Serif" font-size="10.00">MainPage.MainWindowController.LoadBadHabits</text>
</a>
</g>
</g>
<!-- Node4&#45;&gt;Node5 -->
<g id="edge4_Node000004_Node000005" class="edge">
<title>Node4&#45;&gt;Node5</title>
<g id="a_edge4_Node000004_Node000005"><a xlink:title=" ">
<path fill="none" stroke="#63b8ff" d="M840.65,-72.13C852.79,-72.86 865.14,-73.6 877.36,-74.33"/>
<polygon fill="#63b8ff" stroke="#63b8ff" points="877.4,-77.84 887.59,-74.94 877.82,-70.85 877.4,-77.84"/>
</a>
</g>
</g>
<!-- Node8 -->
<g id="Node000008" class="node">
<title>Node8</title>
<g id="a_Node000008"><a xlink:href="classMainPage_1_1MainWindowController.html#ab5b80370512cd4273e86927fe696462d" target="_top" xlink:title="Load the good tasks.">
<polygon fill="white" stroke="#666666" points="1143,-55 887,-55 887,-36 1143,-36 1143,-55"/>
<text text-anchor="middle" x="1015" y="-43" font-family="Helvetica,sans-Serif" font-size="10.00">MainPage.MainWindowController.LoadGoodTasks</text>
</a>
</g>
</g>
<!-- Node4&#45;&gt;Node8 -->
<g id="edge8_Node000004_Node000008" class="edge">
<title>Node4&#45;&gt;Node8</title>
<g id="a_edge8_Node000004_Node000008"><a xlink:title=" ">
<path fill="none" stroke="#63b8ff" d="M840.65,-56.44C852.54,-55.69 864.63,-54.93 876.61,-54.17"/>
<polygon fill="#63b8ff" stroke="#63b8ff" points="876.87,-57.66 886.63,-53.54 876.43,-50.68 876.87,-57.66"/>
</a>
</g>
</g>
<!-- Node6 -->
<g id="Node000006" class="node">
<title>Node6</title>
<g id="a_Node000006"><a xlink:href="classMainPage_1_1TaskOpenPanelController.html#a5513399c20f650915ca10f54805f416e" target="_top" xlink:title="Make this task a bad habit.">
<polygon fill="white" stroke="#666666" points="1449,-92 1180,-92 1180,-73 1449,-73 1449,-92"/>
<text text-anchor="middle" x="1314.5" y="-80" font-family="Helvetica,sans-Serif" font-size="10.00">MainPage.TaskOpenPanelController.MakeItBadHabit</text>
</a>
</g>
</g>
<!-- Node5&#45;&gt;Node6 -->
<g id="edge5_Node000005_Node000006" class="edge">
<title>Node5&#45;&gt;Node6</title>
<g id="a_edge5_Node000005_Node000006"><a xlink:title=" ">
<path fill="none" stroke="#63b8ff" d="M1142.17,-75.82C1151.35,-75.76 1160.66,-75.74 1169.94,-75.75"/>
<polygon fill="#63b8ff" stroke="#63b8ff" points="1169.98,-79.25 1179.99,-75.78 1170,-72.25 1169.98,-79.25"/>
</a>
</g>
</g>
<!-- Node6&#45;&gt;Node5 -->
<g id="edge6_Node000006_Node000005" class="edge">
<title>Node6&#45;&gt;Node5</title>
<g id="a_edge6_Node000006_Node000005"><a xlink:title=" ">
<path fill="none" stroke="#63b8ff" d="M1179.99,-89.22C1170.75,-89.26 1161.43,-89.26 1152.18,-89.23"/>
<polygon fill="#63b8ff" stroke="#63b8ff" points="1152.18,-85.73 1142.17,-89.18 1152.15,-92.73 1152.18,-85.73"/>
</a>
</g>
</g>
<!-- Node7 -->
<g id="Node000007" class="node">
<title>Node7</title>
<g id="a_Node000007"><a xlink:href="classMainPage_1_1TaskOpenPanelController.html#aa0b6757dbad141375c50282278b23b1a" target="_top" xlink:title="Update the buttons with the appropriate color based on the current task.">
<polygon fill="white" stroke="#666666" points="1749,-73 1486,-73 1486,-54 1749,-54 1749,-73"/>
<text text-anchor="middle" x="1617.5" y="-61" font-family="Helvetica,sans-Serif" font-size="10.00">MainPage.TaskOpenPanelController.UpdateButtons</text>
</a>
</g>
</g>
<!-- Node6&#45;&gt;Node7 -->
<g id="edge7_Node000006_Node000007" class="edge">
<title>Node6&#45;&gt;Node7</title>
<g id="a_edge7_Node000006_Node000007"><a xlink:title=" ">
<path fill="none" stroke="#63b8ff" d="M1449.28,-74.06C1457.97,-73.51 1466.73,-72.95 1475.45,-72.4"/>
<polygon fill="#63b8ff" stroke="#63b8ff" points="1475.91,-75.88 1485.67,-71.76 1475.46,-68.9 1475.91,-75.88"/>
</a>
</g>
</g>
<!-- Node9 -->
<g id="Node000009" class="node">
<title>Node9</title>
<g id="a_Node000009"><a xlink:href="classMainPage_1_1TaskOpenPanelController.html#a069a63e2b7e70cc4cb4c7e487b655700" target="_top" xlink:title="Make it a good task.">
<polygon fill="white" stroke="#666666" points="1450,-55 1179,-55 1179,-36 1450,-36 1450,-55"/>
<text text-anchor="middle" x="1314.5" y="-43" font-family="Helvetica,sans-Serif" font-size="10.00">MainPage.TaskOpenPanelController.MakeItGoodTask</text>
</a>
</g>
</g>
<!-- Node8&#45;&gt;Node9 -->
<g id="edge9_Node000008_Node000009" class="edge">
<title>Node8&#45;&gt;Node9</title>
<g id="a_edge9_Node000008_Node000009"><a xlink:title=" ">
<path fill="none" stroke="#63b8ff" d="M1143.03,-38.81C1151.54,-38.76 1160.15,-38.74 1168.75,-38.75"/>
<polygon fill="#63b8ff" stroke="#63b8ff" points="1168.81,-42.25 1178.82,-38.78 1168.83,-35.25 1168.81,-42.25"/>
</a>
</g>
</g>
<!-- Node9&#45;&gt;Node7 -->
<g id="edge11_Node000009_Node000007" class="edge">
<title>Node9&#45;&gt;Node7</title>
<g id="a_edge11_Node000009_Node000007"><a xlink:title=" ">
<path fill="none" stroke="#63b8ff" d="M1450.15,-53.55C1458.7,-54.06 1467.32,-54.58 1475.9,-55.09"/>
<polygon fill="#63b8ff" stroke="#63b8ff" points="1475.75,-58.59 1485.94,-55.69 1476.17,-51.6 1475.75,-58.59"/>
</a>
</g>
</g>
<!-- Node9&#45;&gt;Node8 -->
<g id="edge10_Node000009_Node000008" class="edge">
<title>Node9&#45;&gt;Node8</title>
<g id="a_edge10_Node000009_Node000008"><a xlink:title=" ">
<path fill="none" stroke="#63b8ff" d="M1178.82,-52.22C1170.26,-52.26 1161.63,-52.26 1153.06,-52.23"/>
<polygon fill="#63b8ff" stroke="#63b8ff" points="1153.05,-48.73 1143.03,-52.19 1153.01,-55.73 1153.05,-48.73"/>
</a>
</g>
</g>
<!-- Node10&#45;&gt;Node3 -->
<g id="edge13_Node000010_Node000003" class="edge">
<title>Node10&#45;&gt;Node3</title>
<g id="a_edge13_Node000010_Node000003"><a xlink:title=" ">
<path fill="none" stroke="#63b8ff" d="M645.75,-37C615.38,-39.69 577.94,-42.32 541.32,-44.42"/>
<polygon fill="#63b8ff" stroke="#63b8ff" points="540.81,-40.94 531.02,-45 541.2,-47.93 540.81,-40.94"/>
</a>
</g>
</g>
<!-- Node11&#45;&gt;Node10 -->
<g id="edge15_Node000011_Node000010" class="edge">
<title>Node11&#45;&gt;Node10</title>
<g id="a_edge15_Node000011_Node000010"><a xlink:title=" ">
<path fill="none" stroke="#63b8ff" d="M510.11,-16.07C527.16,-17.04 544.92,-18.05 562.52,-19.06"/>
<polygon fill="#63b8ff" stroke="#63b8ff" points="562.68,-22.57 572.86,-19.64 563.07,-15.58 562.68,-22.57"/>
</a>
</g>
</g>
</g>
</svg>
