<?xml version="1.0" encoding="UTF-8" standalone="no"?>
<!DOCTYPE svg PUBLIC "-//W3C//DTD SVG 1.1//EN"
 "http://www.w3.org/Graphics/SVG/1.1/DTD/svg11.dtd">
<!-- Generated by graphviz version 2.43.0 (0)
 -->
<!-- Title: Game.World.CarSpawner.SpawnPolice Pages: 1 -->
<svg width="449pt" height="66pt"
 viewBox="0.00 0.00 449.00 66.00" xmlns="http://www.w3.org/2000/svg" xmlns:xlink="http://www.w3.org/1999/xlink">
<g id="graph0" class="graph" transform="scale(1 1) rotate(0) translate(4 62)">
<title>Game.World.CarSpawner.SpawnPolice</title>
<polygon fill="white" stroke="transparent" points="-4,4 -4,-62 445,-62 445,4 -4,4"/>
<!-- Node1 -->
<g id="node1" class="node">
<title>Node1</title>
<g id="a_node1"><a xlink:title="Spawn the given cop car">
<polygon fill="#bfbfbf" stroke="black" points="0,-19.5 0,-38.5 202,-38.5 202,-19.5 0,-19.5"/>
<text text-anchor="middle" x="101" y="-26.5" font-family="Helvetica,sans-Serif" font-size="10.00">Game.World.CarSpawner.SpawnPolice</text>
</a>
</g>
</g>
<!-- Node2 -->
<g id="node2" class="node">
<title>Node2</title>
<g id="a_node2"><a xlink:href="classGame_1_1World_1_1Chunk.html#aa082f46d92a6ade2f934fc8f2ff3093e" target="_top" xlink:title="Gets a random road&#39;s position">
<polygon fill="white" stroke="black" points="238,-38.5 238,-57.5 441,-57.5 441,-38.5 238,-38.5"/>
<text text-anchor="middle" x="339.5" y="-45.5" font-family="Helvetica,sans-Serif" font-size="10.00">Game.World.Chunk.GetARandomRoad</text>
</a>
</g>
</g>
<!-- Node1&#45;&gt;Node2 -->
<g id="edge1" class="edge">
<title>Node1&#45;&gt;Node2</title>
<path fill="none" stroke="midnightblue" d="M202.3,-37.06C210.62,-37.73 219.07,-38.4 227.46,-39.08"/>
<polygon fill="midnightblue" stroke="midnightblue" points="227.42,-42.59 237.67,-39.9 227.98,-35.61 227.42,-42.59"/>
</g>
<!-- Node3 -->
<g id="node3" class="node">
<title>Node3</title>
<g id="a_node3"><a xlink:href="classGame_1_1Car.html#adea5c0fa34888fc8d58fa434b205b365" target="_top" xlink:title=" ">
<polygon fill="white" stroke="black" points="298,-0.5 298,-19.5 381,-19.5 381,-0.5 298,-0.5"/>
<text text-anchor="middle" x="339.5" y="-7.5" font-family="Helvetica,sans-Serif" font-size="10.00">Game.Car.Init</text>
</a>
</g>
</g>
<!-- Node1&#45;&gt;Node3 -->
<g id="edge2" class="edge">
<title>Node1&#45;&gt;Node3</title>
<path fill="none" stroke="midnightblue" d="M202.3,-20.94C231.71,-18.58 262.64,-16.09 287.58,-14.09"/>
<polygon fill="midnightblue" stroke="midnightblue" points="288.19,-17.55 297.88,-13.26 287.63,-10.58 288.19,-17.55"/>
</g>
</g>
</svg>
