<?xml version="1.0" encoding="UTF-8" standalone="no"?>
<!DOCTYPE svg PUBLIC "-//W3C//DTD SVG 1.1//EN"
 "http://www.w3.org/Graphics/SVG/1.1/DTD/svg11.dtd">
<!-- Generated by graphviz version 2.43.0 (0)
 -->
<!-- Title: MainPage.FriendWindowHandler.LoadFriends Pages: 1 -->
<svg width="563pt" height="66pt"
 viewBox="0.00 0.00 563.00 66.00" xmlns="http://www.w3.org/2000/svg" xmlns:xlink="http://www.w3.org/1999/xlink">
<g id="graph0" class="graph" transform="scale(1 1) rotate(0) translate(4 62)">
<title>MainPage.FriendWindowHandler.LoadFriends</title>
<polygon fill="white" stroke="transparent" points="-4,4 -4,-62 559,-62 559,4 -4,4"/>
<!-- Node1 -->
<g id="node1" class="node">
<title>Node1</title>
<g id="a_node1"><a xlink:title="Loads the friends from the server">
<polygon fill="#bfbfbf" stroke="black" points="320,-19.5 320,-38.5 555,-38.5 555,-19.5 320,-19.5"/>
<text text-anchor="middle" x="437.5" y="-26.5" font-family="Helvetica,sans-Serif" font-size="10.00">MainPage.FriendWindowHandler.LoadFriends</text>
</a>
</g>
</g>
<!-- Node2 -->
<g id="node2" class="node">
<title>Node2</title>
<g id="a_node2"><a xlink:href="classMainPage_1_1FriendWindowHandler.html#aa9e14952826cc8ae861f67015c1156e1" target="_top" xlink:title="Shows the profile window">
<polygon fill="white" stroke="black" points="40.5,-38.5 40.5,-57.5 243.5,-57.5 243.5,-38.5 40.5,-38.5"/>
<text text-anchor="middle" x="142" y="-45.5" font-family="Helvetica,sans-Serif" font-size="10.00">MainPage.FriendWindowHandler.Show</text>
</a>
</g>
</g>
<!-- Node1&#45;&gt;Node2 -->
<g id="edge1" class="edge">
<title>Node1&#45;&gt;Node2</title>
<path fill="none" stroke="midnightblue" d="M309.6,-37.21C287.6,-38.64 265,-40.1 243.82,-41.47"/>
<polygon fill="midnightblue" stroke="midnightblue" points="309.9,-40.7 319.66,-36.56 309.45,-33.72 309.9,-40.7"/>
</g>
<!-- Node3 -->
<g id="node3" class="node">
<title>Node3</title>
<g id="a_node3"><a xlink:href="classMainPage_1_1FriendWindowHandler.html#af27eee4e5b363a39878fe5f94c03f9cd" target="_top" xlink:title="Changed event for pending checkbox Loads/Unloads the pending friend requests">
<polygon fill="white" stroke="black" points="0,-0.5 0,-19.5 284,-19.5 284,-0.5 0,-0.5"/>
<text text-anchor="middle" x="142" y="-7.5" font-family="Helvetica,sans-Serif" font-size="10.00">MainPage.FriendWindowHandler.ShowPendingChanged</text>
</a>
</g>
</g>
<!-- Node1&#45;&gt;Node3 -->
<g id="edge2" class="edge">
<title>Node1&#45;&gt;Node3</title>
<path fill="none" stroke="midnightblue" d="M309.48,-20.78C301.09,-20.23 292.62,-19.69 284.17,-19.14"/>
<polygon fill="midnightblue" stroke="midnightblue" points="309.45,-24.28 319.66,-21.44 309.9,-17.3 309.45,-24.28"/>
</g>
</g>
</svg>
