<?xml version="1.0" encoding="UTF-8" standalone="no"?>
<!DOCTYPE svg PUBLIC "-//W3C//DTD SVG 1.1//EN"
 "http://www.w3.org/Graphics/SVG/1.1/DTD/svg11.dtd">
<!-- Generated by graphviz version 2.43.0 (0)
 -->
<!-- Title: Game.CarController.Move Pages: 1 -->
<svg width="591pt" height="175pt"
 viewBox="0.00 0.00 591.00 175.00" xmlns="http://www.w3.org/2000/svg" xmlns:xlink="http://www.w3.org/1999/xlink">
<g id="graph0" class="graph" transform="scale(1 1) rotate(0) translate(4 171)">
<title>Game.CarController.Move</title>
<!-- Node1 -->
<g id="Node000001" class="node">
<title>Node1</title>
<g id="a_Node000001"><a xlink:title=" ">
<polygon fill="#999999" stroke="#666666" points="143,-93 0,-93 0,-74 143,-74 143,-93"/>
<text text-anchor="middle" x="71.5" y="-81" font-family="Helvetica,sans-Serif" font-size="10.00">Game.CarController.Move</text>
</a>
</g>
</g>
<!-- Node2 -->
<g id="Node000002" class="node">
<title>Node2</title>
<g id="a_Node000002"><a xlink:href="classGame_1_1CarController.html#afadda4712607531e93172fcd43557f14" target="_top" xlink:title=" ">
<polygon fill="white" stroke="#666666" points="367.5,-167 179.5,-167 179.5,-148 367.5,-148 367.5,-167"/>
<text text-anchor="middle" x="273.5" y="-155" font-family="Helvetica,sans-Serif" font-size="10.00">Game.CarController.AddDownForce</text>
</a>
</g>
</g>
<!-- Node1&#45;&gt;Node2 -->
<g id="edge1_Node000001_Node000002" class="edge">
<title>Node1&#45;&gt;Node2</title>
<g id="a_edge1_Node000001_Node000002"><a xlink:title=" ">
<path fill="none" stroke="#63b8ff" d="M87.38,-93.14C107.4,-105.68 144.5,-127.41 179,-139.5 185.5,-141.78 192.36,-143.79 199.29,-145.57"/>
<polygon fill="#63b8ff" stroke="#63b8ff" points="198.92,-149.08 209.46,-148 200.55,-142.27 198.92,-149.08"/>
</a>
</g>
</g>
<!-- Node3 -->
<g id="Node000003" class="node">
<title>Node3</title>
<g id="a_Node000003"><a xlink:href="classGame_1_1CarController.html#aebd7dfca747e22622550ce42076052af" target="_top" xlink:title=" ">
<polygon fill="white" stroke="#666666" points="358.5,-130 188.5,-130 188.5,-111 358.5,-111 358.5,-130"/>
<text text-anchor="middle" x="273.5" y="-118" font-family="Helvetica,sans-Serif" font-size="10.00">Game.CarController.ApplyDrive</text>
</a>
</g>
</g>
<!-- Node1&#45;&gt;Node3 -->
<g id="edge2_Node000001_Node000003" class="edge">
<title>Node1&#45;&gt;Node3</title>
<g id="a_edge2_Node000001_Node000003"><a xlink:title=" ">
<path fill="none" stroke="#63b8ff" d="M124,-93.03C150.5,-97.93 182.98,-103.94 210.8,-109.09"/>
<polygon fill="#63b8ff" stroke="#63b8ff" points="210.35,-112.56 220.82,-110.94 211.63,-105.68 210.35,-112.56"/>
</a>
</g>
</g>
<!-- Node4 -->
<g id="Node000004" class="node">
<title>Node4</title>
<g id="a_Node000004"><a xlink:href="classGame_1_1CarController.html#a906b060eb3177f7706893b9e0e098dc8" target="_top" xlink:title=" ">
<polygon fill="white" stroke="#666666" points="355.5,-93 191.5,-93 191.5,-74 355.5,-74 355.5,-93"/>
<text text-anchor="middle" x="273.5" y="-81" font-family="Helvetica,sans-Serif" font-size="10.00">Game.CarController.CapSpeed</text>
</a>
</g>
</g>
<!-- Node1&#45;&gt;Node4 -->
<g id="edge3_Node000001_Node000004" class="edge">
<title>Node1&#45;&gt;Node4</title>
<g id="a_edge3_Node000001_Node000004"><a xlink:title=" ">
<path fill="none" stroke="#63b8ff" d="M143.01,-83.5C155.35,-83.5 168.34,-83.5 181.14,-83.5"/>
<polygon fill="#63b8ff" stroke="#63b8ff" points="181.35,-87 191.35,-83.5 181.35,-80 181.35,-87"/>
</a>
</g>
</g>
<!-- Node5 -->
<g id="Node000005" class="node">
<title>Node5</title>
<g id="a_Node000005"><a xlink:href="classGame_1_1CarController.html#a764c5ed47cd5bb83923e9fa443935af7" target="_top" xlink:title=" ">
<polygon fill="white" stroke="#666666" points="360,-56 187,-56 187,-37 360,-37 360,-56"/>
<text text-anchor="middle" x="273.5" y="-44" font-family="Helvetica,sans-Serif" font-size="10.00">Game.CarController.SteerHelper</text>
</a>
</g>
</g>
<!-- Node1&#45;&gt;Node5 -->
<g id="edge4_Node000001_Node000005" class="edge">
<title>Node1&#45;&gt;Node5</title>
<g id="a_edge4_Node000001_Node000005"><a xlink:title=" ">
<path fill="none" stroke="#63b8ff" d="M124,-73.97C150.5,-69.07 182.98,-63.06 210.8,-57.91"/>
<polygon fill="#63b8ff" stroke="#63b8ff" points="211.63,-61.32 220.82,-56.06 210.35,-54.44 211.63,-61.32"/>
</a>
</g>
</g>
<!-- Node6 -->
<g id="Node000006" class="node">
<title>Node6</title>
<g id="a_Node000006"><a xlink:href="classGame_1_1CarController.html#a298e55b1a36b51f9c4e4aa7883056a00" target="_top" xlink:title=" ">
<polygon fill="white" stroke="#666666" points="368,-19 179,-19 179,0 368,0 368,-19"/>
<text text-anchor="middle" x="273.5" y="-7" font-family="Helvetica,sans-Serif" font-size="10.00">Game.CarController.TractionControl</text>
</a>
</g>
</g>
<!-- Node1&#45;&gt;Node6 -->
<g id="edge5_Node000001_Node000006" class="edge">
<title>Node1&#45;&gt;Node6</title>
<g id="a_edge5_Node000001_Node000006"><a xlink:title=" ">
<path fill="none" stroke="#63b8ff" d="M87.77,-73.89C107.92,-61.61 144.85,-40.53 179,-28.5 186.66,-25.8 194.82,-23.44 203.01,-21.38"/>
<polygon fill="#63b8ff" stroke="#63b8ff" points="204.05,-24.73 212.97,-19.03 202.44,-17.92 204.05,-24.73"/>
</a>
</g>
</g>
<!-- Node7 -->
<g id="Node000007" class="node">
<title>Node7</title>
<g id="a_Node000007"><a xlink:href="classGame_1_1CarController.html#a7589f8f5b951a0d3283790774bf97493" target="_top" xlink:title=" ">
<polygon fill="white" stroke="#666666" points="583,-19 404,-19 404,0 583,0 583,-19"/>
<text text-anchor="middle" x="493.5" y="-7" font-family="Helvetica,sans-Serif" font-size="10.00">Game.CarController.AdjustTorque</text>
</a>
</g>
</g>
<!-- Node6&#45;&gt;Node7 -->
<g id="edge6_Node000006_Node000007" class="edge">
<title>Node6&#45;&gt;Node7</title>
<g id="a_edge6_Node000006_Node000007"><a xlink:title=" ">
<path fill="none" stroke="#63b8ff" d="M368.22,-9.5C376.59,-9.5 385.08,-9.5 393.49,-9.5"/>
<polygon fill="#63b8ff" stroke="#63b8ff" points="393.69,-13 403.69,-9.5 393.69,-6 393.69,-13"/>
</a>
</g>
</g>
</g>
</svg>
