<?xml version="1.0" encoding="UTF-8" standalone="no"?>
<!DOCTYPE svg PUBLIC "-//W3C//DTD SVG 1.1//EN"
 "http://www.w3.org/Graphics/SVG/1.1/DTD/svg11.dtd">
<!-- Generated by graphviz version 2.43.0 (0)
 -->
<!-- Title: MainPage.MainWindowController.ShowRequestFail Pages: 1 -->
<svg width="776pt" height="28pt"
 viewBox="0.00 0.00 776.00 28.00" xmlns="http://www.w3.org/2000/svg" xmlns:xlink="http://www.w3.org/1999/xlink">
<g id="graph0" class="graph" transform="scale(1 1) rotate(0) translate(4 24)">
<title>MainPage.MainWindowController.ShowRequestFail</title>
<polygon fill="white" stroke="transparent" points="-4,4 -4,-24 772,-24 772,4 -4,4"/>
<!-- Node1 -->
<g id="node1" class="node">
<title>Node1</title>
<g id="a_node1"><a xlink:title="Show the server request fail in the modal window">
<polygon fill="#bfbfbf" stroke="black" points="505,-0.5 505,-19.5 768,-19.5 768,-0.5 505,-0.5"/>
<text text-anchor="middle" x="636.5" y="-7.5" font-family="Helvetica,sans-Serif" font-size="10.00">MainPage.MainWindowController.ShowRequestFail</text>
</a>
</g>
</g>
<!-- Node2 -->
<g id="node2" class="node">
<title>Node2</title>
<g id="a_node2"><a xlink:href="classMainPage_1_1MainWindowController.html#a47c21c97b7ba52af405119044e1434d0" target="_top" xlink:title="Load the tasks from the server">
<polygon fill="white" stroke="black" points="239,-0.5 239,-19.5 469,-19.5 469,-0.5 239,-0.5"/>
<text text-anchor="middle" x="354" y="-7.5" font-family="Helvetica,sans-Serif" font-size="10.00">MainPage.MainWindowController.LoadTasks</text>
</a>
</g>
</g>
<!-- Node1&#45;&gt;Node2 -->
<g id="edge1" class="edge">
<title>Node1&#45;&gt;Node2</title>
<path fill="none" stroke="midnightblue" d="M494.68,-10C486.14,-10 477.61,-10 469.2,-10"/>
<polygon fill="midnightblue" stroke="midnightblue" points="494.69,-13.5 504.69,-10 494.69,-6.5 494.69,-13.5"/>
</g>
<!-- Node3 -->
<g id="node3" class="node">
<title>Node3</title>
<g id="a_node3"><a xlink:href="classMainPage_1_1MainWindowController.html#acea2170099ea435298139c6c7fdce719" target="_top" xlink:title="Start is called before the first frame update">
<polygon fill="white" stroke="black" points="0,-0.5 0,-19.5 203,-19.5 203,-0.5 0,-0.5"/>
<text text-anchor="middle" x="101.5" y="-7.5" font-family="Helvetica,sans-Serif" font-size="10.00">MainPage.MainWindowController.Start</text>
</a>
</g>
</g>
<!-- Node2&#45;&gt;Node3 -->
<g id="edge2" class="edge">
<title>Node2&#45;&gt;Node3</title>
<path fill="none" stroke="midnightblue" d="M228.71,-10C220.15,-10 211.58,-10 203.16,-10"/>
<polygon fill="midnightblue" stroke="midnightblue" points="228.75,-13.5 238.75,-10 228.75,-6.5 228.75,-13.5"/>
</g>
</g>
</svg>
