<?xml version="1.0" encoding="UTF-8" standalone="no"?>
<!DOCTYPE svg PUBLIC "-//W3C//DTD SVG 1.1//EN"
 "http://www.w3.org/Graphics/SVG/1.1/DTD/svg11.dtd">
<!-- Generated by graphviz version 2.43.0 (0)
 -->
<!-- Title: Game.UI.LeaderboardItem.Init Pages: 1 -->
<svg width="1151pt" height="27pt"
 viewBox="0.00 0.00 1151.00 27.00" xmlns="http://www.w3.org/2000/svg" xmlns:xlink="http://www.w3.org/1999/xlink">
<g id="graph0" class="graph" transform="scale(1 1) rotate(0) translate(4 23)">
<title>Game.UI.LeaderboardItem.Init</title>
<!-- Node1 -->
<g id="Node000001" class="node">
<title>Node1</title>
<g id="a_Node000001"><a xlink:title="Initializes the item.">
<polygon fill="#999999" stroke="#666666" points="1143,-19 979,-19 979,0 1143,0 1143,-19"/>
<text text-anchor="middle" x="1061" y="-7" font-family="Helvetica,sans-Serif" font-size="10.00">Game.UI.LeaderboardItem.Init</text>
</a>
</g>
</g>
<!-- Node2 -->
<g id="Node000002" class="node">
<title>Node2</title>
<g id="a_Node000002"><a xlink:href="classGame_1_1UI_1_1LeaderboardWindow.html#aa83c9458d4a3cf1ea754268c3c584416" target="_top" xlink:title="Callback after the scores were loaded.">
<polygon fill="white" stroke="#666666" points="943,-19 711,-19 711,0 943,0 943,-19"/>
<text text-anchor="middle" x="827" y="-7" font-family="Helvetica,sans-Serif" font-size="10.00">Game.UI.LeaderboardWindow.LoadedScores</text>
</a>
</g>
</g>
<!-- Node1&#45;&gt;Node2 -->
<g id="edge1_Node000001_Node000002" class="edge">
<title>Node1&#45;&gt;Node2</title>
<g id="a_edge1_Node000001_Node000002"><a xlink:title=" ">
<path fill="none" stroke="#63b8ff" d="M968.77,-9.5C960.42,-9.5 951.89,-9.5 943.36,-9.5"/>
<polygon fill="#63b8ff" stroke="#63b8ff" points="968.86,-13 978.86,-9.5 968.86,-6 968.86,-13"/>
</a>
</g>
</g>
<!-- Node3 -->
<g id="Node000003" class="node">
<title>Node3</title>
<g id="a_Node000003"><a xlink:href="classGame_1_1UI_1_1LeaderboardWindow.html#a6d7212efa2c2627d119bac3318ea0d00" target="_top" xlink:title="Load the scores.">
<polygon fill="white" stroke="#666666" points="675,-19 455,-19 455,0 675,0 675,-19"/>
<text text-anchor="middle" x="565" y="-7" font-family="Helvetica,sans-Serif" font-size="10.00">Game.UI.LeaderboardWindow.LoadScores</text>
</a>
</g>
</g>
<!-- Node2&#45;&gt;Node3 -->
<g id="edge2_Node000002_Node000003" class="edge">
<title>Node2&#45;&gt;Node3</title>
<g id="a_edge2_Node000002_Node000003"><a xlink:title=" ">
<path fill="none" stroke="#63b8ff" d="M700.82,-9.5C692.29,-9.5 683.72,-9.5 675.27,-9.5"/>
<polygon fill="#63b8ff" stroke="#63b8ff" points="700.82,-13 710.82,-9.5 700.82,-6 700.82,-13"/>
</a>
</g>
</g>
<!-- Node4 -->
<g id="Node000004" class="node">
<title>Node4</title>
<g id="a_Node000004"><a xlink:href="classGame_1_1UI_1_1LeaderboardWindow.html#a8404b4a49a1f74f3b634ec77eb4b1d87" target="_top" xlink:title="Show the window.">
<polygon fill="white" stroke="#666666" points="419,-19 228,-19 228,0 419,0 419,-19"/>
<text text-anchor="middle" x="323.5" y="-7" font-family="Helvetica,sans-Serif" font-size="10.00">Game.UI.LeaderboardWindow.Show</text>
</a>
</g>
</g>
<!-- Node3&#45;&gt;Node4 -->
<g id="edge3_Node000003_Node000004" class="edge">
<title>Node3&#45;&gt;Node4</title>
<g id="a_edge3_Node000003_Node000004"><a xlink:title=" ">
<path fill="none" stroke="#63b8ff" d="M444.75,-9.5C436.21,-9.5 427.66,-9.5 419.29,-9.5"/>
<polygon fill="#63b8ff" stroke="#63b8ff" points="444.76,-13 454.76,-9.5 444.76,-6 444.76,-13"/>
</a>
</g>
</g>
<!-- Node5 -->
<g id="Node000005" class="node">
<title>Node5</title>
<g id="a_Node000005"><a xlink:href="classGame_1_1UI_1_1GameUI.html#a4258f849b2e7d8cdb72dd01c26de3a71" target="_top" xlink:title="Show the leaderboard window.">
<polygon fill="white" stroke="#666666" points="192,-19 0,-19 0,0 192,0 192,-19"/>
<text text-anchor="middle" x="96" y="-7" font-family="Helvetica,sans-Serif" font-size="10.00">Game.UI.GameUI.ShowLeaderboard</text>
</a>
</g>
</g>
<!-- Node4&#45;&gt;Node5 -->
<g id="edge4_Node000004_Node000005" class="edge">
<title>Node4&#45;&gt;Node5</title>
<g id="a_edge4_Node000004_Node000005"><a xlink:title=" ">
<path fill="none" stroke="#63b8ff" d="M217.83,-9.5C209.26,-9.5 200.63,-9.5 192.13,-9.5"/>
<polygon fill="#63b8ff" stroke="#63b8ff" points="217.85,-13 227.85,-9.5 217.85,-6 217.85,-13"/>
</a>
</g>
</g>
</g>
</svg>
