<?xml version="1.0" encoding="UTF-8" standalone="no"?>
<!DOCTYPE svg PUBLIC "-//W3C//DTD SVG 1.1//EN"
 "http://www.w3.org/Graphics/SVG/1.1/DTD/svg11.dtd">
<!-- Generated by graphviz version 2.43.0 (0)
 -->
<!-- Title: Game.Car Pages: 1 -->
<svg width="516pt" height="838pt"
 viewBox="0.00 0.00 515.50 838.00" xmlns="http://www.w3.org/2000/svg" xmlns:xlink="http://www.w3.org/1999/xlink">
<g id="graph0" class="graph" transform="scale(1 1) rotate(0) translate(4 834)">
<title>Game.Car</title>
<polygon fill="white" stroke="transparent" points="-4,4 -4,-834 511.5,-834 511.5,4 -4,4"/>
<!-- Node1 -->
<g id="node1" class="node">
<title>Node1</title>
<g id="a_node1"><a xlink:title=" ">
<polygon fill="#bfbfbf" stroke="black" points="140.5,-408.5 140.5,-641.5 388.5,-641.5 388.5,-408.5 140.5,-408.5"/>
<text text-anchor="middle" x="264.5" y="-629.5" font-family="Helvetica,sans-Serif" font-size="10.00">Game.Car</text>
<polyline fill="none" stroke="black" points="140.5,-622.5 388.5,-622.5 "/>
<text text-anchor="start" x="148.5" y="-610.5" font-family="Helvetica,sans-Serif" font-size="10.00">+ EventHandler DestroyedEvent</text>
<text text-anchor="start" x="148.5" y="-599.5" font-family="Helvetica,sans-Serif" font-size="10.00">+ float Health</text>
<text text-anchor="start" x="148.5" y="-588.5" font-family="Helvetica,sans-Serif" font-size="10.00">+ float MAX_HEALTH</text>
<text text-anchor="start" x="148.5" y="-577.5" font-family="Helvetica,sans-Serif" font-size="10.00">+ bool Alive</text>
<text text-anchor="start" x="148.5" y="-566.5" font-family="Helvetica,sans-Serif" font-size="10.00"># GameController gameController</text>
<text text-anchor="start" x="148.5" y="-555.5" font-family="Helvetica,sans-Serif" font-size="10.00"># CarController carController</text>
<text text-anchor="start" x="148.5" y="-544.5" font-family="Helvetica,sans-Serif" font-size="10.00"># Chunk lastChunk</text>
<text text-anchor="start" x="148.5" y="-533.5" font-family="Helvetica,sans-Serif" font-size="10.00"># Dictionary&lt; EffectType, EffectScript &gt; effects</text>
<text text-anchor="start" x="148.5" y="-522.5" font-family="Helvetica,sans-Serif" font-size="10.00">&#45; float health</text>
<polyline fill="none" stroke="black" points="140.5,-515.5 388.5,-515.5 "/>
<text text-anchor="start" x="148.5" y="-503.5" font-family="Helvetica,sans-Serif" font-size="10.00">+ void Kill()</text>
<text text-anchor="start" x="148.5" y="-492.5" font-family="Helvetica,sans-Serif" font-size="10.00">+ void Init(GameController world)</text>
<text text-anchor="start" x="148.5" y="-481.5" font-family="Helvetica,sans-Serif" font-size="10.00"># virtual void Update()</text>
<text text-anchor="start" x="148.5" y="-470.5" font-family="Helvetica,sans-Serif" font-size="10.00"># bool ChangeChunkIfNeeded()</text>
<text text-anchor="start" x="148.5" y="-459.5" font-family="Helvetica,sans-Serif" font-size="10.00"># virtual async void ChunkChanged</text>
<text text-anchor="start" x="148.5" y="-448.5" font-family="Helvetica,sans-Serif" font-size="10.00">(Chunk newChunk)</text>
<text text-anchor="start" x="148.5" y="-437.5" font-family="Helvetica,sans-Serif" font-size="10.00"># virtual void OnCollisionEnter(Collision</text>
<text text-anchor="start" x="148.5" y="-426.5" font-family="Helvetica,sans-Serif" font-size="10.00"> collision)</text>
<text text-anchor="start" x="148.5" y="-415.5" font-family="Helvetica,sans-Serif" font-size="10.00"># void Awake()</text>
</a>
</g>
</g>
<!-- Node4 -->
<g id="node4" class="node">
<title>Node4</title>
<g id="a_node4"><a xlink:href="classGame_1_1NpcCar.html" target="_top" xlink:title=" ">
<polygon fill="white" stroke="black" points="0,-204.5 0,-261.5 267,-261.5 267,-204.5 0,-204.5"/>
<text text-anchor="middle" x="133.5" y="-249.5" font-family="Helvetica,sans-Serif" font-size="10.00">Game.NpcCar</text>
<polyline fill="none" stroke="black" points="0,-242.5 267,-242.5 "/>
<text text-anchor="middle" x="133.5" y="-230.5" font-family="Helvetica,sans-Serif" font-size="10.00"> </text>
<polyline fill="none" stroke="black" points="0,-223.5 267,-223.5 "/>
<text text-anchor="start" x="8" y="-211.5" font-family="Helvetica,sans-Serif" font-size="10.00">+ float DetermineSteeringDirectionTowardsPlayer()</text>
</a>
</g>
</g>
<!-- Node1&#45;&gt;Node4 -->
<g id="edge3" class="edge">
<title>Node1&#45;&gt;Node4</title>
<path fill="none" stroke="midnightblue" d="M208.02,-398.97C184.94,-347.87 160.33,-293.4 145.96,-261.59"/>
<polygon fill="none" stroke="midnightblue" points="204.85,-400.46 212.16,-408.13 211.23,-397.58 204.85,-400.46"/>
</g>
<!-- Node6 -->
<g id="node6" class="node">
<title>Node6</title>
<g id="a_node6"><a xlink:href="classGame_1_1PlayerCar.html" target="_top" xlink:title=" ">
<polygon fill="white" stroke="black" points="285.5,-94.5 285.5,-371.5 507.5,-371.5 507.5,-94.5 285.5,-94.5"/>
<text text-anchor="middle" x="396.5" y="-359.5" font-family="Helvetica,sans-Serif" font-size="10.00">Game.PlayerCar</text>
<polyline fill="none" stroke="black" points="285.5,-352.5 507.5,-352.5 "/>
<text text-anchor="start" x="293.5" y="-340.5" font-family="Helvetica,sans-Serif" font-size="10.00">+ int SkinId</text>
<text text-anchor="start" x="293.5" y="-329.5" font-family="Helvetica,sans-Serif" font-size="10.00">+ bool Immune</text>
<text text-anchor="start" x="293.5" y="-318.5" font-family="Helvetica,sans-Serif" font-size="10.00">+ bool Turbo</text>
<text text-anchor="start" x="293.5" y="-307.5" font-family="Helvetica,sans-Serif" font-size="10.00">&#45; float coinMultiplier</text>
<text text-anchor="start" x="293.5" y="-296.5" font-family="Helvetica,sans-Serif" font-size="10.00">&#45; Keyboard keyboard</text>
<text text-anchor="start" x="293.5" y="-285.5" font-family="Helvetica,sans-Serif" font-size="10.00">&#45; int probeSize</text>
<text text-anchor="start" x="293.5" y="-274.5" font-family="Helvetica,sans-Serif" font-size="10.00">&#45; List&lt; PoliceContainer &gt; policeContacts</text>
<text text-anchor="start" x="293.5" y="-263.5" font-family="Helvetica,sans-Serif" font-size="10.00">&#45; float turboTimer</text>
<text text-anchor="start" x="293.5" y="-252.5" font-family="Helvetica,sans-Serif" font-size="10.00">&#45; float immuneTimer</text>
<polyline fill="none" stroke="black" points="285.5,-245.5 507.5,-245.5 "/>
<text text-anchor="start" x="293.5" y="-233.5" font-family="Helvetica,sans-Serif" font-size="10.00">+ void PickedUpCoin()</text>
<text text-anchor="start" x="293.5" y="-222.5" font-family="Helvetica,sans-Serif" font-size="10.00">+ void ApplyTurbo()</text>
<text text-anchor="start" x="293.5" y="-211.5" font-family="Helvetica,sans-Serif" font-size="10.00">+ void ApplyImmunity()</text>
<text text-anchor="start" x="293.5" y="-200.5" font-family="Helvetica,sans-Serif" font-size="10.00">+ void CancelTurbo()</text>
<text text-anchor="start" x="293.5" y="-189.5" font-family="Helvetica,sans-Serif" font-size="10.00">+ void CancelImmunity()</text>
<text text-anchor="start" x="293.5" y="-178.5" font-family="Helvetica,sans-Serif" font-size="10.00"># new void Awake()</text>
<text text-anchor="start" x="293.5" y="-167.5" font-family="Helvetica,sans-Serif" font-size="10.00"># override async void ChunkChanged</text>
<text text-anchor="start" x="293.5" y="-156.5" font-family="Helvetica,sans-Serif" font-size="10.00">(Chunk newChunk)</text>
<text text-anchor="start" x="293.5" y="-145.5" font-family="Helvetica,sans-Serif" font-size="10.00"># override void Update()</text>
<text text-anchor="start" x="293.5" y="-134.5" font-family="Helvetica,sans-Serif" font-size="10.00"># override void OnCollisionEnter(Collision</text>
<text text-anchor="start" x="293.5" y="-123.5" font-family="Helvetica,sans-Serif" font-size="10.00"> collision)</text>
<text text-anchor="start" x="293.5" y="-112.5" font-family="Helvetica,sans-Serif" font-size="10.00">&#45; void FixedUpdate()</text>
<text text-anchor="start" x="293.5" y="-101.5" font-family="Helvetica,sans-Serif" font-size="10.00">&#45; void OnCollisionExit(Collision collision)</text>
</a>
</g>
</g>
<!-- Node1&#45;&gt;Node6 -->
<g id="edge5" class="edge">
<title>Node1&#45;&gt;Node6</title>
<path fill="none" stroke="midnightblue" d="M321.48,-398.81C325.57,-389.82 329.71,-380.73 333.83,-371.68"/>
<polygon fill="none" stroke="midnightblue" points="318.2,-397.58 317.24,-408.13 324.57,-400.48 318.2,-397.58"/>
</g>
<!-- Node2 -->
<g id="node2" class="node">
<title>Node2</title>
<g id="a_node2"><a xlink:href="classUtility_1_1ThreadSafeMonoBehaviour.html" target="_top" xlink:title="Safely stores if the gameobject been destroyed in a bool">
<polygon fill="white" stroke="black" points="190,-678.5 190,-735.5 339,-735.5 339,-678.5 190,-678.5"/>
<text text-anchor="middle" x="264.5" y="-723.5" font-family="Helvetica,sans-Serif" font-size="10.00">ThreadSafeMonoBehaviour</text>
<polyline fill="none" stroke="black" points="190,-716.5 339,-716.5 "/>
<text text-anchor="start" x="198" y="-704.5" font-family="Helvetica,sans-Serif" font-size="10.00">+ bool Destroyed</text>
<polyline fill="none" stroke="black" points="190,-697.5 339,-697.5 "/>
<text text-anchor="start" x="198" y="-685.5" font-family="Helvetica,sans-Serif" font-size="10.00"># void OnDestroy()</text>
</a>
</g>
</g>
<!-- Node2&#45;&gt;Node1 -->
<g id="edge1" class="edge">
<title>Node2&#45;&gt;Node1</title>
<path fill="none" stroke="midnightblue" d="M264.5,-668.14C264.5,-660.03 264.5,-651.05 264.5,-641.67"/>
<polygon fill="none" stroke="midnightblue" points="261,-668.27 264.5,-678.27 268,-668.27 261,-668.27"/>
</g>
<!-- Node3 -->
<g id="node3" class="node">
<title>Node3</title>
<g id="a_node3"><a xlink:title=" ">
<polygon fill="white" stroke="#bfbfbf" points="218,-772.5 218,-829.5 311,-829.5 311,-772.5 218,-772.5"/>
<text text-anchor="middle" x="264.5" y="-817.5" font-family="Helvetica,sans-Serif" font-size="10.00">MonoBehaviour</text>
<polyline fill="none" stroke="#bfbfbf" points="218,-810.5 311,-810.5 "/>
<text text-anchor="middle" x="264.5" y="-798.5" font-family="Helvetica,sans-Serif" font-size="10.00"> </text>
<polyline fill="none" stroke="#bfbfbf" points="218,-791.5 311,-791.5 "/>
<text text-anchor="middle" x="264.5" y="-779.5" font-family="Helvetica,sans-Serif" font-size="10.00"> </text>
</a>
</g>
</g>
<!-- Node3&#45;&gt;Node2 -->
<g id="edge2" class="edge">
<title>Node3&#45;&gt;Node2</title>
<path fill="none" stroke="midnightblue" d="M264.5,-762.21C264.5,-753.29 264.5,-743.95 264.5,-735.58"/>
<polygon fill="none" stroke="midnightblue" points="261,-762.4 264.5,-772.4 268,-762.4 261,-762.4"/>
</g>
<!-- Node5 -->
<g id="node5" class="node">
<title>Node5</title>
<g id="a_node5"><a xlink:href="classGame_1_1CopCar.html" target="_top" xlink:title=" ">
<polygon fill="white" stroke="black" points="64.5,-0.5 64.5,-57.5 202.5,-57.5 202.5,-0.5 64.5,-0.5"/>
<text text-anchor="middle" x="133.5" y="-45.5" font-family="Helvetica,sans-Serif" font-size="10.00">Game.CopCar</text>
<polyline fill="none" stroke="black" points="64.5,-38.5 202.5,-38.5 "/>
<text text-anchor="middle" x="133.5" y="-26.5" font-family="Helvetica,sans-Serif" font-size="10.00"> </text>
<polyline fill="none" stroke="black" points="64.5,-19.5 202.5,-19.5 "/>
<text text-anchor="start" x="72.5" y="-7.5" font-family="Helvetica,sans-Serif" font-size="10.00"># override void Update()</text>
</a>
</g>
</g>
<!-- Node4&#45;&gt;Node5 -->
<g id="edge4" class="edge">
<title>Node4&#45;&gt;Node5</title>
<path fill="none" stroke="midnightblue" d="M133.5,-194.25C133.5,-154.56 133.5,-93.06 133.5,-57.65"/>
<polygon fill="none" stroke="midnightblue" points="130,-194.34 133.5,-204.34 137,-194.34 130,-194.34"/>
</g>
</g>
</svg>
