<?xml version="1.0" encoding="UTF-8" standalone="no"?>
<!DOCTYPE svg PUBLIC "-//W3C//DTD SVG 1.1//EN"
 "http://www.w3.org/Graphics/SVG/1.1/DTD/svg11.dtd">
<!-- Generated by graphviz version 2.43.0 (0)
 -->
<!-- Title: Game.UI.ShopItem.Buy Pages: 1 -->
<svg width="1048pt" height="140pt"
 viewBox="0.00 0.00 1048.00 140.04" xmlns="http://www.w3.org/2000/svg" xmlns:xlink="http://www.w3.org/1999/xlink">
<g id="graph0" class="graph" transform="scale(1 1) rotate(0) translate(4 136.04)">
<title>Game.UI.ShopItem.Buy</title>
<!-- Node1 -->
<g id="Node000001" class="node">
<title>Node1</title>
<g id="a_Node000001"><a xlink:title="Buy this shop item.">
<polygon fill="#999999" stroke="#666666" points="131,-76 0,-76 0,-57 131,-57 131,-76"/>
<text text-anchor="middle" x="65.5" y="-64" font-family="Helvetica,sans-Serif" font-size="10.00">Game.UI.ShopItem.Buy</text>
</a>
</g>
</g>
<!-- Node2 -->
<g id="Node000002" class="node">
<title>Node2</title>
<g id="a_Node000002"><a xlink:href="classGame_1_1UI_1_1ShopItem.html#aba8c6371c3eeaecb2bb7ab1f07311869" target="_top" xlink:title="Callback when it is bought.">
<polygon fill="white" stroke="#666666" points="348.5,-95 202.5,-95 202.5,-76 348.5,-76 348.5,-95"/>
<text text-anchor="middle" x="275.5" y="-83" font-family="Helvetica,sans-Serif" font-size="10.00">Game.UI.ShopItem.Bought</text>
</a>
</g>
</g>
<!-- Node1&#45;&gt;Node2 -->
<g id="edge1_Node000001_Node000002" class="edge">
<title>Node1&#45;&gt;Node2</title>
<g id="a_edge1_Node000001_Node000002"><a xlink:title=" ">
<path fill="none" stroke="#63b8ff" d="M131.17,-72.41C150.45,-74.17 171.85,-76.12 192.1,-77.97"/>
<polygon fill="#63b8ff" stroke="#63b8ff" points="191.98,-81.48 202.26,-78.9 192.62,-74.51 191.98,-81.48"/>
</a>
</g>
</g>
<!-- Node6 -->
<g id="Node000006" class="node">
<title>Node6</title>
<g id="a_Node000006"><a xlink:href="classUtility_1_1CoroutineRunner.html#a1c473dee723f16d86bab9d8475c8214a" target="_top" xlink:title="A helper method to start coroutines.">
<polygon fill="white" stroke="#666666" points="849.5,-132 651.5,-132 651.5,-113 849.5,-113 849.5,-132"/>
<text text-anchor="middle" x="750.5" y="-120" font-family="Helvetica,sans-Serif" font-size="10.00">Utility.CoroutineRunner.RunCoroutine</text>
</a>
</g>
</g>
<!-- Node1&#45;&gt;Node6 -->
<g id="edge9_Node000001_Node000006" class="edge">
<title>Node1&#45;&gt;Node6</title>
<g id="a_edge9_Node000001_Node000006"><a xlink:title=" ">
<path fill="none" stroke="#63b8ff" d="M86.73,-76.14C106.64,-85.1 138.17,-97.87 167,-103.5 329.96,-135.29 523.34,-134.14 641.18,-129.21"/>
<polygon fill="#63b8ff" stroke="#63b8ff" points="641.45,-132.7 651.29,-128.77 641.15,-125.7 641.45,-132.7"/>
</a>
</g>
</g>
<!-- Node7 -->
<g id="Node000007" class="node">
<title>Node7</title>
<g id="a_Node000007"><a xlink:href="classGame_1_1UI_1_1ShopWindow.html#ab11a75acddb1467e29d7624a4d12b8b9" target="_top" xlink:title="Show if the request failed on the modal window.">
<polygon fill="white" stroke="#666666" points="855.5,-58 645.5,-58 645.5,-39 855.5,-39 855.5,-58"/>
<text text-anchor="middle" x="750.5" y="-46" font-family="Helvetica,sans-Serif" font-size="10.00">Game.UI.ShopWindow.ShowRequestFail</text>
</a>
</g>
</g>
<!-- Node1&#45;&gt;Node7 -->
<g id="edge10_Node000001_Node000007" class="edge">
<title>Node1&#45;&gt;Node7</title>
<g id="a_edge10_Node000001_Node000007"><a xlink:title=" ">
<path fill="none" stroke="#63b8ff" d="M131.06,-64.8C246.67,-61.75 490.42,-55.33 634.98,-51.52"/>
<polygon fill="#63b8ff" stroke="#63b8ff" points="635.31,-55.01 645.22,-51.25 635.13,-48.01 635.31,-55.01"/>
</a>
</g>
</g>
<!-- Node9 -->
<g id="Node000009" class="node">
<title>Node9</title>
<g id="a_Node000009"><a xlink:href="classConfig_1_1ServerConfig.html#a7ac624a23651b77f05fe3dfabbd950fc" target="_top" xlink:title="Path to api endpoint to buy a given car.">
<polygon fill="white" stroke="#666666" points="384,-19 167,-19 167,0 384,0 384,-19"/>
<text text-anchor="middle" x="275.5" y="-7" font-family="Helvetica,sans-Serif" font-size="10.00">Config.ServerConfig.PATH_FOR_BUY_CAR</text>
</a>
</g>
</g>
<!-- Node1&#45;&gt;Node9 -->
<g id="edge8_Node000001_Node000009" class="edge">
<title>Node1&#45;&gt;Node9</title>
<g id="a_edge8_Node000001_Node000009"><a xlink:title=" ">
<path fill="none" stroke="#63b8ff" d="M93.16,-56.96C113.29,-49.95 141.68,-40.47 167,-33.5 183.18,-29.05 200.91,-24.83 217.22,-21.2"/>
<polygon fill="#63b8ff" stroke="#63b8ff" points="218.14,-24.58 227.16,-19.03 216.64,-17.74 218.14,-24.58"/>
</a>
</g>
</g>
<!-- Node3 -->
<g id="Node000003" class="node">
<title>Node3</title>
<g id="a_Node000003"><a xlink:href="classGame_1_1UI_1_1ShopWindow.html#a9297b39a0fa7a77e8cf3022bc28c0b35" target="_top" xlink:title="Update the shop items.">
<polygon fill="white" stroke="#666666" points="607,-95 420,-95 420,-76 607,-76 607,-95"/>
<text text-anchor="middle" x="513.5" y="-83" font-family="Helvetica,sans-Serif" font-size="10.00">Game.UI.ShopWindow.UpdateShop</text>
</a>
</g>
</g>
<!-- Node2&#45;&gt;Node3 -->
<g id="edge2_Node000002_Node000003" class="edge">
<title>Node2&#45;&gt;Node3</title>
<g id="a_edge2_Node000002_Node000003"><a xlink:title=" ">
<path fill="none" stroke="#63b8ff" d="M348.59,-85.5C367.93,-85.5 389.21,-85.5 409.86,-85.5"/>
<polygon fill="#63b8ff" stroke="#63b8ff" points="409.94,-89 419.94,-85.5 409.94,-82 409.94,-89"/>
</a>
</g>
</g>
<!-- Node4 -->
<g id="Node000004" class="node">
<title>Node4</title>
<g id="a_Node000004"><a xlink:href="classGame_1_1UI_1_1ShopWindow.html#a6a703aeb6610fe526d65a9b89ad4c78e" target="_top" xlink:title="Display the loaded shop items.">
<polygon fill="white" stroke="#666666" points="858,-95 643,-95 643,-76 858,-76 858,-95"/>
<text text-anchor="middle" x="750.5" y="-83" font-family="Helvetica,sans-Serif" font-size="10.00">Game.UI.ShopWindow.LoadedShopItems</text>
</a>
</g>
</g>
<!-- Node3&#45;&gt;Node4 -->
<g id="edge3_Node000003_Node000004" class="edge">
<title>Node3&#45;&gt;Node4</title>
<g id="a_edge3_Node000003_Node000004"><a xlink:title=" ">
<path fill="none" stroke="#63b8ff" d="M607.04,-85.5C615.44,-85.5 624.02,-85.5 632.6,-85.5"/>
<polygon fill="#63b8ff" stroke="#63b8ff" points="632.65,-89 642.65,-85.5 632.65,-82 632.65,-89"/>
</a>
</g>
</g>
<!-- Node3&#45;&gt;Node6 -->
<g id="edge5_Node000003_Node000006" class="edge">
<title>Node3&#45;&gt;Node6</title>
<g id="a_edge5_Node000003_Node000006"><a xlink:title=" ">
<path fill="none" stroke="#63b8ff" d="M575.02,-95.03C606.69,-100.02 645.65,-106.15 678.72,-111.36"/>
<polygon fill="#63b8ff" stroke="#63b8ff" points="678.36,-114.84 688.78,-112.94 679.44,-107.93 678.36,-114.84"/>
</a>
</g>
</g>
<!-- Node3&#45;&gt;Node7 -->
<g id="edge6_Node000003_Node000007" class="edge">
<title>Node3&#45;&gt;Node7</title>
<g id="a_edge6_Node000003_Node000007"><a xlink:title=" ">
<path fill="none" stroke="#63b8ff" d="M575.02,-75.97C606.69,-70.98 645.65,-64.85 678.72,-59.64"/>
<polygon fill="#63b8ff" stroke="#63b8ff" points="679.44,-63.07 688.78,-58.06 678.36,-56.16 679.44,-63.07"/>
</a>
</g>
</g>
<!-- Node5 -->
<g id="Node000005" class="node">
<title>Node5</title>
<g id="a_Node000005"><a xlink:href="classGame_1_1UI_1_1ShopItem.html#a8f8263dc4d8a04ebbd12545537c98879" target="_top" xlink:title="Initializes this shop item.">
<polygon fill="white" stroke="#666666" points="1031,-95 903,-95 903,-76 1031,-76 1031,-95"/>
<text text-anchor="middle" x="967" y="-83" font-family="Helvetica,sans-Serif" font-size="10.00">Game.UI.ShopItem.Init</text>
</a>
</g>
</g>
<!-- Node4&#45;&gt;Node5 -->
<g id="edge4_Node000004_Node000005" class="edge">
<title>Node4&#45;&gt;Node5</title>
<g id="a_edge4_Node000004_Node000005"><a xlink:title=" ">
<path fill="none" stroke="#63b8ff" d="M858.12,-85.5C869.87,-85.5 881.64,-85.5 892.85,-85.5"/>
<polygon fill="#63b8ff" stroke="#63b8ff" points="892.97,-89 902.97,-85.5 892.97,-82 892.97,-89"/>
</a>
</g>
</g>
<!-- Node8 -->
<g id="Node000008" class="node">
<title>Node8</title>
<g id="a_Node000008"><a xlink:href="classUtility_1_1ModalWindow.html#adcef8cae2dffe4247c905d042ff0a8e3" target="_top" xlink:title="Show the modal window.">
<polygon fill="white" stroke="#666666" points="1040,-58 894,-58 894,-39 1040,-39 1040,-58"/>
<text text-anchor="middle" x="967" y="-46" font-family="Helvetica,sans-Serif" font-size="10.00">Utility.ModalWindow.Show</text>
</a>
</g>
</g>
<!-- Node7&#45;&gt;Node8 -->
<g id="edge7_Node000007_Node000008" class="edge">
<title>Node7&#45;&gt;Node8</title>
<g id="a_edge7_Node000007_Node000008"><a xlink:title=" ">
<path fill="none" stroke="#63b8ff" d="M855.61,-48.5C864.99,-48.5 874.41,-48.5 883.57,-48.5"/>
<polygon fill="#63b8ff" stroke="#63b8ff" points="883.79,-52 893.79,-48.5 883.79,-45 883.79,-52"/>
</a>
</g>
</g>
</g>
</svg>
