<?xml version="1.0" encoding="UTF-8" standalone="no"?>
<!DOCTYPE svg PUBLIC "-//W3C//DTD SVG 1.1//EN"
 "http://www.w3.org/Graphics/SVG/1.1/DTD/svg11.dtd">
<!-- Generated by graphviz version 2.43.0 (0)
 -->
<!-- Title: MainPage.TaskHistoryWindowHandler.ShowRequestFail Pages: 1 -->
<svg width="888pt" height="28pt"
 viewBox="0.00 0.00 888.00 28.00" xmlns="http://www.w3.org/2000/svg" xmlns:xlink="http://www.w3.org/1999/xlink">
<g id="graph0" class="graph" transform="scale(1 1) rotate(0) translate(4 24)">
<title>MainPage.TaskHistoryWindowHandler.ShowRequestFail</title>
<polygon fill="white" stroke="transparent" points="-4,4 -4,-24 884,-24 884,4 -4,4"/>
<!-- Node1 -->
<g id="node1" class="node">
<title>Node1</title>
<g id="a_node1"><a xlink:title="Show the server response errors">
<polygon fill="#bfbfbf" stroke="black" points="594,-0.5 594,-19.5 880,-19.5 880,-0.5 594,-0.5"/>
<text text-anchor="middle" x="737" y="-7.5" font-family="Helvetica,sans-Serif" font-size="10.00">MainPage.TaskHistoryWindowHandler.ShowRequestFail</text>
</a>
</g>
</g>
<!-- Node2 -->
<g id="node2" class="node">
<title>Node2</title>
<g id="a_node2"><a xlink:href="classMainPage_1_1TaskHistoryWindowHandler.html#ada3a664597d8e1b1b9a261c3c34badba" target="_top" xlink:title="Loads the task histories from the server">
<polygon fill="white" stroke="black" points="266,-0.5 266,-19.5 558,-19.5 558,-0.5 266,-0.5"/>
<text text-anchor="middle" x="412" y="-7.5" font-family="Helvetica,sans-Serif" font-size="10.00">MainPage.TaskHistoryWindowHandler.LoadTaskHistories</text>
</a>
</g>
</g>
<!-- Node1&#45;&gt;Node2 -->
<g id="edge1" class="edge">
<title>Node1&#45;&gt;Node2</title>
<path fill="none" stroke="midnightblue" d="M583.83,-10C575.28,-10 566.68,-10 558.15,-10"/>
<polygon fill="midnightblue" stroke="midnightblue" points="583.86,-13.5 593.86,-10 583.86,-6.5 583.86,-13.5"/>
</g>
<!-- Node3 -->
<g id="node3" class="node">
<title>Node3</title>
<g id="a_node3"><a xlink:href="classMainPage_1_1TaskHistoryWindowHandler.html#aa726ff0b77b9245e98854bbd827ae9dd" target="_top" xlink:title="Shows the task history window">
<polygon fill="white" stroke="black" points="0,-0.5 0,-19.5 230,-19.5 230,-0.5 0,-0.5"/>
<text text-anchor="middle" x="115" y="-7.5" font-family="Helvetica,sans-Serif" font-size="10.00">MainPage.TaskHistoryWindowHandler.Show</text>
</a>
</g>
</g>
<!-- Node2&#45;&gt;Node3 -->
<g id="edge2" class="edge">
<title>Node2&#45;&gt;Node3</title>
<path fill="none" stroke="midnightblue" d="M255.6,-10C247.04,-10 238.51,-10 230.14,-10"/>
<polygon fill="midnightblue" stroke="midnightblue" points="255.66,-13.5 265.66,-10 255.66,-6.5 255.66,-13.5"/>
</g>
</g>
</svg>
