<?xml version="1.0" encoding="UTF-8" standalone="no"?>
<!DOCTYPE svg PUBLIC "-//W3C//DTD SVG 1.1//EN"
 "http://www.w3.org/Graphics/SVG/1.1/DTD/svg11.dtd">
<!-- Generated by graphviz version 2.43.0 (0)
 -->
<!-- Title: MainPage.TaskDisplayHandler Pages: 1 -->
<!--zoomable 1126 -->
<svg id="main" version="1.1" xmlns="http://www.w3.org/2000/svg" xmlns:xlink="http://www.w3.org/1999/xlink" xml:space="preserve" onload="init(evt)">
<style type="text/css"><![CDATA[
.edge:hover path { stroke: red; }
.edge:hover polygon { stroke: red; fill: red; }
]]></style>
<script type="text/javascript"><![CDATA[
var edges = document.getElementsByTagName('g');
if (edges && edges.length) {
  for (var i=0;i<edges.length;i++) {
    if (edges[i].id.substr(0,4)=='edge') {
      edges[i].setAttribute('class','edge');
    }
  }
}
]]></script>
        <defs>
                <circle id="rim" cx="0" cy="0" r="7"/>
                <circle id="rim2" cx="0" cy="0" r="3.5"/>
                <g id="zoomPlus">
                        <use xlink:href="#rim" fill="#404040">
                                <set attributeName="fill" to="#808080" begin="zoomplus.mouseover" end="zoomplus.mouseout"/>
                        </use>
                        <path d="M-4,0h8M0,-4v8" fill="none" stroke="white" stroke-width="1.5" pointer-events="none"/>
                </g>
                <g id="zoomMin">
                        <use xlink:href="#rim" fill="#404040">
                                <set attributeName="fill" to="#808080" begin="zoomminus.mouseover" end="zoomminus.mouseout"/>
                        </use>
                        <path d="M-4,0h8" fill="none" stroke="white" stroke-width="1.5" pointer-events="none"/>
                </g>
                <g id="dirArrow">
                        <path fill="none" stroke="white" stroke-width="1.5" d="M0,-3.0v7 M-2.5,-0.5L0,-3.0L2.5,-0.5"/>
                </g>
               <g id="resetDef">
                       <use xlink:href="#rim2" fill="#404040">
                               <set attributeName="fill" to="#808080" begin="reset.mouseover" end="reset.mouseout"/>
                       </use>
               </g>
        </defs>

<script type="text/javascript">
var viewWidth = 649;
var viewHeight = 1126;
var sectionId = 'dynsection-1';
</script>
<script xlink:href="svgpan.js"/>
<svg id="graph" class="graph">
<g id="viewport">
<title>MainPage.TaskDisplayHandler</title>
<polygon fill="white" stroke="transparent" points="-4,4 -4,-1122 644.5,-1122 644.5,4 -4,4"/>
<!-- Node1 -->
<g id="node1" class="node">
<title>Node1</title>
<g id="a_node1"><a xlink:title="Task prefab display handler">
<polygon fill="#bfbfbf" stroke="black" points="0,-0.5 0,-222.5 268,-222.5 268,-0.5 0,-0.5"/>
<text text-anchor="middle" x="134" y="-210.5" font-family="Helvetica,sans-Serif" font-size="10.00">MainPage.TaskDisplayHandler</text>
<polyline fill="none" stroke="black" points="0,-203.5 268,-203.5 "/>
<text text-anchor="start" x="8" y="-191.5" font-family="Helvetica,sans-Serif" font-size="10.00">+ PlayerTask CurrentTask</text>
<text text-anchor="start" x="8" y="-180.5" font-family="Helvetica,sans-Serif" font-size="10.00">&#45; TMP_Text taskNameLabel</text>
<text text-anchor="start" x="8" y="-169.5" font-family="Helvetica,sans-Serif" font-size="10.00">&#45; TMP_Text taskIntervalsLabel</text>
<text text-anchor="start" x="8" y="-158.5" font-family="Helvetica,sans-Serif" font-size="10.00">&#45; TMP_Text remainingTimeLabel</text>
<text text-anchor="start" x="8" y="-147.5" font-family="Helvetica,sans-Serif" font-size="10.00">&#45; Button completeButton</text>
<polyline fill="none" stroke="black" points="0,-140.5 268,-140.5 "/>
<text text-anchor="start" x="8" y="-128.5" font-family="Helvetica,sans-Serif" font-size="10.00">+ void Update()</text>
<text text-anchor="start" x="8" y="-117.5" font-family="Helvetica,sans-Serif" font-size="10.00">+ void InitValues(PlayerTask playerTask,</text>
<text text-anchor="start" x="8" y="-106.5" font-family="Helvetica,sans-Serif" font-size="10.00"> TaskOpenPanelController taskOpenPanelController,</text>
<text text-anchor="start" x="8" y="-95.5" font-family="Helvetica,sans-Serif" font-size="10.00"> MainWindowController uIController)</text>
<text text-anchor="start" x="8" y="-84.5" font-family="Helvetica,sans-Serif" font-size="10.00">+ void CompleteTask()</text>
<text text-anchor="start" x="8" y="-73.5" font-family="Helvetica,sans-Serif" font-size="10.00">+ void OpenEditor()</text>
<text text-anchor="start" x="8" y="-62.5" font-family="Helvetica,sans-Serif" font-size="10.00">+ void UpdateLabels()</text>
<text text-anchor="start" x="8" y="-51.5" font-family="Helvetica,sans-Serif" font-size="10.00">&#45; void TaskCompleted(Thesis_backend.Data</text>
<text text-anchor="start" x="8" y="-40.5" font-family="Helvetica,sans-Serif" font-size="10.00">_Structures.PlayerTask result)</text>
<text text-anchor="start" x="8" y="-29.5" font-family="Helvetica,sans-Serif" font-size="10.00">&#45; void CompleteStateChange(bool state)</text>
<text text-anchor="start" x="8" y="-18.5" font-family="Helvetica,sans-Serif" font-size="10.00">&#45; void UpdateTimeRemaining()</text>
<text text-anchor="start" x="8" y="-7.5" font-family="Helvetica,sans-Serif" font-size="10.00">&#45; bool CalculateIfCompleteable()</text>
</a>
</g>
</g>
<!-- Node2 -->
<g id="node2" class="node">
<title>Node2</title>
<g id="a_node2"><a xlink:href="classUtility_1_1ThreadSafeMonoBehaviour.html" target="_top" xlink:title="Safely stores if the gameobject been destroyed in a bool">
<polygon fill="white" stroke="black" points="288.5,-965.5 288.5,-1022.5 437.5,-1022.5 437.5,-965.5 288.5,-965.5"/>
<text text-anchor="middle" x="363" y="-1010.5" font-family="Helvetica,sans-Serif" font-size="10.00">ThreadSafeMonoBehaviour</text>
<polyline fill="none" stroke="black" points="288.5,-1003.5 437.5,-1003.5 "/>
<text text-anchor="start" x="296.5" y="-991.5" font-family="Helvetica,sans-Serif" font-size="10.00">+ bool Destroyed</text>
<polyline fill="none" stroke="black" points="288.5,-984.5 437.5,-984.5 "/>
<text text-anchor="start" x="296.5" y="-972.5" font-family="Helvetica,sans-Serif" font-size="10.00"># void OnDestroy()</text>
</a>
</g>
</g>
<!-- Node2&#45;&gt;Node1 -->
<g id="edge1" class="edge">
<title>Node2&#45;&gt;Node1</title>
<path fill="none" stroke="midnightblue" d="M278.3,-980.69C217.92,-970.01 144.18,-952.4 125,-928 -35.54,-723.72 38.69,-393.29 93.62,-222.52"/>
<polygon fill="none" stroke="midnightblue" points="277.8,-984.16 288.25,-982.41 278.99,-977.26 277.8,-984.16"/>
</g>
<!-- Node4 -->
<g id="node4" class="node">
<title>Node4</title>
<g id="a_node4"><a xlink:href="classMainPage_1_1TaskOpenPanelController.html" target="_top" xlink:title="Controller for displaying, editing and creating tasks">
<polygon fill="white" stroke="black" points="134,-617.5 134,-927.5 358,-927.5 358,-617.5 134,-617.5"/>
<text text-anchor="middle" x="246" y="-915.5" font-family="Helvetica,sans-Serif" font-size="10.00">MainPage.TaskOpenPanelController</text>
<polyline fill="none" stroke="black" points="134,-908.5 358,-908.5 "/>
<text text-anchor="start" x="142" y="-896.5" font-family="Helvetica,sans-Serif" font-size="10.00">+ EventHandler&lt; TaskClosedEventArgs</text>
<text text-anchor="start" x="142" y="-885.5" font-family="Helvetica,sans-Serif" font-size="10.00"> &gt; TaskClosedEventHandler</text>
<text text-anchor="start" x="142" y="-874.5" font-family="Helvetica,sans-Serif" font-size="10.00">+ static readonly int[] TASKINTERVALS</text>
<text text-anchor="start" x="142" y="-863.5" font-family="Helvetica,sans-Serif" font-size="10.00">+ PlayerTask CurrentTask</text>
<text text-anchor="start" x="142" y="-852.5" font-family="Helvetica,sans-Serif" font-size="10.00">&#45; TMP_InputField taskNameInput</text>
<text text-anchor="start" x="142" y="-841.5" font-family="Helvetica,sans-Serif" font-size="10.00">&#45; TMP_Dropdown taskIntervals</text>
<text text-anchor="start" x="142" y="-830.5" font-family="Helvetica,sans-Serif" font-size="10.00">&#45; TMP_InputField descriptionInput</text>
<text text-anchor="start" x="142" y="-819.5" font-family="Helvetica,sans-Serif" font-size="10.00">&#45; Button goodTaskButton</text>
<text text-anchor="start" x="142" y="-808.5" font-family="Helvetica,sans-Serif" font-size="10.00">&#45; Button badHabitButton</text>
<text text-anchor="start" x="142" y="-797.5" font-family="Helvetica,sans-Serif" font-size="10.00">&#45; Button deleteTaskButton</text>
<text text-anchor="start" x="142" y="-786.5" font-family="Helvetica,sans-Serif" font-size="10.00">&#45; bool isNewTask</text>
<text text-anchor="start" x="142" y="-775.5" font-family="Helvetica,sans-Serif" font-size="10.00">&#45; PlayerTask playerTaskOnOpen</text>
<polyline fill="none" stroke="black" points="134,-768.5 358,-768.5 "/>
<text text-anchor="start" x="142" y="-756.5" font-family="Helvetica,sans-Serif" font-size="10.00">+ void OpenUp()</text>
<text text-anchor="start" x="142" y="-745.5" font-family="Helvetica,sans-Serif" font-size="10.00">+ void OpenUp(PlayerTask taskContainer</text>
<text text-anchor="start" x="142" y="-734.5" font-family="Helvetica,sans-Serif" font-size="10.00">=null, TaskType type=TaskType.GoodTask)</text>
<text text-anchor="start" x="142" y="-723.5" font-family="Helvetica,sans-Serif" font-size="10.00">+ void MakeItBadHabit()</text>
<text text-anchor="start" x="142" y="-712.5" font-family="Helvetica,sans-Serif" font-size="10.00">+ void MakeItGoodTask()</text>
<text text-anchor="start" x="142" y="-701.5" font-family="Helvetica,sans-Serif" font-size="10.00">+ void Cancel()</text>
<text text-anchor="start" x="142" y="-690.5" font-family="Helvetica,sans-Serif" font-size="10.00">+ void Save()</text>
<text text-anchor="start" x="142" y="-679.5" font-family="Helvetica,sans-Serif" font-size="10.00">+ void DeleteTask()</text>
<text text-anchor="start" x="142" y="-668.5" font-family="Helvetica,sans-Serif" font-size="10.00">&#45; void SavedTask(Thesis_backend.Data</text>
<text text-anchor="start" x="142" y="-657.5" font-family="Helvetica,sans-Serif" font-size="10.00">_Structures.PlayerTask savedTask)</text>
<text text-anchor="start" x="142" y="-646.5" font-family="Helvetica,sans-Serif" font-size="10.00">&#45; void DeletedTask(string result)</text>
<text text-anchor="start" x="142" y="-635.5" font-family="Helvetica,sans-Serif" font-size="10.00">&#45; void CollectFromFields()</text>
<text text-anchor="start" x="142" y="-624.5" font-family="Helvetica,sans-Serif" font-size="10.00">&#45; void UpdateButtons()</text>
</a>
</g>
</g>
<!-- Node2&#45;&gt;Node4 -->
<g id="edge4" class="edge">
<title>Node2&#45;&gt;Node4</title>
<path fill="none" stroke="midnightblue" d="M343.47,-956.36C338.91,-947.81 333.77,-938.16 328.3,-927.89"/>
<polygon fill="none" stroke="midnightblue" points="340.39,-958.02 348.18,-965.2 346.57,-954.73 340.39,-958.02"/>
</g>
<!-- Node5 -->
<g id="node5" class="node">
<title>Node5</title>
<g id="a_node5"><a xlink:href="classMainPage_1_1MainWindowController.html" target="_top" xlink:title="Handles the main window&#39;s controls">
<polygon fill="white" stroke="black" points="280.5,-270.5 280.5,-569.5 537.5,-569.5 537.5,-270.5 280.5,-270.5"/>
<text text-anchor="middle" x="409" y="-557.5" font-family="Helvetica,sans-Serif" font-size="10.00">MainPage.MainWindowController</text>
<polyline fill="none" stroke="black" points="280.5,-550.5 537.5,-550.5 "/>
<text text-anchor="start" x="288.5" y="-538.5" font-family="Helvetica,sans-Serif" font-size="10.00">+ Dictionary&lt; long, TaskDisplayHandler &gt; Tasks</text>
<text text-anchor="start" x="288.5" y="-527.5" font-family="Helvetica,sans-Serif" font-size="10.00">+ TaskSortType TaskSortType</text>
<text text-anchor="start" x="288.5" y="-516.5" font-family="Helvetica,sans-Serif" font-size="10.00">&#45; TMP_Text usernameText</text>
<text text-anchor="start" x="288.5" y="-505.5" font-family="Helvetica,sans-Serif" font-size="10.00">&#45; TMP_Text currentTaskScoreText</text>
<text text-anchor="start" x="288.5" y="-494.5" font-family="Helvetica,sans-Serif" font-size="10.00">&#45; GameObject taskParent</text>
<text text-anchor="start" x="288.5" y="-483.5" font-family="Helvetica,sans-Serif" font-size="10.00">&#45; GameObject taskPrefab</text>
<text text-anchor="start" x="288.5" y="-472.5" font-family="Helvetica,sans-Serif" font-size="10.00">&#45; TMP_Dropdown taskSortDropdown</text>
<polyline fill="none" stroke="black" points="280.5,-465.5 537.5,-465.5 "/>
<text text-anchor="start" x="288.5" y="-453.5" font-family="Helvetica,sans-Serif" font-size="10.00">+ void UpdateUserData(Thesis_backend.Data</text>
<text text-anchor="start" x="288.5" y="-442.5" font-family="Helvetica,sans-Serif" font-size="10.00">_Structures.User user)</text>
<text text-anchor="start" x="288.5" y="-431.5" font-family="Helvetica,sans-Serif" font-size="10.00">+ void RemoveTask(long taskId)</text>
<text text-anchor="start" x="288.5" y="-420.5" font-family="Helvetica,sans-Serif" font-size="10.00">+ void UpdateTaskLabel(long taskId)</text>
<text text-anchor="start" x="288.5" y="-409.5" font-family="Helvetica,sans-Serif" font-size="10.00">+ void SortingChanged()</text>
<text text-anchor="start" x="288.5" y="-398.5" font-family="Helvetica,sans-Serif" font-size="10.00">+ void LoadGoodTasks(bool updateDisplay=true)</text>
<text text-anchor="start" x="288.5" y="-387.5" font-family="Helvetica,sans-Serif" font-size="10.00">+ void LoadBadHabits(bool updateDisplay=true)</text>
<text text-anchor="start" x="288.5" y="-376.5" font-family="Helvetica,sans-Serif" font-size="10.00">+ GameObject CreateTask(PlayerTask</text>
<text text-anchor="start" x="288.5" y="-365.5" font-family="Helvetica,sans-Serif" font-size="10.00"> taskContainer)</text>
<text text-anchor="start" x="288.5" y="-354.5" font-family="Helvetica,sans-Serif" font-size="10.00">+ void ShowTaskFail(string content)</text>
<text text-anchor="start" x="288.5" y="-343.5" font-family="Helvetica,sans-Serif" font-size="10.00">+ void LoadGameScene()</text>
<text text-anchor="start" x="288.5" y="-332.5" font-family="Helvetica,sans-Serif" font-size="10.00">&#45; async void Start()</text>
<text text-anchor="start" x="288.5" y="-321.5" font-family="Helvetica,sans-Serif" font-size="10.00">&#45; void LoadTasks()</text>
<text text-anchor="start" x="288.5" y="-310.5" font-family="Helvetica,sans-Serif" font-size="10.00">&#45; void ShowRequestFail(string content)</text>
<text text-anchor="start" x="288.5" y="-299.5" font-family="Helvetica,sans-Serif" font-size="10.00">&#45; void CreateTaskPrefabs(List&lt; Thesis</text>
<text text-anchor="start" x="288.5" y="-288.5" font-family="Helvetica,sans-Serif" font-size="10.00">_backend.Data_Structures.PlayerTask</text>
<text text-anchor="start" x="288.5" y="-277.5" font-family="Helvetica,sans-Serif" font-size="10.00"> &gt; requestResult)</text>
</a>
</g>
</g>
<!-- Node2&#45;&gt;Node5 -->
<g id="edge6" class="edge">
<title>Node2&#45;&gt;Node5</title>
<path fill="none" stroke="midnightblue" d="M366.04,-955.23C372.23,-878.17 386.63,-699.15 397.05,-569.55"/>
<polygon fill="none" stroke="midnightblue" points="362.53,-955.16 365.22,-965.41 369.51,-955.72 362.53,-955.16"/>
</g>
<!-- Node6 -->
<g id="node6" class="node">
<title>Node6</title>
<g id="a_node6"><a xlink:href="classUtility_1_1ModalWindow.html" target="_top" xlink:title="Modal window for alerting the user">
<polygon fill="white" stroke="black" points="431.5,-711 431.5,-834 640.5,-834 640.5,-711 431.5,-711"/>
<text text-anchor="middle" x="536" y="-822" font-family="Helvetica,sans-Serif" font-size="10.00">Utility.ModalWindow</text>
<polyline fill="none" stroke="black" points="431.5,-815 640.5,-815 "/>
<text text-anchor="start" x="439.5" y="-803" font-family="Helvetica,sans-Serif" font-size="10.00">&#45; TMP_Text ModalTitleText</text>
<text text-anchor="start" x="439.5" y="-792" font-family="Helvetica,sans-Serif" font-size="10.00">&#45; TMP_Text ModalContentText</text>
<text text-anchor="start" x="439.5" y="-781" font-family="Helvetica,sans-Serif" font-size="10.00">&#45; Action onOkAction</text>
<polyline fill="none" stroke="black" points="431.5,-774 640.5,-774 "/>
<text text-anchor="start" x="439.5" y="-762" font-family="Helvetica,sans-Serif" font-size="10.00">+ void Show()</text>
<text text-anchor="start" x="439.5" y="-751" font-family="Helvetica,sans-Serif" font-size="10.00">+ void Show(string title, string content,</text>
<text text-anchor="start" x="439.5" y="-740" font-family="Helvetica,sans-Serif" font-size="10.00"> Action onOkAction=null)</text>
<text text-anchor="start" x="439.5" y="-729" font-family="Helvetica,sans-Serif" font-size="10.00">+ void Hide()</text>
<text text-anchor="start" x="439.5" y="-718" font-family="Helvetica,sans-Serif" font-size="10.00">+ void ConfirmButtonClick()</text>
</a>
</g>
</g>
<!-- Node2&#45;&gt;Node6 -->
<g id="edge9" class="edge">
<title>Node2&#45;&gt;Node6</title>
<path fill="none" stroke="midnightblue" d="M405.85,-958.38C409.75,-954.67 413.53,-950.85 417,-947 448.29,-912.26 478.04,-868.89 499.97,-834.2"/>
<polygon fill="none" stroke="midnightblue" points="403.26,-956 398.24,-965.33 407.98,-961.17 403.26,-956"/>
</g>
<!-- Node3 -->
<g id="node3" class="node">
<title>Node3</title>
<g id="a_node3"><a xlink:title=" ">
<polygon fill="white" stroke="#bfbfbf" points="316.5,-1060.5 316.5,-1117.5 409.5,-1117.5 409.5,-1060.5 316.5,-1060.5"/>
<text text-anchor="middle" x="363" y="-1105.5" font-family="Helvetica,sans-Serif" font-size="10.00">MonoBehaviour</text>
<polyline fill="none" stroke="#bfbfbf" points="316.5,-1098.5 409.5,-1098.5 "/>
<text text-anchor="middle" x="363" y="-1086.5" font-family="Helvetica,sans-Serif" font-size="10.00"> </text>
<polyline fill="none" stroke="#bfbfbf" points="316.5,-1079.5 409.5,-1079.5 "/>
<text text-anchor="middle" x="363" y="-1067.5" font-family="Helvetica,sans-Serif" font-size="10.00"> </text>
</a>
</g>
</g>
<!-- Node3&#45;&gt;Node2 -->
<g id="edge2" class="edge">
<title>Node3&#45;&gt;Node2</title>
<path fill="none" stroke="midnightblue" d="M363,-1050.24C363,-1041.03 363,-1031.35 363,-1022.71"/>
<polygon fill="none" stroke="midnightblue" points="359.5,-1050.35 363,-1060.35 366.5,-1050.35 359.5,-1050.35"/>
</g>
<!-- Node4&#45;&gt;Node1 -->
<g id="edge3" class="edge">
<title>Node4&#45;&gt;Node1</title>
<path fill="none" stroke="#404040" d="M158.61,-617.47C152.36,-601.79 146.97,-585.81 143,-570 115.14,-459.1 115.77,-328.27 121.65,-234.99"/>
<polygon fill="none" stroke="#404040" points="121.65,-234.92 118.06,-228.66 122.45,-222.94 126.04,-229.2 121.65,-234.92"/>
<text text-anchor="middle" x="207" y="-417.5" font-family="Helvetica,sans-Serif" font-size="10.00"> &#45;taskOpenPanelController</text>
</g>
<!-- Node4&#45;&gt;Node5 -->
<g id="edge7" class="edge">
<title>Node4&#45;&gt;Node5</title>
<path fill="none" stroke="#404040" d="M175.76,-617.35C177.66,-606.94 181.85,-597.02 189,-588 210.84,-560.47 235.46,-587.4 266,-570 267.36,-569.23 268.71,-568.44 270.06,-567.63"/>
<polygon fill="none" stroke="#404040" points="270.16,-567.57 273.09,-560.98 280.29,-561.14 277.37,-567.73 270.16,-567.57"/>
<text text-anchor="middle" x="253" y="-591" font-family="Helvetica,sans-Serif" font-size="10.00"> &#45;taskOpenPanelController</text>
</g>
<!-- Node5&#45;&gt;Node1 -->
<g id="edge10" class="edge">
<title>Node5&#45;&gt;Node1</title>
<path fill="none" stroke="#404040" d="M280.36,-275.62C267.28,-261.05 254.1,-246.36 241.29,-232.08"/>
<polygon fill="none" stroke="#404040" points="240.95,-231.7 233.96,-229.9 232.93,-222.76 239.92,-224.56 240.95,-231.7"/>
<text text-anchor="middle" x="315.5" y="-244" font-family="Helvetica,sans-Serif" font-size="10.00"> &#45;mainWindowController</text>
</g>
<!-- Node5&#45;&gt;Node4 -->
<g id="edge5" class="edge">
<title>Node5&#45;&gt;Node4</title>
<path fill="none" stroke="#404040" d="M333.67,-569.65C330.71,-575.84 327.81,-581.97 325,-588 322.25,-593.89 319.48,-599.91 316.71,-606"/>
<polygon fill="none" stroke="#404040" points="316.67,-606.09 317.84,-613.2 311.72,-617.02 310.55,-609.9 316.67,-606.09"/>
<text text-anchor="middle" x="357" y="-591" font-family="Helvetica,sans-Serif" font-size="10.00"> &#45;uIController</text>
</g>
<!-- Node6&#45;&gt;Node5 -->
<g id="edge8" class="edge">
<title>Node6&#45;&gt;Node5</title>
<path fill="none" stroke="#404040" d="M514.02,-710.85C500.97,-674.83 483.75,-627.3 467.04,-581.18"/>
<polygon fill="none" stroke="#404040" points="467.01,-581.09 461.2,-576.82 462.92,-569.81 468.72,-574.09 467.01,-581.09"/>
<text text-anchor="middle" x="510.5" y="-591" font-family="Helvetica,sans-Serif" font-size="10.00"> &#45;modalWindow</text>
</g>
</g>
</svg>
        <g id="navigator" transform="translate(0 0)" fill="#404254">
                <rect fill="#f2f5e9" fill-opacity="0.5" stroke="#606060" stroke-width=".5" x="0" y="0" width="60" height="60"/>
                <use id="zoomplus" xlink:href="#zoomPlus" x="17" y="9" onmousedown="handleZoom(evt,'in')"/>
                <use id="zoomminus" xlink:href="#zoomMin" x="42" y="9" onmousedown="handleZoom(evt,'out')"/>
                <use id="reset" xlink:href="#resetDef" x="30" y="36" onmousedown="handleReset()"/>
                <g id="arrowUp" xlink:href="#dirArrow" transform="translate(30 24)" onmousedown="handlePan(0,-1)">
                  <use xlink:href="#rim" fill="#404040">
                        <set attributeName="fill" to="#808080" begin="arrowUp.mouseover" end="arrowUp.mouseout"/>
                  </use>
                  <path fill="none" stroke="white" stroke-width="1.5" d="M0,-3.0v7 M-2.5,-0.5L0,-3.0L2.5,-0.5"/>
                </g>
                <g id="arrowRight" xlink:href="#dirArrow" transform="rotate(90) translate(36 -43)" onmousedown="handlePan(1,0)">
                  <use xlink:href="#rim" fill="#404040">
                        <set attributeName="fill" to="#808080" begin="arrowRight.mouseover" end="arrowRight.mouseout"/>
                  </use>
                  <path fill="none" stroke="white" stroke-width="1.5" d="M0,-3.0v7 M-2.5,-0.5L0,-3.0L2.5,-0.5"/>
                </g>
                <g id="arrowDown" xlink:href="#dirArrow" transform="rotate(180) translate(-30 -48)" onmousedown="handlePan(0,1)">
                  <use xlink:href="#rim" fill="#404040">
                        <set attributeName="fill" to="#808080" begin="arrowDown.mouseover" end="arrowDown.mouseout"/>
                  </use>
                  <path fill="none" stroke="white" stroke-width="1.5" d="M0,-3.0v7 M-2.5,-0.5L0,-3.0L2.5,-0.5"/>
                </g>
                <g id="arrowLeft" xlink:href="#dirArrow" transform="rotate(270) translate(-36 17)" onmousedown="handlePan(-1,0)">
                  <use xlink:href="#rim" fill="#404040">
                        <set attributeName="fill" to="#808080" begin="arrowLeft.mouseover" end="arrowLeft.mouseout"/>
                  </use>
                  <path fill="none" stroke="white" stroke-width="1.5" d="M0,-3.0v7 M-2.5,-0.5L0,-3.0L2.5,-0.5"/>
                </g>
        </g>
        <svg viewBox="0 0 15 15" width="100%" height="30px" preserveAspectRatio="xMaxYMin meet">
         <g id="arrow_out" transform="scale(0.3 0.3)">
          <a xlink:href="classMainPage_1_1TaskDisplayHandler__coll__graph_org.svg" target="_base">
           <rect id="button" ry="5" rx="5" y="6" x="6" height="38" width="38"
                fill="#f2f5e9" fill-opacity="0.5" stroke="#606060" stroke-width="1.0"/>
           <path id="arrow"
             d="M 11.500037,31.436501 C 11.940474,20.09759 22.043105,11.32322 32.158766,21.979434 L 37.068811,17.246167 C 37.068811,17.246167 37.088388,32 37.088388,32 L 22.160133,31.978069 C 22.160133,31.978069 26.997745,27.140456 26.997745,27.140456 C 18.528582,18.264221 13.291696,25.230495 11.500037,31.436501 z"
             style="fill:#404040;"/>
          </a>
         </g>
        </svg>
</svg>
