<?xml version="1.0" encoding="UTF-8" standalone="no"?>
<!DOCTYPE svg PUBLIC "-//W3C//DTD SVG 1.1//EN"
 "http://www.w3.org/Graphics/SVG/1.1/DTD/svg11.dtd">
<!-- Generated by graphviz version 2.43.0 (0)
 -->
<!-- Title: Game.UI.LeaderboardWindow Pages: 1 -->
<svg width="403pt" height="493pt"
 viewBox="0.00 0.00 402.50 493.00" xmlns="http://www.w3.org/2000/svg" xmlns:xlink="http://www.w3.org/1999/xlink">
<g id="graph0" class="graph" transform="scale(1 1) rotate(0) translate(4 489)">
<title>Game.UI.LeaderboardWindow</title>
<polygon fill="white" stroke="transparent" points="-4,4 -4,-489 398.5,-489 398.5,4 -4,4"/>
<!-- Node1 -->
<g id="node1" class="node">
<title>Node1</title>
<g id="a_node1"><a xlink:title="Handles the leaderboard display window">
<polygon fill="#bfbfbf" stroke="black" points="0,-0.5 0,-123.5 281,-123.5 281,-0.5 0,-0.5"/>
<text text-anchor="middle" x="140.5" y="-111.5" font-family="Helvetica,sans-Serif" font-size="10.00">Game.UI.LeaderboardWindow</text>
<polyline fill="none" stroke="black" points="0,-104.5 281,-104.5 "/>
<text text-anchor="start" x="8" y="-92.5" font-family="Helvetica,sans-Serif" font-size="10.00">&#45; GameObject scoreParent</text>
<text text-anchor="start" x="8" y="-81.5" font-family="Helvetica,sans-Serif" font-size="10.00">&#45; TMP_Dropdown filterTypeDropdown</text>
<text text-anchor="start" x="8" y="-70.5" font-family="Helvetica,sans-Serif" font-size="10.00">&#45; GameObject LeaderboardItemPrefab</text>
<polyline fill="none" stroke="black" points="0,-63.5 281,-63.5 "/>
<text text-anchor="start" x="8" y="-51.5" font-family="Helvetica,sans-Serif" font-size="10.00">+ void Show()</text>
<text text-anchor="start" x="8" y="-40.5" font-family="Helvetica,sans-Serif" font-size="10.00">+ void Hide()</text>
<text text-anchor="start" x="8" y="-29.5" font-family="Helvetica,sans-Serif" font-size="10.00">+ void LoadScores()</text>
<text text-anchor="start" x="8" y="-18.5" font-family="Helvetica,sans-Serif" font-size="10.00">&#45; void ShowRequestFail(string content)</text>
<text text-anchor="start" x="8" y="-7.5" font-family="Helvetica,sans-Serif" font-size="10.00">&#45; void LoadedScores(List&lt; GameScore &gt; gameScores)</text>
</a>
</g>
</g>
<!-- Node2 -->
<g id="node2" class="node">
<title>Node2</title>
<g id="a_node2"><a xlink:href="classUtility_1_1ThreadSafeMonoBehaviour.html" target="_top" xlink:title="Safely stores if the gameobject been destroyed in a bool">
<polygon fill="white" stroke="black" points="62,-332.5 62,-389.5 211,-389.5 211,-332.5 62,-332.5"/>
<text text-anchor="middle" x="136.5" y="-377.5" font-family="Helvetica,sans-Serif" font-size="10.00">ThreadSafeMonoBehaviour</text>
<polyline fill="none" stroke="black" points="62,-370.5 211,-370.5 "/>
<text text-anchor="start" x="70" y="-358.5" font-family="Helvetica,sans-Serif" font-size="10.00">+ bool Destroyed</text>
<polyline fill="none" stroke="black" points="62,-351.5 211,-351.5 "/>
<text text-anchor="start" x="70" y="-339.5" font-family="Helvetica,sans-Serif" font-size="10.00"># void OnDestroy()</text>
</a>
</g>
</g>
<!-- Node2&#45;&gt;Node1 -->
<g id="edge1" class="edge">
<title>Node2&#45;&gt;Node1</title>
<path fill="none" stroke="midnightblue" d="M137.01,-322.26C137.68,-272.22 138.88,-183.31 139.68,-123.76"/>
<polygon fill="none" stroke="midnightblue" points="133.51,-322.28 136.87,-332.33 140.51,-322.37 133.51,-322.28"/>
</g>
<!-- Node4 -->
<g id="node4" class="node">
<title>Node4</title>
<g id="a_node4"><a xlink:href="classUtility_1_1ModalWindow.html" target="_top" xlink:title="Modal window for alerting the user">
<polygon fill="white" stroke="black" points="152.5,-171.5 152.5,-294.5 394.5,-294.5 394.5,-171.5 152.5,-171.5"/>
<text text-anchor="middle" x="273.5" y="-282.5" font-family="Helvetica,sans-Serif" font-size="10.00">Utility.ModalWindow</text>
<polyline fill="none" stroke="black" points="152.5,-275.5 394.5,-275.5 "/>
<text text-anchor="start" x="160.5" y="-263.5" font-family="Helvetica,sans-Serif" font-size="10.00">&#45; TMP_Text ModalTitleText</text>
<text text-anchor="start" x="160.5" y="-252.5" font-family="Helvetica,sans-Serif" font-size="10.00">&#45; TMP_Text ModalContentText</text>
<text text-anchor="start" x="160.5" y="-241.5" font-family="Helvetica,sans-Serif" font-size="10.00">&#45; Action onOkAction</text>
<polyline fill="none" stroke="black" points="152.5,-234.5 394.5,-234.5 "/>
<text text-anchor="start" x="160.5" y="-222.5" font-family="Helvetica,sans-Serif" font-size="10.00">+ void Show()</text>
<text text-anchor="start" x="160.5" y="-211.5" font-family="Helvetica,sans-Serif" font-size="10.00">+ void Show(string title, string content, Action</text>
<text text-anchor="start" x="160.5" y="-200.5" font-family="Helvetica,sans-Serif" font-size="10.00"> onOkAction=null)</text>
<text text-anchor="start" x="160.5" y="-189.5" font-family="Helvetica,sans-Serif" font-size="10.00">+ void Hide()</text>
<text text-anchor="start" x="160.5" y="-178.5" font-family="Helvetica,sans-Serif" font-size="10.00">+ void ConfirmButtonClick()</text>
</a>
</g>
</g>
<!-- Node2&#45;&gt;Node4 -->
<g id="edge4" class="edge">
<title>Node2&#45;&gt;Node4</title>
<path fill="none" stroke="midnightblue" d="M173.93,-325.58C184.36,-315.99 196.01,-305.27 207.56,-294.65"/>
<polygon fill="none" stroke="midnightblue" points="171.56,-323 166.57,-332.35 176.29,-328.16 171.56,-323"/>
</g>
<!-- Node3 -->
<g id="node3" class="node">
<title>Node3</title>
<g id="a_node3"><a xlink:title=" ">
<polygon fill="white" stroke="#bfbfbf" points="90,-427.5 90,-484.5 183,-484.5 183,-427.5 90,-427.5"/>
<text text-anchor="middle" x="136.5" y="-472.5" font-family="Helvetica,sans-Serif" font-size="10.00">MonoBehaviour</text>
<polyline fill="none" stroke="#bfbfbf" points="90,-465.5 183,-465.5 "/>
<text text-anchor="middle" x="136.5" y="-453.5" font-family="Helvetica,sans-Serif" font-size="10.00"> </text>
<polyline fill="none" stroke="#bfbfbf" points="90,-446.5 183,-446.5 "/>
<text text-anchor="middle" x="136.5" y="-434.5" font-family="Helvetica,sans-Serif" font-size="10.00"> </text>
</a>
</g>
</g>
<!-- Node3&#45;&gt;Node2 -->
<g id="edge2" class="edge">
<title>Node3&#45;&gt;Node2</title>
<path fill="none" stroke="midnightblue" d="M136.5,-417.24C136.5,-408.03 136.5,-398.35 136.5,-389.71"/>
<polygon fill="none" stroke="midnightblue" points="133,-417.35 136.5,-427.35 140,-417.35 133,-417.35"/>
</g>
<!-- Node4&#45;&gt;Node1 -->
<g id="edge3" class="edge">
<title>Node4&#45;&gt;Node1</title>
<path fill="none" stroke="#404040" d="M225.86,-171.46C216.12,-159.09 205.79,-145.96 195.81,-133.28"/>
<polygon fill="none" stroke="#404040" points="195.68,-133.11 188.82,-130.87 188.25,-123.68 195.11,-125.92 195.68,-133.11"/>
<text text-anchor="middle" x="248.5" y="-145" font-family="Helvetica,sans-Serif" font-size="10.00"> &#45;ModalWindow</text>
</g>
</g>
</svg>
