<?xml version="1.0" encoding="UTF-8" standalone="no"?>
<!DOCTYPE svg PUBLIC "-//W3C//DTD SVG 1.1//EN"
 "http://www.w3.org/Graphics/SVG/1.1/DTD/svg11.dtd">
<!-- Generated by graphviz version 2.43.0 (0)
 -->
<!-- Title: User.UserData.UpdateTaskScore Pages: 1 -->
<svg width="788pt" height="101pt"
 viewBox="0.00 0.00 788.00 101.00" xmlns="http://www.w3.org/2000/svg" xmlns:xlink="http://www.w3.org/1999/xlink">
<g id="graph0" class="graph" transform="scale(1 1) rotate(0) translate(4 97)">
<title>User.UserData.UpdateTaskScore</title>
<!-- Node1 -->
<g id="Node000001" class="node">
<title>Node1</title>
<g id="a_Node000001"><a xlink:title="Update the user&#39;s task score.">
<polygon fill="#999999" stroke="#666666" points="780,-56 606,-56 606,-37 780,-37 780,-56"/>
<text text-anchor="middle" x="693" y="-44" font-family="Helvetica,sans-Serif" font-size="10.00">User.UserData.UpdateTaskScore</text>
</a>
</g>
</g>
<!-- Node2 -->
<g id="Node000002" class="node">
<title>Node2</title>
<g id="a_Node000002"><a xlink:href="classGame_1_1UI_1_1GameUI.html#a5917dd3ff591dc192c83474a0db6b79d" target="_top" xlink:title="Callback after the player bought the immunity.">
<polygon fill="white" stroke="#666666" points="570,-93 383,-93 383,-74 570,-74 570,-93"/>
<text text-anchor="middle" x="476.5" y="-81" font-family="Helvetica,sans-Serif" font-size="10.00">Game.UI.GameUI.BoughtImmunity</text>
</a>
</g>
</g>
<!-- Node1&#45;&gt;Node2 -->
<g id="edge1_Node000001_Node000002" class="edge">
<title>Node1&#45;&gt;Node2</title>
<g id="a_edge1_Node000001_Node000002"><a xlink:title=" ">
<path fill="none" stroke="#63b8ff" d="M626.81,-57.75C596.82,-62.92 561.61,-68.99 532.92,-73.94"/>
<polygon fill="#63b8ff" stroke="#63b8ff" points="627.5,-61.18 636.76,-56.03 626.31,-54.28 627.5,-61.18"/>
</a>
</g>
</g>
<!-- Node5 -->
<g id="Node000005" class="node">
<title>Node5</title>
<g id="a_Node000005"><a xlink:href="classGame_1_1UI_1_1GameUI.html#a1b43083f2e18b3389e4f654cc2d73bed" target="_top" xlink:title="Callback after the player bought the turbo.">
<polygon fill="white" stroke="#666666" points="559.5,-56 393.5,-56 393.5,-37 559.5,-37 559.5,-56"/>
<text text-anchor="middle" x="476.5" y="-44" font-family="Helvetica,sans-Serif" font-size="10.00">Game.UI.GameUI.BoughtTurbo</text>
</a>
</g>
</g>
<!-- Node1&#45;&gt;Node5 -->
<g id="edge4_Node000001_Node000005" class="edge">
<title>Node1&#45;&gt;Node5</title>
<g id="a_edge4_Node000001_Node000005"><a xlink:title=" ">
<path fill="none" stroke="#63b8ff" d="M595.9,-46.5C583.81,-46.5 571.54,-46.5 559.7,-46.5"/>
<polygon fill="#63b8ff" stroke="#63b8ff" points="595.99,-50 605.99,-46.5 595.99,-43 595.99,-50"/>
</a>
</g>
</g>
<!-- Node7 -->
<g id="Node000007" class="node">
<title>Node7</title>
<g id="a_Node000007"><a xlink:href="classGame_1_1UI_1_1GameUI.html#a3c2c26f77375693436ab41d77452948f" target="_top" xlink:title="Callback after the coins were doubled.">
<polygon fill="white" stroke="#666666" points="563,-19 390,-19 390,0 563,0 563,-19"/>
<text text-anchor="middle" x="476.5" y="-7" font-family="Helvetica,sans-Serif" font-size="10.00">Game.UI.GameUI.DoubledCoins</text>
</a>
</g>
</g>
<!-- Node1&#45;&gt;Node7 -->
<g id="edge7_Node000001_Node000007" class="edge">
<title>Node1&#45;&gt;Node7</title>
<g id="a_edge7_Node000001_Node000007"><a xlink:title=" ">
<path fill="none" stroke="#63b8ff" d="M626.81,-35.25C596.82,-30.08 561.61,-24.01 532.92,-19.06"/>
<polygon fill="#63b8ff" stroke="#63b8ff" points="626.31,-38.72 636.76,-36.97 627.5,-31.82 626.31,-38.72"/>
</a>
</g>
</g>
<!-- Node3 -->
<g id="Node000003" class="node">
<title>Node3</title>
<g id="a_Node000003"><a xlink:href="classGame_1_1UI_1_1GameUI.html#acd930ff070019fc74a3795a8b1452923" target="_top" xlink:title="Buy the immunity power up.">
<polygon fill="white" stroke="#666666" points="347,-93 176,-93 176,-74 347,-74 347,-93"/>
<text text-anchor="middle" x="261.5" y="-81" font-family="Helvetica,sans-Serif" font-size="10.00">Game.UI.GameUI.BuyImmunity</text>
</a>
</g>
</g>
<!-- Node2&#45;&gt;Node3 -->
<g id="edge2_Node000002_Node000003" class="edge">
<title>Node2&#45;&gt;Node3</title>
<g id="a_edge2_Node000002_Node000003"><a xlink:title=" ">
<path fill="none" stroke="#63b8ff" d="M372.44,-83.5C364.02,-83.5 355.56,-83.5 347.29,-83.5"/>
<polygon fill="#63b8ff" stroke="#63b8ff" points="372.69,-87 382.69,-83.5 372.69,-80 372.69,-87"/>
</a>
</g>
</g>
<!-- Node4 -->
<g id="Node000004" class="node">
<title>Node4</title>
<g id="a_Node000004"><a xlink:href="classGame_1_1UI_1_1GameUI.html#a77f6894867ecdecc2f7ca4bea695849f" target="_top" xlink:title="Called every frame.">
<polygon fill="white" stroke="#666666" points="140,-74 0,-74 0,-55 140,-55 140,-74"/>
<text text-anchor="middle" x="70" y="-62" font-family="Helvetica,sans-Serif" font-size="10.00">Game.UI.GameUI.Update</text>
</a>
</g>
</g>
<!-- Node3&#45;&gt;Node4 -->
<g id="edge3_Node000003_Node000004" class="edge">
<title>Node3&#45;&gt;Node4</title>
<g id="a_edge3_Node000003_Node000004"><a xlink:title=" ">
<path fill="none" stroke="#63b8ff" d="M165.63,-73.99C157.02,-73.12 148.41,-72.26 140.08,-71.43"/>
<polygon fill="#63b8ff" stroke="#63b8ff" points="165.43,-77.49 175.73,-75 166.13,-70.52 165.43,-77.49"/>
</a>
</g>
</g>
<!-- Node6 -->
<g id="Node000006" class="node">
<title>Node6</title>
<g id="a_Node000006"><a xlink:href="classGame_1_1UI_1_1GameUI.html#a97a84e72b5ac1d245d1bfd3eb802fdfd" target="_top" xlink:title="Buy the turbo power up.">
<polygon fill="white" stroke="#666666" points="336.5,-56 186.5,-56 186.5,-37 336.5,-37 336.5,-56"/>
<text text-anchor="middle" x="261.5" y="-44" font-family="Helvetica,sans-Serif" font-size="10.00">Game.UI.GameUI.BuyTurbo</text>
</a>
</g>
</g>
<!-- Node5&#45;&gt;Node6 -->
<g id="edge5_Node000005_Node000006" class="edge">
<title>Node5&#45;&gt;Node6</title>
<g id="a_edge5_Node000005_Node000006"><a xlink:title=" ">
<path fill="none" stroke="#63b8ff" d="M383.32,-46.5C367.79,-46.5 351.84,-46.5 336.84,-46.5"/>
<polygon fill="#63b8ff" stroke="#63b8ff" points="383.45,-50 393.45,-46.5 383.45,-43 383.45,-50"/>
</a>
</g>
</g>
<!-- Node6&#45;&gt;Node4 -->
<g id="edge6_Node000006_Node000004" class="edge">
<title>Node6&#45;&gt;Node4</title>
<g id="a_edge6_Node000006_Node000004"><a xlink:title=" ">
<path fill="none" stroke="#63b8ff" d="M176.32,-54.5C164.2,-55.65 151.85,-56.82 140.08,-57.94"/>
<polygon fill="#63b8ff" stroke="#63b8ff" points="176.8,-57.97 186.42,-53.54 176.13,-51 176.8,-57.97"/>
</a>
</g>
</g>
<!-- Node8 -->
<g id="Node000008" class="node">
<title>Node8</title>
<g id="a_Node000008"><a xlink:href="classGame_1_1UI_1_1GameUI.html#aaed9ba7f6e28b2260d488f01c803e60a" target="_top" xlink:title="Buy the double coins bonus.">
<polygon fill="white" stroke="#666666" points="345,-19 178,-19 178,0 345,0 345,-19"/>
<text text-anchor="middle" x="261.5" y="-7" font-family="Helvetica,sans-Serif" font-size="10.00">Game.UI.GameUI.DoubleCoins</text>
</a>
</g>
</g>
<!-- Node7&#45;&gt;Node8 -->
<g id="edge8_Node000007_Node000008" class="edge">
<title>Node7&#45;&gt;Node8</title>
<g id="a_edge8_Node000007_Node000008"><a xlink:title=" ">
<path fill="none" stroke="#63b8ff" d="M379.74,-9.5C368.24,-9.5 356.57,-9.5 345.27,-9.5"/>
<polygon fill="#63b8ff" stroke="#63b8ff" points="379.79,-13 389.79,-9.5 379.79,-6 379.79,-13"/>
</a>
</g>
</g>
</g>
</svg>
