<?xml version="1.0" encoding="UTF-8" standalone="no"?>
<!DOCTYPE svg PUBLIC "-//W3C//DTD SVG 1.1//EN"
 "http://www.w3.org/Graphics/SVG/1.1/DTD/svg11.dtd">
<!-- Generated by graphviz version 2.43.0 (0)
 -->
<!-- Title: Game.UI.ShopItem Pages: 1 -->
<svg width="456pt" height="741pt"
 viewBox="0.00 0.00 455.50 741.00" xmlns="http://www.w3.org/2000/svg" xmlns:xlink="http://www.w3.org/1999/xlink">
<g id="graph0" class="graph" transform="scale(1 1) rotate(0) translate(4 737)">
<title>Game.UI.ShopItem</title>
<polygon fill="white" stroke="transparent" points="-4,4 -4,-737 451.5,-737 451.5,4 -4,4"/>
<!-- Node1 -->
<g id="node1" class="node">
<title>Node1</title>
<g id="a_node1"><a xlink:title="A single shop item">
<polygon fill="#bfbfbf" stroke="black" points="0,-0.5 0,-156.5 311,-156.5 311,-0.5 0,-0.5"/>
<text text-anchor="middle" x="155.5" y="-144.5" font-family="Helvetica,sans-Serif" font-size="10.00">Game.UI.ShopItem</text>
<polyline fill="none" stroke="black" points="0,-137.5 311,-137.5 "/>
<text text-anchor="start" x="8" y="-125.5" font-family="Helvetica,sans-Serif" font-size="10.00">+ long Id</text>
<text text-anchor="start" x="8" y="-114.5" font-family="Helvetica,sans-Serif" font-size="10.00">+ bool Owned</text>
<text text-anchor="start" x="8" y="-103.5" font-family="Helvetica,sans-Serif" font-size="10.00">&#45; TMP_Text ProductName</text>
<text text-anchor="start" x="8" y="-92.5" font-family="Helvetica,sans-Serif" font-size="10.00">&#45; Image ProductImage</text>
<text text-anchor="start" x="8" y="-81.5" font-family="Helvetica,sans-Serif" font-size="10.00">&#45; TMP_Text Price</text>
<text text-anchor="start" x="8" y="-70.5" font-family="Helvetica,sans-Serif" font-size="10.00">&#45; Button BuyButton</text>
<polyline fill="none" stroke="black" points="0,-63.5 311,-63.5 "/>
<text text-anchor="start" x="8" y="-51.5" font-family="Helvetica,sans-Serif" font-size="10.00">+ void Init(ShopWindow parentWindow, Shop item, Sprite</text>
<text text-anchor="start" x="8" y="-40.5" font-family="Helvetica,sans-Serif" font-size="10.00"> image, bool owned)</text>
<text text-anchor="start" x="8" y="-29.5" font-family="Helvetica,sans-Serif" font-size="10.00">+ void Buy()</text>
<text text-anchor="start" x="8" y="-18.5" font-family="Helvetica,sans-Serif" font-size="10.00">+ string GetDisplayedPrice()</text>
<text text-anchor="start" x="8" y="-7.5" font-family="Helvetica,sans-Serif" font-size="10.00">&#45; void Bought(Thesis_backend.Data_Structures.Game game)</text>
</a>
</g>
</g>
<!-- Node2 -->
<g id="node2" class="node">
<title>Node2</title>
<g id="a_node2"><a xlink:href="classUtility_1_1ThreadSafeMonoBehaviour.html" target="_top" xlink:title="Safely stores if the gameobject been destroyed in a bool">
<polygon fill="white" stroke="black" points="103,-580.5 103,-637.5 252,-637.5 252,-580.5 103,-580.5"/>
<text text-anchor="middle" x="177.5" y="-625.5" font-family="Helvetica,sans-Serif" font-size="10.00">ThreadSafeMonoBehaviour</text>
<polyline fill="none" stroke="black" points="103,-618.5 252,-618.5 "/>
<text text-anchor="start" x="111" y="-606.5" font-family="Helvetica,sans-Serif" font-size="10.00">+ bool Destroyed</text>
<polyline fill="none" stroke="black" points="103,-599.5 252,-599.5 "/>
<text text-anchor="start" x="111" y="-587.5" font-family="Helvetica,sans-Serif" font-size="10.00"># void OnDestroy()</text>
</a>
</g>
</g>
<!-- Node2&#45;&gt;Node1 -->
<g id="edge1" class="edge">
<title>Node2&#45;&gt;Node1</title>
<path fill="none" stroke="midnightblue" d="M172.39,-570.25C172.07,-567.46 171.77,-564.69 171.5,-562 163.13,-477.77 161.82,-456.58 158.5,-372 155.63,-298.93 155.04,-215.51 155.07,-156.51"/>
<polygon fill="none" stroke="midnightblue" points="168.93,-570.8 173.61,-580.3 175.88,-569.95 168.93,-570.8"/>
</g>
<!-- Node4 -->
<g id="node4" class="node">
<title>Node4</title>
<g id="a_node4"><a xlink:href="classGame_1_1UI_1_1ShopWindow.html" target="_top" xlink:title="Handles the shop window&#39;s content display">
<polygon fill="white" stroke="black" points="167.5,-204.5 167.5,-371.5 427.5,-371.5 427.5,-204.5 167.5,-204.5"/>
<text text-anchor="middle" x="297.5" y="-359.5" font-family="Helvetica,sans-Serif" font-size="10.00">Game.UI.ShopWindow</text>
<polyline fill="none" stroke="black" points="167.5,-352.5 427.5,-352.5 "/>
<text text-anchor="start" x="175.5" y="-340.5" font-family="Helvetica,sans-Serif" font-size="10.00">+ List&lt; Sprite &gt; ShopItemSprites</text>
<text text-anchor="start" x="175.5" y="-329.5" font-family="Helvetica,sans-Serif" font-size="10.00">&#45; GameObject ShopParent</text>
<text text-anchor="start" x="175.5" y="-318.5" font-family="Helvetica,sans-Serif" font-size="10.00">&#45; GameObject ShopItemPrefab</text>
<text text-anchor="start" x="175.5" y="-307.5" font-family="Helvetica,sans-Serif" font-size="10.00">&#45; TMP_Text CoinText</text>
<text text-anchor="start" x="175.5" y="-296.5" font-family="Helvetica,sans-Serif" font-size="10.00">&#45; List&lt; Shop &gt; shopItemsCache</text>
<polyline fill="none" stroke="black" points="167.5,-289.5 427.5,-289.5 "/>
<text text-anchor="start" x="175.5" y="-277.5" font-family="Helvetica,sans-Serif" font-size="10.00">+ void Show()</text>
<text text-anchor="start" x="175.5" y="-266.5" font-family="Helvetica,sans-Serif" font-size="10.00">+ void Hide()</text>
<text text-anchor="start" x="175.5" y="-255.5" font-family="Helvetica,sans-Serif" font-size="10.00">+ void ShowRequestFail(string content)</text>
<text text-anchor="start" x="175.5" y="-244.5" font-family="Helvetica,sans-Serif" font-size="10.00">+ void UpdateShop()</text>
<text text-anchor="start" x="175.5" y="-233.5" font-family="Helvetica,sans-Serif" font-size="10.00">+ string GetCoinText()</text>
<text text-anchor="start" x="175.5" y="-222.5" font-family="Helvetica,sans-Serif" font-size="10.00">+ GameObject GetShopParent()</text>
<text text-anchor="start" x="175.5" y="-211.5" font-family="Helvetica,sans-Serif" font-size="10.00">&#45; void LoadedShopItems(List&lt; Shop &gt; shopItems)</text>
</a>
</g>
</g>
<!-- Node2&#45;&gt;Node4 -->
<g id="edge4" class="edge">
<title>Node2&#45;&gt;Node4</title>
<path fill="none" stroke="midnightblue" d="M175.28,-570.1C174.34,-530.87 176.71,-468.51 196.5,-419 203.03,-402.68 212.24,-386.7 222.49,-371.83"/>
<polygon fill="none" stroke="midnightblue" points="171.78,-570.4 175.61,-580.28 178.78,-570.17 171.78,-570.4"/>
</g>
<!-- Node5 -->
<g id="node5" class="node">
<title>Node5</title>
<g id="a_node5"><a xlink:href="classUtility_1_1ModalWindow.html" target="_top" xlink:title="Modal window for alerting the user">
<polygon fill="white" stroke="black" points="205.5,-419.5 205.5,-542.5 447.5,-542.5 447.5,-419.5 205.5,-419.5"/>
<text text-anchor="middle" x="326.5" y="-530.5" font-family="Helvetica,sans-Serif" font-size="10.00">Utility.ModalWindow</text>
<polyline fill="none" stroke="black" points="205.5,-523.5 447.5,-523.5 "/>
<text text-anchor="start" x="213.5" y="-511.5" font-family="Helvetica,sans-Serif" font-size="10.00">&#45; TMP_Text ModalTitleText</text>
<text text-anchor="start" x="213.5" y="-500.5" font-family="Helvetica,sans-Serif" font-size="10.00">&#45; TMP_Text ModalContentText</text>
<text text-anchor="start" x="213.5" y="-489.5" font-family="Helvetica,sans-Serif" font-size="10.00">&#45; Action onOkAction</text>
<polyline fill="none" stroke="black" points="205.5,-482.5 447.5,-482.5 "/>
<text text-anchor="start" x="213.5" y="-470.5" font-family="Helvetica,sans-Serif" font-size="10.00">+ void Show()</text>
<text text-anchor="start" x="213.5" y="-459.5" font-family="Helvetica,sans-Serif" font-size="10.00">+ void Show(string title, string content, Action</text>
<text text-anchor="start" x="213.5" y="-448.5" font-family="Helvetica,sans-Serif" font-size="10.00"> onOkAction=null)</text>
<text text-anchor="start" x="213.5" y="-437.5" font-family="Helvetica,sans-Serif" font-size="10.00">+ void Hide()</text>
<text text-anchor="start" x="213.5" y="-426.5" font-family="Helvetica,sans-Serif" font-size="10.00">+ void ConfirmButtonClick()</text>
</a>
</g>
</g>
<!-- Node2&#45;&gt;Node5 -->
<g id="edge6" class="edge">
<title>Node2&#45;&gt;Node5</title>
<path fill="none" stroke="midnightblue" d="M217.87,-573.86C229.3,-564.19 242.1,-553.37 254.78,-542.65"/>
<polygon fill="none" stroke="midnightblue" points="215.57,-571.22 210.2,-580.35 220.09,-576.56 215.57,-571.22"/>
</g>
<!-- Node3 -->
<g id="node3" class="node">
<title>Node3</title>
<g id="a_node3"><a xlink:title=" ">
<polygon fill="white" stroke="#bfbfbf" points="131,-675.5 131,-732.5 224,-732.5 224,-675.5 131,-675.5"/>
<text text-anchor="middle" x="177.5" y="-720.5" font-family="Helvetica,sans-Serif" font-size="10.00">MonoBehaviour</text>
<polyline fill="none" stroke="#bfbfbf" points="131,-713.5 224,-713.5 "/>
<text text-anchor="middle" x="177.5" y="-701.5" font-family="Helvetica,sans-Serif" font-size="10.00"> </text>
<polyline fill="none" stroke="#bfbfbf" points="131,-694.5 224,-694.5 "/>
<text text-anchor="middle" x="177.5" y="-682.5" font-family="Helvetica,sans-Serif" font-size="10.00"> </text>
</a>
</g>
</g>
<!-- Node3&#45;&gt;Node2 -->
<g id="edge2" class="edge">
<title>Node3&#45;&gt;Node2</title>
<path fill="none" stroke="midnightblue" d="M177.5,-665.24C177.5,-656.03 177.5,-646.35 177.5,-637.71"/>
<polygon fill="none" stroke="midnightblue" points="174,-665.35 177.5,-675.35 181,-665.35 174,-665.35"/>
</g>
<!-- Node4&#45;&gt;Node1 -->
<g id="edge3" class="edge">
<title>Node4&#45;&gt;Node1</title>
<path fill="none" stroke="#404040" d="M240.97,-204.39C232.49,-192 223.72,-179.18 215.17,-166.69"/>
<polygon fill="none" stroke="#404040" points="215.15,-166.67 208.46,-163.97 208.37,-156.76 215.06,-159.46 215.15,-166.67"/>
<text text-anchor="middle" x="261.5" y="-178" font-family="Helvetica,sans-Serif" font-size="10.00"> &#45;shopWindow</text>
</g>
<!-- Node5&#45;&gt;Node4 -->
<g id="edge5" class="edge">
<title>Node5&#45;&gt;Node4</title>
<path fill="none" stroke="#404040" d="M317.28,-419.3C315.56,-407.92 313.71,-395.76 311.87,-383.63"/>
<polygon fill="none" stroke="#404040" points="311.83,-383.4 306.98,-378.06 310.03,-371.53 314.89,-376.86 311.83,-383.4"/>
<text text-anchor="middle" x="351.5" y="-393" font-family="Helvetica,sans-Serif" font-size="10.00"> &#45;ModalWindow</text>
</g>
</g>
</svg>
