<?xml version="1.0" encoding="UTF-8" standalone="no"?>
<!DOCTYPE svg PUBLIC "-//W3C//DTD SVG 1.1//EN"
 "http://www.w3.org/Graphics/SVG/1.1/DTD/svg11.dtd">
<!-- Generated by graphviz version 2.43.0 (0)
 -->
<!-- Title: CameraScript Pages: 1 -->
<!--zoomable 1348 -->
<svg id="main" version="1.1" xmlns="http://www.w3.org/2000/svg" xmlns:xlink="http://www.w3.org/1999/xlink" xml:space="preserve" onload="init(evt)">
<style type="text/css"><![CDATA[
.edge:hover path { stroke: red; }
.edge:hover polygon { stroke: red; fill: red; }
]]></style>
<script type="text/javascript"><![CDATA[
var edges = document.getElementsByTagName('g');
if (edges && edges.length) {
  for (var i=0;i<edges.length;i++) {
    if (edges[i].id.substr(0,4)=='edge') {
      edges[i].setAttribute('class','edge');
    }
  }
}
]]></script>
        <defs>
                <circle id="rim" cx="0" cy="0" r="7"/>
                <circle id="rim2" cx="0" cy="0" r="3.5"/>
                <g id="zoomPlus">
                        <use xlink:href="#rim" fill="#404040">
                                <set attributeName="fill" to="#808080" begin="zoomplus.mouseover" end="zoomplus.mouseout"/>
                        </use>
                        <path d="M-4,0h8M0,-4v8" fill="none" stroke="white" stroke-width="1.5" pointer-events="none"/>
                </g>
                <g id="zoomMin">
                        <use xlink:href="#rim" fill="#404040">
                                <set attributeName="fill" to="#808080" begin="zoomminus.mouseover" end="zoomminus.mouseout"/>
                        </use>
                        <path d="M-4,0h8" fill="none" stroke="white" stroke-width="1.5" pointer-events="none"/>
                </g>
                <g id="dirArrow">
                        <path fill="none" stroke="white" stroke-width="1.5" d="M0,-3.0v7 M-2.5,-0.5L0,-3.0L2.5,-0.5"/>
                </g>
               <g id="resetDef">
                       <use xlink:href="#rim2" fill="#404040">
                               <set attributeName="fill" to="#808080" begin="reset.mouseover" end="reset.mouseout"/>
                       </use>
               </g>
        </defs>

<script type="text/javascript">
var viewWidth = 1330;
var viewHeight = 1348;
var sectionId = 'dynsection-1';
</script>
<script xlink:href="svgpan.js"/>
<svg id="graph" class="graph">
<g id="viewport">
<title>CameraScript</title>
<polygon fill="white" stroke="transparent" points="-4,4 -4,-1344 1326.46,-1344 1326.46,4 -4,4"/>
<!-- Node1 -->
<g id="node1" class="node">
<title>Node1</title>
<g id="a_node1"><a xlink:title="Script which follows the player&#39;s car">
<polygon fill="#bfbfbf" stroke="black" points="473,-578.5 473,-646.5 604,-646.5 604,-578.5 473,-578.5"/>
<text text-anchor="middle" x="538.5" y="-634.5" font-family="Helvetica,sans-Serif" font-size="10.00">CameraScript</text>
<polyline fill="none" stroke="black" points="473,-627.5 604,-627.5 "/>
<text text-anchor="start" x="481" y="-615.5" font-family="Helvetica,sans-Serif" font-size="10.00">&#45; Vector3 CameraOffset</text>
<polyline fill="none" stroke="black" points="473,-608.5 604,-608.5 "/>
<text text-anchor="start" x="481" y="-596.5" font-family="Helvetica,sans-Serif" font-size="10.00">&#45; void Start()</text>
<text text-anchor="start" x="481" y="-585.5" font-family="Helvetica,sans-Serif" font-size="10.00">&#45; void Update()</text>
</a>
</g>
</g>
<!-- Node2 -->
<g id="node2" class="node">
<title>Node2</title>
<g id="a_node2"><a xlink:href="classUtility_1_1ThreadSafeMonoBehaviour.html" target="_top" xlink:title="Safely stores if the gameobject been destroyed in a bool">
<polygon fill="white" stroke="black" points="675,-1187.5 675,-1244.5 824,-1244.5 824,-1187.5 675,-1187.5"/>
<text text-anchor="middle" x="749.5" y="-1232.5" font-family="Helvetica,sans-Serif" font-size="10.00">ThreadSafeMonoBehaviour</text>
<polyline fill="none" stroke="black" points="675,-1225.5 824,-1225.5 "/>
<text text-anchor="start" x="683" y="-1213.5" font-family="Helvetica,sans-Serif" font-size="10.00">+ bool Destroyed</text>
<polyline fill="none" stroke="black" points="675,-1206.5 824,-1206.5 "/>
<text text-anchor="start" x="683" y="-1194.5" font-family="Helvetica,sans-Serif" font-size="10.00"># void OnDestroy()</text>
</a>
</g>
</g>
<!-- Node2&#45;&gt;Node1 -->
<g id="edge1" class="edge">
<title>Node2&#45;&gt;Node1</title>
<path fill="none" stroke="midnightblue" d="M736.37,-1177.58C698.03,-1068.26 586.6,-750.61 550.17,-646.77"/>
<polygon fill="none" stroke="midnightblue" points="733.13,-1178.92 739.75,-1187.19 739.74,-1176.6 733.13,-1178.92"/>
</g>
<!-- Node4 -->
<g id="node4" class="node">
<title>Node4</title>
<g id="a_node4"><a xlink:href="classGame_1_1GameController.html" target="_top" xlink:title="Handles the main flow of the game scene">
<polygon fill="white" stroke="black" points="176,-818.5 176,-1139.5 433,-1139.5 433,-818.5 176,-818.5"/>
<text text-anchor="middle" x="304.5" y="-1127.5" font-family="Helvetica,sans-Serif" font-size="10.00">Game.GameController</text>
<polyline fill="none" stroke="black" points="176,-1120.5 433,-1120.5 "/>
<text text-anchor="start" x="184" y="-1108.5" font-family="Helvetica,sans-Serif" font-size="10.00">+ World.GameWorld World</text>
<text text-anchor="start" x="184" y="-1097.5" font-family="Helvetica,sans-Serif" font-size="10.00">+ int Score</text>
<text text-anchor="start" x="184" y="-1086.5" font-family="Helvetica,sans-Serif" font-size="10.00">+ PlayerCar? Player</text>
<text text-anchor="start" x="184" y="-1075.5" font-family="Helvetica,sans-Serif" font-size="10.00">+ Vector3 PlayerPos</text>
<text text-anchor="start" x="184" y="-1064.5" font-family="Helvetica,sans-Serif" font-size="10.00">+ bool Running</text>
<text text-anchor="start" x="184" y="-1053.5" font-family="Helvetica,sans-Serif" font-size="10.00">+ int Difficulty</text>
<text text-anchor="start" x="184" y="-1042.5" font-family="Helvetica,sans-Serif" font-size="10.00">+ float Coins</text>
<text text-anchor="start" x="184" y="-1031.5" font-family="Helvetica,sans-Serif" font-size="10.00">&#45; int chunkLoadDistance</text>
<text text-anchor="start" x="184" y="-1020.5" font-family="Helvetica,sans-Serif" font-size="10.00">&#45; Dictionary&lt; long, GameObject &gt; playerVariants</text>
<text text-anchor="start" x="184" y="-1009.5" font-family="Helvetica,sans-Serif" font-size="10.00">&#45; float elapsedTime</text>
<polyline fill="none" stroke="black" points="176,-1002.5 433,-1002.5 "/>
<text text-anchor="start" x="184" y="-990.5" font-family="Helvetica,sans-Serif" font-size="10.00">+ void IncreaseCoinCount(float amount)</text>
<text text-anchor="start" x="184" y="-979.5" font-family="Helvetica,sans-Serif" font-size="10.00">+ async Task NewGame()</text>
<text text-anchor="start" x="184" y="-968.5" font-family="Helvetica,sans-Serif" font-size="10.00">+ async Task LoadAndDespawnChunks</text>
<text text-anchor="start" x="184" y="-957.5" font-family="Helvetica,sans-Serif" font-size="10.00">(int centerRow, int centerColumn)</text>
<text text-anchor="start" x="184" y="-946.5" font-family="Helvetica,sans-Serif" font-size="10.00">&#45; void Awake()</text>
<text text-anchor="start" x="184" y="-935.5" font-family="Helvetica,sans-Serif" font-size="10.00">&#45; void Start()</text>
<text text-anchor="start" x="184" y="-924.5" font-family="Helvetica,sans-Serif" font-size="10.00">&#45; void Update()</text>
<text text-anchor="start" x="184" y="-913.5" font-family="Helvetica,sans-Serif" font-size="10.00">&#45; void PlayerSkinsLoaded(GameObject</text>
<text text-anchor="start" x="184" y="-902.5" font-family="Helvetica,sans-Serif" font-size="10.00"> playerSkin)</text>
<text text-anchor="start" x="184" y="-891.5" font-family="Helvetica,sans-Serif" font-size="10.00">&#45; void PlayerDied(object? sender,</text>
<text text-anchor="start" x="184" y="-880.5" font-family="Helvetica,sans-Serif" font-size="10.00"> EventArgs args)</text>
<text text-anchor="start" x="184" y="-869.5" font-family="Helvetica,sans-Serif" font-size="10.00">&#45; void DespawnFarAwayChunks(int row, int col)</text>
<text text-anchor="start" x="184" y="-858.5" font-family="Helvetica,sans-Serif" font-size="10.00">&#45; async Task SpawnNearbyChunks(int</text>
<text text-anchor="start" x="184" y="-847.5" font-family="Helvetica,sans-Serif" font-size="10.00"> row, int col)</text>
<text text-anchor="start" x="184" y="-836.5" font-family="Helvetica,sans-Serif" font-size="10.00">&#45; async Task ValidateAndLoadChunk</text>
<text text-anchor="start" x="184" y="-825.5" font-family="Helvetica,sans-Serif" font-size="10.00">(int row, int col)</text>
</a>
</g>
</g>
<!-- Node2&#45;&gt;Node4 -->
<g id="edge4" class="edge">
<title>Node2&#45;&gt;Node4</title>
<path fill="none" stroke="midnightblue" d="M679.22,-1183.03C669.52,-1178.42 659.73,-1173.66 650.5,-1169 577.79,-1132.3 497.91,-1088.88 433.24,-1052.92"/>
<polygon fill="none" stroke="midnightblue" points="677.93,-1186.29 688.47,-1187.4 680.92,-1179.96 677.93,-1186.29"/>
</g>
<!-- Node5 -->
<g id="node5" class="node">
<title>Node5</title>
<g id="a_node5"><a xlink:href="classGame_1_1UI_1_1GameUI.html" target="_top" xlink:title="Controller for the game&#39;s UI">
<polygon fill="white" stroke="black" points="795.5,-0.5 795.5,-475.5 1103.5,-475.5 1103.5,-0.5 795.5,-0.5"/>
<text text-anchor="middle" x="949.5" y="-463.5" font-family="Helvetica,sans-Serif" font-size="10.00">Game.UI.GameUI</text>
<polyline fill="none" stroke="black" points="795.5,-456.5 1103.5,-456.5 "/>
<text text-anchor="start" x="803.5" y="-444.5" font-family="Helvetica,sans-Serif" font-size="10.00">+ bool Doubled</text>
<text text-anchor="start" x="803.5" y="-433.5" font-family="Helvetica,sans-Serif" font-size="10.00">+ int SelectedSkinIndex</text>
<text text-anchor="start" x="803.5" y="-422.5" font-family="Helvetica,sans-Serif" font-size="10.00">&#45; GameObject gameOverContainer</text>
<text text-anchor="start" x="803.5" y="-411.5" font-family="Helvetica,sans-Serif" font-size="10.00">&#45; GameObject ingameContainer</text>
<text text-anchor="start" x="803.5" y="-400.5" font-family="Helvetica,sans-Serif" font-size="10.00">&#45; GameObject mainMenuContainer</text>
<text text-anchor="start" x="803.5" y="-389.5" font-family="Helvetica,sans-Serif" font-size="10.00">&#45; Image SkinDisplay</text>
<text text-anchor="start" x="803.5" y="-378.5" font-family="Helvetica,sans-Serif" font-size="10.00">&#45; TMP_Text InfamyGameOverText</text>
<text text-anchor="start" x="803.5" y="-367.5" font-family="Helvetica,sans-Serif" font-size="10.00">&#45; TMP_Text CoinGameOverText</text>
<text text-anchor="start" x="803.5" y="-356.5" font-family="Helvetica,sans-Serif" font-size="10.00">&#45; TMP_Text InfamyInGameText</text>
<text text-anchor="start" x="803.5" y="-345.5" font-family="Helvetica,sans-Serif" font-size="10.00">&#45; TMP_Text TaskScoreInGameText</text>
<text text-anchor="start" x="803.5" y="-334.5" font-family="Helvetica,sans-Serif" font-size="10.00">&#45; TMP_Text CoinInGameText</text>
<text text-anchor="start" x="803.5" y="-323.5" font-family="Helvetica,sans-Serif" font-size="10.00">&#45; Button DoubleCoinButon</text>
<polyline fill="none" stroke="black" points="795.5,-316.5 1103.5,-316.5 "/>
<text text-anchor="start" x="803.5" y="-304.5" font-family="Helvetica,sans-Serif" font-size="10.00">+ void SaveGameResult()</text>
<text text-anchor="start" x="803.5" y="-293.5" font-family="Helvetica,sans-Serif" font-size="10.00">+ void DoubleCoins()</text>
<text text-anchor="start" x="803.5" y="-282.5" font-family="Helvetica,sans-Serif" font-size="10.00">+ void BuyImmunity()</text>
<text text-anchor="start" x="803.5" y="-271.5" font-family="Helvetica,sans-Serif" font-size="10.00">+ void BuyTurbo()</text>
<text text-anchor="start" x="803.5" y="-260.5" font-family="Helvetica,sans-Serif" font-size="10.00">+ void ShowLeaderboard()</text>
<text text-anchor="start" x="803.5" y="-249.5" font-family="Helvetica,sans-Serif" font-size="10.00">+ void LeftRotateSkin()</text>
<text text-anchor="start" x="803.5" y="-238.5" font-family="Helvetica,sans-Serif" font-size="10.00">+ void RightRotateSkin()</text>
<text text-anchor="start" x="803.5" y="-227.5" font-family="Helvetica,sans-Serif" font-size="10.00">+ void Init(GameController gameController)</text>
<text text-anchor="start" x="803.5" y="-216.5" font-family="Helvetica,sans-Serif" font-size="10.00">+ async void NewGame(bool save=true)</text>
<text text-anchor="start" x="803.5" y="-205.5" font-family="Helvetica,sans-Serif" font-size="10.00">+ void ChangeDifficulyDisplay(int</text>
<text text-anchor="start" x="803.5" y="-194.5" font-family="Helvetica,sans-Serif" font-size="10.00"> difficulty)</text>
<text text-anchor="start" x="803.5" y="-183.5" font-family="Helvetica,sans-Serif" font-size="10.00">+ void ShowEndGameScreen()</text>
<text text-anchor="start" x="803.5" y="-172.5" font-family="Helvetica,sans-Serif" font-size="10.00">+ void HideGameOverScreen(bool saveGameResults=true)</text>
<text text-anchor="start" x="803.5" y="-161.5" font-family="Helvetica,sans-Serif" font-size="10.00">+ void ShowShopWindow()</text>
<text text-anchor="start" x="803.5" y="-150.5" font-family="Helvetica,sans-Serif" font-size="10.00">+ void HideShopWindow()</text>
<text text-anchor="start" x="803.5" y="-139.5" font-family="Helvetica,sans-Serif" font-size="10.00">+ void BackToTasks()</text>
<text text-anchor="start" x="803.5" y="-128.5" font-family="Helvetica,sans-Serif" font-size="10.00">+ void BackToGameMenuWithoutSave()</text>
<text text-anchor="start" x="803.5" y="-117.5" font-family="Helvetica,sans-Serif" font-size="10.00">+ void BackToGameMenu()</text>
<text text-anchor="start" x="803.5" y="-106.5" font-family="Helvetica,sans-Serif" font-size="10.00">&#45; void Update()</text>
<text text-anchor="start" x="803.5" y="-95.5" font-family="Helvetica,sans-Serif" font-size="10.00">&#45; void SavedCoins(Thesis_backend.Data</text>
<text text-anchor="start" x="803.5" y="-84.5" font-family="Helvetica,sans-Serif" font-size="10.00">_Structures.Game game)</text>
<text text-anchor="start" x="803.5" y="-73.5" font-family="Helvetica,sans-Serif" font-size="10.00">&#45; void BoughtImmunity(Thesis_backend.Data</text>
<text text-anchor="start" x="803.5" y="-62.5" font-family="Helvetica,sans-Serif" font-size="10.00">_Structures.User user)</text>
<text text-anchor="start" x="803.5" y="-51.5" font-family="Helvetica,sans-Serif" font-size="10.00">&#45; void BoughtTurbo(Thesis_backend.Data</text>
<text text-anchor="start" x="803.5" y="-40.5" font-family="Helvetica,sans-Serif" font-size="10.00">_Structures.User user)</text>
<text text-anchor="start" x="803.5" y="-29.5" font-family="Helvetica,sans-Serif" font-size="10.00">&#45; void DoubledCoins(Thesis_backend.Data</text>
<text text-anchor="start" x="803.5" y="-18.5" font-family="Helvetica,sans-Serif" font-size="10.00">_Structures.User user)</text>
<text text-anchor="start" x="803.5" y="-7.5" font-family="Helvetica,sans-Serif" font-size="10.00">&#45; void ShowRequestFail(string content)</text>
</a>
</g>
</g>
<!-- Node2&#45;&gt;Node5 -->
<g id="edge6" class="edge">
<title>Node2&#45;&gt;Node5</title>
<path fill="none" stroke="midnightblue" d="M834.39,-1206.62C929.69,-1195.72 1076.74,-1173.97 1120.5,-1140 1256.07,-1034.78 1261.56,-966.41 1303.5,-800 1333.8,-679.78 1330.62,-631.43 1270.5,-523 1230.54,-450.93 1165.08,-388.06 1103.66,-339.93"/>
<polygon fill="none" stroke="midnightblue" points="833.73,-1203.17 824.19,-1207.77 834.51,-1210.13 833.73,-1203.17"/>
</g>
<!-- Node6 -->
<g id="node6" class="node">
<title>Node6</title>
<g id="a_node6"><a xlink:href="classGame_1_1UI_1_1ShopWindow.html" target="_top" xlink:title="Handles the shop window&#39;s content display">
<polygon fill="white" stroke="black" points="845,-523.5 845,-701.5 1054,-701.5 1054,-523.5 845,-523.5"/>
<text text-anchor="middle" x="949.5" y="-689.5" font-family="Helvetica,sans-Serif" font-size="10.00">Game.UI.ShopWindow</text>
<polyline fill="none" stroke="black" points="845,-682.5 1054,-682.5 "/>
<text text-anchor="start" x="853" y="-670.5" font-family="Helvetica,sans-Serif" font-size="10.00">+ List&lt; Sprite &gt; ShopItemSprites</text>
<text text-anchor="start" x="853" y="-659.5" font-family="Helvetica,sans-Serif" font-size="10.00">&#45; GameObject ShopParent</text>
<text text-anchor="start" x="853" y="-648.5" font-family="Helvetica,sans-Serif" font-size="10.00">&#45; GameObject ShopItemPrefab</text>
<text text-anchor="start" x="853" y="-637.5" font-family="Helvetica,sans-Serif" font-size="10.00">&#45; TMP_Text CoinText</text>
<text text-anchor="start" x="853" y="-626.5" font-family="Helvetica,sans-Serif" font-size="10.00">&#45; List&lt; Shop &gt; shopItemsCache</text>
<polyline fill="none" stroke="black" points="845,-619.5 1054,-619.5 "/>
<text text-anchor="start" x="853" y="-607.5" font-family="Helvetica,sans-Serif" font-size="10.00">+ void Show()</text>
<text text-anchor="start" x="853" y="-596.5" font-family="Helvetica,sans-Serif" font-size="10.00">+ void Hide()</text>
<text text-anchor="start" x="853" y="-585.5" font-family="Helvetica,sans-Serif" font-size="10.00">+ void ShowRequestFail(string content)</text>
<text text-anchor="start" x="853" y="-574.5" font-family="Helvetica,sans-Serif" font-size="10.00">+ void UpdateShop()</text>
<text text-anchor="start" x="853" y="-563.5" font-family="Helvetica,sans-Serif" font-size="10.00">+ string GetCoinText()</text>
<text text-anchor="start" x="853" y="-552.5" font-family="Helvetica,sans-Serif" font-size="10.00">+ GameObject GetShopParent()</text>
<text text-anchor="start" x="853" y="-541.5" font-family="Helvetica,sans-Serif" font-size="10.00">&#45; void LoadedShopItems(List&lt; Shop</text>
<text text-anchor="start" x="853" y="-530.5" font-family="Helvetica,sans-Serif" font-size="10.00"> &gt; shopItems)</text>
</a>
</g>
</g>
<!-- Node2&#45;&gt;Node6 -->
<g id="edge8" class="edge">
<title>Node2&#45;&gt;Node6</title>
<path fill="none" stroke="midnightblue" d="M754.63,-1177.25C754.95,-1174.46 755.24,-1171.69 755.5,-1169 760.29,-1119.24 753.14,-759.71 783.5,-720 798.61,-700.24 814.62,-713.84 836.5,-702 839.24,-700.52 841.98,-698.97 844.72,-697.36"/>
<polygon fill="none" stroke="midnightblue" points="751.14,-1176.96 753.42,-1187.3 758.09,-1177.79 751.14,-1176.96"/>
</g>
<!-- Node7 -->
<g id="node7" class="node">
<title>Node7</title>
<g id="a_node7"><a xlink:href="classUtility_1_1ModalWindow.html" target="_top" xlink:title="Modal window for alerting the user">
<polygon fill="white" stroke="black" points="805,-917.5 805,-1040.5 1014,-1040.5 1014,-917.5 805,-917.5"/>
<text text-anchor="middle" x="909.5" y="-1028.5" font-family="Helvetica,sans-Serif" font-size="10.00">Utility.ModalWindow</text>
<polyline fill="none" stroke="black" points="805,-1021.5 1014,-1021.5 "/>
<text text-anchor="start" x="813" y="-1009.5" font-family="Helvetica,sans-Serif" font-size="10.00">&#45; TMP_Text ModalTitleText</text>
<text text-anchor="start" x="813" y="-998.5" font-family="Helvetica,sans-Serif" font-size="10.00">&#45; TMP_Text ModalContentText</text>
<text text-anchor="start" x="813" y="-987.5" font-family="Helvetica,sans-Serif" font-size="10.00">&#45; Action onOkAction</text>
<polyline fill="none" stroke="black" points="805,-980.5 1014,-980.5 "/>
<text text-anchor="start" x="813" y="-968.5" font-family="Helvetica,sans-Serif" font-size="10.00">+ void Show()</text>
<text text-anchor="start" x="813" y="-957.5" font-family="Helvetica,sans-Serif" font-size="10.00">+ void Show(string title, string content,</text>
<text text-anchor="start" x="813" y="-946.5" font-family="Helvetica,sans-Serif" font-size="10.00"> Action onOkAction=null)</text>
<text text-anchor="start" x="813" y="-935.5" font-family="Helvetica,sans-Serif" font-size="10.00">+ void Hide()</text>
<text text-anchor="start" x="813" y="-924.5" font-family="Helvetica,sans-Serif" font-size="10.00">+ void ConfirmButtonClick()</text>
</a>
</g>
</g>
<!-- Node2&#45;&gt;Node7 -->
<g id="edge10" class="edge">
<title>Node2&#45;&gt;Node7</title>
<path fill="none" stroke="midnightblue" d="M776.31,-1179.08C778.76,-1175.69 781.19,-1172.29 783.5,-1169 813.3,-1126.56 845.73,-1077.85 870.23,-1040.51"/>
<polygon fill="none" stroke="midnightblue" points="773.28,-1177.29 770.22,-1187.43 778.94,-1181.41 773.28,-1177.29"/>
</g>
<!-- Node8 -->
<g id="node8" class="node">
<title>Node8</title>
<g id="a_node8"><a xlink:href="classGame_1_1UI_1_1LeaderboardWindow.html" target="_top" xlink:title="Handles the leaderboard display window">
<polygon fill="white" stroke="black" points="622,-545.5 622,-679.5 827,-679.5 827,-545.5 622,-545.5"/>
<text text-anchor="middle" x="724.5" y="-667.5" font-family="Helvetica,sans-Serif" font-size="10.00">Game.UI.LeaderboardWindow</text>
<polyline fill="none" stroke="black" points="622,-660.5 827,-660.5 "/>
<text text-anchor="start" x="630" y="-648.5" font-family="Helvetica,sans-Serif" font-size="10.00">&#45; GameObject scoreParent</text>
<text text-anchor="start" x="630" y="-637.5" font-family="Helvetica,sans-Serif" font-size="10.00">&#45; TMP_Dropdown filterTypeDropdown</text>
<text text-anchor="start" x="630" y="-626.5" font-family="Helvetica,sans-Serif" font-size="10.00">&#45; GameObject LeaderboardItemPrefab</text>
<polyline fill="none" stroke="black" points="622,-619.5 827,-619.5 "/>
<text text-anchor="start" x="630" y="-607.5" font-family="Helvetica,sans-Serif" font-size="10.00">+ void Show()</text>
<text text-anchor="start" x="630" y="-596.5" font-family="Helvetica,sans-Serif" font-size="10.00">+ void Hide()</text>
<text text-anchor="start" x="630" y="-585.5" font-family="Helvetica,sans-Serif" font-size="10.00">+ void LoadScores()</text>
<text text-anchor="start" x="630" y="-574.5" font-family="Helvetica,sans-Serif" font-size="10.00">&#45; void ShowRequestFail(string content)</text>
<text text-anchor="start" x="630" y="-563.5" font-family="Helvetica,sans-Serif" font-size="10.00">&#45; void LoadedScores(List&lt; GameScore</text>
<text text-anchor="start" x="630" y="-552.5" font-family="Helvetica,sans-Serif" font-size="10.00"> &gt; gameScores)</text>
</a>
</g>
</g>
<!-- Node2&#45;&gt;Node8 -->
<g id="edge12" class="edge">
<title>Node2&#45;&gt;Node8</title>
<path fill="none" stroke="midnightblue" d="M747.92,-1176.96C743.76,-1076.95 732.49,-805.69 727.25,-679.59"/>
<polygon fill="none" stroke="midnightblue" points="744.43,-1177.35 748.34,-1187.19 751.43,-1177.06 744.43,-1177.35"/>
</g>
<!-- Node9 -->
<g id="node9" class="node">
<title>Node9</title>
<g id="a_node9"><a xlink:href="classGame_1_1UI_1_1StarHandler.html" target="_top" xlink:title="Star handler">
<polygon fill="white" stroke="black" points="1103,-720.5 1103,-799.5 1302,-799.5 1302,-720.5 1103,-720.5"/>
<text text-anchor="middle" x="1202.5" y="-787.5" font-family="Helvetica,sans-Serif" font-size="10.00">Game.UI.StarHandler</text>
<polyline fill="none" stroke="black" points="1103,-780.5 1302,-780.5 "/>
<text text-anchor="start" x="1111" y="-768.5" font-family="Helvetica,sans-Serif" font-size="10.00">&#45; List&lt; Image &gt; Stars</text>
<text text-anchor="start" x="1111" y="-757.5" font-family="Helvetica,sans-Serif" font-size="10.00">&#45; Sprite fullStarSprite</text>
<text text-anchor="start" x="1111" y="-746.5" font-family="Helvetica,sans-Serif" font-size="10.00">&#45; Sprite emptyStarSprite</text>
<polyline fill="none" stroke="black" points="1103,-739.5 1302,-739.5 "/>
<text text-anchor="start" x="1111" y="-727.5" font-family="Helvetica,sans-Serif" font-size="10.00">+ void ChangeDifficulty(int difficulty)</text>
</a>
</g>
</g>
<!-- Node2&#45;&gt;Node9 -->
<g id="edge15" class="edge">
<title>Node2&#45;&gt;Node9</title>
<path fill="none" stroke="midnightblue" d="M834.24,-1210.16C893.21,-1202.76 970.47,-1184.52 1023.5,-1140 1132.18,-1048.76 1179.15,-876.62 1195.37,-799.76"/>
<polygon fill="none" stroke="midnightblue" points="833.72,-1206.7 824.2,-1211.34 834.54,-1213.65 833.72,-1206.7"/>
</g>
<!-- Node11 -->
<g id="node11" class="node">
<title>Node11</title>
<g id="a_node11"><a xlink:href="classGame_1_1World_1_1CarSpawner.html" target="_top" xlink:title="Car spawner">
<polygon fill="white" stroke="black" points="0,-529 0,-696 239,-696 239,-529 0,-529"/>
<text text-anchor="middle" x="119.5" y="-684" font-family="Helvetica,sans-Serif" font-size="10.00">Game.World.CarSpawner</text>
<polyline fill="none" stroke="black" points="0,-677 239,-677 "/>
<text text-anchor="start" x="8" y="-665" font-family="Helvetica,sans-Serif" font-size="10.00">&#45; List&lt; GameObject &gt; CopCars</text>
<text text-anchor="start" x="8" y="-654" font-family="Helvetica,sans-Serif" font-size="10.00">&#45; List&lt; GameObject &gt; CitizenCars</text>
<text text-anchor="start" x="8" y="-643" font-family="Helvetica,sans-Serif" font-size="10.00">&#45; Dictionary&lt; int, float &gt; spawnIntervalsTier1</text>
<text text-anchor="start" x="8" y="-632" font-family="Helvetica,sans-Serif" font-size="10.00">&#45; Dictionary&lt; int, float &gt; spawnIntervalsTier2</text>
<text text-anchor="start" x="8" y="-621" font-family="Helvetica,sans-Serif" font-size="10.00">&#45; Dictionary&lt; int, float &gt; spawnIntervalsTier3</text>
<text text-anchor="start" x="8" y="-610" font-family="Helvetica,sans-Serif" font-size="10.00">&#45; float tier1SpawnerTimer</text>
<text text-anchor="start" x="8" y="-599" font-family="Helvetica,sans-Serif" font-size="10.00">&#45; float tier2SpawnerTimer</text>
<text text-anchor="start" x="8" y="-588" font-family="Helvetica,sans-Serif" font-size="10.00">&#45; float tier3SpawnerTimer</text>
<polyline fill="none" stroke="black" points="0,-581 239,-581 "/>
<text text-anchor="start" x="8" y="-569" font-family="Helvetica,sans-Serif" font-size="10.00">+ void Update()</text>
<text text-anchor="start" x="8" y="-558" font-family="Helvetica,sans-Serif" font-size="10.00">+ void SpawnPolice(GameObject carPrefab)</text>
<text text-anchor="start" x="8" y="-547" font-family="Helvetica,sans-Serif" font-size="10.00">+ void Reset()</text>
<text text-anchor="start" x="8" y="-536" font-family="Helvetica,sans-Serif" font-size="10.00">+ void SpawnNpc()</text>
</a>
</g>
</g>
<!-- Node2&#45;&gt;Node11 -->
<g id="edge20" class="edge">
<title>Node2&#45;&gt;Node11</title>
<path fill="none" stroke="midnightblue" d="M664.69,-1215.83C520.61,-1215.4 236.77,-1205.93 166.5,-1140 46.37,-1027.29 71.59,-813.79 97.4,-696.25"/>
<polygon fill="none" stroke="midnightblue" points="664.82,-1219.33 674.82,-1215.85 664.83,-1212.33 664.82,-1219.33"/>
</g>
<!-- Node3 -->
<g id="node3" class="node">
<title>Node3</title>
<g id="a_node3"><a xlink:title=" ">
<polygon fill="white" stroke="#bfbfbf" points="703,-1282.5 703,-1339.5 796,-1339.5 796,-1282.5 703,-1282.5"/>
<text text-anchor="middle" x="749.5" y="-1327.5" font-family="Helvetica,sans-Serif" font-size="10.00">MonoBehaviour</text>
<polyline fill="none" stroke="#bfbfbf" points="703,-1320.5 796,-1320.5 "/>
<text text-anchor="middle" x="749.5" y="-1308.5" font-family="Helvetica,sans-Serif" font-size="10.00"> </text>
<polyline fill="none" stroke="#bfbfbf" points="703,-1301.5 796,-1301.5 "/>
<text text-anchor="middle" x="749.5" y="-1289.5" font-family="Helvetica,sans-Serif" font-size="10.00"> </text>
</a>
</g>
</g>
<!-- Node3&#45;&gt;Node2 -->
<g id="edge2" class="edge">
<title>Node3&#45;&gt;Node2</title>
<path fill="none" stroke="midnightblue" d="M749.5,-1272.24C749.5,-1263.03 749.5,-1253.35 749.5,-1244.71"/>
<polygon fill="none" stroke="midnightblue" points="746,-1272.35 749.5,-1282.35 753,-1272.35 746,-1272.35"/>
</g>
<!-- Node4&#45;&gt;Node1 -->
<g id="edge3" class="edge">
<title>Node4&#45;&gt;Node1</title>
<path fill="none" stroke="#404040" d="M406.97,-818.39C444.87,-759.35 484.84,-697.09 510.63,-656.91"/>
<polygon fill="none" stroke="#404040" points="510.71,-656.78 510.59,-649.57 517.19,-646.69 517.32,-653.9 510.71,-656.78"/>
<text text-anchor="middle" x="511" y="-757.5" font-family="Helvetica,sans-Serif" font-size="10.00"> &#45;gameController</text>
</g>
<!-- Node4&#45;&gt;Node5 -->
<g id="edge17" class="edge">
<title>Node4&#45;&gt;Node5</title>
<path fill="none" stroke="#404040" d="M330.75,-818.33C352.26,-687.82 379.36,-524.54 380.5,-523 477.83,-391.37 653.29,-316.95 783.73,-277.62"/>
<polygon fill="none" stroke="#404040" points="783.91,-277.57 788.53,-272.02 795.42,-274.15 790.8,-279.69 783.91,-277.57"/>
<text text-anchor="middle" x="422" y="-610" font-family="Helvetica,sans-Serif" font-size="10.00"> &#45;gameController</text>
</g>
<!-- Node4&#45;&gt;Node11 -->
<g id="edge21" class="edge">
<title>Node4&#45;&gt;Node11</title>
<path fill="none" stroke="#404040" d="M175.92,-883.8C151.77,-859.44 129.91,-831.17 116.5,-800 104.35,-771.76 101.62,-738.83 103,-708.56"/>
<polygon fill="none" stroke="#404040" points="103.02,-708.19 99.42,-701.95 103.79,-696.22 107.4,-702.46 103.02,-708.19"/>
<text text-anchor="middle" x="158" y="-757.5" font-family="Helvetica,sans-Serif" font-size="10.00"> &#45;gameController</text>
</g>
<!-- Node5&#45;&gt;Node4 -->
<g id="edge5" class="edge">
<title>Node5&#45;&gt;Node4</title>
<path fill="none" stroke="#404040" d="M795.18,-256.54C638.79,-283.66 405.76,-352.01 303.5,-523 288.94,-547.35 291.04,-687.71 295.68,-806.18"/>
<polygon fill="none" stroke="#404040" points="295.69,-806.31 299.92,-812.15 296.17,-818.31 291.93,-812.47 295.69,-806.31"/>
<text text-anchor="middle" x="326.5" y="-610" font-family="Helvetica,sans-Serif" font-size="10.00"> &#45;gameUI</text>
</g>
<!-- Node6&#45;&gt;Node5 -->
<g id="edge7" class="edge">
<title>Node6&#45;&gt;Node5</title>
<path fill="none" stroke="#404040" d="M949.5,-523.22C949.5,-512.09 949.5,-500.3 949.5,-488.11"/>
<polygon fill="none" stroke="#404040" points="949.5,-487.79 945.5,-481.79 949.5,-475.79 953.5,-481.79 949.5,-487.79"/>
<text text-anchor="middle" x="984.5" y="-497" font-family="Helvetica,sans-Serif" font-size="10.00"> &#45;ShopWindow</text>
</g>
<!-- Node7&#45;&gt;Node5 -->
<g id="edge16" class="edge">
<title>Node7&#45;&gt;Node5</title>
<path fill="none" stroke="#404040" d="M957.06,-917.34C995.29,-864.09 1045.49,-782.73 1063.5,-702 1080.82,-624.35 1078.59,-601.11 1063.5,-523 1061.23,-511.26 1058.48,-499.4 1055.35,-487.51"/>
<polygon fill="none" stroke="#404040" points="1055.27,-487.2 1049.83,-482.47 1052.1,-475.62 1057.54,-480.36 1055.27,-487.2"/>
<text text-anchor="middle" x="1113.5" y="-610" font-family="Helvetica,sans-Serif" font-size="10.00"> &#45;ModalWindow</text>
</g>
<!-- Node7&#45;&gt;Node6 -->
<g id="edge9" class="edge">
<title>Node7&#45;&gt;Node6</title>
<path fill="none" stroke="#404040" d="M916.15,-917.4C922.24,-861.94 931.36,-778.83 938.52,-713.53"/>
<polygon fill="none" stroke="#404040" points="938.53,-713.48 935.21,-707.08 939.84,-701.56 943.16,-707.96 938.53,-713.48"/>
<text text-anchor="middle" x="975.5" y="-757.5" font-family="Helvetica,sans-Serif" font-size="10.00"> &#45;ModalWindow</text>
</g>
<!-- Node7&#45;&gt;Node8 -->
<g id="edge13" class="edge">
<title>Node7&#45;&gt;Node8</title>
<path fill="none" stroke="#404040" d="M878.74,-917.4C847.21,-855.27 798.06,-758.43 763.74,-690.81"/>
<polygon fill="none" stroke="#404040" points="763.58,-690.5 757.3,-686.96 758.15,-679.8 764.43,-683.34 763.58,-690.5"/>
<text text-anchor="middle" x="854.5" y="-757.5" font-family="Helvetica,sans-Serif" font-size="10.00"> &#45;ModalWindow</text>
</g>
<!-- Node8&#45;&gt;Node5 -->
<g id="edge11" class="edge">
<title>Node8&#45;&gt;Node5</title>
<path fill="none" stroke="#404040" d="M764.47,-545.33C775.1,-527.73 787.24,-507.62 800.11,-486.32"/>
<polygon fill="none" stroke="#404040" points="800.28,-486.05 799.96,-478.84 806.48,-475.77 806.8,-482.98 800.28,-486.05"/>
<text text-anchor="middle" x="843" y="-497" font-family="Helvetica,sans-Serif" font-size="10.00"> &#45;leaderboardWindow</text>
</g>
<!-- Node9&#45;&gt;Node5 -->
<g id="edge14" class="edge">
<title>Node9&#45;&gt;Node5</title>
<path fill="none" stroke="#404040" d="M1203.33,-720.2C1203.01,-672.07 1197.99,-588.37 1170.5,-523 1155.25,-486.73 1134.12,-451.11 1110.94,-418.02"/>
<polygon fill="none" stroke="#404040" points="1110.65,-417.61 1103.91,-415.05 1103.68,-407.84 1110.42,-410.41 1110.65,-417.61"/>
<text text-anchor="middle" x="1234.5" y="-610" font-family="Helvetica,sans-Serif" font-size="10.00"> &#45;starHandler</text>
</g>
<!-- Node10 -->
<g id="node10" class="node">
<title>Node10</title>
<g id="a_node10"><a xlink:title=" ">
<polygon fill="white" stroke="#bfbfbf" points="15.5,-1187.5 15.5,-1244.5 59.5,-1244.5 59.5,-1187.5 15.5,-1187.5"/>
<text text-anchor="middle" x="37.5" y="-1232.5" font-family="Helvetica,sans-Serif" font-size="10.00">World</text>
<polyline fill="none" stroke="#bfbfbf" points="15.5,-1225.5 59.5,-1225.5 "/>
<text text-anchor="middle" x="37.5" y="-1213.5" font-family="Helvetica,sans-Serif" font-size="10.00"> </text>
<polyline fill="none" stroke="#bfbfbf" points="15.5,-1206.5 59.5,-1206.5 "/>
<text text-anchor="middle" x="37.5" y="-1194.5" font-family="Helvetica,sans-Serif" font-size="10.00"> </text>
</a>
</g>
</g>
<!-- Node10&#45;&gt;Node4 -->
<g id="edge18" class="edge">
<title>Node10&#45;&gt;Node4</title>
<path fill="none" stroke="#404040" d="M59.81,-1195.37C84.09,-1173.99 125.05,-1137.95 166.57,-1101.4"/>
<polygon fill="none" stroke="#404040" points="166.71,-1101.28 168.57,-1094.31 175.72,-1093.35 173.86,-1100.32 166.71,-1101.28"/>
<text text-anchor="middle" x="119.5" y="-1161" font-family="Helvetica,sans-Serif" font-size="10.00"> &#45;world</text>
</g>
<!-- Node11&#45;&gt;Node4 -->
<g id="edge19" class="edge">
<title>Node11&#45;&gt;Node4</title>
<path fill="none" stroke="#404040" d="M189.41,-696.03C194.57,-703.88 199.36,-711.93 203.5,-720 220.38,-752.92 213.94,-765.2 226.5,-800 227.32,-802.26 228.15,-804.53 228.99,-806.82"/>
<polygon fill="none" stroke="#404040" points="229.09,-807.07 234.95,-811.27 233.32,-818.3 227.46,-814.1 229.09,-807.07"/>
<text text-anchor="middle" x="258.5" y="-757.5" font-family="Helvetica,sans-Serif" font-size="10.00"> &#45;carSpawner</text>
</g>
</g>
</svg>
        <g id="navigator" transform="translate(0 0)" fill="#404254">
                <rect fill="#f2f5e9" fill-opacity="0.5" stroke="#606060" stroke-width=".5" x="0" y="0" width="60" height="60"/>
                <use id="zoomplus" xlink:href="#zoomPlus" x="17" y="9" onmousedown="handleZoom(evt,'in')"/>
                <use id="zoomminus" xlink:href="#zoomMin" x="42" y="9" onmousedown="handleZoom(evt,'out')"/>
                <use id="reset" xlink:href="#resetDef" x="30" y="36" onmousedown="handleReset()"/>
                <g id="arrowUp" xlink:href="#dirArrow" transform="translate(30 24)" onmousedown="handlePan(0,-1)">
                  <use xlink:href="#rim" fill="#404040">
                        <set attributeName="fill" to="#808080" begin="arrowUp.mouseover" end="arrowUp.mouseout"/>
                  </use>
                  <path fill="none" stroke="white" stroke-width="1.5" d="M0,-3.0v7 M-2.5,-0.5L0,-3.0L2.5,-0.5"/>
                </g>
                <g id="arrowRight" xlink:href="#dirArrow" transform="rotate(90) translate(36 -43)" onmousedown="handlePan(1,0)">
                  <use xlink:href="#rim" fill="#404040">
                        <set attributeName="fill" to="#808080" begin="arrowRight.mouseover" end="arrowRight.mouseout"/>
                  </use>
                  <path fill="none" stroke="white" stroke-width="1.5" d="M0,-3.0v7 M-2.5,-0.5L0,-3.0L2.5,-0.5"/>
                </g>
                <g id="arrowDown" xlink:href="#dirArrow" transform="rotate(180) translate(-30 -48)" onmousedown="handlePan(0,1)">
                  <use xlink:href="#rim" fill="#404040">
                        <set attributeName="fill" to="#808080" begin="arrowDown.mouseover" end="arrowDown.mouseout"/>
                  </use>
                  <path fill="none" stroke="white" stroke-width="1.5" d="M0,-3.0v7 M-2.5,-0.5L0,-3.0L2.5,-0.5"/>
                </g>
                <g id="arrowLeft" xlink:href="#dirArrow" transform="rotate(270) translate(-36 17)" onmousedown="handlePan(-1,0)">
                  <use xlink:href="#rim" fill="#404040">
                        <set attributeName="fill" to="#808080" begin="arrowLeft.mouseover" end="arrowLeft.mouseout"/>
                  </use>
                  <path fill="none" stroke="white" stroke-width="1.5" d="M0,-3.0v7 M-2.5,-0.5L0,-3.0L2.5,-0.5"/>
                </g>
        </g>
        <svg viewBox="0 0 15 15" width="100%" height="30px" preserveAspectRatio="xMaxYMin meet">
         <g id="arrow_out" transform="scale(0.3 0.3)">
          <a xlink:href="classCameraScript__coll__graph_org.svg" target="_base">
           <rect id="button" ry="5" rx="5" y="6" x="6" height="38" width="38"
                fill="#f2f5e9" fill-opacity="0.5" stroke="#606060" stroke-width="1.0"/>
           <path id="arrow"
             d="M 11.500037,31.436501 C 11.940474,20.09759 22.043105,11.32322 32.158766,21.979434 L 37.068811,17.246167 C 37.068811,17.246167 37.088388,32 37.088388,32 L 22.160133,31.978069 C 22.160133,31.978069 26.997745,27.140456 26.997745,27.140456 C 18.528582,18.264221 13.291696,25.230495 11.500037,31.436501 z"
             style="fill:#404040;"/>
          </a>
         </g>
        </svg>
</svg>
