<?xml version="1.0" encoding="UTF-8" standalone="no"?>
<!DOCTYPE svg PUBLIC "-//W3C//DTD SVG 1.1//EN"
 "http://www.w3.org/Graphics/SVG/1.1/DTD/svg11.dtd">
<!-- Generated by graphviz version 2.43.0 (0)
 -->
<!-- Title: MainPage.FriendHandler.DeleteFriend Pages: 1 -->
<svg width="494pt" height="64pt"
 viewBox="0.00 0.00 494.00 64.00" xmlns="http://www.w3.org/2000/svg" xmlns:xlink="http://www.w3.org/1999/xlink">
<g id="graph0" class="graph" transform="scale(1 1) rotate(0) translate(4 60)">
<title>MainPage.FriendHandler.DeleteFriend</title>
<!-- Node1 -->
<g id="Node000001" class="node">
<title>Node1</title>
<g id="a_Node000001"><a xlink:title="Send a request to the server that the user deleted this friend.">
<polygon fill="#999999" stroke="#666666" points="200,-37 0,-37 0,-18 200,-18 200,-37"/>
<text text-anchor="middle" x="100" y="-25" font-family="Helvetica,sans-Serif" font-size="10.00">MainPage.FriendHandler.DeleteFriend</text>
</a>
</g>
</g>
<!-- Node2 -->
<g id="Node000002" class="node">
<title>Node2</title>
<g id="a_Node000002"><a xlink:href="classConfig_1_1ServerConfig.html#a10be54228c36baeb2de629e8122d926f" target="_top" xlink:title="Path for the friend delete api endpoint.">
<polygon fill="white" stroke="#666666" points="486,-56 236,-56 236,-37 486,-37 486,-56"/>
<text text-anchor="middle" x="361" y="-44" font-family="Helvetica,sans-Serif" font-size="10.00">Config.ServerConfig.PATH_FOR_FRIEND_DELETE</text>
</a>
</g>
</g>
<!-- Node1&#45;&gt;Node2 -->
<g id="edge1_Node000001_Node000002" class="edge">
<title>Node1&#45;&gt;Node2</title>
<g id="a_edge1_Node000001_Node000002"><a xlink:title=" ">
<path fill="none" stroke="#63b8ff" d="M200.03,-34.76C208.44,-35.38 217.04,-36.01 225.67,-36.65"/>
<polygon fill="#63b8ff" stroke="#63b8ff" points="225.57,-40.15 235.8,-37.39 226.08,-33.17 225.57,-40.15"/>
</a>
</g>
</g>
<!-- Node3 -->
<g id="Node000003" class="node">
<title>Node3</title>
<g id="a_Node000003"><a xlink:href="classUtility_1_1CoroutineRunner.html#a1c473dee723f16d86bab9d8475c8214a" target="_top" xlink:title="A helper method to start coroutines.">
<polygon fill="white" stroke="#666666" points="460,-19 262,-19 262,0 460,0 460,-19"/>
<text text-anchor="middle" x="361" y="-7" font-family="Helvetica,sans-Serif" font-size="10.00">Utility.CoroutineRunner.RunCoroutine</text>
</a>
</g>
</g>
<!-- Node1&#45;&gt;Node3 -->
<g id="edge2_Node000001_Node000003" class="edge">
<title>Node1&#45;&gt;Node3</title>
<g id="a_edge2_Node000001_Node000003"><a xlink:title=" ">
<path fill="none" stroke="#63b8ff" d="M200.03,-20.62C216.98,-19.44 234.67,-18.21 251.84,-17.02"/>
<polygon fill="#63b8ff" stroke="#63b8ff" points="252.15,-20.5 261.89,-16.32 251.67,-13.52 252.15,-20.5"/>
</a>
</g>
</g>
</g>
</svg>
