<?xml version="1.0" encoding="UTF-8" standalone="no"?>
<!DOCTYPE svg PUBLIC "-//W3C//DTD SVG 1.1//EN"
 "http://www.w3.org/Graphics/SVG/1.1/DTD/svg11.dtd">
<!-- Generated by graphviz version 2.43.0 (0)
 -->
<!-- Title: Game.UI.GameUI.BackToGameMenuWithoutSave Pages: 1 -->
<svg width="1156pt" height="104pt"
 viewBox="0.00 0.00 1156.00 104.00" xmlns="http://www.w3.org/2000/svg" xmlns:xlink="http://www.w3.org/1999/xlink">
<g id="graph0" class="graph" transform="scale(1 1) rotate(0) translate(4 100)">
<title>Game.UI.GameUI.BackToGameMenuWithoutSave</title>
<polygon fill="white" stroke="transparent" points="-4,4 -4,-100 1152,-100 1152,4 -4,4"/>
<!-- Node1 -->
<g id="node1" class="node">
<title>Node1</title>
<g id="a_node1"><a xlink:title="Show the main menu, but don&#39;t save the scores">
<polygon fill="#bfbfbf" stroke="black" points="0,-19.5 0,-38.5 258,-38.5 258,-19.5 0,-19.5"/>
<text text-anchor="middle" x="129" y="-26.5" font-family="Helvetica,sans-Serif" font-size="10.00">Game.UI.GameUI.BackToGameMenuWithoutSave</text>
</a>
</g>
</g>
<!-- Node2 -->
<g id="node2" class="node">
<title>Node2</title>
<g id="a_node2"><a xlink:href="classGame_1_1UI_1_1GameUI.html#a87baf7b6bd70298f817e2c8e5e52a33a" target="_top" xlink:title="Hide the game over screen">
<polygon fill="white" stroke="black" points="294,-38.5 294,-57.5 507,-57.5 507,-38.5 294,-38.5"/>
<text text-anchor="middle" x="400.5" y="-45.5" font-family="Helvetica,sans-Serif" font-size="10.00">Game.UI.GameUI.HideGameOverScreen</text>
</a>
</g>
</g>
<!-- Node1&#45;&gt;Node2 -->
<g id="edge1" class="edge">
<title>Node1&#45;&gt;Node2</title>
<path fill="none" stroke="midnightblue" d="M258.04,-38.03C266.54,-38.63 275.07,-39.23 283.5,-39.82"/>
<polygon fill="midnightblue" stroke="midnightblue" points="283.51,-43.33 293.73,-40.54 284,-36.35 283.51,-43.33"/>
</g>
<!-- Node8 -->
<g id="node8" class="node">
<title>Node8</title>
<g id="a_node8"><a xlink:href="classGame_1_1Car.html#accc4c99441964b1f8d69d08871f5a478" target="_top" xlink:title=" ">
<polygon fill="white" stroke="black" points="359,-0.5 359,-19.5 442,-19.5 442,-0.5 359,-0.5"/>
<text text-anchor="middle" x="400.5" y="-7.5" font-family="Helvetica,sans-Serif" font-size="10.00">Game.Car.Kill</text>
</a>
</g>
</g>
<!-- Node1&#45;&gt;Node8 -->
<g id="edge7" class="edge">
<title>Node1&#45;&gt;Node8</title>
<path fill="none" stroke="midnightblue" d="M258.04,-19.97C290.15,-17.71 322.77,-15.41 348.58,-13.59"/>
<polygon fill="midnightblue" stroke="midnightblue" points="349.11,-17.06 358.84,-12.87 348.62,-10.08 349.11,-17.06"/>
</g>
<!-- Node3 -->
<g id="node3" class="node">
<title>Node3</title>
<g id="a_node3"><a xlink:href="classGame_1_1UI_1_1GameUI.html#a4f9c8b23e2a0e5d86c53377ece2c9bac" target="_top" xlink:title="Save the game&#39;s result">
<polygon fill="white" stroke="black" points="543,-38.5 543,-57.5 732,-57.5 732,-38.5 543,-38.5"/>
<text text-anchor="middle" x="637.5" y="-45.5" font-family="Helvetica,sans-Serif" font-size="10.00">Game.UI.GameUI.SaveGameResult</text>
</a>
</g>
</g>
<!-- Node2&#45;&gt;Node3 -->
<g id="edge2" class="edge">
<title>Node2&#45;&gt;Node3</title>
<path fill="none" stroke="midnightblue" d="M507.31,-48C515.71,-48 524.2,-48 532.58,-48"/>
<polygon fill="midnightblue" stroke="midnightblue" points="532.76,-51.5 542.76,-48 532.76,-44.5 532.76,-51.5"/>
</g>
<!-- Node4 -->
<g id="node4" class="node">
<title>Node4</title>
<g id="a_node4"><a xlink:href="classUtility_1_1CoroutineRunner.html#a1c473dee723f16d86bab9d8475c8214a" target="_top" xlink:title="A helper method to start coroutines">
<polygon fill="white" stroke="black" points="768,-76.5 768,-95.5 966,-95.5 966,-76.5 768,-76.5"/>
<text text-anchor="middle" x="867" y="-83.5" font-family="Helvetica,sans-Serif" font-size="10.00">Utility.CoroutineRunner.RunCoroutine</text>
</a>
</g>
</g>
<!-- Node3&#45;&gt;Node4 -->
<g id="edge3" class="edge">
<title>Node3&#45;&gt;Node4</title>
<path fill="none" stroke="midnightblue" d="M695.61,-57.54C726.99,-62.78 766.07,-69.31 798.89,-74.79"/>
<polygon fill="midnightblue" stroke="midnightblue" points="798.42,-78.26 808.86,-76.46 799.58,-71.36 798.42,-78.26"/>
</g>
<!-- Node5 -->
<g id="node5" class="node">
<title>Node5</title>
<g id="a_node5"><a xlink:href="classGame_1_1UI_1_1GameUI.html#a984a1e174ca8249e0433de8d2d8a462c" target="_top" xlink:title="Callback after the coins amount were saved">
<polygon fill="white" stroke="black" points="786,-38.5 786,-57.5 948,-57.5 948,-38.5 786,-38.5"/>
<text text-anchor="middle" x="867" y="-45.5" font-family="Helvetica,sans-Serif" font-size="10.00">Game.UI.GameUI.SavedCoins</text>
</a>
</g>
</g>
<!-- Node3&#45;&gt;Node5 -->
<g id="edge4" class="edge">
<title>Node3&#45;&gt;Node5</title>
<path fill="none" stroke="midnightblue" d="M732.02,-48C746.42,-48 761.26,-48 775.59,-48"/>
<polygon fill="midnightblue" stroke="midnightblue" points="775.92,-51.5 785.92,-48 775.92,-44.5 775.92,-51.5"/>
</g>
<!-- Node6 -->
<g id="node6" class="node">
<title>Node6</title>
<g id="a_node6"><a xlink:href="classGame_1_1UI_1_1GameUI.html#ac464d5a547acb44085748e2ee265272f" target="_top" xlink:title="Show if the request failed on the modal window">
<polygon fill="white" stroke="black" points="773,-0.5 773,-19.5 961,-19.5 961,-0.5 773,-0.5"/>
<text text-anchor="middle" x="867" y="-7.5" font-family="Helvetica,sans-Serif" font-size="10.00">Game.UI.GameUI.ShowRequestFail</text>
</a>
</g>
</g>
<!-- Node3&#45;&gt;Node6 -->
<g id="edge5" class="edge">
<title>Node3&#45;&gt;Node6</title>
<path fill="none" stroke="midnightblue" d="M695.61,-38.46C726.99,-33.22 766.07,-26.69 798.89,-21.21"/>
<polygon fill="midnightblue" stroke="midnightblue" points="799.58,-24.64 808.86,-19.54 798.42,-17.74 799.58,-24.64"/>
</g>
<!-- Node7 -->
<g id="node7" class="node">
<title>Node7</title>
<g id="a_node7"><a xlink:href="classUtility_1_1ModalWindow.html#adcef8cae2dffe4247c905d042ff0a8e3" target="_top" xlink:title="Show the modal window">
<polygon fill="white" stroke="black" points="1002,-0.5 1002,-19.5 1148,-19.5 1148,-0.5 1002,-0.5"/>
<text text-anchor="middle" x="1075" y="-7.5" font-family="Helvetica,sans-Serif" font-size="10.00">Utility.ModalWindow.Show</text>
</a>
</g>
</g>
<!-- Node6&#45;&gt;Node7 -->
<g id="edge6" class="edge">
<title>Node6&#45;&gt;Node7</title>
<path fill="none" stroke="midnightblue" d="M961.06,-10C971.19,-10 981.44,-10 991.44,-10"/>
<polygon fill="midnightblue" stroke="midnightblue" points="991.73,-13.5 1001.73,-10 991.73,-6.5 991.73,-13.5"/>
</g>
</g>
</svg>
