<?xml version="1.0" encoding="UTF-8" standalone="no"?>
<!DOCTYPE svg PUBLIC "-//W3C//DTD SVG 1.1//EN"
 "http://www.w3.org/Graphics/SVG/1.1/DTD/svg11.dtd">
<!-- Generated by graphviz version 2.43.0 (0)
 -->
<!-- Title: MainPage.MainWindowController.CreateTaskPrefabs Pages: 1 -->
<!--zoomable 132 -->
<svg id="main" version="1.1" xmlns="http://www.w3.org/2000/svg" xmlns:xlink="http://www.w3.org/1999/xlink" xml:space="preserve" onload="init(evt)">
<style type="text/css"><![CDATA[
.edge:hover path { stroke: red; }
.edge:hover polygon { stroke: red; fill: red; }
]]></style>
<script type="text/javascript"><![CDATA[
var edges = document.getElementsByTagName('g');
if (edges && edges.length) {
  for (var i=0;i<edges.length;i++) {
    if (edges[i].id.substr(0,4)=='edge') {
      edges[i].setAttribute('class','edge');
    }
  }
}
]]></script>
        <defs>
                <circle id="rim" cx="0" cy="0" r="7"/>
                <circle id="rim2" cx="0" cy="0" r="3.5"/>
                <g id="zoomPlus">
                        <use xlink:href="#rim" fill="#404040">
                                <set attributeName="fill" to="#808080" begin="zoomplus.mouseover" end="zoomplus.mouseout"/>
                        </use>
                        <path d="M-4,0h8M0,-4v8" fill="none" stroke="white" stroke-width="1.5" pointer-events="none"/>
                </g>
                <g id="zoomMin">
                        <use xlink:href="#rim" fill="#404040">
                                <set attributeName="fill" to="#808080" begin="zoomminus.mouseover" end="zoomminus.mouseout"/>
                        </use>
                        <path d="M-4,0h8" fill="none" stroke="white" stroke-width="1.5" pointer-events="none"/>
                </g>
                <g id="dirArrow">
                        <path fill="none" stroke="white" stroke-width="1.5" d="M0,-3.0v7 M-2.5,-0.5L0,-3.0L2.5,-0.5"/>
                </g>
               <g id="resetDef">
                       <use xlink:href="#rim2" fill="#404040">
                               <set attributeName="fill" to="#808080" begin="reset.mouseover" end="reset.mouseout"/>
                       </use>
               </g>
        </defs>

<script type="text/javascript">
var viewWidth = 2334;
var viewHeight = 132;
var sectionId = 'dynsection-20';
</script>
<script xlink:href="svgpan.js"/>
<svg id="graph" class="graph">
<g id="viewport">
<title>MainPage.MainWindowController.CreateTaskPrefabs</title>
<polygon fill="white" stroke="transparent" points="-4,4 -4,-128 2330,-128 2330,4 -4,4"/>
<!-- Node1 -->
<g id="node1" class="node">
<title>Node1</title>
<g id="a_node1"><a xlink:title="Create the task prefabs">
<polygon fill="#bfbfbf" stroke="black" points="0,-9.5 0,-28.5 271,-28.5 271,-9.5 0,-9.5"/>
<text text-anchor="middle" x="135.5" y="-16.5" font-family="Helvetica,sans-Serif" font-size="10.00">MainPage.MainWindowController.CreateTaskPrefabs</text>
</a>
</g>
</g>
<!-- Node2 -->
<g id="node2" class="node">
<title>Node2</title>
<g id="a_node2"><a xlink:href="classMainPage_1_1MainWindowController.html#a827f62c47eb691eadd994bd51bf7cb74" target="_top" xlink:title="Creates a new task prefab to display">
<polygon fill="white" stroke="black" points="307,-47.5 307,-66.5 541,-66.5 541,-47.5 307,-47.5"/>
<text text-anchor="middle" x="424" y="-54.5" font-family="Helvetica,sans-Serif" font-size="10.00">MainPage.MainWindowController.CreateTask</text>
</a>
</g>
</g>
<!-- Node1&#45;&gt;Node2 -->
<g id="edge1" class="edge">
<title>Node1&#45;&gt;Node2</title>
<path fill="none" stroke="midnightblue" d="M208.43,-28.54C248.7,-33.88 299.07,-40.56 340.89,-46.11"/>
<polygon fill="midnightblue" stroke="midnightblue" points="340.67,-49.61 351.04,-47.46 341.59,-42.67 340.67,-49.61"/>
</g>
<!-- Node10 -->
<g id="node10" class="node">
<title>Node10</title>
<g id="a_node10"><a xlink:href="classMainPage_1_1MainWindowController.html#ab5b80370512cd4273e86927fe696462d" target="_top" xlink:title="Load the good tasks">
<polygon fill="white" stroke="black" points="1464,-28.5 1464,-47.5 1720,-47.5 1720,-28.5 1464,-28.5"/>
<text text-anchor="middle" x="1592" y="-35.5" font-family="Helvetica,sans-Serif" font-size="10.00">MainPage.MainWindowController.LoadGoodTasks</text>
</a>
</g>
</g>
<!-- Node1&#45;&gt;Node10 -->
<g id="edge18" class="edge">
<title>Node1&#45;&gt;Node10</title>
<path fill="none" stroke="midnightblue" d="M271.21,-11.71C381.79,-6.35 542.5,0 683,0 683,0 683,0 971.5,0 1174.56,0 1225.57,-3.01 1428,-19 1454.45,-21.09 1483.23,-24.17 1509.14,-27.25"/>
<polygon fill="midnightblue" stroke="midnightblue" points="1508.95,-30.75 1519.3,-28.47 1509.79,-23.8 1508.95,-30.75"/>
</g>
<!-- Node3 -->
<g id="node3" class="node">
<title>Node3</title>
<g id="a_node3"><a xlink:href="classMainPage_1_1TaskDisplayHandler.html#a8aedc4afb32d220352cf04cc77fdedf6" target="_top" xlink:title="Init it with the task to display and references to the controls">
<polygon fill="white" stroke="black" points="577,-47.5 577,-66.5 791,-66.5 791,-47.5 577,-47.5"/>
<text text-anchor="middle" x="684" y="-54.5" font-family="Helvetica,sans-Serif" font-size="10.00">MainPage.TaskDisplayHandler.InitValues</text>
</a>
</g>
</g>
<!-- Node2&#45;&gt;Node3 -->
<g id="edge2" class="edge">
<title>Node2&#45;&gt;Node3</title>
<path fill="none" stroke="midnightblue" d="M541.17,-57C549.63,-57 558.17,-57 566.63,-57"/>
<polygon fill="midnightblue" stroke="midnightblue" points="566.91,-60.5 576.91,-57 566.91,-53.5 566.91,-60.5"/>
</g>
<!-- Node4 -->
<g id="node4" class="node">
<title>Node4</title>
<g id="a_node4"><a xlink:href="classMainPage_1_1TaskDisplayHandler.html#aa49063eb8db092920d512f9869df6e98" target="_top" xlink:title="Calculate if the task can be completed again">
<polygon fill="white" stroke="black" points="827,-104.5 827,-123.5 1114,-123.5 1114,-104.5 827,-104.5"/>
<text text-anchor="middle" x="970.5" y="-111.5" font-family="Helvetica,sans-Serif" font-size="10.00">MainPage.TaskDisplayHandler.CalculateIfCompleteable</text>
</a>
</g>
</g>
<!-- Node3&#45;&gt;Node4 -->
<g id="edge3" class="edge">
<title>Node3&#45;&gt;Node4</title>
<path fill="none" stroke="midnightblue" d="M716.03,-66.54C744.62,-75.04 788.33,-87.28 827,-95 842.16,-98.03 858.32,-100.7 874.12,-103.01"/>
<polygon fill="midnightblue" stroke="midnightblue" points="874.04,-106.54 884.43,-104.48 875.03,-99.61 874.04,-106.54"/>
</g>
<!-- Node5 -->
<g id="node5" class="node">
<title>Node5</title>
<g id="a_node5"><a xlink:href="classMainPage_1_1TaskDisplayHandler.html#a754a230e53cedd3209a29d4d6a743719" target="_top" xlink:title="When the complete state is changed update the display to match it">
<polygon fill="white" stroke="black" points="833,-66.5 833,-85.5 1108,-85.5 1108,-66.5 833,-66.5"/>
<text text-anchor="middle" x="970.5" y="-73.5" font-family="Helvetica,sans-Serif" font-size="10.00">MainPage.TaskDisplayHandler.CompleteStateChange</text>
</a>
</g>
</g>
<!-- Node3&#45;&gt;Node5 -->
<g id="edge4" class="edge">
<title>Node3&#45;&gt;Node5</title>
<path fill="none" stroke="midnightblue" d="M791.34,-64.1C801.63,-64.79 812.18,-65.49 822.77,-66.2"/>
<polygon fill="midnightblue" stroke="midnightblue" points="822.71,-69.7 832.92,-66.88 823.18,-62.72 822.71,-69.7"/>
</g>
<!-- Node13 -->
<g id="node13" class="node">
<title>Node13</title>
<g id="a_node13"><a xlink:href="classMainPage_1_1TaskDisplayHandler.html#ac3773b76adb09298978a65c89136c20f" target="_top" xlink:title="Update the task&#39;s labels">
<polygon fill="white" stroke="black" points="854,-28.5 854,-47.5 1087,-47.5 1087,-28.5 854,-28.5"/>
<text text-anchor="middle" x="970.5" y="-35.5" font-family="Helvetica,sans-Serif" font-size="10.00">MainPage.TaskDisplayHandler.UpdateLabels</text>
</a>
</g>
</g>
<!-- Node3&#45;&gt;Node13 -->
<g id="edge16" class="edge">
<title>Node3&#45;&gt;Node13</title>
<path fill="none" stroke="midnightblue" d="M791.34,-49.9C808.36,-48.76 826.11,-47.58 843.54,-46.41"/>
<polygon fill="midnightblue" stroke="midnightblue" points="844.01,-49.89 853.75,-45.73 843.54,-42.9 844.01,-49.89"/>
</g>
<!-- Node6 -->
<g id="node6" class="node">
<title>Node6</title>
<g id="a_node6"><a xlink:href="classMainPage_1_1MainWindowController.html#a85072f5d92f4145d6213209a13936639" target="_top" xlink:title="Refreshes the tasks with the proper sorting order">
<polygon fill="white" stroke="black" points="1160.5,-66.5 1160.5,-85.5 1417.5,-85.5 1417.5,-66.5 1160.5,-66.5"/>
<text text-anchor="middle" x="1289" y="-73.5" font-family="Helvetica,sans-Serif" font-size="10.00">MainPage.MainWindowController.SortingChanged</text>
</a>
</g>
</g>
<!-- Node5&#45;&gt;Node6 -->
<g id="edge5" class="edge">
<title>Node5&#45;&gt;Node6</title>
<path fill="none" stroke="midnightblue" d="M1108.02,-76C1122.02,-76 1136.26,-76 1150.27,-76"/>
<polygon fill="midnightblue" stroke="midnightblue" points="1150.43,-79.5 1160.43,-76 1150.43,-72.5 1150.43,-79.5"/>
</g>
<!-- Node12 -->
<g id="node12" class="node">
<title>Node12</title>
<g id="a_node12"><a xlink:href="classMainPage_1_1TaskDisplayHandler.html#aa63f1bc894519b9d5872c2bb50b84415" target="_top" xlink:title="Update the time remaining until the task can be completed again">
<polygon fill="white" stroke="black" points="1150,-28.5 1150,-47.5 1428,-47.5 1428,-28.5 1150,-28.5"/>
<text text-anchor="middle" x="1289" y="-35.5" font-family="Helvetica,sans-Serif" font-size="10.00">MainPage.TaskDisplayHandler.UpdateTimeRemaining</text>
</a>
</g>
</g>
<!-- Node5&#45;&gt;Node12 -->
<g id="edge14" class="edge">
<title>Node5&#45;&gt;Node12</title>
<path fill="none" stroke="midnightblue" d="M1011.91,-66.46C1045.28,-60.94 1094.78,-54.32 1142.69,-48.72"/>
<polygon fill="midnightblue" stroke="midnightblue" points="1143.35,-52.16 1152.89,-47.54 1142.55,-45.21 1143.35,-52.16"/>
</g>
<!-- Node7 -->
<g id="node7" class="node">
<title>Node7</title>
<g id="a_node7"><a xlink:href="classMainPage_1_1MainWindowController.html#a241b480aeebdab1bc34320cad8de7712" target="_top" xlink:title="Load the good habits">
<polygon fill="white" stroke="black" points="1465,-66.5 1465,-85.5 1719,-85.5 1719,-66.5 1465,-66.5"/>
<text text-anchor="middle" x="1592" y="-73.5" font-family="Helvetica,sans-Serif" font-size="10.00">MainPage.MainWindowController.LoadBadHabits</text>
</a>
</g>
</g>
<!-- Node6&#45;&gt;Node7 -->
<g id="edge6" class="edge">
<title>Node6&#45;&gt;Node7</title>
<path fill="none" stroke="midnightblue" d="M1417.65,-76C1429.79,-76 1442.14,-76 1454.36,-76"/>
<polygon fill="midnightblue" stroke="midnightblue" points="1454.59,-79.5 1464.59,-76 1454.59,-72.5 1454.59,-79.5"/>
</g>
<!-- Node6&#45;&gt;Node10 -->
<g id="edge10" class="edge">
<title>Node6&#45;&gt;Node10</title>
<path fill="none" stroke="midnightblue" d="M1365.57,-66.46C1408.14,-61.09 1461.45,-54.36 1505.54,-48.79"/>
<polygon fill="midnightblue" stroke="midnightblue" points="1506.18,-52.24 1515.66,-47.51 1505.3,-45.29 1506.18,-52.24"/>
</g>
<!-- Node8 -->
<g id="node8" class="node">
<title>Node8</title>
<g id="a_node8"><a xlink:href="classMainPage_1_1TaskOpenPanelController.html#a5513399c20f650915ca10f54805f416e" target="_top" xlink:title="Make this task a bad habit">
<polygon fill="white" stroke="black" points="1757,-66.5 1757,-85.5 2026,-85.5 2026,-66.5 1757,-66.5"/>
<text text-anchor="middle" x="1891.5" y="-73.5" font-family="Helvetica,sans-Serif" font-size="10.00">MainPage.TaskOpenPanelController.MakeItBadHabit</text>
</a>
</g>
</g>
<!-- Node7&#45;&gt;Node8 -->
<g id="edge7" class="edge">
<title>Node7&#45;&gt;Node8</title>
<path fill="none" stroke="midnightblue" d="M1719.17,-69.32C1728.35,-69.26 1737.66,-69.24 1746.94,-69.25"/>
<polygon fill="midnightblue" stroke="midnightblue" points="1746.98,-72.75 1756.99,-69.28 1747,-65.75 1746.98,-72.75"/>
</g>
<!-- Node8&#45;&gt;Node7 -->
<g id="edge8" class="edge">
<title>Node8&#45;&gt;Node7</title>
<path fill="none" stroke="midnightblue" d="M1756.99,-82.72C1747.75,-82.76 1738.43,-82.76 1729.18,-82.73"/>
<polygon fill="midnightblue" stroke="midnightblue" points="1729.18,-79.23 1719.17,-82.68 1729.15,-86.23 1729.18,-79.23"/>
</g>
<!-- Node9 -->
<g id="node9" class="node">
<title>Node9</title>
<g id="a_node9"><a xlink:href="classMainPage_1_1TaskOpenPanelController.html#aa0b6757dbad141375c50282278b23b1a" target="_top" xlink:title="Update the buttons with the appropriate color based on the current task">
<polygon fill="white" stroke="black" points="2063,-47.5 2063,-66.5 2326,-66.5 2326,-47.5 2063,-47.5"/>
<text text-anchor="middle" x="2194.5" y="-54.5" font-family="Helvetica,sans-Serif" font-size="10.00">MainPage.TaskOpenPanelController.UpdateButtons</text>
</a>
</g>
</g>
<!-- Node8&#45;&gt;Node9 -->
<g id="edge9" class="edge">
<title>Node8&#45;&gt;Node9</title>
<path fill="none" stroke="midnightblue" d="M2026.28,-67.56C2034.97,-67.01 2043.73,-66.45 2052.45,-65.9"/>
<polygon fill="midnightblue" stroke="midnightblue" points="2052.91,-69.38 2062.67,-65.26 2052.46,-62.4 2052.91,-69.38"/>
</g>
<!-- Node11 -->
<g id="node11" class="node">
<title>Node11</title>
<g id="a_node11"><a xlink:href="classMainPage_1_1TaskOpenPanelController.html#a069a63e2b7e70cc4cb4c7e487b655700" target="_top" xlink:title="Make it a good task">
<polygon fill="white" stroke="black" points="1756,-28.5 1756,-47.5 2027,-47.5 2027,-28.5 1756,-28.5"/>
<text text-anchor="middle" x="1891.5" y="-35.5" font-family="Helvetica,sans-Serif" font-size="10.00">MainPage.TaskOpenPanelController.MakeItGoodTask</text>
</a>
</g>
</g>
<!-- Node10&#45;&gt;Node11 -->
<g id="edge11" class="edge">
<title>Node10&#45;&gt;Node11</title>
<path fill="none" stroke="midnightblue" d="M1720.03,-31.31C1728.54,-31.26 1737.15,-31.24 1745.75,-31.25"/>
<polygon fill="midnightblue" stroke="midnightblue" points="1745.81,-34.75 1755.82,-31.28 1745.83,-27.75 1745.81,-34.75"/>
</g>
<!-- Node11&#45;&gt;Node9 -->
<g id="edge13" class="edge">
<title>Node11&#45;&gt;Node9</title>
<path fill="none" stroke="midnightblue" d="M2027.15,-46.5C2035.7,-47.04 2044.32,-47.58 2052.9,-48.12"/>
<polygon fill="midnightblue" stroke="midnightblue" points="2052.74,-51.62 2062.94,-48.76 2053.18,-44.64 2052.74,-51.62"/>
</g>
<!-- Node11&#45;&gt;Node10 -->
<g id="edge12" class="edge">
<title>Node11&#45;&gt;Node10</title>
<path fill="none" stroke="midnightblue" d="M1755.82,-44.72C1747.26,-44.76 1738.63,-44.76 1730.06,-44.73"/>
<polygon fill="midnightblue" stroke="midnightblue" points="1730.05,-41.23 1720.03,-44.69 1730.01,-48.23 1730.05,-41.23"/>
</g>
<!-- Node12&#45;&gt;Node5 -->
<g id="edge15" class="edge">
<title>Node12&#45;&gt;Node5</title>
<path fill="none" stroke="midnightblue" d="M1247.81,-47.5C1214.45,-53.03 1164.86,-59.66 1116.85,-65.28"/>
<polygon fill="midnightblue" stroke="midnightblue" points="1116.17,-61.83 1106.64,-66.46 1116.98,-68.79 1116.17,-61.83"/>
</g>
<!-- Node13&#45;&gt;Node12 -->
<g id="edge17" class="edge">
<title>Node13&#45;&gt;Node12</title>
<path fill="none" stroke="midnightblue" d="M1087.11,-38C1104.16,-38 1121.92,-38 1139.52,-38"/>
<polygon fill="midnightblue" stroke="midnightblue" points="1139.86,-41.5 1149.86,-38 1139.86,-34.5 1139.86,-41.5"/>
</g>
</g>
</svg>
        <g id="navigator" transform="translate(0 0)" fill="#404254">
                <rect fill="#f2f5e9" fill-opacity="0.5" stroke="#606060" stroke-width=".5" x="0" y="0" width="60" height="60"/>
                <use id="zoomplus" xlink:href="#zoomPlus" x="17" y="9" onmousedown="handleZoom(evt,'in')"/>
                <use id="zoomminus" xlink:href="#zoomMin" x="42" y="9" onmousedown="handleZoom(evt,'out')"/>
                <use id="reset" xlink:href="#resetDef" x="30" y="36" onmousedown="handleReset()"/>
                <g id="arrowUp" xlink:href="#dirArrow" transform="translate(30 24)" onmousedown="handlePan(0,-1)">
                  <use xlink:href="#rim" fill="#404040">
                        <set attributeName="fill" to="#808080" begin="arrowUp.mouseover" end="arrowUp.mouseout"/>
                  </use>
                  <path fill="none" stroke="white" stroke-width="1.5" d="M0,-3.0v7 M-2.5,-0.5L0,-3.0L2.5,-0.5"/>
                </g>
                <g id="arrowRight" xlink:href="#dirArrow" transform="rotate(90) translate(36 -43)" onmousedown="handlePan(1,0)">
                  <use xlink:href="#rim" fill="#404040">
                        <set attributeName="fill" to="#808080" begin="arrowRight.mouseover" end="arrowRight.mouseout"/>
                  </use>
                  <path fill="none" stroke="white" stroke-width="1.5" d="M0,-3.0v7 M-2.5,-0.5L0,-3.0L2.5,-0.5"/>
                </g>
                <g id="arrowDown" xlink:href="#dirArrow" transform="rotate(180) translate(-30 -48)" onmousedown="handlePan(0,1)">
                  <use xlink:href="#rim" fill="#404040">
                        <set attributeName="fill" to="#808080" begin="arrowDown.mouseover" end="arrowDown.mouseout"/>
                  </use>
                  <path fill="none" stroke="white" stroke-width="1.5" d="M0,-3.0v7 M-2.5,-0.5L0,-3.0L2.5,-0.5"/>
                </g>
                <g id="arrowLeft" xlink:href="#dirArrow" transform="rotate(270) translate(-36 17)" onmousedown="handlePan(-1,0)">
                  <use xlink:href="#rim" fill="#404040">
                        <set attributeName="fill" to="#808080" begin="arrowLeft.mouseover" end="arrowLeft.mouseout"/>
                  </use>
                  <path fill="none" stroke="white" stroke-width="1.5" d="M0,-3.0v7 M-2.5,-0.5L0,-3.0L2.5,-0.5"/>
                </g>
        </g>
        <svg viewBox="0 0 15 15" width="100%" height="30px" preserveAspectRatio="xMaxYMin meet">
         <g id="arrow_out" transform="scale(0.3 0.3)">
          <a xlink:href="classMainPage_1_1MainWindowController_ab40b51689d2d8ca0497b0e53128f4992_cgraph_org.svg" target="_base">
           <rect id="button" ry="5" rx="5" y="6" x="6" height="38" width="38"
                fill="#f2f5e9" fill-opacity="0.5" stroke="#606060" stroke-width="1.0"/>
           <path id="arrow"
             d="M 11.500037,31.436501 C 11.940474,20.09759 22.043105,11.32322 32.158766,21.979434 L 37.068811,17.246167 C 37.068811,17.246167 37.088388,32 37.088388,32 L 22.160133,31.978069 C 22.160133,31.978069 26.997745,27.140456 26.997745,27.140456 C 18.528582,18.264221 13.291696,25.230495 11.500037,31.436501 z"
             style="fill:#404040;"/>
          </a>
         </g>
        </svg>
</svg>
