<?xml version="1.0" encoding="UTF-8" standalone="no"?>
<!DOCTYPE svg PUBLIC "-//W3C//DTD SVG 1.1//EN"
 "http://www.w3.org/Graphics/SVG/1.1/DTD/svg11.dtd">
<!-- Generated by graphviz version 2.43.0 (0)
 -->
<!-- Title: Game.UI.ShopWindow.ShowRequestFail Pages: 1 -->
<svg width="861pt" height="85pt"
 viewBox="0.00 0.00 861.00 85.00" xmlns="http://www.w3.org/2000/svg" xmlns:xlink="http://www.w3.org/1999/xlink">
<g id="graph0" class="graph" transform="scale(1 1) rotate(0) translate(4 81)">
<title>Game.UI.ShopWindow.ShowRequestFail</title>
<polygon fill="white" stroke="transparent" points="-4,4 -4,-81 857,-81 857,4 -4,4"/>
<!-- Node1 -->
<g id="node1" class="node">
<title>Node1</title>
<g id="a_node1"><a xlink:title="Show if the request failed on the modal window">
<polygon fill="#bfbfbf" stroke="black" points="643,-57.5 643,-76.5 853,-76.5 853,-57.5 643,-57.5"/>
<text text-anchor="middle" x="748" y="-64.5" font-family="Helvetica,sans-Serif" font-size="10.00">Game.UI.ShopWindow.ShowRequestFail</text>
</a>
</g>
</g>
<!-- Node2 -->
<g id="node2" class="node">
<title>Node2</title>
<g id="a_node2"><a xlink:href="classGame_1_1UI_1_1ShopItem.html#a08030b9b33414329032136c2db442bef" target="_top" xlink:title="Buy this shop item">
<polygon fill="white" stroke="black" points="31.5,-57.5 31.5,-76.5 162.5,-76.5 162.5,-57.5 31.5,-57.5"/>
<text text-anchor="middle" x="97" y="-64.5" font-family="Helvetica,sans-Serif" font-size="10.00">Game.UI.ShopItem.Buy</text>
</a>
</g>
</g>
<!-- Node1&#45;&gt;Node2 -->
<g id="edge1" class="edge">
<title>Node1&#45;&gt;Node2</title>
<path fill="none" stroke="midnightblue" d="M632.64,-67C496.01,-67 272.18,-67 162.57,-67"/>
<polygon fill="midnightblue" stroke="midnightblue" points="632.73,-70.5 642.73,-67 632.73,-63.5 632.73,-70.5"/>
</g>
<!-- Node3 -->
<g id="node3" class="node">
<title>Node3</title>
<g id="a_node3"><a xlink:href="classGame_1_1UI_1_1ShopWindow.html#a9297b39a0fa7a77e8cf3022bc28c0b35" target="_top" xlink:title="Update the shop items">
<polygon fill="white" stroke="black" points="420,-38.5 420,-57.5 607,-57.5 607,-38.5 420,-38.5"/>
<text text-anchor="middle" x="513.5" y="-45.5" font-family="Helvetica,sans-Serif" font-size="10.00">Game.UI.ShopWindow.UpdateShop</text>
</a>
</g>
</g>
<!-- Node1&#45;&gt;Node3 -->
<g id="edge2" class="edge">
<title>Node1&#45;&gt;Node3</title>
<path fill="none" stroke="midnightblue" d="M632.86,-57.67C624.22,-56.97 615.56,-56.26 607.07,-55.56"/>
<polygon fill="midnightblue" stroke="midnightblue" points="632.74,-61.17 642.99,-58.5 633.31,-54.2 632.74,-61.17"/>
</g>
<!-- Node4 -->
<g id="node4" class="node">
<title>Node4</title>
<g id="a_node4"><a xlink:href="classGame_1_1UI_1_1ShopItem.html#aba8c6371c3eeaecb2bb7ab1f07311869" target="_top" xlink:title="Callback when it is bought">
<polygon fill="white" stroke="black" points="234,-38.5 234,-57.5 380,-57.5 380,-38.5 234,-38.5"/>
<text text-anchor="middle" x="307" y="-45.5" font-family="Helvetica,sans-Serif" font-size="10.00">Game.UI.ShopItem.Bought</text>
</a>
</g>
</g>
<!-- Node3&#45;&gt;Node4 -->
<g id="edge3" class="edge">
<title>Node3&#45;&gt;Node4</title>
<path fill="none" stroke="midnightblue" d="M409.81,-48C399.78,-48 389.76,-48 380.14,-48"/>
<polygon fill="midnightblue" stroke="midnightblue" points="409.82,-51.5 419.82,-48 409.82,-44.5 409.82,-51.5"/>
</g>
<!-- Node5 -->
<g id="node5" class="node">
<title>Node5</title>
<g id="a_node5"><a xlink:href="classGame_1_1UI_1_1ShopWindow.html#ad9204f9c12eb8520523232c340f477b0" target="_top" xlink:title="Show the shop window">
<polygon fill="white" stroke="black" points="230,-0.5 230,-19.5 384,-19.5 384,-0.5 230,-0.5"/>
<text text-anchor="middle" x="307" y="-7.5" font-family="Helvetica,sans-Serif" font-size="10.00">Game.UI.ShopWindow.Show</text>
</a>
</g>
</g>
<!-- Node3&#45;&gt;Node5 -->
<g id="edge5" class="edge">
<title>Node3&#45;&gt;Node5</title>
<path fill="none" stroke="midnightblue" d="M451.05,-36.58C421.79,-31.14 387.2,-24.72 359.36,-19.54"/>
<polygon fill="midnightblue" stroke="midnightblue" points="450.69,-40.07 461.16,-38.46 451.97,-33.19 450.69,-40.07"/>
</g>
<!-- Node4&#45;&gt;Node2 -->
<g id="edge4" class="edge">
<title>Node4&#45;&gt;Node2</title>
<path fill="none" stroke="midnightblue" d="M223.68,-55.52C203.43,-57.37 182.02,-59.32 162.73,-61.09"/>
<polygon fill="midnightblue" stroke="midnightblue" points="224.2,-58.99 233.84,-54.59 223.56,-52.02 224.2,-58.99"/>
</g>
<!-- Node6 -->
<g id="node6" class="node">
<title>Node6</title>
<g id="a_node6"><a xlink:href="classGame_1_1UI_1_1GameUI.html#a443a0569c632ba816be0bd1511b62bca" target="_top" xlink:title="Display the shop window">
<polygon fill="white" stroke="black" points="0,-0.5 0,-19.5 194,-19.5 194,-0.5 0,-0.5"/>
<text text-anchor="middle" x="97" y="-7.5" font-family="Helvetica,sans-Serif" font-size="10.00">Game.UI.GameUI.ShowShopWindow</text>
</a>
</g>
</g>
<!-- Node5&#45;&gt;Node6 -->
<g id="edge6" class="edge">
<title>Node5&#45;&gt;Node6</title>
<path fill="none" stroke="midnightblue" d="M219.57,-10C211.16,-10 202.59,-10 194.09,-10"/>
<polygon fill="midnightblue" stroke="midnightblue" points="219.73,-13.5 229.73,-10 219.73,-6.5 219.73,-13.5"/>
</g>
</g>
</svg>
