<?xml version="1.0" encoding="UTF-8" standalone="no"?>
<!DOCTYPE svg PUBLIC "-//W3C//DTD SVG 1.1//EN"
 "http://www.w3.org/Graphics/SVG/1.1/DTD/svg11.dtd">
<!-- Generated by graphviz version 2.43.0 (0)
 -->
<!-- Title: MainPage.MainWindowController Pages: 1 -->
<svg width="350pt" height="538pt"
 viewBox="0.00 0.00 350.00 538.00" xmlns="http://www.w3.org/2000/svg" xmlns:xlink="http://www.w3.org/1999/xlink">
<g id="graph0" class="graph" transform="scale(1 1) rotate(0) translate(4 534)">
<title>MainPage.MainWindowController</title>
<!-- Node1 -->
<g id="Node000001" class="node">
<title>Node1</title>
<g id="a_Node000001"><a xlink:title="Handles the main window&#39;s controls.">
<polygon fill="#999999" stroke="transparent" points="342,-360 0,-360 0,0 342,0 342,-360"/>
<text text-anchor="start" x="90" y="-348" font-family="Helvetica,sans-Serif" font-size="10.00">MainPage.MainWindowController</text>
<text text-anchor="start" x="4" y="-333" font-family="Helvetica,sans-Serif" font-size="10.00">+</text>
<text text-anchor="start" x="17" y="-333" font-family="Helvetica,sans-Serif" font-size="10.00">Dictionary&lt; long, TaskDisplayHandler &gt; Tasks</text>
<text text-anchor="start" x="4" y="-318" font-family="Helvetica,sans-Serif" font-size="10.00">+</text>
<text text-anchor="start" x="17" y="-318" font-family="Helvetica,sans-Serif" font-size="10.00">TaskSortType TaskSortType</text>
<text text-anchor="start" x="6.5" y="-303" font-family="Helvetica,sans-Serif" font-size="10.00">&#45;</text>
<text text-anchor="start" x="17" y="-303" font-family="Helvetica,sans-Serif" font-size="10.00">TMP_Text usernameText</text>
<text text-anchor="start" x="6.5" y="-288" font-family="Helvetica,sans-Serif" font-size="10.00">&#45;</text>
<text text-anchor="start" x="17" y="-288" font-family="Helvetica,sans-Serif" font-size="10.00">TMP_Text currentTaskScoreText</text>
<text text-anchor="start" x="6.5" y="-273" font-family="Helvetica,sans-Serif" font-size="10.00">&#45;</text>
<text text-anchor="start" x="17" y="-273" font-family="Helvetica,sans-Serif" font-size="10.00">GameObject taskParent</text>
<text text-anchor="start" x="6.5" y="-258" font-family="Helvetica,sans-Serif" font-size="10.00">&#45;</text>
<text text-anchor="start" x="17" y="-258" font-family="Helvetica,sans-Serif" font-size="10.00">GameObject taskPrefab</text>
<text text-anchor="start" x="6.5" y="-243" font-family="Helvetica,sans-Serif" font-size="10.00">&#45;</text>
<text text-anchor="start" x="17" y="-243" font-family="Helvetica,sans-Serif" font-size="10.00">TaskOpenPanelController taskOpenPanelController</text>
<text text-anchor="start" x="6.5" y="-228" font-family="Helvetica,sans-Serif" font-size="10.00">&#45;</text>
<text text-anchor="start" x="17" y="-228" font-family="Helvetica,sans-Serif" font-size="10.00">ModalWindow modalWindow</text>
<text text-anchor="start" x="6.5" y="-213" font-family="Helvetica,sans-Serif" font-size="10.00">&#45;</text>
<text text-anchor="start" x="17" y="-213" font-family="Helvetica,sans-Serif" font-size="10.00">TMP_Dropdown taskSortDropdown</text>
<text text-anchor="start" x="4" y="-198" font-family="Helvetica,sans-Serif" font-size="10.00">+</text>
<text text-anchor="start" x="17" y="-198" font-family="Helvetica,sans-Serif" font-size="10.00">void UpdateUserData(Thesis_backend.Data_Structures.User user)</text>
<text text-anchor="start" x="4" y="-183" font-family="Helvetica,sans-Serif" font-size="10.00">+</text>
<text text-anchor="start" x="17" y="-183" font-family="Helvetica,sans-Serif" font-size="10.00">void RemoveTask(long taskId)</text>
<text text-anchor="start" x="4" y="-168" font-family="Helvetica,sans-Serif" font-size="10.00">+</text>
<text text-anchor="start" x="17" y="-168" font-family="Helvetica,sans-Serif" font-size="10.00">void UpdateTaskLabel(long taskId)</text>
<text text-anchor="start" x="4" y="-153" font-family="Helvetica,sans-Serif" font-size="10.00">+</text>
<text text-anchor="start" x="17" y="-153" font-family="Helvetica,sans-Serif" font-size="10.00">void SortingChanged()</text>
<text text-anchor="start" x="4" y="-138" font-family="Helvetica,sans-Serif" font-size="10.00">+</text>
<text text-anchor="start" x="17" y="-138" font-family="Helvetica,sans-Serif" font-size="10.00">void LoadGoodTasks(bool updateDisplay=true)</text>
<text text-anchor="start" x="4" y="-123" font-family="Helvetica,sans-Serif" font-size="10.00">+</text>
<text text-anchor="start" x="17" y="-123" font-family="Helvetica,sans-Serif" font-size="10.00">void LoadBadHabits(bool updateDisplay=true)</text>
<text text-anchor="start" x="4" y="-108" font-family="Helvetica,sans-Serif" font-size="10.00">+</text>
<text text-anchor="start" x="17" y="-108" font-family="Helvetica,sans-Serif" font-size="10.00">GameObject CreateTask(PlayerTask taskContainer)</text>
<text text-anchor="start" x="4" y="-93" font-family="Helvetica,sans-Serif" font-size="10.00">+</text>
<text text-anchor="start" x="17" y="-93" font-family="Helvetica,sans-Serif" font-size="10.00">void ShowTaskFail(string content)</text>
<text text-anchor="start" x="4" y="-78" font-family="Helvetica,sans-Serif" font-size="10.00">+</text>
<text text-anchor="start" x="17" y="-78" font-family="Helvetica,sans-Serif" font-size="10.00">void LoadGameScene()</text>
<text text-anchor="start" x="6.5" y="-63" font-family="Helvetica,sans-Serif" font-size="10.00">&#45;</text>
<text text-anchor="start" x="17" y="-63" font-family="Helvetica,sans-Serif" font-size="10.00">async void Start()</text>
<text text-anchor="start" x="6.5" y="-48" font-family="Helvetica,sans-Serif" font-size="10.00">&#45;</text>
<text text-anchor="start" x="17" y="-48" font-family="Helvetica,sans-Serif" font-size="10.00">void LoadTasks()</text>
<text text-anchor="start" x="6.5" y="-33" font-family="Helvetica,sans-Serif" font-size="10.00">&#45;</text>
<text text-anchor="start" x="17" y="-33" font-family="Helvetica,sans-Serif" font-size="10.00">void ShowRequestFail(string content)</text>
<text text-anchor="start" x="6.5" y="-18" font-family="Helvetica,sans-Serif" font-size="10.00">&#45;</text>
<text text-anchor="start" x="17" y="-18" font-family="Helvetica,sans-Serif" font-size="10.00">void CreateTaskPrefabs(List&lt; Thesis_backend.Data</text>
<text text-anchor="start" x="17" y="-7" font-family="Helvetica,sans-Serif" font-size="10.00">_Structures.PlayerTask &gt; requestResult)</text>
<polygon fill="#666666" stroke="#666666" points="0,-343 0,-343 342,-343 342,-343 0,-343"/>
<polygon fill="#666666" stroke="#666666" points="0,-208 0,-208 15,-208 15,-208 0,-208"/>
<polygon fill="#666666" stroke="#666666" points="15,-208 15,-208 342,-208 342,-208 15,-208"/>
<polygon fill="none" stroke="#666666" points="0,0 0,-360 342,-360 342,0 0,0"/>
</a>
</g>
</g>
<!-- Node2 -->
<g id="Node000002" class="node">
<title>Node2</title>
<g id="a_Node000002"><a xlink:href="classUtility_1_1ThreadSafeMonoBehaviour.html" target="_top" xlink:title="Safely stores if the gameobject been destroyed in a bool.">
<polygon fill="white" stroke="transparent" points="242.5,-445 99.5,-445 99.5,-396 242.5,-396 242.5,-445"/>
<text text-anchor="start" x="105" y="-432.5" font-family="Helvetica,sans-Serif" font-size="10.00">ThreadSafeMonoBehaviour</text>
<text text-anchor="start" x="113.5" y="-417.5" font-family="Helvetica,sans-Serif" font-size="10.00">+</text>
<text text-anchor="start" x="136" y="-417.5" font-family="Helvetica,sans-Serif" font-size="10.00">bool Destroyed</text>
<text text-anchor="start" x="113.5" y="-402.5" font-family="Helvetica,sans-Serif" font-size="10.00">#</text>
<text text-anchor="start" x="136" y="-402.5" font-family="Helvetica,sans-Serif" font-size="10.00">void OnDestroy()</text>
<polygon fill="#666666" stroke="#666666" points="100,-427.5 100,-427.5 243,-427.5 243,-427.5 100,-427.5"/>
<polygon fill="#666666" stroke="#666666" points="100,-412.5 100,-412.5 134,-412.5 134,-412.5 100,-412.5"/>
<polygon fill="#666666" stroke="#666666" points="134,-412.5 134,-412.5 243,-412.5 243,-412.5 134,-412.5"/>
<polygon fill="none" stroke="#666666" points="99.5,-396 99.5,-445 242.5,-445 242.5,-396 99.5,-396"/>
</a>
</g>
</g>
<!-- Node2&#45;&gt;Node1 -->
<g id="edge1_Node000001_Node000002" class="edge">
<title>Node2&#45;&gt;Node1</title>
<g id="a_edge1_Node000001_Node000002"><a xlink:title=" ">
<path fill="none" stroke="#63b8ff" d="M171,-385.64C171,-377.99 171,-369.35 171,-360.06"/>
<polygon fill="none" stroke="#63b8ff" points="167.5,-385.76 171,-395.76 174.5,-385.76 167.5,-385.76"/>
</a>
</g>
</g>
<!-- Node3 -->
<g id="Node000003" class="node">
<title>Node3</title>
<g id="a_Node000003"><a xlink:title=" ">
<polygon fill="white" stroke="transparent" points="214.5,-530 127.5,-530 127.5,-481 214.5,-481 214.5,-530"/>
<text text-anchor="start" x="133" y="-517.5" font-family="Helvetica,sans-Serif" font-size="10.00">MonoBehaviour</text>
<text text-anchor="start" x="169.5" y="-502.5" font-family="Helvetica,sans-Serif" font-size="10.00"> </text>
<text text-anchor="start" x="169.5" y="-487.5" font-family="Helvetica,sans-Serif" font-size="10.00"> </text>
<polygon fill="#666666" stroke="#666666" points="128,-512.5 128,-512.5 215,-512.5 215,-512.5 128,-512.5"/>
<polygon fill="#666666" stroke="#666666" points="128,-497.5 128,-497.5 215,-497.5 215,-497.5 128,-497.5"/>
<polygon fill="none" stroke="#666666" points="127.5,-481 127.5,-530 214.5,-530 214.5,-481 127.5,-481"/>
</a>
</g>
</g>
<!-- Node3&#45;&gt;Node2 -->
<g id="edge2_Node000002_Node000003" class="edge">
<title>Node3&#45;&gt;Node2</title>
<g id="a_edge2_Node000002_Node000003"><a xlink:title=" ">
<path fill="none" stroke="#63b8ff" d="M171,-470.77C171,-462.17 171,-453.1 171,-445.12"/>
<polygon fill="none" stroke="#63b8ff" points="167.5,-470.94 171,-480.94 174.5,-470.94 167.5,-470.94"/>
</a>
</g>
</g>
</g>
</svg>
