<?xml version="1.0" encoding="UTF-8" standalone="no"?>
<!DOCTYPE svg PUBLIC "-//W3C//DTD SVG 1.1//EN"
 "http://www.w3.org/Graphics/SVG/1.1/DTD/svg11.dtd">
<!-- Generated by graphviz version 2.43.0 (0)
 -->
<!-- Title: MainPage.MainWindowController Pages: 1 -->
<svg width="366pt" height="1027pt"
 viewBox="0.00 0.00 366.22 1027.00" xmlns="http://www.w3.org/2000/svg" xmlns:xlink="http://www.w3.org/1999/xlink">
<g id="graph0" class="graph" transform="scale(1 1) rotate(0) translate(4 1023)">
<title>MainPage.MainWindowController</title>
<polygon fill="white" stroke="transparent" points="-4,4 -4,-1023 362.22,-1023 362.22,4 -4,4"/>
<!-- Node1 -->
<g id="node1" class="node">
<title>Node1</title>
<g id="a_node1"><a xlink:title="Handles the main window&#39;s controls">
<polygon fill="#bfbfbf" stroke="black" points="0,-358.5 0,-657.5 257,-657.5 257,-358.5 0,-358.5"/>
<text text-anchor="middle" x="128.5" y="-645.5" font-family="Helvetica,sans-Serif" font-size="10.00">MainPage.MainWindowController</text>
<polyline fill="none" stroke="black" points="0,-638.5 257,-638.5 "/>
<text text-anchor="start" x="8" y="-626.5" font-family="Helvetica,sans-Serif" font-size="10.00">+ Dictionary&lt; long, TaskDisplayHandler &gt; Tasks</text>
<text text-anchor="start" x="8" y="-615.5" font-family="Helvetica,sans-Serif" font-size="10.00">+ TaskSortType TaskSortType</text>
<text text-anchor="start" x="8" y="-604.5" font-family="Helvetica,sans-Serif" font-size="10.00">&#45; TMP_Text usernameText</text>
<text text-anchor="start" x="8" y="-593.5" font-family="Helvetica,sans-Serif" font-size="10.00">&#45; TMP_Text currentTaskScoreText</text>
<text text-anchor="start" x="8" y="-582.5" font-family="Helvetica,sans-Serif" font-size="10.00">&#45; GameObject taskParent</text>
<text text-anchor="start" x="8" y="-571.5" font-family="Helvetica,sans-Serif" font-size="10.00">&#45; GameObject taskPrefab</text>
<text text-anchor="start" x="8" y="-560.5" font-family="Helvetica,sans-Serif" font-size="10.00">&#45; TMP_Dropdown taskSortDropdown</text>
<polyline fill="none" stroke="black" points="0,-553.5 257,-553.5 "/>
<text text-anchor="start" x="8" y="-541.5" font-family="Helvetica,sans-Serif" font-size="10.00">+ void UpdateUserData(Thesis_backend.Data</text>
<text text-anchor="start" x="8" y="-530.5" font-family="Helvetica,sans-Serif" font-size="10.00">_Structures.User user)</text>
<text text-anchor="start" x="8" y="-519.5" font-family="Helvetica,sans-Serif" font-size="10.00">+ void RemoveTask(long taskId)</text>
<text text-anchor="start" x="8" y="-508.5" font-family="Helvetica,sans-Serif" font-size="10.00">+ void UpdateTaskLabel(long taskId)</text>
<text text-anchor="start" x="8" y="-497.5" font-family="Helvetica,sans-Serif" font-size="10.00">+ void SortingChanged()</text>
<text text-anchor="start" x="8" y="-486.5" font-family="Helvetica,sans-Serif" font-size="10.00">+ void LoadGoodTasks(bool updateDisplay=true)</text>
<text text-anchor="start" x="8" y="-475.5" font-family="Helvetica,sans-Serif" font-size="10.00">+ void LoadBadHabits(bool updateDisplay=true)</text>
<text text-anchor="start" x="8" y="-464.5" font-family="Helvetica,sans-Serif" font-size="10.00">+ GameObject CreateTask(PlayerTask</text>
<text text-anchor="start" x="8" y="-453.5" font-family="Helvetica,sans-Serif" font-size="10.00"> taskContainer)</text>
<text text-anchor="start" x="8" y="-442.5" font-family="Helvetica,sans-Serif" font-size="10.00">+ void ShowTaskFail(string content)</text>
<text text-anchor="start" x="8" y="-431.5" font-family="Helvetica,sans-Serif" font-size="10.00">+ void LoadGameScene()</text>
<text text-anchor="start" x="8" y="-420.5" font-family="Helvetica,sans-Serif" font-size="10.00">&#45; async void Start()</text>
<text text-anchor="start" x="8" y="-409.5" font-family="Helvetica,sans-Serif" font-size="10.00">&#45; void LoadTasks()</text>
<text text-anchor="start" x="8" y="-398.5" font-family="Helvetica,sans-Serif" font-size="10.00">&#45; void ShowRequestFail(string content)</text>
<text text-anchor="start" x="8" y="-387.5" font-family="Helvetica,sans-Serif" font-size="10.00">&#45; void CreateTaskPrefabs(List&lt; Thesis</text>
<text text-anchor="start" x="8" y="-376.5" font-family="Helvetica,sans-Serif" font-size="10.00">_backend.Data_Structures.PlayerTask</text>
<text text-anchor="start" x="8" y="-365.5" font-family="Helvetica,sans-Serif" font-size="10.00"> &gt; requestResult)</text>
</a>
</g>
</g>
<!-- Node4 -->
<g id="node4" class="node">
<title>Node4</title>
<g id="a_node4"><a xlink:href="classMainPage_1_1TaskOpenPanelController.html" target="_top" xlink:title="Controller for displaying, editing and creating tasks">
<polygon fill="white" stroke="black" points="131.5,-0.5 131.5,-310.5 355.5,-310.5 355.5,-0.5 131.5,-0.5"/>
<text text-anchor="middle" x="243.5" y="-298.5" font-family="Helvetica,sans-Serif" font-size="10.00">MainPage.TaskOpenPanelController</text>
<polyline fill="none" stroke="black" points="131.5,-291.5 355.5,-291.5 "/>
<text text-anchor="start" x="139.5" y="-279.5" font-family="Helvetica,sans-Serif" font-size="10.00">+ EventHandler&lt; TaskClosedEventArgs</text>
<text text-anchor="start" x="139.5" y="-268.5" font-family="Helvetica,sans-Serif" font-size="10.00"> &gt; TaskClosedEventHandler</text>
<text text-anchor="start" x="139.5" y="-257.5" font-family="Helvetica,sans-Serif" font-size="10.00">+ static readonly int[] TASKINTERVALS</text>
<text text-anchor="start" x="139.5" y="-246.5" font-family="Helvetica,sans-Serif" font-size="10.00">+ PlayerTask CurrentTask</text>
<text text-anchor="start" x="139.5" y="-235.5" font-family="Helvetica,sans-Serif" font-size="10.00">&#45; TMP_InputField taskNameInput</text>
<text text-anchor="start" x="139.5" y="-224.5" font-family="Helvetica,sans-Serif" font-size="10.00">&#45; TMP_Dropdown taskIntervals</text>
<text text-anchor="start" x="139.5" y="-213.5" font-family="Helvetica,sans-Serif" font-size="10.00">&#45; TMP_InputField descriptionInput</text>
<text text-anchor="start" x="139.5" y="-202.5" font-family="Helvetica,sans-Serif" font-size="10.00">&#45; Button goodTaskButton</text>
<text text-anchor="start" x="139.5" y="-191.5" font-family="Helvetica,sans-Serif" font-size="10.00">&#45; Button badHabitButton</text>
<text text-anchor="start" x="139.5" y="-180.5" font-family="Helvetica,sans-Serif" font-size="10.00">&#45; Button deleteTaskButton</text>
<text text-anchor="start" x="139.5" y="-169.5" font-family="Helvetica,sans-Serif" font-size="10.00">&#45; bool isNewTask</text>
<text text-anchor="start" x="139.5" y="-158.5" font-family="Helvetica,sans-Serif" font-size="10.00">&#45; PlayerTask playerTaskOnOpen</text>
<polyline fill="none" stroke="black" points="131.5,-151.5 355.5,-151.5 "/>
<text text-anchor="start" x="139.5" y="-139.5" font-family="Helvetica,sans-Serif" font-size="10.00">+ void OpenUp()</text>
<text text-anchor="start" x="139.5" y="-128.5" font-family="Helvetica,sans-Serif" font-size="10.00">+ void OpenUp(PlayerTask taskContainer</text>
<text text-anchor="start" x="139.5" y="-117.5" font-family="Helvetica,sans-Serif" font-size="10.00">=null, TaskType type=TaskType.GoodTask)</text>
<text text-anchor="start" x="139.5" y="-106.5" font-family="Helvetica,sans-Serif" font-size="10.00">+ void MakeItBadHabit()</text>
<text text-anchor="start" x="139.5" y="-95.5" font-family="Helvetica,sans-Serif" font-size="10.00">+ void MakeItGoodTask()</text>
<text text-anchor="start" x="139.5" y="-84.5" font-family="Helvetica,sans-Serif" font-size="10.00">+ void Cancel()</text>
<text text-anchor="start" x="139.5" y="-73.5" font-family="Helvetica,sans-Serif" font-size="10.00">+ void Save()</text>
<text text-anchor="start" x="139.5" y="-62.5" font-family="Helvetica,sans-Serif" font-size="10.00">+ void DeleteTask()</text>
<text text-anchor="start" x="139.5" y="-51.5" font-family="Helvetica,sans-Serif" font-size="10.00">&#45; void SavedTask(Thesis_backend.Data</text>
<text text-anchor="start" x="139.5" y="-40.5" font-family="Helvetica,sans-Serif" font-size="10.00">_Structures.PlayerTask savedTask)</text>
<text text-anchor="start" x="139.5" y="-29.5" font-family="Helvetica,sans-Serif" font-size="10.00">&#45; void DeletedTask(string result)</text>
<text text-anchor="start" x="139.5" y="-18.5" font-family="Helvetica,sans-Serif" font-size="10.00">&#45; void CollectFromFields()</text>
<text text-anchor="start" x="139.5" y="-7.5" font-family="Helvetica,sans-Serif" font-size="10.00">&#45; void UpdateButtons()</text>
</a>
</g>
</g>
<!-- Node1&#45;&gt;Node4 -->
<g id="edge5" class="edge">
<title>Node1&#45;&gt;Node4</title>
<path fill="none" stroke="#404040" d="M215.04,-358.04C217.38,-352.02 219.55,-346 221.5,-340 223.37,-334.23 225.08,-328.32 226.66,-322.31"/>
<polygon fill="none" stroke="#404040" points="226.66,-322.31 224.19,-315.53 229.5,-310.65 231.97,-317.43 226.66,-322.31"/>
<text text-anchor="middle" x="255.5" y="-332" font-family="Helvetica,sans-Serif" font-size="10.00"> &#45;uIController</text>
</g>
<!-- Node2 -->
<g id="node2" class="node">
<title>Node2</title>
<g id="a_node2"><a xlink:href="classUtility_1_1ThreadSafeMonoBehaviour.html" target="_top" xlink:title="Safely stores if the gameobject been destroyed in a bool">
<polygon fill="white" stroke="black" points="115,-866.5 115,-923.5 264,-923.5 264,-866.5 115,-866.5"/>
<text text-anchor="middle" x="189.5" y="-911.5" font-family="Helvetica,sans-Serif" font-size="10.00">ThreadSafeMonoBehaviour</text>
<polyline fill="none" stroke="black" points="115,-904.5 264,-904.5 "/>
<text text-anchor="start" x="123" y="-892.5" font-family="Helvetica,sans-Serif" font-size="10.00">+ bool Destroyed</text>
<polyline fill="none" stroke="black" points="115,-885.5 264,-885.5 "/>
<text text-anchor="start" x="123" y="-873.5" font-family="Helvetica,sans-Serif" font-size="10.00"># void OnDestroy()</text>
</a>
</g>
</g>
<!-- Node2&#45;&gt;Node1 -->
<g id="edge1" class="edge">
<title>Node2&#45;&gt;Node1</title>
<path fill="none" stroke="midnightblue" d="M106.24,-860.83C93.95,-852.3 82.94,-841.8 75.5,-829 45.73,-777.75 49.39,-714.55 64.04,-657.89"/>
<polygon fill="none" stroke="midnightblue" points="104.62,-863.95 114.92,-866.42 108.41,-858.06 104.62,-863.95"/>
</g>
<!-- Node2&#45;&gt;Node4 -->
<g id="edge4" class="edge">
<title>Node2&#45;&gt;Node4</title>
<path fill="none" stroke="midnightblue" d="M272.76,-860.83C285.05,-852.3 296.06,-841.8 303.5,-829 395.58,-670.51 352.78,-454.71 305.52,-310.76"/>
<polygon fill="none" stroke="midnightblue" points="270.59,-858.06 264.08,-866.42 274.38,-863.95 270.59,-858.06"/>
</g>
<!-- Node5 -->
<g id="node5" class="node">
<title>Node5</title>
<g id="a_node5"><a xlink:href="classUtility_1_1ModalWindow.html" target="_top" xlink:title="Modal window for alerting the user">
<polygon fill="white" stroke="black" points="85,-705.5 85,-828.5 294,-828.5 294,-705.5 85,-705.5"/>
<text text-anchor="middle" x="189.5" y="-816.5" font-family="Helvetica,sans-Serif" font-size="10.00">Utility.ModalWindow</text>
<polyline fill="none" stroke="black" points="85,-809.5 294,-809.5 "/>
<text text-anchor="start" x="93" y="-797.5" font-family="Helvetica,sans-Serif" font-size="10.00">&#45; TMP_Text ModalTitleText</text>
<text text-anchor="start" x="93" y="-786.5" font-family="Helvetica,sans-Serif" font-size="10.00">&#45; TMP_Text ModalContentText</text>
<text text-anchor="start" x="93" y="-775.5" font-family="Helvetica,sans-Serif" font-size="10.00">&#45; Action onOkAction</text>
<polyline fill="none" stroke="black" points="85,-768.5 294,-768.5 "/>
<text text-anchor="start" x="93" y="-756.5" font-family="Helvetica,sans-Serif" font-size="10.00">+ void Show()</text>
<text text-anchor="start" x="93" y="-745.5" font-family="Helvetica,sans-Serif" font-size="10.00">+ void Show(string title, string content,</text>
<text text-anchor="start" x="93" y="-734.5" font-family="Helvetica,sans-Serif" font-size="10.00"> Action onOkAction=null)</text>
<text text-anchor="start" x="93" y="-723.5" font-family="Helvetica,sans-Serif" font-size="10.00">+ void Hide()</text>
<text text-anchor="start" x="93" y="-712.5" font-family="Helvetica,sans-Serif" font-size="10.00">+ void ConfirmButtonClick()</text>
</a>
</g>
</g>
<!-- Node2&#45;&gt;Node5 -->
<g id="edge7" class="edge">
<title>Node2&#45;&gt;Node5</title>
<path fill="none" stroke="midnightblue" d="M189.5,-856.18C189.5,-847.49 189.5,-838.03 189.5,-828.65"/>
<polygon fill="none" stroke="midnightblue" points="186,-856.35 189.5,-866.35 193,-856.35 186,-856.35"/>
</g>
<!-- Node3 -->
<g id="node3" class="node">
<title>Node3</title>
<g id="a_node3"><a xlink:title=" ">
<polygon fill="white" stroke="#bfbfbf" points="143,-961.5 143,-1018.5 236,-1018.5 236,-961.5 143,-961.5"/>
<text text-anchor="middle" x="189.5" y="-1006.5" font-family="Helvetica,sans-Serif" font-size="10.00">MonoBehaviour</text>
<polyline fill="none" stroke="#bfbfbf" points="143,-999.5 236,-999.5 "/>
<text text-anchor="middle" x="189.5" y="-987.5" font-family="Helvetica,sans-Serif" font-size="10.00"> </text>
<polyline fill="none" stroke="#bfbfbf" points="143,-980.5 236,-980.5 "/>
<text text-anchor="middle" x="189.5" y="-968.5" font-family="Helvetica,sans-Serif" font-size="10.00"> </text>
</a>
</g>
</g>
<!-- Node3&#45;&gt;Node2 -->
<g id="edge2" class="edge">
<title>Node3&#45;&gt;Node2</title>
<path fill="none" stroke="midnightblue" d="M189.5,-951.24C189.5,-942.03 189.5,-932.35 189.5,-923.71"/>
<polygon fill="none" stroke="midnightblue" points="186,-951.35 189.5,-961.35 193,-951.35 186,-951.35"/>
</g>
<!-- Node4&#45;&gt;Node1 -->
<g id="edge3" class="edge">
<title>Node4&#45;&gt;Node1</title>
<path fill="none" stroke="#404040" d="M131.22,-262.87C115.79,-283.24 102.26,-305.58 93.5,-329 91.4,-334.6 89.81,-340.36 88.66,-346.21"/>
<polygon fill="none" stroke="#404040" points="88.62,-346.46 91.72,-352.97 86.9,-358.33 83.8,-351.82 88.62,-346.46"/>
<text text-anchor="middle" x="157.5" y="-332" font-family="Helvetica,sans-Serif" font-size="10.00"> &#45;taskOpenPanelController</text>
</g>
<!-- Node5&#45;&gt;Node1 -->
<g id="edge6" class="edge">
<title>Node5&#45;&gt;Node1</title>
<path fill="none" stroke="#404040" d="M175.12,-705.42C172.45,-694.17 169.55,-681.95 166.54,-669.29"/>
<polygon fill="none" stroke="#404040" points="166.53,-669.23 161.25,-664.31 163.76,-657.55 169.04,-662.46 166.53,-669.23"/>
<text text-anchor="middle" x="208" y="-679" font-family="Helvetica,sans-Serif" font-size="10.00"> &#45;modalWindow</text>
</g>
</g>
</svg>
