<?xml version="1.0" encoding="UTF-8" standalone="no"?>
<!DOCTYPE svg PUBLIC "-//W3C//DTD SVG 1.1//EN"
 "http://www.w3.org/Graphics/SVG/1.1/DTD/svg11.dtd">
<!-- Generated by graphviz version 2.43.0 (0)
 -->
<!-- Title: Game.UI.ShopItem Pages: 1 -->
<svg width="449pt" height="788pt"
 viewBox="0.00 0.00 448.50 788.00" xmlns="http://www.w3.org/2000/svg" xmlns:xlink="http://www.w3.org/1999/xlink">
<g id="graph0" class="graph" transform="scale(1 1) rotate(0) translate(4 784)">
<title>Game.UI.ShopItem</title>
<!-- Node1 -->
<g id="Node000001" class="node">
<title>Node1</title>
<g id="a_Node000001"><a xlink:title="A single shop item.">
<polygon fill="#999999" stroke="transparent" points="309,-180 0,-180 0,0 309,0 309,-180"/>
<text text-anchor="start" x="108.5" y="-168" font-family="Helvetica,sans-Serif" font-size="10.00">Game.UI.ShopItem</text>
<text text-anchor="start" x="4.5" y="-153" font-family="Helvetica,sans-Serif" font-size="10.00">+</text>
<text text-anchor="start" x="17.5" y="-153" font-family="Helvetica,sans-Serif" font-size="10.00">long Id</text>
<text text-anchor="start" x="4.5" y="-138" font-family="Helvetica,sans-Serif" font-size="10.00">+</text>
<text text-anchor="start" x="17.5" y="-138" font-family="Helvetica,sans-Serif" font-size="10.00">bool Owned</text>
<text text-anchor="start" x="7" y="-123" font-family="Helvetica,sans-Serif" font-size="10.00">&#45;</text>
<text text-anchor="start" x="17.5" y="-123" font-family="Helvetica,sans-Serif" font-size="10.00">TMP_Text ProductName</text>
<text text-anchor="start" x="7" y="-108" font-family="Helvetica,sans-Serif" font-size="10.00">&#45;</text>
<text text-anchor="start" x="17.5" y="-108" font-family="Helvetica,sans-Serif" font-size="10.00">Image ProductImage</text>
<text text-anchor="start" x="7" y="-93" font-family="Helvetica,sans-Serif" font-size="10.00">&#45;</text>
<text text-anchor="start" x="17.5" y="-93" font-family="Helvetica,sans-Serif" font-size="10.00">TMP_Text Price</text>
<text text-anchor="start" x="7" y="-78" font-family="Helvetica,sans-Serif" font-size="10.00">&#45;</text>
<text text-anchor="start" x="17.5" y="-78" font-family="Helvetica,sans-Serif" font-size="10.00">Button BuyButton</text>
<text text-anchor="start" x="4.5" y="-63" font-family="Helvetica,sans-Serif" font-size="10.00">+</text>
<text text-anchor="start" x="17.5" y="-63" font-family="Helvetica,sans-Serif" font-size="10.00">void Init(ShopWindow parentWindow, Shop item, Sprite</text>
<text text-anchor="start" x="17.5" y="-52" font-family="Helvetica,sans-Serif" font-size="10.00"> image, bool owned)</text>
<text text-anchor="start" x="4.5" y="-37" font-family="Helvetica,sans-Serif" font-size="10.00">+</text>
<text text-anchor="start" x="17.5" y="-37" font-family="Helvetica,sans-Serif" font-size="10.00">void Buy()</text>
<text text-anchor="start" x="4.5" y="-22" font-family="Helvetica,sans-Serif" font-size="10.00">+</text>
<text text-anchor="start" x="17.5" y="-22" font-family="Helvetica,sans-Serif" font-size="10.00">string GetDisplayedPrice()</text>
<text text-anchor="start" x="7" y="-7" font-family="Helvetica,sans-Serif" font-size="10.00">&#45;</text>
<text text-anchor="start" x="17.5" y="-7" font-family="Helvetica,sans-Serif" font-size="10.00">void Bought(Thesis_backend.Data_Structures.Game game)</text>
<polygon fill="#666666" stroke="#666666" points="0.5,-163 0.5,-163 309.5,-163 309.5,-163 0.5,-163"/>
<polygon fill="#666666" stroke="#666666" points="0.5,-73 0.5,-73 15.5,-73 15.5,-73 0.5,-73"/>
<polygon fill="#666666" stroke="#666666" points="15.5,-73 15.5,-73 309.5,-73 309.5,-73 15.5,-73"/>
<polygon fill="none" stroke="#666666" points="0,0 0,-180 309,-180 309,0 0,0"/>
</a>
</g>
</g>
<!-- Node2 -->
<g id="Node000002" class="node">
<title>Node2</title>
<g id="a_Node000002"><a xlink:href="classUtility_1_1ThreadSafeMonoBehaviour.html" target="_top" xlink:title="Safely stores if the gameobject been destroyed in a bool.">
<polygon fill="white" stroke="transparent" points="248,-694 105,-694 105,-645 248,-645 248,-694"/>
<text text-anchor="start" x="110.5" y="-681.5" font-family="Helvetica,sans-Serif" font-size="10.00">ThreadSafeMonoBehaviour</text>
<text text-anchor="start" x="119" y="-666.5" font-family="Helvetica,sans-Serif" font-size="10.00">+</text>
<text text-anchor="start" x="141.5" y="-666.5" font-family="Helvetica,sans-Serif" font-size="10.00">bool Destroyed</text>
<text text-anchor="start" x="119" y="-651.5" font-family="Helvetica,sans-Serif" font-size="10.00">#</text>
<text text-anchor="start" x="141.5" y="-651.5" font-family="Helvetica,sans-Serif" font-size="10.00">void OnDestroy()</text>
<polygon fill="#666666" stroke="#666666" points="105.5,-676.5 105.5,-676.5 248.5,-676.5 248.5,-676.5 105.5,-676.5"/>
<polygon fill="#666666" stroke="#666666" points="105.5,-661.5 105.5,-661.5 139.5,-661.5 139.5,-661.5 105.5,-661.5"/>
<polygon fill="#666666" stroke="#666666" points="139.5,-661.5 139.5,-661.5 248.5,-661.5 248.5,-661.5 139.5,-661.5"/>
<polygon fill="none" stroke="#666666" points="105,-645 105,-694 248,-694 248,-645 105,-645"/>
</a>
</g>
</g>
<!-- Node2&#45;&gt;Node1 -->
<g id="edge1_Node000001_Node000002" class="edge">
<title>Node2&#45;&gt;Node1</title>
<g id="a_edge1_Node000001_Node000002"><a xlink:title=" ">
<path fill="none" stroke="#63b8ff" d="M172.29,-634.77C172.01,-632.14 171.74,-629.53 171.5,-627 163.03,-537.85 161.01,-515.48 157.5,-426 154.23,-342.75 153.68,-247.77 153.83,-180.26"/>
<polygon fill="none" stroke="#63b8ff" points="168.83,-635.28 173.44,-644.82 175.78,-634.49 168.83,-635.28"/>
</a>
</g>
</g>
<!-- Node4 -->
<g id="Node000004" class="node">
<title>Node4</title>
<g id="a_Node000004"><a xlink:href="classGame_1_1UI_1_1ShopWindow.html" target="_top" xlink:title="Handles the shop window&#39;s content display.">
<polygon fill="white" stroke="transparent" points="424.5,-426 166.5,-426 166.5,-227 424.5,-227 424.5,-426"/>
<text text-anchor="start" x="241" y="-413.5" font-family="Helvetica,sans-Serif" font-size="10.00">Game.UI.ShopWindow</text>
<text text-anchor="start" x="170.5" y="-398.5" font-family="Helvetica,sans-Serif" font-size="10.00">+</text>
<text text-anchor="start" x="183.5" y="-398.5" font-family="Helvetica,sans-Serif" font-size="10.00">List&lt; Sprite &gt; ShopItemSprites</text>
<text text-anchor="start" x="173" y="-383.5" font-family="Helvetica,sans-Serif" font-size="10.00">&#45;</text>
<text text-anchor="start" x="183.5" y="-383.5" font-family="Helvetica,sans-Serif" font-size="10.00">GameObject ShopParent</text>
<text text-anchor="start" x="173" y="-368.5" font-family="Helvetica,sans-Serif" font-size="10.00">&#45;</text>
<text text-anchor="start" x="183.5" y="-368.5" font-family="Helvetica,sans-Serif" font-size="10.00">GameObject ShopItemPrefab</text>
<text text-anchor="start" x="173" y="-353.5" font-family="Helvetica,sans-Serif" font-size="10.00">&#45;</text>
<text text-anchor="start" x="183.5" y="-353.5" font-family="Helvetica,sans-Serif" font-size="10.00">TMP_Text CoinText</text>
<text text-anchor="start" x="173" y="-338.5" font-family="Helvetica,sans-Serif" font-size="10.00">&#45;</text>
<text text-anchor="start" x="183.5" y="-338.5" font-family="Helvetica,sans-Serif" font-size="10.00">List&lt; Shop &gt; shopItemsCache</text>
<text text-anchor="start" x="170.5" y="-323.5" font-family="Helvetica,sans-Serif" font-size="10.00">+</text>
<text text-anchor="start" x="183.5" y="-323.5" font-family="Helvetica,sans-Serif" font-size="10.00">void Show()</text>
<text text-anchor="start" x="170.5" y="-308.5" font-family="Helvetica,sans-Serif" font-size="10.00">+</text>
<text text-anchor="start" x="183.5" y="-308.5" font-family="Helvetica,sans-Serif" font-size="10.00">void Hide()</text>
<text text-anchor="start" x="170.5" y="-293.5" font-family="Helvetica,sans-Serif" font-size="10.00">+</text>
<text text-anchor="start" x="183.5" y="-293.5" font-family="Helvetica,sans-Serif" font-size="10.00">void ShowRequestFail(string content)</text>
<text text-anchor="start" x="170.5" y="-278.5" font-family="Helvetica,sans-Serif" font-size="10.00">+</text>
<text text-anchor="start" x="183.5" y="-278.5" font-family="Helvetica,sans-Serif" font-size="10.00">void UpdateShop()</text>
<text text-anchor="start" x="170.5" y="-263.5" font-family="Helvetica,sans-Serif" font-size="10.00">+</text>
<text text-anchor="start" x="183.5" y="-263.5" font-family="Helvetica,sans-Serif" font-size="10.00">string GetCoinText()</text>
<text text-anchor="start" x="170.5" y="-248.5" font-family="Helvetica,sans-Serif" font-size="10.00">+</text>
<text text-anchor="start" x="183.5" y="-248.5" font-family="Helvetica,sans-Serif" font-size="10.00">GameObject GetShopParent()</text>
<text text-anchor="start" x="173" y="-233.5" font-family="Helvetica,sans-Serif" font-size="10.00">&#45;</text>
<text text-anchor="start" x="183.5" y="-233.5" font-family="Helvetica,sans-Serif" font-size="10.00">void LoadedShopItems(List&lt; Shop &gt; shopItems)</text>
<polygon fill="#666666" stroke="#666666" points="166.5,-408.5 166.5,-408.5 424.5,-408.5 424.5,-408.5 166.5,-408.5"/>
<polygon fill="#666666" stroke="#666666" points="166.5,-333.5 166.5,-333.5 181.5,-333.5 181.5,-333.5 166.5,-333.5"/>
<polygon fill="#666666" stroke="#666666" points="181.5,-333.5 181.5,-333.5 424.5,-333.5 424.5,-333.5 181.5,-333.5"/>
<polygon fill="none" stroke="#666666" points="166.5,-227 166.5,-426 424.5,-426 424.5,-227 166.5,-227"/>
</a>
</g>
</g>
<!-- Node2&#45;&gt;Node4 -->
<g id="edge4_Node000004_Node000002" class="edge">
<title>Node2&#45;&gt;Node4</title>
<g id="a_edge4_Node000004_Node000002"><a xlink:title=" ">
<path fill="none" stroke="#63b8ff" d="M174.75,-634.55C173.82,-594.64 175.82,-527 195.5,-473 201.33,-457.02 209.33,-441.13 218.28,-426.04"/>
<polygon fill="none" stroke="#63b8ff" points="171.26,-634.91 175.06,-644.8 178.25,-634.69 171.26,-634.91"/>
</a>
</g>
</g>
<!-- Node5 -->
<g id="Node000005" class="node">
<title>Node5</title>
<g id="a_Node000005"><a xlink:href="classUtility_1_1ModalWindow.html" target="_top" xlink:title="Modal window for alerting the user.">
<polygon fill="white" stroke="transparent" points="440.5,-608 204.5,-608 204.5,-473 440.5,-473 440.5,-608"/>
<text text-anchor="start" x="272" y="-595.5" font-family="Helvetica,sans-Serif" font-size="10.00">Utility.ModalWindow</text>
<text text-anchor="start" x="211" y="-580.5" font-family="Helvetica,sans-Serif" font-size="10.00">&#45;</text>
<text text-anchor="start" x="221.5" y="-580.5" font-family="Helvetica,sans-Serif" font-size="10.00">TMP_Text ModalTitleText</text>
<text text-anchor="start" x="211" y="-565.5" font-family="Helvetica,sans-Serif" font-size="10.00">&#45;</text>
<text text-anchor="start" x="221.5" y="-565.5" font-family="Helvetica,sans-Serif" font-size="10.00">TMP_Text ModalContentText</text>
<text text-anchor="start" x="211" y="-550.5" font-family="Helvetica,sans-Serif" font-size="10.00">&#45;</text>
<text text-anchor="start" x="221.5" y="-550.5" font-family="Helvetica,sans-Serif" font-size="10.00">Action onOkAction</text>
<text text-anchor="start" x="208.5" y="-535.5" font-family="Helvetica,sans-Serif" font-size="10.00">+</text>
<text text-anchor="start" x="221.5" y="-535.5" font-family="Helvetica,sans-Serif" font-size="10.00">void Show()</text>
<text text-anchor="start" x="208.5" y="-520.5" font-family="Helvetica,sans-Serif" font-size="10.00">+</text>
<text text-anchor="start" x="221.5" y="-520.5" font-family="Helvetica,sans-Serif" font-size="10.00">void Show(string title, string content, Action</text>
<text text-anchor="start" x="221.5" y="-509.5" font-family="Helvetica,sans-Serif" font-size="10.00"> onOkAction=null)</text>
<text text-anchor="start" x="208.5" y="-494.5" font-family="Helvetica,sans-Serif" font-size="10.00">+</text>
<text text-anchor="start" x="221.5" y="-494.5" font-family="Helvetica,sans-Serif" font-size="10.00">void Hide()</text>
<text text-anchor="start" x="208.5" y="-479.5" font-family="Helvetica,sans-Serif" font-size="10.00">+</text>
<text text-anchor="start" x="221.5" y="-479.5" font-family="Helvetica,sans-Serif" font-size="10.00">void ConfirmButtonClick()</text>
<polygon fill="#666666" stroke="#666666" points="204.5,-590.5 204.5,-590.5 440.5,-590.5 440.5,-590.5 204.5,-590.5"/>
<polygon fill="#666666" stroke="#666666" points="204.5,-545.5 204.5,-545.5 219.5,-545.5 219.5,-545.5 204.5,-545.5"/>
<polygon fill="#666666" stroke="#666666" points="219.5,-545.5 219.5,-545.5 440.5,-545.5 440.5,-545.5 219.5,-545.5"/>
<polygon fill="none" stroke="#666666" points="204.5,-473 204.5,-608 440.5,-608 440.5,-473 204.5,-473"/>
</a>
</g>
</g>
<!-- Node2&#45;&gt;Node5 -->
<g id="edge6_Node000005_Node000002" class="edge">
<title>Node2&#45;&gt;Node5</title>
<g id="a_edge6_Node000005_Node000002"><a xlink:title=" ">
<path fill="none" stroke="#63b8ff" d="M211.34,-638.2C221.83,-629.07 233.78,-618.67 245.87,-608.15"/>
<polygon fill="none" stroke="#63b8ff" points="208.87,-635.71 203.62,-644.91 213.46,-640.99 208.87,-635.71"/>
</a>
</g>
</g>
<!-- Node3 -->
<g id="Node000003" class="node">
<title>Node3</title>
<g id="a_Node000003"><a xlink:title=" ">
<polygon fill="white" stroke="transparent" points="220,-780 133,-780 133,-731 220,-731 220,-780"/>
<text text-anchor="start" x="138.5" y="-767.5" font-family="Helvetica,sans-Serif" font-size="10.00">MonoBehaviour</text>
<text text-anchor="start" x="175" y="-752.5" font-family="Helvetica,sans-Serif" font-size="10.00"> </text>
<text text-anchor="start" x="175" y="-737.5" font-family="Helvetica,sans-Serif" font-size="10.00"> </text>
<polygon fill="#666666" stroke="#666666" points="133.5,-762.5 133.5,-762.5 220.5,-762.5 220.5,-762.5 133.5,-762.5"/>
<polygon fill="#666666" stroke="#666666" points="133.5,-747.5 133.5,-747.5 220.5,-747.5 220.5,-747.5 133.5,-747.5"/>
<polygon fill="none" stroke="#666666" points="133,-731 133,-780 220,-780 220,-731 133,-731"/>
</a>
</g>
</g>
<!-- Node3&#45;&gt;Node2 -->
<g id="edge2_Node000002_Node000003" class="edge">
<title>Node3&#45;&gt;Node2</title>
<g id="a_edge2_Node000002_Node000003"><a xlink:title=" ">
<path fill="none" stroke="#63b8ff" d="M176.5,-720.57C176.5,-711.69 176.5,-702.32 176.5,-694.12"/>
<polygon fill="none" stroke="#63b8ff" points="173,-720.65 176.5,-730.65 180,-720.65 173,-720.65"/>
</a>
</g>
</g>
<!-- Node4&#45;&gt;Node1 -->
<g id="edge3_Node000001_Node000004" class="edge">
<title>Node4&#45;&gt;Node1</title>
<g id="a_edge3_Node000001_Node000004"><a xlink:title=" ">
<path fill="none" stroke="#63b8ff" d="M236.11,-226.73C228.95,-214.82 221.64,-202.65 214.47,-190.73"/>
<polygon fill="none" stroke="#63b8ff" points="214.4,-190.62 207.88,-187.54 208.21,-180.33 214.73,-183.41 214.4,-190.62"/>
</a>
</g>
<text text-anchor="middle" x="259.5" y="-201" font-family="Helvetica,sans-Serif" font-size="10.00" fill="grey"> &#45;shopWindow</text>
</g>
<!-- Node5&#45;&gt;Node4 -->
<g id="edge5_Node000004_Node000005" class="edge">
<title>Node5&#45;&gt;Node4</title>
<g id="a_edge5_Node000004_Node000005"><a xlink:title=" ">
<path fill="none" stroke="#63b8ff" d="M313.99,-472.71C312.59,-461.72 311.11,-450.08 309.62,-438.36"/>
<polygon fill="none" stroke="#63b8ff" points="309.58,-438.04 304.85,-432.59 308.06,-426.13 312.79,-431.58 309.58,-438.04"/>
</a>
</g>
<text text-anchor="middle" x="348.5" y="-447" font-family="Helvetica,sans-Serif" font-size="10.00" fill="grey"> &#45;ModalWindow</text>
</g>
</g>
</svg>
