<?xml version="1.0" encoding="UTF-8" standalone="no"?>
<!DOCTYPE svg PUBLIC "-//W3C//DTD SVG 1.1//EN"
 "http://www.w3.org/Graphics/SVG/1.1/DTD/svg11.dtd">
<!-- Generated by graphviz version 2.43.0 (0)
 -->
<!-- Title: Game.World.RoadGenerator.RoadGenerator Pages: 1 -->
<svg width="763pt" height="66pt"
 viewBox="0.00 0.00 763.00 66.00" xmlns="http://www.w3.org/2000/svg" xmlns:xlink="http://www.w3.org/1999/xlink">
<g id="graph0" class="graph" transform="scale(1 1) rotate(0) translate(4 62)">
<title>Game.World.RoadGenerator.RoadGenerator</title>
<polygon fill="white" stroke="transparent" points="-4,4 -4,-62 759,-62 759,4 -4,4"/>
<!-- Node1 -->
<g id="node1" class="node">
<title>Node1</title>
<g id="a_node1"><a xlink:title="Creates the road matrix">
<polygon fill="#bfbfbf" stroke="black" points="0,-19.5 0,-38.5 229,-38.5 229,-19.5 0,-19.5"/>
<text text-anchor="middle" x="114.5" y="-26.5" font-family="Helvetica,sans-Serif" font-size="10.00">Game.World.RoadGenerator.RoadGenerator</text>
</a>
</g>
</g>
<!-- Node2 -->
<g id="node2" class="node">
<title>Node2</title>
<g id="a_node2"><a xlink:href="classGame_1_1World_1_1RoadGenerator.html#ab3b7fa7ff101a87611b4be39e1777d51" target="_top" xlink:title="Creates the roads recursively">
<polygon fill="white" stroke="black" points="265,-19.5 265,-38.5 477,-38.5 477,-19.5 265,-19.5"/>
<text text-anchor="middle" x="371" y="-26.5" font-family="Helvetica,sans-Serif" font-size="10.00">Game.World.RoadGenerator.CreateRoad</text>
</a>
</g>
</g>
<!-- Node1&#45;&gt;Node2 -->
<g id="edge1" class="edge">
<title>Node1&#45;&gt;Node2</title>
<path fill="none" stroke="midnightblue" d="M229.35,-29C237.73,-29 246.18,-29 254.56,-29"/>
<polygon fill="midnightblue" stroke="midnightblue" points="254.74,-32.5 264.74,-29 254.74,-25.5 254.74,-32.5"/>
</g>
<!-- Node3 -->
<g id="node3" class="node">
<title>Node3</title>
<g id="a_node3"><a xlink:href="classGame_1_1World_1_1RoadGenerator.html#aff41fff01a6f7955370796e82d542b5c" target="_top" xlink:title="Checks if the road moving in that direction will run into an another road">
<polygon fill="white" stroke="black" points="522,-38.5 522,-57.5 746,-57.5 746,-38.5 522,-38.5"/>
<text text-anchor="middle" x="634" y="-45.5" font-family="Helvetica,sans-Serif" font-size="10.00">Game.World.RoadGenerator.CheckForward</text>
</a>
</g>
</g>
<!-- Node2&#45;&gt;Node3 -->
<g id="edge2" class="edge">
<title>Node2&#45;&gt;Node3</title>
<path fill="none" stroke="midnightblue" d="M477.03,-36.65C488.42,-37.48 500.09,-38.32 511.66,-39.17"/>
<polygon fill="midnightblue" stroke="midnightblue" points="511.56,-42.67 521.79,-39.9 512.07,-35.69 511.56,-42.67"/>
</g>
<!-- Node4 -->
<g id="node4" class="node">
<title>Node4</title>
<g id="a_node4"><a xlink:href="classGame_1_1World_1_1RoadGenerator.html#a1d562d3e89d833e15f2b2ce3eba249ac" target="_top" xlink:title="Check if the road is going towards the edge">
<polygon fill="white" stroke="black" points="513,-0.5 513,-19.5 755,-19.5 755,-0.5 513,-0.5"/>
<text text-anchor="middle" x="634" y="-7.5" font-family="Helvetica,sans-Serif" font-size="10.00">Game.World.RoadGenerator.GoinTowardsEdge</text>
</a>
</g>
</g>
<!-- Node2&#45;&gt;Node4 -->
<g id="edge3" class="edge">
<title>Node2&#45;&gt;Node4</title>
<path fill="none" stroke="midnightblue" d="M477.03,-21.35C485.48,-20.74 494.08,-20.11 502.68,-19.49"/>
<polygon fill="midnightblue" stroke="midnightblue" points="503.04,-22.97 512.76,-18.75 502.53,-15.99 503.04,-22.97"/>
</g>
</g>
</svg>
