<?xml version="1.0" encoding="UTF-8" standalone="no"?>
<!DOCTYPE svg PUBLIC "-//W3C//DTD SVG 1.1//EN"
 "http://www.w3.org/Graphics/SVG/1.1/DTD/svg11.dtd">
<!-- Generated by graphviz version 2.43.0 (0)
 -->
<!-- Title: Game.World.CarSpawner Pages: 1 -->
<!--zoomable 1327 -->
<svg id="main" version="1.1" xmlns="http://www.w3.org/2000/svg" xmlns:xlink="http://www.w3.org/1999/xlink" xml:space="preserve" onload="init(evt)">
<style type="text/css"><![CDATA[
.edge:hover path { stroke: red; }
.edge:hover polygon { stroke: red; fill: red; }
]]></style>
<script type="text/javascript"><![CDATA[
var edges = document.getElementsByTagName('g');
if (edges && edges.length) {
  for (var i=0;i<edges.length;i++) {
    if (edges[i].id.substr(0,4)=='edge') {
      edges[i].setAttribute('class','edge');
    }
  }
}
]]></script>
        <defs>
                <circle id="rim" cx="0" cy="0" r="7"/>
                <circle id="rim2" cx="0" cy="0" r="3.5"/>
                <g id="zoomPlus">
                        <use xlink:href="#rim" fill="#404040">
                                <set attributeName="fill" to="#808080" begin="zoomplus.mouseover" end="zoomplus.mouseout"/>
                        </use>
                        <path d="M-4,0h8M0,-4v8" fill="none" stroke="white" stroke-width="1.5" pointer-events="none"/>
                </g>
                <g id="zoomMin">
                        <use xlink:href="#rim" fill="#404040">
                                <set attributeName="fill" to="#808080" begin="zoomminus.mouseover" end="zoomminus.mouseout"/>
                        </use>
                        <path d="M-4,0h8" fill="none" stroke="white" stroke-width="1.5" pointer-events="none"/>
                </g>
                <g id="dirArrow">
                        <path fill="none" stroke="white" stroke-width="1.5" d="M0,-3.0v7 M-2.5,-0.5L0,-3.0L2.5,-0.5"/>
                </g>
               <g id="resetDef">
                       <use xlink:href="#rim2" fill="#404040">
                               <set attributeName="fill" to="#808080" begin="reset.mouseover" end="reset.mouseout"/>
                       </use>
               </g>
        </defs>

<script type="text/javascript">
var viewWidth = 952;
var viewHeight = 1327;
var sectionId = 'dynsection-1';
</script>
<script xlink:href="svgpan.js"/>
<svg id="graph" class="graph">
<g id="viewport">
<title>Game.World.CarSpawner</title>
<polygon fill="white" stroke="transparent" points="-4,4 -4,-1323 948.07,-1323 948.07,4 -4,4"/>
<!-- Node1 -->
<g id="node1" class="node">
<title>Node1</title>
<g id="a_node1"><a xlink:title="Car spawner">
<polygon fill="#bfbfbf" stroke="black" points="21.57,-961.5 21.57,-1128.5 260.57,-1128.5 260.57,-961.5 21.57,-961.5"/>
<text text-anchor="middle" x="141.07" y="-1116.5" font-family="Helvetica,sans-Serif" font-size="10.00">Game.World.CarSpawner</text>
<polyline fill="none" stroke="black" points="21.57,-1109.5 260.57,-1109.5 "/>
<text text-anchor="start" x="29.57" y="-1097.5" font-family="Helvetica,sans-Serif" font-size="10.00">&#45; List&lt; GameObject &gt; CopCars</text>
<text text-anchor="start" x="29.57" y="-1086.5" font-family="Helvetica,sans-Serif" font-size="10.00">&#45; List&lt; GameObject &gt; CitizenCars</text>
<text text-anchor="start" x="29.57" y="-1075.5" font-family="Helvetica,sans-Serif" font-size="10.00">&#45; Dictionary&lt; int, float &gt; spawnIntervalsTier1</text>
<text text-anchor="start" x="29.57" y="-1064.5" font-family="Helvetica,sans-Serif" font-size="10.00">&#45; Dictionary&lt; int, float &gt; spawnIntervalsTier2</text>
<text text-anchor="start" x="29.57" y="-1053.5" font-family="Helvetica,sans-Serif" font-size="10.00">&#45; Dictionary&lt; int, float &gt; spawnIntervalsTier3</text>
<text text-anchor="start" x="29.57" y="-1042.5" font-family="Helvetica,sans-Serif" font-size="10.00">&#45; float tier1SpawnerTimer</text>
<text text-anchor="start" x="29.57" y="-1031.5" font-family="Helvetica,sans-Serif" font-size="10.00">&#45; float tier2SpawnerTimer</text>
<text text-anchor="start" x="29.57" y="-1020.5" font-family="Helvetica,sans-Serif" font-size="10.00">&#45; float tier3SpawnerTimer</text>
<polyline fill="none" stroke="black" points="21.57,-1013.5 260.57,-1013.5 "/>
<text text-anchor="start" x="29.57" y="-1001.5" font-family="Helvetica,sans-Serif" font-size="10.00">+ void Update()</text>
<text text-anchor="start" x="29.57" y="-990.5" font-family="Helvetica,sans-Serif" font-size="10.00">+ void SpawnPolice(GameObject carPrefab)</text>
<text text-anchor="start" x="29.57" y="-979.5" font-family="Helvetica,sans-Serif" font-size="10.00">+ void Reset()</text>
<text text-anchor="start" x="29.57" y="-968.5" font-family="Helvetica,sans-Serif" font-size="10.00">+ void SpawnNpc()</text>
</a>
</g>
</g>
<!-- Node4 -->
<g id="node4" class="node">
<title>Node4</title>
<g id="a_node4"><a xlink:href="classGame_1_1GameController.html" target="_top" xlink:title="Handles the main flow of the game scene">
<polygon fill="white" stroke="black" points="15.57,-523.5 15.57,-844.5 272.57,-844.5 272.57,-523.5 15.57,-523.5"/>
<text text-anchor="middle" x="144.07" y="-832.5" font-family="Helvetica,sans-Serif" font-size="10.00">Game.GameController</text>
<polyline fill="none" stroke="black" points="15.57,-825.5 272.57,-825.5 "/>
<text text-anchor="start" x="23.57" y="-813.5" font-family="Helvetica,sans-Serif" font-size="10.00">+ World.GameWorld World</text>
<text text-anchor="start" x="23.57" y="-802.5" font-family="Helvetica,sans-Serif" font-size="10.00">+ int Score</text>
<text text-anchor="start" x="23.57" y="-791.5" font-family="Helvetica,sans-Serif" font-size="10.00">+ PlayerCar? Player</text>
<text text-anchor="start" x="23.57" y="-780.5" font-family="Helvetica,sans-Serif" font-size="10.00">+ Vector3 PlayerPos</text>
<text text-anchor="start" x="23.57" y="-769.5" font-family="Helvetica,sans-Serif" font-size="10.00">+ bool Running</text>
<text text-anchor="start" x="23.57" y="-758.5" font-family="Helvetica,sans-Serif" font-size="10.00">+ int Difficulty</text>
<text text-anchor="start" x="23.57" y="-747.5" font-family="Helvetica,sans-Serif" font-size="10.00">+ float Coins</text>
<text text-anchor="start" x="23.57" y="-736.5" font-family="Helvetica,sans-Serif" font-size="10.00">&#45; int chunkLoadDistance</text>
<text text-anchor="start" x="23.57" y="-725.5" font-family="Helvetica,sans-Serif" font-size="10.00">&#45; Dictionary&lt; long, GameObject &gt; playerVariants</text>
<text text-anchor="start" x="23.57" y="-714.5" font-family="Helvetica,sans-Serif" font-size="10.00">&#45; float elapsedTime</text>
<polyline fill="none" stroke="black" points="15.57,-707.5 272.57,-707.5 "/>
<text text-anchor="start" x="23.57" y="-695.5" font-family="Helvetica,sans-Serif" font-size="10.00">+ void IncreaseCoinCount(float amount)</text>
<text text-anchor="start" x="23.57" y="-684.5" font-family="Helvetica,sans-Serif" font-size="10.00">+ async Task NewGame()</text>
<text text-anchor="start" x="23.57" y="-673.5" font-family="Helvetica,sans-Serif" font-size="10.00">+ async Task LoadAndDespawnChunks</text>
<text text-anchor="start" x="23.57" y="-662.5" font-family="Helvetica,sans-Serif" font-size="10.00">(int centerRow, int centerColumn)</text>
<text text-anchor="start" x="23.57" y="-651.5" font-family="Helvetica,sans-Serif" font-size="10.00">&#45; void Awake()</text>
<text text-anchor="start" x="23.57" y="-640.5" font-family="Helvetica,sans-Serif" font-size="10.00">&#45; void Start()</text>
<text text-anchor="start" x="23.57" y="-629.5" font-family="Helvetica,sans-Serif" font-size="10.00">&#45; void Update()</text>
<text text-anchor="start" x="23.57" y="-618.5" font-family="Helvetica,sans-Serif" font-size="10.00">&#45; void PlayerSkinsLoaded(GameObject</text>
<text text-anchor="start" x="23.57" y="-607.5" font-family="Helvetica,sans-Serif" font-size="10.00"> playerSkin)</text>
<text text-anchor="start" x="23.57" y="-596.5" font-family="Helvetica,sans-Serif" font-size="10.00">&#45; void PlayerDied(object? sender,</text>
<text text-anchor="start" x="23.57" y="-585.5" font-family="Helvetica,sans-Serif" font-size="10.00"> EventArgs args)</text>
<text text-anchor="start" x="23.57" y="-574.5" font-family="Helvetica,sans-Serif" font-size="10.00">&#45; void DespawnFarAwayChunks(int row, int col)</text>
<text text-anchor="start" x="23.57" y="-563.5" font-family="Helvetica,sans-Serif" font-size="10.00">&#45; async Task SpawnNearbyChunks(int</text>
<text text-anchor="start" x="23.57" y="-552.5" font-family="Helvetica,sans-Serif" font-size="10.00"> row, int col)</text>
<text text-anchor="start" x="23.57" y="-541.5" font-family="Helvetica,sans-Serif" font-size="10.00">&#45; async Task ValidateAndLoadChunk</text>
<text text-anchor="start" x="23.57" y="-530.5" font-family="Helvetica,sans-Serif" font-size="10.00">(int row, int col)</text>
</a>
</g>
</g>
<!-- Node1&#45;&gt;Node4 -->
<g id="edge19" class="edge">
<title>Node1&#45;&gt;Node4</title>
<path fill="none" stroke="#404040" d="M82.92,-961.46C80.22,-955.38 77.89,-949.2 76.07,-943 67.88,-915.17 67.78,-885.52 72.28,-856.6"/>
<polygon fill="none" stroke="#404040" points="72.29,-856.51 69.4,-849.9 74.39,-844.69 77.28,-851.3 72.29,-856.51"/>
<text text-anchor="middle" x="108.07" y="-900.5" font-family="Helvetica,sans-Serif" font-size="10.00"> &#45;carSpawner</text>
</g>
<!-- Node2 -->
<g id="node2" class="node">
<title>Node2</title>
<g id="a_node2"><a xlink:href="classUtility_1_1ThreadSafeMonoBehaviour.html" target="_top" xlink:title="Safely stores if the gameobject been destroyed in a bool">
<polygon fill="white" stroke="black" points="320.57,-1166.5 320.57,-1223.5 469.57,-1223.5 469.57,-1166.5 320.57,-1166.5"/>
<text text-anchor="middle" x="395.07" y="-1211.5" font-family="Helvetica,sans-Serif" font-size="10.00">ThreadSafeMonoBehaviour</text>
<polyline fill="none" stroke="black" points="320.57,-1204.5 469.57,-1204.5 "/>
<text text-anchor="start" x="328.57" y="-1192.5" font-family="Helvetica,sans-Serif" font-size="10.00">+ bool Destroyed</text>
<polyline fill="none" stroke="black" points="320.57,-1185.5 469.57,-1185.5 "/>
<text text-anchor="start" x="328.57" y="-1173.5" font-family="Helvetica,sans-Serif" font-size="10.00"># void OnDestroy()</text>
</a>
</g>
</g>
<!-- Node2&#45;&gt;Node1 -->
<g id="edge1" class="edge">
<title>Node2&#45;&gt;Node1</title>
<path fill="none" stroke="midnightblue" d="M310.9,-1165.26C298.62,-1160.06 286.33,-1154.27 275.07,-1148 264.59,-1142.17 254.04,-1135.58 243.7,-1128.64"/>
<polygon fill="none" stroke="midnightblue" points="309.69,-1168.54 320.27,-1169.11 312.35,-1162.07 309.69,-1168.54"/>
</g>
<!-- Node2&#45;&gt;Node4 -->
<g id="edge4" class="edge">
<title>Node2&#45;&gt;Node4</title>
<path fill="none" stroke="midnightblue" d="M337.62,-1160.16C326.42,-1151.27 315.78,-1140.81 308.07,-1129 266.15,-1064.83 291.32,-1034.35 269.07,-961 255.55,-916.45 250.63,-905.7 232.07,-863 229.45,-856.99 226.75,-850.9 223.97,-844.76"/>
<polygon fill="none" stroke="midnightblue" points="335.74,-1163.13 345.83,-1166.36 339.95,-1157.54 335.74,-1163.13"/>
</g>
<!-- Node5 -->
<g id="node5" class="node">
<title>Node5</title>
<g id="a_node5"><a xlink:href="classGame_1_1UI_1_1GameUI.html" target="_top" xlink:title="Controller for the game&#39;s UI">
<polygon fill="white" stroke="black" points="241.07,-0.5 241.07,-475.5 549.07,-475.5 549.07,-0.5 241.07,-0.5"/>
<text text-anchor="middle" x="395.07" y="-463.5" font-family="Helvetica,sans-Serif" font-size="10.00">Game.UI.GameUI</text>
<polyline fill="none" stroke="black" points="241.07,-456.5 549.07,-456.5 "/>
<text text-anchor="start" x="249.07" y="-444.5" font-family="Helvetica,sans-Serif" font-size="10.00">+ bool Doubled</text>
<text text-anchor="start" x="249.07" y="-433.5" font-family="Helvetica,sans-Serif" font-size="10.00">+ int SelectedSkinIndex</text>
<text text-anchor="start" x="249.07" y="-422.5" font-family="Helvetica,sans-Serif" font-size="10.00">&#45; GameObject gameOverContainer</text>
<text text-anchor="start" x="249.07" y="-411.5" font-family="Helvetica,sans-Serif" font-size="10.00">&#45; GameObject ingameContainer</text>
<text text-anchor="start" x="249.07" y="-400.5" font-family="Helvetica,sans-Serif" font-size="10.00">&#45; GameObject mainMenuContainer</text>
<text text-anchor="start" x="249.07" y="-389.5" font-family="Helvetica,sans-Serif" font-size="10.00">&#45; Image SkinDisplay</text>
<text text-anchor="start" x="249.07" y="-378.5" font-family="Helvetica,sans-Serif" font-size="10.00">&#45; TMP_Text InfamyGameOverText</text>
<text text-anchor="start" x="249.07" y="-367.5" font-family="Helvetica,sans-Serif" font-size="10.00">&#45; TMP_Text CoinGameOverText</text>
<text text-anchor="start" x="249.07" y="-356.5" font-family="Helvetica,sans-Serif" font-size="10.00">&#45; TMP_Text InfamyInGameText</text>
<text text-anchor="start" x="249.07" y="-345.5" font-family="Helvetica,sans-Serif" font-size="10.00">&#45; TMP_Text TaskScoreInGameText</text>
<text text-anchor="start" x="249.07" y="-334.5" font-family="Helvetica,sans-Serif" font-size="10.00">&#45; TMP_Text CoinInGameText</text>
<text text-anchor="start" x="249.07" y="-323.5" font-family="Helvetica,sans-Serif" font-size="10.00">&#45; Button DoubleCoinButon</text>
<polyline fill="none" stroke="black" points="241.07,-316.5 549.07,-316.5 "/>
<text text-anchor="start" x="249.07" y="-304.5" font-family="Helvetica,sans-Serif" font-size="10.00">+ void SaveGameResult()</text>
<text text-anchor="start" x="249.07" y="-293.5" font-family="Helvetica,sans-Serif" font-size="10.00">+ void DoubleCoins()</text>
<text text-anchor="start" x="249.07" y="-282.5" font-family="Helvetica,sans-Serif" font-size="10.00">+ void BuyImmunity()</text>
<text text-anchor="start" x="249.07" y="-271.5" font-family="Helvetica,sans-Serif" font-size="10.00">+ void BuyTurbo()</text>
<text text-anchor="start" x="249.07" y="-260.5" font-family="Helvetica,sans-Serif" font-size="10.00">+ void ShowLeaderboard()</text>
<text text-anchor="start" x="249.07" y="-249.5" font-family="Helvetica,sans-Serif" font-size="10.00">+ void LeftRotateSkin()</text>
<text text-anchor="start" x="249.07" y="-238.5" font-family="Helvetica,sans-Serif" font-size="10.00">+ void RightRotateSkin()</text>
<text text-anchor="start" x="249.07" y="-227.5" font-family="Helvetica,sans-Serif" font-size="10.00">+ void Init(GameController gameController)</text>
<text text-anchor="start" x="249.07" y="-216.5" font-family="Helvetica,sans-Serif" font-size="10.00">+ async void NewGame(bool save=true)</text>
<text text-anchor="start" x="249.07" y="-205.5" font-family="Helvetica,sans-Serif" font-size="10.00">+ void ChangeDifficulyDisplay(int</text>
<text text-anchor="start" x="249.07" y="-194.5" font-family="Helvetica,sans-Serif" font-size="10.00"> difficulty)</text>
<text text-anchor="start" x="249.07" y="-183.5" font-family="Helvetica,sans-Serif" font-size="10.00">+ void ShowEndGameScreen()</text>
<text text-anchor="start" x="249.07" y="-172.5" font-family="Helvetica,sans-Serif" font-size="10.00">+ void HideGameOverScreen(bool saveGameResults=true)</text>
<text text-anchor="start" x="249.07" y="-161.5" font-family="Helvetica,sans-Serif" font-size="10.00">+ void ShowShopWindow()</text>
<text text-anchor="start" x="249.07" y="-150.5" font-family="Helvetica,sans-Serif" font-size="10.00">+ void HideShopWindow()</text>
<text text-anchor="start" x="249.07" y="-139.5" font-family="Helvetica,sans-Serif" font-size="10.00">+ void BackToTasks()</text>
<text text-anchor="start" x="249.07" y="-128.5" font-family="Helvetica,sans-Serif" font-size="10.00">+ void BackToGameMenuWithoutSave()</text>
<text text-anchor="start" x="249.07" y="-117.5" font-family="Helvetica,sans-Serif" font-size="10.00">+ void BackToGameMenu()</text>
<text text-anchor="start" x="249.07" y="-106.5" font-family="Helvetica,sans-Serif" font-size="10.00">&#45; void Update()</text>
<text text-anchor="start" x="249.07" y="-95.5" font-family="Helvetica,sans-Serif" font-size="10.00">&#45; void SavedCoins(Thesis_backend.Data</text>
<text text-anchor="start" x="249.07" y="-84.5" font-family="Helvetica,sans-Serif" font-size="10.00">_Structures.Game game)</text>
<text text-anchor="start" x="249.07" y="-73.5" font-family="Helvetica,sans-Serif" font-size="10.00">&#45; void BoughtImmunity(Thesis_backend.Data</text>
<text text-anchor="start" x="249.07" y="-62.5" font-family="Helvetica,sans-Serif" font-size="10.00">_Structures.User user)</text>
<text text-anchor="start" x="249.07" y="-51.5" font-family="Helvetica,sans-Serif" font-size="10.00">&#45; void BoughtTurbo(Thesis_backend.Data</text>
<text text-anchor="start" x="249.07" y="-40.5" font-family="Helvetica,sans-Serif" font-size="10.00">_Structures.User user)</text>
<text text-anchor="start" x="249.07" y="-29.5" font-family="Helvetica,sans-Serif" font-size="10.00">&#45; void DoubledCoins(Thesis_backend.Data</text>
<text text-anchor="start" x="249.07" y="-18.5" font-family="Helvetica,sans-Serif" font-size="10.00">_Structures.User user)</text>
<text text-anchor="start" x="249.07" y="-7.5" font-family="Helvetica,sans-Serif" font-size="10.00">&#45; void ShowRequestFail(string content)</text>
</a>
</g>
</g>
<!-- Node2&#45;&gt;Node5 -->
<g id="edge6" class="edge">
<title>Node2&#45;&gt;Node5</title>
<path fill="none" stroke="midnightblue" d="M310.39,-1191.77C209.54,-1187.14 49.92,-1172.88 12.07,-1129 -4.98,-1109.24 -0.76,-536.44 6.07,-523 55.3,-426.09 154.85,-354.37 240.91,-307.24"/>
<polygon fill="none" stroke="midnightblue" points="310.42,-1195.27 320.57,-1192.21 310.73,-1188.28 310.42,-1195.27"/>
</g>
<!-- Node6 -->
<g id="node6" class="node">
<title>Node6</title>
<g id="a_node6"><a xlink:href="classGame_1_1UI_1_1ShopWindow.html" target="_top" xlink:title="Handles the shop window&#39;s content display">
<polygon fill="white" stroke="black" points="290.57,-595 290.57,-773 499.57,-773 499.57,-595 290.57,-595"/>
<text text-anchor="middle" x="395.07" y="-761" font-family="Helvetica,sans-Serif" font-size="10.00">Game.UI.ShopWindow</text>
<polyline fill="none" stroke="black" points="290.57,-754 499.57,-754 "/>
<text text-anchor="start" x="298.57" y="-742" font-family="Helvetica,sans-Serif" font-size="10.00">+ List&lt; Sprite &gt; ShopItemSprites</text>
<text text-anchor="start" x="298.57" y="-731" font-family="Helvetica,sans-Serif" font-size="10.00">&#45; GameObject ShopParent</text>
<text text-anchor="start" x="298.57" y="-720" font-family="Helvetica,sans-Serif" font-size="10.00">&#45; GameObject ShopItemPrefab</text>
<text text-anchor="start" x="298.57" y="-709" font-family="Helvetica,sans-Serif" font-size="10.00">&#45; TMP_Text CoinText</text>
<text text-anchor="start" x="298.57" y="-698" font-family="Helvetica,sans-Serif" font-size="10.00">&#45; List&lt; Shop &gt; shopItemsCache</text>
<polyline fill="none" stroke="black" points="290.57,-691 499.57,-691 "/>
<text text-anchor="start" x="298.57" y="-679" font-family="Helvetica,sans-Serif" font-size="10.00">+ void Show()</text>
<text text-anchor="start" x="298.57" y="-668" font-family="Helvetica,sans-Serif" font-size="10.00">+ void Hide()</text>
<text text-anchor="start" x="298.57" y="-657" font-family="Helvetica,sans-Serif" font-size="10.00">+ void ShowRequestFail(string content)</text>
<text text-anchor="start" x="298.57" y="-646" font-family="Helvetica,sans-Serif" font-size="10.00">+ void UpdateShop()</text>
<text text-anchor="start" x="298.57" y="-635" font-family="Helvetica,sans-Serif" font-size="10.00">+ string GetCoinText()</text>
<text text-anchor="start" x="298.57" y="-624" font-family="Helvetica,sans-Serif" font-size="10.00">+ GameObject GetShopParent()</text>
<text text-anchor="start" x="298.57" y="-613" font-family="Helvetica,sans-Serif" font-size="10.00">&#45; void LoadedShopItems(List&lt; Shop</text>
<text text-anchor="start" x="298.57" y="-602" font-family="Helvetica,sans-Serif" font-size="10.00"> &gt; shopItems)</text>
</a>
</g>
</g>
<!-- Node2&#45;&gt;Node6 -->
<g id="edge8" class="edge">
<title>Node2&#45;&gt;Node6</title>
<path fill="none" stroke="midnightblue" d="M395.07,-1156.11C395.07,-1075.63 395.07,-885.82 395.07,-773.23"/>
<polygon fill="none" stroke="midnightblue" points="391.57,-1156.27 395.07,-1166.27 398.57,-1156.27 391.57,-1156.27"/>
</g>
<!-- Node7 -->
<g id="node7" class="node">
<title>Node7</title>
<g id="a_node7"><a xlink:href="classUtility_1_1ModalWindow.html" target="_top" xlink:title="Modal window for alerting the user">
<polygon fill="white" stroke="black" points="427.57,-983.5 427.57,-1106.5 636.57,-1106.5 636.57,-983.5 427.57,-983.5"/>
<text text-anchor="middle" x="532.07" y="-1094.5" font-family="Helvetica,sans-Serif" font-size="10.00">Utility.ModalWindow</text>
<polyline fill="none" stroke="black" points="427.57,-1087.5 636.57,-1087.5 "/>
<text text-anchor="start" x="435.57" y="-1075.5" font-family="Helvetica,sans-Serif" font-size="10.00">&#45; TMP_Text ModalTitleText</text>
<text text-anchor="start" x="435.57" y="-1064.5" font-family="Helvetica,sans-Serif" font-size="10.00">&#45; TMP_Text ModalContentText</text>
<text text-anchor="start" x="435.57" y="-1053.5" font-family="Helvetica,sans-Serif" font-size="10.00">&#45; Action onOkAction</text>
<polyline fill="none" stroke="black" points="427.57,-1046.5 636.57,-1046.5 "/>
<text text-anchor="start" x="435.57" y="-1034.5" font-family="Helvetica,sans-Serif" font-size="10.00">+ void Show()</text>
<text text-anchor="start" x="435.57" y="-1023.5" font-family="Helvetica,sans-Serif" font-size="10.00">+ void Show(string title, string content,</text>
<text text-anchor="start" x="435.57" y="-1012.5" font-family="Helvetica,sans-Serif" font-size="10.00"> Action onOkAction=null)</text>
<text text-anchor="start" x="435.57" y="-1001.5" font-family="Helvetica,sans-Serif" font-size="10.00">+ void Hide()</text>
<text text-anchor="start" x="435.57" y="-990.5" font-family="Helvetica,sans-Serif" font-size="10.00">+ void ConfirmButtonClick()</text>
</a>
</g>
</g>
<!-- Node2&#45;&gt;Node7 -->
<g id="edge10" class="edge">
<title>Node2&#45;&gt;Node7</title>
<path fill="none" stroke="midnightblue" d="M427.68,-1158.77C442.15,-1143.13 459.6,-1124.29 476.05,-1106.52"/>
<polygon fill="none" stroke="midnightblue" points="425.06,-1156.45 420.83,-1166.16 430.2,-1161.2 425.06,-1156.45"/>
</g>
<!-- Node8 -->
<g id="node8" class="node">
<title>Node8</title>
<g id="a_node8"><a xlink:href="classGame_1_1UI_1_1LeaderboardWindow.html" target="_top" xlink:title="Handles the leaderboard display window">
<polygon fill="white" stroke="black" points="630.57,-617 630.57,-751 835.57,-751 835.57,-617 630.57,-617"/>
<text text-anchor="middle" x="733.07" y="-739" font-family="Helvetica,sans-Serif" font-size="10.00">Game.UI.LeaderboardWindow</text>
<polyline fill="none" stroke="black" points="630.57,-732 835.57,-732 "/>
<text text-anchor="start" x="638.57" y="-720" font-family="Helvetica,sans-Serif" font-size="10.00">&#45; GameObject scoreParent</text>
<text text-anchor="start" x="638.57" y="-709" font-family="Helvetica,sans-Serif" font-size="10.00">&#45; TMP_Dropdown filterTypeDropdown</text>
<text text-anchor="start" x="638.57" y="-698" font-family="Helvetica,sans-Serif" font-size="10.00">&#45; GameObject LeaderboardItemPrefab</text>
<polyline fill="none" stroke="black" points="630.57,-691 835.57,-691 "/>
<text text-anchor="start" x="638.57" y="-679" font-family="Helvetica,sans-Serif" font-size="10.00">+ void Show()</text>
<text text-anchor="start" x="638.57" y="-668" font-family="Helvetica,sans-Serif" font-size="10.00">+ void Hide()</text>
<text text-anchor="start" x="638.57" y="-657" font-family="Helvetica,sans-Serif" font-size="10.00">+ void LoadScores()</text>
<text text-anchor="start" x="638.57" y="-646" font-family="Helvetica,sans-Serif" font-size="10.00">&#45; void ShowRequestFail(string content)</text>
<text text-anchor="start" x="638.57" y="-635" font-family="Helvetica,sans-Serif" font-size="10.00">&#45; void LoadedScores(List&lt; GameScore</text>
<text text-anchor="start" x="638.57" y="-624" font-family="Helvetica,sans-Serif" font-size="10.00"> &gt; gameScores)</text>
</a>
</g>
</g>
<!-- Node2&#45;&gt;Node8 -->
<g id="edge12" class="edge">
<title>Node2&#45;&gt;Node8</title>
<path fill="none" stroke="midnightblue" d="M479.62,-1181.83C543.2,-1170.96 623.13,-1153.03 646.07,-1129 697.04,-1075.58 720.07,-861.17 728.7,-751.03"/>
<polygon fill="none" stroke="midnightblue" points="478.86,-1178.41 469.57,-1183.52 480.01,-1185.32 478.86,-1178.41"/>
</g>
<!-- Node9 -->
<g id="node9" class="node">
<title>Node9</title>
<g id="a_node9"><a xlink:href="classGame_1_1UI_1_1StarHandler.html" target="_top" xlink:title="Star handler">
<polygon fill="white" stroke="black" points="743.57,-863.5 743.57,-942.5 942.57,-942.5 942.57,-863.5 743.57,-863.5"/>
<text text-anchor="middle" x="843.07" y="-930.5" font-family="Helvetica,sans-Serif" font-size="10.00">Game.UI.StarHandler</text>
<polyline fill="none" stroke="black" points="743.57,-923.5 942.57,-923.5 "/>
<text text-anchor="start" x="751.57" y="-911.5" font-family="Helvetica,sans-Serif" font-size="10.00">&#45; List&lt; Image &gt; Stars</text>
<text text-anchor="start" x="751.57" y="-900.5" font-family="Helvetica,sans-Serif" font-size="10.00">&#45; Sprite fullStarSprite</text>
<text text-anchor="start" x="751.57" y="-889.5" font-family="Helvetica,sans-Serif" font-size="10.00">&#45; Sprite emptyStarSprite</text>
<polyline fill="none" stroke="black" points="743.57,-882.5 942.57,-882.5 "/>
<text text-anchor="start" x="751.57" y="-870.5" font-family="Helvetica,sans-Serif" font-size="10.00">+ void ChangeDifficulty(int difficulty)</text>
</a>
</g>
</g>
<!-- Node2&#45;&gt;Node9 -->
<g id="edge15" class="edge">
<title>Node2&#45;&gt;Node9</title>
<path fill="none" stroke="midnightblue" d="M480.05,-1190.28C561.24,-1185.23 676.52,-1173.68 713.07,-1148 783.76,-1098.33 819.31,-997.88 834.19,-942.61"/>
<polygon fill="none" stroke="midnightblue" points="479.6,-1186.8 469.83,-1190.9 480.02,-1193.79 479.6,-1186.8"/>
</g>
<!-- Node3 -->
<g id="node3" class="node">
<title>Node3</title>
<g id="a_node3"><a xlink:title=" ">
<polygon fill="white" stroke="#bfbfbf" points="348.57,-1261.5 348.57,-1318.5 441.57,-1318.5 441.57,-1261.5 348.57,-1261.5"/>
<text text-anchor="middle" x="395.07" y="-1306.5" font-family="Helvetica,sans-Serif" font-size="10.00">MonoBehaviour</text>
<polyline fill="none" stroke="#bfbfbf" points="348.57,-1299.5 441.57,-1299.5 "/>
<text text-anchor="middle" x="395.07" y="-1287.5" font-family="Helvetica,sans-Serif" font-size="10.00"> </text>
<polyline fill="none" stroke="#bfbfbf" points="348.57,-1280.5 441.57,-1280.5 "/>
<text text-anchor="middle" x="395.07" y="-1268.5" font-family="Helvetica,sans-Serif" font-size="10.00"> </text>
</a>
</g>
</g>
<!-- Node3&#45;&gt;Node2 -->
<g id="edge2" class="edge">
<title>Node3&#45;&gt;Node2</title>
<path fill="none" stroke="midnightblue" d="M395.07,-1251.24C395.07,-1242.03 395.07,-1232.35 395.07,-1223.71"/>
<polygon fill="none" stroke="midnightblue" points="391.57,-1251.35 395.07,-1261.35 398.57,-1251.35 391.57,-1251.35"/>
</g>
<!-- Node4&#45;&gt;Node1 -->
<g id="edge3" class="edge">
<title>Node4&#45;&gt;Node1</title>
<path fill="none" stroke="#404040" d="M144.81,-844.65C144.75,-877.2 144.54,-911.2 144.07,-943 144.04,-945.05 144,-947.12 143.96,-949.21"/>
<polygon fill="none" stroke="#404040" points="143.96,-949.33 147.84,-955.41 143.72,-961.33 139.84,-955.25 143.96,-949.33"/>
<text text-anchor="middle" x="186.57" y="-900.5" font-family="Helvetica,sans-Serif" font-size="10.00"> &#45;gameController</text>
</g>
<!-- Node4&#45;&gt;Node5 -->
<g id="edge17" class="edge">
<title>Node4&#45;&gt;Node5</title>
<path fill="none" stroke="#404040" d="M152.65,-523.28C155.47,-513.19 158.9,-503.34 163.07,-494 180.21,-455.52 205.47,-418.93 233.08,-386.09"/>
<polygon fill="none" stroke="#404040" points="233.11,-386.04 233.98,-378.88 240.92,-376.93 240.06,-384.09 233.11,-386.04"/>
<text text-anchor="middle" x="204.57" y="-497" font-family="Helvetica,sans-Serif" font-size="10.00"> &#45;gameController</text>
</g>
<!-- Node5&#45;&gt;Node4 -->
<g id="edge5" class="edge">
<title>Node5&#45;&gt;Node4</title>
<path fill="none" stroke="#404040" d="M266.66,-475.67C261.08,-485.59 255.54,-495.4 250.07,-505 248.64,-507.5 247.2,-510.03 245.74,-512.56"/>
<polygon fill="none" stroke="#404040" points="245.69,-512.66 246.16,-519.86 239.7,-523.06 239.23,-515.87 245.69,-512.66"/>
<text text-anchor="middle" x="277.07" y="-497" font-family="Helvetica,sans-Serif" font-size="10.00"> &#45;gameUI</text>
</g>
<!-- Node6&#45;&gt;Node5 -->
<g id="edge7" class="edge">
<title>Node6&#45;&gt;Node5</title>
<path fill="none" stroke="#404040" d="M395.07,-594.75C395.07,-563.37 395.07,-526.31 395.07,-488.16"/>
<polygon fill="none" stroke="#404040" points="395.07,-487.75 391.07,-481.75 395.07,-475.75 399.07,-481.75 395.07,-487.75"/>
<text text-anchor="middle" x="430.07" y="-497" font-family="Helvetica,sans-Serif" font-size="10.00"> &#45;ShopWindow</text>
</g>
<!-- Node7&#45;&gt;Node5 -->
<g id="edge16" class="edge">
<title>Node7&#45;&gt;Node5</title>
<path fill="none" stroke="#404040" d="M535.93,-983.39C540.72,-885.36 544.41,-686.49 509.07,-523 506.54,-511.32 503.58,-499.49 500.27,-487.64"/>
<polygon fill="none" stroke="#404040" points="500.18,-487.32 494.68,-482.66 496.86,-475.79 502.37,-480.45 500.18,-487.32"/>
<text text-anchor="middle" x="576.07" y="-681.5" font-family="Helvetica,sans-Serif" font-size="10.00"> &#45;ModalWindow</text>
</g>
<!-- Node7&#45;&gt;Node6 -->
<g id="edge9" class="edge">
<title>Node7&#45;&gt;Node6</title>
<path fill="none" stroke="#404040" d="M472.07,-983.41C462.14,-970.84 452.88,-957.1 446.07,-943 422.34,-893.92 409.65,-834.49 402.87,-785.05"/>
<polygon fill="none" stroke="#404040" points="402.85,-784.94 398.11,-779.5 401.3,-773.04 406.04,-778.47 402.85,-784.94"/>
<text text-anchor="middle" x="484.07" y="-900.5" font-family="Helvetica,sans-Serif" font-size="10.00"> &#45;ModalWindow</text>
</g>
<!-- Node7&#45;&gt;Node8 -->
<g id="edge13" class="edge">
<title>Node7&#45;&gt;Node8</title>
<path fill="none" stroke="#404040" d="M554.21,-983.44C568.2,-947.56 587.66,-901.7 609.07,-863 628.31,-828.21 652.78,-791.84 674.88,-761.11"/>
<polygon fill="none" stroke="#404040" points="674.92,-761.06 675.2,-753.85 681.96,-751.34 681.68,-758.55 674.92,-761.06"/>
<text text-anchor="middle" x="647.07" y="-900.5" font-family="Helvetica,sans-Serif" font-size="10.00"> &#45;ModalWindow</text>
</g>
<!-- Node8&#45;&gt;Node5 -->
<g id="edge11" class="edge">
<title>Node8&#45;&gt;Node5</title>
<path fill="none" stroke="#404040" d="M685.41,-616.89C664.35,-587.93 639.17,-553.63 616.07,-523 596.96,-497.68 576.75,-471.24 556.61,-445.11"/>
<polygon fill="none" stroke="#404040" points="556.53,-445 549.69,-442.69 549.2,-435.5 556.03,-437.8 556.53,-445"/>
<text text-anchor="middle" x="650.57" y="-497" font-family="Helvetica,sans-Serif" font-size="10.00"> &#45;leaderboardWindow</text>
</g>
<!-- Node9&#45;&gt;Node5 -->
<g id="edge14" class="edge">
<title>Node9&#45;&gt;Node5</title>
<path fill="none" stroke="#404040" d="M854.89,-863.24C874.52,-791.09 905.99,-633.49 845.07,-523 784.65,-413.43 662.2,-340.3 560.27,-295.73"/>
<polygon fill="none" stroke="#404040" points="560.24,-295.72 553.15,-297.02 549.22,-290.97 556.31,-289.67 560.24,-295.72"/>
<text text-anchor="middle" x="912.07" y="-681.5" font-family="Helvetica,sans-Serif" font-size="10.00"> &#45;starHandler</text>
</g>
<!-- Node10 -->
<g id="node10" class="node">
<title>Node10</title>
<g id="a_node10"><a xlink:title=" ">
<polygon fill="white" stroke="#bfbfbf" points="317.07,-1016.5 317.07,-1073.5 361.07,-1073.5 361.07,-1016.5 317.07,-1016.5"/>
<text text-anchor="middle" x="339.07" y="-1061.5" font-family="Helvetica,sans-Serif" font-size="10.00">World</text>
<polyline fill="none" stroke="#bfbfbf" points="317.07,-1054.5 361.07,-1054.5 "/>
<text text-anchor="middle" x="339.07" y="-1042.5" font-family="Helvetica,sans-Serif" font-size="10.00"> </text>
<polyline fill="none" stroke="#bfbfbf" points="317.07,-1035.5 361.07,-1035.5 "/>
<text text-anchor="middle" x="339.07" y="-1023.5" font-family="Helvetica,sans-Serif" font-size="10.00"> </text>
</a>
</g>
</g>
<!-- Node10&#45;&gt;Node4 -->
<g id="edge18" class="edge">
<title>Node10&#45;&gt;Node4</title>
<path fill="none" stroke="#404040" d="M339.06,-1016.28C337.88,-978.97 331.54,-911.67 303.07,-863 296.86,-852.39 290.77,-853.68 282.07,-845 281.77,-844.71 281.48,-844.42 281.19,-844.12"/>
<polygon fill="none" stroke="#404040" points="281.12,-844.05 274.06,-842.59 272.69,-835.51 279.75,-836.97 281.12,-844.05"/>
<text text-anchor="middle" x="348.07" y="-900.5" font-family="Helvetica,sans-Serif" font-size="10.00"> &#45;world</text>
</g>
</g>
</svg>
        <g id="navigator" transform="translate(0 0)" fill="#404254">
                <rect fill="#f2f5e9" fill-opacity="0.5" stroke="#606060" stroke-width=".5" x="0" y="0" width="60" height="60"/>
                <use id="zoomplus" xlink:href="#zoomPlus" x="17" y="9" onmousedown="handleZoom(evt,'in')"/>
                <use id="zoomminus" xlink:href="#zoomMin" x="42" y="9" onmousedown="handleZoom(evt,'out')"/>
                <use id="reset" xlink:href="#resetDef" x="30" y="36" onmousedown="handleReset()"/>
                <g id="arrowUp" xlink:href="#dirArrow" transform="translate(30 24)" onmousedown="handlePan(0,-1)">
                  <use xlink:href="#rim" fill="#404040">
                        <set attributeName="fill" to="#808080" begin="arrowUp.mouseover" end="arrowUp.mouseout"/>
                  </use>
                  <path fill="none" stroke="white" stroke-width="1.5" d="M0,-3.0v7 M-2.5,-0.5L0,-3.0L2.5,-0.5"/>
                </g>
                <g id="arrowRight" xlink:href="#dirArrow" transform="rotate(90) translate(36 -43)" onmousedown="handlePan(1,0)">
                  <use xlink:href="#rim" fill="#404040">
                        <set attributeName="fill" to="#808080" begin="arrowRight.mouseover" end="arrowRight.mouseout"/>
                  </use>
                  <path fill="none" stroke="white" stroke-width="1.5" d="M0,-3.0v7 M-2.5,-0.5L0,-3.0L2.5,-0.5"/>
                </g>
                <g id="arrowDown" xlink:href="#dirArrow" transform="rotate(180) translate(-30 -48)" onmousedown="handlePan(0,1)">
                  <use xlink:href="#rim" fill="#404040">
                        <set attributeName="fill" to="#808080" begin="arrowDown.mouseover" end="arrowDown.mouseout"/>
                  </use>
                  <path fill="none" stroke="white" stroke-width="1.5" d="M0,-3.0v7 M-2.5,-0.5L0,-3.0L2.5,-0.5"/>
                </g>
                <g id="arrowLeft" xlink:href="#dirArrow" transform="rotate(270) translate(-36 17)" onmousedown="handlePan(-1,0)">
                  <use xlink:href="#rim" fill="#404040">
                        <set attributeName="fill" to="#808080" begin="arrowLeft.mouseover" end="arrowLeft.mouseout"/>
                  </use>
                  <path fill="none" stroke="white" stroke-width="1.5" d="M0,-3.0v7 M-2.5,-0.5L0,-3.0L2.5,-0.5"/>
                </g>
        </g>
        <svg viewBox="0 0 15 15" width="100%" height="30px" preserveAspectRatio="xMaxYMin meet">
         <g id="arrow_out" transform="scale(0.3 0.3)">
          <a xlink:href="classGame_1_1World_1_1CarSpawner__coll__graph_org.svg" target="_base">
           <rect id="button" ry="5" rx="5" y="6" x="6" height="38" width="38"
                fill="#f2f5e9" fill-opacity="0.5" stroke="#606060" stroke-width="1.0"/>
           <path id="arrow"
             d="M 11.500037,31.436501 C 11.940474,20.09759 22.043105,11.32322 32.158766,21.979434 L 37.068811,17.246167 C 37.068811,17.246167 37.088388,32 37.088388,32 L 22.160133,31.978069 C 22.160133,31.978069 26.997745,27.140456 26.997745,27.140456 C 18.528582,18.264221 13.291696,25.230495 11.500037,31.436501 z"
             style="fill:#404040;"/>
          </a>
         </g>
        </svg>
</svg>
