<?xml version="1.0" encoding="UTF-8" standalone="no"?>
<!DOCTYPE svg PUBLIC "-//W3C//DTD SVG 1.1//EN"
 "http://www.w3.org/Graphics/SVG/1.1/DTD/svg11.dtd">
<!-- Generated by graphviz version 2.43.0 (0)
 -->
<!-- Title: User.UserController Pages: 1 -->
<!--zoomable 591 -->

<svg id="main" version="1.1" xmlns="http://www.w3.org/2000/svg" xmlns:xlink="http://www.w3.org/1999/xlink" xml:space="preserve" onload="init(evt)">
<style type="text/css"><![CDATA[
.node, .edge {opacity: 0.7;}
.node.selected, .edge.selected {opacity: 1;}
.edge:hover path { stroke: red; }
.edge:hover polygon { stroke: red; fill: red; }
]]></style>

<defs>
  <circle id="rim" cx="0" cy="0" r="7"/>
  <circle id="rim2" cx="0" cy="0" r="3.5"/>
  <g id="zoomPlus">
    <use xlink:href="#rim" fill="#404040"><set attributeName="fill" to="#808080" begin="zoomplus.mouseover" end="zoomplus.mouseout"/></use>
    <path d="M-4,0h8M0,-4v8" fill="none" stroke="white" stroke-width="1.5" pointer-events="none"/>
  </g>
  <g id="zoomMin">
    <use xlink:href="#rim" fill="#404040"><set attributeName="fill" to="#808080" begin="zoomminus.mouseover" end="zoomminus.mouseout"/></use>
    <path d="M-4,0h8" fill="none" stroke="white" stroke-width="1.5" pointer-events="none"/>
  </g>
  <g id="arrowUp" transform="translate(30 24)">
    <use xlink:href="#rim"/>
    <path pointer-events="none" fill="none" stroke="white" stroke-width="1.5" d="M0,-3.0v7 M-2.5,-0.5L0,-3.0L2.5,-0.5"/>
  </g>
  <g id="arrowRight" transform="rotate(90) translate(36 -43)">
    <use xlink:href="#rim"/>
    <path pointer-events="none" fill="none" stroke="white" stroke-width="1.5" d="M0,-3.0v7 M-2.5,-0.5L0,-3.0L2.5,-0.5"/>
  </g>
  <g id="arrowDown" transform="rotate(180) translate(-30 -48)">
    <use xlink:href="#rim"/>
    <path pointer-events="none" fill="none" stroke="white" stroke-width="1.5" d="M0,-3.0v7 M-2.5,-0.5L0,-3.0L2.5,-0.5"/>
  </g>
  <g id="arrowLeft" transform="rotate(270) translate(-36 17)">
    <use xlink:href="#rim"/>
    <path pointer-events="none" fill="none" stroke="white" stroke-width="1.5" d="M0,-3.0v7 M-2.5,-0.5L0,-3.0L2.5,-0.5"/>
  </g>
  <g id="resetDef">
    <use xlink:href="#rim2" fill="#404040"><set attributeName="fill" to="#808080" begin="reset.mouseover" end="reset.mouseout"/></use>
  </g>
</defs>
<script type="application/ecmascript">
var viewWidth = 435;
var viewHeight = 591;
var sectionId = 'dynsection-1';
</script>
<script type="application/ecmascript" xlink:href="svg.min.js"/>
<svg id="graph" class="graph">
<g id="viewport">
<title>User.UserController</title>
<!-- Node1 -->
<g id="Node000001" class="node">
<title>Node1</title>
<g id="a_Node000001"><a xlink:title="Handles the user actions such as registering and login.">
<polygon fill="#999999" stroke="transparent" points="357,-229 0,-229 0,0 357,0 357,-229"/>
<text text-anchor="start" x="131" y="-216.5" font-family="Helvetica,sans-Serif" font-size="10.00">User.UserController</text>
<text text-anchor="start" x="4.5" y="-201.5" font-family="Helvetica,sans-Serif" font-size="10.00">+</text>
<text text-anchor="start" x="17.5" y="-201.5" font-family="Helvetica,sans-Serif" font-size="10.00">GameObject LoginPanel</text>
<text text-anchor="start" x="7" y="-186.5" font-family="Helvetica,sans-Serif" font-size="10.00">&#45;</text>
<text text-anchor="start" x="17.5" y="-186.5" font-family="Helvetica,sans-Serif" font-size="10.00">GameObject registerPanel</text>
<text text-anchor="start" x="4.5" y="-171.5" font-family="Helvetica,sans-Serif" font-size="10.00">+</text>
<text text-anchor="start" x="17.5" y="-171.5" font-family="Helvetica,sans-Serif" font-size="10.00">void SendLogin()</text>
<text text-anchor="start" x="4.5" y="-156.5" font-family="Helvetica,sans-Serif" font-size="10.00">+</text>
<text text-anchor="start" x="17.5" y="-156.5" font-family="Helvetica,sans-Serif" font-size="10.00">void SendRegister()</text>
<text text-anchor="start" x="4.5" y="-141.5" font-family="Helvetica,sans-Serif" font-size="10.00">+</text>
<text text-anchor="start" x="17.5" y="-141.5" font-family="Helvetica,sans-Serif" font-size="10.00">bool IsValidEmail(string emailaddress)</text>
<text text-anchor="start" x="4.5" y="-126.5" font-family="Helvetica,sans-Serif" font-size="10.00">+</text>
<text text-anchor="start" x="17.5" y="-126.5" font-family="Helvetica,sans-Serif" font-size="10.00">void MoveToRegisterWindow()</text>
<text text-anchor="start" x="4.5" y="-111.5" font-family="Helvetica,sans-Serif" font-size="10.00">+</text>
<text text-anchor="start" x="17.5" y="-111.5" font-family="Helvetica,sans-Serif" font-size="10.00">void MoveToLoginWindow()</text>
<text text-anchor="start" x="7" y="-96.5" font-family="Helvetica,sans-Serif" font-size="10.00">&#45;</text>
<text text-anchor="start" x="17.5" y="-96.5" font-family="Helvetica,sans-Serif" font-size="10.00">void Start()</text>
<text text-anchor="start" x="7" y="-81.5" font-family="Helvetica,sans-Serif" font-size="10.00">&#45;</text>
<text text-anchor="start" x="17.5" y="-81.5" font-family="Helvetica,sans-Serif" font-size="10.00">void CheckLoggedIn()</text>
<text text-anchor="start" x="7" y="-66.5" font-family="Helvetica,sans-Serif" font-size="10.00">&#45;</text>
<text text-anchor="start" x="17.5" y="-66.5" font-family="Helvetica,sans-Serif" font-size="10.00">void LoggedIn(Thesis_backend.Data_Structures.User result)</text>
<text text-anchor="start" x="7" y="-51.5" font-family="Helvetica,sans-Serif" font-size="10.00">&#45;</text>
<text text-anchor="start" x="17.5" y="-51.5" font-family="Helvetica,sans-Serif" font-size="10.00">void ShowRegisterError(string content)</text>
<text text-anchor="start" x="7" y="-36.5" font-family="Helvetica,sans-Serif" font-size="10.00">&#45;</text>
<text text-anchor="start" x="17.5" y="-36.5" font-family="Helvetica,sans-Serif" font-size="10.00">void ShowLoginError(string content)</text>
<text text-anchor="start" x="7" y="-21.5" font-family="Helvetica,sans-Serif" font-size="10.00">&#45;</text>
<text text-anchor="start" x="17.5" y="-21.5" font-family="Helvetica,sans-Serif" font-size="10.00">void Registered(Thesis_backend.Data_Structures.User loggedInUser)</text>
<text text-anchor="start" x="7" y="-6.5" font-family="Helvetica,sans-Serif" font-size="10.00">&#45;</text>
<text text-anchor="start" x="17.5" y="-6.5" font-family="Helvetica,sans-Serif" font-size="10.00">IEnumerator MoveToMainScence()</text>
<polygon fill="#666666" stroke="#666666" points="0.5,-211.5 0.5,-211.5 357.5,-211.5 357.5,-211.5 0.5,-211.5"/>
<polygon fill="#666666" stroke="#666666" points="0.5,-181.5 0.5,-181.5 15.5,-181.5 15.5,-181.5 0.5,-181.5"/>
<polygon fill="#666666" stroke="#666666" points="15.5,-181.5 15.5,-181.5 357.5,-181.5 357.5,-181.5 15.5,-181.5"/>
<polygon fill="none" stroke="#666666" points="0,0 0,-229 357,-229 357,0 0,0"/>
</a>
</g>
</g>
<!-- Node2 -->
<g id="Node000002" class="node">
<title>Node2</title>
<g id="a_Node000002"><a xlink:href="classUtility_1_1ThreadSafeMonoBehaviour.html" target="_top" xlink:title="Safely stores if the gameobject been destroyed in a bool.">
<polygon fill="white" stroke="transparent" points="246,-497 103,-497 103,-448 246,-448 246,-497"/>
<text text-anchor="start" x="108.5" y="-484.5" font-family="Helvetica,sans-Serif" font-size="10.00">ThreadSafeMonoBehaviour</text>
<text text-anchor="start" x="117" y="-469.5" font-family="Helvetica,sans-Serif" font-size="10.00">+</text>
<text text-anchor="start" x="139.5" y="-469.5" font-family="Helvetica,sans-Serif" font-size="10.00">bool Destroyed</text>
<text text-anchor="start" x="117" y="-454.5" font-family="Helvetica,sans-Serif" font-size="10.00">#</text>
<text text-anchor="start" x="139.5" y="-454.5" font-family="Helvetica,sans-Serif" font-size="10.00">void OnDestroy()</text>
<polygon fill="#666666" stroke="#666666" points="103.5,-479.5 103.5,-479.5 246.5,-479.5 246.5,-479.5 103.5,-479.5"/>
<polygon fill="#666666" stroke="#666666" points="103.5,-464.5 103.5,-464.5 137.5,-464.5 137.5,-464.5 103.5,-464.5"/>
<polygon fill="#666666" stroke="#666666" points="137.5,-464.5 137.5,-464.5 246.5,-464.5 246.5,-464.5 137.5,-464.5"/>
<polygon fill="none" stroke="#666666" points="103,-448 103,-497 246,-497 246,-448 103,-448"/>
</a>
</g>
</g>
<!-- Node2&#45;&gt;Node1 -->
<g id="edge1_Node000001_Node000002" class="edge">
<title>Node2&#45;&gt;Node1</title>
<g id="a_edge1_Node000001_Node000002"><a xlink:title=" ">
<path fill="none" stroke="#63b8ff" d="M174.88,-437.84C175.41,-390.38 176.41,-301.53 177.22,-229.11"/>
<polygon fill="none" stroke="#63b8ff" points="171.38,-437.83 174.77,-447.87 178.38,-437.91 171.38,-437.83"/>
</a>
</g>
</g>
<!-- Node4 -->
<g id="Node000004" class="node">
<title>Node4</title>
<g id="a_Node000004"><a xlink:href="classUtility_1_1ModalWindow.html" target="_top" xlink:title="Modal window for alerting the user.">
<polygon fill="white" stroke="transparent" points="426.5,-411 190.5,-411 190.5,-276 426.5,-276 426.5,-411"/>
<text text-anchor="start" x="258" y="-398.5" font-family="Helvetica,sans-Serif" font-size="10.00">Utility.ModalWindow</text>
<text text-anchor="start" x="197" y="-383.5" font-family="Helvetica,sans-Serif" font-size="10.00">&#45;</text>
<text text-anchor="start" x="207.5" y="-383.5" font-family="Helvetica,sans-Serif" font-size="10.00">TMP_Text ModalTitleText</text>
<text text-anchor="start" x="197" y="-368.5" font-family="Helvetica,sans-Serif" font-size="10.00">&#45;</text>
<text text-anchor="start" x="207.5" y="-368.5" font-family="Helvetica,sans-Serif" font-size="10.00">TMP_Text ModalContentText</text>
<text text-anchor="start" x="197" y="-353.5" font-family="Helvetica,sans-Serif" font-size="10.00">&#45;</text>
<text text-anchor="start" x="207.5" y="-353.5" font-family="Helvetica,sans-Serif" font-size="10.00">Action onOkAction</text>
<text text-anchor="start" x="194.5" y="-338.5" font-family="Helvetica,sans-Serif" font-size="10.00">+</text>
<text text-anchor="start" x="207.5" y="-338.5" font-family="Helvetica,sans-Serif" font-size="10.00">void Show()</text>
<text text-anchor="start" x="194.5" y="-323.5" font-family="Helvetica,sans-Serif" font-size="10.00">+</text>
<text text-anchor="start" x="207.5" y="-323.5" font-family="Helvetica,sans-Serif" font-size="10.00">void Show(string title, string content, Action</text>
<text text-anchor="start" x="207.5" y="-312.5" font-family="Helvetica,sans-Serif" font-size="10.00"> onOkAction=null)</text>
<text text-anchor="start" x="194.5" y="-297.5" font-family="Helvetica,sans-Serif" font-size="10.00">+</text>
<text text-anchor="start" x="207.5" y="-297.5" font-family="Helvetica,sans-Serif" font-size="10.00">void Hide()</text>
<text text-anchor="start" x="194.5" y="-282.5" font-family="Helvetica,sans-Serif" font-size="10.00">+</text>
<text text-anchor="start" x="207.5" y="-282.5" font-family="Helvetica,sans-Serif" font-size="10.00">void ConfirmButtonClick()</text>
<polygon fill="#666666" stroke="#666666" points="190.5,-393.5 190.5,-393.5 426.5,-393.5 426.5,-393.5 190.5,-393.5"/>
<polygon fill="#666666" stroke="#666666" points="190.5,-348.5 190.5,-348.5 205.5,-348.5 205.5,-348.5 190.5,-348.5"/>
<polygon fill="#666666" stroke="#666666" points="205.5,-348.5 205.5,-348.5 426.5,-348.5 426.5,-348.5 205.5,-348.5"/>
<polygon fill="none" stroke="#666666" points="190.5,-276 190.5,-411 426.5,-411 426.5,-276 190.5,-276"/>
</a>
</g>
</g>
<!-- Node2&#45;&gt;Node4 -->
<g id="edge4_Node000004_Node000002" class="edge">
<title>Node2&#45;&gt;Node4</title>
<g id="a_edge4_Node000004_Node000002"><a xlink:title=" ">
<path fill="none" stroke="#63b8ff" d="M206.76,-440.93C216.32,-431.87 227.18,-421.57 238.17,-411.15"/>
<polygon fill="none" stroke="#63b8ff" points="204.24,-438.49 199.39,-447.91 209.06,-443.57 204.24,-438.49"/>
</a>
</g>
</g>
<!-- Node3 -->
<g id="Node000003" class="node">
<title>Node3</title>
<g id="a_Node000003"><a xlink:title=" ">
<polygon fill="white" stroke="transparent" points="218,-583 131,-583 131,-534 218,-534 218,-583"/>
<text text-anchor="start" x="136.5" y="-570.5" font-family="Helvetica,sans-Serif" font-size="10.00">MonoBehaviour</text>
<text text-anchor="start" x="173" y="-555.5" font-family="Helvetica,sans-Serif" font-size="10.00"> </text>
<text text-anchor="start" x="173" y="-540.5" font-family="Helvetica,sans-Serif" font-size="10.00"> </text>
<polygon fill="#666666" stroke="#666666" points="131.5,-565.5 131.5,-565.5 218.5,-565.5 218.5,-565.5 131.5,-565.5"/>
<polygon fill="#666666" stroke="#666666" points="131.5,-550.5 131.5,-550.5 218.5,-550.5 218.5,-550.5 131.5,-550.5"/>
<polygon fill="none" stroke="#666666" points="131,-534 131,-583 218,-583 218,-534 131,-534"/>
</a>
</g>
</g>
<!-- Node3&#45;&gt;Node2 -->
<g id="edge2_Node000002_Node000003" class="edge">
<title>Node3&#45;&gt;Node2</title>
<g id="a_edge2_Node000002_Node000003"><a xlink:title=" ">
<path fill="none" stroke="#63b8ff" d="M174.5,-523.57C174.5,-514.69 174.5,-505.32 174.5,-497.12"/>
<polygon fill="none" stroke="#63b8ff" points="171,-523.65 174.5,-533.65 178,-523.65 171,-523.65"/>
</a>
</g>
</g>
<!-- Node4&#45;&gt;Node1 -->
<g id="edge3_Node000001_Node000004" class="edge">
<title>Node4&#45;&gt;Node1</title>
<g id="a_edge3_Node000001_Node000004"><a xlink:title=" ">
<path fill="none" stroke="#63b8ff" d="M270.37,-275.93C263.82,-264.48 256.82,-252.26 249.72,-239.87"/>
<polygon fill="none" stroke="#63b8ff" points="249.71,-239.84 243.25,-236.62 243.74,-229.43 250.2,-232.64 249.71,-239.84"/>
</a>
</g>
<text text-anchor="middle" x="297" y="-250" font-family="Helvetica,sans-Serif" font-size="10.00" fill="grey"> &#45;modalWindow</text>
</g>
</g>
</svg>

<g id="navigator" transform="translate(0 0)" fill="#404254">
  <rect fill="#f2f5e9" fill-opacity="0.5" stroke="#606060" stroke-width=".5" x="0" y="0" width="60" height="60"/>
  <use id="zoomplus" xlink:href="#zoomPlus" x="17" y="9" onmousedown="handleZoom(evt,'in')"/>
  <use id="zoomminus" xlink:href="#zoomMin" x="42" y="9" onmousedown="handleZoom(evt,'out')"/>
  <use id="reset" xlink:href="#resetDef" x="30" y="36" onmousedown="handleReset()"/>
   <use id="arrowup" xlink:href="#arrowUp" x="0" y="0" onmousedown="handlePan(0,-1)"/>
  <use id="arrowright" xlink:href="#arrowRight" x="0" y="0" onmousedown="handlePan(1,0)"/>
  <use id="arrowdown" xlink:href="#arrowDown" x="0" y="0" onmousedown="handlePan(0,1)"/>
  <use id="arrowleft" xlink:href="#arrowLeft" x="0" y="0" onmousedown="handlePan(-1,0)"/>
</g>
<svg viewBox="0 0 15 15" width="100%" height="30px" preserveAspectRatio="xMaxYMin meet">
 <g id="arrow_out" transform="scale(0.3 0.3)">
  <a xlink:href="classUser_1_1UserController__coll__graph_org.svg" target="_base">
   <rect id="button" ry="5" rx="5" y="6" x="6" height="38" width="38"
        fill="#f2f5e9" fill-opacity="0.5" stroke="#606060" stroke-width="1.0"/>
   <path id="arrow"
     d="M 11.500037,31.436501 C 11.940474,20.09759 22.043105,11.32322 32.158766,21.979434 L 37.068811,17.246167 C 37.068811,17.246167 37.088388,32 37.088388,32 L 22.160133,31.978069 C 22.160133,31.978069 26.997745,27.140456 26.997745,27.140456 C 18.528582,18.264221 13.291696,25.230495 11.500037,31.436501 z"
     style="fill:#404040;"/>
  </a>
 </g>
</svg>

<style type='text/css'>
<![CDATA[
[data-mouse-over-selected='false'] { opacity: 0.7; }
[data-mouse-over-selected='true']  { opacity: 1.0; }
]]>
</style>
<script type="application/ecmascript"><![CDATA[
document.addEventListener('DOMContentLoaded', (event) => {
  highlightEdges();
  highlightAdjacentNodes();
});
]]></script>
</svg>
