<?xml version="1.0" encoding="UTF-8" standalone="no"?>
<!DOCTYPE svg PUBLIC "-//W3C//DTD SVG 1.1//EN"
 "http://www.w3.org/Graphics/SVG/1.1/DTD/svg11.dtd">
<!-- Generated by graphviz version 2.43.0 (0)
 -->
<!-- Title: Game.PlayerCar.ChunkChanged Pages: 1 -->
<!--zoomable 232 -->

<svg id="main" version="1.1" xmlns="http://www.w3.org/2000/svg" xmlns:xlink="http://www.w3.org/1999/xlink" xml:space="preserve" onload="init(evt)">
<style type="text/css"><![CDATA[
.node, .edge {opacity: 0.7;}
.node.selected, .edge.selected {opacity: 1;}
.edge:hover path { stroke: red; }
.edge:hover polygon { stroke: red; fill: red; }
]]></style>

<defs>
  <circle id="rim" cx="0" cy="0" r="7"/>
  <circle id="rim2" cx="0" cy="0" r="3.5"/>
  <g id="zoomPlus">
    <use xlink:href="#rim" fill="#404040"><set attributeName="fill" to="#808080" begin="zoomplus.mouseover" end="zoomplus.mouseout"/></use>
    <path d="M-4,0h8M0,-4v8" fill="none" stroke="white" stroke-width="1.5" pointer-events="none"/>
  </g>
  <g id="zoomMin">
    <use xlink:href="#rim" fill="#404040"><set attributeName="fill" to="#808080" begin="zoomminus.mouseover" end="zoomminus.mouseout"/></use>
    <path d="M-4,0h8" fill="none" stroke="white" stroke-width="1.5" pointer-events="none"/>
  </g>
  <g id="arrowUp" transform="translate(30 24)">
    <use xlink:href="#rim"/>
    <path pointer-events="none" fill="none" stroke="white" stroke-width="1.5" d="M0,-3.0v7 M-2.5,-0.5L0,-3.0L2.5,-0.5"/>
  </g>
  <g id="arrowRight" transform="rotate(90) translate(36 -43)">
    <use xlink:href="#rim"/>
    <path pointer-events="none" fill="none" stroke="white" stroke-width="1.5" d="M0,-3.0v7 M-2.5,-0.5L0,-3.0L2.5,-0.5"/>
  </g>
  <g id="arrowDown" transform="rotate(180) translate(-30 -48)">
    <use xlink:href="#rim"/>
    <path pointer-events="none" fill="none" stroke="white" stroke-width="1.5" d="M0,-3.0v7 M-2.5,-0.5L0,-3.0L2.5,-0.5"/>
  </g>
  <g id="arrowLeft" transform="rotate(270) translate(-36 17)">
    <use xlink:href="#rim"/>
    <path pointer-events="none" fill="none" stroke="white" stroke-width="1.5" d="M0,-3.0v7 M-2.5,-0.5L0,-3.0L2.5,-0.5"/>
  </g>
  <g id="resetDef">
    <use xlink:href="#rim2" fill="#404040"><set attributeName="fill" to="#808080" begin="reset.mouseover" end="reset.mouseout"/></use>
  </g>
</defs>
<script type="application/ecmascript">
var viewWidth = 2517;
var viewHeight = 232;
var sectionId = 'dynsection-3';
</script>
<script type="application/ecmascript" xlink:href="svg.min.js"/>
<svg id="graph" class="graph">
<g id="viewport">
<title>Game.PlayerCar.ChunkChanged</title>
<!-- Node1 -->
<g id="Node000001" class="node">
<title>Node1</title>
<g id="a_Node000001"><a xlink:title="Override the chunk changed method to make it load and despawn the chunks.">
<polygon fill="#999999" stroke="#666666" points="172,-205 0,-205 0,-186 172,-186 172,-205"/>
<text text-anchor="middle" x="86" y="-193" font-family="Helvetica,sans-Serif" font-size="10.00">Game.PlayerCar.ChunkChanged</text>
</a>
</g>
</g>
<!-- Node2 -->
<g id="Node000002" class="node">
<title>Node2</title>
<g id="a_Node000002"><a xlink:href="classGame_1_1GameController.html#af623e7876622503e3d0f985ad9b08e47" target="_top" xlink:title="Handle the load and despawning of the chunks relative to the given indices.">
<polygon fill="white" stroke="#666666" points="459,-205 208,-205 208,-186 459,-186 459,-205"/>
<text text-anchor="middle" x="333.5" y="-193" font-family="Helvetica,sans-Serif" font-size="10.00">Game.GameController.LoadAndDespawnChunks</text>
</a>
</g>
</g>
<!-- Node1&#45;&gt;Node2 -->
<g id="edge1_Node000001_Node000002" class="edge">
<title>Node1&#45;&gt;Node2</title>
<g id="a_edge1_Node000001_Node000002"><a xlink:title=" ">
<path fill="none" stroke="#63b8ff" d="M172.17,-195.5C180.44,-195.5 188.95,-195.5 197.54,-195.5"/>
<polygon fill="#63b8ff" stroke="#63b8ff" points="197.66,-199 207.66,-195.5 197.66,-192 197.66,-199"/>
</a>
</g>
</g>
<!-- Node3 -->
<g id="Node000003" class="node">
<title>Node3</title>
<g id="a_Node000003"><a xlink:href="classGame_1_1GameController.html#a9d697eb362c93e3208af1a5c2385742d" target="_top" xlink:title="Despawn the chunks which are too far away from the player.">
<polygon fill="white" stroke="#666666" points="746,-224 495,-224 495,-205 746,-205 746,-224"/>
<text text-anchor="middle" x="620.5" y="-212" font-family="Helvetica,sans-Serif" font-size="10.00">Game.GameController.DespawnFarAwayChunks</text>
</a>
</g>
</g>
<!-- Node2&#45;&gt;Node3 -->
<g id="edge2_Node000002_Node000003" class="edge">
<title>Node2&#45;&gt;Node3</title>
<g id="a_edge2_Node000002_Node000003"><a xlink:title=" ">
<path fill="none" stroke="#63b8ff" d="M459.09,-203.81C467.6,-204.37 476.19,-204.95 484.74,-205.52"/>
<polygon fill="#63b8ff" stroke="#63b8ff" points="484.55,-209.01 494.76,-206.18 485.01,-202.03 484.55,-209.01"/>
</a>
</g>
</g>
<!-- Node6 -->
<g id="Node000006" class="node">
<title>Node6</title>
<g id="a_Node000006"><a xlink:href="classGame_1_1GameController.html#a2003e53e493cca6ace00e260e7161a03" target="_top" xlink:title="Spawns and loads the nearby chunks.">
<polygon fill="white" stroke="#666666" points="736.5,-187 504.5,-187 504.5,-168 736.5,-168 736.5,-187"/>
<text text-anchor="middle" x="620.5" y="-175" font-family="Helvetica,sans-Serif" font-size="10.00">Game.GameController.SpawnNearbyChunks</text>
</a>
</g>
</g>
<!-- Node2&#45;&gt;Node6 -->
<g id="edge5_Node000002_Node000006" class="edge">
<title>Node2&#45;&gt;Node6</title>
<g id="a_edge5_Node000002_Node000006"><a xlink:title=" ">
<path fill="none" stroke="#63b8ff" d="M459.09,-187.63C470.68,-186.9 482.42,-186.16 494.01,-185.43"/>
<polygon fill="#63b8ff" stroke="#63b8ff" points="494.39,-188.91 504.15,-184.79 493.95,-181.92 494.39,-188.91"/>
</a>
</g>
</g>
<!-- Node4 -->
<g id="Node000004" class="node">
<title>Node4</title>
<g id="a_Node000004"><a xlink:href="classGame_1_1World_1_1GameWorld.html#a6e38b875a4ad69b6a285701336e9e29c" target="_top" xlink:title="Hide the given chunk.">
<polygon fill="white" stroke="#666666" points="999,-224 806,-224 806,-205 999,-205 999,-224"/>
<text text-anchor="middle" x="902.5" y="-212" font-family="Helvetica,sans-Serif" font-size="10.00">Game.World.GameWorld.HideChunk</text>
</a>
</g>
</g>
<!-- Node3&#45;&gt;Node4 -->
<g id="edge3_Node000003_Node000004" class="edge">
<title>Node3&#45;&gt;Node4</title>
<g id="a_edge3_Node000003_Node000004"><a xlink:title=" ">
<path fill="none" stroke="#63b8ff" d="M746.35,-214.5C762.74,-214.5 779.41,-214.5 795.45,-214.5"/>
<polygon fill="#63b8ff" stroke="#63b8ff" points="795.88,-218 805.88,-214.5 795.88,-211 795.88,-218"/>
</a>
</g>
</g>
<!-- Node5 -->
<g id="Node000005" class="node">
<title>Node5</title>
<g id="a_Node000005"><a xlink:href="classGame_1_1World_1_1Chunk.html#a118e0c25d254444e6663404fd61749d9" target="_top" xlink:title="Hide the chunk.">
<polygon fill="white" stroke="#666666" points="1239.5,-224 1072.5,-224 1072.5,-205 1239.5,-205 1239.5,-224"/>
<text text-anchor="middle" x="1156" y="-212" font-family="Helvetica,sans-Serif" font-size="10.00">Game.World.Chunk.HideChunk</text>
</a>
</g>
</g>
<!-- Node4&#45;&gt;Node5 -->
<g id="edge4_Node000004_Node000005" class="edge">
<title>Node4&#45;&gt;Node5</title>
<g id="a_edge4_Node000004_Node000005"><a xlink:title=" ">
<path fill="none" stroke="#63b8ff" d="M999.3,-214.5C1019.84,-214.5 1041.52,-214.5 1061.96,-214.5"/>
<polygon fill="#63b8ff" stroke="#63b8ff" points="1062.2,-218 1072.2,-214.5 1062.2,-211 1062.2,-218"/>
</a>
</g>
</g>
<!-- Node7 -->
<g id="Node000007" class="node">
<title>Node7</title>
<g id="a_Node000007"><a xlink:href="classGame_1_1GameController.html#a9818f49a9c0638be6cc6449e5e5000f7" target="_top" xlink:title="Checks if the selected chunk is in range and loads it if the world exists.">
<polygon fill="white" stroke="#666666" points="1023,-187 782,-187 782,-168 1023,-168 1023,-187"/>
<text text-anchor="middle" x="902.5" y="-175" font-family="Helvetica,sans-Serif" font-size="10.00">Game.GameController.ValidateAndLoadChunk</text>
</a>
</g>
</g>
<!-- Node6&#45;&gt;Node7 -->
<g id="edge6_Node000006_Node000007" class="edge">
<title>Node6&#45;&gt;Node7</title>
<g id="a_edge6_Node000006_Node000007"><a xlink:title=" ">
<path fill="none" stroke="#63b8ff" d="M736.6,-177.5C748.15,-177.5 759.93,-177.5 771.62,-177.5"/>
<polygon fill="#63b8ff" stroke="#63b8ff" points="771.86,-181 781.86,-177.5 771.86,-174 771.86,-181"/>
</a>
</g>
</g>
<!-- Node8 -->
<g id="Node000008" class="node">
<title>Node8</title>
<g id="a_Node000008"><a xlink:href="classGame_1_1World_1_1GameWorld.html#a730e116826e3519544de155b667042ba" target="_top" xlink:title="Loads a chunk.">
<polygon fill="white" stroke="#666666" points="1253,-187 1059,-187 1059,-168 1253,-168 1253,-187"/>
<text text-anchor="middle" x="1156" y="-175" font-family="Helvetica,sans-Serif" font-size="10.00">Game.World.GameWorld.LoadChunk</text>
</a>
</g>
</g>
<!-- Node7&#45;&gt;Node8 -->
<g id="edge7_Node000007_Node000008" class="edge">
<title>Node7&#45;&gt;Node8</title>
<g id="a_edge7_Node000007_Node000008"><a xlink:title=" ">
<path fill="none" stroke="#63b8ff" d="M1023.36,-177.5C1031.81,-177.5 1040.3,-177.5 1048.68,-177.5"/>
<polygon fill="#63b8ff" stroke="#63b8ff" points="1048.82,-181 1058.82,-177.5 1048.82,-174 1048.82,-181"/>
</a>
</g>
</g>
<!-- Node9 -->
<g id="Node000009" class="node">
<title>Node9</title>
<g id="a_Node000009"><a xlink:href="classGame_1_1World_1_1Chunk.html#a475512064d145228ca7084735b7e2f2f" target="_top" xlink:title="Show the chunk.">
<polygon fill="white" stroke="#666666" points="1444,-206 1294,-206 1294,-187 1444,-187 1444,-206"/>
<text text-anchor="middle" x="1369" y="-194" font-family="Helvetica,sans-Serif" font-size="10.00">Game.World.Chunk.Display</text>
</a>
</g>
</g>
<!-- Node8&#45;&gt;Node9 -->
<g id="edge8_Node000008_Node000009" class="edge">
<title>Node8&#45;&gt;Node9</title>
<g id="a_edge8_Node000008_Node000009"><a xlink:title=" ">
<path fill="none" stroke="#63b8ff" d="M1253.24,-186.17C1263.32,-187.07 1273.52,-187.99 1283.46,-188.89"/>
<polygon fill="#63b8ff" stroke="#63b8ff" points="1283.43,-192.4 1293.71,-189.81 1284.06,-185.43 1283.43,-192.4"/>
</a>
</g>
</g>
<!-- Node10 -->
<g id="Node000010" class="node">
<title>Node10</title>
<g id="a_Node000010"><a xlink:href="classGame_1_1World_1_1Chunk.html#a0616c2f9600a4bcc1dbe97a93a947e7a" target="_top" xlink:title="Initialize the chunk.">
<polygon fill="white" stroke="#666666" points="1449,-169 1289,-169 1289,-150 1449,-150 1449,-169"/>
<text text-anchor="middle" x="1369" y="-157" font-family="Helvetica,sans-Serif" font-size="10.00">Game.World.Chunk.InitChunk</text>
</a>
</g>
</g>
<!-- Node8&#45;&gt;Node10 -->
<g id="edge9_Node000008_Node000010" class="edge">
<title>Node8&#45;&gt;Node10</title>
<g id="a_edge9_Node000008_Node000010"><a xlink:title=" ">
<path fill="none" stroke="#63b8ff" d="M1253.24,-169.29C1261.74,-168.57 1270.32,-167.83 1278.76,-167.11"/>
<polygon fill="#63b8ff" stroke="#63b8ff" points="1279.3,-170.58 1288.96,-166.24 1278.7,-163.61 1279.3,-170.58"/>
</a>
</g>
</g>
<!-- Node11 -->
<g id="Node000011" class="node">
<title>Node11</title>
<g id="a_Node000011"><a xlink:href="classGame_1_1World_1_1Chunk.html#aac3343253a33a36a09318ebc76bd9f08" target="_top" xlink:title="Creates the tiles for the chunk.">
<polygon fill="white" stroke="#666666" points="1674.5,-206 1505.5,-206 1505.5,-187 1674.5,-187 1674.5,-206"/>
<text text-anchor="middle" x="1590" y="-194" font-family="Helvetica,sans-Serif" font-size="10.00">Game.World.Chunk.CreateTiles</text>
</a>
</g>
</g>
<!-- Node10&#45;&gt;Node11 -->
<g id="edge10_Node000010_Node000011" class="edge">
<title>Node10&#45;&gt;Node11</title>
<g id="a_edge10_Node000010_Node000011"><a xlink:title=" ">
<path fill="none" stroke="#63b8ff" d="M1426.4,-169.03C1455.66,-173.97 1491.6,-180.04 1522.24,-185.22"/>
<polygon fill="#63b8ff" stroke="#63b8ff" points="1521.97,-188.72 1532.41,-186.94 1523.14,-181.82 1521.97,-188.72"/>
</a>
</g>
</g>
<!-- Node14 -->
<g id="Node000014" class="node">
<title>Node14</title>
<g id="a_Node000014"><a xlink:href="classGame_1_1World_1_1Chunk.html#a1fb214fa85481a42c651b9d6b0d45cb9" target="_top" xlink:title="Gets tthe nearby chunks.">
<polygon fill="white" stroke="#666666" points="1691,-169 1489,-169 1489,-150 1691,-150 1691,-169"/>
<text text-anchor="middle" x="1590" y="-157" font-family="Helvetica,sans-Serif" font-size="10.00">Game.World.Chunk.GetNearbyChunks</text>
</a>
</g>
</g>
<!-- Node10&#45;&gt;Node14 -->
<g id="edge13_Node000010_Node000014" class="edge">
<title>Node10&#45;&gt;Node14</title>
<g id="a_edge13_Node000010_Node000014"><a xlink:title=" ">
<path fill="none" stroke="#63b8ff" d="M1449.06,-159.5C1458.61,-159.5 1468.5,-159.5 1478.39,-159.5"/>
<polygon fill="#63b8ff" stroke="#63b8ff" points="1478.69,-163 1488.69,-159.5 1478.69,-156 1478.69,-163"/>
</a>
</g>
</g>
<!-- Node16 -->
<g id="Node000016" class="node">
<title>Node16</title>
<g id="a_Node000016"><a xlink:href="classGame_1_1World_1_1Chunk.html#a08f4b5e8b362b98f4b3f01225d12b4af" target="_top" xlink:title="Spawns the buildings and the props on a seperate thread.">
<polygon fill="white" stroke="#666666" points="1695,-93 1485,-93 1485,-74 1695,-74 1695,-93"/>
<text text-anchor="middle" x="1590" y="-81" font-family="Helvetica,sans-Serif" font-size="10.00">Game.World.Chunk.SpawnWorldObjects</text>
</a>
</g>
</g>
<!-- Node10&#45;&gt;Node16 -->
<g id="edge15_Node000010_Node000016" class="edge">
<title>Node10&#45;&gt;Node16</title>
<g id="a_edge15_Node000010_Node000016"><a xlink:title=" ">
<path fill="none" stroke="#63b8ff" d="M1397.74,-149.87C1436.82,-136.31 1508.18,-111.55 1551.82,-96.4"/>
<polygon fill="#63b8ff" stroke="#63b8ff" points="1553.19,-99.63 1561.49,-93.05 1550.89,-93.02 1553.19,-99.63"/>
</a>
</g>
</g>
<!-- Node12 -->
<g id="Node000012" class="node">
<title>Node12</title>
<g id="a_Node000012"><a xlink:href="classGame_1_1World_1_1Chunk.html#ac4b762352bb5f90952fe57e5c0ee208f" target="_top" xlink:title="Determines the type of the tile at the coord.">
<polygon fill="white" stroke="#666666" points="1958.5,-206 1752.5,-206 1752.5,-187 1958.5,-187 1958.5,-206"/>
<text text-anchor="middle" x="1855.5" y="-194" font-family="Helvetica,sans-Serif" font-size="10.00">Game.World.Chunk.DetermineTileType</text>
</a>
</g>
</g>
<!-- Node11&#45;&gt;Node12 -->
<g id="edge11_Node000011_Node000012" class="edge">
<title>Node11&#45;&gt;Node12</title>
<g id="a_edge11_Node000011_Node000012"><a xlink:title=" ">
<path fill="none" stroke="#63b8ff" d="M1674.74,-196.5C1696.04,-196.5 1719.28,-196.5 1741.76,-196.5"/>
<polygon fill="#63b8ff" stroke="#63b8ff" points="1742.03,-200 1752.03,-196.5 1742.03,-193 1742.03,-200"/>
</a>
</g>
</g>
<!-- Node13 -->
<g id="Node000013" class="node">
<title>Node13</title>
<g id="a_Node000013"><a xlink:href="classGame_1_1World_1_1Chunk.html#a2d39efc9f5c0f3c302dd7e9d007096c7" target="_top" xlink:title="Determine what type of road it is.">
<polygon fill="white" stroke="#666666" points="2244.5,-206 2032.5,-206 2032.5,-187 2244.5,-187 2244.5,-206"/>
<text text-anchor="middle" x="2138.5" y="-194" font-family="Helvetica,sans-Serif" font-size="10.00">Game.World.Chunk.DetermineRoadType</text>
</a>
</g>
</g>
<!-- Node12&#45;&gt;Node13 -->
<g id="edge12_Node000012_Node000013" class="edge">
<title>Node12&#45;&gt;Node13</title>
<g id="a_edge12_Node000012_Node000013"><a xlink:title=" ">
<path fill="none" stroke="#63b8ff" d="M1958.74,-196.5C1979.24,-196.5 2000.91,-196.5 2021.83,-196.5"/>
<polygon fill="#63b8ff" stroke="#63b8ff" points="2022.03,-200 2032.03,-196.5 2022.03,-193 2022.03,-200"/>
</a>
</g>
</g>
<!-- Node15 -->
<g id="Node000015" class="node">
<title>Node15</title>
<g id="a_Node000015"><a xlink:href="classGame_1_1World_1_1GameWorld.html#a6188226b54eb7e38659cbe8d9d76b620" target="_top" xlink:title="Get the chunk without trying it to load.">
<polygon fill="white" stroke="#666666" points="1980,-169 1731,-169 1731,-150 1980,-150 1980,-169"/>
<text text-anchor="middle" x="1855.5" y="-157" font-family="Helvetica,sans-Serif" font-size="10.00">Game.World.GameWorld.GetChunkWithoutLoad</text>
</a>
</g>
</g>
<!-- Node14&#45;&gt;Node15 -->
<g id="edge14_Node000014_Node000015" class="edge">
<title>Node14&#45;&gt;Node15</title>
<g id="a_edge14_Node000014_Node000015"><a xlink:title=" ">
<path fill="none" stroke="#63b8ff" d="M1691.37,-159.5C1700.98,-159.5 1710.82,-159.5 1720.68,-159.5"/>
<polygon fill="#63b8ff" stroke="#63b8ff" points="1720.95,-163 1730.95,-159.5 1720.95,-156 1720.95,-163"/>
</a>
</g>
</g>
<!-- Node17 -->
<g id="Node000017" class="node">
<title>Node17</title>
<g id="a_Node000017"><a xlink:href="classGame_1_1World_1_1Chunk.html#a12ff4b268fb99d10493398cfe555b46c" target="_top" xlink:title=" ">
<polygon fill="white" stroke="#666666" points="2249,-131 2028,-131 2028,-112 2249,-112 2249,-131"/>
<text text-anchor="middle" x="2138.5" y="-119" font-family="Helvetica,sans-Serif" font-size="10.00">Game.World.Chunk.AddEnvironmentProps</text>
</a>
</g>
</g>
<!-- Node16&#45;&gt;Node17 -->
<g id="edge16_Node000016_Node000017" class="edge">
<title>Node16&#45;&gt;Node17</title>
<g id="a_edge16_Node000016_Node000017"><a xlink:title=" ">
<path fill="none" stroke="#63b8ff" d="M1656.76,-93.04C1680.16,-96.15 1706.71,-99.34 1731,-101.5 1827.18,-110.04 1936.51,-115.16 2017.54,-118.08"/>
<polygon fill="#63b8ff" stroke="#63b8ff" points="2017.66,-121.58 2027.78,-118.44 2017.91,-114.59 2017.66,-121.58"/>
</a>
</g>
</g>
<!-- Node19 -->
<g id="Node000019" class="node">
<title>Node19</title>
<g id="a_Node000019"><a xlink:href="classGame_1_1World_1_1Chunk.html#a00a9cd484ae1ddffec928a75f6b2db15" target="_top" xlink:title="Add the buildings which are next to the roads.">
<polygon fill="white" stroke="#666666" points="1956.5,-93 1754.5,-93 1754.5,-74 1956.5,-74 1956.5,-93"/>
<text text-anchor="middle" x="1855.5" y="-81" font-family="Helvetica,sans-Serif" font-size="10.00">Game.World.Chunk.AddRoadBuildings</text>
</a>
</g>
</g>
<!-- Node16&#45;&gt;Node19 -->
<g id="edge18_Node000016_Node000019" class="edge">
<title>Node16&#45;&gt;Node19</title>
<g id="a_edge18_Node000016_Node000019"><a xlink:title=" ">
<path fill="none" stroke="#63b8ff" d="M1695.14,-83.5C1711.22,-83.5 1727.88,-83.5 1744.1,-83.5"/>
<polygon fill="#63b8ff" stroke="#63b8ff" points="1744.12,-87 1754.12,-83.5 1744.12,-80 1744.12,-87"/>
</a>
</g>
</g>
<!-- Node21 -->
<g id="Node000021" class="node">
<title>Node21</title>
<g id="a_Node000021"><a xlink:href="classGame_1_1World_1_1Chunk.html#a443ede65d8aeb566a385cb3bcad9d8f7" target="_top" xlink:title="Generate the building cells matrix so we know which way the roads are.">
<polygon fill="white" stroke="#666666" points="1960,-56 1751,-56 1751,-37 1960,-37 1960,-56"/>
<text text-anchor="middle" x="1855.5" y="-44" font-family="Helvetica,sans-Serif" font-size="10.00">Game.World.Chunk.GenerateCellMatrix</text>
</a>
</g>
</g>
<!-- Node16&#45;&gt;Node21 -->
<g id="edge21_Node000016_Node000021" class="edge">
<title>Node16&#45;&gt;Node21</title>
<g id="a_edge21_Node000016_Node000021"><a xlink:title=" ">
<path fill="none" stroke="#63b8ff" d="M1658.86,-73.97C1694.68,-68.94 1738.81,-62.74 1776.09,-57.51"/>
<polygon fill="#63b8ff" stroke="#63b8ff" points="1777,-60.92 1786.41,-56.06 1776.03,-53.98 1777,-60.92"/>
</a>
</g>
</g>
<!-- Node22 -->
<g id="Node000022" class="node">
<title>Node22</title>
<g id="a_Node000022"><a xlink:href="classUtility_1_1CoroutineRunner.html#a1c473dee723f16d86bab9d8475c8214a" target="_top" xlink:title="A helper method to start coroutines.">
<polygon fill="white" stroke="#666666" points="1954.5,-19 1756.5,-19 1756.5,0 1954.5,0 1954.5,-19"/>
<text text-anchor="middle" x="1855.5" y="-7" font-family="Helvetica,sans-Serif" font-size="10.00">Utility.CoroutineRunner.RunCoroutine</text>
</a>
</g>
</g>
<!-- Node16&#45;&gt;Node22 -->
<g id="edge22_Node000016_Node000022" class="edge">
<title>Node16&#45;&gt;Node22</title>
<g id="a_edge22_Node000016_Node000022"><a xlink:title=" ">
<path fill="none" stroke="#63b8ff" d="M1610.89,-73.8C1637.58,-61.19 1686.76,-39.39 1731,-27.5 1740.49,-24.95 1750.5,-22.73 1760.55,-20.82"/>
<polygon fill="#63b8ff" stroke="#63b8ff" points="1761.36,-24.23 1770.58,-19.01 1760.12,-17.34 1761.36,-24.23"/>
</a>
</g>
</g>
<!-- Node18 -->
<g id="Node000018" class="node">
<title>Node18</title>
<g id="a_Node000018"><a xlink:href="classGame_1_1World_1_1Chunk.html#af37779d40ed9cd07b577d5bca61627b7" target="_top" xlink:title=" ">
<polygon fill="white" stroke="#666666" points="2509,-112 2297,-112 2297,-93 2509,-93 2509,-112"/>
<text text-anchor="middle" x="2403" y="-100" font-family="Helvetica,sans-Serif" font-size="10.00">Game.World.Chunk.GetAbsolutePosition</text>
</a>
</g>
</g>
<!-- Node17&#45;&gt;Node18 -->
<g id="edge17_Node000017_Node000018" class="edge">
<title>Node17&#45;&gt;Node18</title>
<g id="a_edge17_Node000017_Node000018"><a xlink:title=" ">
<path fill="none" stroke="#63b8ff" d="M2249.3,-113.55C2261.6,-112.66 2274.15,-111.75 2286.51,-110.86"/>
<polygon fill="#63b8ff" stroke="#63b8ff" points="2287.12,-114.32 2296.84,-110.11 2286.61,-107.34 2287.12,-114.32"/>
</a>
</g>
</g>
<!-- Node20 -->
<g id="Node000020" class="node">
<title>Node20</title>
<g id="a_Node000020"><a xlink:href="classGame_1_1World_1_1Chunk.html#af2946e1e1b9e325d6004d166b2b26193" target="_top" xlink:title="Lock the cell and try to place it.">
<polygon fill="white" stroke="#666666" points="2261,-94 2016,-94 2016,-75 2261,-75 2261,-94"/>
<text text-anchor="middle" x="2138.5" y="-82" font-family="Helvetica,sans-Serif" font-size="10.00">Game.World.Chunk.LockAndTryToPlaceBuilding</text>
</a>
</g>
</g>
<!-- Node19&#45;&gt;Node20 -->
<g id="edge19_Node000019_Node000020" class="edge">
<title>Node19&#45;&gt;Node20</title>
<g id="a_edge19_Node000019_Node000020"><a xlink:title=" ">
<path fill="none" stroke="#63b8ff" d="M1956.76,-83.86C1972.55,-83.91 1989.09,-83.97 2005.47,-84.03"/>
<polygon fill="#63b8ff" stroke="#63b8ff" points="2005.62,-87.53 2015.64,-84.07 2005.65,-80.53 2005.62,-87.53"/>
</a>
</g>
</g>
<!-- Node20&#45;&gt;Node18 -->
<g id="edge20_Node000020_Node000018" class="edge">
<title>Node20&#45;&gt;Node18</title>
<g id="a_edge20_Node000020_Node000018"><a xlink:title=" ">
<path fill="none" stroke="#63b8ff" d="M2261.14,-92.84C2269.63,-93.42 2278.17,-94.01 2286.62,-94.59"/>
<polygon fill="#63b8ff" stroke="#63b8ff" points="2286.66,-98.1 2296.87,-95.29 2287.14,-91.12 2286.66,-98.1"/>
</a>
</g>
</g>
</g>
</svg>

<g id="navigator" transform="translate(0 0)" fill="#404254">
  <rect fill="#f2f5e9" fill-opacity="0.5" stroke="#606060" stroke-width=".5" x="0" y="0" width="60" height="60"/>
  <use id="zoomplus" xlink:href="#zoomPlus" x="17" y="9" onmousedown="handleZoom(evt,'in')"/>
  <use id="zoomminus" xlink:href="#zoomMin" x="42" y="9" onmousedown="handleZoom(evt,'out')"/>
  <use id="reset" xlink:href="#resetDef" x="30" y="36" onmousedown="handleReset()"/>
   <use id="arrowup" xlink:href="#arrowUp" x="0" y="0" onmousedown="handlePan(0,-1)"/>
  <use id="arrowright" xlink:href="#arrowRight" x="0" y="0" onmousedown="handlePan(1,0)"/>
  <use id="arrowdown" xlink:href="#arrowDown" x="0" y="0" onmousedown="handlePan(0,1)"/>
  <use id="arrowleft" xlink:href="#arrowLeft" x="0" y="0" onmousedown="handlePan(-1,0)"/>
</g>
<svg viewBox="0 0 15 15" width="100%" height="30px" preserveAspectRatio="xMaxYMin meet">
 <g id="arrow_out" transform="scale(0.3 0.3)">
  <a xlink:href="classGame_1_1PlayerCar_a18f30f1f6873f043457ce9f81ac47ed4_cgraph_org.svg" target="_base">
   <rect id="button" ry="5" rx="5" y="6" x="6" height="38" width="38"
        fill="#f2f5e9" fill-opacity="0.5" stroke="#606060" stroke-width="1.0"/>
   <path id="arrow"
     d="M 11.500037,31.436501 C 11.940474,20.09759 22.043105,11.32322 32.158766,21.979434 L 37.068811,17.246167 C 37.068811,17.246167 37.088388,32 37.088388,32 L 22.160133,31.978069 C 22.160133,31.978069 26.997745,27.140456 26.997745,27.140456 C 18.528582,18.264221 13.291696,25.230495 11.500037,31.436501 z"
     style="fill:#404040;"/>
  </a>
 </g>
</svg>

<style type='text/css'>
<![CDATA[
[data-mouse-over-selected='false'] { opacity: 0.7; }
[data-mouse-over-selected='true']  { opacity: 1.0; }
]]>
</style>
<script type="application/ecmascript"><![CDATA[
document.addEventListener('DOMContentLoaded', (event) => {
  highlightEdges();
  highlightAdjacentNodes();
});
]]></script>
</svg>
