<?xml version="1.0" encoding="UTF-8" standalone="no"?>
<!DOCTYPE svg PUBLIC "-//W3C//DTD SVG 1.1//EN"
 "http://www.w3.org/Graphics/SVG/1.1/DTD/svg11.dtd">
<!-- Generated by graphviz version 2.43.0 (0)
 -->
<!-- Title: Game.World.CarSpawner.Update Pages: 1 -->
<svg width="661pt" height="64pt"
 viewBox="0.00 0.00 661.00 64.00" xmlns="http://www.w3.org/2000/svg" xmlns:xlink="http://www.w3.org/1999/xlink">
<g id="graph0" class="graph" transform="scale(1 1) rotate(0) translate(4 60)">
<title>Game.World.CarSpawner.Update</title>
<!-- Node1 -->
<g id="Node000001" class="node">
<title>Node1</title>
<g id="a_Node000001"><a xlink:title="Called every frame and increase the timers and spawn if they reached the threshold.">
<polygon fill="#999999" stroke="#666666" points="176,-37 0,-37 0,-18 176,-18 176,-37"/>
<text text-anchor="middle" x="88" y="-25" font-family="Helvetica,sans-Serif" font-size="10.00">Game.World.CarSpawner.Update</text>
</a>
</g>
</g>
<!-- Node2 -->
<g id="Node000002" class="node">
<title>Node2</title>
<g id="a_Node000002"><a xlink:href="classGame_1_1World_1_1CarSpawner.html#a68b1710c3c5c6ab1ea0d64b13da93e49" target="_top" xlink:title="Spawn the given cop car.">
<polygon fill="white" stroke="#666666" points="414,-37 212,-37 212,-18 414,-18 414,-37"/>
<text text-anchor="middle" x="313" y="-25" font-family="Helvetica,sans-Serif" font-size="10.00">Game.World.CarSpawner.SpawnPolice</text>
</a>
</g>
</g>
<!-- Node1&#45;&gt;Node2 -->
<g id="edge1_Node000001_Node000002" class="edge">
<title>Node1&#45;&gt;Node2</title>
<g id="a_edge1_Node000001_Node000002"><a xlink:title=" ">
<path fill="none" stroke="#63b8ff" d="M176.18,-27.5C184.6,-27.5 193.23,-27.5 201.84,-27.5"/>
<polygon fill="#63b8ff" stroke="#63b8ff" points="201.94,-31 211.94,-27.5 201.94,-24 201.94,-31"/>
</a>
</g>
</g>
<!-- Node3 -->
<g id="Node000003" class="node">
<title>Node3</title>
<g id="a_Node000003"><a xlink:href="classGame_1_1World_1_1Chunk.html#aa082f46d92a6ade2f934fc8f2ff3093e" target="_top" xlink:title="Gets a random road&#39;s position.">
<polygon fill="white" stroke="#666666" points="653,-56 450,-56 450,-37 653,-37 653,-56"/>
<text text-anchor="middle" x="551.5" y="-44" font-family="Helvetica,sans-Serif" font-size="10.00">Game.World.Chunk.GetARandomRoad</text>
</a>
</g>
</g>
<!-- Node2&#45;&gt;Node3 -->
<g id="edge2_Node000002_Node000003" class="edge">
<title>Node2&#45;&gt;Node3</title>
<g id="a_edge2_Node000002_Node000003"><a xlink:title=" ">
<path fill="none" stroke="#63b8ff" d="M414.3,-35.56C422.62,-36.23 431.07,-36.9 439.46,-37.58"/>
<polygon fill="#63b8ff" stroke="#63b8ff" points="439.42,-41.09 449.67,-38.4 439.98,-34.11 439.42,-41.09"/>
</a>
</g>
</g>
<!-- Node4 -->
<g id="Node000004" class="node">
<title>Node4</title>
<g id="a_Node000004"><a xlink:href="classGame_1_1Car.html#adea5c0fa34888fc8d58fa434b205b365" target="_top" xlink:title="Initializes the car.">
<polygon fill="white" stroke="#666666" points="593,-19 510,-19 510,0 593,0 593,-19"/>
<text text-anchor="middle" x="551.5" y="-7" font-family="Helvetica,sans-Serif" font-size="10.00">Game.Car.Init</text>
</a>
</g>
</g>
<!-- Node2&#45;&gt;Node4 -->
<g id="edge3_Node000002_Node000004" class="edge">
<title>Node2&#45;&gt;Node4</title>
<g id="a_edge3_Node000002_Node000004"><a xlink:title=" ">
<path fill="none" stroke="#63b8ff" d="M414.3,-19.87C443.71,-17.63 474.64,-15.27 499.58,-13.38"/>
<polygon fill="#63b8ff" stroke="#63b8ff" points="500.17,-16.84 509.88,-12.59 499.64,-9.86 500.17,-16.84"/>
</a>
</g>
</g>
</g>
</svg>
