<?xml version="1.0" encoding="UTF-8" standalone="no"?>
<!DOCTYPE svg PUBLIC "-//W3C//DTD SVG 1.1//EN"
 "http://www.w3.org/Graphics/SVG/1.1/DTD/svg11.dtd">
<!-- Generated by graphviz version 2.43.0 (0)
 -->
<!-- Title: Game.World.GameWorld Pages: 1 -->
<svg width="256pt" height="331pt"
 viewBox="0.00 0.00 256.00 331.00" xmlns="http://www.w3.org/2000/svg" xmlns:xlink="http://www.w3.org/1999/xlink">
<g id="graph0" class="graph" transform="scale(1 1) rotate(0) translate(4 327)">
<title>Game.World.GameWorld</title>
<polygon fill="white" stroke="transparent" points="-4,4 -4,-327 252,-327 252,4 -4,4"/>
<!-- Node1 -->
<g id="node1" class="node">
<title>Node1</title>
<g id="a_node1"><a xlink:title="A class for handling chunk loading and unloading">
<polygon fill="#bfbfbf" stroke="black" points="0,-0.5 0,-134.5 248,-134.5 248,-0.5 0,-0.5"/>
<text text-anchor="middle" x="124" y="-122.5" font-family="Helvetica,sans-Serif" font-size="10.00">Game.World.GameWorld</text>
<polyline fill="none" stroke="black" points="0,-115.5 248,-115.5 "/>
<text text-anchor="start" x="8" y="-103.5" font-family="Helvetica,sans-Serif" font-size="10.00">&#45; GameObject ChunkPrefab</text>
<text text-anchor="start" x="8" y="-92.5" font-family="Helvetica,sans-Serif" font-size="10.00">&#45; Chunk[,] Chunks</text>
<polyline fill="none" stroke="black" points="0,-85.5 248,-85.5 "/>
<text text-anchor="start" x="8" y="-73.5" font-family="Helvetica,sans-Serif" font-size="10.00">+ Chunk GetChunk(Vector3 GameObjectPos)</text>
<text text-anchor="start" x="8" y="-62.5" font-family="Helvetica,sans-Serif" font-size="10.00">+ async Task CreateNewGame()</text>
<text text-anchor="start" x="8" y="-51.5" font-family="Helvetica,sans-Serif" font-size="10.00">+ async Task LoadChunk(int x, int z)</text>
<text text-anchor="start" x="8" y="-40.5" font-family="Helvetica,sans-Serif" font-size="10.00">+ void HideChunk(int col, int row)</text>
<text text-anchor="start" x="8" y="-29.5" font-family="Helvetica,sans-Serif" font-size="10.00">+ Chunk GetChunkWithoutLoad(int col, int row)</text>
<text text-anchor="start" x="8" y="-18.5" font-family="Helvetica,sans-Serif" font-size="10.00">+ async Task&lt; Chunk &gt; GetChunk(int</text>
<text text-anchor="start" x="8" y="-7.5" font-family="Helvetica,sans-Serif" font-size="10.00"> col, int row)</text>
</a>
</g>
</g>
<!-- Node2 -->
<g id="node2" class="node">
<title>Node2</title>
<g id="a_node2"><a xlink:href="classUtility_1_1ThreadSafeMonoBehaviour.html" target="_top" xlink:title="Safely stores if the gameobject been destroyed in a bool">
<polygon fill="white" stroke="black" points="49.5,-171.5 49.5,-228.5 198.5,-228.5 198.5,-171.5 49.5,-171.5"/>
<text text-anchor="middle" x="124" y="-216.5" font-family="Helvetica,sans-Serif" font-size="10.00">ThreadSafeMonoBehaviour</text>
<polyline fill="none" stroke="black" points="49.5,-209.5 198.5,-209.5 "/>
<text text-anchor="start" x="57.5" y="-197.5" font-family="Helvetica,sans-Serif" font-size="10.00">+ bool Destroyed</text>
<polyline fill="none" stroke="black" points="49.5,-190.5 198.5,-190.5 "/>
<text text-anchor="start" x="57.5" y="-178.5" font-family="Helvetica,sans-Serif" font-size="10.00"># void OnDestroy()</text>
</a>
</g>
</g>
<!-- Node2&#45;&gt;Node1 -->
<g id="edge1" class="edge">
<title>Node2&#45;&gt;Node1</title>
<path fill="none" stroke="midnightblue" d="M124,-161.16C124,-152.78 124,-143.67 124,-134.53"/>
<polygon fill="none" stroke="midnightblue" points="120.5,-161.32 124,-171.32 127.5,-161.32 120.5,-161.32"/>
</g>
<!-- Node3 -->
<g id="node3" class="node">
<title>Node3</title>
<g id="a_node3"><a xlink:title=" ">
<polygon fill="white" stroke="#bfbfbf" points="77.5,-265.5 77.5,-322.5 170.5,-322.5 170.5,-265.5 77.5,-265.5"/>
<text text-anchor="middle" x="124" y="-310.5" font-family="Helvetica,sans-Serif" font-size="10.00">MonoBehaviour</text>
<polyline fill="none" stroke="#bfbfbf" points="77.5,-303.5 170.5,-303.5 "/>
<text text-anchor="middle" x="124" y="-291.5" font-family="Helvetica,sans-Serif" font-size="10.00"> </text>
<polyline fill="none" stroke="#bfbfbf" points="77.5,-284.5 170.5,-284.5 "/>
<text text-anchor="middle" x="124" y="-272.5" font-family="Helvetica,sans-Serif" font-size="10.00"> </text>
</a>
</g>
</g>
<!-- Node3&#45;&gt;Node2 -->
<g id="edge2" class="edge">
<title>Node3&#45;&gt;Node2</title>
<path fill="none" stroke="midnightblue" d="M124,-255.21C124,-246.29 124,-236.95 124,-228.58"/>
<polygon fill="none" stroke="midnightblue" points="120.5,-255.4 124,-265.4 127.5,-255.4 120.5,-255.4"/>
</g>
</g>
</svg>
