<?xml version="1.0" encoding="UTF-8" standalone="no"?>
<!DOCTYPE svg PUBLIC "-//W3C//DTD SVG 1.1//EN"
 "http://www.w3.org/Graphics/SVG/1.1/DTD/svg11.dtd">
<!-- Generated by graphviz version 2.43.0 (0)
 -->
<!-- Title: Game.World.Chunk Pages: 1 -->
<svg width="546pt" height="1053pt"
 viewBox="0.00 0.00 545.50 1053.00" xmlns="http://www.w3.org/2000/svg" xmlns:xlink="http://www.w3.org/1999/xlink">
<g id="graph0" class="graph" transform="scale(1 1) rotate(0) translate(4 1049)">
<title>Game.World.Chunk</title>
<polygon fill="white" stroke="transparent" points="-4,4 -4,-1049 541.5,-1049 541.5,4 -4,4"/>
<!-- Node1 -->
<g id="node1" class="node">
<title>Node1</title>
<g id="a_node1"><a xlink:title="Stores a single chunk of the world">
<polygon fill="#bfbfbf" stroke="black" points="158.5,-237.5 158.5,-800.5 397.5,-800.5 397.5,-237.5 158.5,-237.5"/>
<text text-anchor="middle" x="278" y="-788.5" font-family="Helvetica,sans-Serif" font-size="10.00">Game.World.Chunk</text>
<polyline fill="none" stroke="black" points="158.5,-781.5 397.5,-781.5 "/>
<text text-anchor="start" x="166.5" y="-769.5" font-family="Helvetica,sans-Serif" font-size="10.00">+ float XOffset</text>
<text text-anchor="start" x="166.5" y="-758.5" font-family="Helvetica,sans-Serif" font-size="10.00">+ float ZOffset</text>
<text text-anchor="start" x="166.5" y="-747.5" font-family="Helvetica,sans-Serif" font-size="10.00">+ bool RandomizeOffset</text>
<text text-anchor="start" x="166.5" y="-736.5" font-family="Helvetica,sans-Serif" font-size="10.00">+ GameObject straightRoadPrefab</text>
<text text-anchor="start" x="166.5" y="-725.5" font-family="Helvetica,sans-Serif" font-size="10.00">+ GameObject grassPrefab</text>
<text text-anchor="start" x="166.5" y="-714.5" font-family="Helvetica,sans-Serif" font-size="10.00">+ GameObject coinPrefab</text>
<text text-anchor="start" x="166.5" y="-703.5" font-family="Helvetica,sans-Serif" font-size="10.00">+ int? zSize</text>
<text text-anchor="start" x="166.5" y="-692.5" font-family="Helvetica,sans-Serif" font-size="10.00">+ int? xSize</text>
<text text-anchor="start" x="166.5" y="-681.5" font-family="Helvetica,sans-Serif" font-size="10.00">+ int Row</text>
<text text-anchor="start" x="166.5" y="-670.5" font-family="Helvetica,sans-Serif" font-size="10.00">+ int Col</text>
<text text-anchor="start" x="166.5" y="-659.5" font-family="Helvetica,sans-Serif" font-size="10.00">+ bool[,] Roads</text>
<text text-anchor="start" x="166.5" y="-648.5" font-family="Helvetica,sans-Serif" font-size="10.00">+ List&lt; EdgeRoadContainer &gt;? EdgeRoads</text>
<text text-anchor="start" x="166.5" y="-637.5" font-family="Helvetica,sans-Serif" font-size="10.00">&#45; GameObject curvedRoadPrefab</text>
<text text-anchor="start" x="166.5" y="-626.5" font-family="Helvetica,sans-Serif" font-size="10.00">&#45; GameObject threeWayRoadPrefab</text>
<text text-anchor="start" x="166.5" y="-615.5" font-family="Helvetica,sans-Serif" font-size="10.00">&#45; GameObject crossRoadsPrefab</text>
<text text-anchor="start" x="166.5" y="-604.5" font-family="Helvetica,sans-Serif" font-size="10.00">&#45; List&lt; Building &gt; buildings</text>
<text text-anchor="start" x="166.5" y="-593.5" font-family="Helvetica,sans-Serif" font-size="10.00">&#45; List&lt; Prop &gt; props</text>
<text text-anchor="start" x="166.5" y="-582.5" font-family="Helvetica,sans-Serif" font-size="10.00">&#45; Dictionary&lt; ChunkCellType, List</text>
<text text-anchor="start" x="166.5" y="-571.5" font-family="Helvetica,sans-Serif" font-size="10.00">&lt; Vector3 &gt; &gt; chunkCells</text>
<text text-anchor="start" x="166.5" y="-560.5" font-family="Helvetica,sans-Serif" font-size="10.00">&#45; List&lt; Vector3Int &gt; roads</text>
<text text-anchor="start" x="166.5" y="-549.5" font-family="Helvetica,sans-Serif" font-size="10.00">&#45; Dictionary&lt; ChunkCellType, List</text>
<text text-anchor="start" x="166.5" y="-538.5" font-family="Helvetica,sans-Serif" font-size="10.00">&lt; GameObject &gt; &gt; objectsToCombine</text>
<text text-anchor="start" x="166.5" y="-527.5" font-family="Helvetica,sans-Serif" font-size="10.00">&#45; float</text>
<polyline fill="none" stroke="black" points="158.5,-520.5 397.5,-520.5 "/>
<text text-anchor="start" x="166.5" y="-508.5" font-family="Helvetica,sans-Serif" font-size="10.00">+ void Display()</text>
<text text-anchor="start" x="166.5" y="-497.5" font-family="Helvetica,sans-Serif" font-size="10.00">+ async Task InitChunk(int col, int</text>
<text text-anchor="start" x="166.5" y="-486.5" font-family="Helvetica,sans-Serif" font-size="10.00"> row, List&lt; EdgeRoadContainer &gt; edgeRoads,</text>
<text text-anchor="start" x="166.5" y="-475.5" font-family="Helvetica,sans-Serif" font-size="10.00"> GameWorld world)</text>
<text text-anchor="start" x="166.5" y="-464.5" font-family="Helvetica,sans-Serif" font-size="10.00">+ void HideChunk()</text>
<text text-anchor="start" x="166.5" y="-453.5" font-family="Helvetica,sans-Serif" font-size="10.00">+ Vector3 GetARandomRoad()</text>
<text text-anchor="start" x="166.5" y="-442.5" font-family="Helvetica,sans-Serif" font-size="10.00">+ async Task SpawnWorldObjects()</text>
<text text-anchor="start" x="166.5" y="-431.5" font-family="Helvetica,sans-Serif" font-size="10.00">+ static void InitUniTaskLoop()</text>
<text text-anchor="start" x="166.5" y="-420.5" font-family="Helvetica,sans-Serif" font-size="10.00">&#45; async void Awake()</text>
<text text-anchor="start" x="166.5" y="-409.5" font-family="Helvetica,sans-Serif" font-size="10.00">&#45; void BuildingLoaded(GameObject building)</text>
<text text-anchor="start" x="166.5" y="-398.5" font-family="Helvetica,sans-Serif" font-size="10.00">&#45; void PropLoaded(GameObject prop)</text>
<text text-anchor="start" x="166.5" y="-387.5" font-family="Helvetica,sans-Serif" font-size="10.00">&#45; float GetAbsolutePosition()</text>
<text text-anchor="start" x="166.5" y="-376.5" font-family="Helvetica,sans-Serif" font-size="10.00">&#45; void LoadFromSettings()</text>
<text text-anchor="start" x="166.5" y="-365.5" font-family="Helvetica,sans-Serif" font-size="10.00">&#45; void CreateTiles()</text>
<text text-anchor="start" x="166.5" y="-354.5" font-family="Helvetica,sans-Serif" font-size="10.00">&#45; ChunkCellContainer DetermineRoadType</text>
<text text-anchor="start" x="166.5" y="-343.5" font-family="Helvetica,sans-Serif" font-size="10.00">(int col, int row)</text>
<text text-anchor="start" x="166.5" y="-332.5" font-family="Helvetica,sans-Serif" font-size="10.00">&#45; ChunkCellContainer DetermineTileType</text>
<text text-anchor="start" x="166.5" y="-321.5" font-family="Helvetica,sans-Serif" font-size="10.00">(int x, int z)</text>
<text text-anchor="start" x="166.5" y="-310.5" font-family="Helvetica,sans-Serif" font-size="10.00">&#45; void GenerateCellMatrix()</text>
<text text-anchor="start" x="166.5" y="-299.5" font-family="Helvetica,sans-Serif" font-size="10.00">&#45; IEnumerator AddRoadBuildings()</text>
<text text-anchor="start" x="166.5" y="-288.5" font-family="Helvetica,sans-Serif" font-size="10.00">&#45; IEnumerator AddEnvironmentProps()</text>
<text text-anchor="start" x="166.5" y="-277.5" font-family="Helvetica,sans-Serif" font-size="10.00">&#45; void LockAndTryToPlaceBuilding(int</text>
<text text-anchor="start" x="166.5" y="-266.5" font-family="Helvetica,sans-Serif" font-size="10.00"> index, int row, int col)</text>
<text text-anchor="start" x="166.5" y="-255.5" font-family="Helvetica,sans-Serif" font-size="10.00">&#45; async Task&lt; Chunk[,]&gt; GetNearbyChunks</text>
<text text-anchor="start" x="166.5" y="-244.5" font-family="Helvetica,sans-Serif" font-size="10.00">(int row, int col)</text>
</a>
</g>
</g>
<!-- Node5 -->
<g id="node5" class="node">
<title>Node5</title>
<g id="a_node5"><a xlink:href="classGame_1_1World_1_1GameWorld.html" target="_top" xlink:title="A class for handling chunk loading and unloading">
<polygon fill="white" stroke="black" points="0,-33.5 0,-156.5 248,-156.5 248,-33.5 0,-33.5"/>
<text text-anchor="middle" x="124" y="-144.5" font-family="Helvetica,sans-Serif" font-size="10.00">Game.World.GameWorld</text>
<polyline fill="none" stroke="black" points="0,-137.5 248,-137.5 "/>
<text text-anchor="start" x="8" y="-125.5" font-family="Helvetica,sans-Serif" font-size="10.00">&#45; GameObject ChunkPrefab</text>
<polyline fill="none" stroke="black" points="0,-118.5 248,-118.5 "/>
<text text-anchor="start" x="8" y="-106.5" font-family="Helvetica,sans-Serif" font-size="10.00">+ Chunk GetChunk(Vector3 GameObjectPos)</text>
<text text-anchor="start" x="8" y="-95.5" font-family="Helvetica,sans-Serif" font-size="10.00">+ async Task CreateNewGame()</text>
<text text-anchor="start" x="8" y="-84.5" font-family="Helvetica,sans-Serif" font-size="10.00">+ async Task LoadChunk(int x, int z)</text>
<text text-anchor="start" x="8" y="-73.5" font-family="Helvetica,sans-Serif" font-size="10.00">+ void HideChunk(int col, int row)</text>
<text text-anchor="start" x="8" y="-62.5" font-family="Helvetica,sans-Serif" font-size="10.00">+ Chunk GetChunkWithoutLoad(int col, int row)</text>
<text text-anchor="start" x="8" y="-51.5" font-family="Helvetica,sans-Serif" font-size="10.00">+ async Task&lt; Chunk &gt; GetChunk(int</text>
<text text-anchor="start" x="8" y="-40.5" font-family="Helvetica,sans-Serif" font-size="10.00"> col, int row)</text>
</a>
</g>
</g>
<!-- Node1&#45;&gt;Node5 -->
<g id="edge6" class="edge">
<title>Node1&#45;&gt;Node5</title>
<path fill="none" stroke="#404040" d="M213.17,-237.18C209.32,-227.24 205.27,-217.48 201,-208 194.77,-194.16 186.81,-180.21 178.39,-167.07"/>
<polygon fill="none" stroke="#404040" points="178.17,-166.74 171.53,-163.94 171.56,-156.73 178.2,-159.53 178.17,-166.74"/>
<text text-anchor="middle" x="226.5" y="-211" font-family="Helvetica,sans-Serif" font-size="10.00"> &#45;Chunks</text>
</g>
<!-- Node6 -->
<g id="node6" class="node">
<title>Node6</title>
<g id="a_node6"><a xlink:href="classGame_1_1World_1_1RoadGenerator.html" target="_top" xlink:title="Generates a new road structure">
<polygon fill="white" stroke="black" points="266.5,-0.5 266.5,-189.5 537.5,-189.5 537.5,-0.5 266.5,-0.5"/>
<text text-anchor="middle" x="402" y="-177.5" font-family="Helvetica,sans-Serif" font-size="10.00">Game.World.RoadGenerator</text>
<polyline fill="none" stroke="black" points="266.5,-170.5 537.5,-170.5 "/>
<text text-anchor="start" x="274.5" y="-158.5" font-family="Helvetica,sans-Serif" font-size="10.00">+ int NumberOfEdgeRoads</text>
<text text-anchor="start" x="274.5" y="-147.5" font-family="Helvetica,sans-Serif" font-size="10.00">+ bool[,] RoadMatrix</text>
<text text-anchor="start" x="274.5" y="-136.5" font-family="Helvetica,sans-Serif" font-size="10.00">+ List&lt; EdgeRoadContainer &gt; EdgeRoads</text>
<text text-anchor="start" x="274.5" y="-125.5" font-family="Helvetica,sans-Serif" font-size="10.00">&#45; int size</text>
<text text-anchor="start" x="274.5" y="-114.5" font-family="Helvetica,sans-Serif" font-size="10.00">&#45; int numberOfPlacedRoads</text>
<text text-anchor="start" x="274.5" y="-103.5" font-family="Helvetica,sans-Serif" font-size="10.00">&#45; bool[,] lockRoad</text>
<polyline fill="none" stroke="black" points="266.5,-96.5 537.5,-96.5 "/>
<text text-anchor="start" x="274.5" y="-84.5" font-family="Helvetica,sans-Serif" font-size="10.00">+ RoadGenerator(int size, List&lt; EdgeRoadContainer</text>
<text text-anchor="start" x="274.5" y="-73.5" font-family="Helvetica,sans-Serif" font-size="10.00"> &gt; startPositions, Chunk[,] nearbyChunks)</text>
<text text-anchor="start" x="274.5" y="-62.5" font-family="Helvetica,sans-Serif" font-size="10.00">&#45; void CreateRoad(Vector2Int roadPos,</text>
<text text-anchor="start" x="274.5" y="-51.5" font-family="Helvetica,sans-Serif" font-size="10.00"> Vector2Int roadDir, int forwardCounter=0)</text>
<text text-anchor="start" x="274.5" y="-40.5" font-family="Helvetica,sans-Serif" font-size="10.00">&#45; bool GoinTowardsEdge(Vector2Int</text>
<text text-anchor="start" x="274.5" y="-29.5" font-family="Helvetica,sans-Serif" font-size="10.00"> position, Vector2Int dir)</text>
<text text-anchor="start" x="274.5" y="-18.5" font-family="Helvetica,sans-Serif" font-size="10.00">&#45; bool CheckForward(Vector2Int position,</text>
<text text-anchor="start" x="274.5" y="-7.5" font-family="Helvetica,sans-Serif" font-size="10.00"> Vector2Int dir, int counter)</text>
</a>
</g>
</g>
<!-- Node1&#45;&gt;Node6 -->
<g id="edge8" class="edge">
<title>Node1&#45;&gt;Node6</title>
<path fill="none" stroke="#404040" d="M281.15,-237.39C284.26,-227.34 287.86,-217.51 292,-208 293.11,-205.46 294.3,-202.95 295.56,-200.46"/>
<polygon fill="none" stroke="#404040" points="295.71,-200.21 295.16,-193.02 301.59,-189.75 302.14,-196.94 295.71,-200.21"/>
<text text-anchor="middle" x="330.5" y="-211" font-family="Helvetica,sans-Serif" font-size="10.00"> &#45;nearbyChunks</text>
</g>
<!-- Node2 -->
<g id="node2" class="node">
<title>Node2</title>
<g id="a_node2"><a xlink:href="classUtility_1_1ThreadSafeMonoBehaviour.html" target="_top" xlink:title="Safely stores if the gameobject been destroyed in a bool">
<polygon fill="white" stroke="black" points="49.5,-870.5 49.5,-927.5 198.5,-927.5 198.5,-870.5 49.5,-870.5"/>
<text text-anchor="middle" x="124" y="-915.5" font-family="Helvetica,sans-Serif" font-size="10.00">ThreadSafeMonoBehaviour</text>
<polyline fill="none" stroke="black" points="49.5,-908.5 198.5,-908.5 "/>
<text text-anchor="start" x="57.5" y="-896.5" font-family="Helvetica,sans-Serif" font-size="10.00">+ bool Destroyed</text>
<polyline fill="none" stroke="black" points="49.5,-889.5 198.5,-889.5 "/>
<text text-anchor="start" x="57.5" y="-877.5" font-family="Helvetica,sans-Serif" font-size="10.00"># void OnDestroy()</text>
</a>
</g>
</g>
<!-- Node2&#45;&gt;Node1 -->
<g id="edge1" class="edge">
<title>Node2&#45;&gt;Node1</title>
<path fill="none" stroke="midnightblue" d="M139.22,-860.64C145.86,-844.34 154.28,-823.66 163.69,-800.59"/>
<polygon fill="none" stroke="midnightblue" points="135.86,-859.62 135.32,-870.2 142.34,-862.26 135.86,-859.62"/>
</g>
<!-- Node2&#45;&gt;Node5 -->
<g id="edge5" class="edge">
<title>Node2&#45;&gt;Node5</title>
<path fill="none" stroke="midnightblue" d="M124,-860.3C124,-732.35 124,-313.89 124,-156.54"/>
<polygon fill="none" stroke="midnightblue" points="120.5,-860.39 124,-870.39 127.5,-860.39 120.5,-860.39"/>
</g>
<!-- Node3 -->
<g id="node3" class="node">
<title>Node3</title>
<g id="a_node3"><a xlink:title=" ">
<polygon fill="white" stroke="#bfbfbf" points="77.5,-987.5 77.5,-1044.5 170.5,-1044.5 170.5,-987.5 77.5,-987.5"/>
<text text-anchor="middle" x="124" y="-1032.5" font-family="Helvetica,sans-Serif" font-size="10.00">MonoBehaviour</text>
<polyline fill="none" stroke="#bfbfbf" points="77.5,-1025.5 170.5,-1025.5 "/>
<text text-anchor="middle" x="124" y="-1013.5" font-family="Helvetica,sans-Serif" font-size="10.00"> </text>
<polyline fill="none" stroke="#bfbfbf" points="77.5,-1006.5 170.5,-1006.5 "/>
<text text-anchor="middle" x="124" y="-994.5" font-family="Helvetica,sans-Serif" font-size="10.00"> </text>
</a>
</g>
</g>
<!-- Node3&#45;&gt;Node2 -->
<g id="edge2" class="edge">
<title>Node3&#45;&gt;Node2</title>
<path fill="none" stroke="midnightblue" d="M124,-977.24C124,-961.09 124,-942.57 124,-927.72"/>
<polygon fill="none" stroke="midnightblue" points="120.5,-977.45 124,-987.45 127.5,-977.45 120.5,-977.45"/>
</g>
<!-- Node4 -->
<g id="node4" class="node">
<title>Node4</title>
<g id="a_node4"><a xlink:title=" ">
<polygon fill="white" stroke="#bfbfbf" points="217,-848.5 217,-949.5 401,-949.5 401,-848.5 217,-848.5"/>
<text text-anchor="middle" x="309" y="-937.5" font-family="Helvetica,sans-Serif" font-size="10.00">Game.World.BuildingCell</text>
<polyline fill="none" stroke="#bfbfbf" points="217,-930.5 401,-930.5 "/>
<text text-anchor="start" x="225" y="-918.5" font-family="Helvetica,sans-Serif" font-size="10.00">+ BuildingDirection RoadDirection</text>
<text text-anchor="start" x="225" y="-907.5" font-family="Helvetica,sans-Serif" font-size="10.00">+ bool Buildable</text>
<text text-anchor="start" x="225" y="-896.5" font-family="Helvetica,sans-Serif" font-size="10.00">+ bool GotRoadNext</text>
<polyline fill="none" stroke="#bfbfbf" points="217,-889.5 401,-889.5 "/>
<text text-anchor="start" x="225" y="-877.5" font-family="Helvetica,sans-Serif" font-size="10.00">+ BuildingCell(BuildingDirection</text>
<text text-anchor="start" x="225" y="-866.5" font-family="Helvetica,sans-Serif" font-size="10.00"> roadDirection, bool buildable)</text>
<text text-anchor="start" x="225" y="-855.5" font-family="Helvetica,sans-Serif" font-size="10.00">+ void Occupy()</text>
</a>
</g>
</g>
<!-- Node4&#45;&gt;Node1 -->
<g id="edge3" class="edge">
<title>Node4&#45;&gt;Node1</title>
<path fill="none" stroke="#404040" d="M304.92,-848.19C304.05,-837.6 303.07,-825.7 302.02,-812.88"/>
<polygon fill="none" stroke="#404040" points="302.01,-812.81 297.54,-807.16 301.03,-800.85 305.51,-806.51 302.01,-812.81"/>
<text text-anchor="middle" x="339" y="-822" font-family="Helvetica,sans-Serif" font-size="10.00"> &#45;buildingCells</text>
</g>
<!-- Node5&#45;&gt;Node1 -->
<g id="edge4" class="edge">
<title>Node5&#45;&gt;Node1</title>
<path fill="none" stroke="#404040" d="M144.98,-156.77C151.91,-176.63 159.71,-198.78 167,-219 167.81,-221.25 168.62,-223.5 169.44,-225.77"/>
<polygon fill="none" stroke="#404040" points="169.48,-225.87 175.28,-230.15 173.56,-237.15 167.76,-232.87 169.48,-225.87"/>
<text text-anchor="middle" x="184" y="-211" font-family="Helvetica,sans-Serif" font-size="10.00"> &#45;world</text>
</g>
<!-- Node6&#45;&gt;Node1 -->
<g id="edge7" class="edge">
<title>Node6&#45;&gt;Node1</title>
<path fill="none" stroke="#404040" d="M380.73,-189.54C378.23,-199.51 375.63,-209.48 373,-219 372.4,-221.17 371.8,-223.35 371.19,-225.53"/>
<polygon fill="none" stroke="#404040" points="371.13,-225.73 373.35,-232.59 367.88,-237.28 365.65,-230.42 371.13,-225.73"/>
<text text-anchor="middle" x="414" y="-211" font-family="Helvetica,sans-Serif" font-size="10.00"> &#45;roadGenerator</text>
</g>
</g>
</svg>
