<?xml version="1.0" encoding="UTF-8" standalone="no"?>
<!DOCTYPE svg PUBLIC "-//W3C//DTD SVG 1.1//EN"
 "http://www.w3.org/Graphics/SVG/1.1/DTD/svg11.dtd">
<!-- Generated by graphviz version 2.43.0 (0)
 -->
<!-- Title: Utility.ThreadSafeMonoBehaviour Pages: 1 -->
<svg width="188pt" height="160pt"
 viewBox="0.00 0.00 188.00 160.00" xmlns="http://www.w3.org/2000/svg" xmlns:xlink="http://www.w3.org/1999/xlink">
<g id="graph0" class="graph" transform="scale(1 1) rotate(0) translate(4 156)">
<title>Utility.ThreadSafeMonoBehaviour</title>
<polygon fill="white" stroke="transparent" points="-4,4 -4,-156 184,-156 184,4 -4,4"/>
<!-- Node1 -->
<g id="node1" class="node">
<title>Node1</title>
<g id="a_node1"><a xlink:title="Safely stores if the gameobject been destroyed in a bool">
<polygon fill="#bfbfbf" stroke="black" points="0,-0.5 0,-57.5 180,-57.5 180,-0.5 0,-0.5"/>
<text text-anchor="middle" x="90" y="-45.5" font-family="Helvetica,sans-Serif" font-size="10.00">Utility.ThreadSafeMonoBehaviour</text>
<polyline fill="none" stroke="black" points="0,-38.5 180,-38.5 "/>
<text text-anchor="start" x="8" y="-26.5" font-family="Helvetica,sans-Serif" font-size="10.00">+ bool Destroyed</text>
<polyline fill="none" stroke="black" points="0,-19.5 180,-19.5 "/>
<text text-anchor="start" x="8" y="-7.5" font-family="Helvetica,sans-Serif" font-size="10.00"># void OnDestroy()</text>
</a>
</g>
</g>
<!-- Node2 -->
<g id="node2" class="node">
<title>Node2</title>
<g id="a_node2"><a xlink:title=" ">
<polygon fill="white" stroke="#bfbfbf" points="43.5,-94.5 43.5,-151.5 136.5,-151.5 136.5,-94.5 43.5,-94.5"/>
<text text-anchor="middle" x="90" y="-139.5" font-family="Helvetica,sans-Serif" font-size="10.00">MonoBehaviour</text>
<polyline fill="none" stroke="#bfbfbf" points="43.5,-132.5 136.5,-132.5 "/>
<text text-anchor="middle" x="90" y="-120.5" font-family="Helvetica,sans-Serif" font-size="10.00"> </text>
<polyline fill="none" stroke="#bfbfbf" points="43.5,-113.5 136.5,-113.5 "/>
<text text-anchor="middle" x="90" y="-101.5" font-family="Helvetica,sans-Serif" font-size="10.00"> </text>
</a>
</g>
</g>
<!-- Node2&#45;&gt;Node1 -->
<g id="edge1" class="edge">
<title>Node2&#45;&gt;Node1</title>
<path fill="none" stroke="midnightblue" d="M90,-84.21C90,-75.29 90,-65.95 90,-57.58"/>
<polygon fill="none" stroke="midnightblue" points="86.5,-84.4 90,-94.4 93.5,-84.4 86.5,-84.4"/>
</g>
</g>
</svg>
