<?xml version="1.0" encoding="UTF-8" standalone="no"?>
<!DOCTYPE svg PUBLIC "-//W3C//DTD SVG 1.1//EN"
 "http://www.w3.org/Graphics/SVG/1.1/DTD/svg11.dtd">
<!-- Generated by graphviz version 2.43.0 (0)
 -->
<!-- Title: Game.GameController.ValidateAndLoadChunk Pages: 1 -->
<!--zoomable 214 -->

<svg id="main" version="1.1" xmlns="http://www.w3.org/2000/svg" xmlns:xlink="http://www.w3.org/1999/xlink" xml:space="preserve" onload="init(evt)">
<style type="text/css"><![CDATA[
.node, .edge {opacity: 0.7;}
.node.selected, .edge.selected {opacity: 1;}
.edge:hover path { stroke: red; }
.edge:hover polygon { stroke: red; fill: red; }
]]></style>

<defs>
  <circle id="rim" cx="0" cy="0" r="7"/>
  <circle id="rim2" cx="0" cy="0" r="3.5"/>
  <g id="zoomPlus">
    <use xlink:href="#rim" fill="#404040"><set attributeName="fill" to="#808080" begin="zoomplus.mouseover" end="zoomplus.mouseout"/></use>
    <path d="M-4,0h8M0,-4v8" fill="none" stroke="white" stroke-width="1.5" pointer-events="none"/>
  </g>
  <g id="zoomMin">
    <use xlink:href="#rim" fill="#404040"><set attributeName="fill" to="#808080" begin="zoomminus.mouseover" end="zoomminus.mouseout"/></use>
    <path d="M-4,0h8" fill="none" stroke="white" stroke-width="1.5" pointer-events="none"/>
  </g>
  <g id="arrowUp" transform="translate(30 24)">
    <use xlink:href="#rim"/>
    <path pointer-events="none" fill="none" stroke="white" stroke-width="1.5" d="M0,-3.0v7 M-2.5,-0.5L0,-3.0L2.5,-0.5"/>
  </g>
  <g id="arrowRight" transform="rotate(90) translate(36 -43)">
    <use xlink:href="#rim"/>
    <path pointer-events="none" fill="none" stroke="white" stroke-width="1.5" d="M0,-3.0v7 M-2.5,-0.5L0,-3.0L2.5,-0.5"/>
  </g>
  <g id="arrowDown" transform="rotate(180) translate(-30 -48)">
    <use xlink:href="#rim"/>
    <path pointer-events="none" fill="none" stroke="white" stroke-width="1.5" d="M0,-3.0v7 M-2.5,-0.5L0,-3.0L2.5,-0.5"/>
  </g>
  <g id="arrowLeft" transform="rotate(270) translate(-36 17)">
    <use xlink:href="#rim"/>
    <path pointer-events="none" fill="none" stroke="white" stroke-width="1.5" d="M0,-3.0v7 M-2.5,-0.5L0,-3.0L2.5,-0.5"/>
  </g>
  <g id="resetDef">
    <use xlink:href="#rim2" fill="#404040"><set attributeName="fill" to="#808080" begin="reset.mouseover" end="reset.mouseout"/></use>
  </g>
</defs>
<script type="application/ecmascript">
var viewWidth = 1735;
var viewHeight = 214;
var sectionId = 'dynsection-16';
</script>
<script type="application/ecmascript" xlink:href="svg.min.js"/>
<svg id="graph" class="graph">
<g id="viewport">
<title>Game.GameController.ValidateAndLoadChunk</title>
<!-- Node1 -->
<g id="Node000001" class="node">
<title>Node1</title>
<g id="a_Node000001"><a xlink:title="Checks if the selected chunk is in range and loads it if the world exists.">
<polygon fill="#999999" stroke="#666666" points="241,-187 0,-187 0,-168 241,-168 241,-187"/>
<text text-anchor="middle" x="120.5" y="-175" font-family="Helvetica,sans-Serif" font-size="10.00">Game.GameController.ValidateAndLoadChunk</text>
</a>
</g>
</g>
<!-- Node2 -->
<g id="Node000002" class="node">
<title>Node2</title>
<g id="a_Node000002"><a xlink:href="classGame_1_1World_1_1GameWorld.html#a730e116826e3519544de155b667042ba" target="_top" xlink:title="Loads a chunk.">
<polygon fill="white" stroke="#666666" points="471,-187 277,-187 277,-168 471,-168 471,-187"/>
<text text-anchor="middle" x="374" y="-175" font-family="Helvetica,sans-Serif" font-size="10.00">Game.World.GameWorld.LoadChunk</text>
</a>
</g>
</g>
<!-- Node1&#45;&gt;Node2 -->
<g id="edge1_Node000001_Node000002" class="edge">
<title>Node1&#45;&gt;Node2</title>
<g id="a_edge1_Node000001_Node000002"><a xlink:title=" ">
<path fill="none" stroke="#63b8ff" d="M241.36,-177.5C249.81,-177.5 258.3,-177.5 266.68,-177.5"/>
<polygon fill="#63b8ff" stroke="#63b8ff" points="266.82,-181 276.82,-177.5 266.82,-174 266.82,-181"/>
</a>
</g>
</g>
<!-- Node3 -->
<g id="Node000003" class="node">
<title>Node3</title>
<g id="a_Node000003"><a xlink:href="classGame_1_1World_1_1Chunk.html#a475512064d145228ca7084735b7e2f2f" target="_top" xlink:title="Show the chunk.">
<polygon fill="white" stroke="#666666" points="662,-206 512,-206 512,-187 662,-187 662,-206"/>
<text text-anchor="middle" x="587" y="-194" font-family="Helvetica,sans-Serif" font-size="10.00">Game.World.Chunk.Display</text>
</a>
</g>
</g>
<!-- Node2&#45;&gt;Node3 -->
<g id="edge2_Node000002_Node000003" class="edge">
<title>Node2&#45;&gt;Node3</title>
<g id="a_edge2_Node000002_Node000003"><a xlink:title=" ">
<path fill="none" stroke="#63b8ff" d="M471.24,-186.17C481.32,-187.07 491.52,-187.99 501.46,-188.89"/>
<polygon fill="#63b8ff" stroke="#63b8ff" points="501.43,-192.4 511.71,-189.81 502.06,-185.43 501.43,-192.4"/>
</a>
</g>
</g>
<!-- Node4 -->
<g id="Node000004" class="node">
<title>Node4</title>
<g id="a_Node000004"><a xlink:href="classGame_1_1World_1_1Chunk.html#a0616c2f9600a4bcc1dbe97a93a947e7a" target="_top" xlink:title="Initialize the chunk.">
<polygon fill="white" stroke="#666666" points="667,-169 507,-169 507,-150 667,-150 667,-169"/>
<text text-anchor="middle" x="587" y="-157" font-family="Helvetica,sans-Serif" font-size="10.00">Game.World.Chunk.InitChunk</text>
</a>
</g>
</g>
<!-- Node2&#45;&gt;Node4 -->
<g id="edge3_Node000002_Node000004" class="edge">
<title>Node2&#45;&gt;Node4</title>
<g id="a_edge3_Node000002_Node000004"><a xlink:title=" ">
<path fill="none" stroke="#63b8ff" d="M471.24,-169.29C479.74,-168.57 488.32,-167.83 496.76,-167.11"/>
<polygon fill="#63b8ff" stroke="#63b8ff" points="497.3,-170.58 506.96,-166.24 496.7,-163.61 497.3,-170.58"/>
</a>
</g>
</g>
<!-- Node5 -->
<g id="Node000005" class="node">
<title>Node5</title>
<g id="a_Node000005"><a xlink:href="classGame_1_1World_1_1Chunk.html#aac3343253a33a36a09318ebc76bd9f08" target="_top" xlink:title="Creates the tiles for the chunk.">
<polygon fill="white" stroke="#666666" points="892.5,-206 723.5,-206 723.5,-187 892.5,-187 892.5,-206"/>
<text text-anchor="middle" x="808" y="-194" font-family="Helvetica,sans-Serif" font-size="10.00">Game.World.Chunk.CreateTiles</text>
</a>
</g>
</g>
<!-- Node4&#45;&gt;Node5 -->
<g id="edge4_Node000004_Node000005" class="edge">
<title>Node4&#45;&gt;Node5</title>
<g id="a_edge4_Node000004_Node000005"><a xlink:title=" ">
<path fill="none" stroke="#63b8ff" d="M644.4,-169.03C673.66,-173.97 709.6,-180.04 740.24,-185.22"/>
<polygon fill="#63b8ff" stroke="#63b8ff" points="739.97,-188.72 750.41,-186.94 741.14,-181.82 739.97,-188.72"/>
</a>
</g>
</g>
<!-- Node8 -->
<g id="Node000008" class="node">
<title>Node8</title>
<g id="a_Node000008"><a xlink:href="classGame_1_1World_1_1Chunk.html#a1fb214fa85481a42c651b9d6b0d45cb9" target="_top" xlink:title="Gets tthe nearby chunks.">
<polygon fill="white" stroke="#666666" points="909,-169 707,-169 707,-150 909,-150 909,-169"/>
<text text-anchor="middle" x="808" y="-157" font-family="Helvetica,sans-Serif" font-size="10.00">Game.World.Chunk.GetNearbyChunks</text>
</a>
</g>
</g>
<!-- Node4&#45;&gt;Node8 -->
<g id="edge7_Node000004_Node000008" class="edge">
<title>Node4&#45;&gt;Node8</title>
<g id="a_edge7_Node000004_Node000008"><a xlink:title=" ">
<path fill="none" stroke="#63b8ff" d="M667.06,-159.5C676.61,-159.5 686.5,-159.5 696.39,-159.5"/>
<polygon fill="#63b8ff" stroke="#63b8ff" points="696.69,-163 706.69,-159.5 696.69,-156 696.69,-163"/>
</a>
</g>
</g>
<!-- Node10 -->
<g id="Node000010" class="node">
<title>Node10</title>
<g id="a_Node000010"><a xlink:href="classGame_1_1World_1_1Chunk.html#a08f4b5e8b362b98f4b3f01225d12b4af" target="_top" xlink:title="Spawns the buildings and the props on a seperate thread.">
<polygon fill="white" stroke="#666666" points="913,-93 703,-93 703,-74 913,-74 913,-93"/>
<text text-anchor="middle" x="808" y="-81" font-family="Helvetica,sans-Serif" font-size="10.00">Game.World.Chunk.SpawnWorldObjects</text>
</a>
</g>
</g>
<!-- Node4&#45;&gt;Node10 -->
<g id="edge9_Node000004_Node000010" class="edge">
<title>Node4&#45;&gt;Node10</title>
<g id="a_edge9_Node000004_Node000010"><a xlink:title=" ">
<path fill="none" stroke="#63b8ff" d="M615.74,-149.87C654.82,-136.31 726.18,-111.55 769.82,-96.4"/>
<polygon fill="#63b8ff" stroke="#63b8ff" points="771.19,-99.63 779.49,-93.05 768.89,-93.02 771.19,-99.63"/>
</a>
</g>
</g>
<!-- Node6 -->
<g id="Node000006" class="node">
<title>Node6</title>
<g id="a_Node000006"><a xlink:href="classGame_1_1World_1_1Chunk.html#ac4b762352bb5f90952fe57e5c0ee208f" target="_top" xlink:title="Determines the type of the tile at the coord.">
<polygon fill="white" stroke="#666666" points="1176.5,-206 970.5,-206 970.5,-187 1176.5,-187 1176.5,-206"/>
<text text-anchor="middle" x="1073.5" y="-194" font-family="Helvetica,sans-Serif" font-size="10.00">Game.World.Chunk.DetermineTileType</text>
</a>
</g>
</g>
<!-- Node5&#45;&gt;Node6 -->
<g id="edge5_Node000005_Node000006" class="edge">
<title>Node5&#45;&gt;Node6</title>
<g id="a_edge5_Node000005_Node000006"><a xlink:title=" ">
<path fill="none" stroke="#63b8ff" d="M892.74,-196.5C914.04,-196.5 937.28,-196.5 959.76,-196.5"/>
<polygon fill="#63b8ff" stroke="#63b8ff" points="960.03,-200 970.03,-196.5 960.03,-193 960.03,-200"/>
</a>
</g>
</g>
<!-- Node7 -->
<g id="Node000007" class="node">
<title>Node7</title>
<g id="a_Node000007"><a xlink:href="classGame_1_1World_1_1Chunk.html#a2d39efc9f5c0f3c302dd7e9d007096c7" target="_top" xlink:title="Determine what type of road it is.">
<polygon fill="white" stroke="#666666" points="1462.5,-206 1250.5,-206 1250.5,-187 1462.5,-187 1462.5,-206"/>
<text text-anchor="middle" x="1356.5" y="-194" font-family="Helvetica,sans-Serif" font-size="10.00">Game.World.Chunk.DetermineRoadType</text>
</a>
</g>
</g>
<!-- Node6&#45;&gt;Node7 -->
<g id="edge6_Node000006_Node000007" class="edge">
<title>Node6&#45;&gt;Node7</title>
<g id="a_edge6_Node000006_Node000007"><a xlink:title=" ">
<path fill="none" stroke="#63b8ff" d="M1176.74,-196.5C1197.24,-196.5 1218.91,-196.5 1239.83,-196.5"/>
<polygon fill="#63b8ff" stroke="#63b8ff" points="1240.03,-200 1250.03,-196.5 1240.03,-193 1240.03,-200"/>
</a>
</g>
</g>
<!-- Node9 -->
<g id="Node000009" class="node">
<title>Node9</title>
<g id="a_Node000009"><a xlink:href="classGame_1_1World_1_1GameWorld.html#a6188226b54eb7e38659cbe8d9d76b620" target="_top" xlink:title="Get the chunk without trying it to load.">
<polygon fill="white" stroke="#666666" points="1198,-169 949,-169 949,-150 1198,-150 1198,-169"/>
<text text-anchor="middle" x="1073.5" y="-157" font-family="Helvetica,sans-Serif" font-size="10.00">Game.World.GameWorld.GetChunkWithoutLoad</text>
</a>
</g>
</g>
<!-- Node8&#45;&gt;Node9 -->
<g id="edge8_Node000008_Node000009" class="edge">
<title>Node8&#45;&gt;Node9</title>
<g id="a_edge8_Node000008_Node000009"><a xlink:title=" ">
<path fill="none" stroke="#63b8ff" d="M909.37,-159.5C918.98,-159.5 928.82,-159.5 938.68,-159.5"/>
<polygon fill="#63b8ff" stroke="#63b8ff" points="938.95,-163 948.95,-159.5 938.95,-156 938.95,-163"/>
</a>
</g>
</g>
<!-- Node11 -->
<g id="Node000011" class="node">
<title>Node11</title>
<g id="a_Node000011"><a xlink:href="classGame_1_1World_1_1Chunk.html#a12ff4b268fb99d10493398cfe555b46c" target="_top" xlink:title=" ">
<polygon fill="white" stroke="#666666" points="1467,-131 1246,-131 1246,-112 1467,-112 1467,-131"/>
<text text-anchor="middle" x="1356.5" y="-119" font-family="Helvetica,sans-Serif" font-size="10.00">Game.World.Chunk.AddEnvironmentProps</text>
</a>
</g>
</g>
<!-- Node10&#45;&gt;Node11 -->
<g id="edge10_Node000010_Node000011" class="edge">
<title>Node10&#45;&gt;Node11</title>
<g id="a_edge10_Node000010_Node000011"><a xlink:title=" ">
<path fill="none" stroke="#63b8ff" d="M874.76,-93.04C898.16,-96.15 924.71,-99.34 949,-101.5 1045.18,-110.04 1154.51,-115.16 1235.54,-118.08"/>
<polygon fill="#63b8ff" stroke="#63b8ff" points="1235.66,-121.58 1245.78,-118.44 1235.91,-114.59 1235.66,-121.58"/>
</a>
</g>
</g>
<!-- Node13 -->
<g id="Node000013" class="node">
<title>Node13</title>
<g id="a_Node000013"><a xlink:href="classGame_1_1World_1_1Chunk.html#a00a9cd484ae1ddffec928a75f6b2db15" target="_top" xlink:title="Add the buildings which are next to the roads.">
<polygon fill="white" stroke="#666666" points="1174.5,-93 972.5,-93 972.5,-74 1174.5,-74 1174.5,-93"/>
<text text-anchor="middle" x="1073.5" y="-81" font-family="Helvetica,sans-Serif" font-size="10.00">Game.World.Chunk.AddRoadBuildings</text>
</a>
</g>
</g>
<!-- Node10&#45;&gt;Node13 -->
<g id="edge12_Node000010_Node000013" class="edge">
<title>Node10&#45;&gt;Node13</title>
<g id="a_edge12_Node000010_Node000013"><a xlink:title=" ">
<path fill="none" stroke="#63b8ff" d="M913.14,-83.5C929.22,-83.5 945.88,-83.5 962.1,-83.5"/>
<polygon fill="#63b8ff" stroke="#63b8ff" points="962.12,-87 972.12,-83.5 962.12,-80 962.12,-87"/>
</a>
</g>
</g>
<!-- Node15 -->
<g id="Node000015" class="node">
<title>Node15</title>
<g id="a_Node000015"><a xlink:href="classGame_1_1World_1_1Chunk.html#a443ede65d8aeb566a385cb3bcad9d8f7" target="_top" xlink:title="Generate the building cells matrix so we know which way the roads are.">
<polygon fill="white" stroke="#666666" points="1178,-56 969,-56 969,-37 1178,-37 1178,-56"/>
<text text-anchor="middle" x="1073.5" y="-44" font-family="Helvetica,sans-Serif" font-size="10.00">Game.World.Chunk.GenerateCellMatrix</text>
</a>
</g>
</g>
<!-- Node10&#45;&gt;Node15 -->
<g id="edge15_Node000010_Node000015" class="edge">
<title>Node10&#45;&gt;Node15</title>
<g id="a_edge15_Node000010_Node000015"><a xlink:title=" ">
<path fill="none" stroke="#63b8ff" d="M876.86,-73.97C912.68,-68.94 956.81,-62.74 994.09,-57.51"/>
<polygon fill="#63b8ff" stroke="#63b8ff" points="995,-60.92 1004.41,-56.06 994.03,-53.98 995,-60.92"/>
</a>
</g>
</g>
<!-- Node16 -->
<g id="Node000016" class="node">
<title>Node16</title>
<g id="a_Node000016"><a xlink:href="classUtility_1_1CoroutineRunner.html#a1c473dee723f16d86bab9d8475c8214a" target="_top" xlink:title="A helper method to start coroutines.">
<polygon fill="white" stroke="#666666" points="1172.5,-19 974.5,-19 974.5,0 1172.5,0 1172.5,-19"/>
<text text-anchor="middle" x="1073.5" y="-7" font-family="Helvetica,sans-Serif" font-size="10.00">Utility.CoroutineRunner.RunCoroutine</text>
</a>
</g>
</g>
<!-- Node10&#45;&gt;Node16 -->
<g id="edge16_Node000010_Node000016" class="edge">
<title>Node10&#45;&gt;Node16</title>
<g id="a_edge16_Node000010_Node000016"><a xlink:title=" ">
<path fill="none" stroke="#63b8ff" d="M828.89,-73.8C855.58,-61.19 904.76,-39.39 949,-27.5 958.49,-24.95 968.5,-22.73 978.55,-20.82"/>
<polygon fill="#63b8ff" stroke="#63b8ff" points="979.36,-24.23 988.58,-19.01 978.12,-17.34 979.36,-24.23"/>
</a>
</g>
</g>
<!-- Node12 -->
<g id="Node000012" class="node">
<title>Node12</title>
<g id="a_Node000012"><a xlink:href="classGame_1_1World_1_1Chunk.html#af37779d40ed9cd07b577d5bca61627b7" target="_top" xlink:title=" ">
<polygon fill="white" stroke="#666666" points="1727,-112 1515,-112 1515,-93 1727,-93 1727,-112"/>
<text text-anchor="middle" x="1621" y="-100" font-family="Helvetica,sans-Serif" font-size="10.00">Game.World.Chunk.GetAbsolutePosition</text>
</a>
</g>
</g>
<!-- Node11&#45;&gt;Node12 -->
<g id="edge11_Node000011_Node000012" class="edge">
<title>Node11&#45;&gt;Node12</title>
<g id="a_edge11_Node000011_Node000012"><a xlink:title=" ">
<path fill="none" stroke="#63b8ff" d="M1467.3,-113.55C1479.6,-112.66 1492.15,-111.75 1504.51,-110.86"/>
<polygon fill="#63b8ff" stroke="#63b8ff" points="1505.12,-114.32 1514.84,-110.11 1504.61,-107.34 1505.12,-114.32"/>
</a>
</g>
</g>
<!-- Node14 -->
<g id="Node000014" class="node">
<title>Node14</title>
<g id="a_Node000014"><a xlink:href="classGame_1_1World_1_1Chunk.html#af2946e1e1b9e325d6004d166b2b26193" target="_top" xlink:title="Lock the cell and try to place it.">
<polygon fill="white" stroke="#666666" points="1479,-94 1234,-94 1234,-75 1479,-75 1479,-94"/>
<text text-anchor="middle" x="1356.5" y="-82" font-family="Helvetica,sans-Serif" font-size="10.00">Game.World.Chunk.LockAndTryToPlaceBuilding</text>
</a>
</g>
</g>
<!-- Node13&#45;&gt;Node14 -->
<g id="edge13_Node000013_Node000014" class="edge">
<title>Node13&#45;&gt;Node14</title>
<g id="a_edge13_Node000013_Node000014"><a xlink:title=" ">
<path fill="none" stroke="#63b8ff" d="M1174.76,-83.86C1190.55,-83.91 1207.09,-83.97 1223.47,-84.03"/>
<polygon fill="#63b8ff" stroke="#63b8ff" points="1223.62,-87.53 1233.64,-84.07 1223.65,-80.53 1223.62,-87.53"/>
</a>
</g>
</g>
<!-- Node14&#45;&gt;Node12 -->
<g id="edge14_Node000014_Node000012" class="edge">
<title>Node14&#45;&gt;Node12</title>
<g id="a_edge14_Node000014_Node000012"><a xlink:title=" ">
<path fill="none" stroke="#63b8ff" d="M1479.14,-92.84C1487.63,-93.42 1496.17,-94.01 1504.62,-94.59"/>
<polygon fill="#63b8ff" stroke="#63b8ff" points="1504.66,-98.1 1514.87,-95.29 1505.14,-91.12 1504.66,-98.1"/>
</a>
</g>
</g>
</g>
</svg>

<g id="navigator" transform="translate(0 0)" fill="#404254">
  <rect fill="#f2f5e9" fill-opacity="0.5" stroke="#606060" stroke-width=".5" x="0" y="0" width="60" height="60"/>
  <use id="zoomplus" xlink:href="#zoomPlus" x="17" y="9" onmousedown="handleZoom(evt,'in')"/>
  <use id="zoomminus" xlink:href="#zoomMin" x="42" y="9" onmousedown="handleZoom(evt,'out')"/>
  <use id="reset" xlink:href="#resetDef" x="30" y="36" onmousedown="handleReset()"/>
   <use id="arrowup" xlink:href="#arrowUp" x="0" y="0" onmousedown="handlePan(0,-1)"/>
  <use id="arrowright" xlink:href="#arrowRight" x="0" y="0" onmousedown="handlePan(1,0)"/>
  <use id="arrowdown" xlink:href="#arrowDown" x="0" y="0" onmousedown="handlePan(0,1)"/>
  <use id="arrowleft" xlink:href="#arrowLeft" x="0" y="0" onmousedown="handlePan(-1,0)"/>
</g>
<svg viewBox="0 0 15 15" width="100%" height="30px" preserveAspectRatio="xMaxYMin meet">
 <g id="arrow_out" transform="scale(0.3 0.3)">
  <a xlink:href="classGame_1_1GameController_a9818f49a9c0638be6cc6449e5e5000f7_cgraph_org.svg" target="_base">
   <rect id="button" ry="5" rx="5" y="6" x="6" height="38" width="38"
        fill="#f2f5e9" fill-opacity="0.5" stroke="#606060" stroke-width="1.0"/>
   <path id="arrow"
     d="M 11.500037,31.436501 C 11.940474,20.09759 22.043105,11.32322 32.158766,21.979434 L 37.068811,17.246167 C 37.068811,17.246167 37.088388,32 37.088388,32 L 22.160133,31.978069 C 22.160133,31.978069 26.997745,27.140456 26.997745,27.140456 C 18.528582,18.264221 13.291696,25.230495 11.500037,31.436501 z"
     style="fill:#404040;"/>
  </a>
 </g>
</svg>

<style type='text/css'>
<![CDATA[
[data-mouse-over-selected='false'] { opacity: 0.7; }
[data-mouse-over-selected='true']  { opacity: 1.0; }
]]>
</style>
<script type="application/ecmascript"><![CDATA[
document.addEventListener('DOMContentLoaded', (event) => {
  highlightEdges();
  highlightAdjacentNodes();
});
]]></script>
</svg>
