<?xml version="1.0" encoding="UTF-8" standalone="no"?>
<!DOCTYPE svg PUBLIC "-//W3C//DTD SVG 1.1//EN"
 "http://www.w3.org/Graphics/SVG/1.1/DTD/svg11.dtd">
<!-- Generated by graphviz version 2.43.0 (0)
 -->
<!-- Title: Game.UI.LeaderboardWindow.LoadScores Pages: 1 -->
<svg width="711pt" height="154pt"
 viewBox="0.00 0.00 711.00 154.00" xmlns="http://www.w3.org/2000/svg" xmlns:xlink="http://www.w3.org/1999/xlink">
<g id="graph0" class="graph" transform="scale(1 1) rotate(0) translate(4 150)">
<title>Game.UI.LeaderboardWindow.LoadScores</title>
<polygon fill="white" stroke="transparent" points="-4,4 -4,-150 707,-150 707,4 -4,4"/>
<!-- Node1 -->
<g id="node1" class="node">
<title>Node1</title>
<g id="a_node1"><a xlink:title="Load the scores">
<polygon fill="#bfbfbf" stroke="black" points="0,-60.5 0,-79.5 220,-79.5 220,-60.5 0,-60.5"/>
<text text-anchor="middle" x="110" y="-67.5" font-family="Helvetica,sans-Serif" font-size="10.00">Game.UI.LeaderboardWindow.LoadScores</text>
</a>
</g>
</g>
<!-- Node2 -->
<g id="node2" class="node">
<title>Node2</title>
<g id="a_node2"><a xlink:href="classGame_1_1UI_1_1LeaderboardWindow.html#aa83c9458d4a3cf1ea754268c3c584416" target="_top" xlink:title="Callback after the scores were loaded">
<polygon fill="white" stroke="black" points="263.5,-126.5 263.5,-145.5 495.5,-145.5 495.5,-126.5 263.5,-126.5"/>
<text text-anchor="middle" x="379.5" y="-133.5" font-family="Helvetica,sans-Serif" font-size="10.00">Game.UI.LeaderboardWindow.LoadedScores</text>
</a>
</g>
</g>
<!-- Node1&#45;&gt;Node2 -->
<g id="edge1" class="edge">
<title>Node1&#45;&gt;Node2</title>
<path fill="none" stroke="midnightblue" d="M136.32,-79.57C164.98,-90.09 213.27,-106.83 256,-117 268.43,-119.96 281.68,-122.57 294.71,-124.83"/>
<polygon fill="midnightblue" stroke="midnightblue" points="294.17,-128.29 304.61,-126.49 295.32,-121.38 294.17,-128.29"/>
</g>
<!-- Node4 -->
<g id="node4" class="node">
<title>Node4</title>
<g id="a_node4"><a xlink:href="classConfig_1_1ServerConfig.html#ae1592f2810947e426b77b35e99934e4b" target="_top" xlink:title="Path to api endpoint to get all the game scores since the given time (limit 100)">
<polygon fill="white" stroke="black" points="284,-77 284,-107 475,-107 475,-77 284,-77"/>
<text text-anchor="start" x="292" y="-95" font-family="Helvetica,sans-Serif" font-size="10.00">Config.ServerConfig.PATH_FOR_GET</text>
<text text-anchor="middle" x="379.5" y="-84" font-family="Helvetica,sans-Serif" font-size="10.00">_GAME_SCORES</text>
</a>
</g>
</g>
<!-- Node1&#45;&gt;Node4 -->
<g id="edge3" class="edge">
<title>Node1&#45;&gt;Node4</title>
<path fill="none" stroke="midnightblue" d="M220.19,-78.98C237.82,-80.43 256.04,-81.93 273.57,-83.37"/>
<polygon fill="midnightblue" stroke="midnightblue" points="273.55,-86.88 283.8,-84.21 274.12,-79.9 273.55,-86.88"/>
</g>
<!-- Node5 -->
<g id="node5" class="node">
<title>Node5</title>
<g id="a_node5"><a xlink:href="classUtility_1_1CoroutineRunner.html#a1c473dee723f16d86bab9d8475c8214a" target="_top" xlink:title="A helper method to start coroutines">
<polygon fill="white" stroke="black" points="280.5,-38.5 280.5,-57.5 478.5,-57.5 478.5,-38.5 280.5,-38.5"/>
<text text-anchor="middle" x="379.5" y="-45.5" font-family="Helvetica,sans-Serif" font-size="10.00">Utility.CoroutineRunner.RunCoroutine</text>
</a>
</g>
</g>
<!-- Node1&#45;&gt;Node5 -->
<g id="edge4" class="edge">
<title>Node1&#45;&gt;Node5</title>
<path fill="none" stroke="midnightblue" d="M220.19,-61.02C236.7,-59.66 253.72,-58.26 270.22,-56.91"/>
<polygon fill="midnightblue" stroke="midnightblue" points="270.72,-60.38 280.4,-56.07 270.15,-53.4 270.72,-60.38"/>
</g>
<!-- Node6 -->
<g id="node6" class="node">
<title>Node6</title>
<g id="a_node6"><a xlink:href="classGame_1_1UI_1_1LeaderboardWindow.html#add244b5633e10a828542b586844e9ef2" target="_top" xlink:title="Show if the request failed in the modal">
<polygon fill="white" stroke="black" points="256,-0.5 256,-19.5 503,-19.5 503,-0.5 256,-0.5"/>
<text text-anchor="middle" x="379.5" y="-7.5" font-family="Helvetica,sans-Serif" font-size="10.00">Game.UI.LeaderboardWindow.ShowRequestFail</text>
</a>
</g>
</g>
<!-- Node1&#45;&gt;Node6 -->
<g id="edge5" class="edge">
<title>Node1&#45;&gt;Node6</title>
<path fill="none" stroke="midnightblue" d="M140.72,-60.45C169.85,-51.36 215.62,-37.81 256,-29 269.28,-26.1 283.47,-23.48 297.3,-21.17"/>
<polygon fill="midnightblue" stroke="midnightblue" points="297.99,-24.6 307.3,-19.54 296.87,-17.7 297.99,-24.6"/>
</g>
<!-- Node3 -->
<g id="node3" class="node">
<title>Node3</title>
<g id="a_node3"><a xlink:href="classGame_1_1UI_1_1LeaderboardItem.html#a3d41fb9a51ff51b9e249c0831f4d788a" target="_top" xlink:title="Initializes the item">
<polygon fill="white" stroke="black" points="539,-126.5 539,-145.5 703,-145.5 703,-126.5 539,-126.5"/>
<text text-anchor="middle" x="621" y="-133.5" font-family="Helvetica,sans-Serif" font-size="10.00">Game.UI.LeaderboardItem.Init</text>
</a>
</g>
</g>
<!-- Node2&#45;&gt;Node3 -->
<g id="edge2" class="edge">
<title>Node2&#45;&gt;Node3</title>
<path fill="none" stroke="midnightblue" d="M495.69,-136C506.77,-136 517.9,-136 528.7,-136"/>
<polygon fill="midnightblue" stroke="midnightblue" points="528.95,-139.5 538.95,-136 528.95,-132.5 528.95,-139.5"/>
</g>
<!-- Node7 -->
<g id="node7" class="node">
<title>Node7</title>
<g id="a_node7"><a xlink:href="classUtility_1_1ModalWindow.html#adcef8cae2dffe4247c905d042ff0a8e3" target="_top" xlink:title="Show the modal window">
<polygon fill="white" stroke="black" points="548,-0.5 548,-19.5 694,-19.5 694,-0.5 548,-0.5"/>
<text text-anchor="middle" x="621" y="-7.5" font-family="Helvetica,sans-Serif" font-size="10.00">Utility.ModalWindow.Show</text>
</a>
</g>
</g>
<!-- Node6&#45;&gt;Node7 -->
<g id="edge6" class="edge">
<title>Node6&#45;&gt;Node7</title>
<path fill="none" stroke="midnightblue" d="M503.06,-10C514.78,-10 526.46,-10 537.66,-10"/>
<polygon fill="midnightblue" stroke="midnightblue" points="537.79,-13.5 547.79,-10 537.79,-6.5 537.79,-13.5"/>
</g>
</g>
</svg>
