<?xml version="1.0" encoding="UTF-8" standalone="no"?>
<!DOCTYPE svg PUBLIC "-//W3C//DTD SVG 1.1//EN"
 "http://www.w3.org/Graphics/SVG/1.1/DTD/svg11.dtd">
<!-- Generated by graphviz version 2.43.0 (0)
 -->
<!-- Title: Game.GameController.DespawnFarAwayChunks Pages: 1 -->
<svg width="691pt" height="28pt"
 viewBox="0.00 0.00 691.00 28.00" xmlns="http://www.w3.org/2000/svg" xmlns:xlink="http://www.w3.org/1999/xlink">
<g id="graph0" class="graph" transform="scale(1 1) rotate(0) translate(4 24)">
<title>Game.GameController.DespawnFarAwayChunks</title>
<polygon fill="white" stroke="transparent" points="-4,4 -4,-24 687,-24 687,4 -4,4"/>
<!-- Node1 -->
<g id="node1" class="node">
<title>Node1</title>
<g id="a_node1"><a xlink:title="Despawn the chunks which are too far away from the player">
<polygon fill="#bfbfbf" stroke="black" points="0,-0.5 0,-19.5 251,-19.5 251,-0.5 0,-0.5"/>
<text text-anchor="middle" x="125.5" y="-7.5" font-family="Helvetica,sans-Serif" font-size="10.00">Game.GameController.DespawnFarAwayChunks</text>
</a>
</g>
</g>
<!-- Node2 -->
<g id="node2" class="node">
<title>Node2</title>
<g id="a_node2"><a xlink:href="classGame_1_1World_1_1GameWorld.html#a6e38b875a4ad69b6a285701336e9e29c" target="_top" xlink:title="Hide the given chunk">
<polygon fill="white" stroke="black" points="287,-0.5 287,-19.5 480,-19.5 480,-0.5 287,-0.5"/>
<text text-anchor="middle" x="383.5" y="-7.5" font-family="Helvetica,sans-Serif" font-size="10.00">Game.World.GameWorld.HideChunk</text>
</a>
</g>
</g>
<!-- Node1&#45;&gt;Node2 -->
<g id="edge1" class="edge">
<title>Node1&#45;&gt;Node2</title>
<path fill="none" stroke="midnightblue" d="M251.13,-10C259.62,-10 268.14,-10 276.53,-10"/>
<polygon fill="midnightblue" stroke="midnightblue" points="276.68,-13.5 286.68,-10 276.68,-6.5 276.68,-13.5"/>
</g>
<!-- Node3 -->
<g id="node3" class="node">
<title>Node3</title>
<g id="a_node3"><a xlink:href="classGame_1_1World_1_1Chunk.html#a118e0c25d254444e6663404fd61749d9" target="_top" xlink:title="Hide the chunk">
<polygon fill="white" stroke="black" points="516,-0.5 516,-19.5 683,-19.5 683,-0.5 516,-0.5"/>
<text text-anchor="middle" x="599.5" y="-7.5" font-family="Helvetica,sans-Serif" font-size="10.00">Game.World.Chunk.HideChunk</text>
</a>
</g>
</g>
<!-- Node2&#45;&gt;Node3 -->
<g id="edge2" class="edge">
<title>Node2&#45;&gt;Node3</title>
<path fill="none" stroke="midnightblue" d="M480.23,-10C488.7,-10 497.26,-10 505.7,-10"/>
<polygon fill="midnightblue" stroke="midnightblue" points="505.92,-13.5 515.92,-10 505.92,-6.5 505.92,-13.5"/>
</g>
</g>
</svg>
