<?xml version="1.0" encoding="UTF-8" standalone="no"?>
<!DOCTYPE svg PUBLIC "-//W3C//DTD SVG 1.1//EN"
 "http://www.w3.org/Graphics/SVG/1.1/DTD/svg11.dtd">
<!-- Generated by graphviz version 2.43.0 (0)
 -->
<!-- Title: MainPage.TaskDisplayHandler.InitValues Pages: 1 -->
<svg width="1757pt" height="104pt"
 viewBox="0.00 0.00 1757.00 104.00" xmlns="http://www.w3.org/2000/svg" xmlns:xlink="http://www.w3.org/1999/xlink">
<g id="graph0" class="graph" transform="scale(1 1) rotate(0) translate(4 100)">
<title>MainPage.TaskDisplayHandler.InitValues</title>
<polygon fill="white" stroke="transparent" points="-4,4 -4,-100 1753,-100 1753,4 -4,4"/>
<!-- Node1 -->
<g id="node1" class="node">
<title>Node1</title>
<g id="a_node1"><a xlink:title="Init it with the task to display and references to the controls">
<polygon fill="#bfbfbf" stroke="black" points="0,-38.5 0,-57.5 214,-57.5 214,-38.5 0,-38.5"/>
<text text-anchor="middle" x="107" y="-45.5" font-family="Helvetica,sans-Serif" font-size="10.00">MainPage.TaskDisplayHandler.InitValues</text>
</a>
</g>
</g>
<!-- Node2 -->
<g id="node2" class="node">
<title>Node2</title>
<g id="a_node2"><a xlink:href="classMainPage_1_1TaskDisplayHandler.html#aa49063eb8db092920d512f9869df6e98" target="_top" xlink:title="Calculate if the task can be completed again">
<polygon fill="white" stroke="black" points="250,-76.5 250,-95.5 537,-95.5 537,-76.5 250,-76.5"/>
<text text-anchor="middle" x="393.5" y="-83.5" font-family="Helvetica,sans-Serif" font-size="10.00">MainPage.TaskDisplayHandler.CalculateIfCompleteable</text>
</a>
</g>
</g>
<!-- Node1&#45;&gt;Node2 -->
<g id="edge1" class="edge">
<title>Node1&#45;&gt;Node2</title>
<path fill="none" stroke="midnightblue" d="M179.15,-57.53C201.79,-60.56 226.95,-63.92 250,-67 269.79,-69.64 291.12,-72.49 311.1,-75.15"/>
<polygon fill="midnightblue" stroke="midnightblue" points="310.73,-78.63 321.1,-76.49 311.65,-71.7 310.73,-78.63"/>
</g>
<!-- Node3 -->
<g id="node3" class="node">
<title>Node3</title>
<g id="a_node3"><a xlink:href="classMainPage_1_1TaskDisplayHandler.html#a754a230e53cedd3209a29d4d6a743719" target="_top" xlink:title="When the complete state is changed update the display to match it">
<polygon fill="white" stroke="black" points="256,-38.5 256,-57.5 531,-57.5 531,-38.5 256,-38.5"/>
<text text-anchor="middle" x="393.5" y="-45.5" font-family="Helvetica,sans-Serif" font-size="10.00">MainPage.TaskDisplayHandler.CompleteStateChange</text>
</a>
</g>
</g>
<!-- Node1&#45;&gt;Node3 -->
<g id="edge2" class="edge">
<title>Node1&#45;&gt;Node3</title>
<path fill="none" stroke="midnightblue" d="M214.34,-48C224.63,-48 235.18,-48 245.77,-48"/>
<polygon fill="midnightblue" stroke="midnightblue" points="245.92,-51.5 255.92,-48 245.92,-44.5 245.92,-51.5"/>
</g>
<!-- Node11 -->
<g id="node11" class="node">
<title>Node11</title>
<g id="a_node11"><a xlink:href="classMainPage_1_1TaskDisplayHandler.html#ac3773b76adb09298978a65c89136c20f" target="_top" xlink:title="Update the task&#39;s labels">
<polygon fill="white" stroke="black" points="277,-0.5 277,-19.5 510,-19.5 510,-0.5 277,-0.5"/>
<text text-anchor="middle" x="393.5" y="-7.5" font-family="Helvetica,sans-Serif" font-size="10.00">MainPage.TaskDisplayHandler.UpdateLabels</text>
</a>
</g>
</g>
<!-- Node1&#45;&gt;Node11 -->
<g id="edge14" class="edge">
<title>Node1&#45;&gt;Node11</title>
<path fill="none" stroke="midnightblue" d="M179.15,-38.47C201.79,-35.44 226.95,-32.08 250,-29 269.79,-26.36 291.12,-23.51 311.1,-20.85"/>
<polygon fill="midnightblue" stroke="midnightblue" points="311.65,-24.3 321.1,-19.51 310.73,-17.37 311.65,-24.3"/>
</g>
<!-- Node4 -->
<g id="node4" class="node">
<title>Node4</title>
<g id="a_node4"><a xlink:href="classMainPage_1_1MainWindowController.html#a85072f5d92f4145d6213209a13936639" target="_top" xlink:title="Refreshes the tasks with the proper sorting order">
<polygon fill="white" stroke="black" points="583.5,-57.5 583.5,-76.5 840.5,-76.5 840.5,-57.5 583.5,-57.5"/>
<text text-anchor="middle" x="712" y="-64.5" font-family="Helvetica,sans-Serif" font-size="10.00">MainPage.MainWindowController.SortingChanged</text>
</a>
</g>
</g>
<!-- Node3&#45;&gt;Node4 -->
<g id="edge3" class="edge">
<title>Node3&#45;&gt;Node4</title>
<path fill="none" stroke="midnightblue" d="M531.02,-56.2C545.02,-57.04 559.26,-57.89 573.27,-58.73"/>
<polygon fill="midnightblue" stroke="midnightblue" points="573.24,-62.24 583.43,-59.34 573.66,-55.25 573.24,-62.24"/>
</g>
<!-- Node10 -->
<g id="node10" class="node">
<title>Node10</title>
<g id="a_node10"><a xlink:href="classMainPage_1_1TaskDisplayHandler.html#aa63f1bc894519b9d5872c2bb50b84415" target="_top" xlink:title="Update the time remaining until the task can be completed again">
<polygon fill="white" stroke="black" points="573,-19.5 573,-38.5 851,-38.5 851,-19.5 573,-19.5"/>
<text text-anchor="middle" x="712" y="-26.5" font-family="Helvetica,sans-Serif" font-size="10.00">MainPage.TaskDisplayHandler.UpdateTimeRemaining</text>
</a>
</g>
</g>
<!-- Node3&#45;&gt;Node10 -->
<g id="edge12" class="edge">
<title>Node3&#45;&gt;Node10</title>
<path fill="none" stroke="midnightblue" d="M460.08,-38.47C489.95,-35.83 526.63,-33.24 562.62,-31.17"/>
<polygon fill="midnightblue" stroke="midnightblue" points="562.96,-34.66 572.75,-30.6 562.57,-27.67 562.96,-34.66"/>
</g>
<!-- Node5 -->
<g id="node5" class="node">
<title>Node5</title>
<g id="a_node5"><a xlink:href="classMainPage_1_1MainWindowController.html#a241b480aeebdab1bc34320cad8de7712" target="_top" xlink:title="Load the good habits">
<polygon fill="white" stroke="black" points="888,-76.5 888,-95.5 1142,-95.5 1142,-76.5 888,-76.5"/>
<text text-anchor="middle" x="1015" y="-83.5" font-family="Helvetica,sans-Serif" font-size="10.00">MainPage.MainWindowController.LoadBadHabits</text>
</a>
</g>
</g>
<!-- Node4&#45;&gt;Node5 -->
<g id="edge4" class="edge">
<title>Node4&#45;&gt;Node5</title>
<path fill="none" stroke="midnightblue" d="M840.65,-75.06C852.79,-75.82 865.14,-76.6 877.36,-77.37"/>
<polygon fill="midnightblue" stroke="midnightblue" points="877.39,-80.88 887.59,-78.02 877.83,-73.9 877.39,-80.88"/>
</g>
<!-- Node8 -->
<g id="node8" class="node">
<title>Node8</title>
<g id="a_node8"><a xlink:href="classMainPage_1_1MainWindowController.html#ab5b80370512cd4273e86927fe696462d" target="_top" xlink:title="Load the good tasks">
<polygon fill="white" stroke="black" points="887,-38.5 887,-57.5 1143,-57.5 1143,-38.5 887,-38.5"/>
<text text-anchor="middle" x="1015" y="-45.5" font-family="Helvetica,sans-Serif" font-size="10.00">MainPage.MainWindowController.LoadGoodTasks</text>
</a>
</g>
</g>
<!-- Node4&#45;&gt;Node8 -->
<g id="edge8" class="edge">
<title>Node4&#45;&gt;Node8</title>
<path fill="none" stroke="midnightblue" d="M840.65,-58.94C852.54,-58.19 864.63,-57.43 876.61,-56.67"/>
<polygon fill="midnightblue" stroke="midnightblue" points="876.87,-60.16 886.63,-56.04 876.43,-53.18 876.87,-60.16"/>
</g>
<!-- Node6 -->
<g id="node6" class="node">
<title>Node6</title>
<g id="a_node6"><a xlink:href="classMainPage_1_1TaskOpenPanelController.html#a5513399c20f650915ca10f54805f416e" target="_top" xlink:title="Make this task a bad habit">
<polygon fill="white" stroke="black" points="1180,-76.5 1180,-95.5 1449,-95.5 1449,-76.5 1180,-76.5"/>
<text text-anchor="middle" x="1314.5" y="-83.5" font-family="Helvetica,sans-Serif" font-size="10.00">MainPage.TaskOpenPanelController.MakeItBadHabit</text>
</a>
</g>
</g>
<!-- Node5&#45;&gt;Node6 -->
<g id="edge5" class="edge">
<title>Node5&#45;&gt;Node6</title>
<path fill="none" stroke="midnightblue" d="M1142.17,-79.32C1151.35,-79.26 1160.66,-79.24 1169.94,-79.25"/>
<polygon fill="midnightblue" stroke="midnightblue" points="1169.98,-82.75 1179.99,-79.28 1170,-75.75 1169.98,-82.75"/>
</g>
<!-- Node6&#45;&gt;Node5 -->
<g id="edge6" class="edge">
<title>Node6&#45;&gt;Node5</title>
<path fill="none" stroke="midnightblue" d="M1179.99,-92.72C1170.75,-92.76 1161.43,-92.76 1152.18,-92.73"/>
<polygon fill="midnightblue" stroke="midnightblue" points="1152.18,-89.23 1142.17,-92.68 1152.15,-96.23 1152.18,-89.23"/>
</g>
<!-- Node7 -->
<g id="node7" class="node">
<title>Node7</title>
<g id="a_node7"><a xlink:href="classMainPage_1_1TaskOpenPanelController.html#aa0b6757dbad141375c50282278b23b1a" target="_top" xlink:title="Update the buttons with the appropriate color based on the current task">
<polygon fill="white" stroke="black" points="1486,-57.5 1486,-76.5 1749,-76.5 1749,-57.5 1486,-57.5"/>
<text text-anchor="middle" x="1617.5" y="-64.5" font-family="Helvetica,sans-Serif" font-size="10.00">MainPage.TaskOpenPanelController.UpdateButtons</text>
</a>
</g>
</g>
<!-- Node6&#45;&gt;Node7 -->
<g id="edge7" class="edge">
<title>Node6&#45;&gt;Node7</title>
<path fill="none" stroke="midnightblue" d="M1449.28,-77.56C1457.97,-77.01 1466.73,-76.45 1475.45,-75.9"/>
<polygon fill="midnightblue" stroke="midnightblue" points="1475.91,-79.38 1485.67,-75.26 1475.46,-72.4 1475.91,-79.38"/>
</g>
<!-- Node9 -->
<g id="node9" class="node">
<title>Node9</title>
<g id="a_node9"><a xlink:href="classMainPage_1_1TaskOpenPanelController.html#a069a63e2b7e70cc4cb4c7e487b655700" target="_top" xlink:title="Make it a good task">
<polygon fill="white" stroke="black" points="1179,-38.5 1179,-57.5 1450,-57.5 1450,-38.5 1179,-38.5"/>
<text text-anchor="middle" x="1314.5" y="-45.5" font-family="Helvetica,sans-Serif" font-size="10.00">MainPage.TaskOpenPanelController.MakeItGoodTask</text>
</a>
</g>
</g>
<!-- Node8&#45;&gt;Node9 -->
<g id="edge9" class="edge">
<title>Node8&#45;&gt;Node9</title>
<path fill="none" stroke="midnightblue" d="M1143.03,-41.31C1151.54,-41.26 1160.15,-41.24 1168.75,-41.25"/>
<polygon fill="midnightblue" stroke="midnightblue" points="1168.81,-44.75 1178.82,-41.28 1168.83,-37.75 1168.81,-44.75"/>
</g>
<!-- Node9&#45;&gt;Node7 -->
<g id="edge11" class="edge">
<title>Node9&#45;&gt;Node7</title>
<path fill="none" stroke="midnightblue" d="M1450.15,-56.5C1458.7,-57.04 1467.32,-57.58 1475.9,-58.12"/>
<polygon fill="midnightblue" stroke="midnightblue" points="1475.74,-61.62 1485.94,-58.76 1476.18,-54.64 1475.74,-61.62"/>
</g>
<!-- Node9&#45;&gt;Node8 -->
<g id="edge10" class="edge">
<title>Node9&#45;&gt;Node8</title>
<path fill="none" stroke="midnightblue" d="M1178.82,-54.72C1170.26,-54.76 1161.63,-54.76 1153.06,-54.73"/>
<polygon fill="midnightblue" stroke="midnightblue" points="1153.05,-51.23 1143.03,-54.69 1153.01,-58.23 1153.05,-51.23"/>
</g>
<!-- Node10&#45;&gt;Node3 -->
<g id="edge13" class="edge">
<title>Node10&#45;&gt;Node3</title>
<path fill="none" stroke="midnightblue" d="M645.75,-38.5C615.38,-41.19 577.94,-43.82 541.32,-45.92"/>
<polygon fill="midnightblue" stroke="midnightblue" points="540.81,-42.44 531.02,-46.5 541.2,-49.43 540.81,-42.44"/>
</g>
<!-- Node11&#45;&gt;Node10 -->
<g id="edge15" class="edge">
<title>Node11&#45;&gt;Node10</title>
<path fill="none" stroke="midnightblue" d="M510.11,-16.94C527.16,-17.96 544.92,-19.03 562.52,-20.09"/>
<polygon fill="midnightblue" stroke="midnightblue" points="562.67,-23.6 572.86,-20.71 563.09,-16.61 562.67,-23.6"/>
</g>
</g>
</svg>
