<?xml version="1.0" encoding="UTF-8" standalone="no"?>
<!DOCTYPE svg PUBLIC "-//W3C//DTD SVG 1.1//EN"
 "http://www.w3.org/Graphics/SVG/1.1/DTD/svg11.dtd">
<!-- Generated by graphviz version 2.43.0 (0)
 -->
<!-- Title: User.UserController.CheckLoggedIn Pages: 1 -->
<svg width="636pt" height="104pt"
 viewBox="0.00 0.00 636.00 104.00" xmlns="http://www.w3.org/2000/svg" xmlns:xlink="http://www.w3.org/1999/xlink">
<g id="graph0" class="graph" transform="scale(1 1) rotate(0) translate(4 100)">
<title>User.UserController.CheckLoggedIn</title>
<polygon fill="white" stroke="transparent" points="-4,4 -4,-100 632,-100 632,4 -4,4"/>
<!-- Node1 -->
<g id="node1" class="node">
<title>Node1</title>
<g id="a_node1"><a xlink:title="Send a request to check if the user has logged in already">
<polygon fill="#bfbfbf" stroke="black" points="0,-38.5 0,-57.5 188,-57.5 188,-38.5 0,-38.5"/>
<text text-anchor="middle" x="94" y="-45.5" font-family="Helvetica,sans-Serif" font-size="10.00">User.UserController.CheckLoggedIn</text>
</a>
</g>
</g>
<!-- Node2 -->
<g id="node2" class="node">
<title>Node2</title>
<g id="a_node2"><a xlink:href="classUser_1_1UserController.html#a02fa4701a3a181ec2228737a5f2c57e9" target="_top" xlink:title="When the login request&#39;s was responded log the user in">
<polygon fill="white" stroke="black" points="224,-38.5 224,-57.5 382,-57.5 382,-38.5 224,-38.5"/>
<text text-anchor="middle" x="303" y="-45.5" font-family="Helvetica,sans-Serif" font-size="10.00">User.UserController.LoggedIn</text>
</a>
</g>
</g>
<!-- Node1&#45;&gt;Node2 -->
<g id="edge1" class="edge">
<title>Node1&#45;&gt;Node2</title>
<path fill="none" stroke="midnightblue" d="M188.21,-48C196.67,-48 205.24,-48 213.66,-48"/>
<polygon fill="midnightblue" stroke="midnightblue" points="213.85,-51.5 223.85,-48 213.85,-44.5 213.85,-51.5"/>
</g>
<!-- Node4 -->
<g id="node4" class="node">
<title>Node4</title>
<g id="a_node4"><a xlink:href="classUser_1_1UserController.html#a3ba5f73e6358fff37d2ec5e255659756" target="_top" xlink:title="Move from the user creation and login scene">
<polygon fill="white" stroke="black" points="418,-76.5 418,-95.5 628,-95.5 628,-76.5 418,-76.5"/>
<text text-anchor="middle" x="523" y="-83.5" font-family="Helvetica,sans-Serif" font-size="10.00">User.UserController.MoveToMainScence</text>
</a>
</g>
</g>
<!-- Node1&#45;&gt;Node4 -->
<g id="edge5" class="edge">
<title>Node1&#45;&gt;Node4</title>
<path fill="none" stroke="midnightblue" d="M152.67,-57.53C174.91,-60.94 200.59,-64.53 224,-67 284.43,-73.37 351.99,-77.88 407.48,-80.91"/>
<polygon fill="midnightblue" stroke="midnightblue" points="407.53,-84.42 417.7,-81.46 407.9,-77.43 407.53,-84.42"/>
</g>
<!-- Node5 -->
<g id="node5" class="node">
<title>Node5</title>
<g id="a_node5"><a xlink:href="classUtility_1_1CoroutineRunner.html#a1c473dee723f16d86bab9d8475c8214a" target="_top" xlink:title="A helper method to start coroutines">
<polygon fill="white" stroke="black" points="424,-0.5 424,-19.5 622,-19.5 622,-0.5 424,-0.5"/>
<text text-anchor="middle" x="523" y="-7.5" font-family="Helvetica,sans-Serif" font-size="10.00">Utility.CoroutineRunner.RunCoroutine</text>
</a>
</g>
</g>
<!-- Node1&#45;&gt;Node5 -->
<g id="edge6" class="edge">
<title>Node1&#45;&gt;Node5</title>
<path fill="none" stroke="midnightblue" d="M152.67,-38.47C174.91,-35.06 200.59,-31.47 224,-29 286.74,-22.39 357.17,-17.77 413.8,-14.74"/>
<polygon fill="midnightblue" stroke="midnightblue" points="414.05,-18.24 423.85,-14.22 413.68,-11.25 414.05,-18.24"/>
</g>
<!-- Node3 -->
<g id="node3" class="node">
<title>Node3</title>
<g id="a_node3"><a xlink:href="classUser_1_1UserData.html#abb372911b5e49023a977bd064f46bb6e" target="_top" xlink:title="Initialises the user instance with proper data">
<polygon fill="white" stroke="black" points="470,-38.5 470,-57.5 576,-57.5 576,-38.5 470,-38.5"/>
<text text-anchor="middle" x="523" y="-45.5" font-family="Helvetica,sans-Serif" font-size="10.00">User.UserData.Init</text>
</a>
</g>
</g>
<!-- Node2&#45;&gt;Node3 -->
<g id="edge2" class="edge">
<title>Node2&#45;&gt;Node3</title>
<path fill="none" stroke="midnightblue" d="M382.09,-48C407.64,-48 435.66,-48 459.87,-48"/>
<polygon fill="midnightblue" stroke="midnightblue" points="459.99,-51.5 469.99,-48 459.99,-44.5 459.99,-51.5"/>
</g>
<!-- Node2&#45;&gt;Node4 -->
<g id="edge3" class="edge">
<title>Node2&#45;&gt;Node4</title>
<path fill="none" stroke="midnightblue" d="M358.73,-57.54C388.66,-62.76 425.92,-69.25 457.29,-74.72"/>
<polygon fill="midnightblue" stroke="midnightblue" points="456.8,-78.19 467.25,-76.46 458,-71.29 456.8,-78.19"/>
</g>
<!-- Node2&#45;&gt;Node5 -->
<g id="edge4" class="edge">
<title>Node2&#45;&gt;Node5</title>
<path fill="none" stroke="midnightblue" d="M358.73,-38.46C388.66,-33.24 425.92,-26.75 457.29,-21.28"/>
<polygon fill="midnightblue" stroke="midnightblue" points="458,-24.71 467.25,-19.54 456.8,-17.81 458,-24.71"/>
</g>
</g>
</svg>
