<?xml version="1.0" encoding="UTF-8" standalone="no"?>
<!DOCTYPE svg PUBLIC "-//W3C//DTD SVG 1.1//EN"
 "http://www.w3.org/Graphics/SVG/1.1/DTD/svg11.dtd">
<!-- Generated by graphviz version 2.43.0 (0)
 -->
<!-- Title: Game.World.RoadGenerator Pages: 1 -->
<svg width="904pt" height="1136pt"
 viewBox="0.00 0.00 904.00 1136.00" xmlns="http://www.w3.org/2000/svg" xmlns:xlink="http://www.w3.org/1999/xlink">
<g id="graph0" class="graph" transform="scale(1 1) rotate(0) translate(4 1132)">
<title>Game.World.RoadGenerator</title>
<!-- Node1 -->
<g id="Node000001" class="node">
<title>Node1</title>
<g id="a_Node000001"><a xlink:title="Generates a new road structure.">
<polygon fill="#999999" stroke="transparent" points="896,-202 594,-202 594,0 896,0 896,-202"/>
<text text-anchor="start" x="676.5" y="-190" font-family="Helvetica,sans-Serif" font-size="10.00">Game.World.RoadGenerator</text>
<text text-anchor="start" x="598" y="-175" font-family="Helvetica,sans-Serif" font-size="10.00">+</text>
<text text-anchor="start" x="611" y="-175" font-family="Helvetica,sans-Serif" font-size="10.00">int NumberOfEdgeRoads</text>
<text text-anchor="start" x="598" y="-160" font-family="Helvetica,sans-Serif" font-size="10.00">+</text>
<text text-anchor="start" x="611" y="-160" font-family="Helvetica,sans-Serif" font-size="10.00">bool[,] RoadMatrix</text>
<text text-anchor="start" x="598" y="-145" font-family="Helvetica,sans-Serif" font-size="10.00">+</text>
<text text-anchor="start" x="611" y="-145" font-family="Helvetica,sans-Serif" font-size="10.00">List&lt; EdgeRoadContainer &gt; EdgeRoads</text>
<text text-anchor="start" x="600.5" y="-130" font-family="Helvetica,sans-Serif" font-size="10.00">&#45;</text>
<text text-anchor="start" x="611" y="-130" font-family="Helvetica,sans-Serif" font-size="10.00">int size</text>
<text text-anchor="start" x="600.5" y="-115" font-family="Helvetica,sans-Serif" font-size="10.00">&#45;</text>
<text text-anchor="start" x="611" y="-115" font-family="Helvetica,sans-Serif" font-size="10.00">int numberOfPlacedRoads</text>
<text text-anchor="start" x="600.5" y="-100" font-family="Helvetica,sans-Serif" font-size="10.00">&#45;</text>
<text text-anchor="start" x="611" y="-100" font-family="Helvetica,sans-Serif" font-size="10.00">bool[,] lockRoad</text>
<text text-anchor="start" x="598" y="-85" font-family="Helvetica,sans-Serif" font-size="10.00">+</text>
<text text-anchor="start" x="611" y="-85" font-family="Helvetica,sans-Serif" font-size="10.00">RoadGenerator(int size, List&lt; EdgeRoadContainer</text>
<text text-anchor="start" x="611" y="-74" font-family="Helvetica,sans-Serif" font-size="10.00"> &gt; startPositions, Chunk[,] nearbyChunks)</text>
<text text-anchor="start" x="600.5" y="-59" font-family="Helvetica,sans-Serif" font-size="10.00">&#45;</text>
<text text-anchor="start" x="611" y="-59" font-family="Helvetica,sans-Serif" font-size="10.00">void CreateRoad(Vector2Int roadPos, Vector2Int</text>
<text text-anchor="start" x="611" y="-48" font-family="Helvetica,sans-Serif" font-size="10.00"> roadDir, int forwardCounter=0)</text>
<text text-anchor="start" x="600.5" y="-33" font-family="Helvetica,sans-Serif" font-size="10.00">&#45;</text>
<text text-anchor="start" x="611" y="-33" font-family="Helvetica,sans-Serif" font-size="10.00">bool GoinTowardsEdge(Vector2Int position, Vector2Int dir)</text>
<text text-anchor="start" x="600.5" y="-18" font-family="Helvetica,sans-Serif" font-size="10.00">&#45;</text>
<text text-anchor="start" x="611" y="-18" font-family="Helvetica,sans-Serif" font-size="10.00">bool CheckForward(Vector2Int position, Vector2Int</text>
<text text-anchor="start" x="611" y="-7" font-family="Helvetica,sans-Serif" font-size="10.00"> dir, int counter)</text>
<polygon fill="#666666" stroke="#666666" points="594,-185 594,-185 896,-185 896,-185 594,-185"/>
<polygon fill="#666666" stroke="#666666" points="594,-95 594,-95 609,-95 609,-95 594,-95"/>
<polygon fill="#666666" stroke="#666666" points="609,-95 609,-95 896,-95 896,-95 609,-95"/>
<polygon fill="none" stroke="#666666" points="594,0 594,-202 896,-202 896,0 594,0"/>
</a>
</g>
</g>
<!-- Node2 -->
<g id="Node000002" class="node">
<title>Node2</title>
<g id="a_Node000002"><a xlink:href="classGame_1_1World_1_1Chunk.html" target="_top" xlink:title="Stores a single chunk of the world.">
<polygon fill="white" stroke="transparent" points="488,-890 160,-890 160,-249 488,-249 488,-890"/>
<text text-anchor="start" x="277" y="-877.5" font-family="Helvetica,sans-Serif" font-size="10.00">Game.World.Chunk</text>
<text text-anchor="start" x="164" y="-862.5" font-family="Helvetica,sans-Serif" font-size="10.00">+</text>
<text text-anchor="start" x="177" y="-862.5" font-family="Helvetica,sans-Serif" font-size="10.00">float XOffset</text>
<text text-anchor="start" x="164" y="-847.5" font-family="Helvetica,sans-Serif" font-size="10.00">+</text>
<text text-anchor="start" x="177" y="-847.5" font-family="Helvetica,sans-Serif" font-size="10.00">float ZOffset</text>
<text text-anchor="start" x="164" y="-832.5" font-family="Helvetica,sans-Serif" font-size="10.00">+</text>
<text text-anchor="start" x="177" y="-832.5" font-family="Helvetica,sans-Serif" font-size="10.00">bool RandomizeOffset</text>
<text text-anchor="start" x="164" y="-817.5" font-family="Helvetica,sans-Serif" font-size="10.00">+</text>
<text text-anchor="start" x="177" y="-817.5" font-family="Helvetica,sans-Serif" font-size="10.00">GameObject straightRoadPrefab</text>
<text text-anchor="start" x="164" y="-802.5" font-family="Helvetica,sans-Serif" font-size="10.00">+</text>
<text text-anchor="start" x="177" y="-802.5" font-family="Helvetica,sans-Serif" font-size="10.00">GameObject grassPrefab</text>
<text text-anchor="start" x="164" y="-787.5" font-family="Helvetica,sans-Serif" font-size="10.00">+</text>
<text text-anchor="start" x="177" y="-787.5" font-family="Helvetica,sans-Serif" font-size="10.00">GameObject coinPrefab</text>
<text text-anchor="start" x="164" y="-772.5" font-family="Helvetica,sans-Serif" font-size="10.00">+</text>
<text text-anchor="start" x="177" y="-772.5" font-family="Helvetica,sans-Serif" font-size="10.00">int? zSize</text>
<text text-anchor="start" x="164" y="-757.5" font-family="Helvetica,sans-Serif" font-size="10.00">+</text>
<text text-anchor="start" x="177" y="-757.5" font-family="Helvetica,sans-Serif" font-size="10.00">int? xSize</text>
<text text-anchor="start" x="164" y="-742.5" font-family="Helvetica,sans-Serif" font-size="10.00">+</text>
<text text-anchor="start" x="177" y="-742.5" font-family="Helvetica,sans-Serif" font-size="10.00">int Row</text>
<text text-anchor="start" x="164" y="-727.5" font-family="Helvetica,sans-Serif" font-size="10.00">+</text>
<text text-anchor="start" x="177" y="-727.5" font-family="Helvetica,sans-Serif" font-size="10.00">int Col</text>
<text text-anchor="start" x="164" y="-712.5" font-family="Helvetica,sans-Serif" font-size="10.00">+</text>
<text text-anchor="start" x="177" y="-712.5" font-family="Helvetica,sans-Serif" font-size="10.00">bool[,] Roads</text>
<text text-anchor="start" x="164" y="-697.5" font-family="Helvetica,sans-Serif" font-size="10.00">+</text>
<text text-anchor="start" x="177" y="-697.5" font-family="Helvetica,sans-Serif" font-size="10.00">List&lt; EdgeRoadContainer &gt; EdgeRoads</text>
<text text-anchor="start" x="166.5" y="-682.5" font-family="Helvetica,sans-Serif" font-size="10.00">&#45;</text>
<text text-anchor="start" x="177" y="-682.5" font-family="Helvetica,sans-Serif" font-size="10.00">GameObject curvedRoadPrefab</text>
<text text-anchor="start" x="166.5" y="-667.5" font-family="Helvetica,sans-Serif" font-size="10.00">&#45;</text>
<text text-anchor="start" x="177" y="-667.5" font-family="Helvetica,sans-Serif" font-size="10.00">GameObject threeWayRoadPrefab</text>
<text text-anchor="start" x="166.5" y="-652.5" font-family="Helvetica,sans-Serif" font-size="10.00">&#45;</text>
<text text-anchor="start" x="177" y="-652.5" font-family="Helvetica,sans-Serif" font-size="10.00">GameObject crossRoadsPrefab</text>
<text text-anchor="start" x="166.5" y="-637.5" font-family="Helvetica,sans-Serif" font-size="10.00">&#45;</text>
<text text-anchor="start" x="177" y="-637.5" font-family="Helvetica,sans-Serif" font-size="10.00">List&lt; Building &gt; buildings</text>
<text text-anchor="start" x="166.5" y="-622.5" font-family="Helvetica,sans-Serif" font-size="10.00">&#45;</text>
<text text-anchor="start" x="177" y="-622.5" font-family="Helvetica,sans-Serif" font-size="10.00">List&lt; Prop &gt; props</text>
<text text-anchor="start" x="166.5" y="-607.5" font-family="Helvetica,sans-Serif" font-size="10.00">&#45;</text>
<text text-anchor="start" x="177" y="-607.5" font-family="Helvetica,sans-Serif" font-size="10.00">Dictionary&lt; ChunkCellType, List&lt; Vector3 &gt; &gt; chunkCells</text>
<text text-anchor="start" x="166.5" y="-592.5" font-family="Helvetica,sans-Serif" font-size="10.00">&#45;</text>
<text text-anchor="start" x="177" y="-592.5" font-family="Helvetica,sans-Serif" font-size="10.00">List&lt; Vector3Int &gt; roads</text>
<text text-anchor="start" x="166.5" y="-577.5" font-family="Helvetica,sans-Serif" font-size="10.00">&#45;</text>
<text text-anchor="start" x="177" y="-577.5" font-family="Helvetica,sans-Serif" font-size="10.00">Dictionary&lt; ChunkCellType, List&lt; GameObject &gt; &gt;</text>
<text text-anchor="start" x="177" y="-566.5" font-family="Helvetica,sans-Serif" font-size="10.00"> objectsToCombine</text>
<text text-anchor="start" x="166.5" y="-551.5" font-family="Helvetica,sans-Serif" font-size="10.00">&#45;</text>
<text text-anchor="start" x="177" y="-551.5" font-family="Helvetica,sans-Serif" font-size="10.00">float</text>
<text text-anchor="start" x="164" y="-536.5" font-family="Helvetica,sans-Serif" font-size="10.00">+</text>
<text text-anchor="start" x="177" y="-536.5" font-family="Helvetica,sans-Serif" font-size="10.00">void Display()</text>
<text text-anchor="start" x="164" y="-521.5" font-family="Helvetica,sans-Serif" font-size="10.00">+</text>
<text text-anchor="start" x="177" y="-521.5" font-family="Helvetica,sans-Serif" font-size="10.00">async Task InitChunk(int col, int row, List&lt; EdgeRoadContainer</text>
<text text-anchor="start" x="177" y="-510.5" font-family="Helvetica,sans-Serif" font-size="10.00"> &gt; edgeRoads, GameWorld world)</text>
<text text-anchor="start" x="164" y="-495.5" font-family="Helvetica,sans-Serif" font-size="10.00">+</text>
<text text-anchor="start" x="177" y="-495.5" font-family="Helvetica,sans-Serif" font-size="10.00">void HideChunk()</text>
<text text-anchor="start" x="164" y="-480.5" font-family="Helvetica,sans-Serif" font-size="10.00">+</text>
<text text-anchor="start" x="177" y="-480.5" font-family="Helvetica,sans-Serif" font-size="10.00">Vector3 GetARandomRoad()</text>
<text text-anchor="start" x="164" y="-465.5" font-family="Helvetica,sans-Serif" font-size="10.00">+</text>
<text text-anchor="start" x="177" y="-465.5" font-family="Helvetica,sans-Serif" font-size="10.00">async Task SpawnWorldObjects()</text>
<text text-anchor="start" x="164" y="-450.5" font-family="Helvetica,sans-Serif" font-size="10.00">+</text>
<text text-anchor="start" x="177" y="-450.5" font-family="Helvetica,sans-Serif" font-size="10.00">static void InitUniTaskLoop()</text>
<text text-anchor="start" x="166.5" y="-435.5" font-family="Helvetica,sans-Serif" font-size="10.00">&#45;</text>
<text text-anchor="start" x="177" y="-435.5" font-family="Helvetica,sans-Serif" font-size="10.00">async void Awake()</text>
<text text-anchor="start" x="166.5" y="-420.5" font-family="Helvetica,sans-Serif" font-size="10.00">&#45;</text>
<text text-anchor="start" x="177" y="-420.5" font-family="Helvetica,sans-Serif" font-size="10.00">void BuildingLoaded(GameObject building)</text>
<text text-anchor="start" x="166.5" y="-405.5" font-family="Helvetica,sans-Serif" font-size="10.00">&#45;</text>
<text text-anchor="start" x="177" y="-405.5" font-family="Helvetica,sans-Serif" font-size="10.00">void PropLoaded(GameObject prop)</text>
<text text-anchor="start" x="166.5" y="-390.5" font-family="Helvetica,sans-Serif" font-size="10.00">&#45;</text>
<text text-anchor="start" x="177" y="-390.5" font-family="Helvetica,sans-Serif" font-size="10.00">float GetAbsolutePosition()</text>
<text text-anchor="start" x="166.5" y="-375.5" font-family="Helvetica,sans-Serif" font-size="10.00">&#45;</text>
<text text-anchor="start" x="177" y="-375.5" font-family="Helvetica,sans-Serif" font-size="10.00">void LoadFromSettings()</text>
<text text-anchor="start" x="166.5" y="-360.5" font-family="Helvetica,sans-Serif" font-size="10.00">&#45;</text>
<text text-anchor="start" x="177" y="-360.5" font-family="Helvetica,sans-Serif" font-size="10.00">void CreateTiles()</text>
<text text-anchor="start" x="166.5" y="-345.5" font-family="Helvetica,sans-Serif" font-size="10.00">&#45;</text>
<text text-anchor="start" x="177" y="-345.5" font-family="Helvetica,sans-Serif" font-size="10.00">ChunkCellContainer DetermineRoadType(int col, int row)</text>
<text text-anchor="start" x="166.5" y="-330.5" font-family="Helvetica,sans-Serif" font-size="10.00">&#45;</text>
<text text-anchor="start" x="177" y="-330.5" font-family="Helvetica,sans-Serif" font-size="10.00">ChunkCellContainer DetermineTileType(int x, int z)</text>
<text text-anchor="start" x="166.5" y="-315.5" font-family="Helvetica,sans-Serif" font-size="10.00">&#45;</text>
<text text-anchor="start" x="177" y="-315.5" font-family="Helvetica,sans-Serif" font-size="10.00">void GenerateCellMatrix()</text>
<text text-anchor="start" x="166.5" y="-300.5" font-family="Helvetica,sans-Serif" font-size="10.00">&#45;</text>
<text text-anchor="start" x="177" y="-300.5" font-family="Helvetica,sans-Serif" font-size="10.00">IEnumerator AddRoadBuildings()</text>
<text text-anchor="start" x="166.5" y="-285.5" font-family="Helvetica,sans-Serif" font-size="10.00">&#45;</text>
<text text-anchor="start" x="177" y="-285.5" font-family="Helvetica,sans-Serif" font-size="10.00">IEnumerator AddEnvironmentProps()</text>
<text text-anchor="start" x="166.5" y="-270.5" font-family="Helvetica,sans-Serif" font-size="10.00">&#45;</text>
<text text-anchor="start" x="177" y="-270.5" font-family="Helvetica,sans-Serif" font-size="10.00">void LockAndTryToPlaceBuilding(int index, int row, int col)</text>
<text text-anchor="start" x="166.5" y="-255.5" font-family="Helvetica,sans-Serif" font-size="10.00">&#45;</text>
<text text-anchor="start" x="177" y="-255.5" font-family="Helvetica,sans-Serif" font-size="10.00">async Task&lt; Chunk[,]&gt; GetNearbyChunks(int row, int col)</text>
<polygon fill="#666666" stroke="#666666" points="160,-872.5 160,-872.5 488,-872.5 488,-872.5 160,-872.5"/>
<polygon fill="#666666" stroke="#666666" points="160,-546.5 160,-546.5 175,-546.5 175,-546.5 160,-546.5"/>
<polygon fill="#666666" stroke="#666666" points="175,-546.5 175,-546.5 488,-546.5 488,-546.5 175,-546.5"/>
<polygon fill="none" stroke="#666666" points="160,-249 160,-890 488,-890 488,-249 160,-249"/>
</a>
</g>
</g>
<!-- Node2&#45;&gt;Node1 -->
<g id="edge1_Node000001_Node000002" class="edge">
<title>Node2&#45;&gt;Node1</title>
<g id="a_edge1_Node000001_Node000002"><a xlink:title=" ">
<path fill="none" stroke="#63b8ff" d="M488.28,-386.47C541.72,-327.25 599.34,-263.4 646.43,-211.22"/>
<polygon fill="none" stroke="#63b8ff" points="646.45,-211.2 647.5,-204.06 654.49,-202.29 653.44,-209.42 646.45,-211.2"/>
</a>
</g>
<text text-anchor="middle" x="670.5" y="-223" font-family="Helvetica,sans-Serif" font-size="10.00" fill="grey"> &#45;nearbyChunks</text>
</g>
<!-- Node5 -->
<g id="Node000005" class="node">
<title>Node5</title>
<g id="a_Node000005"><a xlink:href="classGame_1_1World_1_1RoadGenerator.html" target="_top" xlink:title="Generates a new road structure.">
<polygon fill="white" stroke="transparent" points="576,-202 274,-202 274,0 576,0 576,-202"/>
<text text-anchor="start" x="356.5" y="-190" font-family="Helvetica,sans-Serif" font-size="10.00">Game.World.RoadGenerator</text>
<text text-anchor="start" x="278" y="-175" font-family="Helvetica,sans-Serif" font-size="10.00">+</text>
<text text-anchor="start" x="291" y="-175" font-family="Helvetica,sans-Serif" font-size="10.00">int NumberOfEdgeRoads</text>
<text text-anchor="start" x="278" y="-160" font-family="Helvetica,sans-Serif" font-size="10.00">+</text>
<text text-anchor="start" x="291" y="-160" font-family="Helvetica,sans-Serif" font-size="10.00">bool[,] RoadMatrix</text>
<text text-anchor="start" x="278" y="-145" font-family="Helvetica,sans-Serif" font-size="10.00">+</text>
<text text-anchor="start" x="291" y="-145" font-family="Helvetica,sans-Serif" font-size="10.00">List&lt; EdgeRoadContainer &gt; EdgeRoads</text>
<text text-anchor="start" x="280.5" y="-130" font-family="Helvetica,sans-Serif" font-size="10.00">&#45;</text>
<text text-anchor="start" x="291" y="-130" font-family="Helvetica,sans-Serif" font-size="10.00">int size</text>
<text text-anchor="start" x="280.5" y="-115" font-family="Helvetica,sans-Serif" font-size="10.00">&#45;</text>
<text text-anchor="start" x="291" y="-115" font-family="Helvetica,sans-Serif" font-size="10.00">int numberOfPlacedRoads</text>
<text text-anchor="start" x="280.5" y="-100" font-family="Helvetica,sans-Serif" font-size="10.00">&#45;</text>
<text text-anchor="start" x="291" y="-100" font-family="Helvetica,sans-Serif" font-size="10.00">bool[,] lockRoad</text>
<text text-anchor="start" x="278" y="-85" font-family="Helvetica,sans-Serif" font-size="10.00">+</text>
<text text-anchor="start" x="291" y="-85" font-family="Helvetica,sans-Serif" font-size="10.00">RoadGenerator(int size, List&lt; EdgeRoadContainer</text>
<text text-anchor="start" x="291" y="-74" font-family="Helvetica,sans-Serif" font-size="10.00"> &gt; startPositions, Chunk[,] nearbyChunks)</text>
<text text-anchor="start" x="280.5" y="-59" font-family="Helvetica,sans-Serif" font-size="10.00">&#45;</text>
<text text-anchor="start" x="291" y="-59" font-family="Helvetica,sans-Serif" font-size="10.00">void CreateRoad(Vector2Int roadPos, Vector2Int</text>
<text text-anchor="start" x="291" y="-48" font-family="Helvetica,sans-Serif" font-size="10.00"> roadDir, int forwardCounter=0)</text>
<text text-anchor="start" x="280.5" y="-33" font-family="Helvetica,sans-Serif" font-size="10.00">&#45;</text>
<text text-anchor="start" x="291" y="-33" font-family="Helvetica,sans-Serif" font-size="10.00">bool GoinTowardsEdge(Vector2Int position, Vector2Int dir)</text>
<text text-anchor="start" x="280.5" y="-18" font-family="Helvetica,sans-Serif" font-size="10.00">&#45;</text>
<text text-anchor="start" x="291" y="-18" font-family="Helvetica,sans-Serif" font-size="10.00">bool CheckForward(Vector2Int position, Vector2Int</text>
<text text-anchor="start" x="291" y="-7" font-family="Helvetica,sans-Serif" font-size="10.00"> dir, int counter)</text>
<polygon fill="#666666" stroke="#666666" points="274,-185 274,-185 576,-185 576,-185 274,-185"/>
<polygon fill="#666666" stroke="#666666" points="274,-95 274,-95 289,-95 289,-95 274,-95"/>
<polygon fill="#666666" stroke="#666666" points="289,-95 289,-95 576,-95 576,-95 289,-95"/>
<polygon fill="none" stroke="#666666" points="274,0 274,-202 576,-202 576,0 274,0"/>
</a>
</g>
</g>
<!-- Node2&#45;&gt;Node5 -->
<g id="edge5_Node000005_Node000002" class="edge">
<title>Node2&#45;&gt;Node5</title>
<g id="a_edge5_Node000005_Node000002"><a xlink:title=" ">
<path fill="none" stroke="#63b8ff" d="M399.35,-248.84C400.59,-242.85 401.81,-236.9 403,-231 404.12,-225.45 405.23,-219.75 406.33,-213.99"/>
<polygon fill="none" stroke="#63b8ff" points="406.34,-213.91 403.51,-207.28 408.55,-202.12 411.38,-208.75 406.34,-213.91"/>
</a>
</g>
<text text-anchor="middle" x="443.5" y="-223" font-family="Helvetica,sans-Serif" font-size="10.00" fill="grey"> &#45;nearbyChunks</text>
</g>
<!-- Node6 -->
<g id="Node000006" class="node">
<title>Node6</title>
<g id="a_Node000006"><a xlink:href="classGame_1_1World_1_1GameWorld.html" target="_top" xlink:title="A class for handling chunk loading and unloading.">
<polygon fill="white" stroke="transparent" points="256,-163 0,-163 0,-39 256,-39 256,-163"/>
<text text-anchor="start" x="67.5" y="-151" font-family="Helvetica,sans-Serif" font-size="10.00">Game.World.GameWorld</text>
<text text-anchor="start" x="6.5" y="-136" font-family="Helvetica,sans-Serif" font-size="10.00">&#45;</text>
<text text-anchor="start" x="17" y="-136" font-family="Helvetica,sans-Serif" font-size="10.00">GameObject ChunkPrefab</text>
<text text-anchor="start" x="4" y="-121" font-family="Helvetica,sans-Serif" font-size="10.00">+</text>
<text text-anchor="start" x="17" y="-121" font-family="Helvetica,sans-Serif" font-size="10.00">Chunk GetChunk(Vector3 GameObjectPos)</text>
<text text-anchor="start" x="4" y="-106" font-family="Helvetica,sans-Serif" font-size="10.00">+</text>
<text text-anchor="start" x="17" y="-106" font-family="Helvetica,sans-Serif" font-size="10.00">async Task CreateNewGame()</text>
<text text-anchor="start" x="4" y="-91" font-family="Helvetica,sans-Serif" font-size="10.00">+</text>
<text text-anchor="start" x="17" y="-91" font-family="Helvetica,sans-Serif" font-size="10.00">async Task LoadChunk(int x, int z)</text>
<text text-anchor="start" x="4" y="-76" font-family="Helvetica,sans-Serif" font-size="10.00">+</text>
<text text-anchor="start" x="17" y="-76" font-family="Helvetica,sans-Serif" font-size="10.00">void HideChunk(int col, int row)</text>
<text text-anchor="start" x="4" y="-61" font-family="Helvetica,sans-Serif" font-size="10.00">+</text>
<text text-anchor="start" x="17" y="-61" font-family="Helvetica,sans-Serif" font-size="10.00">Chunk GetChunkWithoutLoad(int col, int row)</text>
<text text-anchor="start" x="4" y="-46" font-family="Helvetica,sans-Serif" font-size="10.00">+</text>
<text text-anchor="start" x="17" y="-46" font-family="Helvetica,sans-Serif" font-size="10.00">async Task&lt; Chunk &gt; GetChunk(int col, int row)</text>
<polygon fill="#666666" stroke="#666666" points="0,-146 0,-146 256,-146 256,-146 0,-146"/>
<polygon fill="#666666" stroke="#666666" points="0,-131 0,-131 15,-131 15,-131 0,-131"/>
<polygon fill="#666666" stroke="#666666" points="15,-131 15,-131 256,-131 256,-131 15,-131"/>
<polygon fill="none" stroke="#666666" points="0,-39 0,-163 256,-163 256,-39 0,-39"/>
</a>
</g>
</g>
<!-- Node2&#45;&gt;Node6 -->
<g id="edge8_Node000006_Node000002" class="edge">
<title>Node2&#45;&gt;Node6</title>
<g id="a_edge8_Node000006_Node000002"><a xlink:title=" ">
<path fill="none" stroke="#63b8ff" d="M232.97,-248.95C228.49,-239.09 223.84,-229.41 219,-220 210.71,-203.86 200.13,-187.71 189.13,-172.76"/>
<polygon fill="none" stroke="#63b8ff" points="189.09,-172.71 182.29,-170.33 181.87,-163.13 188.68,-165.51 189.09,-172.71"/>
</a>
</g>
<text text-anchor="middle" x="245.5" y="-223" font-family="Helvetica,sans-Serif" font-size="10.00" fill="grey"> &#45;Chunks</text>
</g>
<!-- Node3 -->
<g id="Node000003" class="node">
<title>Node3</title>
<g id="a_Node000003"><a xlink:href="classUtility_1_1ThreadSafeMonoBehaviour.html" target="_top" xlink:title="Safely stores if the gameobject been destroyed in a bool.">
<polygon fill="white" stroke="transparent" points="199.5,-1014 56.5,-1014 56.5,-965 199.5,-965 199.5,-1014"/>
<text text-anchor="start" x="62" y="-1001.5" font-family="Helvetica,sans-Serif" font-size="10.00">ThreadSafeMonoBehaviour</text>
<text text-anchor="start" x="70.5" y="-986.5" font-family="Helvetica,sans-Serif" font-size="10.00">+</text>
<text text-anchor="start" x="93" y="-986.5" font-family="Helvetica,sans-Serif" font-size="10.00">bool Destroyed</text>
<text text-anchor="start" x="70.5" y="-971.5" font-family="Helvetica,sans-Serif" font-size="10.00">#</text>
<text text-anchor="start" x="93" y="-971.5" font-family="Helvetica,sans-Serif" font-size="10.00">void OnDestroy()</text>
<polygon fill="#666666" stroke="#666666" points="57,-996.5 57,-996.5 200,-996.5 200,-996.5 57,-996.5"/>
<polygon fill="#666666" stroke="#666666" points="57,-981.5 57,-981.5 91,-981.5 91,-981.5 57,-981.5"/>
<polygon fill="#666666" stroke="#666666" points="91,-981.5 91,-981.5 200,-981.5 200,-981.5 91,-981.5"/>
<polygon fill="none" stroke="#666666" points="56.5,-965 56.5,-1014 199.5,-1014 199.5,-965 56.5,-965"/>
</a>
</g>
</g>
<!-- Node3&#45;&gt;Node2 -->
<g id="edge2_Node000002_Node000003" class="edge">
<title>Node3&#45;&gt;Node2</title>
<g id="a_edge2_Node000002_Node000003"><a xlink:title=" ">
<path fill="none" stroke="#63b8ff" d="M143.48,-955.48C151.45,-938.48 162.03,-915.92 174.08,-890.23"/>
<polygon fill="none" stroke="#63b8ff" points="140.18,-954.29 139.1,-964.83 146.51,-957.26 140.18,-954.29"/>
</a>
</g>
</g>
<!-- Node3&#45;&gt;Node6 -->
<g id="edge7_Node000006_Node000003" class="edge">
<title>Node3&#45;&gt;Node6</title>
<g id="a_edge7_Node000006_Node000003"><a xlink:title=" ">
<path fill="none" stroke="#63b8ff" d="M128,-954.41C128,-821.3 128,-335.39 128,-163.09"/>
<polygon fill="none" stroke="#63b8ff" points="124.5,-954.79 128,-964.79 131.5,-954.79 124.5,-954.79"/>
</a>
</g>
</g>
<!-- Node4 -->
<g id="Node000004" class="node">
<title>Node4</title>
<g id="a_Node000004"><a xlink:title=" ">
<polygon fill="white" stroke="transparent" points="171.5,-1128 84.5,-1128 84.5,-1079 171.5,-1079 171.5,-1128"/>
<text text-anchor="start" x="90" y="-1115.5" font-family="Helvetica,sans-Serif" font-size="10.00">MonoBehaviour</text>
<text text-anchor="start" x="126.5" y="-1100.5" font-family="Helvetica,sans-Serif" font-size="10.00"> </text>
<text text-anchor="start" x="126.5" y="-1085.5" font-family="Helvetica,sans-Serif" font-size="10.00"> </text>
<polygon fill="#666666" stroke="#666666" points="85,-1110.5 85,-1110.5 172,-1110.5 172,-1110.5 85,-1110.5"/>
<polygon fill="#666666" stroke="#666666" points="85,-1095.5 85,-1095.5 172,-1095.5 172,-1095.5 85,-1095.5"/>
<polygon fill="none" stroke="#666666" points="84.5,-1079 84.5,-1128 171.5,-1128 171.5,-1079 84.5,-1079"/>
</a>
</g>
</g>
<!-- Node4&#45;&gt;Node3 -->
<g id="edge3_Node000003_Node000004" class="edge">
<title>Node4&#45;&gt;Node3</title>
<g id="a_edge3_Node000003_Node000004"><a xlink:title=" ">
<path fill="none" stroke="#63b8ff" d="M128,-1068.36C128,-1050.85 128,-1029.95 128,-1014.22"/>
<polygon fill="none" stroke="#63b8ff" points="124.5,-1068.75 128,-1078.75 131.5,-1068.75 124.5,-1068.75"/>
</a>
</g>
</g>
<!-- Node5&#45;&gt;Node2 -->
<g id="edge4_Node000002_Node000005" class="edge">
<title>Node5&#45;&gt;Node2</title>
<g id="a_edge4_Node000002_Node000005"><a xlink:title=" ">
<path fill="none" stroke="#63b8ff" d="M332.96,-202.18C329.92,-208 327.23,-213.95 325,-220 322.95,-225.56 321.06,-231.21 319.31,-236.93"/>
<polygon fill="none" stroke="#63b8ff" points="319.23,-237.22 321.42,-244.09 315.93,-248.75 313.73,-241.89 319.23,-237.22"/>
</a>
</g>
<text text-anchor="middle" x="364" y="-223" font-family="Helvetica,sans-Serif" font-size="10.00" fill="grey"> &#45;roadGenerator</text>
</g>
<!-- Node6&#45;&gt;Node2 -->
<g id="edge6_Node000002_Node000006" class="edge">
<title>Node6&#45;&gt;Node2</title>
<g id="a_edge6_Node000002_Node000006"><a xlink:title=" ">
<path fill="none" stroke="#63b8ff" d="M153.75,-163.29C162.67,-184.53 173.39,-210.04 185.05,-237.8"/>
<polygon fill="none" stroke="#63b8ff" points="185.1,-237.9 191.11,-241.88 189.75,-248.96 183.73,-244.98 185.1,-237.9"/>
</a>
</g>
<text text-anchor="middle" x="198" y="-223" font-family="Helvetica,sans-Serif" font-size="10.00" fill="grey"> &#45;world</text>
</g>
<!-- Node7 -->
<g id="Node000007" class="node">
<title>Node7</title>
<g id="a_Node000007"><a xlink:title=" ">
<polygon fill="white" stroke="transparent" points="458,-1042 218,-1042 218,-937 458,-937 458,-1042"/>
<text text-anchor="start" x="277" y="-1029.5" font-family="Helvetica,sans-Serif" font-size="10.00">Game.World.BuildingCell</text>
<text text-anchor="start" x="222" y="-1014.5" font-family="Helvetica,sans-Serif" font-size="10.00">+</text>
<text text-anchor="start" x="235" y="-1014.5" font-family="Helvetica,sans-Serif" font-size="10.00">BuildingDirection RoadDirection</text>
<text text-anchor="start" x="222" y="-999.5" font-family="Helvetica,sans-Serif" font-size="10.00">+</text>
<text text-anchor="start" x="235" y="-999.5" font-family="Helvetica,sans-Serif" font-size="10.00">bool Buildable</text>
<text text-anchor="start" x="222" y="-984.5" font-family="Helvetica,sans-Serif" font-size="10.00">+</text>
<text text-anchor="start" x="235" y="-984.5" font-family="Helvetica,sans-Serif" font-size="10.00">bool GotRoadNext</text>
<text text-anchor="start" x="222" y="-969.5" font-family="Helvetica,sans-Serif" font-size="10.00">+</text>
<text text-anchor="start" x="235" y="-969.5" font-family="Helvetica,sans-Serif" font-size="10.00">BuildingCell(BuildingDirection roadDirection,</text>
<text text-anchor="start" x="235" y="-958.5" font-family="Helvetica,sans-Serif" font-size="10.00"> bool buildable)</text>
<text text-anchor="start" x="222" y="-943.5" font-family="Helvetica,sans-Serif" font-size="10.00">+</text>
<text text-anchor="start" x="235" y="-943.5" font-family="Helvetica,sans-Serif" font-size="10.00">void Occupy()</text>
<polygon fill="#666666" stroke="#666666" points="218,-1024.5 218,-1024.5 458,-1024.5 458,-1024.5 218,-1024.5"/>
<polygon fill="#666666" stroke="#666666" points="218,-979.5 218,-979.5 233,-979.5 233,-979.5 218,-979.5"/>
<polygon fill="#666666" stroke="#666666" points="233,-979.5 233,-979.5 458,-979.5 458,-979.5 233,-979.5"/>
<polygon fill="none" stroke="#666666" points="218,-937 218,-1042 458,-1042 458,-937 218,-937"/>
</a>
</g>
</g>
<!-- Node7&#45;&gt;Node2 -->
<g id="edge9_Node000002_Node000007" class="edge">
<title>Node7&#45;&gt;Node2</title>
<g id="a_edge9_Node000002_Node000007"><a xlink:title=" ">
<path fill="none" stroke="#63b8ff" d="M336.27,-936.83C335.92,-926.48 335.54,-914.91 335.12,-902.44"/>
<polygon fill="none" stroke="#63b8ff" points="335.11,-902.21 330.91,-896.35 334.71,-890.22 338.91,-896.08 335.11,-902.21"/>
</a>
</g>
<text text-anchor="middle" x="371" y="-911" font-family="Helvetica,sans-Serif" font-size="10.00" fill="grey"> &#45;buildingCells</text>
</g>
</g>
</svg>
