<?xml version="1.0" encoding="UTF-8" standalone="no"?>
<!DOCTYPE svg PUBLIC "-//W3C//DTD SVG 1.1//EN"
 "http://www.w3.org/Graphics/SVG/1.1/DTD/svg11.dtd">
<!-- Generated by graphviz version 2.43.0 (0)
 -->
<!-- Title: EdgeRoadContainer Pages: 1 -->
<svg width="315pt" height="98pt"
 viewBox="0.00 0.00 315.00 98.00" xmlns="http://www.w3.org/2000/svg" xmlns:xlink="http://www.w3.org/1999/xlink">
<g id="graph0" class="graph" transform="scale(1 1) rotate(0) translate(4 94)">
<title>EdgeRoadContainer</title>
<!-- Node1 -->
<g id="Node000001" class="node">
<title>Node1</title>
<g id="a_Node000001"><a xlink:title="Store the edge road of the chunk.">
<polygon fill="#999999" stroke="transparent" points="307,-90 0,-90 0,0 307,0 307,-90"/>
<text text-anchor="start" x="105.5" y="-78" font-family="Helvetica,sans-Serif" font-size="10.00">EdgeRoadContainer</text>
<text text-anchor="start" x="4.5" y="-63" font-family="Helvetica,sans-Serif" font-size="10.00">+</text>
<text text-anchor="start" x="17.5" y="-63" font-family="Helvetica,sans-Serif" font-size="10.00">Vector2Int EdgeRoad</text>
<text text-anchor="start" x="4.5" y="-48" font-family="Helvetica,sans-Serif" font-size="10.00">+</text>
<text text-anchor="start" x="17.5" y="-48" font-family="Helvetica,sans-Serif" font-size="10.00">int roadCounter</text>
<text text-anchor="start" x="4.5" y="-33" font-family="Helvetica,sans-Serif" font-size="10.00">+</text>
<text text-anchor="start" x="17.5" y="-33" font-family="Helvetica,sans-Serif" font-size="10.00">Vector2Int Direction</text>
<text text-anchor="start" x="4.5" y="-18" font-family="Helvetica,sans-Serif" font-size="10.00">+</text>
<text text-anchor="start" x="17.5" y="-18" font-family="Helvetica,sans-Serif" font-size="10.00">EdgeRoadContainer(Vector2Int edgeRoad, int roadCounter,</text>
<text text-anchor="start" x="17.5" y="-7" font-family="Helvetica,sans-Serif" font-size="10.00"> Vector2Int direction)</text>
<polygon fill="#666666" stroke="#666666" points="0.5,-73 0.5,-73 307.5,-73 307.5,-73 0.5,-73"/>
<polygon fill="#666666" stroke="#666666" points="0.5,-28 0.5,-28 15.5,-28 15.5,-28 0.5,-28"/>
<polygon fill="#666666" stroke="#666666" points="15.5,-28 15.5,-28 307.5,-28 307.5,-28 15.5,-28"/>
<polygon fill="none" stroke="#666666" points="0,0 0,-90 307,-90 307,0 0,0"/>
</a>
</g>
</g>
</g>
</svg>
