<?xml version="1.0" encoding="UTF-8" standalone="no"?>
<!DOCTYPE svg PUBLIC "-//W3C//DTD SVG 1.1//EN"
 "http://www.w3.org/Graphics/SVG/1.1/DTD/svg11.dtd">
<!-- Generated by graphviz version 2.43.0 (0)
 -->
<!-- Title: Game.UI.GameUI.ShowShopWindow Pages: 1 -->
<svg width="1048pt" height="104pt"
 viewBox="0.00 0.00 1048.00 104.00" xmlns="http://www.w3.org/2000/svg" xmlns:xlink="http://www.w3.org/1999/xlink">
<g id="graph0" class="graph" transform="scale(1 1) rotate(0) translate(4 100)">
<title>Game.UI.GameUI.ShowShopWindow</title>
<polygon fill="white" stroke="transparent" points="-4,4 -4,-100 1044,-100 1044,4 -4,4"/>
<!-- Node1 -->
<g id="node1" class="node">
<title>Node1</title>
<g id="a_node1"><a xlink:title="Display the shop window">
<polygon fill="#bfbfbf" stroke="black" points="0,-38.5 0,-57.5 194,-57.5 194,-38.5 0,-38.5"/>
<text text-anchor="middle" x="97" y="-45.5" font-family="Helvetica,sans-Serif" font-size="10.00">Game.UI.GameUI.ShowShopWindow</text>
</a>
</g>
</g>
<!-- Node2 -->
<g id="node2" class="node">
<title>Node2</title>
<g id="a_node2"><a xlink:href="classGame_1_1UI_1_1ShopWindow.html#ad9204f9c12eb8520523232c340f477b0" target="_top" xlink:title="Show the shop window">
<polygon fill="white" stroke="black" points="230,-38.5 230,-57.5 384,-57.5 384,-38.5 230,-38.5"/>
<text text-anchor="middle" x="307" y="-45.5" font-family="Helvetica,sans-Serif" font-size="10.00">Game.UI.ShopWindow.Show</text>
</a>
</g>
</g>
<!-- Node1&#45;&gt;Node2 -->
<g id="edge1" class="edge">
<title>Node1&#45;&gt;Node2</title>
<path fill="none" stroke="midnightblue" d="M194.08,-48C202.64,-48 211.26,-48 219.72,-48"/>
<polygon fill="midnightblue" stroke="midnightblue" points="219.95,-51.5 229.95,-48 219.95,-44.5 219.95,-51.5"/>
</g>
<!-- Node3 -->
<g id="node3" class="node">
<title>Node3</title>
<g id="a_node3"><a xlink:href="classGame_1_1UI_1_1ShopWindow.html#a9297b39a0fa7a77e8cf3022bc28c0b35" target="_top" xlink:title="Update the shop items">
<polygon fill="white" stroke="black" points="420,-38.5 420,-57.5 607,-57.5 607,-38.5 420,-38.5"/>
<text text-anchor="middle" x="513.5" y="-45.5" font-family="Helvetica,sans-Serif" font-size="10.00">Game.UI.ShopWindow.UpdateShop</text>
</a>
</g>
</g>
<!-- Node2&#45;&gt;Node3 -->
<g id="edge2" class="edge">
<title>Node2&#45;&gt;Node3</title>
<path fill="none" stroke="midnightblue" d="M384.15,-48C392.47,-48 401.05,-48 409.62,-48"/>
<polygon fill="midnightblue" stroke="midnightblue" points="409.68,-51.5 419.68,-48 409.68,-44.5 409.68,-51.5"/>
</g>
<!-- Node4 -->
<g id="node4" class="node">
<title>Node4</title>
<g id="a_node4"><a xlink:href="classGame_1_1UI_1_1ShopWindow.html#a6a703aeb6610fe526d65a9b89ad4c78e" target="_top" xlink:title="Display the loaded shop items">
<polygon fill="white" stroke="black" points="643,-76.5 643,-95.5 858,-95.5 858,-76.5 643,-76.5"/>
<text text-anchor="middle" x="750.5" y="-83.5" font-family="Helvetica,sans-Serif" font-size="10.00">Game.UI.ShopWindow.LoadedShopItems</text>
</a>
</g>
</g>
<!-- Node3&#45;&gt;Node4 -->
<g id="edge3" class="edge">
<title>Node3&#45;&gt;Node4</title>
<path fill="none" stroke="midnightblue" d="M573.5,-57.54C605.9,-62.78 646.28,-69.31 680.18,-74.79"/>
<polygon fill="midnightblue" stroke="midnightblue" points="680.05,-78.31 690.48,-76.46 681.17,-71.4 680.05,-78.31"/>
</g>
<!-- Node6 -->
<g id="node6" class="node">
<title>Node6</title>
<g id="a_node6"><a xlink:href="classUtility_1_1CoroutineRunner.html#a1c473dee723f16d86bab9d8475c8214a" target="_top" xlink:title="A helper method to start coroutines">
<polygon fill="white" stroke="black" points="651.5,-38.5 651.5,-57.5 849.5,-57.5 849.5,-38.5 651.5,-38.5"/>
<text text-anchor="middle" x="750.5" y="-45.5" font-family="Helvetica,sans-Serif" font-size="10.00">Utility.CoroutineRunner.RunCoroutine</text>
</a>
</g>
</g>
<!-- Node3&#45;&gt;Node6 -->
<g id="edge5" class="edge">
<title>Node3&#45;&gt;Node6</title>
<path fill="none" stroke="midnightblue" d="M607.04,-48C618.27,-48 629.81,-48 641.24,-48"/>
<polygon fill="midnightblue" stroke="midnightblue" points="641.24,-51.5 651.24,-48 641.24,-44.5 641.24,-51.5"/>
</g>
<!-- Node7 -->
<g id="node7" class="node">
<title>Node7</title>
<g id="a_node7"><a xlink:href="classGame_1_1UI_1_1ShopWindow.html#ab11a75acddb1467e29d7624a4d12b8b9" target="_top" xlink:title="Show if the request failed on the modal window">
<polygon fill="white" stroke="black" points="645.5,-0.5 645.5,-19.5 855.5,-19.5 855.5,-0.5 645.5,-0.5"/>
<text text-anchor="middle" x="750.5" y="-7.5" font-family="Helvetica,sans-Serif" font-size="10.00">Game.UI.ShopWindow.ShowRequestFail</text>
</a>
</g>
</g>
<!-- Node3&#45;&gt;Node7 -->
<g id="edge6" class="edge">
<title>Node3&#45;&gt;Node7</title>
<path fill="none" stroke="midnightblue" d="M573.5,-38.46C605.9,-33.22 646.28,-26.69 680.18,-21.21"/>
<polygon fill="midnightblue" stroke="midnightblue" points="681.17,-24.6 690.48,-19.54 680.05,-17.69 681.17,-24.6"/>
</g>
<!-- Node5 -->
<g id="node5" class="node">
<title>Node5</title>
<g id="a_node5"><a xlink:href="classGame_1_1UI_1_1ShopItem.html#a8f8263dc4d8a04ebbd12545537c98879" target="_top" xlink:title="Initializes this shop item">
<polygon fill="white" stroke="black" points="903,-76.5 903,-95.5 1031,-95.5 1031,-76.5 903,-76.5"/>
<text text-anchor="middle" x="967" y="-83.5" font-family="Helvetica,sans-Serif" font-size="10.00">Game.UI.ShopItem.Init</text>
</a>
</g>
</g>
<!-- Node4&#45;&gt;Node5 -->
<g id="edge4" class="edge">
<title>Node4&#45;&gt;Node5</title>
<path fill="none" stroke="midnightblue" d="M858.12,-86C869.87,-86 881.64,-86 892.85,-86"/>
<polygon fill="midnightblue" stroke="midnightblue" points="892.97,-89.5 902.97,-86 892.97,-82.5 892.97,-89.5"/>
</g>
<!-- Node8 -->
<g id="node8" class="node">
<title>Node8</title>
<g id="a_node8"><a xlink:href="classUtility_1_1ModalWindow.html#adcef8cae2dffe4247c905d042ff0a8e3" target="_top" xlink:title="Show the modal window">
<polygon fill="white" stroke="black" points="894,-0.5 894,-19.5 1040,-19.5 1040,-0.5 894,-0.5"/>
<text text-anchor="middle" x="967" y="-7.5" font-family="Helvetica,sans-Serif" font-size="10.00">Utility.ModalWindow.Show</text>
</a>
</g>
</g>
<!-- Node7&#45;&gt;Node8 -->
<g id="edge7" class="edge">
<title>Node7&#45;&gt;Node8</title>
<path fill="none" stroke="midnightblue" d="M855.61,-10C864.99,-10 874.41,-10 883.57,-10"/>
<polygon fill="midnightblue" stroke="midnightblue" points="883.79,-13.5 893.79,-10 883.79,-6.5 883.79,-13.5"/>
</g>
</g>
</svg>
