<?xml version="1.0" encoding="UTF-8" standalone="no"?>
<!DOCTYPE svg PUBLIC "-//W3C//DTD SVG 1.1//EN"
 "http://www.w3.org/Graphics/SVG/1.1/DTD/svg11.dtd">
<!-- Generated by graphviz version 2.43.0 (0)
 -->
<!-- Title: Game.CarController Pages: 1 -->
<svg width="285pt" height="688pt"
 viewBox="0.00 0.00 285.00 688.00" xmlns="http://www.w3.org/2000/svg" xmlns:xlink="http://www.w3.org/1999/xlink">
<g id="graph0" class="graph" transform="scale(1 1) rotate(0) translate(4 684)">
<title>Game.CarController</title>
<!-- Node1 -->
<g id="Node000001" class="node">
<title>Node1</title>
<g id="a_Node000001"><a xlink:title=" ">
<polygon fill="#999999" stroke="transparent" points="277,-510 0,-510 0,0 277,0 277,-510"/>
<text text-anchor="start" x="90.5" y="-498" font-family="Helvetica,sans-Serif" font-size="10.00">Game.CarController</text>
<text text-anchor="start" x="4.5" y="-483" font-family="Helvetica,sans-Serif" font-size="10.00">+</text>
<text text-anchor="start" x="17.5" y="-483" font-family="Helvetica,sans-Serif" font-size="10.00">float BrakeInput</text>
<text text-anchor="start" x="4.5" y="-468" font-family="Helvetica,sans-Serif" font-size="10.00">+</text>
<text text-anchor="start" x="17.5" y="-468" font-family="Helvetica,sans-Serif" font-size="10.00">float CurrentSteerAngle</text>
<text text-anchor="start" x="4.5" y="-453" font-family="Helvetica,sans-Serif" font-size="10.00">+</text>
<text text-anchor="start" x="17.5" y="-453" font-family="Helvetica,sans-Serif" font-size="10.00">float CurrentSpeed</text>
<text text-anchor="start" x="4.5" y="-438" font-family="Helvetica,sans-Serif" font-size="10.00">+</text>
<text text-anchor="start" x="17.5" y="-438" font-family="Helvetica,sans-Serif" font-size="10.00">float MaxSpeed</text>
<text text-anchor="start" x="4.5" y="-423" font-family="Helvetica,sans-Serif" font-size="10.00">+</text>
<text text-anchor="start" x="17.5" y="-423" font-family="Helvetica,sans-Serif" font-size="10.00">float Revs</text>
<text text-anchor="start" x="4.5" y="-408" font-family="Helvetica,sans-Serif" font-size="10.00">+</text>
<text text-anchor="start" x="17.5" y="-408" font-family="Helvetica,sans-Serif" font-size="10.00">float AccelInput</text>
<text text-anchor="start" x="7" y="-393" font-family="Helvetica,sans-Serif" font-size="10.00">&#45;</text>
<text text-anchor="start" x="17.5" y="-393" font-family="Helvetica,sans-Serif" font-size="10.00">CarDriveType m_CarDriveType</text>
<text text-anchor="start" x="7" y="-378" font-family="Helvetica,sans-Serif" font-size="10.00">&#45;</text>
<text text-anchor="start" x="17.5" y="-378" font-family="Helvetica,sans-Serif" font-size="10.00">WheelCollider[] m_WheelColliders</text>
<text text-anchor="start" x="7" y="-363" font-family="Helvetica,sans-Serif" font-size="10.00">&#45;</text>
<text text-anchor="start" x="17.5" y="-363" font-family="Helvetica,sans-Serif" font-size="10.00">Vector3 m_CentreOfMassOffset</text>
<text text-anchor="start" x="7" y="-348" font-family="Helvetica,sans-Serif" font-size="10.00">&#45;</text>
<text text-anchor="start" x="17.5" y="-348" font-family="Helvetica,sans-Serif" font-size="10.00">float m_MaximumSteerAngle</text>
<text text-anchor="start" x="7" y="-333" font-family="Helvetica,sans-Serif" font-size="10.00">&#45;</text>
<text text-anchor="start" x="17.5" y="-333" font-family="Helvetica,sans-Serif" font-size="10.00">float m_SteerHelper</text>
<text text-anchor="start" x="7" y="-318" font-family="Helvetica,sans-Serif" font-size="10.00">&#45;</text>
<text text-anchor="start" x="17.5" y="-318" font-family="Helvetica,sans-Serif" font-size="10.00">float m_TractionControl</text>
<text text-anchor="start" x="7" y="-303" font-family="Helvetica,sans-Serif" font-size="10.00">&#45;</text>
<text text-anchor="start" x="17.5" y="-303" font-family="Helvetica,sans-Serif" font-size="10.00">float m_FullTorqueOverAllWheels</text>
<text text-anchor="start" x="7" y="-288" font-family="Helvetica,sans-Serif" font-size="10.00">&#45;</text>
<text text-anchor="start" x="17.5" y="-288" font-family="Helvetica,sans-Serif" font-size="10.00">float m_ReverseTorque</text>
<text text-anchor="start" x="7" y="-273" font-family="Helvetica,sans-Serif" font-size="10.00">&#45;</text>
<text text-anchor="start" x="17.5" y="-273" font-family="Helvetica,sans-Serif" font-size="10.00">float m_MaxHandbrakeTorque</text>
<text text-anchor="start" x="7" y="-258" font-family="Helvetica,sans-Serif" font-size="10.00">&#45;</text>
<text text-anchor="start" x="17.5" y="-258" font-family="Helvetica,sans-Serif" font-size="10.00">float m_Downforce</text>
<text text-anchor="start" x="7" y="-243" font-family="Helvetica,sans-Serif" font-size="10.00">&#45;</text>
<text text-anchor="start" x="17.5" y="-243" font-family="Helvetica,sans-Serif" font-size="10.00">SpeedType m_SpeedType</text>
<text text-anchor="start" x="7" y="-228" font-family="Helvetica,sans-Serif" font-size="10.00">&#45;</text>
<text text-anchor="start" x="17.5" y="-228" font-family="Helvetica,sans-Serif" font-size="10.00">float m_Topspeed</text>
<text text-anchor="start" x="7" y="-213" font-family="Helvetica,sans-Serif" font-size="10.00">&#45;</text>
<text text-anchor="start" x="17.5" y="-213" font-family="Helvetica,sans-Serif" font-size="10.00">float m_SlipLimit</text>
<text text-anchor="start" x="7" y="-198" font-family="Helvetica,sans-Serif" font-size="10.00">&#45;</text>
<text text-anchor="start" x="17.5" y="-198" font-family="Helvetica,sans-Serif" font-size="10.00">float m_BrakeTorque</text>
<text text-anchor="start" x="7" y="-183" font-family="Helvetica,sans-Serif" font-size="10.00">&#45;</text>
<text text-anchor="start" x="17.5" y="-183" font-family="Helvetica,sans-Serif" font-size="10.00">float m_SteerAngle</text>
<text text-anchor="start" x="7" y="-168" font-family="Helvetica,sans-Serif" font-size="10.00">&#45;</text>
<text text-anchor="start" x="17.5" y="-168" font-family="Helvetica,sans-Serif" font-size="10.00">float m_OldRotation</text>
<text text-anchor="start" x="7" y="-153" font-family="Helvetica,sans-Serif" font-size="10.00">&#45;</text>
<text text-anchor="start" x="17.5" y="-153" font-family="Helvetica,sans-Serif" font-size="10.00">float m_CurrentTorque</text>
<text text-anchor="start" x="7" y="-138" font-family="Helvetica,sans-Serif" font-size="10.00">&#45;</text>
<text text-anchor="start" x="17.5" y="-138" font-family="Helvetica,sans-Serif" font-size="10.00">Rigidbody m_Rigidbody</text>
<text text-anchor="start" x="4.5" y="-123" font-family="Helvetica,sans-Serif" font-size="10.00">+</text>
<text text-anchor="start" x="17.5" y="-123" font-family="Helvetica,sans-Serif" font-size="10.00">void Move(float steering, float accel, float footbrake,</text>
<text text-anchor="start" x="17.5" y="-112" font-family="Helvetica,sans-Serif" font-size="10.00"> float handbrake)</text>
<text text-anchor="start" x="7" y="-97" font-family="Helvetica,sans-Serif" font-size="10.00">&#45;</text>
<text text-anchor="start" x="17.5" y="-97" font-family="Helvetica,sans-Serif" font-size="10.00">void Start()</text>
<text text-anchor="start" x="7" y="-82" font-family="Helvetica,sans-Serif" font-size="10.00">&#45;</text>
<text text-anchor="start" x="17.5" y="-82" font-family="Helvetica,sans-Serif" font-size="10.00">void CapSpeed()</text>
<text text-anchor="start" x="7" y="-67" font-family="Helvetica,sans-Serif" font-size="10.00">&#45;</text>
<text text-anchor="start" x="17.5" y="-67" font-family="Helvetica,sans-Serif" font-size="10.00">void ApplyDrive(float accel, float footbrake)</text>
<text text-anchor="start" x="7" y="-52" font-family="Helvetica,sans-Serif" font-size="10.00">&#45;</text>
<text text-anchor="start" x="17.5" y="-52" font-family="Helvetica,sans-Serif" font-size="10.00">void SteerHelper()</text>
<text text-anchor="start" x="7" y="-37" font-family="Helvetica,sans-Serif" font-size="10.00">&#45;</text>
<text text-anchor="start" x="17.5" y="-37" font-family="Helvetica,sans-Serif" font-size="10.00">void AddDownForce()</text>
<text text-anchor="start" x="7" y="-22" font-family="Helvetica,sans-Serif" font-size="10.00">&#45;</text>
<text text-anchor="start" x="17.5" y="-22" font-family="Helvetica,sans-Serif" font-size="10.00">void TractionControl()</text>
<text text-anchor="start" x="7" y="-7" font-family="Helvetica,sans-Serif" font-size="10.00">&#45;</text>
<text text-anchor="start" x="17.5" y="-7" font-family="Helvetica,sans-Serif" font-size="10.00">void AdjustTorque(float forwardSlip)</text>
<polygon fill="#666666" stroke="#666666" points="0.5,-493 0.5,-493 277.5,-493 277.5,-493 0.5,-493"/>
<polygon fill="#666666" stroke="#666666" points="0.5,-133 0.5,-133 15.5,-133 15.5,-133 0.5,-133"/>
<polygon fill="#666666" stroke="#666666" points="15.5,-133 15.5,-133 277.5,-133 277.5,-133 15.5,-133"/>
<polygon fill="none" stroke="#666666" points="0,0 0,-510 277,-510 277,0 0,0"/>
</a>
</g>
</g>
<!-- Node2 -->
<g id="Node000002" class="node">
<title>Node2</title>
<g id="a_Node000002"><a xlink:href="classUtility_1_1ThreadSafeMonoBehaviour.html" target="_top" xlink:title="Safely stores if the gameobject been destroyed in a bool.">
<polygon fill="white" stroke="transparent" points="210,-595 67,-595 67,-546 210,-546 210,-595"/>
<text text-anchor="start" x="72.5" y="-582.5" font-family="Helvetica,sans-Serif" font-size="10.00">ThreadSafeMonoBehaviour</text>
<text text-anchor="start" x="81" y="-567.5" font-family="Helvetica,sans-Serif" font-size="10.00">+</text>
<text text-anchor="start" x="103.5" y="-567.5" font-family="Helvetica,sans-Serif" font-size="10.00">bool Destroyed</text>
<text text-anchor="start" x="81" y="-552.5" font-family="Helvetica,sans-Serif" font-size="10.00">#</text>
<text text-anchor="start" x="103.5" y="-552.5" font-family="Helvetica,sans-Serif" font-size="10.00">void OnDestroy()</text>
<polygon fill="#666666" stroke="#666666" points="67.5,-577.5 67.5,-577.5 210.5,-577.5 210.5,-577.5 67.5,-577.5"/>
<polygon fill="#666666" stroke="#666666" points="67.5,-562.5 67.5,-562.5 101.5,-562.5 101.5,-562.5 67.5,-562.5"/>
<polygon fill="#666666" stroke="#666666" points="101.5,-562.5 101.5,-562.5 210.5,-562.5 210.5,-562.5 101.5,-562.5"/>
<polygon fill="none" stroke="#666666" points="67,-546 67,-595 210,-595 210,-546 67,-546"/>
</a>
</g>
</g>
<!-- Node2&#45;&gt;Node1 -->
<g id="edge1_Node000001_Node000002" class="edge">
<title>Node2&#45;&gt;Node1</title>
<g id="a_edge1_Node000001_Node000002"><a xlink:title=" ">
<path fill="none" stroke="#63b8ff" d="M138.5,-535.88C138.5,-528.25 138.5,-519.57 138.5,-510.11"/>
<polygon fill="none" stroke="#63b8ff" points="135,-535.94 138.5,-545.94 142,-535.94 135,-535.94"/>
</a>
</g>
</g>
<!-- Node3 -->
<g id="Node000003" class="node">
<title>Node3</title>
<g id="a_Node000003"><a xlink:title=" ">
<polygon fill="white" stroke="transparent" points="182,-680 95,-680 95,-631 182,-631 182,-680"/>
<text text-anchor="start" x="100.5" y="-667.5" font-family="Helvetica,sans-Serif" font-size="10.00">MonoBehaviour</text>
<text text-anchor="start" x="137" y="-652.5" font-family="Helvetica,sans-Serif" font-size="10.00"> </text>
<text text-anchor="start" x="137" y="-637.5" font-family="Helvetica,sans-Serif" font-size="10.00"> </text>
<polygon fill="#666666" stroke="#666666" points="95.5,-662.5 95.5,-662.5 182.5,-662.5 182.5,-662.5 95.5,-662.5"/>
<polygon fill="#666666" stroke="#666666" points="95.5,-647.5 95.5,-647.5 182.5,-647.5 182.5,-647.5 95.5,-647.5"/>
<polygon fill="none" stroke="#666666" points="95,-631 95,-680 182,-680 182,-631 95,-631"/>
</a>
</g>
</g>
<!-- Node3&#45;&gt;Node2 -->
<g id="edge2_Node000002_Node000003" class="edge">
<title>Node3&#45;&gt;Node2</title>
<g id="a_edge2_Node000002_Node000003"><a xlink:title=" ">
<path fill="none" stroke="#63b8ff" d="M138.5,-620.77C138.5,-612.17 138.5,-603.1 138.5,-595.12"/>
<polygon fill="none" stroke="#63b8ff" points="135,-620.94 138.5,-630.94 142,-620.94 135,-620.94"/>
</a>
</g>
</g>
</g>
</svg>
