<?xml version="1.0" encoding="UTF-8" standalone="no"?>
<!DOCTYPE svg PUBLIC "-//W3C//DTD SVG 1.1//EN"
 "http://www.w3.org/Graphics/SVG/1.1/DTD/svg11.dtd">
<!-- Generated by graphviz version 2.43.0 (0)
 -->
<!-- Title: Game.GameController.NewGame Pages: 1 -->
<svg width="1950pt" height="232pt"
 viewBox="0.00 0.00 1950.00 232.00" xmlns="http://www.w3.org/2000/svg" xmlns:xlink="http://www.w3.org/1999/xlink">
<g id="graph0" class="graph" transform="scale(1 1) rotate(0) translate(4 228)">
<title>Game.GameController.NewGame</title>
<!-- Node1 -->
<g id="Node000001" class="node">
<title>Node1</title>
<g id="a_Node000001"><a xlink:title="Create a new game.">
<polygon fill="#999999" stroke="#666666" points="179,-131 0,-131 0,-112 179,-112 179,-131"/>
<text text-anchor="middle" x="89.5" y="-119" font-family="Helvetica,sans-Serif" font-size="10.00">Game.GameController.NewGame</text>
</a>
</g>
</g>
<!-- Node2 -->
<g id="Node000002" class="node">
<title>Node2</title>
<g id="a_Node000002"><a xlink:href="classGame_1_1UI_1_1GameUI.html#a1f9659e1d86a8bcfdf115b631f89ce3e" target="_top" xlink:title="Change the difficulty and update its display.">
<polygon fill="white" stroke="#666666" points="436,-224 217,-224 217,-205 436,-205 436,-224"/>
<text text-anchor="middle" x="326.5" y="-212" font-family="Helvetica,sans-Serif" font-size="10.00">Game.UI.GameUI.ChangeDifficulyDisplay</text>
</a>
</g>
</g>
<!-- Node1&#45;&gt;Node2 -->
<g id="edge1_Node000001_Node000002" class="edge">
<title>Node1&#45;&gt;Node2</title>
<g id="a_edge1_Node000001_Node000002"><a xlink:title=" ">
<path fill="none" stroke="#63b8ff" d="M102.76,-131.1C124.2,-147.37 170.47,-180.15 215,-196.5 221.31,-198.82 227.94,-200.84 234.68,-202.6"/>
<polygon fill="#63b8ff" stroke="#63b8ff" points="234.06,-206.05 244.61,-205 235.71,-199.25 234.06,-206.05"/>
</a>
</g>
</g>
<!-- Node4 -->
<g id="Node000004" class="node">
<title>Node4</title>
<g id="a_Node000004"><a xlink:href="classGame_1_1World_1_1GameWorld.html#a5bc9140bbdf4b45f229d4e900db98d9b" target="_top" xlink:title="Creates a new game and create the chunks.">
<polygon fill="white" stroke="#666666" points="438,-187 215,-187 215,-168 438,-168 438,-187"/>
<text text-anchor="middle" x="326.5" y="-175" font-family="Helvetica,sans-Serif" font-size="10.00">Game.World.GameWorld.CreateNewGame</text>
</a>
</g>
</g>
<!-- Node1&#45;&gt;Node4 -->
<g id="edge3_Node000001_Node000004" class="edge">
<title>Node1&#45;&gt;Node4</title>
<g id="a_edge3_Node000001_Node000004"><a xlink:title=" ">
<path fill="none" stroke="#63b8ff" d="M117.9,-131.03C142.94,-139.46 181.11,-151.6 215,-159.5 225.58,-161.96 236.81,-164.21 247.9,-166.22"/>
<polygon fill="#63b8ff" stroke="#63b8ff" points="247.56,-169.71 258.02,-167.99 248.77,-162.82 247.56,-169.71"/>
</a>
</g>
</g>
<!-- Node20 -->
<g id="Node000020" class="node">
<title>Node20</title>
<g id="a_Node000020"><a xlink:href="classGame_1_1World_1_1GameWorld.html#a78654137c458c1b1917285e28d3d270b" target="_top" xlink:title="Gets the chunk based on the absolute position which chunk it would fall into.">
<polygon fill="white" stroke="#666666" points="420.5,-150 232.5,-150 232.5,-131 420.5,-131 420.5,-150"/>
<text text-anchor="middle" x="326.5" y="-138" font-family="Helvetica,sans-Serif" font-size="10.00">Game.World.GameWorld.GetChunk</text>
</a>
</g>
</g>
<!-- Node1&#45;&gt;Node20 -->
<g id="edge20_Node000001_Node000020" class="edge">
<title>Node1&#45;&gt;Node20</title>
<g id="a_edge20_Node000001_Node000020"><a xlink:title=" ">
<path fill="none" stroke="#63b8ff" d="M179.01,-128.66C193.04,-129.79 207.66,-130.97 221.99,-132.13"/>
<polygon fill="#63b8ff" stroke="#63b8ff" points="222.12,-135.65 232.37,-132.97 222.68,-128.68 222.12,-135.65"/>
</a>
</g>
</g>
<!-- Node21 -->
<g id="Node000021" class="node">
<title>Node21</title>
<g id="a_Node000021"><a xlink:href="classGame_1_1Car.html#adea5c0fa34888fc8d58fa434b205b365" target="_top" xlink:title="Initializes the car.">
<polygon fill="white" stroke="#666666" points="368,-113 285,-113 285,-94 368,-94 368,-113"/>
<text text-anchor="middle" x="326.5" y="-101" font-family="Helvetica,sans-Serif" font-size="10.00">Game.Car.Init</text>
</a>
</g>
</g>
<!-- Node1&#45;&gt;Node21 -->
<g id="edge21_Node000001_Node000021" class="edge">
<title>Node1&#45;&gt;Node21</title>
<g id="a_edge21_Node000001_Node000021"><a xlink:title=" ">
<path fill="none" stroke="#63b8ff" d="M179.01,-114.72C211.31,-112.25 246.73,-109.53 274.65,-107.39"/>
<polygon fill="#63b8ff" stroke="#63b8ff" points="275.26,-110.86 284.96,-106.6 274.73,-103.88 275.26,-110.86"/>
</a>
</g>
</g>
<!-- Node22 -->
<g id="Node000022" class="node">
<title>Node22</title>
<g id="a_Node000022"><a xlink:href="classGame_1_1GameController.html#a4ee6ddd9c52134a0bb30c3c0a7bef350" target="_top" xlink:title="Event for when the player is killed.">
<polygon fill="white" stroke="#666666" points="417.5,-76 235.5,-76 235.5,-57 417.5,-57 417.5,-76"/>
<text text-anchor="middle" x="326.5" y="-64" font-family="Helvetica,sans-Serif" font-size="10.00">Game.GameController.PlayerDied</text>
</a>
</g>
</g>
<!-- Node1&#45;&gt;Node22 -->
<g id="edge22_Node000001_Node000022" class="edge">
<title>Node1&#45;&gt;Node22</title>
<g id="a_edge22_Node000001_Node000022"><a xlink:title=" ">
<path fill="none" stroke="#63b8ff" d="M118.91,-111.93C143.96,-103.76 181.59,-92.15 215,-84.5 225.66,-82.06 236.98,-79.82 248.14,-77.81"/>
<polygon fill="#63b8ff" stroke="#63b8ff" points="249.08,-81.2 258.33,-76.04 247.87,-74.31 249.08,-81.2"/>
</a>
</g>
</g>
<!-- Node24 -->
<g id="Node000024" class="node">
<title>Node24</title>
<g id="a_Node000024"><a xlink:href="classGame_1_1World_1_1CarSpawner.html#a9ca9f4dfd1b63d182f23c9f630b54463" target="_top" xlink:title="Reset the timers.">
<polygon fill="white" stroke="#666666" points="410.5,-39 242.5,-39 242.5,-20 410.5,-20 410.5,-39"/>
<text text-anchor="middle" x="326.5" y="-27" font-family="Helvetica,sans-Serif" font-size="10.00">Game.World.CarSpawner.Reset</text>
</a>
</g>
</g>
<!-- Node1&#45;&gt;Node24 -->
<g id="edge24_Node000001_Node000024" class="edge">
<title>Node1&#45;&gt;Node24</title>
<g id="a_edge24_Node000001_Node000024"><a xlink:title=" ">
<path fill="none" stroke="#63b8ff" d="M103.13,-111.77C124.75,-95.65 170.81,-63.57 215,-47.5 221.32,-45.2 227.95,-43.19 234.69,-41.44"/>
<polygon fill="#63b8ff" stroke="#63b8ff" points="235.72,-44.8 244.63,-39.06 234.08,-37.99 235.72,-44.8"/>
</a>
</g>
</g>
<!-- Node3 -->
<g id="Node000003" class="node">
<title>Node3</title>
<g id="a_Node000003"><a xlink:href="classGame_1_1UI_1_1StarHandler.html#a710bc2e71e1f1217f86fe1d7be4dc9c4" target="_top" xlink:title="Update the display based on the difficulty.">
<polygon fill="white" stroke="#666666" points="681.5,-224 478.5,-224 478.5,-205 681.5,-205 681.5,-224"/>
<text text-anchor="middle" x="580" y="-212" font-family="Helvetica,sans-Serif" font-size="10.00">Game.UI.StarHandler.ChangeDifficulty</text>
</a>
</g>
</g>
<!-- Node2&#45;&gt;Node3 -->
<g id="edge2_Node000002_Node000003" class="edge">
<title>Node2&#45;&gt;Node3</title>
<g id="a_edge2_Node000002_Node000003"><a xlink:title=" ">
<path fill="none" stroke="#63b8ff" d="M436.35,-214.5C446.91,-214.5 457.64,-214.5 468.22,-214.5"/>
<polygon fill="#63b8ff" stroke="#63b8ff" points="468.31,-218 478.31,-214.5 468.31,-211 468.31,-218"/>
</a>
</g>
</g>
<!-- Node5 -->
<g id="Node000005" class="node">
<title>Node5</title>
<g id="a_Node000005"><a xlink:href="classGame_1_1World_1_1GameWorld.html#a730e116826e3519544de155b667042ba" target="_top" xlink:title="Loads a chunk.">
<polygon fill="white" stroke="#666666" points="677,-187 483,-187 483,-168 677,-168 677,-187"/>
<text text-anchor="middle" x="580" y="-175" font-family="Helvetica,sans-Serif" font-size="10.00">Game.World.GameWorld.LoadChunk</text>
</a>
</g>
</g>
<!-- Node4&#45;&gt;Node5 -->
<g id="edge4_Node000004_Node000005" class="edge">
<title>Node4&#45;&gt;Node5</title>
<g id="a_edge4_Node000004_Node000005"><a xlink:title=" ">
<path fill="none" stroke="#63b8ff" d="M438.18,-177.5C449.7,-177.5 461.38,-177.5 472.85,-177.5"/>
<polygon fill="#63b8ff" stroke="#63b8ff" points="472.86,-181 482.86,-177.5 472.86,-174 472.86,-181"/>
</a>
</g>
</g>
<!-- Node6 -->
<g id="Node000006" class="node">
<title>Node6</title>
<g id="a_Node000006"><a xlink:href="classGame_1_1World_1_1Chunk.html#a475512064d145228ca7084735b7e2f2f" target="_top" xlink:title="Show the chunk.">
<polygon fill="white" stroke="#666666" points="877,-206 727,-206 727,-187 877,-187 877,-206"/>
<text text-anchor="middle" x="802" y="-194" font-family="Helvetica,sans-Serif" font-size="10.00">Game.World.Chunk.Display</text>
</a>
</g>
</g>
<!-- Node5&#45;&gt;Node6 -->
<g id="edge5_Node000005_Node000006" class="edge">
<title>Node5&#45;&gt;Node6</title>
<g id="a_edge5_Node000005_Node000006"><a xlink:title=" ">
<path fill="none" stroke="#63b8ff" d="M677.18,-185.81C690.31,-186.94 703.72,-188.1 716.62,-189.21"/>
<polygon fill="#63b8ff" stroke="#63b8ff" points="716.59,-192.72 726.85,-190.1 717.19,-185.75 716.59,-192.72"/>
</a>
</g>
</g>
<!-- Node7 -->
<g id="Node000007" class="node">
<title>Node7</title>
<g id="a_Node000007"><a xlink:href="classGame_1_1World_1_1Chunk.html#a0616c2f9600a4bcc1dbe97a93a947e7a" target="_top" xlink:title="Initialize the chunk.">
<polygon fill="white" stroke="#666666" points="882,-169 722,-169 722,-150 882,-150 882,-169"/>
<text text-anchor="middle" x="802" y="-157" font-family="Helvetica,sans-Serif" font-size="10.00">Game.World.Chunk.InitChunk</text>
</a>
</g>
</g>
<!-- Node5&#45;&gt;Node7 -->
<g id="edge6_Node000005_Node000007" class="edge">
<title>Node5&#45;&gt;Node7</title>
<g id="a_edge6_Node000005_Node000007"><a xlink:title=" ">
<path fill="none" stroke="#63b8ff" d="M677.18,-169.63C688.59,-168.7 700.22,-167.75 711.54,-166.82"/>
<polygon fill="#63b8ff" stroke="#63b8ff" points="712.15,-170.28 721.83,-165.98 711.58,-163.3 712.15,-170.28"/>
</a>
</g>
</g>
<!-- Node8 -->
<g id="Node000008" class="node">
<title>Node8</title>
<g id="a_Node000008"><a xlink:href="classGame_1_1World_1_1Chunk.html#aac3343253a33a36a09318ebc76bd9f08" target="_top" xlink:title="Creates the tiles for the chunk.">
<polygon fill="white" stroke="#666666" points="1107.5,-206 938.5,-206 938.5,-187 1107.5,-187 1107.5,-206"/>
<text text-anchor="middle" x="1023" y="-194" font-family="Helvetica,sans-Serif" font-size="10.00">Game.World.Chunk.CreateTiles</text>
</a>
</g>
</g>
<!-- Node7&#45;&gt;Node8 -->
<g id="edge7_Node000007_Node000008" class="edge">
<title>Node7&#45;&gt;Node8</title>
<g id="a_edge7_Node000007_Node000008"><a xlink:title=" ">
<path fill="none" stroke="#63b8ff" d="M859.4,-169.03C888.66,-173.97 924.6,-180.04 955.24,-185.22"/>
<polygon fill="#63b8ff" stroke="#63b8ff" points="954.97,-188.72 965.41,-186.94 956.14,-181.82 954.97,-188.72"/>
</a>
</g>
</g>
<!-- Node11 -->
<g id="Node000011" class="node">
<title>Node11</title>
<g id="a_Node000011"><a xlink:href="classGame_1_1World_1_1Chunk.html#a1fb214fa85481a42c651b9d6b0d45cb9" target="_top" xlink:title="Gets tthe nearby chunks.">
<polygon fill="white" stroke="#666666" points="1124,-169 922,-169 922,-150 1124,-150 1124,-169"/>
<text text-anchor="middle" x="1023" y="-157" font-family="Helvetica,sans-Serif" font-size="10.00">Game.World.Chunk.GetNearbyChunks</text>
</a>
</g>
</g>
<!-- Node7&#45;&gt;Node11 -->
<g id="edge10_Node000007_Node000011" class="edge">
<title>Node7&#45;&gt;Node11</title>
<g id="a_edge10_Node000007_Node000011"><a xlink:title=" ">
<path fill="none" stroke="#63b8ff" d="M882.06,-159.5C891.61,-159.5 901.5,-159.5 911.39,-159.5"/>
<polygon fill="#63b8ff" stroke="#63b8ff" points="911.69,-163 921.69,-159.5 911.69,-156 911.69,-163"/>
</a>
</g>
</g>
<!-- Node13 -->
<g id="Node000013" class="node">
<title>Node13</title>
<g id="a_Node000013"><a xlink:href="classGame_1_1World_1_1Chunk.html#a08f4b5e8b362b98f4b3f01225d12b4af" target="_top" xlink:title="Spawns the buildings and the props on a seperate thread.">
<polygon fill="white" stroke="#666666" points="1128,-93 918,-93 918,-74 1128,-74 1128,-93"/>
<text text-anchor="middle" x="1023" y="-81" font-family="Helvetica,sans-Serif" font-size="10.00">Game.World.Chunk.SpawnWorldObjects</text>
</a>
</g>
</g>
<!-- Node7&#45;&gt;Node13 -->
<g id="edge12_Node000007_Node000013" class="edge">
<title>Node7&#45;&gt;Node13</title>
<g id="a_edge12_Node000007_Node000013"><a xlink:title=" ">
<path fill="none" stroke="#63b8ff" d="M830.74,-149.87C869.82,-136.31 941.18,-111.55 984.82,-96.4"/>
<polygon fill="#63b8ff" stroke="#63b8ff" points="986.19,-99.63 994.49,-93.05 983.89,-93.02 986.19,-99.63"/>
</a>
</g>
</g>
<!-- Node9 -->
<g id="Node000009" class="node">
<title>Node9</title>
<g id="a_Node000009"><a xlink:href="classGame_1_1World_1_1Chunk.html#ac4b762352bb5f90952fe57e5c0ee208f" target="_top" xlink:title="Determines the type of the tile at the coord.">
<polygon fill="white" stroke="#666666" points="1391.5,-206 1185.5,-206 1185.5,-187 1391.5,-187 1391.5,-206"/>
<text text-anchor="middle" x="1288.5" y="-194" font-family="Helvetica,sans-Serif" font-size="10.00">Game.World.Chunk.DetermineTileType</text>
</a>
</g>
</g>
<!-- Node8&#45;&gt;Node9 -->
<g id="edge8_Node000008_Node000009" class="edge">
<title>Node8&#45;&gt;Node9</title>
<g id="a_edge8_Node000008_Node000009"><a xlink:title=" ">
<path fill="none" stroke="#63b8ff" d="M1107.74,-196.5C1129.04,-196.5 1152.28,-196.5 1174.76,-196.5"/>
<polygon fill="#63b8ff" stroke="#63b8ff" points="1175.03,-200 1185.03,-196.5 1175.03,-193 1175.03,-200"/>
</a>
</g>
</g>
<!-- Node10 -->
<g id="Node000010" class="node">
<title>Node10</title>
<g id="a_Node000010"><a xlink:href="classGame_1_1World_1_1Chunk.html#a2d39efc9f5c0f3c302dd7e9d007096c7" target="_top" xlink:title="Determine what type of road it is.">
<polygon fill="white" stroke="#666666" points="1677.5,-206 1465.5,-206 1465.5,-187 1677.5,-187 1677.5,-206"/>
<text text-anchor="middle" x="1571.5" y="-194" font-family="Helvetica,sans-Serif" font-size="10.00">Game.World.Chunk.DetermineRoadType</text>
</a>
</g>
</g>
<!-- Node9&#45;&gt;Node10 -->
<g id="edge9_Node000009_Node000010" class="edge">
<title>Node9&#45;&gt;Node10</title>
<g id="a_edge9_Node000009_Node000010"><a xlink:title=" ">
<path fill="none" stroke="#63b8ff" d="M1391.74,-196.5C1412.24,-196.5 1433.91,-196.5 1454.83,-196.5"/>
<polygon fill="#63b8ff" stroke="#63b8ff" points="1455.03,-200 1465.03,-196.5 1455.03,-193 1455.03,-200"/>
</a>
</g>
</g>
<!-- Node12 -->
<g id="Node000012" class="node">
<title>Node12</title>
<g id="a_Node000012"><a xlink:href="classGame_1_1World_1_1GameWorld.html#a6188226b54eb7e38659cbe8d9d76b620" target="_top" xlink:title="Get the chunk without trying it to load.">
<polygon fill="white" stroke="#666666" points="1413,-169 1164,-169 1164,-150 1413,-150 1413,-169"/>
<text text-anchor="middle" x="1288.5" y="-157" font-family="Helvetica,sans-Serif" font-size="10.00">Game.World.GameWorld.GetChunkWithoutLoad</text>
</a>
</g>
</g>
<!-- Node11&#45;&gt;Node12 -->
<g id="edge11_Node000011_Node000012" class="edge">
<title>Node11&#45;&gt;Node12</title>
<g id="a_edge11_Node000011_Node000012"><a xlink:title=" ">
<path fill="none" stroke="#63b8ff" d="M1124.37,-159.5C1133.98,-159.5 1143.82,-159.5 1153.68,-159.5"/>
<polygon fill="#63b8ff" stroke="#63b8ff" points="1153.95,-163 1163.95,-159.5 1153.95,-156 1153.95,-163"/>
</a>
</g>
</g>
<!-- Node14 -->
<g id="Node000014" class="node">
<title>Node14</title>
<g id="a_Node000014"><a xlink:href="classGame_1_1World_1_1Chunk.html#a12ff4b268fb99d10493398cfe555b46c" target="_top" xlink:title=" ">
<polygon fill="white" stroke="#666666" points="1682,-131 1461,-131 1461,-112 1682,-112 1682,-131"/>
<text text-anchor="middle" x="1571.5" y="-119" font-family="Helvetica,sans-Serif" font-size="10.00">Game.World.Chunk.AddEnvironmentProps</text>
</a>
</g>
</g>
<!-- Node13&#45;&gt;Node14 -->
<g id="edge13_Node000013_Node000014" class="edge">
<title>Node13&#45;&gt;Node14</title>
<g id="a_edge13_Node000013_Node000014"><a xlink:title=" ">
<path fill="none" stroke="#63b8ff" d="M1089.76,-93.04C1113.16,-96.15 1139.71,-99.34 1164,-101.5 1260.18,-110.04 1369.51,-115.16 1450.54,-118.08"/>
<polygon fill="#63b8ff" stroke="#63b8ff" points="1450.66,-121.58 1460.78,-118.44 1450.91,-114.59 1450.66,-121.58"/>
</a>
</g>
</g>
<!-- Node16 -->
<g id="Node000016" class="node">
<title>Node16</title>
<g id="a_Node000016"><a xlink:href="classGame_1_1World_1_1Chunk.html#a00a9cd484ae1ddffec928a75f6b2db15" target="_top" xlink:title="Add the buildings which are next to the roads.">
<polygon fill="white" stroke="#666666" points="1389.5,-93 1187.5,-93 1187.5,-74 1389.5,-74 1389.5,-93"/>
<text text-anchor="middle" x="1288.5" y="-81" font-family="Helvetica,sans-Serif" font-size="10.00">Game.World.Chunk.AddRoadBuildings</text>
</a>
</g>
</g>
<!-- Node13&#45;&gt;Node16 -->
<g id="edge15_Node000013_Node000016" class="edge">
<title>Node13&#45;&gt;Node16</title>
<g id="a_edge15_Node000013_Node000016"><a xlink:title=" ">
<path fill="none" stroke="#63b8ff" d="M1128.14,-83.5C1144.22,-83.5 1160.88,-83.5 1177.1,-83.5"/>
<polygon fill="#63b8ff" stroke="#63b8ff" points="1177.12,-87 1187.12,-83.5 1177.12,-80 1177.12,-87"/>
</a>
</g>
</g>
<!-- Node18 -->
<g id="Node000018" class="node">
<title>Node18</title>
<g id="a_Node000018"><a xlink:href="classGame_1_1World_1_1Chunk.html#a443ede65d8aeb566a385cb3bcad9d8f7" target="_top" xlink:title="Generate the building cells matrix so we know which way the roads are.">
<polygon fill="white" stroke="#666666" points="1393,-56 1184,-56 1184,-37 1393,-37 1393,-56"/>
<text text-anchor="middle" x="1288.5" y="-44" font-family="Helvetica,sans-Serif" font-size="10.00">Game.World.Chunk.GenerateCellMatrix</text>
</a>
</g>
</g>
<!-- Node13&#45;&gt;Node18 -->
<g id="edge18_Node000013_Node000018" class="edge">
<title>Node13&#45;&gt;Node18</title>
<g id="a_edge18_Node000013_Node000018"><a xlink:title=" ">
<path fill="none" stroke="#63b8ff" d="M1091.86,-73.97C1127.68,-68.94 1171.81,-62.74 1209.09,-57.51"/>
<polygon fill="#63b8ff" stroke="#63b8ff" points="1210,-60.92 1219.41,-56.06 1209.03,-53.98 1210,-60.92"/>
</a>
</g>
</g>
<!-- Node19 -->
<g id="Node000019" class="node">
<title>Node19</title>
<g id="a_Node000019"><a xlink:href="classUtility_1_1CoroutineRunner.html#a1c473dee723f16d86bab9d8475c8214a" target="_top" xlink:title="A helper method to start coroutines.">
<polygon fill="white" stroke="#666666" points="1387.5,-19 1189.5,-19 1189.5,0 1387.5,0 1387.5,-19"/>
<text text-anchor="middle" x="1288.5" y="-7" font-family="Helvetica,sans-Serif" font-size="10.00">Utility.CoroutineRunner.RunCoroutine</text>
</a>
</g>
</g>
<!-- Node13&#45;&gt;Node19 -->
<g id="edge19_Node000013_Node000019" class="edge">
<title>Node13&#45;&gt;Node19</title>
<g id="a_edge19_Node000013_Node000019"><a xlink:title=" ">
<path fill="none" stroke="#63b8ff" d="M1043.89,-73.8C1070.58,-61.19 1119.76,-39.39 1164,-27.5 1173.49,-24.95 1183.5,-22.73 1193.55,-20.82"/>
<polygon fill="#63b8ff" stroke="#63b8ff" points="1194.36,-24.23 1203.58,-19.01 1193.12,-17.34 1194.36,-24.23"/>
</a>
</g>
</g>
<!-- Node15 -->
<g id="Node000015" class="node">
<title>Node15</title>
<g id="a_Node000015"><a xlink:href="classGame_1_1World_1_1Chunk.html#af37779d40ed9cd07b577d5bca61627b7" target="_top" xlink:title=" ">
<polygon fill="white" stroke="#666666" points="1942,-112 1730,-112 1730,-93 1942,-93 1942,-112"/>
<text text-anchor="middle" x="1836" y="-100" font-family="Helvetica,sans-Serif" font-size="10.00">Game.World.Chunk.GetAbsolutePosition</text>
</a>
</g>
</g>
<!-- Node14&#45;&gt;Node15 -->
<g id="edge14_Node000014_Node000015" class="edge">
<title>Node14&#45;&gt;Node15</title>
<g id="a_edge14_Node000014_Node000015"><a xlink:title=" ">
<path fill="none" stroke="#63b8ff" d="M1682.3,-113.55C1694.6,-112.66 1707.15,-111.75 1719.51,-110.86"/>
<polygon fill="#63b8ff" stroke="#63b8ff" points="1720.12,-114.32 1729.84,-110.11 1719.61,-107.34 1720.12,-114.32"/>
</a>
</g>
</g>
<!-- Node17 -->
<g id="Node000017" class="node">
<title>Node17</title>
<g id="a_Node000017"><a xlink:href="classGame_1_1World_1_1Chunk.html#af2946e1e1b9e325d6004d166b2b26193" target="_top" xlink:title="Lock the cell and try to place it.">
<polygon fill="white" stroke="#666666" points="1694,-94 1449,-94 1449,-75 1694,-75 1694,-94"/>
<text text-anchor="middle" x="1571.5" y="-82" font-family="Helvetica,sans-Serif" font-size="10.00">Game.World.Chunk.LockAndTryToPlaceBuilding</text>
</a>
</g>
</g>
<!-- Node16&#45;&gt;Node17 -->
<g id="edge16_Node000016_Node000017" class="edge">
<title>Node16&#45;&gt;Node17</title>
<g id="a_edge16_Node000016_Node000017"><a xlink:title=" ">
<path fill="none" stroke="#63b8ff" d="M1389.76,-83.86C1405.55,-83.91 1422.09,-83.97 1438.47,-84.03"/>
<polygon fill="#63b8ff" stroke="#63b8ff" points="1438.62,-87.53 1448.64,-84.07 1438.65,-80.53 1438.62,-87.53"/>
</a>
</g>
</g>
<!-- Node17&#45;&gt;Node15 -->
<g id="edge17_Node000017_Node000015" class="edge">
<title>Node17&#45;&gt;Node15</title>
<g id="a_edge17_Node000017_Node000015"><a xlink:title=" ">
<path fill="none" stroke="#63b8ff" d="M1694.14,-92.84C1702.63,-93.42 1711.17,-94.01 1719.62,-94.59"/>
<polygon fill="#63b8ff" stroke="#63b8ff" points="1719.66,-98.1 1729.87,-95.29 1720.14,-91.12 1719.66,-98.1"/>
</a>
</g>
</g>
<!-- Node23 -->
<g id="Node000023" class="node">
<title>Node23</title>
<g id="a_Node000023"><a xlink:href="classGame_1_1UI_1_1GameUI.html#a4711cf98c85b51e143bb5e5a33157b81" target="_top" xlink:title="Show the game over screen.">
<polygon fill="white" stroke="#666666" points="686,-76 474,-76 474,-57 686,-57 686,-76"/>
<text text-anchor="middle" x="580" y="-64" font-family="Helvetica,sans-Serif" font-size="10.00">Game.UI.GameUI.ShowEndGameScreen</text>
</a>
</g>
</g>
<!-- Node22&#45;&gt;Node23 -->
<g id="edge23_Node000022_Node000023" class="edge">
<title>Node22&#45;&gt;Node23</title>
<g id="a_edge23_Node000022_Node000023"><a xlink:title=" ">
<path fill="none" stroke="#63b8ff" d="M417.59,-66.5C432.5,-66.5 448.15,-66.5 463.58,-66.5"/>
<polygon fill="#63b8ff" stroke="#63b8ff" points="463.69,-70 473.69,-66.5 463.69,-63 463.69,-70"/>
</a>
</g>
</g>
</g>
</svg>
