<?xml version="1.0" encoding="UTF-8" standalone="no"?>
<!DOCTYPE svg PUBLIC "-//W3C//DTD SVG 1.1//EN"
 "http://www.w3.org/Graphics/SVG/1.1/DTD/svg11.dtd">
<!-- Generated by graphviz version 2.43.0 (0)
 -->
<!-- Title: MainPage.FriendWindowHandler Pages: 1 -->
<svg width="349pt" height="548pt"
 viewBox="0.00 0.00 349.00 548.00" xmlns="http://www.w3.org/2000/svg" xmlns:xlink="http://www.w3.org/1999/xlink">
<g id="graph0" class="graph" transform="scale(1 1) rotate(0) translate(4 544)">
<title>MainPage.FriendWindowHandler</title>
<polygon fill="white" stroke="transparent" points="-4,4 -4,-544 345,-544 345,4 -4,4"/>
<!-- Node1 -->
<g id="node1" class="node">
<title>Node1</title>
<g id="a_node1"><a xlink:title="Handles the friend window display">
<polygon fill="#bfbfbf" stroke="black" points="0,-0.5 0,-178.5 239,-178.5 239,-0.5 0,-0.5"/>
<text text-anchor="middle" x="119.5" y="-166.5" font-family="Helvetica,sans-Serif" font-size="10.00">MainPage.FriendWindowHandler</text>
<polyline fill="none" stroke="black" points="0,-159.5 239,-159.5 "/>
<text text-anchor="start" x="8" y="-147.5" font-family="Helvetica,sans-Serif" font-size="10.00">&#45; GameObject friendsParent</text>
<text text-anchor="start" x="8" y="-136.5" font-family="Helvetica,sans-Serif" font-size="10.00">&#45; TMP_InputField userIdentificationInput</text>
<text text-anchor="start" x="8" y="-125.5" font-family="Helvetica,sans-Serif" font-size="10.00">&#45; GameObject friendPrefab</text>
<text text-anchor="start" x="8" y="-114.5" font-family="Helvetica,sans-Serif" font-size="10.00">&#45; bool showPending</text>
<polyline fill="none" stroke="black" points="0,-107.5 239,-107.5 "/>
<text text-anchor="start" x="8" y="-95.5" font-family="Helvetica,sans-Serif" font-size="10.00">+ void ShowPendingChanged(bool newValue)</text>
<text text-anchor="start" x="8" y="-84.5" font-family="Helvetica,sans-Serif" font-size="10.00">+ void Show()</text>
<text text-anchor="start" x="8" y="-73.5" font-family="Helvetica,sans-Serif" font-size="10.00">+ void SendFriendRequest()</text>
<text text-anchor="start" x="8" y="-62.5" font-family="Helvetica,sans-Serif" font-size="10.00">+ void Hide()</text>
<text text-anchor="start" x="8" y="-51.5" font-family="Helvetica,sans-Serif" font-size="10.00">&#45; void ShowRequestFail(string content)</text>
<text text-anchor="start" x="8" y="-40.5" font-family="Helvetica,sans-Serif" font-size="10.00">&#45; void SentFriendRequest(Friend friend)</text>
<text text-anchor="start" x="8" y="-29.5" font-family="Helvetica,sans-Serif" font-size="10.00">&#45; void LoadFriends()</text>
<text text-anchor="start" x="8" y="-18.5" font-family="Helvetica,sans-Serif" font-size="10.00">&#45; void DisplayFriends(List&lt; Friend</text>
<text text-anchor="start" x="8" y="-7.5" font-family="Helvetica,sans-Serif" font-size="10.00"> &gt; friends)</text>
</a>
</g>
</g>
<!-- Node2 -->
<g id="node2" class="node">
<title>Node2</title>
<g id="a_node2"><a xlink:href="classUtility_1_1ThreadSafeMonoBehaviour.html" target="_top" xlink:title="Safely stores if the gameobject been destroyed in a bool">
<polygon fill="white" stroke="black" points="41,-387.5 41,-444.5 190,-444.5 190,-387.5 41,-387.5"/>
<text text-anchor="middle" x="115.5" y="-432.5" font-family="Helvetica,sans-Serif" font-size="10.00">ThreadSafeMonoBehaviour</text>
<polyline fill="none" stroke="black" points="41,-425.5 190,-425.5 "/>
<text text-anchor="start" x="49" y="-413.5" font-family="Helvetica,sans-Serif" font-size="10.00">+ bool Destroyed</text>
<polyline fill="none" stroke="black" points="41,-406.5 190,-406.5 "/>
<text text-anchor="start" x="49" y="-394.5" font-family="Helvetica,sans-Serif" font-size="10.00"># void OnDestroy()</text>
</a>
</g>
</g>
<!-- Node2&#45;&gt;Node1 -->
<g id="edge1" class="edge">
<title>Node2&#45;&gt;Node1</title>
<path fill="none" stroke="midnightblue" d="M115.96,-377.32C116.56,-329.04 117.61,-243.82 118.41,-178.78"/>
<polygon fill="none" stroke="midnightblue" points="112.46,-377.29 115.84,-387.33 119.46,-377.38 112.46,-377.29"/>
</g>
<!-- Node4 -->
<g id="node4" class="node">
<title>Node4</title>
<g id="a_node4"><a xlink:href="classUtility_1_1ModalWindow.html" target="_top" xlink:title="Modal window for alerting the user">
<polygon fill="white" stroke="black" points="132,-226.5 132,-349.5 341,-349.5 341,-226.5 132,-226.5"/>
<text text-anchor="middle" x="236.5" y="-337.5" font-family="Helvetica,sans-Serif" font-size="10.00">Utility.ModalWindow</text>
<polyline fill="none" stroke="black" points="132,-330.5 341,-330.5 "/>
<text text-anchor="start" x="140" y="-318.5" font-family="Helvetica,sans-Serif" font-size="10.00">&#45; TMP_Text ModalTitleText</text>
<text text-anchor="start" x="140" y="-307.5" font-family="Helvetica,sans-Serif" font-size="10.00">&#45; TMP_Text ModalContentText</text>
<text text-anchor="start" x="140" y="-296.5" font-family="Helvetica,sans-Serif" font-size="10.00">&#45; Action onOkAction</text>
<polyline fill="none" stroke="black" points="132,-289.5 341,-289.5 "/>
<text text-anchor="start" x="140" y="-277.5" font-family="Helvetica,sans-Serif" font-size="10.00">+ void Show()</text>
<text text-anchor="start" x="140" y="-266.5" font-family="Helvetica,sans-Serif" font-size="10.00">+ void Show(string title, string content,</text>
<text text-anchor="start" x="140" y="-255.5" font-family="Helvetica,sans-Serif" font-size="10.00"> Action onOkAction=null)</text>
<text text-anchor="start" x="140" y="-244.5" font-family="Helvetica,sans-Serif" font-size="10.00">+ void Hide()</text>
<text text-anchor="start" x="140" y="-233.5" font-family="Helvetica,sans-Serif" font-size="10.00">+ void ConfirmButtonClick()</text>
</a>
</g>
</g>
<!-- Node2&#45;&gt;Node4 -->
<g id="edge4" class="edge">
<title>Node2&#45;&gt;Node4</title>
<path fill="none" stroke="midnightblue" d="M149.09,-380.02C158.17,-370.57 168.26,-360.06 178.26,-349.65"/>
<polygon fill="none" stroke="midnightblue" points="146.46,-377.71 142.05,-387.35 151.5,-382.56 146.46,-377.71"/>
</g>
<!-- Node3 -->
<g id="node3" class="node">
<title>Node3</title>
<g id="a_node3"><a xlink:title=" ">
<polygon fill="white" stroke="#bfbfbf" points="69,-482.5 69,-539.5 162,-539.5 162,-482.5 69,-482.5"/>
<text text-anchor="middle" x="115.5" y="-527.5" font-family="Helvetica,sans-Serif" font-size="10.00">MonoBehaviour</text>
<polyline fill="none" stroke="#bfbfbf" points="69,-520.5 162,-520.5 "/>
<text text-anchor="middle" x="115.5" y="-508.5" font-family="Helvetica,sans-Serif" font-size="10.00"> </text>
<polyline fill="none" stroke="#bfbfbf" points="69,-501.5 162,-501.5 "/>
<text text-anchor="middle" x="115.5" y="-489.5" font-family="Helvetica,sans-Serif" font-size="10.00"> </text>
</a>
</g>
</g>
<!-- Node3&#45;&gt;Node2 -->
<g id="edge2" class="edge">
<title>Node3&#45;&gt;Node2</title>
<path fill="none" stroke="midnightblue" d="M115.5,-472.24C115.5,-463.03 115.5,-453.35 115.5,-444.71"/>
<polygon fill="none" stroke="midnightblue" points="112,-472.35 115.5,-482.35 119,-472.35 112,-472.35"/>
</g>
<!-- Node4&#45;&gt;Node1 -->
<g id="edge3" class="edge">
<title>Node4&#45;&gt;Node1</title>
<path fill="none" stroke="#404040" d="M200.44,-226.44C193.41,-214.63 185.87,-201.97 178.33,-189.3"/>
<polygon fill="none" stroke="#404040" points="178.14,-188.98 171.63,-185.87 172,-178.67 178.51,-181.78 178.14,-188.98"/>
<text text-anchor="middle" x="226" y="-200" font-family="Helvetica,sans-Serif" font-size="10.00"> &#45;modalWindow</text>
</g>
</g>
</svg>
