<?xml version="1.0" encoding="UTF-8" standalone="no"?>
<!DOCTYPE svg PUBLIC "-//W3C//DTD SVG 1.1//EN"
 "http://www.w3.org/Graphics/SVG/1.1/DTD/svg11.dtd">
<!-- Generated by graphviz version 2.43.0 (0)
 -->
<!-- Title: Game.UI.LeaderboardWindow Pages: 1 -->
<svg width="288pt" height="332pt"
 viewBox="0.00 0.00 288.00 332.00" xmlns="http://www.w3.org/2000/svg" xmlns:xlink="http://www.w3.org/1999/xlink">

<svg id="main" version="1.1" xmlns="http://www.w3.org/2000/svg" xmlns:xlink="http://www.w3.org/1999/xlink" xml:space="preserve" onload="init(evt)">
<style type="text/css"><![CDATA[
.node, .edge {opacity: 0.7;}
.node.selected, .edge.selected {opacity: 1;}
.edge:hover path { stroke: red; }
.edge:hover polygon { stroke: red; fill: red; }
]]></style>
<script type="application/ecmascript" xlink:href="svg.min.js"/>
<svg id="graph" class="graph">
<g id="graph0" class="graph" transform="scale(1 1) rotate(0) translate(4 328)">
<title>Game.UI.LeaderboardWindow</title>
<!-- Node1 -->
<g id="Node000001" class="node">
<title>Node1</title>
<g id="a_Node000001"><a xlink:title="Handles the leaderboard display window.">
<polygon fill="#999999" stroke="transparent" points="280,-154 0,-154 0,0 280,0 280,-154"/>
<text text-anchor="start" x="67" y="-142" font-family="Helvetica,sans-Serif" font-size="10.00">Game.UI.LeaderboardWindow</text>
<text text-anchor="start" x="6.5" y="-127" font-family="Helvetica,sans-Serif" font-size="10.00">&#45;</text>
<text text-anchor="start" x="17" y="-127" font-family="Helvetica,sans-Serif" font-size="10.00">GameObject scoreParent</text>
<text text-anchor="start" x="6.5" y="-112" font-family="Helvetica,sans-Serif" font-size="10.00">&#45;</text>
<text text-anchor="start" x="17" y="-112" font-family="Helvetica,sans-Serif" font-size="10.00">TMP_Dropdown filterTypeDropdown</text>
<text text-anchor="start" x="6.5" y="-97" font-family="Helvetica,sans-Serif" font-size="10.00">&#45;</text>
<text text-anchor="start" x="17" y="-97" font-family="Helvetica,sans-Serif" font-size="10.00">ModalWindow ModalWindow</text>
<text text-anchor="start" x="6.5" y="-82" font-family="Helvetica,sans-Serif" font-size="10.00">&#45;</text>
<text text-anchor="start" x="17" y="-82" font-family="Helvetica,sans-Serif" font-size="10.00">GameObject LeaderboardItemPrefab</text>
<text text-anchor="start" x="4" y="-67" font-family="Helvetica,sans-Serif" font-size="10.00">+</text>
<text text-anchor="start" x="17" y="-67" font-family="Helvetica,sans-Serif" font-size="10.00">void Show()</text>
<text text-anchor="start" x="4" y="-52" font-family="Helvetica,sans-Serif" font-size="10.00">+</text>
<text text-anchor="start" x="17" y="-52" font-family="Helvetica,sans-Serif" font-size="10.00">void Hide()</text>
<text text-anchor="start" x="4" y="-37" font-family="Helvetica,sans-Serif" font-size="10.00">+</text>
<text text-anchor="start" x="17" y="-37" font-family="Helvetica,sans-Serif" font-size="10.00">void LoadScores()</text>
<text text-anchor="start" x="6.5" y="-22" font-family="Helvetica,sans-Serif" font-size="10.00">&#45;</text>
<text text-anchor="start" x="17" y="-22" font-family="Helvetica,sans-Serif" font-size="10.00">void ShowRequestFail(string content)</text>
<text text-anchor="start" x="6.5" y="-7" font-family="Helvetica,sans-Serif" font-size="10.00">&#45;</text>
<text text-anchor="start" x="17" y="-7" font-family="Helvetica,sans-Serif" font-size="10.00">void LoadedScores(List&lt; GameScore &gt; gameScores)</text>
<polygon fill="#666666" stroke="#666666" points="0,-137 0,-137 280,-137 280,-137 0,-137"/>
<polygon fill="#666666" stroke="#666666" points="0,-77 0,-77 15,-77 15,-77 0,-77"/>
<polygon fill="#666666" stroke="#666666" points="15,-77 15,-77 280,-77 280,-77 15,-77"/>
<polygon fill="none" stroke="#666666" points="0,0 0,-154 280,-154 280,0 0,0"/>
</a>
</g>
</g>
<!-- Node2 -->
<g id="Node000002" class="node">
<title>Node2</title>
<g id="a_Node000002"><a xlink:href="classUtility_1_1ThreadSafeMonoBehaviour.html" target="_top" xlink:title="Safely stores if the gameobject been destroyed in a bool.">
<polygon fill="white" stroke="transparent" points="211.5,-239 68.5,-239 68.5,-190 211.5,-190 211.5,-239"/>
<text text-anchor="start" x="74" y="-226.5" font-family="Helvetica,sans-Serif" font-size="10.00">ThreadSafeMonoBehaviour</text>
<text text-anchor="start" x="82.5" y="-211.5" font-family="Helvetica,sans-Serif" font-size="10.00">+</text>
<text text-anchor="start" x="105" y="-211.5" font-family="Helvetica,sans-Serif" font-size="10.00">bool Destroyed</text>
<text text-anchor="start" x="82.5" y="-196.5" font-family="Helvetica,sans-Serif" font-size="10.00">#</text>
<text text-anchor="start" x="105" y="-196.5" font-family="Helvetica,sans-Serif" font-size="10.00">void OnDestroy()</text>
<polygon fill="#666666" stroke="#666666" points="69,-221.5 69,-221.5 212,-221.5 212,-221.5 69,-221.5"/>
<polygon fill="#666666" stroke="#666666" points="69,-206.5 69,-206.5 103,-206.5 103,-206.5 69,-206.5"/>
<polygon fill="#666666" stroke="#666666" points="103,-206.5 103,-206.5 212,-206.5 212,-206.5 103,-206.5"/>
<polygon fill="none" stroke="#666666" points="68.5,-190 68.5,-239 211.5,-239 211.5,-190 68.5,-190"/>
</a>
</g>
</g>
<!-- Node2&#45;&gt;Node1 -->
<g id="edge1_Node000001_Node000002" class="edge">
<title>Node2&#45;&gt;Node1</title>
<g id="a_edge1_Node000001_Node000002"><a xlink:title=" ">
<path fill="none" stroke="#63b8ff" d="M140,-179.66C140,-171.74 140,-162.97 140,-154.01"/>
<polygon fill="none" stroke="#63b8ff" points="136.5,-179.9 140,-189.9 143.5,-179.9 136.5,-179.9"/>
</a>
</g>
</g>
<!-- Node3 -->
<g id="Node000003" class="node">
<title>Node3</title>
<g id="a_Node000003"><a xlink:title=" ">
<polygon fill="white" stroke="transparent" points="183.5,-324 96.5,-324 96.5,-275 183.5,-275 183.5,-324"/>
<text text-anchor="start" x="102" y="-311.5" font-family="Helvetica,sans-Serif" font-size="10.00">MonoBehaviour</text>
<text text-anchor="start" x="138.5" y="-296.5" font-family="Helvetica,sans-Serif" font-size="10.00"> </text>
<text text-anchor="start" x="138.5" y="-281.5" font-family="Helvetica,sans-Serif" font-size="10.00"> </text>
<polygon fill="#666666" stroke="#666666" points="97,-306.5 97,-306.5 184,-306.5 184,-306.5 97,-306.5"/>
<polygon fill="#666666" stroke="#666666" points="97,-291.5 97,-291.5 184,-291.5 184,-291.5 97,-291.5"/>
<polygon fill="none" stroke="#666666" points="96.5,-275 96.5,-324 183.5,-324 183.5,-275 96.5,-275"/>
</a>
</g>
</g>
<!-- Node3&#45;&gt;Node2 -->
<g id="edge2_Node000002_Node000003" class="edge">
<title>Node3&#45;&gt;Node2</title>
<g id="a_edge2_Node000002_Node000003"><a xlink:title=" ">
<path fill="none" stroke="#63b8ff" d="M140,-264.77C140,-256.17 140,-247.1 140,-239.12"/>
<polygon fill="none" stroke="#63b8ff" points="136.5,-264.94 140,-274.94 143.5,-264.94 136.5,-264.94"/>
</a>
</g>
</g>
</g>
</svg>
</svg>

<style type='text/css'>
<![CDATA[
[data-mouse-over-selected='false'] { opacity: 0.7; }
[data-mouse-over-selected='true']  { opacity: 1.0; }
]]>
</style>
<script type="application/ecmascript"><![CDATA[
document.addEventListener('DOMContentLoaded', (event) => {
  highlightEdges();
  highlightAdjacentNodes();
});
]]></script>
</svg>
