<?xml version="1.0" encoding="UTF-8" standalone="no"?>
<!DOCTYPE svg PUBLIC "-//W3C//DTD SVG 1.1//EN"
 "http://www.w3.org/Graphics/SVG/1.1/DTD/svg11.dtd">
<!-- Generated by graphviz version 2.43.0 (0)
 -->
<!-- Title: Game.World.GameWorld.GetChunk Pages: 1 -->
<svg width="1689pt" height="256pt"
 viewBox="0.00 0.00 1689.00 256.00" xmlns="http://www.w3.org/2000/svg" xmlns:xlink="http://www.w3.org/1999/xlink">
<g id="graph0" class="graph" transform="scale(1 1) rotate(0) translate(4 252)">
<title>Game.World.GameWorld.GetChunk</title>
<polygon fill="white" stroke="transparent" points="-4,4 -4,-252 1685,-252 1685,4 -4,4"/>
<!-- Node1 -->
<g id="node1" class="node">
<title>Node1</title>
<g id="a_node1"><a xlink:title="Gets the chunk it will load it if it hasn&#39;t been and hide it then otherwise just return it">
<polygon fill="#bfbfbf" stroke="black" points="0,-209.5 0,-228.5 188,-228.5 188,-209.5 0,-209.5"/>
<text text-anchor="middle" x="94" y="-216.5" font-family="Helvetica,sans-Serif" font-size="10.00">Game.World.GameWorld.GetChunk</text>
</a>
</g>
</g>
<!-- Node2 -->
<g id="node2" class="node">
<title>Node2</title>
<g id="a_node2"><a xlink:href="classGame_1_1World_1_1GameWorld.html#a6e38b875a4ad69b6a285701336e9e29c" target="_top" xlink:title="Hide the given chunk">
<polygon fill="white" stroke="black" points="224.5,-228.5 224.5,-247.5 417.5,-247.5 417.5,-228.5 224.5,-228.5"/>
<text text-anchor="middle" x="321" y="-235.5" font-family="Helvetica,sans-Serif" font-size="10.00">Game.World.GameWorld.HideChunk</text>
</a>
</g>
</g>
<!-- Node1&#45;&gt;Node2 -->
<g id="edge1" class="edge">
<title>Node1&#45;&gt;Node2</title>
<path fill="none" stroke="midnightblue" d="M188.14,-226.87C196.74,-227.59 205.5,-228.33 214.21,-229.07"/>
<polygon fill="midnightblue" stroke="midnightblue" points="214.13,-232.57 224.39,-229.93 214.72,-225.6 214.13,-232.57"/>
</g>
<!-- Node4 -->
<g id="node4" class="node">
<title>Node4</title>
<g id="a_node4"><a xlink:href="classGame_1_1World_1_1GameWorld.html#a730e116826e3519544de155b667042ba" target="_top" xlink:title="Loads a chunk">
<polygon fill="white" stroke="black" points="224,-190.5 224,-209.5 418,-209.5 418,-190.5 224,-190.5"/>
<text text-anchor="middle" x="321" y="-197.5" font-family="Helvetica,sans-Serif" font-size="10.00">Game.World.GameWorld.LoadChunk</text>
</a>
</g>
</g>
<!-- Node1&#45;&gt;Node4 -->
<g id="edge3" class="edge">
<title>Node1&#45;&gt;Node4</title>
<path fill="none" stroke="midnightblue" d="M188.14,-211.13C196.57,-210.42 205.15,-209.7 213.68,-208.98"/>
<polygon fill="midnightblue" stroke="midnightblue" points="213.99,-212.46 223.66,-208.14 213.4,-205.49 213.99,-212.46"/>
</g>
<!-- Node3 -->
<g id="node3" class="node">
<title>Node3</title>
<g id="a_node3"><a xlink:href="classGame_1_1World_1_1Chunk.html#a118e0c25d254444e6663404fd61749d9" target="_top" xlink:title="Hide the chunk">
<polygon fill="white" stroke="black" points="454,-228.5 454,-247.5 621,-247.5 621,-228.5 454,-228.5"/>
<text text-anchor="middle" x="537.5" y="-235.5" font-family="Helvetica,sans-Serif" font-size="10.00">Game.World.Chunk.HideChunk</text>
</a>
</g>
</g>
<!-- Node2&#45;&gt;Node3 -->
<g id="edge2" class="edge">
<title>Node2&#45;&gt;Node3</title>
<path fill="none" stroke="midnightblue" d="M417.64,-238C426.32,-238 435.09,-238 443.74,-238"/>
<polygon fill="midnightblue" stroke="midnightblue" points="443.82,-241.5 453.82,-238 443.82,-234.5 443.82,-241.5"/>
</g>
<!-- Node5 -->
<g id="node5" class="node">
<title>Node5</title>
<g id="a_node5"><a xlink:href="classGame_1_1World_1_1Chunk.html#a475512064d145228ca7084735b7e2f2f" target="_top" xlink:title="Show the chunk">
<polygon fill="white" stroke="black" points="462.5,-190.5 462.5,-209.5 612.5,-209.5 612.5,-190.5 462.5,-190.5"/>
<text text-anchor="middle" x="537.5" y="-197.5" font-family="Helvetica,sans-Serif" font-size="10.00">Game.World.Chunk.Display</text>
</a>
</g>
</g>
<!-- Node4&#45;&gt;Node5 -->
<g id="edge4" class="edge">
<title>Node4&#45;&gt;Node5</title>
<path fill="none" stroke="midnightblue" d="M418.27,-200C429.61,-200 441.12,-200 452.27,-200"/>
<polygon fill="midnightblue" stroke="midnightblue" points="452.41,-203.5 462.41,-200 452.41,-196.5 452.41,-203.5"/>
</g>
<!-- Node6 -->
<g id="node6" class="node">
<title>Node6</title>
<g id="a_node6"><a xlink:href="classGame_1_1World_1_1Chunk.html#a0616c2f9600a4bcc1dbe97a93a947e7a" target="_top" xlink:title="Initialize the chunk">
<polygon fill="white" stroke="black" points="457.5,-152.5 457.5,-171.5 617.5,-171.5 617.5,-152.5 457.5,-152.5"/>
<text text-anchor="middle" x="537.5" y="-159.5" font-family="Helvetica,sans-Serif" font-size="10.00">Game.World.Chunk.InitChunk</text>
</a>
</g>
</g>
<!-- Node4&#45;&gt;Node6 -->
<g id="edge5" class="edge">
<title>Node4&#45;&gt;Node6</title>
<path fill="none" stroke="midnightblue" d="M375.85,-190.46C405.17,-185.27 441.65,-178.8 472.43,-173.35"/>
<polygon fill="midnightblue" stroke="midnightblue" points="473.39,-176.73 482.63,-171.54 472.17,-169.84 473.39,-176.73"/>
</g>
<!-- Node7 -->
<g id="node7" class="node">
<title>Node7</title>
<g id="a_node7"><a xlink:href="classGame_1_1World_1_1Chunk.html#aac3343253a33a36a09318ebc76bd9f08" target="_top" xlink:title="Creates the tiles for the chunk">
<polygon fill="white" stroke="black" points="677.5,-190.5 677.5,-209.5 846.5,-209.5 846.5,-190.5 677.5,-190.5"/>
<text text-anchor="middle" x="762" y="-197.5" font-family="Helvetica,sans-Serif" font-size="10.00">Game.World.Chunk.CreateTiles</text>
</a>
</g>
</g>
<!-- Node6&#45;&gt;Node7 -->
<g id="edge6" class="edge">
<title>Node6&#45;&gt;Node7</title>
<path fill="none" stroke="midnightblue" d="M594.36,-171.54C624.91,-176.76 662.94,-183.25 694.95,-188.72"/>
<polygon fill="midnightblue" stroke="midnightblue" points="694.67,-192.22 705.12,-190.46 695.85,-185.32 694.67,-192.22"/>
</g>
<!-- Node10 -->
<g id="node10" class="node">
<title>Node10</title>
<g id="a_node10"><a xlink:href="classGame_1_1World_1_1Chunk.html#af8d6134551597f12a028155b1466c0ff" target="_top" xlink:title="Gets tthe nearby chunks">
<polygon fill="white" stroke="black" points="661,-152.5 661,-171.5 863,-171.5 863,-152.5 661,-152.5"/>
<text text-anchor="middle" x="762" y="-159.5" font-family="Helvetica,sans-Serif" font-size="10.00">Game.World.Chunk.GetNearbyChunks</text>
</a>
</g>
</g>
<!-- Node6&#45;&gt;Node10 -->
<g id="edge9" class="edge">
<title>Node6&#45;&gt;Node10</title>
<path fill="none" stroke="midnightblue" d="M617.57,-162C628.28,-162 639.43,-162 650.56,-162"/>
<polygon fill="midnightblue" stroke="midnightblue" points="650.77,-165.5 660.77,-162 650.77,-158.5 650.77,-165.5"/>
</g>
<!-- Node12 -->
<g id="node12" class="node">
<title>Node12</title>
<g id="a_node12"><a xlink:href="classGame_1_1World_1_1Chunk.html#a08f4b5e8b362b98f4b3f01225d12b4af" target="_top" xlink:title="Spawns the buildings and the props on a seperate thread">
<polygon fill="white" stroke="black" points="657,-76.5 657,-95.5 867,-95.5 867,-76.5 657,-76.5"/>
<text text-anchor="middle" x="762" y="-83.5" font-family="Helvetica,sans-Serif" font-size="10.00">Game.World.Chunk.SpawnWorldObjects</text>
</a>
</g>
</g>
<!-- Node6&#45;&gt;Node12 -->
<g id="edge11" class="edge">
<title>Node6&#45;&gt;Node12</title>
<path fill="none" stroke="midnightblue" d="M566.68,-152.37C606.47,-138.78 679.2,-113.94 723.51,-98.81"/>
<polygon fill="midnightblue" stroke="midnightblue" points="724.72,-102.09 733.05,-95.55 722.45,-95.47 724.72,-102.09"/>
</g>
<!-- Node8 -->
<g id="node8" class="node">
<title>Node8</title>
<g id="a_node8"><a xlink:href="classGame_1_1World_1_1Chunk.html#ac4b762352bb5f90952fe57e5c0ee208f" target="_top" xlink:title="Determines the type of the tile at the coord">
<polygon fill="white" stroke="black" points="924.5,-190.5 924.5,-209.5 1130.5,-209.5 1130.5,-190.5 924.5,-190.5"/>
<text text-anchor="middle" x="1027.5" y="-197.5" font-family="Helvetica,sans-Serif" font-size="10.00">Game.World.Chunk.DetermineTileType</text>
</a>
</g>
</g>
<!-- Node7&#45;&gt;Node8 -->
<g id="edge7" class="edge">
<title>Node7&#45;&gt;Node8</title>
<path fill="none" stroke="midnightblue" d="M846.74,-200C868.04,-200 891.28,-200 913.76,-200"/>
<polygon fill="midnightblue" stroke="midnightblue" points="914.03,-203.5 924.03,-200 914.03,-196.5 914.03,-203.5"/>
</g>
<!-- Node9 -->
<g id="node9" class="node">
<title>Node9</title>
<g id="a_node9"><a xlink:href="classGame_1_1World_1_1Chunk.html#a2d39efc9f5c0f3c302dd7e9d007096c7" target="_top" xlink:title="Determine what type of road it is">
<polygon fill="white" stroke="black" points="1204.5,-190.5 1204.5,-209.5 1416.5,-209.5 1416.5,-190.5 1204.5,-190.5"/>
<text text-anchor="middle" x="1310.5" y="-197.5" font-family="Helvetica,sans-Serif" font-size="10.00">Game.World.Chunk.DetermineRoadType</text>
</a>
</g>
</g>
<!-- Node8&#45;&gt;Node9 -->
<g id="edge8" class="edge">
<title>Node8&#45;&gt;Node9</title>
<path fill="none" stroke="midnightblue" d="M1130.74,-200C1151.24,-200 1172.91,-200 1193.83,-200"/>
<polygon fill="midnightblue" stroke="midnightblue" points="1194.03,-203.5 1204.03,-200 1194.03,-196.5 1194.03,-203.5"/>
</g>
<!-- Node11 -->
<g id="node11" class="node">
<title>Node11</title>
<g id="a_node11"><a xlink:href="classGame_1_1World_1_1GameWorld.html#a6188226b54eb7e38659cbe8d9d76b620" target="_top" xlink:title="Get the chunk without trying it to load">
<polygon fill="white" stroke="black" points="903,-152.5 903,-171.5 1152,-171.5 1152,-152.5 903,-152.5"/>
<text text-anchor="middle" x="1027.5" y="-159.5" font-family="Helvetica,sans-Serif" font-size="10.00">Game.World.GameWorld.GetChunkWithoutLoad</text>
</a>
</g>
</g>
<!-- Node10&#45;&gt;Node11 -->
<g id="edge10" class="edge">
<title>Node10&#45;&gt;Node11</title>
<path fill="none" stroke="midnightblue" d="M863.37,-162C872.98,-162 882.82,-162 892.68,-162"/>
<polygon fill="midnightblue" stroke="midnightblue" points="892.95,-165.5 902.95,-162 892.95,-158.5 892.95,-165.5"/>
</g>
<!-- Node13 -->
<g id="node13" class="node">
<title>Node13</title>
<g id="a_node13"><a xlink:href="classGame_1_1World_1_1Chunk.html#a12ff4b268fb99d10493398cfe555b46c" target="_top" xlink:title=" ">
<polygon fill="white" stroke="black" points="1200,-114.5 1200,-133.5 1421,-133.5 1421,-114.5 1200,-114.5"/>
<text text-anchor="middle" x="1310.5" y="-121.5" font-family="Helvetica,sans-Serif" font-size="10.00">Game.World.Chunk.AddEnvironmentProps</text>
</a>
</g>
</g>
<!-- Node12&#45;&gt;Node13 -->
<g id="edge12" class="edge">
<title>Node12&#45;&gt;Node13</title>
<path fill="none" stroke="midnightblue" d="M824.55,-95.55C848.92,-99.01 877.23,-102.65 903,-105 999.15,-113.75 1108.48,-118.58 1189.52,-121.17"/>
<polygon fill="midnightblue" stroke="midnightblue" points="1189.66,-124.68 1199.76,-121.49 1189.88,-117.68 1189.66,-124.68"/>
</g>
<!-- Node15 -->
<g id="node15" class="node">
<title>Node15</title>
<g id="a_node15"><a xlink:href="classGame_1_1World_1_1Chunk.html#a00a9cd484ae1ddffec928a75f6b2db15" target="_top" xlink:title="Add the buildings which are next to the roads">
<polygon fill="white" stroke="black" points="926.5,-76.5 926.5,-95.5 1128.5,-95.5 1128.5,-76.5 926.5,-76.5"/>
<text text-anchor="middle" x="1027.5" y="-83.5" font-family="Helvetica,sans-Serif" font-size="10.00">Game.World.Chunk.AddRoadBuildings</text>
</a>
</g>
</g>
<!-- Node12&#45;&gt;Node15 -->
<g id="edge14" class="edge">
<title>Node12&#45;&gt;Node15</title>
<path fill="none" stroke="midnightblue" d="M867.14,-86C883.22,-86 899.88,-86 916.1,-86"/>
<polygon fill="midnightblue" stroke="midnightblue" points="916.12,-89.5 926.12,-86 916.12,-82.5 916.12,-89.5"/>
</g>
<!-- Node17 -->
<g id="node17" class="node">
<title>Node17</title>
<g id="a_node17"><a xlink:href="classGame_1_1World_1_1Chunk.html#a443ede65d8aeb566a385cb3bcad9d8f7" target="_top" xlink:title="Generate the building cells matrix so we know which way the roads are">
<polygon fill="white" stroke="black" points="923,-38.5 923,-57.5 1132,-57.5 1132,-38.5 923,-38.5"/>
<text text-anchor="middle" x="1027.5" y="-45.5" font-family="Helvetica,sans-Serif" font-size="10.00">Game.World.Chunk.GenerateCellMatrix</text>
</a>
</g>
</g>
<!-- Node12&#45;&gt;Node17 -->
<g id="edge17" class="edge">
<title>Node12&#45;&gt;Node17</title>
<path fill="none" stroke="midnightblue" d="M829.15,-76.46C865.96,-71.15 911.93,-64.52 950.25,-59"/>
<polygon fill="midnightblue" stroke="midnightblue" points="950.92,-62.44 960.32,-57.54 949.92,-55.51 950.92,-62.44"/>
</g>
<!-- Node18 -->
<g id="node18" class="node">
<title>Node18</title>
<g id="a_node18"><a xlink:href="classUtility_1_1CoroutineRunner.html#a1c473dee723f16d86bab9d8475c8214a" target="_top" xlink:title="A helper method to start coroutines">
<polygon fill="white" stroke="black" points="928.5,-0.5 928.5,-19.5 1126.5,-19.5 1126.5,-0.5 928.5,-0.5"/>
<text text-anchor="middle" x="1027.5" y="-7.5" font-family="Helvetica,sans-Serif" font-size="10.00">Utility.CoroutineRunner.RunCoroutine</text>
</a>
</g>
</g>
<!-- Node12&#45;&gt;Node18 -->
<g id="edge18" class="edge">
<title>Node12&#45;&gt;Node18</title>
<path fill="none" stroke="midnightblue" d="M782.43,-76.38C809,-63.63 858.48,-41.3 903,-29 913.75,-26.03 925.17,-23.48 936.55,-21.31"/>
<polygon fill="midnightblue" stroke="midnightblue" points="937.31,-24.73 946.53,-19.5 936.06,-17.85 937.31,-24.73"/>
</g>
<!-- Node14 -->
<g id="node14" class="node">
<title>Node14</title>
<g id="a_node14"><a xlink:href="classGame_1_1World_1_1Chunk.html#af37779d40ed9cd07b577d5bca61627b7" target="_top" xlink:title=" ">
<polygon fill="white" stroke="black" points="1469,-95.5 1469,-114.5 1681,-114.5 1681,-95.5 1469,-95.5"/>
<text text-anchor="middle" x="1575" y="-102.5" font-family="Helvetica,sans-Serif" font-size="10.00">Game.World.Chunk.GetAbsolutePosition</text>
</a>
</g>
</g>
<!-- Node13&#45;&gt;Node14 -->
<g id="edge13" class="edge">
<title>Node13&#45;&gt;Node14</title>
<path fill="none" stroke="midnightblue" d="M1421.3,-116.05C1433.6,-115.16 1446.15,-114.25 1458.51,-113.36"/>
<polygon fill="midnightblue" stroke="midnightblue" points="1459.12,-116.82 1468.84,-112.61 1458.61,-109.84 1459.12,-116.82"/>
</g>
<!-- Node16 -->
<g id="node16" class="node">
<title>Node16</title>
<g id="a_node16"><a xlink:href="classGame_1_1World_1_1Chunk.html#af2946e1e1b9e325d6004d166b2b26193" target="_top" xlink:title="Lock the cell and try to place it">
<polygon fill="white" stroke="black" points="1188,-76.5 1188,-95.5 1433,-95.5 1433,-76.5 1188,-76.5"/>
<text text-anchor="middle" x="1310.5" y="-83.5" font-family="Helvetica,sans-Serif" font-size="10.00">Game.World.Chunk.LockAndTryToPlaceBuilding</text>
</a>
</g>
</g>
<!-- Node15&#45;&gt;Node16 -->
<g id="edge15" class="edge">
<title>Node15&#45;&gt;Node16</title>
<path fill="none" stroke="midnightblue" d="M1128.76,-86C1144.55,-86 1161.09,-86 1177.47,-86"/>
<polygon fill="midnightblue" stroke="midnightblue" points="1177.64,-89.5 1187.64,-86 1177.64,-82.5 1177.64,-89.5"/>
</g>
<!-- Node16&#45;&gt;Node14 -->
<g id="edge16" class="edge">
<title>Node16&#45;&gt;Node14</title>
<path fill="none" stroke="midnightblue" d="M1433.14,-94.8C1441.72,-95.43 1450.36,-96.05 1458.9,-96.67"/>
<polygon fill="midnightblue" stroke="midnightblue" points="1458.65,-100.16 1468.87,-97.39 1459.15,-93.18 1458.65,-100.16"/>
</g>
</g>
</svg>
