<?xml version="1.0" encoding="UTF-8" standalone="no"?>
<!DOCTYPE svg PUBLIC "-//W3C//DTD SVG 1.1//EN"
 "http://www.w3.org/Graphics/SVG/1.1/DTD/svg11.dtd">
<!-- Generated by graphviz version 2.43.0 (0)
 -->
<!-- Title: Game.GameController.NewGame Pages: 1 -->
<!--zoomable 237 -->
<svg id="main" version="1.1" xmlns="http://www.w3.org/2000/svg" xmlns:xlink="http://www.w3.org/1999/xlink" xml:space="preserve" onload="init(evt)">
<style type="text/css"><![CDATA[
.edge:hover path { stroke: red; }
.edge:hover polygon { stroke: red; fill: red; }
]]></style>
<script type="text/javascript"><![CDATA[
var edges = document.getElementsByTagName('g');
if (edges && edges.length) {
  for (var i=0;i<edges.length;i++) {
    if (edges[i].id.substr(0,4)=='edge') {
      edges[i].setAttribute('class','edge');
    }
  }
}
]]></script>
        <defs>
                <circle id="rim" cx="0" cy="0" r="7"/>
                <circle id="rim2" cx="0" cy="0" r="3.5"/>
                <g id="zoomPlus">
                        <use xlink:href="#rim" fill="#404040">
                                <set attributeName="fill" to="#808080" begin="zoomplus.mouseover" end="zoomplus.mouseout"/>
                        </use>
                        <path d="M-4,0h8M0,-4v8" fill="none" stroke="white" stroke-width="1.5" pointer-events="none"/>
                </g>
                <g id="zoomMin">
                        <use xlink:href="#rim" fill="#404040">
                                <set attributeName="fill" to="#808080" begin="zoomminus.mouseover" end="zoomminus.mouseout"/>
                        </use>
                        <path d="M-4,0h8" fill="none" stroke="white" stroke-width="1.5" pointer-events="none"/>
                </g>
                <g id="dirArrow">
                        <path fill="none" stroke="white" stroke-width="1.5" d="M0,-3.0v7 M-2.5,-0.5L0,-3.0L2.5,-0.5"/>
                </g>
               <g id="resetDef">
                       <use xlink:href="#rim2" fill="#404040">
                               <set attributeName="fill" to="#808080" begin="reset.mouseover" end="reset.mouseout"/>
                       </use>
               </g>
        </defs>

<script type="text/javascript">
var viewWidth = 1950;
var viewHeight = 237;
var sectionId = 'dynsection-8';
</script>
<script xlink:href="svgpan.js"/>
<svg id="graph" class="graph">
<g id="viewport">
<title>Game.GameController.NewGame</title>
<polygon fill="white" stroke="transparent" points="-4,4 -4,-233 1946,-233 1946,4 -4,4"/>
<!-- Node1 -->
<g id="node1" class="node">
<title>Node1</title>
<g id="a_node1"><a xlink:title="Create a new game">
<polygon fill="#bfbfbf" stroke="black" points="0,-114.5 0,-133.5 179,-133.5 179,-114.5 0,-114.5"/>
<text text-anchor="middle" x="89.5" y="-121.5" font-family="Helvetica,sans-Serif" font-size="10.00">Game.GameController.NewGame</text>
</a>
</g>
</g>
<!-- Node2 -->
<g id="node2" class="node">
<title>Node2</title>
<g id="a_node2"><a xlink:href="classGame_1_1UI_1_1GameUI.html#a1f9659e1d86a8bcfdf115b631f89ce3e" target="_top" xlink:title="Change the difficulty and update its display">
<polygon fill="white" stroke="black" points="217,-209.5 217,-228.5 436,-228.5 436,-209.5 217,-209.5"/>
<text text-anchor="middle" x="326.5" y="-216.5" font-family="Helvetica,sans-Serif" font-size="10.00">Game.UI.GameUI.ChangeDifficulyDisplay</text>
</a>
</g>
</g>
<!-- Node1&#45;&gt;Node2 -->
<g id="edge1" class="edge">
<title>Node1&#45;&gt;Node2</title>
<path fill="none" stroke="midnightblue" d="M102.75,-133.7C124.18,-150.12 170.43,-183.27 215,-200 222.3,-202.74 230.03,-205.09 237.86,-207.1"/>
<polygon fill="midnightblue" stroke="midnightblue" points="237.29,-210.56 247.82,-209.48 238.91,-203.75 237.29,-210.56"/>
</g>
<!-- Node4 -->
<g id="node4" class="node">
<title>Node4</title>
<g id="a_node4"><a xlink:href="classGame_1_1World_1_1GameWorld.html#a5bc9140bbdf4b45f229d4e900db98d9b" target="_top" xlink:title="Creates a new game and create the chunks">
<polygon fill="white" stroke="black" points="215,-171.5 215,-190.5 438,-190.5 438,-171.5 215,-171.5"/>
<text text-anchor="middle" x="326.5" y="-178.5" font-family="Helvetica,sans-Serif" font-size="10.00">Game.World.GameWorld.CreateNewGame</text>
</a>
</g>
</g>
<!-- Node1&#45;&gt;Node4 -->
<g id="edge3" class="edge">
<title>Node1&#45;&gt;Node4</title>
<path fill="none" stroke="midnightblue" d="M118.41,-133.62C143.46,-142 181.36,-154.01 215,-162 226.88,-164.82 239.57,-167.4 251.97,-169.69"/>
<polygon fill="midnightblue" stroke="midnightblue" points="251.36,-173.14 261.82,-171.46 252.6,-166.25 251.36,-173.14"/>
</g>
<!-- Node20 -->
<g id="node20" class="node">
<title>Node20</title>
<g id="a_node20"><a xlink:href="classGame_1_1World_1_1GameWorld.html#a78654137c458c1b1917285e28d3d270b" target="_top" xlink:title="Gets the chunk based on the absolute position which chunk it would fall into">
<polygon fill="white" stroke="black" points="232.5,-133.5 232.5,-152.5 420.5,-152.5 420.5,-133.5 232.5,-133.5"/>
<text text-anchor="middle" x="326.5" y="-140.5" font-family="Helvetica,sans-Serif" font-size="10.00">Game.World.GameWorld.GetChunk</text>
</a>
</g>
</g>
<!-- Node1&#45;&gt;Node20 -->
<g id="edge20" class="edge">
<title>Node1&#45;&gt;Node20</title>
<path fill="none" stroke="midnightblue" d="M179.01,-131.16C193.04,-132.29 207.66,-133.47 221.99,-134.63"/>
<polygon fill="midnightblue" stroke="midnightblue" points="222.12,-138.15 232.37,-135.47 222.68,-131.18 222.12,-138.15"/>
</g>
<!-- Node21 -->
<g id="node21" class="node">
<title>Node21</title>
<g id="a_node21"><a xlink:href="classGame_1_1Car.html#adea5c0fa34888fc8d58fa434b205b365" target="_top" xlink:title=" ">
<polygon fill="white" stroke="black" points="285,-95.5 285,-114.5 368,-114.5 368,-95.5 285,-95.5"/>
<text text-anchor="middle" x="326.5" y="-102.5" font-family="Helvetica,sans-Serif" font-size="10.00">Game.Car.Init</text>
</a>
</g>
</g>
<!-- Node1&#45;&gt;Node21 -->
<g id="edge21" class="edge">
<title>Node1&#45;&gt;Node21</title>
<path fill="none" stroke="midnightblue" d="M179.01,-116.84C211.31,-114.23 246.73,-111.37 274.65,-109.11"/>
<polygon fill="midnightblue" stroke="midnightblue" points="275.28,-112.57 284.96,-108.28 274.71,-105.59 275.28,-112.57"/>
</g>
<!-- Node22 -->
<g id="node22" class="node">
<title>Node22</title>
<g id="a_node22"><a xlink:href="classGame_1_1GameController.html#a4ee6ddd9c52134a0bb30c3c0a7bef350" target="_top" xlink:title="Event for when the player is killed">
<polygon fill="white" stroke="black" points="235.5,-57.5 235.5,-76.5 417.5,-76.5 417.5,-57.5 235.5,-57.5"/>
<text text-anchor="middle" x="326.5" y="-64.5" font-family="Helvetica,sans-Serif" font-size="10.00">Game.GameController.PlayerDied</text>
</a>
</g>
</g>
<!-- Node1&#45;&gt;Node22 -->
<g id="edge22" class="edge">
<title>Node1&#45;&gt;Node22</title>
<path fill="none" stroke="midnightblue" d="M118.41,-114.38C143.46,-106 181.36,-93.99 215,-86 226.88,-83.18 239.57,-80.6 251.97,-78.31"/>
<polygon fill="midnightblue" stroke="midnightblue" points="252.6,-81.75 261.82,-76.54 251.36,-74.86 252.6,-81.75"/>
</g>
<!-- Node24 -->
<g id="node24" class="node">
<title>Node24</title>
<g id="a_node24"><a xlink:href="classGame_1_1World_1_1CarSpawner.html#a9ca9f4dfd1b63d182f23c9f630b54463" target="_top" xlink:title="Reset the timers">
<polygon fill="white" stroke="black" points="242.5,-19.5 242.5,-38.5 410.5,-38.5 410.5,-19.5 242.5,-19.5"/>
<text text-anchor="middle" x="326.5" y="-26.5" font-family="Helvetica,sans-Serif" font-size="10.00">Game.World.CarSpawner.Reset</text>
</a>
</g>
</g>
<!-- Node1&#45;&gt;Node24 -->
<g id="edge24" class="edge">
<title>Node1&#45;&gt;Node24</title>
<path fill="none" stroke="midnightblue" d="M102.75,-114.3C124.18,-97.88 170.43,-64.73 215,-48 222.3,-45.26 230.03,-42.91 237.86,-40.9"/>
<polygon fill="midnightblue" stroke="midnightblue" points="238.91,-44.25 247.82,-38.52 237.29,-37.44 238.91,-44.25"/>
</g>
<!-- Node3 -->
<g id="node3" class="node">
<title>Node3</title>
<g id="a_node3"><a xlink:href="classGame_1_1UI_1_1StarHandler.html#a710bc2e71e1f1217f86fe1d7be4dc9c4" target="_top" xlink:title="Update the display based on the difficulty">
<polygon fill="white" stroke="black" points="478.5,-209.5 478.5,-228.5 681.5,-228.5 681.5,-209.5 478.5,-209.5"/>
<text text-anchor="middle" x="580" y="-216.5" font-family="Helvetica,sans-Serif" font-size="10.00">Game.UI.StarHandler.ChangeDifficulty</text>
</a>
</g>
</g>
<!-- Node2&#45;&gt;Node3 -->
<g id="edge2" class="edge">
<title>Node2&#45;&gt;Node3</title>
<path fill="none" stroke="midnightblue" d="M436.35,-219C446.91,-219 457.64,-219 468.22,-219"/>
<polygon fill="midnightblue" stroke="midnightblue" points="468.31,-222.5 478.31,-219 468.31,-215.5 468.31,-222.5"/>
</g>
<!-- Node5 -->
<g id="node5" class="node">
<title>Node5</title>
<g id="a_node5"><a xlink:href="classGame_1_1World_1_1GameWorld.html#a730e116826e3519544de155b667042ba" target="_top" xlink:title="Loads a chunk">
<polygon fill="white" stroke="black" points="483,-171.5 483,-190.5 677,-190.5 677,-171.5 483,-171.5"/>
<text text-anchor="middle" x="580" y="-178.5" font-family="Helvetica,sans-Serif" font-size="10.00">Game.World.GameWorld.LoadChunk</text>
</a>
</g>
</g>
<!-- Node4&#45;&gt;Node5 -->
<g id="edge4" class="edge">
<title>Node4&#45;&gt;Node5</title>
<path fill="none" stroke="midnightblue" d="M438.18,-181C449.7,-181 461.38,-181 472.85,-181"/>
<polygon fill="midnightblue" stroke="midnightblue" points="472.86,-184.5 482.86,-181 472.86,-177.5 472.86,-184.5"/>
</g>
<!-- Node6 -->
<g id="node6" class="node">
<title>Node6</title>
<g id="a_node6"><a xlink:href="classGame_1_1World_1_1Chunk.html#a475512064d145228ca7084735b7e2f2f" target="_top" xlink:title="Show the chunk">
<polygon fill="white" stroke="black" points="727,-190.5 727,-209.5 877,-209.5 877,-190.5 727,-190.5"/>
<text text-anchor="middle" x="802" y="-197.5" font-family="Helvetica,sans-Serif" font-size="10.00">Game.World.Chunk.Display</text>
</a>
</g>
</g>
<!-- Node5&#45;&gt;Node6 -->
<g id="edge5" class="edge">
<title>Node5&#45;&gt;Node6</title>
<path fill="none" stroke="midnightblue" d="M677.18,-189.31C690.31,-190.44 703.72,-191.6 716.62,-192.71"/>
<polygon fill="midnightblue" stroke="midnightblue" points="716.59,-196.22 726.85,-193.6 717.19,-189.25 716.59,-196.22"/>
</g>
<!-- Node7 -->
<g id="node7" class="node">
<title>Node7</title>
<g id="a_node7"><a xlink:href="classGame_1_1World_1_1Chunk.html#a0616c2f9600a4bcc1dbe97a93a947e7a" target="_top" xlink:title="Initialize the chunk">
<polygon fill="white" stroke="black" points="722,-152.5 722,-171.5 882,-171.5 882,-152.5 722,-152.5"/>
<text text-anchor="middle" x="802" y="-159.5" font-family="Helvetica,sans-Serif" font-size="10.00">Game.World.Chunk.InitChunk</text>
</a>
</g>
</g>
<!-- Node5&#45;&gt;Node7 -->
<g id="edge6" class="edge">
<title>Node5&#45;&gt;Node7</title>
<path fill="none" stroke="midnightblue" d="M677.18,-172.69C688.59,-171.71 700.22,-170.7 711.54,-169.73"/>
<polygon fill="midnightblue" stroke="midnightblue" points="712.17,-173.18 721.83,-168.84 711.57,-166.21 712.17,-173.18"/>
</g>
<!-- Node8 -->
<g id="node8" class="node">
<title>Node8</title>
<g id="a_node8"><a xlink:href="classGame_1_1World_1_1Chunk.html#aac3343253a33a36a09318ebc76bd9f08" target="_top" xlink:title="Creates the tiles for the chunk">
<polygon fill="white" stroke="black" points="938.5,-190.5 938.5,-209.5 1107.5,-209.5 1107.5,-190.5 938.5,-190.5"/>
<text text-anchor="middle" x="1023" y="-197.5" font-family="Helvetica,sans-Serif" font-size="10.00">Game.World.Chunk.CreateTiles</text>
</a>
</g>
</g>
<!-- Node7&#45;&gt;Node8 -->
<g id="edge7" class="edge">
<title>Node7&#45;&gt;Node8</title>
<path fill="none" stroke="midnightblue" d="M857.98,-171.54C888.05,-176.76 925.48,-183.25 956.99,-188.72"/>
<polygon fill="midnightblue" stroke="midnightblue" points="956.55,-192.19 967,-190.46 957.74,-185.3 956.55,-192.19"/>
</g>
<!-- Node11 -->
<g id="node11" class="node">
<title>Node11</title>
<g id="a_node11"><a xlink:href="classGame_1_1World_1_1Chunk.html#af8d6134551597f12a028155b1466c0ff" target="_top" xlink:title="Gets tthe nearby chunks">
<polygon fill="white" stroke="black" points="922,-152.5 922,-171.5 1124,-171.5 1124,-152.5 922,-152.5"/>
<text text-anchor="middle" x="1023" y="-159.5" font-family="Helvetica,sans-Serif" font-size="10.00">Game.World.Chunk.GetNearbyChunks</text>
</a>
</g>
</g>
<!-- Node7&#45;&gt;Node11 -->
<g id="edge10" class="edge">
<title>Node7&#45;&gt;Node11</title>
<path fill="none" stroke="midnightblue" d="M882.06,-162C891.61,-162 901.5,-162 911.39,-162"/>
<polygon fill="midnightblue" stroke="midnightblue" points="911.69,-165.5 921.69,-162 911.69,-158.5 911.69,-165.5"/>
</g>
<!-- Node13 -->
<g id="node13" class="node">
<title>Node13</title>
<g id="a_node13"><a xlink:href="classGame_1_1World_1_1Chunk.html#a08f4b5e8b362b98f4b3f01225d12b4af" target="_top" xlink:title="Spawns the buildings and the props on a seperate thread">
<polygon fill="white" stroke="black" points="918,-76.5 918,-95.5 1128,-95.5 1128,-76.5 918,-76.5"/>
<text text-anchor="middle" x="1023" y="-83.5" font-family="Helvetica,sans-Serif" font-size="10.00">Game.World.Chunk.SpawnWorldObjects</text>
</a>
</g>
</g>
<!-- Node7&#45;&gt;Node13 -->
<g id="edge12" class="edge">
<title>Node7&#45;&gt;Node13</title>
<path fill="none" stroke="midnightblue" d="M830.74,-152.37C869.82,-138.81 941.18,-114.05 984.82,-98.9"/>
<polygon fill="midnightblue" stroke="midnightblue" points="986.19,-102.13 994.49,-95.55 983.89,-95.52 986.19,-102.13"/>
</g>
<!-- Node9 -->
<g id="node9" class="node">
<title>Node9</title>
<g id="a_node9"><a xlink:href="classGame_1_1World_1_1Chunk.html#ac4b762352bb5f90952fe57e5c0ee208f" target="_top" xlink:title="Determines the type of the tile at the coord">
<polygon fill="white" stroke="black" points="1185.5,-190.5 1185.5,-209.5 1391.5,-209.5 1391.5,-190.5 1185.5,-190.5"/>
<text text-anchor="middle" x="1288.5" y="-197.5" font-family="Helvetica,sans-Serif" font-size="10.00">Game.World.Chunk.DetermineTileType</text>
</a>
</g>
</g>
<!-- Node8&#45;&gt;Node9 -->
<g id="edge8" class="edge">
<title>Node8&#45;&gt;Node9</title>
<path fill="none" stroke="midnightblue" d="M1107.74,-200C1129.04,-200 1152.28,-200 1174.76,-200"/>
<polygon fill="midnightblue" stroke="midnightblue" points="1175.03,-203.5 1185.03,-200 1175.03,-196.5 1175.03,-203.5"/>
</g>
<!-- Node10 -->
<g id="node10" class="node">
<title>Node10</title>
<g id="a_node10"><a xlink:href="classGame_1_1World_1_1Chunk.html#a2d39efc9f5c0f3c302dd7e9d007096c7" target="_top" xlink:title="Determine what type of road it is">
<polygon fill="white" stroke="black" points="1465.5,-190.5 1465.5,-209.5 1677.5,-209.5 1677.5,-190.5 1465.5,-190.5"/>
<text text-anchor="middle" x="1571.5" y="-197.5" font-family="Helvetica,sans-Serif" font-size="10.00">Game.World.Chunk.DetermineRoadType</text>
</a>
</g>
</g>
<!-- Node9&#45;&gt;Node10 -->
<g id="edge9" class="edge">
<title>Node9&#45;&gt;Node10</title>
<path fill="none" stroke="midnightblue" d="M1391.74,-200C1412.24,-200 1433.91,-200 1454.83,-200"/>
<polygon fill="midnightblue" stroke="midnightblue" points="1455.03,-203.5 1465.03,-200 1455.03,-196.5 1455.03,-203.5"/>
</g>
<!-- Node12 -->
<g id="node12" class="node">
<title>Node12</title>
<g id="a_node12"><a xlink:href="classGame_1_1World_1_1GameWorld.html#a6188226b54eb7e38659cbe8d9d76b620" target="_top" xlink:title="Get the chunk without trying it to load">
<polygon fill="white" stroke="black" points="1164,-152.5 1164,-171.5 1413,-171.5 1413,-152.5 1164,-152.5"/>
<text text-anchor="middle" x="1288.5" y="-159.5" font-family="Helvetica,sans-Serif" font-size="10.00">Game.World.GameWorld.GetChunkWithoutLoad</text>
</a>
</g>
</g>
<!-- Node11&#45;&gt;Node12 -->
<g id="edge11" class="edge">
<title>Node11&#45;&gt;Node12</title>
<path fill="none" stroke="midnightblue" d="M1124.37,-162C1133.98,-162 1143.82,-162 1153.68,-162"/>
<polygon fill="midnightblue" stroke="midnightblue" points="1153.95,-165.5 1163.95,-162 1153.95,-158.5 1153.95,-165.5"/>
</g>
<!-- Node14 -->
<g id="node14" class="node">
<title>Node14</title>
<g id="a_node14"><a xlink:href="classGame_1_1World_1_1Chunk.html#a12ff4b268fb99d10493398cfe555b46c" target="_top" xlink:title=" ">
<polygon fill="white" stroke="black" points="1461,-114.5 1461,-133.5 1682,-133.5 1682,-114.5 1461,-114.5"/>
<text text-anchor="middle" x="1571.5" y="-121.5" font-family="Helvetica,sans-Serif" font-size="10.00">Game.World.Chunk.AddEnvironmentProps</text>
</a>
</g>
</g>
<!-- Node13&#45;&gt;Node14 -->
<g id="edge13" class="edge">
<title>Node13&#45;&gt;Node14</title>
<path fill="none" stroke="midnightblue" d="M1085.55,-95.55C1109.92,-99.01 1138.23,-102.65 1164,-105 1260.15,-113.75 1369.48,-118.58 1450.52,-121.17"/>
<polygon fill="midnightblue" stroke="midnightblue" points="1450.66,-124.68 1460.76,-121.49 1450.88,-117.68 1450.66,-124.68"/>
</g>
<!-- Node16 -->
<g id="node16" class="node">
<title>Node16</title>
<g id="a_node16"><a xlink:href="classGame_1_1World_1_1Chunk.html#a00a9cd484ae1ddffec928a75f6b2db15" target="_top" xlink:title="Add the buildings which are next to the roads">
<polygon fill="white" stroke="black" points="1187.5,-76.5 1187.5,-95.5 1389.5,-95.5 1389.5,-76.5 1187.5,-76.5"/>
<text text-anchor="middle" x="1288.5" y="-83.5" font-family="Helvetica,sans-Serif" font-size="10.00">Game.World.Chunk.AddRoadBuildings</text>
</a>
</g>
</g>
<!-- Node13&#45;&gt;Node16 -->
<g id="edge15" class="edge">
<title>Node13&#45;&gt;Node16</title>
<path fill="none" stroke="midnightblue" d="M1128.14,-86C1144.22,-86 1160.88,-86 1177.1,-86"/>
<polygon fill="midnightblue" stroke="midnightblue" points="1177.12,-89.5 1187.12,-86 1177.12,-82.5 1177.12,-89.5"/>
</g>
<!-- Node18 -->
<g id="node18" class="node">
<title>Node18</title>
<g id="a_node18"><a xlink:href="classGame_1_1World_1_1Chunk.html#a443ede65d8aeb566a385cb3bcad9d8f7" target="_top" xlink:title="Generate the building cells matrix so we know which way the roads are">
<polygon fill="white" stroke="black" points="1184,-38.5 1184,-57.5 1393,-57.5 1393,-38.5 1184,-38.5"/>
<text text-anchor="middle" x="1288.5" y="-45.5" font-family="Helvetica,sans-Serif" font-size="10.00">Game.World.Chunk.GenerateCellMatrix</text>
</a>
</g>
</g>
<!-- Node13&#45;&gt;Node18 -->
<g id="edge18" class="edge">
<title>Node13&#45;&gt;Node18</title>
<path fill="none" stroke="midnightblue" d="M1090.15,-76.46C1126.96,-71.15 1172.93,-64.52 1211.25,-59"/>
<polygon fill="midnightblue" stroke="midnightblue" points="1211.92,-62.44 1221.32,-57.54 1210.92,-55.51 1211.92,-62.44"/>
</g>
<!-- Node19 -->
<g id="node19" class="node">
<title>Node19</title>
<g id="a_node19"><a xlink:href="classUtility_1_1CoroutineRunner.html#a1c473dee723f16d86bab9d8475c8214a" target="_top" xlink:title="A helper method to start coroutines">
<polygon fill="white" stroke="black" points="1189.5,-0.5 1189.5,-19.5 1387.5,-19.5 1387.5,-0.5 1189.5,-0.5"/>
<text text-anchor="middle" x="1288.5" y="-7.5" font-family="Helvetica,sans-Serif" font-size="10.00">Utility.CoroutineRunner.RunCoroutine</text>
</a>
</g>
</g>
<!-- Node13&#45;&gt;Node19 -->
<g id="edge19" class="edge">
<title>Node13&#45;&gt;Node19</title>
<path fill="none" stroke="midnightblue" d="M1043.43,-76.38C1070,-63.63 1119.48,-41.3 1164,-29 1174.75,-26.03 1186.17,-23.48 1197.55,-21.31"/>
<polygon fill="midnightblue" stroke="midnightblue" points="1198.31,-24.73 1207.53,-19.5 1197.06,-17.85 1198.31,-24.73"/>
</g>
<!-- Node15 -->
<g id="node15" class="node">
<title>Node15</title>
<g id="a_node15"><a xlink:href="classGame_1_1World_1_1Chunk.html#af37779d40ed9cd07b577d5bca61627b7" target="_top" xlink:title=" ">
<polygon fill="white" stroke="black" points="1730,-95.5 1730,-114.5 1942,-114.5 1942,-95.5 1730,-95.5"/>
<text text-anchor="middle" x="1836" y="-102.5" font-family="Helvetica,sans-Serif" font-size="10.00">Game.World.Chunk.GetAbsolutePosition</text>
</a>
</g>
</g>
<!-- Node14&#45;&gt;Node15 -->
<g id="edge14" class="edge">
<title>Node14&#45;&gt;Node15</title>
<path fill="none" stroke="midnightblue" d="M1682.3,-116.05C1694.6,-115.16 1707.15,-114.25 1719.51,-113.36"/>
<polygon fill="midnightblue" stroke="midnightblue" points="1720.12,-116.82 1729.84,-112.61 1719.61,-109.84 1720.12,-116.82"/>
</g>
<!-- Node17 -->
<g id="node17" class="node">
<title>Node17</title>
<g id="a_node17"><a xlink:href="classGame_1_1World_1_1Chunk.html#af2946e1e1b9e325d6004d166b2b26193" target="_top" xlink:title="Lock the cell and try to place it">
<polygon fill="white" stroke="black" points="1449,-76.5 1449,-95.5 1694,-95.5 1694,-76.5 1449,-76.5"/>
<text text-anchor="middle" x="1571.5" y="-83.5" font-family="Helvetica,sans-Serif" font-size="10.00">Game.World.Chunk.LockAndTryToPlaceBuilding</text>
</a>
</g>
</g>
<!-- Node16&#45;&gt;Node17 -->
<g id="edge16" class="edge">
<title>Node16&#45;&gt;Node17</title>
<path fill="none" stroke="midnightblue" d="M1389.76,-86C1405.55,-86 1422.09,-86 1438.47,-86"/>
<polygon fill="midnightblue" stroke="midnightblue" points="1438.64,-89.5 1448.64,-86 1438.64,-82.5 1438.64,-89.5"/>
</g>
<!-- Node17&#45;&gt;Node15 -->
<g id="edge17" class="edge">
<title>Node17&#45;&gt;Node15</title>
<path fill="none" stroke="midnightblue" d="M1694.14,-94.8C1702.72,-95.43 1711.36,-96.05 1719.9,-96.67"/>
<polygon fill="midnightblue" stroke="midnightblue" points="1719.65,-100.16 1729.87,-97.39 1720.15,-93.18 1719.65,-100.16"/>
</g>
<!-- Node23 -->
<g id="node23" class="node">
<title>Node23</title>
<g id="a_node23"><a xlink:href="classGame_1_1UI_1_1GameUI.html#a4711cf98c85b51e143bb5e5a33157b81" target="_top" xlink:title="Show the game over screen">
<polygon fill="white" stroke="black" points="474,-57.5 474,-76.5 686,-76.5 686,-57.5 474,-57.5"/>
<text text-anchor="middle" x="580" y="-64.5" font-family="Helvetica,sans-Serif" font-size="10.00">Game.UI.GameUI.ShowEndGameScreen</text>
</a>
</g>
</g>
<!-- Node22&#45;&gt;Node23 -->
<g id="edge23" class="edge">
<title>Node22&#45;&gt;Node23</title>
<path fill="none" stroke="midnightblue" d="M417.59,-67C432.5,-67 448.15,-67 463.58,-67"/>
<polygon fill="midnightblue" stroke="midnightblue" points="463.69,-70.5 473.69,-67 463.69,-63.5 463.69,-70.5"/>
</g>
</g>
</svg>
        <g id="navigator" transform="translate(0 0)" fill="#404254">
                <rect fill="#f2f5e9" fill-opacity="0.5" stroke="#606060" stroke-width=".5" x="0" y="0" width="60" height="60"/>
                <use id="zoomplus" xlink:href="#zoomPlus" x="17" y="9" onmousedown="handleZoom(evt,'in')"/>
                <use id="zoomminus" xlink:href="#zoomMin" x="42" y="9" onmousedown="handleZoom(evt,'out')"/>
                <use id="reset" xlink:href="#resetDef" x="30" y="36" onmousedown="handleReset()"/>
                <g id="arrowUp" xlink:href="#dirArrow" transform="translate(30 24)" onmousedown="handlePan(0,-1)">
                  <use xlink:href="#rim" fill="#404040">
                        <set attributeName="fill" to="#808080" begin="arrowUp.mouseover" end="arrowUp.mouseout"/>
                  </use>
                  <path fill="none" stroke="white" stroke-width="1.5" d="M0,-3.0v7 M-2.5,-0.5L0,-3.0L2.5,-0.5"/>
                </g>
                <g id="arrowRight" xlink:href="#dirArrow" transform="rotate(90) translate(36 -43)" onmousedown="handlePan(1,0)">
                  <use xlink:href="#rim" fill="#404040">
                        <set attributeName="fill" to="#808080" begin="arrowRight.mouseover" end="arrowRight.mouseout"/>
                  </use>
                  <path fill="none" stroke="white" stroke-width="1.5" d="M0,-3.0v7 M-2.5,-0.5L0,-3.0L2.5,-0.5"/>
                </g>
                <g id="arrowDown" xlink:href="#dirArrow" transform="rotate(180) translate(-30 -48)" onmousedown="handlePan(0,1)">
                  <use xlink:href="#rim" fill="#404040">
                        <set attributeName="fill" to="#808080" begin="arrowDown.mouseover" end="arrowDown.mouseout"/>
                  </use>
                  <path fill="none" stroke="white" stroke-width="1.5" d="M0,-3.0v7 M-2.5,-0.5L0,-3.0L2.5,-0.5"/>
                </g>
                <g id="arrowLeft" xlink:href="#dirArrow" transform="rotate(270) translate(-36 17)" onmousedown="handlePan(-1,0)">
                  <use xlink:href="#rim" fill="#404040">
                        <set attributeName="fill" to="#808080" begin="arrowLeft.mouseover" end="arrowLeft.mouseout"/>
                  </use>
                  <path fill="none" stroke="white" stroke-width="1.5" d="M0,-3.0v7 M-2.5,-0.5L0,-3.0L2.5,-0.5"/>
                </g>
        </g>
        <svg viewBox="0 0 15 15" width="100%" height="30px" preserveAspectRatio="xMaxYMin meet">
         <g id="arrow_out" transform="scale(0.3 0.3)">
          <a xlink:href="classGame_1_1GameController_af5c50c52cffcab3018ca54be6a421d7f_cgraph_org.svg" target="_base">
           <rect id="button" ry="5" rx="5" y="6" x="6" height="38" width="38"
                fill="#f2f5e9" fill-opacity="0.5" stroke="#606060" stroke-width="1.0"/>
           <path id="arrow"
             d="M 11.500037,31.436501 C 11.940474,20.09759 22.043105,11.32322 32.158766,21.979434 L 37.068811,17.246167 C 37.068811,17.246167 37.088388,32 37.088388,32 L 22.160133,31.978069 C 22.160133,31.978069 26.997745,27.140456 26.997745,27.140456 C 18.528582,18.264221 13.291696,25.230495 11.500037,31.436501 z"
             style="fill:#404040;"/>
          </a>
         </g>
        </svg>
</svg>
