<?xml version="1.0" encoding="UTF-8" standalone="no"?>
<!DOCTYPE svg PUBLIC "-//W3C//DTD SVG 1.1//EN"
 "http://www.w3.org/Graphics/SVG/1.1/DTD/svg11.dtd">
<!-- Generated by graphviz version 2.43.0 (0)
 -->
<!-- Title: User.UserController Pages: 1 -->
<svg width="367pt" height="397pt"
 viewBox="0.00 0.00 367.00 397.00" xmlns="http://www.w3.org/2000/svg" xmlns:xlink="http://www.w3.org/1999/xlink">
<g id="graph0" class="graph" transform="scale(1 1) rotate(0) translate(4 393)">
<title>User.UserController</title>
<polygon fill="white" stroke="transparent" points="-4,4 -4,-393 363,-393 363,4 -4,4"/>
<!-- Node1 -->
<g id="node1" class="node">
<title>Node1</title>
<g id="a_node1"><a xlink:title="Handles the user actions such as registering and login">
<polygon fill="#bfbfbf" stroke="black" points="0,-0.5 0,-200.5 359,-200.5 359,-0.5 0,-0.5"/>
<text text-anchor="middle" x="179.5" y="-188.5" font-family="Helvetica,sans-Serif" font-size="10.00">User.UserController</text>
<polyline fill="none" stroke="black" points="0,-181.5 359,-181.5 "/>
<text text-anchor="start" x="8" y="-169.5" font-family="Helvetica,sans-Serif" font-size="10.00">+ GameObject LoginPanel</text>
<text text-anchor="start" x="8" y="-158.5" font-family="Helvetica,sans-Serif" font-size="10.00">&#45; GameObject registerPanel</text>
<text text-anchor="start" x="8" y="-147.5" font-family="Helvetica,sans-Serif" font-size="10.00">&#45; ModalWindow modalWindow</text>
<polyline fill="none" stroke="black" points="0,-140.5 359,-140.5 "/>
<text text-anchor="start" x="8" y="-128.5" font-family="Helvetica,sans-Serif" font-size="10.00">+ void SendLogin()</text>
<text text-anchor="start" x="8" y="-117.5" font-family="Helvetica,sans-Serif" font-size="10.00">+ void SendRegister()</text>
<text text-anchor="start" x="8" y="-106.5" font-family="Helvetica,sans-Serif" font-size="10.00">+ bool IsValidEmail(string emailaddress)</text>
<text text-anchor="start" x="8" y="-95.5" font-family="Helvetica,sans-Serif" font-size="10.00">+ void MoveToRegisterWindow()</text>
<text text-anchor="start" x="8" y="-84.5" font-family="Helvetica,sans-Serif" font-size="10.00">+ void MoveToLoginWindow()</text>
<text text-anchor="start" x="8" y="-73.5" font-family="Helvetica,sans-Serif" font-size="10.00">&#45; void Start()</text>
<text text-anchor="start" x="8" y="-62.5" font-family="Helvetica,sans-Serif" font-size="10.00">&#45; void CheckLoggedIn()</text>
<text text-anchor="start" x="8" y="-51.5" font-family="Helvetica,sans-Serif" font-size="10.00">&#45; void LoggedIn(Thesis_backend.Data_Structures.User result)</text>
<text text-anchor="start" x="8" y="-40.5" font-family="Helvetica,sans-Serif" font-size="10.00">&#45; void ShowRegisterError(string content)</text>
<text text-anchor="start" x="8" y="-29.5" font-family="Helvetica,sans-Serif" font-size="10.00">&#45; void ShowLoginError(string content)</text>
<text text-anchor="start" x="8" y="-18.5" font-family="Helvetica,sans-Serif" font-size="10.00">&#45; void Registered(Thesis_backend.Data_Structures.User loggedInUser)</text>
<text text-anchor="start" x="8" y="-7.5" font-family="Helvetica,sans-Serif" font-size="10.00">&#45; IEnumerator MoveToMainScence()</text>
</a>
</g>
</g>
<!-- Node2 -->
<g id="node2" class="node">
<title>Node2</title>
<g id="a_node2"><a xlink:href="classUtility_1_1ThreadSafeMonoBehaviour.html" target="_top" xlink:title="Safely stores if the gameobject been destroyed in a bool">
<polygon fill="white" stroke="black" points="105,-237.5 105,-294.5 254,-294.5 254,-237.5 105,-237.5"/>
<text text-anchor="middle" x="179.5" y="-282.5" font-family="Helvetica,sans-Serif" font-size="10.00">ThreadSafeMonoBehaviour</text>
<polyline fill="none" stroke="black" points="105,-275.5 254,-275.5 "/>
<text text-anchor="start" x="113" y="-263.5" font-family="Helvetica,sans-Serif" font-size="10.00">+ bool Destroyed</text>
<polyline fill="none" stroke="black" points="105,-256.5 254,-256.5 "/>
<text text-anchor="start" x="113" y="-244.5" font-family="Helvetica,sans-Serif" font-size="10.00"># void OnDestroy()</text>
</a>
</g>
</g>
<!-- Node2&#45;&gt;Node1 -->
<g id="edge1" class="edge">
<title>Node2&#45;&gt;Node1</title>
<path fill="none" stroke="midnightblue" d="M179.5,-227.04C179.5,-218.87 179.5,-209.87 179.5,-200.55"/>
<polygon fill="none" stroke="midnightblue" points="176,-227.26 179.5,-237.26 183,-227.26 176,-227.26"/>
</g>
<!-- Node3 -->
<g id="node3" class="node">
<title>Node3</title>
<g id="a_node3"><a xlink:title=" ">
<polygon fill="white" stroke="#bfbfbf" points="133,-331.5 133,-388.5 226,-388.5 226,-331.5 133,-331.5"/>
<text text-anchor="middle" x="179.5" y="-376.5" font-family="Helvetica,sans-Serif" font-size="10.00">MonoBehaviour</text>
<polyline fill="none" stroke="#bfbfbf" points="133,-369.5 226,-369.5 "/>
<text text-anchor="middle" x="179.5" y="-357.5" font-family="Helvetica,sans-Serif" font-size="10.00"> </text>
<polyline fill="none" stroke="#bfbfbf" points="133,-350.5 226,-350.5 "/>
<text text-anchor="middle" x="179.5" y="-338.5" font-family="Helvetica,sans-Serif" font-size="10.00"> </text>
</a>
</g>
</g>
<!-- Node3&#45;&gt;Node2 -->
<g id="edge2" class="edge">
<title>Node3&#45;&gt;Node2</title>
<path fill="none" stroke="midnightblue" d="M179.5,-321.21C179.5,-312.29 179.5,-302.95 179.5,-294.58"/>
<polygon fill="none" stroke="midnightblue" points="176,-321.4 179.5,-331.4 183,-321.4 176,-321.4"/>
</g>
</g>
</svg>
