<?xml version="1.0" encoding="UTF-8" standalone="no"?>
<!DOCTYPE svg PUBLIC "-//W3C//DTD SVG 1.1//EN"
 "http://www.w3.org/Graphics/SVG/1.1/DTD/svg11.dtd">
<!-- Generated by graphviz version 2.43.0 (0)
 -->
<!-- Title: Game.World.GameWorld.CreateNewGame Pages: 1 -->
<svg width="1717pt" height="214pt"
 viewBox="0.00 0.00 1717.00 214.00" xmlns="http://www.w3.org/2000/svg" xmlns:xlink="http://www.w3.org/1999/xlink">
<g id="graph0" class="graph" transform="scale(1 1) rotate(0) translate(4 210)">
<title>Game.World.GameWorld.CreateNewGame</title>
<!-- Node1 -->
<g id="Node000001" class="node">
<title>Node1</title>
<g id="a_Node000001"><a xlink:title="Creates a new game and create the chunks.">
<polygon fill="#999999" stroke="#666666" points="223,-187 0,-187 0,-168 223,-168 223,-187"/>
<text text-anchor="middle" x="111.5" y="-175" font-family="Helvetica,sans-Serif" font-size="10.00">Game.World.GameWorld.CreateNewGame</text>
</a>
</g>
</g>
<!-- Node2 -->
<g id="Node000002" class="node">
<title>Node2</title>
<g id="a_Node000002"><a xlink:href="classGame_1_1World_1_1GameWorld.html#a730e116826e3519544de155b667042ba" target="_top" xlink:title="Loads a chunk.">
<polygon fill="white" stroke="#666666" points="453,-187 259,-187 259,-168 453,-168 453,-187"/>
<text text-anchor="middle" x="356" y="-175" font-family="Helvetica,sans-Serif" font-size="10.00">Game.World.GameWorld.LoadChunk</text>
</a>
</g>
</g>
<!-- Node1&#45;&gt;Node2 -->
<g id="edge1_Node000001_Node000002" class="edge">
<title>Node1&#45;&gt;Node2</title>
<g id="a_edge1_Node000001_Node000002"><a xlink:title=" ">
<path fill="none" stroke="#63b8ff" d="M223.11,-177.5C231.54,-177.5 240.05,-177.5 248.46,-177.5"/>
<polygon fill="#63b8ff" stroke="#63b8ff" points="248.66,-181 258.66,-177.5 248.66,-174 248.66,-181"/>
</a>
</g>
</g>
<!-- Node3 -->
<g id="Node000003" class="node">
<title>Node3</title>
<g id="a_Node000003"><a xlink:href="classGame_1_1World_1_1Chunk.html#a475512064d145228ca7084735b7e2f2f" target="_top" xlink:title="Show the chunk.">
<polygon fill="white" stroke="#666666" points="644,-206 494,-206 494,-187 644,-187 644,-206"/>
<text text-anchor="middle" x="569" y="-194" font-family="Helvetica,sans-Serif" font-size="10.00">Game.World.Chunk.Display</text>
</a>
</g>
</g>
<!-- Node2&#45;&gt;Node3 -->
<g id="edge2_Node000002_Node000003" class="edge">
<title>Node2&#45;&gt;Node3</title>
<g id="a_edge2_Node000002_Node000003"><a xlink:title=" ">
<path fill="none" stroke="#63b8ff" d="M453.24,-186.17C463.32,-187.07 473.52,-187.99 483.46,-188.89"/>
<polygon fill="#63b8ff" stroke="#63b8ff" points="483.43,-192.4 493.71,-189.81 484.06,-185.43 483.43,-192.4"/>
</a>
</g>
</g>
<!-- Node4 -->
<g id="Node000004" class="node">
<title>Node4</title>
<g id="a_Node000004"><a xlink:href="classGame_1_1World_1_1Chunk.html#a0616c2f9600a4bcc1dbe97a93a947e7a" target="_top" xlink:title="Initialize the chunk.">
<polygon fill="white" stroke="#666666" points="649,-169 489,-169 489,-150 649,-150 649,-169"/>
<text text-anchor="middle" x="569" y="-157" font-family="Helvetica,sans-Serif" font-size="10.00">Game.World.Chunk.InitChunk</text>
</a>
</g>
</g>
<!-- Node2&#45;&gt;Node4 -->
<g id="edge3_Node000002_Node000004" class="edge">
<title>Node2&#45;&gt;Node4</title>
<g id="a_edge3_Node000002_Node000004"><a xlink:title=" ">
<path fill="none" stroke="#63b8ff" d="M453.24,-169.29C461.74,-168.57 470.32,-167.83 478.76,-167.11"/>
<polygon fill="#63b8ff" stroke="#63b8ff" points="479.3,-170.58 488.96,-166.24 478.7,-163.61 479.3,-170.58"/>
</a>
</g>
</g>
<!-- Node5 -->
<g id="Node000005" class="node">
<title>Node5</title>
<g id="a_Node000005"><a xlink:href="classGame_1_1World_1_1Chunk.html#aac3343253a33a36a09318ebc76bd9f08" target="_top" xlink:title="Creates the tiles for the chunk.">
<polygon fill="white" stroke="#666666" points="874.5,-206 705.5,-206 705.5,-187 874.5,-187 874.5,-206"/>
<text text-anchor="middle" x="790" y="-194" font-family="Helvetica,sans-Serif" font-size="10.00">Game.World.Chunk.CreateTiles</text>
</a>
</g>
</g>
<!-- Node4&#45;&gt;Node5 -->
<g id="edge4_Node000004_Node000005" class="edge">
<title>Node4&#45;&gt;Node5</title>
<g id="a_edge4_Node000004_Node000005"><a xlink:title=" ">
<path fill="none" stroke="#63b8ff" d="M626.4,-169.03C655.66,-173.97 691.6,-180.04 722.24,-185.22"/>
<polygon fill="#63b8ff" stroke="#63b8ff" points="721.97,-188.72 732.41,-186.94 723.14,-181.82 721.97,-188.72"/>
</a>
</g>
</g>
<!-- Node8 -->
<g id="Node000008" class="node">
<title>Node8</title>
<g id="a_Node000008"><a xlink:href="classGame_1_1World_1_1Chunk.html#a1fb214fa85481a42c651b9d6b0d45cb9" target="_top" xlink:title="Gets tthe nearby chunks.">
<polygon fill="white" stroke="#666666" points="891,-169 689,-169 689,-150 891,-150 891,-169"/>
<text text-anchor="middle" x="790" y="-157" font-family="Helvetica,sans-Serif" font-size="10.00">Game.World.Chunk.GetNearbyChunks</text>
</a>
</g>
</g>
<!-- Node4&#45;&gt;Node8 -->
<g id="edge7_Node000004_Node000008" class="edge">
<title>Node4&#45;&gt;Node8</title>
<g id="a_edge7_Node000004_Node000008"><a xlink:title=" ">
<path fill="none" stroke="#63b8ff" d="M649.06,-159.5C658.61,-159.5 668.5,-159.5 678.39,-159.5"/>
<polygon fill="#63b8ff" stroke="#63b8ff" points="678.69,-163 688.69,-159.5 678.69,-156 678.69,-163"/>
</a>
</g>
</g>
<!-- Node10 -->
<g id="Node000010" class="node">
<title>Node10</title>
<g id="a_Node000010"><a xlink:href="classGame_1_1World_1_1Chunk.html#a08f4b5e8b362b98f4b3f01225d12b4af" target="_top" xlink:title="Spawns the buildings and the props on a seperate thread.">
<polygon fill="white" stroke="#666666" points="895,-93 685,-93 685,-74 895,-74 895,-93"/>
<text text-anchor="middle" x="790" y="-81" font-family="Helvetica,sans-Serif" font-size="10.00">Game.World.Chunk.SpawnWorldObjects</text>
</a>
</g>
</g>
<!-- Node4&#45;&gt;Node10 -->
<g id="edge9_Node000004_Node000010" class="edge">
<title>Node4&#45;&gt;Node10</title>
<g id="a_edge9_Node000004_Node000010"><a xlink:title=" ">
<path fill="none" stroke="#63b8ff" d="M597.74,-149.87C636.82,-136.31 708.18,-111.55 751.82,-96.4"/>
<polygon fill="#63b8ff" stroke="#63b8ff" points="753.19,-99.63 761.49,-93.05 750.89,-93.02 753.19,-99.63"/>
</a>
</g>
</g>
<!-- Node6 -->
<g id="Node000006" class="node">
<title>Node6</title>
<g id="a_Node000006"><a xlink:href="classGame_1_1World_1_1Chunk.html#ac4b762352bb5f90952fe57e5c0ee208f" target="_top" xlink:title="Determines the type of the tile at the coord.">
<polygon fill="white" stroke="#666666" points="1158.5,-206 952.5,-206 952.5,-187 1158.5,-187 1158.5,-206"/>
<text text-anchor="middle" x="1055.5" y="-194" font-family="Helvetica,sans-Serif" font-size="10.00">Game.World.Chunk.DetermineTileType</text>
</a>
</g>
</g>
<!-- Node5&#45;&gt;Node6 -->
<g id="edge5_Node000005_Node000006" class="edge">
<title>Node5&#45;&gt;Node6</title>
<g id="a_edge5_Node000005_Node000006"><a xlink:title=" ">
<path fill="none" stroke="#63b8ff" d="M874.74,-196.5C896.04,-196.5 919.28,-196.5 941.76,-196.5"/>
<polygon fill="#63b8ff" stroke="#63b8ff" points="942.03,-200 952.03,-196.5 942.03,-193 942.03,-200"/>
</a>
</g>
</g>
<!-- Node7 -->
<g id="Node000007" class="node">
<title>Node7</title>
<g id="a_Node000007"><a xlink:href="classGame_1_1World_1_1Chunk.html#a2d39efc9f5c0f3c302dd7e9d007096c7" target="_top" xlink:title="Determine what type of road it is.">
<polygon fill="white" stroke="#666666" points="1444.5,-206 1232.5,-206 1232.5,-187 1444.5,-187 1444.5,-206"/>
<text text-anchor="middle" x="1338.5" y="-194" font-family="Helvetica,sans-Serif" font-size="10.00">Game.World.Chunk.DetermineRoadType</text>
</a>
</g>
</g>
<!-- Node6&#45;&gt;Node7 -->
<g id="edge6_Node000006_Node000007" class="edge">
<title>Node6&#45;&gt;Node7</title>
<g id="a_edge6_Node000006_Node000007"><a xlink:title=" ">
<path fill="none" stroke="#63b8ff" d="M1158.74,-196.5C1179.24,-196.5 1200.91,-196.5 1221.83,-196.5"/>
<polygon fill="#63b8ff" stroke="#63b8ff" points="1222.03,-200 1232.03,-196.5 1222.03,-193 1222.03,-200"/>
</a>
</g>
</g>
<!-- Node9 -->
<g id="Node000009" class="node">
<title>Node9</title>
<g id="a_Node000009"><a xlink:href="classGame_1_1World_1_1GameWorld.html#a6188226b54eb7e38659cbe8d9d76b620" target="_top" xlink:title="Get the chunk without trying it to load.">
<polygon fill="white" stroke="#666666" points="1180,-169 931,-169 931,-150 1180,-150 1180,-169"/>
<text text-anchor="middle" x="1055.5" y="-157" font-family="Helvetica,sans-Serif" font-size="10.00">Game.World.GameWorld.GetChunkWithoutLoad</text>
</a>
</g>
</g>
<!-- Node8&#45;&gt;Node9 -->
<g id="edge8_Node000008_Node000009" class="edge">
<title>Node8&#45;&gt;Node9</title>
<g id="a_edge8_Node000008_Node000009"><a xlink:title=" ">
<path fill="none" stroke="#63b8ff" d="M891.37,-159.5C900.98,-159.5 910.82,-159.5 920.68,-159.5"/>
<polygon fill="#63b8ff" stroke="#63b8ff" points="920.95,-163 930.95,-159.5 920.95,-156 920.95,-163"/>
</a>
</g>
</g>
<!-- Node11 -->
<g id="Node000011" class="node">
<title>Node11</title>
<g id="a_Node000011"><a xlink:href="classGame_1_1World_1_1Chunk.html#a12ff4b268fb99d10493398cfe555b46c" target="_top" xlink:title=" ">
<polygon fill="white" stroke="#666666" points="1449,-131 1228,-131 1228,-112 1449,-112 1449,-131"/>
<text text-anchor="middle" x="1338.5" y="-119" font-family="Helvetica,sans-Serif" font-size="10.00">Game.World.Chunk.AddEnvironmentProps</text>
</a>
</g>
</g>
<!-- Node10&#45;&gt;Node11 -->
<g id="edge10_Node000010_Node000011" class="edge">
<title>Node10&#45;&gt;Node11</title>
<g id="a_edge10_Node000010_Node000011"><a xlink:title=" ">
<path fill="none" stroke="#63b8ff" d="M856.76,-93.04C880.16,-96.15 906.71,-99.34 931,-101.5 1027.18,-110.04 1136.51,-115.16 1217.54,-118.08"/>
<polygon fill="#63b8ff" stroke="#63b8ff" points="1217.66,-121.58 1227.78,-118.44 1217.91,-114.59 1217.66,-121.58"/>
</a>
</g>
</g>
<!-- Node13 -->
<g id="Node000013" class="node">
<title>Node13</title>
<g id="a_Node000013"><a xlink:href="classGame_1_1World_1_1Chunk.html#a00a9cd484ae1ddffec928a75f6b2db15" target="_top" xlink:title="Add the buildings which are next to the roads.">
<polygon fill="white" stroke="#666666" points="1156.5,-93 954.5,-93 954.5,-74 1156.5,-74 1156.5,-93"/>
<text text-anchor="middle" x="1055.5" y="-81" font-family="Helvetica,sans-Serif" font-size="10.00">Game.World.Chunk.AddRoadBuildings</text>
</a>
</g>
</g>
<!-- Node10&#45;&gt;Node13 -->
<g id="edge12_Node000010_Node000013" class="edge">
<title>Node10&#45;&gt;Node13</title>
<g id="a_edge12_Node000010_Node000013"><a xlink:title=" ">
<path fill="none" stroke="#63b8ff" d="M895.14,-83.5C911.22,-83.5 927.88,-83.5 944.1,-83.5"/>
<polygon fill="#63b8ff" stroke="#63b8ff" points="944.12,-87 954.12,-83.5 944.12,-80 944.12,-87"/>
</a>
</g>
</g>
<!-- Node15 -->
<g id="Node000015" class="node">
<title>Node15</title>
<g id="a_Node000015"><a xlink:href="classGame_1_1World_1_1Chunk.html#a443ede65d8aeb566a385cb3bcad9d8f7" target="_top" xlink:title="Generate the building cells matrix so we know which way the roads are.">
<polygon fill="white" stroke="#666666" points="1160,-56 951,-56 951,-37 1160,-37 1160,-56"/>
<text text-anchor="middle" x="1055.5" y="-44" font-family="Helvetica,sans-Serif" font-size="10.00">Game.World.Chunk.GenerateCellMatrix</text>
</a>
</g>
</g>
<!-- Node10&#45;&gt;Node15 -->
<g id="edge15_Node000010_Node000015" class="edge">
<title>Node10&#45;&gt;Node15</title>
<g id="a_edge15_Node000010_Node000015"><a xlink:title=" ">
<path fill="none" stroke="#63b8ff" d="M858.86,-73.97C894.68,-68.94 938.81,-62.74 976.09,-57.51"/>
<polygon fill="#63b8ff" stroke="#63b8ff" points="977,-60.92 986.41,-56.06 976.03,-53.98 977,-60.92"/>
</a>
</g>
</g>
<!-- Node16 -->
<g id="Node000016" class="node">
<title>Node16</title>
<g id="a_Node000016"><a xlink:href="classUtility_1_1CoroutineRunner.html#a1c473dee723f16d86bab9d8475c8214a" target="_top" xlink:title="A helper method to start coroutines.">
<polygon fill="white" stroke="#666666" points="1154.5,-19 956.5,-19 956.5,0 1154.5,0 1154.5,-19"/>
<text text-anchor="middle" x="1055.5" y="-7" font-family="Helvetica,sans-Serif" font-size="10.00">Utility.CoroutineRunner.RunCoroutine</text>
</a>
</g>
</g>
<!-- Node10&#45;&gt;Node16 -->
<g id="edge16_Node000010_Node000016" class="edge">
<title>Node10&#45;&gt;Node16</title>
<g id="a_edge16_Node000010_Node000016"><a xlink:title=" ">
<path fill="none" stroke="#63b8ff" d="M810.89,-73.8C837.58,-61.19 886.76,-39.39 931,-27.5 940.49,-24.95 950.5,-22.73 960.55,-20.82"/>
<polygon fill="#63b8ff" stroke="#63b8ff" points="961.36,-24.23 970.58,-19.01 960.12,-17.34 961.36,-24.23"/>
</a>
</g>
</g>
<!-- Node12 -->
<g id="Node000012" class="node">
<title>Node12</title>
<g id="a_Node000012"><a xlink:href="classGame_1_1World_1_1Chunk.html#af37779d40ed9cd07b577d5bca61627b7" target="_top" xlink:title=" ">
<polygon fill="white" stroke="#666666" points="1709,-112 1497,-112 1497,-93 1709,-93 1709,-112"/>
<text text-anchor="middle" x="1603" y="-100" font-family="Helvetica,sans-Serif" font-size="10.00">Game.World.Chunk.GetAbsolutePosition</text>
</a>
</g>
</g>
<!-- Node11&#45;&gt;Node12 -->
<g id="edge11_Node000011_Node000012" class="edge">
<title>Node11&#45;&gt;Node12</title>
<g id="a_edge11_Node000011_Node000012"><a xlink:title=" ">
<path fill="none" stroke="#63b8ff" d="M1449.3,-113.55C1461.6,-112.66 1474.15,-111.75 1486.51,-110.86"/>
<polygon fill="#63b8ff" stroke="#63b8ff" points="1487.12,-114.32 1496.84,-110.11 1486.61,-107.34 1487.12,-114.32"/>
</a>
</g>
</g>
<!-- Node14 -->
<g id="Node000014" class="node">
<title>Node14</title>
<g id="a_Node000014"><a xlink:href="classGame_1_1World_1_1Chunk.html#af2946e1e1b9e325d6004d166b2b26193" target="_top" xlink:title="Lock the cell and try to place it.">
<polygon fill="white" stroke="#666666" points="1461,-94 1216,-94 1216,-75 1461,-75 1461,-94"/>
<text text-anchor="middle" x="1338.5" y="-82" font-family="Helvetica,sans-Serif" font-size="10.00">Game.World.Chunk.LockAndTryToPlaceBuilding</text>
</a>
</g>
</g>
<!-- Node13&#45;&gt;Node14 -->
<g id="edge13_Node000013_Node000014" class="edge">
<title>Node13&#45;&gt;Node14</title>
<g id="a_edge13_Node000013_Node000014"><a xlink:title=" ">
<path fill="none" stroke="#63b8ff" d="M1156.76,-83.86C1172.55,-83.91 1189.09,-83.97 1205.47,-84.03"/>
<polygon fill="#63b8ff" stroke="#63b8ff" points="1205.62,-87.53 1215.64,-84.07 1205.65,-80.53 1205.62,-87.53"/>
</a>
</g>
</g>
<!-- Node14&#45;&gt;Node12 -->
<g id="edge14_Node000014_Node000012" class="edge">
<title>Node14&#45;&gt;Node12</title>
<g id="a_edge14_Node000014_Node000012"><a xlink:title=" ">
<path fill="none" stroke="#63b8ff" d="M1461.14,-92.84C1469.63,-93.42 1478.17,-94.01 1486.62,-94.59"/>
<polygon fill="#63b8ff" stroke="#63b8ff" points="1486.66,-98.1 1496.87,-95.29 1487.14,-91.12 1486.66,-98.1"/>
</a>
</g>
</g>
</g>
</svg>
