<?xml version="1.0" encoding="UTF-8" standalone="no"?>
<!DOCTYPE svg PUBLIC "-//W3C//DTD SVG 1.1//EN"
 "http://www.w3.org/Graphics/SVG/1.1/DTD/svg11.dtd">
<!-- Generated by graphviz version 2.43.0 (0)
 -->
<!-- Title: MainPage.TaskDisplayHandler.UpdateTimeRemaining Pages: 1 -->
<!--zoomable 101 -->

<svg id="main" version="1.1" xmlns="http://www.w3.org/2000/svg" xmlns:xlink="http://www.w3.org/1999/xlink" xml:space="preserve" onload="init(evt)">
<style type="text/css"><![CDATA[
.node, .edge {opacity: 0.7;}
.node.selected, .edge.selected {opacity: 1;}
.edge:hover path { stroke: red; }
.edge:hover polygon { stroke: red; fill: red; }
]]></style>

<defs>
  <circle id="rim" cx="0" cy="0" r="7"/>
  <circle id="rim2" cx="0" cy="0" r="3.5"/>
  <g id="zoomPlus">
    <use xlink:href="#rim" fill="#404040"><set attributeName="fill" to="#808080" begin="zoomplus.mouseover" end="zoomplus.mouseout"/></use>
    <path d="M-4,0h8M0,-4v8" fill="none" stroke="white" stroke-width="1.5" pointer-events="none"/>
  </g>
  <g id="zoomMin">
    <use xlink:href="#rim" fill="#404040"><set attributeName="fill" to="#808080" begin="zoomminus.mouseover" end="zoomminus.mouseout"/></use>
    <path d="M-4,0h8" fill="none" stroke="white" stroke-width="1.5" pointer-events="none"/>
  </g>
  <g id="arrowUp" transform="translate(30 24)">
    <use xlink:href="#rim"/>
    <path pointer-events="none" fill="none" stroke="white" stroke-width="1.5" d="M0,-3.0v7 M-2.5,-0.5L0,-3.0L2.5,-0.5"/>
  </g>
  <g id="arrowRight" transform="rotate(90) translate(36 -43)">
    <use xlink:href="#rim"/>
    <path pointer-events="none" fill="none" stroke="white" stroke-width="1.5" d="M0,-3.0v7 M-2.5,-0.5L0,-3.0L2.5,-0.5"/>
  </g>
  <g id="arrowDown" transform="rotate(180) translate(-30 -48)">
    <use xlink:href="#rim"/>
    <path pointer-events="none" fill="none" stroke="white" stroke-width="1.5" d="M0,-3.0v7 M-2.5,-0.5L0,-3.0L2.5,-0.5"/>
  </g>
  <g id="arrowLeft" transform="rotate(270) translate(-36 17)">
    <use xlink:href="#rim"/>
    <path pointer-events="none" fill="none" stroke="white" stroke-width="1.5" d="M0,-3.0v7 M-2.5,-0.5L0,-3.0L2.5,-0.5"/>
  </g>
  <g id="resetDef">
    <use xlink:href="#rim2" fill="#404040"><set attributeName="fill" to="#808080" begin="reset.mouseover" end="reset.mouseout"/></use>
  </g>
</defs>
<script type="application/ecmascript">
var viewWidth = 1957;
var viewHeight = 101;
var sectionId = 'dynsection-14';
</script>
<script type="application/ecmascript" xlink:href="svg.min.js"/>
<svg id="graph" class="graph">
<g id="viewport">
<title>MainPage.TaskDisplayHandler.UpdateTimeRemaining</title>
<!-- Node1 -->
<g id="Node000001" class="node">
<title>Node1</title>
<g id="a_Node000001"><a xlink:title="Update the time remaining until the task can be completed again.">
<polygon fill="#999999" stroke="#666666" points="1949,-74 1671,-74 1671,-55 1949,-55 1949,-74"/>
<text text-anchor="middle" x="1810" y="-62" font-family="Helvetica,sans-Serif" font-size="10.00">MainPage.TaskDisplayHandler.UpdateTimeRemaining</text>
</a>
</g>
</g>
<!-- Node2 -->
<g id="Node000002" class="node">
<title>Node2</title>
<g id="a_Node000002"><a xlink:href="classMainPage_1_1TaskDisplayHandler.html#a754a230e53cedd3209a29d4d6a743719" target="_top" xlink:title="When the complete state is changed update the display to match it.">
<polygon fill="white" stroke="#666666" points="1635,-93 1360,-93 1360,-74 1635,-74 1635,-93"/>
<text text-anchor="middle" x="1497.5" y="-81" font-family="Helvetica,sans-Serif" font-size="10.00">MainPage.TaskDisplayHandler.CompleteStateChange</text>
</a>
</g>
</g>
<!-- Node1&#45;&gt;Node2 -->
<g id="edge1_Node000001_Node000002" class="edge">
<title>Node1&#45;&gt;Node2</title>
<g id="a_edge1_Node000001_Node000002"><a xlink:title=" ">
<path fill="none" stroke="#63b8ff" d="M1660.37,-66.85C1625.92,-68.9 1591.04,-71.42 1562.52,-74"/>
<polygon fill="#63b8ff" stroke="#63b8ff" points="1660.77,-70.33 1670.55,-66.26 1660.36,-63.34 1660.77,-70.33"/>
</a>
</g>
</g>
<!-- Node12 -->
<g id="Node000012" class="node">
<title>Node12</title>
<g id="a_Node000012"><a xlink:href="classMainPage_1_1TaskDisplayHandler.html#a19067f6c6b504e4947d9473721e6877f" target="_top" xlink:title="Called every frame if it has been completed update the remaining time.">
<polygon fill="white" stroke="#666666" points="1598,-56 1397,-56 1397,-37 1598,-37 1598,-56"/>
<text text-anchor="middle" x="1497.5" y="-44" font-family="Helvetica,sans-Serif" font-size="10.00">MainPage.TaskDisplayHandler.Update</text>
</a>
</g>
</g>
<!-- Node1&#45;&gt;Node12 -->
<g id="edge12_Node000001_Node000012" class="edge">
<title>Node1&#45;&gt;Node12</title>
<g id="a_edge12_Node000001_Node000012"><a xlink:title=" ">
<path fill="none" stroke="#63b8ff" d="M1660.51,-55.89C1639.33,-54.66 1617.99,-53.43 1598.06,-52.27"/>
<polygon fill="#63b8ff" stroke="#63b8ff" points="1660.36,-59.39 1670.55,-56.47 1660.77,-52.4 1660.36,-59.39"/>
</a>
</g>
</g>
<!-- Node13 -->
<g id="Node000013" class="node">
<title>Node13</title>
<g id="a_Node000013"><a xlink:href="classMainPage_1_1TaskDisplayHandler.html#ac3773b76adb09298978a65c89136c20f" target="_top" xlink:title="Update the task&#39;s labels.">
<polygon fill="white" stroke="#666666" points="1614,-19 1381,-19 1381,0 1614,0 1614,-19"/>
<text text-anchor="middle" x="1497.5" y="-7" font-family="Helvetica,sans-Serif" font-size="10.00">MainPage.TaskDisplayHandler.UpdateLabels</text>
</a>
</g>
</g>
<!-- Node1&#45;&gt;Node13 -->
<g id="edge13_Node000001_Node000013" class="edge">
<title>Node1&#45;&gt;Node13</title>
<g id="a_edge13_Node000001_Node000013"><a xlink:title=" ">
<path fill="none" stroke="#63b8ff" d="M1758.52,-52.67C1723.9,-44.83 1676.83,-34.69 1635,-27.5 1616.86,-24.38 1597.28,-21.51 1578.78,-19.02"/>
<polygon fill="#63b8ff" stroke="#63b8ff" points="1757.86,-56.11 1768.39,-54.92 1759.42,-49.29 1757.86,-56.11"/>
</a>
</g>
</g>
<!-- Node2&#45;&gt;Node1 -->
<g id="edge11_Node000002_Node000001" class="edge">
<title>Node2&#45;&gt;Node1</title>
<g id="a_edge11_Node000002_Node000001"><a xlink:title=" ">
<path fill="none" stroke="#63b8ff" d="M1645.4,-81.25C1680.28,-79.19 1715.72,-76.64 1744.66,-74.03"/>
<polygon fill="#63b8ff" stroke="#63b8ff" points="1644.87,-77.78 1635.09,-81.85 1645.27,-84.77 1644.87,-77.78"/>
</a>
</g>
</g>
<!-- Node3 -->
<g id="Node000003" class="node">
<title>Node3</title>
<g id="a_Node000003"><a xlink:href="classMainPage_1_1TaskDisplayHandler.html#a8aedc4afb32d220352cf04cc77fdedf6" target="_top" xlink:title="Init it with the task to display and references to the controls.">
<polygon fill="white" stroke="#666666" points="1310.5,-37 1096.5,-37 1096.5,-18 1310.5,-18 1310.5,-37"/>
<text text-anchor="middle" x="1203.5" y="-25" font-family="Helvetica,sans-Serif" font-size="10.00">MainPage.TaskDisplayHandler.InitValues</text>
</a>
</g>
</g>
<!-- Node2&#45;&gt;Node3 -->
<g id="edge2_Node000002_Node000003" class="edge">
<title>Node2&#45;&gt;Node3</title>
<g id="a_edge2_Node000002_Node000003"><a xlink:title=" ">
<path fill="none" stroke="#63b8ff" d="M1408.67,-72.53C1392.44,-70.15 1375.68,-67.45 1360,-64.5 1318.68,-56.73 1271.81,-45.2 1240.43,-37.08"/>
<polygon fill="#63b8ff" stroke="#63b8ff" points="1408.29,-76.02 1418.69,-73.98 1409.29,-69.09 1408.29,-76.02"/>
</a>
</g>
</g>
<!-- Node10 -->
<g id="Node000010" class="node">
<title>Node10</title>
<g id="a_Node000010"><a xlink:href="classMainPage_1_1TaskDisplayHandler.html#a98b63052d0efc73233a32b69a06bf68e" target="_top" xlink:title="When the complete acknowledge were recieved from the server update the display.">
<polygon fill="white" stroke="#666666" points="1324,-93 1083,-93 1083,-74 1324,-74 1324,-93"/>
<text text-anchor="middle" x="1203.5" y="-81" font-family="Helvetica,sans-Serif" font-size="10.00">MainPage.TaskDisplayHandler.TaskCompleted</text>
</a>
</g>
</g>
<!-- Node2&#45;&gt;Node10 -->
<g id="edge9_Node000002_Node000010" class="edge">
<title>Node2&#45;&gt;Node10</title>
<g id="a_edge9_Node000002_Node000010"><a xlink:title=" ">
<path fill="none" stroke="#63b8ff" d="M1349.87,-83.5C1341.32,-83.5 1332.77,-83.5 1324.35,-83.5"/>
<polygon fill="#63b8ff" stroke="#63b8ff" points="1349.9,-87 1359.9,-83.5 1349.9,-80 1349.9,-87"/>
</a>
</g>
</g>
<!-- Node4 -->
<g id="Node000004" class="node">
<title>Node4</title>
<g id="a_Node000004"><a xlink:href="classMainPage_1_1MainWindowController.html#a827f62c47eb691eadd994bd51bf7cb74" target="_top" xlink:title="Creates a new task prefab to display.">
<polygon fill="white" stroke="#666666" points="1046.5,-37 812.5,-37 812.5,-18 1046.5,-18 1046.5,-37"/>
<text text-anchor="middle" x="929.5" y="-25" font-family="Helvetica,sans-Serif" font-size="10.00">MainPage.MainWindowController.CreateTask</text>
</a>
</g>
</g>
<!-- Node3&#45;&gt;Node4 -->
<g id="edge3_Node000003_Node000004" class="edge">
<title>Node3&#45;&gt;Node4</title>
<g id="a_edge3_Node000003_Node000004"><a xlink:title=" ">
<path fill="none" stroke="#63b8ff" d="M1085.82,-27.5C1072.84,-27.5 1059.63,-27.5 1046.65,-27.5"/>
<polygon fill="#63b8ff" stroke="#63b8ff" points="1086.17,-31 1096.17,-27.5 1086.17,-24 1086.17,-31"/>
</a>
</g>
</g>
<!-- Node5 -->
<g id="Node000005" class="node">
<title>Node5</title>
<g id="a_Node000005"><a xlink:href="classMainPage_1_1MainWindowController.html#ab40b51689d2d8ca0497b0e53128f4992" target="_top" xlink:title="Create the task prefabs.">
<polygon fill="white" stroke="#666666" points="776,-56 505,-56 505,-37 776,-37 776,-56"/>
<text text-anchor="middle" x="640.5" y="-44" font-family="Helvetica,sans-Serif" font-size="10.00">MainPage.MainWindowController.CreateTaskPrefabs</text>
</a>
</g>
</g>
<!-- Node4&#45;&gt;Node5 -->
<g id="edge4_Node000004_Node000005" class="edge">
<title>Node4&#45;&gt;Node5</title>
<g id="a_edge4_Node000004_Node000005"><a xlink:title=" ">
<path fill="none" stroke="#63b8ff" d="M802.16,-35.86C793.59,-36.43 784.94,-37 776.32,-37.57"/>
<polygon fill="#63b8ff" stroke="#63b8ff" points="802.43,-39.35 812.18,-35.2 801.97,-32.37 802.43,-39.35"/>
</a>
</g>
</g>
<!-- Node8 -->
<g id="Node000008" class="node">
<title>Node8</title>
<g id="a_Node000008"><a xlink:href="classMainPage_1_1TaskOpenPanelController.html#a750d1acc6fd173296467fb9aca366a3d" target="_top" xlink:title="When the task was stored on the server show it also visually and close the panel.">
<polygon fill="white" stroke="#666666" points="761.5,-19 519.5,-19 519.5,0 761.5,0 761.5,-19"/>
<text text-anchor="middle" x="640.5" y="-7" font-family="Helvetica,sans-Serif" font-size="10.00">MainPage.TaskOpenPanelController.SavedTask</text>
</a>
</g>
</g>
<!-- Node4&#45;&gt;Node8 -->
<g id="edge7_Node000004_Node000008" class="edge">
<title>Node4&#45;&gt;Node8</title>
<g id="a_edge7_Node000004_Node000008"><a xlink:title=" ">
<path fill="none" stroke="#63b8ff" d="M801.99,-19.57C788.61,-18.73 775.03,-17.87 761.72,-17.04"/>
<polygon fill="#63b8ff" stroke="#63b8ff" points="801.98,-23.07 812.18,-20.2 802.42,-16.09 801.98,-23.07"/>
</a>
</g>
</g>
<!-- Node6 -->
<g id="Node000006" class="node">
<title>Node6</title>
<g id="a_Node000006"><a xlink:href="classMainPage_1_1MainWindowController.html#a47c21c97b7ba52af405119044e1434d0" target="_top" xlink:title="Load the tasks from the server.">
<polygon fill="white" stroke="#666666" points="469,-56 239,-56 239,-37 469,-37 469,-56"/>
<text text-anchor="middle" x="354" y="-44" font-family="Helvetica,sans-Serif" font-size="10.00">MainPage.MainWindowController.LoadTasks</text>
</a>
</g>
</g>
<!-- Node5&#45;&gt;Node6 -->
<g id="edge5_Node000005_Node000006" class="edge">
<title>Node5&#45;&gt;Node6</title>
<g id="a_edge5_Node000005_Node000006"><a xlink:title=" ">
<path fill="none" stroke="#63b8ff" d="M494.68,-46.5C486.1,-46.5 477.54,-46.5 469.11,-46.5"/>
<polygon fill="#63b8ff" stroke="#63b8ff" points="494.75,-50 504.75,-46.5 494.75,-43 494.75,-50"/>
</a>
</g>
</g>
<!-- Node7 -->
<g id="Node000007" class="node">
<title>Node7</title>
<g id="a_Node000007"><a xlink:href="classMainPage_1_1MainWindowController.html#acea2170099ea435298139c6c7fdce719" target="_top" xlink:title="Start is called before the first frame update.">
<polygon fill="white" stroke="#666666" points="203,-56 0,-56 0,-37 203,-37 203,-56"/>
<text text-anchor="middle" x="101.5" y="-44" font-family="Helvetica,sans-Serif" font-size="10.00">MainPage.MainWindowController.Start</text>
</a>
</g>
</g>
<!-- Node6&#45;&gt;Node7 -->
<g id="edge6_Node000006_Node000007" class="edge">
<title>Node6&#45;&gt;Node7</title>
<g id="a_edge6_Node000006_Node000007"><a xlink:title=" ">
<path fill="none" stroke="#63b8ff" d="M228.71,-46.5C220.15,-46.5 211.58,-46.5 203.16,-46.5"/>
<polygon fill="#63b8ff" stroke="#63b8ff" points="228.75,-50 238.75,-46.5 228.75,-43 228.75,-50"/>
</a>
</g>
</g>
<!-- Node9 -->
<g id="Node000009" class="node">
<title>Node9</title>
<g id="a_Node000009"><a xlink:href="classMainPage_1_1TaskOpenPanelController.html#ab8def75cd4cdbdaf3033022ea114a8a6" target="_top" xlink:title="Save the task to the server.">
<polygon fill="white" stroke="#666666" points="461.5,-19 246.5,-19 246.5,0 461.5,0 461.5,-19"/>
<text text-anchor="middle" x="354" y="-7" font-family="Helvetica,sans-Serif" font-size="10.00">MainPage.TaskOpenPanelController.Save</text>
</a>
</g>
</g>
<!-- Node8&#45;&gt;Node9 -->
<g id="edge8_Node000008_Node000009" class="edge">
<title>Node8&#45;&gt;Node9</title>
<g id="a_edge8_Node000008_Node000009"><a xlink:title=" ">
<path fill="none" stroke="#63b8ff" d="M508.91,-9.5C493.12,-9.5 477.13,-9.5 461.73,-9.5"/>
<polygon fill="#63b8ff" stroke="#63b8ff" points="509.26,-13 519.26,-9.5 509.26,-6 509.26,-13"/>
</a>
</g>
</g>
<!-- Node11 -->
<g id="Node000011" class="node">
<title>Node11</title>
<g id="a_Node000011"><a xlink:href="classMainPage_1_1TaskDisplayHandler.html#ab553f8eb77d9d038521af3813275a43d" target="_top" xlink:title="Complete the task and send this to the server.">
<polygon fill="white" stroke="#666666" points="1047,-93 812,-93 812,-74 1047,-74 1047,-93"/>
<text text-anchor="middle" x="929.5" y="-81" font-family="Helvetica,sans-Serif" font-size="10.00">MainPage.TaskDisplayHandler.CompleteTask</text>
</a>
</g>
</g>
<!-- Node10&#45;&gt;Node11 -->
<g id="edge10_Node000010_Node000011" class="edge">
<title>Node10&#45;&gt;Node11</title>
<g id="a_edge10_Node000010_Node000011"><a xlink:title=" ">
<path fill="none" stroke="#63b8ff" d="M1072.79,-83.5C1064.24,-83.5 1055.66,-83.5 1047.18,-83.5"/>
<polygon fill="#63b8ff" stroke="#63b8ff" points="1072.8,-87 1082.8,-83.5 1072.8,-80 1072.8,-87"/>
</a>
</g>
</g>
<!-- Node13&#45;&gt;Node3 -->
<g id="edge14_Node000013_Node000003" class="edge">
<title>Node13&#45;&gt;Node3</title>
<g id="a_edge14_Node000013_Node000003"><a xlink:title=" ">
<path fill="none" stroke="#63b8ff" d="M1370.61,-17.26C1350.64,-18.49 1330.16,-19.75 1310.7,-20.95"/>
<polygon fill="#63b8ff" stroke="#63b8ff" points="1370.91,-20.75 1380.67,-16.64 1370.48,-13.76 1370.91,-20.75"/>
</a>
</g>
</g>
</g>
</svg>

<g id="navigator" transform="translate(0 0)" fill="#404254">
  <rect fill="#f2f5e9" fill-opacity="0.5" stroke="#606060" stroke-width=".5" x="0" y="0" width="60" height="60"/>
  <use id="zoomplus" xlink:href="#zoomPlus" x="17" y="9" onmousedown="handleZoom(evt,'in')"/>
  <use id="zoomminus" xlink:href="#zoomMin" x="42" y="9" onmousedown="handleZoom(evt,'out')"/>
  <use id="reset" xlink:href="#resetDef" x="30" y="36" onmousedown="handleReset()"/>
   <use id="arrowup" xlink:href="#arrowUp" x="0" y="0" onmousedown="handlePan(0,-1)"/>
  <use id="arrowright" xlink:href="#arrowRight" x="0" y="0" onmousedown="handlePan(1,0)"/>
  <use id="arrowdown" xlink:href="#arrowDown" x="0" y="0" onmousedown="handlePan(0,1)"/>
  <use id="arrowleft" xlink:href="#arrowLeft" x="0" y="0" onmousedown="handlePan(-1,0)"/>
</g>
<svg viewBox="0 0 15 15" width="100%" height="30px" preserveAspectRatio="xMaxYMin meet">
 <g id="arrow_out" transform="scale(0.3 0.3)">
  <a xlink:href="classMainPage_1_1TaskDisplayHandler_aa63f1bc894519b9d5872c2bb50b84415_icgraph_org.svg" target="_base">
   <rect id="button" ry="5" rx="5" y="6" x="6" height="38" width="38"
        fill="#f2f5e9" fill-opacity="0.5" stroke="#606060" stroke-width="1.0"/>
   <path id="arrow"
     d="M 11.500037,31.436501 C 11.940474,20.09759 22.043105,11.32322 32.158766,21.979434 L 37.068811,17.246167 C 37.068811,17.246167 37.088388,32 37.088388,32 L 22.160133,31.978069 C 22.160133,31.978069 26.997745,27.140456 26.997745,27.140456 C 18.528582,18.264221 13.291696,25.230495 11.500037,31.436501 z"
     style="fill:#404040;"/>
  </a>
 </g>
</svg>

<style type='text/css'>
<![CDATA[
[data-mouse-over-selected='false'] { opacity: 0.7; }
[data-mouse-over-selected='true']  { opacity: 1.0; }
]]>
</style>
<script type="application/ecmascript"><![CDATA[
document.addEventListener('DOMContentLoaded', (event) => {
  highlightEdges();
  highlightAdjacentNodes();
});
]]></script>
</svg>
