<?xml version="1.0" encoding="UTF-8" standalone="no"?>
<!DOCTYPE svg PUBLIC "-//W3C//DTD SVG 1.1//EN"
 "http://www.w3.org/Graphics/SVG/1.1/DTD/svg11.dtd">
<!-- Generated by graphviz version 2.43.0 (0)
 -->
<!-- Title: Game.World.RoadGenerator Pages: 1 -->
<!--zoomable 1075 -->
<svg id="main" version="1.1" xmlns="http://www.w3.org/2000/svg" xmlns:xlink="http://www.w3.org/1999/xlink" xml:space="preserve" onload="init(evt)">
<style type="text/css"><![CDATA[
.edge:hover path { stroke: red; }
.edge:hover polygon { stroke: red; fill: red; }
]]></style>
<script type="text/javascript"><![CDATA[
var edges = document.getElementsByTagName('g');
if (edges && edges.length) {
  for (var i=0;i<edges.length;i++) {
    if (edges[i].id.substr(0,4)=='edge') {
      edges[i].setAttribute('class','edge');
    }
  }
}
]]></script>
        <defs>
                <circle id="rim" cx="0" cy="0" r="7"/>
                <circle id="rim2" cx="0" cy="0" r="3.5"/>
                <g id="zoomPlus">
                        <use xlink:href="#rim" fill="#404040">
                                <set attributeName="fill" to="#808080" begin="zoomplus.mouseover" end="zoomplus.mouseout"/>
                        </use>
                        <path d="M-4,0h8M0,-4v8" fill="none" stroke="white" stroke-width="1.5" pointer-events="none"/>
                </g>
                <g id="zoomMin">
                        <use xlink:href="#rim" fill="#404040">
                                <set attributeName="fill" to="#808080" begin="zoomminus.mouseover" end="zoomminus.mouseout"/>
                        </use>
                        <path d="M-4,0h8" fill="none" stroke="white" stroke-width="1.5" pointer-events="none"/>
                </g>
                <g id="dirArrow">
                        <path fill="none" stroke="white" stroke-width="1.5" d="M0,-3.0v7 M-2.5,-0.5L0,-3.0L2.5,-0.5"/>
                </g>
               <g id="resetDef">
                       <use xlink:href="#rim2" fill="#404040">
                               <set attributeName="fill" to="#808080" begin="reset.mouseover" end="reset.mouseout"/>
                       </use>
               </g>
        </defs>

<script type="text/javascript">
var viewWidth = 649;
var viewHeight = 1075;
var sectionId = 'dynsection-0';
</script>
<script xlink:href="svgpan.js"/>
<svg id="graph" class="graph">
<g id="viewport">
<title>Game.World.RoadGenerator</title>
<polygon fill="white" stroke="transparent" points="-4,4 -4,-1071 645,-1071 645,4 -4,4"/>
<!-- Node1 -->
<g id="node1" class="node">
<title>Node1</title>
<g id="a_node1"><a xlink:title="Generates a new road structure">
<polygon fill="#bfbfbf" stroke="black" points="0,-782.5 0,-971.5 271,-971.5 271,-782.5 0,-782.5"/>
<text text-anchor="middle" x="135.5" y="-959.5" font-family="Helvetica,sans-Serif" font-size="10.00">Game.World.RoadGenerator</text>
<polyline fill="none" stroke="black" points="0,-952.5 271,-952.5 "/>
<text text-anchor="start" x="8" y="-940.5" font-family="Helvetica,sans-Serif" font-size="10.00">+ int NumberOfEdgeRoads</text>
<text text-anchor="start" x="8" y="-929.5" font-family="Helvetica,sans-Serif" font-size="10.00">+ bool[,] RoadMatrix</text>
<text text-anchor="start" x="8" y="-918.5" font-family="Helvetica,sans-Serif" font-size="10.00">+ List&lt; EdgeRoadContainer &gt; EdgeRoads</text>
<text text-anchor="start" x="8" y="-907.5" font-family="Helvetica,sans-Serif" font-size="10.00">&#45; int size</text>
<text text-anchor="start" x="8" y="-896.5" font-family="Helvetica,sans-Serif" font-size="10.00">&#45; int numberOfPlacedRoads</text>
<text text-anchor="start" x="8" y="-885.5" font-family="Helvetica,sans-Serif" font-size="10.00">&#45; bool[,] lockRoad</text>
<polyline fill="none" stroke="black" points="0,-878.5 271,-878.5 "/>
<text text-anchor="start" x="8" y="-866.5" font-family="Helvetica,sans-Serif" font-size="10.00">+ RoadGenerator(int size, List&lt; EdgeRoadContainer</text>
<text text-anchor="start" x="8" y="-855.5" font-family="Helvetica,sans-Serif" font-size="10.00"> &gt; startPositions, Chunk[,] nearbyChunks)</text>
<text text-anchor="start" x="8" y="-844.5" font-family="Helvetica,sans-Serif" font-size="10.00">&#45; void CreateRoad(Vector2Int roadPos,</text>
<text text-anchor="start" x="8" y="-833.5" font-family="Helvetica,sans-Serif" font-size="10.00"> Vector2Int roadDir, int forwardCounter=0)</text>
<text text-anchor="start" x="8" y="-822.5" font-family="Helvetica,sans-Serif" font-size="10.00">&#45; bool GoinTowardsEdge(Vector2Int</text>
<text text-anchor="start" x="8" y="-811.5" font-family="Helvetica,sans-Serif" font-size="10.00"> position, Vector2Int dir)</text>
<text text-anchor="start" x="8" y="-800.5" font-family="Helvetica,sans-Serif" font-size="10.00">&#45; bool CheckForward(Vector2Int position,</text>
<text text-anchor="start" x="8" y="-789.5" font-family="Helvetica,sans-Serif" font-size="10.00"> Vector2Int dir, int counter)</text>
</a>
</g>
</g>
<!-- Node2 -->
<g id="node2" class="node">
<title>Node2</title>
<g id="a_node2"><a xlink:href="classGame_1_1World_1_1Chunk.html" target="_top" xlink:title="Stores a single chunk of the world">
<polygon fill="white" stroke="black" points="262,-171.5 262,-734.5 501,-734.5 501,-171.5 262,-171.5"/>
<text text-anchor="middle" x="381.5" y="-722.5" font-family="Helvetica,sans-Serif" font-size="10.00">Game.World.Chunk</text>
<polyline fill="none" stroke="black" points="262,-715.5 501,-715.5 "/>
<text text-anchor="start" x="270" y="-703.5" font-family="Helvetica,sans-Serif" font-size="10.00">+ float XOffset</text>
<text text-anchor="start" x="270" y="-692.5" font-family="Helvetica,sans-Serif" font-size="10.00">+ float ZOffset</text>
<text text-anchor="start" x="270" y="-681.5" font-family="Helvetica,sans-Serif" font-size="10.00">+ bool RandomizeOffset</text>
<text text-anchor="start" x="270" y="-670.5" font-family="Helvetica,sans-Serif" font-size="10.00">+ GameObject straightRoadPrefab</text>
<text text-anchor="start" x="270" y="-659.5" font-family="Helvetica,sans-Serif" font-size="10.00">+ GameObject grassPrefab</text>
<text text-anchor="start" x="270" y="-648.5" font-family="Helvetica,sans-Serif" font-size="10.00">+ GameObject coinPrefab</text>
<text text-anchor="start" x="270" y="-637.5" font-family="Helvetica,sans-Serif" font-size="10.00">+ int? zSize</text>
<text text-anchor="start" x="270" y="-626.5" font-family="Helvetica,sans-Serif" font-size="10.00">+ int? xSize</text>
<text text-anchor="start" x="270" y="-615.5" font-family="Helvetica,sans-Serif" font-size="10.00">+ int Row</text>
<text text-anchor="start" x="270" y="-604.5" font-family="Helvetica,sans-Serif" font-size="10.00">+ int Col</text>
<text text-anchor="start" x="270" y="-593.5" font-family="Helvetica,sans-Serif" font-size="10.00">+ bool[,] Roads</text>
<text text-anchor="start" x="270" y="-582.5" font-family="Helvetica,sans-Serif" font-size="10.00">+ List&lt; EdgeRoadContainer &gt;? EdgeRoads</text>
<text text-anchor="start" x="270" y="-571.5" font-family="Helvetica,sans-Serif" font-size="10.00">&#45; GameObject curvedRoadPrefab</text>
<text text-anchor="start" x="270" y="-560.5" font-family="Helvetica,sans-Serif" font-size="10.00">&#45; GameObject threeWayRoadPrefab</text>
<text text-anchor="start" x="270" y="-549.5" font-family="Helvetica,sans-Serif" font-size="10.00">&#45; GameObject crossRoadsPrefab</text>
<text text-anchor="start" x="270" y="-538.5" font-family="Helvetica,sans-Serif" font-size="10.00">&#45; List&lt; Building &gt; buildings</text>
<text text-anchor="start" x="270" y="-527.5" font-family="Helvetica,sans-Serif" font-size="10.00">&#45; List&lt; Prop &gt; props</text>
<text text-anchor="start" x="270" y="-516.5" font-family="Helvetica,sans-Serif" font-size="10.00">&#45; Dictionary&lt; ChunkCellType, List</text>
<text text-anchor="start" x="270" y="-505.5" font-family="Helvetica,sans-Serif" font-size="10.00">&lt; Vector3 &gt; &gt; chunkCells</text>
<text text-anchor="start" x="270" y="-494.5" font-family="Helvetica,sans-Serif" font-size="10.00">&#45; List&lt; Vector3Int &gt; roads</text>
<text text-anchor="start" x="270" y="-483.5" font-family="Helvetica,sans-Serif" font-size="10.00">&#45; Dictionary&lt; ChunkCellType, List</text>
<text text-anchor="start" x="270" y="-472.5" font-family="Helvetica,sans-Serif" font-size="10.00">&lt; GameObject &gt; &gt; objectsToCombine</text>
<text text-anchor="start" x="270" y="-461.5" font-family="Helvetica,sans-Serif" font-size="10.00">&#45; float</text>
<polyline fill="none" stroke="black" points="262,-454.5 501,-454.5 "/>
<text text-anchor="start" x="270" y="-442.5" font-family="Helvetica,sans-Serif" font-size="10.00">+ void Display()</text>
<text text-anchor="start" x="270" y="-431.5" font-family="Helvetica,sans-Serif" font-size="10.00">+ async Task InitChunk(int col, int</text>
<text text-anchor="start" x="270" y="-420.5" font-family="Helvetica,sans-Serif" font-size="10.00"> row, List&lt; EdgeRoadContainer &gt; edgeRoads,</text>
<text text-anchor="start" x="270" y="-409.5" font-family="Helvetica,sans-Serif" font-size="10.00"> GameWorld world)</text>
<text text-anchor="start" x="270" y="-398.5" font-family="Helvetica,sans-Serif" font-size="10.00">+ void HideChunk()</text>
<text text-anchor="start" x="270" y="-387.5" font-family="Helvetica,sans-Serif" font-size="10.00">+ Vector3 GetARandomRoad()</text>
<text text-anchor="start" x="270" y="-376.5" font-family="Helvetica,sans-Serif" font-size="10.00">+ async Task SpawnWorldObjects()</text>
<text text-anchor="start" x="270" y="-365.5" font-family="Helvetica,sans-Serif" font-size="10.00">+ static void InitUniTaskLoop()</text>
<text text-anchor="start" x="270" y="-354.5" font-family="Helvetica,sans-Serif" font-size="10.00">&#45; async void Awake()</text>
<text text-anchor="start" x="270" y="-343.5" font-family="Helvetica,sans-Serif" font-size="10.00">&#45; void BuildingLoaded(GameObject building)</text>
<text text-anchor="start" x="270" y="-332.5" font-family="Helvetica,sans-Serif" font-size="10.00">&#45; void PropLoaded(GameObject prop)</text>
<text text-anchor="start" x="270" y="-321.5" font-family="Helvetica,sans-Serif" font-size="10.00">&#45; float GetAbsolutePosition()</text>
<text text-anchor="start" x="270" y="-310.5" font-family="Helvetica,sans-Serif" font-size="10.00">&#45; void LoadFromSettings()</text>
<text text-anchor="start" x="270" y="-299.5" font-family="Helvetica,sans-Serif" font-size="10.00">&#45; void CreateTiles()</text>
<text text-anchor="start" x="270" y="-288.5" font-family="Helvetica,sans-Serif" font-size="10.00">&#45; ChunkCellContainer DetermineRoadType</text>
<text text-anchor="start" x="270" y="-277.5" font-family="Helvetica,sans-Serif" font-size="10.00">(int col, int row)</text>
<text text-anchor="start" x="270" y="-266.5" font-family="Helvetica,sans-Serif" font-size="10.00">&#45; ChunkCellContainer DetermineTileType</text>
<text text-anchor="start" x="270" y="-255.5" font-family="Helvetica,sans-Serif" font-size="10.00">(int x, int z)</text>
<text text-anchor="start" x="270" y="-244.5" font-family="Helvetica,sans-Serif" font-size="10.00">&#45; void GenerateCellMatrix()</text>
<text text-anchor="start" x="270" y="-233.5" font-family="Helvetica,sans-Serif" font-size="10.00">&#45; IEnumerator AddRoadBuildings()</text>
<text text-anchor="start" x="270" y="-222.5" font-family="Helvetica,sans-Serif" font-size="10.00">&#45; IEnumerator AddEnvironmentProps()</text>
<text text-anchor="start" x="270" y="-211.5" font-family="Helvetica,sans-Serif" font-size="10.00">&#45; void LockAndTryToPlaceBuilding(int</text>
<text text-anchor="start" x="270" y="-200.5" font-family="Helvetica,sans-Serif" font-size="10.00"> index, int row, int col)</text>
<text text-anchor="start" x="270" y="-189.5" font-family="Helvetica,sans-Serif" font-size="10.00">&#45; async Task&lt; Chunk[,]&gt; GetNearbyChunks</text>
<text text-anchor="start" x="270" y="-178.5" font-family="Helvetica,sans-Serif" font-size="10.00">(int row, int col)</text>
</a>
</g>
</g>
<!-- Node1&#45;&gt;Node2 -->
<g id="edge8" class="edge">
<title>Node1&#45;&gt;Node2</title>
<path fill="none" stroke="#404040" d="M139.01,-782.31C141.04,-772.22 143.79,-762.26 147.5,-753 172,-691.77 213.09,-632.73 254.07,-583.52"/>
<polygon fill="none" stroke="#404040" points="254.25,-583.3 255.06,-576.14 261.98,-574.13 261.17,-581.3 254.25,-583.3"/>
<text text-anchor="middle" x="186.5" y="-756" font-family="Helvetica,sans-Serif" font-size="10.00"> &#45;roadGenerator</text>
</g>
<!-- Node2&#45;&gt;Node1 -->
<g id="edge1" class="edge">
<title>Node2&#45;&gt;Node1</title>
<path fill="none" stroke="#404040" d="M261.92,-710.52C251.46,-728.91 240.62,-746.92 229.5,-764 227.71,-766.75 225.86,-769.5 223.97,-772.26"/>
<polygon fill="none" stroke="#404040" points="223.85,-772.43 223.65,-779.64 216.91,-782.22 217.12,-775.01 223.85,-772.43"/>
<text text-anchor="middle" x="273" y="-756" font-family="Helvetica,sans-Serif" font-size="10.00"> &#45;nearbyChunks</text>
</g>
<!-- Node6 -->
<g id="node6" class="node">
<title>Node6</title>
<g id="a_node6"><a xlink:href="classGame_1_1World_1_1GameWorld.html" target="_top" xlink:title="A class for handling chunk loading and unloading">
<polygon fill="white" stroke="black" points="314.5,-0.5 314.5,-123.5 562.5,-123.5 562.5,-0.5 314.5,-0.5"/>
<text text-anchor="middle" x="438.5" y="-111.5" font-family="Helvetica,sans-Serif" font-size="10.00">Game.World.GameWorld</text>
<polyline fill="none" stroke="black" points="314.5,-104.5 562.5,-104.5 "/>
<text text-anchor="start" x="322.5" y="-92.5" font-family="Helvetica,sans-Serif" font-size="10.00">&#45; GameObject ChunkPrefab</text>
<polyline fill="none" stroke="black" points="314.5,-85.5 562.5,-85.5 "/>
<text text-anchor="start" x="322.5" y="-73.5" font-family="Helvetica,sans-Serif" font-size="10.00">+ Chunk GetChunk(Vector3 GameObjectPos)</text>
<text text-anchor="start" x="322.5" y="-62.5" font-family="Helvetica,sans-Serif" font-size="10.00">+ async Task CreateNewGame()</text>
<text text-anchor="start" x="322.5" y="-51.5" font-family="Helvetica,sans-Serif" font-size="10.00">+ async Task LoadChunk(int x, int z)</text>
<text text-anchor="start" x="322.5" y="-40.5" font-family="Helvetica,sans-Serif" font-size="10.00">+ void HideChunk(int col, int row)</text>
<text text-anchor="start" x="322.5" y="-29.5" font-family="Helvetica,sans-Serif" font-size="10.00">+ Chunk GetChunkWithoutLoad(int col, int row)</text>
<text text-anchor="start" x="322.5" y="-18.5" font-family="Helvetica,sans-Serif" font-size="10.00">+ async Task&lt; Chunk &gt; GetChunk(int</text>
<text text-anchor="start" x="322.5" y="-7.5" font-family="Helvetica,sans-Serif" font-size="10.00"> col, int row)</text>
</a>
</g>
</g>
<!-- Node2&#45;&gt;Node6 -->
<g id="edge7" class="edge">
<title>Node2&#45;&gt;Node6</title>
<path fill="none" stroke="#404040" d="M422.62,-171.36C424.46,-158.82 426.21,-146.89 427.83,-135.83"/>
<polygon fill="none" stroke="#404040" points="427.86,-135.6 424.77,-129.08 429.6,-123.73 432.69,-130.24 427.86,-135.6"/>
<text text-anchor="middle" x="447" y="-145" font-family="Helvetica,sans-Serif" font-size="10.00"> &#45;Chunks</text>
</g>
<!-- Node3 -->
<g id="node3" class="node">
<title>Node3</title>
<g id="a_node3"><a xlink:href="classUtility_1_1ThreadSafeMonoBehaviour.html" target="_top" xlink:title="Safely stores if the gameobject been destroyed in a bool">
<polygon fill="white" stroke="black" points="492,-848.5 492,-905.5 641,-905.5 641,-848.5 492,-848.5"/>
<text text-anchor="middle" x="566.5" y="-893.5" font-family="Helvetica,sans-Serif" font-size="10.00">ThreadSafeMonoBehaviour</text>
<polyline fill="none" stroke="black" points="492,-886.5 641,-886.5 "/>
<text text-anchor="start" x="500" y="-874.5" font-family="Helvetica,sans-Serif" font-size="10.00">+ bool Destroyed</text>
<polyline fill="none" stroke="black" points="492,-867.5 641,-867.5 "/>
<text text-anchor="start" x="500" y="-855.5" font-family="Helvetica,sans-Serif" font-size="10.00"># void OnDestroy()</text>
</a>
</g>
</g>
<!-- Node3&#45;&gt;Node2 -->
<g id="edge2" class="edge">
<title>Node3&#45;&gt;Node2</title>
<path fill="none" stroke="midnightblue" d="M550.33,-839.11C538.25,-811.55 520.51,-771.08 501.01,-726.62"/>
<polygon fill="none" stroke="midnightblue" points="547.14,-840.56 554.36,-848.31 553.55,-837.75 547.14,-840.56"/>
</g>
<!-- Node3&#45;&gt;Node6 -->
<g id="edge6" class="edge">
<title>Node3&#45;&gt;Node6</title>
<path fill="none" stroke="midnightblue" d="M569.99,-838.39C578.64,-730.78 594.65,-413.79 510.5,-171 504.82,-154.61 496.04,-138.3 486.54,-123.52"/>
<polygon fill="none" stroke="midnightblue" points="566.5,-838.18 569.16,-848.43 573.47,-838.76 566.5,-838.18"/>
</g>
<!-- Node4 -->
<g id="node4" class="node">
<title>Node4</title>
<g id="a_node4"><a xlink:title=" ">
<polygon fill="white" stroke="#bfbfbf" points="520,-1009.5 520,-1066.5 613,-1066.5 613,-1009.5 520,-1009.5"/>
<text text-anchor="middle" x="566.5" y="-1054.5" font-family="Helvetica,sans-Serif" font-size="10.00">MonoBehaviour</text>
<polyline fill="none" stroke="#bfbfbf" points="520,-1047.5 613,-1047.5 "/>
<text text-anchor="middle" x="566.5" y="-1035.5" font-family="Helvetica,sans-Serif" font-size="10.00"> </text>
<polyline fill="none" stroke="#bfbfbf" points="520,-1028.5 613,-1028.5 "/>
<text text-anchor="middle" x="566.5" y="-1016.5" font-family="Helvetica,sans-Serif" font-size="10.00"> </text>
</a>
</g>
</g>
<!-- Node4&#45;&gt;Node3 -->
<g id="edge3" class="edge">
<title>Node4&#45;&gt;Node3</title>
<path fill="none" stroke="midnightblue" d="M566.5,-999.21C566.5,-970.46 566.5,-931.54 566.5,-905.64"/>
<polygon fill="none" stroke="midnightblue" points="563,-999.3 566.5,-1009.3 570,-999.3 563,-999.3"/>
</g>
<!-- Node5 -->
<g id="node5" class="node">
<title>Node5</title>
<g id="a_node5"><a xlink:title=" ">
<polygon fill="white" stroke="#bfbfbf" points="289.5,-826.5 289.5,-927.5 473.5,-927.5 473.5,-826.5 289.5,-826.5"/>
<text text-anchor="middle" x="381.5" y="-915.5" font-family="Helvetica,sans-Serif" font-size="10.00">Game.World.BuildingCell</text>
<polyline fill="none" stroke="#bfbfbf" points="289.5,-908.5 473.5,-908.5 "/>
<text text-anchor="start" x="297.5" y="-896.5" font-family="Helvetica,sans-Serif" font-size="10.00">+ BuildingDirection RoadDirection</text>
<text text-anchor="start" x="297.5" y="-885.5" font-family="Helvetica,sans-Serif" font-size="10.00">+ bool Buildable</text>
<text text-anchor="start" x="297.5" y="-874.5" font-family="Helvetica,sans-Serif" font-size="10.00">+ bool GotRoadNext</text>
<polyline fill="none" stroke="#bfbfbf" points="289.5,-867.5 473.5,-867.5 "/>
<text text-anchor="start" x="297.5" y="-855.5" font-family="Helvetica,sans-Serif" font-size="10.00">+ BuildingCell(BuildingDirection</text>
<text text-anchor="start" x="297.5" y="-844.5" font-family="Helvetica,sans-Serif" font-size="10.00"> roadDirection, bool buildable)</text>
<text text-anchor="start" x="297.5" y="-833.5" font-family="Helvetica,sans-Serif" font-size="10.00">+ void Occupy()</text>
</a>
</g>
</g>
<!-- Node5&#45;&gt;Node2 -->
<g id="edge4" class="edge">
<title>Node5&#45;&gt;Node2</title>
<path fill="none" stroke="#404040" d="M381.5,-826.35C381.5,-804.52 381.5,-776.97 381.5,-746.78"/>
<polygon fill="none" stroke="#404040" points="381.5,-746.63 377.5,-740.63 381.5,-734.63 385.5,-740.63 381.5,-746.63"/>
<text text-anchor="middle" x="416.5" y="-756" font-family="Helvetica,sans-Serif" font-size="10.00"> &#45;buildingCells</text>
</g>
<!-- Node6&#45;&gt;Node2 -->
<g id="edge5" class="edge">
<title>Node6&#45;&gt;Node2</title>
<path fill="none" stroke="#404040" d="M390.31,-123.6C387.19,-129.58 384.5,-135.76 382.5,-142 380.7,-147.63 379.05,-153.35 377.54,-159.14"/>
<polygon fill="none" stroke="#404040" points="377.47,-159.44 379.94,-166.22 374.64,-171.11 372.17,-164.33 377.47,-159.44"/>
<text text-anchor="middle" x="399.5" y="-145" font-family="Helvetica,sans-Serif" font-size="10.00"> &#45;world</text>
</g>
</g>
</svg>
        <g id="navigator" transform="translate(0 0)" fill="#404254">
                <rect fill="#f2f5e9" fill-opacity="0.5" stroke="#606060" stroke-width=".5" x="0" y="0" width="60" height="60"/>
                <use id="zoomplus" xlink:href="#zoomPlus" x="17" y="9" onmousedown="handleZoom(evt,'in')"/>
                <use id="zoomminus" xlink:href="#zoomMin" x="42" y="9" onmousedown="handleZoom(evt,'out')"/>
                <use id="reset" xlink:href="#resetDef" x="30" y="36" onmousedown="handleReset()"/>
                <g id="arrowUp" xlink:href="#dirArrow" transform="translate(30 24)" onmousedown="handlePan(0,-1)">
                  <use xlink:href="#rim" fill="#404040">
                        <set attributeName="fill" to="#808080" begin="arrowUp.mouseover" end="arrowUp.mouseout"/>
                  </use>
                  <path fill="none" stroke="white" stroke-width="1.5" d="M0,-3.0v7 M-2.5,-0.5L0,-3.0L2.5,-0.5"/>
                </g>
                <g id="arrowRight" xlink:href="#dirArrow" transform="rotate(90) translate(36 -43)" onmousedown="handlePan(1,0)">
                  <use xlink:href="#rim" fill="#404040">
                        <set attributeName="fill" to="#808080" begin="arrowRight.mouseover" end="arrowRight.mouseout"/>
                  </use>
                  <path fill="none" stroke="white" stroke-width="1.5" d="M0,-3.0v7 M-2.5,-0.5L0,-3.0L2.5,-0.5"/>
                </g>
                <g id="arrowDown" xlink:href="#dirArrow" transform="rotate(180) translate(-30 -48)" onmousedown="handlePan(0,1)">
                  <use xlink:href="#rim" fill="#404040">
                        <set attributeName="fill" to="#808080" begin="arrowDown.mouseover" end="arrowDown.mouseout"/>
                  </use>
                  <path fill="none" stroke="white" stroke-width="1.5" d="M0,-3.0v7 M-2.5,-0.5L0,-3.0L2.5,-0.5"/>
                </g>
                <g id="arrowLeft" xlink:href="#dirArrow" transform="rotate(270) translate(-36 17)" onmousedown="handlePan(-1,0)">
                  <use xlink:href="#rim" fill="#404040">
                        <set attributeName="fill" to="#808080" begin="arrowLeft.mouseover" end="arrowLeft.mouseout"/>
                  </use>
                  <path fill="none" stroke="white" stroke-width="1.5" d="M0,-3.0v7 M-2.5,-0.5L0,-3.0L2.5,-0.5"/>
                </g>
        </g>
        <svg viewBox="0 0 15 15" width="100%" height="30px" preserveAspectRatio="xMaxYMin meet">
         <g id="arrow_out" transform="scale(0.3 0.3)">
          <a xlink:href="classGame_1_1World_1_1RoadGenerator__coll__graph_org.svg" target="_base">
           <rect id="button" ry="5" rx="5" y="6" x="6" height="38" width="38"
                fill="#f2f5e9" fill-opacity="0.5" stroke="#606060" stroke-width="1.0"/>
           <path id="arrow"
             d="M 11.500037,31.436501 C 11.940474,20.09759 22.043105,11.32322 32.158766,21.979434 L 37.068811,17.246167 C 37.068811,17.246167 37.088388,32 37.088388,32 L 22.160133,31.978069 C 22.160133,31.978069 26.997745,27.140456 26.997745,27.140456 C 18.528582,18.264221 13.291696,25.230495 11.500037,31.436501 z"
             style="fill:#404040;"/>
          </a>
         </g>
        </svg>
</svg>
