<?xml version="1.0" encoding="UTF-8" standalone="no"?>
<!DOCTYPE svg PUBLIC "-//W3C//DTD SVG 1.1//EN"
 "http://www.w3.org/Graphics/SVG/1.1/DTD/svg11.dtd">
<!-- Generated by graphviz version 2.43.0 (0)
 -->
<!-- Title: User.UserController.MoveToMainScence Pages: 1 -->
<svg width="818pt" height="101pt"
 viewBox="0.00 0.00 818.00 101.00" xmlns="http://www.w3.org/2000/svg" xmlns:xlink="http://www.w3.org/1999/xlink">
<g id="graph0" class="graph" transform="scale(1 1) rotate(0) translate(4 97)">
<title>User.UserController.MoveToMainScence</title>
<!-- Node1 -->
<g id="Node000001" class="node">
<title>Node1</title>
<g id="a_Node000001"><a xlink:title="Move from the user creation and login scene.">
<polygon fill="#999999" stroke="#666666" points="810,-56 600,-56 600,-37 810,-37 810,-56"/>
<text text-anchor="middle" x="705" y="-44" font-family="Helvetica,sans-Serif" font-size="10.00">User.UserController.MoveToMainScence</text>
</a>
</g>
</g>
<!-- Node2 -->
<g id="Node000002" class="node">
<title>Node2</title>
<g id="a_Node000002"><a xlink:href="classUser_1_1UserController.html#a0e115007266961c890001eb18f11bd1f" target="_top" xlink:title="Send a request to check if the user has logged in already.">
<polygon fill="white" stroke="#666666" points="361,-93 173,-93 173,-74 361,-74 361,-93"/>
<text text-anchor="middle" x="267" y="-81" font-family="Helvetica,sans-Serif" font-size="10.00">User.UserController.CheckLoggedIn</text>
</a>
</g>
</g>
<!-- Node1&#45;&gt;Node2 -->
<g id="edge1_Node000001_Node000002" class="edge">
<title>Node1&#45;&gt;Node2</title>
<g id="a_edge1_Node000001_Node000002"><a xlink:title=" ">
<path fill="none" stroke="#63b8ff" d="M631.3,-57.41C609.68,-60.37 585.92,-63.35 564,-65.5 496.24,-72.15 419.49,-76.73 361.13,-79.61"/>
<polygon fill="#63b8ff" stroke="#63b8ff" points="631.97,-60.85 641.39,-56.01 631.01,-53.92 631.97,-60.85"/>
</a>
</g>
</g>
<!-- Node4 -->
<g id="Node000004" class="node">
<title>Node4</title>
<g id="a_Node000004"><a xlink:href="classUser_1_1UserController.html#a02fa4701a3a181ec2228737a5f2c57e9" target="_top" xlink:title="When the login request&#39;s was responded log the user in.">
<polygon fill="white" stroke="#666666" points="559.5,-56 401.5,-56 401.5,-37 559.5,-37 559.5,-56"/>
<text text-anchor="middle" x="480.5" y="-44" font-family="Helvetica,sans-Serif" font-size="10.00">User.UserController.LoggedIn</text>
</a>
</g>
</g>
<!-- Node1&#45;&gt;Node4 -->
<g id="edge3_Node000001_Node000004" class="edge">
<title>Node1&#45;&gt;Node4</title>
<g id="a_edge3_Node000001_Node000004"><a xlink:title=" ">
<path fill="none" stroke="#63b8ff" d="M589.72,-46.5C579.53,-46.5 569.37,-46.5 559.58,-46.5"/>
<polygon fill="#63b8ff" stroke="#63b8ff" points="589.92,-50 599.92,-46.5 589.92,-43 589.92,-50"/>
</a>
</g>
</g>
<!-- Node6 -->
<g id="Node000006" class="node">
<title>Node6</title>
<g id="a_Node000006"><a xlink:href="classUser_1_1UserController.html#aa173cb240990e358e98ff052c30a93e9" target="_top" xlink:title="When the register request was responded successfully register the user and log him in.">
<polygon fill="white" stroke="#666666" points="564,-19 397,-19 397,0 564,0 564,-19"/>
<text text-anchor="middle" x="480.5" y="-7" font-family="Helvetica,sans-Serif" font-size="10.00">User.UserController.Registered</text>
</a>
</g>
</g>
<!-- Node1&#45;&gt;Node6 -->
<g id="edge6_Node000001_Node000006" class="edge">
<title>Node1&#45;&gt;Node6</title>
<g id="a_edge6_Node000001_Node000006"><a xlink:title=" ">
<path fill="none" stroke="#63b8ff" d="M636.78,-35.32C605.58,-30.13 568.88,-24.03 538.99,-19.06"/>
<polygon fill="#63b8ff" stroke="#63b8ff" points="636.26,-38.78 646.7,-36.97 637.41,-31.88 636.26,-38.78"/>
</a>
</g>
</g>
<!-- Node3 -->
<g id="Node000003" class="node">
<title>Node3</title>
<g id="a_Node000003"><a xlink:href="classUser_1_1UserController.html#a8d7a7b7d698dd47d420cc52ca90def5d" target="_top" xlink:title="Start is called before the first frame update.">
<polygon fill="white" stroke="#666666" points="137,-93 0,-93 0,-74 137,-74 137,-93"/>
<text text-anchor="middle" x="68.5" y="-81" font-family="Helvetica,sans-Serif" font-size="10.00">User.UserController.Start</text>
</a>
</g>
</g>
<!-- Node2&#45;&gt;Node3 -->
<g id="edge2_Node000002_Node000003" class="edge">
<title>Node2&#45;&gt;Node3</title>
<g id="a_edge2_Node000002_Node000003"><a xlink:title=" ">
<path fill="none" stroke="#63b8ff" d="M162.71,-83.5C154.01,-83.5 145.36,-83.5 137.04,-83.5"/>
<polygon fill="#63b8ff" stroke="#63b8ff" points="162.93,-87 172.93,-83.5 162.93,-80 162.93,-87"/>
</a>
</g>
</g>
<!-- Node4&#45;&gt;Node2 -->
<g id="edge4_Node000004_Node000002" class="edge">
<title>Node4&#45;&gt;Node2</title>
<g id="a_edge4_Node000004_Node000002"><a xlink:title=" ">
<path fill="none" stroke="#63b8ff" d="M414.83,-57.81C385.35,-62.97 350.81,-69.01 322.65,-73.94"/>
<polygon fill="#63b8ff" stroke="#63b8ff" points="415.79,-61.2 425.03,-56.03 414.58,-54.3 415.79,-61.2"/>
</a>
</g>
</g>
<!-- Node5 -->
<g id="Node000005" class="node">
<title>Node5</title>
<g id="a_Node000005"><a xlink:href="classUser_1_1UserController.html#a7d9a8e16cdb6bc3702ab7987cc141b09" target="_top" xlink:title="Send a login request with the login panel&#39;s fields.">
<polygon fill="white" stroke="#666666" points="349,-56 185,-56 185,-37 349,-37 349,-56"/>
<text text-anchor="middle" x="267" y="-44" font-family="Helvetica,sans-Serif" font-size="10.00">User.UserController.SendLogin</text>
</a>
</g>
</g>
<!-- Node4&#45;&gt;Node5 -->
<g id="edge5_Node000004_Node000005" class="edge">
<title>Node4&#45;&gt;Node5</title>
<g id="a_edge5_Node000004_Node000005"><a xlink:title=" ">
<path fill="none" stroke="#63b8ff" d="M391.25,-46.5C377.25,-46.5 362.84,-46.5 349.02,-46.5"/>
<polygon fill="#63b8ff" stroke="#63b8ff" points="391.35,-50 401.35,-46.5 391.35,-43 391.35,-50"/>
</a>
</g>
</g>
</g>
</svg>
