<?xml version="1.0" encoding="UTF-8" standalone="no"?>
<!DOCTYPE svg PUBLIC "-//W3C//DTD SVG 1.1//EN"
 "http://www.w3.org/Graphics/SVG/1.1/DTD/svg11.dtd">
<!-- Generated by graphviz version 2.43.0 (0)
 -->
<!-- Title: Utility.ThreadSafeMonoBehaviour Pages: 1 -->
<svg width="182pt" height="142pt"
 viewBox="0.00 0.00 182.00 142.00" xmlns="http://www.w3.org/2000/svg" xmlns:xlink="http://www.w3.org/1999/xlink">
<g id="graph0" class="graph" transform="scale(1 1) rotate(0) translate(4 138)">
<title>Utility.ThreadSafeMonoBehaviour</title>
<!-- Node1 -->
<g id="Node000001" class="node">
<title>Node1</title>
<g id="a_Node000001"><a xlink:title="Safely stores if the gameobject been destroyed in a bool.">
<polygon fill="#999999" stroke="transparent" points="174,-49 0,-49 0,0 174,0 174,-49"/>
<text text-anchor="start" x="5" y="-36.5" font-family="Helvetica,sans-Serif" font-size="10.00">Utility.ThreadSafeMonoBehaviour</text>
<text text-anchor="start" x="21" y="-21.5" font-family="Helvetica,sans-Serif" font-size="10.00">+</text>
<text text-anchor="start" x="51" y="-21.5" font-family="Helvetica,sans-Serif" font-size="10.00">bool Destroyed</text>
<text text-anchor="start" x="21" y="-6.5" font-family="Helvetica,sans-Serif" font-size="10.00">#</text>
<text text-anchor="start" x="51" y="-6.5" font-family="Helvetica,sans-Serif" font-size="10.00">void OnDestroy()</text>
<polygon fill="#666666" stroke="#666666" points="0,-31.5 0,-31.5 174,-31.5 174,-31.5 0,-31.5"/>
<polygon fill="#666666" stroke="#666666" points="0,-16.5 0,-16.5 49,-16.5 49,-16.5 0,-16.5"/>
<polygon fill="#666666" stroke="#666666" points="49,-16.5 49,-16.5 174,-16.5 174,-16.5 49,-16.5"/>
<polygon fill="none" stroke="#666666" points="0,0 0,-49 174,-49 174,0 0,0"/>
</a>
</g>
</g>
<!-- Node2 -->
<g id="Node000002" class="node">
<title>Node2</title>
<g id="a_Node000002"><a xlink:title=" ">
<polygon fill="white" stroke="transparent" points="130.5,-134 43.5,-134 43.5,-85 130.5,-85 130.5,-134"/>
<text text-anchor="start" x="49" y="-121.5" font-family="Helvetica,sans-Serif" font-size="10.00">MonoBehaviour</text>
<text text-anchor="start" x="85.5" y="-106.5" font-family="Helvetica,sans-Serif" font-size="10.00"> </text>
<text text-anchor="start" x="85.5" y="-91.5" font-family="Helvetica,sans-Serif" font-size="10.00"> </text>
<polygon fill="#666666" stroke="#666666" points="44,-116.5 44,-116.5 131,-116.5 131,-116.5 44,-116.5"/>
<polygon fill="#666666" stroke="#666666" points="44,-101.5 44,-101.5 131,-101.5 131,-101.5 44,-101.5"/>
<polygon fill="none" stroke="#666666" points="43.5,-85 43.5,-134 130.5,-134 130.5,-85 43.5,-85"/>
</a>
</g>
</g>
<!-- Node2&#45;&gt;Node1 -->
<g id="edge1_Node000001_Node000002" class="edge">
<title>Node2&#45;&gt;Node1</title>
<g id="a_edge1_Node000001_Node000002"><a xlink:title=" ">
<path fill="none" stroke="#63b8ff" d="M87,-74.77C87,-66.17 87,-57.1 87,-49.12"/>
<polygon fill="none" stroke="#63b8ff" points="83.5,-74.94 87,-84.94 90.5,-74.94 83.5,-74.94"/>
</a>
</g>
</g>
</g>
</svg>
