<?xml version="1.0" encoding="UTF-8" standalone="no"?>
<!DOCTYPE svg PUBLIC "-//W3C//DTD SVG 1.1//EN"
 "http://www.w3.org/Graphics/SVG/1.1/DTD/svg11.dtd">
<!-- Generated by graphviz version 2.43.0 (0)
 -->
<!-- Title: Game.CarController.Move Pages: 1 -->
<svg width="346pt" height="64pt"
 viewBox="0.00 0.00 346.00 64.00" xmlns="http://www.w3.org/2000/svg" xmlns:xlink="http://www.w3.org/1999/xlink">
<g id="graph0" class="graph" transform="scale(1 1) rotate(0) translate(4 60)">
<title>Game.CarController.Move</title>
<!-- Node1 -->
<g id="Node000001" class="node">
<title>Node1</title>
<g id="a_Node000001"><a xlink:title=" ">
<polygon fill="#999999" stroke="#666666" points="338,-37 195,-37 195,-18 338,-18 338,-37"/>
<text text-anchor="middle" x="266.5" y="-25" font-family="Helvetica,sans-Serif" font-size="10.00">Game.CarController.Move</text>
</a>
</g>
</g>
<!-- Node2 -->
<g id="Node000002" class="node">
<title>Node2</title>
<g id="a_Node000002"><a xlink:href="classGame_1_1PlayerCar.html#a35789ca2a7fb0aedfa7f7d81d0ff639d" target="_top" xlink:title="Handle the user inputs.">
<polygon fill="white" stroke="#666666" points="159,-56 0,-56 0,-37 159,-37 159,-56"/>
<text text-anchor="middle" x="79.5" y="-44" font-family="Helvetica,sans-Serif" font-size="10.00">Game.PlayerCar.FixedUpdate</text>
</a>
</g>
</g>
<!-- Node1&#45;&gt;Node2 -->
<g id="edge1_Node000001_Node000002" class="edge">
<title>Node1&#45;&gt;Node2</title>
<g id="a_edge1_Node000001_Node000002"><a xlink:title=" ">
<path fill="none" stroke="#63b8ff" d="M184.58,-35.81C176.16,-36.68 167.61,-37.55 159.22,-38.42"/>
<polygon fill="#63b8ff" stroke="#63b8ff" points="185.18,-39.27 194.77,-34.76 184.46,-32.3 185.18,-39.27"/>
</a>
</g>
</g>
<!-- Node3 -->
<g id="Node000003" class="node">
<title>Node3</title>
<g id="a_Node000003"><a xlink:href="classGame_1_1CopCar.html#ad1e664d118f85d0c8b21e92d519c1e0b" target="_top" xlink:title="Called every frame.">
<polygon fill="white" stroke="#666666" points="140.5,-19 18.5,-19 18.5,0 140.5,0 140.5,-19"/>
<text text-anchor="middle" x="79.5" y="-7" font-family="Helvetica,sans-Serif" font-size="10.00">Game.CopCar.Update</text>
</a>
</g>
</g>
<!-- Node1&#45;&gt;Node3 -->
<g id="edge2_Node000001_Node000003" class="edge">
<title>Node1&#45;&gt;Node3</title>
<g id="a_edge2_Node000001_Node000003"><a xlink:title=" ">
<path fill="none" stroke="#63b8ff" d="M184.62,-19.63C169.85,-18.19 154.68,-16.72 140.64,-15.35"/>
<polygon fill="#63b8ff" stroke="#63b8ff" points="184.48,-23.13 194.77,-20.62 185.15,-16.17 184.48,-23.13"/>
</a>
</g>
</g>
</g>
</svg>
