<?xml version="1.0" encoding="UTF-8" standalone="no"?>
<!DOCTYPE svg PUBLIC "-//W3C//DTD SVG 1.1//EN"
 "http://www.w3.org/Graphics/SVG/1.1/DTD/svg11.dtd">
<!-- Generated by graphviz version 2.43.0 (0)
 -->
<!-- Title: MainPage.TaskOpenPanelController.SavedTask Pages: 1 -->
<svg width="2334pt" height="180pt"
 viewBox="0.00 0.00 2334.00 180.00" xmlns="http://www.w3.org/2000/svg" xmlns:xlink="http://www.w3.org/1999/xlink">
<g id="graph0" class="graph" transform="scale(1 1) rotate(0) translate(4 176)">
<title>MainPage.TaskOpenPanelController.SavedTask</title>
<polygon fill="white" stroke="transparent" points="-4,4 -4,-176 2330,-176 2330,4 -4,4"/>
<!-- Node1 -->
<g id="node1" class="node">
<title>Node1</title>
<g id="a_node1"><a xlink:title="When the task was stored on the server show it also visually and close the panel">
<polygon fill="#bfbfbf" stroke="black" points="0,-38.5 0,-57.5 242,-57.5 242,-38.5 0,-38.5"/>
<text text-anchor="middle" x="121" y="-45.5" font-family="Helvetica,sans-Serif" font-size="10.00">MainPage.TaskOpenPanelController.SavedTask</text>
</a>
</g>
</g>
<!-- Node2 -->
<g id="node2" class="node">
<title>Node2</title>
<g id="a_node2"><a xlink:href="classMainPage_1_1MainWindowController.html#a827f62c47eb691eadd994bd51bf7cb74" target="_top" xlink:title="Creates a new task prefab to display">
<polygon fill="white" stroke="black" points="292.5,-85.5 292.5,-104.5 526.5,-104.5 526.5,-85.5 292.5,-85.5"/>
<text text-anchor="middle" x="409.5" y="-92.5" font-family="Helvetica,sans-Serif" font-size="10.00">MainPage.MainWindowController.CreateTask</text>
</a>
</g>
</g>
<!-- Node1&#45;&gt;Node2 -->
<g id="edge1" class="edge">
<title>Node1&#45;&gt;Node2</title>
<path fill="none" stroke="midnightblue" d="M179.98,-57.51C226.23,-65.1 291.13,-75.75 339.96,-83.76"/>
<polygon fill="midnightblue" stroke="midnightblue" points="339.68,-87.26 350.12,-85.42 340.82,-80.35 339.68,-87.26"/>
</g>
<!-- Node6 -->
<g id="node6" class="node">
<title>Node6</title>
<g id="a_node6"><a xlink:href="classMainPage_1_1MainWindowController.html#a85072f5d92f4145d6213209a13936639" target="_top" xlink:title="Refreshes the tasks with the proper sorting order">
<polygon fill="white" stroke="black" points="1160.5,-38.5 1160.5,-57.5 1417.5,-57.5 1417.5,-38.5 1160.5,-38.5"/>
<text text-anchor="middle" x="1289" y="-45.5" font-family="Helvetica,sans-Serif" font-size="10.00">MainPage.MainWindowController.SortingChanged</text>
</a>
</g>
</g>
<!-- Node1&#45;&gt;Node6 -->
<g id="edge18" class="edge">
<title>Node1&#45;&gt;Node6</title>
<path fill="none" stroke="midnightblue" d="M242.12,-48C460.14,-48 919.69,-48 1150.13,-48"/>
<polygon fill="midnightblue" stroke="midnightblue" points="1150.25,-51.5 1160.25,-48 1150.25,-44.5 1150.25,-51.5"/>
</g>
<!-- Node14 -->
<g id="node14" class="node">
<title>Node14</title>
<g id="a_node14"><a xlink:href="classMainPage_1_1MainWindowController.html#aee6fc5b4f9a2dfbfc32567557a745241" target="_top" xlink:title="Update the task prebab&#39;s label">
<polygon fill="white" stroke="black" points="278,-0.5 278,-19.5 541,-19.5 541,-0.5 278,-0.5"/>
<text text-anchor="middle" x="409.5" y="-7.5" font-family="Helvetica,sans-Serif" font-size="10.00">MainPage.MainWindowController.UpdateTaskLabel</text>
</a>
</g>
</g>
<!-- Node1&#45;&gt;Node14 -->
<g id="edge19" class="edge">
<title>Node1&#45;&gt;Node14</title>
<path fill="none" stroke="midnightblue" d="M193.93,-38.46C234.2,-33.12 284.57,-26.44 326.39,-20.89"/>
<polygon fill="midnightblue" stroke="midnightblue" points="327.09,-24.33 336.54,-19.54 326.17,-17.39 327.09,-24.33"/>
</g>
<!-- Node3 -->
<g id="node3" class="node">
<title>Node3</title>
<g id="a_node3"><a xlink:href="classMainPage_1_1TaskDisplayHandler.html#a8aedc4afb32d220352cf04cc77fdedf6" target="_top" xlink:title="Init it with the task to display and references to the controls">
<polygon fill="white" stroke="black" points="577,-95.5 577,-114.5 791,-114.5 791,-95.5 577,-95.5"/>
<text text-anchor="middle" x="684" y="-102.5" font-family="Helvetica,sans-Serif" font-size="10.00">MainPage.TaskDisplayHandler.InitValues</text>
</a>
</g>
</g>
<!-- Node2&#45;&gt;Node3 -->
<g id="edge2" class="edge">
<title>Node2&#45;&gt;Node3</title>
<path fill="none" stroke="midnightblue" d="M526.85,-99.27C540.11,-99.76 553.62,-100.25 566.88,-100.74"/>
<polygon fill="midnightblue" stroke="midnightblue" points="566.83,-104.24 576.95,-101.11 567.09,-97.24 566.83,-104.24"/>
</g>
<!-- Node4 -->
<g id="node4" class="node">
<title>Node4</title>
<g id="a_node4"><a xlink:href="classMainPage_1_1TaskDisplayHandler.html#aa49063eb8db092920d512f9869df6e98" target="_top" xlink:title="Calculate if the task can be completed again">
<polygon fill="white" stroke="black" points="827,-152.5 827,-171.5 1114,-171.5 1114,-152.5 827,-152.5"/>
<text text-anchor="middle" x="970.5" y="-159.5" font-family="Helvetica,sans-Serif" font-size="10.00">MainPage.TaskDisplayHandler.CalculateIfCompleteable</text>
</a>
</g>
</g>
<!-- Node3&#45;&gt;Node4 -->
<g id="edge3" class="edge">
<title>Node3&#45;&gt;Node4</title>
<path fill="none" stroke="midnightblue" d="M716.03,-114.54C744.62,-123.04 788.33,-135.28 827,-143 842.16,-146.03 858.32,-148.7 874.12,-151.01"/>
<polygon fill="midnightblue" stroke="midnightblue" points="874.04,-154.54 884.43,-152.48 875.03,-147.61 874.04,-154.54"/>
</g>
<!-- Node5 -->
<g id="node5" class="node">
<title>Node5</title>
<g id="a_node5"><a xlink:href="classMainPage_1_1TaskDisplayHandler.html#a754a230e53cedd3209a29d4d6a743719" target="_top" xlink:title="When the complete state is changed update the display to match it">
<polygon fill="white" stroke="black" points="833,-76.5 833,-95.5 1108,-95.5 1108,-76.5 833,-76.5"/>
<text text-anchor="middle" x="970.5" y="-83.5" font-family="Helvetica,sans-Serif" font-size="10.00">MainPage.TaskDisplayHandler.CompleteStateChange</text>
</a>
</g>
</g>
<!-- Node3&#45;&gt;Node5 -->
<g id="edge4" class="edge">
<title>Node3&#45;&gt;Node5</title>
<path fill="none" stroke="midnightblue" d="M791.34,-97.9C801.63,-97.21 812.18,-96.51 822.77,-95.8"/>
<polygon fill="midnightblue" stroke="midnightblue" points="823.18,-99.28 832.92,-95.12 822.71,-92.3 823.18,-99.28"/>
</g>
<!-- Node13 -->
<g id="node13" class="node">
<title>Node13</title>
<g id="a_node13"><a xlink:href="classMainPage_1_1TaskDisplayHandler.html#ac3773b76adb09298978a65c89136c20f" target="_top" xlink:title="Update the task&#39;s labels">
<polygon fill="white" stroke="black" points="854,-114.5 854,-133.5 1087,-133.5 1087,-114.5 854,-114.5"/>
<text text-anchor="middle" x="970.5" y="-121.5" font-family="Helvetica,sans-Serif" font-size="10.00">MainPage.TaskDisplayHandler.UpdateLabels</text>
</a>
</g>
</g>
<!-- Node3&#45;&gt;Node13 -->
<g id="edge16" class="edge">
<title>Node3&#45;&gt;Node13</title>
<path fill="none" stroke="midnightblue" d="M791.34,-112.1C808.36,-113.24 826.11,-114.42 843.54,-115.59"/>
<polygon fill="midnightblue" stroke="midnightblue" points="843.54,-119.1 853.75,-116.27 844.01,-112.11 843.54,-119.1"/>
</g>
<!-- Node5&#45;&gt;Node6 -->
<g id="edge5" class="edge">
<title>Node5&#45;&gt;Node6</title>
<path fill="none" stroke="midnightblue" d="M1050.96,-76.46C1095.91,-71.06 1152.25,-64.3 1198.72,-58.72"/>
<polygon fill="midnightblue" stroke="midnightblue" points="1199.27,-62.18 1208.78,-57.51 1198.44,-55.23 1199.27,-62.18"/>
</g>
<!-- Node12 -->
<g id="node12" class="node">
<title>Node12</title>
<g id="a_node12"><a xlink:href="classMainPage_1_1TaskDisplayHandler.html#aa63f1bc894519b9d5872c2bb50b84415" target="_top" xlink:title="Update the time remaining until the task can be completed again">
<polygon fill="white" stroke="black" points="1150,-76.5 1150,-95.5 1428,-95.5 1428,-76.5 1150,-76.5"/>
<text text-anchor="middle" x="1289" y="-83.5" font-family="Helvetica,sans-Serif" font-size="10.00">MainPage.TaskDisplayHandler.UpdateTimeRemaining</text>
</a>
</g>
</g>
<!-- Node5&#45;&gt;Node12 -->
<g id="edge14" class="edge">
<title>Node5&#45;&gt;Node12</title>
<path fill="none" stroke="midnightblue" d="M1108.02,-79.31C1118.54,-79.25 1129.2,-79.24 1139.79,-79.26"/>
<polygon fill="midnightblue" stroke="midnightblue" points="1139.91,-82.76 1149.92,-79.3 1139.94,-75.76 1139.91,-82.76"/>
</g>
<!-- Node7 -->
<g id="node7" class="node">
<title>Node7</title>
<g id="a_node7"><a xlink:href="classMainPage_1_1MainWindowController.html#a241b480aeebdab1bc34320cad8de7712" target="_top" xlink:title="Load the good habits">
<polygon fill="white" stroke="black" points="1465,-57.5 1465,-76.5 1719,-76.5 1719,-57.5 1465,-57.5"/>
<text text-anchor="middle" x="1592" y="-64.5" font-family="Helvetica,sans-Serif" font-size="10.00">MainPage.MainWindowController.LoadBadHabits</text>
</a>
</g>
</g>
<!-- Node6&#45;&gt;Node7 -->
<g id="edge6" class="edge">
<title>Node6&#45;&gt;Node7</title>
<path fill="none" stroke="midnightblue" d="M1417.65,-56.06C1429.79,-56.82 1442.14,-57.6 1454.36,-58.37"/>
<polygon fill="midnightblue" stroke="midnightblue" points="1454.39,-61.88 1464.59,-59.02 1454.83,-54.9 1454.39,-61.88"/>
</g>
<!-- Node10 -->
<g id="node10" class="node">
<title>Node10</title>
<g id="a_node10"><a xlink:href="classMainPage_1_1MainWindowController.html#ab5b80370512cd4273e86927fe696462d" target="_top" xlink:title="Load the good tasks">
<polygon fill="white" stroke="black" points="1464,-19.5 1464,-38.5 1720,-38.5 1720,-19.5 1464,-19.5"/>
<text text-anchor="middle" x="1592" y="-26.5" font-family="Helvetica,sans-Serif" font-size="10.00">MainPage.MainWindowController.LoadGoodTasks</text>
</a>
</g>
</g>
<!-- Node6&#45;&gt;Node10 -->
<g id="edge10" class="edge">
<title>Node6&#45;&gt;Node10</title>
<path fill="none" stroke="midnightblue" d="M1417.65,-39.94C1429.54,-39.19 1441.63,-38.43 1453.61,-37.67"/>
<polygon fill="midnightblue" stroke="midnightblue" points="1453.87,-41.16 1463.63,-37.04 1453.43,-34.18 1453.87,-41.16"/>
</g>
<!-- Node8 -->
<g id="node8" class="node">
<title>Node8</title>
<g id="a_node8"><a xlink:href="classMainPage_1_1TaskOpenPanelController.html#a5513399c20f650915ca10f54805f416e" target="_top" xlink:title="Make this task a bad habit">
<polygon fill="white" stroke="black" points="1757,-57.5 1757,-76.5 2026,-76.5 2026,-57.5 1757,-57.5"/>
<text text-anchor="middle" x="1891.5" y="-64.5" font-family="Helvetica,sans-Serif" font-size="10.00">MainPage.TaskOpenPanelController.MakeItBadHabit</text>
</a>
</g>
</g>
<!-- Node7&#45;&gt;Node8 -->
<g id="edge7" class="edge">
<title>Node7&#45;&gt;Node8</title>
<path fill="none" stroke="midnightblue" d="M1719.17,-60.32C1728.35,-60.26 1737.66,-60.24 1746.94,-60.25"/>
<polygon fill="midnightblue" stroke="midnightblue" points="1746.98,-63.75 1756.99,-60.28 1747,-56.75 1746.98,-63.75"/>
</g>
<!-- Node8&#45;&gt;Node7 -->
<g id="edge8" class="edge">
<title>Node8&#45;&gt;Node7</title>
<path fill="none" stroke="midnightblue" d="M1756.99,-73.72C1747.75,-73.76 1738.43,-73.76 1729.18,-73.73"/>
<polygon fill="midnightblue" stroke="midnightblue" points="1729.18,-70.23 1719.17,-73.68 1729.15,-77.23 1729.18,-70.23"/>
</g>
<!-- Node9 -->
<g id="node9" class="node">
<title>Node9</title>
<g id="a_node9"><a xlink:href="classMainPage_1_1TaskOpenPanelController.html#aa0b6757dbad141375c50282278b23b1a" target="_top" xlink:title="Update the buttons with the appropriate color based on the current task">
<polygon fill="white" stroke="black" points="2063,-38.5 2063,-57.5 2326,-57.5 2326,-38.5 2063,-38.5"/>
<text text-anchor="middle" x="2194.5" y="-45.5" font-family="Helvetica,sans-Serif" font-size="10.00">MainPage.TaskOpenPanelController.UpdateButtons</text>
</a>
</g>
</g>
<!-- Node8&#45;&gt;Node9 -->
<g id="edge9" class="edge">
<title>Node8&#45;&gt;Node9</title>
<path fill="none" stroke="midnightblue" d="M2026.28,-58.56C2034.97,-58.01 2043.73,-57.45 2052.45,-56.9"/>
<polygon fill="midnightblue" stroke="midnightblue" points="2052.91,-60.38 2062.67,-56.26 2052.46,-53.4 2052.91,-60.38"/>
</g>
<!-- Node11 -->
<g id="node11" class="node">
<title>Node11</title>
<g id="a_node11"><a xlink:href="classMainPage_1_1TaskOpenPanelController.html#a069a63e2b7e70cc4cb4c7e487b655700" target="_top" xlink:title="Make it a good task">
<polygon fill="white" stroke="black" points="1756,-19.5 1756,-38.5 2027,-38.5 2027,-19.5 1756,-19.5"/>
<text text-anchor="middle" x="1891.5" y="-26.5" font-family="Helvetica,sans-Serif" font-size="10.00">MainPage.TaskOpenPanelController.MakeItGoodTask</text>
</a>
</g>
</g>
<!-- Node10&#45;&gt;Node11 -->
<g id="edge11" class="edge">
<title>Node10&#45;&gt;Node11</title>
<path fill="none" stroke="midnightblue" d="M1720.03,-22.31C1728.54,-22.26 1737.15,-22.24 1745.75,-22.25"/>
<polygon fill="midnightblue" stroke="midnightblue" points="1745.81,-25.75 1755.82,-22.28 1745.83,-18.75 1745.81,-25.75"/>
</g>
<!-- Node11&#45;&gt;Node9 -->
<g id="edge13" class="edge">
<title>Node11&#45;&gt;Node9</title>
<path fill="none" stroke="midnightblue" d="M2027.15,-37.5C2035.7,-38.04 2044.32,-38.58 2052.9,-39.12"/>
<polygon fill="midnightblue" stroke="midnightblue" points="2052.74,-42.62 2062.94,-39.76 2053.18,-35.64 2052.74,-42.62"/>
</g>
<!-- Node11&#45;&gt;Node10 -->
<g id="edge12" class="edge">
<title>Node11&#45;&gt;Node10</title>
<path fill="none" stroke="midnightblue" d="M1755.82,-35.72C1747.26,-35.76 1738.63,-35.76 1730.06,-35.73"/>
<polygon fill="midnightblue" stroke="midnightblue" points="1730.05,-32.23 1720.03,-35.69 1730.01,-39.23 1730.05,-32.23"/>
</g>
<!-- Node12&#45;&gt;Node5 -->
<g id="edge15" class="edge">
<title>Node12&#45;&gt;Node5</title>
<path fill="none" stroke="midnightblue" d="M1149.92,-92.7C1139.39,-92.75 1128.73,-92.76 1118.14,-92.73"/>
<polygon fill="midnightblue" stroke="midnightblue" points="1118.03,-89.23 1108.02,-92.69 1118.01,-96.23 1118.03,-89.23"/>
</g>
<!-- Node13&#45;&gt;Node12 -->
<g id="edge17" class="edge">
<title>Node13&#45;&gt;Node12</title>
<path fill="none" stroke="midnightblue" d="M1050.96,-114.46C1095.91,-109.06 1152.25,-102.3 1198.72,-96.72"/>
<polygon fill="midnightblue" stroke="midnightblue" points="1199.27,-100.18 1208.78,-95.51 1198.44,-93.23 1199.27,-100.18"/>
</g>
</g>
</svg>
