<?xml version="1.0" encoding="UTF-8" standalone="no"?>
<!DOCTYPE svg PUBLIC "-//W3C//DTD SVG 1.1//EN"
 "http://www.w3.org/Graphics/SVG/1.1/DTD/svg11.dtd">
<!-- Generated by graphviz version 2.43.0 (0)
 -->
<!-- Title: MainPage.TaskDisplayHandler.CompleteTask Pages: 1 -->
<svg width="2043pt" height="161pt"
 viewBox="0.00 0.00 2043.00 161.00" xmlns="http://www.w3.org/2000/svg" xmlns:xlink="http://www.w3.org/1999/xlink">
<g id="graph0" class="graph" transform="scale(1 1) rotate(0) translate(4 157)">
<title>MainPage.TaskDisplayHandler.CompleteTask</title>
<polygon fill="white" stroke="transparent" points="-4,4 -4,-157 2039,-157 2039,4 -4,4"/>
<!-- Node1 -->
<g id="node1" class="node">
<title>Node1</title>
<g id="a_node1"><a xlink:title="Complete the task and send this to the server">
<polygon fill="#bfbfbf" stroke="black" points="0,-76.5 0,-95.5 235,-95.5 235,-76.5 0,-76.5"/>
<text text-anchor="middle" x="117.5" y="-83.5" font-family="Helvetica,sans-Serif" font-size="10.00">MainPage.TaskDisplayHandler.CompleteTask</text>
</a>
</g>
</g>
<!-- Node2 -->
<g id="node2" class="node">
<title>Node2</title>
<g id="a_node2"><a xlink:href="classConfig_1_1ServerConfig.html#a955b28390e3951d761ba63dd0ed10843" target="_top" xlink:title="Path to api endpoint to complete the selected task">
<polygon fill="white" stroke="black" points="273.5,-133.5 273.5,-152.5 509.5,-152.5 509.5,-133.5 273.5,-133.5"/>
<text text-anchor="middle" x="391.5" y="-140.5" font-family="Helvetica,sans-Serif" font-size="10.00">Config.ServerConfig.PATHFORTASKCOMPLETE</text>
</a>
</g>
</g>
<!-- Node1&#45;&gt;Node2 -->
<g id="edge1" class="edge">
<title>Node1&#45;&gt;Node2</title>
<path fill="none" stroke="midnightblue" d="M161.85,-95.56C192.35,-102.24 234.14,-111.31 271,-119 290.93,-123.16 312.77,-127.58 332.25,-131.48"/>
<polygon fill="midnightblue" stroke="midnightblue" points="331.71,-134.94 342.21,-133.47 333.09,-128.08 331.71,-134.94"/>
</g>
<!-- Node3 -->
<g id="node3" class="node">
<title>Node3</title>
<g id="a_node3"><a xlink:href="classUtility_1_1CoroutineRunner.html#a1c473dee723f16d86bab9d8475c8214a" target="_top" xlink:title="A helper method to start coroutines">
<polygon fill="white" stroke="black" points="586.5,-95.5 586.5,-114.5 784.5,-114.5 784.5,-95.5 586.5,-95.5"/>
<text text-anchor="middle" x="685.5" y="-102.5" font-family="Helvetica,sans-Serif" font-size="10.00">Utility.CoroutineRunner.RunCoroutine</text>
</a>
</g>
</g>
<!-- Node1&#45;&gt;Node3 -->
<g id="edge2" class="edge">
<title>Node1&#45;&gt;Node3</title>
<path fill="none" stroke="midnightblue" d="M235.09,-89.91C335.26,-93.28 478.58,-98.09 576.25,-101.37"/>
<polygon fill="midnightblue" stroke="midnightblue" points="576.34,-104.87 586.45,-101.71 576.57,-97.87 576.34,-104.87"/>
</g>
<!-- Node4 -->
<g id="node4" class="node">
<title>Node4</title>
<g id="a_node4"><a xlink:href="classMainPage_1_1MainWindowController.html#afea342e3985134e17406ed61958ecc6f" target="_top" xlink:title="Show the task request fail in the modal window">
<polygon fill="white" stroke="black" points="563,-19.5 563,-38.5 808,-38.5 808,-19.5 563,-19.5"/>
<text text-anchor="middle" x="685.5" y="-26.5" font-family="Helvetica,sans-Serif" font-size="10.00">MainPage.MainWindowController.ShowTaskFail</text>
</a>
</g>
</g>
<!-- Node1&#45;&gt;Node4 -->
<g id="edge3" class="edge">
<title>Node1&#45;&gt;Node4</title>
<path fill="none" stroke="midnightblue" d="M149.1,-76.47C179.64,-67.41 228.07,-54.27 271,-48 364.42,-34.35 470.86,-29.71 552.35,-28.42"/>
<polygon fill="midnightblue" stroke="midnightblue" points="552.72,-31.92 562.67,-28.27 552.62,-24.92 552.72,-31.92"/>
</g>
<!-- Node6 -->
<g id="node6" class="node">
<title>Node6</title>
<g id="a_node6"><a xlink:href="classMainPage_1_1TaskDisplayHandler.html#a98b63052d0efc73233a32b69a06bf68e" target="_top" xlink:title="When the complete acknowledge were recieved from the server update the display">
<polygon fill="white" stroke="black" points="271,-57.5 271,-76.5 512,-76.5 512,-57.5 271,-57.5"/>
<text text-anchor="middle" x="391.5" y="-64.5" font-family="Helvetica,sans-Serif" font-size="10.00">MainPage.TaskDisplayHandler.TaskCompleted</text>
</a>
</g>
</g>
<!-- Node1&#45;&gt;Node6 -->
<g id="edge5" class="edge">
<title>Node1&#45;&gt;Node6</title>
<path fill="none" stroke="midnightblue" d="M235.04,-77.86C243.53,-77.27 252.14,-76.67 260.7,-76.07"/>
<polygon fill="midnightblue" stroke="midnightblue" points="261.01,-79.55 270.74,-75.37 260.52,-72.57 261.01,-79.55"/>
</g>
<!-- Node5 -->
<g id="node5" class="node">
<title>Node5</title>
<g id="a_node5"><a xlink:href="classUtility_1_1ModalWindow.html#adcef8cae2dffe4247c905d042ff0a8e3" target="_top" xlink:title="Show the modal window">
<polygon fill="white" stroke="black" points="925,-0.5 925,-19.5 1071,-19.5 1071,-0.5 925,-0.5"/>
<text text-anchor="middle" x="998" y="-7.5" font-family="Helvetica,sans-Serif" font-size="10.00">Utility.ModalWindow.Show</text>
</a>
</g>
</g>
<!-- Node4&#45;&gt;Node5 -->
<g id="edge4" class="edge">
<title>Node4&#45;&gt;Node5</title>
<path fill="none" stroke="midnightblue" d="M808.33,-21.55C843.89,-19.37 881.92,-17.04 914.44,-15.05"/>
<polygon fill="midnightblue" stroke="midnightblue" points="915.03,-18.52 924.8,-14.42 914.61,-11.54 915.03,-18.52"/>
</g>
<!-- Node6&#45;&gt;Node3 -->
<g id="edge18" class="edge">
<title>Node6&#45;&gt;Node3</title>
<path fill="none" stroke="midnightblue" d="M465.81,-76.54C507.02,-81.9 558.6,-88.62 601.32,-94.18"/>
<polygon fill="midnightblue" stroke="midnightblue" points="601.05,-97.67 611.42,-95.49 601.95,-90.73 601.05,-97.67"/>
</g>
<!-- Node6&#45;&gt;Node4 -->
<g id="edge19" class="edge">
<title>Node6&#45;&gt;Node4</title>
<path fill="none" stroke="midnightblue" d="M465.81,-57.46C507.02,-52.1 558.6,-45.38 601.32,-39.82"/>
<polygon fill="midnightblue" stroke="midnightblue" points="601.95,-43.27 611.42,-38.51 601.05,-36.33 601.95,-43.27"/>
</g>
<!-- Node7 -->
<g id="node7" class="node">
<title>Node7</title>
<g id="a_node7"><a xlink:href="classMainPage_1_1TaskDisplayHandler.html#a754a230e53cedd3209a29d4d6a743719" target="_top" xlink:title="When the complete state is changed update the display to match it">
<polygon fill="white" stroke="black" points="548,-57.5 548,-76.5 823,-76.5 823,-57.5 548,-57.5"/>
<text text-anchor="middle" x="685.5" y="-64.5" font-family="Helvetica,sans-Serif" font-size="10.00">MainPage.TaskDisplayHandler.CompleteStateChange</text>
</a>
</g>
</g>
<!-- Node6&#45;&gt;Node7 -->
<g id="edge6" class="edge">
<title>Node6&#45;&gt;Node7</title>
<path fill="none" stroke="midnightblue" d="M512.11,-67C520.6,-67 529.21,-67 537.83,-67"/>
<polygon fill="midnightblue" stroke="midnightblue" points="537.94,-70.5 547.94,-67 537.94,-63.5 537.94,-70.5"/>
</g>
<!-- Node8 -->
<g id="node8" class="node">
<title>Node8</title>
<g id="a_node8"><a xlink:href="classMainPage_1_1MainWindowController.html#a85072f5d92f4145d6213209a13936639" target="_top" xlink:title="Refreshes the tasks with the proper sorting order">
<polygon fill="white" stroke="black" points="869.5,-38.5 869.5,-57.5 1126.5,-57.5 1126.5,-38.5 869.5,-38.5"/>
<text text-anchor="middle" x="998" y="-45.5" font-family="Helvetica,sans-Serif" font-size="10.00">MainPage.MainWindowController.SortingChanged</text>
</a>
</g>
</g>
<!-- Node7&#45;&gt;Node8 -->
<g id="edge7" class="edge">
<title>Node7&#45;&gt;Node8</title>
<path fill="none" stroke="midnightblue" d="M823.14,-58.64C835.09,-57.91 847.19,-57.17 859.15,-56.44"/>
<polygon fill="midnightblue" stroke="midnightblue" points="859.38,-59.93 869.15,-55.82 858.96,-52.94 859.38,-59.93"/>
</g>
<!-- Node14 -->
<g id="node14" class="node">
<title>Node14</title>
<g id="a_node14"><a xlink:href="classMainPage_1_1TaskDisplayHandler.html#aa63f1bc894519b9d5872c2bb50b84415" target="_top" xlink:title="Update the time remaining until the task can be completed again">
<polygon fill="white" stroke="black" points="859,-76.5 859,-95.5 1137,-95.5 1137,-76.5 859,-76.5"/>
<text text-anchor="middle" x="998" y="-83.5" font-family="Helvetica,sans-Serif" font-size="10.00">MainPage.TaskDisplayHandler.UpdateTimeRemaining</text>
</a>
</g>
</g>
<!-- Node7&#45;&gt;Node14 -->
<g id="edge16" class="edge">
<title>Node7&#45;&gt;Node14</title>
<path fill="none" stroke="midnightblue" d="M823.14,-68.65C857.34,-70.59 892.77,-73.04 922.65,-75.59"/>
<polygon fill="midnightblue" stroke="midnightblue" points="922.7,-79.11 932.97,-76.5 923.32,-72.14 922.7,-79.11"/>
</g>
<!-- Node9 -->
<g id="node9" class="node">
<title>Node9</title>
<g id="a_node9"><a xlink:href="classMainPage_1_1MainWindowController.html#a241b480aeebdab1bc34320cad8de7712" target="_top" xlink:title="Load the good habits">
<polygon fill="white" stroke="black" points="1174,-57.5 1174,-76.5 1428,-76.5 1428,-57.5 1174,-57.5"/>
<text text-anchor="middle" x="1301" y="-64.5" font-family="Helvetica,sans-Serif" font-size="10.00">MainPage.MainWindowController.LoadBadHabits</text>
</a>
</g>
</g>
<!-- Node8&#45;&gt;Node9 -->
<g id="edge8" class="edge">
<title>Node8&#45;&gt;Node9</title>
<path fill="none" stroke="midnightblue" d="M1126.65,-56.06C1138.79,-56.82 1151.14,-57.6 1163.36,-58.37"/>
<polygon fill="midnightblue" stroke="midnightblue" points="1163.39,-61.88 1173.59,-59.02 1163.83,-54.9 1163.39,-61.88"/>
</g>
<!-- Node12 -->
<g id="node12" class="node">
<title>Node12</title>
<g id="a_node12"><a xlink:href="classMainPage_1_1MainWindowController.html#ab5b80370512cd4273e86927fe696462d" target="_top" xlink:title="Load the good tasks">
<polygon fill="white" stroke="black" points="1173,-19.5 1173,-38.5 1429,-38.5 1429,-19.5 1173,-19.5"/>
<text text-anchor="middle" x="1301" y="-26.5" font-family="Helvetica,sans-Serif" font-size="10.00">MainPage.MainWindowController.LoadGoodTasks</text>
</a>
</g>
</g>
<!-- Node8&#45;&gt;Node12 -->
<g id="edge12" class="edge">
<title>Node8&#45;&gt;Node12</title>
<path fill="none" stroke="midnightblue" d="M1126.65,-39.94C1138.54,-39.19 1150.63,-38.43 1162.61,-37.67"/>
<polygon fill="midnightblue" stroke="midnightblue" points="1162.87,-41.16 1172.63,-37.04 1162.43,-34.18 1162.87,-41.16"/>
</g>
<!-- Node10 -->
<g id="node10" class="node">
<title>Node10</title>
<g id="a_node10"><a xlink:href="classMainPage_1_1TaskOpenPanelController.html#a5513399c20f650915ca10f54805f416e" target="_top" xlink:title="Make this task a bad habit">
<polygon fill="white" stroke="black" points="1466,-57.5 1466,-76.5 1735,-76.5 1735,-57.5 1466,-57.5"/>
<text text-anchor="middle" x="1600.5" y="-64.5" font-family="Helvetica,sans-Serif" font-size="10.00">MainPage.TaskOpenPanelController.MakeItBadHabit</text>
</a>
</g>
</g>
<!-- Node9&#45;&gt;Node10 -->
<g id="edge9" class="edge">
<title>Node9&#45;&gt;Node10</title>
<path fill="none" stroke="midnightblue" d="M1428.17,-60.32C1437.35,-60.26 1446.66,-60.24 1455.94,-60.25"/>
<polygon fill="midnightblue" stroke="midnightblue" points="1455.98,-63.75 1465.99,-60.28 1456,-56.75 1455.98,-63.75"/>
</g>
<!-- Node10&#45;&gt;Node9 -->
<g id="edge10" class="edge">
<title>Node10&#45;&gt;Node9</title>
<path fill="none" stroke="midnightblue" d="M1465.99,-73.72C1456.75,-73.76 1447.43,-73.76 1438.18,-73.73"/>
<polygon fill="midnightblue" stroke="midnightblue" points="1438.18,-70.23 1428.17,-73.68 1438.15,-77.23 1438.18,-70.23"/>
</g>
<!-- Node11 -->
<g id="node11" class="node">
<title>Node11</title>
<g id="a_node11"><a xlink:href="classMainPage_1_1TaskOpenPanelController.html#aa0b6757dbad141375c50282278b23b1a" target="_top" xlink:title="Update the buttons with the appropriate color based on the current task">
<polygon fill="white" stroke="black" points="1772,-38.5 1772,-57.5 2035,-57.5 2035,-38.5 1772,-38.5"/>
<text text-anchor="middle" x="1903.5" y="-45.5" font-family="Helvetica,sans-Serif" font-size="10.00">MainPage.TaskOpenPanelController.UpdateButtons</text>
</a>
</g>
</g>
<!-- Node10&#45;&gt;Node11 -->
<g id="edge11" class="edge">
<title>Node10&#45;&gt;Node11</title>
<path fill="none" stroke="midnightblue" d="M1735.28,-58.56C1743.97,-58.01 1752.73,-57.45 1761.45,-56.9"/>
<polygon fill="midnightblue" stroke="midnightblue" points="1761.91,-60.38 1771.67,-56.26 1761.46,-53.4 1761.91,-60.38"/>
</g>
<!-- Node13 -->
<g id="node13" class="node">
<title>Node13</title>
<g id="a_node13"><a xlink:href="classMainPage_1_1TaskOpenPanelController.html#a069a63e2b7e70cc4cb4c7e487b655700" target="_top" xlink:title="Make it a good task">
<polygon fill="white" stroke="black" points="1465,-19.5 1465,-38.5 1736,-38.5 1736,-19.5 1465,-19.5"/>
<text text-anchor="middle" x="1600.5" y="-26.5" font-family="Helvetica,sans-Serif" font-size="10.00">MainPage.TaskOpenPanelController.MakeItGoodTask</text>
</a>
</g>
</g>
<!-- Node12&#45;&gt;Node13 -->
<g id="edge13" class="edge">
<title>Node12&#45;&gt;Node13</title>
<path fill="none" stroke="midnightblue" d="M1429.03,-22.31C1437.54,-22.26 1446.15,-22.24 1454.75,-22.25"/>
<polygon fill="midnightblue" stroke="midnightblue" points="1454.81,-25.75 1464.82,-22.28 1454.83,-18.75 1454.81,-25.75"/>
</g>
<!-- Node13&#45;&gt;Node11 -->
<g id="edge15" class="edge">
<title>Node13&#45;&gt;Node11</title>
<path fill="none" stroke="midnightblue" d="M1736.15,-37.5C1744.7,-38.04 1753.32,-38.58 1761.9,-39.12"/>
<polygon fill="midnightblue" stroke="midnightblue" points="1761.74,-42.62 1771.94,-39.76 1762.18,-35.64 1761.74,-42.62"/>
</g>
<!-- Node13&#45;&gt;Node12 -->
<g id="edge14" class="edge">
<title>Node13&#45;&gt;Node12</title>
<path fill="none" stroke="midnightblue" d="M1464.82,-35.72C1456.26,-35.76 1447.63,-35.76 1439.06,-35.73"/>
<polygon fill="midnightblue" stroke="midnightblue" points="1439.05,-32.23 1429.03,-35.69 1439.01,-39.23 1439.05,-32.23"/>
</g>
<!-- Node14&#45;&gt;Node7 -->
<g id="edge17" class="edge">
<title>Node14&#45;&gt;Node7</title>
<path fill="none" stroke="midnightblue" d="M858.81,-84.26C825.15,-82.34 790.4,-79.93 761,-77.42"/>
<polygon fill="midnightblue" stroke="midnightblue" points="761.1,-73.92 750.84,-76.53 760.49,-80.89 761.1,-73.92"/>
</g>
</g>
</svg>
