<?xml version="1.0" encoding="UTF-8" standalone="no"?>
<!DOCTYPE svg PUBLIC "-//W3C//DTD SVG 1.1//EN"
 "http://www.w3.org/Graphics/SVG/1.1/DTD/svg11.dtd">
<!-- Generated by graphviz version 2.43.0 (0)
 -->
<!-- Title: User.UserData.Logout Pages: 1 -->
<svg width="847pt" height="66pt"
 viewBox="0.00 0.00 847.00 66.00" xmlns="http://www.w3.org/2000/svg" xmlns:xlink="http://www.w3.org/1999/xlink">
<g id="graph0" class="graph" transform="scale(1 1) rotate(0) translate(4 62)">
<title>User.UserData.Logout</title>
<polygon fill="white" stroke="transparent" points="-4,4 -4,-62 843,-62 843,4 -4,4"/>
<!-- Node1 -->
<g id="node1" class="node">
<title>Node1</title>
<g id="a_node1"><a xlink:title="Signal&#39;s that the user is logged out">
<polygon fill="#bfbfbf" stroke="black" points="716,-19.5 716,-38.5 839,-38.5 839,-19.5 716,-19.5"/>
<text text-anchor="middle" x="777.5" y="-26.5" font-family="Helvetica,sans-Serif" font-size="10.00">User.UserData.Logout</text>
</a>
</g>
</g>
<!-- Node2 -->
<g id="node2" class="node">
<title>Node2</title>
<g id="a_node2"><a xlink:href="classUser_1_1LoggedInChecker.html#aa0be140ec2e3efb96d0a9c306e6d811a" target="_top" xlink:title="Handles if the user is not logged in">
<polygon fill="white" stroke="black" points="495,-38.5 495,-57.5 674,-57.5 674,-38.5 495,-38.5"/>
<text text-anchor="middle" x="584.5" y="-45.5" font-family="Helvetica,sans-Serif" font-size="10.00">User.LoggedInChecker.LoggedOut</text>
</a>
</g>
</g>
<!-- Node1&#45;&gt;Node2 -->
<g id="edge1" class="edge">
<title>Node1&#45;&gt;Node2</title>
<path fill="none" stroke="midnightblue" d="M705.72,-36.04C695.48,-37.06 684.83,-38.12 674.29,-39.17"/>
<polygon fill="midnightblue" stroke="midnightblue" points="706.2,-39.51 715.8,-35.04 705.51,-32.54 706.2,-39.51"/>
</g>
<!-- Node5 -->
<g id="node5" class="node">
<title>Node5</title>
<g id="a_node5"><a xlink:href="classMainPage_1_1ProfileHandler.html#ad54f411a26e9a3dd6d0efa9ad5f58914" target="_top" xlink:title="When the logout was a success">
<polygon fill="white" stroke="black" points="489,-0.5 489,-19.5 680,-19.5 680,-0.5 489,-0.5"/>
<text text-anchor="middle" x="584.5" y="-7.5" font-family="Helvetica,sans-Serif" font-size="10.00">MainPage.ProfileHandler.LoggedOut</text>
</a>
</g>
</g>
<!-- Node1&#45;&gt;Node5 -->
<g id="edge4" class="edge">
<title>Node1&#45;&gt;Node5</title>
<path fill="none" stroke="midnightblue" d="M705.78,-21.97C697.44,-21.14 688.82,-20.28 680.22,-19.42"/>
<polygon fill="midnightblue" stroke="midnightblue" points="705.51,-25.46 715.8,-22.96 706.2,-18.49 705.51,-25.46"/>
</g>
<!-- Node3 -->
<g id="node3" class="node">
<title>Node3</title>
<g id="a_node3"><a xlink:href="classUser_1_1LoggedInChecker.html#a306ce5521a6109ae00667a32fd0a442c" target="_top" xlink:title="Coroutine which calls the api endpoint to check if the user is still logged in">
<polygon fill="white" stroke="black" points="195,-38.5 195,-57.5 453,-57.5 453,-38.5 195,-38.5"/>
<text text-anchor="middle" x="324" y="-45.5" font-family="Helvetica,sans-Serif" font-size="10.00">User.LoggedInChecker.CheckLoggedInPeriodically</text>
</a>
</g>
</g>
<!-- Node2&#45;&gt;Node3 -->
<g id="edge2" class="edge">
<title>Node2&#45;&gt;Node3</title>
<path fill="none" stroke="midnightblue" d="M484.7,-48C474.41,-48 463.83,-48 453.27,-48"/>
<polygon fill="midnightblue" stroke="midnightblue" points="484.9,-51.5 494.9,-48 484.9,-44.5 484.9,-51.5"/>
</g>
<!-- Node4 -->
<g id="node4" class="node">
<title>Node4</title>
<g id="a_node4"><a xlink:href="classUser_1_1LoggedInChecker.html#a0f9199eb996ba1309b9bb6bad5d6268e" target="_top" xlink:title="Called when the script is loaded">
<polygon fill="white" stroke="black" points="0,-38.5 0,-57.5 159,-57.5 159,-38.5 0,-38.5"/>
<text text-anchor="middle" x="79.5" y="-45.5" font-family="Helvetica,sans-Serif" font-size="10.00">User.LoggedInChecker.Awake</text>
</a>
</g>
</g>
<!-- Node3&#45;&gt;Node4 -->
<g id="edge3" class="edge">
<title>Node3&#45;&gt;Node4</title>
<path fill="none" stroke="midnightblue" d="M184.52,-48C175.93,-48 167.46,-48 159.28,-48"/>
<polygon fill="midnightblue" stroke="midnightblue" points="184.65,-51.5 194.65,-48 184.65,-44.5 184.65,-51.5"/>
</g>
<!-- Node6 -->
<g id="node6" class="node">
<title>Node6</title>
<g id="a_node6"><a xlink:href="classMainPage_1_1ProfileHandler.html#a19e78cd452fa87ca5a0bbb36a35882d4" target="_top" xlink:title="Send a login request with the login panel&#39;s fields">
<polygon fill="white" stroke="black" points="226.5,-0.5 226.5,-19.5 421.5,-19.5 421.5,-0.5 226.5,-0.5"/>
<text text-anchor="middle" x="324" y="-7.5" font-family="Helvetica,sans-Serif" font-size="10.00">MainPage.ProfileHandler.SendLogout</text>
</a>
</g>
</g>
<!-- Node5&#45;&gt;Node6 -->
<g id="edge5" class="edge">
<title>Node5&#45;&gt;Node6</title>
<path fill="none" stroke="midnightblue" d="M478.61,-10C459.73,-10 440.14,-10 421.51,-10"/>
<polygon fill="midnightblue" stroke="midnightblue" points="478.71,-13.5 488.71,-10 478.71,-6.5 478.71,-13.5"/>
</g>
</g>
</svg>
