<?xml version="1.0" encoding="UTF-8" standalone="no"?>
<!DOCTYPE svg PUBLIC "-//W3C//DTD SVG 1.1//EN"
 "http://www.w3.org/Graphics/SVG/1.1/DTD/svg11.dtd">
<!-- Generated by graphviz version 2.43.0 (0)
 -->
<!-- Title: Game.EnableWheelPhysicMaterial Pages: 1 -->
<svg width="187pt" height="272pt"
 viewBox="0.00 0.00 187.00 272.00" xmlns="http://www.w3.org/2000/svg" xmlns:xlink="http://www.w3.org/1999/xlink">
<g id="graph0" class="graph" transform="scale(1 1) rotate(0) translate(4 268)">
<title>Game.EnableWheelPhysicMaterial</title>
<!-- Node1 -->
<g id="Node000001" class="node">
<title>Node1</title>
<g id="a_Node000001"><a xlink:title="Script to enable the physics materials for the wheel colliders.">
<polygon fill="#999999" stroke="transparent" points="179,-94 0,-94 0,0 179,0 179,-94"/>
<text text-anchor="start" x="5.5" y="-82" font-family="Helvetica,sans-Serif" font-size="10.00">Game.EnableWheelPhysicMaterial</text>
<text text-anchor="start" x="7.5" y="-67" font-family="Helvetica,sans-Serif" font-size="10.00">&#45;</text>
<text text-anchor="start" x="18.5" y="-67" font-family="Helvetica,sans-Serif" font-size="10.00">WheelCollider wheel</text>
<text text-anchor="start" x="7.5" y="-52" font-family="Helvetica,sans-Serif" font-size="10.00">&#45;</text>
<text text-anchor="start" x="18.5" y="-52" font-family="Helvetica,sans-Serif" font-size="10.00">float originalSidewaysStiffness</text>
<text text-anchor="start" x="7.5" y="-37" font-family="Helvetica,sans-Serif" font-size="10.00">&#45;</text>
<text text-anchor="start" x="18.5" y="-37" font-family="Helvetica,sans-Serif" font-size="10.00">float originalForwardStiffness</text>
<text text-anchor="start" x="7.5" y="-22" font-family="Helvetica,sans-Serif" font-size="10.00">&#45;</text>
<text text-anchor="start" x="18.5" y="-22" font-family="Helvetica,sans-Serif" font-size="10.00">void Start()</text>
<text text-anchor="start" x="7.5" y="-7" font-family="Helvetica,sans-Serif" font-size="10.00">&#45;</text>
<text text-anchor="start" x="18.5" y="-7" font-family="Helvetica,sans-Serif" font-size="10.00">void FixedUpdate()</text>
<polygon fill="#666666" stroke="#666666" points="0.5,-77 0.5,-77 179.5,-77 179.5,-77 0.5,-77"/>
<polygon fill="#666666" stroke="#666666" points="0.5,-32 0.5,-32 16.5,-32 16.5,-32 0.5,-32"/>
<polygon fill="#666666" stroke="#666666" points="16.5,-32 16.5,-32 179.5,-32 179.5,-32 16.5,-32"/>
<polygon fill="none" stroke="#666666" points="0,0 0,-94 179,-94 179,0 0,0"/>
</a>
</g>
</g>
<!-- Node2 -->
<g id="Node000002" class="node">
<title>Node2</title>
<g id="a_Node000002"><a xlink:href="classUtility_1_1ThreadSafeMonoBehaviour.html" target="_top" xlink:title="Safely stores if the gameobject been destroyed in a bool.">
<polygon fill="white" stroke="transparent" points="161,-179 18,-179 18,-130 161,-130 161,-179"/>
<text text-anchor="start" x="23.5" y="-166.5" font-family="Helvetica,sans-Serif" font-size="10.00">ThreadSafeMonoBehaviour</text>
<text text-anchor="start" x="32" y="-151.5" font-family="Helvetica,sans-Serif" font-size="10.00">+</text>
<text text-anchor="start" x="54.5" y="-151.5" font-family="Helvetica,sans-Serif" font-size="10.00">bool Destroyed</text>
<text text-anchor="start" x="32" y="-136.5" font-family="Helvetica,sans-Serif" font-size="10.00">#</text>
<text text-anchor="start" x="54.5" y="-136.5" font-family="Helvetica,sans-Serif" font-size="10.00">void OnDestroy()</text>
<polygon fill="#666666" stroke="#666666" points="18.5,-161.5 18.5,-161.5 161.5,-161.5 161.5,-161.5 18.5,-161.5"/>
<polygon fill="#666666" stroke="#666666" points="18.5,-146.5 18.5,-146.5 52.5,-146.5 52.5,-146.5 18.5,-146.5"/>
<polygon fill="#666666" stroke="#666666" points="52.5,-146.5 52.5,-146.5 161.5,-146.5 161.5,-146.5 52.5,-146.5"/>
<polygon fill="none" stroke="#666666" points="18,-130 18,-179 161,-179 161,-130 18,-130"/>
</a>
</g>
</g>
<!-- Node2&#45;&gt;Node1 -->
<g id="edge1_Node000001_Node000002" class="edge">
<title>Node2&#45;&gt;Node1</title>
<g id="a_edge1_Node000001_Node000002"><a xlink:title=" ">
<path fill="none" stroke="#63b8ff" d="M89.5,-119.61C89.5,-111.48 89.5,-102.66 89.5,-94.08"/>
<polygon fill="none" stroke="#63b8ff" points="86,-119.82 89.5,-129.82 93,-119.82 86,-119.82"/>
</a>
</g>
</g>
<!-- Node3 -->
<g id="Node000003" class="node">
<title>Node3</title>
<g id="a_Node000003"><a xlink:title=" ">
<polygon fill="white" stroke="transparent" points="133,-264 46,-264 46,-215 133,-215 133,-264"/>
<text text-anchor="start" x="51.5" y="-251.5" font-family="Helvetica,sans-Serif" font-size="10.00">MonoBehaviour</text>
<text text-anchor="start" x="88" y="-236.5" font-family="Helvetica,sans-Serif" font-size="10.00"> </text>
<text text-anchor="start" x="88" y="-221.5" font-family="Helvetica,sans-Serif" font-size="10.00"> </text>
<polygon fill="#666666" stroke="#666666" points="46.5,-246.5 46.5,-246.5 133.5,-246.5 133.5,-246.5 46.5,-246.5"/>
<polygon fill="#666666" stroke="#666666" points="46.5,-231.5 46.5,-231.5 133.5,-231.5 133.5,-231.5 46.5,-231.5"/>
<polygon fill="none" stroke="#666666" points="46,-215 46,-264 133,-264 133,-215 46,-215"/>
</a>
</g>
</g>
<!-- Node3&#45;&gt;Node2 -->
<g id="edge2_Node000002_Node000003" class="edge">
<title>Node3&#45;&gt;Node2</title>
<g id="a_edge2_Node000002_Node000003"><a xlink:title=" ">
<path fill="none" stroke="#63b8ff" d="M89.5,-204.77C89.5,-196.17 89.5,-187.1 89.5,-179.12"/>
<polygon fill="none" stroke="#63b8ff" points="86,-204.94 89.5,-214.94 93,-204.94 86,-204.94"/>
</a>
</g>
</g>
</g>
</svg>
