<?xml version="1.0" encoding="UTF-8" standalone="no"?>
<!DOCTYPE svg PUBLIC "-//W3C//DTD SVG 1.1//EN"
 "http://www.w3.org/Graphics/SVG/1.1/DTD/svg11.dtd">
<!-- Generated by graphviz version 2.43.0 (0)
 -->
<!-- Title: Game.UI.ShopWindow.UpdateShop Pages: 1 -->
<!--zoomable 101 -->

<svg id="main" version="1.1" xmlns="http://www.w3.org/2000/svg" xmlns:xlink="http://www.w3.org/1999/xlink" xml:space="preserve" onload="init(evt)">
<style type="text/css"><![CDATA[
.node, .edge {opacity: 0.7;}
.node.selected, .edge.selected {opacity: 1;}
.edge:hover path { stroke: red; }
.edge:hover polygon { stroke: red; fill: red; }
]]></style>

<defs>
  <circle id="rim" cx="0" cy="0" r="7"/>
  <circle id="rim2" cx="0" cy="0" r="3.5"/>
  <g id="zoomPlus">
    <use xlink:href="#rim" fill="#404040"><set attributeName="fill" to="#808080" begin="zoomplus.mouseover" end="zoomplus.mouseout"/></use>
    <path d="M-4,0h8M0,-4v8" fill="none" stroke="white" stroke-width="1.5" pointer-events="none"/>
  </g>
  <g id="zoomMin">
    <use xlink:href="#rim" fill="#404040"><set attributeName="fill" to="#808080" begin="zoomminus.mouseover" end="zoomminus.mouseout"/></use>
    <path d="M-4,0h8" fill="none" stroke="white" stroke-width="1.5" pointer-events="none"/>
  </g>
  <g id="arrowUp" transform="translate(30 24)">
    <use xlink:href="#rim"/>
    <path pointer-events="none" fill="none" stroke="white" stroke-width="1.5" d="M0,-3.0v7 M-2.5,-0.5L0,-3.0L2.5,-0.5"/>
  </g>
  <g id="arrowRight" transform="rotate(90) translate(36 -43)">
    <use xlink:href="#rim"/>
    <path pointer-events="none" fill="none" stroke="white" stroke-width="1.5" d="M0,-3.0v7 M-2.5,-0.5L0,-3.0L2.5,-0.5"/>
  </g>
  <g id="arrowDown" transform="rotate(180) translate(-30 -48)">
    <use xlink:href="#rim"/>
    <path pointer-events="none" fill="none" stroke="white" stroke-width="1.5" d="M0,-3.0v7 M-2.5,-0.5L0,-3.0L2.5,-0.5"/>
  </g>
  <g id="arrowLeft" transform="rotate(270) translate(-36 17)">
    <use xlink:href="#rim"/>
    <path pointer-events="none" fill="none" stroke="white" stroke-width="1.5" d="M0,-3.0v7 M-2.5,-0.5L0,-3.0L2.5,-0.5"/>
  </g>
  <g id="resetDef">
    <use xlink:href="#rim2" fill="#404040"><set attributeName="fill" to="#808080" begin="reset.mouseover" end="reset.mouseout"/></use>
  </g>
</defs>
<script type="application/ecmascript">
var viewWidth = 628;
var viewHeight = 101;
var sectionId = 'dynsection-7';
</script>
<script type="application/ecmascript" xlink:href="svg.min.js"/>
<svg id="graph" class="graph">
<g id="viewport">
<title>Game.UI.ShopWindow.UpdateShop</title>
<!-- Node1 -->
<g id="Node000001" class="node">
<title>Node1</title>
<g id="a_Node000001"><a xlink:title="Update the shop items.">
<polygon fill="#999999" stroke="#666666" points="187,-56 0,-56 0,-37 187,-37 187,-56"/>
<text text-anchor="middle" x="93.5" y="-44" font-family="Helvetica,sans-Serif" font-size="10.00">Game.UI.ShopWindow.UpdateShop</text>
</a>
</g>
</g>
<!-- Node2 -->
<g id="Node000002" class="node">
<title>Node2</title>
<g id="a_Node000002"><a xlink:href="classGame_1_1UI_1_1ShopWindow.html#a6a703aeb6610fe526d65a9b89ad4c78e" target="_top" xlink:title="Display the loaded shop items.">
<polygon fill="white" stroke="#666666" points="438,-93 223,-93 223,-74 438,-74 438,-93"/>
<text text-anchor="middle" x="330.5" y="-81" font-family="Helvetica,sans-Serif" font-size="10.00">Game.UI.ShopWindow.LoadedShopItems</text>
</a>
</g>
</g>
<!-- Node1&#45;&gt;Node2 -->
<g id="edge1_Node000001_Node000002" class="edge">
<title>Node1&#45;&gt;Node2</title>
<g id="a_edge1_Node000001_Node000002"><a xlink:title=" ">
<path fill="none" stroke="#63b8ff" d="M155.02,-56.03C186.69,-61.02 225.65,-67.15 258.72,-72.36"/>
<polygon fill="#63b8ff" stroke="#63b8ff" points="258.36,-75.84 268.78,-73.94 259.44,-68.93 258.36,-75.84"/>
</a>
</g>
</g>
<!-- Node4 -->
<g id="Node000004" class="node">
<title>Node4</title>
<g id="a_Node000004"><a xlink:href="classUtility_1_1CoroutineRunner.html#a1c473dee723f16d86bab9d8475c8214a" target="_top" xlink:title="A helper method to start coroutines.">
<polygon fill="white" stroke="#666666" points="429.5,-56 231.5,-56 231.5,-37 429.5,-37 429.5,-56"/>
<text text-anchor="middle" x="330.5" y="-44" font-family="Helvetica,sans-Serif" font-size="10.00">Utility.CoroutineRunner.RunCoroutine</text>
</a>
</g>
</g>
<!-- Node1&#45;&gt;Node4 -->
<g id="edge3_Node000001_Node000004" class="edge">
<title>Node1&#45;&gt;Node4</title>
<g id="a_edge3_Node000001_Node000004"><a xlink:title=" ">
<path fill="none" stroke="#63b8ff" d="M187.04,-46.5C198.27,-46.5 209.81,-46.5 221.24,-46.5"/>
<polygon fill="#63b8ff" stroke="#63b8ff" points="221.24,-50 231.24,-46.5 221.24,-43 221.24,-50"/>
</a>
</g>
</g>
<!-- Node5 -->
<g id="Node000005" class="node">
<title>Node5</title>
<g id="a_Node000005"><a xlink:href="classGame_1_1UI_1_1ShopWindow.html#ab11a75acddb1467e29d7624a4d12b8b9" target="_top" xlink:title="Show if the request failed on the modal window.">
<polygon fill="white" stroke="#666666" points="435.5,-19 225.5,-19 225.5,0 435.5,0 435.5,-19"/>
<text text-anchor="middle" x="330.5" y="-7" font-family="Helvetica,sans-Serif" font-size="10.00">Game.UI.ShopWindow.ShowRequestFail</text>
</a>
</g>
</g>
<!-- Node1&#45;&gt;Node5 -->
<g id="edge4_Node000001_Node000005" class="edge">
<title>Node1&#45;&gt;Node5</title>
<g id="a_edge4_Node000001_Node000005"><a xlink:title=" ">
<path fill="none" stroke="#63b8ff" d="M155.02,-36.97C186.69,-31.98 225.65,-25.85 258.72,-20.64"/>
<polygon fill="#63b8ff" stroke="#63b8ff" points="259.44,-24.07 268.78,-19.06 258.36,-17.16 259.44,-24.07"/>
</a>
</g>
</g>
<!-- Node3 -->
<g id="Node000003" class="node">
<title>Node3</title>
<g id="a_Node000003"><a xlink:href="classGame_1_1UI_1_1ShopItem.html#a8f8263dc4d8a04ebbd12545537c98879" target="_top" xlink:title="Initializes this shop item.">
<polygon fill="white" stroke="#666666" points="611,-93 483,-93 483,-74 611,-74 611,-93"/>
<text text-anchor="middle" x="547" y="-81" font-family="Helvetica,sans-Serif" font-size="10.00">Game.UI.ShopItem.Init</text>
</a>
</g>
</g>
<!-- Node2&#45;&gt;Node3 -->
<g id="edge2_Node000002_Node000003" class="edge">
<title>Node2&#45;&gt;Node3</title>
<g id="a_edge2_Node000002_Node000003"><a xlink:title=" ">
<path fill="none" stroke="#63b8ff" d="M438.12,-83.5C449.87,-83.5 461.64,-83.5 472.85,-83.5"/>
<polygon fill="#63b8ff" stroke="#63b8ff" points="472.97,-87 482.97,-83.5 472.97,-80 472.97,-87"/>
</a>
</g>
</g>
<!-- Node6 -->
<g id="Node000006" class="node">
<title>Node6</title>
<g id="a_Node000006"><a xlink:href="classUtility_1_1ModalWindow.html#adcef8cae2dffe4247c905d042ff0a8e3" target="_top" xlink:title="Show the modal window.">
<polygon fill="white" stroke="#666666" points="620,-19 474,-19 474,0 620,0 620,-19"/>
<text text-anchor="middle" x="547" y="-7" font-family="Helvetica,sans-Serif" font-size="10.00">Utility.ModalWindow.Show</text>
</a>
</g>
</g>
<!-- Node5&#45;&gt;Node6 -->
<g id="edge5_Node000005_Node000006" class="edge">
<title>Node5&#45;&gt;Node6</title>
<g id="a_edge5_Node000005_Node000006"><a xlink:title=" ">
<path fill="none" stroke="#63b8ff" d="M435.61,-9.5C444.99,-9.5 454.41,-9.5 463.57,-9.5"/>
<polygon fill="#63b8ff" stroke="#63b8ff" points="463.79,-13 473.79,-9.5 463.79,-6 463.79,-13"/>
</a>
</g>
</g>
</g>
</svg>

<g id="navigator" transform="translate(0 0)" fill="#404254">
  <rect fill="#f2f5e9" fill-opacity="0.5" stroke="#606060" stroke-width=".5" x="0" y="0" width="60" height="60"/>
  <use id="zoomplus" xlink:href="#zoomPlus" x="17" y="9" onmousedown="handleZoom(evt,'in')"/>
  <use id="zoomminus" xlink:href="#zoomMin" x="42" y="9" onmousedown="handleZoom(evt,'out')"/>
  <use id="reset" xlink:href="#resetDef" x="30" y="36" onmousedown="handleReset()"/>
   <use id="arrowup" xlink:href="#arrowUp" x="0" y="0" onmousedown="handlePan(0,-1)"/>
  <use id="arrowright" xlink:href="#arrowRight" x="0" y="0" onmousedown="handlePan(1,0)"/>
  <use id="arrowdown" xlink:href="#arrowDown" x="0" y="0" onmousedown="handlePan(0,1)"/>
  <use id="arrowleft" xlink:href="#arrowLeft" x="0" y="0" onmousedown="handlePan(-1,0)"/>
</g>
<svg viewBox="0 0 15 15" width="100%" height="30px" preserveAspectRatio="xMaxYMin meet">
 <g id="arrow_out" transform="scale(0.3 0.3)">
  <a xlink:href="classGame_1_1UI_1_1ShopWindow_a9297b39a0fa7a77e8cf3022bc28c0b35_cgraph_org.svg" target="_base">
   <rect id="button" ry="5" rx="5" y="6" x="6" height="38" width="38"
        fill="#f2f5e9" fill-opacity="0.5" stroke="#606060" stroke-width="1.0"/>
   <path id="arrow"
     d="M 11.500037,31.436501 C 11.940474,20.09759 22.043105,11.32322 32.158766,21.979434 L 37.068811,17.246167 C 37.068811,17.246167 37.088388,32 37.088388,32 L 22.160133,31.978069 C 22.160133,31.978069 26.997745,27.140456 26.997745,27.140456 C 18.528582,18.264221 13.291696,25.230495 11.500037,31.436501 z"
     style="fill:#404040;"/>
  </a>
 </g>
</svg>

<style type='text/css'>
<![CDATA[
[data-mouse-over-selected='false'] { opacity: 0.7; }
[data-mouse-over-selected='true']  { opacity: 1.0; }
]]>
</style>
<script type="application/ecmascript"><![CDATA[
document.addEventListener('DOMContentLoaded', (event) => {
  highlightEdges();
  highlightAdjacentNodes();
});
]]></script>
</svg>
