<?xml version="1.0" encoding="UTF-8" standalone="no"?>
<!DOCTYPE svg PUBLIC "-//W3C//DTD SVG 1.1//EN"
 "http://www.w3.org/Graphics/SVG/1.1/DTD/svg11.dtd">
<!-- Generated by graphviz version 2.43.0 (0)
 -->
<!-- Title: Game.UI.GameUI.BackToTasks Pages: 1 -->
<svg width="1065pt" height="101pt"
 viewBox="0.00 0.00 1065.00 101.00" xmlns="http://www.w3.org/2000/svg" xmlns:xlink="http://www.w3.org/1999/xlink">
<g id="graph0" class="graph" transform="scale(1 1) rotate(0) translate(4 97)">
<title>Game.UI.GameUI.BackToTasks</title>
<!-- Node1 -->
<g id="Node000001" class="node">
<title>Node1</title>
<g id="a_Node000001"><a xlink:title="Move back to the tasks.">
<polygon fill="#999999" stroke="#666666" points="167,-56 0,-56 0,-37 167,-37 167,-56"/>
<text text-anchor="middle" x="83.5" y="-44" font-family="Helvetica,sans-Serif" font-size="10.00">Game.UI.GameUI.BackToTasks</text>
</a>
</g>
</g>
<!-- Node2 -->
<g id="Node000002" class="node">
<title>Node2</title>
<g id="a_Node000002"><a xlink:href="classGame_1_1UI_1_1GameUI.html#a87baf7b6bd70298f817e2c8e5e52a33a" target="_top" xlink:title="Hide the game over screen.">
<polygon fill="white" stroke="#666666" points="416,-56 203,-56 203,-37 416,-37 416,-56"/>
<text text-anchor="middle" x="309.5" y="-44" font-family="Helvetica,sans-Serif" font-size="10.00">Game.UI.GameUI.HideGameOverScreen</text>
</a>
</g>
</g>
<!-- Node1&#45;&gt;Node2 -->
<g id="edge1_Node000001_Node000002" class="edge">
<title>Node1&#45;&gt;Node2</title>
<g id="a_edge1_Node000001_Node000002"><a xlink:title=" ">
<path fill="none" stroke="#63b8ff" d="M167.27,-46.5C175.6,-46.5 184.17,-46.5 192.76,-46.5"/>
<polygon fill="#63b8ff" stroke="#63b8ff" points="192.85,-50 202.85,-46.5 192.85,-43 192.85,-50"/>
</a>
</g>
</g>
<!-- Node3 -->
<g id="Node000003" class="node">
<title>Node3</title>
<g id="a_Node000003"><a xlink:href="classGame_1_1UI_1_1GameUI.html#a4f9c8b23e2a0e5d86c53377ece2c9bac" target="_top" xlink:title="Save the game&#39;s result.">
<polygon fill="white" stroke="#666666" points="641,-56 452,-56 452,-37 641,-37 641,-56"/>
<text text-anchor="middle" x="546.5" y="-44" font-family="Helvetica,sans-Serif" font-size="10.00">Game.UI.GameUI.SaveGameResult</text>
</a>
</g>
</g>
<!-- Node2&#45;&gt;Node3 -->
<g id="edge2_Node000002_Node000003" class="edge">
<title>Node2&#45;&gt;Node3</title>
<g id="a_edge2_Node000002_Node000003"><a xlink:title=" ">
<path fill="none" stroke="#63b8ff" d="M416.31,-46.5C424.71,-46.5 433.2,-46.5 441.58,-46.5"/>
<polygon fill="#63b8ff" stroke="#63b8ff" points="441.76,-50 451.76,-46.5 441.76,-43 441.76,-50"/>
</a>
</g>
</g>
<!-- Node4 -->
<g id="Node000004" class="node">
<title>Node4</title>
<g id="a_Node000004"><a xlink:href="classUtility_1_1CoroutineRunner.html#a1c473dee723f16d86bab9d8475c8214a" target="_top" xlink:title="A helper method to start coroutines.">
<polygon fill="white" stroke="#666666" points="875,-93 677,-93 677,-74 875,-74 875,-93"/>
<text text-anchor="middle" x="776" y="-81" font-family="Helvetica,sans-Serif" font-size="10.00">Utility.CoroutineRunner.RunCoroutine</text>
</a>
</g>
</g>
<!-- Node3&#45;&gt;Node4 -->
<g id="edge3_Node000003_Node000004" class="edge">
<title>Node3&#45;&gt;Node4</title>
<g id="a_edge3_Node000003_Node000004"><a xlink:title=" ">
<path fill="none" stroke="#63b8ff" d="M606.09,-56.03C636.62,-60.99 674.14,-67.1 706.07,-72.29"/>
<polygon fill="#63b8ff" stroke="#63b8ff" points="705.78,-75.79 716.22,-73.94 706.91,-68.88 705.78,-75.79"/>
</a>
</g>
</g>
<!-- Node5 -->
<g id="Node000005" class="node">
<title>Node5</title>
<g id="a_Node000005"><a xlink:href="classGame_1_1UI_1_1GameUI.html#a984a1e174ca8249e0433de8d2d8a462c" target="_top" xlink:title="Callback after the coins amount were saved.">
<polygon fill="white" stroke="#666666" points="857,-56 695,-56 695,-37 857,-37 857,-56"/>
<text text-anchor="middle" x="776" y="-44" font-family="Helvetica,sans-Serif" font-size="10.00">Game.UI.GameUI.SavedCoins</text>
</a>
</g>
</g>
<!-- Node3&#45;&gt;Node5 -->
<g id="edge4_Node000003_Node000005" class="edge">
<title>Node3&#45;&gt;Node5</title>
<g id="a_edge4_Node000003_Node000005"><a xlink:title=" ">
<path fill="none" stroke="#63b8ff" d="M641.02,-46.5C655.42,-46.5 670.26,-46.5 684.59,-46.5"/>
<polygon fill="#63b8ff" stroke="#63b8ff" points="684.92,-50 694.92,-46.5 684.92,-43 684.92,-50"/>
</a>
</g>
</g>
<!-- Node6 -->
<g id="Node000006" class="node">
<title>Node6</title>
<g id="a_Node000006"><a xlink:href="classGame_1_1UI_1_1GameUI.html#ac464d5a547acb44085748e2ee265272f" target="_top" xlink:title="Show if the request failed on the modal window.">
<polygon fill="white" stroke="#666666" points="870,-19 682,-19 682,0 870,0 870,-19"/>
<text text-anchor="middle" x="776" y="-7" font-family="Helvetica,sans-Serif" font-size="10.00">Game.UI.GameUI.ShowRequestFail</text>
</a>
</g>
</g>
<!-- Node3&#45;&gt;Node6 -->
<g id="edge5_Node000003_Node000006" class="edge">
<title>Node3&#45;&gt;Node6</title>
<g id="a_edge5_Node000003_Node000006"><a xlink:title=" ">
<path fill="none" stroke="#63b8ff" d="M606.09,-36.97C636.62,-32.01 674.14,-25.9 706.07,-20.71"/>
<polygon fill="#63b8ff" stroke="#63b8ff" points="706.91,-24.12 716.22,-19.06 705.78,-17.21 706.91,-24.12"/>
</a>
</g>
</g>
<!-- Node7 -->
<g id="Node000007" class="node">
<title>Node7</title>
<g id="a_Node000007"><a xlink:href="classUtility_1_1ModalWindow.html#adcef8cae2dffe4247c905d042ff0a8e3" target="_top" xlink:title="Show the modal window.">
<polygon fill="white" stroke="#666666" points="1057,-19 911,-19 911,0 1057,0 1057,-19"/>
<text text-anchor="middle" x="984" y="-7" font-family="Helvetica,sans-Serif" font-size="10.00">Utility.ModalWindow.Show</text>
</a>
</g>
</g>
<!-- Node6&#45;&gt;Node7 -->
<g id="edge6_Node000006_Node000007" class="edge">
<title>Node6&#45;&gt;Node7</title>
<g id="a_edge6_Node000006_Node000007"><a xlink:title=" ">
<path fill="none" stroke="#63b8ff" d="M870.06,-9.5C880.19,-9.5 890.44,-9.5 900.44,-9.5"/>
<polygon fill="#63b8ff" stroke="#63b8ff" points="900.73,-13 910.73,-9.5 900.73,-6 900.73,-13"/>
</a>
</g>
</g>
</g>
</svg>
