<?xml version="1.0" encoding="UTF-8" standalone="no"?>
<!DOCTYPE svg PUBLIC "-//W3C//DTD SVG 1.1//EN"
 "http://www.w3.org/Graphics/SVG/1.1/DTD/svg11.dtd">
<!-- Generated by graphviz version 2.43.0 (0)
 -->
<!-- Title: User.UserController.CheckLoggedIn Pages: 1 -->
<svg width="636pt" height="101pt"
 viewBox="0.00 0.00 636.00 101.00" xmlns="http://www.w3.org/2000/svg" xmlns:xlink="http://www.w3.org/1999/xlink">
<g id="graph0" class="graph" transform="scale(1 1) rotate(0) translate(4 97)">
<title>User.UserController.CheckLoggedIn</title>
<!-- Node1 -->
<g id="Node000001" class="node">
<title>Node1</title>
<g id="a_Node000001"><a xlink:title="Send a request to check if the user has logged in already.">
<polygon fill="#999999" stroke="#666666" points="188,-56 0,-56 0,-37 188,-37 188,-56"/>
<text text-anchor="middle" x="94" y="-44" font-family="Helvetica,sans-Serif" font-size="10.00">User.UserController.CheckLoggedIn</text>
</a>
</g>
</g>
<!-- Node2 -->
<g id="Node000002" class="node">
<title>Node2</title>
<g id="a_Node000002"><a xlink:href="classUser_1_1UserController.html#a02fa4701a3a181ec2228737a5f2c57e9" target="_top" xlink:title="When the login request&#39;s was responded log the user in.">
<polygon fill="white" stroke="#666666" points="382,-56 224,-56 224,-37 382,-37 382,-56"/>
<text text-anchor="middle" x="303" y="-44" font-family="Helvetica,sans-Serif" font-size="10.00">User.UserController.LoggedIn</text>
</a>
</g>
</g>
<!-- Node1&#45;&gt;Node2 -->
<g id="edge1_Node000001_Node000002" class="edge">
<title>Node1&#45;&gt;Node2</title>
<g id="a_edge1_Node000001_Node000002"><a xlink:title=" ">
<path fill="none" stroke="#63b8ff" d="M188.21,-46.5C196.67,-46.5 205.24,-46.5 213.66,-46.5"/>
<polygon fill="#63b8ff" stroke="#63b8ff" points="213.85,-50 223.85,-46.5 213.85,-43 213.85,-50"/>
</a>
</g>
</g>
<!-- Node4 -->
<g id="Node000004" class="node">
<title>Node4</title>
<g id="a_Node000004"><a xlink:href="classUser_1_1UserController.html#a3ba5f73e6358fff37d2ec5e255659756" target="_top" xlink:title="Move from the user creation and login scene.">
<polygon fill="white" stroke="#666666" points="628,-93 418,-93 418,-74 628,-74 628,-93"/>
<text text-anchor="middle" x="523" y="-81" font-family="Helvetica,sans-Serif" font-size="10.00">User.UserController.MoveToMainScence</text>
</a>
</g>
</g>
<!-- Node1&#45;&gt;Node4 -->
<g id="edge5_Node000001_Node000004" class="edge">
<title>Node1&#45;&gt;Node4</title>
<g id="a_edge5_Node000001_Node000004"><a xlink:title=" ">
<path fill="none" stroke="#63b8ff" d="M156.24,-56C177.64,-59.07 201.84,-62.25 224,-64.5 284.45,-70.64 352.01,-75.14 407.5,-78.21"/>
<polygon fill="#63b8ff" stroke="#63b8ff" points="407.54,-81.72 417.72,-78.77 407.92,-74.73 407.54,-81.72"/>
</a>
</g>
</g>
<!-- Node5 -->
<g id="Node000005" class="node">
<title>Node5</title>
<g id="a_Node000005"><a xlink:href="classUtility_1_1CoroutineRunner.html#a1c473dee723f16d86bab9d8475c8214a" target="_top" xlink:title="A helper method to start coroutines.">
<polygon fill="white" stroke="#666666" points="622,-19 424,-19 424,0 622,0 622,-19"/>
<text text-anchor="middle" x="523" y="-7" font-family="Helvetica,sans-Serif" font-size="10.00">Utility.CoroutineRunner.RunCoroutine</text>
</a>
</g>
</g>
<!-- Node1&#45;&gt;Node5 -->
<g id="edge6_Node000001_Node000005" class="edge">
<title>Node1&#45;&gt;Node5</title>
<g id="a_edge6_Node000001_Node000005"><a xlink:title=" ">
<path fill="none" stroke="#63b8ff" d="M152.34,-36.98C174.65,-33.55 200.47,-29.94 224,-27.5 286.74,-21 357.17,-16.61 413.8,-13.8"/>
<polygon fill="#63b8ff" stroke="#63b8ff" points="414.03,-17.29 423.85,-13.31 413.69,-10.3 414.03,-17.29"/>
</a>
</g>
</g>
<!-- Node3 -->
<g id="Node000003" class="node">
<title>Node3</title>
<g id="a_Node000003"><a xlink:href="classUser_1_1UserData.html#abb372911b5e49023a977bd064f46bb6e" target="_top" xlink:title="Initialises the user instance with proper data.">
<polygon fill="white" stroke="#666666" points="576,-56 470,-56 470,-37 576,-37 576,-56"/>
<text text-anchor="middle" x="523" y="-44" font-family="Helvetica,sans-Serif" font-size="10.00">User.UserData.Init</text>
</a>
</g>
</g>
<!-- Node2&#45;&gt;Node3 -->
<g id="edge2_Node000002_Node000003" class="edge">
<title>Node2&#45;&gt;Node3</title>
<g id="a_edge2_Node000002_Node000003"><a xlink:title=" ">
<path fill="none" stroke="#63b8ff" d="M382.09,-46.5C407.64,-46.5 435.66,-46.5 459.87,-46.5"/>
<polygon fill="#63b8ff" stroke="#63b8ff" points="459.99,-50 469.99,-46.5 459.99,-43 459.99,-50"/>
</a>
</g>
</g>
<!-- Node2&#45;&gt;Node4 -->
<g id="edge3_Node000002_Node000004" class="edge">
<title>Node2&#45;&gt;Node4</title>
<g id="a_edge3_Node000002_Node000004"><a xlink:title=" ">
<path fill="none" stroke="#63b8ff" d="M360.14,-56.03C389.27,-60.97 425.04,-67.04 455.55,-72.22"/>
<polygon fill="#63b8ff" stroke="#63b8ff" points="455.23,-75.72 465.67,-73.94 456.4,-68.82 455.23,-75.72"/>
</a>
</g>
</g>
<!-- Node2&#45;&gt;Node5 -->
<g id="edge4_Node000002_Node000005" class="edge">
<title>Node2&#45;&gt;Node5</title>
<g id="a_edge4_Node000002_Node000005"><a xlink:title=" ">
<path fill="none" stroke="#63b8ff" d="M360.14,-36.97C389.27,-32.03 425.04,-25.96 455.55,-20.78"/>
<polygon fill="#63b8ff" stroke="#63b8ff" points="456.4,-24.18 465.67,-19.06 455.23,-17.28 456.4,-24.18"/>
</a>
</g>
</g>
</g>
</svg>
