<?xml version="1.0" encoding="UTF-8" standalone="no"?>
<!DOCTYPE svg PUBLIC "-//W3C//DTD SVG 1.1//EN"
 "http://www.w3.org/Graphics/SVG/1.1/DTD/svg11.dtd">
<!-- Generated by graphviz version 2.43.0 (0)
 -->
<!-- Title: MainPage.FriendHandler.InitValues Pages: 1 -->
<!--zoomable 82 -->

<svg id="main" version="1.1" xmlns="http://www.w3.org/2000/svg" xmlns:xlink="http://www.w3.org/1999/xlink" xml:space="preserve" onload="init(evt)">
<style type="text/css"><![CDATA[
.node, .edge {opacity: 0.7;}
.node.selected, .edge.selected {opacity: 1;}
.edge:hover path { stroke: red; }
.edge:hover polygon { stroke: red; fill: red; }
]]></style>

<defs>
  <circle id="rim" cx="0" cy="0" r="7"/>
  <circle id="rim2" cx="0" cy="0" r="3.5"/>
  <g id="zoomPlus">
    <use xlink:href="#rim" fill="#404040"><set attributeName="fill" to="#808080" begin="zoomplus.mouseover" end="zoomplus.mouseout"/></use>
    <path d="M-4,0h8M0,-4v8" fill="none" stroke="white" stroke-width="1.5" pointer-events="none"/>
  </g>
  <g id="zoomMin">
    <use xlink:href="#rim" fill="#404040"><set attributeName="fill" to="#808080" begin="zoomminus.mouseover" end="zoomminus.mouseout"/></use>
    <path d="M-4,0h8" fill="none" stroke="white" stroke-width="1.5" pointer-events="none"/>
  </g>
  <g id="arrowUp" transform="translate(30 24)">
    <use xlink:href="#rim"/>
    <path pointer-events="none" fill="none" stroke="white" stroke-width="1.5" d="M0,-3.0v7 M-2.5,-0.5L0,-3.0L2.5,-0.5"/>
  </g>
  <g id="arrowRight" transform="rotate(90) translate(36 -43)">
    <use xlink:href="#rim"/>
    <path pointer-events="none" fill="none" stroke="white" stroke-width="1.5" d="M0,-3.0v7 M-2.5,-0.5L0,-3.0L2.5,-0.5"/>
  </g>
  <g id="arrowDown" transform="rotate(180) translate(-30 -48)">
    <use xlink:href="#rim"/>
    <path pointer-events="none" fill="none" stroke="white" stroke-width="1.5" d="M0,-3.0v7 M-2.5,-0.5L0,-3.0L2.5,-0.5"/>
  </g>
  <g id="arrowLeft" transform="rotate(270) translate(-36 17)">
    <use xlink:href="#rim"/>
    <path pointer-events="none" fill="none" stroke="white" stroke-width="1.5" d="M0,-3.0v7 M-2.5,-0.5L0,-3.0L2.5,-0.5"/>
  </g>
  <g id="resetDef">
    <use xlink:href="#rim2" fill="#404040"><set attributeName="fill" to="#808080" begin="reset.mouseover" end="reset.mouseout"/></use>
  </g>
</defs>
<script type="application/ecmascript">
var viewWidth = 1123;
var viewHeight = 82;
var sectionId = 'dynsection-2';
</script>
<script type="application/ecmascript" xlink:href="svg.min.js"/>
<svg id="graph" class="graph">
<g id="viewport">
<title>MainPage.FriendHandler.InitValues</title>
<!-- Node1 -->
<g id="Node000001" class="node">
<title>Node1</title>
<g id="a_Node000001"><a xlink:title="Inititializes a new display with the given friend to display.">
<polygon fill="#999999" stroke="#666666" points="1115,-37 930,-37 930,-18 1115,-18 1115,-37"/>
<text text-anchor="middle" x="1022.5" y="-25" font-family="Helvetica,sans-Serif" font-size="10.00">MainPage.FriendHandler.InitValues</text>
</a>
</g>
</g>
<!-- Node2 -->
<g id="Node000002" class="node">
<title>Node2</title>
<g id="a_Node000002"><a xlink:href="classMainPage_1_1FriendWindowHandler.html#abce9cb8e608691cfbc50bf47c17a1b34" target="_top" xlink:title="Display the friends which was recieved from the server.">
<polygon fill="white" stroke="#666666" points="884,-56 636,-56 636,-37 884,-37 884,-56"/>
<text text-anchor="middle" x="760" y="-44" font-family="Helvetica,sans-Serif" font-size="10.00">MainPage.FriendWindowHandler.DisplayFriends</text>
</a>
</g>
</g>
<!-- Node1&#45;&gt;Node2 -->
<g id="edge1_Node000001_Node000002" class="edge">
<title>Node1&#45;&gt;Node2</title>
<g id="a_edge1_Node000001_Node000002"><a xlink:title=" ">
<path fill="none" stroke="#63b8ff" d="M919.6,-34.93C908.06,-35.77 896.2,-36.64 884.41,-37.5"/>
<polygon fill="#63b8ff" stroke="#63b8ff" points="919.94,-38.42 929.66,-34.2 919.43,-31.44 919.94,-38.42"/>
</a>
</g>
</g>
<!-- Node6 -->
<g id="Node000006" class="node">
<title>Node6</title>
<g id="a_Node000006"><a xlink:href="classMainPage_1_1FriendWindowHandler.html#a61d9cd37518259d360474dd5fe55ae24" target="_top" xlink:title="After the friend request was sent load the friend prefab if it can show pending.">
<polygon fill="white" stroke="#666666" points="894,-19 626,-19 626,0 894,0 894,-19"/>
<text text-anchor="middle" x="760" y="-7" font-family="Helvetica,sans-Serif" font-size="10.00">MainPage.FriendWindowHandler.SentFriendRequest</text>
</a>
</g>
</g>
<!-- Node1&#45;&gt;Node6 -->
<g id="edge5_Node000001_Node000006" class="edge">
<title>Node1&#45;&gt;Node6</title>
<g id="a_edge5_Node000001_Node000006"><a xlink:title=" ">
<path fill="none" stroke="#63b8ff" d="M919.52,-20.45C911.14,-19.87 902.59,-19.28 894.02,-18.69"/>
<polygon fill="#63b8ff" stroke="#63b8ff" points="919.44,-23.96 929.66,-21.15 919.92,-16.97 919.44,-23.96"/>
</a>
</g>
</g>
<!-- Node3 -->
<g id="Node000003" class="node">
<title>Node3</title>
<g id="a_Node000003"><a xlink:href="classMainPage_1_1FriendWindowHandler.html#a6ebf0f7c70458f53c427517bf84bef7d" target="_top" xlink:title="Loads the friends from the server.">
<polygon fill="white" stroke="#666666" points="572.5,-56 337.5,-56 337.5,-37 572.5,-37 572.5,-56"/>
<text text-anchor="middle" x="455" y="-44" font-family="Helvetica,sans-Serif" font-size="10.00">MainPage.FriendWindowHandler.LoadFriends</text>
</a>
</g>
</g>
<!-- Node2&#45;&gt;Node3 -->
<g id="edge2_Node000002_Node000003" class="edge">
<title>Node2&#45;&gt;Node3</title>
<g id="a_edge2_Node000002_Node000003"><a xlink:title=" ">
<path fill="none" stroke="#63b8ff" d="M625.46,-46.5C607.91,-46.5 590.02,-46.5 572.77,-46.5"/>
<polygon fill="#63b8ff" stroke="#63b8ff" points="625.76,-50 635.76,-46.5 625.76,-43 625.76,-50"/>
</a>
</g>
</g>
<!-- Node4 -->
<g id="Node000004" class="node">
<title>Node4</title>
<g id="a_Node000004"><a xlink:href="classMainPage_1_1FriendWindowHandler.html#aa9e14952826cc8ae861f67015c1156e1" target="_top" xlink:title="Shows the profile window.">
<polygon fill="white" stroke="#666666" points="243.5,-74 40.5,-74 40.5,-55 243.5,-55 243.5,-74"/>
<text text-anchor="middle" x="142" y="-62" font-family="Helvetica,sans-Serif" font-size="10.00">MainPage.FriendWindowHandler.Show</text>
</a>
</g>
</g>
<!-- Node3&#45;&gt;Node4 -->
<g id="edge3_Node000003_Node000004" class="edge">
<title>Node3&#45;&gt;Node4</title>
<g id="a_edge3_Node000003_Node000004"><a xlink:title=" ">
<path fill="none" stroke="#63b8ff" d="M327.12,-53.84C299.27,-55.46 270.16,-57.14 243.51,-58.68"/>
<polygon fill="#63b8ff" stroke="#63b8ff" points="327.53,-57.33 337.31,-53.25 327.12,-50.34 327.53,-57.33"/>
</a>
</g>
</g>
<!-- Node5 -->
<g id="Node000005" class="node">
<title>Node5</title>
<g id="a_Node000005"><a xlink:href="classMainPage_1_1FriendWindowHandler.html#af27eee4e5b363a39878fe5f94c03f9cd" target="_top" xlink:title="Changed event for pending checkbox Loads/Unloads the pending friend requests.">
<polygon fill="white" stroke="#666666" points="284,-37 0,-37 0,-18 284,-18 284,-37"/>
<text text-anchor="middle" x="142" y="-25" font-family="Helvetica,sans-Serif" font-size="10.00">MainPage.FriendWindowHandler.ShowPendingChanged</text>
</a>
</g>
</g>
<!-- Node3&#45;&gt;Node5 -->
<g id="edge4_Node000003_Node000005" class="edge">
<title>Node3&#45;&gt;Node5</title>
<g id="a_edge4_Node000003_Node000005"><a xlink:title=" ">
<path fill="none" stroke="#63b8ff" d="M327.09,-38.75C312.96,-37.88 298.51,-37 284.22,-36.13"/>
<polygon fill="#63b8ff" stroke="#63b8ff" points="327.12,-42.25 337.31,-39.37 327.54,-35.27 327.12,-42.25"/>
</a>
</g>
</g>
<!-- Node7 -->
<g id="Node000007" class="node">
<title>Node7</title>
<g id="a_Node000007"><a xlink:href="classMainPage_1_1FriendWindowHandler.html#ad0c4b894708ceb9acc635e9a87b306ae" target="_top" xlink:title="Sends a friend request to the user which was specified in the useridentification input.">
<polygon fill="white" stroke="#666666" points="590,-19 320,-19 320,0 590,0 590,-19"/>
<text text-anchor="middle" x="455" y="-7" font-family="Helvetica,sans-Serif" font-size="10.00">MainPage.FriendWindowHandler.SendFriendRequest</text>
</a>
</g>
</g>
<!-- Node6&#45;&gt;Node7 -->
<g id="edge6_Node000006_Node000007" class="edge">
<title>Node6&#45;&gt;Node7</title>
<g id="a_edge6_Node000006_Node000007"><a xlink:title=" ">
<path fill="none" stroke="#63b8ff" d="M615.44,-9.5C607.04,-9.5 598.61,-9.5 590.26,-9.5"/>
<polygon fill="#63b8ff" stroke="#63b8ff" points="615.66,-13 625.66,-9.5 615.66,-6 615.66,-13"/>
</a>
</g>
</g>
</g>
</svg>

<g id="navigator" transform="translate(0 0)" fill="#404254">
  <rect fill="#f2f5e9" fill-opacity="0.5" stroke="#606060" stroke-width=".5" x="0" y="0" width="60" height="60"/>
  <use id="zoomplus" xlink:href="#zoomPlus" x="17" y="9" onmousedown="handleZoom(evt,'in')"/>
  <use id="zoomminus" xlink:href="#zoomMin" x="42" y="9" onmousedown="handleZoom(evt,'out')"/>
  <use id="reset" xlink:href="#resetDef" x="30" y="36" onmousedown="handleReset()"/>
   <use id="arrowup" xlink:href="#arrowUp" x="0" y="0" onmousedown="handlePan(0,-1)"/>
  <use id="arrowright" xlink:href="#arrowRight" x="0" y="0" onmousedown="handlePan(1,0)"/>
  <use id="arrowdown" xlink:href="#arrowDown" x="0" y="0" onmousedown="handlePan(0,1)"/>
  <use id="arrowleft" xlink:href="#arrowLeft" x="0" y="0" onmousedown="handlePan(-1,0)"/>
</g>
<svg viewBox="0 0 15 15" width="100%" height="30px" preserveAspectRatio="xMaxYMin meet">
 <g id="arrow_out" transform="scale(0.3 0.3)">
  <a xlink:href="classMainPage_1_1FriendHandler_ab894b96203019d08e341bbb6090af8b8_icgraph_org.svg" target="_base">
   <rect id="button" ry="5" rx="5" y="6" x="6" height="38" width="38"
        fill="#f2f5e9" fill-opacity="0.5" stroke="#606060" stroke-width="1.0"/>
   <path id="arrow"
     d="M 11.500037,31.436501 C 11.940474,20.09759 22.043105,11.32322 32.158766,21.979434 L 37.068811,17.246167 C 37.068811,17.246167 37.088388,32 37.088388,32 L 22.160133,31.978069 C 22.160133,31.978069 26.997745,27.140456 26.997745,27.140456 C 18.528582,18.264221 13.291696,25.230495 11.500037,31.436501 z"
     style="fill:#404040;"/>
  </a>
 </g>
</svg>

<style type='text/css'>
<![CDATA[
[data-mouse-over-selected='false'] { opacity: 0.7; }
[data-mouse-over-selected='true']  { opacity: 1.0; }
]]>
</style>
<script type="application/ecmascript"><![CDATA[
document.addEventListener('DOMContentLoaded', (event) => {
  highlightEdges();
  highlightAdjacentNodes();
});
]]></script>
</svg>
