<?xml version="1.0" encoding="UTF-8" standalone="no"?>
<!DOCTYPE svg PUBLIC "-//W3C//DTD SVG 1.1//EN"
 "http://www.w3.org/Graphics/SVG/1.1/DTD/svg11.dtd">
<!-- Generated by graphviz version 2.43.0 (0)
 -->
<!-- Title: MainPage.TaskOpenPanelController.UpdateButtons Pages: 1 -->
<!--zoomable 236 -->
<svg id="main" version="1.1" xmlns="http://www.w3.org/2000/svg" xmlns:xlink="http://www.w3.org/1999/xlink" xml:space="preserve" onload="init(evt)">
<style type="text/css"><![CDATA[
.edge:hover path { stroke: red; }
.edge:hover polygon { stroke: red; fill: red; }
]]></style>
<script type="text/javascript"><![CDATA[
var edges = document.getElementsByTagName('g');
if (edges && edges.length) {
  for (var i=0;i<edges.length;i++) {
    if (edges[i].id.substr(0,4)=='edge') {
      edges[i].setAttribute('class','edge');
    }
  }
}
]]></script>
        <defs>
                <circle id="rim" cx="0" cy="0" r="7"/>
                <circle id="rim2" cx="0" cy="0" r="3.5"/>
                <g id="zoomPlus">
                        <use xlink:href="#rim" fill="#404040">
                                <set attributeName="fill" to="#808080" begin="zoomplus.mouseover" end="zoomplus.mouseout"/>
                        </use>
                        <path d="M-4,0h8M0,-4v8" fill="none" stroke="white" stroke-width="1.5" pointer-events="none"/>
                </g>
                <g id="zoomMin">
                        <use xlink:href="#rim" fill="#404040">
                                <set attributeName="fill" to="#808080" begin="zoomminus.mouseover" end="zoomminus.mouseout"/>
                        </use>
                        <path d="M-4,0h8" fill="none" stroke="white" stroke-width="1.5" pointer-events="none"/>
                </g>
                <g id="dirArrow">
                        <path fill="none" stroke="white" stroke-width="1.5" d="M0,-3.0v7 M-2.5,-0.5L0,-3.0L2.5,-0.5"/>
                </g>
               <g id="resetDef">
                       <use xlink:href="#rim2" fill="#404040">
                               <set attributeName="fill" to="#808080" begin="reset.mouseover" end="reset.mouseout"/>
                       </use>
               </g>
        </defs>

<script type="text/javascript">
var viewWidth = 3391;
var viewHeight = 236;
var sectionId = 'dynsection-17';
</script>
<script xlink:href="svgpan.js"/>
<svg id="graph" class="graph">
<g id="viewport">
<title>MainPage.TaskOpenPanelController.UpdateButtons</title>
<polygon fill="white" stroke="transparent" points="-4,4 -4,-232 3387,-232 3387,4 -4,4"/>
<!-- Node1 -->
<g id="node1" class="node">
<title>Node1</title>
<g id="a_node1"><a xlink:title="Update the buttons with the appropriate color based on the current task">
<polygon fill="#bfbfbf" stroke="black" points="3120,-52.5 3120,-71.5 3383,-71.5 3383,-52.5 3120,-52.5"/>
<text text-anchor="middle" x="3251.5" y="-59.5" font-family="Helvetica,sans-Serif" font-size="10.00">MainPage.TaskOpenPanelController.UpdateButtons</text>
</a>
</g>
</g>
<!-- Node2 -->
<g id="node2" class="node">
<title>Node2</title>
<g id="a_node2"><a xlink:href="classMainPage_1_1TaskOpenPanelController.html#a5513399c20f650915ca10f54805f416e" target="_top" xlink:title="Make this task a bad habit">
<polygon fill="white" stroke="black" points="2814,-90.5 2814,-109.5 3083,-109.5 3083,-90.5 2814,-90.5"/>
<text text-anchor="middle" x="2948.5" y="-97.5" font-family="Helvetica,sans-Serif" font-size="10.00">MainPage.TaskOpenPanelController.MakeItBadHabit</text>
</a>
</g>
</g>
<!-- Node1&#45;&gt;Node2 -->
<g id="edge1" class="edge">
<title>Node1&#45;&gt;Node2</title>
<path fill="none" stroke="midnightblue" d="M3164.8,-72.82C3120.68,-78.39 3067.37,-85.12 3024.84,-90.49"/>
<polygon fill="midnightblue" stroke="midnightblue" points="3165.45,-76.26 3174.93,-71.54 3164.57,-69.32 3165.45,-76.26"/>
</g>
<!-- Node21 -->
<g id="node21" class="node">
<title>Node21</title>
<g id="a_node21"><a xlink:href="classMainPage_1_1TaskOpenPanelController.html#a069a63e2b7e70cc4cb4c7e487b655700" target="_top" xlink:title="Make it a good task">
<polygon fill="white" stroke="black" points="2813,-52.5 2813,-71.5 3084,-71.5 3084,-52.5 2813,-52.5"/>
<text text-anchor="middle" x="2948.5" y="-59.5" font-family="Helvetica,sans-Serif" font-size="10.00">MainPage.TaskOpenPanelController.MakeItGoodTask</text>
</a>
</g>
</g>
<!-- Node1&#45;&gt;Node21 -->
<g id="edge24" class="edge">
<title>Node1&#45;&gt;Node21</title>
<path fill="none" stroke="midnightblue" d="M3109.58,-62C3101.18,-62 3092.74,-62 3084.37,-62"/>
<polygon fill="midnightblue" stroke="midnightblue" points="3109.79,-65.5 3119.79,-62 3109.79,-58.5 3109.79,-65.5"/>
</g>
<!-- Node23 -->
<g id="node23" class="node">
<title>Node23</title>
<g id="a_node23"><a xlink:href="classMainPage_1_1TaskOpenPanelController.html#a13659849ee225fadbba37d11680d3be2" target="_top" xlink:title="Open&#39;s the panel with the task&#39;s values added also">
<polygon fill="white" stroke="black" points="2833.5,-14.5 2833.5,-33.5 3063.5,-33.5 3063.5,-14.5 2833.5,-14.5"/>
<text text-anchor="middle" x="2948.5" y="-21.5" font-family="Helvetica,sans-Serif" font-size="10.00">MainPage.TaskOpenPanelController.OpenUp</text>
</a>
</g>
</g>
<!-- Node1&#45;&gt;Node23 -->
<g id="edge30" class="edge">
<title>Node1&#45;&gt;Node23</title>
<path fill="none" stroke="midnightblue" d="M3164.8,-51.18C3120.68,-45.61 3067.37,-38.88 3024.84,-33.51"/>
<polygon fill="midnightblue" stroke="midnightblue" points="3164.57,-54.68 3174.93,-52.46 3165.45,-47.74 3164.57,-54.68"/>
</g>
<!-- Node3 -->
<g id="node3" class="node">
<title>Node3</title>
<g id="a_node3"><a xlink:href="classMainPage_1_1MainWindowController.html#a241b480aeebdab1bc34320cad8de7712" target="_top" xlink:title="Load the good habits">
<polygon fill="white" stroke="black" points="2522,-90.5 2522,-109.5 2776,-109.5 2776,-90.5 2522,-90.5"/>
<text text-anchor="middle" x="2649" y="-97.5" font-family="Helvetica,sans-Serif" font-size="10.00">MainPage.MainWindowController.LoadBadHabits</text>
</a>
</g>
</g>
<!-- Node2&#45;&gt;Node3 -->
<g id="edge2" class="edge">
<title>Node2&#45;&gt;Node3</title>
<path fill="none" stroke="midnightblue" d="M2803.69,-93.25C2794.56,-93.24 2785.41,-93.26 2776.37,-93.32"/>
<polygon fill="midnightblue" stroke="midnightblue" points="2803.97,-96.75 2813.98,-93.28 2803.99,-89.75 2803.97,-96.75"/>
</g>
<!-- Node3&#45;&gt;Node2 -->
<g id="edge6" class="edge">
<title>Node3&#45;&gt;Node2</title>
<path fill="none" stroke="midnightblue" d="M2786.61,-106.73C2795.72,-106.76 2804.89,-106.76 2813.98,-106.72"/>
<polygon fill="midnightblue" stroke="midnightblue" points="2786.38,-103.23 2776.37,-106.68 2786.35,-110.23 2786.38,-103.23"/>
</g>
<!-- Node4 -->
<g id="node4" class="node">
<title>Node4</title>
<g id="a_node4"><a xlink:href="classMainPage_1_1TaskOpenPanelController.html#af1b5c03c4cfe46084a34093435f79fee" target="_top" xlink:title="Cancel this edit/task creation">
<polygon fill="white" stroke="black" points="2244.5,-52.5 2244.5,-71.5 2468.5,-71.5 2468.5,-52.5 2244.5,-52.5"/>
<text text-anchor="middle" x="2356.5" y="-59.5" font-family="Helvetica,sans-Serif" font-size="10.00">MainPage.TaskOpenPanelController.Cancel</text>
</a>
</g>
</g>
<!-- Node3&#45;&gt;Node4 -->
<g id="edge3" class="edge">
<title>Node3&#45;&gt;Node4</title>
<path fill="none" stroke="midnightblue" d="M2565.02,-89.15C2522.49,-83.58 2471.17,-76.87 2430.21,-71.51"/>
<polygon fill="midnightblue" stroke="midnightblue" points="2564.7,-92.63 2575.07,-90.46 2565.61,-85.69 2564.7,-92.63"/>
</g>
<!-- Node7 -->
<g id="node7" class="node">
<title>Node7</title>
<g id="a_node7"><a xlink:href="classMainPage_1_1MainWindowController.html#a85072f5d92f4145d6213209a13936639" target="_top" xlink:title="Refreshes the tasks with the proper sorting order">
<polygon fill="white" stroke="black" points="2228,-99.5 2228,-118.5 2485,-118.5 2485,-99.5 2228,-99.5"/>
<text text-anchor="middle" x="2356.5" y="-106.5" font-family="Helvetica,sans-Serif" font-size="10.00">MainPage.MainWindowController.SortingChanged</text>
</a>
</g>
</g>
<!-- Node3&#45;&gt;Node7 -->
<g id="edge7" class="edge">
<title>Node3&#45;&gt;Node7</title>
<path fill="none" stroke="midnightblue" d="M2511.61,-104.23C2502.86,-104.5 2494.07,-104.77 2485.36,-105.04"/>
<polygon fill="midnightblue" stroke="midnightblue" points="2511.96,-107.72 2521.85,-103.91 2511.75,-100.72 2511.96,-107.72"/>
</g>
<!-- Node5 -->
<g id="node5" class="node">
<title>Node5</title>
<g id="a_node5"><a xlink:href="classMainPage_1_1TaskOpenPanelController.html#a254ff7d6e427208a7f9ae3bec5ae7ba7" target="_top" xlink:title="After the task were deleted from the server delete it also from the client">
<polygon fill="white" stroke="black" points="1929,-33.5 1929,-52.5 2180,-52.5 2180,-33.5 1929,-33.5"/>
<text text-anchor="middle" x="2054.5" y="-40.5" font-family="Helvetica,sans-Serif" font-size="10.00">MainPage.TaskOpenPanelController.DeletedTask</text>
</a>
</g>
</g>
<!-- Node4&#45;&gt;Node5 -->
<g id="edge4" class="edge">
<title>Node4&#45;&gt;Node5</title>
<path fill="none" stroke="midnightblue" d="M2233.88,-54.3C2216.2,-53.18 2197.98,-52.02 2180.24,-50.9"/>
<polygon fill="midnightblue" stroke="midnightblue" points="2234.02,-57.81 2244.22,-54.95 2234.46,-50.83 2234.02,-57.81"/>
</g>
<!-- Node6 -->
<g id="node6" class="node">
<title>Node6</title>
<g id="a_node6"><a xlink:href="classMainPage_1_1TaskOpenPanelController.html#a3107b94793886f6af28ac9415fb44370" target="_top" xlink:title="Send a delete task request to the server">
<polygon fill="white" stroke="black" points="1619.5,-28.5 1619.5,-47.5 1864.5,-47.5 1864.5,-28.5 1619.5,-28.5"/>
<text text-anchor="middle" x="1742" y="-35.5" font-family="Helvetica,sans-Serif" font-size="10.00">MainPage.TaskOpenPanelController.DeleteTask</text>
</a>
</g>
</g>
<!-- Node5&#45;&gt;Node6 -->
<g id="edge5" class="edge">
<title>Node5&#45;&gt;Node6</title>
<path fill="none" stroke="midnightblue" d="M1918.77,-40.83C1900.81,-40.54 1882.47,-40.25 1864.75,-39.96"/>
<polygon fill="midnightblue" stroke="midnightblue" points="1918.94,-44.33 1929,-41 1919.05,-37.33 1918.94,-44.33"/>
</g>
<!-- Node8 -->
<g id="node8" class="node">
<title>Node8</title>
<g id="a_node8"><a xlink:href="classMainPage_1_1TaskDisplayHandler.html#a754a230e53cedd3209a29d4d6a743719" target="_top" xlink:title="When the complete state is changed update the display to match it">
<polygon fill="white" stroke="black" points="1917,-104.5 1917,-123.5 2192,-123.5 2192,-104.5 1917,-104.5"/>
<text text-anchor="middle" x="2054.5" y="-111.5" font-family="Helvetica,sans-Serif" font-size="10.00">MainPage.TaskDisplayHandler.CompleteStateChange</text>
</a>
</g>
</g>
<!-- Node7&#45;&gt;Node8 -->
<g id="edge8" class="edge">
<title>Node7&#45;&gt;Node8</title>
<path fill="none" stroke="midnightblue" d="M2217.56,-111.3C2209.11,-111.44 2200.61,-111.58 2192.17,-111.72"/>
<polygon fill="midnightblue" stroke="midnightblue" points="2217.9,-114.79 2227.84,-111.13 2217.78,-107.79 2217.9,-114.79"/>
</g>
<!-- Node14 -->
<g id="node14" class="node">
<title>Node14</title>
<g id="a_node14"><a xlink:href="classMainPage_1_1TaskOpenPanelController.html#a750d1acc6fd173296467fb9aca366a3d" target="_top" xlink:title="When the task was stored on the server show it also visually and close the panel">
<polygon fill="white" stroke="black" points="519.5,-142.5 519.5,-161.5 761.5,-161.5 761.5,-142.5 519.5,-142.5"/>
<text text-anchor="middle" x="640.5" y="-149.5" font-family="Helvetica,sans-Serif" font-size="10.00">MainPage.TaskOpenPanelController.SavedTask</text>
</a>
</g>
</g>
<!-- Node7&#45;&gt;Node14 -->
<g id="edge23" class="edge">
<title>Node7&#45;&gt;Node14</title>
<path fill="none" stroke="midnightblue" d="M2317.4,-121.71C2221.88,-152.39 1964.05,-228 1743,-228 1743,-228 1743,-228 1188,-228 997.14,-228 772.32,-181.96 682.02,-161.55"/>
<polygon fill="midnightblue" stroke="midnightblue" points="2318.75,-124.95 2327.18,-118.54 2316.59,-118.29 2318.75,-124.95"/>
</g>
<!-- Node9 -->
<g id="node9" class="node">
<title>Node9</title>
<g id="a_node9"><a xlink:href="classMainPage_1_1TaskDisplayHandler.html#a8aedc4afb32d220352cf04cc77fdedf6" target="_top" xlink:title="Init it with the task to display and references to the controls">
<polygon fill="white" stroke="black" points="1082,-104.5 1082,-123.5 1296,-123.5 1296,-104.5 1082,-104.5"/>
<text text-anchor="middle" x="1189" y="-111.5" font-family="Helvetica,sans-Serif" font-size="10.00">MainPage.TaskDisplayHandler.InitValues</text>
</a>
</g>
</g>
<!-- Node8&#45;&gt;Node9 -->
<g id="edge9" class="edge">
<title>Node8&#45;&gt;Node9</title>
<path fill="none" stroke="midnightblue" d="M1973.08,-103.29C1944.11,-99.92 1911.14,-96.65 1881,-95 1637.37,-81.62 1575.46,-78.78 1332,-95 1304.2,-96.85 1273.55,-100.72 1247.86,-104.49"/>
<polygon fill="midnightblue" stroke="midnightblue" points="1972.8,-106.78 1983.15,-104.48 1973.63,-99.83 1972.8,-106.78"/>
</g>
<!-- Node16 -->
<g id="node16" class="node">
<title>Node16</title>
<g id="a_node16"><a xlink:href="classMainPage_1_1TaskDisplayHandler.html#a98b63052d0efc73233a32b69a06bf68e" target="_top" xlink:title="When the complete acknowledge were recieved from the server update the display">
<polygon fill="white" stroke="black" points="1621.5,-161.5 1621.5,-180.5 1862.5,-180.5 1862.5,-161.5 1621.5,-161.5"/>
<text text-anchor="middle" x="1742" y="-168.5" font-family="Helvetica,sans-Serif" font-size="10.00">MainPage.TaskDisplayHandler.TaskCompleted</text>
</a>
</g>
</g>
<!-- Node8&#45;&gt;Node16 -->
<g id="edge16" class="edge">
<title>Node8&#45;&gt;Node16</title>
<path fill="none" stroke="midnightblue" d="M1991.46,-125.39C1933.83,-135.97 1849,-151.54 1794.88,-161.48"/>
<polygon fill="midnightblue" stroke="midnightblue" points="1992.33,-128.79 2001.53,-123.54 1991.06,-121.9 1992.33,-128.79"/>
</g>
<!-- Node18 -->
<g id="node18" class="node">
<title>Node18</title>
<g id="a_node18"><a xlink:href="classMainPage_1_1TaskDisplayHandler.html#aa63f1bc894519b9d5872c2bb50b84415" target="_top" xlink:title="Update the time remaining until the task can be completed again">
<polygon fill="white" stroke="black" points="1603,-104.5 1603,-123.5 1881,-123.5 1881,-104.5 1603,-104.5"/>
<text text-anchor="middle" x="1742" y="-111.5" font-family="Helvetica,sans-Serif" font-size="10.00">MainPage.TaskDisplayHandler.UpdateTimeRemaining</text>
</a>
</g>
</g>
<!-- Node8&#45;&gt;Node18 -->
<g id="edge18" class="edge">
<title>Node8&#45;&gt;Node18</title>
<path fill="none" stroke="midnightblue" d="M1906.81,-107.26C1898.23,-107.24 1889.61,-107.25 1881.07,-107.29"/>
<polygon fill="midnightblue" stroke="midnightblue" points="1906.85,-110.76 1916.86,-107.29 1906.87,-103.76 1906.85,-110.76"/>
</g>
<!-- Node10 -->
<g id="node10" class="node">
<title>Node10</title>
<g id="a_node10"><a xlink:href="classMainPage_1_1MainWindowController.html#a827f62c47eb691eadd994bd51bf7cb74" target="_top" xlink:title="Creates a new task prefab to display">
<polygon fill="white" stroke="black" points="812,-104.5 812,-123.5 1046,-123.5 1046,-104.5 812,-104.5"/>
<text text-anchor="middle" x="929" y="-111.5" font-family="Helvetica,sans-Serif" font-size="10.00">MainPage.MainWindowController.CreateTask</text>
</a>
</g>
</g>
<!-- Node9&#45;&gt;Node10 -->
<g id="edge10" class="edge">
<title>Node9&#45;&gt;Node10</title>
<path fill="none" stroke="midnightblue" d="M1071.92,-114C1063.35,-114 1054.7,-114 1046.12,-114"/>
<polygon fill="midnightblue" stroke="midnightblue" points="1071.94,-117.5 1081.94,-114 1071.94,-110.5 1071.94,-117.5"/>
</g>
<!-- Node11 -->
<g id="node11" class="node">
<title>Node11</title>
<g id="a_node11"><a xlink:href="classMainPage_1_1MainWindowController.html#ab40b51689d2d8ca0497b0e53128f4992" target="_top" xlink:title="Create the task prefabs">
<polygon fill="white" stroke="black" points="505,-47.5 505,-66.5 776,-66.5 776,-47.5 505,-47.5"/>
<text text-anchor="middle" x="640.5" y="-54.5" font-family="Helvetica,sans-Serif" font-size="10.00">MainPage.MainWindowController.CreateTaskPrefabs</text>
</a>
</g>
</g>
<!-- Node10&#45;&gt;Node11 -->
<g id="edge11" class="edge">
<title>Node10&#45;&gt;Node11</title>
<path fill="none" stroke="midnightblue" d="M870.11,-102.48C817.03,-91.92 739.35,-76.47 689.61,-66.57"/>
<polygon fill="midnightblue" stroke="midnightblue" points="869.56,-105.94 880.05,-104.46 870.92,-99.08 869.56,-105.94"/>
</g>
<!-- Node10&#45;&gt;Node14 -->
<g id="edge14" class="edge">
<title>Node10&#45;&gt;Node14</title>
<path fill="none" stroke="midnightblue" d="M845.92,-124.89C804.1,-130.43 753.73,-137.11 713.46,-142.46"/>
<polygon fill="midnightblue" stroke="midnightblue" points="846.62,-128.32 856.07,-123.54 845.7,-121.39 846.62,-128.32"/>
</g>
<!-- Node12 -->
<g id="node12" class="node">
<title>Node12</title>
<g id="a_node12"><a xlink:href="classMainPage_1_1MainWindowController.html#a47c21c97b7ba52af405119044e1434d0" target="_top" xlink:title="Load the tasks from the server">
<polygon fill="white" stroke="black" points="239,-47.5 239,-66.5 469,-66.5 469,-47.5 239,-47.5"/>
<text text-anchor="middle" x="354" y="-54.5" font-family="Helvetica,sans-Serif" font-size="10.00">MainPage.MainWindowController.LoadTasks</text>
</a>
</g>
</g>
<!-- Node11&#45;&gt;Node12 -->
<g id="edge12" class="edge">
<title>Node11&#45;&gt;Node12</title>
<path fill="none" stroke="midnightblue" d="M494.68,-57C486.1,-57 477.54,-57 469.11,-57"/>
<polygon fill="midnightblue" stroke="midnightblue" points="494.75,-60.5 504.75,-57 494.75,-53.5 494.75,-60.5"/>
</g>
<!-- Node13 -->
<g id="node13" class="node">
<title>Node13</title>
<g id="a_node13"><a xlink:href="classMainPage_1_1MainWindowController.html#acea2170099ea435298139c6c7fdce719" target="_top" xlink:title="Start is called before the first frame update">
<polygon fill="white" stroke="black" points="0,-47.5 0,-66.5 203,-66.5 203,-47.5 0,-47.5"/>
<text text-anchor="middle" x="101.5" y="-54.5" font-family="Helvetica,sans-Serif" font-size="10.00">MainPage.MainWindowController.Start</text>
</a>
</g>
</g>
<!-- Node12&#45;&gt;Node13 -->
<g id="edge13" class="edge">
<title>Node12&#45;&gt;Node13</title>
<path fill="none" stroke="midnightblue" d="M228.71,-57C220.15,-57 211.58,-57 203.16,-57"/>
<polygon fill="midnightblue" stroke="midnightblue" points="228.75,-60.5 238.75,-57 228.75,-53.5 228.75,-60.5"/>
</g>
<!-- Node15 -->
<g id="node15" class="node">
<title>Node15</title>
<g id="a_node15"><a xlink:href="classMainPage_1_1TaskOpenPanelController.html#ab8def75cd4cdbdaf3033022ea114a8a6" target="_top" xlink:title="Save the task to the server">
<polygon fill="white" stroke="black" points="246.5,-142.5 246.5,-161.5 461.5,-161.5 461.5,-142.5 246.5,-142.5"/>
<text text-anchor="middle" x="354" y="-149.5" font-family="Helvetica,sans-Serif" font-size="10.00">MainPage.TaskOpenPanelController.Save</text>
</a>
</g>
</g>
<!-- Node14&#45;&gt;Node15 -->
<g id="edge15" class="edge">
<title>Node14&#45;&gt;Node15</title>
<path fill="none" stroke="midnightblue" d="M508.91,-152C493.12,-152 477.13,-152 461.73,-152"/>
<polygon fill="midnightblue" stroke="midnightblue" points="509.26,-155.5 519.26,-152 509.26,-148.5 509.26,-155.5"/>
</g>
<!-- Node17 -->
<g id="node17" class="node">
<title>Node17</title>
<g id="a_node17"><a xlink:href="classMainPage_1_1TaskDisplayHandler.html#ab553f8eb77d9d038521af3813275a43d" target="_top" xlink:title="Complete the task and send this to the server">
<polygon fill="white" stroke="black" points="1332,-180.5 1332,-199.5 1567,-199.5 1567,-180.5 1332,-180.5"/>
<text text-anchor="middle" x="1449.5" y="-187.5" font-family="Helvetica,sans-Serif" font-size="10.00">MainPage.TaskDisplayHandler.CompleteTask</text>
</a>
</g>
</g>
<!-- Node16&#45;&gt;Node17 -->
<g id="edge17" class="edge">
<title>Node16&#45;&gt;Node17</title>
<path fill="none" stroke="midnightblue" d="M1611.09,-179.5C1596.49,-180.45 1581.68,-181.42 1567.25,-182.36"/>
<polygon fill="midnightblue" stroke="midnightblue" points="1611.42,-182.98 1621.17,-178.84 1610.96,-176 1611.42,-182.98"/>
</g>
<!-- Node18&#45;&gt;Node8 -->
<g id="edge19" class="edge">
<title>Node18&#45;&gt;Node8</title>
<path fill="none" stroke="midnightblue" d="M1891.12,-120.74C1899.71,-120.76 1908.32,-120.75 1916.86,-120.71"/>
<polygon fill="midnightblue" stroke="midnightblue" points="1891.08,-117.24 1881.07,-120.71 1891.06,-124.24 1891.08,-117.24"/>
</g>
<!-- Node19 -->
<g id="node19" class="node">
<title>Node19</title>
<g id="a_node19"><a xlink:href="classMainPage_1_1TaskDisplayHandler.html#a19067f6c6b504e4947d9473721e6877f" target="_top" xlink:title="Called every frame if it has been completed update the remaining time">
<polygon fill="white" stroke="black" points="1349,-104.5 1349,-123.5 1550,-123.5 1550,-104.5 1349,-104.5"/>
<text text-anchor="middle" x="1449.5" y="-111.5" font-family="Helvetica,sans-Serif" font-size="10.00">MainPage.TaskDisplayHandler.Update</text>
</a>
</g>
</g>
<!-- Node18&#45;&gt;Node19 -->
<g id="edge20" class="edge">
<title>Node18&#45;&gt;Node19</title>
<path fill="none" stroke="midnightblue" d="M1592.93,-114C1578.4,-114 1563.91,-114 1550.05,-114"/>
<polygon fill="midnightblue" stroke="midnightblue" points="1592.98,-117.5 1602.98,-114 1592.98,-110.5 1592.98,-117.5"/>
</g>
<!-- Node20 -->
<g id="node20" class="node">
<title>Node20</title>
<g id="a_node20"><a xlink:href="classMainPage_1_1TaskDisplayHandler.html#ac3773b76adb09298978a65c89136c20f" target="_top" xlink:title="Update the task&#39;s labels">
<polygon fill="white" stroke="black" points="1333,-142.5 1333,-161.5 1566,-161.5 1566,-142.5 1333,-142.5"/>
<text text-anchor="middle" x="1449.5" y="-149.5" font-family="Helvetica,sans-Serif" font-size="10.00">MainPage.TaskDisplayHandler.UpdateLabels</text>
</a>
</g>
</g>
<!-- Node18&#45;&gt;Node20 -->
<g id="edge21" class="edge">
<title>Node18&#45;&gt;Node20</title>
<path fill="none" stroke="midnightblue" d="M1658.02,-124.85C1615.49,-130.42 1564.17,-137.13 1523.21,-142.49"/>
<polygon fill="midnightblue" stroke="midnightblue" points="1658.61,-128.31 1668.07,-123.54 1657.7,-121.37 1658.61,-128.31"/>
</g>
<!-- Node20&#45;&gt;Node9 -->
<g id="edge22" class="edge">
<title>Node20&#45;&gt;Node9</title>
<path fill="none" stroke="midnightblue" d="M1373.24,-140.94C1335.75,-135.43 1290.88,-128.83 1254.92,-123.54"/>
<polygon fill="midnightblue" stroke="midnightblue" points="1373.2,-144.47 1383.6,-142.46 1374.22,-137.54 1373.2,-144.47"/>
</g>
<!-- Node22 -->
<g id="node22" class="node">
<title>Node22</title>
<g id="a_node22"><a xlink:href="classMainPage_1_1MainWindowController.html#ab5b80370512cd4273e86927fe696462d" target="_top" xlink:title="Load the good tasks">
<polygon fill="white" stroke="black" points="2521,-52.5 2521,-71.5 2777,-71.5 2777,-52.5 2521,-52.5"/>
<text text-anchor="middle" x="2649" y="-59.5" font-family="Helvetica,sans-Serif" font-size="10.00">MainPage.MainWindowController.LoadGoodTasks</text>
</a>
</g>
</g>
<!-- Node21&#45;&gt;Node22 -->
<g id="edge25" class="edge">
<title>Node21&#45;&gt;Node22</title>
<path fill="none" stroke="midnightblue" d="M2802.67,-55.25C2794.13,-55.24 2785.57,-55.26 2777.11,-55.31"/>
<polygon fill="midnightblue" stroke="midnightblue" points="2802.67,-58.75 2812.68,-55.28 2802.69,-51.75 2802.67,-58.75"/>
</g>
<!-- Node22&#45;&gt;Node4 -->
<g id="edge26" class="edge">
<title>Node22&#45;&gt;Node4</title>
<path fill="none" stroke="midnightblue" d="M2510.46,-62C2496.52,-62 2482.49,-62 2468.87,-62"/>
<polygon fill="midnightblue" stroke="midnightblue" points="2510.58,-65.5 2520.58,-62 2510.58,-58.5 2510.58,-65.5"/>
</g>
<!-- Node22&#45;&gt;Node7 -->
<g id="edge29" class="edge">
<title>Node22&#45;&gt;Node7</title>
<path fill="none" stroke="midnightblue" d="M2572.04,-73.1C2555.22,-75.63 2537.5,-78.35 2521,-81 2484.46,-86.86 2443.41,-93.89 2411.58,-99.44"/>
<polygon fill="midnightblue" stroke="midnightblue" points="2573,-76.49 2582.37,-71.55 2571.96,-69.57 2573,-76.49"/>
</g>
<!-- Node22&#45;&gt;Node11 -->
<g id="edge27" class="edge">
<title>Node22&#45;&gt;Node11</title>
<path fill="none" stroke="midnightblue" d="M2583.33,-50.77C2474.66,-32.9 2248.37,0 2055.5,0 2055.5,0 2055.5,0 1188,0 1007.23,0 794.63,-31.23 696.38,-47.46"/>
<polygon fill="midnightblue" stroke="midnightblue" points="2583.03,-54.27 2593.47,-52.45 2584.18,-47.36 2583.03,-54.27"/>
</g>
<!-- Node22&#45;&gt;Node21 -->
<g id="edge28" class="edge">
<title>Node22&#45;&gt;Node21</title>
<path fill="none" stroke="midnightblue" d="M2787.36,-68.73C2795.79,-68.76 2804.26,-68.76 2812.68,-68.72"/>
<polygon fill="midnightblue" stroke="midnightblue" points="2787.13,-65.23 2777.11,-68.69 2787.09,-72.23 2787.13,-65.23"/>
</g>
</g>
</svg>
        <g id="navigator" transform="translate(0 0)" fill="#404254">
                <rect fill="#f2f5e9" fill-opacity="0.5" stroke="#606060" stroke-width=".5" x="0" y="0" width="60" height="60"/>
                <use id="zoomplus" xlink:href="#zoomPlus" x="17" y="9" onmousedown="handleZoom(evt,'in')"/>
                <use id="zoomminus" xlink:href="#zoomMin" x="42" y="9" onmousedown="handleZoom(evt,'out')"/>
                <use id="reset" xlink:href="#resetDef" x="30" y="36" onmousedown="handleReset()"/>
                <g id="arrowUp" xlink:href="#dirArrow" transform="translate(30 24)" onmousedown="handlePan(0,-1)">
                  <use xlink:href="#rim" fill="#404040">
                        <set attributeName="fill" to="#808080" begin="arrowUp.mouseover" end="arrowUp.mouseout"/>
                  </use>
                  <path fill="none" stroke="white" stroke-width="1.5" d="M0,-3.0v7 M-2.5,-0.5L0,-3.0L2.5,-0.5"/>
                </g>
                <g id="arrowRight" xlink:href="#dirArrow" transform="rotate(90) translate(36 -43)" onmousedown="handlePan(1,0)">
                  <use xlink:href="#rim" fill="#404040">
                        <set attributeName="fill" to="#808080" begin="arrowRight.mouseover" end="arrowRight.mouseout"/>
                  </use>
                  <path fill="none" stroke="white" stroke-width="1.5" d="M0,-3.0v7 M-2.5,-0.5L0,-3.0L2.5,-0.5"/>
                </g>
                <g id="arrowDown" xlink:href="#dirArrow" transform="rotate(180) translate(-30 -48)" onmousedown="handlePan(0,1)">
                  <use xlink:href="#rim" fill="#404040">
                        <set attributeName="fill" to="#808080" begin="arrowDown.mouseover" end="arrowDown.mouseout"/>
                  </use>
                  <path fill="none" stroke="white" stroke-width="1.5" d="M0,-3.0v7 M-2.5,-0.5L0,-3.0L2.5,-0.5"/>
                </g>
                <g id="arrowLeft" xlink:href="#dirArrow" transform="rotate(270) translate(-36 17)" onmousedown="handlePan(-1,0)">
                  <use xlink:href="#rim" fill="#404040">
                        <set attributeName="fill" to="#808080" begin="arrowLeft.mouseover" end="arrowLeft.mouseout"/>
                  </use>
                  <path fill="none" stroke="white" stroke-width="1.5" d="M0,-3.0v7 M-2.5,-0.5L0,-3.0L2.5,-0.5"/>
                </g>
        </g>
        <svg viewBox="0 0 15 15" width="100%" height="30px" preserveAspectRatio="xMaxYMin meet">
         <g id="arrow_out" transform="scale(0.3 0.3)">
          <a xlink:href="classMainPage_1_1TaskOpenPanelController_aa0b6757dbad141375c50282278b23b1a_icgraph_org.svg" target="_base">
           <rect id="button" ry="5" rx="5" y="6" x="6" height="38" width="38"
                fill="#f2f5e9" fill-opacity="0.5" stroke="#606060" stroke-width="1.0"/>
           <path id="arrow"
             d="M 11.500037,31.436501 C 11.940474,20.09759 22.043105,11.32322 32.158766,21.979434 L 37.068811,17.246167 C 37.068811,17.246167 37.088388,32 37.088388,32 L 22.160133,31.978069 C 22.160133,31.978069 26.997745,27.140456 26.997745,27.140456 C 18.528582,18.264221 13.291696,25.230495 11.500037,31.436501 z"
             style="fill:#404040;"/>
          </a>
         </g>
        </svg>
</svg>
