<?xml version="1.0" encoding="UTF-8" standalone="no"?>
<!DOCTYPE svg PUBLIC "-//W3C//DTD SVG 1.1//EN"
 "http://www.w3.org/Graphics/SVG/1.1/DTD/svg11.dtd">
<!-- Generated by graphviz version 2.43.0 (0)
 -->
<!-- Title: User.LoggedInChecker Pages: 1 -->
<svg width="315pt" height="287pt"
 viewBox="0.00 0.00 315.00 287.00" xmlns="http://www.w3.org/2000/svg" xmlns:xlink="http://www.w3.org/1999/xlink">
<g id="graph0" class="graph" transform="scale(1 1) rotate(0) translate(4 283)">
<title>User.LoggedInChecker</title>
<!-- Node1 -->
<g id="Node000001" class="node">
<title>Node1</title>
<g id="a_Node000001"><a xlink:title="Checks if the user has a session stored in the backend.">
<polygon fill="#999999" stroke="transparent" points="307,-109 0,-109 0,0 307,0 307,-109"/>
<text text-anchor="start" x="99.5" y="-96.5" font-family="Helvetica,sans-Serif" font-size="10.00">User.LoggedInChecker</text>
<text text-anchor="start" x="152" y="-81.5" font-family="Helvetica,sans-Serif" font-size="10.00"> </text>
<text text-anchor="start" x="4.5" y="-66.5" font-family="Helvetica,sans-Serif" font-size="10.00">&#45;</text>
<text text-anchor="start" x="12.5" y="-66.5" font-family="Helvetica,sans-Serif" font-size="10.00">void Awake()</text>
<text text-anchor="start" x="4.5" y="-51.5" font-family="Helvetica,sans-Serif" font-size="10.00">&#45;</text>
<text text-anchor="start" x="12.5" y="-51.5" font-family="Helvetica,sans-Serif" font-size="10.00">IEnumerator CheckLoggedInPeriodically()</text>
<text text-anchor="start" x="4.5" y="-36.5" font-family="Helvetica,sans-Serif" font-size="10.00">&#45;</text>
<text text-anchor="start" x="12.5" y="-36.5" font-family="Helvetica,sans-Serif" font-size="10.00">void LoggedOut(string reason)</text>
<text text-anchor="start" x="4.5" y="-21.5" font-family="Helvetica,sans-Serif" font-size="10.00">&#45;</text>
<text text-anchor="start" x="12.5" y="-21.5" font-family="Helvetica,sans-Serif" font-size="10.00">IEnumerator MoveToLoginScene()</text>
<text text-anchor="start" x="4.5" y="-6.5" font-family="Helvetica,sans-Serif" font-size="10.00">&#45;</text>
<text text-anchor="start" x="12.5" y="-6.5" font-family="Helvetica,sans-Serif" font-size="10.00">void LoggedIn(Thesis_backend.Data_Structures.User result)</text>
<polygon fill="#666666" stroke="#666666" points="0.5,-91.5 0.5,-91.5 307.5,-91.5 307.5,-91.5 0.5,-91.5"/>
<polygon fill="#666666" stroke="#666666" points="0.5,-76.5 0.5,-76.5 307.5,-76.5 307.5,-76.5 0.5,-76.5"/>
<polygon fill="none" stroke="#666666" points="0,0 0,-109 307,-109 307,0 0,0"/>
</a>
</g>
</g>
<!-- Node2 -->
<g id="Node000002" class="node">
<title>Node2</title>
<g id="a_Node000002"><a xlink:href="classUtility_1_1ThreadSafeMonoBehaviour.html" target="_top" xlink:title="Safely stores if the gameobject been destroyed in a bool.">
<polygon fill="white" stroke="transparent" points="225,-194 82,-194 82,-145 225,-145 225,-194"/>
<text text-anchor="start" x="87.5" y="-181.5" font-family="Helvetica,sans-Serif" font-size="10.00">ThreadSafeMonoBehaviour</text>
<text text-anchor="start" x="96" y="-166.5" font-family="Helvetica,sans-Serif" font-size="10.00">+</text>
<text text-anchor="start" x="118.5" y="-166.5" font-family="Helvetica,sans-Serif" font-size="10.00">bool Destroyed</text>
<text text-anchor="start" x="96" y="-151.5" font-family="Helvetica,sans-Serif" font-size="10.00">#</text>
<text text-anchor="start" x="118.5" y="-151.5" font-family="Helvetica,sans-Serif" font-size="10.00">void OnDestroy()</text>
<polygon fill="#666666" stroke="#666666" points="82.5,-176.5 82.5,-176.5 225.5,-176.5 225.5,-176.5 82.5,-176.5"/>
<polygon fill="#666666" stroke="#666666" points="82.5,-161.5 82.5,-161.5 116.5,-161.5 116.5,-161.5 82.5,-161.5"/>
<polygon fill="#666666" stroke="#666666" points="116.5,-161.5 116.5,-161.5 225.5,-161.5 225.5,-161.5 116.5,-161.5"/>
<polygon fill="none" stroke="#666666" points="82,-145 82,-194 225,-194 225,-145 82,-145"/>
</a>
</g>
</g>
<!-- Node2&#45;&gt;Node1 -->
<g id="edge1_Node000001_Node000002" class="edge">
<title>Node2&#45;&gt;Node1</title>
<g id="a_edge1_Node000001_Node000002"><a xlink:title=" ">
<path fill="none" stroke="#63b8ff" d="M153.5,-134.79C153.5,-126.79 153.5,-118.06 153.5,-109.41"/>
<polygon fill="none" stroke="#63b8ff" points="150,-134.81 153.5,-144.81 157,-134.81 150,-134.81"/>
</a>
</g>
</g>
<!-- Node3 -->
<g id="Node000003" class="node">
<title>Node3</title>
<g id="a_Node000003"><a xlink:title=" ">
<polygon fill="white" stroke="transparent" points="197,-279 110,-279 110,-230 197,-230 197,-279"/>
<text text-anchor="start" x="115.5" y="-266.5" font-family="Helvetica,sans-Serif" font-size="10.00">MonoBehaviour</text>
<text text-anchor="start" x="152" y="-251.5" font-family="Helvetica,sans-Serif" font-size="10.00"> </text>
<text text-anchor="start" x="152" y="-236.5" font-family="Helvetica,sans-Serif" font-size="10.00"> </text>
<polygon fill="#666666" stroke="#666666" points="110.5,-261.5 110.5,-261.5 197.5,-261.5 197.5,-261.5 110.5,-261.5"/>
<polygon fill="#666666" stroke="#666666" points="110.5,-246.5 110.5,-246.5 197.5,-246.5 197.5,-246.5 110.5,-246.5"/>
<polygon fill="none" stroke="#666666" points="110,-230 110,-279 197,-279 197,-230 110,-230"/>
</a>
</g>
</g>
<!-- Node3&#45;&gt;Node2 -->
<g id="edge2_Node000002_Node000003" class="edge">
<title>Node3&#45;&gt;Node2</title>
<g id="a_edge2_Node000002_Node000003"><a xlink:title=" ">
<path fill="none" stroke="#63b8ff" d="M153.5,-219.77C153.5,-211.17 153.5,-202.1 153.5,-194.12"/>
<polygon fill="none" stroke="#63b8ff" points="150,-219.94 153.5,-229.94 157,-219.94 150,-219.94"/>
</a>
</g>
</g>
</g>
</svg>
