<?xml version="1.0" encoding="UTF-8" standalone="no"?>
<!DOCTYPE svg PUBLIC "-//W3C//DTD SVG 1.1//EN"
 "http://www.w3.org/Graphics/SVG/1.1/DTD/svg11.dtd">
<!-- Generated by graphviz version 2.43.0 (0)
 -->
<!-- Title: MainPage.TaskDisplayHandler.UpdateTimeRemaining Pages: 1 -->
<svg width="1788pt" height="64pt"
 viewBox="0.00 0.00 1788.00 64.00" xmlns="http://www.w3.org/2000/svg" xmlns:xlink="http://www.w3.org/1999/xlink">
<g id="graph0" class="graph" transform="scale(1 1) rotate(0) translate(4 60)">
<title>MainPage.TaskDisplayHandler.UpdateTimeRemaining</title>
<!-- Node1 -->
<g id="Node000001" class="node">
<title>Node1</title>
<g id="a_Node000001"><a xlink:title="Update the time remaining until the task can be completed again.">
<polygon fill="#999999" stroke="#666666" points="278,-37 0,-37 0,-18 278,-18 278,-37"/>
<text text-anchor="middle" x="139" y="-25" font-family="Helvetica,sans-Serif" font-size="10.00">MainPage.TaskDisplayHandler.UpdateTimeRemaining</text>
</a>
</g>
</g>
<!-- Node2 -->
<g id="Node000002" class="node">
<title>Node2</title>
<g id="a_Node000002"><a xlink:href="classMainPage_1_1TaskDisplayHandler.html#a754a230e53cedd3209a29d4d6a743719" target="_top" xlink:title="When the complete state is changed update the display to match it.">
<polygon fill="white" stroke="#666666" points="589,-37 314,-37 314,-18 589,-18 589,-37"/>
<text text-anchor="middle" x="451.5" y="-25" font-family="Helvetica,sans-Serif" font-size="10.00">MainPage.TaskDisplayHandler.CompleteStateChange</text>
</a>
</g>
</g>
<!-- Node1&#45;&gt;Node2 -->
<g id="edge1_Node000001_Node000002" class="edge">
<title>Node1&#45;&gt;Node2</title>
<g id="a_edge1_Node000001_Node000002"><a xlink:title=" ">
<path fill="none" stroke="#63b8ff" d="M278.45,-20.79C286.84,-20.75 295.3,-20.74 303.73,-20.76"/>
<polygon fill="#63b8ff" stroke="#63b8ff" points="303.97,-24.26 313.98,-20.79 303.99,-17.26 303.97,-24.26"/>
</a>
</g>
</g>
<!-- Node2&#45;&gt;Node1 -->
<g id="edge11_Node000002_Node000001" class="edge">
<title>Node2&#45;&gt;Node1</title>
<g id="a_edge11_Node000002_Node000001"><a xlink:title=" ">
<path fill="none" stroke="#63b8ff" d="M313.98,-34.21C305.6,-34.25 297.14,-34.26 288.71,-34.24"/>
<polygon fill="#63b8ff" stroke="#63b8ff" points="288.46,-30.74 278.45,-34.21 288.44,-37.74 288.46,-30.74"/>
</a>
</g>
</g>
<!-- Node3 -->
<g id="Node000003" class="node">
<title>Node3</title>
<g id="a_Node000003"><a xlink:href="classMainPage_1_1MainWindowController.html#a85072f5d92f4145d6213209a13936639" target="_top" xlink:title="Refreshes the tasks with the proper sorting order.">
<polygon fill="white" stroke="#666666" points="882,-37 625,-37 625,-18 882,-18 882,-37"/>
<text text-anchor="middle" x="753.5" y="-25" font-family="Helvetica,sans-Serif" font-size="10.00">MainPage.MainWindowController.SortingChanged</text>
</a>
</g>
</g>
<!-- Node2&#45;&gt;Node3 -->
<g id="edge2_Node000002_Node000003" class="edge">
<title>Node2&#45;&gt;Node3</title>
<g id="a_edge2_Node000002_Node000003"><a xlink:title=" ">
<path fill="none" stroke="#63b8ff" d="M589.33,-27.5C597.68,-27.5 606.09,-27.5 614.44,-27.5"/>
<polygon fill="#63b8ff" stroke="#63b8ff" points="614.6,-31 624.6,-27.5 614.6,-24 614.6,-31"/>
</a>
</g>
</g>
<!-- Node4 -->
<g id="Node000004" class="node">
<title>Node4</title>
<g id="a_Node000004"><a xlink:href="classMainPage_1_1MainWindowController.html#a241b480aeebdab1bc34320cad8de7712" target="_top" xlink:title="Load the good habits.">
<polygon fill="white" stroke="#666666" points="1173,-56 919,-56 919,-37 1173,-37 1173,-56"/>
<text text-anchor="middle" x="1046" y="-44" font-family="Helvetica,sans-Serif" font-size="10.00">MainPage.MainWindowController.LoadBadHabits</text>
</a>
</g>
</g>
<!-- Node3&#45;&gt;Node4 -->
<g id="edge3_Node000003_Node000004" class="edge">
<title>Node3&#45;&gt;Node4</title>
<g id="a_edge3_Node000003_Node000004"><a xlink:title=" ">
<path fill="none" stroke="#63b8ff" d="M882.34,-35.86C890.98,-36.43 899.71,-37 908.4,-37.57"/>
<polygon fill="#63b8ff" stroke="#63b8ff" points="908.36,-41.07 918.57,-38.23 908.82,-34.09 908.36,-41.07"/>
</a>
</g>
</g>
<!-- Node7 -->
<g id="Node000007" class="node">
<title>Node7</title>
<g id="a_Node000007"><a xlink:href="classMainPage_1_1MainWindowController.html#ab5b80370512cd4273e86927fe696462d" target="_top" xlink:title="Load the good tasks.">
<polygon fill="white" stroke="#666666" points="1174,-19 918,-19 918,0 1174,0 1174,-19"/>
<text text-anchor="middle" x="1046" y="-7" font-family="Helvetica,sans-Serif" font-size="10.00">MainPage.MainWindowController.LoadGoodTasks</text>
</a>
</g>
</g>
<!-- Node3&#45;&gt;Node7 -->
<g id="edge7_Node000003_Node000007" class="edge">
<title>Node3&#45;&gt;Node7</title>
<g id="a_edge7_Node000003_Node000007"><a xlink:title=" ">
<path fill="none" stroke="#63b8ff" d="M882.34,-19.58C890.67,-19.06 899.08,-18.54 907.46,-18.02"/>
<polygon fill="#63b8ff" stroke="#63b8ff" points="907.89,-21.5 917.65,-17.39 907.46,-14.52 907.89,-21.5"/>
</a>
</g>
</g>
<!-- Node5 -->
<g id="Node000005" class="node">
<title>Node5</title>
<g id="a_Node000005"><a xlink:href="classMainPage_1_1TaskOpenPanelController.html#a5513399c20f650915ca10f54805f416e" target="_top" xlink:title="Make this task a bad habit.">
<polygon fill="white" stroke="#666666" points="1480,-56 1211,-56 1211,-37 1480,-37 1480,-56"/>
<text text-anchor="middle" x="1345.5" y="-44" font-family="Helvetica,sans-Serif" font-size="10.00">MainPage.TaskOpenPanelController.MakeItBadHabit</text>
</a>
</g>
</g>
<!-- Node4&#45;&gt;Node5 -->
<g id="edge4_Node000004_Node000005" class="edge">
<title>Node4&#45;&gt;Node5</title>
<g id="a_edge4_Node000004_Node000005"><a xlink:title=" ">
<path fill="none" stroke="#63b8ff" d="M1173.17,-39.82C1182.35,-39.76 1191.66,-39.74 1200.94,-39.75"/>
<polygon fill="#63b8ff" stroke="#63b8ff" points="1200.98,-43.25 1210.99,-39.78 1201,-36.25 1200.98,-43.25"/>
</a>
</g>
</g>
<!-- Node5&#45;&gt;Node4 -->
<g id="edge5_Node000005_Node000004" class="edge">
<title>Node5&#45;&gt;Node4</title>
<g id="a_edge5_Node000005_Node000004"><a xlink:title=" ">
<path fill="none" stroke="#63b8ff" d="M1210.99,-53.22C1201.75,-53.26 1192.43,-53.26 1183.18,-53.23"/>
<polygon fill="#63b8ff" stroke="#63b8ff" points="1183.18,-49.73 1173.17,-53.18 1183.15,-56.73 1183.18,-49.73"/>
</a>
</g>
</g>
<!-- Node6 -->
<g id="Node000006" class="node">
<title>Node6</title>
<g id="a_Node000006"><a xlink:href="classMainPage_1_1TaskOpenPanelController.html#aa0b6757dbad141375c50282278b23b1a" target="_top" xlink:title="Update the buttons with the appropriate color based on the current task.">
<polygon fill="white" stroke="#666666" points="1780,-37 1517,-37 1517,-18 1780,-18 1780,-37"/>
<text text-anchor="middle" x="1648.5" y="-25" font-family="Helvetica,sans-Serif" font-size="10.00">MainPage.TaskOpenPanelController.UpdateButtons</text>
</a>
</g>
</g>
<!-- Node5&#45;&gt;Node6 -->
<g id="edge6_Node000005_Node000006" class="edge">
<title>Node5&#45;&gt;Node6</title>
<g id="a_edge6_Node000005_Node000006"><a xlink:title=" ">
<path fill="none" stroke="#63b8ff" d="M1480.28,-38.06C1488.97,-37.51 1497.73,-36.95 1506.45,-36.4"/>
<polygon fill="#63b8ff" stroke="#63b8ff" points="1506.91,-39.88 1516.67,-35.76 1506.46,-32.9 1506.91,-39.88"/>
</a>
</g>
</g>
<!-- Node8 -->
<g id="Node000008" class="node">
<title>Node8</title>
<g id="a_Node000008"><a xlink:href="classMainPage_1_1TaskOpenPanelController.html#a069a63e2b7e70cc4cb4c7e487b655700" target="_top" xlink:title="Make it a good task.">
<polygon fill="white" stroke="#666666" points="1481,-19 1210,-19 1210,0 1481,0 1481,-19"/>
<text text-anchor="middle" x="1345.5" y="-7" font-family="Helvetica,sans-Serif" font-size="10.00">MainPage.TaskOpenPanelController.MakeItGoodTask</text>
</a>
</g>
</g>
<!-- Node7&#45;&gt;Node8 -->
<g id="edge8_Node000007_Node000008" class="edge">
<title>Node7&#45;&gt;Node8</title>
<g id="a_edge8_Node000007_Node000008"><a xlink:title=" ">
<path fill="none" stroke="#63b8ff" d="M1174.03,-2.81C1182.54,-2.76 1191.15,-2.74 1199.75,-2.75"/>
<polygon fill="#63b8ff" stroke="#63b8ff" points="1199.81,-6.25 1209.82,-2.78 1199.83,0.75 1199.81,-6.25"/>
</a>
</g>
</g>
<!-- Node8&#45;&gt;Node6 -->
<g id="edge10_Node000008_Node000006" class="edge">
<title>Node8&#45;&gt;Node6</title>
<g id="a_edge10_Node000008_Node000006"><a xlink:title=" ">
<path fill="none" stroke="#63b8ff" d="M1481.15,-17.55C1489.7,-18.06 1498.32,-18.58 1506.9,-19.09"/>
<polygon fill="#63b8ff" stroke="#63b8ff" points="1506.75,-22.59 1516.94,-19.69 1507.17,-15.6 1506.75,-22.59"/>
</a>
</g>
</g>
<!-- Node8&#45;&gt;Node7 -->
<g id="edge9_Node000008_Node000007" class="edge">
<title>Node8&#45;&gt;Node7</title>
<g id="a_edge9_Node000008_Node000007"><a xlink:title=" ">
<path fill="none" stroke="#63b8ff" d="M1209.82,-16.22C1201.26,-16.26 1192.63,-16.26 1184.06,-16.23"/>
<polygon fill="#63b8ff" stroke="#63b8ff" points="1184.05,-12.73 1174.03,-16.19 1184.01,-19.73 1184.05,-12.73"/>
</a>
</g>
</g>
</g>
</svg>
