<?xml version="1.0" encoding="UTF-8" standalone="no"?>
<!DOCTYPE svg PUBLIC "-//W3C//DTD SVG 1.1//EN"
 "http://www.w3.org/Graphics/SVG/1.1/DTD/svg11.dtd">
<!-- Generated by graphviz version 2.43.0 (0)
 -->
<!-- Title: Game.Car Pages: 1 -->
<!--zoomable 862 -->

<svg id="main" version="1.1" xmlns="http://www.w3.org/2000/svg" xmlns:xlink="http://www.w3.org/1999/xlink" xml:space="preserve" onload="init(evt)">
<style type="text/css"><![CDATA[
.node, .edge {opacity: 0.7;}
.node.selected, .edge.selected {opacity: 1;}
.edge:hover path { stroke: red; }
.edge:hover polygon { stroke: red; fill: red; }
]]></style>

<defs>
  <circle id="rim" cx="0" cy="0" r="7"/>
  <circle id="rim2" cx="0" cy="0" r="3.5"/>
  <g id="zoomPlus">
    <use xlink:href="#rim" fill="#404040"><set attributeName="fill" to="#808080" begin="zoomplus.mouseover" end="zoomplus.mouseout"/></use>
    <path d="M-4,0h8M0,-4v8" fill="none" stroke="white" stroke-width="1.5" pointer-events="none"/>
  </g>
  <g id="zoomMin">
    <use xlink:href="#rim" fill="#404040"><set attributeName="fill" to="#808080" begin="zoomminus.mouseover" end="zoomminus.mouseout"/></use>
    <path d="M-4,0h8" fill="none" stroke="white" stroke-width="1.5" pointer-events="none"/>
  </g>
  <g id="arrowUp" transform="translate(30 24)">
    <use xlink:href="#rim"/>
    <path pointer-events="none" fill="none" stroke="white" stroke-width="1.5" d="M0,-3.0v7 M-2.5,-0.5L0,-3.0L2.5,-0.5"/>
  </g>
  <g id="arrowRight" transform="rotate(90) translate(36 -43)">
    <use xlink:href="#rim"/>
    <path pointer-events="none" fill="none" stroke="white" stroke-width="1.5" d="M0,-3.0v7 M-2.5,-0.5L0,-3.0L2.5,-0.5"/>
  </g>
  <g id="arrowDown" transform="rotate(180) translate(-30 -48)">
    <use xlink:href="#rim"/>
    <path pointer-events="none" fill="none" stroke="white" stroke-width="1.5" d="M0,-3.0v7 M-2.5,-0.5L0,-3.0L2.5,-0.5"/>
  </g>
  <g id="arrowLeft" transform="rotate(270) translate(-36 17)">
    <use xlink:href="#rim"/>
    <path pointer-events="none" fill="none" stroke="white" stroke-width="1.5" d="M0,-3.0v7 M-2.5,-0.5L0,-3.0L2.5,-0.5"/>
  </g>
  <g id="resetDef">
    <use xlink:href="#rim2" fill="#404040"><set attributeName="fill" to="#808080" begin="reset.mouseover" end="reset.mouseout"/></use>
  </g>
</defs>
<script type="application/ecmascript">
var viewWidth = 574;
var viewHeight = 862;
var sectionId = 'dynsection-0';
</script>
<script type="application/ecmascript" xlink:href="svg.min.js"/>
<svg id="graph" class="graph">
<g id="viewport">
<title>Game.Car</title>
<!-- Node1 -->
<g id="Node000001" class="node">
<title>Node1</title>
<g id="a_Node000001"><a xlink:title="Handles the basic Car functionalities.">
<polygon fill="#999999" stroke="transparent" points="415,-684 138,-684 138,-425 415,-425 415,-684"/>
<text text-anchor="start" x="252.5" y="-671.5" font-family="Helvetica,sans-Serif" font-size="10.00">Game.Car</text>
<text text-anchor="start" x="142.5" y="-656.5" font-family="Helvetica,sans-Serif" font-size="10.00">+</text>
<text text-anchor="start" x="155.5" y="-656.5" font-family="Helvetica,sans-Serif" font-size="10.00">EventHandler DestroyedEvent</text>
<text text-anchor="start" x="142.5" y="-641.5" font-family="Helvetica,sans-Serif" font-size="10.00">+</text>
<text text-anchor="start" x="155.5" y="-641.5" font-family="Helvetica,sans-Serif" font-size="10.00">float Health</text>
<text text-anchor="start" x="142.5" y="-626.5" font-family="Helvetica,sans-Serif" font-size="10.00">+</text>
<text text-anchor="start" x="155.5" y="-626.5" font-family="Helvetica,sans-Serif" font-size="10.00">float MAX_HEALTH</text>
<text text-anchor="start" x="142.5" y="-611.5" font-family="Helvetica,sans-Serif" font-size="10.00">+</text>
<text text-anchor="start" x="155.5" y="-611.5" font-family="Helvetica,sans-Serif" font-size="10.00">bool Alive</text>
<text text-anchor="start" x="142.5" y="-596.5" font-family="Helvetica,sans-Serif" font-size="10.00">#</text>
<text text-anchor="start" x="155.5" y="-596.5" font-family="Helvetica,sans-Serif" font-size="10.00">GameController gameController</text>
<text text-anchor="start" x="142.5" y="-581.5" font-family="Helvetica,sans-Serif" font-size="10.00">#</text>
<text text-anchor="start" x="155.5" y="-581.5" font-family="Helvetica,sans-Serif" font-size="10.00">CarController carController</text>
<text text-anchor="start" x="142.5" y="-566.5" font-family="Helvetica,sans-Serif" font-size="10.00">#</text>
<text text-anchor="start" x="155.5" y="-566.5" font-family="Helvetica,sans-Serif" font-size="10.00">Chunk lastChunk</text>
<text text-anchor="start" x="142.5" y="-551.5" font-family="Helvetica,sans-Serif" font-size="10.00">#</text>
<text text-anchor="start" x="155.5" y="-551.5" font-family="Helvetica,sans-Serif" font-size="10.00">Dictionary&lt; EffectType, EffectScript &gt; effects</text>
<text text-anchor="start" x="145" y="-536.5" font-family="Helvetica,sans-Serif" font-size="10.00">&#45;</text>
<text text-anchor="start" x="155.5" y="-536.5" font-family="Helvetica,sans-Serif" font-size="10.00">float health</text>
<text text-anchor="start" x="142.5" y="-521.5" font-family="Helvetica,sans-Serif" font-size="10.00">+</text>
<text text-anchor="start" x="155.5" y="-521.5" font-family="Helvetica,sans-Serif" font-size="10.00">void Kill()</text>
<text text-anchor="start" x="142.5" y="-506.5" font-family="Helvetica,sans-Serif" font-size="10.00">+</text>
<text text-anchor="start" x="155.5" y="-506.5" font-family="Helvetica,sans-Serif" font-size="10.00">void Init(GameController gameController)</text>
<text text-anchor="start" x="142.5" y="-491.5" font-family="Helvetica,sans-Serif" font-size="10.00">#</text>
<text text-anchor="start" x="155.5" y="-491.5" font-family="Helvetica,sans-Serif" font-size="10.00">virtual void Update()</text>
<text text-anchor="start" x="142.5" y="-476.5" font-family="Helvetica,sans-Serif" font-size="10.00">#</text>
<text text-anchor="start" x="155.5" y="-476.5" font-family="Helvetica,sans-Serif" font-size="10.00">bool ChangeChunkIfNeeded()</text>
<text text-anchor="start" x="142.5" y="-461.5" font-family="Helvetica,sans-Serif" font-size="10.00">#</text>
<text text-anchor="start" x="155.5" y="-461.5" font-family="Helvetica,sans-Serif" font-size="10.00">virtual async void ChunkChanged(Chunk newChunk)</text>
<text text-anchor="start" x="142.5" y="-446.5" font-family="Helvetica,sans-Serif" font-size="10.00">#</text>
<text text-anchor="start" x="155.5" y="-446.5" font-family="Helvetica,sans-Serif" font-size="10.00">virtual void OnCollisionEnter(Collision collision)</text>
<text text-anchor="start" x="142.5" y="-431.5" font-family="Helvetica,sans-Serif" font-size="10.00">#</text>
<text text-anchor="start" x="155.5" y="-431.5" font-family="Helvetica,sans-Serif" font-size="10.00">void Awake()</text>
<polygon fill="#666666" stroke="#666666" points="138.5,-666.5 138.5,-666.5 415.5,-666.5 415.5,-666.5 138.5,-666.5"/>
<polygon fill="#666666" stroke="#666666" points="138.5,-531.5 138.5,-531.5 153.5,-531.5 153.5,-531.5 138.5,-531.5"/>
<polygon fill="#666666" stroke="#666666" points="153.5,-531.5 153.5,-531.5 415.5,-531.5 415.5,-531.5 153.5,-531.5"/>
<polygon fill="none" stroke="#666666" points="138,-425 138,-684 415,-684 415,-425 138,-425"/>
</a>
</g>
</g>
<!-- Node4 -->
<g id="Node000004" class="node">
<title>Node4</title>
<g id="a_Node000004"><a xlink:href="classGame_1_1NpcCar.html" target="_top" xlink:title="Object for the npc cars It is not yet used.">
<polygon fill="white" stroke="transparent" points="261,-261.5 0,-261.5 0,-212.5 261,-212.5 261,-261.5"/>
<text text-anchor="start" x="97" y="-249" font-family="Helvetica,sans-Serif" font-size="10.00">Game.NpcCar</text>
<text text-anchor="start" x="129" y="-234" font-family="Helvetica,sans-Serif" font-size="10.00"> </text>
<text text-anchor="start" x="4.5" y="-219" font-family="Helvetica,sans-Serif" font-size="10.00">+</text>
<text text-anchor="start" x="17.5" y="-219" font-family="Helvetica,sans-Serif" font-size="10.00">float DetermineSteeringDirectionTowardsPlayer()</text>
<polygon fill="#666666" stroke="#666666" points="0.5,-244 0.5,-244 261.5,-244 261.5,-244 0.5,-244"/>
<polygon fill="#666666" stroke="#666666" points="0.5,-229 0.5,-229 261.5,-229 261.5,-229 0.5,-229"/>
<polygon fill="none" stroke="#666666" points="0,-212.5 0,-261.5 261,-261.5 261,-212.5 0,-212.5"/>
</a>
</g>
</g>
<!-- Node1&#45;&gt;Node4 -->
<g id="edge3_Node000001_Node000004" class="edge">
<title>Node1&#45;&gt;Node4</title>
<g id="a_edge3_Node000001_Node000004"><a xlink:title=" ">
<path fill="none" stroke="#63b8ff" d="M212.57,-415.36C185.48,-356.81 156.69,-294.6 141.45,-261.67"/>
<polygon fill="none" stroke="#63b8ff" points="209.53,-417.11 216.91,-424.72 215.88,-414.17 209.53,-417.11"/>
</a>
</g>
</g>
<!-- Node6 -->
<g id="Node000006" class="node">
<title>Node6</title>
<g id="a_Node000006"><a xlink:href="classGame_1_1PlayerCar.html" target="_top" xlink:title="Handles the player&#39;s car.">
<polygon fill="white" stroke="transparent" points="565.5,-389 279.5,-389 279.5,-85 565.5,-85 565.5,-389"/>
<text text-anchor="start" x="382.5" y="-377" font-family="Helvetica,sans-Serif" font-size="10.00">Game.PlayerCar</text>
<text text-anchor="start" x="283.5" y="-362" font-family="Helvetica,sans-Serif" font-size="10.00">+</text>
<text text-anchor="start" x="296.5" y="-362" font-family="Helvetica,sans-Serif" font-size="10.00">int SkinId</text>
<text text-anchor="start" x="283.5" y="-347" font-family="Helvetica,sans-Serif" font-size="10.00">+</text>
<text text-anchor="start" x="296.5" y="-347" font-family="Helvetica,sans-Serif" font-size="10.00">bool Immune</text>
<text text-anchor="start" x="283.5" y="-332" font-family="Helvetica,sans-Serif" font-size="10.00">+</text>
<text text-anchor="start" x="296.5" y="-332" font-family="Helvetica,sans-Serif" font-size="10.00">bool Turbo</text>
<text text-anchor="start" x="286" y="-317" font-family="Helvetica,sans-Serif" font-size="10.00">&#45;</text>
<text text-anchor="start" x="296.5" y="-317" font-family="Helvetica,sans-Serif" font-size="10.00">float coinMultiplier</text>
<text text-anchor="start" x="286" y="-302" font-family="Helvetica,sans-Serif" font-size="10.00">&#45;</text>
<text text-anchor="start" x="296.5" y="-302" font-family="Helvetica,sans-Serif" font-size="10.00">Keyboard keyboard</text>
<text text-anchor="start" x="286" y="-287" font-family="Helvetica,sans-Serif" font-size="10.00">&#45;</text>
<text text-anchor="start" x="296.5" y="-287" font-family="Helvetica,sans-Serif" font-size="10.00">int probeSize</text>
<text text-anchor="start" x="286" y="-272" font-family="Helvetica,sans-Serif" font-size="10.00">&#45;</text>
<text text-anchor="start" x="296.5" y="-272" font-family="Helvetica,sans-Serif" font-size="10.00">List&lt; PoliceContainer &gt; policeContacts</text>
<text text-anchor="start" x="286" y="-257" font-family="Helvetica,sans-Serif" font-size="10.00">&#45;</text>
<text text-anchor="start" x="296.5" y="-257" font-family="Helvetica,sans-Serif" font-size="10.00">float turboTimer</text>
<text text-anchor="start" x="286" y="-242" font-family="Helvetica,sans-Serif" font-size="10.00">&#45;</text>
<text text-anchor="start" x="296.5" y="-242" font-family="Helvetica,sans-Serif" font-size="10.00">float immuneTimer</text>
<text text-anchor="start" x="283.5" y="-227" font-family="Helvetica,sans-Serif" font-size="10.00">+</text>
<text text-anchor="start" x="296.5" y="-227" font-family="Helvetica,sans-Serif" font-size="10.00">void PickedUpCoin()</text>
<text text-anchor="start" x="283.5" y="-212" font-family="Helvetica,sans-Serif" font-size="10.00">+</text>
<text text-anchor="start" x="296.5" y="-212" font-family="Helvetica,sans-Serif" font-size="10.00">void ApplyTurbo()</text>
<text text-anchor="start" x="283.5" y="-197" font-family="Helvetica,sans-Serif" font-size="10.00">+</text>
<text text-anchor="start" x="296.5" y="-197" font-family="Helvetica,sans-Serif" font-size="10.00">void ApplyImmunity()</text>
<text text-anchor="start" x="283.5" y="-182" font-family="Helvetica,sans-Serif" font-size="10.00">+</text>
<text text-anchor="start" x="296.5" y="-182" font-family="Helvetica,sans-Serif" font-size="10.00">void CancelTurbo()</text>
<text text-anchor="start" x="283.5" y="-167" font-family="Helvetica,sans-Serif" font-size="10.00">+</text>
<text text-anchor="start" x="296.5" y="-167" font-family="Helvetica,sans-Serif" font-size="10.00">void CancelImmunity()</text>
<text text-anchor="start" x="283.5" y="-152" font-family="Helvetica,sans-Serif" font-size="10.00">#</text>
<text text-anchor="start" x="296.5" y="-152" font-family="Helvetica,sans-Serif" font-size="10.00">override async void ChunkChanged(Chunk newChunk)</text>
<text text-anchor="start" x="283.5" y="-137" font-family="Helvetica,sans-Serif" font-size="10.00">#</text>
<text text-anchor="start" x="296.5" y="-137" font-family="Helvetica,sans-Serif" font-size="10.00">override void Update()</text>
<text text-anchor="start" x="283.5" y="-122" font-family="Helvetica,sans-Serif" font-size="10.00">#</text>
<text text-anchor="start" x="296.5" y="-122" font-family="Helvetica,sans-Serif" font-size="10.00">override void OnCollisionEnter(Collision collision)</text>
<text text-anchor="start" x="286" y="-107" font-family="Helvetica,sans-Serif" font-size="10.00">&#45;</text>
<text text-anchor="start" x="296.5" y="-107" font-family="Helvetica,sans-Serif" font-size="10.00">void FixedUpdate()</text>
<text text-anchor="start" x="286" y="-92" font-family="Helvetica,sans-Serif" font-size="10.00">&#45;</text>
<text text-anchor="start" x="296.5" y="-92" font-family="Helvetica,sans-Serif" font-size="10.00">void OnCollisionExit(Collision collision)</text>
<polygon fill="#666666" stroke="#666666" points="279.5,-372 279.5,-372 565.5,-372 565.5,-372 279.5,-372"/>
<polygon fill="#666666" stroke="#666666" points="279.5,-237 279.5,-237 294.5,-237 294.5,-237 279.5,-237"/>
<polygon fill="#666666" stroke="#666666" points="294.5,-237 294.5,-237 565.5,-237 565.5,-237 294.5,-237"/>
<polygon fill="none" stroke="#666666" points="279.5,-85 279.5,-389 565.5,-389 565.5,-85 279.5,-85"/>
</a>
</g>
</g>
<!-- Node1&#45;&gt;Node6 -->
<g id="edge5_Node000001_Node000006" class="edge">
<title>Node1&#45;&gt;Node6</title>
<g id="a_edge5_Node000001_Node000006"><a xlink:title=" ">
<path fill="none" stroke="#63b8ff" d="M340.32,-415.59C344.39,-406.79 348.5,-397.91 352.6,-389.06"/>
<polygon fill="none" stroke="#63b8ff" points="337.12,-414.17 336.09,-424.72 343.47,-417.11 337.12,-414.17"/>
</a>
</g>
</g>
<!-- Node2 -->
<g id="Node000002" class="node">
<title>Node2</title>
<g id="a_Node000002"><a xlink:href="classUtility_1_1ThreadSafeMonoBehaviour.html" target="_top" xlink:title="Safely stores if the gameobject been destroyed in a bool.">
<polygon fill="white" stroke="transparent" points="348,-769 205,-769 205,-720 348,-720 348,-769"/>
<text text-anchor="start" x="210.5" y="-756.5" font-family="Helvetica,sans-Serif" font-size="10.00">ThreadSafeMonoBehaviour</text>
<text text-anchor="start" x="219" y="-741.5" font-family="Helvetica,sans-Serif" font-size="10.00">+</text>
<text text-anchor="start" x="241.5" y="-741.5" font-family="Helvetica,sans-Serif" font-size="10.00">bool Destroyed</text>
<text text-anchor="start" x="219" y="-726.5" font-family="Helvetica,sans-Serif" font-size="10.00">#</text>
<text text-anchor="start" x="241.5" y="-726.5" font-family="Helvetica,sans-Serif" font-size="10.00">void OnDestroy()</text>
<polygon fill="#666666" stroke="#666666" points="205.5,-751.5 205.5,-751.5 348.5,-751.5 348.5,-751.5 205.5,-751.5"/>
<polygon fill="#666666" stroke="#666666" points="205.5,-736.5 205.5,-736.5 239.5,-736.5 239.5,-736.5 205.5,-736.5"/>
<polygon fill="#666666" stroke="#666666" points="239.5,-736.5 239.5,-736.5 348.5,-736.5 348.5,-736.5 239.5,-736.5"/>
<polygon fill="none" stroke="#666666" points="205,-720 205,-769 348,-769 348,-720 205,-720"/>
</a>
</g>
</g>
<!-- Node2&#45;&gt;Node1 -->
<g id="edge1_Node000001_Node000002" class="edge">
<title>Node2&#45;&gt;Node1</title>
<g id="a_edge1_Node000001_Node000002"><a xlink:title=" ">
<path fill="none" stroke="#63b8ff" d="M276.5,-709.5C276.5,-701.83 276.5,-693.24 276.5,-684.15"/>
<polygon fill="none" stroke="#63b8ff" points="273,-709.69 276.5,-719.69 280,-709.69 273,-709.69"/>
</a>
</g>
</g>
<!-- Node3 -->
<g id="Node000003" class="node">
<title>Node3</title>
<g id="a_Node000003"><a xlink:title=" ">
<polygon fill="white" stroke="transparent" points="320,-854 233,-854 233,-805 320,-805 320,-854"/>
<text text-anchor="start" x="238.5" y="-841.5" font-family="Helvetica,sans-Serif" font-size="10.00">MonoBehaviour</text>
<text text-anchor="start" x="275" y="-826.5" font-family="Helvetica,sans-Serif" font-size="10.00"> </text>
<text text-anchor="start" x="275" y="-811.5" font-family="Helvetica,sans-Serif" font-size="10.00"> </text>
<polygon fill="#666666" stroke="#666666" points="233.5,-836.5 233.5,-836.5 320.5,-836.5 320.5,-836.5 233.5,-836.5"/>
<polygon fill="#666666" stroke="#666666" points="233.5,-821.5 233.5,-821.5 320.5,-821.5 320.5,-821.5 233.5,-821.5"/>
<polygon fill="none" stroke="#666666" points="233,-805 233,-854 320,-854 320,-805 233,-805"/>
</a>
</g>
</g>
<!-- Node3&#45;&gt;Node2 -->
<g id="edge2_Node000002_Node000003" class="edge">
<title>Node3&#45;&gt;Node2</title>
<g id="a_edge2_Node000002_Node000003"><a xlink:title=" ">
<path fill="none" stroke="#63b8ff" d="M276.5,-794.77C276.5,-786.17 276.5,-777.1 276.5,-769.12"/>
<polygon fill="none" stroke="#63b8ff" points="273,-794.94 276.5,-804.94 280,-794.94 273,-794.94"/>
</a>
</g>
</g>
<!-- Node5 -->
<g id="Node000005" class="node">
<title>Node5</title>
<g id="a_Node000005"><a xlink:href="classGame_1_1CopCar.html" target="_top" xlink:title="Handles the police car.">
<polygon fill="white" stroke="transparent" points="196.5,-49 64.5,-49 64.5,0 196.5,0 196.5,-49"/>
<text text-anchor="start" x="96.5" y="-36.5" font-family="Helvetica,sans-Serif" font-size="10.00">Game.CopCar</text>
<text text-anchor="start" x="128.5" y="-21.5" font-family="Helvetica,sans-Serif" font-size="10.00"> </text>
<text text-anchor="start" x="68.5" y="-6.5" font-family="Helvetica,sans-Serif" font-size="10.00">#</text>
<text text-anchor="start" x="81.5" y="-6.5" font-family="Helvetica,sans-Serif" font-size="10.00">override void Update()</text>
<polygon fill="#666666" stroke="#666666" points="64.5,-31.5 64.5,-31.5 196.5,-31.5 196.5,-31.5 64.5,-31.5"/>
<polygon fill="#666666" stroke="#666666" points="64.5,-16.5 64.5,-16.5 196.5,-16.5 196.5,-16.5 64.5,-16.5"/>
<polygon fill="none" stroke="#666666" points="64.5,0 64.5,-49 196.5,-49 196.5,0 64.5,0"/>
</a>
</g>
</g>
<!-- Node4&#45;&gt;Node5 -->
<g id="edge4_Node000004_Node000005" class="edge">
<title>Node4&#45;&gt;Node5</title>
<g id="a_edge4_Node000004_Node000005"><a xlink:title=" ">
<path fill="none" stroke="#63b8ff" d="M130.5,-202.04C130.5,-159.15 130.5,-86.47 130.5,-49.15"/>
<polygon fill="none" stroke="#63b8ff" points="127,-202.26 130.5,-212.26 134,-202.26 127,-202.26"/>
</a>
</g>
</g>
</g>
</svg>

<g id="navigator" transform="translate(0 0)" fill="#404254">
  <rect fill="#f2f5e9" fill-opacity="0.5" stroke="#606060" stroke-width=".5" x="0" y="0" width="60" height="60"/>
  <use id="zoomplus" xlink:href="#zoomPlus" x="17" y="9" onmousedown="handleZoom(evt,'in')"/>
  <use id="zoomminus" xlink:href="#zoomMin" x="42" y="9" onmousedown="handleZoom(evt,'out')"/>
  <use id="reset" xlink:href="#resetDef" x="30" y="36" onmousedown="handleReset()"/>
   <use id="arrowup" xlink:href="#arrowUp" x="0" y="0" onmousedown="handlePan(0,-1)"/>
  <use id="arrowright" xlink:href="#arrowRight" x="0" y="0" onmousedown="handlePan(1,0)"/>
  <use id="arrowdown" xlink:href="#arrowDown" x="0" y="0" onmousedown="handlePan(0,1)"/>
  <use id="arrowleft" xlink:href="#arrowLeft" x="0" y="0" onmousedown="handlePan(-1,0)"/>
</g>
<svg viewBox="0 0 15 15" width="100%" height="30px" preserveAspectRatio="xMaxYMin meet">
 <g id="arrow_out" transform="scale(0.3 0.3)">
  <a xlink:href="classGame_1_1Car__inherit__graph_org.svg" target="_base">
   <rect id="button" ry="5" rx="5" y="6" x="6" height="38" width="38"
        fill="#f2f5e9" fill-opacity="0.5" stroke="#606060" stroke-width="1.0"/>
   <path id="arrow"
     d="M 11.500037,31.436501 C 11.940474,20.09759 22.043105,11.32322 32.158766,21.979434 L 37.068811,17.246167 C 37.068811,17.246167 37.088388,32 37.088388,32 L 22.160133,31.978069 C 22.160133,31.978069 26.997745,27.140456 26.997745,27.140456 C 18.528582,18.264221 13.291696,25.230495 11.500037,31.436501 z"
     style="fill:#404040;"/>
  </a>
 </g>
</svg>

<style type='text/css'>
<![CDATA[
[data-mouse-over-selected='false'] { opacity: 0.7; }
[data-mouse-over-selected='true']  { opacity: 1.0; }
]]>
</style>
<script type="application/ecmascript"><![CDATA[
document.addEventListener('DOMContentLoaded', (event) => {
  highlightEdges();
  highlightAdjacentNodes();
});
]]></script>
</svg>
