<?xml version="1.0" encoding="UTF-8" standalone="no"?>
<!DOCTYPE svg PUBLIC "-//W3C//DTD SVG 1.1//EN"
 "http://www.w3.org/Graphics/SVG/1.1/DTD/svg11.dtd">
<!-- Generated by graphviz version 2.43.0 (0)
 -->
<!-- Title: Game.EffectScript Pages: 1 -->
<svg width="151pt" height="242pt"
 viewBox="0.00 0.00 151.00 242.00" xmlns="http://www.w3.org/2000/svg" xmlns:xlink="http://www.w3.org/1999/xlink">
<g id="graph0" class="graph" transform="scale(1 1) rotate(0) translate(4 238)">
<title>Game.EffectScript</title>
<!-- Node1 -->
<g id="Node000001" class="node">
<title>Node1</title>
<g id="a_Node000001"><a xlink:title="Handles the car&#39;s effects.">
<polygon fill="#999999" stroke="transparent" points="134,-64 9,-64 9,0 134,0 134,-64"/>
<text text-anchor="start" x="28" y="-52" font-family="Helvetica,sans-Serif" font-size="10.00">Game.EffectScript</text>
<text text-anchor="start" x="13.5" y="-37" font-family="Helvetica,sans-Serif" font-size="10.00">+</text>
<text text-anchor="start" x="26.5" y="-37" font-family="Helvetica,sans-Serif" font-size="10.00">EffectType EffectType</text>
<text text-anchor="start" x="16" y="-22" font-family="Helvetica,sans-Serif" font-size="10.00">&#45;</text>
<text text-anchor="start" x="26.5" y="-22" font-family="Helvetica,sans-Serif" font-size="10.00">EffectType effectType</text>
<text text-anchor="start" x="70" y="-7" font-family="Helvetica,sans-Serif" font-size="10.00"> </text>
<polygon fill="#666666" stroke="#666666" points="9.5,-47 9.5,-47 134.5,-47 134.5,-47 9.5,-47"/>
<polygon fill="#666666" stroke="#666666" points="9.5,-17 9.5,-17 24.5,-17 24.5,-17 9.5,-17"/>
<polygon fill="#666666" stroke="#666666" points="24.5,-17 24.5,-17 134.5,-17 134.5,-17 24.5,-17"/>
<polygon fill="none" stroke="#666666" points="9,0 9,-64 134,-64 134,0 9,0"/>
</a>
</g>
</g>
<!-- Node2 -->
<g id="Node000002" class="node">
<title>Node2</title>
<g id="a_Node000002"><a xlink:href="classUtility_1_1ThreadSafeMonoBehaviour.html" target="_top" xlink:title="Safely stores if the gameobject been destroyed in a bool.">
<polygon fill="white" stroke="transparent" points="143,-149 0,-149 0,-100 143,-100 143,-149"/>
<text text-anchor="start" x="5.5" y="-136.5" font-family="Helvetica,sans-Serif" font-size="10.00">ThreadSafeMonoBehaviour</text>
<text text-anchor="start" x="14" y="-121.5" font-family="Helvetica,sans-Serif" font-size="10.00">+</text>
<text text-anchor="start" x="36.5" y="-121.5" font-family="Helvetica,sans-Serif" font-size="10.00">bool Destroyed</text>
<text text-anchor="start" x="14" y="-106.5" font-family="Helvetica,sans-Serif" font-size="10.00">#</text>
<text text-anchor="start" x="36.5" y="-106.5" font-family="Helvetica,sans-Serif" font-size="10.00">void OnDestroy()</text>
<polygon fill="#666666" stroke="#666666" points="0.5,-131.5 0.5,-131.5 143.5,-131.5 143.5,-131.5 0.5,-131.5"/>
<polygon fill="#666666" stroke="#666666" points="0.5,-116.5 0.5,-116.5 34.5,-116.5 34.5,-116.5 0.5,-116.5"/>
<polygon fill="#666666" stroke="#666666" points="34.5,-116.5 34.5,-116.5 143.5,-116.5 143.5,-116.5 34.5,-116.5"/>
<polygon fill="none" stroke="#666666" points="0,-100 0,-149 143,-149 143,-100 0,-100"/>
</a>
</g>
</g>
<!-- Node2&#45;&gt;Node1 -->
<g id="edge1_Node000001_Node000002" class="edge">
<title>Node2&#45;&gt;Node1</title>
<g id="a_edge1_Node000001_Node000002"><a xlink:title=" ">
<path fill="none" stroke="#63b8ff" d="M71.5,-89.54C71.5,-81.2 71.5,-72.31 71.5,-64.11"/>
<polygon fill="none" stroke="#63b8ff" points="68,-89.72 71.5,-99.72 75,-89.72 68,-89.72"/>
</a>
</g>
</g>
<!-- Node3 -->
<g id="Node000003" class="node">
<title>Node3</title>
<g id="a_Node000003"><a xlink:title=" ">
<polygon fill="white" stroke="transparent" points="115,-234 28,-234 28,-185 115,-185 115,-234"/>
<text text-anchor="start" x="33.5" y="-221.5" font-family="Helvetica,sans-Serif" font-size="10.00">MonoBehaviour</text>
<text text-anchor="start" x="70" y="-206.5" font-family="Helvetica,sans-Serif" font-size="10.00"> </text>
<text text-anchor="start" x="70" y="-191.5" font-family="Helvetica,sans-Serif" font-size="10.00"> </text>
<polygon fill="#666666" stroke="#666666" points="28.5,-216.5 28.5,-216.5 115.5,-216.5 115.5,-216.5 28.5,-216.5"/>
<polygon fill="#666666" stroke="#666666" points="28.5,-201.5 28.5,-201.5 115.5,-201.5 115.5,-201.5 28.5,-201.5"/>
<polygon fill="none" stroke="#666666" points="28,-185 28,-234 115,-234 115,-185 28,-185"/>
</a>
</g>
</g>
<!-- Node3&#45;&gt;Node2 -->
<g id="edge2_Node000002_Node000003" class="edge">
<title>Node3&#45;&gt;Node2</title>
<g id="a_edge2_Node000002_Node000003"><a xlink:title=" ">
<path fill="none" stroke="#63b8ff" d="M71.5,-174.77C71.5,-166.17 71.5,-157.1 71.5,-149.12"/>
<polygon fill="none" stroke="#63b8ff" points="68,-174.94 71.5,-184.94 75,-174.94 68,-174.94"/>
</a>
</g>
</g>
</g>
</svg>
