<?xml version="1.0" encoding="UTF-8" standalone="no"?>
<!DOCTYPE svg PUBLIC "-//W3C//DTD SVG 1.1//EN"
 "http://www.w3.org/Graphics/SVG/1.1/DTD/svg11.dtd">
<!-- Generated by graphviz version 2.43.0 (0)
 -->
<!-- Title: Game.World.Chunk.AddRoadBuildings Pages: 1 -->
<svg width="1922pt" height="104pt"
 viewBox="0.00 0.00 1922.00 104.00" xmlns="http://www.w3.org/2000/svg" xmlns:xlink="http://www.w3.org/1999/xlink">
<g id="graph0" class="graph" transform="scale(1 1) rotate(0) translate(4 100)">
<title>Game.World.Chunk.AddRoadBuildings</title>
<polygon fill="white" stroke="transparent" points="-4,4 -4,-100 1918,-100 1918,4 -4,4"/>
<!-- Node1 -->
<g id="node1" class="node">
<title>Node1</title>
<g id="a_node1"><a xlink:title="Add the buildings which are next to the roads">
<polygon fill="#bfbfbf" stroke="black" points="1712,-38.5 1712,-57.5 1914,-57.5 1914,-38.5 1712,-38.5"/>
<text text-anchor="middle" x="1813" y="-45.5" font-family="Helvetica,sans-Serif" font-size="10.00">Game.World.Chunk.AddRoadBuildings</text>
</a>
</g>
</g>
<!-- Node2 -->
<g id="node2" class="node">
<title>Node2</title>
<g id="a_node2"><a xlink:href="classGame_1_1World_1_1Chunk.html#a08f4b5e8b362b98f4b3f01225d12b4af" target="_top" xlink:title="Spawns the buildings and the props on a seperate thread">
<polygon fill="white" stroke="black" points="1466,-38.5 1466,-57.5 1676,-57.5 1676,-38.5 1466,-38.5"/>
<text text-anchor="middle" x="1571" y="-45.5" font-family="Helvetica,sans-Serif" font-size="10.00">Game.World.Chunk.SpawnWorldObjects</text>
</a>
</g>
</g>
<!-- Node1&#45;&gt;Node2 -->
<g id="edge1" class="edge">
<title>Node1&#45;&gt;Node2</title>
<path fill="none" stroke="midnightblue" d="M1701.92,-48C1693.33,-48 1684.68,-48 1676.14,-48"/>
<polygon fill="midnightblue" stroke="midnightblue" points="1701.96,-51.5 1711.96,-48 1701.96,-44.5 1701.96,-51.5"/>
</g>
<!-- Node3 -->
<g id="node3" class="node">
<title>Node3</title>
<g id="a_node3"><a xlink:href="classGame_1_1World_1_1Chunk.html#a0616c2f9600a4bcc1dbe97a93a947e7a" target="_top" xlink:title="Initialize the chunk">
<polygon fill="white" stroke="black" points="1270,-38.5 1270,-57.5 1430,-57.5 1430,-38.5 1270,-38.5"/>
<text text-anchor="middle" x="1350" y="-45.5" font-family="Helvetica,sans-Serif" font-size="10.00">Game.World.Chunk.InitChunk</text>
</a>
</g>
</g>
<!-- Node2&#45;&gt;Node3 -->
<g id="edge2" class="edge">
<title>Node2&#45;&gt;Node3</title>
<path fill="none" stroke="midnightblue" d="M1455.79,-48C1447.15,-48 1438.54,-48 1430.18,-48"/>
<polygon fill="midnightblue" stroke="midnightblue" points="1455.95,-51.5 1465.95,-48 1455.95,-44.5 1455.95,-51.5"/>
</g>
<!-- Node4 -->
<g id="node4" class="node">
<title>Node4</title>
<g id="a_node4"><a xlink:href="classGame_1_1World_1_1GameWorld.html#a730e116826e3519544de155b667042ba" target="_top" xlink:title="Loads a chunk">
<polygon fill="white" stroke="black" points="1040,-38.5 1040,-57.5 1234,-57.5 1234,-38.5 1040,-38.5"/>
<text text-anchor="middle" x="1137" y="-45.5" font-family="Helvetica,sans-Serif" font-size="10.00">Game.World.GameWorld.LoadChunk</text>
</a>
</g>
</g>
<!-- Node3&#45;&gt;Node4 -->
<g id="edge3" class="edge">
<title>Node3&#45;&gt;Node4</title>
<path fill="none" stroke="midnightblue" d="M1259.69,-48C1251.31,-48 1242.79,-48 1234.35,-48"/>
<polygon fill="midnightblue" stroke="midnightblue" points="1259.83,-51.5 1269.83,-48 1259.83,-44.5 1259.83,-51.5"/>
</g>
<!-- Node5 -->
<g id="node5" class="node">
<title>Node5</title>
<g id="a_node5"><a xlink:href="classGame_1_1World_1_1GameWorld.html#a5bc9140bbdf4b45f229d4e900db98d9b" target="_top" xlink:title="Creates a new game and create the chunks">
<polygon fill="white" stroke="black" points="772,-76.5 772,-95.5 995,-95.5 995,-76.5 772,-76.5"/>
<text text-anchor="middle" x="883.5" y="-83.5" font-family="Helvetica,sans-Serif" font-size="10.00">Game.World.GameWorld.CreateNewGame</text>
</a>
</g>
</g>
<!-- Node4&#45;&gt;Node5 -->
<g id="edge4" class="edge">
<title>Node4&#45;&gt;Node5</title>
<path fill="none" stroke="midnightblue" d="M1062.78,-59.06C1026.31,-64.57 982.65,-71.17 947.67,-76.46"/>
<polygon fill="midnightblue" stroke="midnightblue" points="1063.5,-62.49 1072.86,-57.54 1062.45,-55.57 1063.5,-62.49"/>
</g>
<!-- Node8 -->
<g id="node8" class="node">
<title>Node8</title>
<g id="a_node8"><a xlink:href="classGame_1_1World_1_1GameWorld.html#a0b0f22446c2d6c9fad57efd6c6e29581" target="_top" xlink:title="Gets the chunk it will load it if it hasn&#39;t been and hide it then otherwise just return it">
<polygon fill="white" stroke="black" points="789.5,-38.5 789.5,-57.5 977.5,-57.5 977.5,-38.5 789.5,-38.5"/>
<text text-anchor="middle" x="883.5" y="-45.5" font-family="Helvetica,sans-Serif" font-size="10.00">Game.World.GameWorld.GetChunk</text>
</a>
</g>
</g>
<!-- Node4&#45;&gt;Node8 -->
<g id="edge7" class="edge">
<title>Node4&#45;&gt;Node8</title>
<path fill="none" stroke="midnightblue" d="M1029.73,-48C1012.44,-48 994.65,-48 977.7,-48"/>
<polygon fill="midnightblue" stroke="midnightblue" points="1029.84,-51.5 1039.84,-48 1029.84,-44.5 1029.84,-51.5"/>
</g>
<!-- Node9 -->
<g id="node9" class="node">
<title>Node9</title>
<g id="a_node9"><a xlink:href="classGame_1_1GameController.html#a9818f49a9c0638be6cc6449e5e5000f7" target="_top" xlink:title="Checks if the selected chunk is in range and loads it if the world exists">
<polygon fill="white" stroke="black" points="763,-0.5 763,-19.5 1004,-19.5 1004,-0.5 763,-0.5"/>
<text text-anchor="middle" x="883.5" y="-7.5" font-family="Helvetica,sans-Serif" font-size="10.00">Game.GameController.ValidateAndLoadChunk</text>
</a>
</g>
</g>
<!-- Node4&#45;&gt;Node9 -->
<g id="edge8" class="edge">
<title>Node4&#45;&gt;Node9</title>
<path fill="none" stroke="midnightblue" d="M1062.78,-36.94C1026.31,-31.43 982.65,-24.83 947.67,-19.54"/>
<polygon fill="midnightblue" stroke="midnightblue" points="1062.45,-40.43 1072.86,-38.46 1063.5,-33.51 1062.45,-40.43"/>
</g>
<!-- Node6 -->
<g id="node6" class="node">
<title>Node6</title>
<g id="a_node6"><a xlink:href="classGame_1_1GameController.html#af5c50c52cffcab3018ca54be6a421d7f" target="_top" xlink:title="Create a new game">
<polygon fill="white" stroke="black" points="521.5,-76.5 521.5,-95.5 700.5,-95.5 700.5,-76.5 521.5,-76.5"/>
<text text-anchor="middle" x="611" y="-83.5" font-family="Helvetica,sans-Serif" font-size="10.00">Game.GameController.NewGame</text>
</a>
</g>
</g>
<!-- Node5&#45;&gt;Node6 -->
<g id="edge5" class="edge">
<title>Node5&#45;&gt;Node6</title>
<path fill="none" stroke="midnightblue" d="M761.67,-86C741.16,-86 720.2,-86 700.72,-86"/>
<polygon fill="midnightblue" stroke="midnightblue" points="761.7,-89.5 771.7,-86 761.7,-82.5 761.7,-89.5"/>
</g>
<!-- Node7 -->
<g id="node7" class="node">
<title>Node7</title>
<g id="a_node7"><a xlink:href="classGame_1_1UI_1_1GameUI.html#ad581ee67e01ac3bcdec06cf2538f06e4" target="_top" xlink:title="Start a new game">
<polygon fill="white" stroke="black" points="255.5,-76.5 255.5,-95.5 411.5,-95.5 411.5,-76.5 255.5,-76.5"/>
<text text-anchor="middle" x="333.5" y="-83.5" font-family="Helvetica,sans-Serif" font-size="10.00">Game.UI.GameUI.NewGame</text>
</a>
</g>
</g>
<!-- Node6&#45;&gt;Node7 -->
<g id="edge6" class="edge">
<title>Node6&#45;&gt;Node7</title>
<path fill="none" stroke="midnightblue" d="M511.28,-86C478.6,-86 442.73,-86 411.88,-86"/>
<polygon fill="midnightblue" stroke="midnightblue" points="511.31,-89.5 521.31,-86 511.31,-82.5 511.31,-89.5"/>
</g>
<!-- Node10 -->
<g id="node10" class="node">
<title>Node10</title>
<g id="a_node10"><a xlink:href="classGame_1_1GameController.html#a2003e53e493cca6ace00e260e7161a03" target="_top" xlink:title="Spawns and loads the nearby chunks">
<polygon fill="white" stroke="black" points="495,-0.5 495,-19.5 727,-19.5 727,-0.5 495,-0.5"/>
<text text-anchor="middle" x="611" y="-7.5" font-family="Helvetica,sans-Serif" font-size="10.00">Game.GameController.SpawnNearbyChunks</text>
</a>
</g>
</g>
<!-- Node9&#45;&gt;Node10 -->
<g id="edge9" class="edge">
<title>Node9&#45;&gt;Node10</title>
<path fill="none" stroke="midnightblue" d="M752.47,-10C744.09,-10 735.68,-10 727.37,-10"/>
<polygon fill="midnightblue" stroke="midnightblue" points="752.67,-13.5 762.67,-10 752.67,-6.5 752.67,-13.5"/>
</g>
<!-- Node11 -->
<g id="node11" class="node">
<title>Node11</title>
<g id="a_node11"><a xlink:href="classGame_1_1GameController.html#af623e7876622503e3d0f985ad9b08e47" target="_top" xlink:title="Handle the load and despawning of the chunks relative to the given indices">
<polygon fill="white" stroke="black" points="208,-0.5 208,-19.5 459,-19.5 459,-0.5 208,-0.5"/>
<text text-anchor="middle" x="333.5" y="-7.5" font-family="Helvetica,sans-Serif" font-size="10.00">Game.GameController.LoadAndDespawnChunks</text>
</a>
</g>
</g>
<!-- Node10&#45;&gt;Node11 -->
<g id="edge10" class="edge">
<title>Node10&#45;&gt;Node11</title>
<path fill="none" stroke="midnightblue" d="M484.48,-10C476.02,-10 467.5,-10 459.05,-10"/>
<polygon fill="midnightblue" stroke="midnightblue" points="484.76,-13.5 494.76,-10 484.76,-6.5 484.76,-13.5"/>
</g>
<!-- Node12 -->
<g id="node12" class="node">
<title>Node12</title>
<g id="a_node12"><a xlink:href="classGame_1_1PlayerCar.html#a18f30f1f6873f043457ce9f81ac47ed4" target="_top" xlink:title=" ">
<polygon fill="white" stroke="black" points="0,-0.5 0,-19.5 172,-19.5 172,-0.5 0,-0.5"/>
<text text-anchor="middle" x="86" y="-7.5" font-family="Helvetica,sans-Serif" font-size="10.00">Game.PlayerCar.ChunkChanged</text>
</a>
</g>
</g>
<!-- Node11&#45;&gt;Node12 -->
<g id="edge11" class="edge">
<title>Node11&#45;&gt;Node12</title>
<path fill="none" stroke="midnightblue" d="M197.75,-10C189.09,-10 180.5,-10 172.17,-10"/>
<polygon fill="midnightblue" stroke="midnightblue" points="197.95,-13.5 207.95,-10 197.95,-6.5 197.95,-13.5"/>
</g>
</g>
</svg>
