<?xml version="1.0" encoding="UTF-8" standalone="no"?>
<!DOCTYPE svg PUBLIC "-//W3C//DTD SVG 1.1//EN"
 "http://www.w3.org/Graphics/SVG/1.1/DTD/svg11.dtd">
<!-- Generated by graphviz version 2.43.0 (0)
 -->
<!-- Title: Game.World.Chunk.DetermineRoadType Pages: 1 -->
<!--zoomable 101 -->

<svg id="main" version="1.1" xmlns="http://www.w3.org/2000/svg" xmlns:xlink="http://www.w3.org/1999/xlink" xml:space="preserve" onload="init(evt)">
<style type="text/css"><![CDATA[
.node, .edge {opacity: 0.7;}
.node.selected, .edge.selected {opacity: 1;}
.edge:hover path { stroke: red; }
.edge:hover polygon { stroke: red; fill: red; }
]]></style>

<defs>
  <circle id="rim" cx="0" cy="0" r="7"/>
  <circle id="rim2" cx="0" cy="0" r="3.5"/>
  <g id="zoomPlus">
    <use xlink:href="#rim" fill="#404040"><set attributeName="fill" to="#808080" begin="zoomplus.mouseover" end="zoomplus.mouseout"/></use>
    <path d="M-4,0h8M0,-4v8" fill="none" stroke="white" stroke-width="1.5" pointer-events="none"/>
  </g>
  <g id="zoomMin">
    <use xlink:href="#rim" fill="#404040"><set attributeName="fill" to="#808080" begin="zoomminus.mouseover" end="zoomminus.mouseout"/></use>
    <path d="M-4,0h8" fill="none" stroke="white" stroke-width="1.5" pointer-events="none"/>
  </g>
  <g id="arrowUp" transform="translate(30 24)">
    <use xlink:href="#rim"/>
    <path pointer-events="none" fill="none" stroke="white" stroke-width="1.5" d="M0,-3.0v7 M-2.5,-0.5L0,-3.0L2.5,-0.5"/>
  </g>
  <g id="arrowRight" transform="rotate(90) translate(36 -43)">
    <use xlink:href="#rim"/>
    <path pointer-events="none" fill="none" stroke="white" stroke-width="1.5" d="M0,-3.0v7 M-2.5,-0.5L0,-3.0L2.5,-0.5"/>
  </g>
  <g id="arrowDown" transform="rotate(180) translate(-30 -48)">
    <use xlink:href="#rim"/>
    <path pointer-events="none" fill="none" stroke="white" stroke-width="1.5" d="M0,-3.0v7 M-2.5,-0.5L0,-3.0L2.5,-0.5"/>
  </g>
  <g id="arrowLeft" transform="rotate(270) translate(-36 17)">
    <use xlink:href="#rim"/>
    <path pointer-events="none" fill="none" stroke="white" stroke-width="1.5" d="M0,-3.0v7 M-2.5,-0.5L0,-3.0L2.5,-0.5"/>
  </g>
  <g id="resetDef">
    <use xlink:href="#rim2" fill="#404040"><set attributeName="fill" to="#808080" begin="reset.mouseover" end="reset.mouseout"/></use>
  </g>
</defs>
<script type="application/ecmascript">
var viewWidth = 2133;
var viewHeight = 101;
var sectionId = 'dynsection-14';
</script>
<script type="application/ecmascript" xlink:href="svg.min.js"/>
<svg id="graph" class="graph">
<g id="viewport">
<title>Game.World.Chunk.DetermineRoadType</title>
<!-- Node1 -->
<g id="Node000001" class="node">
<title>Node1</title>
<g id="a_Node000001"><a xlink:title="Determine what type of road it is.">
<polygon fill="#999999" stroke="#666666" points="2125,-56 1913,-56 1913,-37 2125,-37 2125,-56"/>
<text text-anchor="middle" x="2019" y="-44" font-family="Helvetica,sans-Serif" font-size="10.00">Game.World.Chunk.DetermineRoadType</text>
</a>
</g>
</g>
<!-- Node2 -->
<g id="Node000002" class="node">
<title>Node2</title>
<g id="a_Node000002"><a xlink:href="classGame_1_1World_1_1Chunk.html#ac4b762352bb5f90952fe57e5c0ee208f" target="_top" xlink:title="Determines the type of the tile at the coord.">
<polygon fill="white" stroke="#666666" points="1877,-56 1671,-56 1671,-37 1877,-37 1877,-56"/>
<text text-anchor="middle" x="1774" y="-44" font-family="Helvetica,sans-Serif" font-size="10.00">Game.World.Chunk.DetermineTileType</text>
</a>
</g>
</g>
<!-- Node1&#45;&gt;Node2 -->
<g id="edge1_Node000001_Node000002" class="edge">
<title>Node1&#45;&gt;Node2</title>
<g id="a_edge1_Node000001_Node000002"><a xlink:title=" ">
<path fill="none" stroke="#63b8ff" d="M1902.56,-46.5C1894.11,-46.5 1885.62,-46.5 1877.26,-46.5"/>
<polygon fill="#63b8ff" stroke="#63b8ff" points="1902.83,-50 1912.83,-46.5 1902.83,-43 1902.83,-50"/>
</a>
</g>
</g>
<!-- Node3 -->
<g id="Node000003" class="node">
<title>Node3</title>
<g id="a_Node000003"><a xlink:href="classGame_1_1World_1_1Chunk.html#aac3343253a33a36a09318ebc76bd9f08" target="_top" xlink:title="Creates the tiles for the chunk.">
<polygon fill="white" stroke="#666666" points="1635,-56 1466,-56 1466,-37 1635,-37 1635,-56"/>
<text text-anchor="middle" x="1550.5" y="-44" font-family="Helvetica,sans-Serif" font-size="10.00">Game.World.Chunk.CreateTiles</text>
</a>
</g>
</g>
<!-- Node2&#45;&gt;Node3 -->
<g id="edge2_Node000002_Node000003" class="edge">
<title>Node2&#45;&gt;Node3</title>
<g id="a_edge2_Node000002_Node000003"><a xlink:title=" ">
<path fill="none" stroke="#63b8ff" d="M1660.62,-46.5C1652.04,-46.5 1643.48,-46.5 1635.13,-46.5"/>
<polygon fill="#63b8ff" stroke="#63b8ff" points="1660.68,-50 1670.68,-46.5 1660.68,-43 1660.68,-50"/>
</a>
</g>
</g>
<!-- Node4 -->
<g id="Node000004" class="node">
<title>Node4</title>
<g id="a_Node000004"><a xlink:href="classGame_1_1World_1_1Chunk.html#a0616c2f9600a4bcc1dbe97a93a947e7a" target="_top" xlink:title="Initialize the chunk.">
<polygon fill="white" stroke="#666666" points="1430,-56 1270,-56 1270,-37 1430,-37 1430,-56"/>
<text text-anchor="middle" x="1350" y="-44" font-family="Helvetica,sans-Serif" font-size="10.00">Game.World.Chunk.InitChunk</text>
</a>
</g>
</g>
<!-- Node3&#45;&gt;Node4 -->
<g id="edge3_Node000003_Node000004" class="edge">
<title>Node3&#45;&gt;Node4</title>
<g id="a_edge3_Node000003_Node000004"><a xlink:title=" ">
<path fill="none" stroke="#63b8ff" d="M1455.82,-46.5C1447.21,-46.5 1438.54,-46.5 1430.08,-46.5"/>
<polygon fill="#63b8ff" stroke="#63b8ff" points="1455.89,-50 1465.89,-46.5 1455.89,-43 1455.89,-50"/>
</a>
</g>
</g>
<!-- Node5 -->
<g id="Node000005" class="node">
<title>Node5</title>
<g id="a_Node000005"><a xlink:href="classGame_1_1World_1_1GameWorld.html#a730e116826e3519544de155b667042ba" target="_top" xlink:title="Loads a chunk.">
<polygon fill="white" stroke="#666666" points="1234,-56 1040,-56 1040,-37 1234,-37 1234,-56"/>
<text text-anchor="middle" x="1137" y="-44" font-family="Helvetica,sans-Serif" font-size="10.00">Game.World.GameWorld.LoadChunk</text>
</a>
</g>
</g>
<!-- Node4&#45;&gt;Node5 -->
<g id="edge4_Node000004_Node000005" class="edge">
<title>Node4&#45;&gt;Node5</title>
<g id="a_edge4_Node000004_Node000005"><a xlink:title=" ">
<path fill="none" stroke="#63b8ff" d="M1259.69,-46.5C1251.31,-46.5 1242.79,-46.5 1234.35,-46.5"/>
<polygon fill="#63b8ff" stroke="#63b8ff" points="1259.83,-50 1269.83,-46.5 1259.83,-43 1259.83,-50"/>
</a>
</g>
</g>
<!-- Node6 -->
<g id="Node000006" class="node">
<title>Node6</title>
<g id="a_Node000006"><a xlink:href="classGame_1_1World_1_1GameWorld.html#a5bc9140bbdf4b45f229d4e900db98d9b" target="_top" xlink:title="Creates a new game and create the chunks.">
<polygon fill="white" stroke="#666666" points="995,-93 772,-93 772,-74 995,-74 995,-93"/>
<text text-anchor="middle" x="883.5" y="-81" font-family="Helvetica,sans-Serif" font-size="10.00">Game.World.GameWorld.CreateNewGame</text>
</a>
</g>
</g>
<!-- Node5&#45;&gt;Node6 -->
<g id="edge5_Node000005_Node000006" class="edge">
<title>Node5&#45;&gt;Node6</title>
<g id="a_edge5_Node000005_Node000006"><a xlink:title=" ">
<path fill="none" stroke="#63b8ff" d="M1060.93,-57.54C1025.48,-62.76 983.56,-68.93 949.48,-73.94"/>
<polygon fill="#63b8ff" stroke="#63b8ff" points="1061.85,-60.95 1071.23,-56.03 1060.83,-54.02 1061.85,-60.95"/>
</a>
</g>
</g>
<!-- Node9 -->
<g id="Node000009" class="node">
<title>Node9</title>
<g id="a_Node000009"><a xlink:href="classGame_1_1World_1_1GameWorld.html#a34489f9fa15c207fce7c280ab1aeb08c" target="_top" xlink:title="Gets the chunk it will load it if it hasn&#39;t been and hide it then otherwise just return it.">
<polygon fill="white" stroke="#666666" points="977.5,-56 789.5,-56 789.5,-37 977.5,-37 977.5,-56"/>
<text text-anchor="middle" x="883.5" y="-44" font-family="Helvetica,sans-Serif" font-size="10.00">Game.World.GameWorld.GetChunk</text>
</a>
</g>
</g>
<!-- Node5&#45;&gt;Node9 -->
<g id="edge8_Node000005_Node000009" class="edge">
<title>Node5&#45;&gt;Node9</title>
<g id="a_edge8_Node000005_Node000009"><a xlink:title=" ">
<path fill="none" stroke="#63b8ff" d="M1029.73,-46.5C1012.44,-46.5 994.65,-46.5 977.7,-46.5"/>
<polygon fill="#63b8ff" stroke="#63b8ff" points="1029.84,-50 1039.84,-46.5 1029.84,-43 1029.84,-50"/>
</a>
</g>
</g>
<!-- Node10 -->
<g id="Node000010" class="node">
<title>Node10</title>
<g id="a_Node000010"><a xlink:href="classGame_1_1GameController.html#a9818f49a9c0638be6cc6449e5e5000f7" target="_top" xlink:title="Checks if the selected chunk is in range and loads it if the world exists.">
<polygon fill="white" stroke="#666666" points="1004,-19 763,-19 763,0 1004,0 1004,-19"/>
<text text-anchor="middle" x="883.5" y="-7" font-family="Helvetica,sans-Serif" font-size="10.00">Game.GameController.ValidateAndLoadChunk</text>
</a>
</g>
</g>
<!-- Node5&#45;&gt;Node10 -->
<g id="edge9_Node000005_Node000010" class="edge">
<title>Node5&#45;&gt;Node10</title>
<g id="a_edge9_Node000005_Node000010"><a xlink:title=" ">
<path fill="none" stroke="#63b8ff" d="M1060.93,-35.46C1025.48,-30.24 983.56,-24.07 949.48,-19.06"/>
<polygon fill="#63b8ff" stroke="#63b8ff" points="1060.83,-38.98 1071.23,-36.97 1061.85,-32.05 1060.83,-38.98"/>
</a>
</g>
</g>
<!-- Node7 -->
<g id="Node000007" class="node">
<title>Node7</title>
<g id="a_Node000007"><a xlink:href="classGame_1_1GameController.html#af5c50c52cffcab3018ca54be6a421d7f" target="_top" xlink:title="Create a new game.">
<polygon fill="white" stroke="#666666" points="700.5,-93 521.5,-93 521.5,-74 700.5,-74 700.5,-93"/>
<text text-anchor="middle" x="611" y="-81" font-family="Helvetica,sans-Serif" font-size="10.00">Game.GameController.NewGame</text>
</a>
</g>
</g>
<!-- Node6&#45;&gt;Node7 -->
<g id="edge6_Node000006_Node000007" class="edge">
<title>Node6&#45;&gt;Node7</title>
<g id="a_edge6_Node000006_Node000007"><a xlink:title=" ">
<path fill="none" stroke="#63b8ff" d="M761.67,-83.5C741.16,-83.5 720.2,-83.5 700.72,-83.5"/>
<polygon fill="#63b8ff" stroke="#63b8ff" points="761.7,-87 771.7,-83.5 761.7,-80 761.7,-87"/>
</a>
</g>
</g>
<!-- Node8 -->
<g id="Node000008" class="node">
<title>Node8</title>
<g id="a_Node000008"><a xlink:href="classGame_1_1UI_1_1GameUI.html#ad581ee67e01ac3bcdec06cf2538f06e4" target="_top" xlink:title="Start a new game.">
<polygon fill="white" stroke="#666666" points="411.5,-93 255.5,-93 255.5,-74 411.5,-74 411.5,-93"/>
<text text-anchor="middle" x="333.5" y="-81" font-family="Helvetica,sans-Serif" font-size="10.00">Game.UI.GameUI.NewGame</text>
</a>
</g>
</g>
<!-- Node7&#45;&gt;Node8 -->
<g id="edge7_Node000007_Node000008" class="edge">
<title>Node7&#45;&gt;Node8</title>
<g id="a_edge7_Node000007_Node000008"><a xlink:title=" ">
<path fill="none" stroke="#63b8ff" d="M511.28,-83.5C478.6,-83.5 442.73,-83.5 411.88,-83.5"/>
<polygon fill="#63b8ff" stroke="#63b8ff" points="511.31,-87 521.31,-83.5 511.31,-80 511.31,-87"/>
</a>
</g>
</g>
<!-- Node11 -->
<g id="Node000011" class="node">
<title>Node11</title>
<g id="a_Node000011"><a xlink:href="classGame_1_1GameController.html#a2003e53e493cca6ace00e260e7161a03" target="_top" xlink:title="Spawns and loads the nearby chunks.">
<polygon fill="white" stroke="#666666" points="727,-19 495,-19 495,0 727,0 727,-19"/>
<text text-anchor="middle" x="611" y="-7" font-family="Helvetica,sans-Serif" font-size="10.00">Game.GameController.SpawnNearbyChunks</text>
</a>
</g>
</g>
<!-- Node10&#45;&gt;Node11 -->
<g id="edge10_Node000010_Node000011" class="edge">
<title>Node10&#45;&gt;Node11</title>
<g id="a_edge10_Node000010_Node000011"><a xlink:title=" ">
<path fill="none" stroke="#63b8ff" d="M752.47,-9.5C744.09,-9.5 735.68,-9.5 727.37,-9.5"/>
<polygon fill="#63b8ff" stroke="#63b8ff" points="752.67,-13 762.67,-9.5 752.67,-6 752.67,-13"/>
</a>
</g>
</g>
<!-- Node12 -->
<g id="Node000012" class="node">
<title>Node12</title>
<g id="a_Node000012"><a xlink:href="classGame_1_1GameController.html#af623e7876622503e3d0f985ad9b08e47" target="_top" xlink:title="Handle the load and despawning of the chunks relative to the given indices.">
<polygon fill="white" stroke="#666666" points="459,-19 208,-19 208,0 459,0 459,-19"/>
<text text-anchor="middle" x="333.5" y="-7" font-family="Helvetica,sans-Serif" font-size="10.00">Game.GameController.LoadAndDespawnChunks</text>
</a>
</g>
</g>
<!-- Node11&#45;&gt;Node12 -->
<g id="edge11_Node000011_Node000012" class="edge">
<title>Node11&#45;&gt;Node12</title>
<g id="a_edge11_Node000011_Node000012"><a xlink:title=" ">
<path fill="none" stroke="#63b8ff" d="M484.48,-9.5C476.02,-9.5 467.5,-9.5 459.05,-9.5"/>
<polygon fill="#63b8ff" stroke="#63b8ff" points="484.76,-13 494.76,-9.5 484.76,-6 484.76,-13"/>
</a>
</g>
</g>
<!-- Node13 -->
<g id="Node000013" class="node">
<title>Node13</title>
<g id="a_Node000013"><a xlink:href="classGame_1_1PlayerCar.html#a18f30f1f6873f043457ce9f81ac47ed4" target="_top" xlink:title="Override the chunk changed method to make it load and despawn the chunks.">
<polygon fill="white" stroke="#666666" points="172,-19 0,-19 0,0 172,0 172,-19"/>
<text text-anchor="middle" x="86" y="-7" font-family="Helvetica,sans-Serif" font-size="10.00">Game.PlayerCar.ChunkChanged</text>
</a>
</g>
</g>
<!-- Node12&#45;&gt;Node13 -->
<g id="edge12_Node000012_Node000013" class="edge">
<title>Node12&#45;&gt;Node13</title>
<g id="a_edge12_Node000012_Node000013"><a xlink:title=" ">
<path fill="none" stroke="#63b8ff" d="M197.75,-9.5C189.09,-9.5 180.5,-9.5 172.17,-9.5"/>
<polygon fill="#63b8ff" stroke="#63b8ff" points="197.95,-13 207.95,-9.5 197.95,-6 197.95,-13"/>
</a>
</g>
</g>
</g>
</svg>

<g id="navigator" transform="translate(0 0)" fill="#404254">
  <rect fill="#f2f5e9" fill-opacity="0.5" stroke="#606060" stroke-width=".5" x="0" y="0" width="60" height="60"/>
  <use id="zoomplus" xlink:href="#zoomPlus" x="17" y="9" onmousedown="handleZoom(evt,'in')"/>
  <use id="zoomminus" xlink:href="#zoomMin" x="42" y="9" onmousedown="handleZoom(evt,'out')"/>
  <use id="reset" xlink:href="#resetDef" x="30" y="36" onmousedown="handleReset()"/>
   <use id="arrowup" xlink:href="#arrowUp" x="0" y="0" onmousedown="handlePan(0,-1)"/>
  <use id="arrowright" xlink:href="#arrowRight" x="0" y="0" onmousedown="handlePan(1,0)"/>
  <use id="arrowdown" xlink:href="#arrowDown" x="0" y="0" onmousedown="handlePan(0,1)"/>
  <use id="arrowleft" xlink:href="#arrowLeft" x="0" y="0" onmousedown="handlePan(-1,0)"/>
</g>
<svg viewBox="0 0 15 15" width="100%" height="30px" preserveAspectRatio="xMaxYMin meet">
 <g id="arrow_out" transform="scale(0.3 0.3)">
  <a xlink:href="classGame_1_1World_1_1Chunk_a2d39efc9f5c0f3c302dd7e9d007096c7_icgraph_org.svg" target="_base">
   <rect id="button" ry="5" rx="5" y="6" x="6" height="38" width="38"
        fill="#f2f5e9" fill-opacity="0.5" stroke="#606060" stroke-width="1.0"/>
   <path id="arrow"
     d="M 11.500037,31.436501 C 11.940474,20.09759 22.043105,11.32322 32.158766,21.979434 L 37.068811,17.246167 C 37.068811,17.246167 37.088388,32 37.088388,32 L 22.160133,31.978069 C 22.160133,31.978069 26.997745,27.140456 26.997745,27.140456 C 18.528582,18.264221 13.291696,25.230495 11.500037,31.436501 z"
     style="fill:#404040;"/>
  </a>
 </g>
</svg>

<style type='text/css'>
<![CDATA[
[data-mouse-over-selected='false'] { opacity: 0.7; }
[data-mouse-over-selected='true']  { opacity: 1.0; }
]]>
</style>
<script type="application/ecmascript"><![CDATA[
document.addEventListener('DOMContentLoaded', (event) => {
  highlightEdges();
  highlightAdjacentNodes();
});
]]></script>
</svg>
