<?xml version="1.0" encoding="UTF-8" standalone="no"?>
<!DOCTYPE svg PUBLIC "-//W3C//DTD SVG 1.1//EN"
 "http://www.w3.org/Graphics/SVG/1.1/DTD/svg11.dtd">
<!-- Generated by graphviz version 2.43.0 (0)
 -->
<!-- Title: Game.Car.ChunkChanged Pages: 1 -->
<svg width="503pt" height="27pt"
 viewBox="0.00 0.00 503.00 27.00" xmlns="http://www.w3.org/2000/svg" xmlns:xlink="http://www.w3.org/1999/xlink">
<g id="graph0" class="graph" transform="scale(1 1) rotate(0) translate(4 23)">
<title>Game.Car.ChunkChanged</title>
<!-- Node1 -->
<g id="Node000001" class="node">
<title>Node1</title>
<g id="a_Node000001"><a xlink:title="Virtual method for chunk changed.">
<polygon fill="#999999" stroke="#666666" points="495,-19 354,-19 354,0 495,0 495,-19"/>
<text text-anchor="middle" x="424.5" y="-7" font-family="Helvetica,sans-Serif" font-size="10.00">Game.Car.ChunkChanged</text>
</a>
</g>
</g>
<!-- Node2 -->
<g id="Node000002" class="node">
<title>Node2</title>
<g id="a_Node000002"><a xlink:href="classGame_1_1Car.html#aee18ec29b76c64797a649d50a6f83eed" target="_top" xlink:title="Change the chunk if it went over the chunk border.">
<polygon fill="white" stroke="#666666" points="318,-19 139,-19 139,0 318,0 318,-19"/>
<text text-anchor="middle" x="228.5" y="-7" font-family="Helvetica,sans-Serif" font-size="10.00">Game.Car.ChangeChunkIfNeeded</text>
</a>
</g>
</g>
<!-- Node1&#45;&gt;Node2 -->
<g id="edge1_Node000001_Node000002" class="edge">
<title>Node1&#45;&gt;Node2</title>
<g id="a_edge1_Node000001_Node000002"><a xlink:title=" ">
<path fill="none" stroke="#63b8ff" d="M343.63,-9.5C335.26,-9.5 326.71,-9.5 318.24,-9.5"/>
<polygon fill="#63b8ff" stroke="#63b8ff" points="343.74,-13 353.74,-9.5 343.74,-6 343.74,-13"/>
</a>
</g>
</g>
<!-- Node3 -->
<g id="Node000003" class="node">
<title>Node3</title>
<g id="a_Node000003"><a xlink:href="classGame_1_1Car.html#a1efffc1014c81e16512eee6c311dbb97" target="_top" xlink:title="Called every frame.">
<polygon fill="white" stroke="#666666" points="103,-19 0,-19 0,0 103,0 103,-19"/>
<text text-anchor="middle" x="51.5" y="-7" font-family="Helvetica,sans-Serif" font-size="10.00">Game.Car.Update</text>
</a>
</g>
</g>
<!-- Node2&#45;&gt;Node3 -->
<g id="edge2_Node000002_Node000003" class="edge">
<title>Node2&#45;&gt;Node3</title>
<g id="a_edge2_Node000002_Node000003"><a xlink:title=" ">
<path fill="none" stroke="#63b8ff" d="M128.7,-9.5C119.99,-9.5 111.43,-9.5 103.38,-9.5"/>
<polygon fill="#63b8ff" stroke="#63b8ff" points="128.97,-13 138.97,-9.5 128.97,-6 128.97,-13"/>
</a>
</g>
</g>
</g>
</svg>
