<?xml version="1.0" encoding="UTF-8" standalone="no"?>
<!DOCTYPE svg PUBLIC "-//W3C//DTD SVG 1.1//EN"
 "http://www.w3.org/Graphics/SVG/1.1/DTD/svg11.dtd">
<!-- Generated by graphviz version 2.43.0 (0)
 -->
<!-- Title: Game.UI.GameUI.BuyTurbo Pages: 1 -->
<svg width="602pt" height="175pt"
 viewBox="0.00 0.00 602.00 175.00" xmlns="http://www.w3.org/2000/svg" xmlns:xlink="http://www.w3.org/1999/xlink">
<g id="graph0" class="graph" transform="scale(1 1) rotate(0) translate(4 171)">
<title>Game.UI.GameUI.BuyTurbo</title>
<!-- Node1 -->
<g id="Node000001" class="node">
<title>Node1</title>
<g id="a_Node000001"><a xlink:title="Buy the turbo power up.">
<polygon fill="#999999" stroke="#666666" points="150,-93 0,-93 0,-74 150,-74 150,-93"/>
<text text-anchor="middle" x="75" y="-81" font-family="Helvetica,sans-Serif" font-size="10.00">Game.UI.GameUI.BuyTurbo</text>
</a>
</g>
</g>
<!-- Node2 -->
<g id="Node000002" class="node">
<title>Node2</title>
<g id="a_Node000002"><a xlink:href="classGame_1_1PlayerCar.html#aaa57e11cd8cc243d3b3964818c102053" target="_top" xlink:title="Apply the turbo bonus to the player.">
<polygon fill="white" stroke="#666666" points="361,-167 209,-167 209,-148 361,-148 361,-167"/>
<text text-anchor="middle" x="285" y="-155" font-family="Helvetica,sans-Serif" font-size="10.00">Game.PlayerCar.ApplyTurbo</text>
</a>
</g>
</g>
<!-- Node1&#45;&gt;Node2 -->
<g id="edge1_Node000001_Node000002" class="edge">
<title>Node1&#45;&gt;Node2</title>
<g id="a_edge1_Node000001_Node000002"><a xlink:title=" ">
<path fill="none" stroke="#63b8ff" d="M91.4,-93.16C112.12,-105.72 150.48,-127.48 186,-139.5 192.87,-141.83 200.12,-143.87 207.44,-145.67"/>
<polygon fill="#63b8ff" stroke="#63b8ff" points="206.91,-149.14 217.44,-147.97 208.48,-142.31 206.91,-149.14"/>
</a>
</g>
</g>
<!-- Node3 -->
<g id="Node000003" class="node">
<title>Node3</title>
<g id="a_Node000003"><a xlink:href="classGame_1_1UI_1_1GameUI.html#a1b43083f2e18b3389e4f654cc2d73bed" target="_top" xlink:title="Callback after the player bought the turbo.">
<polygon fill="white" stroke="#666666" points="368,-130 202,-130 202,-111 368,-111 368,-130"/>
<text text-anchor="middle" x="285" y="-118" font-family="Helvetica,sans-Serif" font-size="10.00">Game.UI.GameUI.BoughtTurbo</text>
</a>
</g>
</g>
<!-- Node1&#45;&gt;Node3 -->
<g id="edge2_Node000001_Node000003" class="edge">
<title>Node1&#45;&gt;Node3</title>
<g id="a_edge2_Node000001_Node000003"><a xlink:title=" ">
<path fill="none" stroke="#63b8ff" d="M129.57,-93.03C157.24,-97.95 191.2,-103.99 220.21,-109.15"/>
<polygon fill="#63b8ff" stroke="#63b8ff" points="219.8,-112.63 230.26,-110.94 221.02,-105.74 219.8,-112.63"/>
</a>
</g>
</g>
<!-- Node5 -->
<g id="Node000005" class="node">
<title>Node5</title>
<g id="a_Node000005"><a xlink:href="classGame_1_1PlayerCar.html#ab82df1aeb3c64c5129ecc1aae08df1f7" target="_top" xlink:title="Cancel the turbo bonus.">
<polygon fill="white" stroke="#666666" points="364,-93 206,-93 206,-74 364,-74 364,-93"/>
<text text-anchor="middle" x="285" y="-81" font-family="Helvetica,sans-Serif" font-size="10.00">Game.PlayerCar.CancelTurbo</text>
</a>
</g>
</g>
<!-- Node1&#45;&gt;Node5 -->
<g id="edge4_Node000001_Node000005" class="edge">
<title>Node1&#45;&gt;Node5</title>
<g id="a_edge4_Node000001_Node000005"><a xlink:title=" ">
<path fill="none" stroke="#63b8ff" d="M150.21,-83.5C164.9,-83.5 180.46,-83.5 195.57,-83.5"/>
<polygon fill="#63b8ff" stroke="#63b8ff" points="195.95,-87 205.95,-83.5 195.95,-80 195.95,-87"/>
</a>
</g>
</g>
<!-- Node6 -->
<g id="Node000006" class="node">
<title>Node6</title>
<g id="a_Node000006"><a xlink:href="classUtility_1_1CoroutineRunner.html#a1c473dee723f16d86bab9d8475c8214a" target="_top" xlink:title="A helper method to start coroutines.">
<polygon fill="white" stroke="#666666" points="384,-56 186,-56 186,-37 384,-37 384,-56"/>
<text text-anchor="middle" x="285" y="-44" font-family="Helvetica,sans-Serif" font-size="10.00">Utility.CoroutineRunner.RunCoroutine</text>
</a>
</g>
</g>
<!-- Node1&#45;&gt;Node6 -->
<g id="edge5_Node000001_Node000006" class="edge">
<title>Node1&#45;&gt;Node6</title>
<g id="a_edge5_Node000001_Node000006"><a xlink:title=" ">
<path fill="none" stroke="#63b8ff" d="M129.57,-73.97C157.24,-69.05 191.2,-63.01 220.21,-57.85"/>
<polygon fill="#63b8ff" stroke="#63b8ff" points="221.02,-61.26 230.26,-56.06 219.8,-54.37 221.02,-61.26"/>
</a>
</g>
</g>
<!-- Node7 -->
<g id="Node000007" class="node">
<title>Node7</title>
<g id="a_Node000007"><a xlink:href="classGame_1_1UI_1_1GameUI.html#ac464d5a547acb44085748e2ee265272f" target="_top" xlink:title="Show if the request failed on the modal window.">
<polygon fill="white" stroke="#666666" points="379,-19 191,-19 191,0 379,0 379,-19"/>
<text text-anchor="middle" x="285" y="-7" font-family="Helvetica,sans-Serif" font-size="10.00">Game.UI.GameUI.ShowRequestFail</text>
</a>
</g>
</g>
<!-- Node1&#45;&gt;Node7 -->
<g id="edge6_Node000001_Node000007" class="edge">
<title>Node1&#45;&gt;Node7</title>
<g id="a_edge6_Node000001_Node000007"><a xlink:title=" ">
<path fill="none" stroke="#63b8ff" d="M91.8,-73.87C112.65,-61.57 150.82,-40.45 186,-28.5 194.02,-25.77 202.55,-23.4 211.1,-21.33"/>
<polygon fill="#63b8ff" stroke="#63b8ff" points="212.15,-24.69 221.12,-19.06 210.6,-17.86 212.15,-24.69"/>
</a>
</g>
</g>
<!-- Node4 -->
<g id="Node000004" class="node">
<title>Node4</title>
<g id="a_Node000004"><a xlink:href="classUser_1_1UserData.html#a103846d4ce97a5d089423d4efd1a5ec0" target="_top" xlink:title="Update the user&#39;s task score.">
<polygon fill="white" stroke="#666666" points="594,-130 420,-130 420,-111 594,-111 594,-130"/>
<text text-anchor="middle" x="507" y="-118" font-family="Helvetica,sans-Serif" font-size="10.00">User.UserData.UpdateTaskScore</text>
</a>
</g>
</g>
<!-- Node3&#45;&gt;Node4 -->
<g id="edge3_Node000003_Node000004" class="edge">
<title>Node3&#45;&gt;Node4</title>
<g id="a_edge3_Node000003_Node000004"><a xlink:title=" ">
<path fill="none" stroke="#63b8ff" d="M368.23,-120.5C381.79,-120.5 395.94,-120.5 409.8,-120.5"/>
<polygon fill="#63b8ff" stroke="#63b8ff" points="409.82,-124 419.82,-120.5 409.82,-117 409.82,-124"/>
</a>
</g>
</g>
<!-- Node8 -->
<g id="Node000008" class="node">
<title>Node8</title>
<g id="a_Node000008"><a xlink:href="classUtility_1_1ModalWindow.html#adcef8cae2dffe4247c905d042ff0a8e3" target="_top" xlink:title="Show the modal window.">
<polygon fill="white" stroke="#666666" points="580,-19 434,-19 434,0 580,0 580,-19"/>
<text text-anchor="middle" x="507" y="-7" font-family="Helvetica,sans-Serif" font-size="10.00">Utility.ModalWindow.Show</text>
</a>
</g>
</g>
<!-- Node7&#45;&gt;Node8 -->
<g id="edge7_Node000007_Node000008" class="edge">
<title>Node7&#45;&gt;Node8</title>
<g id="a_edge7_Node000007_Node000008"><a xlink:title=" ">
<path fill="none" stroke="#63b8ff" d="M379.3,-9.5C394,-9.5 409.11,-9.5 423.54,-9.5"/>
<polygon fill="#63b8ff" stroke="#63b8ff" points="423.92,-13 433.92,-9.5 423.92,-6 423.92,-13"/>
</a>
</g>
</g>
</g>
</svg>
