<?xml version="1.0" encoding="UTF-8" standalone="no"?>
<!DOCTYPE svg PUBLIC "-//W3C//DTD SVG 1.1//EN"
 "http://www.w3.org/Graphics/SVG/1.1/DTD/svg11.dtd">
<!-- Generated by graphviz version 2.43.0 (0)
 -->
<!-- Title: Game.GameController Pages: 1 -->
<!--zoomable 1348 -->
<svg id="main" version="1.1" xmlns="http://www.w3.org/2000/svg" xmlns:xlink="http://www.w3.org/1999/xlink" xml:space="preserve" onload="init(evt)">
<style type="text/css"><![CDATA[
.edge:hover path { stroke: red; }
.edge:hover polygon { stroke: red; fill: red; }
]]></style>
<script type="text/javascript"><![CDATA[
var edges = document.getElementsByTagName('g');
if (edges && edges.length) {
  for (var i=0;i<edges.length;i++) {
    if (edges[i].id.substr(0,4)=='edge') {
      edges[i].setAttribute('class','edge');
    }
  }
}
]]></script>
        <defs>
                <circle id="rim" cx="0" cy="0" r="7"/>
                <circle id="rim2" cx="0" cy="0" r="3.5"/>
                <g id="zoomPlus">
                        <use xlink:href="#rim" fill="#404040">
                                <set attributeName="fill" to="#808080" begin="zoomplus.mouseover" end="zoomplus.mouseout"/>
                        </use>
                        <path d="M-4,0h8M0,-4v8" fill="none" stroke="white" stroke-width="1.5" pointer-events="none"/>
                </g>
                <g id="zoomMin">
                        <use xlink:href="#rim" fill="#404040">
                                <set attributeName="fill" to="#808080" begin="zoomminus.mouseover" end="zoomminus.mouseout"/>
                        </use>
                        <path d="M-4,0h8" fill="none" stroke="white" stroke-width="1.5" pointer-events="none"/>
                </g>
                <g id="dirArrow">
                        <path fill="none" stroke="white" stroke-width="1.5" d="M0,-3.0v7 M-2.5,-0.5L0,-3.0L2.5,-0.5"/>
                </g>
               <g id="resetDef">
                       <use xlink:href="#rim2" fill="#404040">
                               <set attributeName="fill" to="#808080" begin="reset.mouseover" end="reset.mouseout"/>
                       </use>
               </g>
        </defs>

<script type="text/javascript">
var viewWidth = 1150;
var viewHeight = 1348;
var sectionId = 'dynsection-1';
</script>
<script xlink:href="svgpan.js"/>
<svg id="graph" class="graph">
<g id="viewport">
<title>Game.GameController</title>
<polygon fill="white" stroke="transparent" points="-4,4 -4,-1344 1146,-1344 1146,4 -4,4"/>
<!-- Node1 -->
<g id="node1" class="node">
<title>Node1</title>
<g id="a_node1"><a xlink:title="Handles the main flow of the game scene">
<polygon fill="#bfbfbf" stroke="black" points="727,-818.5 727,-1139.5 984,-1139.5 984,-818.5 727,-818.5"/>
<text text-anchor="middle" x="855.5" y="-1127.5" font-family="Helvetica,sans-Serif" font-size="10.00">Game.GameController</text>
<polyline fill="none" stroke="black" points="727,-1120.5 984,-1120.5 "/>
<text text-anchor="start" x="735" y="-1108.5" font-family="Helvetica,sans-Serif" font-size="10.00">+ World.GameWorld World</text>
<text text-anchor="start" x="735" y="-1097.5" font-family="Helvetica,sans-Serif" font-size="10.00">+ int Score</text>
<text text-anchor="start" x="735" y="-1086.5" font-family="Helvetica,sans-Serif" font-size="10.00">+ PlayerCar? Player</text>
<text text-anchor="start" x="735" y="-1075.5" font-family="Helvetica,sans-Serif" font-size="10.00">+ Vector3 PlayerPos</text>
<text text-anchor="start" x="735" y="-1064.5" font-family="Helvetica,sans-Serif" font-size="10.00">+ bool Running</text>
<text text-anchor="start" x="735" y="-1053.5" font-family="Helvetica,sans-Serif" font-size="10.00">+ int Difficulty</text>
<text text-anchor="start" x="735" y="-1042.5" font-family="Helvetica,sans-Serif" font-size="10.00">+ float Coins</text>
<text text-anchor="start" x="735" y="-1031.5" font-family="Helvetica,sans-Serif" font-size="10.00">&#45; int chunkLoadDistance</text>
<text text-anchor="start" x="735" y="-1020.5" font-family="Helvetica,sans-Serif" font-size="10.00">&#45; Dictionary&lt; long, GameObject &gt; playerVariants</text>
<text text-anchor="start" x="735" y="-1009.5" font-family="Helvetica,sans-Serif" font-size="10.00">&#45; float elapsedTime</text>
<polyline fill="none" stroke="black" points="727,-1002.5 984,-1002.5 "/>
<text text-anchor="start" x="735" y="-990.5" font-family="Helvetica,sans-Serif" font-size="10.00">+ void IncreaseCoinCount(float amount)</text>
<text text-anchor="start" x="735" y="-979.5" font-family="Helvetica,sans-Serif" font-size="10.00">+ async Task NewGame()</text>
<text text-anchor="start" x="735" y="-968.5" font-family="Helvetica,sans-Serif" font-size="10.00">+ async Task LoadAndDespawnChunks</text>
<text text-anchor="start" x="735" y="-957.5" font-family="Helvetica,sans-Serif" font-size="10.00">(int centerRow, int centerColumn)</text>
<text text-anchor="start" x="735" y="-946.5" font-family="Helvetica,sans-Serif" font-size="10.00">&#45; void Awake()</text>
<text text-anchor="start" x="735" y="-935.5" font-family="Helvetica,sans-Serif" font-size="10.00">&#45; void Start()</text>
<text text-anchor="start" x="735" y="-924.5" font-family="Helvetica,sans-Serif" font-size="10.00">&#45; void Update()</text>
<text text-anchor="start" x="735" y="-913.5" font-family="Helvetica,sans-Serif" font-size="10.00">&#45; void PlayerSkinsLoaded(GameObject</text>
<text text-anchor="start" x="735" y="-902.5" font-family="Helvetica,sans-Serif" font-size="10.00"> playerSkin)</text>
<text text-anchor="start" x="735" y="-891.5" font-family="Helvetica,sans-Serif" font-size="10.00">&#45; void PlayerDied(object? sender,</text>
<text text-anchor="start" x="735" y="-880.5" font-family="Helvetica,sans-Serif" font-size="10.00"> EventArgs args)</text>
<text text-anchor="start" x="735" y="-869.5" font-family="Helvetica,sans-Serif" font-size="10.00">&#45; void DespawnFarAwayChunks(int row, int col)</text>
<text text-anchor="start" x="735" y="-858.5" font-family="Helvetica,sans-Serif" font-size="10.00">&#45; async Task SpawnNearbyChunks(int</text>
<text text-anchor="start" x="735" y="-847.5" font-family="Helvetica,sans-Serif" font-size="10.00"> row, int col)</text>
<text text-anchor="start" x="735" y="-836.5" font-family="Helvetica,sans-Serif" font-size="10.00">&#45; async Task ValidateAndLoadChunk</text>
<text text-anchor="start" x="735" y="-825.5" font-family="Helvetica,sans-Serif" font-size="10.00">(int row, int col)</text>
</a>
</g>
</g>
<!-- Node4 -->
<g id="node4" class="node">
<title>Node4</title>
<g id="a_node4"><a xlink:href="classGame_1_1UI_1_1GameUI.html" target="_top" xlink:title="Controller for the game&#39;s UI">
<polygon fill="white" stroke="black" points="386.5,-0.5 386.5,-475.5 694.5,-475.5 694.5,-0.5 386.5,-0.5"/>
<text text-anchor="middle" x="540.5" y="-463.5" font-family="Helvetica,sans-Serif" font-size="10.00">Game.UI.GameUI</text>
<polyline fill="none" stroke="black" points="386.5,-456.5 694.5,-456.5 "/>
<text text-anchor="start" x="394.5" y="-444.5" font-family="Helvetica,sans-Serif" font-size="10.00">+ bool Doubled</text>
<text text-anchor="start" x="394.5" y="-433.5" font-family="Helvetica,sans-Serif" font-size="10.00">+ int SelectedSkinIndex</text>
<text text-anchor="start" x="394.5" y="-422.5" font-family="Helvetica,sans-Serif" font-size="10.00">&#45; GameObject gameOverContainer</text>
<text text-anchor="start" x="394.5" y="-411.5" font-family="Helvetica,sans-Serif" font-size="10.00">&#45; GameObject ingameContainer</text>
<text text-anchor="start" x="394.5" y="-400.5" font-family="Helvetica,sans-Serif" font-size="10.00">&#45; GameObject mainMenuContainer</text>
<text text-anchor="start" x="394.5" y="-389.5" font-family="Helvetica,sans-Serif" font-size="10.00">&#45; Image SkinDisplay</text>
<text text-anchor="start" x="394.5" y="-378.5" font-family="Helvetica,sans-Serif" font-size="10.00">&#45; TMP_Text InfamyGameOverText</text>
<text text-anchor="start" x="394.5" y="-367.5" font-family="Helvetica,sans-Serif" font-size="10.00">&#45; TMP_Text CoinGameOverText</text>
<text text-anchor="start" x="394.5" y="-356.5" font-family="Helvetica,sans-Serif" font-size="10.00">&#45; TMP_Text InfamyInGameText</text>
<text text-anchor="start" x="394.5" y="-345.5" font-family="Helvetica,sans-Serif" font-size="10.00">&#45; TMP_Text TaskScoreInGameText</text>
<text text-anchor="start" x="394.5" y="-334.5" font-family="Helvetica,sans-Serif" font-size="10.00">&#45; TMP_Text CoinInGameText</text>
<text text-anchor="start" x="394.5" y="-323.5" font-family="Helvetica,sans-Serif" font-size="10.00">&#45; Button DoubleCoinButon</text>
<polyline fill="none" stroke="black" points="386.5,-316.5 694.5,-316.5 "/>
<text text-anchor="start" x="394.5" y="-304.5" font-family="Helvetica,sans-Serif" font-size="10.00">+ void SaveGameResult()</text>
<text text-anchor="start" x="394.5" y="-293.5" font-family="Helvetica,sans-Serif" font-size="10.00">+ void DoubleCoins()</text>
<text text-anchor="start" x="394.5" y="-282.5" font-family="Helvetica,sans-Serif" font-size="10.00">+ void BuyImmunity()</text>
<text text-anchor="start" x="394.5" y="-271.5" font-family="Helvetica,sans-Serif" font-size="10.00">+ void BuyTurbo()</text>
<text text-anchor="start" x="394.5" y="-260.5" font-family="Helvetica,sans-Serif" font-size="10.00">+ void ShowLeaderboard()</text>
<text text-anchor="start" x="394.5" y="-249.5" font-family="Helvetica,sans-Serif" font-size="10.00">+ void LeftRotateSkin()</text>
<text text-anchor="start" x="394.5" y="-238.5" font-family="Helvetica,sans-Serif" font-size="10.00">+ void RightRotateSkin()</text>
<text text-anchor="start" x="394.5" y="-227.5" font-family="Helvetica,sans-Serif" font-size="10.00">+ void Init(GameController gameController)</text>
<text text-anchor="start" x="394.5" y="-216.5" font-family="Helvetica,sans-Serif" font-size="10.00">+ async void NewGame(bool save=true)</text>
<text text-anchor="start" x="394.5" y="-205.5" font-family="Helvetica,sans-Serif" font-size="10.00">+ void ChangeDifficulyDisplay(int</text>
<text text-anchor="start" x="394.5" y="-194.5" font-family="Helvetica,sans-Serif" font-size="10.00"> difficulty)</text>
<text text-anchor="start" x="394.5" y="-183.5" font-family="Helvetica,sans-Serif" font-size="10.00">+ void ShowEndGameScreen()</text>
<text text-anchor="start" x="394.5" y="-172.5" font-family="Helvetica,sans-Serif" font-size="10.00">+ void HideGameOverScreen(bool saveGameResults=true)</text>
<text text-anchor="start" x="394.5" y="-161.5" font-family="Helvetica,sans-Serif" font-size="10.00">+ void ShowShopWindow()</text>
<text text-anchor="start" x="394.5" y="-150.5" font-family="Helvetica,sans-Serif" font-size="10.00">+ void HideShopWindow()</text>
<text text-anchor="start" x="394.5" y="-139.5" font-family="Helvetica,sans-Serif" font-size="10.00">+ void BackToTasks()</text>
<text text-anchor="start" x="394.5" y="-128.5" font-family="Helvetica,sans-Serif" font-size="10.00">+ void BackToGameMenuWithoutSave()</text>
<text text-anchor="start" x="394.5" y="-117.5" font-family="Helvetica,sans-Serif" font-size="10.00">+ void BackToGameMenu()</text>
<text text-anchor="start" x="394.5" y="-106.5" font-family="Helvetica,sans-Serif" font-size="10.00">&#45; void Update()</text>
<text text-anchor="start" x="394.5" y="-95.5" font-family="Helvetica,sans-Serif" font-size="10.00">&#45; void SavedCoins(Thesis_backend.Data</text>
<text text-anchor="start" x="394.5" y="-84.5" font-family="Helvetica,sans-Serif" font-size="10.00">_Structures.Game game)</text>
<text text-anchor="start" x="394.5" y="-73.5" font-family="Helvetica,sans-Serif" font-size="10.00">&#45; void BoughtImmunity(Thesis_backend.Data</text>
<text text-anchor="start" x="394.5" y="-62.5" font-family="Helvetica,sans-Serif" font-size="10.00">_Structures.User user)</text>
<text text-anchor="start" x="394.5" y="-51.5" font-family="Helvetica,sans-Serif" font-size="10.00">&#45; void BoughtTurbo(Thesis_backend.Data</text>
<text text-anchor="start" x="394.5" y="-40.5" font-family="Helvetica,sans-Serif" font-size="10.00">_Structures.User user)</text>
<text text-anchor="start" x="394.5" y="-29.5" font-family="Helvetica,sans-Serif" font-size="10.00">&#45; void DoubledCoins(Thesis_backend.Data</text>
<text text-anchor="start" x="394.5" y="-18.5" font-family="Helvetica,sans-Serif" font-size="10.00">_Structures.User user)</text>
<text text-anchor="start" x="394.5" y="-7.5" font-family="Helvetica,sans-Serif" font-size="10.00">&#45; void ShowRequestFail(string content)</text>
</a>
</g>
</g>
<!-- Node1&#45;&gt;Node4 -->
<g id="edge15" class="edge">
<title>Node1&#45;&gt;Node4</title>
<path fill="none" stroke="#404040" d="M766.61,-818.33C748.75,-781.04 731.74,-740.85 719.5,-702 691.39,-612.79 718.5,-582.25 687.5,-494 686.66,-491.6 685.79,-489.19 684.9,-486.79"/>
<polygon fill="none" stroke="#404040" points="684.88,-486.72 679,-482.55 680.59,-475.52 686.47,-479.69 684.88,-486.72"/>
<text text-anchor="middle" x="761" y="-610" font-family="Helvetica,sans-Serif" font-size="10.00"> &#45;gameController</text>
</g>
<!-- Node10 -->
<g id="node10" class="node">
<title>Node10</title>
<g id="a_node10"><a xlink:href="classGame_1_1World_1_1CarSpawner.html" target="_top" xlink:title="Car spawner">
<polygon fill="white" stroke="black" points="903,-529 903,-696 1142,-696 1142,-529 903,-529"/>
<text text-anchor="middle" x="1022.5" y="-684" font-family="Helvetica,sans-Serif" font-size="10.00">Game.World.CarSpawner</text>
<polyline fill="none" stroke="black" points="903,-677 1142,-677 "/>
<text text-anchor="start" x="911" y="-665" font-family="Helvetica,sans-Serif" font-size="10.00">&#45; List&lt; GameObject &gt; CopCars</text>
<text text-anchor="start" x="911" y="-654" font-family="Helvetica,sans-Serif" font-size="10.00">&#45; List&lt; GameObject &gt; CitizenCars</text>
<text text-anchor="start" x="911" y="-643" font-family="Helvetica,sans-Serif" font-size="10.00">&#45; Dictionary&lt; int, float &gt; spawnIntervalsTier1</text>
<text text-anchor="start" x="911" y="-632" font-family="Helvetica,sans-Serif" font-size="10.00">&#45; Dictionary&lt; int, float &gt; spawnIntervalsTier2</text>
<text text-anchor="start" x="911" y="-621" font-family="Helvetica,sans-Serif" font-size="10.00">&#45; Dictionary&lt; int, float &gt; spawnIntervalsTier3</text>
<text text-anchor="start" x="911" y="-610" font-family="Helvetica,sans-Serif" font-size="10.00">&#45; float tier1SpawnerTimer</text>
<text text-anchor="start" x="911" y="-599" font-family="Helvetica,sans-Serif" font-size="10.00">&#45; float tier2SpawnerTimer</text>
<text text-anchor="start" x="911" y="-588" font-family="Helvetica,sans-Serif" font-size="10.00">&#45; float tier3SpawnerTimer</text>
<polyline fill="none" stroke="black" points="903,-581 1142,-581 "/>
<text text-anchor="start" x="911" y="-569" font-family="Helvetica,sans-Serif" font-size="10.00">+ void Update()</text>
<text text-anchor="start" x="911" y="-558" font-family="Helvetica,sans-Serif" font-size="10.00">+ void SpawnPolice(GameObject carPrefab)</text>
<text text-anchor="start" x="911" y="-547" font-family="Helvetica,sans-Serif" font-size="10.00">+ void Reset()</text>
<text text-anchor="start" x="911" y="-536" font-family="Helvetica,sans-Serif" font-size="10.00">+ void SpawnNpc()</text>
</a>
</g>
</g>
<!-- Node1&#45;&gt;Node10 -->
<g id="edge19" class="edge">
<title>Node1&#45;&gt;Node10</title>
<path fill="none" stroke="#404040" d="M929.49,-818.36C931.92,-812.19 934.27,-806.05 936.5,-800 949.31,-765.29 944.85,-753.97 959.5,-720 961.36,-715.68 963.36,-711.33 965.47,-706.97"/>
<polygon fill="none" stroke="#404040" points="965.51,-706.88 964.63,-699.73 970.9,-696.16 971.78,-703.32 965.51,-706.88"/>
<text text-anchor="middle" x="1001" y="-757.5" font-family="Helvetica,sans-Serif" font-size="10.00"> &#45;gameController</text>
</g>
<!-- Node2 -->
<g id="node2" class="node">
<title>Node2</title>
<g id="a_node2"><a xlink:href="classUtility_1_1ThreadSafeMonoBehaviour.html" target="_top" xlink:title="Safely stores if the gameobject been destroyed in a bool">
<polygon fill="white" stroke="black" points="496,-1187.5 496,-1244.5 645,-1244.5 645,-1187.5 496,-1187.5"/>
<text text-anchor="middle" x="570.5" y="-1232.5" font-family="Helvetica,sans-Serif" font-size="10.00">ThreadSafeMonoBehaviour</text>
<polyline fill="none" stroke="black" points="496,-1225.5 645,-1225.5 "/>
<text text-anchor="start" x="504" y="-1213.5" font-family="Helvetica,sans-Serif" font-size="10.00">+ bool Destroyed</text>
<polyline fill="none" stroke="black" points="496,-1206.5 645,-1206.5 "/>
<text text-anchor="start" x="504" y="-1194.5" font-family="Helvetica,sans-Serif" font-size="10.00"># void OnDestroy()</text>
</a>
</g>
</g>
<!-- Node2&#45;&gt;Node1 -->
<g id="edge1" class="edge">
<title>Node2&#45;&gt;Node1</title>
<path fill="none" stroke="midnightblue" d="M654.55,-1187.57C666.07,-1182.22 677.4,-1176.05 687.5,-1169 701,-1159.58 714.15,-1148.86 726.76,-1137.43"/>
<polygon fill="none" stroke="midnightblue" points="653,-1184.43 645.28,-1191.68 655.84,-1190.82 653,-1184.43"/>
</g>
<!-- Node2&#45;&gt;Node4 -->
<g id="edge4" class="edge">
<title>Node2&#45;&gt;Node4</title>
<path fill="none" stroke="midnightblue" d="M583.01,-1177.68C616.22,-1073.43 700.94,-770.55 653.5,-523 650.5,-507.36 646.66,-491.49 642.2,-475.66"/>
<polygon fill="none" stroke="midnightblue" points="579.6,-1176.83 579.87,-1187.42 586.26,-1178.98 579.6,-1176.83"/>
</g>
<!-- Node5 -->
<g id="node5" class="node">
<title>Node5</title>
<g id="a_node5"><a xlink:href="classGame_1_1UI_1_1ShopWindow.html" target="_top" xlink:title="Handles the shop window&#39;s content display">
<polygon fill="white" stroke="black" points="436,-523.5 436,-701.5 645,-701.5 645,-523.5 436,-523.5"/>
<text text-anchor="middle" x="540.5" y="-689.5" font-family="Helvetica,sans-Serif" font-size="10.00">Game.UI.ShopWindow</text>
<polyline fill="none" stroke="black" points="436,-682.5 645,-682.5 "/>
<text text-anchor="start" x="444" y="-670.5" font-family="Helvetica,sans-Serif" font-size="10.00">+ List&lt; Sprite &gt; ShopItemSprites</text>
<text text-anchor="start" x="444" y="-659.5" font-family="Helvetica,sans-Serif" font-size="10.00">&#45; GameObject ShopParent</text>
<text text-anchor="start" x="444" y="-648.5" font-family="Helvetica,sans-Serif" font-size="10.00">&#45; GameObject ShopItemPrefab</text>
<text text-anchor="start" x="444" y="-637.5" font-family="Helvetica,sans-Serif" font-size="10.00">&#45; TMP_Text CoinText</text>
<text text-anchor="start" x="444" y="-626.5" font-family="Helvetica,sans-Serif" font-size="10.00">&#45; List&lt; Shop &gt; shopItemsCache</text>
<polyline fill="none" stroke="black" points="436,-619.5 645,-619.5 "/>
<text text-anchor="start" x="444" y="-607.5" font-family="Helvetica,sans-Serif" font-size="10.00">+ void Show()</text>
<text text-anchor="start" x="444" y="-596.5" font-family="Helvetica,sans-Serif" font-size="10.00">+ void Hide()</text>
<text text-anchor="start" x="444" y="-585.5" font-family="Helvetica,sans-Serif" font-size="10.00">+ void ShowRequestFail(string content)</text>
<text text-anchor="start" x="444" y="-574.5" font-family="Helvetica,sans-Serif" font-size="10.00">+ void UpdateShop()</text>
<text text-anchor="start" x="444" y="-563.5" font-family="Helvetica,sans-Serif" font-size="10.00">+ string GetCoinText()</text>
<text text-anchor="start" x="444" y="-552.5" font-family="Helvetica,sans-Serif" font-size="10.00">+ GameObject GetShopParent()</text>
<text text-anchor="start" x="444" y="-541.5" font-family="Helvetica,sans-Serif" font-size="10.00">&#45; void LoadedShopItems(List&lt; Shop</text>
<text text-anchor="start" x="444" y="-530.5" font-family="Helvetica,sans-Serif" font-size="10.00"> &gt; shopItems)</text>
</a>
</g>
</g>
<!-- Node2&#45;&gt;Node5 -->
<g id="edge6" class="edge">
<title>Node2&#45;&gt;Node5</title>
<path fill="none" stroke="midnightblue" d="M570.99,-1177.09C571.71,-1094.07 571.62,-890.02 556.5,-720 555.97,-714.04 555.32,-707.91 554.6,-701.74"/>
<polygon fill="none" stroke="midnightblue" points="567.48,-1177.26 570.89,-1187.29 574.48,-1177.33 567.48,-1177.26"/>
</g>
<!-- Node6 -->
<g id="node6" class="node">
<title>Node6</title>
<g id="a_node6"><a xlink:href="classUtility_1_1ModalWindow.html" target="_top" xlink:title="Modal window for alerting the user">
<polygon fill="white" stroke="black" points="154,-917.5 154,-1040.5 363,-1040.5 363,-917.5 154,-917.5"/>
<text text-anchor="middle" x="258.5" y="-1028.5" font-family="Helvetica,sans-Serif" font-size="10.00">Utility.ModalWindow</text>
<polyline fill="none" stroke="black" points="154,-1021.5 363,-1021.5 "/>
<text text-anchor="start" x="162" y="-1009.5" font-family="Helvetica,sans-Serif" font-size="10.00">&#45; TMP_Text ModalTitleText</text>
<text text-anchor="start" x="162" y="-998.5" font-family="Helvetica,sans-Serif" font-size="10.00">&#45; TMP_Text ModalContentText</text>
<text text-anchor="start" x="162" y="-987.5" font-family="Helvetica,sans-Serif" font-size="10.00">&#45; Action onOkAction</text>
<polyline fill="none" stroke="black" points="154,-980.5 363,-980.5 "/>
<text text-anchor="start" x="162" y="-968.5" font-family="Helvetica,sans-Serif" font-size="10.00">+ void Show()</text>
<text text-anchor="start" x="162" y="-957.5" font-family="Helvetica,sans-Serif" font-size="10.00">+ void Show(string title, string content,</text>
<text text-anchor="start" x="162" y="-946.5" font-family="Helvetica,sans-Serif" font-size="10.00"> Action onOkAction=null)</text>
<text text-anchor="start" x="162" y="-935.5" font-family="Helvetica,sans-Serif" font-size="10.00">+ void Hide()</text>
<text text-anchor="start" x="162" y="-924.5" font-family="Helvetica,sans-Serif" font-size="10.00">+ void ConfirmButtonClick()</text>
</a>
</g>
</g>
<!-- Node2&#45;&gt;Node6 -->
<g id="edge8" class="edge">
<title>Node2&#45;&gt;Node6</title>
<path fill="none" stroke="midnightblue" d="M502.75,-1182.55C495.09,-1178.25 487.53,-1173.69 480.5,-1169 423.47,-1130.9 364.61,-1080.19 321.85,-1040.88"/>
<polygon fill="none" stroke="midnightblue" points="501.3,-1185.75 511.75,-1187.48 504.66,-1179.61 501.3,-1185.75"/>
</g>
<!-- Node7 -->
<g id="node7" class="node">
<title>Node7</title>
<g id="a_node7"><a xlink:href="classGame_1_1UI_1_1LeaderboardWindow.html" target="_top" xlink:title="Handles the leaderboard display window">
<polygon fill="white" stroke="black" points="0,-545.5 0,-679.5 205,-679.5 205,-545.5 0,-545.5"/>
<text text-anchor="middle" x="102.5" y="-667.5" font-family="Helvetica,sans-Serif" font-size="10.00">Game.UI.LeaderboardWindow</text>
<polyline fill="none" stroke="black" points="0,-660.5 205,-660.5 "/>
<text text-anchor="start" x="8" y="-648.5" font-family="Helvetica,sans-Serif" font-size="10.00">&#45; GameObject scoreParent</text>
<text text-anchor="start" x="8" y="-637.5" font-family="Helvetica,sans-Serif" font-size="10.00">&#45; TMP_Dropdown filterTypeDropdown</text>
<text text-anchor="start" x="8" y="-626.5" font-family="Helvetica,sans-Serif" font-size="10.00">&#45; GameObject LeaderboardItemPrefab</text>
<polyline fill="none" stroke="black" points="0,-619.5 205,-619.5 "/>
<text text-anchor="start" x="8" y="-607.5" font-family="Helvetica,sans-Serif" font-size="10.00">+ void Show()</text>
<text text-anchor="start" x="8" y="-596.5" font-family="Helvetica,sans-Serif" font-size="10.00">+ void Hide()</text>
<text text-anchor="start" x="8" y="-585.5" font-family="Helvetica,sans-Serif" font-size="10.00">+ void LoadScores()</text>
<text text-anchor="start" x="8" y="-574.5" font-family="Helvetica,sans-Serif" font-size="10.00">&#45; void ShowRequestFail(string content)</text>
<text text-anchor="start" x="8" y="-563.5" font-family="Helvetica,sans-Serif" font-size="10.00">&#45; void LoadedScores(List&lt; GameScore</text>
<text text-anchor="start" x="8" y="-552.5" font-family="Helvetica,sans-Serif" font-size="10.00"> &gt; gameScores)</text>
</a>
</g>
</g>
<!-- Node2&#45;&gt;Node7 -->
<g id="edge10" class="edge">
<title>Node2&#45;&gt;Node7</title>
<path fill="none" stroke="midnightblue" d="M485.65,-1211.98C374.67,-1206.1 189.09,-1189.02 144.5,-1140 28.97,-1012.98 59.98,-790.09 84.96,-679.54"/>
<polygon fill="none" stroke="midnightblue" points="485.65,-1215.48 495.82,-1212.5 486.01,-1208.49 485.65,-1215.48"/>
</g>
<!-- Node8 -->
<g id="node8" class="node">
<title>Node8</title>
<g id="a_node8"><a xlink:href="classGame_1_1UI_1_1StarHandler.html" target="_top" xlink:title="Star handler">
<polygon fill="white" stroke="black" points="356,-720.5 356,-799.5 555,-799.5 555,-720.5 356,-720.5"/>
<text text-anchor="middle" x="455.5" y="-787.5" font-family="Helvetica,sans-Serif" font-size="10.00">Game.UI.StarHandler</text>
<polyline fill="none" stroke="black" points="356,-780.5 555,-780.5 "/>
<text text-anchor="start" x="364" y="-768.5" font-family="Helvetica,sans-Serif" font-size="10.00">&#45; List&lt; Image &gt; Stars</text>
<text text-anchor="start" x="364" y="-757.5" font-family="Helvetica,sans-Serif" font-size="10.00">&#45; Sprite fullStarSprite</text>
<text text-anchor="start" x="364" y="-746.5" font-family="Helvetica,sans-Serif" font-size="10.00">&#45; Sprite emptyStarSprite</text>
<polyline fill="none" stroke="black" points="356,-739.5 555,-739.5 "/>
<text text-anchor="start" x="364" y="-727.5" font-family="Helvetica,sans-Serif" font-size="10.00">+ void ChangeDifficulty(int difficulty)</text>
</a>
</g>
</g>
<!-- Node2&#45;&gt;Node8 -->
<g id="edge13" class="edge">
<title>Node2&#45;&gt;Node8</title>
<path fill="none" stroke="midnightblue" d="M558.93,-1177.56C558.09,-1174.67 557.27,-1171.79 556.5,-1169 519.31,-1034.11 481.17,-872.39 464.36,-799.71"/>
<polygon fill="none" stroke="midnightblue" points="555.63,-1178.74 561.82,-1187.34 562.34,-1176.76 555.63,-1178.74"/>
</g>
<!-- Node2&#45;&gt;Node10 -->
<g id="edge18" class="edge">
<title>Node2&#45;&gt;Node10</title>
<path fill="none" stroke="midnightblue" d="M655.46,-1211.34C765.03,-1204.77 946.96,-1186.93 992.5,-1140 1106.48,-1022.56 1075.91,-812.43 1047.09,-696.31"/>
<polygon fill="none" stroke="midnightblue" points="655.19,-1207.85 645.41,-1211.93 655.6,-1214.84 655.19,-1207.85"/>
</g>
<!-- Node3 -->
<g id="node3" class="node">
<title>Node3</title>
<g id="a_node3"><a xlink:title=" ">
<polygon fill="white" stroke="#bfbfbf" points="524,-1282.5 524,-1339.5 617,-1339.5 617,-1282.5 524,-1282.5"/>
<text text-anchor="middle" x="570.5" y="-1327.5" font-family="Helvetica,sans-Serif" font-size="10.00">MonoBehaviour</text>
<polyline fill="none" stroke="#bfbfbf" points="524,-1320.5 617,-1320.5 "/>
<text text-anchor="middle" x="570.5" y="-1308.5" font-family="Helvetica,sans-Serif" font-size="10.00"> </text>
<polyline fill="none" stroke="#bfbfbf" points="524,-1301.5 617,-1301.5 "/>
<text text-anchor="middle" x="570.5" y="-1289.5" font-family="Helvetica,sans-Serif" font-size="10.00"> </text>
</a>
</g>
</g>
<!-- Node3&#45;&gt;Node2 -->
<g id="edge2" class="edge">
<title>Node3&#45;&gt;Node2</title>
<path fill="none" stroke="midnightblue" d="M570.5,-1272.24C570.5,-1263.03 570.5,-1253.35 570.5,-1244.71"/>
<polygon fill="none" stroke="midnightblue" points="567,-1272.35 570.5,-1282.35 574,-1272.35 567,-1272.35"/>
</g>
<!-- Node4&#45;&gt;Node1 -->
<g id="edge3" class="edge">
<title>Node4&#45;&gt;Node1</title>
<path fill="none" stroke="#404040" d="M694.84,-368.33C738.04,-412.8 780.31,-465.89 806.5,-523 829.16,-572.42 841.6,-699.02 848.26,-806.17"/>
<polygon fill="none" stroke="#404040" points="848.28,-806.49 852.64,-812.24 849.01,-818.47 844.65,-812.72 848.28,-806.49"/>
<text text-anchor="middle" x="862.5" y="-610" font-family="Helvetica,sans-Serif" font-size="10.00"> &#45;gameUI</text>
</g>
<!-- Node5&#45;&gt;Node4 -->
<g id="edge5" class="edge">
<title>Node5&#45;&gt;Node4</title>
<path fill="none" stroke="#404040" d="M540.5,-523.22C540.5,-512.09 540.5,-500.3 540.5,-488.11"/>
<polygon fill="none" stroke="#404040" points="540.5,-487.79 536.5,-481.79 540.5,-475.79 544.5,-481.79 540.5,-487.79"/>
<text text-anchor="middle" x="575.5" y="-497" font-family="Helvetica,sans-Serif" font-size="10.00"> &#45;ShopWindow</text>
</g>
<!-- Node6&#45;&gt;Node4 -->
<g id="edge14" class="edge">
<title>Node6&#45;&gt;Node4</title>
<path fill="none" stroke="#404040" d="M252.91,-917.49C243.95,-810.41 230.19,-592.3 259.5,-523 285.19,-462.26 330.57,-407.46 377.45,-362.57"/>
<polygon fill="none" stroke="#404040" points="377.49,-362.54 379.11,-355.51 386.22,-354.31 384.6,-361.33 377.49,-362.54"/>
<text text-anchor="middle" x="297.5" y="-610" font-family="Helvetica,sans-Serif" font-size="10.00"> &#45;ModalWindow</text>
</g>
<!-- Node6&#45;&gt;Node5 -->
<g id="edge7" class="edge">
<title>Node6&#45;&gt;Node5</title>
<path fill="none" stroke="#404040" d="M257.29,-917.46C256.46,-845.73 257.37,-734.12 270.5,-720 293.52,-695.26 390.11,-714.5 421.5,-702 422.55,-701.58 423.59,-701.15 424.64,-700.72"/>
<polygon fill="none" stroke="#404040" points="424.86,-700.61 428.64,-694.47 435.76,-695.61 431.98,-701.74 424.86,-700.61"/>
<text text-anchor="middle" x="308.5" y="-757.5" font-family="Helvetica,sans-Serif" font-size="10.00"> &#45;ModalWindow</text>
</g>
<!-- Node6&#45;&gt;Node7 -->
<g id="edge11" class="edge">
<title>Node6&#45;&gt;Node7</title>
<path fill="none" stroke="#404040" d="M216.09,-917.28C194.31,-883.9 168.8,-841.03 151.5,-800 136.95,-765.51 125.77,-725.57 117.78,-691.52"/>
<polygon fill="none" stroke="#404040" points="117.76,-691.44 112.52,-686.48 115.09,-679.74 120.32,-684.7 117.76,-691.44"/>
<text text-anchor="middle" x="189.5" y="-757.5" font-family="Helvetica,sans-Serif" font-size="10.00"> &#45;ModalWindow</text>
</g>
<!-- Node7&#45;&gt;Node4 -->
<g id="edge9" class="edge">
<title>Node7&#45;&gt;Node4</title>
<path fill="none" stroke="#404040" d="M103.88,-545.27C106.79,-527.46 112.34,-508.99 122.5,-494 183.12,-404.59 286.55,-341.11 375.36,-299.85"/>
<polygon fill="none" stroke="#404040" points="375.48,-299.8 379.27,-293.66 386.39,-294.8 382.6,-300.94 375.48,-299.8"/>
<text text-anchor="middle" x="175" y="-497" font-family="Helvetica,sans-Serif" font-size="10.00"> &#45;leaderboardWindow</text>
</g>
<!-- Node8&#45;&gt;Node4 -->
<g id="edge12" class="edge">
<title>Node8&#45;&gt;Node4</title>
<path fill="none" stroke="#404040" d="M376.92,-720.25C371.26,-714.84 366.29,-708.77 362.5,-702 323.63,-632.59 340.52,-599.46 362.5,-523 367.51,-505.57 373.94,-488.17 381.37,-471.06"/>
<polygon fill="none" stroke="#404040" points="381.48,-470.8 380.29,-463.69 386.39,-459.85 387.59,-466.96 381.48,-470.8"/>
<text text-anchor="middle" x="394.5" y="-610" font-family="Helvetica,sans-Serif" font-size="10.00"> &#45;starHandler</text>
</g>
<!-- Node9 -->
<g id="node9" class="node">
<title>Node9</title>
<g id="a_node9"><a xlink:title=" ">
<polygon fill="white" stroke="#bfbfbf" points="1067.5,-1187.5 1067.5,-1244.5 1111.5,-1244.5 1111.5,-1187.5 1067.5,-1187.5"/>
<text text-anchor="middle" x="1089.5" y="-1232.5" font-family="Helvetica,sans-Serif" font-size="10.00">World</text>
<polyline fill="none" stroke="#bfbfbf" points="1067.5,-1225.5 1111.5,-1225.5 "/>
<text text-anchor="middle" x="1089.5" y="-1213.5" font-family="Helvetica,sans-Serif" font-size="10.00"> </text>
<polyline fill="none" stroke="#bfbfbf" points="1067.5,-1206.5 1111.5,-1206.5 "/>
<text text-anchor="middle" x="1089.5" y="-1194.5" font-family="Helvetica,sans-Serif" font-size="10.00"> </text>
</a>
</g>
</g>
<!-- Node9&#45;&gt;Node1 -->
<g id="edge16" class="edge">
<title>Node9&#45;&gt;Node1</title>
<path fill="none" stroke="#404040" d="M1067.49,-1192.89C1049.36,-1174.69 1022,-1147.21 992.9,-1117.99"/>
<polygon fill="none" stroke="#404040" points="992.71,-1117.8 985.64,-1116.37 984.24,-1109.29 991.31,-1110.72 992.71,-1117.8"/>
<text text-anchor="middle" x="1056.5" y="-1161" font-family="Helvetica,sans-Serif" font-size="10.00"> &#45;world</text>
</g>
<!-- Node10&#45;&gt;Node1 -->
<g id="edge17" class="edge">
<title>Node10&#45;&gt;Node1</title>
<path fill="none" stroke="#404040" d="M902.91,-693.78C886.97,-705.52 875.15,-715.26 872.5,-720 863.41,-736.26 858.43,-769.11 855.85,-806.08"/>
<polygon fill="none" stroke="#404040" points="855.84,-806.23 859.46,-812.47 855.09,-818.21 851.47,-811.97 855.84,-806.23"/>
<text text-anchor="middle" x="904.5" y="-757.5" font-family="Helvetica,sans-Serif" font-size="10.00"> &#45;carSpawner</text>
</g>
</g>
</svg>
        <g id="navigator" transform="translate(0 0)" fill="#404254">
                <rect fill="#f2f5e9" fill-opacity="0.5" stroke="#606060" stroke-width=".5" x="0" y="0" width="60" height="60"/>
                <use id="zoomplus" xlink:href="#zoomPlus" x="17" y="9" onmousedown="handleZoom(evt,'in')"/>
                <use id="zoomminus" xlink:href="#zoomMin" x="42" y="9" onmousedown="handleZoom(evt,'out')"/>
                <use id="reset" xlink:href="#resetDef" x="30" y="36" onmousedown="handleReset()"/>
                <g id="arrowUp" xlink:href="#dirArrow" transform="translate(30 24)" onmousedown="handlePan(0,-1)">
                  <use xlink:href="#rim" fill="#404040">
                        <set attributeName="fill" to="#808080" begin="arrowUp.mouseover" end="arrowUp.mouseout"/>
                  </use>
                  <path fill="none" stroke="white" stroke-width="1.5" d="M0,-3.0v7 M-2.5,-0.5L0,-3.0L2.5,-0.5"/>
                </g>
                <g id="arrowRight" xlink:href="#dirArrow" transform="rotate(90) translate(36 -43)" onmousedown="handlePan(1,0)">
                  <use xlink:href="#rim" fill="#404040">
                        <set attributeName="fill" to="#808080" begin="arrowRight.mouseover" end="arrowRight.mouseout"/>
                  </use>
                  <path fill="none" stroke="white" stroke-width="1.5" d="M0,-3.0v7 M-2.5,-0.5L0,-3.0L2.5,-0.5"/>
                </g>
                <g id="arrowDown" xlink:href="#dirArrow" transform="rotate(180) translate(-30 -48)" onmousedown="handlePan(0,1)">
                  <use xlink:href="#rim" fill="#404040">
                        <set attributeName="fill" to="#808080" begin="arrowDown.mouseover" end="arrowDown.mouseout"/>
                  </use>
                  <path fill="none" stroke="white" stroke-width="1.5" d="M0,-3.0v7 M-2.5,-0.5L0,-3.0L2.5,-0.5"/>
                </g>
                <g id="arrowLeft" xlink:href="#dirArrow" transform="rotate(270) translate(-36 17)" onmousedown="handlePan(-1,0)">
                  <use xlink:href="#rim" fill="#404040">
                        <set attributeName="fill" to="#808080" begin="arrowLeft.mouseover" end="arrowLeft.mouseout"/>
                  </use>
                  <path fill="none" stroke="white" stroke-width="1.5" d="M0,-3.0v7 M-2.5,-0.5L0,-3.0L2.5,-0.5"/>
                </g>
        </g>
        <svg viewBox="0 0 15 15" width="100%" height="30px" preserveAspectRatio="xMaxYMin meet">
         <g id="arrow_out" transform="scale(0.3 0.3)">
          <a xlink:href="classGame_1_1GameController__coll__graph_org.svg" target="_base">
           <rect id="button" ry="5" rx="5" y="6" x="6" height="38" width="38"
                fill="#f2f5e9" fill-opacity="0.5" stroke="#606060" stroke-width="1.0"/>
           <path id="arrow"
             d="M 11.500037,31.436501 C 11.940474,20.09759 22.043105,11.32322 32.158766,21.979434 L 37.068811,17.246167 C 37.068811,17.246167 37.088388,32 37.088388,32 L 22.160133,31.978069 C 22.160133,31.978069 26.997745,27.140456 26.997745,27.140456 C 18.528582,18.264221 13.291696,25.230495 11.500037,31.436501 z"
             style="fill:#404040;"/>
          </a>
         </g>
        </svg>
</svg>
