<?xml version="1.0" encoding="UTF-8" standalone="no"?>
<!DOCTYPE svg PUBLIC "-//W3C//DTD SVG 1.1//EN"
 "http://www.w3.org/Graphics/SVG/1.1/DTD/svg11.dtd">
<!-- Generated by graphviz version 2.43.0 (0)
 -->
<!-- Title: Utility.ModalWindow Pages: 1 -->
<svg width="244pt" height="313pt"
 viewBox="0.00 0.00 244.00 313.00" xmlns="http://www.w3.org/2000/svg" xmlns:xlink="http://www.w3.org/1999/xlink">
<g id="graph0" class="graph" transform="scale(1 1) rotate(0) translate(4 309)">
<title>Utility.ModalWindow</title>
<!-- Node1 -->
<g id="Node000001" class="node">
<title>Node1</title>
<g id="a_Node000001"><a xlink:title="Modal window for alerting the user.">
<polygon fill="#999999" stroke="transparent" points="236,-135 0,-135 0,0 236,0 236,-135"/>
<text text-anchor="start" x="67.5" y="-122.5" font-family="Helvetica,sans-Serif" font-size="10.00">Utility.ModalWindow</text>
<text text-anchor="start" x="6.5" y="-107.5" font-family="Helvetica,sans-Serif" font-size="10.00">&#45;</text>
<text text-anchor="start" x="17" y="-107.5" font-family="Helvetica,sans-Serif" font-size="10.00">TMP_Text ModalTitleText</text>
<text text-anchor="start" x="6.5" y="-92.5" font-family="Helvetica,sans-Serif" font-size="10.00">&#45;</text>
<text text-anchor="start" x="17" y="-92.5" font-family="Helvetica,sans-Serif" font-size="10.00">TMP_Text ModalContentText</text>
<text text-anchor="start" x="6.5" y="-77.5" font-family="Helvetica,sans-Serif" font-size="10.00">&#45;</text>
<text text-anchor="start" x="17" y="-77.5" font-family="Helvetica,sans-Serif" font-size="10.00">Action onOkAction</text>
<text text-anchor="start" x="4" y="-62.5" font-family="Helvetica,sans-Serif" font-size="10.00">+</text>
<text text-anchor="start" x="17" y="-62.5" font-family="Helvetica,sans-Serif" font-size="10.00">void Show()</text>
<text text-anchor="start" x="4" y="-47.5" font-family="Helvetica,sans-Serif" font-size="10.00">+</text>
<text text-anchor="start" x="17" y="-47.5" font-family="Helvetica,sans-Serif" font-size="10.00">void Show(string title, string content, Action</text>
<text text-anchor="start" x="17" y="-36.5" font-family="Helvetica,sans-Serif" font-size="10.00"> onOkAction=null)</text>
<text text-anchor="start" x="4" y="-21.5" font-family="Helvetica,sans-Serif" font-size="10.00">+</text>
<text text-anchor="start" x="17" y="-21.5" font-family="Helvetica,sans-Serif" font-size="10.00">void Hide()</text>
<text text-anchor="start" x="4" y="-6.5" font-family="Helvetica,sans-Serif" font-size="10.00">+</text>
<text text-anchor="start" x="17" y="-6.5" font-family="Helvetica,sans-Serif" font-size="10.00">void ConfirmButtonClick()</text>
<polygon fill="#666666" stroke="#666666" points="0,-117.5 0,-117.5 236,-117.5 236,-117.5 0,-117.5"/>
<polygon fill="#666666" stroke="#666666" points="0,-72.5 0,-72.5 15,-72.5 15,-72.5 0,-72.5"/>
<polygon fill="#666666" stroke="#666666" points="15,-72.5 15,-72.5 236,-72.5 236,-72.5 15,-72.5"/>
<polygon fill="none" stroke="#666666" points="0,0 0,-135 236,-135 236,0 0,0"/>
</a>
</g>
</g>
<!-- Node2 -->
<g id="Node000002" class="node">
<title>Node2</title>
<g id="a_Node000002"><a xlink:href="classUtility_1_1ThreadSafeMonoBehaviour.html" target="_top" xlink:title="Safely stores if the gameobject been destroyed in a bool.">
<polygon fill="white" stroke="transparent" points="189.5,-220 46.5,-220 46.5,-171 189.5,-171 189.5,-220"/>
<text text-anchor="start" x="52" y="-207.5" font-family="Helvetica,sans-Serif" font-size="10.00">ThreadSafeMonoBehaviour</text>
<text text-anchor="start" x="60.5" y="-192.5" font-family="Helvetica,sans-Serif" font-size="10.00">+</text>
<text text-anchor="start" x="83" y="-192.5" font-family="Helvetica,sans-Serif" font-size="10.00">bool Destroyed</text>
<text text-anchor="start" x="60.5" y="-177.5" font-family="Helvetica,sans-Serif" font-size="10.00">#</text>
<text text-anchor="start" x="83" y="-177.5" font-family="Helvetica,sans-Serif" font-size="10.00">void OnDestroy()</text>
<polygon fill="#666666" stroke="#666666" points="47,-202.5 47,-202.5 190,-202.5 190,-202.5 47,-202.5"/>
<polygon fill="#666666" stroke="#666666" points="47,-187.5 47,-187.5 81,-187.5 81,-187.5 47,-187.5"/>
<polygon fill="#666666" stroke="#666666" points="81,-187.5 81,-187.5 190,-187.5 190,-187.5 81,-187.5"/>
<polygon fill="none" stroke="#666666" points="46.5,-171 46.5,-220 189.5,-220 189.5,-171 46.5,-171"/>
</a>
</g>
</g>
<!-- Node2&#45;&gt;Node1 -->
<g id="edge1_Node000001_Node000002" class="edge">
<title>Node2&#45;&gt;Node1</title>
<g id="a_edge1_Node000001_Node000002"><a xlink:title=" ">
<path fill="none" stroke="#63b8ff" d="M118,-160.56C118,-152.65 118,-143.96 118,-135.17"/>
<polygon fill="none" stroke="#63b8ff" points="114.5,-160.8 118,-170.8 121.5,-160.8 114.5,-160.8"/>
</a>
</g>
</g>
<!-- Node3 -->
<g id="Node000003" class="node">
<title>Node3</title>
<g id="a_Node000003"><a xlink:title=" ">
<polygon fill="white" stroke="transparent" points="161.5,-305 74.5,-305 74.5,-256 161.5,-256 161.5,-305"/>
<text text-anchor="start" x="80" y="-292.5" font-family="Helvetica,sans-Serif" font-size="10.00">MonoBehaviour</text>
<text text-anchor="start" x="116.5" y="-277.5" font-family="Helvetica,sans-Serif" font-size="10.00"> </text>
<text text-anchor="start" x="116.5" y="-262.5" font-family="Helvetica,sans-Serif" font-size="10.00"> </text>
<polygon fill="#666666" stroke="#666666" points="75,-287.5 75,-287.5 162,-287.5 162,-287.5 75,-287.5"/>
<polygon fill="#666666" stroke="#666666" points="75,-272.5 75,-272.5 162,-272.5 162,-272.5 75,-272.5"/>
<polygon fill="none" stroke="#666666" points="74.5,-256 74.5,-305 161.5,-305 161.5,-256 74.5,-256"/>
</a>
</g>
</g>
<!-- Node3&#45;&gt;Node2 -->
<g id="edge2_Node000002_Node000003" class="edge">
<title>Node3&#45;&gt;Node2</title>
<g id="a_edge2_Node000002_Node000003"><a xlink:title=" ">
<path fill="none" stroke="#63b8ff" d="M118,-245.77C118,-237.17 118,-228.1 118,-220.12"/>
<polygon fill="none" stroke="#63b8ff" points="114.5,-245.94 118,-255.94 121.5,-245.94 114.5,-245.94"/>
</a>
</g>
</g>
</g>
</svg>
