<?xml version="1.0" encoding="UTF-8" standalone="no"?>
<!DOCTYPE svg PUBLIC "-//W3C//DTD SVG 1.1//EN"
 "http://www.w3.org/Graphics/SVG/1.1/DTD/svg11.dtd">
<!-- Generated by graphviz version 2.43.0 (0)
 -->
<!-- Title: User.UserController Pages: 1 -->
<svg width="224pt" height="419pt"
 viewBox="0.00 0.00 224.00 419.00" xmlns="http://www.w3.org/2000/svg" xmlns:xlink="http://www.w3.org/1999/xlink">
<g id="graph0" class="graph" transform="scale(1 1) rotate(0) translate(4 415)">
<title>User.UserController</title>
<polygon fill="white" stroke="transparent" points="-4,4 -4,-415 220,-415 220,4 -4,4"/>
<!-- Node1 -->
<g id="node1" class="node">
<title>Node1</title>
<g id="a_node1"><a xlink:title="Handles the user actions such as registering and login">
<polygon fill="#bfbfbf" stroke="black" points="0,-0.5 0,-222.5 216,-222.5 216,-0.5 0,-0.5"/>
<text text-anchor="middle" x="108" y="-210.5" font-family="Helvetica,sans-Serif" font-size="10.00">User.UserController</text>
<polyline fill="none" stroke="black" points="0,-203.5 216,-203.5 "/>
<text text-anchor="start" x="8" y="-191.5" font-family="Helvetica,sans-Serif" font-size="10.00">+ GameObject LoginPanel</text>
<text text-anchor="start" x="8" y="-180.5" font-family="Helvetica,sans-Serif" font-size="10.00">&#45; GameObject registerPanel</text>
<text text-anchor="start" x="8" y="-169.5" font-family="Helvetica,sans-Serif" font-size="10.00">&#45; ModalWindow modalWindow</text>
<polyline fill="none" stroke="black" points="0,-162.5 216,-162.5 "/>
<text text-anchor="start" x="8" y="-150.5" font-family="Helvetica,sans-Serif" font-size="10.00">+ void SendLogin()</text>
<text text-anchor="start" x="8" y="-139.5" font-family="Helvetica,sans-Serif" font-size="10.00">+ void SendRegister()</text>
<text text-anchor="start" x="8" y="-128.5" font-family="Helvetica,sans-Serif" font-size="10.00">+ bool IsValidEmail(string emailaddress)</text>
<text text-anchor="start" x="8" y="-117.5" font-family="Helvetica,sans-Serif" font-size="10.00">+ void MoveToRegisterWindow()</text>
<text text-anchor="start" x="8" y="-106.5" font-family="Helvetica,sans-Serif" font-size="10.00">+ void MoveToLoginWindow()</text>
<text text-anchor="start" x="8" y="-95.5" font-family="Helvetica,sans-Serif" font-size="10.00">&#45; void Start()</text>
<text text-anchor="start" x="8" y="-84.5" font-family="Helvetica,sans-Serif" font-size="10.00">&#45; void CheckLoggedIn()</text>
<text text-anchor="start" x="8" y="-73.5" font-family="Helvetica,sans-Serif" font-size="10.00">&#45; void LoggedIn(Thesis_backend.Data</text>
<text text-anchor="start" x="8" y="-62.5" font-family="Helvetica,sans-Serif" font-size="10.00">_Structures.User result)</text>
<text text-anchor="start" x="8" y="-51.5" font-family="Helvetica,sans-Serif" font-size="10.00">&#45; void ShowRegisterError(string content)</text>
<text text-anchor="start" x="8" y="-40.5" font-family="Helvetica,sans-Serif" font-size="10.00">&#45; void ShowLoginError(string content)</text>
<text text-anchor="start" x="8" y="-29.5" font-family="Helvetica,sans-Serif" font-size="10.00">&#45; void Registered(Thesis_backend.Data</text>
<text text-anchor="start" x="8" y="-18.5" font-family="Helvetica,sans-Serif" font-size="10.00">_Structures.User loggedInUser)</text>
<text text-anchor="start" x="8" y="-7.5" font-family="Helvetica,sans-Serif" font-size="10.00">&#45; IEnumerator MoveToMainScence()</text>
</a>
</g>
</g>
<!-- Node2 -->
<g id="node2" class="node">
<title>Node2</title>
<g id="a_node2"><a xlink:href="classUtility_1_1ThreadSafeMonoBehaviour.html" target="_top" xlink:title="Safely stores if the gameobject been destroyed in a bool">
<polygon fill="white" stroke="black" points="33.5,-259.5 33.5,-316.5 182.5,-316.5 182.5,-259.5 33.5,-259.5"/>
<text text-anchor="middle" x="108" y="-304.5" font-family="Helvetica,sans-Serif" font-size="10.00">ThreadSafeMonoBehaviour</text>
<polyline fill="none" stroke="black" points="33.5,-297.5 182.5,-297.5 "/>
<text text-anchor="start" x="41.5" y="-285.5" font-family="Helvetica,sans-Serif" font-size="10.00">+ bool Destroyed</text>
<polyline fill="none" stroke="black" points="33.5,-278.5 182.5,-278.5 "/>
<text text-anchor="start" x="41.5" y="-266.5" font-family="Helvetica,sans-Serif" font-size="10.00"># void OnDestroy()</text>
</a>
</g>
</g>
<!-- Node2&#45;&gt;Node1 -->
<g id="edge1" class="edge">
<title>Node2&#45;&gt;Node1</title>
<path fill="none" stroke="midnightblue" d="M108,-249.2C108,-241.08 108,-232.1 108,-222.75"/>
<polygon fill="none" stroke="midnightblue" points="104.5,-249.35 108,-259.35 111.5,-249.35 104.5,-249.35"/>
</g>
<!-- Node3 -->
<g id="node3" class="node">
<title>Node3</title>
<g id="a_node3"><a xlink:title=" ">
<polygon fill="white" stroke="#bfbfbf" points="61.5,-353.5 61.5,-410.5 154.5,-410.5 154.5,-353.5 61.5,-353.5"/>
<text text-anchor="middle" x="108" y="-398.5" font-family="Helvetica,sans-Serif" font-size="10.00">MonoBehaviour</text>
<polyline fill="none" stroke="#bfbfbf" points="61.5,-391.5 154.5,-391.5 "/>
<text text-anchor="middle" x="108" y="-379.5" font-family="Helvetica,sans-Serif" font-size="10.00"> </text>
<polyline fill="none" stroke="#bfbfbf" points="61.5,-372.5 154.5,-372.5 "/>
<text text-anchor="middle" x="108" y="-360.5" font-family="Helvetica,sans-Serif" font-size="10.00"> </text>
</a>
</g>
</g>
<!-- Node3&#45;&gt;Node2 -->
<g id="edge2" class="edge">
<title>Node3&#45;&gt;Node2</title>
<path fill="none" stroke="midnightblue" d="M108,-343.21C108,-334.29 108,-324.95 108,-316.58"/>
<polygon fill="none" stroke="midnightblue" points="104.5,-343.4 108,-353.4 111.5,-343.4 104.5,-343.4"/>
</g>
</g>
</svg>
