<?xml version="1.0" encoding="UTF-8" standalone="no"?>
<!DOCTYPE svg PUBLIC "-//W3C//DTD SVG 1.1//EN"
 "http://www.w3.org/Graphics/SVG/1.1/DTD/svg11.dtd">
<!-- Generated by graphviz version 2.43.0 (0)
 -->
<!-- Title: Game.PlayerCar Pages: 1 -->
<svg width="294pt" height="777pt"
 viewBox="0.00 0.00 294.00 777.00" xmlns="http://www.w3.org/2000/svg" xmlns:xlink="http://www.w3.org/1999/xlink">
<g id="graph0" class="graph" transform="scale(1 1) rotate(0) translate(4 773)">
<title>Game.PlayerCar</title>
<!-- Node1 -->
<g id="Node000001" class="node">
<title>Node1</title>
<g id="a_Node000001"><a xlink:title="Handles the player&#39;s car.">
<polygon fill="#999999" stroke="transparent" points="286,-304 0,-304 0,0 286,0 286,-304"/>
<text text-anchor="start" x="103" y="-292" font-family="Helvetica,sans-Serif" font-size="10.00">Game.PlayerCar</text>
<text text-anchor="start" x="4" y="-277" font-family="Helvetica,sans-Serif" font-size="10.00">+</text>
<text text-anchor="start" x="17" y="-277" font-family="Helvetica,sans-Serif" font-size="10.00">int SkinId</text>
<text text-anchor="start" x="4" y="-262" font-family="Helvetica,sans-Serif" font-size="10.00">+</text>
<text text-anchor="start" x="17" y="-262" font-family="Helvetica,sans-Serif" font-size="10.00">bool Immune</text>
<text text-anchor="start" x="4" y="-247" font-family="Helvetica,sans-Serif" font-size="10.00">+</text>
<text text-anchor="start" x="17" y="-247" font-family="Helvetica,sans-Serif" font-size="10.00">bool Turbo</text>
<text text-anchor="start" x="6.5" y="-232" font-family="Helvetica,sans-Serif" font-size="10.00">&#45;</text>
<text text-anchor="start" x="17" y="-232" font-family="Helvetica,sans-Serif" font-size="10.00">float coinMultiplier</text>
<text text-anchor="start" x="6.5" y="-217" font-family="Helvetica,sans-Serif" font-size="10.00">&#45;</text>
<text text-anchor="start" x="17" y="-217" font-family="Helvetica,sans-Serif" font-size="10.00">Keyboard keyboard</text>
<text text-anchor="start" x="6.5" y="-202" font-family="Helvetica,sans-Serif" font-size="10.00">&#45;</text>
<text text-anchor="start" x="17" y="-202" font-family="Helvetica,sans-Serif" font-size="10.00">int probeSize</text>
<text text-anchor="start" x="6.5" y="-187" font-family="Helvetica,sans-Serif" font-size="10.00">&#45;</text>
<text text-anchor="start" x="17" y="-187" font-family="Helvetica,sans-Serif" font-size="10.00">List&lt; PoliceContainer &gt; policeContacts</text>
<text text-anchor="start" x="6.5" y="-172" font-family="Helvetica,sans-Serif" font-size="10.00">&#45;</text>
<text text-anchor="start" x="17" y="-172" font-family="Helvetica,sans-Serif" font-size="10.00">float turboTimer</text>
<text text-anchor="start" x="6.5" y="-157" font-family="Helvetica,sans-Serif" font-size="10.00">&#45;</text>
<text text-anchor="start" x="17" y="-157" font-family="Helvetica,sans-Serif" font-size="10.00">float immuneTimer</text>
<text text-anchor="start" x="4" y="-142" font-family="Helvetica,sans-Serif" font-size="10.00">+</text>
<text text-anchor="start" x="17" y="-142" font-family="Helvetica,sans-Serif" font-size="10.00">void PickedUpCoin()</text>
<text text-anchor="start" x="4" y="-127" font-family="Helvetica,sans-Serif" font-size="10.00">+</text>
<text text-anchor="start" x="17" y="-127" font-family="Helvetica,sans-Serif" font-size="10.00">void ApplyTurbo()</text>
<text text-anchor="start" x="4" y="-112" font-family="Helvetica,sans-Serif" font-size="10.00">+</text>
<text text-anchor="start" x="17" y="-112" font-family="Helvetica,sans-Serif" font-size="10.00">void ApplyImmunity()</text>
<text text-anchor="start" x="4" y="-97" font-family="Helvetica,sans-Serif" font-size="10.00">+</text>
<text text-anchor="start" x="17" y="-97" font-family="Helvetica,sans-Serif" font-size="10.00">void CancelTurbo()</text>
<text text-anchor="start" x="4" y="-82" font-family="Helvetica,sans-Serif" font-size="10.00">+</text>
<text text-anchor="start" x="17" y="-82" font-family="Helvetica,sans-Serif" font-size="10.00">void CancelImmunity()</text>
<text text-anchor="start" x="4" y="-67" font-family="Helvetica,sans-Serif" font-size="10.00">#</text>
<text text-anchor="start" x="17" y="-67" font-family="Helvetica,sans-Serif" font-size="10.00">override async void ChunkChanged(Chunk newChunk)</text>
<text text-anchor="start" x="4" y="-52" font-family="Helvetica,sans-Serif" font-size="10.00">#</text>
<text text-anchor="start" x="17" y="-52" font-family="Helvetica,sans-Serif" font-size="10.00">override void Update()</text>
<text text-anchor="start" x="4" y="-37" font-family="Helvetica,sans-Serif" font-size="10.00">#</text>
<text text-anchor="start" x="17" y="-37" font-family="Helvetica,sans-Serif" font-size="10.00">override void OnCollisionEnter(Collision collision)</text>
<text text-anchor="start" x="6.5" y="-22" font-family="Helvetica,sans-Serif" font-size="10.00">&#45;</text>
<text text-anchor="start" x="17" y="-22" font-family="Helvetica,sans-Serif" font-size="10.00">void FixedUpdate()</text>
<text text-anchor="start" x="6.5" y="-7" font-family="Helvetica,sans-Serif" font-size="10.00">&#45;</text>
<text text-anchor="start" x="17" y="-7" font-family="Helvetica,sans-Serif" font-size="10.00">void OnCollisionExit(Collision collision)</text>
<polygon fill="#666666" stroke="#666666" points="0,-287 0,-287 286,-287 286,-287 0,-287"/>
<polygon fill="#666666" stroke="#666666" points="0,-152 0,-152 15,-152 15,-152 0,-152"/>
<polygon fill="#666666" stroke="#666666" points="15,-152 15,-152 286,-152 286,-152 15,-152"/>
<polygon fill="none" stroke="#666666" points="0,0 0,-304 286,-304 286,0 0,0"/>
</a>
</g>
</g>
<!-- Node2 -->
<g id="Node000002" class="node">
<title>Node2</title>
<g id="a_Node000002"><a xlink:href="classGame_1_1Car.html" target="_top" xlink:title="Handles the basic Car functionalities.">
<polygon fill="white" stroke="transparent" points="281.5,-599 4.5,-599 4.5,-340 281.5,-340 281.5,-599"/>
<text text-anchor="start" x="135" y="-586.5" font-family="Helvetica,sans-Serif" font-size="10.00">Car</text>
<text text-anchor="start" x="9" y="-571.5" font-family="Helvetica,sans-Serif" font-size="10.00">+</text>
<text text-anchor="start" x="22" y="-571.5" font-family="Helvetica,sans-Serif" font-size="10.00">EventHandler DestroyedEvent</text>
<text text-anchor="start" x="9" y="-556.5" font-family="Helvetica,sans-Serif" font-size="10.00">+</text>
<text text-anchor="start" x="22" y="-556.5" font-family="Helvetica,sans-Serif" font-size="10.00">float Health</text>
<text text-anchor="start" x="9" y="-541.5" font-family="Helvetica,sans-Serif" font-size="10.00">+</text>
<text text-anchor="start" x="22" y="-541.5" font-family="Helvetica,sans-Serif" font-size="10.00">float MAX_HEALTH</text>
<text text-anchor="start" x="9" y="-526.5" font-family="Helvetica,sans-Serif" font-size="10.00">+</text>
<text text-anchor="start" x="22" y="-526.5" font-family="Helvetica,sans-Serif" font-size="10.00">bool Alive</text>
<text text-anchor="start" x="9" y="-511.5" font-family="Helvetica,sans-Serif" font-size="10.00">#</text>
<text text-anchor="start" x="22" y="-511.5" font-family="Helvetica,sans-Serif" font-size="10.00">GameController gameController</text>
<text text-anchor="start" x="9" y="-496.5" font-family="Helvetica,sans-Serif" font-size="10.00">#</text>
<text text-anchor="start" x="22" y="-496.5" font-family="Helvetica,sans-Serif" font-size="10.00">CarController carController</text>
<text text-anchor="start" x="9" y="-481.5" font-family="Helvetica,sans-Serif" font-size="10.00">#</text>
<text text-anchor="start" x="22" y="-481.5" font-family="Helvetica,sans-Serif" font-size="10.00">Chunk lastChunk</text>
<text text-anchor="start" x="9" y="-466.5" font-family="Helvetica,sans-Serif" font-size="10.00">#</text>
<text text-anchor="start" x="22" y="-466.5" font-family="Helvetica,sans-Serif" font-size="10.00">Dictionary&lt; EffectType, EffectScript &gt; effects</text>
<text text-anchor="start" x="11.5" y="-451.5" font-family="Helvetica,sans-Serif" font-size="10.00">&#45;</text>
<text text-anchor="start" x="22" y="-451.5" font-family="Helvetica,sans-Serif" font-size="10.00">float health</text>
<text text-anchor="start" x="9" y="-436.5" font-family="Helvetica,sans-Serif" font-size="10.00">+</text>
<text text-anchor="start" x="22" y="-436.5" font-family="Helvetica,sans-Serif" font-size="10.00">void Kill()</text>
<text text-anchor="start" x="9" y="-421.5" font-family="Helvetica,sans-Serif" font-size="10.00">+</text>
<text text-anchor="start" x="22" y="-421.5" font-family="Helvetica,sans-Serif" font-size="10.00">void Init(GameController gameController)</text>
<text text-anchor="start" x="9" y="-406.5" font-family="Helvetica,sans-Serif" font-size="10.00">#</text>
<text text-anchor="start" x="22" y="-406.5" font-family="Helvetica,sans-Serif" font-size="10.00">virtual void Update()</text>
<text text-anchor="start" x="9" y="-391.5" font-family="Helvetica,sans-Serif" font-size="10.00">#</text>
<text text-anchor="start" x="22" y="-391.5" font-family="Helvetica,sans-Serif" font-size="10.00">bool ChangeChunkIfNeeded()</text>
<text text-anchor="start" x="9" y="-376.5" font-family="Helvetica,sans-Serif" font-size="10.00">#</text>
<text text-anchor="start" x="22" y="-376.5" font-family="Helvetica,sans-Serif" font-size="10.00">virtual async void ChunkChanged(Chunk newChunk)</text>
<text text-anchor="start" x="9" y="-361.5" font-family="Helvetica,sans-Serif" font-size="10.00">#</text>
<text text-anchor="start" x="22" y="-361.5" font-family="Helvetica,sans-Serif" font-size="10.00">virtual void OnCollisionEnter(Collision collision)</text>
<text text-anchor="start" x="9" y="-346.5" font-family="Helvetica,sans-Serif" font-size="10.00">#</text>
<text text-anchor="start" x="22" y="-346.5" font-family="Helvetica,sans-Serif" font-size="10.00">void Awake()</text>
<polygon fill="#666666" stroke="#666666" points="5,-581.5 5,-581.5 282,-581.5 282,-581.5 5,-581.5"/>
<polygon fill="#666666" stroke="#666666" points="5,-446.5 5,-446.5 20,-446.5 20,-446.5 5,-446.5"/>
<polygon fill="#666666" stroke="#666666" points="20,-446.5 20,-446.5 282,-446.5 282,-446.5 20,-446.5"/>
<polygon fill="none" stroke="#666666" points="4.5,-340 4.5,-599 281.5,-599 281.5,-340 4.5,-340"/>
</a>
</g>
</g>
<!-- Node2&#45;&gt;Node1 -->
<g id="edge1_Node000001_Node000002" class="edge">
<title>Node2&#45;&gt;Node1</title>
<g id="a_edge1_Node000001_Node000002"><a xlink:title=" ">
<path fill="none" stroke="#63b8ff" d="M143,-329.47C143,-321.04 143,-312.54 143,-304.06"/>
<polygon fill="none" stroke="#63b8ff" points="139.5,-329.72 143,-339.72 146.5,-329.72 139.5,-329.72"/>
</a>
</g>
</g>
<!-- Node3 -->
<g id="Node000003" class="node">
<title>Node3</title>
<g id="a_Node000003"><a xlink:href="classUtility_1_1ThreadSafeMonoBehaviour.html" target="_top" xlink:title="Safely stores if the gameobject been destroyed in a bool.">
<polygon fill="white" stroke="transparent" points="214.5,-684 71.5,-684 71.5,-635 214.5,-635 214.5,-684"/>
<text text-anchor="start" x="77" y="-671.5" font-family="Helvetica,sans-Serif" font-size="10.00">ThreadSafeMonoBehaviour</text>
<text text-anchor="start" x="85.5" y="-656.5" font-family="Helvetica,sans-Serif" font-size="10.00">+</text>
<text text-anchor="start" x="108" y="-656.5" font-family="Helvetica,sans-Serif" font-size="10.00">bool Destroyed</text>
<text text-anchor="start" x="85.5" y="-641.5" font-family="Helvetica,sans-Serif" font-size="10.00">#</text>
<text text-anchor="start" x="108" y="-641.5" font-family="Helvetica,sans-Serif" font-size="10.00">void OnDestroy()</text>
<polygon fill="#666666" stroke="#666666" points="72,-666.5 72,-666.5 215,-666.5 215,-666.5 72,-666.5"/>
<polygon fill="#666666" stroke="#666666" points="72,-651.5 72,-651.5 106,-651.5 106,-651.5 72,-651.5"/>
<polygon fill="#666666" stroke="#666666" points="106,-651.5 106,-651.5 215,-651.5 215,-651.5 106,-651.5"/>
<polygon fill="none" stroke="#666666" points="71.5,-635 71.5,-684 214.5,-684 214.5,-635 71.5,-635"/>
</a>
</g>
</g>
<!-- Node3&#45;&gt;Node2 -->
<g id="edge2_Node000002_Node000003" class="edge">
<title>Node3&#45;&gt;Node2</title>
<g id="a_edge2_Node000002_Node000003"><a xlink:title=" ">
<path fill="none" stroke="#63b8ff" d="M143,-624.5C143,-616.83 143,-608.24 143,-599.15"/>
<polygon fill="none" stroke="#63b8ff" points="139.5,-624.69 143,-634.69 146.5,-624.69 139.5,-624.69"/>
</a>
</g>
</g>
<!-- Node4 -->
<g id="Node000004" class="node">
<title>Node4</title>
<g id="a_Node000004"><a xlink:title=" ">
<polygon fill="white" stroke="transparent" points="186.5,-769 99.5,-769 99.5,-720 186.5,-720 186.5,-769"/>
<text text-anchor="start" x="105" y="-756.5" font-family="Helvetica,sans-Serif" font-size="10.00">MonoBehaviour</text>
<text text-anchor="start" x="141.5" y="-741.5" font-family="Helvetica,sans-Serif" font-size="10.00"> </text>
<text text-anchor="start" x="141.5" y="-726.5" font-family="Helvetica,sans-Serif" font-size="10.00"> </text>
<polygon fill="#666666" stroke="#666666" points="100,-751.5 100,-751.5 187,-751.5 187,-751.5 100,-751.5"/>
<polygon fill="#666666" stroke="#666666" points="100,-736.5 100,-736.5 187,-736.5 187,-736.5 100,-736.5"/>
<polygon fill="none" stroke="#666666" points="99.5,-720 99.5,-769 186.5,-769 186.5,-720 99.5,-720"/>
</a>
</g>
</g>
<!-- Node4&#45;&gt;Node3 -->
<g id="edge3_Node000003_Node000004" class="edge">
<title>Node4&#45;&gt;Node3</title>
<g id="a_edge3_Node000003_Node000004"><a xlink:title=" ">
<path fill="none" stroke="#63b8ff" d="M143,-709.77C143,-701.17 143,-692.1 143,-684.12"/>
<polygon fill="none" stroke="#63b8ff" points="139.5,-709.94 143,-719.94 146.5,-709.94 139.5,-709.94"/>
</a>
</g>
</g>
</g>
</svg>
