<?xml version="1.0" encoding="UTF-8" standalone="no"?>
<!DOCTYPE svg PUBLIC "-//W3C//DTD SVG 1.1//EN"
 "http://www.w3.org/Graphics/SVG/1.1/DTD/svg11.dtd">
<!-- Generated by graphviz version 2.43.0 (0)
 -->
<!-- Title: Game.World.RoadGenerator.CreateRoad Pages: 1 -->
<svg width="498pt" height="66pt"
 viewBox="0.00 0.00 498.00 66.00" xmlns="http://www.w3.org/2000/svg" xmlns:xlink="http://www.w3.org/1999/xlink">
<g id="graph0" class="graph" transform="scale(1 1) rotate(0) translate(4 62)">
<title>Game.World.RoadGenerator.CreateRoad</title>
<polygon fill="white" stroke="transparent" points="-4,4 -4,-62 494,-62 494,4 -4,4"/>
<!-- Node1 -->
<g id="node1" class="node">
<title>Node1</title>
<g id="a_node1"><a xlink:title="Creates the roads recursively">
<polygon fill="#bfbfbf" stroke="black" points="0,-19.5 0,-38.5 212,-38.5 212,-19.5 0,-19.5"/>
<text text-anchor="middle" x="106" y="-26.5" font-family="Helvetica,sans-Serif" font-size="10.00">Game.World.RoadGenerator.CreateRoad</text>
</a>
</g>
</g>
<!-- Node2 -->
<g id="node2" class="node">
<title>Node2</title>
<g id="a_node2"><a xlink:href="classGame_1_1World_1_1RoadGenerator.html#aff41fff01a6f7955370796e82d542b5c" target="_top" xlink:title="Checks if the road moving in that direction will run into an another road">
<polygon fill="white" stroke="black" points="257,-38.5 257,-57.5 481,-57.5 481,-38.5 257,-38.5"/>
<text text-anchor="middle" x="369" y="-45.5" font-family="Helvetica,sans-Serif" font-size="10.00">Game.World.RoadGenerator.CheckForward</text>
</a>
</g>
</g>
<!-- Node1&#45;&gt;Node2 -->
<g id="edge1" class="edge">
<title>Node1&#45;&gt;Node2</title>
<path fill="none" stroke="midnightblue" d="M212.03,-36.65C223.42,-37.48 235.09,-38.32 246.66,-39.17"/>
<polygon fill="midnightblue" stroke="midnightblue" points="246.56,-42.67 256.79,-39.9 247.07,-35.69 246.56,-42.67"/>
</g>
<!-- Node3 -->
<g id="node3" class="node">
<title>Node3</title>
<g id="a_node3"><a xlink:href="classGame_1_1World_1_1RoadGenerator.html#a1d562d3e89d833e15f2b2ce3eba249ac" target="_top" xlink:title="Check if the road is going towards the edge">
<polygon fill="white" stroke="black" points="248,-0.5 248,-19.5 490,-19.5 490,-0.5 248,-0.5"/>
<text text-anchor="middle" x="369" y="-7.5" font-family="Helvetica,sans-Serif" font-size="10.00">Game.World.RoadGenerator.GoinTowardsEdge</text>
</a>
</g>
</g>
<!-- Node1&#45;&gt;Node3 -->
<g id="edge2" class="edge">
<title>Node1&#45;&gt;Node3</title>
<path fill="none" stroke="midnightblue" d="M212.03,-21.35C220.48,-20.74 229.08,-20.11 237.68,-19.49"/>
<polygon fill="midnightblue" stroke="midnightblue" points="238.04,-22.97 247.76,-18.75 237.53,-15.99 238.04,-22.97"/>
</g>
</g>
</svg>
