<?xml version="1.0" encoding="UTF-8" standalone="no"?>
<!DOCTYPE svg PUBLIC "-//W3C//DTD SVG 1.1//EN"
 "http://www.w3.org/Graphics/SVG/1.1/DTD/svg11.dtd">
<!-- Generated by graphviz version 2.43.0 (0)
 -->
<!-- Title: Game.GameController Pages: 1 -->
<svg width="1276pt" height="1238pt"
 viewBox="0.00 0.00 1276.00 1238.00" xmlns="http://www.w3.org/2000/svg" xmlns:xlink="http://www.w3.org/1999/xlink">
<g id="graph0" class="graph" transform="scale(1 1) rotate(0) translate(4 1234)">
<title>Game.GameController</title>
<polygon fill="white" stroke="transparent" points="-4,4 -4,-1234 1272,-1234 1272,4 -4,4"/>
<!-- Node1 -->
<g id="node1" class="node">
<title>Node1</title>
<g id="a_node1"><a xlink:title="Handles the main flow of the game scene">
<polygon fill="#bfbfbf" stroke="black" points="843,-752.5 843,-1029.5 1124,-1029.5 1124,-752.5 843,-752.5"/>
<text text-anchor="middle" x="983.5" y="-1017.5" font-family="Helvetica,sans-Serif" font-size="10.00">Game.GameController</text>
<polyline fill="none" stroke="black" points="843,-1010.5 1124,-1010.5 "/>
<text text-anchor="start" x="851" y="-998.5" font-family="Helvetica,sans-Serif" font-size="10.00">+ World.GameWorld World</text>
<text text-anchor="start" x="851" y="-987.5" font-family="Helvetica,sans-Serif" font-size="10.00">+ int Score</text>
<text text-anchor="start" x="851" y="-976.5" font-family="Helvetica,sans-Serif" font-size="10.00">+ PlayerCar? Player</text>
<text text-anchor="start" x="851" y="-965.5" font-family="Helvetica,sans-Serif" font-size="10.00">+ Vector3 PlayerPos</text>
<text text-anchor="start" x="851" y="-954.5" font-family="Helvetica,sans-Serif" font-size="10.00">+ bool Running</text>
<text text-anchor="start" x="851" y="-943.5" font-family="Helvetica,sans-Serif" font-size="10.00">+ int Difficulty</text>
<text text-anchor="start" x="851" y="-932.5" font-family="Helvetica,sans-Serif" font-size="10.00">+ float Coins</text>
<text text-anchor="start" x="851" y="-921.5" font-family="Helvetica,sans-Serif" font-size="10.00">&#45; int chunkLoadDistance</text>
<text text-anchor="start" x="851" y="-910.5" font-family="Helvetica,sans-Serif" font-size="10.00">&#45; Dictionary&lt; long, GameObject &gt; playerVariants</text>
<text text-anchor="start" x="851" y="-899.5" font-family="Helvetica,sans-Serif" font-size="10.00">&#45; float elapsedTime</text>
<polyline fill="none" stroke="black" points="843,-892.5 1124,-892.5 "/>
<text text-anchor="start" x="851" y="-880.5" font-family="Helvetica,sans-Serif" font-size="10.00">+ void IncreaseCoinCount(float amount)</text>
<text text-anchor="start" x="851" y="-869.5" font-family="Helvetica,sans-Serif" font-size="10.00">+ async Task NewGame()</text>
<text text-anchor="start" x="851" y="-858.5" font-family="Helvetica,sans-Serif" font-size="10.00">+ async Task LoadAndDespawnChunks(int centerRow,</text>
<text text-anchor="start" x="851" y="-847.5" font-family="Helvetica,sans-Serif" font-size="10.00"> int centerColumn)</text>
<text text-anchor="start" x="851" y="-836.5" font-family="Helvetica,sans-Serif" font-size="10.00">&#45; void Awake()</text>
<text text-anchor="start" x="851" y="-825.5" font-family="Helvetica,sans-Serif" font-size="10.00">&#45; void Start()</text>
<text text-anchor="start" x="851" y="-814.5" font-family="Helvetica,sans-Serif" font-size="10.00">&#45; void Update()</text>
<text text-anchor="start" x="851" y="-803.5" font-family="Helvetica,sans-Serif" font-size="10.00">&#45; void PlayerSkinsLoaded(GameObject playerSkin)</text>
<text text-anchor="start" x="851" y="-792.5" font-family="Helvetica,sans-Serif" font-size="10.00">&#45; void PlayerDied(object? sender, EventArgs args)</text>
<text text-anchor="start" x="851" y="-781.5" font-family="Helvetica,sans-Serif" font-size="10.00">&#45; void DespawnFarAwayChunks(int row, int col)</text>
<text text-anchor="start" x="851" y="-770.5" font-family="Helvetica,sans-Serif" font-size="10.00">&#45; async Task SpawnNearbyChunks(int row, int col)</text>
<text text-anchor="start" x="851" y="-759.5" font-family="Helvetica,sans-Serif" font-size="10.00">&#45; async Task ValidateAndLoadChunk(int row, int col)</text>
</a>
</g>
</g>
<!-- Node4 -->
<g id="node4" class="node">
<title>Node4</title>
<g id="a_node4"><a xlink:href="classGame_1_1UI_1_1GameUI.html" target="_top" xlink:title="Controller for the game&#39;s UI">
<polygon fill="white" stroke="black" points="469.5,-0.5 469.5,-420.5 813.5,-420.5 813.5,-0.5 469.5,-0.5"/>
<text text-anchor="middle" x="641.5" y="-408.5" font-family="Helvetica,sans-Serif" font-size="10.00">Game.UI.GameUI</text>
<polyline fill="none" stroke="black" points="469.5,-401.5 813.5,-401.5 "/>
<text text-anchor="start" x="477.5" y="-389.5" font-family="Helvetica,sans-Serif" font-size="10.00">+ bool Doubled</text>
<text text-anchor="start" x="477.5" y="-378.5" font-family="Helvetica,sans-Serif" font-size="10.00">+ int SelectedSkinIndex</text>
<text text-anchor="start" x="477.5" y="-367.5" font-family="Helvetica,sans-Serif" font-size="10.00">&#45; GameObject gameOverContainer</text>
<text text-anchor="start" x="477.5" y="-356.5" font-family="Helvetica,sans-Serif" font-size="10.00">&#45; GameObject ingameContainer</text>
<text text-anchor="start" x="477.5" y="-345.5" font-family="Helvetica,sans-Serif" font-size="10.00">&#45; GameObject mainMenuContainer</text>
<text text-anchor="start" x="477.5" y="-334.5" font-family="Helvetica,sans-Serif" font-size="10.00">&#45; Image SkinDisplay</text>
<text text-anchor="start" x="477.5" y="-323.5" font-family="Helvetica,sans-Serif" font-size="10.00">&#45; TMP_Text InfamyGameOverText</text>
<text text-anchor="start" x="477.5" y="-312.5" font-family="Helvetica,sans-Serif" font-size="10.00">&#45; TMP_Text CoinGameOverText</text>
<text text-anchor="start" x="477.5" y="-301.5" font-family="Helvetica,sans-Serif" font-size="10.00">&#45; TMP_Text InfamyInGameText</text>
<text text-anchor="start" x="477.5" y="-290.5" font-family="Helvetica,sans-Serif" font-size="10.00">&#45; TMP_Text TaskScoreInGameText</text>
<text text-anchor="start" x="477.5" y="-279.5" font-family="Helvetica,sans-Serif" font-size="10.00">&#45; TMP_Text CoinInGameText</text>
<text text-anchor="start" x="477.5" y="-268.5" font-family="Helvetica,sans-Serif" font-size="10.00">&#45; Button DoubleCoinButon</text>
<polyline fill="none" stroke="black" points="469.5,-261.5 813.5,-261.5 "/>
<text text-anchor="start" x="477.5" y="-249.5" font-family="Helvetica,sans-Serif" font-size="10.00">+ void SaveGameResult()</text>
<text text-anchor="start" x="477.5" y="-238.5" font-family="Helvetica,sans-Serif" font-size="10.00">+ void DoubleCoins()</text>
<text text-anchor="start" x="477.5" y="-227.5" font-family="Helvetica,sans-Serif" font-size="10.00">+ void BuyImmunity()</text>
<text text-anchor="start" x="477.5" y="-216.5" font-family="Helvetica,sans-Serif" font-size="10.00">+ void BuyTurbo()</text>
<text text-anchor="start" x="477.5" y="-205.5" font-family="Helvetica,sans-Serif" font-size="10.00">+ void ShowLeaderboard()</text>
<text text-anchor="start" x="477.5" y="-194.5" font-family="Helvetica,sans-Serif" font-size="10.00">+ void LeftRotateSkin()</text>
<text text-anchor="start" x="477.5" y="-183.5" font-family="Helvetica,sans-Serif" font-size="10.00">+ void RightRotateSkin()</text>
<text text-anchor="start" x="477.5" y="-172.5" font-family="Helvetica,sans-Serif" font-size="10.00">+ void Init(GameController gameController)</text>
<text text-anchor="start" x="477.5" y="-161.5" font-family="Helvetica,sans-Serif" font-size="10.00">+ async void NewGame(bool save=true)</text>
<text text-anchor="start" x="477.5" y="-150.5" font-family="Helvetica,sans-Serif" font-size="10.00">+ void ChangeDifficulyDisplay(int difficulty)</text>
<text text-anchor="start" x="477.5" y="-139.5" font-family="Helvetica,sans-Serif" font-size="10.00">+ void ShowEndGameScreen()</text>
<text text-anchor="start" x="477.5" y="-128.5" font-family="Helvetica,sans-Serif" font-size="10.00">+ void HideGameOverScreen(bool saveGameResults=true)</text>
<text text-anchor="start" x="477.5" y="-117.5" font-family="Helvetica,sans-Serif" font-size="10.00">+ void ShowShopWindow()</text>
<text text-anchor="start" x="477.5" y="-106.5" font-family="Helvetica,sans-Serif" font-size="10.00">+ void HideShopWindow()</text>
<text text-anchor="start" x="477.5" y="-95.5" font-family="Helvetica,sans-Serif" font-size="10.00">+ void BackToTasks()</text>
<text text-anchor="start" x="477.5" y="-84.5" font-family="Helvetica,sans-Serif" font-size="10.00">+ void BackToGameMenuWithoutSave()</text>
<text text-anchor="start" x="477.5" y="-73.5" font-family="Helvetica,sans-Serif" font-size="10.00">+ void BackToGameMenu()</text>
<text text-anchor="start" x="477.5" y="-62.5" font-family="Helvetica,sans-Serif" font-size="10.00">&#45; void Update()</text>
<text text-anchor="start" x="477.5" y="-51.5" font-family="Helvetica,sans-Serif" font-size="10.00">&#45; void SavedCoins(Thesis_backend.Data_Structures.Game game)</text>
<text text-anchor="start" x="477.5" y="-40.5" font-family="Helvetica,sans-Serif" font-size="10.00">&#45; void BoughtImmunity(Thesis_backend.Data_Structures.User user)</text>
<text text-anchor="start" x="477.5" y="-29.5" font-family="Helvetica,sans-Serif" font-size="10.00">&#45; void BoughtTurbo(Thesis_backend.Data_Structures.User user)</text>
<text text-anchor="start" x="477.5" y="-18.5" font-family="Helvetica,sans-Serif" font-size="10.00">&#45; void DoubledCoins(Thesis_backend.Data_Structures.User user)</text>
<text text-anchor="start" x="477.5" y="-7.5" font-family="Helvetica,sans-Serif" font-size="10.00">&#45; void ShowRequestFail(string content)</text>
</a>
</g>
</g>
<!-- Node1&#45;&gt;Node4 -->
<g id="edge15" class="edge">
<title>Node1&#45;&gt;Node4</title>
<path fill="none" stroke="#404040" d="M897.89,-752.45C878.1,-715.73 858.93,-675.3 845.5,-636 816.81,-552.06 848.38,-520.56 813.5,-439 812.43,-436.5 811.33,-434.01 810.2,-431.52"/>
<polygon fill="none" stroke="#404040" points="810.18,-431.47 803.99,-427.76 805.04,-420.62 811.22,-424.34 810.18,-431.47"/>
<text text-anchor="middle" x="887" y="-549.5" font-family="Helvetica,sans-Serif" font-size="10.00"> &#45;gameController</text>
</g>
<!-- Node10 -->
<g id="node10" class="node">
<title>Node10</title>
<g id="a_node10"><a xlink:href="classGame_1_1World_1_1CarSpawner.html" target="_top" xlink:title="Car spawner">
<polygon fill="white" stroke="black" points="1029,-468.5 1029,-635.5 1268,-635.5 1268,-468.5 1029,-468.5"/>
<text text-anchor="middle" x="1148.5" y="-623.5" font-family="Helvetica,sans-Serif" font-size="10.00">Game.World.CarSpawner</text>
<polyline fill="none" stroke="black" points="1029,-616.5 1268,-616.5 "/>
<text text-anchor="start" x="1037" y="-604.5" font-family="Helvetica,sans-Serif" font-size="10.00">&#45; List&lt; GameObject &gt; CopCars</text>
<text text-anchor="start" x="1037" y="-593.5" font-family="Helvetica,sans-Serif" font-size="10.00">&#45; List&lt; GameObject &gt; CitizenCars</text>
<text text-anchor="start" x="1037" y="-582.5" font-family="Helvetica,sans-Serif" font-size="10.00">&#45; Dictionary&lt; int, float &gt; spawnIntervalsTier1</text>
<text text-anchor="start" x="1037" y="-571.5" font-family="Helvetica,sans-Serif" font-size="10.00">&#45; Dictionary&lt; int, float &gt; spawnIntervalsTier2</text>
<text text-anchor="start" x="1037" y="-560.5" font-family="Helvetica,sans-Serif" font-size="10.00">&#45; Dictionary&lt; int, float &gt; spawnIntervalsTier3</text>
<text text-anchor="start" x="1037" y="-549.5" font-family="Helvetica,sans-Serif" font-size="10.00">&#45; float tier1SpawnerTimer</text>
<text text-anchor="start" x="1037" y="-538.5" font-family="Helvetica,sans-Serif" font-size="10.00">&#45; float tier2SpawnerTimer</text>
<text text-anchor="start" x="1037" y="-527.5" font-family="Helvetica,sans-Serif" font-size="10.00">&#45; float tier3SpawnerTimer</text>
<polyline fill="none" stroke="black" points="1029,-520.5 1268,-520.5 "/>
<text text-anchor="start" x="1037" y="-508.5" font-family="Helvetica,sans-Serif" font-size="10.00">+ void Update()</text>
<text text-anchor="start" x="1037" y="-497.5" font-family="Helvetica,sans-Serif" font-size="10.00">+ void SpawnPolice(GameObject carPrefab)</text>
<text text-anchor="start" x="1037" y="-486.5" font-family="Helvetica,sans-Serif" font-size="10.00">+ void Reset()</text>
<text text-anchor="start" x="1037" y="-475.5" font-family="Helvetica,sans-Serif" font-size="10.00">+ void SpawnNpc()</text>
</a>
</g>
</g>
<!-- Node1&#45;&gt;Node10 -->
<g id="edge19" class="edge">
<title>Node1&#45;&gt;Node10</title>
<path fill="none" stroke="#404040" d="M1054.91,-752.41C1057.57,-746.23 1060.11,-740.07 1062.5,-734 1076.03,-699.57 1070.45,-687.8 1085.5,-654 1086.59,-651.55 1087.74,-649.08 1088.92,-646.61"/>
<polygon fill="none" stroke="#404040" points="1088.98,-646.5 1088.11,-639.34 1094.38,-635.78 1095.25,-642.94 1088.98,-646.5"/>
<text text-anchor="middle" x="1127" y="-691.5" font-family="Helvetica,sans-Serif" font-size="10.00"> &#45;gameController</text>
</g>
<!-- Node2 -->
<g id="node2" class="node">
<title>Node2</title>
<g id="a_node2"><a xlink:href="classUtility_1_1ThreadSafeMonoBehaviour.html" target="_top" xlink:title="Safely stores if the gameobject been destroyed in a bool">
<polygon fill="white" stroke="black" points="572,-1077.5 572,-1134.5 721,-1134.5 721,-1077.5 572,-1077.5"/>
<text text-anchor="middle" x="646.5" y="-1122.5" font-family="Helvetica,sans-Serif" font-size="10.00">ThreadSafeMonoBehaviour</text>
<polyline fill="none" stroke="black" points="572,-1115.5 721,-1115.5 "/>
<text text-anchor="start" x="580" y="-1103.5" font-family="Helvetica,sans-Serif" font-size="10.00">+ bool Destroyed</text>
<polyline fill="none" stroke="black" points="572,-1096.5 721,-1096.5 "/>
<text text-anchor="start" x="580" y="-1084.5" font-family="Helvetica,sans-Serif" font-size="10.00"># void OnDestroy()</text>
</a>
</g>
</g>
<!-- Node2&#45;&gt;Node1 -->
<g id="edge1" class="edge">
<title>Node2&#45;&gt;Node1</title>
<path fill="none" stroke="midnightblue" d="M731.18,-1090.48C758.63,-1083.52 788.44,-1073.44 813.5,-1059 828.2,-1050.53 842.55,-1040.49 856.29,-1029.6"/>
<polygon fill="none" stroke="midnightblue" points="730.08,-1087.15 721.19,-1092.91 731.74,-1093.95 730.08,-1087.15"/>
</g>
<!-- Node2&#45;&gt;Node4 -->
<g id="edge4" class="edge">
<title>Node2&#45;&gt;Node4</title>
<path fill="none" stroke="midnightblue" d="M665.94,-1068.3C715.35,-970.28 837.89,-694.34 780.5,-468 776.49,-452.17 771.28,-436.25 765.24,-420.53"/>
<polygon fill="none" stroke="midnightblue" points="662.68,-1067 661.26,-1077.5 668.91,-1070.18 662.68,-1067"/>
</g>
<!-- Node5 -->
<g id="node5" class="node">
<title>Node5</title>
<g id="a_node5"><a xlink:href="classGame_1_1UI_1_1ShopWindow.html" target="_top" xlink:title="Handles the shop window&#39;s content display">
<polygon fill="white" stroke="black" points="511.5,-468.5 511.5,-635.5 771.5,-635.5 771.5,-468.5 511.5,-468.5"/>
<text text-anchor="middle" x="641.5" y="-623.5" font-family="Helvetica,sans-Serif" font-size="10.00">Game.UI.ShopWindow</text>
<polyline fill="none" stroke="black" points="511.5,-616.5 771.5,-616.5 "/>
<text text-anchor="start" x="519.5" y="-604.5" font-family="Helvetica,sans-Serif" font-size="10.00">+ List&lt; Sprite &gt; ShopItemSprites</text>
<text text-anchor="start" x="519.5" y="-593.5" font-family="Helvetica,sans-Serif" font-size="10.00">&#45; GameObject ShopParent</text>
<text text-anchor="start" x="519.5" y="-582.5" font-family="Helvetica,sans-Serif" font-size="10.00">&#45; GameObject ShopItemPrefab</text>
<text text-anchor="start" x="519.5" y="-571.5" font-family="Helvetica,sans-Serif" font-size="10.00">&#45; TMP_Text CoinText</text>
<text text-anchor="start" x="519.5" y="-560.5" font-family="Helvetica,sans-Serif" font-size="10.00">&#45; List&lt; Shop &gt; shopItemsCache</text>
<polyline fill="none" stroke="black" points="511.5,-553.5 771.5,-553.5 "/>
<text text-anchor="start" x="519.5" y="-541.5" font-family="Helvetica,sans-Serif" font-size="10.00">+ void Show()</text>
<text text-anchor="start" x="519.5" y="-530.5" font-family="Helvetica,sans-Serif" font-size="10.00">+ void Hide()</text>
<text text-anchor="start" x="519.5" y="-519.5" font-family="Helvetica,sans-Serif" font-size="10.00">+ void ShowRequestFail(string content)</text>
<text text-anchor="start" x="519.5" y="-508.5" font-family="Helvetica,sans-Serif" font-size="10.00">+ void UpdateShop()</text>
<text text-anchor="start" x="519.5" y="-497.5" font-family="Helvetica,sans-Serif" font-size="10.00">+ string GetCoinText()</text>
<text text-anchor="start" x="519.5" y="-486.5" font-family="Helvetica,sans-Serif" font-size="10.00">+ GameObject GetShopParent()</text>
<text text-anchor="start" x="519.5" y="-475.5" font-family="Helvetica,sans-Serif" font-size="10.00">&#45; void LoadedShopItems(List&lt; Shop &gt; shopItems)</text>
</a>
</g>
</g>
<!-- Node2&#45;&gt;Node5 -->
<g id="edge6" class="edge">
<title>Node2&#45;&gt;Node5</title>
<path fill="none" stroke="midnightblue" d="M646.16,-1067.14C645.36,-978.7 643.35,-756.87 642.25,-635.5"/>
<polygon fill="none" stroke="midnightblue" points="642.66,-1067.28 646.25,-1077.25 649.66,-1067.22 642.66,-1067.28"/>
</g>
<!-- Node6 -->
<g id="node6" class="node">
<title>Node6</title>
<g id="a_node6"><a xlink:href="classUtility_1_1ModalWindow.html" target="_top" xlink:title="Modal window for alerting the user">
<polygon fill="white" stroke="black" points="204.5,-829.5 204.5,-952.5 446.5,-952.5 446.5,-829.5 204.5,-829.5"/>
<text text-anchor="middle" x="325.5" y="-940.5" font-family="Helvetica,sans-Serif" font-size="10.00">Utility.ModalWindow</text>
<polyline fill="none" stroke="black" points="204.5,-933.5 446.5,-933.5 "/>
<text text-anchor="start" x="212.5" y="-921.5" font-family="Helvetica,sans-Serif" font-size="10.00">&#45; TMP_Text ModalTitleText</text>
<text text-anchor="start" x="212.5" y="-910.5" font-family="Helvetica,sans-Serif" font-size="10.00">&#45; TMP_Text ModalContentText</text>
<text text-anchor="start" x="212.5" y="-899.5" font-family="Helvetica,sans-Serif" font-size="10.00">&#45; Action onOkAction</text>
<polyline fill="none" stroke="black" points="204.5,-892.5 446.5,-892.5 "/>
<text text-anchor="start" x="212.5" y="-880.5" font-family="Helvetica,sans-Serif" font-size="10.00">+ void Show()</text>
<text text-anchor="start" x="212.5" y="-869.5" font-family="Helvetica,sans-Serif" font-size="10.00">+ void Show(string title, string content, Action</text>
<text text-anchor="start" x="212.5" y="-858.5" font-family="Helvetica,sans-Serif" font-size="10.00"> onOkAction=null)</text>
<text text-anchor="start" x="212.5" y="-847.5" font-family="Helvetica,sans-Serif" font-size="10.00">+ void Hide()</text>
<text text-anchor="start" x="212.5" y="-836.5" font-family="Helvetica,sans-Serif" font-size="10.00">+ void ConfirmButtonClick()</text>
</a>
</g>
</g>
<!-- Node2&#45;&gt;Node6 -->
<g id="edge8" class="edge">
<title>Node2&#45;&gt;Node6</title>
<path fill="none" stroke="midnightblue" d="M579.56,-1072.71C571.35,-1068.3 563.16,-1063.67 555.5,-1059 502.53,-1026.67 446.11,-985.81 402.4,-952.59"/>
<polygon fill="none" stroke="midnightblue" points="577.98,-1075.84 588.46,-1077.41 581.25,-1069.65 577.98,-1075.84"/>
</g>
<!-- Node7 -->
<g id="node7" class="node">
<title>Node7</title>
<g id="a_node7"><a xlink:href="classGame_1_1UI_1_1LeaderboardWindow.html" target="_top" xlink:title="Handles the leaderboard display window">
<polygon fill="white" stroke="black" points="0,-490.5 0,-613.5 281,-613.5 281,-490.5 0,-490.5"/>
<text text-anchor="middle" x="140.5" y="-601.5" font-family="Helvetica,sans-Serif" font-size="10.00">Game.UI.LeaderboardWindow</text>
<polyline fill="none" stroke="black" points="0,-594.5 281,-594.5 "/>
<text text-anchor="start" x="8" y="-582.5" font-family="Helvetica,sans-Serif" font-size="10.00">&#45; GameObject scoreParent</text>
<text text-anchor="start" x="8" y="-571.5" font-family="Helvetica,sans-Serif" font-size="10.00">&#45; TMP_Dropdown filterTypeDropdown</text>
<text text-anchor="start" x="8" y="-560.5" font-family="Helvetica,sans-Serif" font-size="10.00">&#45; GameObject LeaderboardItemPrefab</text>
<polyline fill="none" stroke="black" points="0,-553.5 281,-553.5 "/>
<text text-anchor="start" x="8" y="-541.5" font-family="Helvetica,sans-Serif" font-size="10.00">+ void Show()</text>
<text text-anchor="start" x="8" y="-530.5" font-family="Helvetica,sans-Serif" font-size="10.00">+ void Hide()</text>
<text text-anchor="start" x="8" y="-519.5" font-family="Helvetica,sans-Serif" font-size="10.00">+ void LoadScores()</text>
<text text-anchor="start" x="8" y="-508.5" font-family="Helvetica,sans-Serif" font-size="10.00">&#45; void ShowRequestFail(string content)</text>
<text text-anchor="start" x="8" y="-497.5" font-family="Helvetica,sans-Serif" font-size="10.00">&#45; void LoadedScores(List&lt; GameScore &gt; gameScores)</text>
</a>
</g>
</g>
<!-- Node2&#45;&gt;Node7 -->
<g id="edge10" class="edge">
<title>Node2&#45;&gt;Node7</title>
<path fill="none" stroke="midnightblue" d="M561.64,-1102.68C445.12,-1097.61 244.42,-1081.43 195.5,-1030 88.06,-917.05 108.24,-714.59 126.92,-613.66"/>
<polygon fill="none" stroke="midnightblue" points="561.82,-1106.19 571.95,-1103.11 562.11,-1099.2 561.82,-1106.19"/>
</g>
<!-- Node8 -->
<g id="node8" class="node">
<title>Node8</title>
<g id="a_node8"><a xlink:href="classGame_1_1UI_1_1StarHandler.html" target="_top" xlink:title="Star handler">
<polygon fill="white" stroke="black" points="432,-654.5 432,-733.5 631,-733.5 631,-654.5 432,-654.5"/>
<text text-anchor="middle" x="531.5" y="-721.5" font-family="Helvetica,sans-Serif" font-size="10.00">Game.UI.StarHandler</text>
<polyline fill="none" stroke="black" points="432,-714.5 631,-714.5 "/>
<text text-anchor="start" x="440" y="-702.5" font-family="Helvetica,sans-Serif" font-size="10.00">&#45; List&lt; Image &gt; Stars</text>
<text text-anchor="start" x="440" y="-691.5" font-family="Helvetica,sans-Serif" font-size="10.00">&#45; Sprite fullStarSprite</text>
<text text-anchor="start" x="440" y="-680.5" font-family="Helvetica,sans-Serif" font-size="10.00">&#45; Sprite emptyStarSprite</text>
<polyline fill="none" stroke="black" points="432,-673.5 631,-673.5 "/>
<text text-anchor="start" x="440" y="-661.5" font-family="Helvetica,sans-Serif" font-size="10.00">+ void ChangeDifficulty(int difficulty)</text>
</a>
</g>
</g>
<!-- Node2&#45;&gt;Node8 -->
<g id="edge13" class="edge">
<title>Node2&#45;&gt;Node8</title>
<path fill="none" stroke="midnightblue" d="M635.01,-1067.54C634.16,-1064.65 633.31,-1061.78 632.5,-1059 598.11,-940.77 559.84,-800.17 541.88,-733.61"/>
<polygon fill="none" stroke="midnightblue" points="631.72,-1068.73 637.95,-1077.3 638.42,-1066.72 631.72,-1068.73"/>
</g>
<!-- Node2&#45;&gt;Node10 -->
<g id="edge18" class="edge">
<title>Node2&#45;&gt;Node10</title>
<path fill="none" stroke="midnightblue" d="M731.53,-1103.81C855.89,-1100.15 1078.49,-1085.77 1132.5,-1030 1233.09,-926.13 1203.98,-742.24 1175.25,-635.67"/>
<polygon fill="none" stroke="midnightblue" points="731.18,-1100.31 721.28,-1104.09 731.38,-1107.31 731.18,-1100.31"/>
</g>
<!-- Node3 -->
<g id="node3" class="node">
<title>Node3</title>
<g id="a_node3"><a xlink:title=" ">
<polygon fill="white" stroke="#bfbfbf" points="600,-1172.5 600,-1229.5 693,-1229.5 693,-1172.5 600,-1172.5"/>
<text text-anchor="middle" x="646.5" y="-1217.5" font-family="Helvetica,sans-Serif" font-size="10.00">MonoBehaviour</text>
<polyline fill="none" stroke="#bfbfbf" points="600,-1210.5 693,-1210.5 "/>
<text text-anchor="middle" x="646.5" y="-1198.5" font-family="Helvetica,sans-Serif" font-size="10.00"> </text>
<polyline fill="none" stroke="#bfbfbf" points="600,-1191.5 693,-1191.5 "/>
<text text-anchor="middle" x="646.5" y="-1179.5" font-family="Helvetica,sans-Serif" font-size="10.00"> </text>
</a>
</g>
</g>
<!-- Node3&#45;&gt;Node2 -->
<g id="edge2" class="edge">
<title>Node3&#45;&gt;Node2</title>
<path fill="none" stroke="midnightblue" d="M646.5,-1162.24C646.5,-1153.03 646.5,-1143.35 646.5,-1134.71"/>
<polygon fill="none" stroke="midnightblue" points="643,-1162.35 646.5,-1172.35 650,-1162.35 643,-1162.35"/>
</g>
<!-- Node4&#45;&gt;Node1 -->
<g id="edge3" class="edge">
<title>Node4&#45;&gt;Node1</title>
<path fill="none" stroke="#404040" d="M813.53,-326.87C859.44,-366.2 904.12,-414.06 932.5,-468 956.83,-514.25 969.85,-638.51 976.63,-740.29"/>
<polygon fill="none" stroke="#404040" points="976.63,-740.3 981.01,-746.03 977.4,-752.27 973.02,-746.54 976.63,-740.3"/>
<text text-anchor="middle" x="990.5" y="-549.5" font-family="Helvetica,sans-Serif" font-size="10.00"> &#45;gameUI</text>
</g>
<!-- Node5&#45;&gt;Node4 -->
<g id="edge5" class="edge">
<title>Node5&#45;&gt;Node4</title>
<path fill="none" stroke="#404040" d="M641.5,-468.38C641.5,-457.08 641.5,-445.07 641.5,-432.65"/>
<polygon fill="none" stroke="#404040" points="641.5,-432.63 637.5,-426.63 641.5,-420.63 645.5,-426.63 641.5,-432.63"/>
<text text-anchor="middle" x="676.5" y="-442" font-family="Helvetica,sans-Serif" font-size="10.00"> &#45;ShopWindow</text>
</g>
<!-- Node6&#45;&gt;Node4 -->
<g id="edge14" class="edge">
<title>Node6&#45;&gt;Node4</title>
<path fill="none" stroke="#404040" d="M320.89,-829.23C314.22,-728.04 305.67,-529.99 335.5,-468 363.17,-410.49 410.51,-361.17 459.8,-321.59"/>
<polygon fill="none" stroke="#404040" points="459.93,-321.49 462.17,-314.63 469.35,-314.06 467.12,-320.91 459.93,-321.49"/>
<text text-anchor="middle" x="373.5" y="-549.5" font-family="Helvetica,sans-Serif" font-size="10.00"> &#45;ModalWindow</text>
</g>
<!-- Node6&#45;&gt;Node5 -->
<g id="edge7" class="edge">
<title>Node6&#45;&gt;Node5</title>
<path fill="none" stroke="#404040" d="M326.99,-829.32C329.22,-763.58 334.5,-666.36 346.5,-654 370.04,-629.75 465.43,-646.65 497.5,-636 498.37,-635.71 499.25,-635.41 500.12,-635.11"/>
<polygon fill="none" stroke="#404040" points="500.24,-635.07 504.48,-629.24 511.49,-630.91 507.25,-636.74 500.24,-635.07"/>
<text text-anchor="middle" x="384.5" y="-691.5" font-family="Helvetica,sans-Serif" font-size="10.00"> &#45;ModalWindow</text>
</g>
<!-- Node6&#45;&gt;Node7 -->
<g id="edge11" class="edge">
<title>Node6&#45;&gt;Node7</title>
<path fill="none" stroke="#404040" d="M285.24,-829.46C266.86,-800.95 245.28,-766.2 227.5,-734 208.04,-698.76 188.44,-658.5 172.78,-624.9"/>
<polygon fill="none" stroke="#404040" points="172.68,-624.67 166.52,-620.91 167.63,-613.78 173.78,-617.55 172.68,-624.67"/>
<text text-anchor="middle" x="265.5" y="-691.5" font-family="Helvetica,sans-Serif" font-size="10.00"> &#45;ModalWindow</text>
</g>
<!-- Node7&#45;&gt;Node4 -->
<g id="edge9" class="edge">
<title>Node7&#45;&gt;Node4</title>
<path fill="none" stroke="#404040" d="M163.41,-490.38C172.35,-472.29 184,-453.45 198.5,-439 271.1,-366.64 371.47,-312.51 458.31,-275.25"/>
<polygon fill="none" stroke="#404040" points="458.33,-275.24 462.29,-269.22 469.38,-270.56 465.41,-276.58 458.33,-275.24"/>
<text text-anchor="middle" x="251" y="-442" font-family="Helvetica,sans-Serif" font-size="10.00"> &#45;leaderboardWindow</text>
</g>
<!-- Node8&#45;&gt;Node4 -->
<g id="edge12" class="edge">
<title>Node8&#45;&gt;Node4</title>
<path fill="none" stroke="#404040" d="M452.92,-654.25C447.26,-648.84 442.29,-642.77 438.5,-636 402.02,-570.85 413.97,-538.52 438.5,-468 444.95,-449.46 453.36,-431.24 463.09,-413.61"/>
<polygon fill="none" stroke="#404040" points="463.36,-413.13 462.86,-405.93 469.3,-402.7 469.81,-409.9 463.36,-413.13"/>
<text text-anchor="middle" x="470.5" y="-549.5" font-family="Helvetica,sans-Serif" font-size="10.00"> &#45;starHandler</text>
</g>
<!-- Node9 -->
<g id="node9" class="node">
<title>Node9</title>
<g id="a_node9"><a xlink:title=" ">
<polygon fill="white" stroke="#bfbfbf" points="1193.5,-1077.5 1193.5,-1134.5 1237.5,-1134.5 1237.5,-1077.5 1193.5,-1077.5"/>
<text text-anchor="middle" x="1215.5" y="-1122.5" font-family="Helvetica,sans-Serif" font-size="10.00">World</text>
<polyline fill="none" stroke="#bfbfbf" points="1193.5,-1115.5 1237.5,-1115.5 "/>
<text text-anchor="middle" x="1215.5" y="-1103.5" font-family="Helvetica,sans-Serif" font-size="10.00"> </text>
<polyline fill="none" stroke="#bfbfbf" points="1193.5,-1096.5 1237.5,-1096.5 "/>
<text text-anchor="middle" x="1215.5" y="-1084.5" font-family="Helvetica,sans-Serif" font-size="10.00"> </text>
</a>
</g>
</g>
<!-- Node9&#45;&gt;Node1 -->
<g id="edge16" class="edge">
<title>Node9&#45;&gt;Node1</title>
<path fill="none" stroke="#404040" d="M1193.25,-1084.58C1178.12,-1070.68 1156.62,-1050.95 1133.11,-1029.36"/>
<polygon fill="none" stroke="#404040" points="1132.85,-1029.12 1125.73,-1028.01 1124.01,-1021 1131.14,-1022.12 1132.85,-1029.12"/>
<text text-anchor="middle" x="1182.5" y="-1051" font-family="Helvetica,sans-Serif" font-size="10.00"> &#45;world</text>
</g>
<!-- Node10&#45;&gt;Node1 -->
<g id="edge17" class="edge">
<title>Node10&#45;&gt;Node1</title>
<path fill="none" stroke="#404040" d="M1028.98,-624.55C1014.64,-635.28 1003.34,-645.56 998.5,-654 989.38,-669.91 984.79,-703.45 982.69,-740.38"/>
<polygon fill="none" stroke="#404040" points="982.69,-740.49 986.39,-746.68 982.1,-752.47 978.4,-746.28 982.69,-740.49"/>
<text text-anchor="middle" x="1030.5" y="-691.5" font-family="Helvetica,sans-Serif" font-size="10.00"> &#45;carSpawner</text>
</g>
</g>
</svg>
