<?xml version="1.0" encoding="UTF-8" standalone="no"?>
<!DOCTYPE svg PUBLIC "-//W3C//DTD SVG 1.1//EN"
 "http://www.w3.org/Graphics/SVG/1.1/DTD/svg11.dtd">
<!-- Generated by graphviz version 2.43.0 (0)
 -->
<!-- Title: Game.World.RoadGenerator.CreateRoad Pages: 1 -->
<svg width="498pt" height="82pt"
 viewBox="0.00 0.00 498.00 82.00" xmlns="http://www.w3.org/2000/svg" xmlns:xlink="http://www.w3.org/1999/xlink">

<svg id="main" version="1.1" xmlns="http://www.w3.org/2000/svg" xmlns:xlink="http://www.w3.org/1999/xlink" xml:space="preserve" onload="init(evt)">
<style type="text/css"><![CDATA[
.node, .edge {opacity: 0.7;}
.node.selected, .edge.selected {opacity: 1;}
.edge:hover path { stroke: red; }
.edge:hover polygon { stroke: red; fill: red; }
]]></style>
<script type="application/ecmascript" xlink:href="svg.min.js"/>
<svg id="graph" class="graph">
<g id="graph0" class="graph" transform="scale(1 1) rotate(0) translate(4 78)">
<title>Game.World.RoadGenerator.CreateRoad</title>
<!-- Node1 -->
<g id="Node000001" class="node">
<title>Node1</title>
<g id="a_Node000001"><a xlink:title="Creates the roads recursively.">
<polygon fill="#999999" stroke="#666666" points="212,-37 0,-37 0,-18 212,-18 212,-37"/>
<text text-anchor="middle" x="106" y="-25" font-family="Helvetica,sans-Serif" font-size="10.00">Game.World.RoadGenerator.CreateRoad</text>
</a>
</g>
</g>
<!-- Node1&#45;&gt;Node1 -->
<g id="edge3_Node000001_Node000001" class="edge">
<title>Node1&#45;&gt;Node1</title>
<g id="a_edge3_Node000001_Node000001"><a xlink:title=" ">
<path fill="none" stroke="#63b8ff" d="M65.62,-37.08C45.97,-45.73 59.43,-55 106,-55 141.65,-55 157.9,-49.57 154.74,-43.14"/>
<polygon fill="#63b8ff" stroke="#63b8ff" points="156.53,-40.12 146.38,-37.08 152.43,-45.79 156.53,-40.12"/>
</a>
</g>
</g>
<!-- Node2 -->
<g id="Node000002" class="node">
<title>Node2</title>
<g id="a_Node000002"><a xlink:href="classGame_1_1World_1_1RoadGenerator.html#aff41fff01a6f7955370796e82d542b5c" target="_top" xlink:title="Checks if the road moving in that direction will run into an another road.">
<polygon fill="white" stroke="#666666" points="481,-56 257,-56 257,-37 481,-37 481,-56"/>
<text text-anchor="middle" x="369" y="-44" font-family="Helvetica,sans-Serif" font-size="10.00">Game.World.RoadGenerator.CheckForward</text>
</a>
</g>
</g>
<!-- Node1&#45;&gt;Node2 -->
<g id="edge1_Node000001_Node000002" class="edge">
<title>Node1&#45;&gt;Node2</title>
<g id="a_edge1_Node000001_Node000002"><a xlink:title=" ">
<path fill="none" stroke="#63b8ff" d="M212.03,-35.15C223.42,-35.98 235.09,-36.82 246.66,-37.67"/>
<polygon fill="#63b8ff" stroke="#63b8ff" points="246.56,-41.17 256.79,-38.4 247.07,-34.19 246.56,-41.17"/>
</a>
</g>
</g>
<!-- Node3 -->
<g id="Node000003" class="node">
<title>Node3</title>
<g id="a_Node000003"><a xlink:href="classGame_1_1World_1_1RoadGenerator.html#a1d562d3e89d833e15f2b2ce3eba249ac" target="_top" xlink:title="Check if the road is going towards the edge.">
<polygon fill="white" stroke="#666666" points="490,-19 248,-19 248,0 490,0 490,-19"/>
<text text-anchor="middle" x="369" y="-7" font-family="Helvetica,sans-Serif" font-size="10.00">Game.World.RoadGenerator.GoinTowardsEdge</text>
</a>
</g>
</g>
<!-- Node1&#45;&gt;Node3 -->
<g id="edge4_Node000001_Node000003" class="edge">
<title>Node1&#45;&gt;Node3</title>
<g id="a_edge4_Node000001_Node000003"><a xlink:title=" ">
<path fill="none" stroke="#63b8ff" d="M212.03,-20.26C220.48,-19.67 229.08,-19.08 237.68,-18.49"/>
<polygon fill="#63b8ff" stroke="#63b8ff" points="238.02,-21.97 247.76,-17.79 237.54,-14.99 238.02,-21.97"/>
</a>
</g>
</g>
<!-- Node2&#45;&gt;Node2 -->
<g id="edge2_Node000002_Node000002" class="edge">
<title>Node2&#45;&gt;Node2</title>
<g id="a_edge2_Node000002_Node000002"><a xlink:title=" ">
<path fill="none" stroke="#63b8ff" d="M328.62,-56.08C308.97,-64.73 322.43,-74 369,-74 404.65,-74 420.9,-68.57 417.74,-62.14"/>
<polygon fill="#63b8ff" stroke="#63b8ff" points="419.53,-59.12 409.38,-56.08 415.43,-64.79 419.53,-59.12"/>
</a>
</g>
</g>
</g>
</svg>
</svg>

<style type='text/css'>
<![CDATA[
[data-mouse-over-selected='false'] { opacity: 0.7; }
[data-mouse-over-selected='true']  { opacity: 1.0; }
]]>
</style>
<script type="application/ecmascript"><![CDATA[
document.addEventListener('DOMContentLoaded', (event) => {
  highlightEdges();
  highlightAdjacentNodes();
});
]]></script>
</svg>
