<?xml version="1.0" encoding="UTF-8" standalone="no"?>
<!DOCTYPE svg PUBLIC "-//W3C//DTD SVG 1.1//EN"
 "http://www.w3.org/Graphics/SVG/1.1/DTD/svg11.dtd">
<!-- Generated by graphviz version 2.43.0 (0)
 -->
<!-- Title: MainPage.FriendHandler Pages: 1 -->
<svg width="330pt" height="353pt"
 viewBox="0.00 0.00 330.00 353.00" xmlns="http://www.w3.org/2000/svg" xmlns:xlink="http://www.w3.org/1999/xlink">
<g id="graph0" class="graph" transform="scale(1 1) rotate(0) translate(4 349)">
<title>MainPage.FriendHandler</title>
<polygon fill="white" stroke="transparent" points="-4,4 -4,-349 326,-349 326,4 -4,4"/>
<!-- Node1 -->
<g id="node1" class="node">
<title>Node1</title>
<g id="a_node1"><a xlink:title="Handles a single friend entry display">
<polygon fill="#bfbfbf" stroke="black" points="0,-0.5 0,-156.5 322,-156.5 322,-0.5 0,-0.5"/>
<text text-anchor="middle" x="161" y="-144.5" font-family="Helvetica,sans-Serif" font-size="10.00">MainPage.FriendHandler</text>
<polyline fill="none" stroke="black" points="0,-137.5 322,-137.5 "/>
<text text-anchor="start" x="8" y="-125.5" font-family="Helvetica,sans-Serif" font-size="10.00">+ Friend Friend</text>
<text text-anchor="start" x="8" y="-114.5" font-family="Helvetica,sans-Serif" font-size="10.00">&#45; TMP_Text friendNameLabel</text>
<text text-anchor="start" x="8" y="-103.5" font-family="Helvetica,sans-Serif" font-size="10.00">&#45; TMP_Text scoreText</text>
<text text-anchor="start" x="8" y="-92.5" font-family="Helvetica,sans-Serif" font-size="10.00">&#45; TMP_Text scoreLabelText</text>
<text text-anchor="start" x="8" y="-81.5" font-family="Helvetica,sans-Serif" font-size="10.00">&#45; Button acceptButton</text>
<text text-anchor="start" x="8" y="-70.5" font-family="Helvetica,sans-Serif" font-size="10.00">&#45; TMP_Text pendingtext</text>
<polyline fill="none" stroke="black" points="0,-63.5 322,-63.5 "/>
<text text-anchor="start" x="8" y="-51.5" font-family="Helvetica,sans-Serif" font-size="10.00">+ void InitValues(Friend friend)</text>
<text text-anchor="start" x="8" y="-40.5" font-family="Helvetica,sans-Serif" font-size="10.00">+ void AcceptFriendRequest()</text>
<text text-anchor="start" x="8" y="-29.5" font-family="Helvetica,sans-Serif" font-size="10.00">+ void DeleteFriend()</text>
<text text-anchor="start" x="8" y="-18.5" font-family="Helvetica,sans-Serif" font-size="10.00">&#45; void Accepted(Thesis_backend.Data_Structures.Friend result)</text>
<text text-anchor="start" x="8" y="-7.5" font-family="Helvetica,sans-Serif" font-size="10.00">&#45; void Deleted(string result)</text>
</a>
</g>
</g>
<!-- Node2 -->
<g id="node2" class="node">
<title>Node2</title>
<g id="a_node2"><a xlink:href="classUtility_1_1ThreadSafeMonoBehaviour.html" target="_top" xlink:title="Safely stores if the gameobject been destroyed in a bool">
<polygon fill="white" stroke="black" points="86.5,-193.5 86.5,-250.5 235.5,-250.5 235.5,-193.5 86.5,-193.5"/>
<text text-anchor="middle" x="161" y="-238.5" font-family="Helvetica,sans-Serif" font-size="10.00">ThreadSafeMonoBehaviour</text>
<polyline fill="none" stroke="black" points="86.5,-231.5 235.5,-231.5 "/>
<text text-anchor="start" x="94.5" y="-219.5" font-family="Helvetica,sans-Serif" font-size="10.00">+ bool Destroyed</text>
<polyline fill="none" stroke="black" points="86.5,-212.5 235.5,-212.5 "/>
<text text-anchor="start" x="94.5" y="-200.5" font-family="Helvetica,sans-Serif" font-size="10.00"># void OnDestroy()</text>
</a>
</g>
</g>
<!-- Node2&#45;&gt;Node1 -->
<g id="edge1" class="edge">
<title>Node2&#45;&gt;Node1</title>
<path fill="none" stroke="midnightblue" d="M161,-183.34C161,-175.04 161,-165.96 161,-156.74"/>
<polygon fill="none" stroke="midnightblue" points="157.5,-183.38 161,-193.38 164.5,-183.38 157.5,-183.38"/>
</g>
<!-- Node3 -->
<g id="node3" class="node">
<title>Node3</title>
<g id="a_node3"><a xlink:title=" ">
<polygon fill="white" stroke="#bfbfbf" points="114.5,-287.5 114.5,-344.5 207.5,-344.5 207.5,-287.5 114.5,-287.5"/>
<text text-anchor="middle" x="161" y="-332.5" font-family="Helvetica,sans-Serif" font-size="10.00">MonoBehaviour</text>
<polyline fill="none" stroke="#bfbfbf" points="114.5,-325.5 207.5,-325.5 "/>
<text text-anchor="middle" x="161" y="-313.5" font-family="Helvetica,sans-Serif" font-size="10.00"> </text>
<polyline fill="none" stroke="#bfbfbf" points="114.5,-306.5 207.5,-306.5 "/>
<text text-anchor="middle" x="161" y="-294.5" font-family="Helvetica,sans-Serif" font-size="10.00"> </text>
</a>
</g>
</g>
<!-- Node3&#45;&gt;Node2 -->
<g id="edge2" class="edge">
<title>Node3&#45;&gt;Node2</title>
<path fill="none" stroke="midnightblue" d="M161,-277.21C161,-268.29 161,-258.95 161,-250.58"/>
<polygon fill="none" stroke="midnightblue" points="157.5,-277.4 161,-287.4 164.5,-277.4 157.5,-277.4"/>
</g>
</g>
</svg>
