<?xml version="1.0" encoding="UTF-8" standalone="no"?>
<!DOCTYPE svg PUBLIC "-//W3C//DTD SVG 1.1//EN"
 "http://www.w3.org/Graphics/SVG/1.1/DTD/svg11.dtd">
<!-- Generated by graphviz version 2.43.0 (0)
 -->
<!-- Title: Game.GameController.DespawnFarAwayChunks Pages: 1 -->
<svg width="691pt" height="27pt"
 viewBox="0.00 0.00 691.00 27.00" xmlns="http://www.w3.org/2000/svg" xmlns:xlink="http://www.w3.org/1999/xlink">
<g id="graph0" class="graph" transform="scale(1 1) rotate(0) translate(4 23)">
<title>Game.GameController.DespawnFarAwayChunks</title>
<!-- Node1 -->
<g id="Node000001" class="node">
<title>Node1</title>
<g id="a_Node000001"><a xlink:title="Despawn the chunks which are too far away from the player.">
<polygon fill="#999999" stroke="#666666" points="251,-19 0,-19 0,0 251,0 251,-19"/>
<text text-anchor="middle" x="125.5" y="-7" font-family="Helvetica,sans-Serif" font-size="10.00">Game.GameController.DespawnFarAwayChunks</text>
</a>
</g>
</g>
<!-- Node2 -->
<g id="Node000002" class="node">
<title>Node2</title>
<g id="a_Node000002"><a xlink:href="classGame_1_1World_1_1GameWorld.html#a6e38b875a4ad69b6a285701336e9e29c" target="_top" xlink:title="Hide the given chunk.">
<polygon fill="white" stroke="#666666" points="480,-19 287,-19 287,0 480,0 480,-19"/>
<text text-anchor="middle" x="383.5" y="-7" font-family="Helvetica,sans-Serif" font-size="10.00">Game.World.GameWorld.HideChunk</text>
</a>
</g>
</g>
<!-- Node1&#45;&gt;Node2 -->
<g id="edge1_Node000001_Node000002" class="edge">
<title>Node1&#45;&gt;Node2</title>
<g id="a_edge1_Node000001_Node000002"><a xlink:title=" ">
<path fill="none" stroke="#63b8ff" d="M251.13,-9.5C259.62,-9.5 268.14,-9.5 276.53,-9.5"/>
<polygon fill="#63b8ff" stroke="#63b8ff" points="276.68,-13 286.68,-9.5 276.68,-6 276.68,-13"/>
</a>
</g>
</g>
<!-- Node3 -->
<g id="Node000003" class="node">
<title>Node3</title>
<g id="a_Node000003"><a xlink:href="classGame_1_1World_1_1Chunk.html#a118e0c25d254444e6663404fd61749d9" target="_top" xlink:title="Hide the chunk.">
<polygon fill="white" stroke="#666666" points="683,-19 516,-19 516,0 683,0 683,-19"/>
<text text-anchor="middle" x="599.5" y="-7" font-family="Helvetica,sans-Serif" font-size="10.00">Game.World.Chunk.HideChunk</text>
</a>
</g>
</g>
<!-- Node2&#45;&gt;Node3 -->
<g id="edge2_Node000002_Node000003" class="edge">
<title>Node2&#45;&gt;Node3</title>
<g id="a_edge2_Node000002_Node000003"><a xlink:title=" ">
<path fill="none" stroke="#63b8ff" d="M480.23,-9.5C488.7,-9.5 497.26,-9.5 505.7,-9.5"/>
<polygon fill="#63b8ff" stroke="#63b8ff" points="505.92,-13 515.92,-9.5 505.92,-6 505.92,-13"/>
</a>
</g>
</g>
</g>
</svg>
