<?xml version="1.0" encoding="UTF-8" standalone="no"?>
<!DOCTYPE svg PUBLIC "-//W3C//DTD SVG 1.1//EN"
 "http://www.w3.org/Graphics/SVG/1.1/DTD/svg11.dtd">
<!-- Generated by graphviz version 2.43.0 (0)
 -->
<!-- Title: Game.GameController.ValidateAndLoadChunk Pages: 1 -->
<svg width="1735pt" height="218pt"
 viewBox="0.00 0.00 1735.00 218.00" xmlns="http://www.w3.org/2000/svg" xmlns:xlink="http://www.w3.org/1999/xlink">
<g id="graph0" class="graph" transform="scale(1 1) rotate(0) translate(4 214)">
<title>Game.GameController.ValidateAndLoadChunk</title>
<polygon fill="white" stroke="transparent" points="-4,4 -4,-214 1731,-214 1731,4 -4,4"/>
<!-- Node1 -->
<g id="node1" class="node">
<title>Node1</title>
<g id="a_node1"><a xlink:title="Checks if the selected chunk is in range and loads it if the world exists">
<polygon fill="#bfbfbf" stroke="black" points="0,-171.5 0,-190.5 241,-190.5 241,-171.5 0,-171.5"/>
<text text-anchor="middle" x="120.5" y="-178.5" font-family="Helvetica,sans-Serif" font-size="10.00">Game.GameController.ValidateAndLoadChunk</text>
</a>
</g>
</g>
<!-- Node2 -->
<g id="node2" class="node">
<title>Node2</title>
<g id="a_node2"><a xlink:href="classGame_1_1World_1_1GameWorld.html#a730e116826e3519544de155b667042ba" target="_top" xlink:title="Loads a chunk">
<polygon fill="white" stroke="black" points="277,-171.5 277,-190.5 471,-190.5 471,-171.5 277,-171.5"/>
<text text-anchor="middle" x="374" y="-178.5" font-family="Helvetica,sans-Serif" font-size="10.00">Game.World.GameWorld.LoadChunk</text>
</a>
</g>
</g>
<!-- Node1&#45;&gt;Node2 -->
<g id="edge1" class="edge">
<title>Node1&#45;&gt;Node2</title>
<path fill="none" stroke="midnightblue" d="M241.36,-181C249.81,-181 258.3,-181 266.68,-181"/>
<polygon fill="midnightblue" stroke="midnightblue" points="266.82,-184.5 276.82,-181 266.82,-177.5 266.82,-184.5"/>
</g>
<!-- Node3 -->
<g id="node3" class="node">
<title>Node3</title>
<g id="a_node3"><a xlink:href="classGame_1_1World_1_1Chunk.html#a475512064d145228ca7084735b7e2f2f" target="_top" xlink:title="Show the chunk">
<polygon fill="white" stroke="black" points="512,-190.5 512,-209.5 662,-209.5 662,-190.5 512,-190.5"/>
<text text-anchor="middle" x="587" y="-197.5" font-family="Helvetica,sans-Serif" font-size="10.00">Game.World.Chunk.Display</text>
</a>
</g>
</g>
<!-- Node2&#45;&gt;Node3 -->
<g id="edge2" class="edge">
<title>Node2&#45;&gt;Node3</title>
<path fill="none" stroke="midnightblue" d="M471.24,-189.67C481.32,-190.57 491.52,-191.49 501.46,-192.39"/>
<polygon fill="midnightblue" stroke="midnightblue" points="501.43,-195.9 511.71,-193.31 502.06,-188.93 501.43,-195.9"/>
</g>
<!-- Node4 -->
<g id="node4" class="node">
<title>Node4</title>
<g id="a_node4"><a xlink:href="classGame_1_1World_1_1Chunk.html#a0616c2f9600a4bcc1dbe97a93a947e7a" target="_top" xlink:title="Initialize the chunk">
<polygon fill="white" stroke="black" points="507,-152.5 507,-171.5 667,-171.5 667,-152.5 507,-152.5"/>
<text text-anchor="middle" x="587" y="-159.5" font-family="Helvetica,sans-Serif" font-size="10.00">Game.World.Chunk.InitChunk</text>
</a>
</g>
</g>
<!-- Node2&#45;&gt;Node4 -->
<g id="edge3" class="edge">
<title>Node2&#45;&gt;Node4</title>
<path fill="none" stroke="midnightblue" d="M471.24,-172.33C479.74,-171.57 488.32,-170.8 496.76,-170.04"/>
<polygon fill="midnightblue" stroke="midnightblue" points="497.32,-173.5 506.96,-169.12 496.69,-166.53 497.32,-173.5"/>
</g>
<!-- Node5 -->
<g id="node5" class="node">
<title>Node5</title>
<g id="a_node5"><a xlink:href="classGame_1_1World_1_1Chunk.html#aac3343253a33a36a09318ebc76bd9f08" target="_top" xlink:title="Creates the tiles for the chunk">
<polygon fill="white" stroke="black" points="723.5,-190.5 723.5,-209.5 892.5,-209.5 892.5,-190.5 723.5,-190.5"/>
<text text-anchor="middle" x="808" y="-197.5" font-family="Helvetica,sans-Serif" font-size="10.00">Game.World.Chunk.CreateTiles</text>
</a>
</g>
</g>
<!-- Node4&#45;&gt;Node5 -->
<g id="edge4" class="edge">
<title>Node4&#45;&gt;Node5</title>
<path fill="none" stroke="midnightblue" d="M642.98,-171.54C673.05,-176.76 710.48,-183.25 741.99,-188.72"/>
<polygon fill="midnightblue" stroke="midnightblue" points="741.55,-192.19 752,-190.46 742.74,-185.3 741.55,-192.19"/>
</g>
<!-- Node8 -->
<g id="node8" class="node">
<title>Node8</title>
<g id="a_node8"><a xlink:href="classGame_1_1World_1_1Chunk.html#af8d6134551597f12a028155b1466c0ff" target="_top" xlink:title="Gets tthe nearby chunks">
<polygon fill="white" stroke="black" points="707,-152.5 707,-171.5 909,-171.5 909,-152.5 707,-152.5"/>
<text text-anchor="middle" x="808" y="-159.5" font-family="Helvetica,sans-Serif" font-size="10.00">Game.World.Chunk.GetNearbyChunks</text>
</a>
</g>
</g>
<!-- Node4&#45;&gt;Node8 -->
<g id="edge7" class="edge">
<title>Node4&#45;&gt;Node8</title>
<path fill="none" stroke="midnightblue" d="M667.06,-162C676.61,-162 686.5,-162 696.39,-162"/>
<polygon fill="midnightblue" stroke="midnightblue" points="696.69,-165.5 706.69,-162 696.69,-158.5 696.69,-165.5"/>
</g>
<!-- Node10 -->
<g id="node10" class="node">
<title>Node10</title>
<g id="a_node10"><a xlink:href="classGame_1_1World_1_1Chunk.html#a08f4b5e8b362b98f4b3f01225d12b4af" target="_top" xlink:title="Spawns the buildings and the props on a seperate thread">
<polygon fill="white" stroke="black" points="703,-76.5 703,-95.5 913,-95.5 913,-76.5 703,-76.5"/>
<text text-anchor="middle" x="808" y="-83.5" font-family="Helvetica,sans-Serif" font-size="10.00">Game.World.Chunk.SpawnWorldObjects</text>
</a>
</g>
</g>
<!-- Node4&#45;&gt;Node10 -->
<g id="edge9" class="edge">
<title>Node4&#45;&gt;Node10</title>
<path fill="none" stroke="midnightblue" d="M615.74,-152.37C654.82,-138.81 726.18,-114.05 769.82,-98.9"/>
<polygon fill="midnightblue" stroke="midnightblue" points="771.19,-102.13 779.49,-95.55 768.89,-95.52 771.19,-102.13"/>
</g>
<!-- Node6 -->
<g id="node6" class="node">
<title>Node6</title>
<g id="a_node6"><a xlink:href="classGame_1_1World_1_1Chunk.html#ac4b762352bb5f90952fe57e5c0ee208f" target="_top" xlink:title="Determines the type of the tile at the coord">
<polygon fill="white" stroke="black" points="970.5,-190.5 970.5,-209.5 1176.5,-209.5 1176.5,-190.5 970.5,-190.5"/>
<text text-anchor="middle" x="1073.5" y="-197.5" font-family="Helvetica,sans-Serif" font-size="10.00">Game.World.Chunk.DetermineTileType</text>
</a>
</g>
</g>
<!-- Node5&#45;&gt;Node6 -->
<g id="edge5" class="edge">
<title>Node5&#45;&gt;Node6</title>
<path fill="none" stroke="midnightblue" d="M892.74,-200C914.04,-200 937.28,-200 959.76,-200"/>
<polygon fill="midnightblue" stroke="midnightblue" points="960.03,-203.5 970.03,-200 960.03,-196.5 960.03,-203.5"/>
</g>
<!-- Node7 -->
<g id="node7" class="node">
<title>Node7</title>
<g id="a_node7"><a xlink:href="classGame_1_1World_1_1Chunk.html#a2d39efc9f5c0f3c302dd7e9d007096c7" target="_top" xlink:title="Determine what type of road it is">
<polygon fill="white" stroke="black" points="1250.5,-190.5 1250.5,-209.5 1462.5,-209.5 1462.5,-190.5 1250.5,-190.5"/>
<text text-anchor="middle" x="1356.5" y="-197.5" font-family="Helvetica,sans-Serif" font-size="10.00">Game.World.Chunk.DetermineRoadType</text>
</a>
</g>
</g>
<!-- Node6&#45;&gt;Node7 -->
<g id="edge6" class="edge">
<title>Node6&#45;&gt;Node7</title>
<path fill="none" stroke="midnightblue" d="M1176.74,-200C1197.24,-200 1218.91,-200 1239.83,-200"/>
<polygon fill="midnightblue" stroke="midnightblue" points="1240.03,-203.5 1250.03,-200 1240.03,-196.5 1240.03,-203.5"/>
</g>
<!-- Node9 -->
<g id="node9" class="node">
<title>Node9</title>
<g id="a_node9"><a xlink:href="classGame_1_1World_1_1GameWorld.html#a6188226b54eb7e38659cbe8d9d76b620" target="_top" xlink:title="Get the chunk without trying it to load">
<polygon fill="white" stroke="black" points="949,-152.5 949,-171.5 1198,-171.5 1198,-152.5 949,-152.5"/>
<text text-anchor="middle" x="1073.5" y="-159.5" font-family="Helvetica,sans-Serif" font-size="10.00">Game.World.GameWorld.GetChunkWithoutLoad</text>
</a>
</g>
</g>
<!-- Node8&#45;&gt;Node9 -->
<g id="edge8" class="edge">
<title>Node8&#45;&gt;Node9</title>
<path fill="none" stroke="midnightblue" d="M909.37,-162C918.98,-162 928.82,-162 938.68,-162"/>
<polygon fill="midnightblue" stroke="midnightblue" points="938.95,-165.5 948.95,-162 938.95,-158.5 938.95,-165.5"/>
</g>
<!-- Node11 -->
<g id="node11" class="node">
<title>Node11</title>
<g id="a_node11"><a xlink:href="classGame_1_1World_1_1Chunk.html#a12ff4b268fb99d10493398cfe555b46c" target="_top" xlink:title=" ">
<polygon fill="white" stroke="black" points="1246,-114.5 1246,-133.5 1467,-133.5 1467,-114.5 1246,-114.5"/>
<text text-anchor="middle" x="1356.5" y="-121.5" font-family="Helvetica,sans-Serif" font-size="10.00">Game.World.Chunk.AddEnvironmentProps</text>
</a>
</g>
</g>
<!-- Node10&#45;&gt;Node11 -->
<g id="edge10" class="edge">
<title>Node10&#45;&gt;Node11</title>
<path fill="none" stroke="midnightblue" d="M870.55,-95.55C894.92,-99.01 923.23,-102.65 949,-105 1045.15,-113.75 1154.48,-118.58 1235.52,-121.17"/>
<polygon fill="midnightblue" stroke="midnightblue" points="1235.66,-124.68 1245.76,-121.49 1235.88,-117.68 1235.66,-124.68"/>
</g>
<!-- Node13 -->
<g id="node13" class="node">
<title>Node13</title>
<g id="a_node13"><a xlink:href="classGame_1_1World_1_1Chunk.html#a00a9cd484ae1ddffec928a75f6b2db15" target="_top" xlink:title="Add the buildings which are next to the roads">
<polygon fill="white" stroke="black" points="972.5,-76.5 972.5,-95.5 1174.5,-95.5 1174.5,-76.5 972.5,-76.5"/>
<text text-anchor="middle" x="1073.5" y="-83.5" font-family="Helvetica,sans-Serif" font-size="10.00">Game.World.Chunk.AddRoadBuildings</text>
</a>
</g>
</g>
<!-- Node10&#45;&gt;Node13 -->
<g id="edge12" class="edge">
<title>Node10&#45;&gt;Node13</title>
<path fill="none" stroke="midnightblue" d="M913.14,-86C929.22,-86 945.88,-86 962.1,-86"/>
<polygon fill="midnightblue" stroke="midnightblue" points="962.12,-89.5 972.12,-86 962.12,-82.5 962.12,-89.5"/>
</g>
<!-- Node15 -->
<g id="node15" class="node">
<title>Node15</title>
<g id="a_node15"><a xlink:href="classGame_1_1World_1_1Chunk.html#a443ede65d8aeb566a385cb3bcad9d8f7" target="_top" xlink:title="Generate the building cells matrix so we know which way the roads are">
<polygon fill="white" stroke="black" points="969,-38.5 969,-57.5 1178,-57.5 1178,-38.5 969,-38.5"/>
<text text-anchor="middle" x="1073.5" y="-45.5" font-family="Helvetica,sans-Serif" font-size="10.00">Game.World.Chunk.GenerateCellMatrix</text>
</a>
</g>
</g>
<!-- Node10&#45;&gt;Node15 -->
<g id="edge15" class="edge">
<title>Node10&#45;&gt;Node15</title>
<path fill="none" stroke="midnightblue" d="M875.15,-76.46C911.96,-71.15 957.93,-64.52 996.25,-59"/>
<polygon fill="midnightblue" stroke="midnightblue" points="996.92,-62.44 1006.32,-57.54 995.92,-55.51 996.92,-62.44"/>
</g>
<!-- Node16 -->
<g id="node16" class="node">
<title>Node16</title>
<g id="a_node16"><a xlink:href="classUtility_1_1CoroutineRunner.html#a1c473dee723f16d86bab9d8475c8214a" target="_top" xlink:title="A helper method to start coroutines">
<polygon fill="white" stroke="black" points="974.5,-0.5 974.5,-19.5 1172.5,-19.5 1172.5,-0.5 974.5,-0.5"/>
<text text-anchor="middle" x="1073.5" y="-7.5" font-family="Helvetica,sans-Serif" font-size="10.00">Utility.CoroutineRunner.RunCoroutine</text>
</a>
</g>
</g>
<!-- Node10&#45;&gt;Node16 -->
<g id="edge16" class="edge">
<title>Node10&#45;&gt;Node16</title>
<path fill="none" stroke="midnightblue" d="M828.43,-76.38C855,-63.63 904.48,-41.3 949,-29 959.75,-26.03 971.17,-23.48 982.55,-21.31"/>
<polygon fill="midnightblue" stroke="midnightblue" points="983.31,-24.73 992.53,-19.5 982.06,-17.85 983.31,-24.73"/>
</g>
<!-- Node12 -->
<g id="node12" class="node">
<title>Node12</title>
<g id="a_node12"><a xlink:href="classGame_1_1World_1_1Chunk.html#af37779d40ed9cd07b577d5bca61627b7" target="_top" xlink:title=" ">
<polygon fill="white" stroke="black" points="1515,-95.5 1515,-114.5 1727,-114.5 1727,-95.5 1515,-95.5"/>
<text text-anchor="middle" x="1621" y="-102.5" font-family="Helvetica,sans-Serif" font-size="10.00">Game.World.Chunk.GetAbsolutePosition</text>
</a>
</g>
</g>
<!-- Node11&#45;&gt;Node12 -->
<g id="edge11" class="edge">
<title>Node11&#45;&gt;Node12</title>
<path fill="none" stroke="midnightblue" d="M1467.3,-116.05C1479.6,-115.16 1492.15,-114.25 1504.51,-113.36"/>
<polygon fill="midnightblue" stroke="midnightblue" points="1505.12,-116.82 1514.84,-112.61 1504.61,-109.84 1505.12,-116.82"/>
</g>
<!-- Node14 -->
<g id="node14" class="node">
<title>Node14</title>
<g id="a_node14"><a xlink:href="classGame_1_1World_1_1Chunk.html#af2946e1e1b9e325d6004d166b2b26193" target="_top" xlink:title="Lock the cell and try to place it">
<polygon fill="white" stroke="black" points="1234,-76.5 1234,-95.5 1479,-95.5 1479,-76.5 1234,-76.5"/>
<text text-anchor="middle" x="1356.5" y="-83.5" font-family="Helvetica,sans-Serif" font-size="10.00">Game.World.Chunk.LockAndTryToPlaceBuilding</text>
</a>
</g>
</g>
<!-- Node13&#45;&gt;Node14 -->
<g id="edge13" class="edge">
<title>Node13&#45;&gt;Node14</title>
<path fill="none" stroke="midnightblue" d="M1174.76,-86C1190.55,-86 1207.09,-86 1223.47,-86"/>
<polygon fill="midnightblue" stroke="midnightblue" points="1223.64,-89.5 1233.64,-86 1223.64,-82.5 1223.64,-89.5"/>
</g>
<!-- Node14&#45;&gt;Node12 -->
<g id="edge14" class="edge">
<title>Node14&#45;&gt;Node12</title>
<path fill="none" stroke="midnightblue" d="M1479.14,-94.8C1487.72,-95.43 1496.36,-96.05 1504.9,-96.67"/>
<polygon fill="midnightblue" stroke="midnightblue" points="1504.65,-100.16 1514.87,-97.39 1505.15,-93.18 1504.65,-100.16"/>
</g>
</g>
</svg>
