<?xml version="1.0" encoding="UTF-8" standalone="no"?>
<!DOCTYPE svg PUBLIC "-//W3C//DTD SVG 1.1//EN"
 "http://www.w3.org/Graphics/SVG/1.1/DTD/svg11.dtd">
<!-- Generated by graphviz version 2.43.0 (0)
 -->
<!-- Title: CameraScript Pages: 1 -->
<svg width="1430pt" height="1440pt"
 viewBox="0.00 0.00 1429.71 1440.00" xmlns="http://www.w3.org/2000/svg" xmlns:xlink="http://www.w3.org/1999/xlink">
<g id="graph0" class="graph" transform="scale(1 1) rotate(0) translate(4 1436)">
<title>CameraScript</title>
<!-- Node1 -->
<g id="Node000001" class="node">
<title>Node1</title>
<g id="a_Node000001"><a xlink:title="Script which follows the player&#39;s car.">
<polygon fill="#999999" stroke="transparent" points="595.5,-722.5 471.5,-722.5 471.5,-658.5 595.5,-658.5 595.5,-722.5"/>
<text text-anchor="start" x="500" y="-710.5" font-family="Helvetica,sans-Serif" font-size="10.00">CameraScript</text>
<text text-anchor="start" x="475.5" y="-695.5" font-family="Helvetica,sans-Serif" font-size="10.00">&#45;</text>
<text text-anchor="start" x="483.5" y="-695.5" font-family="Helvetica,sans-Serif" font-size="10.00">Vector3 CameraOffset</text>
<text text-anchor="start" x="475.5" y="-680.5" font-family="Helvetica,sans-Serif" font-size="10.00">&#45;</text>
<text text-anchor="start" x="483.5" y="-680.5" font-family="Helvetica,sans-Serif" font-size="10.00">void Start()</text>
<text text-anchor="start" x="475.5" y="-665.5" font-family="Helvetica,sans-Serif" font-size="10.00">&#45;</text>
<text text-anchor="start" x="483.5" y="-665.5" font-family="Helvetica,sans-Serif" font-size="10.00">void Update()</text>
<polygon fill="#666666" stroke="#666666" points="471.5,-705.5 471.5,-705.5 595.5,-705.5 595.5,-705.5 471.5,-705.5"/>
<polygon fill="#666666" stroke="#666666" points="471.5,-690.5 471.5,-690.5 481.5,-690.5 481.5,-690.5 471.5,-690.5"/>
<polygon fill="#666666" stroke="#666666" points="481.5,-690.5 481.5,-690.5 595.5,-690.5 595.5,-690.5 481.5,-690.5"/>
<polygon fill="none" stroke="#666666" points="471.5,-658.5 471.5,-722.5 595.5,-722.5 595.5,-658.5 471.5,-658.5"/>
</a>
</g>
</g>
<!-- Node2 -->
<g id="Node000002" class="node">
<title>Node2</title>
<g id="a_Node000002"><a xlink:href="classUtility_1_1ThreadSafeMonoBehaviour.html" target="_top" xlink:title="Safely stores if the gameobject been destroyed in a bool.">
<polygon fill="white" stroke="transparent" points="856,-1346 713,-1346 713,-1297 856,-1297 856,-1346"/>
<text text-anchor="start" x="718.5" y="-1333.5" font-family="Helvetica,sans-Serif" font-size="10.00">ThreadSafeMonoBehaviour</text>
<text text-anchor="start" x="727" y="-1318.5" font-family="Helvetica,sans-Serif" font-size="10.00">+</text>
<text text-anchor="start" x="749.5" y="-1318.5" font-family="Helvetica,sans-Serif" font-size="10.00">bool Destroyed</text>
<text text-anchor="start" x="727" y="-1303.5" font-family="Helvetica,sans-Serif" font-size="10.00">#</text>
<text text-anchor="start" x="749.5" y="-1303.5" font-family="Helvetica,sans-Serif" font-size="10.00">void OnDestroy()</text>
<polygon fill="#666666" stroke="#666666" points="713.5,-1328.5 713.5,-1328.5 856.5,-1328.5 856.5,-1328.5 713.5,-1328.5"/>
<polygon fill="#666666" stroke="#666666" points="713.5,-1313.5 713.5,-1313.5 747.5,-1313.5 747.5,-1313.5 713.5,-1313.5"/>
<polygon fill="#666666" stroke="#666666" points="747.5,-1313.5 747.5,-1313.5 856.5,-1313.5 856.5,-1313.5 747.5,-1313.5"/>
<polygon fill="none" stroke="#666666" points="713,-1297 713,-1346 856,-1346 856,-1297 713,-1297"/>
</a>
</g>
</g>
<!-- Node2&#45;&gt;Node1 -->
<g id="edge1_Node000001_Node000002" class="edge">
<title>Node2&#45;&gt;Node1</title>
<g id="a_edge1_Node000001_Node000002"><a xlink:title=" ">
<path fill="none" stroke="#63b8ff" d="M771.32,-1287.47C727.7,-1178.17 588.42,-829.12 545.93,-722.64"/>
<polygon fill="none" stroke="#63b8ff" points="768.16,-1289 775.12,-1296.99 774.66,-1286.41 768.16,-1289"/>
</a>
</g>
</g>
<!-- Node4 -->
<g id="Node000004" class="node">
<title>Node4</title>
<g id="a_Node000004"><a xlink:href="classGame_1_1GameController.html" target="_top" xlink:title="Handles the main flow of the game scene.">
<polygon fill="white" stroke="transparent" points="441,-1250 166,-1250 166,-905 441,-905 441,-1250"/>
<text text-anchor="start" x="249" y="-1237.5" font-family="Helvetica,sans-Serif" font-size="10.00">Game.GameController</text>
<text text-anchor="start" x="170.5" y="-1222.5" font-family="Helvetica,sans-Serif" font-size="10.00">+</text>
<text text-anchor="start" x="183.5" y="-1222.5" font-family="Helvetica,sans-Serif" font-size="10.00">World.GameWorld World</text>
<text text-anchor="start" x="170.5" y="-1207.5" font-family="Helvetica,sans-Serif" font-size="10.00">+</text>
<text text-anchor="start" x="183.5" y="-1207.5" font-family="Helvetica,sans-Serif" font-size="10.00">int Score</text>
<text text-anchor="start" x="170.5" y="-1192.5" font-family="Helvetica,sans-Serif" font-size="10.00">+</text>
<text text-anchor="start" x="183.5" y="-1192.5" font-family="Helvetica,sans-Serif" font-size="10.00">PlayerCar? Player</text>
<text text-anchor="start" x="170.5" y="-1177.5" font-family="Helvetica,sans-Serif" font-size="10.00">+</text>
<text text-anchor="start" x="183.5" y="-1177.5" font-family="Helvetica,sans-Serif" font-size="10.00">Vector3 PlayerPos</text>
<text text-anchor="start" x="170.5" y="-1162.5" font-family="Helvetica,sans-Serif" font-size="10.00">+</text>
<text text-anchor="start" x="183.5" y="-1162.5" font-family="Helvetica,sans-Serif" font-size="10.00">bool Running</text>
<text text-anchor="start" x="170.5" y="-1147.5" font-family="Helvetica,sans-Serif" font-size="10.00">+</text>
<text text-anchor="start" x="183.5" y="-1147.5" font-family="Helvetica,sans-Serif" font-size="10.00">int Difficulty</text>
<text text-anchor="start" x="170.5" y="-1132.5" font-family="Helvetica,sans-Serif" font-size="10.00">+</text>
<text text-anchor="start" x="183.5" y="-1132.5" font-family="Helvetica,sans-Serif" font-size="10.00">float Coins</text>
<text text-anchor="start" x="173" y="-1117.5" font-family="Helvetica,sans-Serif" font-size="10.00">&#45;</text>
<text text-anchor="start" x="183.5" y="-1117.5" font-family="Helvetica,sans-Serif" font-size="10.00">int chunkLoadDistance</text>
<text text-anchor="start" x="173" y="-1102.5" font-family="Helvetica,sans-Serif" font-size="10.00">&#45;</text>
<text text-anchor="start" x="183.5" y="-1102.5" font-family="Helvetica,sans-Serif" font-size="10.00">Dictionary&lt; long, GameObject &gt; playerVariants</text>
<text text-anchor="start" x="173" y="-1087.5" font-family="Helvetica,sans-Serif" font-size="10.00">&#45;</text>
<text text-anchor="start" x="183.5" y="-1087.5" font-family="Helvetica,sans-Serif" font-size="10.00">float elapsedTime</text>
<text text-anchor="start" x="170.5" y="-1072.5" font-family="Helvetica,sans-Serif" font-size="10.00">+</text>
<text text-anchor="start" x="183.5" y="-1072.5" font-family="Helvetica,sans-Serif" font-size="10.00">void IncreaseCoinCount(float amount)</text>
<text text-anchor="start" x="170.5" y="-1057.5" font-family="Helvetica,sans-Serif" font-size="10.00">+</text>
<text text-anchor="start" x="183.5" y="-1057.5" font-family="Helvetica,sans-Serif" font-size="10.00">async Task NewGame()</text>
<text text-anchor="start" x="170.5" y="-1042.5" font-family="Helvetica,sans-Serif" font-size="10.00">+</text>
<text text-anchor="start" x="183.5" y="-1042.5" font-family="Helvetica,sans-Serif" font-size="10.00">async Task LoadAndDespawnChunks(int centerRow,</text>
<text text-anchor="start" x="183.5" y="-1031.5" font-family="Helvetica,sans-Serif" font-size="10.00"> int centerColumn)</text>
<text text-anchor="start" x="173" y="-1016.5" font-family="Helvetica,sans-Serif" font-size="10.00">&#45;</text>
<text text-anchor="start" x="183.5" y="-1016.5" font-family="Helvetica,sans-Serif" font-size="10.00">void Awake()</text>
<text text-anchor="start" x="173" y="-1001.5" font-family="Helvetica,sans-Serif" font-size="10.00">&#45;</text>
<text text-anchor="start" x="183.5" y="-1001.5" font-family="Helvetica,sans-Serif" font-size="10.00">void Start()</text>
<text text-anchor="start" x="173" y="-986.5" font-family="Helvetica,sans-Serif" font-size="10.00">&#45;</text>
<text text-anchor="start" x="183.5" y="-986.5" font-family="Helvetica,sans-Serif" font-size="10.00">void Update()</text>
<text text-anchor="start" x="173" y="-971.5" font-family="Helvetica,sans-Serif" font-size="10.00">&#45;</text>
<text text-anchor="start" x="183.5" y="-971.5" font-family="Helvetica,sans-Serif" font-size="10.00">void PlayerSkinsLoaded(GameObject playerSkin)</text>
<text text-anchor="start" x="173" y="-956.5" font-family="Helvetica,sans-Serif" font-size="10.00">&#45;</text>
<text text-anchor="start" x="183.5" y="-956.5" font-family="Helvetica,sans-Serif" font-size="10.00">void PlayerDied(object? sender, EventArgs args)</text>
<text text-anchor="start" x="173" y="-941.5" font-family="Helvetica,sans-Serif" font-size="10.00">&#45;</text>
<text text-anchor="start" x="183.5" y="-941.5" font-family="Helvetica,sans-Serif" font-size="10.00">void DespawnFarAwayChunks(int row, int col)</text>
<text text-anchor="start" x="173" y="-926.5" font-family="Helvetica,sans-Serif" font-size="10.00">&#45;</text>
<text text-anchor="start" x="183.5" y="-926.5" font-family="Helvetica,sans-Serif" font-size="10.00">async Task SpawnNearbyChunks(int row, int col)</text>
<text text-anchor="start" x="173" y="-911.5" font-family="Helvetica,sans-Serif" font-size="10.00">&#45;</text>
<text text-anchor="start" x="183.5" y="-911.5" font-family="Helvetica,sans-Serif" font-size="10.00">async Task ValidateAndLoadChunk(int row, int col)</text>
<polygon fill="#666666" stroke="#666666" points="166.5,-1232.5 166.5,-1232.5 441.5,-1232.5 441.5,-1232.5 166.5,-1232.5"/>
<polygon fill="#666666" stroke="#666666" points="166.5,-1082.5 166.5,-1082.5 181.5,-1082.5 181.5,-1082.5 166.5,-1082.5"/>
<polygon fill="#666666" stroke="#666666" points="181.5,-1082.5 181.5,-1082.5 441.5,-1082.5 441.5,-1082.5 181.5,-1082.5"/>
<polygon fill="none" stroke="#666666" points="166,-905 166,-1250 441,-1250 441,-905 166,-905"/>
</a>
</g>
</g>
<!-- Node2&#45;&gt;Node4 -->
<g id="edge4_Node000004_Node000002" class="edge">
<title>Node2&#45;&gt;Node4</title>
<g id="a_edge4_Node000004_Node000002"><a xlink:title=" ">
<path fill="none" stroke="#63b8ff" d="M703.22,-1294.24C690.46,-1289.52 677.52,-1284.38 665.5,-1279 589.26,-1244.89 507.62,-1200.42 441.2,-1162.02"/>
<polygon fill="none" stroke="#63b8ff" points="702.34,-1297.64 712.94,-1297.76 704.73,-1291.06 702.34,-1297.64"/>
</a>
</g>
</g>
<!-- Node6 -->
<g id="Node000006" class="node">
<title>Node6</title>
<g id="a_Node000006"><a xlink:href="classGame_1_1UI_1_1GameUI.html" target="_top" xlink:title="Controller for the game&#39;s UI.">
<polygon fill="white" stroke="transparent" points="1212,-544 869,-544 869,0 1212,0 1212,-544"/>
<text text-anchor="start" x="998" y="-532" font-family="Helvetica,sans-Serif" font-size="10.00">Game.UI.GameUI</text>
<text text-anchor="start" x="873.5" y="-517" font-family="Helvetica,sans-Serif" font-size="10.00">+</text>
<text text-anchor="start" x="886.5" y="-517" font-family="Helvetica,sans-Serif" font-size="10.00">bool Doubled</text>
<text text-anchor="start" x="873.5" y="-502" font-family="Helvetica,sans-Serif" font-size="10.00">+</text>
<text text-anchor="start" x="886.5" y="-502" font-family="Helvetica,sans-Serif" font-size="10.00">int SelectedSkinIndex</text>
<text text-anchor="start" x="876" y="-487" font-family="Helvetica,sans-Serif" font-size="10.00">&#45;</text>
<text text-anchor="start" x="886.5" y="-487" font-family="Helvetica,sans-Serif" font-size="10.00">GameObject gameOverContainer</text>
<text text-anchor="start" x="876" y="-472" font-family="Helvetica,sans-Serif" font-size="10.00">&#45;</text>
<text text-anchor="start" x="886.5" y="-472" font-family="Helvetica,sans-Serif" font-size="10.00">GameObject ingameContainer</text>
<text text-anchor="start" x="876" y="-457" font-family="Helvetica,sans-Serif" font-size="10.00">&#45;</text>
<text text-anchor="start" x="886.5" y="-457" font-family="Helvetica,sans-Serif" font-size="10.00">GameObject mainMenuContainer</text>
<text text-anchor="start" x="876" y="-442" font-family="Helvetica,sans-Serif" font-size="10.00">&#45;</text>
<text text-anchor="start" x="886.5" y="-442" font-family="Helvetica,sans-Serif" font-size="10.00">Image SkinDisplay</text>
<text text-anchor="start" x="876" y="-427" font-family="Helvetica,sans-Serif" font-size="10.00">&#45;</text>
<text text-anchor="start" x="886.5" y="-427" font-family="Helvetica,sans-Serif" font-size="10.00">TMP_Text InfamyGameOverText</text>
<text text-anchor="start" x="876" y="-412" font-family="Helvetica,sans-Serif" font-size="10.00">&#45;</text>
<text text-anchor="start" x="886.5" y="-412" font-family="Helvetica,sans-Serif" font-size="10.00">TMP_Text CoinGameOverText</text>
<text text-anchor="start" x="876" y="-397" font-family="Helvetica,sans-Serif" font-size="10.00">&#45;</text>
<text text-anchor="start" x="886.5" y="-397" font-family="Helvetica,sans-Serif" font-size="10.00">TMP_Text InfamyInGameText</text>
<text text-anchor="start" x="876" y="-382" font-family="Helvetica,sans-Serif" font-size="10.00">&#45;</text>
<text text-anchor="start" x="886.5" y="-382" font-family="Helvetica,sans-Serif" font-size="10.00">TMP_Text TaskScoreInGameText</text>
<text text-anchor="start" x="876" y="-367" font-family="Helvetica,sans-Serif" font-size="10.00">&#45;</text>
<text text-anchor="start" x="886.5" y="-367" font-family="Helvetica,sans-Serif" font-size="10.00">TMP_Text CoinInGameText</text>
<text text-anchor="start" x="876" y="-352" font-family="Helvetica,sans-Serif" font-size="10.00">&#45;</text>
<text text-anchor="start" x="886.5" y="-352" font-family="Helvetica,sans-Serif" font-size="10.00">Button DoubleCoinButon</text>
<text text-anchor="start" x="873.5" y="-337" font-family="Helvetica,sans-Serif" font-size="10.00">+</text>
<text text-anchor="start" x="886.5" y="-337" font-family="Helvetica,sans-Serif" font-size="10.00">void SaveGameResult()</text>
<text text-anchor="start" x="873.5" y="-322" font-family="Helvetica,sans-Serif" font-size="10.00">+</text>
<text text-anchor="start" x="886.5" y="-322" font-family="Helvetica,sans-Serif" font-size="10.00">void DoubleCoins()</text>
<text text-anchor="start" x="873.5" y="-307" font-family="Helvetica,sans-Serif" font-size="10.00">+</text>
<text text-anchor="start" x="886.5" y="-307" font-family="Helvetica,sans-Serif" font-size="10.00">void BuyImmunity()</text>
<text text-anchor="start" x="873.5" y="-292" font-family="Helvetica,sans-Serif" font-size="10.00">+</text>
<text text-anchor="start" x="886.5" y="-292" font-family="Helvetica,sans-Serif" font-size="10.00">void BuyTurbo()</text>
<text text-anchor="start" x="873.5" y="-277" font-family="Helvetica,sans-Serif" font-size="10.00">+</text>
<text text-anchor="start" x="886.5" y="-277" font-family="Helvetica,sans-Serif" font-size="10.00">void ShowLeaderboard()</text>
<text text-anchor="start" x="873.5" y="-262" font-family="Helvetica,sans-Serif" font-size="10.00">+</text>
<text text-anchor="start" x="886.5" y="-262" font-family="Helvetica,sans-Serif" font-size="10.00">void LeftRotateSkin()</text>
<text text-anchor="start" x="873.5" y="-247" font-family="Helvetica,sans-Serif" font-size="10.00">+</text>
<text text-anchor="start" x="886.5" y="-247" font-family="Helvetica,sans-Serif" font-size="10.00">void RightRotateSkin()</text>
<text text-anchor="start" x="873.5" y="-232" font-family="Helvetica,sans-Serif" font-size="10.00">+</text>
<text text-anchor="start" x="886.5" y="-232" font-family="Helvetica,sans-Serif" font-size="10.00">void Init(GameController gameController)</text>
<text text-anchor="start" x="873.5" y="-217" font-family="Helvetica,sans-Serif" font-size="10.00">+</text>
<text text-anchor="start" x="886.5" y="-217" font-family="Helvetica,sans-Serif" font-size="10.00">async void NewGame(bool save=true)</text>
<text text-anchor="start" x="873.5" y="-202" font-family="Helvetica,sans-Serif" font-size="10.00">+</text>
<text text-anchor="start" x="886.5" y="-202" font-family="Helvetica,sans-Serif" font-size="10.00">void ChangeDifficulyDisplay(int difficulty)</text>
<text text-anchor="start" x="873.5" y="-187" font-family="Helvetica,sans-Serif" font-size="10.00">+</text>
<text text-anchor="start" x="886.5" y="-187" font-family="Helvetica,sans-Serif" font-size="10.00">void ShowEndGameScreen()</text>
<text text-anchor="start" x="873.5" y="-172" font-family="Helvetica,sans-Serif" font-size="10.00">+</text>
<text text-anchor="start" x="886.5" y="-172" font-family="Helvetica,sans-Serif" font-size="10.00">void HideGameOverScreen(bool saveGameResults=true)</text>
<text text-anchor="start" x="873.5" y="-157" font-family="Helvetica,sans-Serif" font-size="10.00">+</text>
<text text-anchor="start" x="886.5" y="-157" font-family="Helvetica,sans-Serif" font-size="10.00">void ShowShopWindow()</text>
<text text-anchor="start" x="873.5" y="-142" font-family="Helvetica,sans-Serif" font-size="10.00">+</text>
<text text-anchor="start" x="886.5" y="-142" font-family="Helvetica,sans-Serif" font-size="10.00">void HideShopWindow()</text>
<text text-anchor="start" x="873.5" y="-127" font-family="Helvetica,sans-Serif" font-size="10.00">+</text>
<text text-anchor="start" x="886.5" y="-127" font-family="Helvetica,sans-Serif" font-size="10.00">void BackToTasks()</text>
<text text-anchor="start" x="873.5" y="-112" font-family="Helvetica,sans-Serif" font-size="10.00">+</text>
<text text-anchor="start" x="886.5" y="-112" font-family="Helvetica,sans-Serif" font-size="10.00">void BackToGameMenuWithoutSave()</text>
<text text-anchor="start" x="873.5" y="-97" font-family="Helvetica,sans-Serif" font-size="10.00">+</text>
<text text-anchor="start" x="886.5" y="-97" font-family="Helvetica,sans-Serif" font-size="10.00">void BackToGameMenu()</text>
<text text-anchor="start" x="876" y="-82" font-family="Helvetica,sans-Serif" font-size="10.00">&#45;</text>
<text text-anchor="start" x="886.5" y="-82" font-family="Helvetica,sans-Serif" font-size="10.00">void Update()</text>
<text text-anchor="start" x="876" y="-67" font-family="Helvetica,sans-Serif" font-size="10.00">&#45;</text>
<text text-anchor="start" x="886.5" y="-67" font-family="Helvetica,sans-Serif" font-size="10.00">void SavedCoins(Thesis_backend.Data_Structures.Game game)</text>
<text text-anchor="start" x="876" y="-52" font-family="Helvetica,sans-Serif" font-size="10.00">&#45;</text>
<text text-anchor="start" x="886.5" y="-52" font-family="Helvetica,sans-Serif" font-size="10.00">void BoughtImmunity(Thesis_backend.Data_Structures.User user)</text>
<text text-anchor="start" x="876" y="-37" font-family="Helvetica,sans-Serif" font-size="10.00">&#45;</text>
<text text-anchor="start" x="886.5" y="-37" font-family="Helvetica,sans-Serif" font-size="10.00">void BoughtTurbo(Thesis_backend.Data_Structures.User user)</text>
<text text-anchor="start" x="876" y="-22" font-family="Helvetica,sans-Serif" font-size="10.00">&#45;</text>
<text text-anchor="start" x="886.5" y="-22" font-family="Helvetica,sans-Serif" font-size="10.00">void DoubledCoins(Thesis_backend.Data_Structures.User user)</text>
<text text-anchor="start" x="876" y="-7" font-family="Helvetica,sans-Serif" font-size="10.00">&#45;</text>
<text text-anchor="start" x="886.5" y="-7" font-family="Helvetica,sans-Serif" font-size="10.00">void ShowRequestFail(string content)</text>
<polygon fill="#666666" stroke="#666666" points="869.5,-527 869.5,-527 1212.5,-527 1212.5,-527 869.5,-527"/>
<polygon fill="#666666" stroke="#666666" points="869.5,-347 869.5,-347 884.5,-347 884.5,-347 869.5,-347"/>
<polygon fill="#666666" stroke="#666666" points="884.5,-347 884.5,-347 1212.5,-347 1212.5,-347 884.5,-347"/>
<polygon fill="none" stroke="#666666" points="869,0 869,-544 1212,-544 1212,0 869,0"/>
</a>
</g>
</g>
<!-- Node2&#45;&gt;Node6 -->
<g id="edge7_Node000006_Node000002" class="edge">
<title>Node2&#45;&gt;Node6</title>
<g id="a_edge7_Node000006_Node000002"><a xlink:title=" ">
<path fill="none" stroke="#63b8ff" d="M866.44,-1315.53C974.16,-1307.57 1156.02,-1288.72 1209.5,-1250 1359.75,-1141.21 1368.15,-1066.36 1415.5,-887 1435.77,-810.23 1399.35,-615.66 1386.5,-591 1345.61,-512.49 1277.23,-443.41 1212,-389.86"/>
<polygon fill="none" stroke="#63b8ff" points="865.97,-1312.06 856.25,-1316.27 866.48,-1319.04 865.97,-1312.06"/>
</a>
</g>
</g>
<!-- Node7 -->
<g id="Node000007" class="node">
<title>Node7</title>
<g id="a_Node000007"><a xlink:href="classGame_1_1UI_1_1ShopWindow.html" target="_top" xlink:title="Handles the shop window&#39;s content display.">
<polygon fill="white" stroke="transparent" points="1169.5,-790 911.5,-790 911.5,-591 1169.5,-591 1169.5,-790"/>
<text text-anchor="start" x="986" y="-777.5" font-family="Helvetica,sans-Serif" font-size="10.00">Game.UI.ShopWindow</text>
<text text-anchor="start" x="915.5" y="-762.5" font-family="Helvetica,sans-Serif" font-size="10.00">+</text>
<text text-anchor="start" x="928.5" y="-762.5" font-family="Helvetica,sans-Serif" font-size="10.00">List&lt; Sprite &gt; ShopItemSprites</text>
<text text-anchor="start" x="918" y="-747.5" font-family="Helvetica,sans-Serif" font-size="10.00">&#45;</text>
<text text-anchor="start" x="928.5" y="-747.5" font-family="Helvetica,sans-Serif" font-size="10.00">GameObject ShopParent</text>
<text text-anchor="start" x="918" y="-732.5" font-family="Helvetica,sans-Serif" font-size="10.00">&#45;</text>
<text text-anchor="start" x="928.5" y="-732.5" font-family="Helvetica,sans-Serif" font-size="10.00">GameObject ShopItemPrefab</text>
<text text-anchor="start" x="918" y="-717.5" font-family="Helvetica,sans-Serif" font-size="10.00">&#45;</text>
<text text-anchor="start" x="928.5" y="-717.5" font-family="Helvetica,sans-Serif" font-size="10.00">TMP_Text CoinText</text>
<text text-anchor="start" x="918" y="-702.5" font-family="Helvetica,sans-Serif" font-size="10.00">&#45;</text>
<text text-anchor="start" x="928.5" y="-702.5" font-family="Helvetica,sans-Serif" font-size="10.00">List&lt; Shop &gt; shopItemsCache</text>
<text text-anchor="start" x="915.5" y="-687.5" font-family="Helvetica,sans-Serif" font-size="10.00">+</text>
<text text-anchor="start" x="928.5" y="-687.5" font-family="Helvetica,sans-Serif" font-size="10.00">void Show()</text>
<text text-anchor="start" x="915.5" y="-672.5" font-family="Helvetica,sans-Serif" font-size="10.00">+</text>
<text text-anchor="start" x="928.5" y="-672.5" font-family="Helvetica,sans-Serif" font-size="10.00">void Hide()</text>
<text text-anchor="start" x="915.5" y="-657.5" font-family="Helvetica,sans-Serif" font-size="10.00">+</text>
<text text-anchor="start" x="928.5" y="-657.5" font-family="Helvetica,sans-Serif" font-size="10.00">void ShowRequestFail(string content)</text>
<text text-anchor="start" x="915.5" y="-642.5" font-family="Helvetica,sans-Serif" font-size="10.00">+</text>
<text text-anchor="start" x="928.5" y="-642.5" font-family="Helvetica,sans-Serif" font-size="10.00">void UpdateShop()</text>
<text text-anchor="start" x="915.5" y="-627.5" font-family="Helvetica,sans-Serif" font-size="10.00">+</text>
<text text-anchor="start" x="928.5" y="-627.5" font-family="Helvetica,sans-Serif" font-size="10.00">string GetCoinText()</text>
<text text-anchor="start" x="915.5" y="-612.5" font-family="Helvetica,sans-Serif" font-size="10.00">+</text>
<text text-anchor="start" x="928.5" y="-612.5" font-family="Helvetica,sans-Serif" font-size="10.00">GameObject GetShopParent()</text>
<text text-anchor="start" x="918" y="-597.5" font-family="Helvetica,sans-Serif" font-size="10.00">&#45;</text>
<text text-anchor="start" x="928.5" y="-597.5" font-family="Helvetica,sans-Serif" font-size="10.00">void LoadedShopItems(List&lt; Shop &gt; shopItems)</text>
<polygon fill="#666666" stroke="#666666" points="911.5,-772.5 911.5,-772.5 1169.5,-772.5 1169.5,-772.5 911.5,-772.5"/>
<polygon fill="#666666" stroke="#666666" points="911.5,-697.5 911.5,-697.5 926.5,-697.5 926.5,-697.5 911.5,-697.5"/>
<polygon fill="#666666" stroke="#666666" points="926.5,-697.5 926.5,-697.5 1169.5,-697.5 1169.5,-697.5 926.5,-697.5"/>
<polygon fill="none" stroke="#666666" points="911.5,-591 911.5,-790 1169.5,-790 1169.5,-591 911.5,-591"/>
</a>
</g>
</g>
<!-- Node2&#45;&gt;Node7 -->
<g id="edge9_Node000007_Node000002" class="edge">
<title>Node2&#45;&gt;Node7</title>
<g id="a_edge9_Node000007_Node000002"><a xlink:title=" ">
<path fill="none" stroke="#63b8ff" d="M789.62,-1286.78C789.94,-1284.15 790.24,-1281.53 790.5,-1279 795.81,-1226.84 784.35,-847.77 818.5,-808 843.37,-779.03 867.57,-805.41 902.5,-790 905.46,-788.69 908.42,-787.32 911.38,-785.88"/>
<polygon fill="none" stroke="#63b8ff" points="786.13,-1286.46 788.27,-1296.84 793.07,-1287.39 786.13,-1286.46"/>
</a>
</g>
</g>
<!-- Node8 -->
<g id="Node000008" class="node">
<title>Node8</title>
<g id="a_Node000008"><a xlink:href="classUtility_1_1ModalWindow.html" target="_top" xlink:title="Modal window for alerting the user.">
<polygon fill="white" stroke="transparent" points="1081.5,-1145 845.5,-1145 845.5,-1010 1081.5,-1010 1081.5,-1145"/>
<text text-anchor="start" x="913" y="-1132.5" font-family="Helvetica,sans-Serif" font-size="10.00">Utility.ModalWindow</text>
<text text-anchor="start" x="852" y="-1117.5" font-family="Helvetica,sans-Serif" font-size="10.00">&#45;</text>
<text text-anchor="start" x="862.5" y="-1117.5" font-family="Helvetica,sans-Serif" font-size="10.00">TMP_Text ModalTitleText</text>
<text text-anchor="start" x="852" y="-1102.5" font-family="Helvetica,sans-Serif" font-size="10.00">&#45;</text>
<text text-anchor="start" x="862.5" y="-1102.5" font-family="Helvetica,sans-Serif" font-size="10.00">TMP_Text ModalContentText</text>
<text text-anchor="start" x="852" y="-1087.5" font-family="Helvetica,sans-Serif" font-size="10.00">&#45;</text>
<text text-anchor="start" x="862.5" y="-1087.5" font-family="Helvetica,sans-Serif" font-size="10.00">Action onOkAction</text>
<text text-anchor="start" x="849.5" y="-1072.5" font-family="Helvetica,sans-Serif" font-size="10.00">+</text>
<text text-anchor="start" x="862.5" y="-1072.5" font-family="Helvetica,sans-Serif" font-size="10.00">void Show()</text>
<text text-anchor="start" x="849.5" y="-1057.5" font-family="Helvetica,sans-Serif" font-size="10.00">+</text>
<text text-anchor="start" x="862.5" y="-1057.5" font-family="Helvetica,sans-Serif" font-size="10.00">void Show(string title, string content, Action</text>
<text text-anchor="start" x="862.5" y="-1046.5" font-family="Helvetica,sans-Serif" font-size="10.00"> onOkAction=null)</text>
<text text-anchor="start" x="849.5" y="-1031.5" font-family="Helvetica,sans-Serif" font-size="10.00">+</text>
<text text-anchor="start" x="862.5" y="-1031.5" font-family="Helvetica,sans-Serif" font-size="10.00">void Hide()</text>
<text text-anchor="start" x="849.5" y="-1016.5" font-family="Helvetica,sans-Serif" font-size="10.00">+</text>
<text text-anchor="start" x="862.5" y="-1016.5" font-family="Helvetica,sans-Serif" font-size="10.00">void ConfirmButtonClick()</text>
<polygon fill="#666666" stroke="#666666" points="845.5,-1127.5 845.5,-1127.5 1081.5,-1127.5 1081.5,-1127.5 845.5,-1127.5"/>
<polygon fill="#666666" stroke="#666666" points="845.5,-1082.5 845.5,-1082.5 860.5,-1082.5 860.5,-1082.5 845.5,-1082.5"/>
<polygon fill="#666666" stroke="#666666" points="860.5,-1082.5 860.5,-1082.5 1081.5,-1082.5 1081.5,-1082.5 860.5,-1082.5"/>
<polygon fill="none" stroke="#666666" points="845.5,-1010 845.5,-1145 1081.5,-1145 1081.5,-1010 845.5,-1010"/>
</a>
</g>
</g>
<!-- Node2&#45;&gt;Node8 -->
<g id="edge11_Node000008_Node000002" class="edge">
<title>Node2&#45;&gt;Node8</title>
<g id="a_edge11_Node000008_Node000002"><a xlink:title=" ">
<path fill="none" stroke="#63b8ff" d="M810.51,-1289.16C813.23,-1285.76 815.94,-1282.32 818.5,-1279 852.31,-1235.1 888.87,-1184.53 916.81,-1145.16"/>
<polygon fill="none" stroke="#63b8ff" points="807.74,-1287.02 804.17,-1297 813.18,-1291.42 807.74,-1287.02"/>
</a>
</g>
</g>
<!-- Node9 -->
<g id="Node000009" class="node">
<title>Node9</title>
<g id="a_Node000009"><a xlink:href="classGame_1_1UI_1_1LeaderboardWindow.html" target="_top" xlink:title="Handles the leaderboard display window.">
<polygon fill="white" stroke="transparent" points="893.5,-760 613.5,-760 613.5,-621 893.5,-621 893.5,-760"/>
<text text-anchor="start" x="680.5" y="-747.5" font-family="Helvetica,sans-Serif" font-size="10.00">Game.UI.LeaderboardWindow</text>
<text text-anchor="start" x="620" y="-732.5" font-family="Helvetica,sans-Serif" font-size="10.00">&#45;</text>
<text text-anchor="start" x="630.5" y="-732.5" font-family="Helvetica,sans-Serif" font-size="10.00">GameObject scoreParent</text>
<text text-anchor="start" x="620" y="-717.5" font-family="Helvetica,sans-Serif" font-size="10.00">&#45;</text>
<text text-anchor="start" x="630.5" y="-717.5" font-family="Helvetica,sans-Serif" font-size="10.00">TMP_Dropdown filterTypeDropdown</text>
<text text-anchor="start" x="620" y="-702.5" font-family="Helvetica,sans-Serif" font-size="10.00">&#45;</text>
<text text-anchor="start" x="630.5" y="-702.5" font-family="Helvetica,sans-Serif" font-size="10.00">GameObject LeaderboardItemPrefab</text>
<text text-anchor="start" x="617.5" y="-687.5" font-family="Helvetica,sans-Serif" font-size="10.00">+</text>
<text text-anchor="start" x="630.5" y="-687.5" font-family="Helvetica,sans-Serif" font-size="10.00">void Show()</text>
<text text-anchor="start" x="617.5" y="-672.5" font-family="Helvetica,sans-Serif" font-size="10.00">+</text>
<text text-anchor="start" x="630.5" y="-672.5" font-family="Helvetica,sans-Serif" font-size="10.00">void Hide()</text>
<text text-anchor="start" x="617.5" y="-657.5" font-family="Helvetica,sans-Serif" font-size="10.00">+</text>
<text text-anchor="start" x="630.5" y="-657.5" font-family="Helvetica,sans-Serif" font-size="10.00">void LoadScores()</text>
<text text-anchor="start" x="620" y="-642.5" font-family="Helvetica,sans-Serif" font-size="10.00">&#45;</text>
<text text-anchor="start" x="630.5" y="-642.5" font-family="Helvetica,sans-Serif" font-size="10.00">void ShowRequestFail(string content)</text>
<text text-anchor="start" x="620" y="-627.5" font-family="Helvetica,sans-Serif" font-size="10.00">&#45;</text>
<text text-anchor="start" x="630.5" y="-627.5" font-family="Helvetica,sans-Serif" font-size="10.00">void LoadedScores(List&lt; GameScore &gt; gameScores)</text>
<polygon fill="#666666" stroke="#666666" points="613.5,-742.5 613.5,-742.5 893.5,-742.5 893.5,-742.5 613.5,-742.5"/>
<polygon fill="#666666" stroke="#666666" points="613.5,-697.5 613.5,-697.5 628.5,-697.5 628.5,-697.5 613.5,-697.5"/>
<polygon fill="#666666" stroke="#666666" points="628.5,-697.5 628.5,-697.5 893.5,-697.5 893.5,-697.5 628.5,-697.5"/>
<polygon fill="none" stroke="#666666" points="613.5,-621 613.5,-760 893.5,-760 893.5,-621 613.5,-621"/>
</a>
</g>
</g>
<!-- Node2&#45;&gt;Node9 -->
<g id="edge13_Node000009_Node000002" class="edge">
<title>Node2&#45;&gt;Node9</title>
<g id="a_edge13_Node000009_Node000002"><a xlink:title=" ">
<path fill="none" stroke="#63b8ff" d="M782.85,-1286.94C777.96,-1187.77 763.51,-894.61 756.89,-760.22"/>
<polygon fill="none" stroke="#63b8ff" points="779.35,-1287.17 783.34,-1296.99 786.34,-1286.83 779.35,-1287.17"/>
</a>
</g>
</g>
<!-- Node10 -->
<g id="Node000010" class="node">
<title>Node10</title>
<g id="a_Node000010"><a xlink:href="classGame_1_1UI_1_1StarHandler.html" target="_top" xlink:title="Star handler.">
<polygon fill="white" stroke="transparent" points="1414,-887 1221,-887 1221,-808 1414,-808 1414,-887"/>
<text text-anchor="start" x="1266" y="-874.5" font-family="Helvetica,sans-Serif" font-size="10.00">Game.UI.StarHandler</text>
<text text-anchor="start" x="1228" y="-859.5" font-family="Helvetica,sans-Serif" font-size="10.00">&#45;</text>
<text text-anchor="start" x="1238.5" y="-859.5" font-family="Helvetica,sans-Serif" font-size="10.00">List&lt; Image &gt; Stars</text>
<text text-anchor="start" x="1228" y="-844.5" font-family="Helvetica,sans-Serif" font-size="10.00">&#45;</text>
<text text-anchor="start" x="1238.5" y="-844.5" font-family="Helvetica,sans-Serif" font-size="10.00">Sprite fullStarSprite</text>
<text text-anchor="start" x="1228" y="-829.5" font-family="Helvetica,sans-Serif" font-size="10.00">&#45;</text>
<text text-anchor="start" x="1238.5" y="-829.5" font-family="Helvetica,sans-Serif" font-size="10.00">Sprite emptyStarSprite</text>
<text text-anchor="start" x="1225.5" y="-814.5" font-family="Helvetica,sans-Serif" font-size="10.00">+</text>
<text text-anchor="start" x="1238.5" y="-814.5" font-family="Helvetica,sans-Serif" font-size="10.00">void ChangeDifficulty(int difficulty)</text>
<polygon fill="#666666" stroke="#666666" points="1221.5,-869.5 1221.5,-869.5 1414.5,-869.5 1414.5,-869.5 1221.5,-869.5"/>
<polygon fill="#666666" stroke="#666666" points="1221.5,-824.5 1221.5,-824.5 1236.5,-824.5 1236.5,-824.5 1221.5,-824.5"/>
<polygon fill="#666666" stroke="#666666" points="1236.5,-824.5 1236.5,-824.5 1414.5,-824.5 1414.5,-824.5 1236.5,-824.5"/>
<polygon fill="none" stroke="#666666" points="1221,-808 1221,-887 1414,-887 1414,-808 1221,-808"/>
</a>
</g>
</g>
<!-- Node2&#45;&gt;Node10 -->
<g id="edge16_Node000010_Node000002" class="edge">
<title>Node2&#45;&gt;Node10</title>
<g id="a_edge16_Node000010_Node000002"><a xlink:title=" ">
<path fill="none" stroke="#63b8ff" d="M866.26,-1319.3C932.61,-1314.48 1025.47,-1298.55 1090.5,-1250 1217.06,-1155.51 1283.36,-968.27 1307.12,-887.3"/>
<polygon fill="none" stroke="#63b8ff" points="866.01,-1315.81 856.26,-1319.96 866.47,-1322.8 866.01,-1315.81"/>
</a>
</g>
</g>
<!-- Node11 -->
<g id="Node000011" class="node">
<title>Node11</title>
<g id="a_Node000011"><a xlink:href="classGame_1_1World_1_1CarSpawner.html" target="_top" xlink:title="Car spawner.">
<polygon fill="white" stroke="transparent" points="237,-790 0,-790 0,-591 237,-591 237,-790"/>
<text text-anchor="start" x="58" y="-777.5" font-family="Helvetica,sans-Serif" font-size="10.00">Game.World.CarSpawner</text>
<text text-anchor="start" x="7" y="-762.5" font-family="Helvetica,sans-Serif" font-size="10.00">&#45;</text>
<text text-anchor="start" x="17.5" y="-762.5" font-family="Helvetica,sans-Serif" font-size="10.00">List&lt; GameObject &gt; CopCars</text>
<text text-anchor="start" x="7" y="-747.5" font-family="Helvetica,sans-Serif" font-size="10.00">&#45;</text>
<text text-anchor="start" x="17.5" y="-747.5" font-family="Helvetica,sans-Serif" font-size="10.00">List&lt; GameObject &gt; CitizenCars</text>
<text text-anchor="start" x="7" y="-732.5" font-family="Helvetica,sans-Serif" font-size="10.00">&#45;</text>
<text text-anchor="start" x="17.5" y="-732.5" font-family="Helvetica,sans-Serif" font-size="10.00">Dictionary&lt; int, float &gt; spawnIntervalsTier1</text>
<text text-anchor="start" x="7" y="-717.5" font-family="Helvetica,sans-Serif" font-size="10.00">&#45;</text>
<text text-anchor="start" x="17.5" y="-717.5" font-family="Helvetica,sans-Serif" font-size="10.00">Dictionary&lt; int, float &gt; spawnIntervalsTier2</text>
<text text-anchor="start" x="7" y="-702.5" font-family="Helvetica,sans-Serif" font-size="10.00">&#45;</text>
<text text-anchor="start" x="17.5" y="-702.5" font-family="Helvetica,sans-Serif" font-size="10.00">Dictionary&lt; int, float &gt; spawnIntervalsTier3</text>
<text text-anchor="start" x="7" y="-687.5" font-family="Helvetica,sans-Serif" font-size="10.00">&#45;</text>
<text text-anchor="start" x="17.5" y="-687.5" font-family="Helvetica,sans-Serif" font-size="10.00">float tier1SpawnerTimer</text>
<text text-anchor="start" x="7" y="-672.5" font-family="Helvetica,sans-Serif" font-size="10.00">&#45;</text>
<text text-anchor="start" x="17.5" y="-672.5" font-family="Helvetica,sans-Serif" font-size="10.00">float tier2SpawnerTimer</text>
<text text-anchor="start" x="7" y="-657.5" font-family="Helvetica,sans-Serif" font-size="10.00">&#45;</text>
<text text-anchor="start" x="17.5" y="-657.5" font-family="Helvetica,sans-Serif" font-size="10.00">float tier3SpawnerTimer</text>
<text text-anchor="start" x="4.5" y="-642.5" font-family="Helvetica,sans-Serif" font-size="10.00">+</text>
<text text-anchor="start" x="17.5" y="-642.5" font-family="Helvetica,sans-Serif" font-size="10.00">void Update()</text>
<text text-anchor="start" x="4.5" y="-627.5" font-family="Helvetica,sans-Serif" font-size="10.00">+</text>
<text text-anchor="start" x="17.5" y="-627.5" font-family="Helvetica,sans-Serif" font-size="10.00">void SpawnPolice(GameObject carPrefab)</text>
<text text-anchor="start" x="4.5" y="-612.5" font-family="Helvetica,sans-Serif" font-size="10.00">+</text>
<text text-anchor="start" x="17.5" y="-612.5" font-family="Helvetica,sans-Serif" font-size="10.00">void Reset()</text>
<text text-anchor="start" x="4.5" y="-597.5" font-family="Helvetica,sans-Serif" font-size="10.00">+</text>
<text text-anchor="start" x="17.5" y="-597.5" font-family="Helvetica,sans-Serif" font-size="10.00">void SpawnNpc()</text>
<polygon fill="#666666" stroke="#666666" points="0.5,-772.5 0.5,-772.5 237.5,-772.5 237.5,-772.5 0.5,-772.5"/>
<polygon fill="#666666" stroke="#666666" points="0.5,-652.5 0.5,-652.5 15.5,-652.5 15.5,-652.5 0.5,-652.5"/>
<polygon fill="#666666" stroke="#666666" points="15.5,-652.5 15.5,-652.5 237.5,-652.5 237.5,-652.5 15.5,-652.5"/>
<polygon fill="none" stroke="#666666" points="0,-591 0,-790 237,-790 237,-591 0,-591"/>
</a>
</g>
</g>
<!-- Node2&#45;&gt;Node11 -->
<g id="edge20_Node000011_Node000002" class="edge">
<title>Node2&#45;&gt;Node11</title>
<g id="a_edge20_Node000011_Node000002"><a xlink:title=" ">
<path fill="none" stroke="#63b8ff" d="M702.55,-1316.77C541.34,-1308.66 195.26,-1287.09 156.5,-1250 34.15,-1132.91 60.75,-916.47 90.22,-790.17"/>
<polygon fill="none" stroke="#63b8ff" points="702.73,-1320.28 712.89,-1317.29 703.08,-1313.29 702.73,-1320.28"/>
</a>
</g>
</g>
<!-- Node3 -->
<g id="Node000003" class="node">
<title>Node3</title>
<g id="a_Node000003"><a xlink:title=" ">
<polygon fill="white" stroke="transparent" points="828,-1432 741,-1432 741,-1383 828,-1383 828,-1432"/>
<text text-anchor="start" x="746.5" y="-1419.5" font-family="Helvetica,sans-Serif" font-size="10.00">MonoBehaviour</text>
<text text-anchor="start" x="783" y="-1404.5" font-family="Helvetica,sans-Serif" font-size="10.00"> </text>
<text text-anchor="start" x="783" y="-1389.5" font-family="Helvetica,sans-Serif" font-size="10.00"> </text>
<polygon fill="#666666" stroke="#666666" points="741.5,-1414.5 741.5,-1414.5 828.5,-1414.5 828.5,-1414.5 741.5,-1414.5"/>
<polygon fill="#666666" stroke="#666666" points="741.5,-1399.5 741.5,-1399.5 828.5,-1399.5 828.5,-1399.5 741.5,-1399.5"/>
<polygon fill="none" stroke="#666666" points="741,-1383 741,-1432 828,-1432 828,-1383 741,-1383"/>
</a>
</g>
</g>
<!-- Node3&#45;&gt;Node2 -->
<g id="edge2_Node000002_Node000003" class="edge">
<title>Node3&#45;&gt;Node2</title>
<g id="a_edge2_Node000002_Node000003"><a xlink:title=" ">
<path fill="none" stroke="#63b8ff" d="M784.5,-1372.57C784.5,-1363.69 784.5,-1354.32 784.5,-1346.12"/>
<polygon fill="none" stroke="#63b8ff" points="781,-1372.65 784.5,-1382.65 788,-1372.65 781,-1372.65"/>
</a>
</g>
</g>
<!-- Node4&#45;&gt;Node1 -->
<g id="edge3_Node000001_Node000004" class="edge">
<title>Node4&#45;&gt;Node1</title>
<g id="a_edge3_Node000001_Node000004"><a xlink:title=" ">
<path fill="none" stroke="#63b8ff" d="M406.06,-904.83C443.99,-841.33 483.76,-774.76 508.58,-733.22"/>
<polygon fill="none" stroke="#63b8ff" points="508.71,-733 508.35,-725.8 514.86,-722.7 515.22,-729.9 508.71,-733"/>
</a>
</g>
<text text-anchor="middle" x="501" y="-845" font-family="Helvetica,sans-Serif" font-size="10.00" fill="grey"> &#45;gameController</text>
</g>
<!-- Node4&#45;&gt;Node6 -->
<g id="edge18_Node000006_Node000004" class="edge">
<title>Node4&#45;&gt;Node6</title>
<g id="a_edge18_Node000006_Node000004"><a xlink:title=" ">
<path fill="none" stroke="#63b8ff" d="M330.48,-904.93C336.43,-867.08 342.68,-827.18 348.5,-790 362.33,-701.56 326.15,-662.88 379.5,-591 494.33,-436.27 704.33,-353.36 856.89,-311.42"/>
<polygon fill="none" stroke="#63b8ff" points="857.11,-311.36 861.86,-305.93 868.69,-308.22 863.95,-313.65 857.11,-311.36"/>
</a>
</g>
<text text-anchor="middle" x="421" y="-688" font-family="Helvetica,sans-Serif" font-size="10.00" fill="grey"> &#45;gameController</text>
</g>
<!-- Node4&#45;&gt;Node11 -->
<g id="edge21_Node000011_Node000004" class="edge">
<title>Node4&#45;&gt;Node11</title>
<g id="a_edge21_Node000011_Node000004"><a xlink:title=" ">
<path fill="none" stroke="#63b8ff" d="M165.79,-965.03C145.29,-941.58 127.15,-915.28 115.5,-887 104.67,-860.7 101.25,-830.68 101.55,-802.19"/>
<polygon fill="none" stroke="#63b8ff" points="101.55,-802.08 97.72,-795.97 101.89,-790.08 105.72,-796.19 101.55,-802.08"/>
</a>
</g>
<text text-anchor="middle" x="157" y="-845" font-family="Helvetica,sans-Serif" font-size="10.00" fill="grey"> &#45;gameController</text>
</g>
<!-- Node5 -->
<g id="Node000005" class="node">
<title>Node5</title>
<g id="a_Node000005"><a xlink:title=" ">
<polygon fill="white" stroke="transparent" points="55.5,-1346 17.5,-1346 17.5,-1297 55.5,-1297 55.5,-1346"/>
<text text-anchor="start" x="22.5" y="-1333.5" font-family="Helvetica,sans-Serif" font-size="10.00">World</text>
<text text-anchor="start" x="34.5" y="-1318.5" font-family="Helvetica,sans-Serif" font-size="10.00"> </text>
<text text-anchor="start" x="34.5" y="-1303.5" font-family="Helvetica,sans-Serif" font-size="10.00"> </text>
<polygon fill="#666666" stroke="#666666" points="17.5,-1328.5 17.5,-1328.5 55.5,-1328.5 55.5,-1328.5 17.5,-1328.5"/>
<polygon fill="#666666" stroke="#666666" points="17.5,-1313.5 17.5,-1313.5 55.5,-1313.5 55.5,-1313.5 17.5,-1313.5"/>
<polygon fill="none" stroke="#666666" points="17.5,-1297 17.5,-1346 55.5,-1346 55.5,-1297 17.5,-1297"/>
</a>
</g>
</g>
<!-- Node5&#45;&gt;Node4 -->
<g id="edge5_Node000004_Node000005" class="edge">
<title>Node5&#45;&gt;Node4</title>
<g id="a_edge5_Node000004_Node000005"><a xlink:title=" ">
<path fill="none" stroke="#63b8ff" d="M55.7,-1303.1C77.93,-1282.95 116.67,-1247.84 157.01,-1211.27"/>
<polygon fill="none" stroke="#63b8ff" points="157.02,-1211.27 158.78,-1204.27 165.91,-1203.21 164.15,-1210.2 157.02,-1211.27"/>
</a>
</g>
<text text-anchor="middle" x="111.5" y="-1271" font-family="Helvetica,sans-Serif" font-size="10.00" fill="grey"> &#45;world</text>
</g>
<!-- Node6&#45;&gt;Node4 -->
<g id="edge6_Node000004_Node000006" class="edge">
<title>Node6&#45;&gt;Node4</title>
<g id="a_edge6_Node000004_Node000006"><a xlink:title=" ">
<path fill="none" stroke="#63b8ff" d="M868.98,-290.54C690.19,-319.24 420.02,-394.49 302.5,-591 286.98,-616.95 289.17,-766.35 294.1,-892.65"/>
<polygon fill="none" stroke="#63b8ff" points="294.1,-892.81 298.34,-898.64 294.58,-904.8 290.35,-898.96 294.1,-892.81"/>
</a>
</g>
<text text-anchor="middle" x="325.5" y="-688" font-family="Helvetica,sans-Serif" font-size="10.00" fill="grey"> &#45;gameUI</text>
</g>
<!-- Node7&#45;&gt;Node6 -->
<g id="edge8_Node000006_Node000007" class="edge">
<title>Node7&#45;&gt;Node6</title>
<g id="a_edge8_Node000006_Node000007"><a xlink:title=" ">
<path fill="none" stroke="#63b8ff" d="M1040.5,-590.8C1040.5,-579.79 1040.5,-568.21 1040.5,-556.26"/>
<polygon fill="none" stroke="#63b8ff" points="1040.5,-556.18 1036.5,-550.18 1040.5,-544.18 1044.5,-550.18 1040.5,-556.18"/>
</a>
</g>
<text text-anchor="middle" x="1075.5" y="-565" font-family="Helvetica,sans-Serif" font-size="10.00" fill="grey"> &#45;ShopWindow</text>
</g>
<!-- Node8&#45;&gt;Node6 -->
<g id="edge17_Node000006_Node000008" class="edge">
<title>Node8&#45;&gt;Node6</title>
<g id="a_edge17_Node000006_Node000008"><a xlink:title=" ">
<path fill="none" stroke="#63b8ff" d="M1010.01,-1009.94C1032.69,-977.93 1060.61,-939.17 1086.5,-905 1126.03,-852.83 1156.83,-851.76 1178.5,-790 1204.79,-715.06 1198.13,-632.52 1177.6,-555.81"/>
<polygon fill="none" stroke="#63b8ff" points="1177.54,-555.61 1172.08,-550.9 1174.33,-544.04 1179.79,-548.75 1177.54,-555.61"/>
</a>
</g>
<text text-anchor="middle" x="1233.5" y="-688" font-family="Helvetica,sans-Serif" font-size="10.00" fill="grey"> &#45;ModalWindow</text>
</g>
<!-- Node8&#45;&gt;Node7 -->
<g id="edge10_Node000007_Node000008" class="edge">
<title>Node8&#45;&gt;Node7</title>
<g id="a_edge10_Node000007_Node000008"><a xlink:title=" ">
<path fill="none" stroke="#63b8ff" d="M976.82,-1009.88C988.25,-952.73 1004.96,-869.21 1018.39,-802.06"/>
<polygon fill="none" stroke="#63b8ff" points="1018.42,-801.91 1015.67,-795.24 1020.77,-790.15 1023.52,-796.81 1018.42,-801.91"/>
</a>
</g>
<text text-anchor="middle" x="1053.5" y="-845" font-family="Helvetica,sans-Serif" font-size="10.00" fill="grey"> &#45;ModalWindow</text>
</g>
<!-- Node8&#45;&gt;Node9 -->
<g id="edge14_Node000009_Node000008" class="edge">
<title>Node8&#45;&gt;Node9</title>
<g id="a_edge14_Node000009_Node000008"><a xlink:title=" ">
<path fill="none" stroke="#63b8ff" d="M927.16,-1009.88C890.93,-943.45 835.27,-841.41 796.77,-770.83"/>
<polygon fill="none" stroke="#63b8ff" points="796.73,-770.76 790.35,-767.41 790.98,-760.22 797.37,-763.57 796.73,-770.76"/>
</a>
</g>
<text text-anchor="middle" x="896.5" y="-845" font-family="Helvetica,sans-Serif" font-size="10.00" fill="grey"> &#45;ModalWindow</text>
</g>
<!-- Node9&#45;&gt;Node6 -->
<g id="edge12_Node000006_Node000009" class="edge">
<title>Node9&#45;&gt;Node6</title>
<g id="a_edge12_Node000006_Node000009"><a xlink:title=" ">
<path fill="none" stroke="#63b8ff" d="M800.89,-620.72C818.42,-595.28 839.5,-564.7 861.77,-532.37"/>
<polygon fill="none" stroke="#63b8ff" points="861.92,-532.16 862.03,-524.95 868.73,-522.28 868.61,-529.49 861.92,-532.16"/>
</a>
</g>
<text text-anchor="middle" x="890" y="-565" font-family="Helvetica,sans-Serif" font-size="10.00" fill="grey"> &#45;leaderboardWindow</text>
</g>
<!-- Node10&#45;&gt;Node6 -->
<g id="edge15_Node000006_Node000010" class="edge">
<title>Node10&#45;&gt;Node6</title>
<g id="a_edge15_Node000006_Node000010"><a xlink:title=" ">
<path fill="none" stroke="#63b8ff" d="M1318.86,-807.68C1319.3,-756.17 1315.28,-663.34 1285.5,-591 1268.63,-550.03 1245.04,-509.8 1219.09,-472.47"/>
<polygon fill="none" stroke="#63b8ff" points="1219,-472.34 1212.27,-469.74 1212.08,-462.53 1218.81,-465.13 1219,-472.34"/>
</a>
</g>
<text text-anchor="middle" x="1350.5" y="-688" font-family="Helvetica,sans-Serif" font-size="10.00" fill="grey"> &#45;starHandler</text>
</g>
<!-- Node11&#45;&gt;Node4 -->
<g id="edge19_Node000004_Node000011" class="edge">
<title>Node11&#45;&gt;Node4</title>
<g id="a_edge19_Node000004_Node000011"><a xlink:title=" ">
<path fill="none" stroke="#63b8ff" d="M193,-790.2C196.4,-796.1 199.6,-802.06 202.5,-808 218.54,-840.86 213.41,-852.49 225.5,-887 226.24,-889.11 226.99,-891.23 227.75,-893.37"/>
<polygon fill="none" stroke="#63b8ff" points="227.82,-893.55 233.62,-897.83 231.9,-904.84 226.1,-900.56 227.82,-893.55"/>
</a>
</g>
<text text-anchor="middle" x="257.5" y="-845" font-family="Helvetica,sans-Serif" font-size="10.00" fill="grey"> &#45;carSpawner</text>
</g>
</g>
</svg>
