<?xml version="1.0" encoding="UTF-8" standalone="no"?>
<!DOCTYPE svg PUBLIC "-//W3C//DTD SVG 1.1//EN"
 "http://www.w3.org/Graphics/SVG/1.1/DTD/svg11.dtd">
<!-- Generated by graphviz version 2.43.0 (0)
 -->
<!-- Title: Game.UI.LeaderboardWindow.Show Pages: 1 -->
<svg width="938pt" height="154pt"
 viewBox="0.00 0.00 938.00 154.00" xmlns="http://www.w3.org/2000/svg" xmlns:xlink="http://www.w3.org/1999/xlink">
<g id="graph0" class="graph" transform="scale(1 1) rotate(0) translate(4 150)">
<title>Game.UI.LeaderboardWindow.Show</title>
<polygon fill="white" stroke="transparent" points="-4,4 -4,-150 934,-150 934,4 -4,4"/>
<!-- Node1 -->
<g id="node1" class="node">
<title>Node1</title>
<g id="a_node1"><a xlink:title="Show the window">
<polygon fill="#bfbfbf" stroke="black" points="0,-60.5 0,-79.5 191,-79.5 191,-60.5 0,-60.5"/>
<text text-anchor="middle" x="95.5" y="-67.5" font-family="Helvetica,sans-Serif" font-size="10.00">Game.UI.LeaderboardWindow.Show</text>
</a>
</g>
</g>
<!-- Node2 -->
<g id="node2" class="node">
<title>Node2</title>
<g id="a_node2"><a xlink:href="classGame_1_1UI_1_1LeaderboardWindow.html#a6d7212efa2c2627d119bac3318ea0d00" target="_top" xlink:title="Load the scores">
<polygon fill="white" stroke="black" points="227,-60.5 227,-79.5 447,-79.5 447,-60.5 227,-60.5"/>
<text text-anchor="middle" x="337" y="-67.5" font-family="Helvetica,sans-Serif" font-size="10.00">Game.UI.LeaderboardWindow.LoadScores</text>
</a>
</g>
</g>
<!-- Node1&#45;&gt;Node2 -->
<g id="edge1" class="edge">
<title>Node1&#45;&gt;Node2</title>
<path fill="none" stroke="midnightblue" d="M191.16,-70C199.61,-70 208.25,-70 216.88,-70"/>
<polygon fill="midnightblue" stroke="midnightblue" points="216.99,-73.5 226.99,-70 216.99,-66.5 216.99,-73.5"/>
</g>
<!-- Node3 -->
<g id="node3" class="node">
<title>Node3</title>
<g id="a_node3"><a xlink:href="classGame_1_1UI_1_1LeaderboardWindow.html#aa83c9458d4a3cf1ea754268c3c584416" target="_top" xlink:title="Callback after the scores were loaded">
<polygon fill="white" stroke="black" points="490.5,-126.5 490.5,-145.5 722.5,-145.5 722.5,-126.5 490.5,-126.5"/>
<text text-anchor="middle" x="606.5" y="-133.5" font-family="Helvetica,sans-Serif" font-size="10.00">Game.UI.LeaderboardWindow.LoadedScores</text>
</a>
</g>
</g>
<!-- Node2&#45;&gt;Node3 -->
<g id="edge2" class="edge">
<title>Node2&#45;&gt;Node3</title>
<path fill="none" stroke="midnightblue" d="M363.32,-79.57C391.98,-90.09 440.27,-106.83 483,-117 495.43,-119.96 508.68,-122.57 521.71,-124.83"/>
<polygon fill="midnightblue" stroke="midnightblue" points="521.17,-128.29 531.61,-126.49 522.32,-121.38 521.17,-128.29"/>
</g>
<!-- Node5 -->
<g id="node5" class="node">
<title>Node5</title>
<g id="a_node5"><a xlink:href="classConfig_1_1ServerConfig.html#ae1592f2810947e426b77b35e99934e4b" target="_top" xlink:title="Path to api endpoint to get all the game scores since the given time (limit 100)">
<polygon fill="white" stroke="black" points="511,-77 511,-107 702,-107 702,-77 511,-77"/>
<text text-anchor="start" x="519" y="-95" font-family="Helvetica,sans-Serif" font-size="10.00">Config.ServerConfig.PATH_FOR_GET</text>
<text text-anchor="middle" x="606.5" y="-84" font-family="Helvetica,sans-Serif" font-size="10.00">_GAME_SCORES</text>
</a>
</g>
</g>
<!-- Node2&#45;&gt;Node5 -->
<g id="edge4" class="edge">
<title>Node2&#45;&gt;Node5</title>
<path fill="none" stroke="midnightblue" d="M447.19,-78.98C464.82,-80.43 483.04,-81.93 500.57,-83.37"/>
<polygon fill="midnightblue" stroke="midnightblue" points="500.55,-86.88 510.8,-84.21 501.12,-79.9 500.55,-86.88"/>
</g>
<!-- Node6 -->
<g id="node6" class="node">
<title>Node6</title>
<g id="a_node6"><a xlink:href="classUtility_1_1CoroutineRunner.html#a1c473dee723f16d86bab9d8475c8214a" target="_top" xlink:title="A helper method to start coroutines">
<polygon fill="white" stroke="black" points="507.5,-38.5 507.5,-57.5 705.5,-57.5 705.5,-38.5 507.5,-38.5"/>
<text text-anchor="middle" x="606.5" y="-45.5" font-family="Helvetica,sans-Serif" font-size="10.00">Utility.CoroutineRunner.RunCoroutine</text>
</a>
</g>
</g>
<!-- Node2&#45;&gt;Node6 -->
<g id="edge5" class="edge">
<title>Node2&#45;&gt;Node6</title>
<path fill="none" stroke="midnightblue" d="M447.19,-61.02C463.7,-59.66 480.72,-58.26 497.22,-56.91"/>
<polygon fill="midnightblue" stroke="midnightblue" points="497.72,-60.38 507.4,-56.07 497.15,-53.4 497.72,-60.38"/>
</g>
<!-- Node7 -->
<g id="node7" class="node">
<title>Node7</title>
<g id="a_node7"><a xlink:href="classGame_1_1UI_1_1LeaderboardWindow.html#add244b5633e10a828542b586844e9ef2" target="_top" xlink:title="Show if the request failed in the modal">
<polygon fill="white" stroke="black" points="483,-0.5 483,-19.5 730,-19.5 730,-0.5 483,-0.5"/>
<text text-anchor="middle" x="606.5" y="-7.5" font-family="Helvetica,sans-Serif" font-size="10.00">Game.UI.LeaderboardWindow.ShowRequestFail</text>
</a>
</g>
</g>
<!-- Node2&#45;&gt;Node7 -->
<g id="edge6" class="edge">
<title>Node2&#45;&gt;Node7</title>
<path fill="none" stroke="midnightblue" d="M367.72,-60.45C396.85,-51.36 442.62,-37.81 483,-29 496.28,-26.1 510.47,-23.48 524.3,-21.17"/>
<polygon fill="midnightblue" stroke="midnightblue" points="524.99,-24.6 534.3,-19.54 523.87,-17.7 524.99,-24.6"/>
</g>
<!-- Node4 -->
<g id="node4" class="node">
<title>Node4</title>
<g id="a_node4"><a xlink:href="classGame_1_1UI_1_1LeaderboardItem.html#a3d41fb9a51ff51b9e249c0831f4d788a" target="_top" xlink:title="Initializes the item">
<polygon fill="white" stroke="black" points="766,-126.5 766,-145.5 930,-145.5 930,-126.5 766,-126.5"/>
<text text-anchor="middle" x="848" y="-133.5" font-family="Helvetica,sans-Serif" font-size="10.00">Game.UI.LeaderboardItem.Init</text>
</a>
</g>
</g>
<!-- Node3&#45;&gt;Node4 -->
<g id="edge3" class="edge">
<title>Node3&#45;&gt;Node4</title>
<path fill="none" stroke="midnightblue" d="M722.69,-136C733.77,-136 744.9,-136 755.7,-136"/>
<polygon fill="midnightblue" stroke="midnightblue" points="755.95,-139.5 765.95,-136 755.95,-132.5 755.95,-139.5"/>
</g>
<!-- Node8 -->
<g id="node8" class="node">
<title>Node8</title>
<g id="a_node8"><a xlink:href="classUtility_1_1ModalWindow.html#adcef8cae2dffe4247c905d042ff0a8e3" target="_top" xlink:title="Show the modal window">
<polygon fill="white" stroke="black" points="775,-0.5 775,-19.5 921,-19.5 921,-0.5 775,-0.5"/>
<text text-anchor="middle" x="848" y="-7.5" font-family="Helvetica,sans-Serif" font-size="10.00">Utility.ModalWindow.Show</text>
</a>
</g>
</g>
<!-- Node7&#45;&gt;Node8 -->
<g id="edge7" class="edge">
<title>Node7&#45;&gt;Node8</title>
<path fill="none" stroke="midnightblue" d="M730.06,-10C741.78,-10 753.46,-10 764.66,-10"/>
<polygon fill="midnightblue" stroke="midnightblue" points="764.79,-13.5 774.79,-10 764.79,-6.5 764.79,-13.5"/>
</g>
</g>
</svg>
