<?xml version="1.0" encoding="UTF-8" standalone="no"?>
<!DOCTYPE svg PUBLIC "-//W3C//DTD SVG 1.1//EN"
 "http://www.w3.org/Graphics/SVG/1.1/DTD/svg11.dtd">
<!-- Generated by graphviz version 2.43.0 (0)
 -->
<!-- Title: MainPage.TaskOpenPanelController.MakeItBadHabit Pages: 1 -->
<svg width="3088pt" height="218pt"
 viewBox="0.00 0.00 3088.00 218.00" xmlns="http://www.w3.org/2000/svg" xmlns:xlink="http://www.w3.org/1999/xlink">
<g id="graph0" class="graph" transform="scale(1 1) rotate(0) translate(4 214)">
<title>MainPage.TaskOpenPanelController.MakeItBadHabit</title>
<polygon fill="white" stroke="transparent" points="-4,4 -4,-214 3084,-214 3084,4 -4,4"/>
<!-- Node1 -->
<g id="node1" class="node">
<title>Node1</title>
<g id="a_node1"><a xlink:title="Make this task a bad habit">
<polygon fill="#bfbfbf" stroke="black" points="2811,-104.5 2811,-123.5 3080,-123.5 3080,-104.5 2811,-104.5"/>
<text text-anchor="middle" x="2945.5" y="-111.5" font-family="Helvetica,sans-Serif" font-size="10.00">MainPage.TaskOpenPanelController.MakeItBadHabit</text>
</a>
</g>
</g>
<!-- Node2 -->
<g id="node2" class="node">
<title>Node2</title>
<g id="a_node2"><a xlink:href="classMainPage_1_1MainWindowController.html#a241b480aeebdab1bc34320cad8de7712" target="_top" xlink:title="Load the good habits">
<polygon fill="white" stroke="black" points="2521,-104.5 2521,-123.5 2775,-123.5 2775,-104.5 2521,-104.5"/>
<text text-anchor="middle" x="2648" y="-111.5" font-family="Helvetica,sans-Serif" font-size="10.00">MainPage.MainWindowController.LoadBadHabits</text>
</a>
</g>
</g>
<!-- Node1&#45;&gt;Node2 -->
<g id="edge1" class="edge">
<title>Node1&#45;&gt;Node2</title>
<path fill="none" stroke="midnightblue" d="M2800.36,-107.25C2791.97,-107.24 2783.57,-107.26 2775.26,-107.31"/>
<polygon fill="midnightblue" stroke="midnightblue" points="2800.58,-110.75 2810.58,-107.28 2800.59,-103.75 2800.58,-110.75"/>
</g>
<!-- Node2&#45;&gt;Node1 -->
<g id="edge5" class="edge">
<title>Node2&#45;&gt;Node1</title>
<path fill="none" stroke="midnightblue" d="M2785.43,-120.73C2793.8,-120.76 2802.22,-120.76 2810.58,-120.72"/>
<polygon fill="midnightblue" stroke="midnightblue" points="2785.27,-117.23 2775.26,-120.69 2785.24,-124.23 2785.27,-117.23"/>
</g>
<!-- Node3 -->
<g id="node3" class="node">
<title>Node3</title>
<g id="a_node3"><a xlink:href="classMainPage_1_1TaskOpenPanelController.html#af1b5c03c4cfe46084a34093435f79fee" target="_top" xlink:title="Cancel this edit/task creation">
<polygon fill="white" stroke="black" points="2244.5,-142.5 2244.5,-161.5 2468.5,-161.5 2468.5,-142.5 2244.5,-142.5"/>
<text text-anchor="middle" x="2356.5" y="-149.5" font-family="Helvetica,sans-Serif" font-size="10.00">MainPage.TaskOpenPanelController.Cancel</text>
</a>
</g>
</g>
<!-- Node2&#45;&gt;Node3 -->
<g id="edge2" class="edge">
<title>Node2&#45;&gt;Node3</title>
<path fill="none" stroke="midnightblue" d="M2564.31,-124.85C2521.92,-130.42 2470.78,-137.13 2429.96,-142.49"/>
<polygon fill="midnightblue" stroke="midnightblue" points="2564.86,-128.31 2574.32,-123.54 2563.95,-121.37 2564.86,-128.31"/>
</g>
<!-- Node6 -->
<g id="node6" class="node">
<title>Node6</title>
<g id="a_node6"><a xlink:href="classMainPage_1_1MainWindowController.html#a85072f5d92f4145d6213209a13936639" target="_top" xlink:title="Refreshes the tasks with the proper sorting order">
<polygon fill="white" stroke="black" points="2228,-85.5 2228,-104.5 2485,-104.5 2485,-85.5 2228,-85.5"/>
<text text-anchor="middle" x="2356.5" y="-92.5" font-family="Helvetica,sans-Serif" font-size="10.00">MainPage.MainWindowController.SortingChanged</text>
</a>
</g>
</g>
<!-- Node2&#45;&gt;Node6 -->
<g id="edge6" class="edge">
<title>Node2&#45;&gt;Node6</title>
<path fill="none" stroke="midnightblue" d="M2510.8,-105.06C2502.21,-104.5 2493.58,-103.93 2485.03,-103.37"/>
<polygon fill="midnightblue" stroke="midnightblue" points="2510.66,-108.56 2520.86,-105.72 2511.11,-101.57 2510.66,-108.56"/>
</g>
<!-- Node4 -->
<g id="node4" class="node">
<title>Node4</title>
<g id="a_node4"><a xlink:href="classMainPage_1_1TaskOpenPanelController.html#a254ff7d6e427208a7f9ae3bec5ae7ba7" target="_top" xlink:title="After the task were deleted from the server delete it also from the client">
<polygon fill="white" stroke="black" points="1929,-180.5 1929,-199.5 2180,-199.5 2180,-180.5 1929,-180.5"/>
<text text-anchor="middle" x="2054.5" y="-187.5" font-family="Helvetica,sans-Serif" font-size="10.00">MainPage.TaskOpenPanelController.DeletedTask</text>
</a>
</g>
</g>
<!-- Node3&#45;&gt;Node4 -->
<g id="edge3" class="edge">
<title>Node3&#45;&gt;Node4</title>
<path fill="none" stroke="midnightblue" d="M2270.08,-162.82C2226.11,-168.39 2172.98,-175.12 2130.59,-180.49"/>
<polygon fill="midnightblue" stroke="midnightblue" points="2270.7,-166.27 2280.18,-161.54 2269.82,-159.32 2270.7,-166.27"/>
</g>
<!-- Node5 -->
<g id="node5" class="node">
<title>Node5</title>
<g id="a_node5"><a xlink:href="classMainPage_1_1TaskOpenPanelController.html#a3107b94793886f6af28ac9415fb44370" target="_top" xlink:title="Send a delete task request to the server">
<polygon fill="white" stroke="black" points="1619.5,-190.5 1619.5,-209.5 1864.5,-209.5 1864.5,-190.5 1619.5,-190.5"/>
<text text-anchor="middle" x="1742" y="-197.5" font-family="Helvetica,sans-Serif" font-size="10.00">MainPage.TaskOpenPanelController.DeleteTask</text>
</a>
</g>
</g>
<!-- Node4&#45;&gt;Node5 -->
<g id="edge4" class="edge">
<title>Node4&#45;&gt;Node5</title>
<path fill="none" stroke="midnightblue" d="M1918.77,-194.34C1900.81,-194.92 1882.47,-195.51 1864.75,-196.08"/>
<polygon fill="midnightblue" stroke="midnightblue" points="1919.11,-197.83 1929,-194.01 1918.89,-190.83 1919.11,-197.83"/>
</g>
<!-- Node7 -->
<g id="node7" class="node">
<title>Node7</title>
<g id="a_node7"><a xlink:href="classMainPage_1_1TaskDisplayHandler.html#a754a230e53cedd3209a29d4d6a743719" target="_top" xlink:title="When the complete state is changed update the display to match it">
<polygon fill="white" stroke="black" points="1917,-85.5 1917,-104.5 2192,-104.5 2192,-85.5 1917,-85.5"/>
<text text-anchor="middle" x="2054.5" y="-92.5" font-family="Helvetica,sans-Serif" font-size="10.00">MainPage.TaskDisplayHandler.CompleteStateChange</text>
</a>
</g>
</g>
<!-- Node6&#45;&gt;Node7 -->
<g id="edge7" class="edge">
<title>Node6&#45;&gt;Node7</title>
<path fill="none" stroke="midnightblue" d="M2217.56,-95C2209.11,-95 2200.61,-95 2192.17,-95"/>
<polygon fill="midnightblue" stroke="midnightblue" points="2217.84,-98.5 2227.84,-95 2217.84,-91.5 2217.84,-98.5"/>
</g>
<!-- Node13 -->
<g id="node13" class="node">
<title>Node13</title>
<g id="a_node13"><a xlink:href="classMainPage_1_1TaskOpenPanelController.html#a750d1acc6fd173296467fb9aca366a3d" target="_top" xlink:title="When the task was stored on the server show it also visually and close the panel">
<polygon fill="white" stroke="black" points="519.5,-0.5 519.5,-19.5 761.5,-19.5 761.5,-0.5 519.5,-0.5"/>
<text text-anchor="middle" x="640.5" y="-7.5" font-family="Helvetica,sans-Serif" font-size="10.00">MainPage.TaskOpenPanelController.SavedTask</text>
</a>
</g>
</g>
<!-- Node6&#45;&gt;Node13 -->
<g id="edge22" class="edge">
<title>Node6&#45;&gt;Node13</title>
<path fill="none" stroke="midnightblue" d="M2305.35,-83.26C2201.21,-59.94 1953.65,-10 1743,-10 1743,-10 1743,-10 1188,-10 1041.29,-10 872.44,-10 761.71,-10"/>
<polygon fill="midnightblue" stroke="midnightblue" points="2304.75,-86.71 2315.27,-85.5 2306.29,-79.88 2304.75,-86.71"/>
</g>
<!-- Node8 -->
<g id="node8" class="node">
<title>Node8</title>
<g id="a_node8"><a xlink:href="classMainPage_1_1TaskDisplayHandler.html#a8aedc4afb32d220352cf04cc77fdedf6" target="_top" xlink:title="Init it with the task to display and references to the controls">
<polygon fill="white" stroke="black" points="1082,-38.5 1082,-57.5 1296,-57.5 1296,-38.5 1082,-38.5"/>
<text text-anchor="middle" x="1189" y="-45.5" font-family="Helvetica,sans-Serif" font-size="10.00">MainPage.TaskDisplayHandler.InitValues</text>
</a>
</g>
</g>
<!-- Node7&#45;&gt;Node8 -->
<g id="edge8" class="edge">
<title>Node7&#45;&gt;Node8</title>
<path fill="none" stroke="midnightblue" d="M2018.06,-107.92C1983.59,-119.74 1929.5,-136.38 1881,-143 1760.12,-159.5 1448.74,-178.45 1332,-143 1275.8,-125.94 1221.59,-78.44 1199.91,-57.79"/>
<polygon fill="midnightblue" stroke="midnightblue" points="2019.37,-111.17 2027.66,-104.57 2017.07,-104.56 2019.37,-111.17"/>
</g>
<!-- Node15 -->
<g id="node15" class="node">
<title>Node15</title>
<g id="a_node15"><a xlink:href="classMainPage_1_1TaskDisplayHandler.html#a98b63052d0efc73233a32b69a06bf68e" target="_top" xlink:title="When the complete acknowledge were recieved from the server update the display">
<polygon fill="white" stroke="black" points="1621.5,-114.5 1621.5,-133.5 1862.5,-133.5 1862.5,-114.5 1621.5,-114.5"/>
<text text-anchor="middle" x="1742" y="-121.5" font-family="Helvetica,sans-Serif" font-size="10.00">MainPage.TaskDisplayHandler.TaskCompleted</text>
</a>
</g>
</g>
<!-- Node7&#45;&gt;Node15 -->
<g id="edge15" class="edge">
<title>Node7&#45;&gt;Node15</title>
<path fill="none" stroke="midnightblue" d="M1941.28,-105.48C1909.79,-108.42 1875.74,-111.6 1844.9,-114.48"/>
<polygon fill="midnightblue" stroke="midnightblue" points="1941.77,-108.95 1951.4,-104.54 1941.12,-101.98 1941.77,-108.95"/>
</g>
<!-- Node17 -->
<g id="node17" class="node">
<title>Node17</title>
<g id="a_node17"><a xlink:href="classMainPage_1_1TaskDisplayHandler.html#aa63f1bc894519b9d5872c2bb50b84415" target="_top" xlink:title="Update the time remaining until the task can be completed again">
<polygon fill="white" stroke="black" points="1603,-76.5 1603,-95.5 1881,-95.5 1881,-76.5 1603,-76.5"/>
<text text-anchor="middle" x="1742" y="-83.5" font-family="Helvetica,sans-Serif" font-size="10.00">MainPage.TaskDisplayHandler.UpdateTimeRemaining</text>
</a>
</g>
</g>
<!-- Node7&#45;&gt;Node17 -->
<g id="edge17" class="edge">
<title>Node7&#45;&gt;Node17</title>
<path fill="none" stroke="midnightblue" d="M1937.41,-85.08C1919.07,-84.36 1899.96,-83.76 1881.18,-83.29"/>
<polygon fill="midnightblue" stroke="midnightblue" points="1937.38,-88.58 1947.51,-85.49 1937.66,-81.59 1937.38,-88.58"/>
</g>
<!-- Node9 -->
<g id="node9" class="node">
<title>Node9</title>
<g id="a_node9"><a xlink:href="classMainPage_1_1MainWindowController.html#a827f62c47eb691eadd994bd51bf7cb74" target="_top" xlink:title="Creates a new task prefab to display">
<polygon fill="white" stroke="black" points="812,-38.5 812,-57.5 1046,-57.5 1046,-38.5 812,-38.5"/>
<text text-anchor="middle" x="929" y="-45.5" font-family="Helvetica,sans-Serif" font-size="10.00">MainPage.MainWindowController.CreateTask</text>
</a>
</g>
</g>
<!-- Node8&#45;&gt;Node9 -->
<g id="edge9" class="edge">
<title>Node8&#45;&gt;Node9</title>
<path fill="none" stroke="midnightblue" d="M1071.92,-48C1063.35,-48 1054.7,-48 1046.12,-48"/>
<polygon fill="midnightblue" stroke="midnightblue" points="1071.94,-51.5 1081.94,-48 1071.94,-44.5 1071.94,-51.5"/>
</g>
<!-- Node10 -->
<g id="node10" class="node">
<title>Node10</title>
<g id="a_node10"><a xlink:href="classMainPage_1_1MainWindowController.html#ab40b51689d2d8ca0497b0e53128f4992" target="_top" xlink:title="Create the task prefabs">
<polygon fill="white" stroke="black" points="505,-38.5 505,-57.5 776,-57.5 776,-38.5 505,-38.5"/>
<text text-anchor="middle" x="640.5" y="-45.5" font-family="Helvetica,sans-Serif" font-size="10.00">MainPage.MainWindowController.CreateTaskPrefabs</text>
</a>
</g>
</g>
<!-- Node9&#45;&gt;Node10 -->
<g id="edge10" class="edge">
<title>Node9&#45;&gt;Node10</title>
<path fill="none" stroke="midnightblue" d="M801.6,-48C793.14,-48 784.59,-48 776.09,-48"/>
<polygon fill="midnightblue" stroke="midnightblue" points="801.88,-51.5 811.88,-48 801.88,-44.5 801.88,-51.5"/>
</g>
<!-- Node9&#45;&gt;Node13 -->
<g id="edge13" class="edge">
<title>Node9&#45;&gt;Node13</title>
<path fill="none" stroke="midnightblue" d="M845.92,-37.11C804.1,-31.57 753.73,-24.89 713.46,-19.54"/>
<polygon fill="midnightblue" stroke="midnightblue" points="845.7,-40.61 856.07,-38.46 846.62,-33.68 845.7,-40.61"/>
</g>
<!-- Node11 -->
<g id="node11" class="node">
<title>Node11</title>
<g id="a_node11"><a xlink:href="classMainPage_1_1MainWindowController.html#a47c21c97b7ba52af405119044e1434d0" target="_top" xlink:title="Load the tasks from the server">
<polygon fill="white" stroke="black" points="239,-38.5 239,-57.5 469,-57.5 469,-38.5 239,-38.5"/>
<text text-anchor="middle" x="354" y="-45.5" font-family="Helvetica,sans-Serif" font-size="10.00">MainPage.MainWindowController.LoadTasks</text>
</a>
</g>
</g>
<!-- Node10&#45;&gt;Node11 -->
<g id="edge11" class="edge">
<title>Node10&#45;&gt;Node11</title>
<path fill="none" stroke="midnightblue" d="M494.68,-48C486.1,-48 477.54,-48 469.11,-48"/>
<polygon fill="midnightblue" stroke="midnightblue" points="494.75,-51.5 504.75,-48 494.75,-44.5 494.75,-51.5"/>
</g>
<!-- Node12 -->
<g id="node12" class="node">
<title>Node12</title>
<g id="a_node12"><a xlink:href="classMainPage_1_1MainWindowController.html#acea2170099ea435298139c6c7fdce719" target="_top" xlink:title="Start is called before the first frame update">
<polygon fill="white" stroke="black" points="0,-38.5 0,-57.5 203,-57.5 203,-38.5 0,-38.5"/>
<text text-anchor="middle" x="101.5" y="-45.5" font-family="Helvetica,sans-Serif" font-size="10.00">MainPage.MainWindowController.Start</text>
</a>
</g>
</g>
<!-- Node11&#45;&gt;Node12 -->
<g id="edge12" class="edge">
<title>Node11&#45;&gt;Node12</title>
<path fill="none" stroke="midnightblue" d="M228.71,-48C220.15,-48 211.58,-48 203.16,-48"/>
<polygon fill="midnightblue" stroke="midnightblue" points="228.75,-51.5 238.75,-48 228.75,-44.5 228.75,-51.5"/>
</g>
<!-- Node14 -->
<g id="node14" class="node">
<title>Node14</title>
<g id="a_node14"><a xlink:href="classMainPage_1_1TaskOpenPanelController.html#ab8def75cd4cdbdaf3033022ea114a8a6" target="_top" xlink:title="Save the task to the server">
<polygon fill="white" stroke="black" points="246.5,-0.5 246.5,-19.5 461.5,-19.5 461.5,-0.5 246.5,-0.5"/>
<text text-anchor="middle" x="354" y="-7.5" font-family="Helvetica,sans-Serif" font-size="10.00">MainPage.TaskOpenPanelController.Save</text>
</a>
</g>
</g>
<!-- Node13&#45;&gt;Node14 -->
<g id="edge14" class="edge">
<title>Node13&#45;&gt;Node14</title>
<path fill="none" stroke="midnightblue" d="M508.91,-10C493.12,-10 477.13,-10 461.73,-10"/>
<polygon fill="midnightblue" stroke="midnightblue" points="509.26,-13.5 519.26,-10 509.26,-6.5 509.26,-13.5"/>
</g>
<!-- Node16 -->
<g id="node16" class="node">
<title>Node16</title>
<g id="a_node16"><a xlink:href="classMainPage_1_1TaskDisplayHandler.html#ab553f8eb77d9d038521af3813275a43d" target="_top" xlink:title="Complete the task and send this to the server">
<polygon fill="white" stroke="black" points="1332,-114.5 1332,-133.5 1567,-133.5 1567,-114.5 1332,-114.5"/>
<text text-anchor="middle" x="1449.5" y="-121.5" font-family="Helvetica,sans-Serif" font-size="10.00">MainPage.TaskDisplayHandler.CompleteTask</text>
</a>
</g>
</g>
<!-- Node15&#45;&gt;Node16 -->
<g id="edge16" class="edge">
<title>Node15&#45;&gt;Node16</title>
<path fill="none" stroke="midnightblue" d="M1611.09,-124C1596.49,-124 1581.68,-124 1567.25,-124"/>
<polygon fill="midnightblue" stroke="midnightblue" points="1611.17,-127.5 1621.17,-124 1611.17,-120.5 1611.17,-127.5"/>
</g>
<!-- Node17&#45;&gt;Node7 -->
<g id="edge18" class="edge">
<title>Node17&#45;&gt;Node7</title>
<path fill="none" stroke="midnightblue" d="M1858.98,-95.92C1877.85,-96.65 1897.55,-97.28 1916.86,-97.75"/>
<polygon fill="midnightblue" stroke="midnightblue" points="1859.03,-92.42 1848.9,-95.51 1858.75,-99.41 1859.03,-92.42"/>
</g>
<!-- Node18 -->
<g id="node18" class="node">
<title>Node18</title>
<g id="a_node18"><a xlink:href="classMainPage_1_1TaskDisplayHandler.html#a19067f6c6b504e4947d9473721e6877f" target="_top" xlink:title="Called every frame if it has been completed update the remaining time">
<polygon fill="white" stroke="black" points="1349,-76.5 1349,-95.5 1550,-95.5 1550,-76.5 1349,-76.5"/>
<text text-anchor="middle" x="1449.5" y="-83.5" font-family="Helvetica,sans-Serif" font-size="10.00">MainPage.TaskDisplayHandler.Update</text>
</a>
</g>
</g>
<!-- Node17&#45;&gt;Node18 -->
<g id="edge19" class="edge">
<title>Node17&#45;&gt;Node18</title>
<path fill="none" stroke="midnightblue" d="M1592.93,-86C1578.4,-86 1563.91,-86 1550.05,-86"/>
<polygon fill="midnightblue" stroke="midnightblue" points="1592.98,-89.5 1602.98,-86 1592.98,-82.5 1592.98,-89.5"/>
</g>
<!-- Node19 -->
<g id="node19" class="node">
<title>Node19</title>
<g id="a_node19"><a xlink:href="classMainPage_1_1TaskDisplayHandler.html#ac3773b76adb09298978a65c89136c20f" target="_top" xlink:title="Update the task&#39;s labels">
<polygon fill="white" stroke="black" points="1333,-38.5 1333,-57.5 1566,-57.5 1566,-38.5 1333,-38.5"/>
<text text-anchor="middle" x="1449.5" y="-45.5" font-family="Helvetica,sans-Serif" font-size="10.00">MainPage.TaskDisplayHandler.UpdateLabels</text>
</a>
</g>
</g>
<!-- Node17&#45;&gt;Node19 -->
<g id="edge20" class="edge">
<title>Node17&#45;&gt;Node19</title>
<path fill="none" stroke="midnightblue" d="M1658.02,-75.15C1615.49,-69.58 1564.17,-62.87 1523.21,-57.51"/>
<polygon fill="midnightblue" stroke="midnightblue" points="1657.7,-78.63 1668.07,-76.46 1658.61,-71.69 1657.7,-78.63"/>
</g>
<!-- Node19&#45;&gt;Node8 -->
<g id="edge21" class="edge">
<title>Node19&#45;&gt;Node8</title>
<path fill="none" stroke="midnightblue" d="M1322.8,-48C1313.87,-48 1304.92,-48 1296.11,-48"/>
<polygon fill="midnightblue" stroke="midnightblue" points="1322.86,-51.5 1332.86,-48 1322.86,-44.5 1322.86,-51.5"/>
</g>
</g>
</svg>
