<?xml version="1.0" encoding="UTF-8" standalone="no"?>
<!DOCTYPE svg PUBLIC "-//W3C//DTD SVG 1.1//EN"
 "http://www.w3.org/Graphics/SVG/1.1/DTD/svg11.dtd">
<!-- Generated by graphviz version 2.43.0 (0)
 -->
<!-- Title: Game.World.Chunk Pages: 1 -->
<svg width="690pt" height="1824pt"
 viewBox="0.00 0.00 690.02 1824.00" xmlns="http://www.w3.org/2000/svg" xmlns:xlink="http://www.w3.org/1999/xlink">
<g id="graph0" class="graph" transform="scale(1 1) rotate(0) translate(4 1820)">
<title>Game.World.Chunk</title>
<!-- Node1 -->
<g id="Node000001" class="node">
<title>Node1</title>
<g id="a_Node000001"><a xlink:title="Stores a single chunk of the world.">
<polygon fill="#999999" stroke="transparent" points="516.8,-641 188.8,-641 188.8,0 516.8,0 516.8,-641"/>
<text text-anchor="start" x="305.8" y="-628.5" font-family="Helvetica,sans-Serif" font-size="10.00">Game.World.Chunk</text>
<text text-anchor="start" x="192.8" y="-613.5" font-family="Helvetica,sans-Serif" font-size="10.00">+</text>
<text text-anchor="start" x="205.8" y="-613.5" font-family="Helvetica,sans-Serif" font-size="10.00">float XOffset</text>
<text text-anchor="start" x="192.8" y="-598.5" font-family="Helvetica,sans-Serif" font-size="10.00">+</text>
<text text-anchor="start" x="205.8" y="-598.5" font-family="Helvetica,sans-Serif" font-size="10.00">float ZOffset</text>
<text text-anchor="start" x="192.8" y="-583.5" font-family="Helvetica,sans-Serif" font-size="10.00">+</text>
<text text-anchor="start" x="205.8" y="-583.5" font-family="Helvetica,sans-Serif" font-size="10.00">bool RandomizeOffset</text>
<text text-anchor="start" x="192.8" y="-568.5" font-family="Helvetica,sans-Serif" font-size="10.00">+</text>
<text text-anchor="start" x="205.8" y="-568.5" font-family="Helvetica,sans-Serif" font-size="10.00">GameObject straightRoadPrefab</text>
<text text-anchor="start" x="192.8" y="-553.5" font-family="Helvetica,sans-Serif" font-size="10.00">+</text>
<text text-anchor="start" x="205.8" y="-553.5" font-family="Helvetica,sans-Serif" font-size="10.00">GameObject grassPrefab</text>
<text text-anchor="start" x="192.8" y="-538.5" font-family="Helvetica,sans-Serif" font-size="10.00">+</text>
<text text-anchor="start" x="205.8" y="-538.5" font-family="Helvetica,sans-Serif" font-size="10.00">GameObject coinPrefab</text>
<text text-anchor="start" x="192.8" y="-523.5" font-family="Helvetica,sans-Serif" font-size="10.00">+</text>
<text text-anchor="start" x="205.8" y="-523.5" font-family="Helvetica,sans-Serif" font-size="10.00">int? zSize</text>
<text text-anchor="start" x="192.8" y="-508.5" font-family="Helvetica,sans-Serif" font-size="10.00">+</text>
<text text-anchor="start" x="205.8" y="-508.5" font-family="Helvetica,sans-Serif" font-size="10.00">int? xSize</text>
<text text-anchor="start" x="192.8" y="-493.5" font-family="Helvetica,sans-Serif" font-size="10.00">+</text>
<text text-anchor="start" x="205.8" y="-493.5" font-family="Helvetica,sans-Serif" font-size="10.00">int Row</text>
<text text-anchor="start" x="192.8" y="-478.5" font-family="Helvetica,sans-Serif" font-size="10.00">+</text>
<text text-anchor="start" x="205.8" y="-478.5" font-family="Helvetica,sans-Serif" font-size="10.00">int Col</text>
<text text-anchor="start" x="192.8" y="-463.5" font-family="Helvetica,sans-Serif" font-size="10.00">+</text>
<text text-anchor="start" x="205.8" y="-463.5" font-family="Helvetica,sans-Serif" font-size="10.00">bool[,] Roads</text>
<text text-anchor="start" x="192.8" y="-448.5" font-family="Helvetica,sans-Serif" font-size="10.00">+</text>
<text text-anchor="start" x="205.8" y="-448.5" font-family="Helvetica,sans-Serif" font-size="10.00">List&lt; EdgeRoadContainer &gt; EdgeRoads</text>
<text text-anchor="start" x="195.3" y="-433.5" font-family="Helvetica,sans-Serif" font-size="10.00">&#45;</text>
<text text-anchor="start" x="205.8" y="-433.5" font-family="Helvetica,sans-Serif" font-size="10.00">GameObject curvedRoadPrefab</text>
<text text-anchor="start" x="195.3" y="-418.5" font-family="Helvetica,sans-Serif" font-size="10.00">&#45;</text>
<text text-anchor="start" x="205.8" y="-418.5" font-family="Helvetica,sans-Serif" font-size="10.00">GameObject threeWayRoadPrefab</text>
<text text-anchor="start" x="195.3" y="-403.5" font-family="Helvetica,sans-Serif" font-size="10.00">&#45;</text>
<text text-anchor="start" x="205.8" y="-403.5" font-family="Helvetica,sans-Serif" font-size="10.00">GameObject crossRoadsPrefab</text>
<text text-anchor="start" x="195.3" y="-388.5" font-family="Helvetica,sans-Serif" font-size="10.00">&#45;</text>
<text text-anchor="start" x="205.8" y="-388.5" font-family="Helvetica,sans-Serif" font-size="10.00">List&lt; Building &gt; buildings</text>
<text text-anchor="start" x="195.3" y="-373.5" font-family="Helvetica,sans-Serif" font-size="10.00">&#45;</text>
<text text-anchor="start" x="205.8" y="-373.5" font-family="Helvetica,sans-Serif" font-size="10.00">List&lt; Prop &gt; props</text>
<text text-anchor="start" x="195.3" y="-358.5" font-family="Helvetica,sans-Serif" font-size="10.00">&#45;</text>
<text text-anchor="start" x="205.8" y="-358.5" font-family="Helvetica,sans-Serif" font-size="10.00">Dictionary&lt; ChunkCellType, List&lt; Vector3 &gt; &gt; chunkCells</text>
<text text-anchor="start" x="195.3" y="-343.5" font-family="Helvetica,sans-Serif" font-size="10.00">&#45;</text>
<text text-anchor="start" x="205.8" y="-343.5" font-family="Helvetica,sans-Serif" font-size="10.00">List&lt; Vector3Int &gt; roads</text>
<text text-anchor="start" x="195.3" y="-328.5" font-family="Helvetica,sans-Serif" font-size="10.00">&#45;</text>
<text text-anchor="start" x="205.8" y="-328.5" font-family="Helvetica,sans-Serif" font-size="10.00">Dictionary&lt; ChunkCellType, List&lt; GameObject &gt; &gt;</text>
<text text-anchor="start" x="205.8" y="-317.5" font-family="Helvetica,sans-Serif" font-size="10.00"> objectsToCombine</text>
<text text-anchor="start" x="195.3" y="-302.5" font-family="Helvetica,sans-Serif" font-size="10.00">&#45;</text>
<text text-anchor="start" x="205.8" y="-302.5" font-family="Helvetica,sans-Serif" font-size="10.00">float</text>
<text text-anchor="start" x="192.8" y="-287.5" font-family="Helvetica,sans-Serif" font-size="10.00">+</text>
<text text-anchor="start" x="205.8" y="-287.5" font-family="Helvetica,sans-Serif" font-size="10.00">void Display()</text>
<text text-anchor="start" x="192.8" y="-272.5" font-family="Helvetica,sans-Serif" font-size="10.00">+</text>
<text text-anchor="start" x="205.8" y="-272.5" font-family="Helvetica,sans-Serif" font-size="10.00">async Task InitChunk(int col, int row, List&lt; EdgeRoadContainer</text>
<text text-anchor="start" x="205.8" y="-261.5" font-family="Helvetica,sans-Serif" font-size="10.00"> &gt; edgeRoads, GameWorld world)</text>
<text text-anchor="start" x="192.8" y="-246.5" font-family="Helvetica,sans-Serif" font-size="10.00">+</text>
<text text-anchor="start" x="205.8" y="-246.5" font-family="Helvetica,sans-Serif" font-size="10.00">void HideChunk()</text>
<text text-anchor="start" x="192.8" y="-231.5" font-family="Helvetica,sans-Serif" font-size="10.00">+</text>
<text text-anchor="start" x="205.8" y="-231.5" font-family="Helvetica,sans-Serif" font-size="10.00">Vector3 GetARandomRoad()</text>
<text text-anchor="start" x="192.8" y="-216.5" font-family="Helvetica,sans-Serif" font-size="10.00">+</text>
<text text-anchor="start" x="205.8" y="-216.5" font-family="Helvetica,sans-Serif" font-size="10.00">async Task SpawnWorldObjects()</text>
<text text-anchor="start" x="192.8" y="-201.5" font-family="Helvetica,sans-Serif" font-size="10.00">+</text>
<text text-anchor="start" x="205.8" y="-201.5" font-family="Helvetica,sans-Serif" font-size="10.00">static void InitUniTaskLoop()</text>
<text text-anchor="start" x="195.3" y="-186.5" font-family="Helvetica,sans-Serif" font-size="10.00">&#45;</text>
<text text-anchor="start" x="205.8" y="-186.5" font-family="Helvetica,sans-Serif" font-size="10.00">async void Awake()</text>
<text text-anchor="start" x="195.3" y="-171.5" font-family="Helvetica,sans-Serif" font-size="10.00">&#45;</text>
<text text-anchor="start" x="205.8" y="-171.5" font-family="Helvetica,sans-Serif" font-size="10.00">void BuildingLoaded(GameObject building)</text>
<text text-anchor="start" x="195.3" y="-156.5" font-family="Helvetica,sans-Serif" font-size="10.00">&#45;</text>
<text text-anchor="start" x="205.8" y="-156.5" font-family="Helvetica,sans-Serif" font-size="10.00">void PropLoaded(GameObject prop)</text>
<text text-anchor="start" x="195.3" y="-141.5" font-family="Helvetica,sans-Serif" font-size="10.00">&#45;</text>
<text text-anchor="start" x="205.8" y="-141.5" font-family="Helvetica,sans-Serif" font-size="10.00">float GetAbsolutePosition()</text>
<text text-anchor="start" x="195.3" y="-126.5" font-family="Helvetica,sans-Serif" font-size="10.00">&#45;</text>
<text text-anchor="start" x="205.8" y="-126.5" font-family="Helvetica,sans-Serif" font-size="10.00">void LoadFromSettings()</text>
<text text-anchor="start" x="195.3" y="-111.5" font-family="Helvetica,sans-Serif" font-size="10.00">&#45;</text>
<text text-anchor="start" x="205.8" y="-111.5" font-family="Helvetica,sans-Serif" font-size="10.00">void CreateTiles()</text>
<text text-anchor="start" x="195.3" y="-96.5" font-family="Helvetica,sans-Serif" font-size="10.00">&#45;</text>
<text text-anchor="start" x="205.8" y="-96.5" font-family="Helvetica,sans-Serif" font-size="10.00">ChunkCellContainer DetermineRoadType(int col, int row)</text>
<text text-anchor="start" x="195.3" y="-81.5" font-family="Helvetica,sans-Serif" font-size="10.00">&#45;</text>
<text text-anchor="start" x="205.8" y="-81.5" font-family="Helvetica,sans-Serif" font-size="10.00">ChunkCellContainer DetermineTileType(int x, int z)</text>
<text text-anchor="start" x="195.3" y="-66.5" font-family="Helvetica,sans-Serif" font-size="10.00">&#45;</text>
<text text-anchor="start" x="205.8" y="-66.5" font-family="Helvetica,sans-Serif" font-size="10.00">void GenerateCellMatrix()</text>
<text text-anchor="start" x="195.3" y="-51.5" font-family="Helvetica,sans-Serif" font-size="10.00">&#45;</text>
<text text-anchor="start" x="205.8" y="-51.5" font-family="Helvetica,sans-Serif" font-size="10.00">IEnumerator AddRoadBuildings()</text>
<text text-anchor="start" x="195.3" y="-36.5" font-family="Helvetica,sans-Serif" font-size="10.00">&#45;</text>
<text text-anchor="start" x="205.8" y="-36.5" font-family="Helvetica,sans-Serif" font-size="10.00">IEnumerator AddEnvironmentProps()</text>
<text text-anchor="start" x="195.3" y="-21.5" font-family="Helvetica,sans-Serif" font-size="10.00">&#45;</text>
<text text-anchor="start" x="205.8" y="-21.5" font-family="Helvetica,sans-Serif" font-size="10.00">void LockAndTryToPlaceBuilding(int index, int row, int col)</text>
<text text-anchor="start" x="195.3" y="-6.5" font-family="Helvetica,sans-Serif" font-size="10.00">&#45;</text>
<text text-anchor="start" x="205.8" y="-6.5" font-family="Helvetica,sans-Serif" font-size="10.00">async Task&lt; Chunk[,]&gt; GetNearbyChunks(int row, int col)</text>
<polygon fill="#666666" stroke="#666666" points="188.8,-623.5 188.8,-623.5 516.8,-623.5 516.8,-623.5 188.8,-623.5"/>
<polygon fill="#666666" stroke="#666666" points="188.8,-297.5 188.8,-297.5 203.8,-297.5 203.8,-297.5 188.8,-297.5"/>
<polygon fill="#666666" stroke="#666666" points="203.8,-297.5 203.8,-297.5 516.8,-297.5 516.8,-297.5 203.8,-297.5"/>
<polygon fill="none" stroke="#666666" points="188.8,0 188.8,-641 516.8,-641 516.8,0 188.8,0"/>
</a>
</g>
</g>
<!-- Node2 -->
<g id="Node000002" class="node">
<title>Node2</title>
<g id="a_Node000002"><a xlink:href="classUtility_1_1ThreadSafeMonoBehaviour.html" target="_top" xlink:title="Safely stores if the gameobject been destroyed in a bool.">
<polygon fill="white" stroke="transparent" points="592.3,-1702 449.3,-1702 449.3,-1653 592.3,-1653 592.3,-1702"/>
<text text-anchor="start" x="454.8" y="-1689.5" font-family="Helvetica,sans-Serif" font-size="10.00">ThreadSafeMonoBehaviour</text>
<text text-anchor="start" x="463.3" y="-1674.5" font-family="Helvetica,sans-Serif" font-size="10.00">+</text>
<text text-anchor="start" x="485.8" y="-1674.5" font-family="Helvetica,sans-Serif" font-size="10.00">bool Destroyed</text>
<text text-anchor="start" x="463.3" y="-1659.5" font-family="Helvetica,sans-Serif" font-size="10.00">#</text>
<text text-anchor="start" x="485.8" y="-1659.5" font-family="Helvetica,sans-Serif" font-size="10.00">void OnDestroy()</text>
<polygon fill="#666666" stroke="#666666" points="449.8,-1684.5 449.8,-1684.5 592.8,-1684.5 592.8,-1684.5 449.8,-1684.5"/>
<polygon fill="#666666" stroke="#666666" points="449.8,-1669.5 449.8,-1669.5 483.8,-1669.5 483.8,-1669.5 449.8,-1669.5"/>
<polygon fill="#666666" stroke="#666666" points="483.8,-1669.5 483.8,-1669.5 592.8,-1669.5 592.8,-1669.5 483.8,-1669.5"/>
<polygon fill="none" stroke="#666666" points="449.3,-1653 449.3,-1702 592.3,-1702 592.3,-1653 449.3,-1653"/>
</a>
</g>
</g>
<!-- Node2&#45;&gt;Node1 -->
<g id="edge1_Node000001_Node000002" class="edge">
<title>Node2&#45;&gt;Node1</title>
<g id="a_edge1_Node000001_Node000002"><a xlink:title=" ">
<path fill="none" stroke="#63b8ff" d="M534.99,-1643.45C587.57,-1516.1 762.08,-1046.39 638.8,-688 613.26,-613.78 565.86,-543.06 516.88,-483.89"/>
<polygon fill="none" stroke="#63b8ff" points="531.75,-1642.13 531.13,-1652.7 538.21,-1644.82 531.75,-1642.13"/>
</a>
</g>
</g>
<!-- Node5 -->
<g id="Node000005" class="node">
<title>Node5</title>
<g id="a_Node000005"><a xlink:href="classGame_1_1World_1_1Chunk.html" target="_top" xlink:title="Stores a single chunk of the world.">
<polygon fill="white" stroke="transparent" points="480.8,-1578 152.8,-1578 152.8,-937 480.8,-937 480.8,-1578"/>
<text text-anchor="start" x="269.8" y="-1565.5" font-family="Helvetica,sans-Serif" font-size="10.00">Game.World.Chunk</text>
<text text-anchor="start" x="156.8" y="-1550.5" font-family="Helvetica,sans-Serif" font-size="10.00">+</text>
<text text-anchor="start" x="169.8" y="-1550.5" font-family="Helvetica,sans-Serif" font-size="10.00">float XOffset</text>
<text text-anchor="start" x="156.8" y="-1535.5" font-family="Helvetica,sans-Serif" font-size="10.00">+</text>
<text text-anchor="start" x="169.8" y="-1535.5" font-family="Helvetica,sans-Serif" font-size="10.00">float ZOffset</text>
<text text-anchor="start" x="156.8" y="-1520.5" font-family="Helvetica,sans-Serif" font-size="10.00">+</text>
<text text-anchor="start" x="169.8" y="-1520.5" font-family="Helvetica,sans-Serif" font-size="10.00">bool RandomizeOffset</text>
<text text-anchor="start" x="156.8" y="-1505.5" font-family="Helvetica,sans-Serif" font-size="10.00">+</text>
<text text-anchor="start" x="169.8" y="-1505.5" font-family="Helvetica,sans-Serif" font-size="10.00">GameObject straightRoadPrefab</text>
<text text-anchor="start" x="156.8" y="-1490.5" font-family="Helvetica,sans-Serif" font-size="10.00">+</text>
<text text-anchor="start" x="169.8" y="-1490.5" font-family="Helvetica,sans-Serif" font-size="10.00">GameObject grassPrefab</text>
<text text-anchor="start" x="156.8" y="-1475.5" font-family="Helvetica,sans-Serif" font-size="10.00">+</text>
<text text-anchor="start" x="169.8" y="-1475.5" font-family="Helvetica,sans-Serif" font-size="10.00">GameObject coinPrefab</text>
<text text-anchor="start" x="156.8" y="-1460.5" font-family="Helvetica,sans-Serif" font-size="10.00">+</text>
<text text-anchor="start" x="169.8" y="-1460.5" font-family="Helvetica,sans-Serif" font-size="10.00">int? zSize</text>
<text text-anchor="start" x="156.8" y="-1445.5" font-family="Helvetica,sans-Serif" font-size="10.00">+</text>
<text text-anchor="start" x="169.8" y="-1445.5" font-family="Helvetica,sans-Serif" font-size="10.00">int? xSize</text>
<text text-anchor="start" x="156.8" y="-1430.5" font-family="Helvetica,sans-Serif" font-size="10.00">+</text>
<text text-anchor="start" x="169.8" y="-1430.5" font-family="Helvetica,sans-Serif" font-size="10.00">int Row</text>
<text text-anchor="start" x="156.8" y="-1415.5" font-family="Helvetica,sans-Serif" font-size="10.00">+</text>
<text text-anchor="start" x="169.8" y="-1415.5" font-family="Helvetica,sans-Serif" font-size="10.00">int Col</text>
<text text-anchor="start" x="156.8" y="-1400.5" font-family="Helvetica,sans-Serif" font-size="10.00">+</text>
<text text-anchor="start" x="169.8" y="-1400.5" font-family="Helvetica,sans-Serif" font-size="10.00">bool[,] Roads</text>
<text text-anchor="start" x="156.8" y="-1385.5" font-family="Helvetica,sans-Serif" font-size="10.00">+</text>
<text text-anchor="start" x="169.8" y="-1385.5" font-family="Helvetica,sans-Serif" font-size="10.00">List&lt; EdgeRoadContainer &gt; EdgeRoads</text>
<text text-anchor="start" x="159.3" y="-1370.5" font-family="Helvetica,sans-Serif" font-size="10.00">&#45;</text>
<text text-anchor="start" x="169.8" y="-1370.5" font-family="Helvetica,sans-Serif" font-size="10.00">GameObject curvedRoadPrefab</text>
<text text-anchor="start" x="159.3" y="-1355.5" font-family="Helvetica,sans-Serif" font-size="10.00">&#45;</text>
<text text-anchor="start" x="169.8" y="-1355.5" font-family="Helvetica,sans-Serif" font-size="10.00">GameObject threeWayRoadPrefab</text>
<text text-anchor="start" x="159.3" y="-1340.5" font-family="Helvetica,sans-Serif" font-size="10.00">&#45;</text>
<text text-anchor="start" x="169.8" y="-1340.5" font-family="Helvetica,sans-Serif" font-size="10.00">GameObject crossRoadsPrefab</text>
<text text-anchor="start" x="159.3" y="-1325.5" font-family="Helvetica,sans-Serif" font-size="10.00">&#45;</text>
<text text-anchor="start" x="169.8" y="-1325.5" font-family="Helvetica,sans-Serif" font-size="10.00">List&lt; Building &gt; buildings</text>
<text text-anchor="start" x="159.3" y="-1310.5" font-family="Helvetica,sans-Serif" font-size="10.00">&#45;</text>
<text text-anchor="start" x="169.8" y="-1310.5" font-family="Helvetica,sans-Serif" font-size="10.00">List&lt; Prop &gt; props</text>
<text text-anchor="start" x="159.3" y="-1295.5" font-family="Helvetica,sans-Serif" font-size="10.00">&#45;</text>
<text text-anchor="start" x="169.8" y="-1295.5" font-family="Helvetica,sans-Serif" font-size="10.00">Dictionary&lt; ChunkCellType, List&lt; Vector3 &gt; &gt; chunkCells</text>
<text text-anchor="start" x="159.3" y="-1280.5" font-family="Helvetica,sans-Serif" font-size="10.00">&#45;</text>
<text text-anchor="start" x="169.8" y="-1280.5" font-family="Helvetica,sans-Serif" font-size="10.00">List&lt; Vector3Int &gt; roads</text>
<text text-anchor="start" x="159.3" y="-1265.5" font-family="Helvetica,sans-Serif" font-size="10.00">&#45;</text>
<text text-anchor="start" x="169.8" y="-1265.5" font-family="Helvetica,sans-Serif" font-size="10.00">Dictionary&lt; ChunkCellType, List&lt; GameObject &gt; &gt;</text>
<text text-anchor="start" x="169.8" y="-1254.5" font-family="Helvetica,sans-Serif" font-size="10.00"> objectsToCombine</text>
<text text-anchor="start" x="159.3" y="-1239.5" font-family="Helvetica,sans-Serif" font-size="10.00">&#45;</text>
<text text-anchor="start" x="169.8" y="-1239.5" font-family="Helvetica,sans-Serif" font-size="10.00">float</text>
<text text-anchor="start" x="156.8" y="-1224.5" font-family="Helvetica,sans-Serif" font-size="10.00">+</text>
<text text-anchor="start" x="169.8" y="-1224.5" font-family="Helvetica,sans-Serif" font-size="10.00">void Display()</text>
<text text-anchor="start" x="156.8" y="-1209.5" font-family="Helvetica,sans-Serif" font-size="10.00">+</text>
<text text-anchor="start" x="169.8" y="-1209.5" font-family="Helvetica,sans-Serif" font-size="10.00">async Task InitChunk(int col, int row, List&lt; EdgeRoadContainer</text>
<text text-anchor="start" x="169.8" y="-1198.5" font-family="Helvetica,sans-Serif" font-size="10.00"> &gt; edgeRoads, GameWorld world)</text>
<text text-anchor="start" x="156.8" y="-1183.5" font-family="Helvetica,sans-Serif" font-size="10.00">+</text>
<text text-anchor="start" x="169.8" y="-1183.5" font-family="Helvetica,sans-Serif" font-size="10.00">void HideChunk()</text>
<text text-anchor="start" x="156.8" y="-1168.5" font-family="Helvetica,sans-Serif" font-size="10.00">+</text>
<text text-anchor="start" x="169.8" y="-1168.5" font-family="Helvetica,sans-Serif" font-size="10.00">Vector3 GetARandomRoad()</text>
<text text-anchor="start" x="156.8" y="-1153.5" font-family="Helvetica,sans-Serif" font-size="10.00">+</text>
<text text-anchor="start" x="169.8" y="-1153.5" font-family="Helvetica,sans-Serif" font-size="10.00">async Task SpawnWorldObjects()</text>
<text text-anchor="start" x="156.8" y="-1138.5" font-family="Helvetica,sans-Serif" font-size="10.00">+</text>
<text text-anchor="start" x="169.8" y="-1138.5" font-family="Helvetica,sans-Serif" font-size="10.00">static void InitUniTaskLoop()</text>
<text text-anchor="start" x="159.3" y="-1123.5" font-family="Helvetica,sans-Serif" font-size="10.00">&#45;</text>
<text text-anchor="start" x="169.8" y="-1123.5" font-family="Helvetica,sans-Serif" font-size="10.00">async void Awake()</text>
<text text-anchor="start" x="159.3" y="-1108.5" font-family="Helvetica,sans-Serif" font-size="10.00">&#45;</text>
<text text-anchor="start" x="169.8" y="-1108.5" font-family="Helvetica,sans-Serif" font-size="10.00">void BuildingLoaded(GameObject building)</text>
<text text-anchor="start" x="159.3" y="-1093.5" font-family="Helvetica,sans-Serif" font-size="10.00">&#45;</text>
<text text-anchor="start" x="169.8" y="-1093.5" font-family="Helvetica,sans-Serif" font-size="10.00">void PropLoaded(GameObject prop)</text>
<text text-anchor="start" x="159.3" y="-1078.5" font-family="Helvetica,sans-Serif" font-size="10.00">&#45;</text>
<text text-anchor="start" x="169.8" y="-1078.5" font-family="Helvetica,sans-Serif" font-size="10.00">float GetAbsolutePosition()</text>
<text text-anchor="start" x="159.3" y="-1063.5" font-family="Helvetica,sans-Serif" font-size="10.00">&#45;</text>
<text text-anchor="start" x="169.8" y="-1063.5" font-family="Helvetica,sans-Serif" font-size="10.00">void LoadFromSettings()</text>
<text text-anchor="start" x="159.3" y="-1048.5" font-family="Helvetica,sans-Serif" font-size="10.00">&#45;</text>
<text text-anchor="start" x="169.8" y="-1048.5" font-family="Helvetica,sans-Serif" font-size="10.00">void CreateTiles()</text>
<text text-anchor="start" x="159.3" y="-1033.5" font-family="Helvetica,sans-Serif" font-size="10.00">&#45;</text>
<text text-anchor="start" x="169.8" y="-1033.5" font-family="Helvetica,sans-Serif" font-size="10.00">ChunkCellContainer DetermineRoadType(int col, int row)</text>
<text text-anchor="start" x="159.3" y="-1018.5" font-family="Helvetica,sans-Serif" font-size="10.00">&#45;</text>
<text text-anchor="start" x="169.8" y="-1018.5" font-family="Helvetica,sans-Serif" font-size="10.00">ChunkCellContainer DetermineTileType(int x, int z)</text>
<text text-anchor="start" x="159.3" y="-1003.5" font-family="Helvetica,sans-Serif" font-size="10.00">&#45;</text>
<text text-anchor="start" x="169.8" y="-1003.5" font-family="Helvetica,sans-Serif" font-size="10.00">void GenerateCellMatrix()</text>
<text text-anchor="start" x="159.3" y="-988.5" font-family="Helvetica,sans-Serif" font-size="10.00">&#45;</text>
<text text-anchor="start" x="169.8" y="-988.5" font-family="Helvetica,sans-Serif" font-size="10.00">IEnumerator AddRoadBuildings()</text>
<text text-anchor="start" x="159.3" y="-973.5" font-family="Helvetica,sans-Serif" font-size="10.00">&#45;</text>
<text text-anchor="start" x="169.8" y="-973.5" font-family="Helvetica,sans-Serif" font-size="10.00">IEnumerator AddEnvironmentProps()</text>
<text text-anchor="start" x="159.3" y="-958.5" font-family="Helvetica,sans-Serif" font-size="10.00">&#45;</text>
<text text-anchor="start" x="169.8" y="-958.5" font-family="Helvetica,sans-Serif" font-size="10.00">void LockAndTryToPlaceBuilding(int index, int row, int col)</text>
<text text-anchor="start" x="159.3" y="-943.5" font-family="Helvetica,sans-Serif" font-size="10.00">&#45;</text>
<text text-anchor="start" x="169.8" y="-943.5" font-family="Helvetica,sans-Serif" font-size="10.00">async Task&lt; Chunk[,]&gt; GetNearbyChunks(int row, int col)</text>
<polygon fill="#666666" stroke="#666666" points="152.8,-1560.5 152.8,-1560.5 480.8,-1560.5 480.8,-1560.5 152.8,-1560.5"/>
<polygon fill="#666666" stroke="#666666" points="152.8,-1234.5 152.8,-1234.5 167.8,-1234.5 167.8,-1234.5 152.8,-1234.5"/>
<polygon fill="#666666" stroke="#666666" points="167.8,-1234.5 167.8,-1234.5 480.8,-1234.5 480.8,-1234.5 167.8,-1234.5"/>
<polygon fill="none" stroke="#666666" points="152.8,-937 152.8,-1578 480.8,-1578 480.8,-937 152.8,-937"/>
</a>
</g>
</g>
<!-- Node2&#45;&gt;Node5 -->
<g id="edge5_Node000005_Node000002" class="edge">
<title>Node2&#45;&gt;Node5</title>
<g id="a_edge5_Node000005_Node000002"><a xlink:title=" ">
<path fill="none" stroke="#63b8ff" d="M504.68,-1643.48C496.38,-1626.48 485.38,-1603.92 472.83,-1578.23"/>
<polygon fill="none" stroke="#63b8ff" points="501.71,-1645.38 509.24,-1652.83 508,-1642.31 501.71,-1645.38"/>
</a>
</g>
</g>
<!-- Node6 -->
<g id="Node000006" class="node">
<title>Node6</title>
<g id="a_Node000006"><a xlink:href="classGame_1_1World_1_1GameWorld.html" target="_top" xlink:title="A class for handling chunk loading and unloading.">
<polygon fill="white" stroke="transparent" points="629.8,-851 373.8,-851 373.8,-727 629.8,-727 629.8,-851"/>
<text text-anchor="start" x="441.3" y="-839" font-family="Helvetica,sans-Serif" font-size="10.00">Game.World.GameWorld</text>
<text text-anchor="start" x="380.3" y="-824" font-family="Helvetica,sans-Serif" font-size="10.00">&#45;</text>
<text text-anchor="start" x="390.8" y="-824" font-family="Helvetica,sans-Serif" font-size="10.00">GameObject ChunkPrefab</text>
<text text-anchor="start" x="377.8" y="-809" font-family="Helvetica,sans-Serif" font-size="10.00">+</text>
<text text-anchor="start" x="390.8" y="-809" font-family="Helvetica,sans-Serif" font-size="10.00">Chunk GetChunk(Vector3 GameObjectPos)</text>
<text text-anchor="start" x="377.8" y="-794" font-family="Helvetica,sans-Serif" font-size="10.00">+</text>
<text text-anchor="start" x="390.8" y="-794" font-family="Helvetica,sans-Serif" font-size="10.00">async Task CreateNewGame()</text>
<text text-anchor="start" x="377.8" y="-779" font-family="Helvetica,sans-Serif" font-size="10.00">+</text>
<text text-anchor="start" x="390.8" y="-779" font-family="Helvetica,sans-Serif" font-size="10.00">async Task LoadChunk(int x, int z)</text>
<text text-anchor="start" x="377.8" y="-764" font-family="Helvetica,sans-Serif" font-size="10.00">+</text>
<text text-anchor="start" x="390.8" y="-764" font-family="Helvetica,sans-Serif" font-size="10.00">void HideChunk(int col, int row)</text>
<text text-anchor="start" x="377.8" y="-749" font-family="Helvetica,sans-Serif" font-size="10.00">+</text>
<text text-anchor="start" x="390.8" y="-749" font-family="Helvetica,sans-Serif" font-size="10.00">Chunk GetChunkWithoutLoad(int col, int row)</text>
<text text-anchor="start" x="377.8" y="-734" font-family="Helvetica,sans-Serif" font-size="10.00">+</text>
<text text-anchor="start" x="390.8" y="-734" font-family="Helvetica,sans-Serif" font-size="10.00">async Task&lt; Chunk &gt; GetChunk(int col, int row)</text>
<polygon fill="#666666" stroke="#666666" points="373.8,-834 373.8,-834 629.8,-834 629.8,-834 373.8,-834"/>
<polygon fill="#666666" stroke="#666666" points="373.8,-819 373.8,-819 388.8,-819 388.8,-819 373.8,-819"/>
<polygon fill="#666666" stroke="#666666" points="388.8,-819 388.8,-819 629.8,-819 629.8,-819 388.8,-819"/>
<polygon fill="none" stroke="#666666" points="373.8,-727 373.8,-851 629.8,-851 629.8,-727 373.8,-727"/>
</a>
</g>
</g>
<!-- Node2&#45;&gt;Node6 -->
<g id="edge8_Node000006_Node000002" class="edge">
<title>Node2&#45;&gt;Node6</title>
<g id="a_edge8_Node000006_Node000002"><a xlink:title=" ">
<path fill="none" stroke="#63b8ff" d="M520.07,-1642.41C517.21,-1509.3 506.8,-1023.39 503.11,-851.09"/>
<polygon fill="none" stroke="#63b8ff" points="516.57,-1642.87 520.29,-1652.79 523.57,-1642.72 516.57,-1642.87"/>
</a>
</g>
</g>
<!-- Node3 -->
<g id="Node000003" class="node">
<title>Node3</title>
<g id="a_Node000003"><a xlink:title=" ">
<polygon fill="white" stroke="transparent" points="564.3,-1816 477.3,-1816 477.3,-1767 564.3,-1767 564.3,-1816"/>
<text text-anchor="start" x="482.8" y="-1803.5" font-family="Helvetica,sans-Serif" font-size="10.00">MonoBehaviour</text>
<text text-anchor="start" x="519.3" y="-1788.5" font-family="Helvetica,sans-Serif" font-size="10.00"> </text>
<text text-anchor="start" x="519.3" y="-1773.5" font-family="Helvetica,sans-Serif" font-size="10.00"> </text>
<polygon fill="#666666" stroke="#666666" points="477.8,-1798.5 477.8,-1798.5 564.8,-1798.5 564.8,-1798.5 477.8,-1798.5"/>
<polygon fill="#666666" stroke="#666666" points="477.8,-1783.5 477.8,-1783.5 564.8,-1783.5 564.8,-1783.5 477.8,-1783.5"/>
<polygon fill="none" stroke="#666666" points="477.3,-1767 477.3,-1816 564.3,-1816 564.3,-1767 477.3,-1767"/>
</a>
</g>
</g>
<!-- Node3&#45;&gt;Node2 -->
<g id="edge2_Node000002_Node000003" class="edge">
<title>Node3&#45;&gt;Node2</title>
<g id="a_edge2_Node000002_Node000003"><a xlink:title=" ">
<path fill="none" stroke="#63b8ff" d="M520.8,-1756.36C520.8,-1738.85 520.8,-1717.95 520.8,-1702.22"/>
<polygon fill="none" stroke="#63b8ff" points="517.3,-1756.75 520.8,-1766.75 524.3,-1756.75 517.3,-1756.75"/>
</a>
</g>
</g>
<!-- Node4 -->
<g id="Node000004" class="node">
<title>Node4</title>
<g id="a_Node000004"><a xlink:href="classGame_1_1World_1_1RoadGenerator.html" target="_top" xlink:title="Generates a new road structure.">
<polygon fill="white" stroke="transparent" points="355.8,-890 53.8,-890 53.8,-688 355.8,-688 355.8,-890"/>
<text text-anchor="start" x="136.3" y="-878" font-family="Helvetica,sans-Serif" font-size="10.00">Game.World.RoadGenerator</text>
<text text-anchor="start" x="57.8" y="-863" font-family="Helvetica,sans-Serif" font-size="10.00">+</text>
<text text-anchor="start" x="70.8" y="-863" font-family="Helvetica,sans-Serif" font-size="10.00">int NumberOfEdgeRoads</text>
<text text-anchor="start" x="57.8" y="-848" font-family="Helvetica,sans-Serif" font-size="10.00">+</text>
<text text-anchor="start" x="70.8" y="-848" font-family="Helvetica,sans-Serif" font-size="10.00">bool[,] RoadMatrix</text>
<text text-anchor="start" x="57.8" y="-833" font-family="Helvetica,sans-Serif" font-size="10.00">+</text>
<text text-anchor="start" x="70.8" y="-833" font-family="Helvetica,sans-Serif" font-size="10.00">List&lt; EdgeRoadContainer &gt; EdgeRoads</text>
<text text-anchor="start" x="60.3" y="-818" font-family="Helvetica,sans-Serif" font-size="10.00">&#45;</text>
<text text-anchor="start" x="70.8" y="-818" font-family="Helvetica,sans-Serif" font-size="10.00">int size</text>
<text text-anchor="start" x="60.3" y="-803" font-family="Helvetica,sans-Serif" font-size="10.00">&#45;</text>
<text text-anchor="start" x="70.8" y="-803" font-family="Helvetica,sans-Serif" font-size="10.00">int numberOfPlacedRoads</text>
<text text-anchor="start" x="60.3" y="-788" font-family="Helvetica,sans-Serif" font-size="10.00">&#45;</text>
<text text-anchor="start" x="70.8" y="-788" font-family="Helvetica,sans-Serif" font-size="10.00">bool[,] lockRoad</text>
<text text-anchor="start" x="57.8" y="-773" font-family="Helvetica,sans-Serif" font-size="10.00">+</text>
<text text-anchor="start" x="70.8" y="-773" font-family="Helvetica,sans-Serif" font-size="10.00">RoadGenerator(int size, List&lt; EdgeRoadContainer</text>
<text text-anchor="start" x="70.8" y="-762" font-family="Helvetica,sans-Serif" font-size="10.00"> &gt; startPositions, Chunk[,] nearbyChunks)</text>
<text text-anchor="start" x="60.3" y="-747" font-family="Helvetica,sans-Serif" font-size="10.00">&#45;</text>
<text text-anchor="start" x="70.8" y="-747" font-family="Helvetica,sans-Serif" font-size="10.00">void CreateRoad(Vector2Int roadPos, Vector2Int</text>
<text text-anchor="start" x="70.8" y="-736" font-family="Helvetica,sans-Serif" font-size="10.00"> roadDir, int forwardCounter=0)</text>
<text text-anchor="start" x="60.3" y="-721" font-family="Helvetica,sans-Serif" font-size="10.00">&#45;</text>
<text text-anchor="start" x="70.8" y="-721" font-family="Helvetica,sans-Serif" font-size="10.00">bool GoinTowardsEdge(Vector2Int position, Vector2Int dir)</text>
<text text-anchor="start" x="60.3" y="-706" font-family="Helvetica,sans-Serif" font-size="10.00">&#45;</text>
<text text-anchor="start" x="70.8" y="-706" font-family="Helvetica,sans-Serif" font-size="10.00">bool CheckForward(Vector2Int position, Vector2Int</text>
<text text-anchor="start" x="70.8" y="-695" font-family="Helvetica,sans-Serif" font-size="10.00"> dir, int counter)</text>
<polygon fill="#666666" stroke="#666666" points="53.8,-873 53.8,-873 355.8,-873 355.8,-873 53.8,-873"/>
<polygon fill="#666666" stroke="#666666" points="53.8,-783 53.8,-783 68.8,-783 68.8,-783 53.8,-783"/>
<polygon fill="#666666" stroke="#666666" points="68.8,-783 68.8,-783 355.8,-783 355.8,-783 68.8,-783"/>
<polygon fill="none" stroke="#666666" points="53.8,-688 53.8,-890 355.8,-890 355.8,-688 53.8,-688"/>
</a>
</g>
</g>
<!-- Node4&#45;&gt;Node1 -->
<g id="edge3_Node000001_Node000004" class="edge">
<title>Node4&#45;&gt;Node1</title>
<g id="a_edge3_Node000001_Node000004"><a xlink:title=" ">
<path fill="none" stroke="#63b8ff" d="M236.55,-687.92C240.05,-676.87 243.75,-665.21 247.59,-653.12"/>
<polygon fill="none" stroke="#63b8ff" points="247.68,-652.84 245.68,-645.91 251.3,-641.4 253.3,-648.33 247.68,-652.84"/>
</a>
</g>
<text text-anchor="middle" x="283.8" y="-662" font-family="Helvetica,sans-Serif" font-size="10.00" fill="grey"> &#45;roadGenerator</text>
</g>
<!-- Node4&#45;&gt;Node5 -->
<g id="edge6_Node000005_Node000004" class="edge">
<title>Node4&#45;&gt;Node5</title>
<g id="a_edge6_Node000005_Node000004"><a xlink:title=" ">
<path fill="none" stroke="#63b8ff" d="M275.38,-890.02C278.16,-895.97 280.66,-901.98 282.8,-908 284.79,-913.61 286.67,-919.31 288.46,-925.07"/>
<polygon fill="none" stroke="#63b8ff" points="288.58,-925.48 294.13,-930.09 292,-936.98 286.46,-932.37 288.58,-925.48"/>
</a>
</g>
<text text-anchor="middle" x="325.8" y="-911" font-family="Helvetica,sans-Serif" font-size="10.00" fill="grey"> &#45;roadGenerator</text>
</g>
<!-- Node5&#45;&gt;Node4 -->
<g id="edge4_Node000004_Node000005" class="edge">
<title>Node5&#45;&gt;Node4</title>
<g id="a_edge4_Node000004_Node000005"><a xlink:title=" ">
<path fill="none" stroke="#63b8ff" d="M208.97,-936.9C207.83,-930.91 206.77,-924.93 205.8,-919 204.91,-913.63 204.19,-908.12 203.6,-902.55"/>
<polygon fill="none" stroke="#63b8ff" points="203.58,-902.22 199.07,-896.59 202.53,-890.26 207.04,-895.89 203.58,-902.22"/>
</a>
</g>
<text text-anchor="middle" x="244.3" y="-911" font-family="Helvetica,sans-Serif" font-size="10.00" fill="grey"> &#45;nearbyChunks</text>
</g>
<!-- Node5&#45;&gt;Node6 -->
<g id="edge9_Node000006_Node000005" class="edge">
<title>Node5&#45;&gt;Node6</title>
<g id="a_edge9_Node000006_Node000005"><a xlink:title=" ">
<path fill="none" stroke="#63b8ff" d="M443.51,-936.96C454.3,-909.77 464.36,-884.41 472.98,-862.66"/>
<polygon fill="none" stroke="#63b8ff" points="473.06,-862.45 471.56,-855.4 477.49,-851.29 478.99,-858.35 473.06,-862.45"/>
</a>
</g>
<text text-anchor="middle" x="473.3" y="-911" font-family="Helvetica,sans-Serif" font-size="10.00" fill="grey"> &#45;Chunks</text>
</g>
<!-- Node6&#45;&gt;Node1 -->
<g id="edge11_Node000001_Node000006" class="edge">
<title>Node6&#45;&gt;Node1</title>
<g id="a_edge11_Node000001_Node000006"><a xlink:title=" ">
<path fill="none" stroke="#63b8ff" d="M482.16,-726.53C475.43,-705.44 467.35,-680.14 458.56,-652.62"/>
<polygon fill="none" stroke="#63b8ff" points="458.54,-652.56 452.9,-648.06 454.89,-641.13 460.52,-645.63 458.54,-652.56"/>
</a>
</g>
<text text-anchor="middle" x="478.8" y="-662" font-family="Helvetica,sans-Serif" font-size="10.00" fill="grey"> &#45;world</text>
</g>
<!-- Node6&#45;&gt;Node5 -->
<g id="edge7_Node000005_Node000006" class="edge">
<title>Node6&#45;&gt;Node5</title>
<g id="a_edge7_Node000005_Node000006"><a xlink:title=" ">
<path fill="none" stroke="#63b8ff" d="M444.44,-851.18C430.51,-868.53 416.77,-888.14 406.8,-908 403.93,-913.7 401.16,-919.5 398.46,-925.38"/>
<polygon fill="none" stroke="#63b8ff" points="398.27,-925.83 399.48,-932.94 393.39,-936.79 392.17,-929.68 398.27,-925.83"/>
</a>
</g>
<text text-anchor="middle" x="423.8" y="-911" font-family="Helvetica,sans-Serif" font-size="10.00" fill="grey"> &#45;world</text>
</g>
<!-- Node7 -->
<g id="Node000007" class="node">
<title>Node7</title>
<g id="a_Node000007"><a xlink:title=" ">
<polygon fill="white" stroke="transparent" points="296.8,-1730 56.8,-1730 56.8,-1625 296.8,-1625 296.8,-1730"/>
<text text-anchor="start" x="115.8" y="-1717.5" font-family="Helvetica,sans-Serif" font-size="10.00">Game.World.BuildingCell</text>
<text text-anchor="start" x="60.8" y="-1702.5" font-family="Helvetica,sans-Serif" font-size="10.00">+</text>
<text text-anchor="start" x="73.8" y="-1702.5" font-family="Helvetica,sans-Serif" font-size="10.00">BuildingDirection RoadDirection</text>
<text text-anchor="start" x="60.8" y="-1687.5" font-family="Helvetica,sans-Serif" font-size="10.00">+</text>
<text text-anchor="start" x="73.8" y="-1687.5" font-family="Helvetica,sans-Serif" font-size="10.00">bool Buildable</text>
<text text-anchor="start" x="60.8" y="-1672.5" font-family="Helvetica,sans-Serif" font-size="10.00">+</text>
<text text-anchor="start" x="73.8" y="-1672.5" font-family="Helvetica,sans-Serif" font-size="10.00">bool GotRoadNext</text>
<text text-anchor="start" x="60.8" y="-1657.5" font-family="Helvetica,sans-Serif" font-size="10.00">+</text>
<text text-anchor="start" x="73.8" y="-1657.5" font-family="Helvetica,sans-Serif" font-size="10.00">BuildingCell(BuildingDirection roadDirection,</text>
<text text-anchor="start" x="73.8" y="-1646.5" font-family="Helvetica,sans-Serif" font-size="10.00"> bool buildable)</text>
<text text-anchor="start" x="60.8" y="-1631.5" font-family="Helvetica,sans-Serif" font-size="10.00">+</text>
<text text-anchor="start" x="73.8" y="-1631.5" font-family="Helvetica,sans-Serif" font-size="10.00">void Occupy()</text>
<polygon fill="#666666" stroke="#666666" points="56.8,-1712.5 56.8,-1712.5 296.8,-1712.5 296.8,-1712.5 56.8,-1712.5"/>
<polygon fill="#666666" stroke="#666666" points="56.8,-1667.5 56.8,-1667.5 71.8,-1667.5 71.8,-1667.5 56.8,-1667.5"/>
<polygon fill="#666666" stroke="#666666" points="71.8,-1667.5 71.8,-1667.5 296.8,-1667.5 296.8,-1667.5 71.8,-1667.5"/>
<polygon fill="none" stroke="#666666" points="56.8,-1625 56.8,-1730 296.8,-1730 296.8,-1625 56.8,-1625"/>
</a>
</g>
</g>
<!-- Node7&#45;&gt;Node1 -->
<g id="edge12_Node000001_Node000007" class="edge">
<title>Node7&#45;&gt;Node1</title>
<g id="a_edge12_Node000001_Node000007"><a xlink:title=" ">
<path fill="none" stroke="#63b8ff" d="M153.25,-1624.78C88.48,-1474.88 -79.54,-1029.21 44.8,-688 73.15,-610.19 126.09,-537.44 180.18,-477.58"/>
<polygon fill="none" stroke="#63b8ff" points="180.41,-477.32 181.51,-470.2 188.51,-468.47 187.42,-475.6 180.41,-477.32"/>
</a>
</g>
<text text-anchor="middle" x="36.8" y="-911" font-family="Helvetica,sans-Serif" font-size="10.00" fill="grey"> &#45;buildingCells</text>
</g>
<!-- Node7&#45;&gt;Node5 -->
<g id="edge10_Node000005_Node000007" class="edge">
<title>Node7&#45;&gt;Node5</title>
<g id="a_edge10_Node000005_Node000007"><a xlink:title=" ">
<path fill="none" stroke="#63b8ff" d="M194.1,-1624.83C197.64,-1614.27 201.6,-1602.44 205.88,-1589.67"/>
<polygon fill="none" stroke="#63b8ff" points="205.9,-1589.59 204.02,-1582.63 209.71,-1578.22 211.6,-1585.18 205.9,-1589.59"/>
</a>
</g>
<text text-anchor="middle" x="238.8" y="-1599" font-family="Helvetica,sans-Serif" font-size="10.00" fill="grey"> &#45;buildingCells</text>
</g>
</g>
</svg>
