<?xml version="1.0" encoding="UTF-8" standalone="no"?>
<!DOCTYPE svg PUBLIC "-//W3C//DTD SVG 1.1//EN"
 "http://www.w3.org/Graphics/SVG/1.1/DTD/svg11.dtd">
<!-- Generated by graphviz version 2.43.0 (0)
 -->
<!-- Title: MainPage.TaskHistoryWindowHandler Pages: 1 -->
<svg width="337pt" height="493pt"
 viewBox="0.00 0.00 337.00 493.00" xmlns="http://www.w3.org/2000/svg" xmlns:xlink="http://www.w3.org/1999/xlink">
<g id="graph0" class="graph" transform="scale(1 1) rotate(0) translate(4 489)">
<title>MainPage.TaskHistoryWindowHandler</title>
<polygon fill="white" stroke="transparent" points="-4,4 -4,-489 333,-489 333,4 -4,4"/>
<!-- Node1 -->
<g id="node1" class="node">
<title>Node1</title>
<g id="a_node1"><a xlink:title="Task histories window controller">
<polygon fill="#bfbfbf" stroke="black" points="0,-0.5 0,-123.5 215,-123.5 215,-0.5 0,-0.5"/>
<text text-anchor="middle" x="107.5" y="-111.5" font-family="Helvetica,sans-Serif" font-size="10.00">MainPage.TaskHistoryWindowHandler</text>
<polyline fill="none" stroke="black" points="0,-104.5 215,-104.5 "/>
<text text-anchor="start" x="8" y="-92.5" font-family="Helvetica,sans-Serif" font-size="10.00">&#45; GameObject taskHistoriesParent</text>
<text text-anchor="start" x="8" y="-81.5" font-family="Helvetica,sans-Serif" font-size="10.00">&#45; GameObject taskHistoryItemPrefab</text>
<polyline fill="none" stroke="black" points="0,-74.5 215,-74.5 "/>
<text text-anchor="start" x="8" y="-62.5" font-family="Helvetica,sans-Serif" font-size="10.00">+ void Show()</text>
<text text-anchor="start" x="8" y="-51.5" font-family="Helvetica,sans-Serif" font-size="10.00">+ void Hide()</text>
<text text-anchor="start" x="8" y="-40.5" font-family="Helvetica,sans-Serif" font-size="10.00">+ void LoadTaskHistories()</text>
<text text-anchor="start" x="8" y="-29.5" font-family="Helvetica,sans-Serif" font-size="10.00">&#45; void ShowRequestFail(string content)</text>
<text text-anchor="start" x="8" y="-18.5" font-family="Helvetica,sans-Serif" font-size="10.00">&#45; void LoadedHistories(List&lt; TaskHistory</text>
<text text-anchor="start" x="8" y="-7.5" font-family="Helvetica,sans-Serif" font-size="10.00"> &gt; taskHistories)</text>
</a>
</g>
</g>
<!-- Node2 -->
<g id="node2" class="node">
<title>Node2</title>
<g id="a_node2"><a xlink:href="classUtility_1_1ThreadSafeMonoBehaviour.html" target="_top" xlink:title="Safely stores if the gameobject been destroyed in a bool">
<polygon fill="white" stroke="black" points="29,-332.5 29,-389.5 178,-389.5 178,-332.5 29,-332.5"/>
<text text-anchor="middle" x="103.5" y="-377.5" font-family="Helvetica,sans-Serif" font-size="10.00">ThreadSafeMonoBehaviour</text>
<polyline fill="none" stroke="black" points="29,-370.5 178,-370.5 "/>
<text text-anchor="start" x="37" y="-358.5" font-family="Helvetica,sans-Serif" font-size="10.00">+ bool Destroyed</text>
<polyline fill="none" stroke="black" points="29,-351.5 178,-351.5 "/>
<text text-anchor="start" x="37" y="-339.5" font-family="Helvetica,sans-Serif" font-size="10.00"># void OnDestroy()</text>
</a>
</g>
</g>
<!-- Node2&#45;&gt;Node1 -->
<g id="edge1" class="edge">
<title>Node2&#45;&gt;Node1</title>
<path fill="none" stroke="midnightblue" d="M104.01,-322.26C104.68,-272.22 105.88,-183.31 106.68,-123.76"/>
<polygon fill="none" stroke="midnightblue" points="100.51,-322.28 103.87,-332.33 107.51,-322.37 100.51,-322.28"/>
</g>
<!-- Node4 -->
<g id="node4" class="node">
<title>Node4</title>
<g id="a_node4"><a xlink:href="classUtility_1_1ModalWindow.html" target="_top" xlink:title="Modal window for alerting the user">
<polygon fill="white" stroke="black" points="120,-171.5 120,-294.5 329,-294.5 329,-171.5 120,-171.5"/>
<text text-anchor="middle" x="224.5" y="-282.5" font-family="Helvetica,sans-Serif" font-size="10.00">Utility.ModalWindow</text>
<polyline fill="none" stroke="black" points="120,-275.5 329,-275.5 "/>
<text text-anchor="start" x="128" y="-263.5" font-family="Helvetica,sans-Serif" font-size="10.00">&#45; TMP_Text ModalTitleText</text>
<text text-anchor="start" x="128" y="-252.5" font-family="Helvetica,sans-Serif" font-size="10.00">&#45; TMP_Text ModalContentText</text>
<text text-anchor="start" x="128" y="-241.5" font-family="Helvetica,sans-Serif" font-size="10.00">&#45; Action onOkAction</text>
<polyline fill="none" stroke="black" points="120,-234.5 329,-234.5 "/>
<text text-anchor="start" x="128" y="-222.5" font-family="Helvetica,sans-Serif" font-size="10.00">+ void Show()</text>
<text text-anchor="start" x="128" y="-211.5" font-family="Helvetica,sans-Serif" font-size="10.00">+ void Show(string title, string content,</text>
<text text-anchor="start" x="128" y="-200.5" font-family="Helvetica,sans-Serif" font-size="10.00"> Action onOkAction=null)</text>
<text text-anchor="start" x="128" y="-189.5" font-family="Helvetica,sans-Serif" font-size="10.00">+ void Hide()</text>
<text text-anchor="start" x="128" y="-178.5" font-family="Helvetica,sans-Serif" font-size="10.00">+ void ConfirmButtonClick()</text>
</a>
</g>
</g>
<!-- Node2&#45;&gt;Node4 -->
<g id="edge4" class="edge">
<title>Node2&#45;&gt;Node4</title>
<path fill="none" stroke="midnightblue" d="M137.09,-325.02C146.17,-315.57 156.26,-305.06 166.26,-294.65"/>
<polygon fill="none" stroke="midnightblue" points="134.46,-322.71 130.05,-332.35 139.5,-327.56 134.46,-322.71"/>
</g>
<!-- Node3 -->
<g id="node3" class="node">
<title>Node3</title>
<g id="a_node3"><a xlink:title=" ">
<polygon fill="white" stroke="#bfbfbf" points="57,-427.5 57,-484.5 150,-484.5 150,-427.5 57,-427.5"/>
<text text-anchor="middle" x="103.5" y="-472.5" font-family="Helvetica,sans-Serif" font-size="10.00">MonoBehaviour</text>
<polyline fill="none" stroke="#bfbfbf" points="57,-465.5 150,-465.5 "/>
<text text-anchor="middle" x="103.5" y="-453.5" font-family="Helvetica,sans-Serif" font-size="10.00"> </text>
<polyline fill="none" stroke="#bfbfbf" points="57,-446.5 150,-446.5 "/>
<text text-anchor="middle" x="103.5" y="-434.5" font-family="Helvetica,sans-Serif" font-size="10.00"> </text>
</a>
</g>
</g>
<!-- Node3&#45;&gt;Node2 -->
<g id="edge2" class="edge">
<title>Node3&#45;&gt;Node2</title>
<path fill="none" stroke="midnightblue" d="M103.5,-417.24C103.5,-408.03 103.5,-398.35 103.5,-389.71"/>
<polygon fill="none" stroke="midnightblue" points="100,-417.35 103.5,-427.35 107,-417.35 100,-417.35"/>
</g>
<!-- Node4&#45;&gt;Node1 -->
<g id="edge3" class="edge">
<title>Node4&#45;&gt;Node1</title>
<path fill="none" stroke="#404040" d="M182.59,-171.46C174.11,-159.21 165.11,-146.22 156.41,-133.65"/>
<polygon fill="none" stroke="#404040" points="156.34,-133.55 149.64,-130.89 149.51,-123.68 156.21,-126.34 156.34,-133.55"/>
<text text-anchor="middle" x="208" y="-145" font-family="Helvetica,sans-Serif" font-size="10.00"> &#45;modalWindow</text>
</g>
</g>
</svg>
