<?xml version="1.0" encoding="UTF-8" standalone="no"?>
<!DOCTYPE svg PUBLIC "-//W3C//DTD SVG 1.1//EN"
 "http://www.w3.org/Graphics/SVG/1.1/DTD/svg11.dtd">
<!-- Generated by graphviz version 2.43.0 (0)
 -->
<!-- Title: Game.World.GameWorld Pages: 1 -->
<svg width="271pt" height="320pt"
 viewBox="0.00 0.00 271.00 320.00" xmlns="http://www.w3.org/2000/svg" xmlns:xlink="http://www.w3.org/1999/xlink">
<g id="graph0" class="graph" transform="scale(1 1) rotate(0) translate(4 316)">
<title>Game.World.GameWorld</title>
<polygon fill="white" stroke="transparent" points="-4,4 -4,-316 267,-316 267,4 -4,4"/>
<!-- Node1 -->
<g id="node1" class="node">
<title>Node1</title>
<g id="a_node1"><a xlink:title="A class for handling chunk loading and unloading">
<polygon fill="#bfbfbf" stroke="black" points="0,-0.5 0,-123.5 263,-123.5 263,-0.5 0,-0.5"/>
<text text-anchor="middle" x="131.5" y="-111.5" font-family="Helvetica,sans-Serif" font-size="10.00">Game.World.GameWorld</text>
<polyline fill="none" stroke="black" points="0,-104.5 263,-104.5 "/>
<text text-anchor="start" x="8" y="-92.5" font-family="Helvetica,sans-Serif" font-size="10.00">&#45; GameObject ChunkPrefab</text>
<text text-anchor="start" x="8" y="-81.5" font-family="Helvetica,sans-Serif" font-size="10.00">&#45; Chunk[,] Chunks</text>
<polyline fill="none" stroke="black" points="0,-74.5 263,-74.5 "/>
<text text-anchor="start" x="8" y="-62.5" font-family="Helvetica,sans-Serif" font-size="10.00">+ Chunk GetChunk(Vector3 GameObjectPos)</text>
<text text-anchor="start" x="8" y="-51.5" font-family="Helvetica,sans-Serif" font-size="10.00">+ async Task CreateNewGame()</text>
<text text-anchor="start" x="8" y="-40.5" font-family="Helvetica,sans-Serif" font-size="10.00">+ async Task LoadChunk(int x, int z)</text>
<text text-anchor="start" x="8" y="-29.5" font-family="Helvetica,sans-Serif" font-size="10.00">+ void HideChunk(int col, int row)</text>
<text text-anchor="start" x="8" y="-18.5" font-family="Helvetica,sans-Serif" font-size="10.00">+ Chunk GetChunkWithoutLoad(int col, int row)</text>
<text text-anchor="start" x="8" y="-7.5" font-family="Helvetica,sans-Serif" font-size="10.00">+ async Task&lt; Chunk &gt; GetChunk(int col, int row)</text>
</a>
</g>
</g>
<!-- Node2 -->
<g id="node2" class="node">
<title>Node2</title>
<g id="a_node2"><a xlink:href="classUtility_1_1ThreadSafeMonoBehaviour.html" target="_top" xlink:title="Safely stores if the gameobject been destroyed in a bool">
<polygon fill="white" stroke="black" points="57,-160.5 57,-217.5 206,-217.5 206,-160.5 57,-160.5"/>
<text text-anchor="middle" x="131.5" y="-205.5" font-family="Helvetica,sans-Serif" font-size="10.00">ThreadSafeMonoBehaviour</text>
<polyline fill="none" stroke="black" points="57,-198.5 206,-198.5 "/>
<text text-anchor="start" x="65" y="-186.5" font-family="Helvetica,sans-Serif" font-size="10.00">+ bool Destroyed</text>
<polyline fill="none" stroke="black" points="57,-179.5 206,-179.5 "/>
<text text-anchor="start" x="65" y="-167.5" font-family="Helvetica,sans-Serif" font-size="10.00"># void OnDestroy()</text>
</a>
</g>
</g>
<!-- Node2&#45;&gt;Node1 -->
<g id="edge1" class="edge">
<title>Node2&#45;&gt;Node1</title>
<path fill="none" stroke="midnightblue" d="M131.5,-150.1C131.5,-141.74 131.5,-132.68 131.5,-123.67"/>
<polygon fill="none" stroke="midnightblue" points="128,-150.26 131.5,-160.26 135,-150.26 128,-150.26"/>
</g>
<!-- Node3 -->
<g id="node3" class="node">
<title>Node3</title>
<g id="a_node3"><a xlink:title=" ">
<polygon fill="white" stroke="#bfbfbf" points="85,-254.5 85,-311.5 178,-311.5 178,-254.5 85,-254.5"/>
<text text-anchor="middle" x="131.5" y="-299.5" font-family="Helvetica,sans-Serif" font-size="10.00">MonoBehaviour</text>
<polyline fill="none" stroke="#bfbfbf" points="85,-292.5 178,-292.5 "/>
<text text-anchor="middle" x="131.5" y="-280.5" font-family="Helvetica,sans-Serif" font-size="10.00"> </text>
<polyline fill="none" stroke="#bfbfbf" points="85,-273.5 178,-273.5 "/>
<text text-anchor="middle" x="131.5" y="-261.5" font-family="Helvetica,sans-Serif" font-size="10.00"> </text>
</a>
</g>
</g>
<!-- Node3&#45;&gt;Node2 -->
<g id="edge2" class="edge">
<title>Node3&#45;&gt;Node2</title>
<path fill="none" stroke="midnightblue" d="M131.5,-244.21C131.5,-235.29 131.5,-225.95 131.5,-217.58"/>
<polygon fill="none" stroke="midnightblue" points="128,-244.4 131.5,-254.4 135,-244.4 128,-244.4"/>
</g>
</g>
</svg>
