<?xml version="1.0" encoding="UTF-8" standalone="no"?>
<!DOCTYPE svg PUBLIC "-//W3C//DTD SVG 1.1//EN"
 "http://www.w3.org/Graphics/SVG/1.1/DTD/svg11.dtd">
<!-- Generated by graphviz version 2.43.0 (0)
 -->
<!-- Title: Game.UI.StarHandler Pages: 1 -->
<svg width="201pt" height="257pt"
 viewBox="0.00 0.00 201.00 257.00" xmlns="http://www.w3.org/2000/svg" xmlns:xlink="http://www.w3.org/1999/xlink">
<g id="graph0" class="graph" transform="scale(1 1) rotate(0) translate(4 253)">
<title>Game.UI.StarHandler</title>
<!-- Node1 -->
<g id="Node000001" class="node">
<title>Node1</title>
<g id="a_Node000001"><a xlink:title="Star handler.">
<polygon fill="#999999" stroke="transparent" points="193,-79 0,-79 0,0 193,0 193,-79"/>
<text text-anchor="start" x="45" y="-66.5" font-family="Helvetica,sans-Serif" font-size="10.00">Game.UI.StarHandler</text>
<text text-anchor="start" x="7" y="-51.5" font-family="Helvetica,sans-Serif" font-size="10.00">&#45;</text>
<text text-anchor="start" x="17.5" y="-51.5" font-family="Helvetica,sans-Serif" font-size="10.00">List&lt; Image &gt; Stars</text>
<text text-anchor="start" x="7" y="-36.5" font-family="Helvetica,sans-Serif" font-size="10.00">&#45;</text>
<text text-anchor="start" x="17.5" y="-36.5" font-family="Helvetica,sans-Serif" font-size="10.00">Sprite fullStarSprite</text>
<text text-anchor="start" x="7" y="-21.5" font-family="Helvetica,sans-Serif" font-size="10.00">&#45;</text>
<text text-anchor="start" x="17.5" y="-21.5" font-family="Helvetica,sans-Serif" font-size="10.00">Sprite emptyStarSprite</text>
<text text-anchor="start" x="4.5" y="-6.5" font-family="Helvetica,sans-Serif" font-size="10.00">+</text>
<text text-anchor="start" x="17.5" y="-6.5" font-family="Helvetica,sans-Serif" font-size="10.00">void ChangeDifficulty(int difficulty)</text>
<polygon fill="#666666" stroke="#666666" points="0.5,-61.5 0.5,-61.5 193.5,-61.5 193.5,-61.5 0.5,-61.5"/>
<polygon fill="#666666" stroke="#666666" points="0.5,-16.5 0.5,-16.5 15.5,-16.5 15.5,-16.5 0.5,-16.5"/>
<polygon fill="#666666" stroke="#666666" points="15.5,-16.5 15.5,-16.5 193.5,-16.5 193.5,-16.5 15.5,-16.5"/>
<polygon fill="none" stroke="#666666" points="0,0 0,-79 193,-79 193,0 0,0"/>
</a>
</g>
</g>
<!-- Node2 -->
<g id="Node000002" class="node">
<title>Node2</title>
<g id="a_Node000002"><a xlink:href="classUtility_1_1ThreadSafeMonoBehaviour.html" target="_top" xlink:title="Safely stores if the gameobject been destroyed in a bool.">
<polygon fill="white" stroke="transparent" points="168,-164 25,-164 25,-115 168,-115 168,-164"/>
<text text-anchor="start" x="30.5" y="-151.5" font-family="Helvetica,sans-Serif" font-size="10.00">ThreadSafeMonoBehaviour</text>
<text text-anchor="start" x="39" y="-136.5" font-family="Helvetica,sans-Serif" font-size="10.00">+</text>
<text text-anchor="start" x="61.5" y="-136.5" font-family="Helvetica,sans-Serif" font-size="10.00">bool Destroyed</text>
<text text-anchor="start" x="39" y="-121.5" font-family="Helvetica,sans-Serif" font-size="10.00">#</text>
<text text-anchor="start" x="61.5" y="-121.5" font-family="Helvetica,sans-Serif" font-size="10.00">void OnDestroy()</text>
<polygon fill="#666666" stroke="#666666" points="25.5,-146.5 25.5,-146.5 168.5,-146.5 168.5,-146.5 25.5,-146.5"/>
<polygon fill="#666666" stroke="#666666" points="25.5,-131.5 25.5,-131.5 59.5,-131.5 59.5,-131.5 25.5,-131.5"/>
<polygon fill="#666666" stroke="#666666" points="59.5,-131.5 59.5,-131.5 168.5,-131.5 168.5,-131.5 59.5,-131.5"/>
<polygon fill="none" stroke="#666666" points="25,-115 25,-164 168,-164 168,-115 25,-115"/>
</a>
</g>
</g>
<!-- Node2&#45;&gt;Node1 -->
<g id="edge1_Node000001_Node000002" class="edge">
<title>Node2&#45;&gt;Node1</title>
<g id="a_edge1_Node000001_Node000002"><a xlink:title=" ">
<path fill="none" stroke="#63b8ff" d="M96.5,-104.52C96.5,-96.38 96.5,-87.63 96.5,-79.29"/>
<polygon fill="none" stroke="#63b8ff" points="93,-104.78 96.5,-114.78 100,-104.78 93,-104.78"/>
</a>
</g>
</g>
<!-- Node3 -->
<g id="Node000003" class="node">
<title>Node3</title>
<g id="a_Node000003"><a xlink:title=" ">
<polygon fill="white" stroke="transparent" points="140,-249 53,-249 53,-200 140,-200 140,-249"/>
<text text-anchor="start" x="58.5" y="-236.5" font-family="Helvetica,sans-Serif" font-size="10.00">MonoBehaviour</text>
<text text-anchor="start" x="95" y="-221.5" font-family="Helvetica,sans-Serif" font-size="10.00"> </text>
<text text-anchor="start" x="95" y="-206.5" font-family="Helvetica,sans-Serif" font-size="10.00"> </text>
<polygon fill="#666666" stroke="#666666" points="53.5,-231.5 53.5,-231.5 140.5,-231.5 140.5,-231.5 53.5,-231.5"/>
<polygon fill="#666666" stroke="#666666" points="53.5,-216.5 53.5,-216.5 140.5,-216.5 140.5,-216.5 53.5,-216.5"/>
<polygon fill="none" stroke="#666666" points="53,-200 53,-249 140,-249 140,-200 53,-200"/>
</a>
</g>
</g>
<!-- Node3&#45;&gt;Node2 -->
<g id="edge2_Node000002_Node000003" class="edge">
<title>Node3&#45;&gt;Node2</title>
<g id="a_edge2_Node000002_Node000003"><a xlink:title=" ">
<path fill="none" stroke="#63b8ff" d="M96.5,-189.77C96.5,-181.17 96.5,-172.1 96.5,-164.12"/>
<polygon fill="none" stroke="#63b8ff" points="93,-189.94 96.5,-199.94 100,-189.94 93,-189.94"/>
</a>
</g>
</g>
</g>
</svg>
