<?xml version="1.0" encoding="UTF-8" standalone="no"?>
<!DOCTYPE svg PUBLIC "-//W3C//DTD SVG 1.1//EN"
 "http://www.w3.org/Graphics/SVG/1.1/DTD/svg11.dtd">
<!-- Generated by graphviz version 2.43.0 (0)
 -->
<!-- Title: Utility.CoroutineRunner Pages: 1 -->
<svg width="370pt" height="172pt"
 viewBox="0.00 0.00 370.00 172.00" xmlns="http://www.w3.org/2000/svg" xmlns:xlink="http://www.w3.org/1999/xlink">
<g id="graph0" class="graph" transform="scale(1 1) rotate(0) translate(4 168)">
<title>Utility.CoroutineRunner</title>
<polygon fill="white" stroke="transparent" points="-4,4 -4,-168 366,-168 366,4 -4,4"/>
<!-- Node1 -->
<g id="node1" class="node">
<title>Node1</title>
<g id="a_node1"><a xlink:title="Singleton class to run the coroutines so they are easier to track">
<polygon fill="#bfbfbf" stroke="black" points="0,-0.5 0,-68.5 290,-68.5 290,-0.5 0,-0.5"/>
<text text-anchor="middle" x="145" y="-56.5" font-family="Helvetica,sans-Serif" font-size="10.00">Utility.CoroutineRunner</text>
<polyline fill="none" stroke="black" points="0,-49.5 290,-49.5 "/>
<text text-anchor="start" x="8" y="-37.5" font-family="Helvetica,sans-Serif" font-size="10.00">+ static CoroutineRunner Instance</text>
<polyline fill="none" stroke="black" points="0,-30.5 290,-30.5 "/>
<text text-anchor="start" x="8" y="-18.5" font-family="Helvetica,sans-Serif" font-size="10.00">+ static Coroutine RunCoroutine(IEnumerator coroutine)</text>
<text text-anchor="start" x="8" y="-7.5" font-family="Helvetica,sans-Serif" font-size="10.00">+ static void StopAllCoroutinesGlobal()</text>
</a>
</g>
</g>
<!-- Node1&#45;&gt;Node1 -->
<g id="edge2" class="edge">
<title>Node1&#45;&gt;Node1</title>
<path fill="none" stroke="#404040" d="M290.17,-41.81C301.21,-40.19 308,-37.75 308,-34.5 308,-32.67 305.85,-31.1 302.01,-29.79"/>
<polygon fill="none" stroke="#404040" points="301.89,-29.76 295.17,-32.38 290.17,-27.19 296.89,-24.57 301.89,-29.76"/>
<text text-anchor="middle" x="335" y="-32" font-family="Helvetica,sans-Serif" font-size="10.00"> &#45;_instance</text>
</g>
<!-- Node2 -->
<g id="node2" class="node">
<title>Node2</title>
<g id="a_node2"><a xlink:title=" ">
<polygon fill="white" stroke="#bfbfbf" points="98.5,-106.5 98.5,-163.5 191.5,-163.5 191.5,-106.5 98.5,-106.5"/>
<text text-anchor="middle" x="145" y="-151.5" font-family="Helvetica,sans-Serif" font-size="10.00">MonoBehaviour</text>
<polyline fill="none" stroke="#bfbfbf" points="98.5,-144.5 191.5,-144.5 "/>
<text text-anchor="middle" x="145" y="-132.5" font-family="Helvetica,sans-Serif" font-size="10.00"> </text>
<polyline fill="none" stroke="#bfbfbf" points="98.5,-125.5 191.5,-125.5 "/>
<text text-anchor="middle" x="145" y="-113.5" font-family="Helvetica,sans-Serif" font-size="10.00"> </text>
</a>
</g>
</g>
<!-- Node2&#45;&gt;Node1 -->
<g id="edge1" class="edge">
<title>Node2&#45;&gt;Node1</title>
<path fill="none" stroke="midnightblue" d="M145,-96.01C145,-86.96 145,-77.38 145,-68.58"/>
<polygon fill="none" stroke="midnightblue" points="141.5,-96.3 145,-106.3 148.5,-96.3 141.5,-96.3"/>
</g>
</g>
</svg>
