<?xml version="1.0" encoding="UTF-8" standalone="no"?>
<!DOCTYPE svg PUBLIC "-//W3C//DTD SVG 1.1//EN"
 "http://www.w3.org/Graphics/SVG/1.1/DTD/svg11.dtd">
<!-- Generated by graphviz version 2.43.0 (0)
 -->
<!-- Title: Game.UI.GameUI Pages: 1 -->
<svg width="946pt" height="1614pt"
 viewBox="0.00 0.00 946.00 1614.00" xmlns="http://www.w3.org/2000/svg" xmlns:xlink="http://www.w3.org/1999/xlink">
<g id="graph0" class="graph" transform="scale(1 1) rotate(0) translate(4 1610)">
<title>Game.UI.GameUI</title>
<polygon fill="white" stroke="transparent" points="-4,4 -4,-1610 942,-1610 942,4 -4,4"/>
<!-- Node1 -->
<g id="node1" class="node">
<title>Node1</title>
<g id="a_node1"><a xlink:title="Controller for the game&#39;s UI">
<polygon fill="#bfbfbf" stroke="black" points="257,-540.5 257,-960.5 601,-960.5 601,-540.5 257,-540.5"/>
<text text-anchor="middle" x="429" y="-948.5" font-family="Helvetica,sans-Serif" font-size="10.00">Game.UI.GameUI</text>
<polyline fill="none" stroke="black" points="257,-941.5 601,-941.5 "/>
<text text-anchor="start" x="265" y="-929.5" font-family="Helvetica,sans-Serif" font-size="10.00">+ bool Doubled</text>
<text text-anchor="start" x="265" y="-918.5" font-family="Helvetica,sans-Serif" font-size="10.00">+ int SelectedSkinIndex</text>
<text text-anchor="start" x="265" y="-907.5" font-family="Helvetica,sans-Serif" font-size="10.00">&#45; GameObject gameOverContainer</text>
<text text-anchor="start" x="265" y="-896.5" font-family="Helvetica,sans-Serif" font-size="10.00">&#45; GameObject ingameContainer</text>
<text text-anchor="start" x="265" y="-885.5" font-family="Helvetica,sans-Serif" font-size="10.00">&#45; GameObject mainMenuContainer</text>
<text text-anchor="start" x="265" y="-874.5" font-family="Helvetica,sans-Serif" font-size="10.00">&#45; Image SkinDisplay</text>
<text text-anchor="start" x="265" y="-863.5" font-family="Helvetica,sans-Serif" font-size="10.00">&#45; TMP_Text InfamyGameOverText</text>
<text text-anchor="start" x="265" y="-852.5" font-family="Helvetica,sans-Serif" font-size="10.00">&#45; TMP_Text CoinGameOverText</text>
<text text-anchor="start" x="265" y="-841.5" font-family="Helvetica,sans-Serif" font-size="10.00">&#45; TMP_Text InfamyInGameText</text>
<text text-anchor="start" x="265" y="-830.5" font-family="Helvetica,sans-Serif" font-size="10.00">&#45; TMP_Text TaskScoreInGameText</text>
<text text-anchor="start" x="265" y="-819.5" font-family="Helvetica,sans-Serif" font-size="10.00">&#45; TMP_Text CoinInGameText</text>
<text text-anchor="start" x="265" y="-808.5" font-family="Helvetica,sans-Serif" font-size="10.00">&#45; Button DoubleCoinButon</text>
<polyline fill="none" stroke="black" points="257,-801.5 601,-801.5 "/>
<text text-anchor="start" x="265" y="-789.5" font-family="Helvetica,sans-Serif" font-size="10.00">+ void SaveGameResult()</text>
<text text-anchor="start" x="265" y="-778.5" font-family="Helvetica,sans-Serif" font-size="10.00">+ void DoubleCoins()</text>
<text text-anchor="start" x="265" y="-767.5" font-family="Helvetica,sans-Serif" font-size="10.00">+ void BuyImmunity()</text>
<text text-anchor="start" x="265" y="-756.5" font-family="Helvetica,sans-Serif" font-size="10.00">+ void BuyTurbo()</text>
<text text-anchor="start" x="265" y="-745.5" font-family="Helvetica,sans-Serif" font-size="10.00">+ void ShowLeaderboard()</text>
<text text-anchor="start" x="265" y="-734.5" font-family="Helvetica,sans-Serif" font-size="10.00">+ void LeftRotateSkin()</text>
<text text-anchor="start" x="265" y="-723.5" font-family="Helvetica,sans-Serif" font-size="10.00">+ void RightRotateSkin()</text>
<text text-anchor="start" x="265" y="-712.5" font-family="Helvetica,sans-Serif" font-size="10.00">+ void Init(GameController gameController)</text>
<text text-anchor="start" x="265" y="-701.5" font-family="Helvetica,sans-Serif" font-size="10.00">+ async void NewGame(bool save=true)</text>
<text text-anchor="start" x="265" y="-690.5" font-family="Helvetica,sans-Serif" font-size="10.00">+ void ChangeDifficulyDisplay(int difficulty)</text>
<text text-anchor="start" x="265" y="-679.5" font-family="Helvetica,sans-Serif" font-size="10.00">+ void ShowEndGameScreen()</text>
<text text-anchor="start" x="265" y="-668.5" font-family="Helvetica,sans-Serif" font-size="10.00">+ void HideGameOverScreen(bool saveGameResults=true)</text>
<text text-anchor="start" x="265" y="-657.5" font-family="Helvetica,sans-Serif" font-size="10.00">+ void ShowShopWindow()</text>
<text text-anchor="start" x="265" y="-646.5" font-family="Helvetica,sans-Serif" font-size="10.00">+ void HideShopWindow()</text>
<text text-anchor="start" x="265" y="-635.5" font-family="Helvetica,sans-Serif" font-size="10.00">+ void BackToTasks()</text>
<text text-anchor="start" x="265" y="-624.5" font-family="Helvetica,sans-Serif" font-size="10.00">+ void BackToGameMenuWithoutSave()</text>
<text text-anchor="start" x="265" y="-613.5" font-family="Helvetica,sans-Serif" font-size="10.00">+ void BackToGameMenu()</text>
<text text-anchor="start" x="265" y="-602.5" font-family="Helvetica,sans-Serif" font-size="10.00">&#45; void Update()</text>
<text text-anchor="start" x="265" y="-591.5" font-family="Helvetica,sans-Serif" font-size="10.00">&#45; void SavedCoins(Thesis_backend.Data_Structures.Game game)</text>
<text text-anchor="start" x="265" y="-580.5" font-family="Helvetica,sans-Serif" font-size="10.00">&#45; void BoughtImmunity(Thesis_backend.Data_Structures.User user)</text>
<text text-anchor="start" x="265" y="-569.5" font-family="Helvetica,sans-Serif" font-size="10.00">&#45; void BoughtTurbo(Thesis_backend.Data_Structures.User user)</text>
<text text-anchor="start" x="265" y="-558.5" font-family="Helvetica,sans-Serif" font-size="10.00">&#45; void DoubledCoins(Thesis_backend.Data_Structures.User user)</text>
<text text-anchor="start" x="265" y="-547.5" font-family="Helvetica,sans-Serif" font-size="10.00">&#45; void ShowRequestFail(string content)</text>
</a>
</g>
</g>
<!-- Node8 -->
<g id="node8" class="node">
<title>Node8</title>
<g id="a_node8"><a xlink:href="classGame_1_1GameController.html" target="_top" xlink:title="Handles the main flow of the game scene">
<polygon fill="white" stroke="black" points="357.5,-215.5 357.5,-492.5 638.5,-492.5 638.5,-215.5 357.5,-215.5"/>
<text text-anchor="middle" x="498" y="-480.5" font-family="Helvetica,sans-Serif" font-size="10.00">Game.GameController</text>
<polyline fill="none" stroke="black" points="357.5,-473.5 638.5,-473.5 "/>
<text text-anchor="start" x="365.5" y="-461.5" font-family="Helvetica,sans-Serif" font-size="10.00">+ World.GameWorld World</text>
<text text-anchor="start" x="365.5" y="-450.5" font-family="Helvetica,sans-Serif" font-size="10.00">+ int Score</text>
<text text-anchor="start" x="365.5" y="-439.5" font-family="Helvetica,sans-Serif" font-size="10.00">+ PlayerCar? Player</text>
<text text-anchor="start" x="365.5" y="-428.5" font-family="Helvetica,sans-Serif" font-size="10.00">+ Vector3 PlayerPos</text>
<text text-anchor="start" x="365.5" y="-417.5" font-family="Helvetica,sans-Serif" font-size="10.00">+ bool Running</text>
<text text-anchor="start" x="365.5" y="-406.5" font-family="Helvetica,sans-Serif" font-size="10.00">+ int Difficulty</text>
<text text-anchor="start" x="365.5" y="-395.5" font-family="Helvetica,sans-Serif" font-size="10.00">+ float Coins</text>
<text text-anchor="start" x="365.5" y="-384.5" font-family="Helvetica,sans-Serif" font-size="10.00">&#45; int chunkLoadDistance</text>
<text text-anchor="start" x="365.5" y="-373.5" font-family="Helvetica,sans-Serif" font-size="10.00">&#45; Dictionary&lt; long, GameObject &gt; playerVariants</text>
<text text-anchor="start" x="365.5" y="-362.5" font-family="Helvetica,sans-Serif" font-size="10.00">&#45; float elapsedTime</text>
<polyline fill="none" stroke="black" points="357.5,-355.5 638.5,-355.5 "/>
<text text-anchor="start" x="365.5" y="-343.5" font-family="Helvetica,sans-Serif" font-size="10.00">+ void IncreaseCoinCount(float amount)</text>
<text text-anchor="start" x="365.5" y="-332.5" font-family="Helvetica,sans-Serif" font-size="10.00">+ async Task NewGame()</text>
<text text-anchor="start" x="365.5" y="-321.5" font-family="Helvetica,sans-Serif" font-size="10.00">+ async Task LoadAndDespawnChunks(int centerRow,</text>
<text text-anchor="start" x="365.5" y="-310.5" font-family="Helvetica,sans-Serif" font-size="10.00"> int centerColumn)</text>
<text text-anchor="start" x="365.5" y="-299.5" font-family="Helvetica,sans-Serif" font-size="10.00">&#45; void Awake()</text>
<text text-anchor="start" x="365.5" y="-288.5" font-family="Helvetica,sans-Serif" font-size="10.00">&#45; void Start()</text>
<text text-anchor="start" x="365.5" y="-277.5" font-family="Helvetica,sans-Serif" font-size="10.00">&#45; void Update()</text>
<text text-anchor="start" x="365.5" y="-266.5" font-family="Helvetica,sans-Serif" font-size="10.00">&#45; void PlayerSkinsLoaded(GameObject playerSkin)</text>
<text text-anchor="start" x="365.5" y="-255.5" font-family="Helvetica,sans-Serif" font-size="10.00">&#45; void PlayerDied(object? sender, EventArgs args)</text>
<text text-anchor="start" x="365.5" y="-244.5" font-family="Helvetica,sans-Serif" font-size="10.00">&#45; void DespawnFarAwayChunks(int row, int col)</text>
<text text-anchor="start" x="365.5" y="-233.5" font-family="Helvetica,sans-Serif" font-size="10.00">&#45; async Task SpawnNearbyChunks(int row, int col)</text>
<text text-anchor="start" x="365.5" y="-222.5" font-family="Helvetica,sans-Serif" font-size="10.00">&#45; async Task ValidateAndLoadChunk(int row, int col)</text>
</a>
</g>
</g>
<!-- Node1&#45;&gt;Node8 -->
<g id="edge15" class="edge">
<title>Node1&#45;&gt;Node8</title>
<path fill="none" stroke="#404040" d="M420.86,-540.5C422.2,-530.48 423.89,-520.61 426,-511 426.48,-508.8 427,-506.6 427.55,-504.39"/>
<polygon fill="none" stroke="#404040" points="427.62,-504.13 425.33,-497.29 430.77,-492.56 433.05,-499.4 427.62,-504.13"/>
<text text-anchor="middle" x="449" y="-514" font-family="Helvetica,sans-Serif" font-size="10.00"> &#45;gameUI</text>
</g>
<!-- Node2 -->
<g id="node2" class="node">
<title>Node2</title>
<g id="a_node2"><a xlink:href="classUtility_1_1ThreadSafeMonoBehaviour.html" target="_top" xlink:title="Safely stores if the gameobject been destroyed in a bool">
<polygon fill="white" stroke="black" points="287.5,-1453.5 287.5,-1510.5 436.5,-1510.5 436.5,-1453.5 287.5,-1453.5"/>
<text text-anchor="middle" x="362" y="-1498.5" font-family="Helvetica,sans-Serif" font-size="10.00">ThreadSafeMonoBehaviour</text>
<polyline fill="none" stroke="black" points="287.5,-1491.5 436.5,-1491.5 "/>
<text text-anchor="start" x="295.5" y="-1479.5" font-family="Helvetica,sans-Serif" font-size="10.00">+ bool Destroyed</text>
<polyline fill="none" stroke="black" points="287.5,-1472.5 436.5,-1472.5 "/>
<text text-anchor="start" x="295.5" y="-1460.5" font-family="Helvetica,sans-Serif" font-size="10.00"># void OnDestroy()</text>
</a>
</g>
</g>
<!-- Node2&#45;&gt;Node1 -->
<g id="edge1" class="edge">
<title>Node2&#45;&gt;Node1</title>
<path fill="none" stroke="midnightblue" d="M277.38,-1463.82C245.34,-1454.01 210.29,-1438.93 184,-1416 40.86,-1291.19 -31.3,-1176.14 57,-1008 99.67,-926.74 181.04,-866.18 256.83,-824.37"/>
<polygon fill="none" stroke="midnightblue" points="276.63,-1467.25 287.21,-1466.69 278.6,-1460.53 276.63,-1467.25"/>
</g>
<!-- Node4 -->
<g id="node4" class="node">
<title>Node4</title>
<g id="a_node4"><a xlink:href="classGame_1_1UI_1_1ShopWindow.html" target="_top" xlink:title="Handles the shop window&#39;s content display">
<polygon fill="white" stroke="black" points="66,-1008.5 66,-1175.5 326,-1175.5 326,-1008.5 66,-1008.5"/>
<text text-anchor="middle" x="196" y="-1163.5" font-family="Helvetica,sans-Serif" font-size="10.00">Game.UI.ShopWindow</text>
<polyline fill="none" stroke="black" points="66,-1156.5 326,-1156.5 "/>
<text text-anchor="start" x="74" y="-1144.5" font-family="Helvetica,sans-Serif" font-size="10.00">+ List&lt; Sprite &gt; ShopItemSprites</text>
<text text-anchor="start" x="74" y="-1133.5" font-family="Helvetica,sans-Serif" font-size="10.00">&#45; GameObject ShopParent</text>
<text text-anchor="start" x="74" y="-1122.5" font-family="Helvetica,sans-Serif" font-size="10.00">&#45; GameObject ShopItemPrefab</text>
<text text-anchor="start" x="74" y="-1111.5" font-family="Helvetica,sans-Serif" font-size="10.00">&#45; TMP_Text CoinText</text>
<text text-anchor="start" x="74" y="-1100.5" font-family="Helvetica,sans-Serif" font-size="10.00">&#45; List&lt; Shop &gt; shopItemsCache</text>
<polyline fill="none" stroke="black" points="66,-1093.5 326,-1093.5 "/>
<text text-anchor="start" x="74" y="-1081.5" font-family="Helvetica,sans-Serif" font-size="10.00">+ void Show()</text>
<text text-anchor="start" x="74" y="-1070.5" font-family="Helvetica,sans-Serif" font-size="10.00">+ void Hide()</text>
<text text-anchor="start" x="74" y="-1059.5" font-family="Helvetica,sans-Serif" font-size="10.00">+ void ShowRequestFail(string content)</text>
<text text-anchor="start" x="74" y="-1048.5" font-family="Helvetica,sans-Serif" font-size="10.00">+ void UpdateShop()</text>
<text text-anchor="start" x="74" y="-1037.5" font-family="Helvetica,sans-Serif" font-size="10.00">+ string GetCoinText()</text>
<text text-anchor="start" x="74" y="-1026.5" font-family="Helvetica,sans-Serif" font-size="10.00">+ GameObject GetShopParent()</text>
<text text-anchor="start" x="74" y="-1015.5" font-family="Helvetica,sans-Serif" font-size="10.00">&#45; void LoadedShopItems(List&lt; Shop &gt; shopItems)</text>
</a>
</g>
</g>
<!-- Node2&#45;&gt;Node4 -->
<g id="edge4" class="edge">
<title>Node2&#45;&gt;Node4</title>
<path fill="none" stroke="midnightblue" d="M277.99,-1454.27C260.23,-1444.86 243.43,-1432.39 232,-1416 183.18,-1346.01 179.48,-1245.97 184.63,-1175.82"/>
<polygon fill="none" stroke="midnightblue" points="276.82,-1457.6 287.33,-1458.91 279.94,-1451.33 276.82,-1457.6"/>
</g>
<!-- Node5 -->
<g id="node5" class="node">
<title>Node5</title>
<g id="a_node5"><a xlink:href="classUtility_1_1ModalWindow.html" target="_top" xlink:title="Modal window for alerting the user">
<polygon fill="white" stroke="black" points="241,-1292.5 241,-1415.5 483,-1415.5 483,-1292.5 241,-1292.5"/>
<text text-anchor="middle" x="362" y="-1403.5" font-family="Helvetica,sans-Serif" font-size="10.00">Utility.ModalWindow</text>
<polyline fill="none" stroke="black" points="241,-1396.5 483,-1396.5 "/>
<text text-anchor="start" x="249" y="-1384.5" font-family="Helvetica,sans-Serif" font-size="10.00">&#45; TMP_Text ModalTitleText</text>
<text text-anchor="start" x="249" y="-1373.5" font-family="Helvetica,sans-Serif" font-size="10.00">&#45; TMP_Text ModalContentText</text>
<text text-anchor="start" x="249" y="-1362.5" font-family="Helvetica,sans-Serif" font-size="10.00">&#45; Action onOkAction</text>
<polyline fill="none" stroke="black" points="241,-1355.5 483,-1355.5 "/>
<text text-anchor="start" x="249" y="-1343.5" font-family="Helvetica,sans-Serif" font-size="10.00">+ void Show()</text>
<text text-anchor="start" x="249" y="-1332.5" font-family="Helvetica,sans-Serif" font-size="10.00">+ void Show(string title, string content, Action</text>
<text text-anchor="start" x="249" y="-1321.5" font-family="Helvetica,sans-Serif" font-size="10.00"> onOkAction=null)</text>
<text text-anchor="start" x="249" y="-1310.5" font-family="Helvetica,sans-Serif" font-size="10.00">+ void Hide()</text>
<text text-anchor="start" x="249" y="-1299.5" font-family="Helvetica,sans-Serif" font-size="10.00">+ void ConfirmButtonClick()</text>
</a>
</g>
</g>
<!-- Node2&#45;&gt;Node5 -->
<g id="edge6" class="edge">
<title>Node2&#45;&gt;Node5</title>
<path fill="none" stroke="midnightblue" d="M362,-1443.18C362,-1434.49 362,-1425.03 362,-1415.65"/>
<polygon fill="none" stroke="midnightblue" points="358.5,-1443.35 362,-1453.35 365.5,-1443.35 358.5,-1443.35"/>
</g>
<!-- Node6 -->
<g id="node6" class="node">
<title>Node6</title>
<g id="a_node6"><a xlink:href="classGame_1_1UI_1_1LeaderboardWindow.html" target="_top" xlink:title="Handles the leaderboard display window">
<polygon fill="white" stroke="black" points="456.5,-1030.5 456.5,-1153.5 737.5,-1153.5 737.5,-1030.5 456.5,-1030.5"/>
<text text-anchor="middle" x="597" y="-1141.5" font-family="Helvetica,sans-Serif" font-size="10.00">Game.UI.LeaderboardWindow</text>
<polyline fill="none" stroke="black" points="456.5,-1134.5 737.5,-1134.5 "/>
<text text-anchor="start" x="464.5" y="-1122.5" font-family="Helvetica,sans-Serif" font-size="10.00">&#45; GameObject scoreParent</text>
<text text-anchor="start" x="464.5" y="-1111.5" font-family="Helvetica,sans-Serif" font-size="10.00">&#45; TMP_Dropdown filterTypeDropdown</text>
<text text-anchor="start" x="464.5" y="-1100.5" font-family="Helvetica,sans-Serif" font-size="10.00">&#45; GameObject LeaderboardItemPrefab</text>
<polyline fill="none" stroke="black" points="456.5,-1093.5 737.5,-1093.5 "/>
<text text-anchor="start" x="464.5" y="-1081.5" font-family="Helvetica,sans-Serif" font-size="10.00">+ void Show()</text>
<text text-anchor="start" x="464.5" y="-1070.5" font-family="Helvetica,sans-Serif" font-size="10.00">+ void Hide()</text>
<text text-anchor="start" x="464.5" y="-1059.5" font-family="Helvetica,sans-Serif" font-size="10.00">+ void LoadScores()</text>
<text text-anchor="start" x="464.5" y="-1048.5" font-family="Helvetica,sans-Serif" font-size="10.00">&#45; void ShowRequestFail(string content)</text>
<text text-anchor="start" x="464.5" y="-1037.5" font-family="Helvetica,sans-Serif" font-size="10.00">&#45; void LoadedScores(List&lt; GameScore &gt; gameScores)</text>
</a>
</g>
</g>
<!-- Node2&#45;&gt;Node6 -->
<g id="edge8" class="edge">
<title>Node2&#45;&gt;Node6</title>
<path fill="none" stroke="midnightblue" d="M445.6,-1451.31C462.74,-1442.13 479.37,-1430.5 492,-1416 557.45,-1340.86 582.25,-1224.16 591.54,-1153.52"/>
<polygon fill="none" stroke="midnightblue" points="443.94,-1448.23 436.62,-1455.89 447.12,-1454.47 443.94,-1448.23"/>
</g>
<!-- Node7 -->
<g id="node7" class="node">
<title>Node7</title>
<g id="a_node7"><a xlink:href="classGame_1_1UI_1_1StarHandler.html" target="_top" xlink:title="Star handler">
<polygon fill="white" stroke="black" points="611.5,-1194.5 611.5,-1273.5 810.5,-1273.5 810.5,-1194.5 611.5,-1194.5"/>
<text text-anchor="middle" x="711" y="-1261.5" font-family="Helvetica,sans-Serif" font-size="10.00">Game.UI.StarHandler</text>
<polyline fill="none" stroke="black" points="611.5,-1254.5 810.5,-1254.5 "/>
<text text-anchor="start" x="619.5" y="-1242.5" font-family="Helvetica,sans-Serif" font-size="10.00">&#45; List&lt; Image &gt; Stars</text>
<text text-anchor="start" x="619.5" y="-1231.5" font-family="Helvetica,sans-Serif" font-size="10.00">&#45; Sprite fullStarSprite</text>
<text text-anchor="start" x="619.5" y="-1220.5" font-family="Helvetica,sans-Serif" font-size="10.00">&#45; Sprite emptyStarSprite</text>
<polyline fill="none" stroke="black" points="611.5,-1213.5 810.5,-1213.5 "/>
<text text-anchor="start" x="619.5" y="-1201.5" font-family="Helvetica,sans-Serif" font-size="10.00">+ void ChangeDifficulty(int difficulty)</text>
</a>
</g>
</g>
<!-- Node2&#45;&gt;Node7 -->
<g id="edge11" class="edge">
<title>Node2&#45;&gt;Node7</title>
<path fill="none" stroke="midnightblue" d="M446.8,-1475.95C486.29,-1470.28 532.3,-1458.64 568,-1435 628.68,-1394.82 671.96,-1319.45 694.11,-1273.58"/>
<polygon fill="none" stroke="midnightblue" points="446.1,-1472.52 436.65,-1477.3 447.02,-1479.45 446.1,-1472.52"/>
</g>
<!-- Node2&#45;&gt;Node8 -->
<g id="edge14" class="edge">
<title>Node2&#45;&gt;Node8</title>
<path fill="none" stroke="midnightblue" d="M446.74,-1477.19C590.33,-1468.39 866,-1440.38 866,-1355 866,-1355 866,-1355 866,-749.5 866,-610.65 742.59,-500.31 638.7,-432.04"/>
<polygon fill="none" stroke="midnightblue" points="446.41,-1473.7 436.64,-1477.79 446.83,-1480.69 446.41,-1473.7"/>
</g>
<!-- Node10 -->
<g id="node10" class="node">
<title>Node10</title>
<g id="a_node10"><a xlink:href="classGame_1_1World_1_1CarSpawner.html" target="_top" xlink:title="Car spawner">
<polygon fill="white" stroke="black" points="272.5,-0.5 272.5,-167.5 511.5,-167.5 511.5,-0.5 272.5,-0.5"/>
<text text-anchor="middle" x="392" y="-155.5" font-family="Helvetica,sans-Serif" font-size="10.00">Game.World.CarSpawner</text>
<polyline fill="none" stroke="black" points="272.5,-148.5 511.5,-148.5 "/>
<text text-anchor="start" x="280.5" y="-136.5" font-family="Helvetica,sans-Serif" font-size="10.00">&#45; List&lt; GameObject &gt; CopCars</text>
<text text-anchor="start" x="280.5" y="-125.5" font-family="Helvetica,sans-Serif" font-size="10.00">&#45; List&lt; GameObject &gt; CitizenCars</text>
<text text-anchor="start" x="280.5" y="-114.5" font-family="Helvetica,sans-Serif" font-size="10.00">&#45; Dictionary&lt; int, float &gt; spawnIntervalsTier1</text>
<text text-anchor="start" x="280.5" y="-103.5" font-family="Helvetica,sans-Serif" font-size="10.00">&#45; Dictionary&lt; int, float &gt; spawnIntervalsTier2</text>
<text text-anchor="start" x="280.5" y="-92.5" font-family="Helvetica,sans-Serif" font-size="10.00">&#45; Dictionary&lt; int, float &gt; spawnIntervalsTier3</text>
<text text-anchor="start" x="280.5" y="-81.5" font-family="Helvetica,sans-Serif" font-size="10.00">&#45; float tier1SpawnerTimer</text>
<text text-anchor="start" x="280.5" y="-70.5" font-family="Helvetica,sans-Serif" font-size="10.00">&#45; float tier2SpawnerTimer</text>
<text text-anchor="start" x="280.5" y="-59.5" font-family="Helvetica,sans-Serif" font-size="10.00">&#45; float tier3SpawnerTimer</text>
<polyline fill="none" stroke="black" points="272.5,-52.5 511.5,-52.5 "/>
<text text-anchor="start" x="280.5" y="-40.5" font-family="Helvetica,sans-Serif" font-size="10.00">+ void Update()</text>
<text text-anchor="start" x="280.5" y="-29.5" font-family="Helvetica,sans-Serif" font-size="10.00">+ void SpawnPolice(GameObject carPrefab)</text>
<text text-anchor="start" x="280.5" y="-18.5" font-family="Helvetica,sans-Serif" font-size="10.00">+ void Reset()</text>
<text text-anchor="start" x="280.5" y="-7.5" font-family="Helvetica,sans-Serif" font-size="10.00">+ void SpawnNpc()</text>
</a>
</g>
</g>
<!-- Node2&#45;&gt;Node10 -->
<g id="edge18" class="edge">
<title>Node2&#45;&gt;Node10</title>
<path fill="none" stroke="midnightblue" d="M277.34,-1474.6C215.56,-1467.11 131.37,-1450.94 65,-1416 29.94,-1397.55 0,-1394.62 0,-1355 0,-1355 0,-1355 0,-353 0,-219.45 156.98,-147.6 272.26,-112.85"/>
<polygon fill="none" stroke="midnightblue" points="277.11,-1478.09 287.44,-1475.77 277.91,-1471.14 277.11,-1478.09"/>
</g>
<!-- Node3 -->
<g id="node3" class="node">
<title>Node3</title>
<g id="a_node3"><a xlink:title=" ">
<polygon fill="white" stroke="#bfbfbf" points="315.5,-1548.5 315.5,-1605.5 408.5,-1605.5 408.5,-1548.5 315.5,-1548.5"/>
<text text-anchor="middle" x="362" y="-1593.5" font-family="Helvetica,sans-Serif" font-size="10.00">MonoBehaviour</text>
<polyline fill="none" stroke="#bfbfbf" points="315.5,-1586.5 408.5,-1586.5 "/>
<text text-anchor="middle" x="362" y="-1574.5" font-family="Helvetica,sans-Serif" font-size="10.00"> </text>
<polyline fill="none" stroke="#bfbfbf" points="315.5,-1567.5 408.5,-1567.5 "/>
<text text-anchor="middle" x="362" y="-1555.5" font-family="Helvetica,sans-Serif" font-size="10.00"> </text>
</a>
</g>
</g>
<!-- Node3&#45;&gt;Node2 -->
<g id="edge2" class="edge">
<title>Node3&#45;&gt;Node2</title>
<path fill="none" stroke="midnightblue" d="M362,-1538.24C362,-1529.03 362,-1519.35 362,-1510.71"/>
<polygon fill="none" stroke="midnightblue" points="358.5,-1538.35 362,-1548.35 365.5,-1538.35 358.5,-1538.35"/>
</g>
<!-- Node4&#45;&gt;Node1 -->
<g id="edge3" class="edge">
<title>Node4&#45;&gt;Node1</title>
<path fill="none" stroke="#404040" d="M252.7,-1008.38C260.86,-996.5 269.55,-983.83 278.54,-970.73"/>
<polygon fill="none" stroke="#404040" points="278.68,-970.53 278.78,-963.32 285.47,-960.63 285.37,-967.84 278.68,-970.53"/>
<text text-anchor="middle" x="307" y="-982" font-family="Helvetica,sans-Serif" font-size="10.00"> &#45;ShopWindow</text>
</g>
<!-- Node5&#45;&gt;Node1 -->
<g id="edge12" class="edge">
<title>Node5&#45;&gt;Node1</title>
<path fill="none" stroke="#404040" d="M360,-1292.28C358.55,-1223.15 358.64,-1106.99 371,-1008 372.45,-996.36 374.2,-984.48 376.16,-972.51"/>
<polygon fill="none" stroke="#404040" points="376.19,-972.36 373.25,-965.77 378.2,-960.53 381.14,-967.11 376.19,-972.36"/>
<text text-anchor="middle" x="409" y="-1089.5" font-family="Helvetica,sans-Serif" font-size="10.00"> &#45;ModalWindow</text>
</g>
<!-- Node5&#45;&gt;Node4 -->
<g id="edge5" class="edge">
<title>Node5&#45;&gt;Node4</title>
<path fill="none" stroke="#404040" d="M286.96,-1292.18C281.57,-1286.33 276.49,-1280.24 272,-1274 253.28,-1247.99 238.06,-1216.68 226.29,-1187.46"/>
<polygon fill="none" stroke="#404040" points="226.16,-1187.12 220.25,-1182.99 221.79,-1175.95 227.7,-1180.08 226.16,-1187.12"/>
<text text-anchor="middle" x="310" y="-1231.5" font-family="Helvetica,sans-Serif" font-size="10.00"> &#45;ModalWindow</text>
</g>
<!-- Node5&#45;&gt;Node6 -->
<g id="edge9" class="edge">
<title>Node5&#45;&gt;Node6</title>
<path fill="none" stroke="#404040" d="M394.04,-1292.45C412.21,-1261.18 436.74,-1223.51 464,-1194 474.5,-1182.63 486.41,-1171.61 498.68,-1161.29"/>
<polygon fill="none" stroke="#404040" points="498.84,-1161.15 500.94,-1154.25 508.12,-1153.54 506.02,-1160.43 498.84,-1161.15"/>
<text text-anchor="middle" x="502" y="-1231.5" font-family="Helvetica,sans-Serif" font-size="10.00"> &#45;ModalWindow</text>
</g>
<!-- Node6&#45;&gt;Node1 -->
<g id="edge7" class="edge">
<title>Node6&#45;&gt;Node1</title>
<path fill="none" stroke="#404040" d="M566.96,-1030.3C558.33,-1012.85 548.37,-992.72 537.83,-971.44"/>
<polygon fill="none" stroke="#404040" points="537.77,-971.31 531.53,-967.71 532.45,-960.56 538.7,-964.16 537.77,-971.31"/>
<text text-anchor="middle" x="595.5" y="-982" font-family="Helvetica,sans-Serif" font-size="10.00"> &#45;leaderboardWindow</text>
</g>
<!-- Node7&#45;&gt;Node1 -->
<g id="edge10" class="edge">
<title>Node7&#45;&gt;Node1</title>
<path fill="none" stroke="#404040" d="M738.47,-1194.45C741.56,-1188.51 744.23,-1182.26 746,-1176 766.3,-1104.15 778.16,-1075.39 746,-1008 716.66,-946.52 664.59,-895.02 611.03,-854.68"/>
<polygon fill="none" stroke="#404040" points="611.01,-854.67 603.81,-854.32 601.37,-847.54 608.57,-847.89 611.01,-854.67"/>
<text text-anchor="middle" x="798" y="-1089.5" font-family="Helvetica,sans-Serif" font-size="10.00"> &#45;starHandler</text>
</g>
<!-- Node8&#45;&gt;Node1 -->
<g id="edge13" class="edge">
<title>Node8&#45;&gt;Node1</title>
<path fill="none" stroke="#404040" d="M480.66,-492.73C479.17,-502.65 477.61,-512.48 476,-522 475.63,-524.18 475.26,-526.37 474.88,-528.57"/>
<polygon fill="none" stroke="#404040" points="474.87,-528.6 477.78,-535.2 472.8,-540.42 469.9,-533.82 474.87,-528.6"/>
<text text-anchor="middle" x="519.5" y="-514" font-family="Helvetica,sans-Serif" font-size="10.00"> &#45;gameController</text>
</g>
<!-- Node8&#45;&gt;Node10 -->
<g id="edge19" class="edge">
<title>Node8&#45;&gt;Node10</title>
<path fill="none" stroke="#404040" d="M395.75,-215.31C393.21,-209.26 390.93,-203.15 389,-197 387.25,-191.44 385.95,-185.64 385.02,-179.74"/>
<polygon fill="none" stroke="#404040" points="384.99,-179.45 380.32,-173.95 383.6,-167.53 388.27,-173.03 384.99,-179.45"/>
<text text-anchor="middle" x="430.5" y="-189" font-family="Helvetica,sans-Serif" font-size="10.00"> &#45;gameController</text>
</g>
<!-- Node9 -->
<g id="node9" class="node">
<title>Node9</title>
<g id="a_node9"><a xlink:title=" ">
<polygon fill="white" stroke="#bfbfbf" points="894,-722 894,-779 938,-779 938,-722 894,-722"/>
<text text-anchor="middle" x="916" y="-767" font-family="Helvetica,sans-Serif" font-size="10.00">World</text>
<polyline fill="none" stroke="#bfbfbf" points="894,-760 938,-760 "/>
<text text-anchor="middle" x="916" y="-748" font-family="Helvetica,sans-Serif" font-size="10.00"> </text>
<polyline fill="none" stroke="#bfbfbf" points="894,-741 938,-741 "/>
<text text-anchor="middle" x="916" y="-729" font-family="Helvetica,sans-Serif" font-size="10.00"> </text>
</a>
</g>
</g>
<!-- Node9&#45;&gt;Node8 -->
<g id="edge16" class="edge">
<title>Node9&#45;&gt;Node8</title>
<path fill="none" stroke="#404040" d="M919.95,-721.83C925.23,-673.56 928.93,-573.21 880,-511 824.28,-440.16 731.07,-401.27 650.67,-380.04"/>
<polygon fill="none" stroke="#404040" points="650.53,-380 643.73,-382.39 638.9,-377.03 645.71,-374.64 650.53,-380"/>
<text text-anchor="middle" x="904" y="-514" font-family="Helvetica,sans-Serif" font-size="10.00"> &#45;world</text>
</g>
<!-- Node10&#45;&gt;Node8 -->
<g id="edge17" class="edge">
<title>Node10&#45;&gt;Node8</title>
<path fill="none" stroke="#404040" d="M466.4,-167.51C470,-173.55 473.26,-179.73 476,-186 478.5,-191.71 480.74,-197.64 482.73,-203.69"/>
<polygon fill="none" stroke="#404040" points="482.82,-203.99 488.39,-208.58 486.29,-215.48 480.73,-210.89 482.82,-203.99"/>
<text text-anchor="middle" x="512" y="-189" font-family="Helvetica,sans-Serif" font-size="10.00"> &#45;carSpawner</text>
</g>
</g>
</svg>
