<?xml version="1.0" encoding="UTF-8" standalone="no"?>
<!DOCTYPE svg PUBLIC "-//W3C//DTD SVG 1.1//EN"
 "http://www.w3.org/Graphics/SVG/1.1/DTD/svg11.dtd">
<!-- Generated by graphviz version 2.43.0 (0)
 -->
<!-- Title: Game.Car Pages: 1 -->
<!--zoomable 794 -->
<svg id="main" version="1.1" xmlns="http://www.w3.org/2000/svg" xmlns:xlink="http://www.w3.org/1999/xlink" xml:space="preserve" onload="init(evt)">
<style type="text/css"><![CDATA[
.edge:hover path { stroke: red; }
.edge:hover polygon { stroke: red; fill: red; }
]]></style>
<script type="text/javascript"><![CDATA[
var edges = document.getElementsByTagName('g');
if (edges && edges.length) {
  for (var i=0;i<edges.length;i++) {
    if (edges[i].id.substr(0,4)=='edge') {
      edges[i].setAttribute('class','edge');
    }
  }
}
]]></script>
        <defs>
                <circle id="rim" cx="0" cy="0" r="7"/>
                <circle id="rim2" cx="0" cy="0" r="3.5"/>
                <g id="zoomPlus">
                        <use xlink:href="#rim" fill="#404040">
                                <set attributeName="fill" to="#808080" begin="zoomplus.mouseover" end="zoomplus.mouseout"/>
                        </use>
                        <path d="M-4,0h8M0,-4v8" fill="none" stroke="white" stroke-width="1.5" pointer-events="none"/>
                </g>
                <g id="zoomMin">
                        <use xlink:href="#rim" fill="#404040">
                                <set attributeName="fill" to="#808080" begin="zoomminus.mouseover" end="zoomminus.mouseout"/>
                        </use>
                        <path d="M-4,0h8" fill="none" stroke="white" stroke-width="1.5" pointer-events="none"/>
                </g>
                <g id="dirArrow">
                        <path fill="none" stroke="white" stroke-width="1.5" d="M0,-3.0v7 M-2.5,-0.5L0,-3.0L2.5,-0.5"/>
                </g>
               <g id="resetDef">
                       <use xlink:href="#rim2" fill="#404040">
                               <set attributeName="fill" to="#808080" begin="reset.mouseover" end="reset.mouseout"/>
                       </use>
               </g>
        </defs>

<script type="text/javascript">
var viewWidth = 586;
var viewHeight = 794;
var sectionId = 'dynsection-0';
</script>
<script xlink:href="svgpan.js"/>
<svg id="graph" class="graph">
<g id="viewport">
<title>Game.Car</title>
<polygon fill="white" stroke="transparent" points="-4,4 -4,-790 582,-790 582,4 -4,4"/>
<!-- Node1 -->
<g id="node1" class="node">
<title>Node1</title>
<g id="a_node1"><a xlink:title=" ">
<polygon fill="#bfbfbf" stroke="black" points="140.5,-386.5 140.5,-597.5 424.5,-597.5 424.5,-386.5 140.5,-386.5"/>
<text text-anchor="middle" x="282.5" y="-585.5" font-family="Helvetica,sans-Serif" font-size="10.00">Game.Car</text>
<polyline fill="none" stroke="black" points="140.5,-578.5 424.5,-578.5 "/>
<text text-anchor="start" x="148.5" y="-566.5" font-family="Helvetica,sans-Serif" font-size="10.00">+ EventHandler DestroyedEvent</text>
<text text-anchor="start" x="148.5" y="-555.5" font-family="Helvetica,sans-Serif" font-size="10.00">+ float Health</text>
<text text-anchor="start" x="148.5" y="-544.5" font-family="Helvetica,sans-Serif" font-size="10.00">+ float MAX_HEALTH</text>
<text text-anchor="start" x="148.5" y="-533.5" font-family="Helvetica,sans-Serif" font-size="10.00">+ bool Alive</text>
<text text-anchor="start" x="148.5" y="-522.5" font-family="Helvetica,sans-Serif" font-size="10.00"># GameController gameController</text>
<text text-anchor="start" x="148.5" y="-511.5" font-family="Helvetica,sans-Serif" font-size="10.00"># CarController carController</text>
<text text-anchor="start" x="148.5" y="-500.5" font-family="Helvetica,sans-Serif" font-size="10.00"># Chunk lastChunk</text>
<text text-anchor="start" x="148.5" y="-489.5" font-family="Helvetica,sans-Serif" font-size="10.00"># Dictionary&lt; EffectType, EffectScript &gt; effects</text>
<text text-anchor="start" x="148.5" y="-478.5" font-family="Helvetica,sans-Serif" font-size="10.00">&#45; float health</text>
<polyline fill="none" stroke="black" points="140.5,-471.5 424.5,-471.5 "/>
<text text-anchor="start" x="148.5" y="-459.5" font-family="Helvetica,sans-Serif" font-size="10.00">+ void Kill()</text>
<text text-anchor="start" x="148.5" y="-448.5" font-family="Helvetica,sans-Serif" font-size="10.00">+ void Init(GameController world)</text>
<text text-anchor="start" x="148.5" y="-437.5" font-family="Helvetica,sans-Serif" font-size="10.00"># virtual void Update()</text>
<text text-anchor="start" x="148.5" y="-426.5" font-family="Helvetica,sans-Serif" font-size="10.00"># bool ChangeChunkIfNeeded()</text>
<text text-anchor="start" x="148.5" y="-415.5" font-family="Helvetica,sans-Serif" font-size="10.00"># virtual async void ChunkChanged(Chunk newChunk)</text>
<text text-anchor="start" x="148.5" y="-404.5" font-family="Helvetica,sans-Serif" font-size="10.00"># virtual void OnCollisionEnter(Collision collision)</text>
<text text-anchor="start" x="148.5" y="-393.5" font-family="Helvetica,sans-Serif" font-size="10.00"># void Awake()</text>
</a>
</g>
</g>
<!-- Node4 -->
<g id="node4" class="node">
<title>Node4</title>
<g id="a_node4"><a xlink:href="classGame_1_1NpcCar.html" target="_top" xlink:title=" ">
<polygon fill="white" stroke="black" points="0,-193.5 0,-250.5 267,-250.5 267,-193.5 0,-193.5"/>
<text text-anchor="middle" x="133.5" y="-238.5" font-family="Helvetica,sans-Serif" font-size="10.00">Game.NpcCar</text>
<polyline fill="none" stroke="black" points="0,-231.5 267,-231.5 "/>
<text text-anchor="middle" x="133.5" y="-219.5" font-family="Helvetica,sans-Serif" font-size="10.00"> </text>
<polyline fill="none" stroke="black" points="0,-212.5 267,-212.5 "/>
<text text-anchor="start" x="8" y="-200.5" font-family="Helvetica,sans-Serif" font-size="10.00">+ float DetermineSteeringDirectionTowardsPlayer()</text>
</a>
</g>
</g>
<!-- Node1&#45;&gt;Node4 -->
<g id="edge3" class="edge">
<title>Node1&#45;&gt;Node4</title>
<path fill="none" stroke="midnightblue" d="M219.27,-377.27C193.37,-330.68 165.6,-280.74 148.89,-250.69"/>
<polygon fill="none" stroke="midnightblue" points="216.33,-379.19 224.25,-386.23 222.45,-375.79 216.33,-379.19"/>
</g>
<!-- Node6 -->
<g id="node6" class="node">
<title>Node6</title>
<g id="a_node6"><a xlink:href="classGame_1_1PlayerCar.html" target="_top" xlink:title=" ">
<polygon fill="white" stroke="black" points="285,-94.5 285,-349.5 578,-349.5 578,-94.5 285,-94.5"/>
<text text-anchor="middle" x="431.5" y="-337.5" font-family="Helvetica,sans-Serif" font-size="10.00">Game.PlayerCar</text>
<polyline fill="none" stroke="black" points="285,-330.5 578,-330.5 "/>
<text text-anchor="start" x="293" y="-318.5" font-family="Helvetica,sans-Serif" font-size="10.00">+ int SkinId</text>
<text text-anchor="start" x="293" y="-307.5" font-family="Helvetica,sans-Serif" font-size="10.00">+ bool Immune</text>
<text text-anchor="start" x="293" y="-296.5" font-family="Helvetica,sans-Serif" font-size="10.00">+ bool Turbo</text>
<text text-anchor="start" x="293" y="-285.5" font-family="Helvetica,sans-Serif" font-size="10.00">&#45; float coinMultiplier</text>
<text text-anchor="start" x="293" y="-274.5" font-family="Helvetica,sans-Serif" font-size="10.00">&#45; Keyboard keyboard</text>
<text text-anchor="start" x="293" y="-263.5" font-family="Helvetica,sans-Serif" font-size="10.00">&#45; int probeSize</text>
<text text-anchor="start" x="293" y="-252.5" font-family="Helvetica,sans-Serif" font-size="10.00">&#45; List&lt; PoliceContainer &gt; policeContacts</text>
<text text-anchor="start" x="293" y="-241.5" font-family="Helvetica,sans-Serif" font-size="10.00">&#45; float turboTimer</text>
<text text-anchor="start" x="293" y="-230.5" font-family="Helvetica,sans-Serif" font-size="10.00">&#45; float immuneTimer</text>
<polyline fill="none" stroke="black" points="285,-223.5 578,-223.5 "/>
<text text-anchor="start" x="293" y="-211.5" font-family="Helvetica,sans-Serif" font-size="10.00">+ void PickedUpCoin()</text>
<text text-anchor="start" x="293" y="-200.5" font-family="Helvetica,sans-Serif" font-size="10.00">+ void ApplyTurbo()</text>
<text text-anchor="start" x="293" y="-189.5" font-family="Helvetica,sans-Serif" font-size="10.00">+ void ApplyImmunity()</text>
<text text-anchor="start" x="293" y="-178.5" font-family="Helvetica,sans-Serif" font-size="10.00">+ void CancelTurbo()</text>
<text text-anchor="start" x="293" y="-167.5" font-family="Helvetica,sans-Serif" font-size="10.00">+ void CancelImmunity()</text>
<text text-anchor="start" x="293" y="-156.5" font-family="Helvetica,sans-Serif" font-size="10.00"># new void Awake()</text>
<text text-anchor="start" x="293" y="-145.5" font-family="Helvetica,sans-Serif" font-size="10.00"># override async void ChunkChanged(Chunk newChunk)</text>
<text text-anchor="start" x="293" y="-134.5" font-family="Helvetica,sans-Serif" font-size="10.00"># override void Update()</text>
<text text-anchor="start" x="293" y="-123.5" font-family="Helvetica,sans-Serif" font-size="10.00"># override void OnCollisionEnter(Collision collision)</text>
<text text-anchor="start" x="293" y="-112.5" font-family="Helvetica,sans-Serif" font-size="10.00">&#45; void FixedUpdate()</text>
<text text-anchor="start" x="293" y="-101.5" font-family="Helvetica,sans-Serif" font-size="10.00">&#45; void OnCollisionExit(Collision collision)</text>
</a>
</g>
</g>
<!-- Node1&#45;&gt;Node6 -->
<g id="edge5" class="edge">
<title>Node1&#45;&gt;Node6</title>
<path fill="none" stroke="midnightblue" d="M345.64,-377.43C350.77,-368.21 355.97,-358.85 361.15,-349.54"/>
<polygon fill="none" stroke="midnightblue" points="342.55,-375.79 340.75,-386.23 348.67,-379.19 342.55,-375.79"/>
</g>
<!-- Node2 -->
<g id="node2" class="node">
<title>Node2</title>
<g id="a_node2"><a xlink:href="classUtility_1_1ThreadSafeMonoBehaviour.html" target="_top" xlink:title="Safely stores if the gameobject been destroyed in a bool">
<polygon fill="white" stroke="black" points="208,-634.5 208,-691.5 357,-691.5 357,-634.5 208,-634.5"/>
<text text-anchor="middle" x="282.5" y="-679.5" font-family="Helvetica,sans-Serif" font-size="10.00">ThreadSafeMonoBehaviour</text>
<polyline fill="none" stroke="black" points="208,-672.5 357,-672.5 "/>
<text text-anchor="start" x="216" y="-660.5" font-family="Helvetica,sans-Serif" font-size="10.00">+ bool Destroyed</text>
<polyline fill="none" stroke="black" points="208,-653.5 357,-653.5 "/>
<text text-anchor="start" x="216" y="-641.5" font-family="Helvetica,sans-Serif" font-size="10.00"># void OnDestroy()</text>
</a>
</g>
</g>
<!-- Node2&#45;&gt;Node1 -->
<g id="edge1" class="edge">
<title>Node2&#45;&gt;Node1</title>
<path fill="none" stroke="midnightblue" d="M282.5,-624.23C282.5,-616.04 282.5,-606.99 282.5,-597.58"/>
<polygon fill="none" stroke="midnightblue" points="279,-624.47 282.5,-634.47 286,-624.47 279,-624.47"/>
</g>
<!-- Node3 -->
<g id="node3" class="node">
<title>Node3</title>
<g id="a_node3"><a xlink:title=" ">
<polygon fill="white" stroke="#bfbfbf" points="236,-728.5 236,-785.5 329,-785.5 329,-728.5 236,-728.5"/>
<text text-anchor="middle" x="282.5" y="-773.5" font-family="Helvetica,sans-Serif" font-size="10.00">MonoBehaviour</text>
<polyline fill="none" stroke="#bfbfbf" points="236,-766.5 329,-766.5 "/>
<text text-anchor="middle" x="282.5" y="-754.5" font-family="Helvetica,sans-Serif" font-size="10.00"> </text>
<polyline fill="none" stroke="#bfbfbf" points="236,-747.5 329,-747.5 "/>
<text text-anchor="middle" x="282.5" y="-735.5" font-family="Helvetica,sans-Serif" font-size="10.00"> </text>
</a>
</g>
</g>
<!-- Node3&#45;&gt;Node2 -->
<g id="edge2" class="edge">
<title>Node3&#45;&gt;Node2</title>
<path fill="none" stroke="midnightblue" d="M282.5,-718.21C282.5,-709.29 282.5,-699.95 282.5,-691.58"/>
<polygon fill="none" stroke="midnightblue" points="279,-718.4 282.5,-728.4 286,-718.4 279,-718.4"/>
</g>
<!-- Node5 -->
<g id="node5" class="node">
<title>Node5</title>
<g id="a_node5"><a xlink:href="classGame_1_1CopCar.html" target="_top" xlink:title=" ">
<polygon fill="white" stroke="black" points="64.5,-0.5 64.5,-57.5 202.5,-57.5 202.5,-0.5 64.5,-0.5"/>
<text text-anchor="middle" x="133.5" y="-45.5" font-family="Helvetica,sans-Serif" font-size="10.00">Game.CopCar</text>
<polyline fill="none" stroke="black" points="64.5,-38.5 202.5,-38.5 "/>
<text text-anchor="middle" x="133.5" y="-26.5" font-family="Helvetica,sans-Serif" font-size="10.00"> </text>
<polyline fill="none" stroke="black" points="64.5,-19.5 202.5,-19.5 "/>
<text text-anchor="start" x="72.5" y="-7.5" font-family="Helvetica,sans-Serif" font-size="10.00"># override void Update()</text>
</a>
</g>
</g>
<!-- Node4&#45;&gt;Node5 -->
<g id="edge4" class="edge">
<title>Node4&#45;&gt;Node5</title>
<path fill="none" stroke="midnightblue" d="M133.5,-182.86C133.5,-145.91 133.5,-90.78 133.5,-57.81"/>
<polygon fill="none" stroke="midnightblue" points="130,-183.23 133.5,-193.23 137,-183.23 130,-183.23"/>
</g>
</g>
</svg>
        <g id="navigator" transform="translate(0 0)" fill="#404254">
                <rect fill="#f2f5e9" fill-opacity="0.5" stroke="#606060" stroke-width=".5" x="0" y="0" width="60" height="60"/>
                <use id="zoomplus" xlink:href="#zoomPlus" x="17" y="9" onmousedown="handleZoom(evt,'in')"/>
                <use id="zoomminus" xlink:href="#zoomMin" x="42" y="9" onmousedown="handleZoom(evt,'out')"/>
                <use id="reset" xlink:href="#resetDef" x="30" y="36" onmousedown="handleReset()"/>
                <g id="arrowUp" xlink:href="#dirArrow" transform="translate(30 24)" onmousedown="handlePan(0,-1)">
                  <use xlink:href="#rim" fill="#404040">
                        <set attributeName="fill" to="#808080" begin="arrowUp.mouseover" end="arrowUp.mouseout"/>
                  </use>
                  <path fill="none" stroke="white" stroke-width="1.5" d="M0,-3.0v7 M-2.5,-0.5L0,-3.0L2.5,-0.5"/>
                </g>
                <g id="arrowRight" xlink:href="#dirArrow" transform="rotate(90) translate(36 -43)" onmousedown="handlePan(1,0)">
                  <use xlink:href="#rim" fill="#404040">
                        <set attributeName="fill" to="#808080" begin="arrowRight.mouseover" end="arrowRight.mouseout"/>
                  </use>
                  <path fill="none" stroke="white" stroke-width="1.5" d="M0,-3.0v7 M-2.5,-0.5L0,-3.0L2.5,-0.5"/>
                </g>
                <g id="arrowDown" xlink:href="#dirArrow" transform="rotate(180) translate(-30 -48)" onmousedown="handlePan(0,1)">
                  <use xlink:href="#rim" fill="#404040">
                        <set attributeName="fill" to="#808080" begin="arrowDown.mouseover" end="arrowDown.mouseout"/>
                  </use>
                  <path fill="none" stroke="white" stroke-width="1.5" d="M0,-3.0v7 M-2.5,-0.5L0,-3.0L2.5,-0.5"/>
                </g>
                <g id="arrowLeft" xlink:href="#dirArrow" transform="rotate(270) translate(-36 17)" onmousedown="handlePan(-1,0)">
                  <use xlink:href="#rim" fill="#404040">
                        <set attributeName="fill" to="#808080" begin="arrowLeft.mouseover" end="arrowLeft.mouseout"/>
                  </use>
                  <path fill="none" stroke="white" stroke-width="1.5" d="M0,-3.0v7 M-2.5,-0.5L0,-3.0L2.5,-0.5"/>
                </g>
        </g>
        <svg viewBox="0 0 15 15" width="100%" height="30px" preserveAspectRatio="xMaxYMin meet">
         <g id="arrow_out" transform="scale(0.3 0.3)">
          <a xlink:href="classGame_1_1Car__inherit__graph_org.svg" target="_base">
           <rect id="button" ry="5" rx="5" y="6" x="6" height="38" width="38"
                fill="#f2f5e9" fill-opacity="0.5" stroke="#606060" stroke-width="1.0"/>
           <path id="arrow"
             d="M 11.500037,31.436501 C 11.940474,20.09759 22.043105,11.32322 32.158766,21.979434 L 37.068811,17.246167 C 37.068811,17.246167 37.088388,32 37.088388,32 L 22.160133,31.978069 C 22.160133,31.978069 26.997745,27.140456 26.997745,27.140456 C 18.528582,18.264221 13.291696,25.230495 11.500037,31.436501 z"
             style="fill:#404040;"/>
          </a>
         </g>
        </svg>
</svg>
