<?xml version="1.0" encoding="UTF-8" standalone="no"?>
<!DOCTYPE svg PUBLIC "-//W3C//DTD SVG 1.1//EN"
 "http://www.w3.org/Graphics/SVG/1.1/DTD/svg11.dtd">
<!-- Generated by graphviz version 2.43.0 (0)
 -->
<!-- Title: User.UserController.MoveToMainScence Pages: 1 -->
<svg width="818pt" height="104pt"
 viewBox="0.00 0.00 818.00 104.00" xmlns="http://www.w3.org/2000/svg" xmlns:xlink="http://www.w3.org/1999/xlink">
<g id="graph0" class="graph" transform="scale(1 1) rotate(0) translate(4 100)">
<title>User.UserController.MoveToMainScence</title>
<polygon fill="white" stroke="transparent" points="-4,4 -4,-100 814,-100 814,4 -4,4"/>
<!-- Node1 -->
<g id="node1" class="node">
<title>Node1</title>
<g id="a_node1"><a xlink:title="Move from the user creation and login scene">
<polygon fill="#bfbfbf" stroke="black" points="600,-38.5 600,-57.5 810,-57.5 810,-38.5 600,-38.5"/>
<text text-anchor="middle" x="705" y="-45.5" font-family="Helvetica,sans-Serif" font-size="10.00">User.UserController.MoveToMainScence</text>
</a>
</g>
</g>
<!-- Node2 -->
<g id="node2" class="node">
<title>Node2</title>
<g id="a_node2"><a xlink:href="classUser_1_1UserController.html#a0e115007266961c890001eb18f11bd1f" target="_top" xlink:title="Send a request to check if the user has logged in already">
<polygon fill="white" stroke="black" points="173,-76.5 173,-95.5 361,-95.5 361,-76.5 173,-76.5"/>
<text text-anchor="middle" x="267" y="-83.5" font-family="Helvetica,sans-Serif" font-size="10.00">User.UserController.CheckLoggedIn</text>
</a>
</g>
</g>
<!-- Node1&#45;&gt;Node2 -->
<g id="edge1" class="edge">
<title>Node1&#45;&gt;Node2</title>
<path fill="none" stroke="midnightblue" d="M630.98,-58.9C609.45,-61.85 585.81,-64.82 564,-67 496.24,-73.76 419.49,-78.61 361.13,-81.72"/>
<polygon fill="midnightblue" stroke="midnightblue" points="631.62,-62.35 641.04,-57.51 630.65,-55.42 631.62,-62.35"/>
</g>
<!-- Node4 -->
<g id="node4" class="node">
<title>Node4</title>
<g id="a_node4"><a xlink:href="classUser_1_1UserController.html#a02fa4701a3a181ec2228737a5f2c57e9" target="_top" xlink:title="When the login request&#39;s was responded log the user in">
<polygon fill="white" stroke="black" points="401.5,-38.5 401.5,-57.5 559.5,-57.5 559.5,-38.5 401.5,-38.5"/>
<text text-anchor="middle" x="480.5" y="-45.5" font-family="Helvetica,sans-Serif" font-size="10.00">User.UserController.LoggedIn</text>
</a>
</g>
</g>
<!-- Node1&#45;&gt;Node4 -->
<g id="edge3" class="edge">
<title>Node1&#45;&gt;Node4</title>
<path fill="none" stroke="midnightblue" d="M589.72,-48C579.53,-48 569.37,-48 559.58,-48"/>
<polygon fill="midnightblue" stroke="midnightblue" points="589.92,-51.5 599.92,-48 589.92,-44.5 589.92,-51.5"/>
</g>
<!-- Node6 -->
<g id="node6" class="node">
<title>Node6</title>
<g id="a_node6"><a xlink:href="classUser_1_1UserController.html#aa173cb240990e358e98ff052c30a93e9" target="_top" xlink:title="When the register request was responded successfully register the user and log him in">
<polygon fill="white" stroke="black" points="397,-0.5 397,-19.5 564,-19.5 564,-0.5 397,-0.5"/>
<text text-anchor="middle" x="480.5" y="-7.5" font-family="Helvetica,sans-Serif" font-size="10.00">User.UserController.Registered</text>
</a>
</g>
</g>
<!-- Node1&#45;&gt;Node6 -->
<g id="edge6" class="edge">
<title>Node1&#45;&gt;Node6</title>
<path fill="none" stroke="midnightblue" d="M637.98,-36.72C605.97,-31.26 567.93,-24.76 537.38,-19.54"/>
<polygon fill="midnightblue" stroke="midnightblue" points="637.69,-40.23 648.14,-38.46 638.87,-33.33 637.69,-40.23"/>
</g>
<!-- Node3 -->
<g id="node3" class="node">
<title>Node3</title>
<g id="a_node3"><a xlink:href="classUser_1_1UserController.html#a8d7a7b7d698dd47d420cc52ca90def5d" target="_top" xlink:title="Start is called before the first frame update">
<polygon fill="white" stroke="black" points="0,-76.5 0,-95.5 137,-95.5 137,-76.5 0,-76.5"/>
<text text-anchor="middle" x="68.5" y="-83.5" font-family="Helvetica,sans-Serif" font-size="10.00">User.UserController.Start</text>
</a>
</g>
</g>
<!-- Node2&#45;&gt;Node3 -->
<g id="edge2" class="edge">
<title>Node2&#45;&gt;Node3</title>
<path fill="none" stroke="midnightblue" d="M162.71,-86C154.01,-86 145.36,-86 137.04,-86"/>
<polygon fill="midnightblue" stroke="midnightblue" points="162.93,-89.5 172.93,-86 162.93,-82.5 162.93,-89.5"/>
</g>
<!-- Node4&#45;&gt;Node2 -->
<g id="edge4" class="edge">
<title>Node4&#45;&gt;Node2</title>
<path fill="none" stroke="midnightblue" d="M416.35,-59.35C386,-64.8 350.04,-71.26 321.12,-76.46"/>
<polygon fill="midnightblue" stroke="midnightblue" points="417.18,-62.75 426.4,-57.54 415.94,-55.86 417.18,-62.75"/>
</g>
<!-- Node5 -->
<g id="node5" class="node">
<title>Node5</title>
<g id="a_node5"><a xlink:href="classUser_1_1UserController.html#a7d9a8e16cdb6bc3702ab7987cc141b09" target="_top" xlink:title="Send a login request with the login panel&#39;s fields">
<polygon fill="white" stroke="black" points="185,-38.5 185,-57.5 349,-57.5 349,-38.5 185,-38.5"/>
<text text-anchor="middle" x="267" y="-45.5" font-family="Helvetica,sans-Serif" font-size="10.00">User.UserController.SendLogin</text>
</a>
</g>
</g>
<!-- Node4&#45;&gt;Node5 -->
<g id="edge5" class="edge">
<title>Node4&#45;&gt;Node5</title>
<path fill="none" stroke="midnightblue" d="M391.25,-48C377.25,-48 362.84,-48 349.02,-48"/>
<polygon fill="midnightblue" stroke="midnightblue" points="391.35,-51.5 401.35,-48 391.35,-44.5 391.35,-51.5"/>
</g>
<!-- Node7 -->
<g id="node7" class="node">
<title>Node7</title>
<g id="a_node7"><a xlink:href="classUser_1_1UserController.html#ae7159709fe17c18b3f9e3a15617c1db1" target="_top" xlink:title="Send a register request with the register panel&#39;s fields">
<polygon fill="white" stroke="black" points="177.5,-0.5 177.5,-19.5 356.5,-19.5 356.5,-0.5 177.5,-0.5"/>
<text text-anchor="middle" x="267" y="-7.5" font-family="Helvetica,sans-Serif" font-size="10.00">User.UserController.SendRegister</text>
</a>
</g>
</g>
<!-- Node6&#45;&gt;Node7 -->
<g id="edge7" class="edge">
<title>Node6&#45;&gt;Node7</title>
<path fill="none" stroke="midnightblue" d="M386.52,-10C376.57,-10 366.46,-10 356.56,-10"/>
<polygon fill="midnightblue" stroke="midnightblue" points="386.82,-13.5 396.82,-10 386.82,-6.5 386.82,-13.5"/>
</g>
</g>
</svg>
