<?xml version="1.0" encoding="UTF-8" standalone="no"?>
<!DOCTYPE svg PUBLIC "-//W3C//DTD SVG 1.1//EN"
 "http://www.w3.org/Graphics/SVG/1.1/DTD/svg11.dtd">
<!-- Generated by graphviz version 2.43.0 (0)
 -->
<!-- Title: MainPage.TaskDisplayHandler.Update Pages: 1 -->
<!--zoomable 66 -->
<svg id="main" version="1.1" xmlns="http://www.w3.org/2000/svg" xmlns:xlink="http://www.w3.org/1999/xlink" xml:space="preserve" onload="init(evt)">
<style type="text/css"><![CDATA[
.edge:hover path { stroke: red; }
.edge:hover polygon { stroke: red; fill: red; }
]]></style>
<script type="text/javascript"><![CDATA[
var edges = document.getElementsByTagName('g');
if (edges && edges.length) {
  for (var i=0;i<edges.length;i++) {
    if (edges[i].id.substr(0,4)=='edge') {
      edges[i].setAttribute('class','edge');
    }
  }
}
]]></script>
        <defs>
                <circle id="rim" cx="0" cy="0" r="7"/>
                <circle id="rim2" cx="0" cy="0" r="3.5"/>
                <g id="zoomPlus">
                        <use xlink:href="#rim" fill="#404040">
                                <set attributeName="fill" to="#808080" begin="zoomplus.mouseover" end="zoomplus.mouseout"/>
                        </use>
                        <path d="M-4,0h8M0,-4v8" fill="none" stroke="white" stroke-width="1.5" pointer-events="none"/>
                </g>
                <g id="zoomMin">
                        <use xlink:href="#rim" fill="#404040">
                                <set attributeName="fill" to="#808080" begin="zoomminus.mouseover" end="zoomminus.mouseout"/>
                        </use>
                        <path d="M-4,0h8" fill="none" stroke="white" stroke-width="1.5" pointer-events="none"/>
                </g>
                <g id="dirArrow">
                        <path fill="none" stroke="white" stroke-width="1.5" d="M0,-3.0v7 M-2.5,-0.5L0,-3.0L2.5,-0.5"/>
                </g>
               <g id="resetDef">
                       <use xlink:href="#rim2" fill="#404040">
                               <set attributeName="fill" to="#808080" begin="reset.mouseover" end="reset.mouseout"/>
                       </use>
               </g>
        </defs>

<script type="text/javascript">
var viewWidth = 2025;
var viewHeight = 66;
var sectionId = 'dynsection-2';
</script>
<script xlink:href="svgpan.js"/>
<svg id="graph" class="graph">
<g id="viewport">
<title>MainPage.TaskDisplayHandler.Update</title>
<polygon fill="white" stroke="transparent" points="-4,4 -4,-62 2021,-62 2021,4 -4,4"/>
<!-- Node1 -->
<g id="node1" class="node">
<title>Node1</title>
<g id="a_node1"><a xlink:title="Called every frame if it has been completed update the remaining time">
<polygon fill="#bfbfbf" stroke="black" points="0,-19.5 0,-38.5 201,-38.5 201,-19.5 0,-19.5"/>
<text text-anchor="middle" x="100.5" y="-26.5" font-family="Helvetica,sans-Serif" font-size="10.00">MainPage.TaskDisplayHandler.Update</text>
</a>
</g>
</g>
<!-- Node2 -->
<g id="node2" class="node">
<title>Node2</title>
<g id="a_node2"><a xlink:href="classMainPage_1_1TaskDisplayHandler.html#aa63f1bc894519b9d5872c2bb50b84415" target="_top" xlink:title="Update the time remaining until the task can be completed again">
<polygon fill="white" stroke="black" points="237,-19.5 237,-38.5 515,-38.5 515,-19.5 237,-19.5"/>
<text text-anchor="middle" x="376" y="-26.5" font-family="Helvetica,sans-Serif" font-size="10.00">MainPage.TaskDisplayHandler.UpdateTimeRemaining</text>
</a>
</g>
</g>
<!-- Node1&#45;&gt;Node2 -->
<g id="edge1" class="edge">
<title>Node1&#45;&gt;Node2</title>
<path fill="none" stroke="midnightblue" d="M201.01,-29C209.36,-29 217.9,-29 226.51,-29"/>
<polygon fill="midnightblue" stroke="midnightblue" points="226.63,-32.5 236.63,-29 226.63,-25.5 226.63,-32.5"/>
</g>
<!-- Node3 -->
<g id="node3" class="node">
<title>Node3</title>
<g id="a_node3"><a xlink:href="classMainPage_1_1TaskDisplayHandler.html#a754a230e53cedd3209a29d4d6a743719" target="_top" xlink:title="When the complete state is changed update the display to match it">
<polygon fill="white" stroke="black" points="551,-19.5 551,-38.5 826,-38.5 826,-19.5 551,-19.5"/>
<text text-anchor="middle" x="688.5" y="-26.5" font-family="Helvetica,sans-Serif" font-size="10.00">MainPage.TaskDisplayHandler.CompleteStateChange</text>
</a>
</g>
</g>
<!-- Node2&#45;&gt;Node3 -->
<g id="edge2" class="edge">
<title>Node2&#45;&gt;Node3</title>
<path fill="none" stroke="midnightblue" d="M515.45,-22.29C523.84,-22.25 532.3,-22.24 540.73,-22.26"/>
<polygon fill="midnightblue" stroke="midnightblue" points="540.97,-25.76 550.98,-22.29 540.99,-18.76 540.97,-25.76"/>
</g>
<!-- Node3&#45;&gt;Node2 -->
<g id="edge12" class="edge">
<title>Node3&#45;&gt;Node2</title>
<path fill="none" stroke="midnightblue" d="M550.98,-35.71C542.6,-35.75 534.14,-35.76 525.71,-35.74"/>
<polygon fill="midnightblue" stroke="midnightblue" points="525.46,-32.24 515.45,-35.71 525.44,-39.24 525.46,-32.24"/>
</g>
<!-- Node4 -->
<g id="node4" class="node">
<title>Node4</title>
<g id="a_node4"><a xlink:href="classMainPage_1_1MainWindowController.html#a85072f5d92f4145d6213209a13936639" target="_top" xlink:title="Refreshes the tasks with the proper sorting order">
<polygon fill="white" stroke="black" points="862,-19.5 862,-38.5 1119,-38.5 1119,-19.5 862,-19.5"/>
<text text-anchor="middle" x="990.5" y="-26.5" font-family="Helvetica,sans-Serif" font-size="10.00">MainPage.MainWindowController.SortingChanged</text>
</a>
</g>
</g>
<!-- Node3&#45;&gt;Node4 -->
<g id="edge3" class="edge">
<title>Node3&#45;&gt;Node4</title>
<path fill="none" stroke="midnightblue" d="M826.33,-29C834.68,-29 843.09,-29 851.44,-29"/>
<polygon fill="midnightblue" stroke="midnightblue" points="851.6,-32.5 861.6,-29 851.6,-25.5 851.6,-32.5"/>
</g>
<!-- Node5 -->
<g id="node5" class="node">
<title>Node5</title>
<g id="a_node5"><a xlink:href="classMainPage_1_1MainWindowController.html#a241b480aeebdab1bc34320cad8de7712" target="_top" xlink:title="Load the good habits">
<polygon fill="white" stroke="black" points="1156,-38.5 1156,-57.5 1410,-57.5 1410,-38.5 1156,-38.5"/>
<text text-anchor="middle" x="1283" y="-45.5" font-family="Helvetica,sans-Serif" font-size="10.00">MainPage.MainWindowController.LoadBadHabits</text>
</a>
</g>
</g>
<!-- Node4&#45;&gt;Node5 -->
<g id="edge4" class="edge">
<title>Node4&#45;&gt;Node5</title>
<path fill="none" stroke="midnightblue" d="M1119.34,-37.36C1127.98,-37.93 1136.71,-38.5 1145.4,-39.07"/>
<polygon fill="midnightblue" stroke="midnightblue" points="1145.36,-42.57 1155.57,-39.73 1145.82,-35.59 1145.36,-42.57"/>
</g>
<!-- Node8 -->
<g id="node8" class="node">
<title>Node8</title>
<g id="a_node8"><a xlink:href="classMainPage_1_1MainWindowController.html#ab5b80370512cd4273e86927fe696462d" target="_top" xlink:title="Load the good tasks">
<polygon fill="white" stroke="black" points="1155,-0.5 1155,-19.5 1411,-19.5 1411,-0.5 1155,-0.5"/>
<text text-anchor="middle" x="1283" y="-7.5" font-family="Helvetica,sans-Serif" font-size="10.00">MainPage.MainWindowController.LoadGoodTasks</text>
</a>
</g>
</g>
<!-- Node4&#45;&gt;Node8 -->
<g id="edge8" class="edge">
<title>Node4&#45;&gt;Node8</title>
<path fill="none" stroke="midnightblue" d="M1119.34,-20.64C1127.67,-20.09 1136.08,-19.54 1144.46,-19"/>
<polygon fill="midnightblue" stroke="midnightblue" points="1144.9,-22.47 1154.65,-18.33 1144.45,-15.49 1144.9,-22.47"/>
</g>
<!-- Node6 -->
<g id="node6" class="node">
<title>Node6</title>
<g id="a_node6"><a xlink:href="classMainPage_1_1TaskOpenPanelController.html#a5513399c20f650915ca10f54805f416e" target="_top" xlink:title="Make this task a bad habit">
<polygon fill="white" stroke="black" points="1448,-38.5 1448,-57.5 1717,-57.5 1717,-38.5 1448,-38.5"/>
<text text-anchor="middle" x="1582.5" y="-45.5" font-family="Helvetica,sans-Serif" font-size="10.00">MainPage.TaskOpenPanelController.MakeItBadHabit</text>
</a>
</g>
</g>
<!-- Node5&#45;&gt;Node6 -->
<g id="edge5" class="edge">
<title>Node5&#45;&gt;Node6</title>
<path fill="none" stroke="midnightblue" d="M1410.17,-41.32C1419.35,-41.26 1428.66,-41.24 1437.94,-41.25"/>
<polygon fill="midnightblue" stroke="midnightblue" points="1437.98,-44.75 1447.99,-41.28 1438,-37.75 1437.98,-44.75"/>
</g>
<!-- Node6&#45;&gt;Node5 -->
<g id="edge6" class="edge">
<title>Node6&#45;&gt;Node5</title>
<path fill="none" stroke="midnightblue" d="M1447.99,-54.72C1438.75,-54.76 1429.43,-54.76 1420.18,-54.73"/>
<polygon fill="midnightblue" stroke="midnightblue" points="1420.18,-51.23 1410.17,-54.68 1420.15,-58.23 1420.18,-51.23"/>
</g>
<!-- Node7 -->
<g id="node7" class="node">
<title>Node7</title>
<g id="a_node7"><a xlink:href="classMainPage_1_1TaskOpenPanelController.html#aa0b6757dbad141375c50282278b23b1a" target="_top" xlink:title="Update the buttons with the appropriate color based on the current task">
<polygon fill="white" stroke="black" points="1754,-19.5 1754,-38.5 2017,-38.5 2017,-19.5 1754,-19.5"/>
<text text-anchor="middle" x="1885.5" y="-26.5" font-family="Helvetica,sans-Serif" font-size="10.00">MainPage.TaskOpenPanelController.UpdateButtons</text>
</a>
</g>
</g>
<!-- Node6&#45;&gt;Node7 -->
<g id="edge7" class="edge">
<title>Node6&#45;&gt;Node7</title>
<path fill="none" stroke="midnightblue" d="M1717.28,-39.56C1725.97,-39.01 1734.73,-38.45 1743.45,-37.9"/>
<polygon fill="midnightblue" stroke="midnightblue" points="1743.91,-41.38 1753.67,-37.26 1743.46,-34.4 1743.91,-41.38"/>
</g>
<!-- Node9 -->
<g id="node9" class="node">
<title>Node9</title>
<g id="a_node9"><a xlink:href="classMainPage_1_1TaskOpenPanelController.html#a069a63e2b7e70cc4cb4c7e487b655700" target="_top" xlink:title="Make it a good task">
<polygon fill="white" stroke="black" points="1447,-0.5 1447,-19.5 1718,-19.5 1718,-0.5 1447,-0.5"/>
<text text-anchor="middle" x="1582.5" y="-7.5" font-family="Helvetica,sans-Serif" font-size="10.00">MainPage.TaskOpenPanelController.MakeItGoodTask</text>
</a>
</g>
</g>
<!-- Node8&#45;&gt;Node9 -->
<g id="edge9" class="edge">
<title>Node8&#45;&gt;Node9</title>
<path fill="none" stroke="midnightblue" d="M1411.03,-3.31C1419.54,-3.26 1428.15,-3.24 1436.75,-3.25"/>
<polygon fill="midnightblue" stroke="midnightblue" points="1436.81,-6.75 1446.82,-3.28 1436.83,0.25 1436.81,-6.75"/>
</g>
<!-- Node9&#45;&gt;Node7 -->
<g id="edge11" class="edge">
<title>Node9&#45;&gt;Node7</title>
<path fill="none" stroke="midnightblue" d="M1718.15,-18.5C1726.7,-19.04 1735.32,-19.58 1743.9,-20.12"/>
<polygon fill="midnightblue" stroke="midnightblue" points="1743.74,-23.62 1753.94,-20.76 1744.18,-16.64 1743.74,-23.62"/>
</g>
<!-- Node9&#45;&gt;Node8 -->
<g id="edge10" class="edge">
<title>Node9&#45;&gt;Node8</title>
<path fill="none" stroke="midnightblue" d="M1446.82,-16.72C1438.26,-16.76 1429.63,-16.76 1421.06,-16.73"/>
<polygon fill="midnightblue" stroke="midnightblue" points="1421.05,-13.23 1411.03,-16.69 1421.01,-20.23 1421.05,-13.23"/>
</g>
</g>
</svg>
        <g id="navigator" transform="translate(0 0)" fill="#404254">
                <rect fill="#f2f5e9" fill-opacity="0.5" stroke="#606060" stroke-width=".5" x="0" y="0" width="60" height="60"/>
                <use id="zoomplus" xlink:href="#zoomPlus" x="17" y="9" onmousedown="handleZoom(evt,'in')"/>
                <use id="zoomminus" xlink:href="#zoomMin" x="42" y="9" onmousedown="handleZoom(evt,'out')"/>
                <use id="reset" xlink:href="#resetDef" x="30" y="36" onmousedown="handleReset()"/>
                <g id="arrowUp" xlink:href="#dirArrow" transform="translate(30 24)" onmousedown="handlePan(0,-1)">
                  <use xlink:href="#rim" fill="#404040">
                        <set attributeName="fill" to="#808080" begin="arrowUp.mouseover" end="arrowUp.mouseout"/>
                  </use>
                  <path fill="none" stroke="white" stroke-width="1.5" d="M0,-3.0v7 M-2.5,-0.5L0,-3.0L2.5,-0.5"/>
                </g>
                <g id="arrowRight" xlink:href="#dirArrow" transform="rotate(90) translate(36 -43)" onmousedown="handlePan(1,0)">
                  <use xlink:href="#rim" fill="#404040">
                        <set attributeName="fill" to="#808080" begin="arrowRight.mouseover" end="arrowRight.mouseout"/>
                  </use>
                  <path fill="none" stroke="white" stroke-width="1.5" d="M0,-3.0v7 M-2.5,-0.5L0,-3.0L2.5,-0.5"/>
                </g>
                <g id="arrowDown" xlink:href="#dirArrow" transform="rotate(180) translate(-30 -48)" onmousedown="handlePan(0,1)">
                  <use xlink:href="#rim" fill="#404040">
                        <set attributeName="fill" to="#808080" begin="arrowDown.mouseover" end="arrowDown.mouseout"/>
                  </use>
                  <path fill="none" stroke="white" stroke-width="1.5" d="M0,-3.0v7 M-2.5,-0.5L0,-3.0L2.5,-0.5"/>
                </g>
                <g id="arrowLeft" xlink:href="#dirArrow" transform="rotate(270) translate(-36 17)" onmousedown="handlePan(-1,0)">
                  <use xlink:href="#rim" fill="#404040">
                        <set attributeName="fill" to="#808080" begin="arrowLeft.mouseover" end="arrowLeft.mouseout"/>
                  </use>
                  <path fill="none" stroke="white" stroke-width="1.5" d="M0,-3.0v7 M-2.5,-0.5L0,-3.0L2.5,-0.5"/>
                </g>
        </g>
        <svg viewBox="0 0 15 15" width="100%" height="30px" preserveAspectRatio="xMaxYMin meet">
         <g id="arrow_out" transform="scale(0.3 0.3)">
          <a xlink:href="classMainPage_1_1TaskDisplayHandler_a19067f6c6b504e4947d9473721e6877f_cgraph_org.svg" target="_base">
           <rect id="button" ry="5" rx="5" y="6" x="6" height="38" width="38"
                fill="#f2f5e9" fill-opacity="0.5" stroke="#606060" stroke-width="1.0"/>
           <path id="arrow"
             d="M 11.500037,31.436501 C 11.940474,20.09759 22.043105,11.32322 32.158766,21.979434 L 37.068811,17.246167 C 37.068811,17.246167 37.088388,32 37.088388,32 L 22.160133,31.978069 C 22.160133,31.978069 26.997745,27.140456 26.997745,27.140456 C 18.528582,18.264221 13.291696,25.230495 11.500037,31.436501 z"
             style="fill:#404040;"/>
          </a>
         </g>
        </svg>
</svg>
