<?xml version="1.0" encoding="UTF-8" standalone="no"?>
<!DOCTYPE svg PUBLIC "-//W3C//DTD SVG 1.1//EN"
 "http://www.w3.org/Graphics/SVG/1.1/DTD/svg11.dtd">
<!-- Generated by graphviz version 2.43.0 (0)
 -->
<!-- Title: User.UserData.Init Pages: 1 -->
<!--zoomable 138 -->

<svg id="main" version="1.1" xmlns="http://www.w3.org/2000/svg" xmlns:xlink="http://www.w3.org/1999/xlink" xml:space="preserve" onload="init(evt)">
<style type="text/css"><![CDATA[
.node, .edge {opacity: 0.7;}
.node.selected, .edge.selected {opacity: 1;}
.edge:hover path { stroke: red; }
.edge:hover polygon { stroke: red; fill: red; }
]]></style>

<defs>
  <circle id="rim" cx="0" cy="0" r="7"/>
  <circle id="rim2" cx="0" cy="0" r="3.5"/>
  <g id="zoomPlus">
    <use xlink:href="#rim" fill="#404040"><set attributeName="fill" to="#808080" begin="zoomplus.mouseover" end="zoomplus.mouseout"/></use>
    <path d="M-4,0h8M0,-4v8" fill="none" stroke="white" stroke-width="1.5" pointer-events="none"/>
  </g>
  <g id="zoomMin">
    <use xlink:href="#rim" fill="#404040"><set attributeName="fill" to="#808080" begin="zoomminus.mouseover" end="zoomminus.mouseout"/></use>
    <path d="M-4,0h8" fill="none" stroke="white" stroke-width="1.5" pointer-events="none"/>
  </g>
  <g id="arrowUp" transform="translate(30 24)">
    <use xlink:href="#rim"/>
    <path pointer-events="none" fill="none" stroke="white" stroke-width="1.5" d="M0,-3.0v7 M-2.5,-0.5L0,-3.0L2.5,-0.5"/>
  </g>
  <g id="arrowRight" transform="rotate(90) translate(36 -43)">
    <use xlink:href="#rim"/>
    <path pointer-events="none" fill="none" stroke="white" stroke-width="1.5" d="M0,-3.0v7 M-2.5,-0.5L0,-3.0L2.5,-0.5"/>
  </g>
  <g id="arrowDown" transform="rotate(180) translate(-30 -48)">
    <use xlink:href="#rim"/>
    <path pointer-events="none" fill="none" stroke="white" stroke-width="1.5" d="M0,-3.0v7 M-2.5,-0.5L0,-3.0L2.5,-0.5"/>
  </g>
  <g id="arrowLeft" transform="rotate(270) translate(-36 17)">
    <use xlink:href="#rim"/>
    <path pointer-events="none" fill="none" stroke="white" stroke-width="1.5" d="M0,-3.0v7 M-2.5,-0.5L0,-3.0L2.5,-0.5"/>
  </g>
  <g id="resetDef">
    <use xlink:href="#rim2" fill="#404040"><set attributeName="fill" to="#808080" begin="reset.mouseover" end="reset.mouseout"/></use>
  </g>
</defs>
<script type="application/ecmascript">
var viewWidth = 900;
var viewHeight = 138;
var sectionId = 'dynsection-2';
</script>
<script type="application/ecmascript" xlink:href="svg.min.js"/>
<svg id="graph" class="graph">
<g id="viewport">
<title>User.UserData.Init</title>
<!-- Node1 -->
<g id="Node000001" class="node">
<title>Node1</title>
<g id="a_Node000001"><a xlink:title="Initialises the user instance with proper data.">
<polygon fill="#999999" stroke="#666666" points="892,-74 786,-74 786,-55 892,-55 892,-74"/>
<text text-anchor="middle" x="839" y="-62" font-family="Helvetica,sans-Serif" font-size="10.00">User.UserData.Init</text>
</a>
</g>
</g>
<!-- Node2 -->
<g id="Node000002" class="node">
<title>Node2</title>
<g id="a_Node000002"><a xlink:href="classUser_1_1LoggedInChecker.html#a142873ff5324726072d218102f0bee8b" target="_top" xlink:title="Update the user data from the server data.">
<polygon fill="white" stroke="#666666" points="705,-130 534,-130 534,-111 705,-111 705,-130"/>
<text text-anchor="middle" x="619.5" y="-118" font-family="Helvetica,sans-Serif" font-size="10.00">User.LoggedInChecker.LoggedIn</text>
</a>
</g>
</g>
<!-- Node1&#45;&gt;Node2 -->
<g id="edge1_Node000001_Node000002" class="edge">
<title>Node1&#45;&gt;Node2</title>
<g id="a_edge1_Node000001_Node000002"><a xlink:title=" ">
<path fill="none" stroke="#63b8ff" d="M810.33,-78.74C793.34,-86.9 770.9,-96.65 750,-102.5 735.68,-106.51 720.21,-109.64 705.12,-112.09"/>
<polygon fill="#63b8ff" stroke="#63b8ff" points="812.22,-81.71 819.65,-74.16 809.13,-75.43 812.22,-81.71"/>
</a>
</g>
</g>
<!-- Node5 -->
<g id="Node000005" class="node">
<title>Node5</title>
<g id="a_Node000005"><a xlink:href="classUser_1_1UserController.html#a02fa4701a3a181ec2228737a5f2c57e9" target="_top" xlink:title="When the login request&#39;s was responded log the user in.">
<polygon fill="white" stroke="#666666" points="698.5,-93 540.5,-93 540.5,-74 698.5,-74 698.5,-93"/>
<text text-anchor="middle" x="619.5" y="-81" font-family="Helvetica,sans-Serif" font-size="10.00">User.UserController.LoggedIn</text>
</a>
</g>
</g>
<!-- Node1&#45;&gt;Node5 -->
<g id="edge4_Node000001_Node000005" class="edge">
<title>Node1&#45;&gt;Node5</title>
<g id="a_edge4_Node000001_Node000005"><a xlink:title=" ">
<path fill="none" stroke="#63b8ff" d="M775.83,-69.93C751.76,-72.03 723.94,-74.46 698.54,-76.68"/>
<polygon fill="#63b8ff" stroke="#63b8ff" points="776.25,-73.41 785.9,-69.05 775.64,-66.43 776.25,-73.41"/>
</a>
</g>
</g>
<!-- Node9 -->
<g id="Node000009" class="node">
<title>Node9</title>
<g id="a_Node000009"><a xlink:href="classUser_1_1UserController.html#aa173cb240990e358e98ff052c30a93e9" target="_top" xlink:title="When the register request was responded successfully register the user and log him in.">
<polygon fill="white" stroke="#666666" points="703,-56 536,-56 536,-37 703,-37 703,-56"/>
<text text-anchor="middle" x="619.5" y="-44" font-family="Helvetica,sans-Serif" font-size="10.00">User.UserController.Registered</text>
</a>
</g>
</g>
<!-- Node1&#45;&gt;Node9 -->
<g id="edge8_Node000001_Node000009" class="edge">
<title>Node1&#45;&gt;Node9</title>
<g id="a_edge8_Node000001_Node000009"><a xlink:title=" ">
<path fill="none" stroke="#63b8ff" d="M775.77,-59.35C753.17,-57.48 727.26,-55.34 703.17,-53.34"/>
<polygon fill="#63b8ff" stroke="#63b8ff" points="775.65,-62.85 785.9,-60.19 776.23,-55.88 775.65,-62.85"/>
</a>
</g>
</g>
<!-- Node10 -->
<g id="Node000010" class="node">
<title>Node10</title>
<g id="a_Node000010"><a xlink:href="classMainPage_1_1MainWindowController.html#a330729fb97065041f29f7ad9eb63def3" target="_top" xlink:title="Update the user with the updated value.">
<polygon fill="white" stroke="#666666" points="750,-19 489,-19 489,0 750,0 750,-19"/>
<text text-anchor="middle" x="619.5" y="-7" font-family="Helvetica,sans-Serif" font-size="10.00">MainPage.MainWindowController.UpdateUserData</text>
</a>
</g>
</g>
<!-- Node1&#45;&gt;Node10 -->
<g id="edge9_Node000001_Node000010" class="edge">
<title>Node1&#45;&gt;Node10</title>
<g id="a_edge9_Node000001_Node000010"><a xlink:title=" ">
<path fill="none" stroke="#63b8ff" d="M809.96,-50.5C793,-42.6 770.71,-33.19 750,-27.5 737.52,-24.07 724.18,-21.28 710.98,-19.01"/>
<polygon fill="#63b8ff" stroke="#63b8ff" points="808.75,-53.8 819.28,-54.94 811.76,-47.48 808.75,-53.8"/>
</a>
</g>
</g>
<!-- Node3 -->
<g id="Node000003" class="node">
<title>Node3</title>
<g id="a_Node000003"><a xlink:href="classUser_1_1LoggedInChecker.html#a306ce5521a6109ae00667a32fd0a442c" target="_top" xlink:title="Coroutine which calls the api endpoint to check if the user is still logged in.">
<polygon fill="white" stroke="#666666" points="453,-130 195,-130 195,-111 453,-111 453,-130"/>
<text text-anchor="middle" x="324" y="-118" font-family="Helvetica,sans-Serif" font-size="10.00">User.LoggedInChecker.CheckLoggedInPeriodically</text>
</a>
</g>
</g>
<!-- Node2&#45;&gt;Node3 -->
<g id="edge2_Node000002_Node000003" class="edge">
<title>Node2&#45;&gt;Node3</title>
<g id="a_edge2_Node000002_Node000003"><a xlink:title=" ">
<path fill="none" stroke="#63b8ff" d="M523.44,-120.5C501.02,-120.5 476.74,-120.5 453.12,-120.5"/>
<polygon fill="#63b8ff" stroke="#63b8ff" points="523.61,-124 533.61,-120.5 523.61,-117 523.61,-124"/>
</a>
</g>
</g>
<!-- Node4 -->
<g id="Node000004" class="node">
<title>Node4</title>
<g id="a_Node000004"><a xlink:href="classUser_1_1LoggedInChecker.html#a0f9199eb996ba1309b9bb6bad5d6268e" target="_top" xlink:title="Called when the script is loaded.">
<polygon fill="white" stroke="#666666" points="159,-130 0,-130 0,-111 159,-111 159,-130"/>
<text text-anchor="middle" x="79.5" y="-118" font-family="Helvetica,sans-Serif" font-size="10.00">User.LoggedInChecker.Awake</text>
</a>
</g>
</g>
<!-- Node3&#45;&gt;Node4 -->
<g id="edge3_Node000003_Node000004" class="edge">
<title>Node3&#45;&gt;Node4</title>
<g id="a_edge3_Node000003_Node000004"><a xlink:title=" ">
<path fill="none" stroke="#63b8ff" d="M184.52,-120.5C175.93,-120.5 167.46,-120.5 159.28,-120.5"/>
<polygon fill="#63b8ff" stroke="#63b8ff" points="184.65,-124 194.65,-120.5 184.65,-117 184.65,-124"/>
</a>
</g>
</g>
<!-- Node6 -->
<g id="Node000006" class="node">
<title>Node6</title>
<g id="a_Node000006"><a xlink:href="classUser_1_1UserController.html#a0e115007266961c890001eb18f11bd1f" target="_top" xlink:title="Send a request to check if the user has logged in already.">
<polygon fill="white" stroke="#666666" points="418,-93 230,-93 230,-74 418,-74 418,-93"/>
<text text-anchor="middle" x="324" y="-81" font-family="Helvetica,sans-Serif" font-size="10.00">User.UserController.CheckLoggedIn</text>
</a>
</g>
</g>
<!-- Node5&#45;&gt;Node6 -->
<g id="edge5_Node000005_Node000006" class="edge">
<title>Node5&#45;&gt;Node6</title>
<g id="a_edge5_Node000005_Node000006"><a xlink:title=" ">
<path fill="none" stroke="#63b8ff" d="M529.94,-83.5C494.62,-83.5 453.94,-83.5 418.18,-83.5"/>
<polygon fill="#63b8ff" stroke="#63b8ff" points="530.23,-87 540.23,-83.5 530.23,-80 530.23,-87"/>
</a>
</g>
</g>
<!-- Node8 -->
<g id="Node000008" class="node">
<title>Node8</title>
<g id="a_Node000008"><a xlink:href="classUser_1_1UserController.html#a7d9a8e16cdb6bc3702ab7987cc141b09" target="_top" xlink:title="Send a login request with the login panel&#39;s fields.">
<polygon fill="white" stroke="#666666" points="406,-56 242,-56 242,-37 406,-37 406,-56"/>
<text text-anchor="middle" x="324" y="-44" font-family="Helvetica,sans-Serif" font-size="10.00">User.UserController.SendLogin</text>
</a>
</g>
</g>
<!-- Node5&#45;&gt;Node8 -->
<g id="edge7_Node000005_Node000008" class="edge">
<title>Node5&#45;&gt;Node8</title>
<g id="a_edge7_Node000005_Node000008"><a xlink:title=" ">
<path fill="none" stroke="#63b8ff" d="M532.74,-72.69C490.89,-67.41 440.99,-61.12 400.58,-56.03"/>
<polygon fill="#63b8ff" stroke="#63b8ff" points="532.56,-76.19 542.92,-73.97 533.43,-69.25 532.56,-76.19"/>
</a>
</g>
</g>
<!-- Node7 -->
<g id="Node000007" class="node">
<title>Node7</title>
<g id="a_Node000007"><a xlink:href="classUser_1_1UserController.html#a8d7a7b7d698dd47d420cc52ca90def5d" target="_top" xlink:title="Start is called before the first frame update.">
<polygon fill="white" stroke="#666666" points="148,-93 11,-93 11,-74 148,-74 148,-93"/>
<text text-anchor="middle" x="79.5" y="-81" font-family="Helvetica,sans-Serif" font-size="10.00">User.UserController.Start</text>
</a>
</g>
</g>
<!-- Node6&#45;&gt;Node7 -->
<g id="edge6_Node000006_Node000007" class="edge">
<title>Node6&#45;&gt;Node7</title>
<g id="a_edge6_Node000006_Node000007"><a xlink:title=" ">
<path fill="none" stroke="#63b8ff" d="M219.64,-83.5C195.44,-83.5 170.26,-83.5 148.09,-83.5"/>
<polygon fill="#63b8ff" stroke="#63b8ff" points="219.94,-87 229.94,-83.5 219.94,-80 219.94,-87"/>
</a>
</g>
</g>
</g>
</svg>

<g id="navigator" transform="translate(0 0)" fill="#404254">
  <rect fill="#f2f5e9" fill-opacity="0.5" stroke="#606060" stroke-width=".5" x="0" y="0" width="60" height="60"/>
  <use id="zoomplus" xlink:href="#zoomPlus" x="17" y="9" onmousedown="handleZoom(evt,'in')"/>
  <use id="zoomminus" xlink:href="#zoomMin" x="42" y="9" onmousedown="handleZoom(evt,'out')"/>
  <use id="reset" xlink:href="#resetDef" x="30" y="36" onmousedown="handleReset()"/>
   <use id="arrowup" xlink:href="#arrowUp" x="0" y="0" onmousedown="handlePan(0,-1)"/>
  <use id="arrowright" xlink:href="#arrowRight" x="0" y="0" onmousedown="handlePan(1,0)"/>
  <use id="arrowdown" xlink:href="#arrowDown" x="0" y="0" onmousedown="handlePan(0,1)"/>
  <use id="arrowleft" xlink:href="#arrowLeft" x="0" y="0" onmousedown="handlePan(-1,0)"/>
</g>
<svg viewBox="0 0 15 15" width="100%" height="30px" preserveAspectRatio="xMaxYMin meet">
 <g id="arrow_out" transform="scale(0.3 0.3)">
  <a xlink:href="classUser_1_1UserData_abb372911b5e49023a977bd064f46bb6e_icgraph_org.svg" target="_base">
   <rect id="button" ry="5" rx="5" y="6" x="6" height="38" width="38"
        fill="#f2f5e9" fill-opacity="0.5" stroke="#606060" stroke-width="1.0"/>
   <path id="arrow"
     d="M 11.500037,31.436501 C 11.940474,20.09759 22.043105,11.32322 32.158766,21.979434 L 37.068811,17.246167 C 37.068811,17.246167 37.088388,32 37.088388,32 L 22.160133,31.978069 C 22.160133,31.978069 26.997745,27.140456 26.997745,27.140456 C 18.528582,18.264221 13.291696,25.230495 11.500037,31.436501 z"
     style="fill:#404040;"/>
  </a>
 </g>
</svg>

<style type='text/css'>
<![CDATA[
[data-mouse-over-selected='false'] { opacity: 0.7; }
[data-mouse-over-selected='true']  { opacity: 1.0; }
]]>
</style>
<script type="application/ecmascript"><![CDATA[
document.addEventListener('DOMContentLoaded', (event) => {
  highlightEdges();
  highlightAdjacentNodes();
});
]]></script>
</svg>
