<?xml version="1.0" encoding="UTF-8" standalone="no"?>
<!DOCTYPE svg PUBLIC "-//W3C//DTD SVG 1.1//EN"
 "http://www.w3.org/Graphics/SVG/1.1/DTD/svg11.dtd">
<!-- Generated by graphviz version 2.43.0 (0)
 -->
<!-- Title: MainPage.TaskHistoryWindowHandler.Show Pages: 1 -->
<svg width="1060pt" height="104pt"
 viewBox="0.00 0.00 1060.00 104.00" xmlns="http://www.w3.org/2000/svg" xmlns:xlink="http://www.w3.org/1999/xlink">
<g id="graph0" class="graph" transform="scale(1 1) rotate(0) translate(4 100)">
<title>MainPage.TaskHistoryWindowHandler.Show</title>
<polygon fill="white" stroke="transparent" points="-4,4 -4,-100 1056,-100 1056,4 -4,4"/>
<!-- Node1 -->
<g id="node1" class="node">
<title>Node1</title>
<g id="a_node1"><a xlink:title="Shows the task history window">
<polygon fill="#bfbfbf" stroke="black" points="0,-38.5 0,-57.5 230,-57.5 230,-38.5 0,-38.5"/>
<text text-anchor="middle" x="115" y="-45.5" font-family="Helvetica,sans-Serif" font-size="10.00">MainPage.TaskHistoryWindowHandler.Show</text>
</a>
</g>
</g>
<!-- Node2 -->
<g id="node2" class="node">
<title>Node2</title>
<g id="a_node2"><a xlink:href="classMainPage_1_1TaskHistoryWindowHandler.html#ada3a664597d8e1b1b9a261c3c34badba" target="_top" xlink:title="Loads the task histories from the server">
<polygon fill="white" stroke="black" points="266,-33 266,-63 514,-63 514,-33 266,-33"/>
<text text-anchor="start" x="274" y="-51" font-family="Helvetica,sans-Serif" font-size="10.00">MainPage.TaskHistoryWindowHandler.LoadTask</text>
<text text-anchor="middle" x="390" y="-40" font-family="Helvetica,sans-Serif" font-size="10.00">Histories</text>
</a>
</g>
</g>
<!-- Node1&#45;&gt;Node2 -->
<g id="edge1" class="edge">
<title>Node1&#45;&gt;Node2</title>
<path fill="none" stroke="midnightblue" d="M230.19,-48C238.5,-48 246.93,-48 255.34,-48"/>
<polygon fill="midnightblue" stroke="midnightblue" points="255.58,-51.5 265.58,-48 255.58,-44.5 255.58,-51.5"/>
</g>
<!-- Node3 -->
<g id="node3" class="node">
<title>Node3</title>
<g id="a_node3"><a xlink:href="classMainPage_1_1TaskHistoryWindowHandler.html#a270045b1192940fa409807d0624e0ba7" target="_top" xlink:title="When the server response is recieved load the histories">
<polygon fill="white" stroke="black" points="552,-76.5 552,-95.5 834,-95.5 834,-76.5 552,-76.5"/>
<text text-anchor="middle" x="693" y="-83.5" font-family="Helvetica,sans-Serif" font-size="10.00">MainPage.TaskHistoryWindowHandler.LoadedHistories</text>
</a>
</g>
</g>
<!-- Node2&#45;&gt;Node3 -->
<g id="edge2" class="edge">
<title>Node2&#45;&gt;Node3</title>
<path fill="none" stroke="midnightblue" d="M509.96,-63.02C542.3,-67.1 576.66,-71.44 606.72,-75.23"/>
<polygon fill="midnightblue" stroke="midnightblue" points="606.38,-78.72 616.74,-76.5 607.26,-71.77 606.38,-78.72"/>
</g>
<!-- Node5 -->
<g id="node5" class="node">
<title>Node5</title>
<g id="a_node5"><a xlink:href="classUtility_1_1CoroutineRunner.html#a1c473dee723f16d86bab9d8475c8214a" target="_top" xlink:title="A helper method to start coroutines">
<polygon fill="white" stroke="black" points="594,-38.5 594,-57.5 792,-57.5 792,-38.5 594,-38.5"/>
<text text-anchor="middle" x="693" y="-45.5" font-family="Helvetica,sans-Serif" font-size="10.00">Utility.CoroutineRunner.RunCoroutine</text>
</a>
</g>
</g>
<!-- Node2&#45;&gt;Node5 -->
<g id="edge4" class="edge">
<title>Node2&#45;&gt;Node5</title>
<path fill="none" stroke="midnightblue" d="M514.3,-48C537.25,-48 561.07,-48 583.53,-48"/>
<polygon fill="midnightblue" stroke="midnightblue" points="583.75,-51.5 593.75,-48 583.75,-44.5 583.75,-51.5"/>
</g>
<!-- Node6 -->
<g id="node6" class="node">
<title>Node6</title>
<g id="a_node6"><a xlink:href="classMainPage_1_1TaskHistoryWindowHandler.html#a74232871cc96faede9c1b89314bc7ce6" target="_top" xlink:title="Show the server response errors">
<polygon fill="white" stroke="black" points="550,-0.5 550,-19.5 836,-19.5 836,-0.5 550,-0.5"/>
<text text-anchor="middle" x="693" y="-7.5" font-family="Helvetica,sans-Serif" font-size="10.00">MainPage.TaskHistoryWindowHandler.ShowRequestFail</text>
</a>
</g>
</g>
<!-- Node2&#45;&gt;Node6 -->
<g id="edge5" class="edge">
<title>Node2&#45;&gt;Node6</title>
<path fill="none" stroke="midnightblue" d="M509.96,-32.98C542.3,-28.9 576.66,-24.56 606.72,-20.77"/>
<polygon fill="midnightblue" stroke="midnightblue" points="607.26,-24.23 616.74,-19.5 606.38,-17.28 607.26,-24.23"/>
</g>
<!-- Node4 -->
<g id="node4" class="node">
<title>Node4</title>
<g id="a_node4"><a xlink:href="classMainPage_1_1TaskHistoryHandler.html#aa0125cc571c13b416fb8c3b1ffe469af" target="_top" xlink:title="Init the task history&#39;s with the data from the server">
<polygon fill="white" stroke="black" points="872,-76.5 872,-95.5 1052,-95.5 1052,-76.5 872,-76.5"/>
<text text-anchor="middle" x="962" y="-83.5" font-family="Helvetica,sans-Serif" font-size="10.00">MainPage.TaskHistoryHandler.Init</text>
</a>
</g>
</g>
<!-- Node3&#45;&gt;Node4 -->
<g id="edge3" class="edge">
<title>Node3&#45;&gt;Node4</title>
<path fill="none" stroke="midnightblue" d="M834.15,-86C843.48,-86 852.76,-86 861.83,-86"/>
<polygon fill="midnightblue" stroke="midnightblue" points="861.95,-89.5 871.95,-86 861.95,-82.5 861.95,-89.5"/>
</g>
<!-- Node7 -->
<g id="node7" class="node">
<title>Node7</title>
<g id="a_node7"><a xlink:href="classUtility_1_1ModalWindow.html#adcef8cae2dffe4247c905d042ff0a8e3" target="_top" xlink:title="Show the modal window">
<polygon fill="white" stroke="black" points="889,-0.5 889,-19.5 1035,-19.5 1035,-0.5 889,-0.5"/>
<text text-anchor="middle" x="962" y="-7.5" font-family="Helvetica,sans-Serif" font-size="10.00">Utility.ModalWindow.Show</text>
</a>
</g>
</g>
<!-- Node6&#45;&gt;Node7 -->
<g id="edge6" class="edge">
<title>Node6&#45;&gt;Node7</title>
<path fill="none" stroke="midnightblue" d="M836.1,-10C850.69,-10 865.14,-10 878.75,-10"/>
<polygon fill="midnightblue" stroke="midnightblue" points="878.99,-13.5 888.99,-10 878.99,-6.5 878.99,-13.5"/>
</g>
</g>
</svg>
