<?xml version="1.0" encoding="UTF-8" standalone="no"?>
<!DOCTYPE svg PUBLIC "-//W3C//DTD SVG 1.1//EN"
 "http://www.w3.org/Graphics/SVG/1.1/DTD/svg11.dtd">
<!-- Generated by graphviz version 2.43.0 (0)
 -->
<!-- Title: Game.Car.ChangeChunkIfNeeded Pages: 1 -->
<svg width="411pt" height="64pt"
 viewBox="0.00 0.00 411.00 64.00" xmlns="http://www.w3.org/2000/svg" xmlns:xlink="http://www.w3.org/1999/xlink">
<g id="graph0" class="graph" transform="scale(1 1) rotate(0) translate(4 60)">
<title>Game.Car.ChangeChunkIfNeeded</title>
<!-- Node1 -->
<g id="Node000001" class="node">
<title>Node1</title>
<g id="a_Node000001"><a xlink:title="Change the chunk if it went over the chunk border.">
<polygon fill="#999999" stroke="#666666" points="179,-37 0,-37 0,-18 179,-18 179,-37"/>
<text text-anchor="middle" x="89.5" y="-25" font-family="Helvetica,sans-Serif" font-size="10.00">Game.Car.ChangeChunkIfNeeded</text>
</a>
</g>
</g>
<!-- Node2 -->
<g id="Node000002" class="node">
<title>Node2</title>
<g id="a_Node000002"><a xlink:href="classGame_1_1Car.html#aafa1ed6c6d66625c4e9dd1c18fb67fd3" target="_top" xlink:title="Virtual method for chunk changed.">
<polygon fill="white" stroke="#666666" points="379.5,-56 238.5,-56 238.5,-37 379.5,-37 379.5,-56"/>
<text text-anchor="middle" x="309" y="-44" font-family="Helvetica,sans-Serif" font-size="10.00">Game.Car.ChunkChanged</text>
</a>
</g>
</g>
<!-- Node1&#45;&gt;Node2 -->
<g id="edge1_Node000001_Node000002" class="edge">
<title>Node1&#45;&gt;Node2</title>
<g id="a_edge1_Node000001_Node000002"><a xlink:title=" ">
<path fill="none" stroke="#63b8ff" d="M179.28,-35.26C195.47,-36.67 212.27,-38.14 228.18,-39.53"/>
<polygon fill="#63b8ff" stroke="#63b8ff" points="228.22,-43.04 238.49,-40.43 228.83,-36.07 228.22,-43.04"/>
</a>
</g>
</g>
<!-- Node3 -->
<g id="Node000003" class="node">
<title>Node3</title>
<g id="a_Node000003"><a xlink:href="classGame_1_1World_1_1GameWorld.html#a78654137c458c1b1917285e28d3d270b" target="_top" xlink:title="Gets the chunk based on the absolute position which chunk it would fall into.">
<polygon fill="white" stroke="#666666" points="403,-19 215,-19 215,0 403,0 403,-19"/>
<text text-anchor="middle" x="309" y="-7" font-family="Helvetica,sans-Serif" font-size="10.00">Game.World.GameWorld.GetChunk</text>
</a>
</g>
</g>
<!-- Node1&#45;&gt;Node3 -->
<g id="edge2_Node000001_Node000003" class="edge">
<title>Node1&#45;&gt;Node3</title>
<g id="a_edge2_Node000001_Node000003"><a xlink:title=" ">
<path fill="none" stroke="#63b8ff" d="M179.28,-20.15C187.72,-19.45 196.33,-18.74 204.89,-18.03"/>
<polygon fill="#63b8ff" stroke="#63b8ff" points="205.23,-21.52 214.91,-17.2 204.66,-14.54 205.23,-21.52"/>
</a>
</g>
</g>
</g>
</svg>
