<?xml version="1.0" encoding="UTF-8" standalone="no"?>
<!DOCTYPE svg PUBLIC "-//W3C//DTD SVG 1.1//EN"
 "http://www.w3.org/Graphics/SVG/1.1/DTD/svg11.dtd">
<!-- Generated by graphviz version 2.43.0 (0)
 -->
<!-- Title: MainPage.TaskHistoryWindowHandler Pages: 1 -->
<svg width="306pt" height="320pt"
 viewBox="0.00 0.00 306.00 320.00" xmlns="http://www.w3.org/2000/svg" xmlns:xlink="http://www.w3.org/1999/xlink">
<g id="graph0" class="graph" transform="scale(1 1) rotate(0) translate(4 316)">
<title>MainPage.TaskHistoryWindowHandler</title>
<polygon fill="white" stroke="transparent" points="-4,4 -4,-316 302,-316 302,4 -4,4"/>
<!-- Node1 -->
<g id="node1" class="node">
<title>Node1</title>
<g id="a_node1"><a xlink:title="Task histories window controller">
<polygon fill="#bfbfbf" stroke="black" points="0,-0.5 0,-123.5 298,-123.5 298,-0.5 0,-0.5"/>
<text text-anchor="middle" x="149" y="-111.5" font-family="Helvetica,sans-Serif" font-size="10.00">MainPage.TaskHistoryWindowHandler</text>
<polyline fill="none" stroke="black" points="0,-104.5 298,-104.5 "/>
<text text-anchor="start" x="8" y="-92.5" font-family="Helvetica,sans-Serif" font-size="10.00">&#45; GameObject taskHistoriesParent</text>
<text text-anchor="start" x="8" y="-81.5" font-family="Helvetica,sans-Serif" font-size="10.00">&#45; ModalWindow modalWindow</text>
<text text-anchor="start" x="8" y="-70.5" font-family="Helvetica,sans-Serif" font-size="10.00">&#45; GameObject taskHistoryItemPrefab</text>
<polyline fill="none" stroke="black" points="0,-63.5 298,-63.5 "/>
<text text-anchor="start" x="8" y="-51.5" font-family="Helvetica,sans-Serif" font-size="10.00">+ void Show()</text>
<text text-anchor="start" x="8" y="-40.5" font-family="Helvetica,sans-Serif" font-size="10.00">+ void Hide()</text>
<text text-anchor="start" x="8" y="-29.5" font-family="Helvetica,sans-Serif" font-size="10.00">+ void LoadTaskHistories()</text>
<text text-anchor="start" x="8" y="-18.5" font-family="Helvetica,sans-Serif" font-size="10.00">&#45; void ShowRequestFail(string content)</text>
<text text-anchor="start" x="8" y="-7.5" font-family="Helvetica,sans-Serif" font-size="10.00">&#45; void LoadedHistories(List&lt; TaskHistory &gt; taskHistories)</text>
</a>
</g>
</g>
<!-- Node2 -->
<g id="node2" class="node">
<title>Node2</title>
<g id="a_node2"><a xlink:href="classUtility_1_1ThreadSafeMonoBehaviour.html" target="_top" xlink:title="Safely stores if the gameobject been destroyed in a bool">
<polygon fill="white" stroke="black" points="74.5,-160.5 74.5,-217.5 223.5,-217.5 223.5,-160.5 74.5,-160.5"/>
<text text-anchor="middle" x="149" y="-205.5" font-family="Helvetica,sans-Serif" font-size="10.00">ThreadSafeMonoBehaviour</text>
<polyline fill="none" stroke="black" points="74.5,-198.5 223.5,-198.5 "/>
<text text-anchor="start" x="82.5" y="-186.5" font-family="Helvetica,sans-Serif" font-size="10.00">+ bool Destroyed</text>
<polyline fill="none" stroke="black" points="74.5,-179.5 223.5,-179.5 "/>
<text text-anchor="start" x="82.5" y="-167.5" font-family="Helvetica,sans-Serif" font-size="10.00"># void OnDestroy()</text>
</a>
</g>
</g>
<!-- Node2&#45;&gt;Node1 -->
<g id="edge1" class="edge">
<title>Node2&#45;&gt;Node1</title>
<path fill="none" stroke="midnightblue" d="M149,-150.1C149,-141.74 149,-132.68 149,-123.67"/>
<polygon fill="none" stroke="midnightblue" points="145.5,-150.26 149,-160.26 152.5,-150.26 145.5,-150.26"/>
</g>
<!-- Node3 -->
<g id="node3" class="node">
<title>Node3</title>
<g id="a_node3"><a xlink:title=" ">
<polygon fill="white" stroke="#bfbfbf" points="102.5,-254.5 102.5,-311.5 195.5,-311.5 195.5,-254.5 102.5,-254.5"/>
<text text-anchor="middle" x="149" y="-299.5" font-family="Helvetica,sans-Serif" font-size="10.00">MonoBehaviour</text>
<polyline fill="none" stroke="#bfbfbf" points="102.5,-292.5 195.5,-292.5 "/>
<text text-anchor="middle" x="149" y="-280.5" font-family="Helvetica,sans-Serif" font-size="10.00"> </text>
<polyline fill="none" stroke="#bfbfbf" points="102.5,-273.5 195.5,-273.5 "/>
<text text-anchor="middle" x="149" y="-261.5" font-family="Helvetica,sans-Serif" font-size="10.00"> </text>
</a>
</g>
</g>
<!-- Node3&#45;&gt;Node2 -->
<g id="edge2" class="edge">
<title>Node3&#45;&gt;Node2</title>
<path fill="none" stroke="midnightblue" d="M149,-244.21C149,-235.29 149,-225.95 149,-217.58"/>
<polygon fill="none" stroke="midnightblue" points="145.5,-244.4 149,-254.4 152.5,-244.4 145.5,-244.4"/>
</g>
</g>
</svg>
