<?xml version="1.0" encoding="UTF-8" standalone="no"?>
<!DOCTYPE svg PUBLIC "-//W3C//DTD SVG 1.1//EN"
 "http://www.w3.org/Graphics/SVG/1.1/DTD/svg11.dtd">
<!-- Generated by graphviz version 2.43.0 (0)
 -->
<!-- Title: Game.World.GameWorld.LoadChunk Pages: 1 -->
<svg width="1458pt" height="214pt"
 viewBox="0.00 0.00 1458.00 214.00" xmlns="http://www.w3.org/2000/svg" xmlns:xlink="http://www.w3.org/1999/xlink">
<g id="graph0" class="graph" transform="scale(1 1) rotate(0) translate(4 210)">
<title>Game.World.GameWorld.LoadChunk</title>
<!-- Node1 -->
<g id="Node000001" class="node">
<title>Node1</title>
<g id="a_Node000001"><a xlink:title="Loads a chunk.">
<polygon fill="#999999" stroke="#666666" points="194,-187 0,-187 0,-168 194,-168 194,-187"/>
<text text-anchor="middle" x="97" y="-175" font-family="Helvetica,sans-Serif" font-size="10.00">Game.World.GameWorld.LoadChunk</text>
</a>
</g>
</g>
<!-- Node2 -->
<g id="Node000002" class="node">
<title>Node2</title>
<g id="a_Node000002"><a xlink:href="classGame_1_1World_1_1Chunk.html#a475512064d145228ca7084735b7e2f2f" target="_top" xlink:title="Show the chunk.">
<polygon fill="white" stroke="#666666" points="385,-206 235,-206 235,-187 385,-187 385,-206"/>
<text text-anchor="middle" x="310" y="-194" font-family="Helvetica,sans-Serif" font-size="10.00">Game.World.Chunk.Display</text>
</a>
</g>
</g>
<!-- Node1&#45;&gt;Node2 -->
<g id="edge1_Node000001_Node000002" class="edge">
<title>Node1&#45;&gt;Node2</title>
<g id="a_edge1_Node000001_Node000002"><a xlink:title=" ">
<path fill="none" stroke="#63b8ff" d="M194.24,-186.17C204.32,-187.07 214.52,-187.99 224.46,-188.89"/>
<polygon fill="#63b8ff" stroke="#63b8ff" points="224.43,-192.4 234.71,-189.81 225.06,-185.43 224.43,-192.4"/>
</a>
</g>
</g>
<!-- Node3 -->
<g id="Node000003" class="node">
<title>Node3</title>
<g id="a_Node000003"><a xlink:href="classGame_1_1World_1_1Chunk.html#a0616c2f9600a4bcc1dbe97a93a947e7a" target="_top" xlink:title="Initialize the chunk.">
<polygon fill="white" stroke="#666666" points="390,-169 230,-169 230,-150 390,-150 390,-169"/>
<text text-anchor="middle" x="310" y="-157" font-family="Helvetica,sans-Serif" font-size="10.00">Game.World.Chunk.InitChunk</text>
</a>
</g>
</g>
<!-- Node1&#45;&gt;Node3 -->
<g id="edge2_Node000001_Node000003" class="edge">
<title>Node1&#45;&gt;Node3</title>
<g id="a_edge2_Node000001_Node000003"><a xlink:title=" ">
<path fill="none" stroke="#63b8ff" d="M194.24,-169.29C202.74,-168.57 211.32,-167.83 219.76,-167.11"/>
<polygon fill="#63b8ff" stroke="#63b8ff" points="220.3,-170.58 229.96,-166.24 219.7,-163.61 220.3,-170.58"/>
</a>
</g>
</g>
<!-- Node4 -->
<g id="Node000004" class="node">
<title>Node4</title>
<g id="a_Node000004"><a xlink:href="classGame_1_1World_1_1Chunk.html#aac3343253a33a36a09318ebc76bd9f08" target="_top" xlink:title="Creates the tiles for the chunk.">
<polygon fill="white" stroke="#666666" points="615.5,-206 446.5,-206 446.5,-187 615.5,-187 615.5,-206"/>
<text text-anchor="middle" x="531" y="-194" font-family="Helvetica,sans-Serif" font-size="10.00">Game.World.Chunk.CreateTiles</text>
</a>
</g>
</g>
<!-- Node3&#45;&gt;Node4 -->
<g id="edge3_Node000003_Node000004" class="edge">
<title>Node3&#45;&gt;Node4</title>
<g id="a_edge3_Node000003_Node000004"><a xlink:title=" ">
<path fill="none" stroke="#63b8ff" d="M367.4,-169.03C396.66,-173.97 432.6,-180.04 463.24,-185.22"/>
<polygon fill="#63b8ff" stroke="#63b8ff" points="462.97,-188.72 473.41,-186.94 464.14,-181.82 462.97,-188.72"/>
</a>
</g>
</g>
<!-- Node7 -->
<g id="Node000007" class="node">
<title>Node7</title>
<g id="a_Node000007"><a xlink:href="classGame_1_1World_1_1Chunk.html#a1fb214fa85481a42c651b9d6b0d45cb9" target="_top" xlink:title="Gets tthe nearby chunks.">
<polygon fill="white" stroke="#666666" points="632,-169 430,-169 430,-150 632,-150 632,-169"/>
<text text-anchor="middle" x="531" y="-157" font-family="Helvetica,sans-Serif" font-size="10.00">Game.World.Chunk.GetNearbyChunks</text>
</a>
</g>
</g>
<!-- Node3&#45;&gt;Node7 -->
<g id="edge6_Node000003_Node000007" class="edge">
<title>Node3&#45;&gt;Node7</title>
<g id="a_edge6_Node000003_Node000007"><a xlink:title=" ">
<path fill="none" stroke="#63b8ff" d="M390.06,-159.5C399.61,-159.5 409.5,-159.5 419.39,-159.5"/>
<polygon fill="#63b8ff" stroke="#63b8ff" points="419.69,-163 429.69,-159.5 419.69,-156 419.69,-163"/>
</a>
</g>
</g>
<!-- Node9 -->
<g id="Node000009" class="node">
<title>Node9</title>
<g id="a_Node000009"><a xlink:href="classGame_1_1World_1_1Chunk.html#a08f4b5e8b362b98f4b3f01225d12b4af" target="_top" xlink:title="Spawns the buildings and the props on a seperate thread.">
<polygon fill="white" stroke="#666666" points="636,-93 426,-93 426,-74 636,-74 636,-93"/>
<text text-anchor="middle" x="531" y="-81" font-family="Helvetica,sans-Serif" font-size="10.00">Game.World.Chunk.SpawnWorldObjects</text>
</a>
</g>
</g>
<!-- Node3&#45;&gt;Node9 -->
<g id="edge8_Node000003_Node000009" class="edge">
<title>Node3&#45;&gt;Node9</title>
<g id="a_edge8_Node000003_Node000009"><a xlink:title=" ">
<path fill="none" stroke="#63b8ff" d="M338.74,-149.87C377.82,-136.31 449.18,-111.55 492.82,-96.4"/>
<polygon fill="#63b8ff" stroke="#63b8ff" points="494.19,-99.63 502.49,-93.05 491.89,-93.02 494.19,-99.63"/>
</a>
</g>
</g>
<!-- Node5 -->
<g id="Node000005" class="node">
<title>Node5</title>
<g id="a_Node000005"><a xlink:href="classGame_1_1World_1_1Chunk.html#ac4b762352bb5f90952fe57e5c0ee208f" target="_top" xlink:title="Determines the type of the tile at the coord.">
<polygon fill="white" stroke="#666666" points="899.5,-206 693.5,-206 693.5,-187 899.5,-187 899.5,-206"/>
<text text-anchor="middle" x="796.5" y="-194" font-family="Helvetica,sans-Serif" font-size="10.00">Game.World.Chunk.DetermineTileType</text>
</a>
</g>
</g>
<!-- Node4&#45;&gt;Node5 -->
<g id="edge4_Node000004_Node000005" class="edge">
<title>Node4&#45;&gt;Node5</title>
<g id="a_edge4_Node000004_Node000005"><a xlink:title=" ">
<path fill="none" stroke="#63b8ff" d="M615.74,-196.5C637.04,-196.5 660.28,-196.5 682.76,-196.5"/>
<polygon fill="#63b8ff" stroke="#63b8ff" points="683.03,-200 693.03,-196.5 683.03,-193 683.03,-200"/>
</a>
</g>
</g>
<!-- Node6 -->
<g id="Node000006" class="node">
<title>Node6</title>
<g id="a_Node000006"><a xlink:href="classGame_1_1World_1_1Chunk.html#a2d39efc9f5c0f3c302dd7e9d007096c7" target="_top" xlink:title="Determine what type of road it is.">
<polygon fill="white" stroke="#666666" points="1185.5,-206 973.5,-206 973.5,-187 1185.5,-187 1185.5,-206"/>
<text text-anchor="middle" x="1079.5" y="-194" font-family="Helvetica,sans-Serif" font-size="10.00">Game.World.Chunk.DetermineRoadType</text>
</a>
</g>
</g>
<!-- Node5&#45;&gt;Node6 -->
<g id="edge5_Node000005_Node000006" class="edge">
<title>Node5&#45;&gt;Node6</title>
<g id="a_edge5_Node000005_Node000006"><a xlink:title=" ">
<path fill="none" stroke="#63b8ff" d="M899.74,-196.5C920.24,-196.5 941.91,-196.5 962.83,-196.5"/>
<polygon fill="#63b8ff" stroke="#63b8ff" points="963.03,-200 973.03,-196.5 963.03,-193 963.03,-200"/>
</a>
</g>
</g>
<!-- Node8 -->
<g id="Node000008" class="node">
<title>Node8</title>
<g id="a_Node000008"><a xlink:href="classGame_1_1World_1_1GameWorld.html#a6188226b54eb7e38659cbe8d9d76b620" target="_top" xlink:title="Get the chunk without trying it to load.">
<polygon fill="white" stroke="#666666" points="921,-169 672,-169 672,-150 921,-150 921,-169"/>
<text text-anchor="middle" x="796.5" y="-157" font-family="Helvetica,sans-Serif" font-size="10.00">Game.World.GameWorld.GetChunkWithoutLoad</text>
</a>
</g>
</g>
<!-- Node7&#45;&gt;Node8 -->
<g id="edge7_Node000007_Node000008" class="edge">
<title>Node7&#45;&gt;Node8</title>
<g id="a_edge7_Node000007_Node000008"><a xlink:title=" ">
<path fill="none" stroke="#63b8ff" d="M632.37,-159.5C641.98,-159.5 651.82,-159.5 661.68,-159.5"/>
<polygon fill="#63b8ff" stroke="#63b8ff" points="661.95,-163 671.95,-159.5 661.95,-156 661.95,-163"/>
</a>
</g>
</g>
<!-- Node10 -->
<g id="Node000010" class="node">
<title>Node10</title>
<g id="a_Node000010"><a xlink:href="classGame_1_1World_1_1Chunk.html#a12ff4b268fb99d10493398cfe555b46c" target="_top" xlink:title=" ">
<polygon fill="white" stroke="#666666" points="1190,-131 969,-131 969,-112 1190,-112 1190,-131"/>
<text text-anchor="middle" x="1079.5" y="-119" font-family="Helvetica,sans-Serif" font-size="10.00">Game.World.Chunk.AddEnvironmentProps</text>
</a>
</g>
</g>
<!-- Node9&#45;&gt;Node10 -->
<g id="edge9_Node000009_Node000010" class="edge">
<title>Node9&#45;&gt;Node10</title>
<g id="a_edge9_Node000009_Node000010"><a xlink:title=" ">
<path fill="none" stroke="#63b8ff" d="M597.76,-93.04C621.16,-96.15 647.71,-99.34 672,-101.5 768.18,-110.04 877.51,-115.16 958.54,-118.08"/>
<polygon fill="#63b8ff" stroke="#63b8ff" points="958.66,-121.58 968.78,-118.44 958.91,-114.59 958.66,-121.58"/>
</a>
</g>
</g>
<!-- Node12 -->
<g id="Node000012" class="node">
<title>Node12</title>
<g id="a_Node000012"><a xlink:href="classGame_1_1World_1_1Chunk.html#a00a9cd484ae1ddffec928a75f6b2db15" target="_top" xlink:title="Add the buildings which are next to the roads.">
<polygon fill="white" stroke="#666666" points="897.5,-93 695.5,-93 695.5,-74 897.5,-74 897.5,-93"/>
<text text-anchor="middle" x="796.5" y="-81" font-family="Helvetica,sans-Serif" font-size="10.00">Game.World.Chunk.AddRoadBuildings</text>
</a>
</g>
</g>
<!-- Node9&#45;&gt;Node12 -->
<g id="edge11_Node000009_Node000012" class="edge">
<title>Node9&#45;&gt;Node12</title>
<g id="a_edge11_Node000009_Node000012"><a xlink:title=" ">
<path fill="none" stroke="#63b8ff" d="M636.14,-83.5C652.22,-83.5 668.88,-83.5 685.1,-83.5"/>
<polygon fill="#63b8ff" stroke="#63b8ff" points="685.12,-87 695.12,-83.5 685.12,-80 685.12,-87"/>
</a>
</g>
</g>
<!-- Node14 -->
<g id="Node000014" class="node">
<title>Node14</title>
<g id="a_Node000014"><a xlink:href="classGame_1_1World_1_1Chunk.html#a443ede65d8aeb566a385cb3bcad9d8f7" target="_top" xlink:title="Generate the building cells matrix so we know which way the roads are.">
<polygon fill="white" stroke="#666666" points="901,-56 692,-56 692,-37 901,-37 901,-56"/>
<text text-anchor="middle" x="796.5" y="-44" font-family="Helvetica,sans-Serif" font-size="10.00">Game.World.Chunk.GenerateCellMatrix</text>
</a>
</g>
</g>
<!-- Node9&#45;&gt;Node14 -->
<g id="edge14_Node000009_Node000014" class="edge">
<title>Node9&#45;&gt;Node14</title>
<g id="a_edge14_Node000009_Node000014"><a xlink:title=" ">
<path fill="none" stroke="#63b8ff" d="M599.86,-73.97C635.68,-68.94 679.81,-62.74 717.09,-57.51"/>
<polygon fill="#63b8ff" stroke="#63b8ff" points="718,-60.92 727.41,-56.06 717.03,-53.98 718,-60.92"/>
</a>
</g>
</g>
<!-- Node15 -->
<g id="Node000015" class="node">
<title>Node15</title>
<g id="a_Node000015"><a xlink:href="classUtility_1_1CoroutineRunner.html#a1c473dee723f16d86bab9d8475c8214a" target="_top" xlink:title="A helper method to start coroutines.">
<polygon fill="white" stroke="#666666" points="895.5,-19 697.5,-19 697.5,0 895.5,0 895.5,-19"/>
<text text-anchor="middle" x="796.5" y="-7" font-family="Helvetica,sans-Serif" font-size="10.00">Utility.CoroutineRunner.RunCoroutine</text>
</a>
</g>
</g>
<!-- Node9&#45;&gt;Node15 -->
<g id="edge15_Node000009_Node000015" class="edge">
<title>Node9&#45;&gt;Node15</title>
<g id="a_edge15_Node000009_Node000015"><a xlink:title=" ">
<path fill="none" stroke="#63b8ff" d="M551.89,-73.8C578.58,-61.19 627.76,-39.39 672,-27.5 681.49,-24.95 691.5,-22.73 701.55,-20.82"/>
<polygon fill="#63b8ff" stroke="#63b8ff" points="702.36,-24.23 711.58,-19.01 701.12,-17.34 702.36,-24.23"/>
</a>
</g>
</g>
<!-- Node11 -->
<g id="Node000011" class="node">
<title>Node11</title>
<g id="a_Node000011"><a xlink:href="classGame_1_1World_1_1Chunk.html#af37779d40ed9cd07b577d5bca61627b7" target="_top" xlink:title=" ">
<polygon fill="white" stroke="#666666" points="1450,-112 1238,-112 1238,-93 1450,-93 1450,-112"/>
<text text-anchor="middle" x="1344" y="-100" font-family="Helvetica,sans-Serif" font-size="10.00">Game.World.Chunk.GetAbsolutePosition</text>
</a>
</g>
</g>
<!-- Node10&#45;&gt;Node11 -->
<g id="edge10_Node000010_Node000011" class="edge">
<title>Node10&#45;&gt;Node11</title>
<g id="a_edge10_Node000010_Node000011"><a xlink:title=" ">
<path fill="none" stroke="#63b8ff" d="M1190.3,-113.55C1202.6,-112.66 1215.15,-111.75 1227.51,-110.86"/>
<polygon fill="#63b8ff" stroke="#63b8ff" points="1228.12,-114.32 1237.84,-110.11 1227.61,-107.34 1228.12,-114.32"/>
</a>
</g>
</g>
<!-- Node13 -->
<g id="Node000013" class="node">
<title>Node13</title>
<g id="a_Node000013"><a xlink:href="classGame_1_1World_1_1Chunk.html#af2946e1e1b9e325d6004d166b2b26193" target="_top" xlink:title="Lock the cell and try to place it.">
<polygon fill="white" stroke="#666666" points="1202,-94 957,-94 957,-75 1202,-75 1202,-94"/>
<text text-anchor="middle" x="1079.5" y="-82" font-family="Helvetica,sans-Serif" font-size="10.00">Game.World.Chunk.LockAndTryToPlaceBuilding</text>
</a>
</g>
</g>
<!-- Node12&#45;&gt;Node13 -->
<g id="edge12_Node000012_Node000013" class="edge">
<title>Node12&#45;&gt;Node13</title>
<g id="a_edge12_Node000012_Node000013"><a xlink:title=" ">
<path fill="none" stroke="#63b8ff" d="M897.76,-83.86C913.55,-83.91 930.09,-83.97 946.47,-84.03"/>
<polygon fill="#63b8ff" stroke="#63b8ff" points="946.62,-87.53 956.64,-84.07 946.65,-80.53 946.62,-87.53"/>
</a>
</g>
</g>
<!-- Node13&#45;&gt;Node11 -->
<g id="edge13_Node000013_Node000011" class="edge">
<title>Node13&#45;&gt;Node11</title>
<g id="a_edge13_Node000013_Node000011"><a xlink:title=" ">
<path fill="none" stroke="#63b8ff" d="M1202.14,-92.84C1210.63,-93.42 1219.17,-94.01 1227.62,-94.59"/>
<polygon fill="#63b8ff" stroke="#63b8ff" points="1227.66,-98.1 1237.87,-95.29 1228.14,-91.12 1227.66,-98.1"/>
</a>
</g>
</g>
</g>
</svg>
