<?xml version="1.0" encoding="UTF-8" standalone="no"?>
<!DOCTYPE svg PUBLIC "-//W3C//DTD SVG 1.1//EN"
 "http://www.w3.org/Graphics/SVG/1.1/DTD/svg11.dtd">
<!-- Generated by graphviz version 2.43.0 (0)
 -->
<!-- Title: User.UserController.SendRegister Pages: 1 -->
<svg width="673pt" height="180pt"
 viewBox="0.00 0.00 673.00 180.00" xmlns="http://www.w3.org/2000/svg" xmlns:xlink="http://www.w3.org/1999/xlink">
<g id="graph0" class="graph" transform="scale(1 1) rotate(0) translate(4 176)">
<title>User.UserController.SendRegister</title>
<polygon fill="white" stroke="transparent" points="-4,4 -4,-176 669,-176 669,4 -4,4"/>
<!-- Node1 -->
<g id="node1" class="node">
<title>Node1</title>
<g id="a_node1"><a xlink:title="Send a register request with the register panel&#39;s fields">
<polygon fill="#bfbfbf" stroke="black" points="0,-76.5 0,-95.5 179,-95.5 179,-76.5 0,-76.5"/>
<text text-anchor="middle" x="89.5" y="-83.5" font-family="Helvetica,sans-Serif" font-size="10.00">User.UserController.SendRegister</text>
</a>
</g>
</g>
<!-- Node2 -->
<g id="node2" class="node">
<title>Node2</title>
<g id="a_node2"><a xlink:href="classUser_1_1UserController.html#a17e85e80e7b55a5c9c0b01bc0ed5735e" target="_top" xlink:title="Check if the email is valid">
<polygon fill="white" stroke="black" points="230,-152.5 230,-171.5 404,-171.5 404,-152.5 230,-152.5"/>
<text text-anchor="middle" x="317" y="-159.5" font-family="Helvetica,sans-Serif" font-size="10.00">User.UserController.IsValidEmail</text>
</a>
</g>
</g>
<!-- Node1&#45;&gt;Node2 -->
<g id="edge1" class="edge">
<title>Node1&#45;&gt;Node2</title>
<path fill="none" stroke="midnightblue" d="M107.69,-95.51C131.23,-108.14 175.13,-130.33 215,-143 223.74,-145.78 233.04,-148.21 242.33,-150.31"/>
<polygon fill="midnightblue" stroke="midnightblue" points="241.86,-153.79 252.38,-152.47 243.34,-146.95 241.86,-153.79"/>
</g>
<!-- Node3 -->
<g id="node3" class="node">
<title>Node3</title>
<g id="a_node3"><a xlink:href="classUser_1_1UserController.html#aa173cb240990e358e98ff052c30a93e9" target="_top" xlink:title="When the register request was responded successfully register the user and log him in">
<polygon fill="white" stroke="black" points="233.5,-114.5 233.5,-133.5 400.5,-133.5 400.5,-114.5 233.5,-114.5"/>
<text text-anchor="middle" x="317" y="-121.5" font-family="Helvetica,sans-Serif" font-size="10.00">User.UserController.Registered</text>
</a>
</g>
</g>
<!-- Node1&#45;&gt;Node3 -->
<g id="edge2" class="edge">
<title>Node1&#45;&gt;Node3</title>
<path fill="none" stroke="midnightblue" d="M147.11,-95.54C178.21,-100.78 216.95,-107.31 249.48,-112.79"/>
<polygon fill="midnightblue" stroke="midnightblue" points="248.92,-116.25 259.36,-114.46 250.09,-109.34 248.92,-116.25"/>
</g>
<!-- Node6 -->
<g id="node6" class="node">
<title>Node6</title>
<g id="a_node6"><a xlink:href="classUtility_1_1CoroutineRunner.html#a1c473dee723f16d86bab9d8475c8214a" target="_top" xlink:title="A helper method to start coroutines">
<polygon fill="white" stroke="black" points="461,-76.5 461,-95.5 659,-95.5 659,-76.5 461,-76.5"/>
<text text-anchor="middle" x="560" y="-83.5" font-family="Helvetica,sans-Serif" font-size="10.00">Utility.CoroutineRunner.RunCoroutine</text>
</a>
</g>
</g>
<!-- Node1&#45;&gt;Node6 -->
<g id="edge6" class="edge">
<title>Node1&#45;&gt;Node6</title>
<path fill="none" stroke="midnightblue" d="M179.17,-86C256.33,-86 368.41,-86 450.83,-86"/>
<polygon fill="midnightblue" stroke="midnightblue" points="450.98,-89.5 460.98,-86 450.98,-82.5 450.98,-89.5"/>
</g>
<!-- Node7 -->
<g id="node7" class="node">
<title>Node7</title>
<g id="a_node7"><a xlink:href="classUtility_1_1ModalWindow.html#adcef8cae2dffe4247c905d042ff0a8e3" target="_top" xlink:title="Show the modal window">
<polygon fill="white" stroke="black" points="487,-19.5 487,-38.5 633,-38.5 633,-19.5 487,-19.5"/>
<text text-anchor="middle" x="560" y="-26.5" font-family="Helvetica,sans-Serif" font-size="10.00">Utility.ModalWindow.Show</text>
</a>
</g>
</g>
<!-- Node1&#45;&gt;Node7 -->
<g id="edge7" class="edge">
<title>Node1&#45;&gt;Node7</title>
<path fill="none" stroke="midnightblue" d="M168.65,-76.49C253.92,-66.12 389.84,-49.58 476.71,-39.01"/>
<polygon fill="midnightblue" stroke="midnightblue" points="477.28,-42.47 486.79,-37.79 476.44,-35.52 477.28,-42.47"/>
</g>
<!-- Node8 -->
<g id="node8" class="node">
<title>Node8</title>
<g id="a_node8"><a xlink:href="classUser_1_1UserController.html#a07a456882c4f5619e468f30cc0cdf76c" target="_top" xlink:title="Show the register error on the modal window">
<polygon fill="white" stroke="black" points="215,-0.5 215,-19.5 419,-19.5 419,-0.5 215,-0.5"/>
<text text-anchor="middle" x="317" y="-7.5" font-family="Helvetica,sans-Serif" font-size="10.00">User.UserController.ShowRegisterError</text>
</a>
</g>
</g>
<!-- Node1&#45;&gt;Node8 -->
<g id="edge8" class="edge">
<title>Node1&#45;&gt;Node8</title>
<path fill="none" stroke="midnightblue" d="M110.82,-76.31C135.15,-64.98 177.35,-46.24 215,-34 229.06,-29.43 244.49,-25.32 258.96,-21.85"/>
<polygon fill="midnightblue" stroke="midnightblue" points="259.86,-25.23 268.8,-19.55 258.26,-18.42 259.86,-25.23"/>
</g>
<!-- Node4 -->
<g id="node4" class="node">
<title>Node4</title>
<g id="a_node4"><a xlink:href="classUser_1_1UserData.html#abb372911b5e49023a977bd064f46bb6e" target="_top" xlink:title="Initialises the user instance with proper data">
<polygon fill="white" stroke="black" points="507,-152.5 507,-171.5 613,-171.5 613,-152.5 507,-152.5"/>
<text text-anchor="middle" x="560" y="-159.5" font-family="Helvetica,sans-Serif" font-size="10.00">User.UserData.Init</text>
</a>
</g>
</g>
<!-- Node3&#45;&gt;Node4 -->
<g id="edge3" class="edge">
<title>Node3&#45;&gt;Node4</title>
<path fill="none" stroke="midnightblue" d="M378.5,-133.54C414.57,-139.23 460.27,-146.43 496.66,-152.17"/>
<polygon fill="midnightblue" stroke="midnightblue" points="496.23,-155.65 506.66,-153.75 497.32,-148.73 496.23,-155.65"/>
</g>
<!-- Node5 -->
<g id="node5" class="node">
<title>Node5</title>
<g id="a_node5"><a xlink:href="classUser_1_1UserController.html#a3ba5f73e6358fff37d2ec5e255659756" target="_top" xlink:title="Move from the user creation and login scene">
<polygon fill="white" stroke="black" points="455,-114.5 455,-133.5 665,-133.5 665,-114.5 455,-114.5"/>
<text text-anchor="middle" x="560" y="-121.5" font-family="Helvetica,sans-Serif" font-size="10.00">User.UserController.MoveToMainScence</text>
</a>
</g>
</g>
<!-- Node3&#45;&gt;Node5 -->
<g id="edge4" class="edge">
<title>Node3&#45;&gt;Node5</title>
<path fill="none" stroke="midnightblue" d="M400.6,-124C414.77,-124 429.72,-124 444.55,-124"/>
<polygon fill="midnightblue" stroke="midnightblue" points="444.78,-127.5 454.78,-124 444.78,-120.5 444.78,-127.5"/>
</g>
<!-- Node3&#45;&gt;Node6 -->
<g id="edge5" class="edge">
<title>Node3&#45;&gt;Node6</title>
<path fill="none" stroke="midnightblue" d="M378.5,-114.46C411.88,-109.2 453.5,-102.63 488.36,-97.14"/>
<polygon fill="midnightblue" stroke="midnightblue" points="489.14,-100.56 498.47,-95.54 488.05,-93.64 489.14,-100.56"/>
</g>
<!-- Node8&#45;&gt;Node7 -->
<g id="edge9" class="edge">
<title>Node8&#45;&gt;Node7</title>
<path fill="none" stroke="midnightblue" d="M419.16,-17.98C438.29,-19.48 458.08,-21.04 476.55,-22.5"/>
<polygon fill="midnightblue" stroke="midnightblue" points="476.42,-26 486.66,-23.3 476.97,-19.02 476.42,-26"/>
</g>
</g>
</svg>
