<?xml version="1.0" encoding="UTF-8" standalone="no"?>
<!DOCTYPE svg PUBLIC "-//W3C//DTD SVG 1.1//EN"
 "http://www.w3.org/Graphics/SVG/1.1/DTD/svg11.dtd">
<!-- Generated by graphviz version 2.43.0 (0)
 -->
<!-- Title: MainPage.MainWindowController.CreateTaskPrefabs Pages: 1 -->
<svg width="2334pt" height="130pt"
 viewBox="0.00 0.00 2334.00 129.50" xmlns="http://www.w3.org/2000/svg" xmlns:xlink="http://www.w3.org/1999/xlink">
<g id="graph0" class="graph" transform="scale(1 1) rotate(0) translate(4 125.5)">
<title>MainPage.MainWindowController.CreateTaskPrefabs</title>
<!-- Node1 -->
<g id="Node000001" class="node">
<title>Node1</title>
<g id="a_Node000001"><a xlink:title="Create the task prefabs.">
<polygon fill="#999999" stroke="#666666" points="271,-28.5 0,-28.5 0,-9.5 271,-9.5 271,-28.5"/>
<text text-anchor="middle" x="135.5" y="-16.5" font-family="Helvetica,sans-Serif" font-size="10.00">MainPage.MainWindowController.CreateTaskPrefabs</text>
</a>
</g>
</g>
<!-- Node2 -->
<g id="Node000002" class="node">
<title>Node2</title>
<g id="a_Node000002"><a xlink:href="classMainPage_1_1MainWindowController.html#a827f62c47eb691eadd994bd51bf7cb74" target="_top" xlink:title="Creates a new task prefab to display.">
<polygon fill="white" stroke="#666666" points="541,-47.5 307,-47.5 307,-28.5 541,-28.5 541,-47.5"/>
<text text-anchor="middle" x="424" y="-35.5" font-family="Helvetica,sans-Serif" font-size="10.00">MainPage.MainWindowController.CreateTask</text>
</a>
</g>
</g>
<!-- Node1&#45;&gt;Node2 -->
<g id="edge1_Node000001_Node000002" class="edge">
<title>Node1&#45;&gt;Node2</title>
<g id="a_edge1_Node000001_Node000002"><a xlink:title=" ">
<path fill="none" stroke="#63b8ff" d="M271.36,-27.94C279.82,-28.5 288.32,-29.07 296.74,-29.63"/>
<polygon fill="#63b8ff" stroke="#63b8ff" points="296.76,-33.14 306.97,-30.3 297.22,-26.15 296.76,-33.14"/>
</a>
</g>
</g>
<!-- Node10 -->
<g id="Node000010" class="node">
<title>Node10</title>
<g id="a_Node000010"><a xlink:href="classMainPage_1_1MainWindowController.html#ab5b80370512cd4273e86927fe696462d" target="_top" xlink:title="Load the good tasks.">
<polygon fill="white" stroke="#666666" points="1720,-47.5 1464,-47.5 1464,-28.5 1720,-28.5 1720,-47.5"/>
<text text-anchor="middle" x="1592" y="-35.5" font-family="Helvetica,sans-Serif" font-size="10.00">MainPage.MainWindowController.LoadGoodTasks</text>
</a>
</g>
</g>
<!-- Node1&#45;&gt;Node10 -->
<g id="edge18_Node000001_Node000010" class="edge">
<title>Node1&#45;&gt;Node10</title>
<g id="a_edge18_Node000001_Node000010"><a xlink:title=" ">
<path fill="none" stroke="#63b8ff" d="M271.21,-11.71C381.79,-6.35 542.5,0 683,0 683,0 683,0 971.5,0 1174.58,0 1225.52,-4.4 1428,-20 1452.82,-21.91 1479.71,-24.62 1504.35,-27.35"/>
<polygon fill="#63b8ff" stroke="#63b8ff" points="1504.07,-30.84 1514.4,-28.48 1504.85,-23.89 1504.07,-30.84"/>
</a>
</g>
</g>
<!-- Node3 -->
<g id="Node000003" class="node">
<title>Node3</title>
<g id="a_Node000003"><a xlink:href="classMainPage_1_1TaskDisplayHandler.html#a8aedc4afb32d220352cf04cc77fdedf6" target="_top" xlink:title="Init it with the task to display and references to the controls.">
<polygon fill="white" stroke="#666666" points="791,-65.5 577,-65.5 577,-46.5 791,-46.5 791,-65.5"/>
<text text-anchor="middle" x="684" y="-53.5" font-family="Helvetica,sans-Serif" font-size="10.00">MainPage.TaskDisplayHandler.InitValues</text>
</a>
</g>
</g>
<!-- Node2&#45;&gt;Node3 -->
<g id="edge2_Node000002_Node000003" class="edge">
<title>Node2&#45;&gt;Node3</title>
<g id="a_edge2_Node000002_Node000003"><a xlink:title=" ">
<path fill="none" stroke="#63b8ff" d="M541.17,-46.1C549.73,-46.7 558.36,-47.3 566.91,-47.9"/>
<polygon fill="#63b8ff" stroke="#63b8ff" points="566.69,-51.39 576.91,-48.6 567.18,-44.41 566.69,-51.39"/>
</a>
</g>
</g>
<!-- Node4 -->
<g id="Node000004" class="node">
<title>Node4</title>
<g id="a_Node000004"><a xlink:href="classMainPage_1_1TaskDisplayHandler.html#aa49063eb8db092920d512f9869df6e98" target="_top" xlink:title="Calculate if the task can be completed again.">
<polygon fill="white" stroke="#666666" points="1114,-121.5 827,-121.5 827,-102.5 1114,-102.5 1114,-121.5"/>
<text text-anchor="middle" x="970.5" y="-109.5" font-family="Helvetica,sans-Serif" font-size="10.00">MainPage.TaskDisplayHandler.CalculateIfCompleteable</text>
</a>
</g>
</g>
<!-- Node3&#45;&gt;Node4 -->
<g id="edge3_Node000003_Node000004" class="edge">
<title>Node3&#45;&gt;Node4</title>
<g id="a_edge3_Node000003_Node000004"><a xlink:title=" ">
<path fill="none" stroke="#63b8ff" d="M715.74,-65.52C744.31,-74.07 788.18,-86.39 827,-94 840.49,-96.64 854.77,-98.98 868.89,-101.03"/>
<polygon fill="#63b8ff" stroke="#63b8ff" points="868.73,-104.54 879.12,-102.46 869.71,-97.61 868.73,-104.54"/>
</a>
</g>
</g>
<!-- Node5 -->
<g id="Node000005" class="node">
<title>Node5</title>
<g id="a_Node000005"><a xlink:href="classMainPage_1_1TaskDisplayHandler.html#a754a230e53cedd3209a29d4d6a743719" target="_top" xlink:title="When the complete state is changed update the display to match it.">
<polygon fill="white" stroke="#666666" points="1108,-84.5 833,-84.5 833,-65.5 1108,-65.5 1108,-84.5"/>
<text text-anchor="middle" x="970.5" y="-72.5" font-family="Helvetica,sans-Serif" font-size="10.00">MainPage.TaskDisplayHandler.CompleteStateChange</text>
</a>
</g>
</g>
<!-- Node3&#45;&gt;Node5 -->
<g id="edge4_Node000003_Node000005" class="edge">
<title>Node3&#45;&gt;Node5</title>
<g id="a_edge4_Node000003_Node000005"><a xlink:title=" ">
<path fill="none" stroke="#63b8ff" d="M791.34,-63.1C801.63,-63.79 812.18,-64.49 822.77,-65.2"/>
<polygon fill="#63b8ff" stroke="#63b8ff" points="822.71,-68.7 832.92,-65.88 823.18,-61.72 822.71,-68.7"/>
</a>
</g>
</g>
<!-- Node13 -->
<g id="Node000013" class="node">
<title>Node13</title>
<g id="a_Node000013"><a xlink:href="classMainPage_1_1TaskDisplayHandler.html#ac3773b76adb09298978a65c89136c20f" target="_top" xlink:title="Update the task&#39;s labels.">
<polygon fill="white" stroke="#666666" points="1087,-47.5 854,-47.5 854,-28.5 1087,-28.5 1087,-47.5"/>
<text text-anchor="middle" x="970.5" y="-35.5" font-family="Helvetica,sans-Serif" font-size="10.00">MainPage.TaskDisplayHandler.UpdateLabels</text>
</a>
</g>
</g>
<!-- Node3&#45;&gt;Node13 -->
<g id="edge16_Node000003_Node000013" class="edge">
<title>Node3&#45;&gt;Node13</title>
<g id="a_edge16_Node000003_Node000013"><a xlink:title=" ">
<path fill="none" stroke="#63b8ff" d="M791.34,-49.27C808.36,-48.2 826.11,-47.07 843.54,-45.97"/>
<polygon fill="#63b8ff" stroke="#63b8ff" points="843.99,-49.45 853.75,-45.32 843.55,-42.46 843.99,-49.45"/>
</a>
</g>
</g>
<!-- Node6 -->
<g id="Node000006" class="node">
<title>Node6</title>
<g id="a_Node000006"><a xlink:href="classMainPage_1_1MainWindowController.html#a85072f5d92f4145d6213209a13936639" target="_top" xlink:title="Refreshes the tasks with the proper sorting order.">
<polygon fill="white" stroke="#666666" points="1417.5,-84.5 1160.5,-84.5 1160.5,-65.5 1417.5,-65.5 1417.5,-84.5"/>
<text text-anchor="middle" x="1289" y="-72.5" font-family="Helvetica,sans-Serif" font-size="10.00">MainPage.MainWindowController.SortingChanged</text>
</a>
</g>
</g>
<!-- Node5&#45;&gt;Node6 -->
<g id="edge5_Node000005_Node000006" class="edge">
<title>Node5&#45;&gt;Node6</title>
<g id="a_edge5_Node000005_Node000006"><a xlink:title=" ">
<path fill="none" stroke="#63b8ff" d="M1108.02,-75C1122.02,-75 1136.26,-75 1150.27,-75"/>
<polygon fill="#63b8ff" stroke="#63b8ff" points="1150.43,-78.5 1160.43,-75 1150.43,-71.5 1150.43,-78.5"/>
</a>
</g>
</g>
<!-- Node12 -->
<g id="Node000012" class="node">
<title>Node12</title>
<g id="a_Node000012"><a xlink:href="classMainPage_1_1TaskDisplayHandler.html#aa63f1bc894519b9d5872c2bb50b84415" target="_top" xlink:title="Update the time remaining until the task can be completed again.">
<polygon fill="white" stroke="#666666" points="1428,-47.5 1150,-47.5 1150,-28.5 1428,-28.5 1428,-47.5"/>
<text text-anchor="middle" x="1289" y="-35.5" font-family="Helvetica,sans-Serif" font-size="10.00">MainPage.TaskDisplayHandler.UpdateTimeRemaining</text>
</a>
</g>
</g>
<!-- Node5&#45;&gt;Node12 -->
<g id="edge14_Node000005_Node000012" class="edge">
<title>Node5&#45;&gt;Node12</title>
<g id="a_edge14_Node000005_Node000012"><a xlink:title=" ">
<path fill="none" stroke="#63b8ff" d="M1012.55,-65.48C1045.27,-60.2 1093.18,-53.92 1139.91,-48.57"/>
<polygon fill="#63b8ff" stroke="#63b8ff" points="1140.32,-52.05 1149.86,-47.45 1139.53,-45.1 1140.32,-52.05"/>
</a>
</g>
</g>
<!-- Node7 -->
<g id="Node000007" class="node">
<title>Node7</title>
<g id="a_Node000007"><a xlink:href="classMainPage_1_1MainWindowController.html#a241b480aeebdab1bc34320cad8de7712" target="_top" xlink:title="Load the good habits.">
<polygon fill="white" stroke="#666666" points="1719,-84.5 1465,-84.5 1465,-65.5 1719,-65.5 1719,-84.5"/>
<text text-anchor="middle" x="1592" y="-72.5" font-family="Helvetica,sans-Serif" font-size="10.00">MainPage.MainWindowController.LoadBadHabits</text>
</a>
</g>
</g>
<!-- Node6&#45;&gt;Node7 -->
<g id="edge6_Node000006_Node000007" class="edge">
<title>Node6&#45;&gt;Node7</title>
<g id="a_edge6_Node000006_Node000007"><a xlink:title=" ">
<path fill="none" stroke="#63b8ff" d="M1417.65,-75C1429.79,-75 1442.14,-75 1454.36,-75"/>
<polygon fill="#63b8ff" stroke="#63b8ff" points="1454.59,-78.5 1464.59,-75 1454.59,-71.5 1454.59,-78.5"/>
</a>
</g>
</g>
<!-- Node6&#45;&gt;Node10 -->
<g id="edge10_Node000006_Node000010" class="edge">
<title>Node6&#45;&gt;Node10</title>
<g id="a_edge10_Node000006_Node000010"><a xlink:title=" ">
<path fill="none" stroke="#63b8ff" d="M1367.51,-65.47C1409.04,-60.37 1460.34,-54.06 1503.32,-48.78"/>
<polygon fill="#63b8ff" stroke="#63b8ff" points="1503.99,-52.22 1513.49,-47.53 1503.13,-45.27 1503.99,-52.22"/>
</a>
</g>
</g>
<!-- Node8 -->
<g id="Node000008" class="node">
<title>Node8</title>
<g id="a_Node000008"><a xlink:href="classMainPage_1_1TaskOpenPanelController.html#a5513399c20f650915ca10f54805f416e" target="_top" xlink:title="Make this task a bad habit.">
<polygon fill="white" stroke="#666666" points="2026,-84.5 1757,-84.5 1757,-65.5 2026,-65.5 2026,-84.5"/>
<text text-anchor="middle" x="1891.5" y="-72.5" font-family="Helvetica,sans-Serif" font-size="10.00">MainPage.TaskOpenPanelController.MakeItBadHabit</text>
</a>
</g>
</g>
<!-- Node7&#45;&gt;Node8 -->
<g id="edge7_Node000007_Node000008" class="edge">
<title>Node7&#45;&gt;Node8</title>
<g id="a_edge7_Node000007_Node000008"><a xlink:title=" ">
<path fill="none" stroke="#63b8ff" d="M1719.17,-68.32C1728.35,-68.26 1737.66,-68.24 1746.94,-68.25"/>
<polygon fill="#63b8ff" stroke="#63b8ff" points="1746.98,-71.75 1756.99,-68.28 1747,-64.75 1746.98,-71.75"/>
</a>
</g>
</g>
<!-- Node8&#45;&gt;Node7 -->
<g id="edge8_Node000008_Node000007" class="edge">
<title>Node8&#45;&gt;Node7</title>
<g id="a_edge8_Node000008_Node000007"><a xlink:title=" ">
<path fill="none" stroke="#63b8ff" d="M1756.99,-81.72C1747.75,-81.76 1738.43,-81.76 1729.18,-81.73"/>
<polygon fill="#63b8ff" stroke="#63b8ff" points="1729.18,-78.23 1719.17,-81.68 1729.15,-85.23 1729.18,-78.23"/>
</a>
</g>
</g>
<!-- Node9 -->
<g id="Node000009" class="node">
<title>Node9</title>
<g id="a_Node000009"><a xlink:href="classMainPage_1_1TaskOpenPanelController.html#aa0b6757dbad141375c50282278b23b1a" target="_top" xlink:title="Update the buttons with the appropriate color based on the current task.">
<polygon fill="white" stroke="#666666" points="2326,-65.5 2063,-65.5 2063,-46.5 2326,-46.5 2326,-65.5"/>
<text text-anchor="middle" x="2194.5" y="-53.5" font-family="Helvetica,sans-Serif" font-size="10.00">MainPage.TaskOpenPanelController.UpdateButtons</text>
</a>
</g>
</g>
<!-- Node8&#45;&gt;Node9 -->
<g id="edge9_Node000008_Node000009" class="edge">
<title>Node8&#45;&gt;Node9</title>
<g id="a_edge9_Node000008_Node000009"><a xlink:title=" ">
<path fill="none" stroke="#63b8ff" d="M2026.28,-66.56C2034.97,-66.01 2043.73,-65.45 2052.45,-64.9"/>
<polygon fill="#63b8ff" stroke="#63b8ff" points="2052.91,-68.38 2062.67,-64.26 2052.46,-61.4 2052.91,-68.38"/>
</a>
</g>
</g>
<!-- Node11 -->
<g id="Node000011" class="node">
<title>Node11</title>
<g id="a_Node000011"><a xlink:href="classMainPage_1_1TaskOpenPanelController.html#a069a63e2b7e70cc4cb4c7e487b655700" target="_top" xlink:title="Make it a good task.">
<polygon fill="white" stroke="#666666" points="2027,-47.5 1756,-47.5 1756,-28.5 2027,-28.5 2027,-47.5"/>
<text text-anchor="middle" x="1891.5" y="-35.5" font-family="Helvetica,sans-Serif" font-size="10.00">MainPage.TaskOpenPanelController.MakeItGoodTask</text>
</a>
</g>
</g>
<!-- Node10&#45;&gt;Node11 -->
<g id="edge11_Node000010_Node000011" class="edge">
<title>Node10&#45;&gt;Node11</title>
<g id="a_edge11_Node000010_Node000011"><a xlink:title=" ">
<path fill="none" stroke="#63b8ff" d="M1720.03,-31.31C1728.54,-31.26 1737.15,-31.24 1745.75,-31.25"/>
<polygon fill="#63b8ff" stroke="#63b8ff" points="1745.81,-34.75 1755.82,-31.28 1745.83,-27.75 1745.81,-34.75"/>
</a>
</g>
</g>
<!-- Node11&#45;&gt;Node9 -->
<g id="edge13_Node000011_Node000009" class="edge">
<title>Node11&#45;&gt;Node9</title>
<g id="a_edge13_Node000011_Node000009"><a xlink:title=" ">
<path fill="none" stroke="#63b8ff" d="M2027.15,-46.05C2035.7,-46.56 2044.32,-47.08 2052.9,-47.59"/>
<polygon fill="#63b8ff" stroke="#63b8ff" points="2052.75,-51.09 2062.94,-48.19 2053.17,-44.1 2052.75,-51.09"/>
</a>
</g>
</g>
<!-- Node11&#45;&gt;Node10 -->
<g id="edge12_Node000011_Node000010" class="edge">
<title>Node11&#45;&gt;Node10</title>
<g id="a_edge12_Node000011_Node000010"><a xlink:title=" ">
<path fill="none" stroke="#63b8ff" d="M1755.82,-44.72C1747.26,-44.76 1738.63,-44.76 1730.06,-44.73"/>
<polygon fill="#63b8ff" stroke="#63b8ff" points="1730.05,-41.23 1720.03,-44.69 1730.01,-48.23 1730.05,-41.23"/>
</a>
</g>
</g>
<!-- Node12&#45;&gt;Node5 -->
<g id="edge15_Node000012_Node000005" class="edge">
<title>Node12&#45;&gt;Node5</title>
<g id="a_edge15_Node000012_Node000005"><a xlink:title=" ">
<path fill="none" stroke="#63b8ff" d="M1246.8,-47.54C1213.73,-52.88 1165.2,-59.22 1118.05,-64.6"/>
<polygon fill="#63b8ff" stroke="#63b8ff" points="1117.57,-61.13 1108.02,-65.73 1118.35,-68.09 1117.57,-61.13"/>
</a>
</g>
</g>
<!-- Node13&#45;&gt;Node12 -->
<g id="edge17_Node000013_Node000012" class="edge">
<title>Node13&#45;&gt;Node12</title>
<g id="a_edge17_Node000013_Node000012"><a xlink:title=" ">
<path fill="none" stroke="#63b8ff" d="M1087.11,-38C1104.16,-38 1121.92,-38 1139.52,-38"/>
<polygon fill="#63b8ff" stroke="#63b8ff" points="1139.86,-41.5 1149.86,-38 1139.86,-34.5 1139.86,-41.5"/>
</a>
</g>
</g>
</g>
</svg>
