<?xml version="1.0" encoding="UTF-8" standalone="no"?>
<!DOCTYPE svg PUBLIC "-//W3C//DTD SVG 1.1//EN"
 "http://www.w3.org/Graphics/SVG/1.1/DTD/svg11.dtd">
<!-- Generated by graphviz version 2.43.0 (0)
 -->
<!-- Title: Game.Car.Update Pages: 1 -->
<svg width="550pt" height="64pt"
 viewBox="0.00 0.00 550.00 64.00" xmlns="http://www.w3.org/2000/svg" xmlns:xlink="http://www.w3.org/1999/xlink">
<g id="graph0" class="graph" transform="scale(1 1) rotate(0) translate(4 60)">
<title>Game.Car.Update</title>
<!-- Node1 -->
<g id="Node000001" class="node">
<title>Node1</title>
<g id="a_Node000001"><a xlink:title="Called every frame.">
<polygon fill="#999999" stroke="#666666" points="103,-37 0,-37 0,-18 103,-18 103,-37"/>
<text text-anchor="middle" x="51.5" y="-25" font-family="Helvetica,sans-Serif" font-size="10.00">Game.Car.Update</text>
</a>
</g>
</g>
<!-- Node2 -->
<g id="Node000002" class="node">
<title>Node2</title>
<g id="a_Node000002"><a xlink:href="classGame_1_1Car.html#aee18ec29b76c64797a649d50a6f83eed" target="_top" xlink:title="Change the chunk if it went over the chunk border.">
<polygon fill="white" stroke="#666666" points="318,-37 139,-37 139,-18 318,-18 318,-37"/>
<text text-anchor="middle" x="228.5" y="-25" font-family="Helvetica,sans-Serif" font-size="10.00">Game.Car.ChangeChunkIfNeeded</text>
</a>
</g>
</g>
<!-- Node1&#45;&gt;Node2 -->
<g id="edge1_Node000001_Node000002" class="edge">
<title>Node1&#45;&gt;Node2</title>
<g id="a_edge1_Node000001_Node000002"><a xlink:title=" ">
<path fill="none" stroke="#63b8ff" d="M103.12,-27.5C111.26,-27.5 119.92,-27.5 128.74,-27.5"/>
<polygon fill="#63b8ff" stroke="#63b8ff" points="128.74,-31 138.74,-27.5 128.74,-24 128.74,-31"/>
</a>
</g>
</g>
<!-- Node3 -->
<g id="Node000003" class="node">
<title>Node3</title>
<g id="a_Node000003"><a xlink:href="classGame_1_1Car.html#aafa1ed6c6d66625c4e9dd1c18fb67fd3" target="_top" xlink:title="Virtual method for chunk changed.">
<polygon fill="white" stroke="#666666" points="518.5,-56 377.5,-56 377.5,-37 518.5,-37 518.5,-56"/>
<text text-anchor="middle" x="448" y="-44" font-family="Helvetica,sans-Serif" font-size="10.00">Game.Car.ChunkChanged</text>
</a>
</g>
</g>
<!-- Node2&#45;&gt;Node3 -->
<g id="edge2_Node000002_Node000003" class="edge">
<title>Node2&#45;&gt;Node3</title>
<g id="a_edge2_Node000002_Node000003"><a xlink:title=" ">
<path fill="none" stroke="#63b8ff" d="M318.28,-35.26C334.47,-36.67 351.27,-38.14 367.18,-39.53"/>
<polygon fill="#63b8ff" stroke="#63b8ff" points="367.22,-43.04 377.49,-40.43 367.83,-36.07 367.22,-43.04"/>
</a>
</g>
</g>
<!-- Node4 -->
<g id="Node000004" class="node">
<title>Node4</title>
<g id="a_Node000004"><a xlink:href="classGame_1_1World_1_1GameWorld.html#a78654137c458c1b1917285e28d3d270b" target="_top" xlink:title="Gets the chunk based on the absolute position which chunk it would fall into.">
<polygon fill="white" stroke="#666666" points="542,-19 354,-19 354,0 542,0 542,-19"/>
<text text-anchor="middle" x="448" y="-7" font-family="Helvetica,sans-Serif" font-size="10.00">Game.World.GameWorld.GetChunk</text>
</a>
</g>
</g>
<!-- Node2&#45;&gt;Node4 -->
<g id="edge3_Node000002_Node000004" class="edge">
<title>Node2&#45;&gt;Node4</title>
<g id="a_edge3_Node000002_Node000004"><a xlink:title=" ">
<path fill="none" stroke="#63b8ff" d="M318.28,-20.15C326.72,-19.45 335.33,-18.74 343.89,-18.03"/>
<polygon fill="#63b8ff" stroke="#63b8ff" points="344.23,-21.52 353.91,-17.2 343.66,-14.54 344.23,-21.52"/>
</a>
</g>
</g>
</g>
</svg>
