<?xml version="1.0" encoding="UTF-8" standalone="no"?>
<!DOCTYPE svg PUBLIC "-//W3C//DTD SVG 1.1//EN"
 "http://www.w3.org/Graphics/SVG/1.1/DTD/svg11.dtd">
<!-- Generated by graphviz version 2.43.0 (0)
 -->
<!-- Title: MainPage.TaskHistoryHandler.Init Pages: 1 -->
<svg width="1056pt" height="39pt"
 viewBox="0.00 0.00 1056.00 39.00" xmlns="http://www.w3.org/2000/svg" xmlns:xlink="http://www.w3.org/1999/xlink">
<g id="graph0" class="graph" transform="scale(1 1) rotate(0) translate(4 35)">
<title>MainPage.TaskHistoryHandler.Init</title>
<polygon fill="white" stroke="transparent" points="-4,4 -4,-35 1052,-35 1052,4 -4,4"/>
<!-- Node1 -->
<g id="node1" class="node">
<title>Node1</title>
<g id="a_node1"><a xlink:title="Init the task history&#39;s with the data from the server">
<polygon fill="#bfbfbf" stroke="black" points="868,-6 868,-25 1048,-25 1048,-6 868,-6"/>
<text text-anchor="middle" x="958" y="-13" font-family="Helvetica,sans-Serif" font-size="10.00">MainPage.TaskHistoryHandler.Init</text>
</a>
</g>
</g>
<!-- Node2 -->
<g id="node2" class="node">
<title>Node2</title>
<g id="a_node2"><a xlink:href="classMainPage_1_1TaskHistoryWindowHandler.html#a270045b1192940fa409807d0624e0ba7" target="_top" xlink:title="When the server response is recieved load the histories">
<polygon fill="white" stroke="black" points="550,-6 550,-25 832,-25 832,-6 550,-6"/>
<text text-anchor="middle" x="691" y="-13" font-family="Helvetica,sans-Serif" font-size="10.00">MainPage.TaskHistoryWindowHandler.LoadedHistories</text>
</a>
</g>
</g>
<!-- Node1&#45;&gt;Node2 -->
<g id="edge1" class="edge">
<title>Node1&#45;&gt;Node2</title>
<path fill="none" stroke="midnightblue" d="M857.64,-15.5C849.35,-15.5 840.87,-15.5 832.35,-15.5"/>
<polygon fill="midnightblue" stroke="midnightblue" points="857.65,-19 867.65,-15.5 857.65,-12 857.65,-19"/>
</g>
<!-- Node3 -->
<g id="node3" class="node">
<title>Node3</title>
<g id="a_node3"><a xlink:href="classMainPage_1_1TaskHistoryWindowHandler.html#ada3a664597d8e1b1b9a261c3c34badba" target="_top" xlink:title="Loads the task histories from the server">
<polygon fill="white" stroke="black" points="266,-0.5 266,-30.5 514,-30.5 514,-0.5 266,-0.5"/>
<text text-anchor="start" x="274" y="-18.5" font-family="Helvetica,sans-Serif" font-size="10.00">MainPage.TaskHistoryWindowHandler.LoadTask</text>
<text text-anchor="middle" x="390" y="-7.5" font-family="Helvetica,sans-Serif" font-size="10.00">Histories</text>
</a>
</g>
</g>
<!-- Node2&#45;&gt;Node3 -->
<g id="edge2" class="edge">
<title>Node2&#45;&gt;Node3</title>
<path fill="none" stroke="midnightblue" d="M539.42,-15.5C530.99,-15.5 522.57,-15.5 514.25,-15.5"/>
<polygon fill="midnightblue" stroke="midnightblue" points="539.69,-19 549.69,-15.5 539.69,-12 539.69,-19"/>
</g>
<!-- Node4 -->
<g id="node4" class="node">
<title>Node4</title>
<g id="a_node4"><a xlink:href="classMainPage_1_1TaskHistoryWindowHandler.html#aa726ff0b77b9245e98854bbd827ae9dd" target="_top" xlink:title="Shows the task history window">
<polygon fill="white" stroke="black" points="0,-6 0,-25 230,-25 230,-6 0,-6"/>
<text text-anchor="middle" x="115" y="-13" font-family="Helvetica,sans-Serif" font-size="10.00">MainPage.TaskHistoryWindowHandler.Show</text>
</a>
</g>
</g>
<!-- Node3&#45;&gt;Node4 -->
<g id="edge3" class="edge">
<title>Node3&#45;&gt;Node4</title>
<path fill="none" stroke="midnightblue" d="M255.64,-15.5C247.08,-15.5 238.49,-15.5 230.03,-15.5"/>
<polygon fill="midnightblue" stroke="midnightblue" points="255.68,-19 265.68,-15.5 255.68,-12 255.68,-19"/>
</g>
</g>
</svg>
