<?xml version="1.0" encoding="UTF-8" standalone="no"?>
<!DOCTYPE svg PUBLIC "-//W3C//DTD SVG 1.1//EN"
 "http://www.w3.org/Graphics/SVG/1.1/DTD/svg11.dtd">
<!-- Generated by graphviz version 2.43.0 (0)
 -->
<!-- Title: Game.UI.GameUI.BoughtTurbo Pages: 1 -->
<svg width="536pt" height="28pt"
 viewBox="0.00 0.00 536.00 28.00" xmlns="http://www.w3.org/2000/svg" xmlns:xlink="http://www.w3.org/1999/xlink">
<g id="graph0" class="graph" transform="scale(1 1) rotate(0) translate(4 24)">
<title>Game.UI.GameUI.BoughtTurbo</title>
<polygon fill="white" stroke="transparent" points="-4,4 -4,-24 532,-24 532,4 -4,4"/>
<!-- Node1 -->
<g id="node1" class="node">
<title>Node1</title>
<g id="a_node1"><a xlink:title="Callback after the player bought the turbo">
<polygon fill="#bfbfbf" stroke="black" points="362,-0.5 362,-19.5 528,-19.5 528,-0.5 362,-0.5"/>
<text text-anchor="middle" x="445" y="-7.5" font-family="Helvetica,sans-Serif" font-size="10.00">Game.UI.GameUI.BoughtTurbo</text>
</a>
</g>
</g>
<!-- Node2 -->
<g id="node2" class="node">
<title>Node2</title>
<g id="a_node2"><a xlink:href="classGame_1_1UI_1_1GameUI.html#a97a84e72b5ac1d245d1bfd3eb802fdfd" target="_top" xlink:title="Buy the turbo power up">
<polygon fill="white" stroke="black" points="176,-0.5 176,-19.5 326,-19.5 326,-0.5 176,-0.5"/>
<text text-anchor="middle" x="251" y="-7.5" font-family="Helvetica,sans-Serif" font-size="10.00">Game.UI.GameUI.BuyTurbo</text>
</a>
</g>
</g>
<!-- Node1&#45;&gt;Node2 -->
<g id="edge1" class="edge">
<title>Node1&#45;&gt;Node2</title>
<path fill="none" stroke="midnightblue" d="M351.73,-10C343.17,-10 334.57,-10 326.2,-10"/>
<polygon fill="midnightblue" stroke="midnightblue" points="351.74,-13.5 361.74,-10 351.74,-6.5 351.74,-13.5"/>
</g>
<!-- Node3 -->
<g id="node3" class="node">
<title>Node3</title>
<g id="a_node3"><a xlink:href="classGame_1_1UI_1_1GameUI.html#a77f6894867ecdecc2f7ca4bea695849f" target="_top" xlink:title="Called every frame">
<polygon fill="white" stroke="black" points="0,-0.5 0,-19.5 140,-19.5 140,-0.5 0,-0.5"/>
<text text-anchor="middle" x="70" y="-7.5" font-family="Helvetica,sans-Serif" font-size="10.00">Game.UI.GameUI.Update</text>
</a>
</g>
</g>
<!-- Node2&#45;&gt;Node3 -->
<g id="edge2" class="edge">
<title>Node2&#45;&gt;Node3</title>
<path fill="none" stroke="midnightblue" d="M165.85,-10C157.25,-10 148.58,-10 140.16,-10"/>
<polygon fill="midnightblue" stroke="midnightblue" points="165.9,-13.5 175.9,-10 165.9,-6.5 165.9,-13.5"/>
</g>
</g>
</svg>
