<?xml version="1.0" encoding="UTF-8" standalone="no"?>
<!DOCTYPE svg PUBLIC "-//W3C//DTD SVG 1.1//EN"
 "http://www.w3.org/Graphics/SVG/1.1/DTD/svg11.dtd">
<!-- Generated by graphviz version 2.43.0 (0)
 -->
<!-- Title: MainPage.MainWindowController.Start Pages: 1 -->
<svg width="2839pt" height="199pt"
 viewBox="0.00 0.00 2839.00 199.00" xmlns="http://www.w3.org/2000/svg" xmlns:xlink="http://www.w3.org/1999/xlink">
<g id="graph0" class="graph" transform="scale(1 1) rotate(0) translate(4 195)">
<title>MainPage.MainWindowController.Start</title>
<polygon fill="white" stroke="transparent" points="-4,4 -4,-195 2835,-195 2835,4 -4,4"/>
<!-- Node1 -->
<g id="node1" class="node">
<title>Node1</title>
<g id="a_node1"><a xlink:title="Start is called before the first frame update">
<polygon fill="#bfbfbf" stroke="black" points="0,-38.5 0,-57.5 203,-57.5 203,-38.5 0,-38.5"/>
<text text-anchor="middle" x="101.5" y="-45.5" font-family="Helvetica,sans-Serif" font-size="10.00">MainPage.MainWindowController.Start</text>
</a>
</g>
</g>
<!-- Node2 -->
<g id="node2" class="node">
<title>Node2</title>
<g id="a_node2"><a xlink:href="classMainPage_1_1MainWindowController.html#a47c21c97b7ba52af405119044e1434d0" target="_top" xlink:title="Load the tasks from the server">
<polygon fill="white" stroke="black" points="239,-38.5 239,-57.5 469,-57.5 469,-38.5 239,-38.5"/>
<text text-anchor="middle" x="354" y="-45.5" font-family="Helvetica,sans-Serif" font-size="10.00">MainPage.MainWindowController.LoadTasks</text>
</a>
</g>
</g>
<!-- Node1&#45;&gt;Node2 -->
<g id="edge1" class="edge">
<title>Node1&#45;&gt;Node2</title>
<path fill="none" stroke="midnightblue" d="M203.31,-48C211.71,-48 220.26,-48 228.81,-48"/>
<polygon fill="midnightblue" stroke="midnightblue" points="228.84,-51.5 238.84,-48 228.84,-44.5 228.84,-51.5"/>
</g>
<!-- Node3 -->
<g id="node3" class="node">
<title>Node3</title>
<g id="a_node3"><a xlink:href="classMainPage_1_1MainWindowController.html#ab40b51689d2d8ca0497b0e53128f4992" target="_top" xlink:title="Create the task prefabs">
<polygon fill="white" stroke="black" points="505,-76.5 505,-95.5 776,-95.5 776,-76.5 505,-76.5"/>
<text text-anchor="middle" x="640.5" y="-83.5" font-family="Helvetica,sans-Serif" font-size="10.00">MainPage.MainWindowController.CreateTaskPrefabs</text>
</a>
</g>
</g>
<!-- Node2&#45;&gt;Node3 -->
<g id="edge2" class="edge">
<title>Node2&#45;&gt;Node3</title>
<path fill="none" stroke="midnightblue" d="M426.42,-57.54C466.42,-62.88 516.44,-69.56 557.96,-75.11"/>
<polygon fill="midnightblue" stroke="midnightblue" points="557.67,-78.6 568.05,-76.46 558.6,-71.66 557.67,-78.6"/>
</g>
<!-- Node16 -->
<g id="node16" class="node">
<title>Node16</title>
<g id="a_node16"><a xlink:href="classUtility_1_1CoroutineRunner.html#a1c473dee723f16d86bab9d8475c8214a" target="_top" xlink:title="A helper method to start coroutines">
<polygon fill="white" stroke="black" points="541.5,-38.5 541.5,-57.5 739.5,-57.5 739.5,-38.5 541.5,-38.5"/>
<text text-anchor="middle" x="640.5" y="-45.5" font-family="Helvetica,sans-Serif" font-size="10.00">Utility.CoroutineRunner.RunCoroutine</text>
</a>
</g>
</g>
<!-- Node2&#45;&gt;Node16 -->
<g id="edge21" class="edge">
<title>Node2&#45;&gt;Node16</title>
<path fill="none" stroke="midnightblue" d="M469.08,-48C489.58,-48 510.89,-48 531.22,-48"/>
<polygon fill="midnightblue" stroke="midnightblue" points="531.43,-51.5 541.43,-48 531.43,-44.5 531.43,-51.5"/>
</g>
<!-- Node17 -->
<g id="node17" class="node">
<title>Node17</title>
<g id="a_node17"><a xlink:href="classMainPage_1_1MainWindowController.html#aca9938481cb1ebf9d9b46ca9779e48f4" target="_top" xlink:title="Show the server request fail in the modal window">
<polygon fill="white" stroke="black" points="509,-0.5 509,-19.5 772,-19.5 772,-0.5 509,-0.5"/>
<text text-anchor="middle" x="640.5" y="-7.5" font-family="Helvetica,sans-Serif" font-size="10.00">MainPage.MainWindowController.ShowRequestFail</text>
</a>
</g>
</g>
<!-- Node2&#45;&gt;Node17 -->
<g id="edge22" class="edge">
<title>Node2&#45;&gt;Node17</title>
<path fill="none" stroke="midnightblue" d="M426.42,-38.46C466.42,-33.12 516.44,-26.44 557.96,-20.89"/>
<polygon fill="midnightblue" stroke="midnightblue" points="558.6,-24.34 568.05,-19.54 557.67,-17.4 558.6,-24.34"/>
</g>
<!-- Node4 -->
<g id="node4" class="node">
<title>Node4</title>
<g id="a_node4"><a xlink:href="classMainPage_1_1MainWindowController.html#a827f62c47eb691eadd994bd51bf7cb74" target="_top" xlink:title="Creates a new task prefab to display">
<polygon fill="white" stroke="black" points="812,-114.5 812,-133.5 1046,-133.5 1046,-114.5 812,-114.5"/>
<text text-anchor="middle" x="929" y="-121.5" font-family="Helvetica,sans-Serif" font-size="10.00">MainPage.MainWindowController.CreateTask</text>
</a>
</g>
</g>
<!-- Node3&#45;&gt;Node4 -->
<g id="edge3" class="edge">
<title>Node3&#45;&gt;Node4</title>
<path fill="none" stroke="midnightblue" d="M713.43,-95.54C753.7,-100.88 804.07,-107.56 845.89,-113.11"/>
<polygon fill="midnightblue" stroke="midnightblue" points="845.67,-116.61 856.04,-114.46 846.59,-109.67 845.67,-116.61"/>
</g>
<!-- Node12 -->
<g id="node12" class="node">
<title>Node12</title>
<g id="a_node12"><a xlink:href="classMainPage_1_1MainWindowController.html#ab5b80370512cd4273e86927fe696462d" target="_top" xlink:title="Load the good tasks">
<polygon fill="white" stroke="black" points="1969,-95.5 1969,-114.5 2225,-114.5 2225,-95.5 1969,-95.5"/>
<text text-anchor="middle" x="2097" y="-102.5" font-family="Helvetica,sans-Serif" font-size="10.00">MainPage.MainWindowController.LoadGoodTasks</text>
</a>
</g>
</g>
<!-- Node3&#45;&gt;Node12 -->
<g id="edge20" class="edge">
<title>Node3&#45;&gt;Node12</title>
<path fill="none" stroke="midnightblue" d="M776.21,-78.71C886.79,-73.35 1047.5,-67 1188,-67 1188,-67 1188,-67 1476.5,-67 1679.56,-67 1730.57,-70.01 1933,-86 1959.45,-88.09 1988.23,-91.17 2014.14,-94.25"/>
<polygon fill="midnightblue" stroke="midnightblue" points="2013.95,-97.75 2024.3,-95.47 2014.79,-90.8 2013.95,-97.75"/>
</g>
<!-- Node5 -->
<g id="node5" class="node">
<title>Node5</title>
<g id="a_node5"><a xlink:href="classMainPage_1_1TaskDisplayHandler.html#a8aedc4afb32d220352cf04cc77fdedf6" target="_top" xlink:title="Init it with the task to display and references to the controls">
<polygon fill="white" stroke="black" points="1082,-114.5 1082,-133.5 1296,-133.5 1296,-114.5 1082,-114.5"/>
<text text-anchor="middle" x="1189" y="-121.5" font-family="Helvetica,sans-Serif" font-size="10.00">MainPage.TaskDisplayHandler.InitValues</text>
</a>
</g>
</g>
<!-- Node4&#45;&gt;Node5 -->
<g id="edge4" class="edge">
<title>Node4&#45;&gt;Node5</title>
<path fill="none" stroke="midnightblue" d="M1046.17,-124C1054.63,-124 1063.17,-124 1071.63,-124"/>
<polygon fill="midnightblue" stroke="midnightblue" points="1071.91,-127.5 1081.91,-124 1071.91,-120.5 1071.91,-127.5"/>
</g>
<!-- Node6 -->
<g id="node6" class="node">
<title>Node6</title>
<g id="a_node6"><a xlink:href="classMainPage_1_1TaskDisplayHandler.html#aa49063eb8db092920d512f9869df6e98" target="_top" xlink:title="Calculate if the task can be completed again">
<polygon fill="white" stroke="black" points="1332,-171.5 1332,-190.5 1619,-190.5 1619,-171.5 1332,-171.5"/>
<text text-anchor="middle" x="1475.5" y="-178.5" font-family="Helvetica,sans-Serif" font-size="10.00">MainPage.TaskDisplayHandler.CalculateIfCompleteable</text>
</a>
</g>
</g>
<!-- Node5&#45;&gt;Node6 -->
<g id="edge5" class="edge">
<title>Node5&#45;&gt;Node6</title>
<path fill="none" stroke="midnightblue" d="M1221.03,-133.54C1249.62,-142.04 1293.33,-154.28 1332,-162 1347.16,-165.03 1363.32,-167.7 1379.12,-170.01"/>
<polygon fill="midnightblue" stroke="midnightblue" points="1379.04,-173.54 1389.43,-171.48 1380.03,-166.61 1379.04,-173.54"/>
</g>
<!-- Node7 -->
<g id="node7" class="node">
<title>Node7</title>
<g id="a_node7"><a xlink:href="classMainPage_1_1TaskDisplayHandler.html#a754a230e53cedd3209a29d4d6a743719" target="_top" xlink:title="When the complete state is changed update the display to match it">
<polygon fill="white" stroke="black" points="1338,-133.5 1338,-152.5 1613,-152.5 1613,-133.5 1338,-133.5"/>
<text text-anchor="middle" x="1475.5" y="-140.5" font-family="Helvetica,sans-Serif" font-size="10.00">MainPage.TaskDisplayHandler.CompleteStateChange</text>
</a>
</g>
</g>
<!-- Node5&#45;&gt;Node7 -->
<g id="edge6" class="edge">
<title>Node5&#45;&gt;Node7</title>
<path fill="none" stroke="midnightblue" d="M1296.34,-131.1C1306.63,-131.79 1317.18,-132.49 1327.77,-133.2"/>
<polygon fill="midnightblue" stroke="midnightblue" points="1327.71,-136.7 1337.92,-133.88 1328.18,-129.72 1327.71,-136.7"/>
</g>
<!-- Node15 -->
<g id="node15" class="node">
<title>Node15</title>
<g id="a_node15"><a xlink:href="classMainPage_1_1TaskDisplayHandler.html#ac3773b76adb09298978a65c89136c20f" target="_top" xlink:title="Update the task&#39;s labels">
<polygon fill="white" stroke="black" points="1359,-95.5 1359,-114.5 1592,-114.5 1592,-95.5 1359,-95.5"/>
<text text-anchor="middle" x="1475.5" y="-102.5" font-family="Helvetica,sans-Serif" font-size="10.00">MainPage.TaskDisplayHandler.UpdateLabels</text>
</a>
</g>
</g>
<!-- Node5&#45;&gt;Node15 -->
<g id="edge18" class="edge">
<title>Node5&#45;&gt;Node15</title>
<path fill="none" stroke="midnightblue" d="M1296.34,-116.9C1313.36,-115.76 1331.11,-114.58 1348.54,-113.41"/>
<polygon fill="midnightblue" stroke="midnightblue" points="1349.01,-116.89 1358.75,-112.73 1348.54,-109.9 1349.01,-116.89"/>
</g>
<!-- Node8 -->
<g id="node8" class="node">
<title>Node8</title>
<g id="a_node8"><a xlink:href="classMainPage_1_1MainWindowController.html#a85072f5d92f4145d6213209a13936639" target="_top" xlink:title="Refreshes the tasks with the proper sorting order">
<polygon fill="white" stroke="black" points="1665.5,-133.5 1665.5,-152.5 1922.5,-152.5 1922.5,-133.5 1665.5,-133.5"/>
<text text-anchor="middle" x="1794" y="-140.5" font-family="Helvetica,sans-Serif" font-size="10.00">MainPage.MainWindowController.SortingChanged</text>
</a>
</g>
</g>
<!-- Node7&#45;&gt;Node8 -->
<g id="edge7" class="edge">
<title>Node7&#45;&gt;Node8</title>
<path fill="none" stroke="midnightblue" d="M1613.02,-143C1627.02,-143 1641.26,-143 1655.27,-143"/>
<polygon fill="midnightblue" stroke="midnightblue" points="1655.43,-146.5 1665.43,-143 1655.43,-139.5 1655.43,-146.5"/>
</g>
<!-- Node14 -->
<g id="node14" class="node">
<title>Node14</title>
<g id="a_node14"><a xlink:href="classMainPage_1_1TaskDisplayHandler.html#aa63f1bc894519b9d5872c2bb50b84415" target="_top" xlink:title="Update the time remaining until the task can be completed again">
<polygon fill="white" stroke="black" points="1655,-95.5 1655,-114.5 1933,-114.5 1933,-95.5 1655,-95.5"/>
<text text-anchor="middle" x="1794" y="-102.5" font-family="Helvetica,sans-Serif" font-size="10.00">MainPage.TaskDisplayHandler.UpdateTimeRemaining</text>
</a>
</g>
</g>
<!-- Node7&#45;&gt;Node14 -->
<g id="edge16" class="edge">
<title>Node7&#45;&gt;Node14</title>
<path fill="none" stroke="midnightblue" d="M1516.91,-133.46C1550.28,-127.94 1599.78,-121.32 1647.69,-115.72"/>
<polygon fill="midnightblue" stroke="midnightblue" points="1648.35,-119.16 1657.89,-114.54 1647.55,-112.21 1648.35,-119.16"/>
</g>
<!-- Node9 -->
<g id="node9" class="node">
<title>Node9</title>
<g id="a_node9"><a xlink:href="classMainPage_1_1MainWindowController.html#a241b480aeebdab1bc34320cad8de7712" target="_top" xlink:title="Load the good habits">
<polygon fill="white" stroke="black" points="1970,-133.5 1970,-152.5 2224,-152.5 2224,-133.5 1970,-133.5"/>
<text text-anchor="middle" x="2097" y="-140.5" font-family="Helvetica,sans-Serif" font-size="10.00">MainPage.MainWindowController.LoadBadHabits</text>
</a>
</g>
</g>
<!-- Node8&#45;&gt;Node9 -->
<g id="edge8" class="edge">
<title>Node8&#45;&gt;Node9</title>
<path fill="none" stroke="midnightblue" d="M1922.65,-143C1934.79,-143 1947.14,-143 1959.36,-143"/>
<polygon fill="midnightblue" stroke="midnightblue" points="1959.59,-146.5 1969.59,-143 1959.59,-139.5 1959.59,-146.5"/>
</g>
<!-- Node8&#45;&gt;Node12 -->
<g id="edge12" class="edge">
<title>Node8&#45;&gt;Node12</title>
<path fill="none" stroke="midnightblue" d="M1870.57,-133.46C1913.14,-128.09 1966.45,-121.36 2010.54,-115.79"/>
<polygon fill="midnightblue" stroke="midnightblue" points="2011.18,-119.24 2020.66,-114.51 2010.3,-112.29 2011.18,-119.24"/>
</g>
<!-- Node10 -->
<g id="node10" class="node">
<title>Node10</title>
<g id="a_node10"><a xlink:href="classMainPage_1_1TaskOpenPanelController.html#a5513399c20f650915ca10f54805f416e" target="_top" xlink:title="Make this task a bad habit">
<polygon fill="white" stroke="black" points="2262,-133.5 2262,-152.5 2531,-152.5 2531,-133.5 2262,-133.5"/>
<text text-anchor="middle" x="2396.5" y="-140.5" font-family="Helvetica,sans-Serif" font-size="10.00">MainPage.TaskOpenPanelController.MakeItBadHabit</text>
</a>
</g>
</g>
<!-- Node9&#45;&gt;Node10 -->
<g id="edge9" class="edge">
<title>Node9&#45;&gt;Node10</title>
<path fill="none" stroke="midnightblue" d="M2224.17,-136.32C2233.35,-136.26 2242.66,-136.24 2251.94,-136.25"/>
<polygon fill="midnightblue" stroke="midnightblue" points="2251.98,-139.75 2261.99,-136.28 2252,-132.75 2251.98,-139.75"/>
</g>
<!-- Node10&#45;&gt;Node9 -->
<g id="edge10" class="edge">
<title>Node10&#45;&gt;Node9</title>
<path fill="none" stroke="midnightblue" d="M2261.99,-149.72C2252.75,-149.76 2243.43,-149.76 2234.18,-149.73"/>
<polygon fill="midnightblue" stroke="midnightblue" points="2234.18,-146.23 2224.17,-149.68 2234.15,-153.23 2234.18,-146.23"/>
</g>
<!-- Node11 -->
<g id="node11" class="node">
<title>Node11</title>
<g id="a_node11"><a xlink:href="classMainPage_1_1TaskOpenPanelController.html#aa0b6757dbad141375c50282278b23b1a" target="_top" xlink:title="Update the buttons with the appropriate color based on the current task">
<polygon fill="white" stroke="black" points="2568,-114.5 2568,-133.5 2831,-133.5 2831,-114.5 2568,-114.5"/>
<text text-anchor="middle" x="2699.5" y="-121.5" font-family="Helvetica,sans-Serif" font-size="10.00">MainPage.TaskOpenPanelController.UpdateButtons</text>
</a>
</g>
</g>
<!-- Node10&#45;&gt;Node11 -->
<g id="edge11" class="edge">
<title>Node10&#45;&gt;Node11</title>
<path fill="none" stroke="midnightblue" d="M2531.28,-134.56C2539.97,-134.01 2548.73,-133.45 2557.45,-132.9"/>
<polygon fill="midnightblue" stroke="midnightblue" points="2557.91,-136.38 2567.67,-132.26 2557.46,-129.4 2557.91,-136.38"/>
</g>
<!-- Node13 -->
<g id="node13" class="node">
<title>Node13</title>
<g id="a_node13"><a xlink:href="classMainPage_1_1TaskOpenPanelController.html#a069a63e2b7e70cc4cb4c7e487b655700" target="_top" xlink:title="Make it a good task">
<polygon fill="white" stroke="black" points="2261,-95.5 2261,-114.5 2532,-114.5 2532,-95.5 2261,-95.5"/>
<text text-anchor="middle" x="2396.5" y="-102.5" font-family="Helvetica,sans-Serif" font-size="10.00">MainPage.TaskOpenPanelController.MakeItGoodTask</text>
</a>
</g>
</g>
<!-- Node12&#45;&gt;Node13 -->
<g id="edge13" class="edge">
<title>Node12&#45;&gt;Node13</title>
<path fill="none" stroke="midnightblue" d="M2225.03,-98.31C2233.54,-98.26 2242.15,-98.24 2250.75,-98.25"/>
<polygon fill="midnightblue" stroke="midnightblue" points="2250.81,-101.75 2260.82,-98.28 2250.83,-94.75 2250.81,-101.75"/>
</g>
<!-- Node13&#45;&gt;Node11 -->
<g id="edge15" class="edge">
<title>Node13&#45;&gt;Node11</title>
<path fill="none" stroke="midnightblue" d="M2532.15,-113.5C2540.7,-114.04 2549.32,-114.58 2557.9,-115.12"/>
<polygon fill="midnightblue" stroke="midnightblue" points="2557.74,-118.62 2567.94,-115.76 2558.18,-111.64 2557.74,-118.62"/>
</g>
<!-- Node13&#45;&gt;Node12 -->
<g id="edge14" class="edge">
<title>Node13&#45;&gt;Node12</title>
<path fill="none" stroke="midnightblue" d="M2260.82,-111.72C2252.26,-111.76 2243.63,-111.76 2235.06,-111.73"/>
<polygon fill="midnightblue" stroke="midnightblue" points="2235.05,-108.23 2225.03,-111.69 2235.01,-115.23 2235.05,-108.23"/>
</g>
<!-- Node14&#45;&gt;Node7 -->
<g id="edge17" class="edge">
<title>Node14&#45;&gt;Node7</title>
<path fill="none" stroke="midnightblue" d="M1752.81,-114.5C1719.45,-120.03 1669.86,-126.66 1621.85,-132.28"/>
<polygon fill="midnightblue" stroke="midnightblue" points="1621.17,-128.83 1611.64,-133.46 1621.98,-135.79 1621.17,-128.83"/>
</g>
<!-- Node15&#45;&gt;Node14 -->
<g id="edge19" class="edge">
<title>Node15&#45;&gt;Node14</title>
<path fill="none" stroke="midnightblue" d="M1592.11,-105C1609.16,-105 1626.92,-105 1644.52,-105"/>
<polygon fill="midnightblue" stroke="midnightblue" points="1644.86,-108.5 1654.86,-105 1644.86,-101.5 1644.86,-108.5"/>
</g>
<!-- Node18 -->
<g id="node18" class="node">
<title>Node18</title>
<g id="a_node18"><a xlink:href="classUtility_1_1ModalWindow.html#adcef8cae2dffe4247c905d042ff0a8e3" target="_top" xlink:title="Show the modal window">
<polygon fill="white" stroke="black" points="856,-0.5 856,-19.5 1002,-19.5 1002,-0.5 856,-0.5"/>
<text text-anchor="middle" x="929" y="-7.5" font-family="Helvetica,sans-Serif" font-size="10.00">Utility.ModalWindow.Show</text>
</a>
</g>
</g>
<!-- Node17&#45;&gt;Node18 -->
<g id="edge23" class="edge">
<title>Node17&#45;&gt;Node18</title>
<path fill="none" stroke="midnightblue" d="M772.17,-10C797.24,-10 822.83,-10 845.83,-10"/>
<polygon fill="midnightblue" stroke="midnightblue" points="845.86,-13.5 855.86,-10 845.86,-6.5 845.86,-13.5"/>
</g>
</g>
</svg>
