<?xml version="1.0" encoding="UTF-8" standalone="no"?>
<!DOCTYPE svg PUBLIC "-//W3C//DTD SVG 1.1//EN"
 "http://www.w3.org/Graphics/SVG/1.1/DTD/svg11.dtd">
<!-- Generated by graphviz version 2.43.0 (0)
 -->
<!-- Title: MainPage.MainWindowController Pages: 1 -->
<svg width="809pt" height="917pt"
 viewBox="0.00 0.00 809.45 917.00" xmlns="http://www.w3.org/2000/svg" xmlns:xlink="http://www.w3.org/1999/xlink">
<g id="graph0" class="graph" transform="scale(1 1) rotate(0) translate(4 913)">
<title>MainPage.MainWindowController</title>
<!-- Node1 -->
<g id="Node000001" class="node">
<title>Node1</title>
<g id="a_Node000001"><a xlink:title="Handles the main window&#39;s controls.">
<polygon fill="#999999" stroke="transparent" points="342,-330 0,-330 0,0 342,0 342,-330"/>
<text text-anchor="start" x="90" y="-318" font-family="Helvetica,sans-Serif" font-size="10.00">MainPage.MainWindowController</text>
<text text-anchor="start" x="4" y="-303" font-family="Helvetica,sans-Serif" font-size="10.00">+</text>
<text text-anchor="start" x="17" y="-303" font-family="Helvetica,sans-Serif" font-size="10.00">Dictionary&lt; long, TaskDisplayHandler &gt; Tasks</text>
<text text-anchor="start" x="4" y="-288" font-family="Helvetica,sans-Serif" font-size="10.00">+</text>
<text text-anchor="start" x="17" y="-288" font-family="Helvetica,sans-Serif" font-size="10.00">TaskSortType TaskSortType</text>
<text text-anchor="start" x="6.5" y="-273" font-family="Helvetica,sans-Serif" font-size="10.00">&#45;</text>
<text text-anchor="start" x="17" y="-273" font-family="Helvetica,sans-Serif" font-size="10.00">TMP_Text usernameText</text>
<text text-anchor="start" x="6.5" y="-258" font-family="Helvetica,sans-Serif" font-size="10.00">&#45;</text>
<text text-anchor="start" x="17" y="-258" font-family="Helvetica,sans-Serif" font-size="10.00">TMP_Text currentTaskScoreText</text>
<text text-anchor="start" x="6.5" y="-243" font-family="Helvetica,sans-Serif" font-size="10.00">&#45;</text>
<text text-anchor="start" x="17" y="-243" font-family="Helvetica,sans-Serif" font-size="10.00">GameObject taskParent</text>
<text text-anchor="start" x="6.5" y="-228" font-family="Helvetica,sans-Serif" font-size="10.00">&#45;</text>
<text text-anchor="start" x="17" y="-228" font-family="Helvetica,sans-Serif" font-size="10.00">GameObject taskPrefab</text>
<text text-anchor="start" x="6.5" y="-213" font-family="Helvetica,sans-Serif" font-size="10.00">&#45;</text>
<text text-anchor="start" x="17" y="-213" font-family="Helvetica,sans-Serif" font-size="10.00">TMP_Dropdown taskSortDropdown</text>
<text text-anchor="start" x="4" y="-198" font-family="Helvetica,sans-Serif" font-size="10.00">+</text>
<text text-anchor="start" x="17" y="-198" font-family="Helvetica,sans-Serif" font-size="10.00">void UpdateUserData(Thesis_backend.Data_Structures.User user)</text>
<text text-anchor="start" x="4" y="-183" font-family="Helvetica,sans-Serif" font-size="10.00">+</text>
<text text-anchor="start" x="17" y="-183" font-family="Helvetica,sans-Serif" font-size="10.00">void RemoveTask(long taskId)</text>
<text text-anchor="start" x="4" y="-168" font-family="Helvetica,sans-Serif" font-size="10.00">+</text>
<text text-anchor="start" x="17" y="-168" font-family="Helvetica,sans-Serif" font-size="10.00">void UpdateTaskLabel(long taskId)</text>
<text text-anchor="start" x="4" y="-153" font-family="Helvetica,sans-Serif" font-size="10.00">+</text>
<text text-anchor="start" x="17" y="-153" font-family="Helvetica,sans-Serif" font-size="10.00">void SortingChanged()</text>
<text text-anchor="start" x="4" y="-138" font-family="Helvetica,sans-Serif" font-size="10.00">+</text>
<text text-anchor="start" x="17" y="-138" font-family="Helvetica,sans-Serif" font-size="10.00">void LoadGoodTasks(bool updateDisplay=true)</text>
<text text-anchor="start" x="4" y="-123" font-family="Helvetica,sans-Serif" font-size="10.00">+</text>
<text text-anchor="start" x="17" y="-123" font-family="Helvetica,sans-Serif" font-size="10.00">void LoadBadHabits(bool updateDisplay=true)</text>
<text text-anchor="start" x="4" y="-108" font-family="Helvetica,sans-Serif" font-size="10.00">+</text>
<text text-anchor="start" x="17" y="-108" font-family="Helvetica,sans-Serif" font-size="10.00">GameObject CreateTask(PlayerTask taskContainer)</text>
<text text-anchor="start" x="4" y="-93" font-family="Helvetica,sans-Serif" font-size="10.00">+</text>
<text text-anchor="start" x="17" y="-93" font-family="Helvetica,sans-Serif" font-size="10.00">void ShowTaskFail(string content)</text>
<text text-anchor="start" x="4" y="-78" font-family="Helvetica,sans-Serif" font-size="10.00">+</text>
<text text-anchor="start" x="17" y="-78" font-family="Helvetica,sans-Serif" font-size="10.00">void LoadGameScene()</text>
<text text-anchor="start" x="6.5" y="-63" font-family="Helvetica,sans-Serif" font-size="10.00">&#45;</text>
<text text-anchor="start" x="17" y="-63" font-family="Helvetica,sans-Serif" font-size="10.00">async void Start()</text>
<text text-anchor="start" x="6.5" y="-48" font-family="Helvetica,sans-Serif" font-size="10.00">&#45;</text>
<text text-anchor="start" x="17" y="-48" font-family="Helvetica,sans-Serif" font-size="10.00">void LoadTasks()</text>
<text text-anchor="start" x="6.5" y="-33" font-family="Helvetica,sans-Serif" font-size="10.00">&#45;</text>
<text text-anchor="start" x="17" y="-33" font-family="Helvetica,sans-Serif" font-size="10.00">void ShowRequestFail(string content)</text>
<text text-anchor="start" x="6.5" y="-18" font-family="Helvetica,sans-Serif" font-size="10.00">&#45;</text>
<text text-anchor="start" x="17" y="-18" font-family="Helvetica,sans-Serif" font-size="10.00">void CreateTaskPrefabs(List&lt; Thesis_backend.Data</text>
<text text-anchor="start" x="17" y="-7" font-family="Helvetica,sans-Serif" font-size="10.00">_Structures.PlayerTask &gt; requestResult)</text>
<polygon fill="#666666" stroke="#666666" points="0,-313 0,-313 342,-313 342,-313 0,-313"/>
<polygon fill="#666666" stroke="#666666" points="0,-208 0,-208 15,-208 15,-208 0,-208"/>
<polygon fill="#666666" stroke="#666666" points="15,-208 15,-208 342,-208 342,-208 15,-208"/>
<polygon fill="none" stroke="#666666" points="0,0 0,-330 342,-330 342,0 0,0"/>
</a>
</g>
</g>
<!-- Node2 -->
<g id="Node000002" class="node">
<title>Node2</title>
<g id="a_Node000002"><a xlink:href="classUtility_1_1ThreadSafeMonoBehaviour.html" target="_top" xlink:title="Safely stores if the gameobject been destroyed in a bool.">
<polygon fill="white" stroke="transparent" points="415.5,-823 272.5,-823 272.5,-774 415.5,-774 415.5,-823"/>
<text text-anchor="start" x="278" y="-810.5" font-family="Helvetica,sans-Serif" font-size="10.00">ThreadSafeMonoBehaviour</text>
<text text-anchor="start" x="286.5" y="-795.5" font-family="Helvetica,sans-Serif" font-size="10.00">+</text>
<text text-anchor="start" x="309" y="-795.5" font-family="Helvetica,sans-Serif" font-size="10.00">bool Destroyed</text>
<text text-anchor="start" x="286.5" y="-780.5" font-family="Helvetica,sans-Serif" font-size="10.00">#</text>
<text text-anchor="start" x="309" y="-780.5" font-family="Helvetica,sans-Serif" font-size="10.00">void OnDestroy()</text>
<polygon fill="#666666" stroke="#666666" points="273,-805.5 273,-805.5 416,-805.5 416,-805.5 273,-805.5"/>
<polygon fill="#666666" stroke="#666666" points="273,-790.5 273,-790.5 307,-790.5 307,-790.5 273,-790.5"/>
<polygon fill="#666666" stroke="#666666" points="307,-790.5 307,-790.5 416,-790.5 416,-790.5 307,-790.5"/>
<polygon fill="none" stroke="#666666" points="272.5,-774 272.5,-823 415.5,-823 415.5,-774 272.5,-774"/>
</a>
</g>
</g>
<!-- Node2&#45;&gt;Node1 -->
<g id="edge1_Node000001_Node000002" class="edge">
<title>Node2&#45;&gt;Node1</title>
<g id="a_edge1_Node000001_Node000002"><a xlink:title=" ">
<path fill="none" stroke="#63b8ff" d="M262.17,-789.21C195.39,-780.56 108.65,-764.34 87,-737 -3.35,-622.91 35.86,-454.46 86.71,-330.07"/>
<polygon fill="none" stroke="#63b8ff" points="261.93,-792.71 272.29,-790.49 262.8,-785.76 261.93,-792.71"/>
</a>
</g>
</g>
<!-- Node4 -->
<g id="Node000004" class="node">
<title>Node4</title>
<g id="a_Node000004"><a xlink:href="classMainPage_1_1TaskOpenPanelController.html" target="_top" xlink:title="Controller for displaying, editing and creating tasks.">
<polygon fill="white" stroke="transparent" points="723.5,-737 350.5,-737 350.5,-377 723.5,-377 723.5,-737"/>
<text text-anchor="start" x="451.5" y="-725" font-family="Helvetica,sans-Serif" font-size="10.00">MainPage.TaskOpenPanelController</text>
<text text-anchor="start" x="355" y="-710" font-family="Helvetica,sans-Serif" font-size="10.00">+</text>
<text text-anchor="start" x="368" y="-710" font-family="Helvetica,sans-Serif" font-size="10.00">EventHandler&lt; TaskClosedEventArgs &gt; TaskClosedEventHandler</text>
<text text-anchor="start" x="355" y="-695" font-family="Helvetica,sans-Serif" font-size="10.00">+</text>
<text text-anchor="start" x="368" y="-695" font-family="Helvetica,sans-Serif" font-size="10.00">static readonly int[] TASKINTERVALS</text>
<text text-anchor="start" x="355" y="-680" font-family="Helvetica,sans-Serif" font-size="10.00">+</text>
<text text-anchor="start" x="368" y="-680" font-family="Helvetica,sans-Serif" font-size="10.00">PlayerTask CurrentTask</text>
<text text-anchor="start" x="357.5" y="-665" font-family="Helvetica,sans-Serif" font-size="10.00">&#45;</text>
<text text-anchor="start" x="368" y="-665" font-family="Helvetica,sans-Serif" font-size="10.00">TMP_InputField taskNameInput</text>
<text text-anchor="start" x="357.5" y="-650" font-family="Helvetica,sans-Serif" font-size="10.00">&#45;</text>
<text text-anchor="start" x="368" y="-650" font-family="Helvetica,sans-Serif" font-size="10.00">TMP_Dropdown taskIntervals</text>
<text text-anchor="start" x="357.5" y="-635" font-family="Helvetica,sans-Serif" font-size="10.00">&#45;</text>
<text text-anchor="start" x="368" y="-635" font-family="Helvetica,sans-Serif" font-size="10.00">TMP_InputField descriptionInput</text>
<text text-anchor="start" x="357.5" y="-620" font-family="Helvetica,sans-Serif" font-size="10.00">&#45;</text>
<text text-anchor="start" x="368" y="-620" font-family="Helvetica,sans-Serif" font-size="10.00">Button goodTaskButton</text>
<text text-anchor="start" x="357.5" y="-605" font-family="Helvetica,sans-Serif" font-size="10.00">&#45;</text>
<text text-anchor="start" x="368" y="-605" font-family="Helvetica,sans-Serif" font-size="10.00">Button badHabitButton</text>
<text text-anchor="start" x="357.5" y="-590" font-family="Helvetica,sans-Serif" font-size="10.00">&#45;</text>
<text text-anchor="start" x="368" y="-590" font-family="Helvetica,sans-Serif" font-size="10.00">Button deleteTaskButton</text>
<text text-anchor="start" x="357.5" y="-575" font-family="Helvetica,sans-Serif" font-size="10.00">&#45;</text>
<text text-anchor="start" x="368" y="-575" font-family="Helvetica,sans-Serif" font-size="10.00">bool isNewTask</text>
<text text-anchor="start" x="357.5" y="-560" font-family="Helvetica,sans-Serif" font-size="10.00">&#45;</text>
<text text-anchor="start" x="368" y="-560" font-family="Helvetica,sans-Serif" font-size="10.00">PlayerTask playerTaskOnOpen</text>
<text text-anchor="start" x="355" y="-545" font-family="Helvetica,sans-Serif" font-size="10.00">+</text>
<text text-anchor="start" x="368" y="-545" font-family="Helvetica,sans-Serif" font-size="10.00">void OpenUp()</text>
<text text-anchor="start" x="355" y="-530" font-family="Helvetica,sans-Serif" font-size="10.00">+</text>
<text text-anchor="start" x="368" y="-530" font-family="Helvetica,sans-Serif" font-size="10.00">void OpenUp(PlayerTask taskContainer=null, TaskType</text>
<text text-anchor="start" x="368" y="-519" font-family="Helvetica,sans-Serif" font-size="10.00"> type=TaskType.GoodTask)</text>
<text text-anchor="start" x="355" y="-504" font-family="Helvetica,sans-Serif" font-size="10.00">+</text>
<text text-anchor="start" x="368" y="-504" font-family="Helvetica,sans-Serif" font-size="10.00">void MakeItBadHabit()</text>
<text text-anchor="start" x="355" y="-489" font-family="Helvetica,sans-Serif" font-size="10.00">+</text>
<text text-anchor="start" x="368" y="-489" font-family="Helvetica,sans-Serif" font-size="10.00">void MakeItGoodTask()</text>
<text text-anchor="start" x="355" y="-474" font-family="Helvetica,sans-Serif" font-size="10.00">+</text>
<text text-anchor="start" x="368" y="-474" font-family="Helvetica,sans-Serif" font-size="10.00">void Cancel()</text>
<text text-anchor="start" x="355" y="-459" font-family="Helvetica,sans-Serif" font-size="10.00">+</text>
<text text-anchor="start" x="368" y="-459" font-family="Helvetica,sans-Serif" font-size="10.00">void Save()</text>
<text text-anchor="start" x="355" y="-444" font-family="Helvetica,sans-Serif" font-size="10.00">+</text>
<text text-anchor="start" x="368" y="-444" font-family="Helvetica,sans-Serif" font-size="10.00">void DeleteTask()</text>
<text text-anchor="start" x="357.5" y="-429" font-family="Helvetica,sans-Serif" font-size="10.00">&#45;</text>
<text text-anchor="start" x="368" y="-429" font-family="Helvetica,sans-Serif" font-size="10.00">void SavedTask(Thesis_backend.Data_Structures.PlayerTask savedTask)</text>
<text text-anchor="start" x="357.5" y="-414" font-family="Helvetica,sans-Serif" font-size="10.00">&#45;</text>
<text text-anchor="start" x="368" y="-414" font-family="Helvetica,sans-Serif" font-size="10.00">void DeletedTask(string result)</text>
<text text-anchor="start" x="357.5" y="-399" font-family="Helvetica,sans-Serif" font-size="10.00">&#45;</text>
<text text-anchor="start" x="368" y="-399" font-family="Helvetica,sans-Serif" font-size="10.00">void CollectFromFields()</text>
<text text-anchor="start" x="357.5" y="-384" font-family="Helvetica,sans-Serif" font-size="10.00">&#45;</text>
<text text-anchor="start" x="368" y="-384" font-family="Helvetica,sans-Serif" font-size="10.00">void UpdateButtons()</text>
<polygon fill="#666666" stroke="#666666" points="351,-720 351,-720 724,-720 724,-720 351,-720"/>
<polygon fill="#666666" stroke="#666666" points="351,-555 351,-555 366,-555 366,-555 351,-555"/>
<polygon fill="#666666" stroke="#666666" points="366,-555 366,-555 724,-555 724,-555 366,-555"/>
<polygon fill="none" stroke="#666666" points="350.5,-377 350.5,-737 723.5,-737 723.5,-377 350.5,-377"/>
</a>
</g>
</g>
<!-- Node2&#45;&gt;Node4 -->
<g id="edge4_Node000004_Node000002" class="edge">
<title>Node2&#45;&gt;Node4</title>
<g id="a_edge4_Node000004_Node000002"><a xlink:title=" ">
<path fill="none" stroke="#63b8ff" d="M369.59,-765.75C376.32,-757.39 384.08,-747.76 392.5,-737.32"/>
<polygon fill="none" stroke="#63b8ff" points="366.76,-763.68 363.21,-773.66 372.21,-768.07 366.76,-763.68"/>
</a>
</g>
</g>
<!-- Node5 -->
<g id="Node000005" class="node">
<title>Node5</title>
<g id="a_Node000005"><a xlink:href="classMainPage_1_1MainWindowController.html" target="_top" xlink:title="Handles the main window&#39;s controls.">
<polygon fill="white" stroke="transparent" points="773,-330 431,-330 431,0 773,0 773,-330"/>
<text text-anchor="start" x="521" y="-318" font-family="Helvetica,sans-Serif" font-size="10.00">MainPage.MainWindowController</text>
<text text-anchor="start" x="435" y="-303" font-family="Helvetica,sans-Serif" font-size="10.00">+</text>
<text text-anchor="start" x="448" y="-303" font-family="Helvetica,sans-Serif" font-size="10.00">Dictionary&lt; long, TaskDisplayHandler &gt; Tasks</text>
<text text-anchor="start" x="435" y="-288" font-family="Helvetica,sans-Serif" font-size="10.00">+</text>
<text text-anchor="start" x="448" y="-288" font-family="Helvetica,sans-Serif" font-size="10.00">TaskSortType TaskSortType</text>
<text text-anchor="start" x="437.5" y="-273" font-family="Helvetica,sans-Serif" font-size="10.00">&#45;</text>
<text text-anchor="start" x="448" y="-273" font-family="Helvetica,sans-Serif" font-size="10.00">TMP_Text usernameText</text>
<text text-anchor="start" x="437.5" y="-258" font-family="Helvetica,sans-Serif" font-size="10.00">&#45;</text>
<text text-anchor="start" x="448" y="-258" font-family="Helvetica,sans-Serif" font-size="10.00">TMP_Text currentTaskScoreText</text>
<text text-anchor="start" x="437.5" y="-243" font-family="Helvetica,sans-Serif" font-size="10.00">&#45;</text>
<text text-anchor="start" x="448" y="-243" font-family="Helvetica,sans-Serif" font-size="10.00">GameObject taskParent</text>
<text text-anchor="start" x="437.5" y="-228" font-family="Helvetica,sans-Serif" font-size="10.00">&#45;</text>
<text text-anchor="start" x="448" y="-228" font-family="Helvetica,sans-Serif" font-size="10.00">GameObject taskPrefab</text>
<text text-anchor="start" x="437.5" y="-213" font-family="Helvetica,sans-Serif" font-size="10.00">&#45;</text>
<text text-anchor="start" x="448" y="-213" font-family="Helvetica,sans-Serif" font-size="10.00">TMP_Dropdown taskSortDropdown</text>
<text text-anchor="start" x="435" y="-198" font-family="Helvetica,sans-Serif" font-size="10.00">+</text>
<text text-anchor="start" x="448" y="-198" font-family="Helvetica,sans-Serif" font-size="10.00">void UpdateUserData(Thesis_backend.Data_Structures.User user)</text>
<text text-anchor="start" x="435" y="-183" font-family="Helvetica,sans-Serif" font-size="10.00">+</text>
<text text-anchor="start" x="448" y="-183" font-family="Helvetica,sans-Serif" font-size="10.00">void RemoveTask(long taskId)</text>
<text text-anchor="start" x="435" y="-168" font-family="Helvetica,sans-Serif" font-size="10.00">+</text>
<text text-anchor="start" x="448" y="-168" font-family="Helvetica,sans-Serif" font-size="10.00">void UpdateTaskLabel(long taskId)</text>
<text text-anchor="start" x="435" y="-153" font-family="Helvetica,sans-Serif" font-size="10.00">+</text>
<text text-anchor="start" x="448" y="-153" font-family="Helvetica,sans-Serif" font-size="10.00">void SortingChanged()</text>
<text text-anchor="start" x="435" y="-138" font-family="Helvetica,sans-Serif" font-size="10.00">+</text>
<text text-anchor="start" x="448" y="-138" font-family="Helvetica,sans-Serif" font-size="10.00">void LoadGoodTasks(bool updateDisplay=true)</text>
<text text-anchor="start" x="435" y="-123" font-family="Helvetica,sans-Serif" font-size="10.00">+</text>
<text text-anchor="start" x="448" y="-123" font-family="Helvetica,sans-Serif" font-size="10.00">void LoadBadHabits(bool updateDisplay=true)</text>
<text text-anchor="start" x="435" y="-108" font-family="Helvetica,sans-Serif" font-size="10.00">+</text>
<text text-anchor="start" x="448" y="-108" font-family="Helvetica,sans-Serif" font-size="10.00">GameObject CreateTask(PlayerTask taskContainer)</text>
<text text-anchor="start" x="435" y="-93" font-family="Helvetica,sans-Serif" font-size="10.00">+</text>
<text text-anchor="start" x="448" y="-93" font-family="Helvetica,sans-Serif" font-size="10.00">void ShowTaskFail(string content)</text>
<text text-anchor="start" x="435" y="-78" font-family="Helvetica,sans-Serif" font-size="10.00">+</text>
<text text-anchor="start" x="448" y="-78" font-family="Helvetica,sans-Serif" font-size="10.00">void LoadGameScene()</text>
<text text-anchor="start" x="437.5" y="-63" font-family="Helvetica,sans-Serif" font-size="10.00">&#45;</text>
<text text-anchor="start" x="448" y="-63" font-family="Helvetica,sans-Serif" font-size="10.00">async void Start()</text>
<text text-anchor="start" x="437.5" y="-48" font-family="Helvetica,sans-Serif" font-size="10.00">&#45;</text>
<text text-anchor="start" x="448" y="-48" font-family="Helvetica,sans-Serif" font-size="10.00">void LoadTasks()</text>
<text text-anchor="start" x="437.5" y="-33" font-family="Helvetica,sans-Serif" font-size="10.00">&#45;</text>
<text text-anchor="start" x="448" y="-33" font-family="Helvetica,sans-Serif" font-size="10.00">void ShowRequestFail(string content)</text>
<text text-anchor="start" x="437.5" y="-18" font-family="Helvetica,sans-Serif" font-size="10.00">&#45;</text>
<text text-anchor="start" x="448" y="-18" font-family="Helvetica,sans-Serif" font-size="10.00">void CreateTaskPrefabs(List&lt; Thesis_backend.Data</text>
<text text-anchor="start" x="448" y="-7" font-family="Helvetica,sans-Serif" font-size="10.00">_Structures.PlayerTask &gt; requestResult)</text>
<polygon fill="#666666" stroke="#666666" points="431,-313 431,-313 773,-313 773,-313 431,-313"/>
<polygon fill="#666666" stroke="#666666" points="431,-208 431,-208 446,-208 446,-208 431,-208"/>
<polygon fill="#666666" stroke="#666666" points="446,-208 446,-208 773,-208 773,-208 446,-208"/>
<polygon fill="none" stroke="#666666" points="431,0 431,-330 773,-330 773,0 431,0"/>
</a>
</g>
</g>
<!-- Node2&#45;&gt;Node5 -->
<g id="edge6_Node000005_Node000002" class="edge">
<title>Node2&#45;&gt;Node5</title>
<g id="a_edge6_Node000005_Node000002"><a xlink:title=" ">
<path fill="none" stroke="#63b8ff" d="M426.22,-796.76C528.47,-793.88 694.31,-782.17 733,-737 845.52,-605.63 801.75,-500.97 721,-348 717.87,-342.07 714.61,-336.09 711.23,-330.1"/>
<polygon fill="none" stroke="#63b8ff" points="425.82,-793.27 415.92,-797.02 426,-800.26 425.82,-793.27"/>
</a>
</g>
</g>
<!-- Node6 -->
<g id="Node000006" class="node">
<title>Node6</title>
<g id="a_Node000006"><a xlink:href="classUtility_1_1ModalWindow.html" target="_top" xlink:title="Modal window for alerting the user.">
<polygon fill="white" stroke="transparent" points="332,-624.5 96,-624.5 96,-489.5 332,-489.5 332,-624.5"/>
<text text-anchor="start" x="163.5" y="-612" font-family="Helvetica,sans-Serif" font-size="10.00">Utility.ModalWindow</text>
<text text-anchor="start" x="102.5" y="-597" font-family="Helvetica,sans-Serif" font-size="10.00">&#45;</text>
<text text-anchor="start" x="113" y="-597" font-family="Helvetica,sans-Serif" font-size="10.00">TMP_Text ModalTitleText</text>
<text text-anchor="start" x="102.5" y="-582" font-family="Helvetica,sans-Serif" font-size="10.00">&#45;</text>
<text text-anchor="start" x="113" y="-582" font-family="Helvetica,sans-Serif" font-size="10.00">TMP_Text ModalContentText</text>
<text text-anchor="start" x="102.5" y="-567" font-family="Helvetica,sans-Serif" font-size="10.00">&#45;</text>
<text text-anchor="start" x="113" y="-567" font-family="Helvetica,sans-Serif" font-size="10.00">Action onOkAction</text>
<text text-anchor="start" x="100" y="-552" font-family="Helvetica,sans-Serif" font-size="10.00">+</text>
<text text-anchor="start" x="113" y="-552" font-family="Helvetica,sans-Serif" font-size="10.00">void Show()</text>
<text text-anchor="start" x="100" y="-537" font-family="Helvetica,sans-Serif" font-size="10.00">+</text>
<text text-anchor="start" x="113" y="-537" font-family="Helvetica,sans-Serif" font-size="10.00">void Show(string title, string content, Action</text>
<text text-anchor="start" x="113" y="-526" font-family="Helvetica,sans-Serif" font-size="10.00"> onOkAction=null)</text>
<text text-anchor="start" x="100" y="-511" font-family="Helvetica,sans-Serif" font-size="10.00">+</text>
<text text-anchor="start" x="113" y="-511" font-family="Helvetica,sans-Serif" font-size="10.00">void Hide()</text>
<text text-anchor="start" x="100" y="-496" font-family="Helvetica,sans-Serif" font-size="10.00">+</text>
<text text-anchor="start" x="113" y="-496" font-family="Helvetica,sans-Serif" font-size="10.00">void ConfirmButtonClick()</text>
<polygon fill="#666666" stroke="#666666" points="96,-607 96,-607 332,-607 332,-607 96,-607"/>
<polygon fill="#666666" stroke="#666666" points="96,-562 96,-562 111,-562 111,-562 96,-562"/>
<polygon fill="#666666" stroke="#666666" points="111,-562 111,-562 332,-562 332,-562 111,-562"/>
<polygon fill="none" stroke="#666666" points="96,-489.5 96,-624.5 332,-624.5 332,-489.5 96,-489.5"/>
</a>
</g>
</g>
<!-- Node2&#45;&gt;Node6 -->
<g id="edge9_Node000006_Node000002" class="edge">
<title>Node2&#45;&gt;Node6</title>
<g id="a_edge9_Node000006_Node000002"><a xlink:title=" ">
<path fill="none" stroke="#63b8ff" d="M326.14,-764.6C306.64,-728.68 274.9,-670.2 250.16,-624.61"/>
<polygon fill="none" stroke="#63b8ff" points="323.21,-766.54 331.06,-773.66 329.37,-763.2 323.21,-766.54"/>
</a>
</g>
</g>
<!-- Node3 -->
<g id="Node000003" class="node">
<title>Node3</title>
<g id="a_Node000003"><a xlink:title=" ">
<polygon fill="white" stroke="transparent" points="387.5,-909 300.5,-909 300.5,-860 387.5,-860 387.5,-909"/>
<text text-anchor="start" x="306" y="-896.5" font-family="Helvetica,sans-Serif" font-size="10.00">MonoBehaviour</text>
<text text-anchor="start" x="342.5" y="-881.5" font-family="Helvetica,sans-Serif" font-size="10.00"> </text>
<text text-anchor="start" x="342.5" y="-866.5" font-family="Helvetica,sans-Serif" font-size="10.00"> </text>
<polygon fill="#666666" stroke="#666666" points="301,-891.5 301,-891.5 388,-891.5 388,-891.5 301,-891.5"/>
<polygon fill="#666666" stroke="#666666" points="301,-876.5 301,-876.5 388,-876.5 388,-876.5 301,-876.5"/>
<polygon fill="none" stroke="#666666" points="300.5,-860 300.5,-909 387.5,-909 387.5,-860 300.5,-860"/>
</a>
</g>
</g>
<!-- Node3&#45;&gt;Node2 -->
<g id="edge2_Node000002_Node000003" class="edge">
<title>Node3&#45;&gt;Node2</title>
<g id="a_edge2_Node000002_Node000003"><a xlink:title=" ">
<path fill="none" stroke="#63b8ff" d="M344,-849.57C344,-840.69 344,-831.32 344,-823.12"/>
<polygon fill="none" stroke="#63b8ff" points="340.5,-849.65 344,-859.65 347.5,-849.65 340.5,-849.65"/>
</a>
</g>
</g>
<!-- Node4&#45;&gt;Node1 -->
<g id="edge3_Node000001_Node000004" class="edge">
<title>Node4&#45;&gt;Node1</title>
<g id="a_edge3_Node000001_Node000004"><a xlink:title=" ">
<path fill="none" stroke="#63b8ff" d="M375.93,-376.88C366.86,-367.08 357.84,-357.4 349,-348 346.28,-345.1 343.52,-342.18 340.75,-339.25"/>
<polygon fill="none" stroke="#63b8ff" points="340.61,-339.11 333.58,-337.5 332.35,-330.4 339.38,-332 340.61,-339.11"/>
</a>
</g>
<text text-anchor="middle" x="419" y="-351" font-family="Helvetica,sans-Serif" font-size="10.00" fill="grey"> &#45;taskOpenPanelController</text>
</g>
<!-- Node4&#45;&gt;Node5 -->
<g id="edge7_Node000005_Node000004" class="edge">
<title>Node4&#45;&gt;Node5</title>
<g id="a_edge7_Node000005_Node000004"><a xlink:title=" ">
<path fill="none" stroke="#63b8ff" d="M514.62,-376.86C515.54,-367.06 516.96,-357.39 519,-348 519.44,-345.96 519.91,-343.91 520.4,-341.86"/>
<polygon fill="none" stroke="#63b8ff" points="520.44,-341.71 518.09,-334.9 523.47,-330.1 525.83,-336.92 520.44,-341.71"/>
</a>
</g>
<text text-anchor="middle" x="583" y="-351" font-family="Helvetica,sans-Serif" font-size="10.00" fill="grey"> &#45;taskOpenPanelController</text>
</g>
<!-- Node5&#45;&gt;Node4 -->
<g id="edge5_Node000004_Node000005" class="edge">
<title>Node5&#45;&gt;Node4</title>
<g id="a_edge5_Node000004_Node000005"><a xlink:title=" ">
<path fill="none" stroke="#63b8ff" d="M655.35,-330.07C654.91,-339.87 653.53,-349.57 651,-359 650.45,-361.03 649.88,-363.07 649.28,-365.1"/>
<polygon fill="none" stroke="#63b8ff" points="649.22,-365.3 651.22,-372.23 645.59,-376.74 643.59,-369.81 649.22,-365.3"/>
</a>
</g>
<text text-anchor="middle" x="685" y="-351" font-family="Helvetica,sans-Serif" font-size="10.00" fill="grey"> &#45;uIController</text>
</g>
<!-- Node6&#45;&gt;Node1 -->
<g id="edge10_Node000001_Node000006" class="edge">
<title>Node6&#45;&gt;Node1</title>
<g id="a_edge10_Node000001_Node000006"><a xlink:title=" ">
<path fill="none" stroke="#63b8ff" d="M196.17,-489.08C186.98,-451.21 176.73,-402.81 172,-359 171.41,-353.56 170.9,-348.03 170.44,-342.44"/>
<polygon fill="none" stroke="#63b8ff" points="170.42,-342.09 166,-336.4 169.55,-330.12 173.97,-335.82 170.42,-342.09"/>
</a>
</g>
<text text-anchor="middle" x="210.5" y="-351" font-family="Helvetica,sans-Serif" font-size="10.00" fill="grey"> &#45;modalWindow</text>
</g>
<!-- Node6&#45;&gt;Node5 -->
<g id="edge8_Node000005_Node000006" class="edge">
<title>Node6&#45;&gt;Node5</title>
<g id="a_edge8_Node000005_Node000006"><a xlink:title=" ">
<path fill="none" stroke="#63b8ff" d="M213.97,-489.36C217.62,-443.41 230.19,-384.31 268,-348 295.23,-321.85 316.18,-344.57 351,-330 374.11,-320.33 397.41,-308.5 419.99,-295.67"/>
<polygon fill="none" stroke="#63b8ff" points="420.28,-295.5 423.47,-289.04 430.67,-289.5 427.48,-295.96 420.28,-295.5"/>
</a>
</g>
<text text-anchor="middle" x="306.5" y="-351" font-family="Helvetica,sans-Serif" font-size="10.00" fill="grey"> &#45;modalWindow</text>
</g>
</g>
</svg>
