<?xml version="1.0" encoding="UTF-8" standalone="no"?>
<!DOCTYPE svg PUBLIC "-//W3C//DTD SVG 1.1//EN"
 "http://www.w3.org/Graphics/SVG/1.1/DTD/svg11.dtd">
<!-- Generated by graphviz version 2.43.0 (0)
 -->
<!-- Title: MainPage.TaskOpenPanelController Pages: 1 -->
<svg width="381pt" height="553pt"
 viewBox="0.00 0.00 381.00 553.00" xmlns="http://www.w3.org/2000/svg" xmlns:xlink="http://www.w3.org/1999/xlink">
<g id="graph0" class="graph" transform="scale(1 1) rotate(0) translate(4 549)">
<title>MainPage.TaskOpenPanelController</title>
<!-- Node1 -->
<g id="Node000001" class="node">
<title>Node1</title>
<g id="a_Node000001"><a xlink:title="Controller for displaying, editing and creating tasks.">
<polygon fill="#999999" stroke="transparent" points="373,-375 0,-375 0,0 373,0 373,-375"/>
<text text-anchor="start" x="101" y="-362.5" font-family="Helvetica,sans-Serif" font-size="10.00">MainPage.TaskOpenPanelController</text>
<text text-anchor="start" x="4.5" y="-347.5" font-family="Helvetica,sans-Serif" font-size="10.00">+</text>
<text text-anchor="start" x="17.5" y="-347.5" font-family="Helvetica,sans-Serif" font-size="10.00">EventHandler&lt; TaskClosedEventArgs &gt; TaskClosedEventHandler</text>
<text text-anchor="start" x="4.5" y="-332.5" font-family="Helvetica,sans-Serif" font-size="10.00">+</text>
<text text-anchor="start" x="17.5" y="-332.5" font-family="Helvetica,sans-Serif" font-size="10.00">static readonly int[] TASKINTERVALS</text>
<text text-anchor="start" x="4.5" y="-317.5" font-family="Helvetica,sans-Serif" font-size="10.00">+</text>
<text text-anchor="start" x="17.5" y="-317.5" font-family="Helvetica,sans-Serif" font-size="10.00">PlayerTask CurrentTask</text>
<text text-anchor="start" x="7" y="-302.5" font-family="Helvetica,sans-Serif" font-size="10.00">&#45;</text>
<text text-anchor="start" x="17.5" y="-302.5" font-family="Helvetica,sans-Serif" font-size="10.00">TMP_InputField taskNameInput</text>
<text text-anchor="start" x="7" y="-287.5" font-family="Helvetica,sans-Serif" font-size="10.00">&#45;</text>
<text text-anchor="start" x="17.5" y="-287.5" font-family="Helvetica,sans-Serif" font-size="10.00">TMP_Dropdown taskIntervals</text>
<text text-anchor="start" x="7" y="-272.5" font-family="Helvetica,sans-Serif" font-size="10.00">&#45;</text>
<text text-anchor="start" x="17.5" y="-272.5" font-family="Helvetica,sans-Serif" font-size="10.00">TMP_InputField descriptionInput</text>
<text text-anchor="start" x="7" y="-257.5" font-family="Helvetica,sans-Serif" font-size="10.00">&#45;</text>
<text text-anchor="start" x="17.5" y="-257.5" font-family="Helvetica,sans-Serif" font-size="10.00">Button goodTaskButton</text>
<text text-anchor="start" x="7" y="-242.5" font-family="Helvetica,sans-Serif" font-size="10.00">&#45;</text>
<text text-anchor="start" x="17.5" y="-242.5" font-family="Helvetica,sans-Serif" font-size="10.00">Button badHabitButton</text>
<text text-anchor="start" x="7" y="-227.5" font-family="Helvetica,sans-Serif" font-size="10.00">&#45;</text>
<text text-anchor="start" x="17.5" y="-227.5" font-family="Helvetica,sans-Serif" font-size="10.00">MainWindowController uIController</text>
<text text-anchor="start" x="7" y="-212.5" font-family="Helvetica,sans-Serif" font-size="10.00">&#45;</text>
<text text-anchor="start" x="17.5" y="-212.5" font-family="Helvetica,sans-Serif" font-size="10.00">Button deleteTaskButton</text>
<text text-anchor="start" x="7" y="-197.5" font-family="Helvetica,sans-Serif" font-size="10.00">&#45;</text>
<text text-anchor="start" x="17.5" y="-197.5" font-family="Helvetica,sans-Serif" font-size="10.00">bool isNewTask</text>
<text text-anchor="start" x="7" y="-182.5" font-family="Helvetica,sans-Serif" font-size="10.00">&#45;</text>
<text text-anchor="start" x="17.5" y="-182.5" font-family="Helvetica,sans-Serif" font-size="10.00">PlayerTask playerTaskOnOpen</text>
<text text-anchor="start" x="4.5" y="-167.5" font-family="Helvetica,sans-Serif" font-size="10.00">+</text>
<text text-anchor="start" x="17.5" y="-167.5" font-family="Helvetica,sans-Serif" font-size="10.00">void OpenUp()</text>
<text text-anchor="start" x="4.5" y="-152.5" font-family="Helvetica,sans-Serif" font-size="10.00">+</text>
<text text-anchor="start" x="17.5" y="-152.5" font-family="Helvetica,sans-Serif" font-size="10.00">void OpenUp(PlayerTask taskContainer=null, TaskType</text>
<text text-anchor="start" x="17.5" y="-141.5" font-family="Helvetica,sans-Serif" font-size="10.00"> type=TaskType.GoodTask)</text>
<text text-anchor="start" x="4.5" y="-126.5" font-family="Helvetica,sans-Serif" font-size="10.00">+</text>
<text text-anchor="start" x="17.5" y="-126.5" font-family="Helvetica,sans-Serif" font-size="10.00">void MakeItBadHabit()</text>
<text text-anchor="start" x="4.5" y="-111.5" font-family="Helvetica,sans-Serif" font-size="10.00">+</text>
<text text-anchor="start" x="17.5" y="-111.5" font-family="Helvetica,sans-Serif" font-size="10.00">void MakeItGoodTask()</text>
<text text-anchor="start" x="4.5" y="-96.5" font-family="Helvetica,sans-Serif" font-size="10.00">+</text>
<text text-anchor="start" x="17.5" y="-96.5" font-family="Helvetica,sans-Serif" font-size="10.00">void Cancel()</text>
<text text-anchor="start" x="4.5" y="-81.5" font-family="Helvetica,sans-Serif" font-size="10.00">+</text>
<text text-anchor="start" x="17.5" y="-81.5" font-family="Helvetica,sans-Serif" font-size="10.00">void Save()</text>
<text text-anchor="start" x="4.5" y="-66.5" font-family="Helvetica,sans-Serif" font-size="10.00">+</text>
<text text-anchor="start" x="17.5" y="-66.5" font-family="Helvetica,sans-Serif" font-size="10.00">void DeleteTask()</text>
<text text-anchor="start" x="7" y="-51.5" font-family="Helvetica,sans-Serif" font-size="10.00">&#45;</text>
<text text-anchor="start" x="17.5" y="-51.5" font-family="Helvetica,sans-Serif" font-size="10.00">void SavedTask(Thesis_backend.Data_Structures.PlayerTask savedTask)</text>
<text text-anchor="start" x="7" y="-36.5" font-family="Helvetica,sans-Serif" font-size="10.00">&#45;</text>
<text text-anchor="start" x="17.5" y="-36.5" font-family="Helvetica,sans-Serif" font-size="10.00">void DeletedTask(string result)</text>
<text text-anchor="start" x="7" y="-21.5" font-family="Helvetica,sans-Serif" font-size="10.00">&#45;</text>
<text text-anchor="start" x="17.5" y="-21.5" font-family="Helvetica,sans-Serif" font-size="10.00">void CollectFromFields()</text>
<text text-anchor="start" x="7" y="-6.5" font-family="Helvetica,sans-Serif" font-size="10.00">&#45;</text>
<text text-anchor="start" x="17.5" y="-6.5" font-family="Helvetica,sans-Serif" font-size="10.00">void UpdateButtons()</text>
<polygon fill="#666666" stroke="#666666" points="0.5,-357.5 0.5,-357.5 373.5,-357.5 373.5,-357.5 0.5,-357.5"/>
<polygon fill="#666666" stroke="#666666" points="0.5,-177.5 0.5,-177.5 15.5,-177.5 15.5,-177.5 0.5,-177.5"/>
<polygon fill="#666666" stroke="#666666" points="15.5,-177.5 15.5,-177.5 373.5,-177.5 373.5,-177.5 15.5,-177.5"/>
<polygon fill="none" stroke="#666666" points="0,0 0,-375 373,-375 373,0 0,0"/>
</a>
</g>
</g>
<!-- Node2 -->
<g id="Node000002" class="node">
<title>Node2</title>
<g id="a_Node000002"><a xlink:href="classUtility_1_1ThreadSafeMonoBehaviour.html" target="_top" xlink:title="Safely stores if the gameobject been destroyed in a bool.">
<polygon fill="white" stroke="transparent" points="258,-460 115,-460 115,-411 258,-411 258,-460"/>
<text text-anchor="start" x="120.5" y="-447.5" font-family="Helvetica,sans-Serif" font-size="10.00">ThreadSafeMonoBehaviour</text>
<text text-anchor="start" x="129" y="-432.5" font-family="Helvetica,sans-Serif" font-size="10.00">+</text>
<text text-anchor="start" x="151.5" y="-432.5" font-family="Helvetica,sans-Serif" font-size="10.00">bool Destroyed</text>
<text text-anchor="start" x="129" y="-417.5" font-family="Helvetica,sans-Serif" font-size="10.00">#</text>
<text text-anchor="start" x="151.5" y="-417.5" font-family="Helvetica,sans-Serif" font-size="10.00">void OnDestroy()</text>
<polygon fill="#666666" stroke="#666666" points="115.5,-442.5 115.5,-442.5 258.5,-442.5 258.5,-442.5 115.5,-442.5"/>
<polygon fill="#666666" stroke="#666666" points="115.5,-427.5 115.5,-427.5 149.5,-427.5 149.5,-427.5 115.5,-427.5"/>
<polygon fill="#666666" stroke="#666666" points="149.5,-427.5 149.5,-427.5 258.5,-427.5 258.5,-427.5 149.5,-427.5"/>
<polygon fill="none" stroke="#666666" points="115,-411 115,-460 258,-460 258,-411 115,-411"/>
</a>
</g>
</g>
<!-- Node2&#45;&gt;Node1 -->
<g id="edge1_Node000001_Node000002" class="edge">
<title>Node2&#45;&gt;Node1</title>
<g id="a_edge1_Node000001_Node000002"><a xlink:title=" ">
<path fill="none" stroke="#63b8ff" d="M186.5,-400.75C186.5,-393.07 186.5,-384.38 186.5,-375.01"/>
<polygon fill="none" stroke="#63b8ff" points="183,-400.91 186.5,-410.91 190,-400.91 183,-400.91"/>
</a>
</g>
</g>
<!-- Node3 -->
<g id="Node000003" class="node">
<title>Node3</title>
<g id="a_Node000003"><a xlink:title=" ">
<polygon fill="white" stroke="transparent" points="230,-545 143,-545 143,-496 230,-496 230,-545"/>
<text text-anchor="start" x="148.5" y="-532.5" font-family="Helvetica,sans-Serif" font-size="10.00">MonoBehaviour</text>
<text text-anchor="start" x="185" y="-517.5" font-family="Helvetica,sans-Serif" font-size="10.00"> </text>
<text text-anchor="start" x="185" y="-502.5" font-family="Helvetica,sans-Serif" font-size="10.00"> </text>
<polygon fill="#666666" stroke="#666666" points="143.5,-527.5 143.5,-527.5 230.5,-527.5 230.5,-527.5 143.5,-527.5"/>
<polygon fill="#666666" stroke="#666666" points="143.5,-512.5 143.5,-512.5 230.5,-512.5 230.5,-512.5 143.5,-512.5"/>
<polygon fill="none" stroke="#666666" points="143,-496 143,-545 230,-545 230,-496 143,-496"/>
</a>
</g>
</g>
<!-- Node3&#45;&gt;Node2 -->
<g id="edge2_Node000002_Node000003" class="edge">
<title>Node3&#45;&gt;Node2</title>
<g id="a_edge2_Node000002_Node000003"><a xlink:title=" ">
<path fill="none" stroke="#63b8ff" d="M186.5,-485.77C186.5,-477.17 186.5,-468.1 186.5,-460.12"/>
<polygon fill="none" stroke="#63b8ff" points="183,-485.94 186.5,-495.94 190,-485.94 183,-485.94"/>
</a>
</g>
</g>
</g>
</svg>
