<?xml version="1.0" encoding="UTF-8" standalone="no"?>
<!DOCTYPE svg PUBLIC "-//W3C//DTD SVG 1.1//EN"
 "http://www.w3.org/Graphics/SVG/1.1/DTD/svg11.dtd">
<!-- Generated by graphviz version 2.43.0 (0)
 -->
<!-- Title: MainPage.MainWindowController.LoadGoodTasks Pages: 1 -->
<!--zoomable 246 -->
<svg id="main" version="1.1" xmlns="http://www.w3.org/2000/svg" xmlns:xlink="http://www.w3.org/1999/xlink" xml:space="preserve" onload="init(evt)">
<style type="text/css"><![CDATA[
.edge:hover path { stroke: red; }
.edge:hover polygon { stroke: red; fill: red; }
]]></style>
<script type="text/javascript"><![CDATA[
var edges = document.getElementsByTagName('g');
if (edges && edges.length) {
  for (var i=0;i<edges.length;i++) {
    if (edges[i].id.substr(0,4)=='edge') {
      edges[i].setAttribute('class','edge');
    }
  }
}
]]></script>
        <defs>
                <circle id="rim" cx="0" cy="0" r="7"/>
                <circle id="rim2" cx="0" cy="0" r="3.5"/>
                <g id="zoomPlus">
                        <use xlink:href="#rim" fill="#404040">
                                <set attributeName="fill" to="#808080" begin="zoomplus.mouseover" end="zoomplus.mouseout"/>
                        </use>
                        <path d="M-4,0h8M0,-4v8" fill="none" stroke="white" stroke-width="1.5" pointer-events="none"/>
                </g>
                <g id="zoomMin">
                        <use xlink:href="#rim" fill="#404040">
                                <set attributeName="fill" to="#808080" begin="zoomminus.mouseover" end="zoomminus.mouseout"/>
                        </use>
                        <path d="M-4,0h8" fill="none" stroke="white" stroke-width="1.5" pointer-events="none"/>
                </g>
                <g id="dirArrow">
                        <path fill="none" stroke="white" stroke-width="1.5" d="M0,-3.0v7 M-2.5,-0.5L0,-3.0L2.5,-0.5"/>
                </g>
               <g id="resetDef">
                       <use xlink:href="#rim2" fill="#404040">
                               <set attributeName="fill" to="#808080" begin="reset.mouseover" end="reset.mouseout"/>
                       </use>
               </g>
        </defs>

<script type="text/javascript">
var viewWidth = 2799;
var viewHeight = 246;
var sectionId = 'dynsection-9';
</script>
<script xlink:href="svgpan.js"/>
<svg id="graph" class="graph">
<g id="viewport">
<title>MainPage.MainWindowController.LoadGoodTasks</title>
<polygon fill="white" stroke="transparent" points="-4,4 -4,-242 2795,-242 2795,4 -4,4"/>
<!-- Node1 -->
<g id="node1" class="node">
<title>Node1</title>
<g id="a_node1"><a xlink:title="Load the good tasks">
<polygon fill="#bfbfbf" stroke="black" points="2535,-142.5 2535,-161.5 2791,-161.5 2791,-142.5 2535,-142.5"/>
<text text-anchor="middle" x="2663" y="-149.5" font-family="Helvetica,sans-Serif" font-size="10.00">MainPage.MainWindowController.LoadGoodTasks</text>
</a>
</g>
</g>
<!-- Node2 -->
<g id="node2" class="node">
<title>Node2</title>
<g id="a_node2"><a xlink:href="classMainPage_1_1TaskOpenPanelController.html#af1b5c03c4cfe46084a34093435f79fee" target="_top" xlink:title="Cancel this edit/task creation">
<polygon fill="white" stroke="black" points="2251.5,-218.5 2251.5,-237.5 2475.5,-237.5 2475.5,-218.5 2251.5,-218.5"/>
<text text-anchor="middle" x="2363.5" y="-225.5" font-family="Helvetica,sans-Serif" font-size="10.00">MainPage.TaskOpenPanelController.Cancel</text>
</a>
</g>
</g>
<!-- Node1&#45;&gt;Node2 -->
<g id="edge1" class="edge">
<title>Node1&#45;&gt;Node2</title>
<path fill="none" stroke="midnightblue" d="M2626.18,-164.94C2593.41,-176.41 2543.42,-193 2499,-204 2475.98,-209.7 2450.42,-214.61 2427.81,-218.48"/>
<polygon fill="midnightblue" stroke="midnightblue" points="2627.5,-168.18 2635.77,-161.55 2625.17,-161.58 2627.5,-168.18"/>
</g>
<!-- Node5 -->
<g id="node5" class="node">
<title>Node5</title>
<g id="a_node5"><a xlink:href="classMainPage_1_1MainWindowController.html#ab40b51689d2d8ca0497b0e53128f4992" target="_top" xlink:title="Create the task prefabs">
<polygon fill="white" stroke="black" points="505,-123.5 505,-142.5 776,-142.5 776,-123.5 505,-123.5"/>
<text text-anchor="middle" x="640.5" y="-130.5" font-family="Helvetica,sans-Serif" font-size="10.00">MainPage.MainWindowController.CreateTaskPrefabs</text>
</a>
</g>
</g>
<!-- Node1&#45;&gt;Node5 -->
<g id="edge4" class="edge">
<title>Node1&#45;&gt;Node5</title>
<path fill="none" stroke="midnightblue" d="M2580.14,-162.73C2554.23,-165.81 2525.45,-168.89 2499,-171 2302.33,-186.65 2252.79,-190 2055.5,-190 2055.5,-190 2055.5,-190 1188,-190 1007.23,-190 794.63,-158.77 696.38,-142.54"/>
<polygon fill="midnightblue" stroke="midnightblue" points="2580.79,-166.18 2590.3,-161.51 2579.95,-159.23 2580.79,-166.18"/>
</g>
<!-- Node8 -->
<g id="node8" class="node">
<title>Node8</title>
<g id="a_node8"><a xlink:href="classMainPage_1_1TaskOpenPanelController.html#a069a63e2b7e70cc4cb4c7e487b655700" target="_top" xlink:title="Make it a good task">
<polygon fill="white" stroke="black" points="2228,-142.5 2228,-161.5 2499,-161.5 2499,-142.5 2228,-142.5"/>
<text text-anchor="middle" x="2363.5" y="-149.5" font-family="Helvetica,sans-Serif" font-size="10.00">MainPage.TaskOpenPanelController.MakeItGoodTask</text>
</a>
</g>
</g>
<!-- Node1&#45;&gt;Node8 -->
<g id="edge7" class="edge">
<title>Node1&#45;&gt;Node8</title>
<path fill="none" stroke="midnightblue" d="M2524.94,-145.27C2516.37,-145.24 2507.74,-145.24 2499.18,-145.28"/>
<polygon fill="midnightblue" stroke="midnightblue" points="2524.95,-148.77 2534.97,-145.31 2524.99,-141.77 2524.95,-148.77"/>
</g>
<!-- Node9 -->
<g id="node9" class="node">
<title>Node9</title>
<g id="a_node9"><a xlink:href="classMainPage_1_1MainWindowController.html#a85072f5d92f4145d6213209a13936639" target="_top" xlink:title="Refreshes the tasks with the proper sorting order">
<polygon fill="white" stroke="black" points="2235,-85.5 2235,-104.5 2492,-104.5 2492,-85.5 2235,-85.5"/>
<text text-anchor="middle" x="2363.5" y="-92.5" font-family="Helvetica,sans-Serif" font-size="10.00">MainPage.MainWindowController.SortingChanged</text>
</a>
</g>
</g>
<!-- Node1&#45;&gt;Node9 -->
<g id="edge9" class="edge">
<title>Node1&#45;&gt;Node9</title>
<path fill="none" stroke="midnightblue" d="M2602.23,-140.55C2547.11,-129.99 2466.22,-114.49 2414.46,-104.57"/>
<polygon fill="midnightblue" stroke="midnightblue" points="2601.73,-144.02 2612.21,-142.46 2603.04,-137.14 2601.73,-144.02"/>
</g>
<!-- Node3 -->
<g id="node3" class="node">
<title>Node3</title>
<g id="a_node3"><a xlink:href="classMainPage_1_1TaskOpenPanelController.html#a254ff7d6e427208a7f9ae3bec5ae7ba7" target="_top" xlink:title="After the task were deleted from the server delete it also from the client">
<polygon fill="white" stroke="black" points="1929,-218.5 1929,-237.5 2180,-237.5 2180,-218.5 1929,-218.5"/>
<text text-anchor="middle" x="2054.5" y="-225.5" font-family="Helvetica,sans-Serif" font-size="10.00">MainPage.TaskOpenPanelController.DeletedTask</text>
</a>
</g>
</g>
<!-- Node2&#45;&gt;Node3 -->
<g id="edge2" class="edge">
<title>Node2&#45;&gt;Node3</title>
<path fill="none" stroke="midnightblue" d="M2241.15,-228C2221.1,-228 2200.29,-228 2180.17,-228"/>
<polygon fill="midnightblue" stroke="midnightblue" points="2241.23,-231.5 2251.23,-228 2241.23,-224.5 2241.23,-231.5"/>
</g>
<!-- Node4 -->
<g id="node4" class="node">
<title>Node4</title>
<g id="a_node4"><a xlink:href="classMainPage_1_1TaskOpenPanelController.html#a3107b94793886f6af28ac9415fb44370" target="_top" xlink:title="Send a delete task request to the server">
<polygon fill="white" stroke="black" points="1619.5,-218.5 1619.5,-237.5 1864.5,-237.5 1864.5,-218.5 1619.5,-218.5"/>
<text text-anchor="middle" x="1742" y="-225.5" font-family="Helvetica,sans-Serif" font-size="10.00">MainPage.TaskOpenPanelController.DeleteTask</text>
</a>
</g>
</g>
<!-- Node3&#45;&gt;Node4 -->
<g id="edge3" class="edge">
<title>Node3&#45;&gt;Node4</title>
<path fill="none" stroke="midnightblue" d="M1918.77,-228C1900.81,-228 1882.47,-228 1864.75,-228"/>
<polygon fill="midnightblue" stroke="midnightblue" points="1919,-231.5 1929,-228 1919,-224.5 1919,-231.5"/>
</g>
<!-- Node6 -->
<g id="node6" class="node">
<title>Node6</title>
<g id="a_node6"><a xlink:href="classMainPage_1_1MainWindowController.html#a47c21c97b7ba52af405119044e1434d0" target="_top" xlink:title="Load the tasks from the server">
<polygon fill="white" stroke="black" points="239,-123.5 239,-142.5 469,-142.5 469,-123.5 239,-123.5"/>
<text text-anchor="middle" x="354" y="-130.5" font-family="Helvetica,sans-Serif" font-size="10.00">MainPage.MainWindowController.LoadTasks</text>
</a>
</g>
</g>
<!-- Node5&#45;&gt;Node6 -->
<g id="edge5" class="edge">
<title>Node5&#45;&gt;Node6</title>
<path fill="none" stroke="midnightblue" d="M494.68,-133C486.1,-133 477.54,-133 469.11,-133"/>
<polygon fill="midnightblue" stroke="midnightblue" points="494.75,-136.5 504.75,-133 494.75,-129.5 494.75,-136.5"/>
</g>
<!-- Node7 -->
<g id="node7" class="node">
<title>Node7</title>
<g id="a_node7"><a xlink:href="classMainPage_1_1MainWindowController.html#acea2170099ea435298139c6c7fdce719" target="_top" xlink:title="Start is called before the first frame update">
<polygon fill="white" stroke="black" points="0,-123.5 0,-142.5 203,-142.5 203,-123.5 0,-123.5"/>
<text text-anchor="middle" x="101.5" y="-130.5" font-family="Helvetica,sans-Serif" font-size="10.00">MainPage.MainWindowController.Start</text>
</a>
</g>
</g>
<!-- Node6&#45;&gt;Node7 -->
<g id="edge6" class="edge">
<title>Node6&#45;&gt;Node7</title>
<path fill="none" stroke="midnightblue" d="M228.71,-133C220.15,-133 211.58,-133 203.16,-133"/>
<polygon fill="midnightblue" stroke="midnightblue" points="228.75,-136.5 238.75,-133 228.75,-129.5 228.75,-136.5"/>
</g>
<!-- Node8&#45;&gt;Node1 -->
<g id="edge8" class="edge">
<title>Node8&#45;&gt;Node1</title>
<path fill="none" stroke="midnightblue" d="M2509.25,-158.75C2517.85,-158.76 2526.46,-158.74 2534.97,-158.69"/>
<polygon fill="midnightblue" stroke="midnightblue" points="2509.19,-155.25 2499.18,-158.72 2509.17,-162.25 2509.19,-155.25"/>
</g>
<!-- Node10 -->
<g id="node10" class="node">
<title>Node10</title>
<g id="a_node10"><a xlink:href="classMainPage_1_1TaskDisplayHandler.html#a754a230e53cedd3209a29d4d6a743719" target="_top" xlink:title="When the complete state is changed update the display to match it">
<polygon fill="white" stroke="black" points="1917,-85.5 1917,-104.5 2192,-104.5 2192,-85.5 1917,-85.5"/>
<text text-anchor="middle" x="2054.5" y="-92.5" font-family="Helvetica,sans-Serif" font-size="10.00">MainPage.TaskDisplayHandler.CompleteStateChange</text>
</a>
</g>
</g>
<!-- Node9&#45;&gt;Node10 -->
<g id="edge10" class="edge">
<title>Node9&#45;&gt;Node10</title>
<path fill="none" stroke="midnightblue" d="M2224.97,-95C2214.03,-95 2202.99,-95 2192.06,-95"/>
<polygon fill="midnightblue" stroke="midnightblue" points="2224.97,-98.5 2234.97,-95 2224.97,-91.5 2224.97,-98.5"/>
</g>
<!-- Node13 -->
<g id="node13" class="node">
<title>Node13</title>
<g id="a_node13"><a xlink:href="classMainPage_1_1TaskOpenPanelController.html#a750d1acc6fd173296467fb9aca366a3d" target="_top" xlink:title="When the task was stored on the server show it also visually and close the panel">
<polygon fill="white" stroke="black" points="519.5,-28.5 519.5,-47.5 761.5,-47.5 761.5,-28.5 519.5,-28.5"/>
<text text-anchor="middle" x="640.5" y="-35.5" font-family="Helvetica,sans-Serif" font-size="10.00">MainPage.TaskOpenPanelController.SavedTask</text>
</a>
</g>
</g>
<!-- Node9&#45;&gt;Node13 -->
<g id="edge23" class="edge">
<title>Node9&#45;&gt;Node13</title>
<path fill="none" stroke="midnightblue" d="M2316.43,-83.01C2214.07,-57.47 1959.66,0 1743,0 1743,0 1743,0 1188,0 1024.18,0 833.39,-17.2 726.1,-28.46"/>
<polygon fill="midnightblue" stroke="midnightblue" points="2315.59,-86.41 2326.14,-85.46 2317.3,-79.62 2315.59,-86.41"/>
</g>
<!-- Node11 -->
<g id="node11" class="node">
<title>Node11</title>
<g id="a_node11"><a xlink:href="classMainPage_1_1TaskDisplayHandler.html#a8aedc4afb32d220352cf04cc77fdedf6" target="_top" xlink:title="Init it with the task to display and references to the controls">
<polygon fill="white" stroke="black" points="1082,-104.5 1082,-123.5 1296,-123.5 1296,-104.5 1082,-104.5"/>
<text text-anchor="middle" x="1189" y="-111.5" font-family="Helvetica,sans-Serif" font-size="10.00">MainPage.TaskDisplayHandler.InitValues</text>
</a>
</g>
</g>
<!-- Node10&#45;&gt;Node11 -->
<g id="edge11" class="edge">
<title>Node10&#45;&gt;Node11</title>
<path fill="none" stroke="midnightblue" d="M2010.68,-107.15C1976.03,-116.32 1925.81,-128.12 1881,-133 1638.43,-159.4 1575.46,-149.22 1332,-133 1304.2,-131.15 1273.55,-127.28 1247.86,-123.51"/>
<polygon fill="midnightblue" stroke="midnightblue" points="2011.71,-110.5 2020.46,-104.52 2009.9,-103.74 2011.71,-110.5"/>
</g>
<!-- Node15 -->
<g id="node15" class="node">
<title>Node15</title>
<g id="a_node15"><a xlink:href="classMainPage_1_1TaskDisplayHandler.html#a98b63052d0efc73233a32b69a06bf68e" target="_top" xlink:title="When the complete acknowledge were recieved from the server update the display">
<polygon fill="white" stroke="black" points="1621.5,-104.5 1621.5,-123.5 1862.5,-123.5 1862.5,-104.5 1621.5,-104.5"/>
<text text-anchor="middle" x="1742" y="-111.5" font-family="Helvetica,sans-Serif" font-size="10.00">MainPage.TaskDisplayHandler.TaskCompleted</text>
</a>
</g>
</g>
<!-- Node10&#45;&gt;Node15 -->
<g id="edge16" class="edge">
<title>Node10&#45;&gt;Node15</title>
<path fill="none" stroke="midnightblue" d="M1906.67,-103.98C1891.92,-104.89 1877.07,-105.8 1862.65,-106.68"/>
<polygon fill="midnightblue" stroke="midnightblue" points="1907.09,-107.47 1916.86,-103.36 1906.66,-100.48 1907.09,-107.47"/>
</g>
<!-- Node17 -->
<g id="node17" class="node">
<title>Node17</title>
<g id="a_node17"><a xlink:href="classMainPage_1_1TaskDisplayHandler.html#aa63f1bc894519b9d5872c2bb50b84415" target="_top" xlink:title="Update the time remaining until the task can be completed again">
<polygon fill="white" stroke="black" points="1603,-66.5 1603,-85.5 1881,-85.5 1881,-66.5 1603,-66.5"/>
<text text-anchor="middle" x="1742" y="-73.5" font-family="Helvetica,sans-Serif" font-size="10.00">MainPage.TaskDisplayHandler.UpdateTimeRemaining</text>
</a>
</g>
</g>
<!-- Node10&#45;&gt;Node17 -->
<g id="edge18" class="edge">
<title>Node10&#45;&gt;Node17</title>
<path fill="none" stroke="midnightblue" d="M1979,-84.58C1949.6,-82.07 1914.85,-79.66 1881.19,-77.74"/>
<polygon fill="midnightblue" stroke="midnightblue" points="1978.9,-88.08 1989.16,-85.47 1979.51,-81.11 1978.9,-88.08"/>
</g>
<!-- Node12 -->
<g id="node12" class="node">
<title>Node12</title>
<g id="a_node12"><a xlink:href="classMainPage_1_1MainWindowController.html#a827f62c47eb691eadd994bd51bf7cb74" target="_top" xlink:title="Creates a new task prefab to display">
<polygon fill="white" stroke="black" points="812,-104.5 812,-123.5 1046,-123.5 1046,-104.5 812,-104.5"/>
<text text-anchor="middle" x="929" y="-111.5" font-family="Helvetica,sans-Serif" font-size="10.00">MainPage.MainWindowController.CreateTask</text>
</a>
</g>
</g>
<!-- Node11&#45;&gt;Node12 -->
<g id="edge12" class="edge">
<title>Node11&#45;&gt;Node12</title>
<path fill="none" stroke="midnightblue" d="M1071.92,-114C1063.35,-114 1054.7,-114 1046.12,-114"/>
<polygon fill="midnightblue" stroke="midnightblue" points="1071.94,-117.5 1081.94,-114 1071.94,-110.5 1071.94,-117.5"/>
</g>
<!-- Node12&#45;&gt;Node5 -->
<g id="edge13" class="edge">
<title>Node12&#45;&gt;Node5</title>
<path fill="none" stroke="midnightblue" d="M801.88,-122.36C793.33,-122.93 784.69,-123.5 776.09,-124.07"/>
<polygon fill="midnightblue" stroke="midnightblue" points="802.14,-125.85 811.88,-121.7 801.67,-118.87 802.14,-125.85"/>
</g>
<!-- Node12&#45;&gt;Node13 -->
<g id="edge14" class="edge">
<title>Node12&#45;&gt;Node13</title>
<path fill="none" stroke="midnightblue" d="M882.2,-101.85C825.33,-86.77 729.51,-61.35 677.57,-47.57"/>
<polygon fill="midnightblue" stroke="midnightblue" points="881.44,-105.27 892,-104.45 883.24,-98.5 881.44,-105.27"/>
</g>
<!-- Node14 -->
<g id="node14" class="node">
<title>Node14</title>
<g id="a_node14"><a xlink:href="classMainPage_1_1TaskOpenPanelController.html#ab8def75cd4cdbdaf3033022ea114a8a6" target="_top" xlink:title="Save the task to the server">
<polygon fill="white" stroke="black" points="246.5,-28.5 246.5,-47.5 461.5,-47.5 461.5,-28.5 246.5,-28.5"/>
<text text-anchor="middle" x="354" y="-35.5" font-family="Helvetica,sans-Serif" font-size="10.00">MainPage.TaskOpenPanelController.Save</text>
</a>
</g>
</g>
<!-- Node13&#45;&gt;Node14 -->
<g id="edge15" class="edge">
<title>Node13&#45;&gt;Node14</title>
<path fill="none" stroke="midnightblue" d="M508.91,-38C493.12,-38 477.13,-38 461.73,-38"/>
<polygon fill="midnightblue" stroke="midnightblue" points="509.26,-41.5 519.26,-38 509.26,-34.5 509.26,-41.5"/>
</g>
<!-- Node16 -->
<g id="node16" class="node">
<title>Node16</title>
<g id="a_node16"><a xlink:href="classMainPage_1_1TaskDisplayHandler.html#ab553f8eb77d9d038521af3813275a43d" target="_top" xlink:title="Complete the task and send this to the server">
<polygon fill="white" stroke="black" points="1332,-104.5 1332,-123.5 1567,-123.5 1567,-104.5 1332,-104.5"/>
<text text-anchor="middle" x="1449.5" y="-111.5" font-family="Helvetica,sans-Serif" font-size="10.00">MainPage.TaskDisplayHandler.CompleteTask</text>
</a>
</g>
</g>
<!-- Node15&#45;&gt;Node16 -->
<g id="edge17" class="edge">
<title>Node15&#45;&gt;Node16</title>
<path fill="none" stroke="midnightblue" d="M1611.09,-114C1596.49,-114 1581.68,-114 1567.25,-114"/>
<polygon fill="midnightblue" stroke="midnightblue" points="1611.17,-117.5 1621.17,-114 1611.17,-110.5 1611.17,-117.5"/>
</g>
<!-- Node17&#45;&gt;Node10 -->
<g id="edge19" class="edge">
<title>Node17&#45;&gt;Node10</title>
<path fill="none" stroke="midnightblue" d="M1817.35,-86.41C1847.23,-88.96 1882.66,-91.41 1916.86,-93.35"/>
<polygon fill="midnightblue" stroke="midnightblue" points="1817.3,-82.89 1807.03,-85.5 1816.68,-89.86 1817.3,-82.89"/>
</g>
<!-- Node18 -->
<g id="node18" class="node">
<title>Node18</title>
<g id="a_node18"><a xlink:href="classMainPage_1_1TaskDisplayHandler.html#a19067f6c6b504e4947d9473721e6877f" target="_top" xlink:title="Called every frame if it has been completed update the remaining time">
<polygon fill="white" stroke="black" points="1349,-66.5 1349,-85.5 1550,-85.5 1550,-66.5 1349,-66.5"/>
<text text-anchor="middle" x="1449.5" y="-73.5" font-family="Helvetica,sans-Serif" font-size="10.00">MainPage.TaskDisplayHandler.Update</text>
</a>
</g>
</g>
<!-- Node17&#45;&gt;Node18 -->
<g id="edge20" class="edge">
<title>Node17&#45;&gt;Node18</title>
<path fill="none" stroke="midnightblue" d="M1592.93,-76C1578.4,-76 1563.91,-76 1550.05,-76"/>
<polygon fill="midnightblue" stroke="midnightblue" points="1592.98,-79.5 1602.98,-76 1592.98,-72.5 1592.98,-79.5"/>
</g>
<!-- Node19 -->
<g id="node19" class="node">
<title>Node19</title>
<g id="a_node19"><a xlink:href="classMainPage_1_1TaskDisplayHandler.html#ac3773b76adb09298978a65c89136c20f" target="_top" xlink:title="Update the task&#39;s labels">
<polygon fill="white" stroke="black" points="1333,-28.5 1333,-47.5 1566,-47.5 1566,-28.5 1333,-28.5"/>
<text text-anchor="middle" x="1449.5" y="-35.5" font-family="Helvetica,sans-Serif" font-size="10.00">MainPage.TaskDisplayHandler.UpdateLabels</text>
</a>
</g>
</g>
<!-- Node17&#45;&gt;Node19 -->
<g id="edge21" class="edge">
<title>Node17&#45;&gt;Node19</title>
<path fill="none" stroke="midnightblue" d="M1658.02,-65.15C1615.49,-59.58 1564.17,-52.87 1523.21,-47.51"/>
<polygon fill="midnightblue" stroke="midnightblue" points="1657.7,-68.63 1668.07,-66.46 1658.61,-61.69 1657.7,-68.63"/>
</g>
<!-- Node19&#45;&gt;Node11 -->
<g id="edge22" class="edge">
<title>Node19&#45;&gt;Node11</title>
<path fill="none" stroke="midnightblue" d="M1364.54,-49.42C1353.51,-51.58 1342.43,-54.09 1332,-57 1286.96,-69.55 1236.73,-91.78 1209.74,-104.46"/>
<polygon fill="midnightblue" stroke="midnightblue" points="1365.45,-52.81 1374.63,-47.53 1364.16,-45.93 1365.45,-52.81"/>
</g>
</g>
</svg>
        <g id="navigator" transform="translate(0 0)" fill="#404254">
                <rect fill="#f2f5e9" fill-opacity="0.5" stroke="#606060" stroke-width=".5" x="0" y="0" width="60" height="60"/>
                <use id="zoomplus" xlink:href="#zoomPlus" x="17" y="9" onmousedown="handleZoom(evt,'in')"/>
                <use id="zoomminus" xlink:href="#zoomMin" x="42" y="9" onmousedown="handleZoom(evt,'out')"/>
                <use id="reset" xlink:href="#resetDef" x="30" y="36" onmousedown="handleReset()"/>
                <g id="arrowUp" xlink:href="#dirArrow" transform="translate(30 24)" onmousedown="handlePan(0,-1)">
                  <use xlink:href="#rim" fill="#404040">
                        <set attributeName="fill" to="#808080" begin="arrowUp.mouseover" end="arrowUp.mouseout"/>
                  </use>
                  <path fill="none" stroke="white" stroke-width="1.5" d="M0,-3.0v7 M-2.5,-0.5L0,-3.0L2.5,-0.5"/>
                </g>
                <g id="arrowRight" xlink:href="#dirArrow" transform="rotate(90) translate(36 -43)" onmousedown="handlePan(1,0)">
                  <use xlink:href="#rim" fill="#404040">
                        <set attributeName="fill" to="#808080" begin="arrowRight.mouseover" end="arrowRight.mouseout"/>
                  </use>
                  <path fill="none" stroke="white" stroke-width="1.5" d="M0,-3.0v7 M-2.5,-0.5L0,-3.0L2.5,-0.5"/>
                </g>
                <g id="arrowDown" xlink:href="#dirArrow" transform="rotate(180) translate(-30 -48)" onmousedown="handlePan(0,1)">
                  <use xlink:href="#rim" fill="#404040">
                        <set attributeName="fill" to="#808080" begin="arrowDown.mouseover" end="arrowDown.mouseout"/>
                  </use>
                  <path fill="none" stroke="white" stroke-width="1.5" d="M0,-3.0v7 M-2.5,-0.5L0,-3.0L2.5,-0.5"/>
                </g>
                <g id="arrowLeft" xlink:href="#dirArrow" transform="rotate(270) translate(-36 17)" onmousedown="handlePan(-1,0)">
                  <use xlink:href="#rim" fill="#404040">
                        <set attributeName="fill" to="#808080" begin="arrowLeft.mouseover" end="arrowLeft.mouseout"/>
                  </use>
                  <path fill="none" stroke="white" stroke-width="1.5" d="M0,-3.0v7 M-2.5,-0.5L0,-3.0L2.5,-0.5"/>
                </g>
        </g>
        <svg viewBox="0 0 15 15" width="100%" height="30px" preserveAspectRatio="xMaxYMin meet">
         <g id="arrow_out" transform="scale(0.3 0.3)">
          <a xlink:href="classMainPage_1_1MainWindowController_ab5b80370512cd4273e86927fe696462d_icgraph_org.svg" target="_base">
           <rect id="button" ry="5" rx="5" y="6" x="6" height="38" width="38"
                fill="#f2f5e9" fill-opacity="0.5" stroke="#606060" stroke-width="1.0"/>
           <path id="arrow"
             d="M 11.500037,31.436501 C 11.940474,20.09759 22.043105,11.32322 32.158766,21.979434 L 37.068811,17.246167 C 37.068811,17.246167 37.088388,32 37.088388,32 L 22.160133,31.978069 C 22.160133,31.978069 26.997745,27.140456 26.997745,27.140456 C 18.528582,18.264221 13.291696,25.230495 11.500037,31.436501 z"
             style="fill:#404040;"/>
          </a>
         </g>
        </svg>
</svg>
