<?xml version="1.0" encoding="UTF-8" standalone="no"?>
<!DOCTYPE svg PUBLIC "-//W3C//DTD SVG 1.1//EN"
 "http://www.w3.org/Graphics/SVG/1.1/DTD/svg11.dtd">
<!-- Generated by graphviz version 2.43.0 (0)
 -->
<!-- Title: Utility.CoroutineRunner Pages: 1 -->
<svg width="246pt" height="193pt"
 viewBox="0.00 0.00 246.00 193.00" xmlns="http://www.w3.org/2000/svg" xmlns:xlink="http://www.w3.org/1999/xlink">
<g id="graph0" class="graph" transform="scale(1 1) rotate(0) translate(4 189)">
<title>Utility.CoroutineRunner</title>
<polygon fill="white" stroke="transparent" points="-4,4 -4,-189 242,-189 242,4 -4,4"/>
<!-- Node1 -->
<g id="node1" class="node">
<title>Node1</title>
<g id="a_node1"><a xlink:title="Singleton class to run the coroutines so they are easier to track">
<polygon fill="#bfbfbf" stroke="black" points="0,-0.5 0,-90.5 238,-90.5 238,-0.5 0,-0.5"/>
<text text-anchor="middle" x="119" y="-78.5" font-family="Helvetica,sans-Serif" font-size="10.00">Utility.CoroutineRunner</text>
<polyline fill="none" stroke="black" points="0,-71.5 238,-71.5 "/>
<text text-anchor="start" x="8" y="-59.5" font-family="Helvetica,sans-Serif" font-size="10.00">+ static CoroutineRunner Instance</text>
<text text-anchor="start" x="8" y="-48.5" font-family="Helvetica,sans-Serif" font-size="10.00">&#45; static CoroutineRunner _instance</text>
<polyline fill="none" stroke="black" points="0,-41.5 238,-41.5 "/>
<text text-anchor="start" x="8" y="-29.5" font-family="Helvetica,sans-Serif" font-size="10.00">+ static Coroutine RunCoroutine(IEnumerator</text>
<text text-anchor="start" x="8" y="-18.5" font-family="Helvetica,sans-Serif" font-size="10.00"> coroutine)</text>
<text text-anchor="start" x="8" y="-7.5" font-family="Helvetica,sans-Serif" font-size="10.00">+ static void StopAllCoroutinesGlobal()</text>
</a>
</g>
</g>
<!-- Node2 -->
<g id="node2" class="node">
<title>Node2</title>
<g id="a_node2"><a xlink:title=" ">
<polygon fill="white" stroke="#bfbfbf" points="72.5,-127.5 72.5,-184.5 165.5,-184.5 165.5,-127.5 72.5,-127.5"/>
<text text-anchor="middle" x="119" y="-172.5" font-family="Helvetica,sans-Serif" font-size="10.00">MonoBehaviour</text>
<polyline fill="none" stroke="#bfbfbf" points="72.5,-165.5 165.5,-165.5 "/>
<text text-anchor="middle" x="119" y="-153.5" font-family="Helvetica,sans-Serif" font-size="10.00"> </text>
<polyline fill="none" stroke="#bfbfbf" points="72.5,-146.5 165.5,-146.5 "/>
<text text-anchor="middle" x="119" y="-134.5" font-family="Helvetica,sans-Serif" font-size="10.00"> </text>
</a>
</g>
</g>
<!-- Node2&#45;&gt;Node1 -->
<g id="edge1" class="edge">
<title>Node2&#45;&gt;Node1</title>
<path fill="none" stroke="midnightblue" d="M119,-117.21C119,-108.61 119,-99.39 119,-90.55"/>
<polygon fill="none" stroke="midnightblue" points="115.5,-117.34 119,-127.34 122.5,-117.34 115.5,-117.34"/>
</g>
</g>
</svg>
