<?xml version="1.0" encoding="UTF-8" standalone="no"?>
<!DOCTYPE svg PUBLIC "-//W3C//DTD SVG 1.1//EN"
 "http://www.w3.org/Graphics/SVG/1.1/DTD/svg11.dtd">
<!-- Generated by graphviz version 2.43.0 (0)
 -->
<!-- Title: User.UserController Pages: 1 -->
<!--zoomable 559 -->
<svg id="main" version="1.1" xmlns="http://www.w3.org/2000/svg" xmlns:xlink="http://www.w3.org/1999/xlink" xml:space="preserve" onload="init(evt)">
<style type="text/css"><![CDATA[
.edge:hover path { stroke: red; }
.edge:hover polygon { stroke: red; fill: red; }
]]></style>
<script type="text/javascript"><![CDATA[
var edges = document.getElementsByTagName('g');
if (edges && edges.length) {
  for (var i=0;i<edges.length;i++) {
    if (edges[i].id.substr(0,4)=='edge') {
      edges[i].setAttribute('class','edge');
    }
  }
}
]]></script>
        <defs>
                <circle id="rim" cx="0" cy="0" r="7"/>
                <circle id="rim2" cx="0" cy="0" r="3.5"/>
                <g id="zoomPlus">
                        <use xlink:href="#rim" fill="#404040">
                                <set attributeName="fill" to="#808080" begin="zoomplus.mouseover" end="zoomplus.mouseout"/>
                        </use>
                        <path d="M-4,0h8M0,-4v8" fill="none" stroke="white" stroke-width="1.5" pointer-events="none"/>
                </g>
                <g id="zoomMin">
                        <use xlink:href="#rim" fill="#404040">
                                <set attributeName="fill" to="#808080" begin="zoomminus.mouseover" end="zoomminus.mouseout"/>
                        </use>
                        <path d="M-4,0h8" fill="none" stroke="white" stroke-width="1.5" pointer-events="none"/>
                </g>
                <g id="dirArrow">
                        <path fill="none" stroke="white" stroke-width="1.5" d="M0,-3.0v7 M-2.5,-0.5L0,-3.0L2.5,-0.5"/>
                </g>
               <g id="resetDef">
                       <use xlink:href="#rim2" fill="#404040">
                               <set attributeName="fill" to="#808080" begin="reset.mouseover" end="reset.mouseout"/>
                       </use>
               </g>
        </defs>

<script type="text/javascript">
var viewWidth = 442;
var viewHeight = 559;
var sectionId = 'dynsection-1';
</script>
<script xlink:href="svgpan.js"/>
<svg id="graph" class="graph">
<g id="viewport">
<title>User.UserController</title>
<polygon fill="white" stroke="transparent" points="-4,4 -4,-555 437.5,-555 437.5,4 -4,4"/>
<!-- Node1 -->
<g id="node1" class="node">
<title>Node1</title>
<g id="a_node1"><a xlink:title="Handles the user actions such as registering and login">
<polygon fill="#bfbfbf" stroke="black" points="0,-0.5 0,-189.5 359,-189.5 359,-0.5 0,-0.5"/>
<text text-anchor="middle" x="179.5" y="-177.5" font-family="Helvetica,sans-Serif" font-size="10.00">User.UserController</text>
<polyline fill="none" stroke="black" points="0,-170.5 359,-170.5 "/>
<text text-anchor="start" x="8" y="-158.5" font-family="Helvetica,sans-Serif" font-size="10.00">+ GameObject LoginPanel</text>
<text text-anchor="start" x="8" y="-147.5" font-family="Helvetica,sans-Serif" font-size="10.00">&#45; GameObject registerPanel</text>
<polyline fill="none" stroke="black" points="0,-140.5 359,-140.5 "/>
<text text-anchor="start" x="8" y="-128.5" font-family="Helvetica,sans-Serif" font-size="10.00">+ void SendLogin()</text>
<text text-anchor="start" x="8" y="-117.5" font-family="Helvetica,sans-Serif" font-size="10.00">+ void SendRegister()</text>
<text text-anchor="start" x="8" y="-106.5" font-family="Helvetica,sans-Serif" font-size="10.00">+ bool IsValidEmail(string emailaddress)</text>
<text text-anchor="start" x="8" y="-95.5" font-family="Helvetica,sans-Serif" font-size="10.00">+ void MoveToRegisterWindow()</text>
<text text-anchor="start" x="8" y="-84.5" font-family="Helvetica,sans-Serif" font-size="10.00">+ void MoveToLoginWindow()</text>
<text text-anchor="start" x="8" y="-73.5" font-family="Helvetica,sans-Serif" font-size="10.00">&#45; void Start()</text>
<text text-anchor="start" x="8" y="-62.5" font-family="Helvetica,sans-Serif" font-size="10.00">&#45; void CheckLoggedIn()</text>
<text text-anchor="start" x="8" y="-51.5" font-family="Helvetica,sans-Serif" font-size="10.00">&#45; void LoggedIn(Thesis_backend.Data_Structures.User result)</text>
<text text-anchor="start" x="8" y="-40.5" font-family="Helvetica,sans-Serif" font-size="10.00">&#45; void ShowRegisterError(string content)</text>
<text text-anchor="start" x="8" y="-29.5" font-family="Helvetica,sans-Serif" font-size="10.00">&#45; void ShowLoginError(string content)</text>
<text text-anchor="start" x="8" y="-18.5" font-family="Helvetica,sans-Serif" font-size="10.00">&#45; void Registered(Thesis_backend.Data_Structures.User loggedInUser)</text>
<text text-anchor="start" x="8" y="-7.5" font-family="Helvetica,sans-Serif" font-size="10.00">&#45; IEnumerator MoveToMainScence()</text>
</a>
</g>
</g>
<!-- Node2 -->
<g id="node2" class="node">
<title>Node2</title>
<g id="a_node2"><a xlink:href="classUtility_1_1ThreadSafeMonoBehaviour.html" target="_top" xlink:title="Safely stores if the gameobject been destroyed in a bool">
<polygon fill="white" stroke="black" points="101,-398.5 101,-455.5 250,-455.5 250,-398.5 101,-398.5"/>
<text text-anchor="middle" x="175.5" y="-443.5" font-family="Helvetica,sans-Serif" font-size="10.00">ThreadSafeMonoBehaviour</text>
<polyline fill="none" stroke="black" points="101,-436.5 250,-436.5 "/>
<text text-anchor="start" x="109" y="-424.5" font-family="Helvetica,sans-Serif" font-size="10.00">+ bool Destroyed</text>
<polyline fill="none" stroke="black" points="101,-417.5 250,-417.5 "/>
<text text-anchor="start" x="109" y="-405.5" font-family="Helvetica,sans-Serif" font-size="10.00"># void OnDestroy()</text>
</a>
</g>
</g>
<!-- Node2&#45;&gt;Node1 -->
<g id="edge1" class="edge">
<title>Node2&#45;&gt;Node1</title>
<path fill="none" stroke="midnightblue" d="M175.96,-388.18C176.54,-340.15 177.57,-255.58 178.36,-189.75"/>
<polygon fill="none" stroke="midnightblue" points="172.46,-388.39 175.83,-398.43 179.46,-388.48 172.46,-388.39"/>
</g>
<!-- Node4 -->
<g id="node4" class="node">
<title>Node4</title>
<g id="a_node4"><a xlink:href="classUtility_1_1ModalWindow.html" target="_top" xlink:title="Modal window for alerting the user">
<polygon fill="white" stroke="black" points="191.5,-237.5 191.5,-360.5 433.5,-360.5 433.5,-237.5 191.5,-237.5"/>
<text text-anchor="middle" x="312.5" y="-348.5" font-family="Helvetica,sans-Serif" font-size="10.00">Utility.ModalWindow</text>
<polyline fill="none" stroke="black" points="191.5,-341.5 433.5,-341.5 "/>
<text text-anchor="start" x="199.5" y="-329.5" font-family="Helvetica,sans-Serif" font-size="10.00">&#45; TMP_Text ModalTitleText</text>
<text text-anchor="start" x="199.5" y="-318.5" font-family="Helvetica,sans-Serif" font-size="10.00">&#45; TMP_Text ModalContentText</text>
<text text-anchor="start" x="199.5" y="-307.5" font-family="Helvetica,sans-Serif" font-size="10.00">&#45; Action onOkAction</text>
<polyline fill="none" stroke="black" points="191.5,-300.5 433.5,-300.5 "/>
<text text-anchor="start" x="199.5" y="-288.5" font-family="Helvetica,sans-Serif" font-size="10.00">+ void Show()</text>
<text text-anchor="start" x="199.5" y="-277.5" font-family="Helvetica,sans-Serif" font-size="10.00">+ void Show(string title, string content, Action</text>
<text text-anchor="start" x="199.5" y="-266.5" font-family="Helvetica,sans-Serif" font-size="10.00"> onOkAction=null)</text>
<text text-anchor="start" x="199.5" y="-255.5" font-family="Helvetica,sans-Serif" font-size="10.00">+ void Hide()</text>
<text text-anchor="start" x="199.5" y="-244.5" font-family="Helvetica,sans-Serif" font-size="10.00">+ void ConfirmButtonClick()</text>
</a>
</g>
</g>
<!-- Node2&#45;&gt;Node4 -->
<g id="edge4" class="edge">
<title>Node2&#45;&gt;Node4</title>
<path fill="none" stroke="midnightblue" d="M212.93,-391.58C223.36,-381.99 235.01,-371.27 246.56,-360.65"/>
<polygon fill="none" stroke="midnightblue" points="210.56,-389 205.57,-398.35 215.29,-394.16 210.56,-389"/>
</g>
<!-- Node3 -->
<g id="node3" class="node">
<title>Node3</title>
<g id="a_node3"><a xlink:title=" ">
<polygon fill="white" stroke="#bfbfbf" points="129,-493.5 129,-550.5 222,-550.5 222,-493.5 129,-493.5"/>
<text text-anchor="middle" x="175.5" y="-538.5" font-family="Helvetica,sans-Serif" font-size="10.00">MonoBehaviour</text>
<polyline fill="none" stroke="#bfbfbf" points="129,-531.5 222,-531.5 "/>
<text text-anchor="middle" x="175.5" y="-519.5" font-family="Helvetica,sans-Serif" font-size="10.00"> </text>
<polyline fill="none" stroke="#bfbfbf" points="129,-512.5 222,-512.5 "/>
<text text-anchor="middle" x="175.5" y="-500.5" font-family="Helvetica,sans-Serif" font-size="10.00"> </text>
</a>
</g>
</g>
<!-- Node3&#45;&gt;Node2 -->
<g id="edge2" class="edge">
<title>Node3&#45;&gt;Node2</title>
<path fill="none" stroke="midnightblue" d="M175.5,-483.24C175.5,-474.03 175.5,-464.35 175.5,-455.71"/>
<polygon fill="none" stroke="midnightblue" points="172,-483.35 175.5,-493.35 179,-483.35 172,-483.35"/>
</g>
<!-- Node4&#45;&gt;Node1 -->
<g id="edge3" class="edge">
<title>Node4&#45;&gt;Node1</title>
<path fill="none" stroke="#404040" d="M272.6,-237.39C264.81,-225.56 256.44,-212.85 248.02,-200.07"/>
<polygon fill="none" stroke="#404040" points="247.87,-199.85 241.23,-197.03 241.27,-189.82 247.91,-192.63 247.87,-199.85"/>
<text text-anchor="middle" x="296" y="-211" font-family="Helvetica,sans-Serif" font-size="10.00"> &#45;modalWindow</text>
</g>
</g>
</svg>
        <g id="navigator" transform="translate(0 0)" fill="#404254">
                <rect fill="#f2f5e9" fill-opacity="0.5" stroke="#606060" stroke-width=".5" x="0" y="0" width="60" height="60"/>
                <use id="zoomplus" xlink:href="#zoomPlus" x="17" y="9" onmousedown="handleZoom(evt,'in')"/>
                <use id="zoomminus" xlink:href="#zoomMin" x="42" y="9" onmousedown="handleZoom(evt,'out')"/>
                <use id="reset" xlink:href="#resetDef" x="30" y="36" onmousedown="handleReset()"/>
                <g id="arrowUp" xlink:href="#dirArrow" transform="translate(30 24)" onmousedown="handlePan(0,-1)">
                  <use xlink:href="#rim" fill="#404040">
                        <set attributeName="fill" to="#808080" begin="arrowUp.mouseover" end="arrowUp.mouseout"/>
                  </use>
                  <path fill="none" stroke="white" stroke-width="1.5" d="M0,-3.0v7 M-2.5,-0.5L0,-3.0L2.5,-0.5"/>
                </g>
                <g id="arrowRight" xlink:href="#dirArrow" transform="rotate(90) translate(36 -43)" onmousedown="handlePan(1,0)">
                  <use xlink:href="#rim" fill="#404040">
                        <set attributeName="fill" to="#808080" begin="arrowRight.mouseover" end="arrowRight.mouseout"/>
                  </use>
                  <path fill="none" stroke="white" stroke-width="1.5" d="M0,-3.0v7 M-2.5,-0.5L0,-3.0L2.5,-0.5"/>
                </g>
                <g id="arrowDown" xlink:href="#dirArrow" transform="rotate(180) translate(-30 -48)" onmousedown="handlePan(0,1)">
                  <use xlink:href="#rim" fill="#404040">
                        <set attributeName="fill" to="#808080" begin="arrowDown.mouseover" end="arrowDown.mouseout"/>
                  </use>
                  <path fill="none" stroke="white" stroke-width="1.5" d="M0,-3.0v7 M-2.5,-0.5L0,-3.0L2.5,-0.5"/>
                </g>
                <g id="arrowLeft" xlink:href="#dirArrow" transform="rotate(270) translate(-36 17)" onmousedown="handlePan(-1,0)">
                  <use xlink:href="#rim" fill="#404040">
                        <set attributeName="fill" to="#808080" begin="arrowLeft.mouseover" end="arrowLeft.mouseout"/>
                  </use>
                  <path fill="none" stroke="white" stroke-width="1.5" d="M0,-3.0v7 M-2.5,-0.5L0,-3.0L2.5,-0.5"/>
                </g>
        </g>
        <svg viewBox="0 0 15 15" width="100%" height="30px" preserveAspectRatio="xMaxYMin meet">
         <g id="arrow_out" transform="scale(0.3 0.3)">
          <a xlink:href="classUser_1_1UserController__coll__graph_org.svg" target="_base">
           <rect id="button" ry="5" rx="5" y="6" x="6" height="38" width="38"
                fill="#f2f5e9" fill-opacity="0.5" stroke="#606060" stroke-width="1.0"/>
           <path id="arrow"
             d="M 11.500037,31.436501 C 11.940474,20.09759 22.043105,11.32322 32.158766,21.979434 L 37.068811,17.246167 C 37.068811,17.246167 37.088388,32 37.088388,32 L 22.160133,31.978069 C 22.160133,31.978069 26.997745,27.140456 26.997745,27.140456 C 18.528582,18.264221 13.291696,25.230495 11.500037,31.436501 z"
             style="fill:#404040;"/>
          </a>
         </g>
        </svg>
</svg>
