<?xml version="1.0" encoding="UTF-8" standalone="no"?>
<!DOCTYPE svg PUBLIC "-//W3C//DTD SVG 1.1//EN"
 "http://www.w3.org/Graphics/SVG/1.1/DTD/svg11.dtd">
<!-- Generated by graphviz version 2.43.0 (0)
 -->
<!-- Title: MainPage.TaskDisplayHandler.TaskCompleted Pages: 1 -->
<svg width="1772pt" height="161pt"
 viewBox="0.00 0.00 1772.00 161.00" xmlns="http://www.w3.org/2000/svg" xmlns:xlink="http://www.w3.org/1999/xlink">
<g id="graph0" class="graph" transform="scale(1 1) rotate(0) translate(4 157)">
<title>MainPage.TaskDisplayHandler.TaskCompleted</title>
<polygon fill="white" stroke="transparent" points="-4,4 -4,-157 1768,-157 1768,4 -4,4"/>
<!-- Node1 -->
<g id="node1" class="node">
<title>Node1</title>
<g id="a_node1"><a xlink:title="When the complete acknowledge were recieved from the server update the display">
<polygon fill="#bfbfbf" stroke="black" points="0,-38.5 0,-57.5 241,-57.5 241,-38.5 0,-38.5"/>
<text text-anchor="middle" x="120.5" y="-45.5" font-family="Helvetica,sans-Serif" font-size="10.00">MainPage.TaskDisplayHandler.TaskCompleted</text>
</a>
</g>
</g>
<!-- Node2 -->
<g id="node2" class="node">
<title>Node2</title>
<g id="a_node2"><a xlink:href="classMainPage_1_1TaskDisplayHandler.html#a754a230e53cedd3209a29d4d6a743719" target="_top" xlink:title="When the complete state is changed update the display to match it">
<polygon fill="white" stroke="black" points="277,-76.5 277,-95.5 552,-95.5 552,-76.5 277,-76.5"/>
<text text-anchor="middle" x="414.5" y="-83.5" font-family="Helvetica,sans-Serif" font-size="10.00">MainPage.TaskDisplayHandler.CompleteStateChange</text>
</a>
</g>
</g>
<!-- Node1&#45;&gt;Node2 -->
<g id="edge1" class="edge">
<title>Node1&#45;&gt;Node2</title>
<path fill="none" stroke="midnightblue" d="M194.81,-57.54C236.02,-62.9 287.6,-69.62 330.32,-75.18"/>
<polygon fill="midnightblue" stroke="midnightblue" points="330.05,-78.67 340.42,-76.49 330.95,-71.73 330.05,-78.67"/>
</g>
<!-- Node10 -->
<g id="node10" class="node">
<title>Node10</title>
<g id="a_node10"><a xlink:href="classUtility_1_1CoroutineRunner.html#a1c473dee723f16d86bab9d8475c8214a" target="_top" xlink:title="A helper method to start coroutines">
<polygon fill="white" stroke="black" points="315.5,-38.5 315.5,-57.5 513.5,-57.5 513.5,-38.5 315.5,-38.5"/>
<text text-anchor="middle" x="414.5" y="-45.5" font-family="Helvetica,sans-Serif" font-size="10.00">Utility.CoroutineRunner.RunCoroutine</text>
</a>
</g>
</g>
<!-- Node1&#45;&gt;Node10 -->
<g id="edge13" class="edge">
<title>Node1&#45;&gt;Node10</title>
<path fill="none" stroke="midnightblue" d="M241.11,-48C262.36,-48 284.38,-48 305.29,-48"/>
<polygon fill="midnightblue" stroke="midnightblue" points="305.46,-51.5 315.46,-48 305.46,-44.5 305.46,-51.5"/>
</g>
<!-- Node11 -->
<g id="node11" class="node">
<title>Node11</title>
<g id="a_node11"><a xlink:href="classMainPage_1_1MainWindowController.html#afea342e3985134e17406ed61958ecc6f" target="_top" xlink:title="Show the task request fail in the modal window">
<polygon fill="white" stroke="black" points="292,-0.5 292,-19.5 537,-19.5 537,-0.5 292,-0.5"/>
<text text-anchor="middle" x="414.5" y="-7.5" font-family="Helvetica,sans-Serif" font-size="10.00">MainPage.MainWindowController.ShowTaskFail</text>
</a>
</g>
</g>
<!-- Node1&#45;&gt;Node11 -->
<g id="edge14" class="edge">
<title>Node1&#45;&gt;Node11</title>
<path fill="none" stroke="midnightblue" d="M194.81,-38.46C236.02,-33.1 287.6,-26.38 330.32,-20.82"/>
<polygon fill="midnightblue" stroke="midnightblue" points="330.95,-24.27 340.42,-19.51 330.05,-17.33 330.95,-24.27"/>
</g>
<!-- Node3 -->
<g id="node3" class="node">
<title>Node3</title>
<g id="a_node3"><a xlink:href="classMainPage_1_1MainWindowController.html#a85072f5d92f4145d6213209a13936639" target="_top" xlink:title="Refreshes the tasks with the proper sorting order">
<polygon fill="white" stroke="black" points="598.5,-114.5 598.5,-133.5 855.5,-133.5 855.5,-114.5 598.5,-114.5"/>
<text text-anchor="middle" x="727" y="-121.5" font-family="Helvetica,sans-Serif" font-size="10.00">MainPage.MainWindowController.SortingChanged</text>
</a>
</g>
</g>
<!-- Node2&#45;&gt;Node3 -->
<g id="edge2" class="edge">
<title>Node2&#45;&gt;Node3</title>
<path fill="none" stroke="midnightblue" d="M493.45,-95.54C537.46,-100.93 592.59,-107.67 638.13,-113.25"/>
<polygon fill="midnightblue" stroke="midnightblue" points="637.93,-116.75 648.29,-114.49 638.79,-109.8 637.93,-116.75"/>
</g>
<!-- Node9 -->
<g id="node9" class="node">
<title>Node9</title>
<g id="a_node9"><a xlink:href="classMainPage_1_1TaskDisplayHandler.html#aa63f1bc894519b9d5872c2bb50b84415" target="_top" xlink:title="Update the time remaining until the task can be completed again">
<polygon fill="white" stroke="black" points="588,-76.5 588,-95.5 866,-95.5 866,-76.5 588,-76.5"/>
<text text-anchor="middle" x="727" y="-83.5" font-family="Helvetica,sans-Serif" font-size="10.00">MainPage.TaskDisplayHandler.UpdateTimeRemaining</text>
</a>
</g>
</g>
<!-- Node2&#45;&gt;Node9 -->
<g id="edge11" class="edge">
<title>Node2&#45;&gt;Node9</title>
<path fill="none" stroke="midnightblue" d="M552.14,-79.29C560.68,-79.25 569.29,-79.24 577.88,-79.26"/>
<polygon fill="midnightblue" stroke="midnightblue" points="577.92,-82.76 587.93,-79.29 577.94,-75.76 577.92,-82.76"/>
</g>
<!-- Node4 -->
<g id="node4" class="node">
<title>Node4</title>
<g id="a_node4"><a xlink:href="classMainPage_1_1MainWindowController.html#a241b480aeebdab1bc34320cad8de7712" target="_top" xlink:title="Load the good habits">
<polygon fill="white" stroke="black" points="903,-133.5 903,-152.5 1157,-152.5 1157,-133.5 903,-133.5"/>
<text text-anchor="middle" x="1030" y="-140.5" font-family="Helvetica,sans-Serif" font-size="10.00">MainPage.MainWindowController.LoadBadHabits</text>
</a>
</g>
</g>
<!-- Node3&#45;&gt;Node4 -->
<g id="edge3" class="edge">
<title>Node3&#45;&gt;Node4</title>
<path fill="none" stroke="midnightblue" d="M855.65,-132.06C867.79,-132.82 880.14,-133.6 892.36,-134.37"/>
<polygon fill="midnightblue" stroke="midnightblue" points="892.39,-137.88 902.59,-135.02 892.83,-130.9 892.39,-137.88"/>
</g>
<!-- Node7 -->
<g id="node7" class="node">
<title>Node7</title>
<g id="a_node7"><a xlink:href="classMainPage_1_1MainWindowController.html#ab5b80370512cd4273e86927fe696462d" target="_top" xlink:title="Load the good tasks">
<polygon fill="white" stroke="black" points="902,-95.5 902,-114.5 1158,-114.5 1158,-95.5 902,-95.5"/>
<text text-anchor="middle" x="1030" y="-102.5" font-family="Helvetica,sans-Serif" font-size="10.00">MainPage.MainWindowController.LoadGoodTasks</text>
</a>
</g>
</g>
<!-- Node3&#45;&gt;Node7 -->
<g id="edge7" class="edge">
<title>Node3&#45;&gt;Node7</title>
<path fill="none" stroke="midnightblue" d="M855.65,-115.94C867.54,-115.19 879.63,-114.43 891.61,-113.67"/>
<polygon fill="midnightblue" stroke="midnightblue" points="891.87,-117.16 901.63,-113.04 891.43,-110.18 891.87,-117.16"/>
</g>
<!-- Node5 -->
<g id="node5" class="node">
<title>Node5</title>
<g id="a_node5"><a xlink:href="classMainPage_1_1TaskOpenPanelController.html#a5513399c20f650915ca10f54805f416e" target="_top" xlink:title="Make this task a bad habit">
<polygon fill="white" stroke="black" points="1195,-133.5 1195,-152.5 1464,-152.5 1464,-133.5 1195,-133.5"/>
<text text-anchor="middle" x="1329.5" y="-140.5" font-family="Helvetica,sans-Serif" font-size="10.00">MainPage.TaskOpenPanelController.MakeItBadHabit</text>
</a>
</g>
</g>
<!-- Node4&#45;&gt;Node5 -->
<g id="edge4" class="edge">
<title>Node4&#45;&gt;Node5</title>
<path fill="none" stroke="midnightblue" d="M1157.17,-136.32C1166.35,-136.26 1175.66,-136.24 1184.94,-136.25"/>
<polygon fill="midnightblue" stroke="midnightblue" points="1184.98,-139.75 1194.99,-136.28 1185,-132.75 1184.98,-139.75"/>
</g>
<!-- Node5&#45;&gt;Node4 -->
<g id="edge5" class="edge">
<title>Node5&#45;&gt;Node4</title>
<path fill="none" stroke="midnightblue" d="M1194.99,-149.72C1185.75,-149.76 1176.43,-149.76 1167.18,-149.73"/>
<polygon fill="midnightblue" stroke="midnightblue" points="1167.18,-146.23 1157.17,-149.68 1167.15,-153.23 1167.18,-146.23"/>
</g>
<!-- Node6 -->
<g id="node6" class="node">
<title>Node6</title>
<g id="a_node6"><a xlink:href="classMainPage_1_1TaskOpenPanelController.html#aa0b6757dbad141375c50282278b23b1a" target="_top" xlink:title="Update the buttons with the appropriate color based on the current task">
<polygon fill="white" stroke="black" points="1501,-114.5 1501,-133.5 1764,-133.5 1764,-114.5 1501,-114.5"/>
<text text-anchor="middle" x="1632.5" y="-121.5" font-family="Helvetica,sans-Serif" font-size="10.00">MainPage.TaskOpenPanelController.UpdateButtons</text>
</a>
</g>
</g>
<!-- Node5&#45;&gt;Node6 -->
<g id="edge6" class="edge">
<title>Node5&#45;&gt;Node6</title>
<path fill="none" stroke="midnightblue" d="M1464.28,-134.56C1472.97,-134.01 1481.73,-133.45 1490.45,-132.9"/>
<polygon fill="midnightblue" stroke="midnightblue" points="1490.91,-136.38 1500.67,-132.26 1490.46,-129.4 1490.91,-136.38"/>
</g>
<!-- Node8 -->
<g id="node8" class="node">
<title>Node8</title>
<g id="a_node8"><a xlink:href="classMainPage_1_1TaskOpenPanelController.html#a069a63e2b7e70cc4cb4c7e487b655700" target="_top" xlink:title="Make it a good task">
<polygon fill="white" stroke="black" points="1194,-95.5 1194,-114.5 1465,-114.5 1465,-95.5 1194,-95.5"/>
<text text-anchor="middle" x="1329.5" y="-102.5" font-family="Helvetica,sans-Serif" font-size="10.00">MainPage.TaskOpenPanelController.MakeItGoodTask</text>
</a>
</g>
</g>
<!-- Node7&#45;&gt;Node8 -->
<g id="edge8" class="edge">
<title>Node7&#45;&gt;Node8</title>
<path fill="none" stroke="midnightblue" d="M1158.03,-98.31C1166.54,-98.26 1175.15,-98.24 1183.75,-98.25"/>
<polygon fill="midnightblue" stroke="midnightblue" points="1183.81,-101.75 1193.82,-98.28 1183.83,-94.75 1183.81,-101.75"/>
</g>
<!-- Node8&#45;&gt;Node6 -->
<g id="edge10" class="edge">
<title>Node8&#45;&gt;Node6</title>
<path fill="none" stroke="midnightblue" d="M1465.15,-113.5C1473.7,-114.04 1482.32,-114.58 1490.9,-115.12"/>
<polygon fill="midnightblue" stroke="midnightblue" points="1490.74,-118.62 1500.94,-115.76 1491.18,-111.64 1490.74,-118.62"/>
</g>
<!-- Node8&#45;&gt;Node7 -->
<g id="edge9" class="edge">
<title>Node8&#45;&gt;Node7</title>
<path fill="none" stroke="midnightblue" d="M1193.82,-111.72C1185.26,-111.76 1176.63,-111.76 1168.06,-111.73"/>
<polygon fill="midnightblue" stroke="midnightblue" points="1168.05,-108.23 1158.03,-111.69 1168.01,-115.23 1168.05,-108.23"/>
</g>
<!-- Node9&#45;&gt;Node2 -->
<g id="edge12" class="edge">
<title>Node9&#45;&gt;Node2</title>
<path fill="none" stroke="midnightblue" d="M587.93,-92.71C579.39,-92.75 570.77,-92.76 562.19,-92.74"/>
<polygon fill="midnightblue" stroke="midnightblue" points="562.15,-89.24 552.14,-92.71 562.13,-96.24 562.15,-89.24"/>
</g>
<!-- Node12 -->
<g id="node12" class="node">
<title>Node12</title>
<g id="a_node12"><a xlink:href="classUtility_1_1ModalWindow.html#adcef8cae2dffe4247c905d042ff0a8e3" target="_top" xlink:title="Show the modal window">
<polygon fill="white" stroke="black" points="654,-0.5 654,-19.5 800,-19.5 800,-0.5 654,-0.5"/>
<text text-anchor="middle" x="727" y="-7.5" font-family="Helvetica,sans-Serif" font-size="10.00">Utility.ModalWindow.Show</text>
</a>
</g>
</g>
<!-- Node11&#45;&gt;Node12 -->
<g id="edge15" class="edge">
<title>Node11&#45;&gt;Node12</title>
<path fill="none" stroke="midnightblue" d="M537.33,-10C572.89,-10 610.92,-10 643.44,-10"/>
<polygon fill="midnightblue" stroke="midnightblue" points="643.8,-13.5 653.8,-10 643.8,-6.5 643.8,-13.5"/>
</g>
</g>
</svg>
