<?xml version="1.0" encoding="UTF-8" standalone="no"?>
<!DOCTYPE svg PUBLIC "-//W3C//DTD SVG 1.1//EN"
 "http://www.w3.org/Graphics/SVG/1.1/DTD/svg11.dtd">
<!-- Generated by graphviz version 2.43.0 (0)
 -->
<!-- Title: User.UserController.SendLogin Pages: 1 -->
<svg width="644pt" height="139pt"
 viewBox="0.00 0.00 644.00 139.00" xmlns="http://www.w3.org/2000/svg" xmlns:xlink="http://www.w3.org/1999/xlink">
<g id="graph0" class="graph" transform="scale(1 1) rotate(0) translate(4 135)">
<title>User.UserController.SendLogin</title>
<!-- Node1 -->
<g id="Node000001" class="node">
<title>Node1</title>
<g id="a_Node000001"><a xlink:title="Send a login request with the login panel&#39;s fields.">
<polygon fill="#999999" stroke="#666666" points="164,-57 0,-57 0,-38 164,-38 164,-57"/>
<text text-anchor="middle" x="82" y="-45" font-family="Helvetica,sans-Serif" font-size="10.00">User.UserController.SendLogin</text>
</a>
</g>
</g>
<!-- Node2 -->
<g id="Node000002" class="node">
<title>Node2</title>
<g id="a_Node000002"><a xlink:href="classUser_1_1UserController.html#a02fa4701a3a181ec2228737a5f2c57e9" target="_top" xlink:title="When the login request&#39;s was responded log the user in.">
<polygon fill="white" stroke="#666666" points="374,-95 216,-95 216,-76 374,-76 374,-95"/>
<text text-anchor="middle" x="295" y="-83" font-family="Helvetica,sans-Serif" font-size="10.00">User.UserController.LoggedIn</text>
</a>
</g>
</g>
<!-- Node1&#45;&gt;Node2 -->
<g id="edge1_Node000001_Node000002" class="edge">
<title>Node1&#45;&gt;Node2</title>
<g id="a_edge1_Node000001_Node000002"><a xlink:title=" ">
<path fill="none" stroke="#63b8ff" d="M135.97,-57.04C164.82,-62.23 200.7,-68.7 230.97,-74.15"/>
<polygon fill="#63b8ff" stroke="#63b8ff" points="230.54,-77.63 241.01,-75.96 231.79,-70.74 230.54,-77.63"/>
</a>
</g>
</g>
<!-- Node5 -->
<g id="Node000005" class="node">
<title>Node5</title>
<g id="a_Node000005"><a xlink:href="classUtility_1_1CoroutineRunner.html#a1c473dee723f16d86bab9d8475c8214a" target="_top" xlink:title="A helper method to start coroutines.">
<polygon fill="white" stroke="#666666" points="630,-57 432,-57 432,-38 630,-38 630,-57"/>
<text text-anchor="middle" x="531" y="-45" font-family="Helvetica,sans-Serif" font-size="10.00">Utility.CoroutineRunner.RunCoroutine</text>
</a>
</g>
</g>
<!-- Node1&#45;&gt;Node5 -->
<g id="edge5_Node000001_Node000005" class="edge">
<title>Node1&#45;&gt;Node5</title>
<g id="a_edge5_Node000001_Node000005"><a xlink:title=" ">
<path fill="none" stroke="#63b8ff" d="M164.21,-47.5C236.38,-47.5 342.44,-47.5 421.8,-47.5"/>
<polygon fill="#63b8ff" stroke="#63b8ff" points="421.83,-51 431.83,-47.5 421.83,-44 421.83,-51"/>
</a>
</g>
</g>
<!-- Node6 -->
<g id="Node000006" class="node">
<title>Node6</title>
<g id="a_Node000006"><a xlink:href="classUser_1_1UserController.html#a156a37eabac915f5d287201599b3a0b1" target="_top" xlink:title="Show the login error on the modal window.">
<polygon fill="white" stroke="#666666" points="390,-19 200,-19 200,0 390,0 390,-19"/>
<text text-anchor="middle" x="295" y="-7" font-family="Helvetica,sans-Serif" font-size="10.00">User.UserController.ShowLoginError</text>
</a>
</g>
</g>
<!-- Node1&#45;&gt;Node6 -->
<g id="edge6_Node000001_Node000006" class="edge">
<title>Node1&#45;&gt;Node6</title>
<g id="a_edge6_Node000001_Node000006"><a xlink:title=" ">
<path fill="none" stroke="#63b8ff" d="M135.97,-37.96C164.82,-32.77 200.7,-26.3 230.97,-20.85"/>
<polygon fill="#63b8ff" stroke="#63b8ff" points="231.79,-24.26 241.01,-19.04 230.54,-17.37 231.79,-24.26"/>
</a>
</g>
</g>
<!-- Node3 -->
<g id="Node000003" class="node">
<title>Node3</title>
<g id="a_Node000003"><a xlink:href="classUser_1_1UserData.html#abb372911b5e49023a977bd064f46bb6e" target="_top" xlink:title="Initialises the user instance with proper data.">
<polygon fill="white" stroke="#666666" points="584,-131 478,-131 478,-112 584,-112 584,-131"/>
<text text-anchor="middle" x="531" y="-119" font-family="Helvetica,sans-Serif" font-size="10.00">User.UserData.Init</text>
</a>
</g>
</g>
<!-- Node2&#45;&gt;Node3 -->
<g id="edge2_Node000002_Node000003" class="edge">
<title>Node2&#45;&gt;Node3</title>
<g id="a_edge2_Node000002_Node000003"><a xlink:title=" ">
<path fill="none" stroke="#63b8ff" d="M357.79,-95.01C391.66,-100.22 433.53,-106.66 467.51,-111.89"/>
<polygon fill="#63b8ff" stroke="#63b8ff" points="467.37,-115.41 477.78,-113.47 468.43,-108.49 467.37,-115.41"/>
</a>
</g>
</g>
<!-- Node4 -->
<g id="Node000004" class="node">
<title>Node4</title>
<g id="a_Node000004"><a xlink:href="classUser_1_1UserController.html#a3ba5f73e6358fff37d2ec5e255659756" target="_top" xlink:title="Move from the user creation and login scene.">
<polygon fill="white" stroke="#666666" points="636,-94 426,-94 426,-75 636,-75 636,-94"/>
<text text-anchor="middle" x="531" y="-82" font-family="Helvetica,sans-Serif" font-size="10.00">User.UserController.MoveToMainScence</text>
</a>
</g>
</g>
<!-- Node2&#45;&gt;Node4 -->
<g id="edge3_Node000002_Node000004" class="edge">
<title>Node2&#45;&gt;Node4</title>
<g id="a_edge3_Node000002_Node000004"><a xlink:title=" ">
<path fill="none" stroke="#63b8ff" d="M374.24,-85.17C387.5,-85.11 401.51,-85.05 415.47,-84.99"/>
<polygon fill="#63b8ff" stroke="#63b8ff" points="415.63,-88.49 425.61,-84.95 415.6,-81.49 415.63,-88.49"/>
</a>
</g>
</g>
<!-- Node2&#45;&gt;Node5 -->
<g id="edge4_Node000002_Node000005" class="edge">
<title>Node2&#45;&gt;Node5</title>
<g id="a_edge4_Node000002_Node000005"><a xlink:title=" ">
<path fill="none" stroke="#63b8ff" d="M354.75,-75.96C387.01,-70.72 427.22,-64.19 460.98,-58.71"/>
<polygon fill="#63b8ff" stroke="#63b8ff" points="461.92,-62.1 471.23,-57.04 460.8,-55.19 461.92,-62.1"/>
</a>
</g>
</g>
<!-- Node7 -->
<g id="Node000007" class="node">
<title>Node7</title>
<g id="a_Node000007"><a xlink:href="classUtility_1_1ModalWindow.html#adcef8cae2dffe4247c905d042ff0a8e3" target="_top" xlink:title="Show the modal window.">
<polygon fill="white" stroke="#666666" points="604,-19 458,-19 458,0 604,0 604,-19"/>
<text text-anchor="middle" x="531" y="-7" font-family="Helvetica,sans-Serif" font-size="10.00">Utility.ModalWindow.Show</text>
</a>
</g>
</g>
<!-- Node6&#45;&gt;Node7 -->
<g id="edge7_Node000006_Node000007" class="edge">
<title>Node6&#45;&gt;Node7</title>
<g id="a_edge7_Node000006_Node000007"><a xlink:title=" ">
<path fill="none" stroke="#63b8ff" d="M390.17,-9.5C409.24,-9.5 429.15,-9.5 447.78,-9.5"/>
<polygon fill="#63b8ff" stroke="#63b8ff" points="447.98,-13 457.98,-9.5 447.98,-6 447.98,-13"/>
</a>
</g>
</g>
</g>
</svg>
