<?xml version="1.0" encoding="UTF-8" standalone="no"?>
<!DOCTYPE svg PUBLIC "-//W3C//DTD SVG 1.1//EN"
 "http://www.w3.org/Graphics/SVG/1.1/DTD/svg11.dtd">
<!-- Generated by graphviz version 2.43.0 (0)
 -->
<!-- Title: MainPage.TaskDisplayHandler.UpdateLabels Pages: 1 -->
<svg width="2057pt" height="66pt"
 viewBox="0.00 0.00 2057.00 66.00" xmlns="http://www.w3.org/2000/svg" xmlns:xlink="http://www.w3.org/1999/xlink">
<g id="graph0" class="graph" transform="scale(1 1) rotate(0) translate(4 62)">
<title>MainPage.TaskDisplayHandler.UpdateLabels</title>
<polygon fill="white" stroke="transparent" points="-4,4 -4,-62 2053,-62 2053,4 -4,4"/>
<!-- Node1 -->
<g id="node1" class="node">
<title>Node1</title>
<g id="a_node1"><a xlink:title="Update the task&#39;s labels">
<polygon fill="#bfbfbf" stroke="black" points="0,-19.5 0,-38.5 233,-38.5 233,-19.5 0,-19.5"/>
<text text-anchor="middle" x="116.5" y="-26.5" font-family="Helvetica,sans-Serif" font-size="10.00">MainPage.TaskDisplayHandler.UpdateLabels</text>
</a>
</g>
</g>
<!-- Node2 -->
<g id="node2" class="node">
<title>Node2</title>
<g id="a_node2"><a xlink:href="classMainPage_1_1TaskDisplayHandler.html#aa63f1bc894519b9d5872c2bb50b84415" target="_top" xlink:title="Update the time remaining until the task can be completed again">
<polygon fill="white" stroke="black" points="269,-19.5 269,-38.5 547,-38.5 547,-19.5 269,-19.5"/>
<text text-anchor="middle" x="408" y="-26.5" font-family="Helvetica,sans-Serif" font-size="10.00">MainPage.TaskDisplayHandler.UpdateTimeRemaining</text>
</a>
</g>
</g>
<!-- Node1&#45;&gt;Node2 -->
<g id="edge1" class="edge">
<title>Node1&#45;&gt;Node2</title>
<path fill="none" stroke="midnightblue" d="M233.17,-29C241.54,-29 250.06,-29 258.58,-29"/>
<polygon fill="midnightblue" stroke="midnightblue" points="258.6,-32.5 268.6,-29 258.6,-25.5 258.6,-32.5"/>
</g>
<!-- Node3 -->
<g id="node3" class="node">
<title>Node3</title>
<g id="a_node3"><a xlink:href="classMainPage_1_1TaskDisplayHandler.html#a754a230e53cedd3209a29d4d6a743719" target="_top" xlink:title="When the complete state is changed update the display to match it">
<polygon fill="white" stroke="black" points="583,-19.5 583,-38.5 858,-38.5 858,-19.5 583,-19.5"/>
<text text-anchor="middle" x="720.5" y="-26.5" font-family="Helvetica,sans-Serif" font-size="10.00">MainPage.TaskDisplayHandler.CompleteStateChange</text>
</a>
</g>
</g>
<!-- Node2&#45;&gt;Node3 -->
<g id="edge2" class="edge">
<title>Node2&#45;&gt;Node3</title>
<path fill="none" stroke="midnightblue" d="M547.45,-22.29C555.84,-22.25 564.3,-22.24 572.73,-22.26"/>
<polygon fill="midnightblue" stroke="midnightblue" points="572.97,-25.76 582.98,-22.29 572.99,-18.76 572.97,-25.76"/>
</g>
<!-- Node3&#45;&gt;Node2 -->
<g id="edge12" class="edge">
<title>Node3&#45;&gt;Node2</title>
<path fill="none" stroke="midnightblue" d="M582.98,-35.71C574.6,-35.75 566.14,-35.76 557.71,-35.74"/>
<polygon fill="midnightblue" stroke="midnightblue" points="557.46,-32.24 547.45,-35.71 557.44,-39.24 557.46,-32.24"/>
</g>
<!-- Node4 -->
<g id="node4" class="node">
<title>Node4</title>
<g id="a_node4"><a xlink:href="classMainPage_1_1MainWindowController.html#a85072f5d92f4145d6213209a13936639" target="_top" xlink:title="Refreshes the tasks with the proper sorting order">
<polygon fill="white" stroke="black" points="894,-19.5 894,-38.5 1151,-38.5 1151,-19.5 894,-19.5"/>
<text text-anchor="middle" x="1022.5" y="-26.5" font-family="Helvetica,sans-Serif" font-size="10.00">MainPage.MainWindowController.SortingChanged</text>
</a>
</g>
</g>
<!-- Node3&#45;&gt;Node4 -->
<g id="edge3" class="edge">
<title>Node3&#45;&gt;Node4</title>
<path fill="none" stroke="midnightblue" d="M858.33,-29C866.68,-29 875.09,-29 883.44,-29"/>
<polygon fill="midnightblue" stroke="midnightblue" points="883.6,-32.5 893.6,-29 883.6,-25.5 883.6,-32.5"/>
</g>
<!-- Node5 -->
<g id="node5" class="node">
<title>Node5</title>
<g id="a_node5"><a xlink:href="classMainPage_1_1MainWindowController.html#a241b480aeebdab1bc34320cad8de7712" target="_top" xlink:title="Load the good habits">
<polygon fill="white" stroke="black" points="1188,-38.5 1188,-57.5 1442,-57.5 1442,-38.5 1188,-38.5"/>
<text text-anchor="middle" x="1315" y="-45.5" font-family="Helvetica,sans-Serif" font-size="10.00">MainPage.MainWindowController.LoadBadHabits</text>
</a>
</g>
</g>
<!-- Node4&#45;&gt;Node5 -->
<g id="edge4" class="edge">
<title>Node4&#45;&gt;Node5</title>
<path fill="none" stroke="midnightblue" d="M1151.34,-37.36C1159.98,-37.93 1168.71,-38.5 1177.4,-39.07"/>
<polygon fill="midnightblue" stroke="midnightblue" points="1177.36,-42.57 1187.57,-39.73 1177.82,-35.59 1177.36,-42.57"/>
</g>
<!-- Node8 -->
<g id="node8" class="node">
<title>Node8</title>
<g id="a_node8"><a xlink:href="classMainPage_1_1MainWindowController.html#ab5b80370512cd4273e86927fe696462d" target="_top" xlink:title="Load the good tasks">
<polygon fill="white" stroke="black" points="1187,-0.5 1187,-19.5 1443,-19.5 1443,-0.5 1187,-0.5"/>
<text text-anchor="middle" x="1315" y="-7.5" font-family="Helvetica,sans-Serif" font-size="10.00">MainPage.MainWindowController.LoadGoodTasks</text>
</a>
</g>
</g>
<!-- Node4&#45;&gt;Node8 -->
<g id="edge8" class="edge">
<title>Node4&#45;&gt;Node8</title>
<path fill="none" stroke="midnightblue" d="M1151.34,-20.64C1159.67,-20.09 1168.08,-19.54 1176.46,-19"/>
<polygon fill="midnightblue" stroke="midnightblue" points="1176.9,-22.47 1186.65,-18.33 1176.45,-15.49 1176.9,-22.47"/>
</g>
<!-- Node6 -->
<g id="node6" class="node">
<title>Node6</title>
<g id="a_node6"><a xlink:href="classMainPage_1_1TaskOpenPanelController.html#a5513399c20f650915ca10f54805f416e" target="_top" xlink:title="Make this task a bad habit">
<polygon fill="white" stroke="black" points="1480,-38.5 1480,-57.5 1749,-57.5 1749,-38.5 1480,-38.5"/>
<text text-anchor="middle" x="1614.5" y="-45.5" font-family="Helvetica,sans-Serif" font-size="10.00">MainPage.TaskOpenPanelController.MakeItBadHabit</text>
</a>
</g>
</g>
<!-- Node5&#45;&gt;Node6 -->
<g id="edge5" class="edge">
<title>Node5&#45;&gt;Node6</title>
<path fill="none" stroke="midnightblue" d="M1442.17,-41.32C1451.35,-41.26 1460.66,-41.24 1469.94,-41.25"/>
<polygon fill="midnightblue" stroke="midnightblue" points="1469.98,-44.75 1479.99,-41.28 1470,-37.75 1469.98,-44.75"/>
</g>
<!-- Node6&#45;&gt;Node5 -->
<g id="edge6" class="edge">
<title>Node6&#45;&gt;Node5</title>
<path fill="none" stroke="midnightblue" d="M1479.99,-54.72C1470.75,-54.76 1461.43,-54.76 1452.18,-54.73"/>
<polygon fill="midnightblue" stroke="midnightblue" points="1452.18,-51.23 1442.17,-54.68 1452.15,-58.23 1452.18,-51.23"/>
</g>
<!-- Node7 -->
<g id="node7" class="node">
<title>Node7</title>
<g id="a_node7"><a xlink:href="classMainPage_1_1TaskOpenPanelController.html#aa0b6757dbad141375c50282278b23b1a" target="_top" xlink:title="Update the buttons with the appropriate color based on the current task">
<polygon fill="white" stroke="black" points="1786,-19.5 1786,-38.5 2049,-38.5 2049,-19.5 1786,-19.5"/>
<text text-anchor="middle" x="1917.5" y="-26.5" font-family="Helvetica,sans-Serif" font-size="10.00">MainPage.TaskOpenPanelController.UpdateButtons</text>
</a>
</g>
</g>
<!-- Node6&#45;&gt;Node7 -->
<g id="edge7" class="edge">
<title>Node6&#45;&gt;Node7</title>
<path fill="none" stroke="midnightblue" d="M1749.28,-39.56C1757.97,-39.01 1766.73,-38.45 1775.45,-37.9"/>
<polygon fill="midnightblue" stroke="midnightblue" points="1775.91,-41.38 1785.67,-37.26 1775.46,-34.4 1775.91,-41.38"/>
</g>
<!-- Node9 -->
<g id="node9" class="node">
<title>Node9</title>
<g id="a_node9"><a xlink:href="classMainPage_1_1TaskOpenPanelController.html#a069a63e2b7e70cc4cb4c7e487b655700" target="_top" xlink:title="Make it a good task">
<polygon fill="white" stroke="black" points="1479,-0.5 1479,-19.5 1750,-19.5 1750,-0.5 1479,-0.5"/>
<text text-anchor="middle" x="1614.5" y="-7.5" font-family="Helvetica,sans-Serif" font-size="10.00">MainPage.TaskOpenPanelController.MakeItGoodTask</text>
</a>
</g>
</g>
<!-- Node8&#45;&gt;Node9 -->
<g id="edge9" class="edge">
<title>Node8&#45;&gt;Node9</title>
<path fill="none" stroke="midnightblue" d="M1443.03,-3.31C1451.54,-3.26 1460.15,-3.24 1468.75,-3.25"/>
<polygon fill="midnightblue" stroke="midnightblue" points="1468.81,-6.75 1478.82,-3.28 1468.83,0.25 1468.81,-6.75"/>
</g>
<!-- Node9&#45;&gt;Node7 -->
<g id="edge11" class="edge">
<title>Node9&#45;&gt;Node7</title>
<path fill="none" stroke="midnightblue" d="M1750.15,-18.5C1758.7,-19.04 1767.32,-19.58 1775.9,-20.12"/>
<polygon fill="midnightblue" stroke="midnightblue" points="1775.74,-23.62 1785.94,-20.76 1776.18,-16.64 1775.74,-23.62"/>
</g>
<!-- Node9&#45;&gt;Node8 -->
<g id="edge10" class="edge">
<title>Node9&#45;&gt;Node8</title>
<path fill="none" stroke="midnightblue" d="M1478.82,-16.72C1470.26,-16.76 1461.63,-16.76 1453.06,-16.73"/>
<polygon fill="midnightblue" stroke="midnightblue" points="1453.05,-13.23 1443.03,-16.69 1453.01,-20.23 1453.05,-13.23"/>
</g>
</g>
</svg>
