<?xml version="1.0" encoding="UTF-8" standalone="no"?>
<!DOCTYPE svg PUBLIC "-//W3C//DTD SVG 1.1//EN"
 "http://www.w3.org/Graphics/SVG/1.1/DTD/svg11.dtd">
<!-- Generated by graphviz version 2.43.0 (0)
 -->
<!-- Title: MainPage.TaskOpenPanelController.Save Pages: 1 -->
<!--zoomable 214 -->

<svg id="main" version="1.1" xmlns="http://www.w3.org/2000/svg" xmlns:xlink="http://www.w3.org/1999/xlink" xml:space="preserve" onload="init(evt)">
<style type="text/css"><![CDATA[
.node, .edge {opacity: 0.7;}
.node.selected, .edge.selected {opacity: 1;}
.edge:hover path { stroke: red; }
.edge:hover polygon { stroke: red; fill: red; }
]]></style>

<defs>
  <circle id="rim" cx="0" cy="0" r="7"/>
  <circle id="rim2" cx="0" cy="0" r="3.5"/>
  <g id="zoomPlus">
    <use xlink:href="#rim" fill="#404040"><set attributeName="fill" to="#808080" begin="zoomplus.mouseover" end="zoomplus.mouseout"/></use>
    <path d="M-4,0h8M0,-4v8" fill="none" stroke="white" stroke-width="1.5" pointer-events="none"/>
  </g>
  <g id="zoomMin">
    <use xlink:href="#rim" fill="#404040"><set attributeName="fill" to="#808080" begin="zoomminus.mouseover" end="zoomminus.mouseout"/></use>
    <path d="M-4,0h8" fill="none" stroke="white" stroke-width="1.5" pointer-events="none"/>
  </g>
  <g id="arrowUp" transform="translate(30 24)">
    <use xlink:href="#rim"/>
    <path pointer-events="none" fill="none" stroke="white" stroke-width="1.5" d="M0,-3.0v7 M-2.5,-0.5L0,-3.0L2.5,-0.5"/>
  </g>
  <g id="arrowRight" transform="rotate(90) translate(36 -43)">
    <use xlink:href="#rim"/>
    <path pointer-events="none" fill="none" stroke="white" stroke-width="1.5" d="M0,-3.0v7 M-2.5,-0.5L0,-3.0L2.5,-0.5"/>
  </g>
  <g id="arrowDown" transform="rotate(180) translate(-30 -48)">
    <use xlink:href="#rim"/>
    <path pointer-events="none" fill="none" stroke="white" stroke-width="1.5" d="M0,-3.0v7 M-2.5,-0.5L0,-3.0L2.5,-0.5"/>
  </g>
  <g id="arrowLeft" transform="rotate(270) translate(-36 17)">
    <use xlink:href="#rim"/>
    <path pointer-events="none" fill="none" stroke="white" stroke-width="1.5" d="M0,-3.0v7 M-2.5,-0.5L0,-3.0L2.5,-0.5"/>
  </g>
  <g id="resetDef">
    <use xlink:href="#rim2" fill="#404040"><set attributeName="fill" to="#808080" begin="reset.mouseover" end="reset.mouseout"/></use>
  </g>
</defs>
<script type="application/ecmascript">
var viewWidth = 2621;
var viewHeight = 214;
var sectionId = 'dynsection-11';
</script>
<script type="application/ecmascript" xlink:href="svg.min.js"/>
<svg id="graph" class="graph">
<g id="viewport">
<title>MainPage.TaskOpenPanelController.Save</title>
<!-- Node1 -->
<g id="Node000001" class="node">
<title>Node1</title>
<g id="a_Node000001"><a xlink:title="Save the task to the server.">
<polygon fill="#999999" stroke="#666666" points="215,-121 0,-121 0,-102 215,-102 215,-121"/>
<text text-anchor="middle" x="107.5" y="-109" font-family="Helvetica,sans-Serif" font-size="10.00">MainPage.TaskOpenPanelController.Save</text>
</a>
</g>
</g>
<!-- Node2 -->
<g id="Node000002" class="node">
<title>Node2</title>
<g id="a_Node000002"><a xlink:href="classMainPage_1_1TaskOpenPanelController.html#ac66bfe4cec26cf62dd22db230ab9c5f1" target="_top" xlink:title="Collect the values from the inputs.">
<polygon fill="white" stroke="#666666" points="529,-195 251,-195 251,-176 529,-176 529,-195"/>
<text text-anchor="middle" x="390" y="-183" font-family="Helvetica,sans-Serif" font-size="10.00">MainPage.TaskOpenPanelController.CollectFromFields</text>
</a>
</g>
</g>
<!-- Node1&#45;&gt;Node2 -->
<g id="edge1_Node000001_Node000002" class="edge">
<title>Node1&#45;&gt;Node2</title>
<g id="a_edge1_Node000001_Node000002"><a xlink:title=" ">
<path fill="none" stroke="#63b8ff" d="M128.28,-121.07C155.33,-133.74 205.7,-155.83 251,-167.5 261.02,-170.08 271.55,-172.3 282.13,-174.21"/>
<polygon fill="#63b8ff" stroke="#63b8ff" points="281.84,-177.71 292.28,-175.95 283.02,-170.81 281.84,-177.71"/>
</a>
</g>
</g>
<!-- Node3 -->
<g id="Node000003" class="node">
<title>Node3</title>
<g id="a_Node000003"><a xlink:href="classConfig_1_1ServerConfig.html#a69cfac1052256f93e049889a0594911d" target="_top" xlink:title="Pah to api endpoin to update a task.">
<polygon fill="white" stroke="#666666" points="501.5,-158 278.5,-158 278.5,-139 501.5,-139 501.5,-158"/>
<text text-anchor="middle" x="390" y="-146" font-family="Helvetica,sans-Serif" font-size="10.00">Config.ServerConfig.PATHFORTASKUPDATE</text>
</a>
</g>
</g>
<!-- Node1&#45;&gt;Node3 -->
<g id="edge2_Node000001_Node000003" class="edge">
<title>Node1&#45;&gt;Node3</title>
<g id="a_edge2_Node000001_Node000003"><a xlink:title=" ">
<path fill="none" stroke="#63b8ff" d="M179.53,-121.01C202.35,-124.06 227.74,-127.43 251,-130.5 268.6,-132.82 287.47,-135.29 305.43,-137.64"/>
<polygon fill="#63b8ff" stroke="#63b8ff" points="305.22,-141.14 315.59,-138.96 306.12,-134.2 305.22,-141.14"/>
</a>
</g>
</g>
<!-- Node4 -->
<g id="Node000004" class="node">
<title>Node4</title>
<g id="a_Node000004"><a xlink:href="classUtility_1_1CoroutineRunner.html#a1c473dee723f16d86bab9d8475c8214a" target="_top" xlink:title="A helper method to start coroutines.">
<polygon fill="white" stroke="#666666" points="489,-121 291,-121 291,-102 489,-102 489,-121"/>
<text text-anchor="middle" x="390" y="-109" font-family="Helvetica,sans-Serif" font-size="10.00">Utility.CoroutineRunner.RunCoroutine</text>
</a>
</g>
</g>
<!-- Node1&#45;&gt;Node4 -->
<g id="edge3_Node000001_Node000004" class="edge">
<title>Node1&#45;&gt;Node4</title>
<g id="a_edge3_Node000001_Node000004"><a xlink:title=" ">
<path fill="none" stroke="#63b8ff" d="M215.35,-111.5C236.73,-111.5 259.22,-111.5 280.65,-111.5"/>
<polygon fill="#63b8ff" stroke="#63b8ff" points="280.75,-115 290.75,-111.5 280.75,-108 280.75,-115"/>
</a>
</g>
</g>
<!-- Node5 -->
<g id="Node000005" class="node">
<title>Node5</title>
<g id="a_Node000005"><a xlink:href="classMainPage_1_1TaskOpenPanelController.html#a750d1acc6fd173296467fb9aca366a3d" target="_top" xlink:title="When the task was stored on the server show it also visually and close the panel.">
<polygon fill="white" stroke="#666666" points="511,-84 269,-84 269,-65 511,-65 511,-84"/>
<text text-anchor="middle" x="390" y="-72" font-family="Helvetica,sans-Serif" font-size="10.00">MainPage.TaskOpenPanelController.SavedTask</text>
</a>
</g>
</g>
<!-- Node1&#45;&gt;Node5 -->
<g id="edge4_Node000001_Node000005" class="edge">
<title>Node1&#45;&gt;Node5</title>
<g id="a_edge4_Node000001_Node000005"><a xlink:title=" ">
<path fill="none" stroke="#63b8ff" d="M179.53,-101.99C202.35,-98.94 227.74,-95.57 251,-92.5 268.6,-90.18 287.47,-87.71 305.43,-85.36"/>
<polygon fill="#63b8ff" stroke="#63b8ff" points="306.12,-88.8 315.59,-84.04 305.22,-81.86 306.12,-88.8"/>
</a>
</g>
</g>
<!-- Node19 -->
<g id="Node000019" class="node">
<title>Node19</title>
<g id="a_Node000019"><a xlink:href="classMainPage_1_1MainWindowController.html#afea342e3985134e17406ed61958ecc6f" target="_top" xlink:title="Show the task request fail in the modal window.">
<polygon fill="white" stroke="#666666" points="512.5,-38 267.5,-38 267.5,-19 512.5,-19 512.5,-38"/>
<text text-anchor="middle" x="390" y="-26" font-family="Helvetica,sans-Serif" font-size="10.00">MainPage.MainWindowController.ShowTaskFail</text>
</a>
</g>
</g>
<!-- Node1&#45;&gt;Node19 -->
<g id="edge24_Node000001_Node000019" class="edge">
<title>Node1&#45;&gt;Node19</title>
<g id="a_edge24_Node000001_Node000019"><a xlink:title=" ">
<path fill="none" stroke="#63b8ff" d="M129.33,-101.93C156.72,-89.67 206.6,-68.45 251,-55.5 272.34,-49.27 295.97,-44.06 317.55,-39.93"/>
<polygon fill="#63b8ff" stroke="#63b8ff" points="318.44,-43.32 327.63,-38.04 317.16,-36.44 318.44,-43.32"/>
</a>
</g>
</g>
<!-- Node6 -->
<g id="Node000006" class="node">
<title>Node6</title>
<g id="a_Node000006"><a xlink:href="classMainPage_1_1MainWindowController.html#a827f62c47eb691eadd994bd51bf7cb74" target="_top" xlink:title="Creates a new task prefab to display.">
<polygon fill="white" stroke="#666666" points="813.5,-132 579.5,-132 579.5,-113 813.5,-113 813.5,-132"/>
<text text-anchor="middle" x="696.5" y="-120" font-family="Helvetica,sans-Serif" font-size="10.00">MainPage.MainWindowController.CreateTask</text>
</a>
</g>
</g>
<!-- Node5&#45;&gt;Node6 -->
<g id="edge5_Node000005_Node000006" class="edge">
<title>Node5&#45;&gt;Node6</title>
<g id="a_edge5_Node000005_Node000006"><a xlink:title=" ">
<path fill="none" stroke="#63b8ff" d="M469.18,-84.03C488.74,-86.59 509.66,-89.5 529,-92.5 548.92,-95.59 595.33,-103.99 634.1,-111.12"/>
<polygon fill="#63b8ff" stroke="#63b8ff" points="633.82,-114.62 644.29,-112.99 635.09,-107.74 633.82,-114.62"/>
</a>
</g>
</g>
<!-- Node10 -->
<g id="Node000010" class="node">
<title>Node10</title>
<g id="a_Node000010"><a xlink:href="classMainPage_1_1MainWindowController.html#a85072f5d92f4145d6213209a13936639" target="_top" xlink:title="Refreshes the tasks with the proper sorting order.">
<polygon fill="white" stroke="#666666" points="1704.5,-95 1447.5,-95 1447.5,-76 1704.5,-76 1704.5,-95"/>
<text text-anchor="middle" x="1576" y="-83" font-family="Helvetica,sans-Serif" font-size="10.00">MainPage.MainWindowController.SortingChanged</text>
</a>
</g>
</g>
<!-- Node5&#45;&gt;Node10 -->
<g id="edge22_Node000005_Node000010" class="edge">
<title>Node5&#45;&gt;Node10</title>
<g id="a_edge22_Node000005_Node000010"><a xlink:title=" ">
<path fill="none" stroke="#63b8ff" d="M511.04,-75.62C732.33,-77.67 1203.29,-82.05 1437.22,-84.22"/>
<polygon fill="#63b8ff" stroke="#63b8ff" points="1437.46,-87.72 1447.49,-84.32 1437.52,-80.72 1437.46,-87.72"/>
</a>
</g>
</g>
<!-- Node18 -->
<g id="Node000018" class="node">
<title>Node18</title>
<g id="a_Node000018"><a xlink:href="classMainPage_1_1MainWindowController.html#aee6fc5b4f9a2dfbfc32567557a745241" target="_top" xlink:title="Update the task prebab&#39;s label.">
<polygon fill="white" stroke="#666666" points="828,-56 565,-56 565,-37 828,-37 828,-56"/>
<text text-anchor="middle" x="696.5" y="-44" font-family="Helvetica,sans-Serif" font-size="10.00">MainPage.MainWindowController.UpdateTaskLabel</text>
</a>
</g>
</g>
<!-- Node5&#45;&gt;Node18 -->
<g id="edge23_Node000005_Node000018" class="edge">
<title>Node5&#45;&gt;Node18</title>
<g id="a_edge23_Node000005_Node000018"><a xlink:title=" ">
<path fill="none" stroke="#63b8ff" d="M494.51,-64.98C522.66,-62.39 553.29,-59.58 581.96,-56.94"/>
<polygon fill="#63b8ff" stroke="#63b8ff" points="582.38,-60.42 592.01,-56.02 581.73,-53.45 582.38,-60.42"/>
</a>
</g>
</g>
<!-- Node7 -->
<g id="Node000007" class="node">
<title>Node7</title>
<g id="a_Node000007"><a xlink:href="classMainPage_1_1TaskDisplayHandler.html#a8aedc4afb32d220352cf04cc77fdedf6" target="_top" xlink:title="Init it with the task to display and references to the controls.">
<polygon fill="white" stroke="#666666" points="1078,-150 864,-150 864,-131 1078,-131 1078,-150"/>
<text text-anchor="middle" x="971" y="-138" font-family="Helvetica,sans-Serif" font-size="10.00">MainPage.TaskDisplayHandler.InitValues</text>
</a>
</g>
</g>
<!-- Node6&#45;&gt;Node7 -->
<g id="edge6_Node000006_Node000007" class="edge">
<title>Node6&#45;&gt;Node7</title>
<g id="a_edge6_Node000006_Node000007"><a xlink:title=" ">
<path fill="none" stroke="#63b8ff" d="M813.85,-130.19C827.11,-131.06 840.62,-131.95 853.88,-132.83"/>
<polygon fill="#63b8ff" stroke="#63b8ff" points="853.75,-136.33 863.95,-133.5 854.21,-129.34 853.75,-136.33"/>
</a>
</g>
</g>
<!-- Node8 -->
<g id="Node000008" class="node">
<title>Node8</title>
<g id="a_Node000008"><a xlink:href="classMainPage_1_1TaskDisplayHandler.html#aa49063eb8db092920d512f9869df6e98" target="_top" xlink:title="Calculate if the task can be completed again.">
<polygon fill="white" stroke="#666666" points="1401,-206 1114,-206 1114,-187 1401,-187 1401,-206"/>
<text text-anchor="middle" x="1257.5" y="-194" font-family="Helvetica,sans-Serif" font-size="10.00">MainPage.TaskDisplayHandler.CalculateIfCompleteable</text>
</a>
</g>
</g>
<!-- Node7&#45;&gt;Node8 -->
<g id="edge7_Node000007_Node000008" class="edge">
<title>Node7&#45;&gt;Node8</title>
<g id="a_edge7_Node000007_Node000008"><a xlink:title=" ">
<path fill="none" stroke="#63b8ff" d="M1002.74,-150.02C1031.31,-158.57 1075.18,-170.89 1114,-178.5 1127.49,-181.14 1141.77,-183.48 1155.89,-185.53"/>
<polygon fill="#63b8ff" stroke="#63b8ff" points="1155.73,-189.04 1166.12,-186.96 1156.71,-182.11 1155.73,-189.04"/>
</a>
</g>
</g>
<!-- Node9 -->
<g id="Node000009" class="node">
<title>Node9</title>
<g id="a_Node000009"><a xlink:href="classMainPage_1_1TaskDisplayHandler.html#a754a230e53cedd3209a29d4d6a743719" target="_top" xlink:title="When the complete state is changed update the display to match it.">
<polygon fill="white" stroke="#666666" points="1395,-132 1120,-132 1120,-113 1395,-113 1395,-132"/>
<text text-anchor="middle" x="1257.5" y="-120" font-family="Helvetica,sans-Serif" font-size="10.00">MainPage.TaskDisplayHandler.CompleteStateChange</text>
</a>
</g>
</g>
<!-- Node7&#45;&gt;Node9 -->
<g id="edge8_Node000007_Node000009" class="edge">
<title>Node7&#45;&gt;Node9</title>
<g id="a_edge8_Node000007_Node000009"><a xlink:title=" ">
<path fill="none" stroke="#63b8ff" d="M1078.34,-133.77C1088.63,-133.12 1099.18,-132.45 1109.77,-131.78"/>
<polygon fill="#63b8ff" stroke="#63b8ff" points="1110.16,-135.27 1119.92,-131.14 1109.72,-128.28 1110.16,-135.27"/>
</a>
</g>
</g>
<!-- Node17 -->
<g id="Node000017" class="node">
<title>Node17</title>
<g id="a_Node000017"><a xlink:href="classMainPage_1_1TaskDisplayHandler.html#ac3773b76adb09298978a65c89136c20f" target="_top" xlink:title="Update the task&#39;s labels.">
<polygon fill="white" stroke="#666666" points="1374,-169 1141,-169 1141,-150 1374,-150 1374,-169"/>
<text text-anchor="middle" x="1257.5" y="-157" font-family="Helvetica,sans-Serif" font-size="10.00">MainPage.TaskDisplayHandler.UpdateLabels</text>
</a>
</g>
</g>
<!-- Node7&#45;&gt;Node17 -->
<g id="edge20_Node000007_Node000017" class="edge">
<title>Node7&#45;&gt;Node17</title>
<g id="a_edge20_Node000007_Node000017"><a xlink:title=" ">
<path fill="none" stroke="#63b8ff" d="M1078.34,-147.6C1095.36,-148.74 1113.11,-149.92 1130.54,-151.09"/>
<polygon fill="#63b8ff" stroke="#63b8ff" points="1130.54,-154.6 1140.75,-151.77 1131.01,-147.61 1130.54,-154.6"/>
</a>
</g>
</g>
<!-- Node9&#45;&gt;Node10 -->
<g id="edge9_Node000009_Node000010" class="edge">
<title>Node9&#45;&gt;Node10</title>
<g id="a_edge9_Node000009_Node000010"><a xlink:title=" ">
<path fill="none" stroke="#63b8ff" d="M1340.01,-112.97C1383.85,-107.85 1438.07,-101.51 1483.38,-96.21"/>
<polygon fill="#63b8ff" stroke="#63b8ff" points="1483.97,-99.67 1493.49,-95.03 1483.16,-92.71 1483.97,-99.67"/>
</a>
</g>
</g>
<!-- Node16 -->
<g id="Node000016" class="node">
<title>Node16</title>
<g id="a_Node000016"><a xlink:href="classMainPage_1_1TaskDisplayHandler.html#aa63f1bc894519b9d5872c2bb50b84415" target="_top" xlink:title="Update the time remaining until the task can be completed again.">
<polygon fill="white" stroke="#666666" points="1715,-132 1437,-132 1437,-113 1715,-113 1715,-132"/>
<text text-anchor="middle" x="1576" y="-120" font-family="Helvetica,sans-Serif" font-size="10.00">MainPage.TaskDisplayHandler.UpdateTimeRemaining</text>
</a>
</g>
</g>
<!-- Node9&#45;&gt;Node16 -->
<g id="edge18_Node000009_Node000016" class="edge">
<title>Node9&#45;&gt;Node16</title>
<g id="a_edge18_Node000009_Node000016"><a xlink:title=" ">
<path fill="none" stroke="#63b8ff" d="M1395.02,-115.81C1405.54,-115.75 1416.2,-115.74 1426.79,-115.76"/>
<polygon fill="#63b8ff" stroke="#63b8ff" points="1426.91,-119.26 1436.92,-115.8 1426.94,-112.26 1426.91,-119.26"/>
</a>
</g>
</g>
<!-- Node11 -->
<g id="Node000011" class="node">
<title>Node11</title>
<g id="a_Node000011"><a xlink:href="classMainPage_1_1MainWindowController.html#a241b480aeebdab1bc34320cad8de7712" target="_top" xlink:title="Load the good habits.">
<polygon fill="white" stroke="#666666" points="2006,-114 1752,-114 1752,-95 2006,-95 2006,-114"/>
<text text-anchor="middle" x="1879" y="-102" font-family="Helvetica,sans-Serif" font-size="10.00">MainPage.MainWindowController.LoadBadHabits</text>
</a>
</g>
</g>
<!-- Node10&#45;&gt;Node11 -->
<g id="edge10_Node000010_Node000011" class="edge">
<title>Node10&#45;&gt;Node11</title>
<g id="a_edge10_Node000010_Node000011"><a xlink:title=" ">
<path fill="none" stroke="#63b8ff" d="M1704.65,-93.56C1716.79,-94.32 1729.14,-95.1 1741.36,-95.87"/>
<polygon fill="#63b8ff" stroke="#63b8ff" points="1741.39,-99.38 1751.59,-96.52 1741.83,-92.4 1741.39,-99.38"/>
</a>
</g>
</g>
<!-- Node14 -->
<g id="Node000014" class="node">
<title>Node14</title>
<g id="a_Node000014"><a xlink:href="classMainPage_1_1MainWindowController.html#ab5b80370512cd4273e86927fe696462d" target="_top" xlink:title="Load the good tasks.">
<polygon fill="white" stroke="#666666" points="2007,-77 1751,-77 1751,-58 2007,-58 2007,-77"/>
<text text-anchor="middle" x="1879" y="-65" font-family="Helvetica,sans-Serif" font-size="10.00">MainPage.MainWindowController.LoadGoodTasks</text>
</a>
</g>
</g>
<!-- Node10&#45;&gt;Node14 -->
<g id="edge14_Node000010_Node000014" class="edge">
<title>Node10&#45;&gt;Node14</title>
<g id="a_edge14_Node000010_Node000014"><a xlink:title=" ">
<path fill="none" stroke="#63b8ff" d="M1704.65,-77.87C1716.54,-77.16 1728.63,-76.43 1740.61,-75.72"/>
<polygon fill="#63b8ff" stroke="#63b8ff" points="1740.86,-79.21 1750.63,-75.12 1740.44,-72.22 1740.86,-79.21"/>
</a>
</g>
</g>
<!-- Node12 -->
<g id="Node000012" class="node">
<title>Node12</title>
<g id="a_Node000012"><a xlink:href="classMainPage_1_1TaskOpenPanelController.html#a5513399c20f650915ca10f54805f416e" target="_top" xlink:title="Make this task a bad habit.">
<polygon fill="white" stroke="#666666" points="2313,-114 2044,-114 2044,-95 2313,-95 2313,-114"/>
<text text-anchor="middle" x="2178.5" y="-102" font-family="Helvetica,sans-Serif" font-size="10.00">MainPage.TaskOpenPanelController.MakeItBadHabit</text>
</a>
</g>
</g>
<!-- Node11&#45;&gt;Node12 -->
<g id="edge11_Node000011_Node000012" class="edge">
<title>Node11&#45;&gt;Node12</title>
<g id="a_edge11_Node000011_Node000012"><a xlink:title=" ">
<path fill="none" stroke="#63b8ff" d="M2006.17,-97.82C2015.35,-97.76 2024.66,-97.74 2033.94,-97.75"/>
<polygon fill="#63b8ff" stroke="#63b8ff" points="2033.98,-101.25 2043.99,-97.78 2034,-94.25 2033.98,-101.25"/>
</a>
</g>
</g>
<!-- Node12&#45;&gt;Node11 -->
<g id="edge12_Node000012_Node000011" class="edge">
<title>Node12&#45;&gt;Node11</title>
<g id="a_edge12_Node000012_Node000011"><a xlink:title=" ">
<path fill="none" stroke="#63b8ff" d="M2043.99,-111.22C2034.75,-111.26 2025.43,-111.26 2016.18,-111.23"/>
<polygon fill="#63b8ff" stroke="#63b8ff" points="2016.18,-107.73 2006.17,-111.18 2016.15,-114.73 2016.18,-107.73"/>
</a>
</g>
</g>
<!-- Node13 -->
<g id="Node000013" class="node">
<title>Node13</title>
<g id="a_Node000013"><a xlink:href="classMainPage_1_1TaskOpenPanelController.html#aa0b6757dbad141375c50282278b23b1a" target="_top" xlink:title="Update the buttons with the appropriate color based on the current task.">
<polygon fill="white" stroke="#666666" points="2613,-95 2350,-95 2350,-76 2613,-76 2613,-95"/>
<text text-anchor="middle" x="2481.5" y="-83" font-family="Helvetica,sans-Serif" font-size="10.00">MainPage.TaskOpenPanelController.UpdateButtons</text>
</a>
</g>
</g>
<!-- Node12&#45;&gt;Node13 -->
<g id="edge13_Node000012_Node000013" class="edge">
<title>Node12&#45;&gt;Node13</title>
<g id="a_edge13_Node000012_Node000013"><a xlink:title=" ">
<path fill="none" stroke="#63b8ff" d="M2313.28,-96.06C2321.97,-95.51 2330.73,-94.95 2339.45,-94.4"/>
<polygon fill="#63b8ff" stroke="#63b8ff" points="2339.91,-97.88 2349.67,-93.76 2339.46,-90.9 2339.91,-97.88"/>
</a>
</g>
</g>
<!-- Node15 -->
<g id="Node000015" class="node">
<title>Node15</title>
<g id="a_Node000015"><a xlink:href="classMainPage_1_1TaskOpenPanelController.html#a069a63e2b7e70cc4cb4c7e487b655700" target="_top" xlink:title="Make it a good task.">
<polygon fill="white" stroke="#666666" points="2314,-77 2043,-77 2043,-58 2314,-58 2314,-77"/>
<text text-anchor="middle" x="2178.5" y="-65" font-family="Helvetica,sans-Serif" font-size="10.00">MainPage.TaskOpenPanelController.MakeItGoodTask</text>
</a>
</g>
</g>
<!-- Node14&#45;&gt;Node15 -->
<g id="edge15_Node000014_Node000015" class="edge">
<title>Node14&#45;&gt;Node15</title>
<g id="a_edge15_Node000014_Node000015"><a xlink:title=" ">
<path fill="none" stroke="#63b8ff" d="M2007.03,-60.81C2015.54,-60.76 2024.15,-60.74 2032.75,-60.75"/>
<polygon fill="#63b8ff" stroke="#63b8ff" points="2032.81,-64.25 2042.82,-60.78 2032.83,-57.25 2032.81,-64.25"/>
</a>
</g>
</g>
<!-- Node15&#45;&gt;Node13 -->
<g id="edge17_Node000015_Node000013" class="edge">
<title>Node15&#45;&gt;Node13</title>
<g id="a_edge17_Node000015_Node000013"><a xlink:title=" ">
<path fill="none" stroke="#63b8ff" d="M2314.15,-75.55C2322.7,-76.06 2331.32,-76.58 2339.9,-77.09"/>
<polygon fill="#63b8ff" stroke="#63b8ff" points="2339.75,-80.59 2349.94,-77.69 2340.17,-73.6 2339.75,-80.59"/>
</a>
</g>
</g>
<!-- Node15&#45;&gt;Node14 -->
<g id="edge16_Node000015_Node000014" class="edge">
<title>Node15&#45;&gt;Node14</title>
<g id="a_edge16_Node000015_Node000014"><a xlink:title=" ">
<path fill="none" stroke="#63b8ff" d="M2042.82,-74.22C2034.26,-74.26 2025.63,-74.26 2017.06,-74.23"/>
<polygon fill="#63b8ff" stroke="#63b8ff" points="2017.05,-70.73 2007.03,-74.19 2017.01,-77.73 2017.05,-70.73"/>
</a>
</g>
</g>
<!-- Node16&#45;&gt;Node9 -->
<g id="edge19_Node000016_Node000009" class="edge">
<title>Node16&#45;&gt;Node9</title>
<g id="a_edge19_Node000016_Node000009"><a xlink:title=" ">
<path fill="none" stroke="#63b8ff" d="M1436.92,-129.2C1426.39,-129.25 1415.73,-129.26 1405.14,-129.23"/>
<polygon fill="#63b8ff" stroke="#63b8ff" points="1405.03,-125.73 1395.02,-129.19 1405.01,-132.73 1405.03,-125.73"/>
</a>
</g>
</g>
<!-- Node17&#45;&gt;Node16 -->
<g id="edge21_Node000017_Node000016" class="edge">
<title>Node17&#45;&gt;Node16</title>
<g id="a_edge21_Node000017_Node000016"><a xlink:title=" ">
<path fill="none" stroke="#63b8ff" d="M1340.01,-149.97C1383.85,-144.85 1438.07,-138.51 1483.38,-133.21"/>
<polygon fill="#63b8ff" stroke="#63b8ff" points="1483.97,-136.67 1493.49,-132.03 1483.16,-129.71 1483.97,-136.67"/>
</a>
</g>
</g>
<!-- Node20 -->
<g id="Node000020" class="node">
<title>Node20</title>
<g id="a_Node000020"><a xlink:href="classUtility_1_1ModalWindow.html#adcef8cae2dffe4247c905d042ff0a8e3" target="_top" xlink:title="Show the modal window.">
<polygon fill="white" stroke="#666666" points="769.5,-19 623.5,-19 623.5,0 769.5,0 769.5,-19"/>
<text text-anchor="middle" x="696.5" y="-7" font-family="Helvetica,sans-Serif" font-size="10.00">Utility.ModalWindow.Show</text>
</a>
</g>
</g>
<!-- Node19&#45;&gt;Node20 -->
<g id="edge25_Node000019_Node000020" class="edge">
<title>Node19&#45;&gt;Node20</title>
<g id="a_edge25_Node000019_Node000020"><a xlink:title=" ">
<path fill="none" stroke="#63b8ff" d="M512.66,-20.91C546.29,-18.81 582.01,-16.58 612.86,-14.66"/>
<polygon fill="#63b8ff" stroke="#63b8ff" points="613.37,-18.13 623.13,-14.02 612.93,-11.15 613.37,-18.13"/>
</a>
</g>
</g>
</g>
</svg>

<g id="navigator" transform="translate(0 0)" fill="#404254">
  <rect fill="#f2f5e9" fill-opacity="0.5" stroke="#606060" stroke-width=".5" x="0" y="0" width="60" height="60"/>
  <use id="zoomplus" xlink:href="#zoomPlus" x="17" y="9" onmousedown="handleZoom(evt,'in')"/>
  <use id="zoomminus" xlink:href="#zoomMin" x="42" y="9" onmousedown="handleZoom(evt,'out')"/>
  <use id="reset" xlink:href="#resetDef" x="30" y="36" onmousedown="handleReset()"/>
   <use id="arrowup" xlink:href="#arrowUp" x="0" y="0" onmousedown="handlePan(0,-1)"/>
  <use id="arrowright" xlink:href="#arrowRight" x="0" y="0" onmousedown="handlePan(1,0)"/>
  <use id="arrowdown" xlink:href="#arrowDown" x="0" y="0" onmousedown="handlePan(0,1)"/>
  <use id="arrowleft" xlink:href="#arrowLeft" x="0" y="0" onmousedown="handlePan(-1,0)"/>
</g>
<svg viewBox="0 0 15 15" width="100%" height="30px" preserveAspectRatio="xMaxYMin meet">
 <g id="arrow_out" transform="scale(0.3 0.3)">
  <a xlink:href="classMainPage_1_1TaskOpenPanelController_ab8def75cd4cdbdaf3033022ea114a8a6_cgraph_org.svg" target="_base">
   <rect id="button" ry="5" rx="5" y="6" x="6" height="38" width="38"
        fill="#f2f5e9" fill-opacity="0.5" stroke="#606060" stroke-width="1.0"/>
   <path id="arrow"
     d="M 11.500037,31.436501 C 11.940474,20.09759 22.043105,11.32322 32.158766,21.979434 L 37.068811,17.246167 C 37.068811,17.246167 37.088388,32 37.088388,32 L 22.160133,31.978069 C 22.160133,31.978069 26.997745,27.140456 26.997745,27.140456 C 18.528582,18.264221 13.291696,25.230495 11.500037,31.436501 z"
     style="fill:#404040;"/>
  </a>
 </g>
</svg>

<style type='text/css'>
<![CDATA[
[data-mouse-over-selected='false'] { opacity: 0.7; }
[data-mouse-over-selected='true']  { opacity: 1.0; }
]]>
</style>
<script type="application/ecmascript"><![CDATA[
document.addEventListener('DOMContentLoaded', (event) => {
  highlightEdges();
  highlightAdjacentNodes();
});
]]></script>
</svg>
