<?xml version="1.0" encoding="UTF-8" standalone="no"?>
<!DOCTYPE svg PUBLIC "-//W3C//DTD SVG 1.1//EN"
 "http://www.w3.org/Graphics/SVG/1.1/DTD/svg11.dtd">
<!-- Generated by graphviz version 2.43.0 (0)
 -->
<!-- Title: Game.UI.LeaderboardItem Pages: 1 -->
<svg width="222pt" height="265pt"
 viewBox="0.00 0.00 222.00 265.00" xmlns="http://www.w3.org/2000/svg" xmlns:xlink="http://www.w3.org/1999/xlink">
<g id="graph0" class="graph" transform="scale(1 1) rotate(0) translate(4 261)">
<title>Game.UI.LeaderboardItem</title>
<polygon fill="white" stroke="transparent" points="-4,4 -4,-261 218,-261 218,4 -4,4"/>
<!-- Node1 -->
<g id="node1" class="node">
<title>Node1</title>
<g id="a_node1"><a xlink:title="A single leaderboard item">
<polygon fill="#bfbfbf" stroke="black" points="0,-0.5 0,-68.5 214,-68.5 214,-0.5 0,-0.5"/>
<text text-anchor="middle" x="107" y="-56.5" font-family="Helvetica,sans-Serif" font-size="10.00">Game.UI.LeaderboardItem</text>
<polyline fill="none" stroke="black" points="0,-49.5 214,-49.5 "/>
<text text-anchor="start" x="8" y="-37.5" font-family="Helvetica,sans-Serif" font-size="10.00">&#45; TMP_Text playerNameText</text>
<text text-anchor="start" x="8" y="-26.5" font-family="Helvetica,sans-Serif" font-size="10.00">&#45; TMP_Text scoreText</text>
<polyline fill="none" stroke="black" points="0,-19.5 214,-19.5 "/>
<text text-anchor="start" x="8" y="-7.5" font-family="Helvetica,sans-Serif" font-size="10.00">+ void Init(string playerName, int score)</text>
</a>
</g>
</g>
<!-- Node2 -->
<g id="node2" class="node">
<title>Node2</title>
<g id="a_node2"><a xlink:href="classUtility_1_1ThreadSafeMonoBehaviour.html" target="_top" xlink:title="Safely stores if the gameobject been destroyed in a bool">
<polygon fill="white" stroke="black" points="32.5,-105.5 32.5,-162.5 181.5,-162.5 181.5,-105.5 32.5,-105.5"/>
<text text-anchor="middle" x="107" y="-150.5" font-family="Helvetica,sans-Serif" font-size="10.00">ThreadSafeMonoBehaviour</text>
<polyline fill="none" stroke="black" points="32.5,-143.5 181.5,-143.5 "/>
<text text-anchor="start" x="40.5" y="-131.5" font-family="Helvetica,sans-Serif" font-size="10.00">+ bool Destroyed</text>
<polyline fill="none" stroke="black" points="32.5,-124.5 181.5,-124.5 "/>
<text text-anchor="start" x="40.5" y="-112.5" font-family="Helvetica,sans-Serif" font-size="10.00"># void OnDestroy()</text>
</a>
</g>
</g>
<!-- Node2&#45;&gt;Node1 -->
<g id="edge1" class="edge">
<title>Node2&#45;&gt;Node1</title>
<path fill="none" stroke="midnightblue" d="M107,-95.06C107,-86.39 107,-77.24 107,-68.79"/>
<polygon fill="none" stroke="midnightblue" points="103.5,-95.32 107,-105.32 110.5,-95.32 103.5,-95.32"/>
</g>
<!-- Node3 -->
<g id="node3" class="node">
<title>Node3</title>
<g id="a_node3"><a xlink:title=" ">
<polygon fill="white" stroke="#bfbfbf" points="60.5,-199.5 60.5,-256.5 153.5,-256.5 153.5,-199.5 60.5,-199.5"/>
<text text-anchor="middle" x="107" y="-244.5" font-family="Helvetica,sans-Serif" font-size="10.00">MonoBehaviour</text>
<polyline fill="none" stroke="#bfbfbf" points="60.5,-237.5 153.5,-237.5 "/>
<text text-anchor="middle" x="107" y="-225.5" font-family="Helvetica,sans-Serif" font-size="10.00"> </text>
<polyline fill="none" stroke="#bfbfbf" points="60.5,-218.5 153.5,-218.5 "/>
<text text-anchor="middle" x="107" y="-206.5" font-family="Helvetica,sans-Serif" font-size="10.00"> </text>
</a>
</g>
</g>
<!-- Node3&#45;&gt;Node2 -->
<g id="edge2" class="edge">
<title>Node3&#45;&gt;Node2</title>
<path fill="none" stroke="midnightblue" d="M107,-189.21C107,-180.29 107,-170.95 107,-162.58"/>
<polygon fill="none" stroke="midnightblue" points="103.5,-189.4 107,-199.4 110.5,-189.4 103.5,-189.4"/>
</g>
</g>
</svg>
