<?xml version="1.0" encoding="UTF-8" standalone="no"?>
<!DOCTYPE svg PUBLIC "-//W3C//DTD SVG 1.1//EN"
 "http://www.w3.org/Graphics/SVG/1.1/DTD/svg11.dtd">
<!-- Generated by graphviz version 2.43.0 (0)
 -->
<!-- Title: User.UserData.Init Pages: 1 -->
<svg width="900pt" height="142pt"
 viewBox="0.00 0.00 900.00 142.00" xmlns="http://www.w3.org/2000/svg" xmlns:xlink="http://www.w3.org/1999/xlink">
<g id="graph0" class="graph" transform="scale(1 1) rotate(0) translate(4 138)">
<title>User.UserData.Init</title>
<polygon fill="white" stroke="transparent" points="-4,4 -4,-138 896,-138 896,4 -4,4"/>
<!-- Node1 -->
<g id="node1" class="node">
<title>Node1</title>
<g id="a_node1"><a xlink:title="Initialises the user instance with proper data">
<polygon fill="#bfbfbf" stroke="black" points="786,-57.5 786,-76.5 892,-76.5 892,-57.5 786,-57.5"/>
<text text-anchor="middle" x="839" y="-64.5" font-family="Helvetica,sans-Serif" font-size="10.00">User.UserData.Init</text>
</a>
</g>
</g>
<!-- Node2 -->
<g id="node2" class="node">
<title>Node2</title>
<g id="a_node2"><a xlink:href="classUser_1_1LoggedInChecker.html#a142873ff5324726072d218102f0bee8b" target="_top" xlink:title="Update the user data from the server data">
<polygon fill="white" stroke="black" points="534,-114.5 534,-133.5 705,-133.5 705,-114.5 534,-114.5"/>
<text text-anchor="middle" x="619.5" y="-121.5" font-family="Helvetica,sans-Serif" font-size="10.00">User.LoggedInChecker.LoggedIn</text>
</a>
</g>
</g>
<!-- Node1&#45;&gt;Node2 -->
<g id="edge1" class="edge">
<title>Node1&#45;&gt;Node2</title>
<path fill="none" stroke="midnightblue" d="M810.31,-81.18C793.32,-89.32 770.88,-99.07 750,-105 735.68,-109.07 720.21,-112.29 705.12,-114.85"/>
<polygon fill="midnightblue" stroke="midnightblue" points="812.2,-84.16 819.64,-76.62 809.12,-77.87 812.2,-84.16"/>
</g>
<!-- Node5 -->
<g id="node5" class="node">
<title>Node5</title>
<g id="a_node5"><a xlink:href="classUser_1_1UserController.html#a02fa4701a3a181ec2228737a5f2c57e9" target="_top" xlink:title="When the login request&#39;s was responded log the user in">
<polygon fill="white" stroke="black" points="540.5,-76.5 540.5,-95.5 698.5,-95.5 698.5,-76.5 540.5,-76.5"/>
<text text-anchor="middle" x="619.5" y="-83.5" font-family="Helvetica,sans-Serif" font-size="10.00">User.UserController.LoggedIn</text>
</a>
</g>
</g>
<!-- Node1&#45;&gt;Node5 -->
<g id="edge4" class="edge">
<title>Node1&#45;&gt;Node5</title>
<path fill="none" stroke="midnightblue" d="M775.83,-72.43C751.76,-74.53 723.94,-76.96 698.54,-79.18"/>
<polygon fill="midnightblue" stroke="midnightblue" points="776.25,-75.91 785.9,-71.55 775.64,-68.93 776.25,-75.91"/>
</g>
<!-- Node9 -->
<g id="node9" class="node">
<title>Node9</title>
<g id="a_node9"><a xlink:href="classUser_1_1UserController.html#aa173cb240990e358e98ff052c30a93e9" target="_top" xlink:title="When the register request was responded successfully register the user and log him in">
<polygon fill="white" stroke="black" points="536,-38.5 536,-57.5 703,-57.5 703,-38.5 536,-38.5"/>
<text text-anchor="middle" x="619.5" y="-45.5" font-family="Helvetica,sans-Serif" font-size="10.00">User.UserController.Registered</text>
</a>
</g>
</g>
<!-- Node1&#45;&gt;Node9 -->
<g id="edge8" class="edge">
<title>Node1&#45;&gt;Node9</title>
<path fill="none" stroke="midnightblue" d="M775.77,-61.56C753.17,-59.59 727.26,-57.33 703.17,-55.22"/>
<polygon fill="midnightblue" stroke="midnightblue" points="775.64,-65.07 785.9,-62.45 776.25,-58.09 775.64,-65.07"/>
</g>
<!-- Node11 -->
<g id="node11" class="node">
<title>Node11</title>
<g id="a_node11"><a xlink:href="classMainPage_1_1MainWindowController.html#a330729fb97065041f29f7ad9eb63def3" target="_top" xlink:title="Update the user with the updated value">
<polygon fill="white" stroke="black" points="489,-0.5 489,-19.5 750,-19.5 750,-0.5 489,-0.5"/>
<text text-anchor="middle" x="619.5" y="-7.5" font-family="Helvetica,sans-Serif" font-size="10.00">MainPage.MainWindowController.UpdateUserData</text>
</a>
</g>
</g>
<!-- Node1&#45;&gt;Node11 -->
<g id="edge10" class="edge">
<title>Node1&#45;&gt;Node11</title>
<path fill="none" stroke="midnightblue" d="M810.31,-52.82C793.32,-44.68 770.88,-34.93 750,-29 736.34,-25.12 721.63,-22 707.2,-19.51"/>
<polygon fill="midnightblue" stroke="midnightblue" points="809.12,-56.13 819.64,-57.38 812.2,-49.84 809.12,-56.13"/>
</g>
<!-- Node3 -->
<g id="node3" class="node">
<title>Node3</title>
<g id="a_node3"><a xlink:href="classUser_1_1LoggedInChecker.html#a306ce5521a6109ae00667a32fd0a442c" target="_top" xlink:title="Coroutine which calls the api endpoint to check if the user is still logged in">
<polygon fill="white" stroke="black" points="195,-114.5 195,-133.5 453,-133.5 453,-114.5 195,-114.5"/>
<text text-anchor="middle" x="324" y="-121.5" font-family="Helvetica,sans-Serif" font-size="10.00">User.LoggedInChecker.CheckLoggedInPeriodically</text>
</a>
</g>
</g>
<!-- Node2&#45;&gt;Node3 -->
<g id="edge2" class="edge">
<title>Node2&#45;&gt;Node3</title>
<path fill="none" stroke="midnightblue" d="M523.44,-124C501.02,-124 476.74,-124 453.12,-124"/>
<polygon fill="midnightblue" stroke="midnightblue" points="523.61,-127.5 533.61,-124 523.61,-120.5 523.61,-127.5"/>
</g>
<!-- Node4 -->
<g id="node4" class="node">
<title>Node4</title>
<g id="a_node4"><a xlink:href="classUser_1_1LoggedInChecker.html#a0f9199eb996ba1309b9bb6bad5d6268e" target="_top" xlink:title="Called when the script is loaded">
<polygon fill="white" stroke="black" points="0,-114.5 0,-133.5 159,-133.5 159,-114.5 0,-114.5"/>
<text text-anchor="middle" x="79.5" y="-121.5" font-family="Helvetica,sans-Serif" font-size="10.00">User.LoggedInChecker.Awake</text>
</a>
</g>
</g>
<!-- Node3&#45;&gt;Node4 -->
<g id="edge3" class="edge">
<title>Node3&#45;&gt;Node4</title>
<path fill="none" stroke="midnightblue" d="M184.52,-124C175.93,-124 167.46,-124 159.28,-124"/>
<polygon fill="midnightblue" stroke="midnightblue" points="184.65,-127.5 194.65,-124 184.65,-120.5 184.65,-127.5"/>
</g>
<!-- Node6 -->
<g id="node6" class="node">
<title>Node6</title>
<g id="a_node6"><a xlink:href="classUser_1_1UserController.html#a0e115007266961c890001eb18f11bd1f" target="_top" xlink:title="Send a request to check if the user has logged in already">
<polygon fill="white" stroke="black" points="230,-76.5 230,-95.5 418,-95.5 418,-76.5 230,-76.5"/>
<text text-anchor="middle" x="324" y="-83.5" font-family="Helvetica,sans-Serif" font-size="10.00">User.UserController.CheckLoggedIn</text>
</a>
</g>
</g>
<!-- Node5&#45;&gt;Node6 -->
<g id="edge5" class="edge">
<title>Node5&#45;&gt;Node6</title>
<path fill="none" stroke="midnightblue" d="M529.94,-86C494.62,-86 453.94,-86 418.18,-86"/>
<polygon fill="midnightblue" stroke="midnightblue" points="530.23,-89.5 540.23,-86 530.23,-82.5 530.23,-89.5"/>
</g>
<!-- Node8 -->
<g id="node8" class="node">
<title>Node8</title>
<g id="a_node8"><a xlink:href="classUser_1_1UserController.html#a7d9a8e16cdb6bc3702ab7987cc141b09" target="_top" xlink:title="Send a login request with the login panel&#39;s fields">
<polygon fill="white" stroke="black" points="242,-38.5 242,-57.5 406,-57.5 406,-38.5 242,-38.5"/>
<text text-anchor="middle" x="324" y="-45.5" font-family="Helvetica,sans-Serif" font-size="10.00">User.UserController.SendLogin</text>
</a>
</g>
</g>
<!-- Node5&#45;&gt;Node8 -->
<g id="edge7" class="edge">
<title>Node5&#45;&gt;Node8</title>
<path fill="none" stroke="midnightblue" d="M534.66,-75.15C491.69,-69.58 439.84,-62.87 398.46,-57.51"/>
<polygon fill="midnightblue" stroke="midnightblue" points="534.45,-78.65 544.82,-76.46 535.35,-71.7 534.45,-78.65"/>
</g>
<!-- Node7 -->
<g id="node7" class="node">
<title>Node7</title>
<g id="a_node7"><a xlink:href="classUser_1_1UserController.html#a8d7a7b7d698dd47d420cc52ca90def5d" target="_top" xlink:title="Start is called before the first frame update">
<polygon fill="white" stroke="black" points="11,-76.5 11,-95.5 148,-95.5 148,-76.5 11,-76.5"/>
<text text-anchor="middle" x="79.5" y="-83.5" font-family="Helvetica,sans-Serif" font-size="10.00">User.UserController.Start</text>
</a>
</g>
</g>
<!-- Node6&#45;&gt;Node7 -->
<g id="edge6" class="edge">
<title>Node6&#45;&gt;Node7</title>
<path fill="none" stroke="midnightblue" d="M219.64,-86C195.44,-86 170.26,-86 148.09,-86"/>
<polygon fill="midnightblue" stroke="midnightblue" points="219.94,-89.5 229.94,-86 219.94,-82.5 219.94,-89.5"/>
</g>
<!-- Node10 -->
<g id="node10" class="node">
<title>Node10</title>
<g id="a_node10"><a xlink:href="classUser_1_1UserController.html#ae7159709fe17c18b3f9e3a15617c1db1" target="_top" xlink:title="Send a register request with the register panel&#39;s fields">
<polygon fill="white" stroke="black" points="234.5,-0.5 234.5,-19.5 413.5,-19.5 413.5,-0.5 234.5,-0.5"/>
<text text-anchor="middle" x="324" y="-7.5" font-family="Helvetica,sans-Serif" font-size="10.00">User.UserController.SendRegister</text>
</a>
</g>
</g>
<!-- Node9&#45;&gt;Node10 -->
<g id="edge9" class="edge">
<title>Node9&#45;&gt;Node10</title>
<path fill="none" stroke="midnightblue" d="M534.66,-37.15C491.69,-31.58 439.84,-24.87 398.46,-19.51"/>
<polygon fill="midnightblue" stroke="midnightblue" points="534.45,-40.65 544.82,-38.46 535.35,-33.7 534.45,-40.65"/>
</g>
</g>
</svg>
