<?xml version="1.0" encoding="UTF-8" standalone="no"?>
<!DOCTYPE svg PUBLIC "-//W3C//DTD SVG 1.1//EN"
 "http://www.w3.org/Graphics/SVG/1.1/DTD/svg11.dtd">
<!-- Generated by graphviz version 2.43.0 (0)
 -->
<!-- Title: MainPage.FriendWindowHandler.Show Pages: 1 -->
<svg width="987pt" height="64pt"
 viewBox="0.00 0.00 987.00 64.00" xmlns="http://www.w3.org/2000/svg" xmlns:xlink="http://www.w3.org/1999/xlink">
<g id="graph0" class="graph" transform="scale(1 1) rotate(0) translate(4 60)">
<title>MainPage.FriendWindowHandler.Show</title>
<!-- Node1 -->
<g id="Node000001" class="node">
<title>Node1</title>
<g id="a_Node000001"><a xlink:title="Shows the profile window.">
<polygon fill="#999999" stroke="#666666" points="203,-37 0,-37 0,-18 203,-18 203,-37"/>
<text text-anchor="middle" x="101.5" y="-25" font-family="Helvetica,sans-Serif" font-size="10.00">MainPage.FriendWindowHandler.Show</text>
</a>
</g>
</g>
<!-- Node2 -->
<g id="Node000002" class="node">
<title>Node2</title>
<g id="a_Node000002"><a xlink:href="classMainPage_1_1FriendWindowHandler.html#a6ebf0f7c70458f53c427517bf84bef7d" target="_top" xlink:title="Loads the friends from the server.">
<polygon fill="white" stroke="#666666" points="474,-37 239,-37 239,-18 474,-18 474,-37"/>
<text text-anchor="middle" x="356.5" y="-25" font-family="Helvetica,sans-Serif" font-size="10.00">MainPage.FriendWindowHandler.LoadFriends</text>
</a>
</g>
</g>
<!-- Node1&#45;&gt;Node2 -->
<g id="edge1_Node000001_Node000002" class="edge">
<title>Node1&#45;&gt;Node2</title>
<g id="a_edge1_Node000001_Node000002"><a xlink:title=" ">
<path fill="none" stroke="#63b8ff" d="M203.22,-27.5C211.64,-27.5 220.22,-27.5 228.79,-27.5"/>
<polygon fill="#63b8ff" stroke="#63b8ff" points="228.86,-31 238.86,-27.5 228.86,-24 228.86,-31"/>
</a>
</g>
</g>
<!-- Node3 -->
<g id="Node000003" class="node">
<title>Node3</title>
<g id="a_Node000003"><a xlink:href="classMainPage_1_1FriendWindowHandler.html#abce9cb8e608691cfbc50bf47c17a1b34" target="_top" xlink:title="Display the friends which was recieved from the server.">
<polygon fill="white" stroke="#666666" points="758,-56 510,-56 510,-37 758,-37 758,-56"/>
<text text-anchor="middle" x="634" y="-44" font-family="Helvetica,sans-Serif" font-size="10.00">MainPage.FriendWindowHandler.DisplayFriends</text>
</a>
</g>
</g>
<!-- Node2&#45;&gt;Node3 -->
<g id="edge2_Node000002_Node000003" class="edge">
<title>Node2&#45;&gt;Node3</title>
<g id="a_edge2_Node000002_Node000003"><a xlink:title=" ">
<path fill="none" stroke="#63b8ff" d="M474.34,-35.56C482.77,-36.14 491.31,-36.73 499.83,-37.32"/>
<polygon fill="#63b8ff" stroke="#63b8ff" points="499.59,-40.81 509.8,-38 500.07,-33.82 499.59,-40.81"/>
</a>
</g>
</g>
<!-- Node5 -->
<g id="Node000005" class="node">
<title>Node5</title>
<g id="a_Node000005"><a xlink:href="classUtility_1_1CoroutineRunner.html#a1c473dee723f16d86bab9d8475c8214a" target="_top" xlink:title="A helper method to start coroutines.">
<polygon fill="white" stroke="#666666" points="733,-19 535,-19 535,0 733,0 733,-19"/>
<text text-anchor="middle" x="634" y="-7" font-family="Helvetica,sans-Serif" font-size="10.00">Utility.CoroutineRunner.RunCoroutine</text>
</a>
</g>
</g>
<!-- Node2&#45;&gt;Node5 -->
<g id="edge4_Node000002_Node000005" class="edge">
<title>Node2&#45;&gt;Node5</title>
<g id="a_edge4_Node000002_Node000005"><a xlink:title=" ">
<path fill="none" stroke="#63b8ff" d="M474.34,-19.87C490.98,-18.78 508.03,-17.66 524.5,-16.59"/>
<polygon fill="#63b8ff" stroke="#63b8ff" points="524.92,-20.07 534.67,-15.92 524.46,-13.08 524.92,-20.07"/>
</a>
</g>
</g>
<!-- Node4 -->
<g id="Node000004" class="node">
<title>Node4</title>
<g id="a_Node000004"><a xlink:href="classMainPage_1_1FriendHandler.html#ab894b96203019d08e341bbb6090af8b8" target="_top" xlink:title="Inititializes a new display with the given friend to display.">
<polygon fill="white" stroke="#666666" points="979,-56 794,-56 794,-37 979,-37 979,-56"/>
<text text-anchor="middle" x="886.5" y="-44" font-family="Helvetica,sans-Serif" font-size="10.00">MainPage.FriendHandler.InitValues</text>
</a>
</g>
</g>
<!-- Node3&#45;&gt;Node4 -->
<g id="edge3_Node000003_Node000004" class="edge">
<title>Node3&#45;&gt;Node4</title>
<g id="a_edge3_Node000003_Node000004"><a xlink:title=" ">
<path fill="none" stroke="#63b8ff" d="M758.05,-46.5C766.58,-46.5 775.13,-46.5 783.53,-46.5"/>
<polygon fill="#63b8ff" stroke="#63b8ff" points="783.69,-50 793.69,-46.5 783.69,-43 783.69,-50"/>
</a>
</g>
</g>
</g>
</svg>
