<?xml version="1.0" encoding="UTF-8" standalone="no"?>
<!DOCTYPE svg PUBLIC "-//W3C//DTD SVG 1.1//EN"
 "http://www.w3.org/Graphics/SVG/1.1/DTD/svg11.dtd">
<!-- Generated by graphviz version 2.43.0 (0)
 -->
<!-- Title: Game.World.Chunk Pages: 1 -->
<svg width="336pt" height="864pt"
 viewBox="0.00 0.00 336.00 864.00" xmlns="http://www.w3.org/2000/svg" xmlns:xlink="http://www.w3.org/1999/xlink">
<g id="graph0" class="graph" transform="scale(1 1) rotate(0) translate(4 860)">
<title>Game.World.Chunk</title>
<!-- Node1 -->
<g id="Node000001" class="node">
<title>Node1</title>
<g id="a_Node000001"><a xlink:title="Stores a single chunk of the world.">
<polygon fill="#999999" stroke="transparent" points="328,-686 0,-686 0,0 328,0 328,-686"/>
<text text-anchor="start" x="117" y="-674" font-family="Helvetica,sans-Serif" font-size="10.00">Game.World.Chunk</text>
<text text-anchor="start" x="4" y="-659" font-family="Helvetica,sans-Serif" font-size="10.00">+</text>
<text text-anchor="start" x="17" y="-659" font-family="Helvetica,sans-Serif" font-size="10.00">float XOffset</text>
<text text-anchor="start" x="4" y="-644" font-family="Helvetica,sans-Serif" font-size="10.00">+</text>
<text text-anchor="start" x="17" y="-644" font-family="Helvetica,sans-Serif" font-size="10.00">float ZOffset</text>
<text text-anchor="start" x="4" y="-629" font-family="Helvetica,sans-Serif" font-size="10.00">+</text>
<text text-anchor="start" x="17" y="-629" font-family="Helvetica,sans-Serif" font-size="10.00">bool RandomizeOffset</text>
<text text-anchor="start" x="4" y="-614" font-family="Helvetica,sans-Serif" font-size="10.00">+</text>
<text text-anchor="start" x="17" y="-614" font-family="Helvetica,sans-Serif" font-size="10.00">GameObject straightRoadPrefab</text>
<text text-anchor="start" x="4" y="-599" font-family="Helvetica,sans-Serif" font-size="10.00">+</text>
<text text-anchor="start" x="17" y="-599" font-family="Helvetica,sans-Serif" font-size="10.00">GameObject grassPrefab</text>
<text text-anchor="start" x="4" y="-584" font-family="Helvetica,sans-Serif" font-size="10.00">+</text>
<text text-anchor="start" x="17" y="-584" font-family="Helvetica,sans-Serif" font-size="10.00">GameObject coinPrefab</text>
<text text-anchor="start" x="4" y="-569" font-family="Helvetica,sans-Serif" font-size="10.00">+</text>
<text text-anchor="start" x="17" y="-569" font-family="Helvetica,sans-Serif" font-size="10.00">int? zSize</text>
<text text-anchor="start" x="4" y="-554" font-family="Helvetica,sans-Serif" font-size="10.00">+</text>
<text text-anchor="start" x="17" y="-554" font-family="Helvetica,sans-Serif" font-size="10.00">int? xSize</text>
<text text-anchor="start" x="4" y="-539" font-family="Helvetica,sans-Serif" font-size="10.00">+</text>
<text text-anchor="start" x="17" y="-539" font-family="Helvetica,sans-Serif" font-size="10.00">int Row</text>
<text text-anchor="start" x="4" y="-524" font-family="Helvetica,sans-Serif" font-size="10.00">+</text>
<text text-anchor="start" x="17" y="-524" font-family="Helvetica,sans-Serif" font-size="10.00">int Col</text>
<text text-anchor="start" x="4" y="-509" font-family="Helvetica,sans-Serif" font-size="10.00">+</text>
<text text-anchor="start" x="17" y="-509" font-family="Helvetica,sans-Serif" font-size="10.00">bool[,] Roads</text>
<text text-anchor="start" x="4" y="-494" font-family="Helvetica,sans-Serif" font-size="10.00">+</text>
<text text-anchor="start" x="17" y="-494" font-family="Helvetica,sans-Serif" font-size="10.00">List&lt; EdgeRoadContainer &gt; EdgeRoads</text>
<text text-anchor="start" x="6.5" y="-479" font-family="Helvetica,sans-Serif" font-size="10.00">&#45;</text>
<text text-anchor="start" x="17" y="-479" font-family="Helvetica,sans-Serif" font-size="10.00">GameObject curvedRoadPrefab</text>
<text text-anchor="start" x="6.5" y="-464" font-family="Helvetica,sans-Serif" font-size="10.00">&#45;</text>
<text text-anchor="start" x="17" y="-464" font-family="Helvetica,sans-Serif" font-size="10.00">GameObject threeWayRoadPrefab</text>
<text text-anchor="start" x="6.5" y="-449" font-family="Helvetica,sans-Serif" font-size="10.00">&#45;</text>
<text text-anchor="start" x="17" y="-449" font-family="Helvetica,sans-Serif" font-size="10.00">GameObject crossRoadsPrefab</text>
<text text-anchor="start" x="6.5" y="-434" font-family="Helvetica,sans-Serif" font-size="10.00">&#45;</text>
<text text-anchor="start" x="17" y="-434" font-family="Helvetica,sans-Serif" font-size="10.00">List&lt; Building &gt; buildings</text>
<text text-anchor="start" x="6.5" y="-419" font-family="Helvetica,sans-Serif" font-size="10.00">&#45;</text>
<text text-anchor="start" x="17" y="-419" font-family="Helvetica,sans-Serif" font-size="10.00">List&lt; Prop &gt; props</text>
<text text-anchor="start" x="6.5" y="-404" font-family="Helvetica,sans-Serif" font-size="10.00">&#45;</text>
<text text-anchor="start" x="17" y="-404" font-family="Helvetica,sans-Serif" font-size="10.00">Dictionary&lt; ChunkCellType, List&lt; Vector3 &gt; &gt; chunkCells</text>
<text text-anchor="start" x="6.5" y="-389" font-family="Helvetica,sans-Serif" font-size="10.00">&#45;</text>
<text text-anchor="start" x="17" y="-389" font-family="Helvetica,sans-Serif" font-size="10.00">RoadGenerator roadGenerator</text>
<text text-anchor="start" x="6.5" y="-374" font-family="Helvetica,sans-Serif" font-size="10.00">&#45;</text>
<text text-anchor="start" x="17" y="-374" font-family="Helvetica,sans-Serif" font-size="10.00">GameWorld world</text>
<text text-anchor="start" x="6.5" y="-359" font-family="Helvetica,sans-Serif" font-size="10.00">&#45;</text>
<text text-anchor="start" x="17" y="-359" font-family="Helvetica,sans-Serif" font-size="10.00">List&lt; Vector3Int &gt; roads</text>
<text text-anchor="start" x="6.5" y="-344" font-family="Helvetica,sans-Serif" font-size="10.00">&#45;</text>
<text text-anchor="start" x="17" y="-344" font-family="Helvetica,sans-Serif" font-size="10.00">Dictionary&lt; ChunkCellType, List&lt; GameObject &gt; &gt;</text>
<text text-anchor="start" x="17" y="-333" font-family="Helvetica,sans-Serif" font-size="10.00"> objectsToCombine</text>
<text text-anchor="start" x="6.5" y="-318" font-family="Helvetica,sans-Serif" font-size="10.00">&#45;</text>
<text text-anchor="start" x="17" y="-318" font-family="Helvetica,sans-Serif" font-size="10.00">BuildingCell[,] buildingCells</text>
<text text-anchor="start" x="6.5" y="-303" font-family="Helvetica,sans-Serif" font-size="10.00">&#45;</text>
<text text-anchor="start" x="17" y="-303" font-family="Helvetica,sans-Serif" font-size="10.00">float</text>
<text text-anchor="start" x="4" y="-288" font-family="Helvetica,sans-Serif" font-size="10.00">+</text>
<text text-anchor="start" x="17" y="-288" font-family="Helvetica,sans-Serif" font-size="10.00">void Display()</text>
<text text-anchor="start" x="4" y="-273" font-family="Helvetica,sans-Serif" font-size="10.00">+</text>
<text text-anchor="start" x="17" y="-273" font-family="Helvetica,sans-Serif" font-size="10.00">async Task InitChunk(int col, int row, List&lt; EdgeRoadContainer</text>
<text text-anchor="start" x="17" y="-262" font-family="Helvetica,sans-Serif" font-size="10.00"> &gt; edgeRoads, GameWorld world)</text>
<text text-anchor="start" x="4" y="-247" font-family="Helvetica,sans-Serif" font-size="10.00">+</text>
<text text-anchor="start" x="17" y="-247" font-family="Helvetica,sans-Serif" font-size="10.00">void HideChunk()</text>
<text text-anchor="start" x="4" y="-232" font-family="Helvetica,sans-Serif" font-size="10.00">+</text>
<text text-anchor="start" x="17" y="-232" font-family="Helvetica,sans-Serif" font-size="10.00">Vector3 GetARandomRoad()</text>
<text text-anchor="start" x="4" y="-217" font-family="Helvetica,sans-Serif" font-size="10.00">+</text>
<text text-anchor="start" x="17" y="-217" font-family="Helvetica,sans-Serif" font-size="10.00">async Task SpawnWorldObjects()</text>
<text text-anchor="start" x="4" y="-202" font-family="Helvetica,sans-Serif" font-size="10.00">+</text>
<text text-anchor="start" x="17" y="-202" font-family="Helvetica,sans-Serif" font-size="10.00">static void InitUniTaskLoop()</text>
<text text-anchor="start" x="6.5" y="-187" font-family="Helvetica,sans-Serif" font-size="10.00">&#45;</text>
<text text-anchor="start" x="17" y="-187" font-family="Helvetica,sans-Serif" font-size="10.00">async void Awake()</text>
<text text-anchor="start" x="6.5" y="-172" font-family="Helvetica,sans-Serif" font-size="10.00">&#45;</text>
<text text-anchor="start" x="17" y="-172" font-family="Helvetica,sans-Serif" font-size="10.00">void BuildingLoaded(GameObject building)</text>
<text text-anchor="start" x="6.5" y="-157" font-family="Helvetica,sans-Serif" font-size="10.00">&#45;</text>
<text text-anchor="start" x="17" y="-157" font-family="Helvetica,sans-Serif" font-size="10.00">void PropLoaded(GameObject prop)</text>
<text text-anchor="start" x="6.5" y="-142" font-family="Helvetica,sans-Serif" font-size="10.00">&#45;</text>
<text text-anchor="start" x="17" y="-142" font-family="Helvetica,sans-Serif" font-size="10.00">float GetAbsolutePosition()</text>
<text text-anchor="start" x="6.5" y="-127" font-family="Helvetica,sans-Serif" font-size="10.00">&#45;</text>
<text text-anchor="start" x="17" y="-127" font-family="Helvetica,sans-Serif" font-size="10.00">void LoadFromSettings()</text>
<text text-anchor="start" x="6.5" y="-112" font-family="Helvetica,sans-Serif" font-size="10.00">&#45;</text>
<text text-anchor="start" x="17" y="-112" font-family="Helvetica,sans-Serif" font-size="10.00">void CreateTiles()</text>
<text text-anchor="start" x="6.5" y="-97" font-family="Helvetica,sans-Serif" font-size="10.00">&#45;</text>
<text text-anchor="start" x="17" y="-97" font-family="Helvetica,sans-Serif" font-size="10.00">ChunkCellContainer DetermineRoadType(int col, int row)</text>
<text text-anchor="start" x="6.5" y="-82" font-family="Helvetica,sans-Serif" font-size="10.00">&#45;</text>
<text text-anchor="start" x="17" y="-82" font-family="Helvetica,sans-Serif" font-size="10.00">ChunkCellContainer DetermineTileType(int x, int z)</text>
<text text-anchor="start" x="6.5" y="-67" font-family="Helvetica,sans-Serif" font-size="10.00">&#45;</text>
<text text-anchor="start" x="17" y="-67" font-family="Helvetica,sans-Serif" font-size="10.00">void GenerateCellMatrix()</text>
<text text-anchor="start" x="6.5" y="-52" font-family="Helvetica,sans-Serif" font-size="10.00">&#45;</text>
<text text-anchor="start" x="17" y="-52" font-family="Helvetica,sans-Serif" font-size="10.00">IEnumerator AddRoadBuildings()</text>
<text text-anchor="start" x="6.5" y="-37" font-family="Helvetica,sans-Serif" font-size="10.00">&#45;</text>
<text text-anchor="start" x="17" y="-37" font-family="Helvetica,sans-Serif" font-size="10.00">IEnumerator AddEnvironmentProps()</text>
<text text-anchor="start" x="6.5" y="-22" font-family="Helvetica,sans-Serif" font-size="10.00">&#45;</text>
<text text-anchor="start" x="17" y="-22" font-family="Helvetica,sans-Serif" font-size="10.00">void LockAndTryToPlaceBuilding(int index, int row, int col)</text>
<text text-anchor="start" x="6.5" y="-7" font-family="Helvetica,sans-Serif" font-size="10.00">&#45;</text>
<text text-anchor="start" x="17" y="-7" font-family="Helvetica,sans-Serif" font-size="10.00">async Task&lt; Chunk[,]&gt; GetNearbyChunks(int row, int col)</text>
<polygon fill="#666666" stroke="#666666" points="0,-669 0,-669 328,-669 328,-669 0,-669"/>
<polygon fill="#666666" stroke="#666666" points="0,-298 0,-298 15,-298 15,-298 0,-298"/>
<polygon fill="#666666" stroke="#666666" points="15,-298 15,-298 328,-298 328,-298 15,-298"/>
<polygon fill="none" stroke="#666666" points="0,0 0,-686 328,-686 328,0 0,0"/>
</a>
</g>
</g>
<!-- Node2 -->
<g id="Node000002" class="node">
<title>Node2</title>
<g id="a_Node000002"><a xlink:href="classUtility_1_1ThreadSafeMonoBehaviour.html" target="_top" xlink:title="Safely stores if the gameobject been destroyed in a bool.">
<polygon fill="white" stroke="transparent" points="235.5,-771 92.5,-771 92.5,-722 235.5,-722 235.5,-771"/>
<text text-anchor="start" x="98" y="-758.5" font-family="Helvetica,sans-Serif" font-size="10.00">ThreadSafeMonoBehaviour</text>
<text text-anchor="start" x="106.5" y="-743.5" font-family="Helvetica,sans-Serif" font-size="10.00">+</text>
<text text-anchor="start" x="129" y="-743.5" font-family="Helvetica,sans-Serif" font-size="10.00">bool Destroyed</text>
<text text-anchor="start" x="106.5" y="-728.5" font-family="Helvetica,sans-Serif" font-size="10.00">#</text>
<text text-anchor="start" x="129" y="-728.5" font-family="Helvetica,sans-Serif" font-size="10.00">void OnDestroy()</text>
<polygon fill="#666666" stroke="#666666" points="93,-753.5 93,-753.5 236,-753.5 236,-753.5 93,-753.5"/>
<polygon fill="#666666" stroke="#666666" points="93,-738.5 93,-738.5 127,-738.5 127,-738.5 93,-738.5"/>
<polygon fill="#666666" stroke="#666666" points="127,-738.5 127,-738.5 236,-738.5 236,-738.5 127,-738.5"/>
<polygon fill="none" stroke="#666666" points="92.5,-722 92.5,-771 235.5,-771 235.5,-722 92.5,-722"/>
</a>
</g>
</g>
<!-- Node2&#45;&gt;Node1 -->
<g id="edge1_Node000001_Node000002" class="edge">
<title>Node2&#45;&gt;Node1</title>
<g id="a_edge1_Node000001_Node000002"><a xlink:title=" ">
<path fill="none" stroke="#63b8ff" d="M164,-711.65C164,-704.14 164,-695.58 164,-686.18"/>
<polygon fill="none" stroke="#63b8ff" points="160.5,-711.88 164,-721.88 167.5,-711.88 160.5,-711.88"/>
</a>
</g>
</g>
<!-- Node3 -->
<g id="Node000003" class="node">
<title>Node3</title>
<g id="a_Node000003"><a xlink:title=" ">
<polygon fill="white" stroke="transparent" points="207.5,-856 120.5,-856 120.5,-807 207.5,-807 207.5,-856"/>
<text text-anchor="start" x="126" y="-843.5" font-family="Helvetica,sans-Serif" font-size="10.00">MonoBehaviour</text>
<text text-anchor="start" x="162.5" y="-828.5" font-family="Helvetica,sans-Serif" font-size="10.00"> </text>
<text text-anchor="start" x="162.5" y="-813.5" font-family="Helvetica,sans-Serif" font-size="10.00"> </text>
<polygon fill="#666666" stroke="#666666" points="121,-838.5 121,-838.5 208,-838.5 208,-838.5 121,-838.5"/>
<polygon fill="#666666" stroke="#666666" points="121,-823.5 121,-823.5 208,-823.5 208,-823.5 121,-823.5"/>
<polygon fill="none" stroke="#666666" points="120.5,-807 120.5,-856 207.5,-856 207.5,-807 120.5,-807"/>
</a>
</g>
</g>
<!-- Node3&#45;&gt;Node2 -->
<g id="edge2_Node000002_Node000003" class="edge">
<title>Node3&#45;&gt;Node2</title>
<g id="a_edge2_Node000002_Node000003"><a xlink:title=" ">
<path fill="none" stroke="#63b8ff" d="M164,-796.77C164,-788.17 164,-779.1 164,-771.12"/>
<polygon fill="none" stroke="#63b8ff" points="160.5,-796.94 164,-806.94 167.5,-796.94 160.5,-796.94"/>
</a>
</g>
</g>
</g>
</svg>
