<?xml version="1.0" encoding="UTF-8" standalone="no"?>
<!DOCTYPE svg PUBLIC "-//W3C//DTD SVG 1.1//EN"
 "http://www.w3.org/Graphics/SVG/1.1/DTD/svg11.dtd">
<!-- Generated by graphviz version 2.43.0 (0)
 -->
<!-- Title: Game.World.GameWorld.CreateNewGame Pages: 1 -->
<svg width="638pt" height="28pt"
 viewBox="0.00 0.00 638.00 28.00" xmlns="http://www.w3.org/2000/svg" xmlns:xlink="http://www.w3.org/1999/xlink">
<g id="graph0" class="graph" transform="scale(1 1) rotate(0) translate(4 24)">
<title>Game.World.GameWorld.CreateNewGame</title>
<polygon fill="white" stroke="transparent" points="-4,4 -4,-24 634,-24 634,4 -4,4"/>
<!-- Node1 -->
<g id="node1" class="node">
<title>Node1</title>
<g id="a_node1"><a xlink:title="Creates a new game and create the chunks">
<polygon fill="#bfbfbf" stroke="black" points="407,-0.5 407,-19.5 630,-19.5 630,-0.5 407,-0.5"/>
<text text-anchor="middle" x="518.5" y="-7.5" font-family="Helvetica,sans-Serif" font-size="10.00">Game.World.GameWorld.CreateNewGame</text>
</a>
</g>
</g>
<!-- Node2 -->
<g id="node2" class="node">
<title>Node2</title>
<g id="a_node2"><a xlink:href="classGame_1_1GameController.html#af5c50c52cffcab3018ca54be6a421d7f" target="_top" xlink:title="Create a new game">
<polygon fill="white" stroke="black" points="192,-0.5 192,-19.5 371,-19.5 371,-0.5 192,-0.5"/>
<text text-anchor="middle" x="281.5" y="-7.5" font-family="Helvetica,sans-Serif" font-size="10.00">Game.GameController.NewGame</text>
</a>
</g>
</g>
<!-- Node1&#45;&gt;Node2 -->
<g id="edge1" class="edge">
<title>Node1&#45;&gt;Node2</title>
<path fill="none" stroke="midnightblue" d="M396.72,-10C388.07,-10 379.44,-10 371.03,-10"/>
<polygon fill="midnightblue" stroke="midnightblue" points="396.88,-13.5 406.88,-10 396.88,-6.5 396.88,-13.5"/>
</g>
<!-- Node3 -->
<g id="node3" class="node">
<title>Node3</title>
<g id="a_node3"><a xlink:href="classGame_1_1UI_1_1GameUI.html#ad581ee67e01ac3bcdec06cf2538f06e4" target="_top" xlink:title="Start a new game">
<polygon fill="white" stroke="black" points="0,-0.5 0,-19.5 156,-19.5 156,-0.5 0,-0.5"/>
<text text-anchor="middle" x="78" y="-7.5" font-family="Helvetica,sans-Serif" font-size="10.00">Game.UI.GameUI.NewGame</text>
</a>
</g>
</g>
<!-- Node2&#45;&gt;Node3 -->
<g id="edge2" class="edge">
<title>Node2&#45;&gt;Node3</title>
<path fill="none" stroke="midnightblue" d="M181.72,-10C173.09,-10 164.44,-10 156.03,-10"/>
<polygon fill="midnightblue" stroke="midnightblue" points="181.83,-13.5 191.83,-10 181.83,-6.5 181.83,-13.5"/>
</g>
</g>
</svg>
