<?xml version="1.0" encoding="UTF-8" standalone="no"?>
<!DOCTYPE svg PUBLIC "-//W3C//DTD SVG 1.1//EN"
 "http://www.w3.org/Graphics/SVG/1.1/DTD/svg11.dtd">
<!-- Generated by graphviz version 2.43.0 (0)
 -->
<!-- Title: Game.UI.LeaderboardWindow Pages: 1 -->
<svg width="332pt" height="504pt"
 viewBox="0.00 0.00 332.00 504.00" xmlns="http://www.w3.org/2000/svg" xmlns:xlink="http://www.w3.org/1999/xlink">
<g id="graph0" class="graph" transform="scale(1 1) rotate(0) translate(4 500)">
<title>Game.UI.LeaderboardWindow</title>
<polygon fill="white" stroke="transparent" points="-4,4 -4,-500 328,-500 328,4 -4,4"/>
<!-- Node1 -->
<g id="node1" class="node">
<title>Node1</title>
<g id="a_node1"><a xlink:title="Handles the leaderboard display window">
<polygon fill="#bfbfbf" stroke="black" points="0,-0.5 0,-134.5 205,-134.5 205,-0.5 0,-0.5"/>
<text text-anchor="middle" x="102.5" y="-122.5" font-family="Helvetica,sans-Serif" font-size="10.00">Game.UI.LeaderboardWindow</text>
<polyline fill="none" stroke="black" points="0,-115.5 205,-115.5 "/>
<text text-anchor="start" x="8" y="-103.5" font-family="Helvetica,sans-Serif" font-size="10.00">&#45; GameObject scoreParent</text>
<text text-anchor="start" x="8" y="-92.5" font-family="Helvetica,sans-Serif" font-size="10.00">&#45; TMP_Dropdown filterTypeDropdown</text>
<text text-anchor="start" x="8" y="-81.5" font-family="Helvetica,sans-Serif" font-size="10.00">&#45; GameObject LeaderboardItemPrefab</text>
<polyline fill="none" stroke="black" points="0,-74.5 205,-74.5 "/>
<text text-anchor="start" x="8" y="-62.5" font-family="Helvetica,sans-Serif" font-size="10.00">+ void Show()</text>
<text text-anchor="start" x="8" y="-51.5" font-family="Helvetica,sans-Serif" font-size="10.00">+ void Hide()</text>
<text text-anchor="start" x="8" y="-40.5" font-family="Helvetica,sans-Serif" font-size="10.00">+ void LoadScores()</text>
<text text-anchor="start" x="8" y="-29.5" font-family="Helvetica,sans-Serif" font-size="10.00">&#45; void ShowRequestFail(string content)</text>
<text text-anchor="start" x="8" y="-18.5" font-family="Helvetica,sans-Serif" font-size="10.00">&#45; void LoadedScores(List&lt; GameScore</text>
<text text-anchor="start" x="8" y="-7.5" font-family="Helvetica,sans-Serif" font-size="10.00"> &gt; gameScores)</text>
</a>
</g>
</g>
<!-- Node2 -->
<g id="node2" class="node">
<title>Node2</title>
<g id="a_node2"><a xlink:href="classUtility_1_1ThreadSafeMonoBehaviour.html" target="_top" xlink:title="Safely stores if the gameobject been destroyed in a bool">
<polygon fill="white" stroke="black" points="24,-343.5 24,-400.5 173,-400.5 173,-343.5 24,-343.5"/>
<text text-anchor="middle" x="98.5" y="-388.5" font-family="Helvetica,sans-Serif" font-size="10.00">ThreadSafeMonoBehaviour</text>
<polyline fill="none" stroke="black" points="24,-381.5 173,-381.5 "/>
<text text-anchor="start" x="32" y="-369.5" font-family="Helvetica,sans-Serif" font-size="10.00">+ bool Destroyed</text>
<polyline fill="none" stroke="black" points="24,-362.5 173,-362.5 "/>
<text text-anchor="start" x="32" y="-350.5" font-family="Helvetica,sans-Serif" font-size="10.00"># void OnDestroy()</text>
</a>
</g>
</g>
<!-- Node2&#45;&gt;Node1 -->
<g id="edge1" class="edge">
<title>Node2&#45;&gt;Node1</title>
<path fill="none" stroke="midnightblue" d="M99,-333.05C99.66,-283.33 100.82,-195.33 101.63,-134.56"/>
<polygon fill="none" stroke="midnightblue" points="95.5,-333.31 98.87,-343.35 102.5,-333.4 95.5,-333.31"/>
</g>
<!-- Node4 -->
<g id="node4" class="node">
<title>Node4</title>
<g id="a_node4"><a xlink:href="classUtility_1_1ModalWindow.html" target="_top" xlink:title="Modal window for alerting the user">
<polygon fill="white" stroke="black" points="115,-182.5 115,-305.5 324,-305.5 324,-182.5 115,-182.5"/>
<text text-anchor="middle" x="219.5" y="-293.5" font-family="Helvetica,sans-Serif" font-size="10.00">Utility.ModalWindow</text>
<polyline fill="none" stroke="black" points="115,-286.5 324,-286.5 "/>
<text text-anchor="start" x="123" y="-274.5" font-family="Helvetica,sans-Serif" font-size="10.00">&#45; TMP_Text ModalTitleText</text>
<text text-anchor="start" x="123" y="-263.5" font-family="Helvetica,sans-Serif" font-size="10.00">&#45; TMP_Text ModalContentText</text>
<text text-anchor="start" x="123" y="-252.5" font-family="Helvetica,sans-Serif" font-size="10.00">&#45; Action onOkAction</text>
<polyline fill="none" stroke="black" points="115,-245.5 324,-245.5 "/>
<text text-anchor="start" x="123" y="-233.5" font-family="Helvetica,sans-Serif" font-size="10.00">+ void Show()</text>
<text text-anchor="start" x="123" y="-222.5" font-family="Helvetica,sans-Serif" font-size="10.00">+ void Show(string title, string content,</text>
<text text-anchor="start" x="123" y="-211.5" font-family="Helvetica,sans-Serif" font-size="10.00"> Action onOkAction=null)</text>
<text text-anchor="start" x="123" y="-200.5" font-family="Helvetica,sans-Serif" font-size="10.00">+ void Hide()</text>
<text text-anchor="start" x="123" y="-189.5" font-family="Helvetica,sans-Serif" font-size="10.00">+ void ConfirmButtonClick()</text>
</a>
</g>
</g>
<!-- Node2&#45;&gt;Node4 -->
<g id="edge4" class="edge">
<title>Node2&#45;&gt;Node4</title>
<path fill="none" stroke="midnightblue" d="M132.09,-336.02C141.17,-326.57 151.26,-316.06 161.26,-305.65"/>
<polygon fill="none" stroke="midnightblue" points="129.46,-333.71 125.05,-343.35 134.5,-338.56 129.46,-333.71"/>
</g>
<!-- Node3 -->
<g id="node3" class="node">
<title>Node3</title>
<g id="a_node3"><a xlink:title=" ">
<polygon fill="white" stroke="#bfbfbf" points="52,-438.5 52,-495.5 145,-495.5 145,-438.5 52,-438.5"/>
<text text-anchor="middle" x="98.5" y="-483.5" font-family="Helvetica,sans-Serif" font-size="10.00">MonoBehaviour</text>
<polyline fill="none" stroke="#bfbfbf" points="52,-476.5 145,-476.5 "/>
<text text-anchor="middle" x="98.5" y="-464.5" font-family="Helvetica,sans-Serif" font-size="10.00"> </text>
<polyline fill="none" stroke="#bfbfbf" points="52,-457.5 145,-457.5 "/>
<text text-anchor="middle" x="98.5" y="-445.5" font-family="Helvetica,sans-Serif" font-size="10.00"> </text>
</a>
</g>
</g>
<!-- Node3&#45;&gt;Node2 -->
<g id="edge2" class="edge">
<title>Node3&#45;&gt;Node2</title>
<path fill="none" stroke="midnightblue" d="M98.5,-428.24C98.5,-419.03 98.5,-409.35 98.5,-400.71"/>
<polygon fill="none" stroke="midnightblue" points="95,-428.35 98.5,-438.35 102,-428.35 95,-428.35"/>
</g>
<!-- Node4&#45;&gt;Node1 -->
<g id="edge3" class="edge">
<title>Node4&#45;&gt;Node1</title>
<path fill="none" stroke="#404040" d="M178.91,-182.46C170.73,-170.26 162.04,-157.3 153.56,-144.65"/>
<polygon fill="none" stroke="#404040" points="153.5,-144.56 146.83,-141.81 146.82,-134.59 153.48,-137.35 153.5,-144.56"/>
<text text-anchor="middle" x="202.5" y="-156" font-family="Helvetica,sans-Serif" font-size="10.00"> &#45;ModalWindow</text>
</g>
</g>
</svg>
