<?xml version="1.0" encoding="UTF-8" standalone="no"?>
<!DOCTYPE svg PUBLIC "-//W3C//DTD SVG 1.1//EN"
 "http://www.w3.org/Graphics/SVG/1.1/DTD/svg11.dtd">
<!-- Generated by graphviz version 2.43.0 (0)
 -->
<!-- Title: Utility.CoroutineRunner Pages: 1 -->
<svg width="292pt" height="172pt"
 viewBox="0.00 0.00 292.00 172.00" xmlns="http://www.w3.org/2000/svg" xmlns:xlink="http://www.w3.org/1999/xlink">
<g id="graph0" class="graph" transform="scale(1 1) rotate(0) translate(4 168)">
<title>Utility.CoroutineRunner</title>
<!-- Node1 -->
<g id="Node000001" class="node">
<title>Node1</title>
<g id="a_Node000001"><a xlink:title="Singleton class to run the coroutines so they are easier to track.">
<polygon fill="#999999" stroke="transparent" points="284,-79 0,-79 0,0 284,0 284,-79"/>
<text text-anchor="start" x="85" y="-66.5" font-family="Helvetica,sans-Serif" font-size="10.00">Utility.CoroutineRunner</text>
<text text-anchor="start" x="4" y="-51.5" font-family="Helvetica,sans-Serif" font-size="10.00">+</text>
<text text-anchor="start" x="17" y="-51.5" font-family="Helvetica,sans-Serif" font-size="10.00">static CoroutineRunner Instance</text>
<text text-anchor="start" x="6.5" y="-36.5" font-family="Helvetica,sans-Serif" font-size="10.00">&#45;</text>
<text text-anchor="start" x="17" y="-36.5" font-family="Helvetica,sans-Serif" font-size="10.00">static CoroutineRunner _instance</text>
<text text-anchor="start" x="4" y="-21.5" font-family="Helvetica,sans-Serif" font-size="10.00">+</text>
<text text-anchor="start" x="17" y="-21.5" font-family="Helvetica,sans-Serif" font-size="10.00">static Coroutine RunCoroutine(IEnumerator coroutine)</text>
<text text-anchor="start" x="4" y="-6.5" font-family="Helvetica,sans-Serif" font-size="10.00">+</text>
<text text-anchor="start" x="17" y="-6.5" font-family="Helvetica,sans-Serif" font-size="10.00">static void StopAllCoroutinesGlobal()</text>
<polygon fill="#666666" stroke="#666666" points="0,-61.5 0,-61.5 284,-61.5 284,-61.5 0,-61.5"/>
<polygon fill="#666666" stroke="#666666" points="0,-31.5 0,-31.5 15,-31.5 15,-31.5 0,-31.5"/>
<polygon fill="#666666" stroke="#666666" points="15,-31.5 15,-31.5 284,-31.5 284,-31.5 15,-31.5"/>
<polygon fill="none" stroke="#666666" points="0,0 0,-79 284,-79 284,0 0,0"/>
</a>
</g>
</g>
<!-- Node2 -->
<g id="Node000002" class="node">
<title>Node2</title>
<g id="a_Node000002"><a xlink:title=" ">
<polygon fill="white" stroke="transparent" points="185.5,-164 98.5,-164 98.5,-115 185.5,-115 185.5,-164"/>
<text text-anchor="start" x="104" y="-151.5" font-family="Helvetica,sans-Serif" font-size="10.00">MonoBehaviour</text>
<text text-anchor="start" x="140.5" y="-136.5" font-family="Helvetica,sans-Serif" font-size="10.00"> </text>
<text text-anchor="start" x="140.5" y="-121.5" font-family="Helvetica,sans-Serif" font-size="10.00"> </text>
<polygon fill="#666666" stroke="#666666" points="99,-146.5 99,-146.5 186,-146.5 186,-146.5 99,-146.5"/>
<polygon fill="#666666" stroke="#666666" points="99,-131.5 99,-131.5 186,-131.5 186,-131.5 99,-131.5"/>
<polygon fill="none" stroke="#666666" points="98.5,-115 98.5,-164 185.5,-164 185.5,-115 98.5,-115"/>
</a>
</g>
</g>
<!-- Node2&#45;&gt;Node1 -->
<g id="edge1_Node000001_Node000002" class="edge">
<title>Node2&#45;&gt;Node1</title>
<g id="a_edge1_Node000001_Node000002"><a xlink:title=" ">
<path fill="none" stroke="#63b8ff" d="M142,-104.52C142,-96.38 142,-87.63 142,-79.29"/>
<polygon fill="none" stroke="#63b8ff" points="138.5,-104.78 142,-114.78 145.5,-104.78 138.5,-104.78"/>
</a>
</g>
</g>
</g>
</svg>
