<?xml version="1.0" encoding="UTF-8" standalone="no"?>
<!DOCTYPE svg PUBLIC "-//W3C//DTD SVG 1.1//EN"
 "http://www.w3.org/Graphics/SVG/1.1/DTD/svg11.dtd">
<!-- Generated by graphviz version 2.43.0 (0)
 -->
<!-- Title: MainPage.MainWindowController.CreateTask Pages: 1 -->
<svg width="2027pt" height="101pt"
 viewBox="0.00 0.00 2027.00 101.00" xmlns="http://www.w3.org/2000/svg" xmlns:xlink="http://www.w3.org/1999/xlink">
<g id="graph0" class="graph" transform="scale(1 1) rotate(0) translate(4 97)">
<title>MainPage.MainWindowController.CreateTask</title>
<!-- Node1 -->
<g id="Node000001" class="node">
<title>Node1</title>
<g id="a_Node000001"><a xlink:title="Creates a new task prefab to display.">
<polygon fill="#999999" stroke="#666666" points="234,-56 0,-56 0,-37 234,-37 234,-56"/>
<text text-anchor="middle" x="117" y="-44" font-family="Helvetica,sans-Serif" font-size="10.00">MainPage.MainWindowController.CreateTask</text>
</a>
</g>
</g>
<!-- Node2 -->
<g id="Node000002" class="node">
<title>Node2</title>
<g id="a_Node000002"><a xlink:href="classMainPage_1_1TaskDisplayHandler.html#a8aedc4afb32d220352cf04cc77fdedf6" target="_top" xlink:title="Init it with the task to display and references to the controls.">
<polygon fill="white" stroke="#666666" points="484,-56 270,-56 270,-37 484,-37 484,-56"/>
<text text-anchor="middle" x="377" y="-44" font-family="Helvetica,sans-Serif" font-size="10.00">MainPage.TaskDisplayHandler.InitValues</text>
</a>
</g>
</g>
<!-- Node1&#45;&gt;Node2 -->
<g id="edge1_Node000001_Node000002" class="edge">
<title>Node1&#45;&gt;Node2</title>
<g id="a_edge1_Node000001_Node000002"><a xlink:title=" ">
<path fill="none" stroke="#63b8ff" d="M234.17,-46.5C242.63,-46.5 251.17,-46.5 259.63,-46.5"/>
<polygon fill="#63b8ff" stroke="#63b8ff" points="259.91,-50 269.91,-46.5 259.91,-43 259.91,-50"/>
</a>
</g>
</g>
<!-- Node3 -->
<g id="Node000003" class="node">
<title>Node3</title>
<g id="a_Node000003"><a xlink:href="classMainPage_1_1TaskDisplayHandler.html#aa49063eb8db092920d512f9869df6e98" target="_top" xlink:title="Calculate if the task can be completed again.">
<polygon fill="white" stroke="#666666" points="807,-93 520,-93 520,-74 807,-74 807,-93"/>
<text text-anchor="middle" x="663.5" y="-81" font-family="Helvetica,sans-Serif" font-size="10.00">MainPage.TaskDisplayHandler.CalculateIfCompleteable</text>
</a>
</g>
</g>
<!-- Node2&#45;&gt;Node3 -->
<g id="edge2_Node000002_Node000003" class="edge">
<title>Node2&#45;&gt;Node3</title>
<g id="a_edge2_Node000002_Node000003"><a xlink:title=" ">
<path fill="none" stroke="#63b8ff" d="M448.41,-56.02C471.24,-59.09 496.69,-62.47 520,-65.5 538.24,-67.87 557.79,-70.37 576.39,-72.73"/>
<polygon fill="#63b8ff" stroke="#63b8ff" points="575.95,-76.2 586.31,-73.98 576.83,-69.25 575.95,-76.2"/>
</a>
</g>
</g>
<!-- Node4 -->
<g id="Node000004" class="node">
<title>Node4</title>
<g id="a_Node000004"><a xlink:href="classMainPage_1_1TaskDisplayHandler.html#a754a230e53cedd3209a29d4d6a743719" target="_top" xlink:title="When the complete state is changed update the display to match it.">
<polygon fill="white" stroke="#666666" points="801,-56 526,-56 526,-37 801,-37 801,-56"/>
<text text-anchor="middle" x="663.5" y="-44" font-family="Helvetica,sans-Serif" font-size="10.00">MainPage.TaskDisplayHandler.CompleteStateChange</text>
</a>
</g>
</g>
<!-- Node2&#45;&gt;Node4 -->
<g id="edge3_Node000002_Node000004" class="edge">
<title>Node2&#45;&gt;Node4</title>
<g id="a_edge3_Node000002_Node000004"><a xlink:title=" ">
<path fill="none" stroke="#63b8ff" d="M484.34,-46.5C494.63,-46.5 505.18,-46.5 515.77,-46.5"/>
<polygon fill="#63b8ff" stroke="#63b8ff" points="515.92,-50 525.92,-46.5 515.92,-43 515.92,-50"/>
</a>
</g>
</g>
<!-- Node12 -->
<g id="Node000012" class="node">
<title>Node12</title>
<g id="a_Node000012"><a xlink:href="classMainPage_1_1TaskDisplayHandler.html#ac3773b76adb09298978a65c89136c20f" target="_top" xlink:title="Update the task&#39;s labels.">
<polygon fill="white" stroke="#666666" points="780,-19 547,-19 547,0 780,0 780,-19"/>
<text text-anchor="middle" x="663.5" y="-7" font-family="Helvetica,sans-Serif" font-size="10.00">MainPage.TaskDisplayHandler.UpdateLabels</text>
</a>
</g>
</g>
<!-- Node2&#45;&gt;Node12 -->
<g id="edge15_Node000002_Node000012" class="edge">
<title>Node2&#45;&gt;Node12</title>
<g id="a_edge15_Node000002_Node000012"><a xlink:title=" ">
<path fill="none" stroke="#63b8ff" d="M451.27,-36.97C490.27,-31.9 538.41,-25.64 578.88,-20.38"/>
<polygon fill="#63b8ff" stroke="#63b8ff" points="579.52,-23.82 588.99,-19.06 578.62,-16.88 579.52,-23.82"/>
</a>
</g>
</g>
<!-- Node5 -->
<g id="Node000005" class="node">
<title>Node5</title>
<g id="a_Node000005"><a xlink:href="classMainPage_1_1MainWindowController.html#a85072f5d92f4145d6213209a13936639" target="_top" xlink:title="Refreshes the tasks with the proper sorting order.">
<polygon fill="white" stroke="#666666" points="1110.5,-74 853.5,-74 853.5,-55 1110.5,-55 1110.5,-74"/>
<text text-anchor="middle" x="982" y="-62" font-family="Helvetica,sans-Serif" font-size="10.00">MainPage.MainWindowController.SortingChanged</text>
</a>
</g>
</g>
<!-- Node4&#45;&gt;Node5 -->
<g id="edge4_Node000004_Node000005" class="edge">
<title>Node4&#45;&gt;Node5</title>
<g id="a_edge4_Node000004_Node000005"><a xlink:title=" ">
<path fill="none" stroke="#63b8ff" d="M801.02,-54.26C815.02,-55.06 829.26,-55.87 843.27,-56.67"/>
<polygon fill="#63b8ff" stroke="#63b8ff" points="843.25,-60.17 853.43,-57.24 843.64,-53.18 843.25,-60.17"/>
</a>
</g>
</g>
<!-- Node11 -->
<g id="Node000011" class="node">
<title>Node11</title>
<g id="a_Node000011"><a xlink:href="classMainPage_1_1TaskDisplayHandler.html#aa63f1bc894519b9d5872c2bb50b84415" target="_top" xlink:title="Update the time remaining until the task can be completed again.">
<polygon fill="white" stroke="#666666" points="1121,-37 843,-37 843,-18 1121,-18 1121,-37"/>
<text text-anchor="middle" x="982" y="-25" font-family="Helvetica,sans-Serif" font-size="10.00">MainPage.TaskDisplayHandler.UpdateTimeRemaining</text>
</a>
</g>
</g>
<!-- Node4&#45;&gt;Node11 -->
<g id="edge13_Node000004_Node000011" class="edge">
<title>Node4&#45;&gt;Node11</title>
<g id="a_edge13_Node000004_Node000011"><a xlink:title=" ">
<path fill="none" stroke="#63b8ff" d="M730.08,-36.97C759.95,-34.33 796.63,-31.74 832.62,-29.67"/>
<polygon fill="#63b8ff" stroke="#63b8ff" points="832.96,-33.16 842.75,-29.1 832.57,-26.17 832.96,-33.16"/>
</a>
</g>
</g>
<!-- Node6 -->
<g id="Node000006" class="node">
<title>Node6</title>
<g id="a_Node000006"><a xlink:href="classMainPage_1_1MainWindowController.html#a241b480aeebdab1bc34320cad8de7712" target="_top" xlink:title="Load the good habits.">
<polygon fill="white" stroke="#666666" points="1412,-92 1158,-92 1158,-73 1412,-73 1412,-92"/>
<text text-anchor="middle" x="1285" y="-80" font-family="Helvetica,sans-Serif" font-size="10.00">MainPage.MainWindowController.LoadBadHabits</text>
</a>
</g>
</g>
<!-- Node5&#45;&gt;Node6 -->
<g id="edge5_Node000005_Node000006" class="edge">
<title>Node5&#45;&gt;Node6</title>
<g id="a_edge5_Node000005_Node000006"><a xlink:title=" ">
<path fill="none" stroke="#63b8ff" d="M1110.65,-72.13C1122.79,-72.86 1135.14,-73.6 1147.36,-74.33"/>
<polygon fill="#63b8ff" stroke="#63b8ff" points="1147.4,-77.84 1157.59,-74.94 1147.82,-70.85 1147.4,-77.84"/>
</a>
</g>
</g>
<!-- Node9 -->
<g id="Node000009" class="node">
<title>Node9</title>
<g id="a_Node000009"><a xlink:href="classMainPage_1_1MainWindowController.html#ab5b80370512cd4273e86927fe696462d" target="_top" xlink:title="Load the good tasks.">
<polygon fill="white" stroke="#666666" points="1413,-55 1157,-55 1157,-36 1413,-36 1413,-55"/>
<text text-anchor="middle" x="1285" y="-43" font-family="Helvetica,sans-Serif" font-size="10.00">MainPage.MainWindowController.LoadGoodTasks</text>
</a>
</g>
</g>
<!-- Node5&#45;&gt;Node9 -->
<g id="edge9_Node000005_Node000009" class="edge">
<title>Node5&#45;&gt;Node9</title>
<g id="a_edge9_Node000005_Node000009"><a xlink:title=" ">
<path fill="none" stroke="#63b8ff" d="M1110.65,-56.44C1122.54,-55.69 1134.63,-54.93 1146.61,-54.17"/>
<polygon fill="#63b8ff" stroke="#63b8ff" points="1146.87,-57.66 1156.63,-53.54 1146.43,-50.68 1146.87,-57.66"/>
</a>
</g>
</g>
<!-- Node7 -->
<g id="Node000007" class="node">
<title>Node7</title>
<g id="a_Node000007"><a xlink:href="classMainPage_1_1TaskOpenPanelController.html#a5513399c20f650915ca10f54805f416e" target="_top" xlink:title="Make this task a bad habit.">
<polygon fill="white" stroke="#666666" points="1719,-92 1450,-92 1450,-73 1719,-73 1719,-92"/>
<text text-anchor="middle" x="1584.5" y="-80" font-family="Helvetica,sans-Serif" font-size="10.00">MainPage.TaskOpenPanelController.MakeItBadHabit</text>
</a>
</g>
</g>
<!-- Node6&#45;&gt;Node7 -->
<g id="edge6_Node000006_Node000007" class="edge">
<title>Node6&#45;&gt;Node7</title>
<g id="a_edge6_Node000006_Node000007"><a xlink:title=" ">
<path fill="none" stroke="#63b8ff" d="M1412.17,-75.82C1421.35,-75.76 1430.66,-75.74 1439.94,-75.75"/>
<polygon fill="#63b8ff" stroke="#63b8ff" points="1439.98,-79.25 1449.99,-75.78 1440,-72.25 1439.98,-79.25"/>
</a>
</g>
</g>
<!-- Node7&#45;&gt;Node6 -->
<g id="edge7_Node000007_Node000006" class="edge">
<title>Node7&#45;&gt;Node6</title>
<g id="a_edge7_Node000007_Node000006"><a xlink:title=" ">
<path fill="none" stroke="#63b8ff" d="M1449.99,-89.22C1440.75,-89.26 1431.43,-89.26 1422.18,-89.23"/>
<polygon fill="#63b8ff" stroke="#63b8ff" points="1422.18,-85.73 1412.17,-89.18 1422.15,-92.73 1422.18,-85.73"/>
</a>
</g>
</g>
<!-- Node8 -->
<g id="Node000008" class="node">
<title>Node8</title>
<g id="a_Node000008"><a xlink:href="classMainPage_1_1TaskOpenPanelController.html#aa0b6757dbad141375c50282278b23b1a" target="_top" xlink:title="Update the buttons with the appropriate color based on the current task.">
<polygon fill="white" stroke="#666666" points="2019,-73 1756,-73 1756,-54 2019,-54 2019,-73"/>
<text text-anchor="middle" x="1887.5" y="-61" font-family="Helvetica,sans-Serif" font-size="10.00">MainPage.TaskOpenPanelController.UpdateButtons</text>
</a>
</g>
</g>
<!-- Node7&#45;&gt;Node8 -->
<g id="edge8_Node000007_Node000008" class="edge">
<title>Node7&#45;&gt;Node8</title>
<g id="a_edge8_Node000007_Node000008"><a xlink:title=" ">
<path fill="none" stroke="#63b8ff" d="M1719.28,-74.06C1727.97,-73.51 1736.73,-72.95 1745.45,-72.4"/>
<polygon fill="#63b8ff" stroke="#63b8ff" points="1745.91,-75.88 1755.67,-71.76 1745.46,-68.9 1745.91,-75.88"/>
</a>
</g>
</g>
<!-- Node10 -->
<g id="Node000010" class="node">
<title>Node10</title>
<g id="a_Node000010"><a xlink:href="classMainPage_1_1TaskOpenPanelController.html#a069a63e2b7e70cc4cb4c7e487b655700" target="_top" xlink:title="Make it a good task.">
<polygon fill="white" stroke="#666666" points="1720,-55 1449,-55 1449,-36 1720,-36 1720,-55"/>
<text text-anchor="middle" x="1584.5" y="-43" font-family="Helvetica,sans-Serif" font-size="10.00">MainPage.TaskOpenPanelController.MakeItGoodTask</text>
</a>
</g>
</g>
<!-- Node9&#45;&gt;Node10 -->
<g id="edge10_Node000009_Node000010" class="edge">
<title>Node9&#45;&gt;Node10</title>
<g id="a_edge10_Node000009_Node000010"><a xlink:title=" ">
<path fill="none" stroke="#63b8ff" d="M1413.03,-38.81C1421.54,-38.76 1430.15,-38.74 1438.75,-38.75"/>
<polygon fill="#63b8ff" stroke="#63b8ff" points="1438.81,-42.25 1448.82,-38.78 1438.83,-35.25 1438.81,-42.25"/>
</a>
</g>
</g>
<!-- Node10&#45;&gt;Node8 -->
<g id="edge12_Node000010_Node000008" class="edge">
<title>Node10&#45;&gt;Node8</title>
<g id="a_edge12_Node000010_Node000008"><a xlink:title=" ">
<path fill="none" stroke="#63b8ff" d="M1720.15,-53.55C1728.7,-54.06 1737.32,-54.58 1745.9,-55.09"/>
<polygon fill="#63b8ff" stroke="#63b8ff" points="1745.75,-58.59 1755.94,-55.69 1746.17,-51.6 1745.75,-58.59"/>
</a>
</g>
</g>
<!-- Node10&#45;&gt;Node9 -->
<g id="edge11_Node000010_Node000009" class="edge">
<title>Node10&#45;&gt;Node9</title>
<g id="a_edge11_Node000010_Node000009"><a xlink:title=" ">
<path fill="none" stroke="#63b8ff" d="M1448.82,-52.22C1440.26,-52.26 1431.63,-52.26 1423.06,-52.23"/>
<polygon fill="#63b8ff" stroke="#63b8ff" points="1423.05,-48.73 1413.03,-52.19 1423.01,-55.73 1423.05,-48.73"/>
</a>
</g>
</g>
<!-- Node11&#45;&gt;Node4 -->
<g id="edge14_Node000011_Node000004" class="edge">
<title>Node11&#45;&gt;Node4</title>
<g id="a_edge14_Node000011_Node000004"><a xlink:title=" ">
<path fill="none" stroke="#63b8ff" d="M915.75,-37C885.38,-39.69 847.94,-42.32 811.32,-44.42"/>
<polygon fill="#63b8ff" stroke="#63b8ff" points="810.81,-40.94 801.02,-45 811.2,-47.93 810.81,-40.94"/>
</a>
</g>
</g>
<!-- Node12&#45;&gt;Node11 -->
<g id="edge16_Node000012_Node000011" class="edge">
<title>Node12&#45;&gt;Node11</title>
<g id="a_edge16_Node000012_Node000011"><a xlink:title=" ">
<path fill="none" stroke="#63b8ff" d="M780.11,-16.07C797.16,-17.04 814.92,-18.05 832.52,-19.06"/>
<polygon fill="#63b8ff" stroke="#63b8ff" points="832.68,-22.57 842.86,-19.64 833.07,-15.58 832.68,-22.57"/>
</a>
</g>
</g>
</g>
</svg>
