<?xml version="1.0" encoding="UTF-8" standalone="no"?>
<!DOCTYPE svg PUBLIC "-//W3C//DTD SVG 1.1//EN"
 "http://www.w3.org/Graphics/SVG/1.1/DTD/svg11.dtd">
<!-- Generated by graphviz version 2.43.0 (0)
 -->
<!-- Title: Game.World.Coin Pages: 1 -->
<svg width="201pt" height="265pt"
 viewBox="0.00 0.00 201.00 265.00" xmlns="http://www.w3.org/2000/svg" xmlns:xlink="http://www.w3.org/1999/xlink">
<g id="graph0" class="graph" transform="scale(1 1) rotate(0) translate(4 261)">
<title>Game.World.Coin</title>
<polygon fill="white" stroke="transparent" points="-4,4 -4,-261 197,-261 197,4 -4,4"/>
<!-- Node1 -->
<g id="node1" class="node">
<title>Node1</title>
<g id="a_node1"><a xlink:title="Coin gameobject">
<polygon fill="#bfbfbf" stroke="black" points="0,-0.5 0,-68.5 193,-68.5 193,-0.5 0,-0.5"/>
<text text-anchor="middle" x="96.5" y="-56.5" font-family="Helvetica,sans-Serif" font-size="10.00">Game.World.Coin</text>
<polyline fill="none" stroke="black" points="0,-49.5 193,-49.5 "/>
<text text-anchor="middle" x="96.5" y="-37.5" font-family="Helvetica,sans-Serif" font-size="10.00"> </text>
<polyline fill="none" stroke="black" points="0,-30.5 193,-30.5 "/>
<text text-anchor="start" x="8" y="-18.5" font-family="Helvetica,sans-Serif" font-size="10.00">&#45; void Update()</text>
<text text-anchor="start" x="8" y="-7.5" font-family="Helvetica,sans-Serif" font-size="10.00">&#45; void OnTriggerEnter(Collider other)</text>
</a>
</g>
</g>
<!-- Node2 -->
<g id="node2" class="node">
<title>Node2</title>
<g id="a_node2"><a xlink:href="classUtility_1_1ThreadSafeMonoBehaviour.html" target="_top" xlink:title="Safely stores if the gameobject been destroyed in a bool">
<polygon fill="white" stroke="black" points="22,-105.5 22,-162.5 171,-162.5 171,-105.5 22,-105.5"/>
<text text-anchor="middle" x="96.5" y="-150.5" font-family="Helvetica,sans-Serif" font-size="10.00">ThreadSafeMonoBehaviour</text>
<polyline fill="none" stroke="black" points="22,-143.5 171,-143.5 "/>
<text text-anchor="start" x="30" y="-131.5" font-family="Helvetica,sans-Serif" font-size="10.00">+ bool Destroyed</text>
<polyline fill="none" stroke="black" points="22,-124.5 171,-124.5 "/>
<text text-anchor="start" x="30" y="-112.5" font-family="Helvetica,sans-Serif" font-size="10.00"># void OnDestroy()</text>
</a>
</g>
</g>
<!-- Node2&#45;&gt;Node1 -->
<g id="edge1" class="edge">
<title>Node2&#45;&gt;Node1</title>
<path fill="none" stroke="midnightblue" d="M96.5,-95.06C96.5,-86.39 96.5,-77.24 96.5,-68.79"/>
<polygon fill="none" stroke="midnightblue" points="93,-95.32 96.5,-105.32 100,-95.32 93,-95.32"/>
</g>
<!-- Node3 -->
<g id="node3" class="node">
<title>Node3</title>
<g id="a_node3"><a xlink:title=" ">
<polygon fill="white" stroke="#bfbfbf" points="50,-199.5 50,-256.5 143,-256.5 143,-199.5 50,-199.5"/>
<text text-anchor="middle" x="96.5" y="-244.5" font-family="Helvetica,sans-Serif" font-size="10.00">MonoBehaviour</text>
<polyline fill="none" stroke="#bfbfbf" points="50,-237.5 143,-237.5 "/>
<text text-anchor="middle" x="96.5" y="-225.5" font-family="Helvetica,sans-Serif" font-size="10.00"> </text>
<polyline fill="none" stroke="#bfbfbf" points="50,-218.5 143,-218.5 "/>
<text text-anchor="middle" x="96.5" y="-206.5" font-family="Helvetica,sans-Serif" font-size="10.00"> </text>
</a>
</g>
</g>
<!-- Node3&#45;&gt;Node2 -->
<g id="edge2" class="edge">
<title>Node3&#45;&gt;Node2</title>
<path fill="none" stroke="midnightblue" d="M96.5,-189.21C96.5,-180.29 96.5,-170.95 96.5,-162.58"/>
<polygon fill="none" stroke="midnightblue" points="93,-189.4 96.5,-199.4 100,-189.4 93,-189.4"/>
</g>
</g>
</svg>
