<?xml version="1.0" encoding="UTF-8" standalone="no"?>
<!DOCTYPE svg PUBLIC "-//W3C//DTD SVG 1.1//EN"
 "http://www.w3.org/Graphics/SVG/1.1/DTD/svg11.dtd">
<!-- Generated by graphviz version 2.43.0 (0)
 -->
<!-- Title: Game.UI.ShopItem Pages: 1 -->
<svg width="317pt" height="373pt"
 viewBox="0.00 0.00 317.00 373.00" xmlns="http://www.w3.org/2000/svg" xmlns:xlink="http://www.w3.org/1999/xlink">

<svg id="main" version="1.1" xmlns="http://www.w3.org/2000/svg" xmlns:xlink="http://www.w3.org/1999/xlink" xml:space="preserve" onload="init(evt)">
<style type="text/css"><![CDATA[
.node, .edge {opacity: 0.7;}
.node.selected, .edge.selected {opacity: 1;}
.edge:hover path { stroke: red; }
.edge:hover polygon { stroke: red; fill: red; }
]]></style>
<script type="application/ecmascript" xlink:href="svg.min.js"/>
<svg id="graph" class="graph">
<g id="graph0" class="graph" transform="scale(1 1) rotate(0) translate(4 369)">
<title>Game.UI.ShopItem</title>
<!-- Node1 -->
<g id="Node000001" class="node">
<title>Node1</title>
<g id="a_Node000001"><a xlink:title="A single shop item.">
<polygon fill="#999999" stroke="transparent" points="309,-195 0,-195 0,0 309,0 309,-195"/>
<text text-anchor="start" x="108.5" y="-182.5" font-family="Helvetica,sans-Serif" font-size="10.00">Game.UI.ShopItem</text>
<text text-anchor="start" x="4.5" y="-167.5" font-family="Helvetica,sans-Serif" font-size="10.00">+</text>
<text text-anchor="start" x="17.5" y="-167.5" font-family="Helvetica,sans-Serif" font-size="10.00">long Id</text>
<text text-anchor="start" x="4.5" y="-152.5" font-family="Helvetica,sans-Serif" font-size="10.00">+</text>
<text text-anchor="start" x="17.5" y="-152.5" font-family="Helvetica,sans-Serif" font-size="10.00">bool Owned</text>
<text text-anchor="start" x="7" y="-137.5" font-family="Helvetica,sans-Serif" font-size="10.00">&#45;</text>
<text text-anchor="start" x="17.5" y="-137.5" font-family="Helvetica,sans-Serif" font-size="10.00">TMP_Text ProductName</text>
<text text-anchor="start" x="7" y="-122.5" font-family="Helvetica,sans-Serif" font-size="10.00">&#45;</text>
<text text-anchor="start" x="17.5" y="-122.5" font-family="Helvetica,sans-Serif" font-size="10.00">Image ProductImage</text>
<text text-anchor="start" x="7" y="-107.5" font-family="Helvetica,sans-Serif" font-size="10.00">&#45;</text>
<text text-anchor="start" x="17.5" y="-107.5" font-family="Helvetica,sans-Serif" font-size="10.00">TMP_Text Price</text>
<text text-anchor="start" x="7" y="-92.5" font-family="Helvetica,sans-Serif" font-size="10.00">&#45;</text>
<text text-anchor="start" x="17.5" y="-92.5" font-family="Helvetica,sans-Serif" font-size="10.00">Button BuyButton</text>
<text text-anchor="start" x="7" y="-77.5" font-family="Helvetica,sans-Serif" font-size="10.00">&#45;</text>
<text text-anchor="start" x="17.5" y="-77.5" font-family="Helvetica,sans-Serif" font-size="10.00">ShopWindow shopWindow</text>
<text text-anchor="start" x="4.5" y="-62.5" font-family="Helvetica,sans-Serif" font-size="10.00">+</text>
<text text-anchor="start" x="17.5" y="-62.5" font-family="Helvetica,sans-Serif" font-size="10.00">void Init(ShopWindow parentWindow, Shop item, Sprite</text>
<text text-anchor="start" x="17.5" y="-51.5" font-family="Helvetica,sans-Serif" font-size="10.00"> image, bool owned)</text>
<text text-anchor="start" x="4.5" y="-36.5" font-family="Helvetica,sans-Serif" font-size="10.00">+</text>
<text text-anchor="start" x="17.5" y="-36.5" font-family="Helvetica,sans-Serif" font-size="10.00">void Buy()</text>
<text text-anchor="start" x="4.5" y="-21.5" font-family="Helvetica,sans-Serif" font-size="10.00">+</text>
<text text-anchor="start" x="17.5" y="-21.5" font-family="Helvetica,sans-Serif" font-size="10.00">string GetDisplayedPrice()</text>
<text text-anchor="start" x="7" y="-6.5" font-family="Helvetica,sans-Serif" font-size="10.00">&#45;</text>
<text text-anchor="start" x="17.5" y="-6.5" font-family="Helvetica,sans-Serif" font-size="10.00">void Bought(Thesis_backend.Data_Structures.Game game)</text>
<polygon fill="#666666" stroke="#666666" points="0.5,-177.5 0.5,-177.5 309.5,-177.5 309.5,-177.5 0.5,-177.5"/>
<polygon fill="#666666" stroke="#666666" points="0.5,-72.5 0.5,-72.5 15.5,-72.5 15.5,-72.5 0.5,-72.5"/>
<polygon fill="#666666" stroke="#666666" points="15.5,-72.5 15.5,-72.5 309.5,-72.5 309.5,-72.5 15.5,-72.5"/>
<polygon fill="none" stroke="#666666" points="0,0 0,-195 309,-195 309,0 0,0"/>
</a>
</g>
</g>
<!-- Node2 -->
<g id="Node000002" class="node">
<title>Node2</title>
<g id="a_Node000002"><a xlink:href="classUtility_1_1ThreadSafeMonoBehaviour.html" target="_top" xlink:title="Safely stores if the gameobject been destroyed in a bool.">
<polygon fill="white" stroke="transparent" points="226,-280 83,-280 83,-231 226,-231 226,-280"/>
<text text-anchor="start" x="88.5" y="-267.5" font-family="Helvetica,sans-Serif" font-size="10.00">ThreadSafeMonoBehaviour</text>
<text text-anchor="start" x="97" y="-252.5" font-family="Helvetica,sans-Serif" font-size="10.00">+</text>
<text text-anchor="start" x="119.5" y="-252.5" font-family="Helvetica,sans-Serif" font-size="10.00">bool Destroyed</text>
<text text-anchor="start" x="97" y="-237.5" font-family="Helvetica,sans-Serif" font-size="10.00">#</text>
<text text-anchor="start" x="119.5" y="-237.5" font-family="Helvetica,sans-Serif" font-size="10.00">void OnDestroy()</text>
<polygon fill="#666666" stroke="#666666" points="83.5,-262.5 83.5,-262.5 226.5,-262.5 226.5,-262.5 83.5,-262.5"/>
<polygon fill="#666666" stroke="#666666" points="83.5,-247.5 83.5,-247.5 117.5,-247.5 117.5,-247.5 83.5,-247.5"/>
<polygon fill="#666666" stroke="#666666" points="117.5,-247.5 117.5,-247.5 226.5,-247.5 226.5,-247.5 117.5,-247.5"/>
<polygon fill="none" stroke="#666666" points="83,-231 83,-280 226,-280 226,-231 83,-231"/>
</a>
</g>
</g>
<!-- Node2&#45;&gt;Node1 -->
<g id="edge1_Node000001_Node000002" class="edge">
<title>Node2&#45;&gt;Node1</title>
<g id="a_edge1_Node000001_Node000002"><a xlink:title=" ">
<path fill="none" stroke="#63b8ff" d="M154.5,-220.73C154.5,-212.89 154.5,-204.17 154.5,-195.1"/>
<polygon fill="none" stroke="#63b8ff" points="151,-220.81 154.5,-230.81 158,-220.81 151,-220.81"/>
</a>
</g>
</g>
<!-- Node3 -->
<g id="Node000003" class="node">
<title>Node3</title>
<g id="a_Node000003"><a xlink:title=" ">
<polygon fill="white" stroke="transparent" points="198,-365 111,-365 111,-316 198,-316 198,-365"/>
<text text-anchor="start" x="116.5" y="-352.5" font-family="Helvetica,sans-Serif" font-size="10.00">MonoBehaviour</text>
<text text-anchor="start" x="153" y="-337.5" font-family="Helvetica,sans-Serif" font-size="10.00"> </text>
<text text-anchor="start" x="153" y="-322.5" font-family="Helvetica,sans-Serif" font-size="10.00"> </text>
<polygon fill="#666666" stroke="#666666" points="111.5,-347.5 111.5,-347.5 198.5,-347.5 198.5,-347.5 111.5,-347.5"/>
<polygon fill="#666666" stroke="#666666" points="111.5,-332.5 111.5,-332.5 198.5,-332.5 198.5,-332.5 111.5,-332.5"/>
<polygon fill="none" stroke="#666666" points="111,-316 111,-365 198,-365 198,-316 111,-316"/>
</a>
</g>
</g>
<!-- Node3&#45;&gt;Node2 -->
<g id="edge2_Node000002_Node000003" class="edge">
<title>Node3&#45;&gt;Node2</title>
<g id="a_edge2_Node000002_Node000003"><a xlink:title=" ">
<path fill="none" stroke="#63b8ff" d="M154.5,-305.77C154.5,-297.17 154.5,-288.1 154.5,-280.12"/>
<polygon fill="none" stroke="#63b8ff" points="151,-305.94 154.5,-315.94 158,-305.94 151,-305.94"/>
</a>
</g>
</g>
</g>
</svg>
</svg>

<style type='text/css'>
<![CDATA[
[data-mouse-over-selected='false'] { opacity: 0.7; }
[data-mouse-over-selected='true']  { opacity: 1.0; }
]]>
</style>
<script type="application/ecmascript"><![CDATA[
document.addEventListener('DOMContentLoaded', (event) => {
  highlightEdges();
  highlightAdjacentNodes();
});
]]></script>
</svg>
