<?xml version="1.0" encoding="UTF-8" standalone="no"?>
<!DOCTYPE svg PUBLIC "-//W3C//DTD SVG 1.1//EN"
 "http://www.w3.org/Graphics/SVG/1.1/DTD/svg11.dtd">
<!-- Generated by graphviz version 2.43.0 (0)
 -->
<!-- Title: User.UserController.Registered Pages: 1 -->
<svg width="421pt" height="104pt"
 viewBox="0.00 0.00 421.00 104.00" xmlns="http://www.w3.org/2000/svg" xmlns:xlink="http://www.w3.org/1999/xlink">
<g id="graph0" class="graph" transform="scale(1 1) rotate(0) translate(4 100)">
<title>User.UserController.Registered</title>
<polygon fill="white" stroke="transparent" points="-4,4 -4,-100 417,-100 417,4 -4,4"/>
<!-- Node1 -->
<g id="node1" class="node">
<title>Node1</title>
<g id="a_node1"><a xlink:title="When the register request was responded successfully register the user and log him in">
<polygon fill="#bfbfbf" stroke="black" points="0,-38.5 0,-57.5 167,-57.5 167,-38.5 0,-38.5"/>
<text text-anchor="middle" x="83.5" y="-45.5" font-family="Helvetica,sans-Serif" font-size="10.00">User.UserController.Registered</text>
</a>
</g>
</g>
<!-- Node2 -->
<g id="node2" class="node">
<title>Node2</title>
<g id="a_node2"><a xlink:href="classUser_1_1UserData.html#abb372911b5e49023a977bd064f46bb6e" target="_top" xlink:title="Initialises the user instance with proper data">
<polygon fill="white" stroke="black" points="255,-76.5 255,-95.5 361,-95.5 361,-76.5 255,-76.5"/>
<text text-anchor="middle" x="308" y="-83.5" font-family="Helvetica,sans-Serif" font-size="10.00">User.UserData.Init</text>
</a>
</g>
</g>
<!-- Node1&#45;&gt;Node2 -->
<g id="edge1" class="edge">
<title>Node1&#45;&gt;Node2</title>
<path fill="none" stroke="midnightblue" d="M140.36,-57.54C172.21,-62.98 212.19,-69.81 245,-75.41"/>
<polygon fill="midnightblue" stroke="midnightblue" points="244.49,-78.88 254.94,-77.11 245.67,-71.98 244.49,-78.88"/>
</g>
<!-- Node3 -->
<g id="node3" class="node">
<title>Node3</title>
<g id="a_node3"><a xlink:href="classUser_1_1UserController.html#a3ba5f73e6358fff37d2ec5e255659756" target="_top" xlink:title="Move from the user creation and login scene">
<polygon fill="white" stroke="black" points="203,-38.5 203,-57.5 413,-57.5 413,-38.5 203,-38.5"/>
<text text-anchor="middle" x="308" y="-45.5" font-family="Helvetica,sans-Serif" font-size="10.00">User.UserController.MoveToMainScence</text>
</a>
</g>
</g>
<!-- Node1&#45;&gt;Node3 -->
<g id="edge2" class="edge">
<title>Node1&#45;&gt;Node3</title>
<path fill="none" stroke="midnightblue" d="M167.03,-48C175.39,-48 183.98,-48 192.59,-48"/>
<polygon fill="midnightblue" stroke="midnightblue" points="192.7,-51.5 202.7,-48 192.7,-44.5 192.7,-51.5"/>
</g>
<!-- Node4 -->
<g id="node4" class="node">
<title>Node4</title>
<g id="a_node4"><a xlink:href="classUtility_1_1CoroutineRunner.html#a1c473dee723f16d86bab9d8475c8214a" target="_top" xlink:title="A helper method to start coroutines">
<polygon fill="white" stroke="black" points="209,-0.5 209,-19.5 407,-19.5 407,-0.5 209,-0.5"/>
<text text-anchor="middle" x="308" y="-7.5" font-family="Helvetica,sans-Serif" font-size="10.00">Utility.CoroutineRunner.RunCoroutine</text>
</a>
</g>
</g>
<!-- Node1&#45;&gt;Node4 -->
<g id="edge3" class="edge">
<title>Node1&#45;&gt;Node4</title>
<path fill="none" stroke="midnightblue" d="M140.36,-38.46C170.91,-33.24 208.94,-26.75 240.95,-21.28"/>
<polygon fill="midnightblue" stroke="midnightblue" points="241.85,-24.68 251.12,-19.54 240.67,-17.78 241.85,-24.68"/>
</g>
</g>
</svg>
