<?xml version="1.0" encoding="UTF-8" standalone="no"?>
<!DOCTYPE svg PUBLIC "-//W3C//DTD SVG 1.1//EN"
 "http://www.w3.org/Graphics/SVG/1.1/DTD/svg11.dtd">
<!-- Generated by graphviz version 2.43.0 (0)
 -->
<!-- Title: User.UserController.SendRegister Pages: 1 -->
<svg width="609pt" height="140pt"
 viewBox="0.00 0.00 609.00 140.00" xmlns="http://www.w3.org/2000/svg" xmlns:xlink="http://www.w3.org/1999/xlink">
<g id="graph0" class="graph" transform="scale(1 1) rotate(0) translate(4 136)">
<title>User.UserController.SendRegister</title>
<!-- Node1 -->
<g id="Node000001" class="node">
<title>Node1</title>
<g id="a_Node000001"><a xlink:title="Send a register request with the register panel&#39;s fields.">
<polygon fill="#999999" stroke="#666666" points="179,-76 0,-76 0,-57 179,-57 179,-76"/>
<text text-anchor="middle" x="89.5" y="-64" font-family="Helvetica,sans-Serif" font-size="10.00">User.UserController.SendRegister</text>
</a>
</g>
</g>
<!-- Node2 -->
<g id="Node000002" class="node">
<title>Node2</title>
<g id="a_Node000002"><a xlink:href="classUser_1_1UserController.html#a17e85e80e7b55a5c9c0b01bc0ed5735e" target="_top" xlink:title="Check if the email is valid.">
<polygon fill="white" stroke="#666666" points="404,-132 230,-132 230,-113 404,-113 404,-132"/>
<text text-anchor="middle" x="317" y="-120" font-family="Helvetica,sans-Serif" font-size="10.00">User.UserController.IsValidEmail</text>
</a>
</g>
</g>
<!-- Node1&#45;&gt;Node2 -->
<g id="edge1_Node000001_Node000002" class="edge">
<title>Node1&#45;&gt;Node2</title>
<g id="a_edge1_Node000001_Node000002"><a xlink:title=" ">
<path fill="none" stroke="#63b8ff" d="M118.42,-76.07C143.48,-84.41 181.38,-96.41 215,-104.5 224.91,-106.89 235.43,-109.1 245.8,-111.11"/>
<polygon fill="#63b8ff" stroke="#63b8ff" points="245.2,-114.56 255.67,-112.97 246.49,-107.68 245.2,-114.56"/>
</a>
</g>
</g>
<!-- Node3 -->
<g id="Node000003" class="node">
<title>Node3</title>
<g id="a_Node000003"><a xlink:href="classUtility_1_1CoroutineRunner.html#a1c473dee723f16d86bab9d8475c8214a" target="_top" xlink:title="A helper method to start coroutines.">
<polygon fill="white" stroke="#666666" points="416,-95 218,-95 218,-76 416,-76 416,-95"/>
<text text-anchor="middle" x="317" y="-83" font-family="Helvetica,sans-Serif" font-size="10.00">Utility.CoroutineRunner.RunCoroutine</text>
</a>
</g>
</g>
<!-- Node1&#45;&gt;Node3 -->
<g id="edge2_Node000001_Node000003" class="edge">
<title>Node1&#45;&gt;Node3</title>
<g id="a_edge2_Node000001_Node000003"><a xlink:title=" ">
<path fill="none" stroke="#63b8ff" d="M179.3,-73.98C188.72,-74.78 198.38,-75.59 207.99,-76.4"/>
<polygon fill="#63b8ff" stroke="#63b8ff" points="207.71,-79.89 217.97,-77.24 208.3,-72.91 207.71,-79.89"/>
</a>
</g>
</g>
<!-- Node4 -->
<g id="Node000004" class="node">
<title>Node4</title>
<g id="a_Node000004"><a xlink:href="classUtility_1_1ModalWindow.html#adcef8cae2dffe4247c905d042ff0a8e3" target="_top" xlink:title="Show the modal window.">
<polygon fill="white" stroke="#666666" points="601,-38 455,-38 455,-19 601,-19 601,-38"/>
<text text-anchor="middle" x="528" y="-26" font-family="Helvetica,sans-Serif" font-size="10.00">Utility.ModalWindow.Show</text>
</a>
</g>
</g>
<!-- Node1&#45;&gt;Node4 -->
<g id="edge3_Node000001_Node000004" class="edge">
<title>Node1&#45;&gt;Node4</title>
<g id="a_edge3_Node000001_Node000004"><a xlink:title=" ">
<path fill="none" stroke="#63b8ff" d="M179.1,-58.79C256.84,-52.02 369.02,-42.25 444.8,-35.66"/>
<polygon fill="#63b8ff" stroke="#63b8ff" points="445.12,-39.14 454.78,-34.79 444.51,-32.17 445.12,-39.14"/>
</a>
</g>
</g>
<!-- Node5 -->
<g id="Node000005" class="node">
<title>Node5</title>
<g id="a_Node000005"><a xlink:href="classUser_1_1UserController.html#a07a456882c4f5619e468f30cc0cdf76c" target="_top" xlink:title="Show the register error on the modal window.">
<polygon fill="white" stroke="#666666" points="419,-19 215,-19 215,0 419,0 419,-19"/>
<text text-anchor="middle" x="317" y="-7" font-family="Helvetica,sans-Serif" font-size="10.00">User.UserController.ShowRegisterError</text>
</a>
</g>
</g>
<!-- Node1&#45;&gt;Node5 -->
<g id="edge4_Node000001_Node000005" class="edge">
<title>Node1&#45;&gt;Node5</title>
<g id="a_edge4_Node000001_Node000005"><a xlink:title=" ">
<path fill="none" stroke="#63b8ff" d="M125.59,-56.94C150.5,-50.22 184.75,-41.1 215,-33.5 231.06,-29.46 248.6,-25.23 264.49,-21.47"/>
<polygon fill="#63b8ff" stroke="#63b8ff" points="265.73,-24.77 274.66,-19.07 264.13,-17.96 265.73,-24.77"/>
</a>
</g>
</g>
<!-- Node5&#45;&gt;Node4 -->
<g id="edge5_Node000005_Node000004" class="edge">
<title>Node5&#45;&gt;Node4</title>
<g id="a_edge5_Node000005_Node000004"><a xlink:title=" ">
<path fill="none" stroke="#63b8ff" d="M419.13,-18.69C427.73,-19.48 436.35,-20.26 444.77,-21.02"/>
<polygon fill="#63b8ff" stroke="#63b8ff" points="444.65,-24.53 454.93,-21.95 445.28,-17.56 444.65,-24.53"/>
</a>
</g>
</g>
</g>
</svg>
