<?xml version="1.0" encoding="UTF-8" standalone="no"?>
<!DOCTYPE svg PUBLIC "-//W3C//DTD SVG 1.1//EN"
 "http://www.w3.org/Graphics/SVG/1.1/DTD/svg11.dtd">
<!-- Generated by graphviz version 2.43.0 (0)
 -->
<!-- Title: Game.World.RoadGenerator.RoadGenerator Pages: 1 -->
<svg width="763pt" height="82pt"
 viewBox="0.00 0.00 763.00 82.00" xmlns="http://www.w3.org/2000/svg" xmlns:xlink="http://www.w3.org/1999/xlink">
<g id="graph0" class="graph" transform="scale(1 1) rotate(0) translate(4 78)">
<title>Game.World.RoadGenerator.RoadGenerator</title>
<!-- Node1 -->
<g id="Node000001" class="node">
<title>Node1</title>
<g id="a_Node000001"><a xlink:title="Creates the road matrix.">
<polygon fill="#999999" stroke="#666666" points="229,-37 0,-37 0,-18 229,-18 229,-37"/>
<text text-anchor="middle" x="114.5" y="-25" font-family="Helvetica,sans-Serif" font-size="10.00">Game.World.RoadGenerator.RoadGenerator</text>
</a>
</g>
</g>
<!-- Node2 -->
<g id="Node000002" class="node">
<title>Node2</title>
<g id="a_Node000002"><a xlink:href="classGame_1_1World_1_1RoadGenerator.html#ab3b7fa7ff101a87611b4be39e1777d51" target="_top" xlink:title="Creates the roads recursively.">
<polygon fill="white" stroke="#666666" points="477,-37 265,-37 265,-18 477,-18 477,-37"/>
<text text-anchor="middle" x="371" y="-25" font-family="Helvetica,sans-Serif" font-size="10.00">Game.World.RoadGenerator.CreateRoad</text>
</a>
</g>
</g>
<!-- Node1&#45;&gt;Node2 -->
<g id="edge1_Node000001_Node000002" class="edge">
<title>Node1&#45;&gt;Node2</title>
<g id="a_edge1_Node000001_Node000002"><a xlink:title=" ">
<path fill="none" stroke="#63b8ff" d="M229.35,-27.5C237.73,-27.5 246.18,-27.5 254.56,-27.5"/>
<polygon fill="#63b8ff" stroke="#63b8ff" points="254.74,-31 264.74,-27.5 254.74,-24 254.74,-31"/>
</a>
</g>
</g>
<!-- Node2&#45;&gt;Node2 -->
<g id="edge4_Node000002_Node000002" class="edge">
<title>Node2&#45;&gt;Node2</title>
<g id="a_edge4_Node000002_Node000002"><a xlink:title=" ">
<path fill="none" stroke="#63b8ff" d="M331.54,-37.08C312.35,-45.73 325.5,-55 371,-55 405.84,-55 421.71,-49.57 418.62,-43.14"/>
<polygon fill="#63b8ff" stroke="#63b8ff" points="420.57,-40.23 410.46,-37.08 416.4,-45.85 420.57,-40.23"/>
</a>
</g>
</g>
<!-- Node3 -->
<g id="Node000003" class="node">
<title>Node3</title>
<g id="a_Node000003"><a xlink:href="classGame_1_1World_1_1RoadGenerator.html#aff41fff01a6f7955370796e82d542b5c" target="_top" xlink:title="Checks if the road moving in that direction will run into an another road.">
<polygon fill="white" stroke="#666666" points="746,-56 522,-56 522,-37 746,-37 746,-56"/>
<text text-anchor="middle" x="634" y="-44" font-family="Helvetica,sans-Serif" font-size="10.00">Game.World.RoadGenerator.CheckForward</text>
</a>
</g>
</g>
<!-- Node2&#45;&gt;Node3 -->
<g id="edge2_Node000002_Node000003" class="edge">
<title>Node2&#45;&gt;Node3</title>
<g id="a_edge2_Node000002_Node000003"><a xlink:title=" ">
<path fill="none" stroke="#63b8ff" d="M477.03,-35.15C488.42,-35.98 500.09,-36.82 511.66,-37.67"/>
<polygon fill="#63b8ff" stroke="#63b8ff" points="511.56,-41.17 521.79,-38.4 512.07,-34.19 511.56,-41.17"/>
</a>
</g>
</g>
<!-- Node4 -->
<g id="Node000004" class="node">
<title>Node4</title>
<g id="a_Node000004"><a xlink:href="classGame_1_1World_1_1RoadGenerator.html#a1d562d3e89d833e15f2b2ce3eba249ac" target="_top" xlink:title="Check if the road is going towards the edge.">
<polygon fill="white" stroke="#666666" points="755,-19 513,-19 513,0 755,0 755,-19"/>
<text text-anchor="middle" x="634" y="-7" font-family="Helvetica,sans-Serif" font-size="10.00">Game.World.RoadGenerator.GoinTowardsEdge</text>
</a>
</g>
</g>
<!-- Node2&#45;&gt;Node4 -->
<g id="edge5_Node000002_Node000004" class="edge">
<title>Node2&#45;&gt;Node4</title>
<g id="a_edge5_Node000002_Node000004"><a xlink:title=" ">
<path fill="none" stroke="#63b8ff" d="M477.03,-20.26C485.48,-19.67 494.08,-19.08 502.68,-18.49"/>
<polygon fill="#63b8ff" stroke="#63b8ff" points="503.02,-21.97 512.76,-17.79 502.54,-14.99 503.02,-21.97"/>
</a>
</g>
</g>
<!-- Node3&#45;&gt;Node3 -->
<g id="edge3_Node000003_Node000003" class="edge">
<title>Node3&#45;&gt;Node3</title>
<g id="a_edge3_Node000003_Node000003"><a xlink:title=" ">
<path fill="none" stroke="#63b8ff" d="M593.62,-56.08C573.97,-64.73 587.43,-74 634,-74 669.65,-74 685.9,-68.57 682.74,-62.14"/>
<polygon fill="#63b8ff" stroke="#63b8ff" points="684.53,-59.12 674.38,-56.08 680.43,-64.79 684.53,-59.12"/>
</a>
</g>
</g>
</g>
</svg>
