<?xml version="1.0" encoding="UTF-8" standalone="no"?>
<!DOCTYPE svg PUBLIC "-//W3C//DTD SVG 1.1//EN"
 "http://www.w3.org/Graphics/SVG/1.1/DTD/svg11.dtd">
<!-- Generated by graphviz version 2.43.0 (0)
 -->
<!-- Title: MainPage.FriendWindowHandler.SendFriendRequest Pages: 1 -->
<svg width="803pt" height="101pt"
 viewBox="0.00 0.00 803.00 101.00" xmlns="http://www.w3.org/2000/svg" xmlns:xlink="http://www.w3.org/1999/xlink">
<g id="graph0" class="graph" transform="scale(1 1) rotate(0) translate(4 97)">
<title>MainPage.FriendWindowHandler.SendFriendRequest</title>
<!-- Node1 -->
<g id="Node000001" class="node">
<title>Node1</title>
<g id="a_Node000001"><a xlink:title="Sends a friend request to the user which was specified in the useridentification input.">
<polygon fill="#999999" stroke="#666666" points="270,-56 0,-56 0,-37 270,-37 270,-56"/>
<text text-anchor="middle" x="135" y="-44" font-family="Helvetica,sans-Serif" font-size="10.00">MainPage.FriendWindowHandler.SendFriendRequest</text>
</a>
</g>
</g>
<!-- Node2 -->
<g id="Node000002" class="node">
<title>Node2</title>
<g id="a_Node000002"><a xlink:href="classUtility_1_1CoroutineRunner.html#a1c473dee723f16d86bab9d8475c8214a" target="_top" xlink:title="A helper method to start coroutines.">
<polygon fill="white" stroke="#666666" points="539,-93 341,-93 341,-74 539,-74 539,-93"/>
<text text-anchor="middle" x="440" y="-81" font-family="Helvetica,sans-Serif" font-size="10.00">Utility.CoroutineRunner.RunCoroutine</text>
</a>
</g>
</g>
<!-- Node1&#45;&gt;Node2 -->
<g id="edge1_Node000001_Node000002" class="edge">
<title>Node1&#45;&gt;Node2</title>
<g id="a_edge1_Node000001_Node000002"><a xlink:title=" ">
<path fill="none" stroke="#63b8ff" d="M214.03,-56.03C255.92,-61.14 307.69,-67.47 351.01,-72.76"/>
<polygon fill="#63b8ff" stroke="#63b8ff" points="350.62,-76.23 360.97,-73.97 351.47,-69.29 350.62,-76.23"/>
</a>
</g>
</g>
<!-- Node3 -->
<g id="Node000003" class="node">
<title>Node3</title>
<g id="a_Node000003"><a xlink:href="classMainPage_1_1FriendWindowHandler.html#a61d9cd37518259d360474dd5fe55ae24" target="_top" xlink:title="After the friend request was sent load the friend prefab if it can show pending.">
<polygon fill="white" stroke="#666666" points="574,-56 306,-56 306,-37 574,-37 574,-56"/>
<text text-anchor="middle" x="440" y="-44" font-family="Helvetica,sans-Serif" font-size="10.00">MainPage.FriendWindowHandler.SentFriendRequest</text>
</a>
</g>
</g>
<!-- Node1&#45;&gt;Node3 -->
<g id="edge2_Node000001_Node000003" class="edge">
<title>Node1&#45;&gt;Node3</title>
<g id="a_edge2_Node000001_Node000003"><a xlink:title=" ">
<path fill="none" stroke="#63b8ff" d="M270.22,-46.5C278.76,-46.5 287.36,-46.5 295.93,-46.5"/>
<polygon fill="#63b8ff" stroke="#63b8ff" points="295.97,-50 305.97,-46.5 295.97,-43 295.97,-50"/>
</a>
</g>
</g>
<!-- Node5 -->
<g id="Node000005" class="node">
<title>Node5</title>
<g id="a_Node000005"><a xlink:href="classMainPage_1_1FriendWindowHandler.html#a426fe4fa5825088784861d79cf48048d" target="_top" xlink:title="Show api request failure.">
<polygon fill="white" stroke="#666666" points="569.5,-19 310.5,-19 310.5,0 569.5,0 569.5,-19"/>
<text text-anchor="middle" x="440" y="-7" font-family="Helvetica,sans-Serif" font-size="10.00">MainPage.FriendWindowHandler.ShowRequestFail</text>
</a>
</g>
</g>
<!-- Node1&#45;&gt;Node5 -->
<g id="edge4_Node000001_Node000005" class="edge">
<title>Node1&#45;&gt;Node5</title>
<g id="a_edge4_Node000001_Node000005"><a xlink:title=" ">
<path fill="none" stroke="#63b8ff" d="M214.03,-36.97C255.92,-31.86 307.69,-25.53 351.01,-20.24"/>
<polygon fill="#63b8ff" stroke="#63b8ff" points="351.47,-23.71 360.97,-19.03 350.62,-16.77 351.47,-23.71"/>
</a>
</g>
</g>
<!-- Node4 -->
<g id="Node000004" class="node">
<title>Node4</title>
<g id="a_Node000004"><a xlink:href="classMainPage_1_1FriendHandler.html#ab894b96203019d08e341bbb6090af8b8" target="_top" xlink:title="Inititializes a new display with the given friend to display.">
<polygon fill="white" stroke="#666666" points="795,-56 610,-56 610,-37 795,-37 795,-56"/>
<text text-anchor="middle" x="702.5" y="-44" font-family="Helvetica,sans-Serif" font-size="10.00">MainPage.FriendHandler.InitValues</text>
</a>
</g>
</g>
<!-- Node3&#45;&gt;Node4 -->
<g id="edge3_Node000003_Node000004" class="edge">
<title>Node3&#45;&gt;Node4</title>
<g id="a_edge3_Node000003_Node000004"><a xlink:title=" ">
<path fill="none" stroke="#63b8ff" d="M574.3,-46.5C582.85,-46.5 591.37,-46.5 599.73,-46.5"/>
<polygon fill="#63b8ff" stroke="#63b8ff" points="599.84,-50 609.84,-46.5 599.84,-43 599.84,-50"/>
</a>
</g>
</g>
<!-- Node6 -->
<g id="Node000006" class="node">
<title>Node6</title>
<g id="a_Node000006"><a xlink:href="classUtility_1_1ModalWindow.html#adcef8cae2dffe4247c905d042ff0a8e3" target="_top" xlink:title="Show the modal window.">
<polygon fill="white" stroke="#666666" points="775.5,-19 629.5,-19 629.5,0 775.5,0 775.5,-19"/>
<text text-anchor="middle" x="702.5" y="-7" font-family="Helvetica,sans-Serif" font-size="10.00">Utility.ModalWindow.Show</text>
</a>
</g>
</g>
<!-- Node5&#45;&gt;Node6 -->
<g id="edge5_Node000005_Node000006" class="edge">
<title>Node5&#45;&gt;Node6</title>
<g id="a_edge5_Node000005_Node000006"><a xlink:title=" ">
<path fill="none" stroke="#63b8ff" d="M569.72,-9.5C586.55,-9.5 603.41,-9.5 619.17,-9.5"/>
<polygon fill="#63b8ff" stroke="#63b8ff" points="619.37,-13 629.37,-9.5 619.37,-6 619.37,-13"/>
</a>
</g>
</g>
</g>
</svg>
