<?xml version="1.0" encoding="UTF-8" standalone="no"?>
<!DOCTYPE svg PUBLIC "-//W3C//DTD SVG 1.1//EN"
 "http://www.w3.org/Graphics/SVG/1.1/DTD/svg11.dtd">
<!-- Generated by graphviz version 2.43.0 (0)
 -->
<!-- Title: Game.World.CarSpawner.Update Pages: 1 -->
<svg width="661pt" height="66pt"
 viewBox="0.00 0.00 661.00 66.00" xmlns="http://www.w3.org/2000/svg" xmlns:xlink="http://www.w3.org/1999/xlink">
<g id="graph0" class="graph" transform="scale(1 1) rotate(0) translate(4 62)">
<title>Game.World.CarSpawner.Update</title>
<polygon fill="white" stroke="transparent" points="-4,4 -4,-62 657,-62 657,4 -4,4"/>
<!-- Node1 -->
<g id="node1" class="node">
<title>Node1</title>
<g id="a_node1"><a xlink:title="Called every frame and increase the timers and spawn if they reached the threshold">
<polygon fill="#bfbfbf" stroke="black" points="0,-19.5 0,-38.5 176,-38.5 176,-19.5 0,-19.5"/>
<text text-anchor="middle" x="88" y="-26.5" font-family="Helvetica,sans-Serif" font-size="10.00">Game.World.CarSpawner.Update</text>
</a>
</g>
</g>
<!-- Node2 -->
<g id="node2" class="node">
<title>Node2</title>
<g id="a_node2"><a xlink:href="classGame_1_1World_1_1CarSpawner.html#a68b1710c3c5c6ab1ea0d64b13da93e49" target="_top" xlink:title="Spawn the given cop car">
<polygon fill="white" stroke="black" points="212,-19.5 212,-38.5 414,-38.5 414,-19.5 212,-19.5"/>
<text text-anchor="middle" x="313" y="-26.5" font-family="Helvetica,sans-Serif" font-size="10.00">Game.World.CarSpawner.SpawnPolice</text>
</a>
</g>
</g>
<!-- Node1&#45;&gt;Node2 -->
<g id="edge1" class="edge">
<title>Node1&#45;&gt;Node2</title>
<path fill="none" stroke="midnightblue" d="M176.18,-29C184.6,-29 193.23,-29 201.84,-29"/>
<polygon fill="midnightblue" stroke="midnightblue" points="201.94,-32.5 211.94,-29 201.94,-25.5 201.94,-32.5"/>
</g>
<!-- Node3 -->
<g id="node3" class="node">
<title>Node3</title>
<g id="a_node3"><a xlink:href="classGame_1_1World_1_1Chunk.html#aa082f46d92a6ade2f934fc8f2ff3093e" target="_top" xlink:title="Gets a random road&#39;s position">
<polygon fill="white" stroke="black" points="450,-38.5 450,-57.5 653,-57.5 653,-38.5 450,-38.5"/>
<text text-anchor="middle" x="551.5" y="-45.5" font-family="Helvetica,sans-Serif" font-size="10.00">Game.World.Chunk.GetARandomRoad</text>
</a>
</g>
</g>
<!-- Node2&#45;&gt;Node3 -->
<g id="edge2" class="edge">
<title>Node2&#45;&gt;Node3</title>
<path fill="none" stroke="midnightblue" d="M414.3,-37.06C422.62,-37.73 431.07,-38.4 439.46,-39.08"/>
<polygon fill="midnightblue" stroke="midnightblue" points="439.42,-42.59 449.67,-39.9 439.98,-35.61 439.42,-42.59"/>
</g>
<!-- Node4 -->
<g id="node4" class="node">
<title>Node4</title>
<g id="a_node4"><a xlink:href="classGame_1_1Car.html#a73919d2b4768ace830efe5e84cb3e0d5" target="_top" xlink:title=" ">
<polygon fill="white" stroke="black" points="510,-0.5 510,-19.5 593,-19.5 593,-0.5 510,-0.5"/>
<text text-anchor="middle" x="551.5" y="-7.5" font-family="Helvetica,sans-Serif" font-size="10.00">Game.Car.Init</text>
</a>
</g>
</g>
<!-- Node2&#45;&gt;Node4 -->
<g id="edge3" class="edge">
<title>Node2&#45;&gt;Node4</title>
<path fill="none" stroke="midnightblue" d="M414.3,-20.94C443.71,-18.58 474.64,-16.09 499.58,-14.09"/>
<polygon fill="midnightblue" stroke="midnightblue" points="500.19,-17.55 509.88,-13.26 499.63,-10.58 500.19,-17.55"/>
</g>
</g>
</svg>
