<?xml version="1.0" encoding="UTF-8" standalone="no"?>
<!DOCTYPE svg PUBLIC "-//W3C//DTD SVG 1.1//EN"
 "http://www.w3.org/Graphics/SVG/1.1/DTD/svg11.dtd">
<!-- Generated by graphviz version 2.43.0 (0)
 -->
<!-- Title: MainPage.TaskOpenPanelController.MakeItBadHabit Pages: 1 -->
<svg width="576pt" height="64pt"
 viewBox="0.00 0.00 576.00 64.00" xmlns="http://www.w3.org/2000/svg" xmlns:xlink="http://www.w3.org/1999/xlink">
<g id="graph0" class="graph" transform="scale(1 1) rotate(0) translate(4 60)">
<title>MainPage.TaskOpenPanelController.MakeItBadHabit</title>
<!-- Node1 -->
<g id="Node000001" class="node">
<title>Node1</title>
<g id="a_Node000001"><a xlink:title="Make this task a bad habit.">
<polygon fill="#999999" stroke="#666666" points="269,-56 0,-56 0,-37 269,-37 269,-56"/>
<text text-anchor="middle" x="134.5" y="-44" font-family="Helvetica,sans-Serif" font-size="10.00">MainPage.TaskOpenPanelController.MakeItBadHabit</text>
</a>
</g>
</g>
<!-- Node2 -->
<g id="Node000002" class="node">
<title>Node2</title>
<g id="a_Node000002"><a xlink:href="classMainPage_1_1MainWindowController.html#a241b480aeebdab1bc34320cad8de7712" target="_top" xlink:title="Load the good habits.">
<polygon fill="white" stroke="#666666" points="563.5,-56 309.5,-56 309.5,-37 563.5,-37 563.5,-56"/>
<text text-anchor="middle" x="436.5" y="-44" font-family="Helvetica,sans-Serif" font-size="10.00">MainPage.MainWindowController.LoadBadHabits</text>
</a>
</g>
</g>
<!-- Node1&#45;&gt;Node2 -->
<g id="edge1_Node000001_Node000002" class="edge">
<title>Node1&#45;&gt;Node2</title>
<g id="a_edge1_Node000001_Node000002"><a xlink:title=" ">
<path fill="none" stroke="#63b8ff" d="M269.27,-39.79C279.13,-39.74 289.08,-39.74 298.95,-39.77"/>
<polygon fill="#63b8ff" stroke="#63b8ff" points="299.19,-43.28 309.2,-39.83 299.22,-36.28 299.19,-43.28"/>
</a>
</g>
</g>
<!-- Node3 -->
<g id="Node000003" class="node">
<title>Node3</title>
<g id="a_Node000003"><a xlink:href="classMainPage_1_1TaskOpenPanelController.html#aa0b6757dbad141375c50282278b23b1a" target="_top" xlink:title="Update the buttons with the appropriate color based on the current task.">
<polygon fill="white" stroke="#666666" points="568,-19 305,-19 305,0 568,0 568,-19"/>
<text text-anchor="middle" x="436.5" y="-7" font-family="Helvetica,sans-Serif" font-size="10.00">MainPage.TaskOpenPanelController.UpdateButtons</text>
</a>
</g>
</g>
<!-- Node1&#45;&gt;Node3 -->
<g id="edge3_Node000001_Node000003" class="edge">
<title>Node1&#45;&gt;Node3</title>
<g id="a_edge3_Node000001_Node000003"><a xlink:title=" ">
<path fill="none" stroke="#63b8ff" d="M212.76,-36.97C254.14,-31.87 305.28,-25.56 348.11,-20.28"/>
<polygon fill="#63b8ff" stroke="#63b8ff" points="348.75,-23.73 358.24,-19.03 347.89,-16.78 348.75,-23.73"/>
</a>
</g>
</g>
<!-- Node2&#45;&gt;Node1 -->
<g id="edge2_Node000002_Node000001" class="edge">
<title>Node2&#45;&gt;Node1</title>
<g id="a_edge2_Node000002_Node000001"><a xlink:title=" ">
<path fill="none" stroke="#63b8ff" d="M309.2,-53.17C299.41,-53.24 289.47,-53.26 279.57,-53.25"/>
<polygon fill="#63b8ff" stroke="#63b8ff" points="279.28,-49.74 269.27,-53.21 279.26,-56.74 279.28,-49.74"/>
</a>
</g>
</g>
</g>
</svg>
