<?xml version="1.0" encoding="UTF-8" standalone="no"?>
<!DOCTYPE svg PUBLIC "-//W3C//DTD SVG 1.1//EN"
 "http://www.w3.org/Graphics/SVG/1.1/DTD/svg11.dtd">
<!-- Generated by graphviz version 2.43.0 (0)
 -->
<!-- Title: Game.UI.GameUI.ShowLeaderboard Pages: 1 -->
<!--zoomable 154 -->
<svg id="main" version="1.1" xmlns="http://www.w3.org/2000/svg" xmlns:xlink="http://www.w3.org/1999/xlink" xml:space="preserve" onload="init(evt)">
<style type="text/css"><![CDATA[
.edge:hover path { stroke: red; }
.edge:hover polygon { stroke: red; fill: red; }
]]></style>
<script type="text/javascript"><![CDATA[
var edges = document.getElementsByTagName('g');
if (edges && edges.length) {
  for (var i=0;i<edges.length;i++) {
    if (edges[i].id.substr(0,4)=='edge') {
      edges[i].setAttribute('class','edge');
    }
  }
}
]]></script>
        <defs>
                <circle id="rim" cx="0" cy="0" r="7"/>
                <circle id="rim2" cx="0" cy="0" r="3.5"/>
                <g id="zoomPlus">
                        <use xlink:href="#rim" fill="#404040">
                                <set attributeName="fill" to="#808080" begin="zoomplus.mouseover" end="zoomplus.mouseout"/>
                        </use>
                        <path d="M-4,0h8M0,-4v8" fill="none" stroke="white" stroke-width="1.5" pointer-events="none"/>
                </g>
                <g id="zoomMin">
                        <use xlink:href="#rim" fill="#404040">
                                <set attributeName="fill" to="#808080" begin="zoomminus.mouseover" end="zoomminus.mouseout"/>
                        </use>
                        <path d="M-4,0h8" fill="none" stroke="white" stroke-width="1.5" pointer-events="none"/>
                </g>
                <g id="dirArrow">
                        <path fill="none" stroke="white" stroke-width="1.5" d="M0,-3.0v7 M-2.5,-0.5L0,-3.0L2.5,-0.5"/>
                </g>
               <g id="resetDef">
                       <use xlink:href="#rim2" fill="#404040">
                               <set attributeName="fill" to="#808080" begin="reset.mouseover" end="reset.mouseout"/>
                       </use>
               </g>
        </defs>

<script type="text/javascript">
var viewWidth = 1166;
var viewHeight = 154;
var sectionId = 'dynsection-17';
</script>
<script xlink:href="svgpan.js"/>
<svg id="graph" class="graph">
<g id="viewport">
<title>Game.UI.GameUI.ShowLeaderboard</title>
<polygon fill="white" stroke="transparent" points="-4,4 -4,-150 1162,-150 1162,4 -4,4"/>
<!-- Node1 -->
<g id="node1" class="node">
<title>Node1</title>
<g id="a_node1"><a xlink:title="Show the leaderboard window">
<polygon fill="#bfbfbf" stroke="black" points="0,-60.5 0,-79.5 192,-79.5 192,-60.5 0,-60.5"/>
<text text-anchor="middle" x="96" y="-67.5" font-family="Helvetica,sans-Serif" font-size="10.00">Game.UI.GameUI.ShowLeaderboard</text>
</a>
</g>
</g>
<!-- Node2 -->
<g id="node2" class="node">
<title>Node2</title>
<g id="a_node2"><a xlink:href="classGame_1_1UI_1_1LeaderboardWindow.html#a8404b4a49a1f74f3b634ec77eb4b1d87" target="_top" xlink:title="Show the window">
<polygon fill="white" stroke="black" points="228,-60.5 228,-79.5 419,-79.5 419,-60.5 228,-60.5"/>
<text text-anchor="middle" x="323.5" y="-67.5" font-family="Helvetica,sans-Serif" font-size="10.00">Game.UI.LeaderboardWindow.Show</text>
</a>
</g>
</g>
<!-- Node1&#45;&gt;Node2 -->
<g id="edge1" class="edge">
<title>Node1&#45;&gt;Node2</title>
<path fill="none" stroke="midnightblue" d="M192.31,-70C200.68,-70 209.19,-70 217.63,-70"/>
<polygon fill="midnightblue" stroke="midnightblue" points="217.9,-73.5 227.9,-70 217.89,-66.5 217.9,-73.5"/>
</g>
<!-- Node3 -->
<g id="node3" class="node">
<title>Node3</title>
<g id="a_node3"><a xlink:href="classGame_1_1UI_1_1LeaderboardWindow.html#a6d7212efa2c2627d119bac3318ea0d00" target="_top" xlink:title="Load the scores">
<polygon fill="white" stroke="black" points="455,-60.5 455,-79.5 675,-79.5 675,-60.5 455,-60.5"/>
<text text-anchor="middle" x="565" y="-67.5" font-family="Helvetica,sans-Serif" font-size="10.00">Game.UI.LeaderboardWindow.LoadScores</text>
</a>
</g>
</g>
<!-- Node2&#45;&gt;Node3 -->
<g id="edge2" class="edge">
<title>Node2&#45;&gt;Node3</title>
<path fill="none" stroke="midnightblue" d="M419.16,-70C427.61,-70 436.25,-70 444.88,-70"/>
<polygon fill="midnightblue" stroke="midnightblue" points="444.99,-73.5 454.99,-70 444.99,-66.5 444.99,-73.5"/>
</g>
<!-- Node4 -->
<g id="node4" class="node">
<title>Node4</title>
<g id="a_node4"><a xlink:href="classGame_1_1UI_1_1LeaderboardWindow.html#aa83c9458d4a3cf1ea754268c3c584416" target="_top" xlink:title="Callback after the scores were loaded">
<polygon fill="white" stroke="black" points="718.5,-126.5 718.5,-145.5 950.5,-145.5 950.5,-126.5 718.5,-126.5"/>
<text text-anchor="middle" x="834.5" y="-133.5" font-family="Helvetica,sans-Serif" font-size="10.00">Game.UI.LeaderboardWindow.LoadedScores</text>
</a>
</g>
</g>
<!-- Node3&#45;&gt;Node4 -->
<g id="edge3" class="edge">
<title>Node3&#45;&gt;Node4</title>
<path fill="none" stroke="midnightblue" d="M591.32,-79.57C619.98,-90.09 668.27,-106.83 711,-117 723.43,-119.96 736.68,-122.57 749.71,-124.83"/>
<polygon fill="midnightblue" stroke="midnightblue" points="749.17,-128.29 759.61,-126.49 750.32,-121.38 749.17,-128.29"/>
</g>
<!-- Node6 -->
<g id="node6" class="node">
<title>Node6</title>
<g id="a_node6"><a xlink:href="classConfig_1_1ServerConfig.html#ae1592f2810947e426b77b35e99934e4b" target="_top" xlink:title="Path to api endpoint to get all the game scores since the given time (limit 100)">
<polygon fill="white" stroke="black" points="739,-77 739,-107 930,-107 930,-77 739,-77"/>
<text text-anchor="start" x="747" y="-95" font-family="Helvetica,sans-Serif" font-size="10.00">Config.ServerConfig.PATH_FOR_GET</text>
<text text-anchor="middle" x="834.5" y="-84" font-family="Helvetica,sans-Serif" font-size="10.00">_GAME_SCORES</text>
</a>
</g>
</g>
<!-- Node3&#45;&gt;Node6 -->
<g id="edge5" class="edge">
<title>Node3&#45;&gt;Node6</title>
<path fill="none" stroke="midnightblue" d="M675.19,-78.98C692.82,-80.43 711.04,-81.93 728.57,-83.37"/>
<polygon fill="midnightblue" stroke="midnightblue" points="728.55,-86.88 738.8,-84.21 729.12,-79.9 728.55,-86.88"/>
</g>
<!-- Node7 -->
<g id="node7" class="node">
<title>Node7</title>
<g id="a_node7"><a xlink:href="classUtility_1_1CoroutineRunner.html#a1c473dee723f16d86bab9d8475c8214a" target="_top" xlink:title="A helper method to start coroutines">
<polygon fill="white" stroke="black" points="735.5,-38.5 735.5,-57.5 933.5,-57.5 933.5,-38.5 735.5,-38.5"/>
<text text-anchor="middle" x="834.5" y="-45.5" font-family="Helvetica,sans-Serif" font-size="10.00">Utility.CoroutineRunner.RunCoroutine</text>
</a>
</g>
</g>
<!-- Node3&#45;&gt;Node7 -->
<g id="edge6" class="edge">
<title>Node3&#45;&gt;Node7</title>
<path fill="none" stroke="midnightblue" d="M675.19,-61.02C691.7,-59.66 708.72,-58.26 725.22,-56.91"/>
<polygon fill="midnightblue" stroke="midnightblue" points="725.72,-60.38 735.4,-56.07 725.15,-53.4 725.72,-60.38"/>
</g>
<!-- Node8 -->
<g id="node8" class="node">
<title>Node8</title>
<g id="a_node8"><a xlink:href="classGame_1_1UI_1_1LeaderboardWindow.html#add244b5633e10a828542b586844e9ef2" target="_top" xlink:title="Show if the request failed in the modal">
<polygon fill="white" stroke="black" points="711,-0.5 711,-19.5 958,-19.5 958,-0.5 711,-0.5"/>
<text text-anchor="middle" x="834.5" y="-7.5" font-family="Helvetica,sans-Serif" font-size="10.00">Game.UI.LeaderboardWindow.ShowRequestFail</text>
</a>
</g>
</g>
<!-- Node3&#45;&gt;Node8 -->
<g id="edge7" class="edge">
<title>Node3&#45;&gt;Node8</title>
<path fill="none" stroke="midnightblue" d="M595.72,-60.45C624.85,-51.36 670.62,-37.81 711,-29 724.28,-26.1 738.47,-23.48 752.3,-21.17"/>
<polygon fill="midnightblue" stroke="midnightblue" points="752.99,-24.6 762.3,-19.54 751.87,-17.7 752.99,-24.6"/>
</g>
<!-- Node5 -->
<g id="node5" class="node">
<title>Node5</title>
<g id="a_node5"><a xlink:href="classGame_1_1UI_1_1LeaderboardItem.html#a3d41fb9a51ff51b9e249c0831f4d788a" target="_top" xlink:title="Initializes the item">
<polygon fill="white" stroke="black" points="994,-126.5 994,-145.5 1158,-145.5 1158,-126.5 994,-126.5"/>
<text text-anchor="middle" x="1076" y="-133.5" font-family="Helvetica,sans-Serif" font-size="10.00">Game.UI.LeaderboardItem.Init</text>
</a>
</g>
</g>
<!-- Node4&#45;&gt;Node5 -->
<g id="edge4" class="edge">
<title>Node4&#45;&gt;Node5</title>
<path fill="none" stroke="midnightblue" d="M950.69,-136C961.77,-136 972.9,-136 983.7,-136"/>
<polygon fill="midnightblue" stroke="midnightblue" points="983.95,-139.5 993.95,-136 983.95,-132.5 983.95,-139.5"/>
</g>
<!-- Node9 -->
<g id="node9" class="node">
<title>Node9</title>
<g id="a_node9"><a xlink:href="classUtility_1_1ModalWindow.html#adcef8cae2dffe4247c905d042ff0a8e3" target="_top" xlink:title="Show the modal window">
<polygon fill="white" stroke="black" points="1003,-0.5 1003,-19.5 1149,-19.5 1149,-0.5 1003,-0.5"/>
<text text-anchor="middle" x="1076" y="-7.5" font-family="Helvetica,sans-Serif" font-size="10.00">Utility.ModalWindow.Show</text>
</a>
</g>
</g>
<!-- Node8&#45;&gt;Node9 -->
<g id="edge8" class="edge">
<title>Node8&#45;&gt;Node9</title>
<path fill="none" stroke="midnightblue" d="M958.06,-10C969.78,-10 981.46,-10 992.66,-10"/>
<polygon fill="midnightblue" stroke="midnightblue" points="992.79,-13.5 1002.79,-10 992.79,-6.5 992.79,-13.5"/>
</g>
</g>
</svg>
        <g id="navigator" transform="translate(0 0)" fill="#404254">
                <rect fill="#f2f5e9" fill-opacity="0.5" stroke="#606060" stroke-width=".5" x="0" y="0" width="60" height="60"/>
                <use id="zoomplus" xlink:href="#zoomPlus" x="17" y="9" onmousedown="handleZoom(evt,'in')"/>
                <use id="zoomminus" xlink:href="#zoomMin" x="42" y="9" onmousedown="handleZoom(evt,'out')"/>
                <use id="reset" xlink:href="#resetDef" x="30" y="36" onmousedown="handleReset()"/>
                <g id="arrowUp" xlink:href="#dirArrow" transform="translate(30 24)" onmousedown="handlePan(0,-1)">
                  <use xlink:href="#rim" fill="#404040">
                        <set attributeName="fill" to="#808080" begin="arrowUp.mouseover" end="arrowUp.mouseout"/>
                  </use>
                  <path fill="none" stroke="white" stroke-width="1.5" d="M0,-3.0v7 M-2.5,-0.5L0,-3.0L2.5,-0.5"/>
                </g>
                <g id="arrowRight" xlink:href="#dirArrow" transform="rotate(90) translate(36 -43)" onmousedown="handlePan(1,0)">
                  <use xlink:href="#rim" fill="#404040">
                        <set attributeName="fill" to="#808080" begin="arrowRight.mouseover" end="arrowRight.mouseout"/>
                  </use>
                  <path fill="none" stroke="white" stroke-width="1.5" d="M0,-3.0v7 M-2.5,-0.5L0,-3.0L2.5,-0.5"/>
                </g>
                <g id="arrowDown" xlink:href="#dirArrow" transform="rotate(180) translate(-30 -48)" onmousedown="handlePan(0,1)">
                  <use xlink:href="#rim" fill="#404040">
                        <set attributeName="fill" to="#808080" begin="arrowDown.mouseover" end="arrowDown.mouseout"/>
                  </use>
                  <path fill="none" stroke="white" stroke-width="1.5" d="M0,-3.0v7 M-2.5,-0.5L0,-3.0L2.5,-0.5"/>
                </g>
                <g id="arrowLeft" xlink:href="#dirArrow" transform="rotate(270) translate(-36 17)" onmousedown="handlePan(-1,0)">
                  <use xlink:href="#rim" fill="#404040">
                        <set attributeName="fill" to="#808080" begin="arrowLeft.mouseover" end="arrowLeft.mouseout"/>
                  </use>
                  <path fill="none" stroke="white" stroke-width="1.5" d="M0,-3.0v7 M-2.5,-0.5L0,-3.0L2.5,-0.5"/>
                </g>
        </g>
        <svg viewBox="0 0 15 15" width="100%" height="30px" preserveAspectRatio="xMaxYMin meet">
         <g id="arrow_out" transform="scale(0.3 0.3)">
          <a xlink:href="classGame_1_1UI_1_1GameUI_a4258f849b2e7d8cdb72dd01c26de3a71_cgraph_org.svg" target="_base">
           <rect id="button" ry="5" rx="5" y="6" x="6" height="38" width="38"
                fill="#f2f5e9" fill-opacity="0.5" stroke="#606060" stroke-width="1.0"/>
           <path id="arrow"
             d="M 11.500037,31.436501 C 11.940474,20.09759 22.043105,11.32322 32.158766,21.979434 L 37.068811,17.246167 C 37.068811,17.246167 37.088388,32 37.088388,32 L 22.160133,31.978069 C 22.160133,31.978069 26.997745,27.140456 26.997745,27.140456 C 18.528582,18.264221 13.291696,25.230495 11.500037,31.436501 z"
             style="fill:#404040;"/>
          </a>
         </g>
        </svg>
</svg>
