<?xml version="1.0" encoding="UTF-8" standalone="no"?>
<!DOCTYPE svg PUBLIC "-//W3C//DTD SVG 1.1//EN"
 "http://www.w3.org/Graphics/SVG/1.1/DTD/svg11.dtd">
<!-- Generated by graphviz version 2.43.0 (0)
 -->
<!-- Title: Game.CopCar.Update Pages: 1 -->
<svg width="899pt" height="175pt"
 viewBox="0.00 0.00 899.00 175.00" xmlns="http://www.w3.org/2000/svg" xmlns:xlink="http://www.w3.org/1999/xlink">
<g id="graph0" class="graph" transform="scale(1 1) rotate(0) translate(4 171)">
<title>Game.CopCar.Update</title>
<!-- Node1 -->
<g id="Node000001" class="node">
<title>Node1</title>
<g id="a_Node000001"><a xlink:title="Called every frame.">
<polygon fill="#999999" stroke="#666666" points="122,-111 0,-111 0,-92 122,-92 122,-111"/>
<text text-anchor="middle" x="61" y="-99" font-family="Helvetica,sans-Serif" font-size="10.00">Game.CopCar.Update</text>
</a>
</g>
</g>
<!-- Node2 -->
<g id="Node000002" class="node">
<title>Node2</title>
<g id="a_Node000002"><a xlink:href="classGame_1_1NpcCar.html#ac7bf4d022d0601c6262c6ffcfcf80a59" target="_top" xlink:title="Determine the way the player is.">
<polygon fill="white" stroke="#666666" points="451,-130 158,-130 158,-111 451,-111 451,-130"/>
<text text-anchor="middle" x="304.5" y="-118" font-family="Helvetica,sans-Serif" font-size="10.00">Game.NpcCar.DetermineSteeringDirectionTowardsPlayer</text>
</a>
</g>
</g>
<!-- Node1&#45;&gt;Node2 -->
<g id="edge1_Node000001_Node000002" class="edge">
<title>Node1&#45;&gt;Node2</title>
<g id="a_edge1_Node000001_Node000002"><a xlink:title=" ">
<path fill="none" stroke="#63b8ff" d="M122.01,-106.22C137.42,-107.43 154.62,-108.79 172.12,-110.16"/>
<polygon fill="#63b8ff" stroke="#63b8ff" points="172.21,-113.68 182.45,-110.98 172.75,-106.7 172.21,-113.68"/>
</a>
</g>
</g>
<!-- Node3 -->
<g id="Node000003" class="node">
<title>Node3</title>
<g id="a_Node000003"><a xlink:href="classGame_1_1CarController.html#ae3eb6260519b20b09bc1226be3919be2" target="_top" xlink:title=" ">
<polygon fill="white" stroke="#666666" points="376,-93 233,-93 233,-74 376,-74 376,-93"/>
<text text-anchor="middle" x="304.5" y="-81" font-family="Helvetica,sans-Serif" font-size="10.00">Game.CarController.Move</text>
</a>
</g>
</g>
<!-- Node1&#45;&gt;Node3 -->
<g id="edge2_Node000001_Node000003" class="edge">
<title>Node1&#45;&gt;Node3</title>
<g id="a_edge2_Node000001_Node000003"><a xlink:title=" ">
<path fill="none" stroke="#63b8ff" d="M122.01,-97.03C152.39,-94.76 189.71,-91.98 222.59,-89.53"/>
<polygon fill="#63b8ff" stroke="#63b8ff" points="222.93,-93.01 232.64,-88.78 222.41,-86.03 222.93,-93.01"/>
</a>
</g>
</g>
<!-- Node4 -->
<g id="Node000004" class="node">
<title>Node4</title>
<g id="a_Node000004"><a xlink:href="classGame_1_1CarController.html#afadda4712607531e93172fcd43557f14" target="_top" xlink:title=" ">
<polygon fill="white" stroke="#666666" points="675.5,-167 487.5,-167 487.5,-148 675.5,-148 675.5,-167"/>
<text text-anchor="middle" x="581.5" y="-155" font-family="Helvetica,sans-Serif" font-size="10.00">Game.CarController.AddDownForce</text>
</a>
</g>
</g>
<!-- Node3&#45;&gt;Node4 -->
<g id="edge3_Node000003_Node000004" class="edge">
<title>Node3&#45;&gt;Node4</title>
<g id="a_edge3_Node000003_Node000004"><a xlink:title=" ">
<path fill="none" stroke="#63b8ff" d="M376.37,-83.35C401.04,-85.69 428.22,-91.09 451,-102.5 471.51,-112.78 466.81,-128.61 487,-139.5 490.32,-141.29 493.8,-142.91 497.37,-144.37"/>
<polygon fill="#63b8ff" stroke="#63b8ff" points="496.43,-147.75 507.02,-147.86 498.81,-141.16 496.43,-147.75"/>
</a>
</g>
</g>
<!-- Node5 -->
<g id="Node000005" class="node">
<title>Node5</title>
<g id="a_Node000005"><a xlink:href="classGame_1_1CarController.html#aebd7dfca747e22622550ce42076052af" target="_top" xlink:title=" ">
<polygon fill="white" stroke="#666666" points="666.5,-130 496.5,-130 496.5,-111 666.5,-111 666.5,-130"/>
<text text-anchor="middle" x="581.5" y="-118" font-family="Helvetica,sans-Serif" font-size="10.00">Game.CarController.ApplyDrive</text>
</a>
</g>
</g>
<!-- Node3&#45;&gt;Node5 -->
<g id="edge4_Node000003_Node000005" class="edge">
<title>Node3&#45;&gt;Node5</title>
<g id="a_edge4_Node000003_Node000005"><a xlink:title=" ">
<path fill="none" stroke="#63b8ff" d="M376.19,-92.61C399.97,-95.71 426.64,-99.22 451,-102.5 467.74,-104.76 485.68,-107.22 502.72,-109.58"/>
<polygon fill="#63b8ff" stroke="#63b8ff" points="502.25,-113.05 512.63,-110.96 503.21,-106.12 502.25,-113.05"/>
</a>
</g>
</g>
<!-- Node6 -->
<g id="Node000006" class="node">
<title>Node6</title>
<g id="a_Node000006"><a xlink:href="classGame_1_1CarController.html#a906b060eb3177f7706893b9e0e098dc8" target="_top" xlink:title=" ">
<polygon fill="white" stroke="#666666" points="663.5,-93 499.5,-93 499.5,-74 663.5,-74 663.5,-93"/>
<text text-anchor="middle" x="581.5" y="-81" font-family="Helvetica,sans-Serif" font-size="10.00">Game.CarController.CapSpeed</text>
</a>
</g>
</g>
<!-- Node3&#45;&gt;Node6 -->
<g id="edge5_Node000003_Node000006" class="edge">
<title>Node3&#45;&gt;Node6</title>
<g id="a_edge5_Node000003_Node000006"><a xlink:title=" ">
<path fill="none" stroke="#63b8ff" d="M376.32,-83.5C410.65,-83.5 452.3,-83.5 489,-83.5"/>
<polygon fill="#63b8ff" stroke="#63b8ff" points="489.21,-87 499.21,-83.5 489.21,-80 489.21,-87"/>
</a>
</g>
</g>
<!-- Node7 -->
<g id="Node000007" class="node">
<title>Node7</title>
<g id="a_Node000007"><a xlink:href="classGame_1_1CarController.html#a764c5ed47cd5bb83923e9fa443935af7" target="_top" xlink:title=" ">
<polygon fill="white" stroke="#666666" points="668,-56 495,-56 495,-37 668,-37 668,-56"/>
<text text-anchor="middle" x="581.5" y="-44" font-family="Helvetica,sans-Serif" font-size="10.00">Game.CarController.SteerHelper</text>
</a>
</g>
</g>
<!-- Node3&#45;&gt;Node7 -->
<g id="edge6_Node000003_Node000007" class="edge">
<title>Node3&#45;&gt;Node7</title>
<g id="a_edge6_Node000003_Node000007"><a xlink:title=" ">
<path fill="none" stroke="#63b8ff" d="M376.32,-73.97C413.86,-68.92 460.16,-62.69 499.17,-57.44"/>
<polygon fill="#63b8ff" stroke="#63b8ff" points="500,-60.86 509.44,-56.06 499.07,-53.93 500,-60.86"/>
</a>
</g>
</g>
<!-- Node8 -->
<g id="Node000008" class="node">
<title>Node8</title>
<g id="a_Node000008"><a xlink:href="classGame_1_1CarController.html#a298e55b1a36b51f9c4e4aa7883056a00" target="_top" xlink:title=" ">
<polygon fill="white" stroke="#666666" points="676,-19 487,-19 487,0 676,0 676,-19"/>
<text text-anchor="middle" x="581.5" y="-7" font-family="Helvetica,sans-Serif" font-size="10.00">Game.CarController.TractionControl</text>
</a>
</g>
</g>
<!-- Node3&#45;&gt;Node8 -->
<g id="edge7_Node000003_Node000008" class="edge">
<title>Node3&#45;&gt;Node8</title>
<g id="a_edge7_Node000003_Node000008"><a xlink:title=" ">
<path fill="none" stroke="#63b8ff" d="M333.87,-74C369.4,-62.31 432.25,-42.33 487,-28.5 497.22,-25.92 508.14,-23.45 518.78,-21.19"/>
<polygon fill="#63b8ff" stroke="#63b8ff" points="519.79,-24.55 528.86,-19.09 518.36,-17.7 519.79,-24.55"/>
</a>
</g>
</g>
<!-- Node9 -->
<g id="Node000009" class="node">
<title>Node9</title>
<g id="a_Node000009"><a xlink:href="classGame_1_1CarController.html#a7589f8f5b951a0d3283790774bf97493" target="_top" xlink:title=" ">
<polygon fill="white" stroke="#666666" points="891,-19 712,-19 712,0 891,0 891,-19"/>
<text text-anchor="middle" x="801.5" y="-7" font-family="Helvetica,sans-Serif" font-size="10.00">Game.CarController.AdjustTorque</text>
</a>
</g>
</g>
<!-- Node8&#45;&gt;Node9 -->
<g id="edge8_Node000008_Node000009" class="edge">
<title>Node8&#45;&gt;Node9</title>
<g id="a_edge8_Node000008_Node000009"><a xlink:title=" ">
<path fill="none" stroke="#63b8ff" d="M676.22,-9.5C684.59,-9.5 693.08,-9.5 701.49,-9.5"/>
<polygon fill="#63b8ff" stroke="#63b8ff" points="701.69,-13 711.69,-9.5 701.69,-6 701.69,-13"/>
</a>
</g>
</g>
</g>
</svg>
