<?xml version="1.0" encoding="UTF-8" standalone="no"?>
<!DOCTYPE svg PUBLIC "-//W3C//DTD SVG 1.1//EN"
 "http://www.w3.org/Graphics/SVG/1.1/DTD/svg11.dtd">
<!-- Generated by graphviz version 2.43.0 (0)
 -->
<!-- Title: Game.UI.GameUI.Update Pages: 1 -->
<svg width="799pt" height="294pt"
 viewBox="0.00 0.00 799.00 294.00" xmlns="http://www.w3.org/2000/svg" xmlns:xlink="http://www.w3.org/1999/xlink">
<g id="graph0" class="graph" transform="scale(1 1) rotate(0) translate(4 290)">
<title>Game.UI.GameUI.Update</title>
<polygon fill="white" stroke="transparent" points="-4,4 -4,-290 795,-290 795,4 -4,4"/>
<!-- Node1 -->
<g id="node1" class="node">
<title>Node1</title>
<g id="a_node1"><a xlink:title="Called every frame">
<polygon fill="#bfbfbf" stroke="black" points="0,-123.5 0,-142.5 140,-142.5 140,-123.5 0,-123.5"/>
<text text-anchor="middle" x="70" y="-130.5" font-family="Helvetica,sans-Serif" font-size="10.00">Game.UI.GameUI.Update</text>
</a>
</g>
</g>
<!-- Node2 -->
<g id="node2" class="node">
<title>Node2</title>
<g id="a_node2"><a xlink:href="classGame_1_1UI_1_1GameUI.html#acd930ff070019fc74a3795a8b1452923" target="_top" xlink:title="Buy the immunity power up">
<polygon fill="white" stroke="black" points="176,-161.5 176,-180.5 347,-180.5 347,-161.5 176,-161.5"/>
<text text-anchor="middle" x="261.5" y="-168.5" font-family="Helvetica,sans-Serif" font-size="10.00">Game.UI.GameUI.BuyImmunity</text>
</a>
</g>
</g>
<!-- Node1&#45;&gt;Node2 -->
<g id="edge1" class="edge">
<title>Node1&#45;&gt;Node2</title>
<path fill="none" stroke="midnightblue" d="M118.82,-142.59C144.39,-147.72 176.06,-154.07 202.97,-159.46"/>
<polygon fill="midnightblue" stroke="midnightblue" points="202.53,-162.95 213.03,-161.48 203.91,-156.08 202.53,-162.95"/>
</g>
<!-- Node10 -->
<g id="node10" class="node">
<title>Node10</title>
<g id="a_node10"><a xlink:href="classGame_1_1UI_1_1GameUI.html#a97a84e72b5ac1d245d1bfd3eb802fdfd" target="_top" xlink:title="Buy the turbo power up">
<polygon fill="white" stroke="black" points="186.5,-104.5 186.5,-123.5 336.5,-123.5 336.5,-104.5 186.5,-104.5"/>
<text text-anchor="middle" x="261.5" y="-111.5" font-family="Helvetica,sans-Serif" font-size="10.00">Game.UI.GameUI.BuyTurbo</text>
</a>
</g>
</g>
<!-- Node1&#45;&gt;Node10 -->
<g id="edge9" class="edge">
<title>Node1&#45;&gt;Node10</title>
<path fill="none" stroke="midnightblue" d="M140.22,-126.06C151.95,-124.88 164.24,-123.65 176.3,-122.44"/>
<polygon fill="midnightblue" stroke="midnightblue" points="176.76,-125.91 186.36,-121.43 176.06,-118.95 176.76,-125.91"/>
</g>
<!-- Node3 -->
<g id="node3" class="node">
<title>Node3</title>
<g id="a_node3"><a xlink:href="classGame_1_1PlayerCar.html#a17bdd48255bfc4b1f00c106451981bc3" target="_top" xlink:title=" ">
<polygon fill="white" stroke="black" points="395.5,-266.5 395.5,-285.5 568.5,-285.5 568.5,-266.5 395.5,-266.5"/>
<text text-anchor="middle" x="482" y="-273.5" font-family="Helvetica,sans-Serif" font-size="10.00">Game.PlayerCar.ApplyImmunity</text>
</a>
</g>
</g>
<!-- Node2&#45;&gt;Node3 -->
<g id="edge2" class="edge">
<title>Node2&#45;&gt;Node3</title>
<path fill="none" stroke="midnightblue" d="M272.52,-180.5C292.08,-198.48 337.42,-237.42 383,-257 389.1,-259.62 395.57,-261.88 402.15,-263.83"/>
<polygon fill="midnightblue" stroke="midnightblue" points="401.3,-267.23 411.87,-266.47 403.14,-260.47 401.3,-267.23"/>
</g>
<!-- Node4 -->
<g id="node4" class="node">
<title>Node4</title>
<g id="a_node4"><a xlink:href="classGame_1_1UI_1_1GameUI.html#a5917dd3ff591dc192c83474a0db6b79d" target="_top" xlink:title="Callback after the player bought the immunity">
<polygon fill="white" stroke="black" points="388.5,-190.5 388.5,-209.5 575.5,-209.5 575.5,-190.5 388.5,-190.5"/>
<text text-anchor="middle" x="482" y="-197.5" font-family="Helvetica,sans-Serif" font-size="10.00">Game.UI.GameUI.BoughtImmunity</text>
</a>
</g>
</g>
<!-- Node2&#45;&gt;Node4 -->
<g id="edge3" class="edge">
<title>Node2&#45;&gt;Node4</title>
<path fill="none" stroke="midnightblue" d="M334.35,-180.54C355.07,-183.29 377.84,-186.31 399.12,-189.13"/>
<polygon fill="midnightblue" stroke="midnightblue" points="398.74,-192.61 409.11,-190.46 399.66,-185.67 398.74,-192.61"/>
</g>
<!-- Node6 -->
<g id="node6" class="node">
<title>Node6</title>
<g id="a_node6"><a xlink:href="classGame_1_1PlayerCar.html#a1c74b2e5f747bf336b29e1ebc7be878a" target="_top" xlink:title=" ">
<polygon fill="white" stroke="black" points="392.5,-228.5 392.5,-247.5 571.5,-247.5 571.5,-228.5 392.5,-228.5"/>
<text text-anchor="middle" x="482" y="-235.5" font-family="Helvetica,sans-Serif" font-size="10.00">Game.PlayerCar.CancelImmunity</text>
</a>
</g>
</g>
<!-- Node2&#45;&gt;Node6 -->
<g id="edge5" class="edge">
<title>Node2&#45;&gt;Node6</title>
<path fill="none" stroke="midnightblue" d="M282.98,-180.53C306.63,-191.21 346.91,-208.42 383,-219 392.42,-221.76 402.46,-224.23 412.4,-226.4"/>
<polygon fill="midnightblue" stroke="midnightblue" points="411.76,-229.85 422.27,-228.48 413.2,-223 411.76,-229.85"/>
</g>
<!-- Node7 -->
<g id="node7" class="node">
<title>Node7</title>
<g id="a_node7"><a xlink:href="classUtility_1_1CoroutineRunner.html#a1c473dee723f16d86bab9d8475c8214a" target="_top" xlink:title="A helper method to start coroutines">
<polygon fill="white" stroke="black" points="383,-114.5 383,-133.5 581,-133.5 581,-114.5 383,-114.5"/>
<text text-anchor="middle" x="482" y="-121.5" font-family="Helvetica,sans-Serif" font-size="10.00">Utility.CoroutineRunner.RunCoroutine</text>
</a>
</g>
</g>
<!-- Node2&#45;&gt;Node7 -->
<g id="edge6" class="edge">
<title>Node2&#45;&gt;Node7</title>
<path fill="none" stroke="midnightblue" d="M301.76,-161.49C325.28,-155.89 355.8,-148.8 383,-143 394.92,-140.46 407.68,-137.88 419.93,-135.48"/>
<polygon fill="midnightblue" stroke="midnightblue" points="420.92,-138.85 430.06,-133.51 419.58,-131.98 420.92,-138.85"/>
</g>
<!-- Node8 -->
<g id="node8" class="node">
<title>Node8</title>
<g id="a_node8"><a xlink:href="classGame_1_1UI_1_1GameUI.html#ac464d5a547acb44085748e2ee265272f" target="_top" xlink:title="Show if the request failed on the modal window">
<polygon fill="white" stroke="black" points="388,-152.5 388,-171.5 576,-171.5 576,-152.5 388,-152.5"/>
<text text-anchor="middle" x="482" y="-159.5" font-family="Helvetica,sans-Serif" font-size="10.00">Game.UI.GameUI.ShowRequestFail</text>
</a>
</g>
</g>
<!-- Node2&#45;&gt;Node8 -->
<g id="edge7" class="edge">
<title>Node2&#45;&gt;Node8</title>
<path fill="none" stroke="midnightblue" d="M347.29,-167.51C357.28,-167.1 367.55,-166.67 377.75,-166.25"/>
<polygon fill="midnightblue" stroke="midnightblue" points="378.07,-169.74 387.92,-165.83 377.79,-162.75 378.07,-169.74"/>
</g>
<!-- Node5 -->
<g id="node5" class="node">
<title>Node5</title>
<g id="a_node5"><a xlink:href="classUser_1_1UserData.html#a103846d4ce97a5d089423d4efd1a5ec0" target="_top" xlink:title="Update the user&#39;s task score">
<polygon fill="white" stroke="black" points="617,-95.5 617,-114.5 791,-114.5 791,-95.5 617,-95.5"/>
<text text-anchor="middle" x="704" y="-102.5" font-family="Helvetica,sans-Serif" font-size="10.00">User.UserData.UpdateTaskScore</text>
</a>
</g>
</g>
<!-- Node4&#45;&gt;Node5 -->
<g id="edge4" class="edge">
<title>Node4&#45;&gt;Node5</title>
<path fill="none" stroke="midnightblue" d="M558.28,-190.44C566.2,-187.97 573.94,-184.88 581,-181 601.39,-169.81 597.99,-156.41 617,-143 631.47,-132.79 649.12,-124.41 664.66,-118.15"/>
<polygon fill="midnightblue" stroke="midnightblue" points="665.95,-121.4 674.01,-114.52 663.42,-114.87 665.95,-121.4"/>
</g>
<!-- Node9 -->
<g id="node9" class="node">
<title>Node9</title>
<g id="a_node9"><a xlink:href="classUtility_1_1ModalWindow.html#adcef8cae2dffe4247c905d042ff0a8e3" target="_top" xlink:title="Show the modal window">
<polygon fill="white" stroke="black" points="631,-152.5 631,-171.5 777,-171.5 777,-152.5 631,-152.5"/>
<text text-anchor="middle" x="704" y="-159.5" font-family="Helvetica,sans-Serif" font-size="10.00">Utility.ModalWindow.Show</text>
</a>
</g>
</g>
<!-- Node8&#45;&gt;Node9 -->
<g id="edge8" class="edge">
<title>Node8&#45;&gt;Node9</title>
<path fill="none" stroke="midnightblue" d="M576.3,-162C591,-162 606.11,-162 620.54,-162"/>
<polygon fill="midnightblue" stroke="midnightblue" points="620.92,-165.5 630.92,-162 620.92,-158.5 620.92,-165.5"/>
</g>
<!-- Node10&#45;&gt;Node7 -->
<g id="edge14" class="edge">
<title>Node10&#45;&gt;Node7</title>
<path fill="none" stroke="midnightblue" d="M336.78,-117.4C348.38,-117.93 360.56,-118.49 372.73,-119.05"/>
<polygon fill="midnightblue" stroke="midnightblue" points="372.79,-122.55 382.94,-119.51 373.11,-115.56 372.79,-122.55"/>
</g>
<!-- Node10&#45;&gt;Node8 -->
<g id="edge15" class="edge">
<title>Node10&#45;&gt;Node8</title>
<path fill="none" stroke="midnightblue" d="M300.12,-123.51C323.84,-129.39 355.14,-136.95 383,-143 394.78,-145.56 407.38,-148.13 419.5,-150.51"/>
<polygon fill="midnightblue" stroke="midnightblue" points="419.06,-153.99 429.54,-152.47 420.4,-147.12 419.06,-153.99"/>
</g>
<!-- Node11 -->
<g id="node11" class="node">
<title>Node11</title>
<g id="a_node11"><a xlink:href="classGame_1_1PlayerCar.html#aaa57e11cd8cc243d3b3964818c102053" target="_top" xlink:title=" ">
<polygon fill="white" stroke="black" points="406,-38.5 406,-57.5 558,-57.5 558,-38.5 406,-38.5"/>
<text text-anchor="middle" x="482" y="-45.5" font-family="Helvetica,sans-Serif" font-size="10.00">Game.PlayerCar.ApplyTurbo</text>
</a>
</g>
</g>
<!-- Node10&#45;&gt;Node11 -->
<g id="edge10" class="edge">
<title>Node10&#45;&gt;Node11</title>
<path fill="none" stroke="midnightblue" d="M283.43,-104.5C307.16,-94.05 347.19,-77.36 383,-67 392.49,-64.25 402.61,-61.79 412.61,-59.62"/>
<polygon fill="midnightblue" stroke="midnightblue" points="413.48,-63.01 422.55,-57.54 412.04,-56.16 413.48,-63.01"/>
</g>
<!-- Node12 -->
<g id="node12" class="node">
<title>Node12</title>
<g id="a_node12"><a xlink:href="classGame_1_1UI_1_1GameUI.html#a1b43083f2e18b3389e4f654cc2d73bed" target="_top" xlink:title="Callback after the player bought the turbo">
<polygon fill="white" stroke="black" points="399,-76.5 399,-95.5 565,-95.5 565,-76.5 399,-76.5"/>
<text text-anchor="middle" x="482" y="-83.5" font-family="Helvetica,sans-Serif" font-size="10.00">Game.UI.GameUI.BoughtTurbo</text>
</a>
</g>
</g>
<!-- Node10&#45;&gt;Node12 -->
<g id="edge11" class="edge">
<title>Node10&#45;&gt;Node12</title>
<path fill="none" stroke="midnightblue" d="M336.78,-104.48C355.95,-102.02 376.73,-99.36 396.39,-96.84"/>
<polygon fill="midnightblue" stroke="midnightblue" points="397.08,-100.28 406.56,-95.54 396.19,-93.34 397.08,-100.28"/>
</g>
<!-- Node13 -->
<g id="node13" class="node">
<title>Node13</title>
<g id="a_node13"><a xlink:href="classGame_1_1PlayerCar.html#ab82df1aeb3c64c5129ecc1aae08df1f7" target="_top" xlink:title=" ">
<polygon fill="white" stroke="black" points="403,-0.5 403,-19.5 561,-19.5 561,-0.5 403,-0.5"/>
<text text-anchor="middle" x="482" y="-7.5" font-family="Helvetica,sans-Serif" font-size="10.00">Game.PlayerCar.CancelTurbo</text>
</a>
</g>
</g>
<!-- Node10&#45;&gt;Node13 -->
<g id="edge13" class="edge">
<title>Node10&#45;&gt;Node13</title>
<path fill="none" stroke="midnightblue" d="M272.85,-104.33C292.61,-86.45 337.78,-48.27 383,-29 389.16,-26.37 395.69,-24.11 402.34,-22.15"/>
<polygon fill="midnightblue" stroke="midnightblue" points="403.4,-25.49 412.15,-19.51 401.58,-18.74 403.4,-25.49"/>
</g>
<!-- Node12&#45;&gt;Node5 -->
<g id="edge12" class="edge">
<title>Node12&#45;&gt;Node5</title>
<path fill="none" stroke="midnightblue" d="M565.23,-93.1C578.79,-94.27 592.94,-95.49 606.8,-96.69"/>
<polygon fill="midnightblue" stroke="midnightblue" points="606.56,-100.18 616.82,-97.56 607.16,-93.21 606.56,-100.18"/>
</g>
</g>
</svg>
