<?xml version="1.0" encoding="UTF-8" standalone="no"?>
<!DOCTYPE svg PUBLIC "-//W3C//DTD SVG 1.1//EN"
 "http://www.w3.org/Graphics/SVG/1.1/DTD/svg11.dtd">
<!-- Generated by graphviz version 2.43.0 (0)
 -->
<!-- Title: Game.World.Chunk.GetARandomRoad Pages: 1 -->
<svg width="661pt" height="28pt"
 viewBox="0.00 0.00 661.00 28.00" xmlns="http://www.w3.org/2000/svg" xmlns:xlink="http://www.w3.org/1999/xlink">
<g id="graph0" class="graph" transform="scale(1 1) rotate(0) translate(4 24)">
<title>Game.World.Chunk.GetARandomRoad</title>
<polygon fill="white" stroke="transparent" points="-4,4 -4,-24 657,-24 657,4 -4,4"/>
<!-- Node1 -->
<g id="node1" class="node">
<title>Node1</title>
<g id="a_node1"><a xlink:title="Gets a random road&#39;s position">
<polygon fill="#bfbfbf" stroke="black" points="450,-0.5 450,-19.5 653,-19.5 653,-0.5 450,-0.5"/>
<text text-anchor="middle" x="551.5" y="-7.5" font-family="Helvetica,sans-Serif" font-size="10.00">Game.World.Chunk.GetARandomRoad</text>
</a>
</g>
</g>
<!-- Node2 -->
<g id="node2" class="node">
<title>Node2</title>
<g id="a_node2"><a xlink:href="classGame_1_1World_1_1CarSpawner.html#a68b1710c3c5c6ab1ea0d64b13da93e49" target="_top" xlink:title="Spawn the given cop car">
<polygon fill="white" stroke="black" points="212,-0.5 212,-19.5 414,-19.5 414,-0.5 212,-0.5"/>
<text text-anchor="middle" x="313" y="-7.5" font-family="Helvetica,sans-Serif" font-size="10.00">Game.World.CarSpawner.SpawnPolice</text>
</a>
</g>
</g>
<!-- Node1&#45;&gt;Node2 -->
<g id="edge1" class="edge">
<title>Node1&#45;&gt;Node2</title>
<path fill="none" stroke="midnightblue" d="M439.84,-10C431.28,-10 422.66,-10 414.17,-10"/>
<polygon fill="midnightblue" stroke="midnightblue" points="439.86,-13.5 449.86,-10 439.86,-6.5 439.86,-13.5"/>
</g>
<!-- Node3 -->
<g id="node3" class="node">
<title>Node3</title>
<g id="a_node3"><a xlink:href="classGame_1_1World_1_1CarSpawner.html#aa3644b0af8d08fa431229eececa0c444" target="_top" xlink:title="Called every frame and increase the timers and spawn if they reached the threshold">
<polygon fill="white" stroke="black" points="0,-0.5 0,-19.5 176,-19.5 176,-0.5 0,-0.5"/>
<text text-anchor="middle" x="88" y="-7.5" font-family="Helvetica,sans-Serif" font-size="10.00">Game.World.CarSpawner.Update</text>
</a>
</g>
</g>
<!-- Node2&#45;&gt;Node3 -->
<g id="edge2" class="edge">
<title>Node2&#45;&gt;Node3</title>
<path fill="none" stroke="midnightblue" d="M201.82,-10C193.21,-10 184.59,-10 176.16,-10"/>
<polygon fill="midnightblue" stroke="midnightblue" points="201.92,-13.5 211.92,-10 201.92,-6.5 201.92,-13.5"/>
</g>
</g>
</svg>
