<?xml version="1.0" encoding="UTF-8" standalone="no"?>
<!DOCTYPE svg PUBLIC "-//W3C//DTD SVG 1.1//EN"
 "http://www.w3.org/Graphics/SVG/1.1/DTD/svg11.dtd">
<!-- Generated by graphviz version 2.43.0 (0)
 -->
<!-- Title: Game.UI.LeaderboardWindow.Show Pages: 1 -->
<svg width="960pt" height="142pt"
 viewBox="0.00 0.00 960.00 142.00" xmlns="http://www.w3.org/2000/svg" xmlns:xlink="http://www.w3.org/1999/xlink">
<g id="graph0" class="graph" transform="scale(1 1) rotate(0) translate(4 138)">
<title>Game.UI.LeaderboardWindow.Show</title>
<polygon fill="white" stroke="transparent" points="-4,4 -4,-138 956,-138 956,4 -4,4"/>
<!-- Node1 -->
<g id="node1" class="node">
<title>Node1</title>
<g id="a_node1"><a xlink:title="Show the window">
<polygon fill="#bfbfbf" stroke="black" points="0,-57.5 0,-76.5 191,-76.5 191,-57.5 0,-57.5"/>
<text text-anchor="middle" x="95.5" y="-64.5" font-family="Helvetica,sans-Serif" font-size="10.00">Game.UI.LeaderboardWindow.Show</text>
</a>
</g>
</g>
<!-- Node2 -->
<g id="node2" class="node">
<title>Node2</title>
<g id="a_node2"><a xlink:href="classGame_1_1UI_1_1LeaderboardWindow.html#a6d7212efa2c2627d119bac3318ea0d00" target="_top" xlink:title="Load the scores">
<polygon fill="white" stroke="black" points="227,-57.5 227,-76.5 447,-76.5 447,-57.5 227,-57.5"/>
<text text-anchor="middle" x="337" y="-64.5" font-family="Helvetica,sans-Serif" font-size="10.00">Game.UI.LeaderboardWindow.LoadScores</text>
</a>
</g>
</g>
<!-- Node1&#45;&gt;Node2 -->
<g id="edge1" class="edge">
<title>Node1&#45;&gt;Node2</title>
<path fill="none" stroke="midnightblue" d="M191.16,-67C199.61,-67 208.25,-67 216.88,-67"/>
<polygon fill="midnightblue" stroke="midnightblue" points="216.99,-70.5 226.99,-67 216.99,-63.5 216.99,-70.5"/>
</g>
<!-- Node3 -->
<g id="node3" class="node">
<title>Node3</title>
<g id="a_node3"><a xlink:href="classGame_1_1UI_1_1LeaderboardWindow.html#aa83c9458d4a3cf1ea754268c3c584416" target="_top" xlink:title="Callback after the scores were loaded">
<polygon fill="white" stroke="black" points="501.5,-114.5 501.5,-133.5 733.5,-133.5 733.5,-114.5 501.5,-114.5"/>
<text text-anchor="middle" x="617.5" y="-121.5" font-family="Helvetica,sans-Serif" font-size="10.00">Game.UI.LeaderboardWindow.LoadedScores</text>
</a>
</g>
</g>
<!-- Node2&#45;&gt;Node3 -->
<g id="edge2" class="edge">
<title>Node2&#45;&gt;Node3</title>
<path fill="none" stroke="midnightblue" d="M370,-76.52C399.22,-84.94 443.71,-97.08 483,-105 497.78,-107.98 513.57,-110.66 528.93,-113.01"/>
<polygon fill="midnightblue" stroke="midnightblue" points="528.54,-116.49 538.94,-114.5 529.57,-109.56 528.54,-116.49"/>
</g>
<!-- Node5 -->
<g id="node5" class="node">
<title>Node5</title>
<g id="a_node5"><a xlink:href="classConfig_1_1ServerConfig.html#ae1592f2810947e426b77b35e99934e4b" target="_top" xlink:title="Path to api endpoint to get all the game scores since the given time (limit 100)">
<polygon fill="white" stroke="black" points="483,-76.5 483,-95.5 752,-95.5 752,-76.5 483,-76.5"/>
<text text-anchor="middle" x="617.5" y="-83.5" font-family="Helvetica,sans-Serif" font-size="10.00">Config.ServerConfig.PATH_FOR_GET_GAME_SCORES</text>
</a>
</g>
</g>
<!-- Node2&#45;&gt;Node5 -->
<g id="edge4" class="edge">
<title>Node2&#45;&gt;Node5</title>
<path fill="none" stroke="midnightblue" d="M447.27,-74.45C455.6,-75.02 464.07,-75.6 472.57,-76.18"/>
<polygon fill="midnightblue" stroke="midnightblue" points="472.33,-79.67 482.55,-76.86 472.81,-72.69 472.33,-79.67"/>
</g>
<!-- Node6 -->
<g id="node6" class="node">
<title>Node6</title>
<g id="a_node6"><a xlink:href="classUtility_1_1CoroutineRunner.html#a1c473dee723f16d86bab9d8475c8214a" target="_top" xlink:title="A helper method to start coroutines">
<polygon fill="white" stroke="black" points="518.5,-38.5 518.5,-57.5 716.5,-57.5 716.5,-38.5 518.5,-38.5"/>
<text text-anchor="middle" x="617.5" y="-45.5" font-family="Helvetica,sans-Serif" font-size="10.00">Utility.CoroutineRunner.RunCoroutine</text>
</a>
</g>
</g>
<!-- Node2&#45;&gt;Node6 -->
<g id="edge5" class="edge">
<title>Node2&#45;&gt;Node6</title>
<path fill="none" stroke="midnightblue" d="M447.27,-59.55C467.35,-58.18 488.3,-56.75 508.34,-55.38"/>
<polygon fill="midnightblue" stroke="midnightblue" points="508.67,-58.86 518.41,-54.69 508.2,-51.88 508.67,-58.86"/>
</g>
<!-- Node7 -->
<g id="node7" class="node">
<title>Node7</title>
<g id="a_node7"><a xlink:href="classGame_1_1UI_1_1LeaderboardWindow.html#add244b5633e10a828542b586844e9ef2" target="_top" xlink:title="Show if the request failed in the modal">
<polygon fill="white" stroke="black" points="494,-0.5 494,-19.5 741,-19.5 741,-0.5 494,-0.5"/>
<text text-anchor="middle" x="617.5" y="-7.5" font-family="Helvetica,sans-Serif" font-size="10.00">Game.UI.LeaderboardWindow.ShowRequestFail</text>
</a>
</g>
</g>
<!-- Node2&#45;&gt;Node7 -->
<g id="edge6" class="edge">
<title>Node2&#45;&gt;Node7</title>
<path fill="none" stroke="midnightblue" d="M370,-57.48C399.22,-49.06 443.71,-36.92 483,-29 497.78,-26.02 513.57,-23.34 528.93,-20.99"/>
<polygon fill="midnightblue" stroke="midnightblue" points="529.57,-24.44 538.94,-19.5 528.54,-17.51 529.57,-24.44"/>
</g>
<!-- Node4 -->
<g id="node4" class="node">
<title>Node4</title>
<g id="a_node4"><a xlink:href="classGame_1_1UI_1_1LeaderboardItem.html#a3d41fb9a51ff51b9e249c0831f4d788a" target="_top" xlink:title="Initializes the item">
<polygon fill="white" stroke="black" points="788,-114.5 788,-133.5 952,-133.5 952,-114.5 788,-114.5"/>
<text text-anchor="middle" x="870" y="-121.5" font-family="Helvetica,sans-Serif" font-size="10.00">Game.UI.LeaderboardItem.Init</text>
</a>
</g>
</g>
<!-- Node3&#45;&gt;Node4 -->
<g id="edge3" class="edge">
<title>Node3&#45;&gt;Node4</title>
<path fill="none" stroke="midnightblue" d="M733.85,-124C748.52,-124 763.38,-124 777.6,-124"/>
<polygon fill="midnightblue" stroke="midnightblue" points="777.84,-127.5 787.84,-124 777.84,-120.5 777.84,-127.5"/>
</g>
<!-- Node8 -->
<g id="node8" class="node">
<title>Node8</title>
<g id="a_node8"><a xlink:href="classUtility_1_1ModalWindow.html#adcef8cae2dffe4247c905d042ff0a8e3" target="_top" xlink:title="Show the modal window">
<polygon fill="white" stroke="black" points="797,-0.5 797,-19.5 943,-19.5 943,-0.5 797,-0.5"/>
<text text-anchor="middle" x="870" y="-7.5" font-family="Helvetica,sans-Serif" font-size="10.00">Utility.ModalWindow.Show</text>
</a>
</g>
</g>
<!-- Node7&#45;&gt;Node8 -->
<g id="edge7" class="edge">
<title>Node7&#45;&gt;Node8</title>
<path fill="none" stroke="midnightblue" d="M741.18,-10C756.54,-10 771.96,-10 786.5,-10"/>
<polygon fill="midnightblue" stroke="midnightblue" points="786.92,-13.5 796.92,-10 786.92,-6.5 786.92,-13.5"/>
</g>
</g>
</svg>
