<?xml version="1.0" encoding="UTF-8" standalone="no"?>
<!DOCTYPE svg PUBLIC "-//W3C//DTD SVG 1.1//EN"
 "http://www.w3.org/Graphics/SVG/1.1/DTD/svg11.dtd">
<!-- Generated by graphviz version 2.43.0 (0)
 -->
<!-- Title: Game.CarController.CapSpeed Pages: 1 -->
<svg width="546pt" height="66pt"
 viewBox="0.00 0.00 546.00 66.00" xmlns="http://www.w3.org/2000/svg" xmlns:xlink="http://www.w3.org/1999/xlink">
<g id="graph0" class="graph" transform="scale(1 1) rotate(0) translate(4 62)">
<title>Game.CarController.CapSpeed</title>
<polygon fill="white" stroke="transparent" points="-4,4 -4,-62 542,-62 542,4 -4,4"/>
<!-- Node1 -->
<g id="node1" class="node">
<title>Node1</title>
<g id="a_node1"><a xlink:title=" ">
<polygon fill="#bfbfbf" stroke="black" points="374,-19.5 374,-38.5 538,-38.5 538,-19.5 374,-19.5"/>
<text text-anchor="middle" x="456" y="-26.5" font-family="Helvetica,sans-Serif" font-size="10.00">Game.CarController.CapSpeed</text>
</a>
</g>
</g>
<!-- Node2 -->
<g id="node2" class="node">
<title>Node2</title>
<g id="a_node2"><a xlink:href="classGame_1_1CarController.html#ae3eb6260519b20b09bc1226be3919be2" target="_top" xlink:title=" ">
<polygon fill="white" stroke="black" points="195,-19.5 195,-38.5 338,-38.5 338,-19.5 195,-19.5"/>
<text text-anchor="middle" x="266.5" y="-26.5" font-family="Helvetica,sans-Serif" font-size="10.00">Game.CarController.Move</text>
</a>
</g>
</g>
<!-- Node1&#45;&gt;Node2 -->
<g id="edge1" class="edge">
<title>Node1&#45;&gt;Node2</title>
<path fill="none" stroke="midnightblue" d="M363.78,-29C355.18,-29 346.55,-29 338.18,-29"/>
<polygon fill="midnightblue" stroke="midnightblue" points="363.85,-32.5 373.85,-29 363.85,-25.5 363.85,-32.5"/>
</g>
<!-- Node3 -->
<g id="node3" class="node">
<title>Node3</title>
<g id="a_node3"><a xlink:href="classGame_1_1PlayerCar.html#a35789ca2a7fb0aedfa7f7d81d0ff639d" target="_top" xlink:title="Handle the user inputs">
<polygon fill="white" stroke="black" points="0,-38.5 0,-57.5 159,-57.5 159,-38.5 0,-38.5"/>
<text text-anchor="middle" x="79.5" y="-45.5" font-family="Helvetica,sans-Serif" font-size="10.00">Game.PlayerCar.FixedUpdate</text>
</a>
</g>
</g>
<!-- Node2&#45;&gt;Node3 -->
<g id="edge2" class="edge">
<title>Node2&#45;&gt;Node3</title>
<path fill="none" stroke="midnightblue" d="M184.58,-37.31C176.16,-38.18 167.61,-39.05 159.22,-39.92"/>
<polygon fill="midnightblue" stroke="midnightblue" points="185.18,-40.77 194.77,-36.26 184.46,-33.8 185.18,-40.77"/>
</g>
<!-- Node4 -->
<g id="node4" class="node">
<title>Node4</title>
<g id="a_node4"><a xlink:href="classGame_1_1CopCar.html#ad1e664d118f85d0c8b21e92d519c1e0b" target="_top" xlink:title="Called every frame">
<polygon fill="white" stroke="black" points="18.5,-0.5 18.5,-19.5 140.5,-19.5 140.5,-0.5 18.5,-0.5"/>
<text text-anchor="middle" x="79.5" y="-7.5" font-family="Helvetica,sans-Serif" font-size="10.00">Game.CopCar.Update</text>
</a>
</g>
</g>
<!-- Node2&#45;&gt;Node4 -->
<g id="edge3" class="edge">
<title>Node2&#45;&gt;Node4</title>
<path fill="none" stroke="midnightblue" d="M184.62,-20.69C169.85,-19.18 154.68,-17.62 140.64,-16.18"/>
<polygon fill="midnightblue" stroke="midnightblue" points="184.46,-24.2 194.77,-21.74 185.18,-17.23 184.46,-24.2"/>
</g>
</g>
</svg>
