<?xml version="1.0" encoding="UTF-8" standalone="no"?>
<!DOCTYPE svg PUBLIC "-//W3C//DTD SVG 1.1//EN"
 "http://www.w3.org/Graphics/SVG/1.1/DTD/svg11.dtd">
<!-- Generated by graphviz version 2.43.0 (0)
 -->
<!-- Title: Game.NpcCar Pages: 1 -->
<svg width="292pt" height="596pt"
 viewBox="0.00 0.00 292.00 596.00" xmlns="http://www.w3.org/2000/svg" xmlns:xlink="http://www.w3.org/1999/xlink">
<g id="graph0" class="graph" transform="scale(1 1) rotate(0) translate(4 592)">
<title>Game.NpcCar</title>
<polygon fill="white" stroke="transparent" points="-4,4 -4,-592 288,-592 288,4 -4,4"/>
<!-- Node1 -->
<g id="node1" class="node">
<title>Node1</title>
<g id="a_node1"><a xlink:title=" ">
<polygon fill="#bfbfbf" stroke="black" points="8.5,-94.5 8.5,-151.5 275.5,-151.5 275.5,-94.5 8.5,-94.5"/>
<text text-anchor="middle" x="142" y="-139.5" font-family="Helvetica,sans-Serif" font-size="10.00">Game.NpcCar</text>
<polyline fill="none" stroke="black" points="8.5,-132.5 275.5,-132.5 "/>
<text text-anchor="middle" x="142" y="-120.5" font-family="Helvetica,sans-Serif" font-size="10.00"> </text>
<polyline fill="none" stroke="black" points="8.5,-113.5 275.5,-113.5 "/>
<text text-anchor="start" x="16.5" y="-101.5" font-family="Helvetica,sans-Serif" font-size="10.00">+ float DetermineSteeringDirectionTowardsPlayer()</text>
</a>
</g>
</g>
<!-- Node5 -->
<g id="node5" class="node">
<title>Node5</title>
<g id="a_node5"><a xlink:href="classGame_1_1CopCar.html" target="_top" xlink:title=" ">
<polygon fill="white" stroke="black" points="73,-0.5 73,-57.5 211,-57.5 211,-0.5 73,-0.5"/>
<text text-anchor="middle" x="142" y="-45.5" font-family="Helvetica,sans-Serif" font-size="10.00">Game.CopCar</text>
<polyline fill="none" stroke="black" points="73,-38.5 211,-38.5 "/>
<text text-anchor="middle" x="142" y="-26.5" font-family="Helvetica,sans-Serif" font-size="10.00"> </text>
<polyline fill="none" stroke="black" points="73,-19.5 211,-19.5 "/>
<text text-anchor="start" x="81" y="-7.5" font-family="Helvetica,sans-Serif" font-size="10.00"># override void Update()</text>
</a>
</g>
</g>
<!-- Node1&#45;&gt;Node5 -->
<g id="edge4" class="edge">
<title>Node1&#45;&gt;Node5</title>
<path fill="none" stroke="midnightblue" d="M142,-84.21C142,-75.29 142,-65.95 142,-57.58"/>
<polygon fill="none" stroke="midnightblue" points="138.5,-84.4 142,-94.4 145.5,-84.4 138.5,-84.4"/>
</g>
<!-- Node2 -->
<g id="node2" class="node">
<title>Node2</title>
<g id="a_node2"><a xlink:href="classGame_1_1Car.html" target="_top" xlink:title=" ">
<polygon fill="white" stroke="black" points="0,-188.5 0,-399.5 284,-399.5 284,-188.5 0,-188.5"/>
<text text-anchor="middle" x="142" y="-387.5" font-family="Helvetica,sans-Serif" font-size="10.00">Car</text>
<polyline fill="none" stroke="black" points="0,-380.5 284,-380.5 "/>
<text text-anchor="start" x="8" y="-368.5" font-family="Helvetica,sans-Serif" font-size="10.00">+ EventHandler DestroyedEvent</text>
<text text-anchor="start" x="8" y="-357.5" font-family="Helvetica,sans-Serif" font-size="10.00">+ float Health</text>
<text text-anchor="start" x="8" y="-346.5" font-family="Helvetica,sans-Serif" font-size="10.00">+ float MAX_HEALTH</text>
<text text-anchor="start" x="8" y="-335.5" font-family="Helvetica,sans-Serif" font-size="10.00">+ bool Alive</text>
<text text-anchor="start" x="8" y="-324.5" font-family="Helvetica,sans-Serif" font-size="10.00"># GameController gameController</text>
<text text-anchor="start" x="8" y="-313.5" font-family="Helvetica,sans-Serif" font-size="10.00"># CarController carController</text>
<text text-anchor="start" x="8" y="-302.5" font-family="Helvetica,sans-Serif" font-size="10.00"># Chunk lastChunk</text>
<text text-anchor="start" x="8" y="-291.5" font-family="Helvetica,sans-Serif" font-size="10.00"># Dictionary&lt; EffectType, EffectScript &gt; effects</text>
<text text-anchor="start" x="8" y="-280.5" font-family="Helvetica,sans-Serif" font-size="10.00">&#45; float health</text>
<polyline fill="none" stroke="black" points="0,-273.5 284,-273.5 "/>
<text text-anchor="start" x="8" y="-261.5" font-family="Helvetica,sans-Serif" font-size="10.00">+ void Kill()</text>
<text text-anchor="start" x="8" y="-250.5" font-family="Helvetica,sans-Serif" font-size="10.00">+ void Init(GameController world)</text>
<text text-anchor="start" x="8" y="-239.5" font-family="Helvetica,sans-Serif" font-size="10.00"># virtual void Update()</text>
<text text-anchor="start" x="8" y="-228.5" font-family="Helvetica,sans-Serif" font-size="10.00"># bool ChangeChunkIfNeeded()</text>
<text text-anchor="start" x="8" y="-217.5" font-family="Helvetica,sans-Serif" font-size="10.00"># virtual async void ChunkChanged(Chunk newChunk)</text>
<text text-anchor="start" x="8" y="-206.5" font-family="Helvetica,sans-Serif" font-size="10.00"># virtual void OnCollisionEnter(Collision collision)</text>
<text text-anchor="start" x="8" y="-195.5" font-family="Helvetica,sans-Serif" font-size="10.00"># void Awake()</text>
</a>
</g>
</g>
<!-- Node2&#45;&gt;Node1 -->
<g id="edge1" class="edge">
<title>Node2&#45;&gt;Node1</title>
<path fill="none" stroke="midnightblue" d="M142,-178.1C142,-168.43 142,-159.37 142,-151.53"/>
<polygon fill="none" stroke="midnightblue" points="138.5,-178.37 142,-188.37 145.5,-178.37 138.5,-178.37"/>
</g>
<!-- Node3 -->
<g id="node3" class="node">
<title>Node3</title>
<g id="a_node3"><a xlink:href="classUtility_1_1ThreadSafeMonoBehaviour.html" target="_top" xlink:title="Safely stores if the gameobject been destroyed in a bool">
<polygon fill="white" stroke="black" points="67.5,-436.5 67.5,-493.5 216.5,-493.5 216.5,-436.5 67.5,-436.5"/>
<text text-anchor="middle" x="142" y="-481.5" font-family="Helvetica,sans-Serif" font-size="10.00">ThreadSafeMonoBehaviour</text>
<polyline fill="none" stroke="black" points="67.5,-474.5 216.5,-474.5 "/>
<text text-anchor="start" x="75.5" y="-462.5" font-family="Helvetica,sans-Serif" font-size="10.00">+ bool Destroyed</text>
<polyline fill="none" stroke="black" points="67.5,-455.5 216.5,-455.5 "/>
<text text-anchor="start" x="75.5" y="-443.5" font-family="Helvetica,sans-Serif" font-size="10.00"># void OnDestroy()</text>
</a>
</g>
</g>
<!-- Node3&#45;&gt;Node2 -->
<g id="edge2" class="edge">
<title>Node3&#45;&gt;Node2</title>
<path fill="none" stroke="midnightblue" d="M142,-426.23C142,-418.04 142,-408.99 142,-399.58"/>
<polygon fill="none" stroke="midnightblue" points="138.5,-426.47 142,-436.47 145.5,-426.47 138.5,-426.47"/>
</g>
<!-- Node4 -->
<g id="node4" class="node">
<title>Node4</title>
<g id="a_node4"><a xlink:title=" ">
<polygon fill="white" stroke="#bfbfbf" points="95.5,-530.5 95.5,-587.5 188.5,-587.5 188.5,-530.5 95.5,-530.5"/>
<text text-anchor="middle" x="142" y="-575.5" font-family="Helvetica,sans-Serif" font-size="10.00">MonoBehaviour</text>
<polyline fill="none" stroke="#bfbfbf" points="95.5,-568.5 188.5,-568.5 "/>
<text text-anchor="middle" x="142" y="-556.5" font-family="Helvetica,sans-Serif" font-size="10.00"> </text>
<polyline fill="none" stroke="#bfbfbf" points="95.5,-549.5 188.5,-549.5 "/>
<text text-anchor="middle" x="142" y="-537.5" font-family="Helvetica,sans-Serif" font-size="10.00"> </text>
</a>
</g>
</g>
<!-- Node4&#45;&gt;Node3 -->
<g id="edge3" class="edge">
<title>Node4&#45;&gt;Node3</title>
<path fill="none" stroke="midnightblue" d="M142,-520.21C142,-511.29 142,-501.95 142,-493.58"/>
<polygon fill="none" stroke="midnightblue" points="138.5,-520.4 142,-530.4 145.5,-520.4 138.5,-520.4"/>
</g>
</g>
</svg>
