<?xml version="1.0" encoding="UTF-8" standalone="no"?>
<!DOCTYPE svg PUBLIC "-//W3C//DTD SVG 1.1//EN"
 "http://www.w3.org/Graphics/SVG/1.1/DTD/svg11.dtd">
<!-- Generated by graphviz version 2.43.0 (0)
 -->
<!-- Title: Game.CarController.Move Pages: 1 -->
<svg width="591pt" height="180pt"
 viewBox="0.00 0.00 591.00 180.00" xmlns="http://www.w3.org/2000/svg" xmlns:xlink="http://www.w3.org/1999/xlink">
<g id="graph0" class="graph" transform="scale(1 1) rotate(0) translate(4 176)">
<title>Game.CarController.Move</title>
<polygon fill="white" stroke="transparent" points="-4,4 -4,-176 587,-176 587,4 -4,4"/>
<!-- Node1 -->
<g id="node1" class="node">
<title>Node1</title>
<g id="a_node1"><a xlink:title=" ">
<polygon fill="#bfbfbf" stroke="black" points="0,-76.5 0,-95.5 143,-95.5 143,-76.5 0,-76.5"/>
<text text-anchor="middle" x="71.5" y="-83.5" font-family="Helvetica,sans-Serif" font-size="10.00">Game.CarController.Move</text>
</a>
</g>
</g>
<!-- Node2 -->
<g id="node2" class="node">
<title>Node2</title>
<g id="a_node2"><a xlink:href="classGame_1_1CarController.html#afadda4712607531e93172fcd43557f14" target="_top" xlink:title=" ">
<polygon fill="white" stroke="black" points="179.5,-152.5 179.5,-171.5 367.5,-171.5 367.5,-152.5 179.5,-152.5"/>
<text text-anchor="middle" x="273.5" y="-159.5" font-family="Helvetica,sans-Serif" font-size="10.00">Game.CarController.AddDownForce</text>
</a>
</g>
</g>
<!-- Node1&#45;&gt;Node2 -->
<g id="edge1" class="edge">
<title>Node1&#45;&gt;Node2</title>
<path fill="none" stroke="midnightblue" d="M87.03,-95.55C106.96,-108.24 144.28,-130.48 179,-143 186.53,-145.72 194.56,-148.08 202.61,-150.14"/>
<polygon fill="midnightblue" stroke="midnightblue" points="201.89,-153.56 212.43,-152.49 203.52,-146.76 201.89,-153.56"/>
</g>
<!-- Node3 -->
<g id="node3" class="node">
<title>Node3</title>
<g id="a_node3"><a xlink:href="classGame_1_1CarController.html#aebd7dfca747e22622550ce42076052af" target="_top" xlink:title=" ">
<polygon fill="white" stroke="black" points="188.5,-114.5 188.5,-133.5 358.5,-133.5 358.5,-114.5 188.5,-114.5"/>
<text text-anchor="middle" x="273.5" y="-121.5" font-family="Helvetica,sans-Serif" font-size="10.00">Game.CarController.ApplyDrive</text>
</a>
</g>
</g>
<!-- Node1&#45;&gt;Node3 -->
<g id="edge2" class="edge">
<title>Node1&#45;&gt;Node3</title>
<path fill="none" stroke="midnightblue" d="M122.71,-95.54C149.93,-100.71 183.76,-107.14 212.38,-112.58"/>
<polygon fill="midnightblue" stroke="midnightblue" points="211.79,-116.03 222.27,-114.46 213.1,-109.15 211.79,-116.03"/>
</g>
<!-- Node4 -->
<g id="node4" class="node">
<title>Node4</title>
<g id="a_node4"><a xlink:href="classGame_1_1CarController.html#a906b060eb3177f7706893b9e0e098dc8" target="_top" xlink:title=" ">
<polygon fill="white" stroke="black" points="191.5,-76.5 191.5,-95.5 355.5,-95.5 355.5,-76.5 191.5,-76.5"/>
<text text-anchor="middle" x="273.5" y="-83.5" font-family="Helvetica,sans-Serif" font-size="10.00">Game.CarController.CapSpeed</text>
</a>
</g>
</g>
<!-- Node1&#45;&gt;Node4 -->
<g id="edge3" class="edge">
<title>Node1&#45;&gt;Node4</title>
<path fill="none" stroke="midnightblue" d="M143.01,-86C155.35,-86 168.34,-86 181.14,-86"/>
<polygon fill="midnightblue" stroke="midnightblue" points="181.35,-89.5 191.35,-86 181.35,-82.5 181.35,-89.5"/>
</g>
<!-- Node5 -->
<g id="node5" class="node">
<title>Node5</title>
<g id="a_node5"><a xlink:href="classGame_1_1CarController.html#a764c5ed47cd5bb83923e9fa443935af7" target="_top" xlink:title=" ">
<polygon fill="white" stroke="black" points="187,-38.5 187,-57.5 360,-57.5 360,-38.5 187,-38.5"/>
<text text-anchor="middle" x="273.5" y="-45.5" font-family="Helvetica,sans-Serif" font-size="10.00">Game.CarController.SteerHelper</text>
</a>
</g>
</g>
<!-- Node1&#45;&gt;Node5 -->
<g id="edge4" class="edge">
<title>Node1&#45;&gt;Node5</title>
<path fill="none" stroke="midnightblue" d="M122.71,-76.46C149.93,-71.29 183.76,-64.86 212.38,-59.42"/>
<polygon fill="midnightblue" stroke="midnightblue" points="213.1,-62.85 222.27,-57.54 211.79,-55.97 213.1,-62.85"/>
</g>
<!-- Node6 -->
<g id="node6" class="node">
<title>Node6</title>
<g id="a_node6"><a xlink:href="classGame_1_1CarController.html#a298e55b1a36b51f9c4e4aa7883056a00" target="_top" xlink:title=" ">
<polygon fill="white" stroke="black" points="179,-0.5 179,-19.5 368,-19.5 368,-0.5 179,-0.5"/>
<text text-anchor="middle" x="273.5" y="-7.5" font-family="Helvetica,sans-Serif" font-size="10.00">Game.CarController.TractionControl</text>
</a>
</g>
</g>
<!-- Node1&#45;&gt;Node6 -->
<g id="edge5" class="edge">
<title>Node1&#45;&gt;Node6</title>
<path fill="none" stroke="midnightblue" d="M87.03,-76.45C106.96,-63.76 144.28,-41.52 179,-29 186.53,-26.28 194.56,-23.92 202.61,-21.86"/>
<polygon fill="midnightblue" stroke="midnightblue" points="203.52,-25.24 212.43,-19.51 201.89,-18.44 203.52,-25.24"/>
</g>
<!-- Node7 -->
<g id="node7" class="node">
<title>Node7</title>
<g id="a_node7"><a xlink:href="classGame_1_1CarController.html#a7589f8f5b951a0d3283790774bf97493" target="_top" xlink:title=" ">
<polygon fill="white" stroke="black" points="404,-0.5 404,-19.5 583,-19.5 583,-0.5 404,-0.5"/>
<text text-anchor="middle" x="493.5" y="-7.5" font-family="Helvetica,sans-Serif" font-size="10.00">Game.CarController.AdjustTorque</text>
</a>
</g>
</g>
<!-- Node6&#45;&gt;Node7 -->
<g id="edge6" class="edge">
<title>Node6&#45;&gt;Node7</title>
<path fill="none" stroke="midnightblue" d="M368.22,-10C376.59,-10 385.08,-10 393.49,-10"/>
<polygon fill="midnightblue" stroke="midnightblue" points="393.69,-13.5 403.69,-10 393.69,-6.5 393.69,-13.5"/>
</g>
</g>
</svg>
