<?xml version="1.0" encoding="UTF-8" standalone="no"?>
<!DOCTYPE svg PUBLIC "-//W3C//DTD SVG 1.1//EN"
 "http://www.w3.org/Graphics/SVG/1.1/DTD/svg11.dtd">
<!-- Generated by graphviz version 2.43.0 (0)
 -->
<!-- Title: MainPage.TaskOpenPanelController.DeletedTask Pages: 1 -->
<svg width="1435pt" height="85pt"
 viewBox="0.00 0.00 1435.00 85.00" xmlns="http://www.w3.org/2000/svg" xmlns:xlink="http://www.w3.org/1999/xlink">
<g id="graph0" class="graph" transform="scale(1 1) rotate(0) translate(4 81)">
<title>MainPage.TaskOpenPanelController.DeletedTask</title>
<polygon fill="white" stroke="transparent" points="-4,4 -4,-81 1431,-81 1431,4 -4,4"/>
<!-- Node1 -->
<g id="node1" class="node">
<title>Node1</title>
<g id="a_node1"><a xlink:title="After the task were deleted from the server delete it also from the client">
<polygon fill="#bfbfbf" stroke="black" points="0,-19.5 0,-38.5 251,-38.5 251,-19.5 0,-19.5"/>
<text text-anchor="middle" x="125.5" y="-26.5" font-family="Helvetica,sans-Serif" font-size="10.00">MainPage.TaskOpenPanelController.DeletedTask</text>
</a>
</g>
</g>
<!-- Node2 -->
<g id="node2" class="node">
<title>Node2</title>
<g id="a_node2"><a xlink:href="classMainPage_1_1TaskOpenPanelController.html#af1b5c03c4cfe46084a34093435f79fee" target="_top" xlink:title="Cancel this edit/task creation">
<polygon fill="white" stroke="black" points="296,-38.5 296,-57.5 520,-57.5 520,-38.5 296,-38.5"/>
<text text-anchor="middle" x="408" y="-45.5" font-family="Helvetica,sans-Serif" font-size="10.00">MainPage.TaskOpenPanelController.Cancel</text>
</a>
</g>
</g>
<!-- Node1&#45;&gt;Node2 -->
<g id="edge1" class="edge">
<title>Node1&#45;&gt;Node2</title>
<path fill="none" stroke="midnightblue" d="M251.16,-37.44C262.71,-38.23 274.39,-39.02 285.9,-39.8"/>
<polygon fill="midnightblue" stroke="midnightblue" points="285.75,-43.3 295.97,-40.48 286.23,-36.31 285.75,-43.3"/>
</g>
<!-- Node8 -->
<g id="node8" class="node">
<title>Node8</title>
<g id="a_node8"><a xlink:href="classMainPage_1_1MainWindowController.html#ab6e865f33e604878bb40346d5f6657c9" target="_top" xlink:title="Remove the task with the given id">
<polygon fill="white" stroke="black" points="287,-0.5 287,-19.5 529,-19.5 529,-0.5 287,-0.5"/>
<text text-anchor="middle" x="408" y="-7.5" font-family="Helvetica,sans-Serif" font-size="10.00">MainPage.MainWindowController.RemoveTask</text>
</a>
</g>
</g>
<!-- Node1&#45;&gt;Node8 -->
<g id="edge10" class="edge">
<title>Node1&#45;&gt;Node8</title>
<path fill="none" stroke="midnightblue" d="M251.16,-20.56C259.68,-19.98 268.28,-19.4 276.83,-18.82"/>
<polygon fill="midnightblue" stroke="midnightblue" points="277.09,-22.31 286.83,-18.14 276.61,-15.32 277.09,-22.31"/>
</g>
<!-- Node3 -->
<g id="node3" class="node">
<title>Node3</title>
<g id="a_node3"><a xlink:href="classMainPage_1_1MainWindowController.html#a241b480aeebdab1bc34320cad8de7712" target="_top" xlink:title="Load the good habits">
<polygon fill="white" stroke="black" points="566,-57.5 566,-76.5 820,-76.5 820,-57.5 566,-57.5"/>
<text text-anchor="middle" x="693" y="-64.5" font-family="Helvetica,sans-Serif" font-size="10.00">MainPage.MainWindowController.LoadBadHabits</text>
</a>
</g>
</g>
<!-- Node2&#45;&gt;Node3 -->
<g id="edge2" class="edge">
<title>Node2&#45;&gt;Node3</title>
<path fill="none" stroke="midnightblue" d="M520.04,-55.45C531.77,-56.24 543.8,-57.05 555.78,-57.85"/>
<polygon fill="midnightblue" stroke="midnightblue" points="555.61,-61.35 565.82,-58.53 556.08,-54.37 555.61,-61.35"/>
</g>
<!-- Node6 -->
<g id="node6" class="node">
<title>Node6</title>
<g id="a_node6"><a xlink:href="classMainPage_1_1MainWindowController.html#ab5b80370512cd4273e86927fe696462d" target="_top" xlink:title="Load the good tasks">
<polygon fill="white" stroke="black" points="565,-19.5 565,-38.5 821,-38.5 821,-19.5 565,-19.5"/>
<text text-anchor="middle" x="693" y="-26.5" font-family="Helvetica,sans-Serif" font-size="10.00">MainPage.MainWindowController.LoadGoodTasks</text>
</a>
</g>
</g>
<!-- Node2&#45;&gt;Node6 -->
<g id="edge6" class="edge">
<title>Node2&#45;&gt;Node6</title>
<path fill="none" stroke="midnightblue" d="M520.04,-40.55C531.41,-39.78 543.07,-39 554.68,-38.22"/>
<polygon fill="midnightblue" stroke="midnightblue" points="555.13,-41.7 564.88,-37.53 554.66,-34.71 555.13,-41.7"/>
</g>
<!-- Node4 -->
<g id="node4" class="node">
<title>Node4</title>
<g id="a_node4"><a xlink:href="classMainPage_1_1TaskOpenPanelController.html#a5513399c20f650915ca10f54805f416e" target="_top" xlink:title="Make this task a bad habit">
<polygon fill="white" stroke="black" points="858,-57.5 858,-76.5 1127,-76.5 1127,-57.5 858,-57.5"/>
<text text-anchor="middle" x="992.5" y="-64.5" font-family="Helvetica,sans-Serif" font-size="10.00">MainPage.TaskOpenPanelController.MakeItBadHabit</text>
</a>
</g>
</g>
<!-- Node3&#45;&gt;Node4 -->
<g id="edge3" class="edge">
<title>Node3&#45;&gt;Node4</title>
<path fill="none" stroke="midnightblue" d="M820.17,-60.32C829.35,-60.26 838.66,-60.24 847.94,-60.25"/>
<polygon fill="midnightblue" stroke="midnightblue" points="847.98,-63.75 857.99,-60.28 848,-56.75 847.98,-63.75"/>
</g>
<!-- Node4&#45;&gt;Node3 -->
<g id="edge4" class="edge">
<title>Node4&#45;&gt;Node3</title>
<path fill="none" stroke="midnightblue" d="M857.99,-73.72C848.75,-73.76 839.43,-73.76 830.18,-73.73"/>
<polygon fill="midnightblue" stroke="midnightblue" points="830.18,-70.23 820.17,-73.68 830.15,-77.23 830.18,-70.23"/>
</g>
<!-- Node5 -->
<g id="node5" class="node">
<title>Node5</title>
<g id="a_node5"><a xlink:href="classMainPage_1_1TaskOpenPanelController.html#aa0b6757dbad141375c50282278b23b1a" target="_top" xlink:title="Update the buttons with the appropriate color based on the current task">
<polygon fill="white" stroke="black" points="1164,-38.5 1164,-57.5 1427,-57.5 1427,-38.5 1164,-38.5"/>
<text text-anchor="middle" x="1295.5" y="-45.5" font-family="Helvetica,sans-Serif" font-size="10.00">MainPage.TaskOpenPanelController.UpdateButtons</text>
</a>
</g>
</g>
<!-- Node4&#45;&gt;Node5 -->
<g id="edge5" class="edge">
<title>Node4&#45;&gt;Node5</title>
<path fill="none" stroke="midnightblue" d="M1127.28,-58.56C1135.97,-58.01 1144.73,-57.45 1153.45,-56.9"/>
<polygon fill="midnightblue" stroke="midnightblue" points="1153.91,-60.38 1163.67,-56.26 1153.46,-53.4 1153.91,-60.38"/>
</g>
<!-- Node7 -->
<g id="node7" class="node">
<title>Node7</title>
<g id="a_node7"><a xlink:href="classMainPage_1_1TaskOpenPanelController.html#a069a63e2b7e70cc4cb4c7e487b655700" target="_top" xlink:title="Make it a good task">
<polygon fill="white" stroke="black" points="857,-19.5 857,-38.5 1128,-38.5 1128,-19.5 857,-19.5"/>
<text text-anchor="middle" x="992.5" y="-26.5" font-family="Helvetica,sans-Serif" font-size="10.00">MainPage.TaskOpenPanelController.MakeItGoodTask</text>
</a>
</g>
</g>
<!-- Node6&#45;&gt;Node7 -->
<g id="edge7" class="edge">
<title>Node6&#45;&gt;Node7</title>
<path fill="none" stroke="midnightblue" d="M821.03,-22.31C829.54,-22.26 838.15,-22.24 846.75,-22.25"/>
<polygon fill="midnightblue" stroke="midnightblue" points="846.81,-25.75 856.82,-22.28 846.83,-18.75 846.81,-25.75"/>
</g>
<!-- Node7&#45;&gt;Node5 -->
<g id="edge9" class="edge">
<title>Node7&#45;&gt;Node5</title>
<path fill="none" stroke="midnightblue" d="M1128.15,-37.5C1136.7,-38.04 1145.32,-38.58 1153.9,-39.12"/>
<polygon fill="midnightblue" stroke="midnightblue" points="1153.74,-42.62 1163.94,-39.76 1154.18,-35.64 1153.74,-42.62"/>
</g>
<!-- Node7&#45;&gt;Node6 -->
<g id="edge8" class="edge">
<title>Node7&#45;&gt;Node6</title>
<path fill="none" stroke="midnightblue" d="M856.82,-35.72C848.26,-35.76 839.63,-35.76 831.06,-35.73"/>
<polygon fill="midnightblue" stroke="midnightblue" points="831.05,-32.23 821.03,-35.69 831.01,-39.23 831.05,-32.23"/>
</g>
</g>
</svg>
