<?xml version="1.0" encoding="UTF-8" standalone="no"?>
<!DOCTYPE svg PUBLIC "-//W3C//DTD SVG 1.1//EN"
 "http://www.w3.org/Graphics/SVG/1.1/DTD/svg11.dtd">
<!-- Generated by graphviz version 2.43.0 (0)
 -->
<!-- Title: Game.World.Chunk Pages: 1 -->
<!--zoomable 976 -->
<svg id="main" version="1.1" xmlns="http://www.w3.org/2000/svg" xmlns:xlink="http://www.w3.org/1999/xlink" xml:space="preserve" onload="init(evt)">
<style type="text/css"><![CDATA[
.edge:hover path { stroke: red; }
.edge:hover polygon { stroke: red; fill: red; }
]]></style>
<script type="text/javascript"><![CDATA[
var edges = document.getElementsByTagName('g');
if (edges && edges.length) {
  for (var i=0;i<edges.length;i++) {
    if (edges[i].id.substr(0,4)=='edge') {
      edges[i].setAttribute('class','edge');
    }
  }
}
]]></script>
        <defs>
                <circle id="rim" cx="0" cy="0" r="7"/>
                <circle id="rim2" cx="0" cy="0" r="3.5"/>
                <g id="zoomPlus">
                        <use xlink:href="#rim" fill="#404040">
                                <set attributeName="fill" to="#808080" begin="zoomplus.mouseover" end="zoomplus.mouseout"/>
                        </use>
                        <path d="M-4,0h8M0,-4v8" fill="none" stroke="white" stroke-width="1.5" pointer-events="none"/>
                </g>
                <g id="zoomMin">
                        <use xlink:href="#rim" fill="#404040">
                                <set attributeName="fill" to="#808080" begin="zoomminus.mouseover" end="zoomminus.mouseout"/>
                        </use>
                        <path d="M-4,0h8" fill="none" stroke="white" stroke-width="1.5" pointer-events="none"/>
                </g>
                <g id="dirArrow">
                        <path fill="none" stroke="white" stroke-width="1.5" d="M0,-3.0v7 M-2.5,-0.5L0,-3.0L2.5,-0.5"/>
                </g>
               <g id="resetDef">
                       <use xlink:href="#rim2" fill="#404040">
                               <set attributeName="fill" to="#808080" begin="reset.mouseover" end="reset.mouseout"/>
                       </use>
               </g>
        </defs>

<script type="text/javascript">
var viewWidth = 594;
var viewHeight = 976;
var sectionId = 'dynsection-1';
</script>
<script xlink:href="svgpan.js"/>
<svg id="graph" class="graph">
<g id="viewport">
<title>Game.World.Chunk</title>
<polygon fill="white" stroke="transparent" points="-4,4 -4,-972 589.5,-972 589.5,4 -4,4"/>
<!-- Node1 -->
<g id="node1" class="node">
<title>Node1</title>
<g id="a_node1"><a xlink:title="Stores a single chunk of the world">
<polygon fill="#bfbfbf" stroke="black" points="161,-226.5 161,-723.5 496,-723.5 496,-226.5 161,-226.5"/>
<text text-anchor="middle" x="328.5" y="-711.5" font-family="Helvetica,sans-Serif" font-size="10.00">Game.World.Chunk</text>
<polyline fill="none" stroke="black" points="161,-704.5 496,-704.5 "/>
<text text-anchor="start" x="169" y="-692.5" font-family="Helvetica,sans-Serif" font-size="10.00">+ float XOffset</text>
<text text-anchor="start" x="169" y="-681.5" font-family="Helvetica,sans-Serif" font-size="10.00">+ float ZOffset</text>
<text text-anchor="start" x="169" y="-670.5" font-family="Helvetica,sans-Serif" font-size="10.00">+ bool RandomizeOffset</text>
<text text-anchor="start" x="169" y="-659.5" font-family="Helvetica,sans-Serif" font-size="10.00">+ GameObject straightRoadPrefab</text>
<text text-anchor="start" x="169" y="-648.5" font-family="Helvetica,sans-Serif" font-size="10.00">+ GameObject grassPrefab</text>
<text text-anchor="start" x="169" y="-637.5" font-family="Helvetica,sans-Serif" font-size="10.00">+ GameObject coinPrefab</text>
<text text-anchor="start" x="169" y="-626.5" font-family="Helvetica,sans-Serif" font-size="10.00">+ int? zSize</text>
<text text-anchor="start" x="169" y="-615.5" font-family="Helvetica,sans-Serif" font-size="10.00">+ int? xSize</text>
<text text-anchor="start" x="169" y="-604.5" font-family="Helvetica,sans-Serif" font-size="10.00">+ int Row</text>
<text text-anchor="start" x="169" y="-593.5" font-family="Helvetica,sans-Serif" font-size="10.00">+ int Col</text>
<text text-anchor="start" x="169" y="-582.5" font-family="Helvetica,sans-Serif" font-size="10.00">+ bool[,] Roads</text>
<text text-anchor="start" x="169" y="-571.5" font-family="Helvetica,sans-Serif" font-size="10.00">+ List&lt; EdgeRoadContainer &gt;? EdgeRoads</text>
<text text-anchor="start" x="169" y="-560.5" font-family="Helvetica,sans-Serif" font-size="10.00">&#45; GameObject curvedRoadPrefab</text>
<text text-anchor="start" x="169" y="-549.5" font-family="Helvetica,sans-Serif" font-size="10.00">&#45; GameObject threeWayRoadPrefab</text>
<text text-anchor="start" x="169" y="-538.5" font-family="Helvetica,sans-Serif" font-size="10.00">&#45; GameObject crossRoadsPrefab</text>
<text text-anchor="start" x="169" y="-527.5" font-family="Helvetica,sans-Serif" font-size="10.00">&#45; List&lt; Building &gt; buildings</text>
<text text-anchor="start" x="169" y="-516.5" font-family="Helvetica,sans-Serif" font-size="10.00">&#45; List&lt; Prop &gt; props</text>
<text text-anchor="start" x="169" y="-505.5" font-family="Helvetica,sans-Serif" font-size="10.00">&#45; Dictionary&lt; ChunkCellType, List&lt; Vector3 &gt; &gt; chunkCells</text>
<text text-anchor="start" x="169" y="-494.5" font-family="Helvetica,sans-Serif" font-size="10.00">&#45; List&lt; Vector3Int &gt; roads</text>
<text text-anchor="start" x="169" y="-483.5" font-family="Helvetica,sans-Serif" font-size="10.00">&#45; Dictionary&lt; ChunkCellType, List&lt; GameObject &gt; &gt;</text>
<text text-anchor="start" x="169" y="-472.5" font-family="Helvetica,sans-Serif" font-size="10.00"> objectsToCombine</text>
<text text-anchor="start" x="169" y="-461.5" font-family="Helvetica,sans-Serif" font-size="10.00">&#45; float</text>
<polyline fill="none" stroke="black" points="161,-454.5 496,-454.5 "/>
<text text-anchor="start" x="169" y="-442.5" font-family="Helvetica,sans-Serif" font-size="10.00">+ void Display()</text>
<text text-anchor="start" x="169" y="-431.5" font-family="Helvetica,sans-Serif" font-size="10.00">+ async Task InitChunk(int col, int row, List&lt; EdgeRoadContainer</text>
<text text-anchor="start" x="169" y="-420.5" font-family="Helvetica,sans-Serif" font-size="10.00"> &gt; edgeRoads, GameWorld world)</text>
<text text-anchor="start" x="169" y="-409.5" font-family="Helvetica,sans-Serif" font-size="10.00">+ void HideChunk()</text>
<text text-anchor="start" x="169" y="-398.5" font-family="Helvetica,sans-Serif" font-size="10.00">+ Vector3 GetARandomRoad()</text>
<text text-anchor="start" x="169" y="-387.5" font-family="Helvetica,sans-Serif" font-size="10.00">+ async Task SpawnWorldObjects()</text>
<text text-anchor="start" x="169" y="-376.5" font-family="Helvetica,sans-Serif" font-size="10.00">+ static void InitUniTaskLoop()</text>
<text text-anchor="start" x="169" y="-365.5" font-family="Helvetica,sans-Serif" font-size="10.00">&#45; async void Awake()</text>
<text text-anchor="start" x="169" y="-354.5" font-family="Helvetica,sans-Serif" font-size="10.00">&#45; void BuildingLoaded(GameObject building)</text>
<text text-anchor="start" x="169" y="-343.5" font-family="Helvetica,sans-Serif" font-size="10.00">&#45; void PropLoaded(GameObject prop)</text>
<text text-anchor="start" x="169" y="-332.5" font-family="Helvetica,sans-Serif" font-size="10.00">&#45; float GetAbsolutePosition()</text>
<text text-anchor="start" x="169" y="-321.5" font-family="Helvetica,sans-Serif" font-size="10.00">&#45; void LoadFromSettings()</text>
<text text-anchor="start" x="169" y="-310.5" font-family="Helvetica,sans-Serif" font-size="10.00">&#45; void CreateTiles()</text>
<text text-anchor="start" x="169" y="-299.5" font-family="Helvetica,sans-Serif" font-size="10.00">&#45; ChunkCellContainer DetermineRoadType(int col, int row)</text>
<text text-anchor="start" x="169" y="-288.5" font-family="Helvetica,sans-Serif" font-size="10.00">&#45; ChunkCellContainer DetermineTileType(int x, int z)</text>
<text text-anchor="start" x="169" y="-277.5" font-family="Helvetica,sans-Serif" font-size="10.00">&#45; void GenerateCellMatrix()</text>
<text text-anchor="start" x="169" y="-266.5" font-family="Helvetica,sans-Serif" font-size="10.00">&#45; IEnumerator AddRoadBuildings()</text>
<text text-anchor="start" x="169" y="-255.5" font-family="Helvetica,sans-Serif" font-size="10.00">&#45; IEnumerator AddEnvironmentProps()</text>
<text text-anchor="start" x="169" y="-244.5" font-family="Helvetica,sans-Serif" font-size="10.00">&#45; void LockAndTryToPlaceBuilding(int index, int row, int col)</text>
<text text-anchor="start" x="169" y="-233.5" font-family="Helvetica,sans-Serif" font-size="10.00">&#45; async Task&lt; Chunk[,]&gt; GetNearbyChunks(int row, int col)</text>
</a>
</g>
</g>
<!-- Node5 -->
<g id="node5" class="node">
<title>Node5</title>
<g id="a_node5"><a xlink:href="classGame_1_1World_1_1GameWorld.html" target="_top" xlink:title="A class for handling chunk loading and unloading">
<polygon fill="white" stroke="black" points="0,-33.5 0,-145.5 263,-145.5 263,-33.5 0,-33.5"/>
<text text-anchor="middle" x="131.5" y="-133.5" font-family="Helvetica,sans-Serif" font-size="10.00">Game.World.GameWorld</text>
<polyline fill="none" stroke="black" points="0,-126.5 263,-126.5 "/>
<text text-anchor="start" x="8" y="-114.5" font-family="Helvetica,sans-Serif" font-size="10.00">&#45; GameObject ChunkPrefab</text>
<polyline fill="none" stroke="black" points="0,-107.5 263,-107.5 "/>
<text text-anchor="start" x="8" y="-95.5" font-family="Helvetica,sans-Serif" font-size="10.00">+ Chunk GetChunk(Vector3 GameObjectPos)</text>
<text text-anchor="start" x="8" y="-84.5" font-family="Helvetica,sans-Serif" font-size="10.00">+ async Task CreateNewGame()</text>
<text text-anchor="start" x="8" y="-73.5" font-family="Helvetica,sans-Serif" font-size="10.00">+ async Task LoadChunk(int x, int z)</text>
<text text-anchor="start" x="8" y="-62.5" font-family="Helvetica,sans-Serif" font-size="10.00">+ void HideChunk(int col, int row)</text>
<text text-anchor="start" x="8" y="-51.5" font-family="Helvetica,sans-Serif" font-size="10.00">+ Chunk GetChunkWithoutLoad(int col, int row)</text>
<text text-anchor="start" x="8" y="-40.5" font-family="Helvetica,sans-Serif" font-size="10.00">+ async Task&lt; Chunk &gt; GetChunk(int col, int row)</text>
</a>
</g>
</g>
<!-- Node1&#45;&gt;Node5 -->
<g id="edge6" class="edge">
<title>Node1&#45;&gt;Node5</title>
<path fill="none" stroke="#404040" d="M244.79,-226.23C239.6,-216.2 234.18,-206.41 228.5,-197 219.77,-182.52 208.89,-168.27 197.6,-155.12"/>
<polygon fill="none" stroke="#404040" points="197.28,-154.76 190.31,-152.91 189.33,-145.76 196.3,-147.61 197.28,-154.76"/>
<text text-anchor="middle" x="255" y="-200" font-family="Helvetica,sans-Serif" font-size="10.00"> &#45;Chunks</text>
</g>
<!-- Node6 -->
<g id="node6" class="node">
<title>Node6</title>
<g id="a_node6"><a xlink:href="classGame_1_1World_1_1RoadGenerator.html" target="_top" xlink:title="Generates a new road structure">
<polygon fill="white" stroke="black" points="281.5,-0.5 281.5,-178.5 585.5,-178.5 585.5,-0.5 281.5,-0.5"/>
<text text-anchor="middle" x="433.5" y="-166.5" font-family="Helvetica,sans-Serif" font-size="10.00">Game.World.RoadGenerator</text>
<polyline fill="none" stroke="black" points="281.5,-159.5 585.5,-159.5 "/>
<text text-anchor="start" x="289.5" y="-147.5" font-family="Helvetica,sans-Serif" font-size="10.00">+ int NumberOfEdgeRoads</text>
<text text-anchor="start" x="289.5" y="-136.5" font-family="Helvetica,sans-Serif" font-size="10.00">+ bool[,] RoadMatrix</text>
<text text-anchor="start" x="289.5" y="-125.5" font-family="Helvetica,sans-Serif" font-size="10.00">+ List&lt; EdgeRoadContainer &gt; EdgeRoads</text>
<text text-anchor="start" x="289.5" y="-114.5" font-family="Helvetica,sans-Serif" font-size="10.00">&#45; int size</text>
<text text-anchor="start" x="289.5" y="-103.5" font-family="Helvetica,sans-Serif" font-size="10.00">&#45; int numberOfPlacedRoads</text>
<text text-anchor="start" x="289.5" y="-92.5" font-family="Helvetica,sans-Serif" font-size="10.00">&#45; bool[,] lockRoad</text>
<polyline fill="none" stroke="black" points="281.5,-85.5 585.5,-85.5 "/>
<text text-anchor="start" x="289.5" y="-73.5" font-family="Helvetica,sans-Serif" font-size="10.00">+ RoadGenerator(int size, List&lt; EdgeRoadContainer</text>
<text text-anchor="start" x="289.5" y="-62.5" font-family="Helvetica,sans-Serif" font-size="10.00"> &gt; startPositions, Chunk[,] nearbyChunks)</text>
<text text-anchor="start" x="289.5" y="-51.5" font-family="Helvetica,sans-Serif" font-size="10.00">&#45; void CreateRoad(Vector2Int roadPos, Vector2Int</text>
<text text-anchor="start" x="289.5" y="-40.5" font-family="Helvetica,sans-Serif" font-size="10.00"> roadDir, int forwardCounter=0)</text>
<text text-anchor="start" x="289.5" y="-29.5" font-family="Helvetica,sans-Serif" font-size="10.00">&#45; bool GoinTowardsEdge(Vector2Int position, Vector2Int dir)</text>
<text text-anchor="start" x="289.5" y="-18.5" font-family="Helvetica,sans-Serif" font-size="10.00">&#45; bool CheckForward(Vector2Int position, Vector2Int</text>
<text text-anchor="start" x="289.5" y="-7.5" font-family="Helvetica,sans-Serif" font-size="10.00"> dir, int counter)</text>
</a>
</g>
</g>
<!-- Node1&#45;&gt;Node6 -->
<g id="edge8" class="edge">
<title>Node1&#45;&gt;Node6</title>
<path fill="none" stroke="#404040" d="M317.68,-226.24C320.36,-216.23 323.6,-206.45 327.5,-197 328.55,-194.45 329.7,-191.94 330.93,-189.45"/>
<polygon fill="none" stroke="#404040" points="331.03,-189.25 330.43,-182.07 336.83,-178.75 337.43,-185.93 331.03,-189.25"/>
<text text-anchor="middle" x="366" y="-200" font-family="Helvetica,sans-Serif" font-size="10.00"> &#45;nearbyChunks</text>
</g>
<!-- Node2 -->
<g id="node2" class="node">
<title>Node2</title>
<g id="a_node2"><a xlink:href="classUtility_1_1ThreadSafeMonoBehaviour.html" target="_top" xlink:title="Safely stores if the gameobject been destroyed in a bool">
<polygon fill="white" stroke="black" points="57,-793.5 57,-850.5 206,-850.5 206,-793.5 57,-793.5"/>
<text text-anchor="middle" x="131.5" y="-838.5" font-family="Helvetica,sans-Serif" font-size="10.00">ThreadSafeMonoBehaviour</text>
<polyline fill="none" stroke="black" points="57,-831.5 206,-831.5 "/>
<text text-anchor="start" x="65" y="-819.5" font-family="Helvetica,sans-Serif" font-size="10.00">+ bool Destroyed</text>
<polyline fill="none" stroke="black" points="57,-812.5 206,-812.5 "/>
<text text-anchor="start" x="65" y="-800.5" font-family="Helvetica,sans-Serif" font-size="10.00"># void OnDestroy()</text>
</a>
</g>
</g>
<!-- Node2&#45;&gt;Node1 -->
<g id="edge1" class="edge">
<title>Node2&#45;&gt;Node1</title>
<path fill="none" stroke="midnightblue" d="M152.26,-784.64C161.71,-768.1 173.77,-746.97 187.14,-723.55"/>
<polygon fill="none" stroke="midnightblue" points="149.21,-782.93 147.29,-793.35 155.29,-786.4 149.21,-782.93"/>
</g>
<!-- Node2&#45;&gt;Node5 -->
<g id="edge5" class="edge">
<title>Node2&#45;&gt;Node5</title>
<path fill="none" stroke="midnightblue" d="M131.5,-783.05C131.5,-662.46 131.5,-287.71 131.5,-145.76"/>
<polygon fill="none" stroke="midnightblue" points="128,-783.26 131.5,-793.26 135,-783.26 128,-783.26"/>
</g>
<!-- Node3 -->
<g id="node3" class="node">
<title>Node3</title>
<g id="a_node3"><a xlink:title=" ">
<polygon fill="white" stroke="#bfbfbf" points="85,-910.5 85,-967.5 178,-967.5 178,-910.5 85,-910.5"/>
<text text-anchor="middle" x="131.5" y="-955.5" font-family="Helvetica,sans-Serif" font-size="10.00">MonoBehaviour</text>
<polyline fill="none" stroke="#bfbfbf" points="85,-948.5 178,-948.5 "/>
<text text-anchor="middle" x="131.5" y="-936.5" font-family="Helvetica,sans-Serif" font-size="10.00"> </text>
<polyline fill="none" stroke="#bfbfbf" points="85,-929.5 178,-929.5 "/>
<text text-anchor="middle" x="131.5" y="-917.5" font-family="Helvetica,sans-Serif" font-size="10.00"> </text>
</a>
</g>
</g>
<!-- Node3&#45;&gt;Node2 -->
<g id="edge2" class="edge">
<title>Node3&#45;&gt;Node2</title>
<path fill="none" stroke="midnightblue" d="M131.5,-900.24C131.5,-884.09 131.5,-865.57 131.5,-850.72"/>
<polygon fill="none" stroke="midnightblue" points="128,-900.45 131.5,-910.45 135,-900.45 128,-900.45"/>
</g>
<!-- Node4 -->
<g id="node4" class="node">
<title>Node4</title>
<g id="a_node4"><a xlink:title=" ">
<polygon fill="white" stroke="#bfbfbf" points="224.5,-771.5 224.5,-872.5 470.5,-872.5 470.5,-771.5 224.5,-771.5"/>
<text text-anchor="middle" x="347.5" y="-860.5" font-family="Helvetica,sans-Serif" font-size="10.00">Game.World.BuildingCell</text>
<polyline fill="none" stroke="#bfbfbf" points="224.5,-853.5 470.5,-853.5 "/>
<text text-anchor="start" x="232.5" y="-841.5" font-family="Helvetica,sans-Serif" font-size="10.00">+ BuildingDirection RoadDirection</text>
<text text-anchor="start" x="232.5" y="-830.5" font-family="Helvetica,sans-Serif" font-size="10.00">+ bool Buildable</text>
<text text-anchor="start" x="232.5" y="-819.5" font-family="Helvetica,sans-Serif" font-size="10.00">+ bool GotRoadNext</text>
<polyline fill="none" stroke="#bfbfbf" points="224.5,-812.5 470.5,-812.5 "/>
<text text-anchor="start" x="232.5" y="-800.5" font-family="Helvetica,sans-Serif" font-size="10.00">+ BuildingCell(BuildingDirection roadDirection,</text>
<text text-anchor="start" x="232.5" y="-789.5" font-family="Helvetica,sans-Serif" font-size="10.00"> bool buildable)</text>
<text text-anchor="start" x="232.5" y="-778.5" font-family="Helvetica,sans-Serif" font-size="10.00">+ void Occupy()</text>
</a>
</g>
</g>
<!-- Node4&#45;&gt;Node1 -->
<g id="edge3" class="edge">
<title>Node4&#45;&gt;Node1</title>
<path fill="none" stroke="#404040" d="M344.76,-771.2C344.17,-760.56 343.51,-748.62 342.81,-735.81"/>
<polygon fill="none" stroke="#404040" points="342.81,-735.8 338.48,-730.03 342.15,-723.82 346.47,-729.59 342.81,-735.8"/>
<text text-anchor="middle" x="378.5" y="-745" font-family="Helvetica,sans-Serif" font-size="10.00"> &#45;buildingCells</text>
</g>
<!-- Node5&#45;&gt;Node1 -->
<g id="edge4" class="edge">
<title>Node5&#45;&gt;Node1</title>
<path fill="none" stroke="#404040" d="M159.9,-145.79C170.12,-165.69 182.44,-189.66 195.7,-215.48"/>
<polygon fill="none" stroke="#404040" points="195.75,-215.57 202.05,-219.08 201.23,-226.25 194.93,-222.74 195.75,-215.57"/>
<text text-anchor="middle" x="207.5" y="-200" font-family="Helvetica,sans-Serif" font-size="10.00"> &#45;world</text>
</g>
<!-- Node6&#45;&gt;Node1 -->
<g id="edge7" class="edge">
<title>Node6&#45;&gt;Node1</title>
<path fill="none" stroke="#404040" d="M415.58,-178.59C413.32,-188.54 410.93,-198.5 408.5,-208 407.94,-210.18 407.38,-212.37 406.8,-214.57"/>
<polygon fill="none" stroke="#404040" points="406.74,-214.8 409.09,-221.62 403.69,-226.4 401.35,-219.58 406.74,-214.8"/>
<text text-anchor="middle" x="449.5" y="-200" font-family="Helvetica,sans-Serif" font-size="10.00"> &#45;roadGenerator</text>
</g>
</g>
</svg>
        <g id="navigator" transform="translate(0 0)" fill="#404254">
                <rect fill="#f2f5e9" fill-opacity="0.5" stroke="#606060" stroke-width=".5" x="0" y="0" width="60" height="60"/>
                <use id="zoomplus" xlink:href="#zoomPlus" x="17" y="9" onmousedown="handleZoom(evt,'in')"/>
                <use id="zoomminus" xlink:href="#zoomMin" x="42" y="9" onmousedown="handleZoom(evt,'out')"/>
                <use id="reset" xlink:href="#resetDef" x="30" y="36" onmousedown="handleReset()"/>
                <g id="arrowUp" xlink:href="#dirArrow" transform="translate(30 24)" onmousedown="handlePan(0,-1)">
                  <use xlink:href="#rim" fill="#404040">
                        <set attributeName="fill" to="#808080" begin="arrowUp.mouseover" end="arrowUp.mouseout"/>
                  </use>
                  <path fill="none" stroke="white" stroke-width="1.5" d="M0,-3.0v7 M-2.5,-0.5L0,-3.0L2.5,-0.5"/>
                </g>
                <g id="arrowRight" xlink:href="#dirArrow" transform="rotate(90) translate(36 -43)" onmousedown="handlePan(1,0)">
                  <use xlink:href="#rim" fill="#404040">
                        <set attributeName="fill" to="#808080" begin="arrowRight.mouseover" end="arrowRight.mouseout"/>
                  </use>
                  <path fill="none" stroke="white" stroke-width="1.5" d="M0,-3.0v7 M-2.5,-0.5L0,-3.0L2.5,-0.5"/>
                </g>
                <g id="arrowDown" xlink:href="#dirArrow" transform="rotate(180) translate(-30 -48)" onmousedown="handlePan(0,1)">
                  <use xlink:href="#rim" fill="#404040">
                        <set attributeName="fill" to="#808080" begin="arrowDown.mouseover" end="arrowDown.mouseout"/>
                  </use>
                  <path fill="none" stroke="white" stroke-width="1.5" d="M0,-3.0v7 M-2.5,-0.5L0,-3.0L2.5,-0.5"/>
                </g>
                <g id="arrowLeft" xlink:href="#dirArrow" transform="rotate(270) translate(-36 17)" onmousedown="handlePan(-1,0)">
                  <use xlink:href="#rim" fill="#404040">
                        <set attributeName="fill" to="#808080" begin="arrowLeft.mouseover" end="arrowLeft.mouseout"/>
                  </use>
                  <path fill="none" stroke="white" stroke-width="1.5" d="M0,-3.0v7 M-2.5,-0.5L0,-3.0L2.5,-0.5"/>
                </g>
        </g>
        <svg viewBox="0 0 15 15" width="100%" height="30px" preserveAspectRatio="xMaxYMin meet">
         <g id="arrow_out" transform="scale(0.3 0.3)">
          <a xlink:href="classGame_1_1World_1_1Chunk__coll__graph_org.svg" target="_base">
           <rect id="button" ry="5" rx="5" y="6" x="6" height="38" width="38"
                fill="#f2f5e9" fill-opacity="0.5" stroke="#606060" stroke-width="1.0"/>
           <path id="arrow"
             d="M 11.500037,31.436501 C 11.940474,20.09759 22.043105,11.32322 32.158766,21.979434 L 37.068811,17.246167 C 37.068811,17.246167 37.088388,32 37.088388,32 L 22.160133,31.978069 C 22.160133,31.978069 26.997745,27.140456 26.997745,27.140456 C 18.528582,18.264221 13.291696,25.230495 11.500037,31.436501 z"
             style="fill:#404040;"/>
          </a>
         </g>
        </svg>
</svg>
