<?xml version="1.0" encoding="UTF-8" standalone="no"?>
<!DOCTYPE svg PUBLIC "-//W3C//DTD SVG 1.1//EN"
 "http://www.w3.org/Graphics/SVG/1.1/DTD/svg11.dtd">
<!-- Generated by graphviz version 2.43.0 (0)
 -->
<!-- Title: Game.World.Chunk.InitChunk Pages: 1 -->
<svg width="1228pt" height="214pt"
 viewBox="0.00 0.00 1228.00 214.00" xmlns="http://www.w3.org/2000/svg" xmlns:xlink="http://www.w3.org/1999/xlink">
<g id="graph0" class="graph" transform="scale(1 1) rotate(0) translate(4 210)">
<title>Game.World.Chunk.InitChunk</title>
<!-- Node1 -->
<g id="Node000001" class="node">
<title>Node1</title>
<g id="a_Node000001"><a xlink:title="Initialize the chunk.">
<polygon fill="#999999" stroke="#666666" points="160,-169 0,-169 0,-150 160,-150 160,-169"/>
<text text-anchor="middle" x="80" y="-157" font-family="Helvetica,sans-Serif" font-size="10.00">Game.World.Chunk.InitChunk</text>
</a>
</g>
</g>
<!-- Node2 -->
<g id="Node000002" class="node">
<title>Node2</title>
<g id="a_Node000002"><a xlink:href="classGame_1_1World_1_1Chunk.html#aac3343253a33a36a09318ebc76bd9f08" target="_top" xlink:title="Creates the tiles for the chunk.">
<polygon fill="white" stroke="#666666" points="385.5,-206 216.5,-206 216.5,-187 385.5,-187 385.5,-206"/>
<text text-anchor="middle" x="301" y="-194" font-family="Helvetica,sans-Serif" font-size="10.00">Game.World.Chunk.CreateTiles</text>
</a>
</g>
</g>
<!-- Node1&#45;&gt;Node2 -->
<g id="edge1_Node000001_Node000002" class="edge">
<title>Node1&#45;&gt;Node2</title>
<g id="a_edge1_Node000001_Node000002"><a xlink:title=" ">
<path fill="none" stroke="#63b8ff" d="M137.4,-169.03C166.66,-173.97 202.6,-180.04 233.24,-185.22"/>
<polygon fill="#63b8ff" stroke="#63b8ff" points="232.97,-188.72 243.41,-186.94 234.14,-181.82 232.97,-188.72"/>
</a>
</g>
</g>
<!-- Node5 -->
<g id="Node000005" class="node">
<title>Node5</title>
<g id="a_Node000005"><a xlink:href="classGame_1_1World_1_1Chunk.html#a1fb214fa85481a42c651b9d6b0d45cb9" target="_top" xlink:title="Gets tthe nearby chunks.">
<polygon fill="white" stroke="#666666" points="402,-169 200,-169 200,-150 402,-150 402,-169"/>
<text text-anchor="middle" x="301" y="-157" font-family="Helvetica,sans-Serif" font-size="10.00">Game.World.Chunk.GetNearbyChunks</text>
</a>
</g>
</g>
<!-- Node1&#45;&gt;Node5 -->
<g id="edge4_Node000001_Node000005" class="edge">
<title>Node1&#45;&gt;Node5</title>
<g id="a_edge4_Node000001_Node000005"><a xlink:title=" ">
<path fill="none" stroke="#63b8ff" d="M160.06,-159.5C169.61,-159.5 179.5,-159.5 189.39,-159.5"/>
<polygon fill="#63b8ff" stroke="#63b8ff" points="189.69,-163 199.69,-159.5 189.69,-156 189.69,-163"/>
</a>
</g>
</g>
<!-- Node7 -->
<g id="Node000007" class="node">
<title>Node7</title>
<g id="a_Node000007"><a xlink:href="classGame_1_1World_1_1Chunk.html#a08f4b5e8b362b98f4b3f01225d12b4af" target="_top" xlink:title="Spawns the buildings and the props on a seperate thread.">
<polygon fill="white" stroke="#666666" points="406,-93 196,-93 196,-74 406,-74 406,-93"/>
<text text-anchor="middle" x="301" y="-81" font-family="Helvetica,sans-Serif" font-size="10.00">Game.World.Chunk.SpawnWorldObjects</text>
</a>
</g>
</g>
<!-- Node1&#45;&gt;Node7 -->
<g id="edge6_Node000001_Node000007" class="edge">
<title>Node1&#45;&gt;Node7</title>
<g id="a_edge6_Node000001_Node000007"><a xlink:title=" ">
<path fill="none" stroke="#63b8ff" d="M108.74,-149.87C147.82,-136.31 219.18,-111.55 262.82,-96.4"/>
<polygon fill="#63b8ff" stroke="#63b8ff" points="264.19,-99.63 272.49,-93.05 261.89,-93.02 264.19,-99.63"/>
</a>
</g>
</g>
<!-- Node3 -->
<g id="Node000003" class="node">
<title>Node3</title>
<g id="a_Node000003"><a xlink:href="classGame_1_1World_1_1Chunk.html#ac4b762352bb5f90952fe57e5c0ee208f" target="_top" xlink:title="Determines the type of the tile at the coord.">
<polygon fill="white" stroke="#666666" points="669.5,-206 463.5,-206 463.5,-187 669.5,-187 669.5,-206"/>
<text text-anchor="middle" x="566.5" y="-194" font-family="Helvetica,sans-Serif" font-size="10.00">Game.World.Chunk.DetermineTileType</text>
</a>
</g>
</g>
<!-- Node2&#45;&gt;Node3 -->
<g id="edge2_Node000002_Node000003" class="edge">
<title>Node2&#45;&gt;Node3</title>
<g id="a_edge2_Node000002_Node000003"><a xlink:title=" ">
<path fill="none" stroke="#63b8ff" d="M385.74,-196.5C407.04,-196.5 430.28,-196.5 452.76,-196.5"/>
<polygon fill="#63b8ff" stroke="#63b8ff" points="453.03,-200 463.03,-196.5 453.03,-193 453.03,-200"/>
</a>
</g>
</g>
<!-- Node4 -->
<g id="Node000004" class="node">
<title>Node4</title>
<g id="a_Node000004"><a xlink:href="classGame_1_1World_1_1Chunk.html#a2d39efc9f5c0f3c302dd7e9d007096c7" target="_top" xlink:title="Determine what type of road it is.">
<polygon fill="white" stroke="#666666" points="955.5,-206 743.5,-206 743.5,-187 955.5,-187 955.5,-206"/>
<text text-anchor="middle" x="849.5" y="-194" font-family="Helvetica,sans-Serif" font-size="10.00">Game.World.Chunk.DetermineRoadType</text>
</a>
</g>
</g>
<!-- Node3&#45;&gt;Node4 -->
<g id="edge3_Node000003_Node000004" class="edge">
<title>Node3&#45;&gt;Node4</title>
<g id="a_edge3_Node000003_Node000004"><a xlink:title=" ">
<path fill="none" stroke="#63b8ff" d="M669.74,-196.5C690.24,-196.5 711.91,-196.5 732.83,-196.5"/>
<polygon fill="#63b8ff" stroke="#63b8ff" points="733.03,-200 743.03,-196.5 733.03,-193 733.03,-200"/>
</a>
</g>
</g>
<!-- Node6 -->
<g id="Node000006" class="node">
<title>Node6</title>
<g id="a_Node000006"><a xlink:href="classGame_1_1World_1_1GameWorld.html#a6188226b54eb7e38659cbe8d9d76b620" target="_top" xlink:title="Get the chunk without trying it to load.">
<polygon fill="white" stroke="#666666" points="691,-169 442,-169 442,-150 691,-150 691,-169"/>
<text text-anchor="middle" x="566.5" y="-157" font-family="Helvetica,sans-Serif" font-size="10.00">Game.World.GameWorld.GetChunkWithoutLoad</text>
</a>
</g>
</g>
<!-- Node5&#45;&gt;Node6 -->
<g id="edge5_Node000005_Node000006" class="edge">
<title>Node5&#45;&gt;Node6</title>
<g id="a_edge5_Node000005_Node000006"><a xlink:title=" ">
<path fill="none" stroke="#63b8ff" d="M402.37,-159.5C411.98,-159.5 421.82,-159.5 431.68,-159.5"/>
<polygon fill="#63b8ff" stroke="#63b8ff" points="431.95,-163 441.95,-159.5 431.95,-156 431.95,-163"/>
</a>
</g>
</g>
<!-- Node8 -->
<g id="Node000008" class="node">
<title>Node8</title>
<g id="a_Node000008"><a xlink:href="classGame_1_1World_1_1Chunk.html#a12ff4b268fb99d10493398cfe555b46c" target="_top" xlink:title=" ">
<polygon fill="white" stroke="#666666" points="960,-131 739,-131 739,-112 960,-112 960,-131"/>
<text text-anchor="middle" x="849.5" y="-119" font-family="Helvetica,sans-Serif" font-size="10.00">Game.World.Chunk.AddEnvironmentProps</text>
</a>
</g>
</g>
<!-- Node7&#45;&gt;Node8 -->
<g id="edge7_Node000007_Node000008" class="edge">
<title>Node7&#45;&gt;Node8</title>
<g id="a_edge7_Node000007_Node000008"><a xlink:title=" ">
<path fill="none" stroke="#63b8ff" d="M367.76,-93.04C391.16,-96.15 417.71,-99.34 442,-101.5 538.18,-110.04 647.51,-115.16 728.54,-118.08"/>
<polygon fill="#63b8ff" stroke="#63b8ff" points="728.66,-121.58 738.78,-118.44 728.91,-114.59 728.66,-121.58"/>
</a>
</g>
</g>
<!-- Node10 -->
<g id="Node000010" class="node">
<title>Node10</title>
<g id="a_Node000010"><a xlink:href="classGame_1_1World_1_1Chunk.html#a00a9cd484ae1ddffec928a75f6b2db15" target="_top" xlink:title="Add the buildings which are next to the roads.">
<polygon fill="white" stroke="#666666" points="667.5,-93 465.5,-93 465.5,-74 667.5,-74 667.5,-93"/>
<text text-anchor="middle" x="566.5" y="-81" font-family="Helvetica,sans-Serif" font-size="10.00">Game.World.Chunk.AddRoadBuildings</text>
</a>
</g>
</g>
<!-- Node7&#45;&gt;Node10 -->
<g id="edge9_Node000007_Node000010" class="edge">
<title>Node7&#45;&gt;Node10</title>
<g id="a_edge9_Node000007_Node000010"><a xlink:title=" ">
<path fill="none" stroke="#63b8ff" d="M406.14,-83.5C422.22,-83.5 438.88,-83.5 455.1,-83.5"/>
<polygon fill="#63b8ff" stroke="#63b8ff" points="455.12,-87 465.12,-83.5 455.12,-80 455.12,-87"/>
</a>
</g>
</g>
<!-- Node12 -->
<g id="Node000012" class="node">
<title>Node12</title>
<g id="a_Node000012"><a xlink:href="classGame_1_1World_1_1Chunk.html#a443ede65d8aeb566a385cb3bcad9d8f7" target="_top" xlink:title="Generate the building cells matrix so we know which way the roads are.">
<polygon fill="white" stroke="#666666" points="671,-56 462,-56 462,-37 671,-37 671,-56"/>
<text text-anchor="middle" x="566.5" y="-44" font-family="Helvetica,sans-Serif" font-size="10.00">Game.World.Chunk.GenerateCellMatrix</text>
</a>
</g>
</g>
<!-- Node7&#45;&gt;Node12 -->
<g id="edge12_Node000007_Node000012" class="edge">
<title>Node7&#45;&gt;Node12</title>
<g id="a_edge12_Node000007_Node000012"><a xlink:title=" ">
<path fill="none" stroke="#63b8ff" d="M369.86,-73.97C405.68,-68.94 449.81,-62.74 487.09,-57.51"/>
<polygon fill="#63b8ff" stroke="#63b8ff" points="488,-60.92 497.41,-56.06 487.03,-53.98 488,-60.92"/>
</a>
</g>
</g>
<!-- Node13 -->
<g id="Node000013" class="node">
<title>Node13</title>
<g id="a_Node000013"><a xlink:href="classUtility_1_1CoroutineRunner.html#a1c473dee723f16d86bab9d8475c8214a" target="_top" xlink:title="A helper method to start coroutines.">
<polygon fill="white" stroke="#666666" points="665.5,-19 467.5,-19 467.5,0 665.5,0 665.5,-19"/>
<text text-anchor="middle" x="566.5" y="-7" font-family="Helvetica,sans-Serif" font-size="10.00">Utility.CoroutineRunner.RunCoroutine</text>
</a>
</g>
</g>
<!-- Node7&#45;&gt;Node13 -->
<g id="edge13_Node000007_Node000013" class="edge">
<title>Node7&#45;&gt;Node13</title>
<g id="a_edge13_Node000007_Node000013"><a xlink:title=" ">
<path fill="none" stroke="#63b8ff" d="M321.89,-73.8C348.58,-61.19 397.76,-39.39 442,-27.5 451.49,-24.95 461.5,-22.73 471.55,-20.82"/>
<polygon fill="#63b8ff" stroke="#63b8ff" points="472.36,-24.23 481.58,-19.01 471.12,-17.34 472.36,-24.23"/>
</a>
</g>
</g>
<!-- Node9 -->
<g id="Node000009" class="node">
<title>Node9</title>
<g id="a_Node000009"><a xlink:href="classGame_1_1World_1_1Chunk.html#af37779d40ed9cd07b577d5bca61627b7" target="_top" xlink:title=" ">
<polygon fill="white" stroke="#666666" points="1220,-112 1008,-112 1008,-93 1220,-93 1220,-112"/>
<text text-anchor="middle" x="1114" y="-100" font-family="Helvetica,sans-Serif" font-size="10.00">Game.World.Chunk.GetAbsolutePosition</text>
</a>
</g>
</g>
<!-- Node8&#45;&gt;Node9 -->
<g id="edge8_Node000008_Node000009" class="edge">
<title>Node8&#45;&gt;Node9</title>
<g id="a_edge8_Node000008_Node000009"><a xlink:title=" ">
<path fill="none" stroke="#63b8ff" d="M960.3,-113.55C972.6,-112.66 985.15,-111.75 997.51,-110.86"/>
<polygon fill="#63b8ff" stroke="#63b8ff" points="998.12,-114.32 1007.84,-110.11 997.61,-107.34 998.12,-114.32"/>
</a>
</g>
</g>
<!-- Node11 -->
<g id="Node000011" class="node">
<title>Node11</title>
<g id="a_Node000011"><a xlink:href="classGame_1_1World_1_1Chunk.html#af2946e1e1b9e325d6004d166b2b26193" target="_top" xlink:title="Lock the cell and try to place it.">
<polygon fill="white" stroke="#666666" points="972,-94 727,-94 727,-75 972,-75 972,-94"/>
<text text-anchor="middle" x="849.5" y="-82" font-family="Helvetica,sans-Serif" font-size="10.00">Game.World.Chunk.LockAndTryToPlaceBuilding</text>
</a>
</g>
</g>
<!-- Node10&#45;&gt;Node11 -->
<g id="edge10_Node000010_Node000011" class="edge">
<title>Node10&#45;&gt;Node11</title>
<g id="a_edge10_Node000010_Node000011"><a xlink:title=" ">
<path fill="none" stroke="#63b8ff" d="M667.76,-83.86C683.55,-83.91 700.09,-83.97 716.47,-84.03"/>
<polygon fill="#63b8ff" stroke="#63b8ff" points="716.62,-87.53 726.64,-84.07 716.65,-80.53 716.62,-87.53"/>
</a>
</g>
</g>
<!-- Node11&#45;&gt;Node9 -->
<g id="edge11_Node000011_Node000009" class="edge">
<title>Node11&#45;&gt;Node9</title>
<g id="a_edge11_Node000011_Node000009"><a xlink:title=" ">
<path fill="none" stroke="#63b8ff" d="M972.14,-92.84C980.63,-93.42 989.17,-94.01 997.62,-94.59"/>
<polygon fill="#63b8ff" stroke="#63b8ff" points="997.66,-98.1 1007.87,-95.29 998.14,-91.12 997.66,-98.1"/>
</a>
</g>
</g>
</g>
</svg>
