<?xml version="1.0" encoding="UTF-8" standalone="no"?>
<!DOCTYPE svg PUBLIC "-//W3C//DTD SVG 1.1//EN"
 "http://www.w3.org/Graphics/SVG/1.1/DTD/svg11.dtd">
<!-- Generated by graphviz version 2.43.0 (0)
 -->
<!-- Title: User.UserController.Registered Pages: 1 -->
<svg width="421pt" height="101pt"
 viewBox="0.00 0.00 421.00 101.00" xmlns="http://www.w3.org/2000/svg" xmlns:xlink="http://www.w3.org/1999/xlink">
<g id="graph0" class="graph" transform="scale(1 1) rotate(0) translate(4 97)">
<title>User.UserController.Registered</title>
<!-- Node1 -->
<g id="Node000001" class="node">
<title>Node1</title>
<g id="a_Node000001"><a xlink:title="When the register request was responded successfully register the user and log him in.">
<polygon fill="#999999" stroke="#666666" points="167,-56 0,-56 0,-37 167,-37 167,-56"/>
<text text-anchor="middle" x="83.5" y="-44" font-family="Helvetica,sans-Serif" font-size="10.00">User.UserController.Registered</text>
</a>
</g>
</g>
<!-- Node2 -->
<g id="Node000002" class="node">
<title>Node2</title>
<g id="a_Node000002"><a xlink:href="classUser_1_1UserData.html#abb372911b5e49023a977bd064f46bb6e" target="_top" xlink:title="Initialises the user instance with proper data.">
<polygon fill="white" stroke="#666666" points="361,-93 255,-93 255,-74 361,-74 361,-93"/>
<text text-anchor="middle" x="308" y="-81" font-family="Helvetica,sans-Serif" font-size="10.00">User.UserData.Init</text>
</a>
</g>
</g>
<!-- Node1&#45;&gt;Node2 -->
<g id="edge1_Node000001_Node000002" class="edge">
<title>Node1&#45;&gt;Node2</title>
<g id="a_edge1_Node000001_Node000002"><a xlink:title=" ">
<path fill="none" stroke="#63b8ff" d="M141.8,-56.03C173.29,-61.26 212.38,-67.77 244.63,-73.13"/>
<polygon fill="#63b8ff" stroke="#63b8ff" points="244.41,-76.64 254.84,-74.83 245.55,-69.73 244.41,-76.64"/>
</a>
</g>
</g>
<!-- Node3 -->
<g id="Node000003" class="node">
<title>Node3</title>
<g id="a_Node000003"><a xlink:href="classUser_1_1UserController.html#a3ba5f73e6358fff37d2ec5e255659756" target="_top" xlink:title="Move from the user creation and login scene.">
<polygon fill="white" stroke="#666666" points="413,-56 203,-56 203,-37 413,-37 413,-56"/>
<text text-anchor="middle" x="308" y="-44" font-family="Helvetica,sans-Serif" font-size="10.00">User.UserController.MoveToMainScence</text>
</a>
</g>
</g>
<!-- Node1&#45;&gt;Node3 -->
<g id="edge2_Node000001_Node000003" class="edge">
<title>Node1&#45;&gt;Node3</title>
<g id="a_edge2_Node000001_Node000003"><a xlink:title=" ">
<path fill="none" stroke="#63b8ff" d="M167.03,-46.5C175.39,-46.5 183.98,-46.5 192.59,-46.5"/>
<polygon fill="#63b8ff" stroke="#63b8ff" points="192.7,-50 202.7,-46.5 192.7,-43 192.7,-50"/>
</a>
</g>
</g>
<!-- Node4 -->
<g id="Node000004" class="node">
<title>Node4</title>
<g id="a_Node000004"><a xlink:href="classUtility_1_1CoroutineRunner.html#a1c473dee723f16d86bab9d8475c8214a" target="_top" xlink:title="A helper method to start coroutines.">
<polygon fill="white" stroke="#666666" points="407,-19 209,-19 209,0 407,0 407,-19"/>
<text text-anchor="middle" x="308" y="-7" font-family="Helvetica,sans-Serif" font-size="10.00">Utility.CoroutineRunner.RunCoroutine</text>
</a>
</g>
</g>
<!-- Node1&#45;&gt;Node4 -->
<g id="edge3_Node000001_Node000004" class="edge">
<title>Node1&#45;&gt;Node4</title>
<g id="a_edge3_Node000001_Node000004"><a xlink:title=" ">
<path fill="none" stroke="#63b8ff" d="M141.8,-36.97C171.66,-32.01 208.36,-25.9 239.58,-20.71"/>
<polygon fill="#63b8ff" stroke="#63b8ff" points="240.22,-24.15 249.51,-19.06 239.07,-17.25 240.22,-24.15"/>
</a>
</g>
</g>
</g>
</svg>
