<?xml version="1.0" encoding="UTF-8" standalone="no"?>
<!DOCTYPE svg PUBLIC "-//W3C//DTD SVG 1.1//EN"
 "http://www.w3.org/Graphics/SVG/1.1/DTD/svg11.dtd">
<!-- Generated by graphviz version 2.43.0 (0)
 -->
<!-- Title: Game.UI.ShopItem Pages: 1 -->
<svg width="219pt" height="375pt"
 viewBox="0.00 0.00 219.00 375.00" xmlns="http://www.w3.org/2000/svg" xmlns:xlink="http://www.w3.org/1999/xlink">
<g id="graph0" class="graph" transform="scale(1 1) rotate(0) translate(4 371)">
<title>Game.UI.ShopItem</title>
<polygon fill="white" stroke="transparent" points="-4,4 -4,-371 215,-371 215,4 -4,4"/>
<!-- Node1 -->
<g id="node1" class="node">
<title>Node1</title>
<g id="a_node1"><a xlink:title="A single shop item">
<polygon fill="#bfbfbf" stroke="black" points="0,-0.5 0,-178.5 211,-178.5 211,-0.5 0,-0.5"/>
<text text-anchor="middle" x="105.5" y="-166.5" font-family="Helvetica,sans-Serif" font-size="10.00">Game.UI.ShopItem</text>
<polyline fill="none" stroke="black" points="0,-159.5 211,-159.5 "/>
<text text-anchor="start" x="8" y="-147.5" font-family="Helvetica,sans-Serif" font-size="10.00">+ long Id</text>
<text text-anchor="start" x="8" y="-136.5" font-family="Helvetica,sans-Serif" font-size="10.00">+ bool Owned</text>
<text text-anchor="start" x="8" y="-125.5" font-family="Helvetica,sans-Serif" font-size="10.00">&#45; TMP_Text ProductName</text>
<text text-anchor="start" x="8" y="-114.5" font-family="Helvetica,sans-Serif" font-size="10.00">&#45; Image ProductImage</text>
<text text-anchor="start" x="8" y="-103.5" font-family="Helvetica,sans-Serif" font-size="10.00">&#45; TMP_Text Price</text>
<text text-anchor="start" x="8" y="-92.5" font-family="Helvetica,sans-Serif" font-size="10.00">&#45; Button BuyButton</text>
<text text-anchor="start" x="8" y="-81.5" font-family="Helvetica,sans-Serif" font-size="10.00">&#45; ShopWindow shopWindow</text>
<polyline fill="none" stroke="black" points="0,-74.5 211,-74.5 "/>
<text text-anchor="start" x="8" y="-62.5" font-family="Helvetica,sans-Serif" font-size="10.00">+ void Init(ShopWindow parentWindow,</text>
<text text-anchor="start" x="8" y="-51.5" font-family="Helvetica,sans-Serif" font-size="10.00"> Shop item, Sprite image, bool owned)</text>
<text text-anchor="start" x="8" y="-40.5" font-family="Helvetica,sans-Serif" font-size="10.00">+ void Buy()</text>
<text text-anchor="start" x="8" y="-29.5" font-family="Helvetica,sans-Serif" font-size="10.00">+ string GetDisplayedPrice()</text>
<text text-anchor="start" x="8" y="-18.5" font-family="Helvetica,sans-Serif" font-size="10.00">&#45; void Bought(Thesis_backend.Data</text>
<text text-anchor="start" x="8" y="-7.5" font-family="Helvetica,sans-Serif" font-size="10.00">_Structures.Game game)</text>
</a>
</g>
</g>
<!-- Node2 -->
<g id="node2" class="node">
<title>Node2</title>
<g id="a_node2"><a xlink:href="classUtility_1_1ThreadSafeMonoBehaviour.html" target="_top" xlink:title="Safely stores if the gameobject been destroyed in a bool">
<polygon fill="white" stroke="black" points="31,-215.5 31,-272.5 180,-272.5 180,-215.5 31,-215.5"/>
<text text-anchor="middle" x="105.5" y="-260.5" font-family="Helvetica,sans-Serif" font-size="10.00">ThreadSafeMonoBehaviour</text>
<polyline fill="none" stroke="black" points="31,-253.5 180,-253.5 "/>
<text text-anchor="start" x="39" y="-241.5" font-family="Helvetica,sans-Serif" font-size="10.00">+ bool Destroyed</text>
<polyline fill="none" stroke="black" points="31,-234.5 180,-234.5 "/>
<text text-anchor="start" x="39" y="-222.5" font-family="Helvetica,sans-Serif" font-size="10.00"># void OnDestroy()</text>
</a>
</g>
</g>
<!-- Node2&#45;&gt;Node1 -->
<g id="edge1" class="edge">
<title>Node2&#45;&gt;Node1</title>
<path fill="none" stroke="midnightblue" d="M105.5,-205.37C105.5,-197.09 105.5,-187.98 105.5,-178.62"/>
<polygon fill="none" stroke="midnightblue" points="102,-205.38 105.5,-215.38 109,-205.38 102,-205.38"/>
</g>
<!-- Node3 -->
<g id="node3" class="node">
<title>Node3</title>
<g id="a_node3"><a xlink:title=" ">
<polygon fill="white" stroke="#bfbfbf" points="59,-309.5 59,-366.5 152,-366.5 152,-309.5 59,-309.5"/>
<text text-anchor="middle" x="105.5" y="-354.5" font-family="Helvetica,sans-Serif" font-size="10.00">MonoBehaviour</text>
<polyline fill="none" stroke="#bfbfbf" points="59,-347.5 152,-347.5 "/>
<text text-anchor="middle" x="105.5" y="-335.5" font-family="Helvetica,sans-Serif" font-size="10.00"> </text>
<polyline fill="none" stroke="#bfbfbf" points="59,-328.5 152,-328.5 "/>
<text text-anchor="middle" x="105.5" y="-316.5" font-family="Helvetica,sans-Serif" font-size="10.00"> </text>
</a>
</g>
</g>
<!-- Node3&#45;&gt;Node2 -->
<g id="edge2" class="edge">
<title>Node3&#45;&gt;Node2</title>
<path fill="none" stroke="midnightblue" d="M105.5,-299.21C105.5,-290.29 105.5,-280.95 105.5,-272.58"/>
<polygon fill="none" stroke="midnightblue" points="102,-299.4 105.5,-309.4 109,-299.4 102,-299.4"/>
</g>
</g>
</svg>
