<?xml version="1.0" encoding="UTF-8" standalone="no"?>
<!DOCTYPE svg PUBLIC "-//W3C//DTD SVG 1.1//EN"
 "http://www.w3.org/Graphics/SVG/1.1/DTD/svg11.dtd">
<!-- Generated by graphviz version 2.43.0 (0)
 -->
<!-- Title: MainPage.TaskDisplayHandler Pages: 1 -->
<svg width="382pt" height="419pt"
 viewBox="0.00 0.00 382.00 419.00" xmlns="http://www.w3.org/2000/svg" xmlns:xlink="http://www.w3.org/1999/xlink">
<g id="graph0" class="graph" transform="scale(1 1) rotate(0) translate(4 415)">
<title>MainPage.TaskDisplayHandler</title>
<polygon fill="white" stroke="transparent" points="-4,4 -4,-415 378,-415 378,4 -4,4"/>
<!-- Node1 -->
<g id="node1" class="node">
<title>Node1</title>
<g id="a_node1"><a xlink:title="Task prefab display handler">
<polygon fill="#bfbfbf" stroke="black" points="0,-0.5 0,-222.5 374,-222.5 374,-0.5 0,-0.5"/>
<text text-anchor="middle" x="187" y="-210.5" font-family="Helvetica,sans-Serif" font-size="10.00">MainPage.TaskDisplayHandler</text>
<polyline fill="none" stroke="black" points="0,-203.5 374,-203.5 "/>
<text text-anchor="start" x="8" y="-191.5" font-family="Helvetica,sans-Serif" font-size="10.00">+ PlayerTask CurrentTask</text>
<text text-anchor="start" x="8" y="-180.5" font-family="Helvetica,sans-Serif" font-size="10.00">&#45; TMP_Text taskNameLabel</text>
<text text-anchor="start" x="8" y="-169.5" font-family="Helvetica,sans-Serif" font-size="10.00">&#45; TMP_Text taskIntervalsLabel</text>
<text text-anchor="start" x="8" y="-158.5" font-family="Helvetica,sans-Serif" font-size="10.00">&#45; TMP_Text remainingTimeLabel</text>
<text text-anchor="start" x="8" y="-147.5" font-family="Helvetica,sans-Serif" font-size="10.00">&#45; Button completeButton</text>
<text text-anchor="start" x="8" y="-136.5" font-family="Helvetica,sans-Serif" font-size="10.00">&#45; MainWindowController mainWindowController</text>
<text text-anchor="start" x="8" y="-125.5" font-family="Helvetica,sans-Serif" font-size="10.00">&#45; TaskOpenPanelController taskOpenPanelController</text>
<polyline fill="none" stroke="black" points="0,-118.5 374,-118.5 "/>
<text text-anchor="start" x="8" y="-106.5" font-family="Helvetica,sans-Serif" font-size="10.00">+ void Update()</text>
<text text-anchor="start" x="8" y="-95.5" font-family="Helvetica,sans-Serif" font-size="10.00">+ void InitValues(PlayerTask playerTask, TaskOpenPanelController</text>
<text text-anchor="start" x="8" y="-84.5" font-family="Helvetica,sans-Serif" font-size="10.00"> taskOpenPanelController, MainWindowController uIController)</text>
<text text-anchor="start" x="8" y="-73.5" font-family="Helvetica,sans-Serif" font-size="10.00">+ void CompleteTask()</text>
<text text-anchor="start" x="8" y="-62.5" font-family="Helvetica,sans-Serif" font-size="10.00">+ void OpenEditor()</text>
<text text-anchor="start" x="8" y="-51.5" font-family="Helvetica,sans-Serif" font-size="10.00">+ void UpdateLabels()</text>
<text text-anchor="start" x="8" y="-40.5" font-family="Helvetica,sans-Serif" font-size="10.00">&#45; void TaskCompleted(Thesis_backend.Data_Structures.PlayerTask result)</text>
<text text-anchor="start" x="8" y="-29.5" font-family="Helvetica,sans-Serif" font-size="10.00">&#45; void CompleteStateChange(bool state)</text>
<text text-anchor="start" x="8" y="-18.5" font-family="Helvetica,sans-Serif" font-size="10.00">&#45; void UpdateTimeRemaining()</text>
<text text-anchor="start" x="8" y="-7.5" font-family="Helvetica,sans-Serif" font-size="10.00">&#45; bool CalculateIfCompleteable()</text>
</a>
</g>
</g>
<!-- Node2 -->
<g id="node2" class="node">
<title>Node2</title>
<g id="a_node2"><a xlink:href="classUtility_1_1ThreadSafeMonoBehaviour.html" target="_top" xlink:title="Safely stores if the gameobject been destroyed in a bool">
<polygon fill="white" stroke="black" points="112.5,-259.5 112.5,-316.5 261.5,-316.5 261.5,-259.5 112.5,-259.5"/>
<text text-anchor="middle" x="187" y="-304.5" font-family="Helvetica,sans-Serif" font-size="10.00">ThreadSafeMonoBehaviour</text>
<polyline fill="none" stroke="black" points="112.5,-297.5 261.5,-297.5 "/>
<text text-anchor="start" x="120.5" y="-285.5" font-family="Helvetica,sans-Serif" font-size="10.00">+ bool Destroyed</text>
<polyline fill="none" stroke="black" points="112.5,-278.5 261.5,-278.5 "/>
<text text-anchor="start" x="120.5" y="-266.5" font-family="Helvetica,sans-Serif" font-size="10.00"># void OnDestroy()</text>
</a>
</g>
</g>
<!-- Node2&#45;&gt;Node1 -->
<g id="edge1" class="edge">
<title>Node2&#45;&gt;Node1</title>
<path fill="none" stroke="midnightblue" d="M187,-249.2C187,-241.08 187,-232.1 187,-222.75"/>
<polygon fill="none" stroke="midnightblue" points="183.5,-249.35 187,-259.35 190.5,-249.35 183.5,-249.35"/>
</g>
<!-- Node3 -->
<g id="node3" class="node">
<title>Node3</title>
<g id="a_node3"><a xlink:title=" ">
<polygon fill="white" stroke="#bfbfbf" points="140.5,-353.5 140.5,-410.5 233.5,-410.5 233.5,-353.5 140.5,-353.5"/>
<text text-anchor="middle" x="187" y="-398.5" font-family="Helvetica,sans-Serif" font-size="10.00">MonoBehaviour</text>
<polyline fill="none" stroke="#bfbfbf" points="140.5,-391.5 233.5,-391.5 "/>
<text text-anchor="middle" x="187" y="-379.5" font-family="Helvetica,sans-Serif" font-size="10.00"> </text>
<polyline fill="none" stroke="#bfbfbf" points="140.5,-372.5 233.5,-372.5 "/>
<text text-anchor="middle" x="187" y="-360.5" font-family="Helvetica,sans-Serif" font-size="10.00"> </text>
</a>
</g>
</g>
<!-- Node3&#45;&gt;Node2 -->
<g id="edge2" class="edge">
<title>Node3&#45;&gt;Node2</title>
<path fill="none" stroke="midnightblue" d="M187,-343.21C187,-334.29 187,-324.95 187,-316.58"/>
<polygon fill="none" stroke="midnightblue" points="183.5,-343.4 187,-353.4 190.5,-343.4 183.5,-343.4"/>
</g>
</g>
</svg>
