<?xml version="1.0" encoding="UTF-8" standalone="no"?>
<!DOCTYPE svg PUBLIC "-//W3C//DTD SVG 1.1//EN"
 "http://www.w3.org/Graphics/SVG/1.1/DTD/svg11.dtd">
<!-- Generated by graphviz version 2.43.0 (0)
 -->
<!-- Title: Game.UI.ShopItem.Buy Pages: 1 -->
<svg width="1048pt" height="142pt"
 viewBox="0.00 0.00 1048.00 142.02" xmlns="http://www.w3.org/2000/svg" xmlns:xlink="http://www.w3.org/1999/xlink">
<g id="graph0" class="graph" transform="scale(1 1) rotate(0) translate(4 138.02)">
<title>Game.UI.ShopItem.Buy</title>
<polygon fill="white" stroke="transparent" points="-4,4 -4,-138.02 1044,-138.02 1044,4 -4,4"/>
<!-- Node1 -->
<g id="node1" class="node">
<title>Node1</title>
<g id="a_node1"><a xlink:title="Buy this shop item">
<polygon fill="#bfbfbf" stroke="black" points="0,-57.5 0,-76.5 131,-76.5 131,-57.5 0,-57.5"/>
<text text-anchor="middle" x="65.5" y="-64.5" font-family="Helvetica,sans-Serif" font-size="10.00">Game.UI.ShopItem.Buy</text>
</a>
</g>
</g>
<!-- Node2 -->
<g id="node2" class="node">
<title>Node2</title>
<g id="a_node2"><a xlink:href="classGame_1_1UI_1_1ShopItem.html#aba8c6371c3eeaecb2bb7ab1f07311869" target="_top" xlink:title="Callback when it is bought">
<polygon fill="white" stroke="black" points="202.5,-76.5 202.5,-95.5 348.5,-95.5 348.5,-76.5 202.5,-76.5"/>
<text text-anchor="middle" x="275.5" y="-83.5" font-family="Helvetica,sans-Serif" font-size="10.00">Game.UI.ShopItem.Bought</text>
</a>
</g>
</g>
<!-- Node1&#45;&gt;Node2 -->
<g id="edge1" class="edge">
<title>Node1&#45;&gt;Node2</title>
<path fill="none" stroke="midnightblue" d="M131.17,-72.91C150.45,-74.67 171.85,-76.62 192.1,-78.47"/>
<polygon fill="midnightblue" stroke="midnightblue" points="191.98,-81.98 202.26,-79.4 192.62,-75.01 191.98,-81.98"/>
</g>
<!-- Node6 -->
<g id="node6" class="node">
<title>Node6</title>
<g id="a_node6"><a xlink:href="classUtility_1_1CoroutineRunner.html#a1c473dee723f16d86bab9d8475c8214a" target="_top" xlink:title="A helper method to start coroutines">
<polygon fill="white" stroke="black" points="651.5,-114.5 651.5,-133.5 849.5,-133.5 849.5,-114.5 651.5,-114.5"/>
<text text-anchor="middle" x="750.5" y="-121.5" font-family="Helvetica,sans-Serif" font-size="10.00">Utility.CoroutineRunner.RunCoroutine</text>
</a>
</g>
</g>
<!-- Node1&#45;&gt;Node6 -->
<g id="edge9" class="edge">
<title>Node1&#45;&gt;Node6</title>
<path fill="none" stroke="midnightblue" d="M85.95,-76.56C105.79,-85.77 137.73,-99.16 167,-105 329.82,-137.51 523.24,-136.15 641.13,-130.98"/>
<polygon fill="midnightblue" stroke="midnightblue" points="641.41,-134.47 651.24,-130.52 641.09,-127.48 641.41,-134.47"/>
</g>
<!-- Node7 -->
<g id="node7" class="node">
<title>Node7</title>
<g id="a_node7"><a xlink:href="classGame_1_1UI_1_1ShopWindow.html#ab11a75acddb1467e29d7624a4d12b8b9" target="_top" xlink:title="Show if the request failed on the modal window">
<polygon fill="white" stroke="black" points="645.5,-38.5 645.5,-57.5 855.5,-57.5 855.5,-38.5 645.5,-38.5"/>
<text text-anchor="middle" x="750.5" y="-45.5" font-family="Helvetica,sans-Serif" font-size="10.00">Game.UI.ShopWindow.ShowRequestFail</text>
</a>
</g>
</g>
<!-- Node1&#45;&gt;Node7 -->
<g id="edge10" class="edge">
<title>Node1&#45;&gt;Node7</title>
<path fill="none" stroke="midnightblue" d="M131.06,-65.2C246.67,-61.99 490.42,-55.21 634.98,-51.19"/>
<polygon fill="midnightblue" stroke="midnightblue" points="635.32,-54.68 645.22,-50.9 635.12,-47.68 635.32,-54.68"/>
</g>
<!-- Node9 -->
<g id="node9" class="node">
<title>Node9</title>
<g id="a_node9"><a xlink:href="classConfig_1_1ServerConfig.html#a7ac624a23651b77f05fe3dfabbd950fc" target="_top" xlink:title="Path to api endpoint to buy a given car">
<polygon fill="white" stroke="black" points="167,-0.5 167,-19.5 384,-19.5 384,-0.5 167,-0.5"/>
<text text-anchor="middle" x="275.5" y="-7.5" font-family="Helvetica,sans-Serif" font-size="10.00">Config.ServerConfig.PATH_FOR_BUY_CAR</text>
</a>
</g>
</g>
<!-- Node1&#45;&gt;Node9 -->
<g id="edge8" class="edge">
<title>Node1&#45;&gt;Node9</title>
<path fill="none" stroke="midnightblue" d="M93.16,-57.46C113.29,-50.45 141.68,-40.97 167,-34 183.18,-29.55 200.91,-25.33 217.22,-21.7"/>
<polygon fill="midnightblue" stroke="midnightblue" points="218.14,-25.08 227.16,-19.53 216.64,-18.24 218.14,-25.08"/>
</g>
<!-- Node3 -->
<g id="node3" class="node">
<title>Node3</title>
<g id="a_node3"><a xlink:href="classGame_1_1UI_1_1ShopWindow.html#a9297b39a0fa7a77e8cf3022bc28c0b35" target="_top" xlink:title="Update the shop items">
<polygon fill="white" stroke="black" points="420,-76.5 420,-95.5 607,-95.5 607,-76.5 420,-76.5"/>
<text text-anchor="middle" x="513.5" y="-83.5" font-family="Helvetica,sans-Serif" font-size="10.00">Game.UI.ShopWindow.UpdateShop</text>
</a>
</g>
</g>
<!-- Node2&#45;&gt;Node3 -->
<g id="edge2" class="edge">
<title>Node2&#45;&gt;Node3</title>
<path fill="none" stroke="midnightblue" d="M348.59,-86C367.93,-86 389.21,-86 409.86,-86"/>
<polygon fill="midnightblue" stroke="midnightblue" points="409.94,-89.5 419.94,-86 409.94,-82.5 409.94,-89.5"/>
</g>
<!-- Node4 -->
<g id="node4" class="node">
<title>Node4</title>
<g id="a_node4"><a xlink:href="classGame_1_1UI_1_1ShopWindow.html#a6a703aeb6610fe526d65a9b89ad4c78e" target="_top" xlink:title="Display the loaded shop items">
<polygon fill="white" stroke="black" points="643,-76.5 643,-95.5 858,-95.5 858,-76.5 643,-76.5"/>
<text text-anchor="middle" x="750.5" y="-83.5" font-family="Helvetica,sans-Serif" font-size="10.00">Game.UI.ShopWindow.LoadedShopItems</text>
</a>
</g>
</g>
<!-- Node3&#45;&gt;Node4 -->
<g id="edge3" class="edge">
<title>Node3&#45;&gt;Node4</title>
<path fill="none" stroke="midnightblue" d="M607.04,-86C615.44,-86 624.02,-86 632.6,-86"/>
<polygon fill="midnightblue" stroke="midnightblue" points="632.65,-89.5 642.65,-86 632.65,-82.5 632.65,-89.5"/>
</g>
<!-- Node3&#45;&gt;Node6 -->
<g id="edge5" class="edge">
<title>Node3&#45;&gt;Node6</title>
<path fill="none" stroke="midnightblue" d="M573.5,-95.54C605.9,-100.78 646.28,-107.31 680.18,-112.79"/>
<polygon fill="midnightblue" stroke="midnightblue" points="680.05,-116.31 690.48,-114.46 681.17,-109.4 680.05,-116.31"/>
</g>
<!-- Node3&#45;&gt;Node7 -->
<g id="edge6" class="edge">
<title>Node3&#45;&gt;Node7</title>
<path fill="none" stroke="midnightblue" d="M573.5,-76.46C605.9,-71.22 646.28,-64.69 680.18,-59.21"/>
<polygon fill="midnightblue" stroke="midnightblue" points="681.17,-62.6 690.48,-57.54 680.05,-55.69 681.17,-62.6"/>
</g>
<!-- Node5 -->
<g id="node5" class="node">
<title>Node5</title>
<g id="a_node5"><a xlink:href="classGame_1_1UI_1_1ShopItem.html#a8f8263dc4d8a04ebbd12545537c98879" target="_top" xlink:title="Initializes this shop item">
<polygon fill="white" stroke="black" points="903,-76.5 903,-95.5 1031,-95.5 1031,-76.5 903,-76.5"/>
<text text-anchor="middle" x="967" y="-83.5" font-family="Helvetica,sans-Serif" font-size="10.00">Game.UI.ShopItem.Init</text>
</a>
</g>
</g>
<!-- Node4&#45;&gt;Node5 -->
<g id="edge4" class="edge">
<title>Node4&#45;&gt;Node5</title>
<path fill="none" stroke="midnightblue" d="M858.12,-86C869.87,-86 881.64,-86 892.85,-86"/>
<polygon fill="midnightblue" stroke="midnightblue" points="892.97,-89.5 902.97,-86 892.97,-82.5 892.97,-89.5"/>
</g>
<!-- Node8 -->
<g id="node8" class="node">
<title>Node8</title>
<g id="a_node8"><a xlink:href="classUtility_1_1ModalWindow.html#adcef8cae2dffe4247c905d042ff0a8e3" target="_top" xlink:title="Show the modal window">
<polygon fill="white" stroke="black" points="894,-38.5 894,-57.5 1040,-57.5 1040,-38.5 894,-38.5"/>
<text text-anchor="middle" x="967" y="-45.5" font-family="Helvetica,sans-Serif" font-size="10.00">Utility.ModalWindow.Show</text>
</a>
</g>
</g>
<!-- Node7&#45;&gt;Node8 -->
<g id="edge7" class="edge">
<title>Node7&#45;&gt;Node8</title>
<path fill="none" stroke="midnightblue" d="M855.61,-48C864.99,-48 874.41,-48 883.57,-48"/>
<polygon fill="midnightblue" stroke="midnightblue" points="883.79,-51.5 893.79,-48 883.79,-44.5 883.79,-51.5"/>
</g>
</g>
</svg>
