<?xml version="1.0" encoding="UTF-8" standalone="no"?>
<!DOCTYPE svg PUBLIC "-//W3C//DTD SVG 1.1//EN"
 "http://www.w3.org/Graphics/SVG/1.1/DTD/svg11.dtd">
<!-- Generated by graphviz version 2.43.0 (0)
 -->
<!-- Title: User.UserData Pages: 1 -->
<svg width="395pt" height="633pt"
 viewBox="0.00 0.00 395.00 633.00" xmlns="http://www.w3.org/2000/svg" xmlns:xlink="http://www.w3.org/1999/xlink">
<g id="graph0" class="graph" transform="scale(1 1) rotate(0) translate(4 629)">
<title>User.UserData</title>
<!-- Node1 -->
<g id="Node000001" class="node">
<title>Node1</title>
<g id="a_Node000001"><a xlink:title="Singleton class for storing the user&#39;s data.">
<polygon fill="#999999" stroke="transparent" points="320,-289 0,-289 0,0 320,0 320,-289"/>
<text text-anchor="start" x="124.5" y="-276.5" font-family="Helvetica,sans-Serif" font-size="10.00">User.UserData</text>
<text text-anchor="start" x="4" y="-261.5" font-family="Helvetica,sans-Serif" font-size="10.00">+</text>
<text text-anchor="start" x="17" y="-261.5" font-family="Helvetica,sans-Serif" font-size="10.00">static UserData Instance</text>
<text text-anchor="start" x="4" y="-246.5" font-family="Helvetica,sans-Serif" font-size="10.00">+</text>
<text text-anchor="start" x="17" y="-246.5" font-family="Helvetica,sans-Serif" font-size="10.00">string Username</text>
<text text-anchor="start" x="4" y="-231.5" font-family="Helvetica,sans-Serif" font-size="10.00">+</text>
<text text-anchor="start" x="17" y="-231.5" font-family="Helvetica,sans-Serif" font-size="10.00">string Email</text>
<text text-anchor="start" x="4" y="-216.5" font-family="Helvetica,sans-Serif" font-size="10.00">+</text>
<text text-anchor="start" x="17" y="-216.5" font-family="Helvetica,sans-Serif" font-size="10.00">long Id</text>
<text text-anchor="start" x="4" y="-201.5" font-family="Helvetica,sans-Serif" font-size="10.00">+</text>
<text text-anchor="start" x="17" y="-201.5" font-family="Helvetica,sans-Serif" font-size="10.00">UserSettings UserSettings</text>
<text text-anchor="start" x="4" y="-186.5" font-family="Helvetica,sans-Serif" font-size="10.00">+</text>
<text text-anchor="start" x="17" y="-186.5" font-family="Helvetica,sans-Serif" font-size="10.00">Thesis_backend.Data_Structures.Game Game</text>
<text text-anchor="start" x="4" y="-171.5" font-family="Helvetica,sans-Serif" font-size="10.00">+</text>
<text text-anchor="start" x="17" y="-171.5" font-family="Helvetica,sans-Serif" font-size="10.00">DateTime LastLoggedIn</text>
<text text-anchor="start" x="4" y="-156.5" font-family="Helvetica,sans-Serif" font-size="10.00">+</text>
<text text-anchor="start" x="17" y="-156.5" font-family="Helvetica,sans-Serif" font-size="10.00">DateTime Registered</text>
<text text-anchor="start" x="4" y="-141.5" font-family="Helvetica,sans-Serif" font-size="10.00">+</text>
<text text-anchor="start" x="17" y="-141.5" font-family="Helvetica,sans-Serif" font-size="10.00">bool LoggedIn</text>
<text text-anchor="start" x="4" y="-126.5" font-family="Helvetica,sans-Serif" font-size="10.00">+</text>
<text text-anchor="start" x="17" y="-126.5" font-family="Helvetica,sans-Serif" font-size="10.00">long TotalScore</text>
<text text-anchor="start" x="4" y="-111.5" font-family="Helvetica,sans-Serif" font-size="10.00">+</text>
<text text-anchor="start" x="17" y="-111.5" font-family="Helvetica,sans-Serif" font-size="10.00">long CurrentTaskScore</text>
<text text-anchor="start" x="4" y="-96.5" font-family="Helvetica,sans-Serif" font-size="10.00">+</text>
<text text-anchor="start" x="17" y="-96.5" font-family="Helvetica,sans-Serif" font-size="10.00">int CompletedGoodTasks</text>
<text text-anchor="start" x="4" y="-81.5" font-family="Helvetica,sans-Serif" font-size="10.00">+</text>
<text text-anchor="start" x="17" y="-81.5" font-family="Helvetica,sans-Serif" font-size="10.00">int CompletedBadTasks</text>
<text text-anchor="start" x="4" y="-66.5" font-family="Helvetica,sans-Serif" font-size="10.00">+</text>
<text text-anchor="start" x="17" y="-66.5" font-family="Helvetica,sans-Serif" font-size="10.00">void Init(Thesis_backend.Data_Structures.User loggedInUser)</text>
<text text-anchor="start" x="4" y="-51.5" font-family="Helvetica,sans-Serif" font-size="10.00">+</text>
<text text-anchor="start" x="17" y="-51.5" font-family="Helvetica,sans-Serif" font-size="10.00">void UpdateTaskScore(long newAmount)</text>
<text text-anchor="start" x="4" y="-36.5" font-family="Helvetica,sans-Serif" font-size="10.00">+</text>
<text text-anchor="start" x="17" y="-36.5" font-family="Helvetica,sans-Serif" font-size="10.00">void Logout()</text>
<text text-anchor="start" x="6.5" y="-21.5" font-family="Helvetica,sans-Serif" font-size="10.00">&#45;</text>
<text text-anchor="start" x="17" y="-21.5" font-family="Helvetica,sans-Serif" font-size="10.00">UserData()</text>
<text text-anchor="start" x="6.5" y="-6.5" font-family="Helvetica,sans-Serif" font-size="10.00">&#45;</text>
<text text-anchor="start" x="17" y="-6.5" font-family="Helvetica,sans-Serif" font-size="10.00">static UserData GetOrCreate()</text>
<polygon fill="#666666" stroke="#666666" points="0,-271.5 0,-271.5 320,-271.5 320,-271.5 0,-271.5"/>
<polygon fill="#666666" stroke="#666666" points="0,-76.5 0,-76.5 15,-76.5 15,-76.5 0,-76.5"/>
<polygon fill="#666666" stroke="#666666" points="15,-76.5 15,-76.5 320,-76.5 320,-76.5 15,-76.5"/>
<polygon fill="none" stroke="#666666" points="0,0 0,-289 320,-289 320,0 0,0"/>
</a>
</g>
</g>
<!-- Node2 -->
<g id="Node000002" class="node">
<title>Node2</title>
<g id="a_Node000002"><a xlink:href="classUser_1_1UserData.html" target="_top" xlink:title="Singleton class for storing the user&#39;s data.">
<polygon fill="white" stroke="transparent" points="320,-625 0,-625 0,-336 320,-336 320,-625"/>
<text text-anchor="start" x="124.5" y="-612.5" font-family="Helvetica,sans-Serif" font-size="10.00">User.UserData</text>
<text text-anchor="start" x="4" y="-597.5" font-family="Helvetica,sans-Serif" font-size="10.00">+</text>
<text text-anchor="start" x="17" y="-597.5" font-family="Helvetica,sans-Serif" font-size="10.00">static UserData Instance</text>
<text text-anchor="start" x="4" y="-582.5" font-family="Helvetica,sans-Serif" font-size="10.00">+</text>
<text text-anchor="start" x="17" y="-582.5" font-family="Helvetica,sans-Serif" font-size="10.00">string Username</text>
<text text-anchor="start" x="4" y="-567.5" font-family="Helvetica,sans-Serif" font-size="10.00">+</text>
<text text-anchor="start" x="17" y="-567.5" font-family="Helvetica,sans-Serif" font-size="10.00">string Email</text>
<text text-anchor="start" x="4" y="-552.5" font-family="Helvetica,sans-Serif" font-size="10.00">+</text>
<text text-anchor="start" x="17" y="-552.5" font-family="Helvetica,sans-Serif" font-size="10.00">long Id</text>
<text text-anchor="start" x="4" y="-537.5" font-family="Helvetica,sans-Serif" font-size="10.00">+</text>
<text text-anchor="start" x="17" y="-537.5" font-family="Helvetica,sans-Serif" font-size="10.00">UserSettings UserSettings</text>
<text text-anchor="start" x="4" y="-522.5" font-family="Helvetica,sans-Serif" font-size="10.00">+</text>
<text text-anchor="start" x="17" y="-522.5" font-family="Helvetica,sans-Serif" font-size="10.00">Thesis_backend.Data_Structures.Game Game</text>
<text text-anchor="start" x="4" y="-507.5" font-family="Helvetica,sans-Serif" font-size="10.00">+</text>
<text text-anchor="start" x="17" y="-507.5" font-family="Helvetica,sans-Serif" font-size="10.00">DateTime LastLoggedIn</text>
<text text-anchor="start" x="4" y="-492.5" font-family="Helvetica,sans-Serif" font-size="10.00">+</text>
<text text-anchor="start" x="17" y="-492.5" font-family="Helvetica,sans-Serif" font-size="10.00">DateTime Registered</text>
<text text-anchor="start" x="4" y="-477.5" font-family="Helvetica,sans-Serif" font-size="10.00">+</text>
<text text-anchor="start" x="17" y="-477.5" font-family="Helvetica,sans-Serif" font-size="10.00">bool LoggedIn</text>
<text text-anchor="start" x="4" y="-462.5" font-family="Helvetica,sans-Serif" font-size="10.00">+</text>
<text text-anchor="start" x="17" y="-462.5" font-family="Helvetica,sans-Serif" font-size="10.00">long TotalScore</text>
<text text-anchor="start" x="4" y="-447.5" font-family="Helvetica,sans-Serif" font-size="10.00">+</text>
<text text-anchor="start" x="17" y="-447.5" font-family="Helvetica,sans-Serif" font-size="10.00">long CurrentTaskScore</text>
<text text-anchor="start" x="4" y="-432.5" font-family="Helvetica,sans-Serif" font-size="10.00">+</text>
<text text-anchor="start" x="17" y="-432.5" font-family="Helvetica,sans-Serif" font-size="10.00">int CompletedGoodTasks</text>
<text text-anchor="start" x="4" y="-417.5" font-family="Helvetica,sans-Serif" font-size="10.00">+</text>
<text text-anchor="start" x="17" y="-417.5" font-family="Helvetica,sans-Serif" font-size="10.00">int CompletedBadTasks</text>
<text text-anchor="start" x="4" y="-402.5" font-family="Helvetica,sans-Serif" font-size="10.00">+</text>
<text text-anchor="start" x="17" y="-402.5" font-family="Helvetica,sans-Serif" font-size="10.00">void Init(Thesis_backend.Data_Structures.User loggedInUser)</text>
<text text-anchor="start" x="4" y="-387.5" font-family="Helvetica,sans-Serif" font-size="10.00">+</text>
<text text-anchor="start" x="17" y="-387.5" font-family="Helvetica,sans-Serif" font-size="10.00">void UpdateTaskScore(long newAmount)</text>
<text text-anchor="start" x="4" y="-372.5" font-family="Helvetica,sans-Serif" font-size="10.00">+</text>
<text text-anchor="start" x="17" y="-372.5" font-family="Helvetica,sans-Serif" font-size="10.00">void Logout()</text>
<text text-anchor="start" x="6.5" y="-357.5" font-family="Helvetica,sans-Serif" font-size="10.00">&#45;</text>
<text text-anchor="start" x="17" y="-357.5" font-family="Helvetica,sans-Serif" font-size="10.00">UserData()</text>
<text text-anchor="start" x="6.5" y="-342.5" font-family="Helvetica,sans-Serif" font-size="10.00">&#45;</text>
<text text-anchor="start" x="17" y="-342.5" font-family="Helvetica,sans-Serif" font-size="10.00">static UserData GetOrCreate()</text>
<polygon fill="#666666" stroke="#666666" points="0,-607.5 0,-607.5 320,-607.5 320,-607.5 0,-607.5"/>
<polygon fill="#666666" stroke="#666666" points="0,-412.5 0,-412.5 15,-412.5 15,-412.5 0,-412.5"/>
<polygon fill="#666666" stroke="#666666" points="15,-412.5 15,-412.5 320,-412.5 320,-412.5 15,-412.5"/>
<polygon fill="none" stroke="#666666" points="0,-336 0,-625 320,-625 320,-336 0,-336"/>
</a>
</g>
</g>
<!-- Node2&#45;&gt;Node1 -->
<g id="edge1_Node000001_Node000002" class="edge">
<title>Node2&#45;&gt;Node1</title>
<g id="a_edge1_Node000001_Node000002"><a xlink:title=" ">
<path fill="none" stroke="#63b8ff" d="M160,-335.92C160,-324.43 160,-312.8 160,-301.24"/>
<polygon fill="none" stroke="#63b8ff" points="160,-301.23 156,-295.23 160,-289.23 164,-295.23 160,-301.23"/>
</a>
</g>
<text text-anchor="middle" x="184.5" y="-310" font-family="Helvetica,sans-Serif" font-size="10.00" fill="grey"> &#45;instance</text>
</g>
<!-- Node2&#45;&gt;Node2 -->
<g id="edge2_Node000002_Node000002" class="edge">
<title>Node2&#45;&gt;Node2</title>
<g id="a_edge2_Node000002_Node000002"><a xlink:title=" ">
<path fill="none" stroke="#63b8ff" d="M320.2,-503.1C331.26,-497.92 338,-490.39 338,-480.5 338,-474.17 335.23,-468.8 330.34,-464.4"/>
<polygon fill="none" stroke="#63b8ff" points="330.3,-464.37 323.09,-464.51 320.2,-457.9 327.41,-457.77 330.3,-464.37"/>
</a>
</g>
<text text-anchor="middle" x="362.5" y="-478" font-family="Helvetica,sans-Serif" font-size="10.00" fill="grey"> &#45;instance</text>
</g>
</g>
</svg>
