<?xml version="1.0" encoding="UTF-8" standalone="no"?>
<!DOCTYPE svg PUBLIC "-//W3C//DTD SVG 1.1//EN"
 "http://www.w3.org/Graphics/SVG/1.1/DTD/svg11.dtd">
<!-- Generated by graphviz version 2.43.0 (0)
 -->
<!-- Title: MainPage.MainWindowController Pages: 1 -->
<!--zoomable 972 -->
<svg id="main" version="1.1" xmlns="http://www.w3.org/2000/svg" xmlns:xlink="http://www.w3.org/1999/xlink" xml:space="preserve" onload="init(evt)">
<style type="text/css"><![CDATA[
.edge:hover path { stroke: red; }
.edge:hover polygon { stroke: red; fill: red; }
]]></style>
<script type="text/javascript"><![CDATA[
var edges = document.getElementsByTagName('g');
if (edges && edges.length) {
  for (var i=0;i<edges.length;i++) {
    if (edges[i].id.substr(0,4)=='edge') {
      edges[i].setAttribute('class','edge');
    }
  }
}
]]></script>
        <defs>
                <circle id="rim" cx="0" cy="0" r="7"/>
                <circle id="rim2" cx="0" cy="0" r="3.5"/>
                <g id="zoomPlus">
                        <use xlink:href="#rim" fill="#404040">
                                <set attributeName="fill" to="#808080" begin="zoomplus.mouseover" end="zoomplus.mouseout"/>
                        </use>
                        <path d="M-4,0h8M0,-4v8" fill="none" stroke="white" stroke-width="1.5" pointer-events="none"/>
                </g>
                <g id="zoomMin">
                        <use xlink:href="#rim" fill="#404040">
                                <set attributeName="fill" to="#808080" begin="zoomminus.mouseover" end="zoomminus.mouseout"/>
                        </use>
                        <path d="M-4,0h8" fill="none" stroke="white" stroke-width="1.5" pointer-events="none"/>
                </g>
                <g id="dirArrow">
                        <path fill="none" stroke="white" stroke-width="1.5" d="M0,-3.0v7 M-2.5,-0.5L0,-3.0L2.5,-0.5"/>
                </g>
               <g id="resetDef">
                       <use xlink:href="#rim2" fill="#404040">
                               <set attributeName="fill" to="#808080" begin="reset.mouseover" end="reset.mouseout"/>
                       </use>
               </g>
        </defs>

<script type="text/javascript">
var viewWidth = 506;
var viewHeight = 972;
var sectionId = 'dynsection-1';
</script>
<script xlink:href="svgpan.js"/>
<svg id="graph" class="graph">
<g id="viewport">
<title>MainPage.MainWindowController</title>
<polygon fill="white" stroke="transparent" points="-4,4 -4,-968 502,-968 502,4 -4,4"/>
<!-- Node1 -->
<g id="node1" class="node">
<title>Node1</title>
<g id="a_node1"><a xlink:title="Handles the main window&#39;s controls">
<polygon fill="#bfbfbf" stroke="black" points="0,-336.5 0,-602.5 348,-602.5 348,-336.5 0,-336.5"/>
<text text-anchor="middle" x="174" y="-590.5" font-family="Helvetica,sans-Serif" font-size="10.00">MainPage.MainWindowController</text>
<polyline fill="none" stroke="black" points="0,-583.5 348,-583.5 "/>
<text text-anchor="start" x="8" y="-571.5" font-family="Helvetica,sans-Serif" font-size="10.00">+ Dictionary&lt; long, TaskDisplayHandler &gt; Tasks</text>
<text text-anchor="start" x="8" y="-560.5" font-family="Helvetica,sans-Serif" font-size="10.00">+ TaskSortType TaskSortType</text>
<text text-anchor="start" x="8" y="-549.5" font-family="Helvetica,sans-Serif" font-size="10.00">&#45; TMP_Text usernameText</text>
<text text-anchor="start" x="8" y="-538.5" font-family="Helvetica,sans-Serif" font-size="10.00">&#45; TMP_Text currentTaskScoreText</text>
<text text-anchor="start" x="8" y="-527.5" font-family="Helvetica,sans-Serif" font-size="10.00">&#45; GameObject taskParent</text>
<text text-anchor="start" x="8" y="-516.5" font-family="Helvetica,sans-Serif" font-size="10.00">&#45; GameObject taskPrefab</text>
<text text-anchor="start" x="8" y="-505.5" font-family="Helvetica,sans-Serif" font-size="10.00">&#45; TMP_Dropdown taskSortDropdown</text>
<polyline fill="none" stroke="black" points="0,-498.5 348,-498.5 "/>
<text text-anchor="start" x="8" y="-486.5" font-family="Helvetica,sans-Serif" font-size="10.00">+ void UpdateUserData(Thesis_backend.Data_Structures.User user)</text>
<text text-anchor="start" x="8" y="-475.5" font-family="Helvetica,sans-Serif" font-size="10.00">+ void RemoveTask(long taskId)</text>
<text text-anchor="start" x="8" y="-464.5" font-family="Helvetica,sans-Serif" font-size="10.00">+ void UpdateTaskLabel(long taskId)</text>
<text text-anchor="start" x="8" y="-453.5" font-family="Helvetica,sans-Serif" font-size="10.00">+ void SortingChanged()</text>
<text text-anchor="start" x="8" y="-442.5" font-family="Helvetica,sans-Serif" font-size="10.00">+ void LoadGoodTasks(bool updateDisplay=true)</text>
<text text-anchor="start" x="8" y="-431.5" font-family="Helvetica,sans-Serif" font-size="10.00">+ void LoadBadHabits(bool updateDisplay=true)</text>
<text text-anchor="start" x="8" y="-420.5" font-family="Helvetica,sans-Serif" font-size="10.00">+ GameObject CreateTask(PlayerTask taskContainer)</text>
<text text-anchor="start" x="8" y="-409.5" font-family="Helvetica,sans-Serif" font-size="10.00">+ void ShowTaskFail(string content)</text>
<text text-anchor="start" x="8" y="-398.5" font-family="Helvetica,sans-Serif" font-size="10.00">+ void LoadGameScene()</text>
<text text-anchor="start" x="8" y="-387.5" font-family="Helvetica,sans-Serif" font-size="10.00">&#45; async void Start()</text>
<text text-anchor="start" x="8" y="-376.5" font-family="Helvetica,sans-Serif" font-size="10.00">&#45; void LoadTasks()</text>
<text text-anchor="start" x="8" y="-365.5" font-family="Helvetica,sans-Serif" font-size="10.00">&#45; void ShowRequestFail(string content)</text>
<text text-anchor="start" x="8" y="-354.5" font-family="Helvetica,sans-Serif" font-size="10.00">&#45; void CreateTaskPrefabs(List&lt; Thesis_backend.Data</text>
<text text-anchor="start" x="8" y="-343.5" font-family="Helvetica,sans-Serif" font-size="10.00">_Structures.PlayerTask &gt; requestResult)</text>
</a>
</g>
</g>
<!-- Node4 -->
<g id="node4" class="node">
<title>Node4</title>
<g id="a_node4"><a xlink:href="classMainPage_1_1TaskOpenPanelController.html" target="_top" xlink:title="Controller for displaying, editing and creating tasks">
<polygon fill="white" stroke="black" points="124,-0.5 124,-288.5 498,-288.5 498,-0.5 124,-0.5"/>
<text text-anchor="middle" x="311" y="-276.5" font-family="Helvetica,sans-Serif" font-size="10.00">MainPage.TaskOpenPanelController</text>
<polyline fill="none" stroke="black" points="124,-269.5 498,-269.5 "/>
<text text-anchor="start" x="132" y="-257.5" font-family="Helvetica,sans-Serif" font-size="10.00">+ EventHandler&lt; TaskClosedEventArgs &gt; TaskClosedEventHandler</text>
<text text-anchor="start" x="132" y="-246.5" font-family="Helvetica,sans-Serif" font-size="10.00">+ static readonly int[] TASKINTERVALS</text>
<text text-anchor="start" x="132" y="-235.5" font-family="Helvetica,sans-Serif" font-size="10.00">+ PlayerTask CurrentTask</text>
<text text-anchor="start" x="132" y="-224.5" font-family="Helvetica,sans-Serif" font-size="10.00">&#45; TMP_InputField taskNameInput</text>
<text text-anchor="start" x="132" y="-213.5" font-family="Helvetica,sans-Serif" font-size="10.00">&#45; TMP_Dropdown taskIntervals</text>
<text text-anchor="start" x="132" y="-202.5" font-family="Helvetica,sans-Serif" font-size="10.00">&#45; TMP_InputField descriptionInput</text>
<text text-anchor="start" x="132" y="-191.5" font-family="Helvetica,sans-Serif" font-size="10.00">&#45; Button goodTaskButton</text>
<text text-anchor="start" x="132" y="-180.5" font-family="Helvetica,sans-Serif" font-size="10.00">&#45; Button badHabitButton</text>
<text text-anchor="start" x="132" y="-169.5" font-family="Helvetica,sans-Serif" font-size="10.00">&#45; Button deleteTaskButton</text>
<text text-anchor="start" x="132" y="-158.5" font-family="Helvetica,sans-Serif" font-size="10.00">&#45; bool isNewTask</text>
<text text-anchor="start" x="132" y="-147.5" font-family="Helvetica,sans-Serif" font-size="10.00">&#45; PlayerTask playerTaskOnOpen</text>
<polyline fill="none" stroke="black" points="124,-140.5 498,-140.5 "/>
<text text-anchor="start" x="132" y="-128.5" font-family="Helvetica,sans-Serif" font-size="10.00">+ void OpenUp()</text>
<text text-anchor="start" x="132" y="-117.5" font-family="Helvetica,sans-Serif" font-size="10.00">+ void OpenUp(PlayerTask taskContainer=null, TaskType</text>
<text text-anchor="start" x="132" y="-106.5" font-family="Helvetica,sans-Serif" font-size="10.00"> type=TaskType.GoodTask)</text>
<text text-anchor="start" x="132" y="-95.5" font-family="Helvetica,sans-Serif" font-size="10.00">+ void MakeItBadHabit()</text>
<text text-anchor="start" x="132" y="-84.5" font-family="Helvetica,sans-Serif" font-size="10.00">+ void MakeItGoodTask()</text>
<text text-anchor="start" x="132" y="-73.5" font-family="Helvetica,sans-Serif" font-size="10.00">+ void Cancel()</text>
<text text-anchor="start" x="132" y="-62.5" font-family="Helvetica,sans-Serif" font-size="10.00">+ void Save()</text>
<text text-anchor="start" x="132" y="-51.5" font-family="Helvetica,sans-Serif" font-size="10.00">+ void DeleteTask()</text>
<text text-anchor="start" x="132" y="-40.5" font-family="Helvetica,sans-Serif" font-size="10.00">&#45; void SavedTask(Thesis_backend.Data_Structures.PlayerTask savedTask)</text>
<text text-anchor="start" x="132" y="-29.5" font-family="Helvetica,sans-Serif" font-size="10.00">&#45; void DeletedTask(string result)</text>
<text text-anchor="start" x="132" y="-18.5" font-family="Helvetica,sans-Serif" font-size="10.00">&#45; void CollectFromFields()</text>
<text text-anchor="start" x="132" y="-7.5" font-family="Helvetica,sans-Serif" font-size="10.00">&#45; void UpdateButtons()</text>
</a>
</g>
</g>
<!-- Node1&#45;&gt;Node4 -->
<g id="edge5" class="edge">
<title>Node1&#45;&gt;Node4</title>
<path fill="none" stroke="#404040" d="M280.63,-336.12C283.69,-330.14 286.5,-324.08 289,-318 291.34,-312.3 293.45,-306.41 295.35,-300.4"/>
<polygon fill="none" stroke="#404040" points="295.39,-300.23 293.22,-293.36 298.74,-288.71 300.91,-295.59 295.39,-300.23"/>
<text text-anchor="middle" x="324" y="-310" font-family="Helvetica,sans-Serif" font-size="10.00"> &#45;uIController</text>
</g>
<!-- Node2 -->
<g id="node2" class="node">
<title>Node2</title>
<g id="a_node2"><a xlink:href="classUtility_1_1ThreadSafeMonoBehaviour.html" target="_top" xlink:title="Safely stores if the gameobject been destroyed in a bool">
<polygon fill="white" stroke="black" points="166.5,-811.5 166.5,-868.5 315.5,-868.5 315.5,-811.5 166.5,-811.5"/>
<text text-anchor="middle" x="241" y="-856.5" font-family="Helvetica,sans-Serif" font-size="10.00">ThreadSafeMonoBehaviour</text>
<polyline fill="none" stroke="black" points="166.5,-849.5 315.5,-849.5 "/>
<text text-anchor="start" x="174.5" y="-837.5" font-family="Helvetica,sans-Serif" font-size="10.00">+ bool Destroyed</text>
<polyline fill="none" stroke="black" points="166.5,-830.5 315.5,-830.5 "/>
<text text-anchor="start" x="174.5" y="-818.5" font-family="Helvetica,sans-Serif" font-size="10.00"># void OnDestroy()</text>
</a>
</g>
</g>
<!-- Node2&#45;&gt;Node1 -->
<g id="edge1" class="edge">
<title>Node2&#45;&gt;Node1</title>
<path fill="none" stroke="midnightblue" d="M157.3,-814C138.97,-804.48 121.83,-791.52 111,-774 79.45,-722.96 87.34,-658.8 106.29,-602.64"/>
<polygon fill="none" stroke="midnightblue" points="155.85,-817.19 166.37,-818.41 158.91,-810.89 155.85,-817.19"/>
</g>
<!-- Node2&#45;&gt;Node4 -->
<g id="edge4" class="edge">
<title>Node2&#45;&gt;Node4</title>
<path fill="none" stroke="midnightblue" d="M324.7,-814C343.03,-804.48 360.17,-791.52 371,-774 461.54,-627.5 418.34,-424.07 371.46,-288.78"/>
<polygon fill="none" stroke="midnightblue" points="323.09,-810.89 315.63,-818.41 326.15,-817.19 323.09,-810.89"/>
</g>
<!-- Node5 -->
<g id="node5" class="node">
<title>Node5</title>
<g id="a_node5"><a xlink:href="classUtility_1_1ModalWindow.html" target="_top" xlink:title="Modal window for alerting the user">
<polygon fill="white" stroke="black" points="120,-650.5 120,-773.5 362,-773.5 362,-650.5 120,-650.5"/>
<text text-anchor="middle" x="241" y="-761.5" font-family="Helvetica,sans-Serif" font-size="10.00">Utility.ModalWindow</text>
<polyline fill="none" stroke="black" points="120,-754.5 362,-754.5 "/>
<text text-anchor="start" x="128" y="-742.5" font-family="Helvetica,sans-Serif" font-size="10.00">&#45; TMP_Text ModalTitleText</text>
<text text-anchor="start" x="128" y="-731.5" font-family="Helvetica,sans-Serif" font-size="10.00">&#45; TMP_Text ModalContentText</text>
<text text-anchor="start" x="128" y="-720.5" font-family="Helvetica,sans-Serif" font-size="10.00">&#45; Action onOkAction</text>
<polyline fill="none" stroke="black" points="120,-713.5 362,-713.5 "/>
<text text-anchor="start" x="128" y="-701.5" font-family="Helvetica,sans-Serif" font-size="10.00">+ void Show()</text>
<text text-anchor="start" x="128" y="-690.5" font-family="Helvetica,sans-Serif" font-size="10.00">+ void Show(string title, string content, Action</text>
<text text-anchor="start" x="128" y="-679.5" font-family="Helvetica,sans-Serif" font-size="10.00"> onOkAction=null)</text>
<text text-anchor="start" x="128" y="-668.5" font-family="Helvetica,sans-Serif" font-size="10.00">+ void Hide()</text>
<text text-anchor="start" x="128" y="-657.5" font-family="Helvetica,sans-Serif" font-size="10.00">+ void ConfirmButtonClick()</text>
</a>
</g>
</g>
<!-- Node2&#45;&gt;Node5 -->
<g id="edge7" class="edge">
<title>Node2&#45;&gt;Node5</title>
<path fill="none" stroke="midnightblue" d="M241,-801.18C241,-792.49 241,-783.03 241,-773.65"/>
<polygon fill="none" stroke="midnightblue" points="237.5,-801.35 241,-811.35 244.5,-801.35 237.5,-801.35"/>
</g>
<!-- Node3 -->
<g id="node3" class="node">
<title>Node3</title>
<g id="a_node3"><a xlink:title=" ">
<polygon fill="white" stroke="#bfbfbf" points="194.5,-906.5 194.5,-963.5 287.5,-963.5 287.5,-906.5 194.5,-906.5"/>
<text text-anchor="middle" x="241" y="-951.5" font-family="Helvetica,sans-Serif" font-size="10.00">MonoBehaviour</text>
<polyline fill="none" stroke="#bfbfbf" points="194.5,-944.5 287.5,-944.5 "/>
<text text-anchor="middle" x="241" y="-932.5" font-family="Helvetica,sans-Serif" font-size="10.00"> </text>
<polyline fill="none" stroke="#bfbfbf" points="194.5,-925.5 287.5,-925.5 "/>
<text text-anchor="middle" x="241" y="-913.5" font-family="Helvetica,sans-Serif" font-size="10.00"> </text>
</a>
</g>
</g>
<!-- Node3&#45;&gt;Node2 -->
<g id="edge2" class="edge">
<title>Node3&#45;&gt;Node2</title>
<path fill="none" stroke="midnightblue" d="M241,-896.24C241,-887.03 241,-877.35 241,-868.71"/>
<polygon fill="none" stroke="midnightblue" points="237.5,-896.35 241,-906.35 244.5,-896.35 237.5,-896.35"/>
</g>
<!-- Node4&#45;&gt;Node1 -->
<g id="edge3" class="edge">
<title>Node4&#45;&gt;Node1</title>
<path fill="none" stroke="#404040" d="M169.38,-288.61C166.26,-294.63 163.45,-300.77 161,-307 158.83,-312.52 157.11,-318.22 155.77,-324.05"/>
<polygon fill="none" stroke="#404040" points="155.72,-324.34 158.57,-330.96 153.56,-336.14 150.7,-329.52 155.72,-324.34"/>
<text text-anchor="middle" x="225" y="-310" font-family="Helvetica,sans-Serif" font-size="10.00"> &#45;taskOpenPanelController</text>
</g>
<!-- Node5&#45;&gt;Node1 -->
<g id="edge6" class="edge">
<title>Node5&#45;&gt;Node1</title>
<path fill="none" stroke="#404040" d="M224.09,-650.31C220.95,-639.02 217.54,-626.79 214.03,-614.2"/>
<polygon fill="none" stroke="#404040" points="214.01,-614.12 208.55,-609.41 210.79,-602.56 216.25,-607.26 214.01,-614.12"/>
<text text-anchor="middle" x="255.5" y="-624" font-family="Helvetica,sans-Serif" font-size="10.00"> &#45;modalWindow</text>
</g>
</g>
</svg>
        <g id="navigator" transform="translate(0 0)" fill="#404254">
                <rect fill="#f2f5e9" fill-opacity="0.5" stroke="#606060" stroke-width=".5" x="0" y="0" width="60" height="60"/>
                <use id="zoomplus" xlink:href="#zoomPlus" x="17" y="9" onmousedown="handleZoom(evt,'in')"/>
                <use id="zoomminus" xlink:href="#zoomMin" x="42" y="9" onmousedown="handleZoom(evt,'out')"/>
                <use id="reset" xlink:href="#resetDef" x="30" y="36" onmousedown="handleReset()"/>
                <g id="arrowUp" xlink:href="#dirArrow" transform="translate(30 24)" onmousedown="handlePan(0,-1)">
                  <use xlink:href="#rim" fill="#404040">
                        <set attributeName="fill" to="#808080" begin="arrowUp.mouseover" end="arrowUp.mouseout"/>
                  </use>
                  <path fill="none" stroke="white" stroke-width="1.5" d="M0,-3.0v7 M-2.5,-0.5L0,-3.0L2.5,-0.5"/>
                </g>
                <g id="arrowRight" xlink:href="#dirArrow" transform="rotate(90) translate(36 -43)" onmousedown="handlePan(1,0)">
                  <use xlink:href="#rim" fill="#404040">
                        <set attributeName="fill" to="#808080" begin="arrowRight.mouseover" end="arrowRight.mouseout"/>
                  </use>
                  <path fill="none" stroke="white" stroke-width="1.5" d="M0,-3.0v7 M-2.5,-0.5L0,-3.0L2.5,-0.5"/>
                </g>
                <g id="arrowDown" xlink:href="#dirArrow" transform="rotate(180) translate(-30 -48)" onmousedown="handlePan(0,1)">
                  <use xlink:href="#rim" fill="#404040">
                        <set attributeName="fill" to="#808080" begin="arrowDown.mouseover" end="arrowDown.mouseout"/>
                  </use>
                  <path fill="none" stroke="white" stroke-width="1.5" d="M0,-3.0v7 M-2.5,-0.5L0,-3.0L2.5,-0.5"/>
                </g>
                <g id="arrowLeft" xlink:href="#dirArrow" transform="rotate(270) translate(-36 17)" onmousedown="handlePan(-1,0)">
                  <use xlink:href="#rim" fill="#404040">
                        <set attributeName="fill" to="#808080" begin="arrowLeft.mouseover" end="arrowLeft.mouseout"/>
                  </use>
                  <path fill="none" stroke="white" stroke-width="1.5" d="M0,-3.0v7 M-2.5,-0.5L0,-3.0L2.5,-0.5"/>
                </g>
        </g>
        <svg viewBox="0 0 15 15" width="100%" height="30px" preserveAspectRatio="xMaxYMin meet">
         <g id="arrow_out" transform="scale(0.3 0.3)">
          <a xlink:href="classMainPage_1_1MainWindowController__coll__graph_org.svg" target="_base">
           <rect id="button" ry="5" rx="5" y="6" x="6" height="38" width="38"
                fill="#f2f5e9" fill-opacity="0.5" stroke="#606060" stroke-width="1.0"/>
           <path id="arrow"
             d="M 11.500037,31.436501 C 11.940474,20.09759 22.043105,11.32322 32.158766,21.979434 L 37.068811,17.246167 C 37.068811,17.246167 37.088388,32 37.088388,32 L 22.160133,31.978069 C 22.160133,31.978069 26.997745,27.140456 26.997745,27.140456 C 18.528582,18.264221 13.291696,25.230495 11.500037,31.436501 z"
             style="fill:#404040;"/>
          </a>
         </g>
        </svg>
</svg>
