<?xml version="1.0" encoding="UTF-8" standalone="no"?>
<!DOCTYPE svg PUBLIC "-//W3C//DTD SVG 1.1//EN"
 "http://www.w3.org/Graphics/SVG/1.1/DTD/svg11.dtd">
<!-- Generated by graphviz version 2.43.0 (0)
 -->
<!-- Title: Game.World.RoadGenerator.CheckForward Pages: 1 -->
<svg width="745pt" height="45pt"
 viewBox="0.00 0.00 745.00 45.00" xmlns="http://www.w3.org/2000/svg" xmlns:xlink="http://www.w3.org/1999/xlink">
<g id="graph0" class="graph" transform="scale(1 1) rotate(0) translate(4 41)">
<title>Game.World.RoadGenerator.CheckForward</title>
<!-- Node1 -->
<g id="Node000001" class="node">
<title>Node1</title>
<g id="a_Node000001"><a xlink:title="Checks if the road moving in that direction will run into an another road.">
<polygon fill="#999999" stroke="#666666" points="737,-19 513,-19 513,0 737,0 737,-19"/>
<text text-anchor="middle" x="625" y="-7" font-family="Helvetica,sans-Serif" font-size="10.00">Game.World.RoadGenerator.CheckForward</text>
</a>
</g>
</g>
<!-- Node1&#45;&gt;Node1 -->
<g id="edge1_Node000001_Node000001" class="edge">
<title>Node1&#45;&gt;Node1</title>
<g id="a_edge1_Node000001_Node000001"><a xlink:title=" ">
<path fill="none" stroke="#63b8ff" d="M672.25,-25.14C675.31,-31.57 659.56,-37 625,-37 579.86,-37 566.81,-27.73 585.85,-19.08"/>
<polygon fill="#63b8ff" stroke="#63b8ff" points="674.25,-22.27 664.15,-19.08 670.06,-27.87 674.25,-22.27"/>
</a>
</g>
</g>
<!-- Node2 -->
<g id="Node000002" class="node">
<title>Node2</title>
<g id="a_Node000002"><a xlink:href="classGame_1_1World_1_1RoadGenerator.html#ab3b7fa7ff101a87611b4be39e1777d51" target="_top" xlink:title="Creates the roads recursively.">
<polygon fill="white" stroke="#666666" points="477,-19 265,-19 265,0 477,0 477,-19"/>
<text text-anchor="middle" x="371" y="-7" font-family="Helvetica,sans-Serif" font-size="10.00">Game.World.RoadGenerator.CreateRoad</text>
</a>
</g>
</g>
<!-- Node1&#45;&gt;Node2 -->
<g id="edge2_Node000001_Node000002" class="edge">
<title>Node1&#45;&gt;Node2</title>
<g id="a_edge2_Node000001_Node000002"><a xlink:title=" ">
<path fill="none" stroke="#63b8ff" d="M502.69,-9.5C494.11,-9.5 485.51,-9.5 477.03,-9.5"/>
<polygon fill="#63b8ff" stroke="#63b8ff" points="502.74,-13 512.74,-9.5 502.74,-6 502.74,-13"/>
</a>
</g>
</g>
<!-- Node2&#45;&gt;Node2 -->
<g id="edge3_Node000002_Node000002" class="edge">
<title>Node2&#45;&gt;Node2</title>
<g id="a_edge3_Node000002_Node000002"><a xlink:title=" ">
<path fill="none" stroke="#63b8ff" d="M418.25,-25.14C421.31,-31.57 405.56,-37 371,-37 325.86,-37 312.81,-27.73 331.85,-19.08"/>
<polygon fill="#63b8ff" stroke="#63b8ff" points="420.25,-22.27 410.15,-19.08 416.06,-27.87 420.25,-22.27"/>
</a>
</g>
</g>
<!-- Node3 -->
<g id="Node000003" class="node">
<title>Node3</title>
<g id="a_Node000003"><a xlink:href="classGame_1_1World_1_1RoadGenerator.html#aedcb774ed36687d05b41b26378207e53" target="_top" xlink:title="Creates the road matrix.">
<polygon fill="white" stroke="#666666" points="229,-19 0,-19 0,0 229,0 229,-19"/>
<text text-anchor="middle" x="114.5" y="-7" font-family="Helvetica,sans-Serif" font-size="10.00">Game.World.RoadGenerator.RoadGenerator</text>
</a>
</g>
</g>
<!-- Node2&#45;&gt;Node3 -->
<g id="edge4_Node000002_Node000003" class="edge">
<title>Node2&#45;&gt;Node3</title>
<g id="a_edge4_Node000002_Node000003"><a xlink:title=" ">
<path fill="none" stroke="#63b8ff" d="M254.4,-9.5C245.95,-9.5 237.44,-9.5 229.01,-9.5"/>
<polygon fill="#63b8ff" stroke="#63b8ff" points="254.65,-13 264.65,-9.5 254.65,-6 254.65,-13"/>
</a>
</g>
</g>
</g>
</svg>
