<?xml version="1.0" encoding="UTF-8" standalone="no"?>
<!DOCTYPE svg PUBLIC "-//W3C//DTD SVG 1.1//EN"
 "http://www.w3.org/Graphics/SVG/1.1/DTD/svg11.dtd">
<!-- Generated by graphviz version 2.43.0 (0)
 -->
<!-- Title: User.UserData.Init Pages: 1 -->
<svg width="900pt" height="138pt"
 viewBox="0.00 0.00 900.00 138.00" xmlns="http://www.w3.org/2000/svg" xmlns:xlink="http://www.w3.org/1999/xlink">
<g id="graph0" class="graph" transform="scale(1 1) rotate(0) translate(4 134)">
<title>User.UserData.Init</title>
<!-- Node1 -->
<g id="Node000001" class="node">
<title>Node1</title>
<g id="a_Node000001"><a xlink:title="Initialises the user instance with proper data.">
<polygon fill="#999999" stroke="#666666" points="892,-74 786,-74 786,-55 892,-55 892,-74"/>
<text text-anchor="middle" x="839" y="-62" font-family="Helvetica,sans-Serif" font-size="10.00">User.UserData.Init</text>
</a>
</g>
</g>
<!-- Node2 -->
<g id="Node000002" class="node">
<title>Node2</title>
<g id="a_Node000002"><a xlink:href="classUser_1_1LoggedInChecker.html#a142873ff5324726072d218102f0bee8b" target="_top" xlink:title="Update the user data from the server data.">
<polygon fill="white" stroke="#666666" points="705,-130 534,-130 534,-111 705,-111 705,-130"/>
<text text-anchor="middle" x="619.5" y="-118" font-family="Helvetica,sans-Serif" font-size="10.00">User.LoggedInChecker.LoggedIn</text>
</a>
</g>
</g>
<!-- Node1&#45;&gt;Node2 -->
<g id="edge1_Node000001_Node000002" class="edge">
<title>Node1&#45;&gt;Node2</title>
<g id="a_edge1_Node000001_Node000002"><a xlink:title=" ">
<path fill="none" stroke="#63b8ff" d="M810.33,-78.74C793.34,-86.9 770.9,-96.65 750,-102.5 735.68,-106.51 720.21,-109.64 705.12,-112.09"/>
<polygon fill="#63b8ff" stroke="#63b8ff" points="812.22,-81.71 819.65,-74.16 809.13,-75.43 812.22,-81.71"/>
</a>
</g>
</g>
<!-- Node5 -->
<g id="Node000005" class="node">
<title>Node5</title>
<g id="a_Node000005"><a xlink:href="classUser_1_1UserController.html#a02fa4701a3a181ec2228737a5f2c57e9" target="_top" xlink:title="When the login request&#39;s was responded log the user in.">
<polygon fill="white" stroke="#666666" points="698.5,-93 540.5,-93 540.5,-74 698.5,-74 698.5,-93"/>
<text text-anchor="middle" x="619.5" y="-81" font-family="Helvetica,sans-Serif" font-size="10.00">User.UserController.LoggedIn</text>
</a>
</g>
</g>
<!-- Node1&#45;&gt;Node5 -->
<g id="edge4_Node000001_Node000005" class="edge">
<title>Node1&#45;&gt;Node5</title>
<g id="a_edge4_Node000001_Node000005"><a xlink:title=" ">
<path fill="none" stroke="#63b8ff" d="M775.83,-69.93C751.76,-72.03 723.94,-74.46 698.54,-76.68"/>
<polygon fill="#63b8ff" stroke="#63b8ff" points="776.25,-73.41 785.9,-69.05 775.64,-66.43 776.25,-73.41"/>
</a>
</g>
</g>
<!-- Node9 -->
<g id="Node000009" class="node">
<title>Node9</title>
<g id="a_Node000009"><a xlink:href="classUser_1_1UserController.html#aa173cb240990e358e98ff052c30a93e9" target="_top" xlink:title="When the register request was responded successfully register the user and log him in.">
<polygon fill="white" stroke="#666666" points="703,-56 536,-56 536,-37 703,-37 703,-56"/>
<text text-anchor="middle" x="619.5" y="-44" font-family="Helvetica,sans-Serif" font-size="10.00">User.UserController.Registered</text>
</a>
</g>
</g>
<!-- Node1&#45;&gt;Node9 -->
<g id="edge8_Node000001_Node000009" class="edge">
<title>Node1&#45;&gt;Node9</title>
<g id="a_edge8_Node000001_Node000009"><a xlink:title=" ">
<path fill="none" stroke="#63b8ff" d="M775.77,-59.35C753.17,-57.48 727.26,-55.34 703.17,-53.34"/>
<polygon fill="#63b8ff" stroke="#63b8ff" points="775.65,-62.85 785.9,-60.19 776.23,-55.88 775.65,-62.85"/>
</a>
</g>
</g>
<!-- Node10 -->
<g id="Node000010" class="node">
<title>Node10</title>
<g id="a_Node000010"><a xlink:href="classMainPage_1_1MainWindowController.html#a330729fb97065041f29f7ad9eb63def3" target="_top" xlink:title="Update the user with the updated value.">
<polygon fill="white" stroke="#666666" points="750,-19 489,-19 489,0 750,0 750,-19"/>
<text text-anchor="middle" x="619.5" y="-7" font-family="Helvetica,sans-Serif" font-size="10.00">MainPage.MainWindowController.UpdateUserData</text>
</a>
</g>
</g>
<!-- Node1&#45;&gt;Node10 -->
<g id="edge9_Node000001_Node000010" class="edge">
<title>Node1&#45;&gt;Node10</title>
<g id="a_edge9_Node000001_Node000010"><a xlink:title=" ">
<path fill="none" stroke="#63b8ff" d="M809.96,-50.5C793,-42.6 770.71,-33.19 750,-27.5 737.52,-24.07 724.18,-21.28 710.98,-19.01"/>
<polygon fill="#63b8ff" stroke="#63b8ff" points="808.75,-53.8 819.28,-54.94 811.76,-47.48 808.75,-53.8"/>
</a>
</g>
</g>
<!-- Node3 -->
<g id="Node000003" class="node">
<title>Node3</title>
<g id="a_Node000003"><a xlink:href="classUser_1_1LoggedInChecker.html#a306ce5521a6109ae00667a32fd0a442c" target="_top" xlink:title="Coroutine which calls the api endpoint to check if the user is still logged in.">
<polygon fill="white" stroke="#666666" points="453,-130 195,-130 195,-111 453,-111 453,-130"/>
<text text-anchor="middle" x="324" y="-118" font-family="Helvetica,sans-Serif" font-size="10.00">User.LoggedInChecker.CheckLoggedInPeriodically</text>
</a>
</g>
</g>
<!-- Node2&#45;&gt;Node3 -->
<g id="edge2_Node000002_Node000003" class="edge">
<title>Node2&#45;&gt;Node3</title>
<g id="a_edge2_Node000002_Node000003"><a xlink:title=" ">
<path fill="none" stroke="#63b8ff" d="M523.44,-120.5C501.02,-120.5 476.74,-120.5 453.12,-120.5"/>
<polygon fill="#63b8ff" stroke="#63b8ff" points="523.61,-124 533.61,-120.5 523.61,-117 523.61,-124"/>
</a>
</g>
</g>
<!-- Node4 -->
<g id="Node000004" class="node">
<title>Node4</title>
<g id="a_Node000004"><a xlink:href="classUser_1_1LoggedInChecker.html#a0f9199eb996ba1309b9bb6bad5d6268e" target="_top" xlink:title="Called when the script is loaded.">
<polygon fill="white" stroke="#666666" points="159,-130 0,-130 0,-111 159,-111 159,-130"/>
<text text-anchor="middle" x="79.5" y="-118" font-family="Helvetica,sans-Serif" font-size="10.00">User.LoggedInChecker.Awake</text>
</a>
</g>
</g>
<!-- Node3&#45;&gt;Node4 -->
<g id="edge3_Node000003_Node000004" class="edge">
<title>Node3&#45;&gt;Node4</title>
<g id="a_edge3_Node000003_Node000004"><a xlink:title=" ">
<path fill="none" stroke="#63b8ff" d="M184.52,-120.5C175.93,-120.5 167.46,-120.5 159.28,-120.5"/>
<polygon fill="#63b8ff" stroke="#63b8ff" points="184.65,-124 194.65,-120.5 184.65,-117 184.65,-124"/>
</a>
</g>
</g>
<!-- Node6 -->
<g id="Node000006" class="node">
<title>Node6</title>
<g id="a_Node000006"><a xlink:href="classUser_1_1UserController.html#a0e115007266961c890001eb18f11bd1f" target="_top" xlink:title="Send a request to check if the user has logged in already.">
<polygon fill="white" stroke="#666666" points="418,-93 230,-93 230,-74 418,-74 418,-93"/>
<text text-anchor="middle" x="324" y="-81" font-family="Helvetica,sans-Serif" font-size="10.00">User.UserController.CheckLoggedIn</text>
</a>
</g>
</g>
<!-- Node5&#45;&gt;Node6 -->
<g id="edge5_Node000005_Node000006" class="edge">
<title>Node5&#45;&gt;Node6</title>
<g id="a_edge5_Node000005_Node000006"><a xlink:title=" ">
<path fill="none" stroke="#63b8ff" d="M529.94,-83.5C494.62,-83.5 453.94,-83.5 418.18,-83.5"/>
<polygon fill="#63b8ff" stroke="#63b8ff" points="530.23,-87 540.23,-83.5 530.23,-80 530.23,-87"/>
</a>
</g>
</g>
<!-- Node8 -->
<g id="Node000008" class="node">
<title>Node8</title>
<g id="a_Node000008"><a xlink:href="classUser_1_1UserController.html#a7d9a8e16cdb6bc3702ab7987cc141b09" target="_top" xlink:title="Send a login request with the login panel&#39;s fields.">
<polygon fill="white" stroke="#666666" points="406,-56 242,-56 242,-37 406,-37 406,-56"/>
<text text-anchor="middle" x="324" y="-44" font-family="Helvetica,sans-Serif" font-size="10.00">User.UserController.SendLogin</text>
</a>
</g>
</g>
<!-- Node5&#45;&gt;Node8 -->
<g id="edge7_Node000005_Node000008" class="edge">
<title>Node5&#45;&gt;Node8</title>
<g id="a_edge7_Node000005_Node000008"><a xlink:title=" ">
<path fill="none" stroke="#63b8ff" d="M532.74,-72.69C490.89,-67.41 440.99,-61.12 400.58,-56.03"/>
<polygon fill="#63b8ff" stroke="#63b8ff" points="532.56,-76.19 542.92,-73.97 533.43,-69.25 532.56,-76.19"/>
</a>
</g>
</g>
<!-- Node7 -->
<g id="Node000007" class="node">
<title>Node7</title>
<g id="a_Node000007"><a xlink:href="classUser_1_1UserController.html#a8d7a7b7d698dd47d420cc52ca90def5d" target="_top" xlink:title="Start is called before the first frame update.">
<polygon fill="white" stroke="#666666" points="148,-93 11,-93 11,-74 148,-74 148,-93"/>
<text text-anchor="middle" x="79.5" y="-81" font-family="Helvetica,sans-Serif" font-size="10.00">User.UserController.Start</text>
</a>
</g>
</g>
<!-- Node6&#45;&gt;Node7 -->
<g id="edge6_Node000006_Node000007" class="edge">
<title>Node6&#45;&gt;Node7</title>
<g id="a_edge6_Node000006_Node000007"><a xlink:title=" ">
<path fill="none" stroke="#63b8ff" d="M219.64,-83.5C195.44,-83.5 170.26,-83.5 148.09,-83.5"/>
<polygon fill="#63b8ff" stroke="#63b8ff" points="219.94,-87 229.94,-83.5 219.94,-80 219.94,-87"/>
</a>
</g>
</g>
</g>
</svg>
