<?xml version="1.0" encoding="UTF-8" standalone="no"?>
<!DOCTYPE svg PUBLIC "-//W3C//DTD SVG 1.1//EN"
 "http://www.w3.org/Graphics/SVG/1.1/DTD/svg11.dtd">
<!-- Generated by graphviz version 2.43.0 (0)
 -->
<!-- Title: CameraScript Pages: 1 -->
<svg width="181pt" height="257pt"
 viewBox="0.00 0.00 181.00 257.00" xmlns="http://www.w3.org/2000/svg" xmlns:xlink="http://www.w3.org/1999/xlink">

<svg id="main" version="1.1" xmlns="http://www.w3.org/2000/svg" xmlns:xlink="http://www.w3.org/1999/xlink" xml:space="preserve" onload="init(evt)">
<style type="text/css"><![CDATA[
.node, .edge {opacity: 0.7;}
.node.selected, .edge.selected {opacity: 1;}
.edge:hover path { stroke: red; }
.edge:hover polygon { stroke: red; fill: red; }
]]></style>
<script type="application/ecmascript" xlink:href="svg.min.js"/>
<svg id="graph" class="graph">
<g id="graph0" class="graph" transform="scale(1 1) rotate(0) translate(4 253)">
<title>CameraScript</title>
<!-- Node1 -->
<g id="Node000001" class="node">
<title>Node1</title>
<g id="a_Node000001"><a xlink:title="Script which follows the player&#39;s car.">
<polygon fill="#999999" stroke="transparent" points="173,-79 0,-79 0,0 173,0 173,-79"/>
<text text-anchor="start" x="53.5" y="-66.5" font-family="Helvetica,sans-Serif" font-size="10.00">CameraScript</text>
<text text-anchor="start" x="4.5" y="-51.5" font-family="Helvetica,sans-Serif" font-size="10.00">&#45;</text>
<text text-anchor="start" x="12.5" y="-51.5" font-family="Helvetica,sans-Serif" font-size="10.00">GameController gameController</text>
<text text-anchor="start" x="4.5" y="-36.5" font-family="Helvetica,sans-Serif" font-size="10.00">&#45;</text>
<text text-anchor="start" x="12.5" y="-36.5" font-family="Helvetica,sans-Serif" font-size="10.00">Vector3 CameraOffset</text>
<text text-anchor="start" x="4.5" y="-21.5" font-family="Helvetica,sans-Serif" font-size="10.00">&#45;</text>
<text text-anchor="start" x="12.5" y="-21.5" font-family="Helvetica,sans-Serif" font-size="10.00">void Start()</text>
<text text-anchor="start" x="4.5" y="-6.5" font-family="Helvetica,sans-Serif" font-size="10.00">&#45;</text>
<text text-anchor="start" x="12.5" y="-6.5" font-family="Helvetica,sans-Serif" font-size="10.00">void Update()</text>
<polygon fill="#666666" stroke="#666666" points="0.5,-61.5 0.5,-61.5 173.5,-61.5 173.5,-61.5 0.5,-61.5"/>
<polygon fill="#666666" stroke="#666666" points="0.5,-31.5 0.5,-31.5 10.5,-31.5 10.5,-31.5 0.5,-31.5"/>
<polygon fill="#666666" stroke="#666666" points="10.5,-31.5 10.5,-31.5 173.5,-31.5 173.5,-31.5 10.5,-31.5"/>
<polygon fill="none" stroke="#666666" points="0,0 0,-79 173,-79 173,0 0,0"/>
</a>
</g>
</g>
<!-- Node2 -->
<g id="Node000002" class="node">
<title>Node2</title>
<g id="a_Node000002"><a xlink:href="classUtility_1_1ThreadSafeMonoBehaviour.html" target="_top" xlink:title="Safely stores if the gameobject been destroyed in a bool.">
<polygon fill="white" stroke="transparent" points="158,-164 15,-164 15,-115 158,-115 158,-164"/>
<text text-anchor="start" x="20.5" y="-151.5" font-family="Helvetica,sans-Serif" font-size="10.00">ThreadSafeMonoBehaviour</text>
<text text-anchor="start" x="29" y="-136.5" font-family="Helvetica,sans-Serif" font-size="10.00">+</text>
<text text-anchor="start" x="51.5" y="-136.5" font-family="Helvetica,sans-Serif" font-size="10.00">bool Destroyed</text>
<text text-anchor="start" x="29" y="-121.5" font-family="Helvetica,sans-Serif" font-size="10.00">#</text>
<text text-anchor="start" x="51.5" y="-121.5" font-family="Helvetica,sans-Serif" font-size="10.00">void OnDestroy()</text>
<polygon fill="#666666" stroke="#666666" points="15.5,-146.5 15.5,-146.5 158.5,-146.5 158.5,-146.5 15.5,-146.5"/>
<polygon fill="#666666" stroke="#666666" points="15.5,-131.5 15.5,-131.5 49.5,-131.5 49.5,-131.5 15.5,-131.5"/>
<polygon fill="#666666" stroke="#666666" points="49.5,-131.5 49.5,-131.5 158.5,-131.5 158.5,-131.5 49.5,-131.5"/>
<polygon fill="none" stroke="#666666" points="15,-115 15,-164 158,-164 158,-115 15,-115"/>
</a>
</g>
</g>
<!-- Node2&#45;&gt;Node1 -->
<g id="edge1_Node000001_Node000002" class="edge">
<title>Node2&#45;&gt;Node1</title>
<g id="a_edge1_Node000001_Node000002"><a xlink:title=" ">
<path fill="none" stroke="#63b8ff" d="M86.5,-104.52C86.5,-96.38 86.5,-87.63 86.5,-79.29"/>
<polygon fill="none" stroke="#63b8ff" points="83,-104.78 86.5,-114.78 90,-104.78 83,-104.78"/>
</a>
</g>
</g>
<!-- Node3 -->
<g id="Node000003" class="node">
<title>Node3</title>
<g id="a_Node000003"><a xlink:title=" ">
<polygon fill="white" stroke="transparent" points="130,-249 43,-249 43,-200 130,-200 130,-249"/>
<text text-anchor="start" x="48.5" y="-236.5" font-family="Helvetica,sans-Serif" font-size="10.00">MonoBehaviour</text>
<text text-anchor="start" x="85" y="-221.5" font-family="Helvetica,sans-Serif" font-size="10.00"> </text>
<text text-anchor="start" x="85" y="-206.5" font-family="Helvetica,sans-Serif" font-size="10.00"> </text>
<polygon fill="#666666" stroke="#666666" points="43.5,-231.5 43.5,-231.5 130.5,-231.5 130.5,-231.5 43.5,-231.5"/>
<polygon fill="#666666" stroke="#666666" points="43.5,-216.5 43.5,-216.5 130.5,-216.5 130.5,-216.5 43.5,-216.5"/>
<polygon fill="none" stroke="#666666" points="43,-200 43,-249 130,-249 130,-200 43,-200"/>
</a>
</g>
</g>
<!-- Node3&#45;&gt;Node2 -->
<g id="edge2_Node000002_Node000003" class="edge">
<title>Node3&#45;&gt;Node2</title>
<g id="a_edge2_Node000002_Node000003"><a xlink:title=" ">
<path fill="none" stroke="#63b8ff" d="M86.5,-189.77C86.5,-181.17 86.5,-172.1 86.5,-164.12"/>
<polygon fill="none" stroke="#63b8ff" points="83,-189.94 86.5,-199.94 90,-189.94 83,-189.94"/>
</a>
</g>
</g>
</g>
</svg>
</svg>

<style type='text/css'>
<![CDATA[
[data-mouse-over-selected='false'] { opacity: 0.7; }
[data-mouse-over-selected='true']  { opacity: 1.0; }
]]>
</style>
<script type="application/ecmascript"><![CDATA[
document.addEventListener('DOMContentLoaded', (event) => {
  highlightEdges();
  highlightAdjacentNodes();
});
]]></script>
</svg>
