<?xml version="1.0" encoding="UTF-8" standalone="no"?>
<!DOCTYPE svg PUBLIC "-//W3C//DTD SVG 1.1//EN"
 "http://www.w3.org/Graphics/SVG/1.1/DTD/svg11.dtd">
<!-- Generated by graphviz version 2.43.0 (0)
 -->
<!-- Title: Game.PlayerCar Pages: 1 -->
<svg width="301pt" height="689pt"
 viewBox="0.00 0.00 301.00 689.00" xmlns="http://www.w3.org/2000/svg" xmlns:xlink="http://www.w3.org/1999/xlink">
<g id="graph0" class="graph" transform="scale(1 1) rotate(0) translate(4 685)">
<title>Game.PlayerCar</title>
<polygon fill="white" stroke="transparent" points="-4,4 -4,-685 297,-685 297,4 -4,4"/>
<!-- Node1 -->
<g id="node1" class="node">
<title>Node1</title>
<g id="a_node1"><a xlink:title="Handles the player&#39;s car">
<polygon fill="#bfbfbf" stroke="black" points="0,-0.5 0,-244.5 293,-244.5 293,-0.5 0,-0.5"/>
<text text-anchor="middle" x="146.5" y="-232.5" font-family="Helvetica,sans-Serif" font-size="10.00">Game.PlayerCar</text>
<polyline fill="none" stroke="black" points="0,-225.5 293,-225.5 "/>
<text text-anchor="start" x="8" y="-213.5" font-family="Helvetica,sans-Serif" font-size="10.00">+ int SkinId</text>
<text text-anchor="start" x="8" y="-202.5" font-family="Helvetica,sans-Serif" font-size="10.00">+ bool Immune</text>
<text text-anchor="start" x="8" y="-191.5" font-family="Helvetica,sans-Serif" font-size="10.00">+ bool Turbo</text>
<text text-anchor="start" x="8" y="-180.5" font-family="Helvetica,sans-Serif" font-size="10.00">&#45; float coinMultiplier</text>
<text text-anchor="start" x="8" y="-169.5" font-family="Helvetica,sans-Serif" font-size="10.00">&#45; Keyboard keyboard</text>
<text text-anchor="start" x="8" y="-158.5" font-family="Helvetica,sans-Serif" font-size="10.00">&#45; int probeSize</text>
<text text-anchor="start" x="8" y="-147.5" font-family="Helvetica,sans-Serif" font-size="10.00">&#45; List&lt; PoliceContainer &gt; policeContacts</text>
<text text-anchor="start" x="8" y="-136.5" font-family="Helvetica,sans-Serif" font-size="10.00">&#45; float turboTimer</text>
<text text-anchor="start" x="8" y="-125.5" font-family="Helvetica,sans-Serif" font-size="10.00">&#45; float immuneTimer</text>
<polyline fill="none" stroke="black" points="0,-118.5 293,-118.5 "/>
<text text-anchor="start" x="8" y="-106.5" font-family="Helvetica,sans-Serif" font-size="10.00">+ void PickedUpCoin()</text>
<text text-anchor="start" x="8" y="-95.5" font-family="Helvetica,sans-Serif" font-size="10.00">+ void ApplyTurbo()</text>
<text text-anchor="start" x="8" y="-84.5" font-family="Helvetica,sans-Serif" font-size="10.00">+ void ApplyImmunity()</text>
<text text-anchor="start" x="8" y="-73.5" font-family="Helvetica,sans-Serif" font-size="10.00">+ void CancelTurbo()</text>
<text text-anchor="start" x="8" y="-62.5" font-family="Helvetica,sans-Serif" font-size="10.00">+ void CancelImmunity()</text>
<text text-anchor="start" x="8" y="-51.5" font-family="Helvetica,sans-Serif" font-size="10.00"># override async void ChunkChanged(Chunk newChunk)</text>
<text text-anchor="start" x="8" y="-40.5" font-family="Helvetica,sans-Serif" font-size="10.00"># override void Update()</text>
<text text-anchor="start" x="8" y="-29.5" font-family="Helvetica,sans-Serif" font-size="10.00"># override void OnCollisionEnter(Collision collision)</text>
<text text-anchor="start" x="8" y="-18.5" font-family="Helvetica,sans-Serif" font-size="10.00">&#45; void FixedUpdate()</text>
<text text-anchor="start" x="8" y="-7.5" font-family="Helvetica,sans-Serif" font-size="10.00">&#45; void OnCollisionExit(Collision collision)</text>
</a>
</g>
</g>
<!-- Node2 -->
<g id="node2" class="node">
<title>Node2</title>
<g id="a_node2"><a xlink:href="classGame_1_1Car.html" target="_top" xlink:title="Handles the basic Car functionalities">
<polygon fill="white" stroke="black" points="4.5,-281.5 4.5,-492.5 288.5,-492.5 288.5,-281.5 4.5,-281.5"/>
<text text-anchor="middle" x="146.5" y="-480.5" font-family="Helvetica,sans-Serif" font-size="10.00">Car</text>
<polyline fill="none" stroke="black" points="4.5,-473.5 288.5,-473.5 "/>
<text text-anchor="start" x="12.5" y="-461.5" font-family="Helvetica,sans-Serif" font-size="10.00">+ EventHandler DestroyedEvent</text>
<text text-anchor="start" x="12.5" y="-450.5" font-family="Helvetica,sans-Serif" font-size="10.00">+ float Health</text>
<text text-anchor="start" x="12.5" y="-439.5" font-family="Helvetica,sans-Serif" font-size="10.00">+ float MAX_HEALTH</text>
<text text-anchor="start" x="12.5" y="-428.5" font-family="Helvetica,sans-Serif" font-size="10.00">+ bool Alive</text>
<text text-anchor="start" x="12.5" y="-417.5" font-family="Helvetica,sans-Serif" font-size="10.00"># GameController gameController</text>
<text text-anchor="start" x="12.5" y="-406.5" font-family="Helvetica,sans-Serif" font-size="10.00"># CarController carController</text>
<text text-anchor="start" x="12.5" y="-395.5" font-family="Helvetica,sans-Serif" font-size="10.00"># Chunk lastChunk</text>
<text text-anchor="start" x="12.5" y="-384.5" font-family="Helvetica,sans-Serif" font-size="10.00"># Dictionary&lt; EffectType, EffectScript &gt; effects</text>
<text text-anchor="start" x="12.5" y="-373.5" font-family="Helvetica,sans-Serif" font-size="10.00">&#45; float health</text>
<polyline fill="none" stroke="black" points="4.5,-366.5 288.5,-366.5 "/>
<text text-anchor="start" x="12.5" y="-354.5" font-family="Helvetica,sans-Serif" font-size="10.00">+ void Kill()</text>
<text text-anchor="start" x="12.5" y="-343.5" font-family="Helvetica,sans-Serif" font-size="10.00">+ void Init(GameController gameController)</text>
<text text-anchor="start" x="12.5" y="-332.5" font-family="Helvetica,sans-Serif" font-size="10.00"># virtual void Update()</text>
<text text-anchor="start" x="12.5" y="-321.5" font-family="Helvetica,sans-Serif" font-size="10.00"># bool ChangeChunkIfNeeded()</text>
<text text-anchor="start" x="12.5" y="-310.5" font-family="Helvetica,sans-Serif" font-size="10.00"># virtual async void ChunkChanged(Chunk newChunk)</text>
<text text-anchor="start" x="12.5" y="-299.5" font-family="Helvetica,sans-Serif" font-size="10.00"># virtual void OnCollisionEnter(Collision collision)</text>
<text text-anchor="start" x="12.5" y="-288.5" font-family="Helvetica,sans-Serif" font-size="10.00"># void Awake()</text>
</a>
</g>
</g>
<!-- Node2&#45;&gt;Node1 -->
<g id="edge1" class="edge">
<title>Node2&#45;&gt;Node1</title>
<path fill="none" stroke="midnightblue" d="M146.5,-271.47C146.5,-262.53 146.5,-253.5 146.5,-244.52"/>
<polygon fill="none" stroke="midnightblue" points="143,-271.5 146.5,-281.5 150,-271.5 143,-271.5"/>
</g>
<!-- Node3 -->
<g id="node3" class="node">
<title>Node3</title>
<g id="a_node3"><a xlink:href="classUtility_1_1ThreadSafeMonoBehaviour.html" target="_top" xlink:title="Safely stores if the gameobject been destroyed in a bool">
<polygon fill="white" stroke="black" points="72,-529.5 72,-586.5 221,-586.5 221,-529.5 72,-529.5"/>
<text text-anchor="middle" x="146.5" y="-574.5" font-family="Helvetica,sans-Serif" font-size="10.00">ThreadSafeMonoBehaviour</text>
<polyline fill="none" stroke="black" points="72,-567.5 221,-567.5 "/>
<text text-anchor="start" x="80" y="-555.5" font-family="Helvetica,sans-Serif" font-size="10.00">+ bool Destroyed</text>
<polyline fill="none" stroke="black" points="72,-548.5 221,-548.5 "/>
<text text-anchor="start" x="80" y="-536.5" font-family="Helvetica,sans-Serif" font-size="10.00"># void OnDestroy()</text>
</a>
</g>
</g>
<!-- Node3&#45;&gt;Node2 -->
<g id="edge2" class="edge">
<title>Node3&#45;&gt;Node2</title>
<path fill="none" stroke="midnightblue" d="M146.5,-519.23C146.5,-511.04 146.5,-501.99 146.5,-492.58"/>
<polygon fill="none" stroke="midnightblue" points="143,-519.47 146.5,-529.47 150,-519.47 143,-519.47"/>
</g>
<!-- Node4 -->
<g id="node4" class="node">
<title>Node4</title>
<g id="a_node4"><a xlink:title=" ">
<polygon fill="white" stroke="#bfbfbf" points="100,-623.5 100,-680.5 193,-680.5 193,-623.5 100,-623.5"/>
<text text-anchor="middle" x="146.5" y="-668.5" font-family="Helvetica,sans-Serif" font-size="10.00">MonoBehaviour</text>
<polyline fill="none" stroke="#bfbfbf" points="100,-661.5 193,-661.5 "/>
<text text-anchor="middle" x="146.5" y="-649.5" font-family="Helvetica,sans-Serif" font-size="10.00"> </text>
<polyline fill="none" stroke="#bfbfbf" points="100,-642.5 193,-642.5 "/>
<text text-anchor="middle" x="146.5" y="-630.5" font-family="Helvetica,sans-Serif" font-size="10.00"> </text>
</a>
</g>
</g>
<!-- Node4&#45;&gt;Node3 -->
<g id="edge3" class="edge">
<title>Node4&#45;&gt;Node3</title>
<path fill="none" stroke="midnightblue" d="M146.5,-613.21C146.5,-604.29 146.5,-594.95 146.5,-586.58"/>
<polygon fill="none" stroke="midnightblue" points="143,-613.4 146.5,-623.4 150,-613.4 143,-613.4"/>
</g>
</g>
</svg>
