<?xml version="1.0" encoding="UTF-8" standalone="no"?>
<!DOCTYPE svg PUBLIC "-//W3C//DTD SVG 1.1//EN"
 "http://www.w3.org/Graphics/SVG/1.1/DTD/svg11.dtd">
<!-- Generated by graphviz version 2.43.0 (0)
 -->
<!-- Title: User.UserController Pages: 1 -->
<svg width="365pt" height="422pt"
 viewBox="0.00 0.00 365.00 422.00" xmlns="http://www.w3.org/2000/svg" xmlns:xlink="http://www.w3.org/1999/xlink">
<g id="graph0" class="graph" transform="scale(1 1) rotate(0) translate(4 418)">
<title>User.UserController</title>
<!-- Node1 -->
<g id="Node000001" class="node">
<title>Node1</title>
<g id="a_Node000001"><a xlink:title="Handles the user actions such as registering and login.">
<polygon fill="#999999" stroke="transparent" points="357,-244 0,-244 0,0 357,0 357,-244"/>
<text text-anchor="start" x="131" y="-232" font-family="Helvetica,sans-Serif" font-size="10.00">User.UserController</text>
<text text-anchor="start" x="4.5" y="-217" font-family="Helvetica,sans-Serif" font-size="10.00">+</text>
<text text-anchor="start" x="17.5" y="-217" font-family="Helvetica,sans-Serif" font-size="10.00">GameObject LoginPanel</text>
<text text-anchor="start" x="7" y="-202" font-family="Helvetica,sans-Serif" font-size="10.00">&#45;</text>
<text text-anchor="start" x="17.5" y="-202" font-family="Helvetica,sans-Serif" font-size="10.00">GameObject registerPanel</text>
<text text-anchor="start" x="7" y="-187" font-family="Helvetica,sans-Serif" font-size="10.00">&#45;</text>
<text text-anchor="start" x="17.5" y="-187" font-family="Helvetica,sans-Serif" font-size="10.00">ModalWindow modalWindow</text>
<text text-anchor="start" x="4.5" y="-172" font-family="Helvetica,sans-Serif" font-size="10.00">+</text>
<text text-anchor="start" x="17.5" y="-172" font-family="Helvetica,sans-Serif" font-size="10.00">void SendLogin()</text>
<text text-anchor="start" x="4.5" y="-157" font-family="Helvetica,sans-Serif" font-size="10.00">+</text>
<text text-anchor="start" x="17.5" y="-157" font-family="Helvetica,sans-Serif" font-size="10.00">void SendRegister()</text>
<text text-anchor="start" x="4.5" y="-142" font-family="Helvetica,sans-Serif" font-size="10.00">+</text>
<text text-anchor="start" x="17.5" y="-142" font-family="Helvetica,sans-Serif" font-size="10.00">bool IsValidEmail(string emailaddress)</text>
<text text-anchor="start" x="4.5" y="-127" font-family="Helvetica,sans-Serif" font-size="10.00">+</text>
<text text-anchor="start" x="17.5" y="-127" font-family="Helvetica,sans-Serif" font-size="10.00">void MoveToRegisterWindow()</text>
<text text-anchor="start" x="4.5" y="-112" font-family="Helvetica,sans-Serif" font-size="10.00">+</text>
<text text-anchor="start" x="17.5" y="-112" font-family="Helvetica,sans-Serif" font-size="10.00">void MoveToLoginWindow()</text>
<text text-anchor="start" x="7" y="-97" font-family="Helvetica,sans-Serif" font-size="10.00">&#45;</text>
<text text-anchor="start" x="17.5" y="-97" font-family="Helvetica,sans-Serif" font-size="10.00">void Start()</text>
<text text-anchor="start" x="7" y="-82" font-family="Helvetica,sans-Serif" font-size="10.00">&#45;</text>
<text text-anchor="start" x="17.5" y="-82" font-family="Helvetica,sans-Serif" font-size="10.00">void CheckLoggedIn()</text>
<text text-anchor="start" x="7" y="-67" font-family="Helvetica,sans-Serif" font-size="10.00">&#45;</text>
<text text-anchor="start" x="17.5" y="-67" font-family="Helvetica,sans-Serif" font-size="10.00">void LoggedIn(Thesis_backend.Data_Structures.User result)</text>
<text text-anchor="start" x="7" y="-52" font-family="Helvetica,sans-Serif" font-size="10.00">&#45;</text>
<text text-anchor="start" x="17.5" y="-52" font-family="Helvetica,sans-Serif" font-size="10.00">void ShowRegisterError(string content)</text>
<text text-anchor="start" x="7" y="-37" font-family="Helvetica,sans-Serif" font-size="10.00">&#45;</text>
<text text-anchor="start" x="17.5" y="-37" font-family="Helvetica,sans-Serif" font-size="10.00">void ShowLoginError(string content)</text>
<text text-anchor="start" x="7" y="-22" font-family="Helvetica,sans-Serif" font-size="10.00">&#45;</text>
<text text-anchor="start" x="17.5" y="-22" font-family="Helvetica,sans-Serif" font-size="10.00">void Registered(Thesis_backend.Data_Structures.User loggedInUser)</text>
<text text-anchor="start" x="7" y="-7" font-family="Helvetica,sans-Serif" font-size="10.00">&#45;</text>
<text text-anchor="start" x="17.5" y="-7" font-family="Helvetica,sans-Serif" font-size="10.00">IEnumerator MoveToMainScence()</text>
<polygon fill="#666666" stroke="#666666" points="0.5,-227 0.5,-227 357.5,-227 357.5,-227 0.5,-227"/>
<polygon fill="#666666" stroke="#666666" points="0.5,-182 0.5,-182 15.5,-182 15.5,-182 0.5,-182"/>
<polygon fill="#666666" stroke="#666666" points="15.5,-182 15.5,-182 357.5,-182 357.5,-182 15.5,-182"/>
<polygon fill="none" stroke="#666666" points="0,0 0,-244 357,-244 357,0 0,0"/>
</a>
</g>
</g>
<!-- Node2 -->
<g id="Node000002" class="node">
<title>Node2</title>
<g id="a_Node000002"><a xlink:href="classUtility_1_1ThreadSafeMonoBehaviour.html" target="_top" xlink:title="Safely stores if the gameobject been destroyed in a bool.">
<polygon fill="white" stroke="transparent" points="250,-329 107,-329 107,-280 250,-280 250,-329"/>
<text text-anchor="start" x="112.5" y="-316.5" font-family="Helvetica,sans-Serif" font-size="10.00">ThreadSafeMonoBehaviour</text>
<text text-anchor="start" x="121" y="-301.5" font-family="Helvetica,sans-Serif" font-size="10.00">+</text>
<text text-anchor="start" x="143.5" y="-301.5" font-family="Helvetica,sans-Serif" font-size="10.00">bool Destroyed</text>
<text text-anchor="start" x="121" y="-286.5" font-family="Helvetica,sans-Serif" font-size="10.00">#</text>
<text text-anchor="start" x="143.5" y="-286.5" font-family="Helvetica,sans-Serif" font-size="10.00">void OnDestroy()</text>
<polygon fill="#666666" stroke="#666666" points="107.5,-311.5 107.5,-311.5 250.5,-311.5 250.5,-311.5 107.5,-311.5"/>
<polygon fill="#666666" stroke="#666666" points="107.5,-296.5 107.5,-296.5 141.5,-296.5 141.5,-296.5 107.5,-296.5"/>
<polygon fill="#666666" stroke="#666666" points="141.5,-296.5 141.5,-296.5 250.5,-296.5 250.5,-296.5 141.5,-296.5"/>
<polygon fill="none" stroke="#666666" points="107,-280 107,-329 250,-329 250,-280 107,-280"/>
</a>
</g>
</g>
<!-- Node2&#45;&gt;Node1 -->
<g id="edge1_Node000001_Node000002" class="edge">
<title>Node2&#45;&gt;Node1</title>
<g id="a_edge1_Node000001_Node000002"><a xlink:title=" ">
<path fill="none" stroke="#63b8ff" d="M178.5,-269.65C178.5,-261.93 178.5,-253.29 178.5,-244.18"/>
<polygon fill="none" stroke="#63b8ff" points="175,-269.9 178.5,-279.9 182,-269.9 175,-269.9"/>
</a>
</g>
</g>
<!-- Node3 -->
<g id="Node000003" class="node">
<title>Node3</title>
<g id="a_Node000003"><a xlink:title=" ">
<polygon fill="white" stroke="transparent" points="222,-414 135,-414 135,-365 222,-365 222,-414"/>
<text text-anchor="start" x="140.5" y="-401.5" font-family="Helvetica,sans-Serif" font-size="10.00">MonoBehaviour</text>
<text text-anchor="start" x="177" y="-386.5" font-family="Helvetica,sans-Serif" font-size="10.00"> </text>
<text text-anchor="start" x="177" y="-371.5" font-family="Helvetica,sans-Serif" font-size="10.00"> </text>
<polygon fill="#666666" stroke="#666666" points="135.5,-396.5 135.5,-396.5 222.5,-396.5 222.5,-396.5 135.5,-396.5"/>
<polygon fill="#666666" stroke="#666666" points="135.5,-381.5 135.5,-381.5 222.5,-381.5 222.5,-381.5 135.5,-381.5"/>
<polygon fill="none" stroke="#666666" points="135,-365 135,-414 222,-414 222,-365 135,-365"/>
</a>
</g>
</g>
<!-- Node3&#45;&gt;Node2 -->
<g id="edge2_Node000002_Node000003" class="edge">
<title>Node3&#45;&gt;Node2</title>
<g id="a_edge2_Node000002_Node000003"><a xlink:title=" ">
<path fill="none" stroke="#63b8ff" d="M178.5,-354.77C178.5,-346.17 178.5,-337.1 178.5,-329.12"/>
<polygon fill="none" stroke="#63b8ff" points="175,-354.94 178.5,-364.94 182,-354.94 175,-354.94"/>
</a>
</g>
</g>
</g>
</svg>
