<?xml version="1.0" encoding="UTF-8" standalone="no"?>
<!DOCTYPE svg PUBLIC "-//W3C//DTD SVG 1.1//EN"
 "http://www.w3.org/Graphics/SVG/1.1/DTD/svg11.dtd">
<!-- Generated by graphviz version 2.43.0 (0)
 -->
<!-- Title: Game.World.GameWorld.GetChunk Pages: 1 -->
<svg width="603pt" height="66pt"
 viewBox="0.00 0.00 603.00 66.00" xmlns="http://www.w3.org/2000/svg" xmlns:xlink="http://www.w3.org/1999/xlink">
<g id="graph0" class="graph" transform="scale(1 1) rotate(0) translate(4 62)">
<title>Game.World.GameWorld.GetChunk</title>
<polygon fill="white" stroke="transparent" points="-4,4 -4,-62 599,-62 599,4 -4,4"/>
<!-- Node1 -->
<g id="node1" class="node">
<title>Node1</title>
<g id="a_node1"><a xlink:title="Gets the chunk based on the absolute position which chunk it would fall into">
<polygon fill="#bfbfbf" stroke="black" points="407,-19.5 407,-38.5 595,-38.5 595,-19.5 407,-19.5"/>
<text text-anchor="middle" x="501" y="-26.5" font-family="Helvetica,sans-Serif" font-size="10.00">Game.World.GameWorld.GetChunk</text>
</a>
</g>
</g>
<!-- Node2 -->
<g id="node2" class="node">
<title>Node2</title>
<g id="a_node2"><a xlink:href="classGame_1_1Car.html#aee18ec29b76c64797a649d50a6f83eed" target="_top" xlink:title=" ">
<polygon fill="white" stroke="black" points="192,-38.5 192,-57.5 371,-57.5 371,-38.5 192,-38.5"/>
<text text-anchor="middle" x="281.5" y="-45.5" font-family="Helvetica,sans-Serif" font-size="10.00">Game.Car.ChangeChunkIfNeeded</text>
</a>
</g>
</g>
<!-- Node1&#45;&gt;Node2 -->
<g id="edge1" class="edge">
<title>Node1&#45;&gt;Node2</title>
<path fill="none" stroke="midnightblue" d="M396.75,-38.02C388.14,-38.77 379.49,-39.53 371.01,-40.27"/>
<polygon fill="midnightblue" stroke="midnightblue" points="397.16,-41.5 406.81,-37.14 396.55,-34.52 397.16,-41.5"/>
</g>
<!-- Node4 -->
<g id="node4" class="node">
<title>Node4</title>
<g id="a_node4"><a xlink:href="classGame_1_1GameController.html#af5c50c52cffcab3018ca54be6a421d7f" target="_top" xlink:title="Create a new game">
<polygon fill="white" stroke="black" points="192,-0.5 192,-19.5 371,-19.5 371,-0.5 192,-0.5"/>
<text text-anchor="middle" x="281.5" y="-7.5" font-family="Helvetica,sans-Serif" font-size="10.00">Game.GameController.NewGame</text>
</a>
</g>
</g>
<!-- Node1&#45;&gt;Node4 -->
<g id="edge3" class="edge">
<title>Node1&#45;&gt;Node4</title>
<path fill="none" stroke="midnightblue" d="M396.75,-19.98C388.14,-19.23 379.49,-18.47 371.01,-17.73"/>
<polygon fill="midnightblue" stroke="midnightblue" points="396.55,-23.48 406.81,-20.86 397.16,-16.5 396.55,-23.48"/>
</g>
<!-- Node3 -->
<g id="node3" class="node">
<title>Node3</title>
<g id="a_node3"><a xlink:href="classGame_1_1Car.html#a1efffc1014c81e16512eee6c311dbb97" target="_top" xlink:title=" ">
<polygon fill="white" stroke="black" points="26.5,-38.5 26.5,-57.5 129.5,-57.5 129.5,-38.5 26.5,-38.5"/>
<text text-anchor="middle" x="78" y="-45.5" font-family="Helvetica,sans-Serif" font-size="10.00">Game.Car.Update</text>
</a>
</g>
</g>
<!-- Node2&#45;&gt;Node3 -->
<g id="edge2" class="edge">
<title>Node2&#45;&gt;Node3</title>
<path fill="none" stroke="midnightblue" d="M181.79,-48C163.68,-48 145.48,-48 129.54,-48"/>
<polygon fill="midnightblue" stroke="midnightblue" points="181.83,-51.5 191.83,-48 181.83,-44.5 181.83,-51.5"/>
</g>
<!-- Node5 -->
<g id="node5" class="node">
<title>Node5</title>
<g id="a_node5"><a xlink:href="classGame_1_1UI_1_1GameUI.html#ad581ee67e01ac3bcdec06cf2538f06e4" target="_top" xlink:title="Start a new game">
<polygon fill="white" stroke="black" points="0,-0.5 0,-19.5 156,-19.5 156,-0.5 0,-0.5"/>
<text text-anchor="middle" x="78" y="-7.5" font-family="Helvetica,sans-Serif" font-size="10.00">Game.UI.GameUI.NewGame</text>
</a>
</g>
</g>
<!-- Node4&#45;&gt;Node5 -->
<g id="edge4" class="edge">
<title>Node4&#45;&gt;Node5</title>
<path fill="none" stroke="midnightblue" d="M181.72,-10C173.09,-10 164.44,-10 156.03,-10"/>
<polygon fill="midnightblue" stroke="midnightblue" points="181.83,-13.5 191.83,-10 181.83,-6.5 181.83,-13.5"/>
</g>
</g>
</svg>
