<?xml version="1.0" encoding="UTF-8" standalone="no"?>
<!DOCTYPE svg PUBLIC "-//W3C//DTD SVG 1.1//EN"
 "http://www.w3.org/Graphics/SVG/1.1/DTD/svg11.dtd">
<!-- Generated by graphviz version 2.43.0 (0)
 -->
<!-- Title: MainPage.FriendHandler.InitValues Pages: 1 -->
<svg width="1123pt" height="82pt"
 viewBox="0.00 0.00 1123.00 82.00" xmlns="http://www.w3.org/2000/svg" xmlns:xlink="http://www.w3.org/1999/xlink">
<g id="graph0" class="graph" transform="scale(1 1) rotate(0) translate(4 78)">
<title>MainPage.FriendHandler.InitValues</title>
<!-- Node1 -->
<g id="Node000001" class="node">
<title>Node1</title>
<g id="a_Node000001"><a xlink:title="Inititializes a new display with the given friend to display.">
<polygon fill="#999999" stroke="#666666" points="1115,-37 930,-37 930,-18 1115,-18 1115,-37"/>
<text text-anchor="middle" x="1022.5" y="-25" font-family="Helvetica,sans-Serif" font-size="10.00">MainPage.FriendHandler.InitValues</text>
</a>
</g>
</g>
<!-- Node2 -->
<g id="Node000002" class="node">
<title>Node2</title>
<g id="a_Node000002"><a xlink:href="classMainPage_1_1FriendWindowHandler.html#abce9cb8e608691cfbc50bf47c17a1b34" target="_top" xlink:title="Display the friends which was recieved from the server.">
<polygon fill="white" stroke="#666666" points="884,-56 636,-56 636,-37 884,-37 884,-56"/>
<text text-anchor="middle" x="760" y="-44" font-family="Helvetica,sans-Serif" font-size="10.00">MainPage.FriendWindowHandler.DisplayFriends</text>
</a>
</g>
</g>
<!-- Node1&#45;&gt;Node2 -->
<g id="edge1_Node000001_Node000002" class="edge">
<title>Node1&#45;&gt;Node2</title>
<g id="a_edge1_Node000001_Node000002"><a xlink:title=" ">
<path fill="none" stroke="#63b8ff" d="M919.6,-34.93C908.06,-35.77 896.2,-36.64 884.41,-37.5"/>
<polygon fill="#63b8ff" stroke="#63b8ff" points="919.94,-38.42 929.66,-34.2 919.43,-31.44 919.94,-38.42"/>
</a>
</g>
</g>
<!-- Node6 -->
<g id="Node000006" class="node">
<title>Node6</title>
<g id="a_Node000006"><a xlink:href="classMainPage_1_1FriendWindowHandler.html#a61d9cd37518259d360474dd5fe55ae24" target="_top" xlink:title="After the friend request was sent load the friend prefab if it can show pending.">
<polygon fill="white" stroke="#666666" points="894,-19 626,-19 626,0 894,0 894,-19"/>
<text text-anchor="middle" x="760" y="-7" font-family="Helvetica,sans-Serif" font-size="10.00">MainPage.FriendWindowHandler.SentFriendRequest</text>
</a>
</g>
</g>
<!-- Node1&#45;&gt;Node6 -->
<g id="edge5_Node000001_Node000006" class="edge">
<title>Node1&#45;&gt;Node6</title>
<g id="a_edge5_Node000001_Node000006"><a xlink:title=" ">
<path fill="none" stroke="#63b8ff" d="M919.52,-20.45C911.14,-19.87 902.59,-19.28 894.02,-18.69"/>
<polygon fill="#63b8ff" stroke="#63b8ff" points="919.44,-23.96 929.66,-21.15 919.92,-16.97 919.44,-23.96"/>
</a>
</g>
</g>
<!-- Node3 -->
<g id="Node000003" class="node">
<title>Node3</title>
<g id="a_Node000003"><a xlink:href="classMainPage_1_1FriendWindowHandler.html#a6ebf0f7c70458f53c427517bf84bef7d" target="_top" xlink:title="Loads the friends from the server.">
<polygon fill="white" stroke="#666666" points="572.5,-56 337.5,-56 337.5,-37 572.5,-37 572.5,-56"/>
<text text-anchor="middle" x="455" y="-44" font-family="Helvetica,sans-Serif" font-size="10.00">MainPage.FriendWindowHandler.LoadFriends</text>
</a>
</g>
</g>
<!-- Node2&#45;&gt;Node3 -->
<g id="edge2_Node000002_Node000003" class="edge">
<title>Node2&#45;&gt;Node3</title>
<g id="a_edge2_Node000002_Node000003"><a xlink:title=" ">
<path fill="none" stroke="#63b8ff" d="M625.46,-46.5C607.91,-46.5 590.02,-46.5 572.77,-46.5"/>
<polygon fill="#63b8ff" stroke="#63b8ff" points="625.76,-50 635.76,-46.5 625.76,-43 625.76,-50"/>
</a>
</g>
</g>
<!-- Node4 -->
<g id="Node000004" class="node">
<title>Node4</title>
<g id="a_Node000004"><a xlink:href="classMainPage_1_1FriendWindowHandler.html#aa9e14952826cc8ae861f67015c1156e1" target="_top" xlink:title="Shows the profile window.">
<polygon fill="white" stroke="#666666" points="243.5,-74 40.5,-74 40.5,-55 243.5,-55 243.5,-74"/>
<text text-anchor="middle" x="142" y="-62" font-family="Helvetica,sans-Serif" font-size="10.00">MainPage.FriendWindowHandler.Show</text>
</a>
</g>
</g>
<!-- Node3&#45;&gt;Node4 -->
<g id="edge3_Node000003_Node000004" class="edge">
<title>Node3&#45;&gt;Node4</title>
<g id="a_edge3_Node000003_Node000004"><a xlink:title=" ">
<path fill="none" stroke="#63b8ff" d="M327.12,-53.84C299.27,-55.46 270.16,-57.14 243.51,-58.68"/>
<polygon fill="#63b8ff" stroke="#63b8ff" points="327.53,-57.33 337.31,-53.25 327.12,-50.34 327.53,-57.33"/>
</a>
</g>
</g>
<!-- Node5 -->
<g id="Node000005" class="node">
<title>Node5</title>
<g id="a_Node000005"><a xlink:href="classMainPage_1_1FriendWindowHandler.html#af27eee4e5b363a39878fe5f94c03f9cd" target="_top" xlink:title="Changed event for pending checkbox Loads/Unloads the pending friend requests.">
<polygon fill="white" stroke="#666666" points="284,-37 0,-37 0,-18 284,-18 284,-37"/>
<text text-anchor="middle" x="142" y="-25" font-family="Helvetica,sans-Serif" font-size="10.00">MainPage.FriendWindowHandler.ShowPendingChanged</text>
</a>
</g>
</g>
<!-- Node3&#45;&gt;Node5 -->
<g id="edge4_Node000003_Node000005" class="edge">
<title>Node3&#45;&gt;Node5</title>
<g id="a_edge4_Node000003_Node000005"><a xlink:title=" ">
<path fill="none" stroke="#63b8ff" d="M327.09,-38.75C312.96,-37.88 298.51,-37 284.22,-36.13"/>
<polygon fill="#63b8ff" stroke="#63b8ff" points="327.12,-42.25 337.31,-39.37 327.54,-35.27 327.12,-42.25"/>
</a>
</g>
</g>
<!-- Node7 -->
<g id="Node000007" class="node">
<title>Node7</title>
<g id="a_Node000007"><a xlink:href="classMainPage_1_1FriendWindowHandler.html#ad0c4b894708ceb9acc635e9a87b306ae" target="_top" xlink:title="Sends a friend request to the user which was specified in the useridentification input.">
<polygon fill="white" stroke="#666666" points="590,-19 320,-19 320,0 590,0 590,-19"/>
<text text-anchor="middle" x="455" y="-7" font-family="Helvetica,sans-Serif" font-size="10.00">MainPage.FriendWindowHandler.SendFriendRequest</text>
</a>
</g>
</g>
<!-- Node6&#45;&gt;Node7 -->
<g id="edge6_Node000006_Node000007" class="edge">
<title>Node6&#45;&gt;Node7</title>
<g id="a_edge6_Node000006_Node000007"><a xlink:title=" ">
<path fill="none" stroke="#63b8ff" d="M615.44,-9.5C607.04,-9.5 598.61,-9.5 590.26,-9.5"/>
<polygon fill="#63b8ff" stroke="#63b8ff" points="615.66,-13 625.66,-9.5 615.66,-6 615.66,-13"/>
</a>
</g>
</g>
</g>
</svg>
