<?xml version="1.0" encoding="UTF-8" standalone="no"?>
<!DOCTYPE svg PUBLIC "-//W3C//DTD SVG 1.1//EN"
 "http://www.w3.org/Graphics/SVG/1.1/DTD/svg11.dtd">
<!-- Generated by graphviz version 2.43.0 (0)
 -->
<!-- Title: MainPage.TaskDisplayHandler.CompleteStateChange Pages: 1 -->
<svg width="2200pt" height="132pt"
 viewBox="0.00 0.00 2200.00 132.32" xmlns="http://www.w3.org/2000/svg" xmlns:xlink="http://www.w3.org/1999/xlink">
<g id="graph0" class="graph" transform="scale(1 1) rotate(0) translate(4 128.32)">
<title>MainPage.TaskDisplayHandler.CompleteStateChange</title>
<!-- Node1 -->
<g id="Node000001" class="node">
<title>Node1</title>
<g id="a_Node000001"><a xlink:title="When the complete state is changed update the display to match it.">
<polygon fill="#999999" stroke="#666666" points="2192,-74 1917,-74 1917,-55 2192,-55 2192,-74"/>
<text text-anchor="middle" x="2054.5" y="-62" font-family="Helvetica,sans-Serif" font-size="10.00">MainPage.TaskDisplayHandler.CompleteStateChange</text>
</a>
</g>
</g>
<!-- Node2 -->
<g id="Node000002" class="node">
<title>Node2</title>
<g id="a_Node000002"><a xlink:href="classMainPage_1_1TaskDisplayHandler.html#a8aedc4afb32d220352cf04cc77fdedf6" target="_top" xlink:title="Init it with the task to display and references to the controls.">
<polygon fill="white" stroke="#666666" points="1296,-75 1082,-75 1082,-56 1296,-56 1296,-75"/>
<text text-anchor="middle" x="1189" y="-63" font-family="Helvetica,sans-Serif" font-size="10.00">MainPage.TaskDisplayHandler.InitValues</text>
</a>
</g>
</g>
<!-- Node1&#45;&gt;Node2 -->
<g id="edge1_Node000001_Node000002" class="edge">
<title>Node1&#45;&gt;Node2</title>
<g id="a_edge1_Node000001_Node000002"><a xlink:title=" ">
<path fill="none" stroke="#63b8ff" d="M2010.68,-76.65C1976.03,-85.82 1925.81,-97.62 1881,-102.5 1638.43,-128.9 1574.02,-133.51 1332,-102.5 1291.57,-97.32 1246.21,-84.16 1217.87,-75.02"/>
<polygon fill="#63b8ff" stroke="#63b8ff" points="2011.71,-80 2020.46,-74.02 2009.9,-73.24 2011.71,-80"/>
</a>
</g>
</g>
<!-- Node9 -->
<g id="Node000009" class="node">
<title>Node9</title>
<g id="a_Node000009"><a xlink:href="classMainPage_1_1TaskDisplayHandler.html#a98b63052d0efc73233a32b69a06bf68e" target="_top" xlink:title="When the complete acknowledge were recieved from the server update the display.">
<polygon fill="white" stroke="#666666" points="1862.5,-93 1621.5,-93 1621.5,-74 1862.5,-74 1862.5,-93"/>
<text text-anchor="middle" x="1742" y="-81" font-family="Helvetica,sans-Serif" font-size="10.00">MainPage.TaskDisplayHandler.TaskCompleted</text>
</a>
</g>
</g>
<!-- Node1&#45;&gt;Node9 -->
<g id="edge8_Node000001_Node000009" class="edge">
<title>Node1&#45;&gt;Node9</title>
<g id="a_edge8_Node000001_Node000009"><a xlink:title=" ">
<path fill="none" stroke="#63b8ff" d="M1906.67,-73.48C1891.92,-74.39 1877.07,-75.3 1862.65,-76.18"/>
<polygon fill="#63b8ff" stroke="#63b8ff" points="1907.09,-76.97 1916.86,-72.86 1906.66,-69.98 1907.09,-76.97"/>
</a>
</g>
</g>
<!-- Node11 -->
<g id="Node000011" class="node">
<title>Node11</title>
<g id="a_Node000011"><a xlink:href="classMainPage_1_1TaskDisplayHandler.html#aa63f1bc894519b9d5872c2bb50b84415" target="_top" xlink:title="Update the time remaining until the task can be completed again.">
<polygon fill="white" stroke="#666666" points="1881,-56 1603,-56 1603,-37 1881,-37 1881,-56"/>
<text text-anchor="middle" x="1742" y="-44" font-family="Helvetica,sans-Serif" font-size="10.00">MainPage.TaskDisplayHandler.UpdateTimeRemaining</text>
</a>
</g>
</g>
<!-- Node1&#45;&gt;Node11 -->
<g id="edge10_Node000001_Node000011" class="edge">
<title>Node1&#45;&gt;Node11</title>
<g id="a_edge10_Node000001_Node000011"><a xlink:title=" ">
<path fill="none" stroke="#63b8ff" d="M1976.88,-54.15C1947.98,-51.8 1914.13,-49.57 1881.31,-47.8"/>
<polygon fill="#63b8ff" stroke="#63b8ff" points="1976.63,-57.64 1986.89,-54.98 1977.22,-50.66 1976.63,-57.64"/>
</a>
</g>
</g>
<!-- Node3 -->
<g id="Node000003" class="node">
<title>Node3</title>
<g id="a_Node000003"><a xlink:href="classMainPage_1_1MainWindowController.html#a827f62c47eb691eadd994bd51bf7cb74" target="_top" xlink:title="Creates a new task prefab to display.">
<polygon fill="white" stroke="#666666" points="1046,-75 812,-75 812,-56 1046,-56 1046,-75"/>
<text text-anchor="middle" x="929" y="-63" font-family="Helvetica,sans-Serif" font-size="10.00">MainPage.MainWindowController.CreateTask</text>
</a>
</g>
</g>
<!-- Node2&#45;&gt;Node3 -->
<g id="edge2_Node000002_Node000003" class="edge">
<title>Node2&#45;&gt;Node3</title>
<g id="a_edge2_Node000002_Node000003"><a xlink:title=" ">
<path fill="none" stroke="#63b8ff" d="M1071.92,-65.5C1063.35,-65.5 1054.7,-65.5 1046.12,-65.5"/>
<polygon fill="#63b8ff" stroke="#63b8ff" points="1071.94,-69 1081.94,-65.5 1071.94,-62 1071.94,-69"/>
</a>
</g>
</g>
<!-- Node4 -->
<g id="Node000004" class="node">
<title>Node4</title>
<g id="a_Node000004"><a xlink:href="classMainPage_1_1MainWindowController.html#ab40b51689d2d8ca0497b0e53128f4992" target="_top" xlink:title="Create the task prefabs.">
<polygon fill="white" stroke="#666666" points="776,-94 505,-94 505,-75 776,-75 776,-94"/>
<text text-anchor="middle" x="640.5" y="-82" font-family="Helvetica,sans-Serif" font-size="10.00">MainPage.MainWindowController.CreateTaskPrefabs</text>
</a>
</g>
</g>
<!-- Node3&#45;&gt;Node4 -->
<g id="edge3_Node000003_Node000004" class="edge">
<title>Node3&#45;&gt;Node4</title>
<g id="a_edge3_Node000003_Node000004"><a xlink:title=" ">
<path fill="none" stroke="#63b8ff" d="M801.88,-73.86C793.33,-74.43 784.69,-75 776.09,-75.57"/>
<polygon fill="#63b8ff" stroke="#63b8ff" points="802.14,-77.35 811.88,-73.2 801.67,-70.37 802.14,-77.35"/>
</a>
</g>
</g>
<!-- Node7 -->
<g id="Node000007" class="node">
<title>Node7</title>
<g id="a_Node000007"><a xlink:href="classMainPage_1_1TaskOpenPanelController.html#a750d1acc6fd173296467fb9aca366a3d" target="_top" xlink:title="When the task was stored on the server show it also visually and close the panel.">
<polygon fill="white" stroke="#666666" points="761.5,-57 519.5,-57 519.5,-38 761.5,-38 761.5,-57"/>
<text text-anchor="middle" x="640.5" y="-45" font-family="Helvetica,sans-Serif" font-size="10.00">MainPage.TaskOpenPanelController.SavedTask</text>
</a>
</g>
</g>
<!-- Node3&#45;&gt;Node7 -->
<g id="edge6_Node000003_Node000007" class="edge">
<title>Node3&#45;&gt;Node7</title>
<g id="a_edge6_Node000003_Node000007"><a xlink:title=" ">
<path fill="none" stroke="#63b8ff" d="M801.71,-57.57C788.36,-56.73 774.8,-55.87 761.51,-55.04"/>
<polygon fill="#63b8ff" stroke="#63b8ff" points="801.68,-61.07 811.88,-58.2 802.12,-54.08 801.68,-61.07"/>
</a>
</g>
</g>
<!-- Node5 -->
<g id="Node000005" class="node">
<title>Node5</title>
<g id="a_Node000005"><a xlink:href="classMainPage_1_1MainWindowController.html#a47c21c97b7ba52af405119044e1434d0" target="_top" xlink:title="Load the tasks from the server.">
<polygon fill="white" stroke="#666666" points="469,-94 239,-94 239,-75 469,-75 469,-94"/>
<text text-anchor="middle" x="354" y="-82" font-family="Helvetica,sans-Serif" font-size="10.00">MainPage.MainWindowController.LoadTasks</text>
</a>
</g>
</g>
<!-- Node4&#45;&gt;Node5 -->
<g id="edge4_Node000004_Node000005" class="edge">
<title>Node4&#45;&gt;Node5</title>
<g id="a_edge4_Node000004_Node000005"><a xlink:title=" ">
<path fill="none" stroke="#63b8ff" d="M494.68,-84.5C486.1,-84.5 477.54,-84.5 469.11,-84.5"/>
<polygon fill="#63b8ff" stroke="#63b8ff" points="494.75,-88 504.75,-84.5 494.75,-81 494.75,-88"/>
</a>
</g>
</g>
<!-- Node6 -->
<g id="Node000006" class="node">
<title>Node6</title>
<g id="a_Node000006"><a xlink:href="classMainPage_1_1MainWindowController.html#acea2170099ea435298139c6c7fdce719" target="_top" xlink:title="Start is called before the first frame update.">
<polygon fill="white" stroke="#666666" points="203,-94 0,-94 0,-75 203,-75 203,-94"/>
<text text-anchor="middle" x="101.5" y="-82" font-family="Helvetica,sans-Serif" font-size="10.00">MainPage.MainWindowController.Start</text>
</a>
</g>
</g>
<!-- Node5&#45;&gt;Node6 -->
<g id="edge5_Node000005_Node000006" class="edge">
<title>Node5&#45;&gt;Node6</title>
<g id="a_edge5_Node000005_Node000006"><a xlink:title=" ">
<path fill="none" stroke="#63b8ff" d="M228.71,-84.5C220.15,-84.5 211.58,-84.5 203.16,-84.5"/>
<polygon fill="#63b8ff" stroke="#63b8ff" points="228.75,-88 238.75,-84.5 228.75,-81 228.75,-88"/>
</a>
</g>
</g>
<!-- Node8 -->
<g id="Node000008" class="node">
<title>Node8</title>
<g id="a_Node000008"><a xlink:href="classMainPage_1_1TaskOpenPanelController.html#ab8def75cd4cdbdaf3033022ea114a8a6" target="_top" xlink:title="Save the task to the server.">
<polygon fill="white" stroke="#666666" points="461.5,-57 246.5,-57 246.5,-38 461.5,-38 461.5,-57"/>
<text text-anchor="middle" x="354" y="-45" font-family="Helvetica,sans-Serif" font-size="10.00">MainPage.TaskOpenPanelController.Save</text>
</a>
</g>
</g>
<!-- Node7&#45;&gt;Node8 -->
<g id="edge7_Node000007_Node000008" class="edge">
<title>Node7&#45;&gt;Node8</title>
<g id="a_edge7_Node000007_Node000008"><a xlink:title=" ">
<path fill="none" stroke="#63b8ff" d="M508.91,-47.5C493.12,-47.5 477.13,-47.5 461.73,-47.5"/>
<polygon fill="#63b8ff" stroke="#63b8ff" points="509.26,-51 519.26,-47.5 509.26,-44 509.26,-51"/>
</a>
</g>
</g>
<!-- Node10 -->
<g id="Node000010" class="node">
<title>Node10</title>
<g id="a_Node000010"><a xlink:href="classMainPage_1_1TaskDisplayHandler.html#ab553f8eb77d9d038521af3813275a43d" target="_top" xlink:title="Complete the task and send this to the server.">
<polygon fill="white" stroke="#666666" points="1567,-93 1332,-93 1332,-74 1567,-74 1567,-93"/>
<text text-anchor="middle" x="1449.5" y="-81" font-family="Helvetica,sans-Serif" font-size="10.00">MainPage.TaskDisplayHandler.CompleteTask</text>
</a>
</g>
</g>
<!-- Node9&#45;&gt;Node10 -->
<g id="edge9_Node000009_Node000010" class="edge">
<title>Node9&#45;&gt;Node10</title>
<g id="a_edge9_Node000009_Node000010"><a xlink:title=" ">
<path fill="none" stroke="#63b8ff" d="M1611.09,-83.5C1596.49,-83.5 1581.68,-83.5 1567.25,-83.5"/>
<polygon fill="#63b8ff" stroke="#63b8ff" points="1611.17,-87 1621.17,-83.5 1611.17,-80 1611.17,-87"/>
</a>
</g>
</g>
<!-- Node11&#45;&gt;Node1 -->
<g id="edge11_Node000011_Node000001" class="edge">
<title>Node11&#45;&gt;Node1</title>
<g id="a_edge11_Node000011_Node000001"><a xlink:title=" ">
<path fill="none" stroke="#63b8ff" d="M1819.65,-56.86C1849.04,-59.25 1883.53,-61.51 1916.86,-63.29"/>
<polygon fill="#63b8ff" stroke="#63b8ff" points="1819.74,-53.35 1809.48,-56.01 1819.16,-60.33 1819.74,-53.35"/>
</a>
</g>
</g>
<!-- Node12 -->
<g id="Node000012" class="node">
<title>Node12</title>
<g id="a_Node000012"><a xlink:href="classMainPage_1_1TaskDisplayHandler.html#a19067f6c6b504e4947d9473721e6877f" target="_top" xlink:title="Called every frame if it has been completed update the remaining time.">
<polygon fill="white" stroke="#666666" points="1550,-56 1349,-56 1349,-37 1550,-37 1550,-56"/>
<text text-anchor="middle" x="1449.5" y="-44" font-family="Helvetica,sans-Serif" font-size="10.00">MainPage.TaskDisplayHandler.Update</text>
</a>
</g>
</g>
<!-- Node11&#45;&gt;Node12 -->
<g id="edge12_Node000011_Node000012" class="edge">
<title>Node11&#45;&gt;Node12</title>
<g id="a_edge12_Node000011_Node000012"><a xlink:title=" ">
<path fill="none" stroke="#63b8ff" d="M1592.93,-46.5C1578.4,-46.5 1563.91,-46.5 1550.05,-46.5"/>
<polygon fill="#63b8ff" stroke="#63b8ff" points="1592.98,-50 1602.98,-46.5 1592.98,-43 1592.98,-50"/>
</a>
</g>
</g>
<!-- Node13 -->
<g id="Node000013" class="node">
<title>Node13</title>
<g id="a_Node000013"><a xlink:href="classMainPage_1_1TaskDisplayHandler.html#ac3773b76adb09298978a65c89136c20f" target="_top" xlink:title="Update the task&#39;s labels.">
<polygon fill="white" stroke="#666666" points="1566,-19 1333,-19 1333,0 1566,0 1566,-19"/>
<text text-anchor="middle" x="1449.5" y="-7" font-family="Helvetica,sans-Serif" font-size="10.00">MainPage.TaskDisplayHandler.UpdateLabels</text>
</a>
</g>
</g>
<!-- Node11&#45;&gt;Node13 -->
<g id="edge13_Node000011_Node000013" class="edge">
<title>Node11&#45;&gt;Node13</title>
<g id="a_edge13_Node000011_Node000013"><a xlink:title=" ">
<path fill="none" stroke="#63b8ff" d="M1656.11,-35.69C1614.69,-30.41 1565.3,-24.12 1525.31,-19.03"/>
<polygon fill="#63b8ff" stroke="#63b8ff" points="1655.83,-39.18 1666.19,-36.97 1656.71,-32.24 1655.83,-39.18"/>
</a>
</g>
</g>
<!-- Node13&#45;&gt;Node2 -->
<g id="edge14_Node000013_Node000002" class="edge">
<title>Node13&#45;&gt;Node2</title>
<g id="a_edge14_Node000013_Node000002"><a xlink:title=" ">
<path fill="none" stroke="#63b8ff" d="M1368.45,-20.7C1356.2,-22.75 1343.73,-25.03 1332,-27.5 1293.67,-35.57 1250.25,-47.62 1221.63,-55.98"/>
<polygon fill="#63b8ff" stroke="#63b8ff" points="1369.36,-24.1 1378.66,-19.03 1368.23,-17.19 1369.36,-24.1"/>
</a>
</g>
</g>
</g>
</svg>
