<?xml version="1.0" encoding="UTF-8" standalone="no"?>
<!DOCTYPE svg PUBLIC "-//W3C//DTD SVG 1.1//EN"
 "http://www.w3.org/Graphics/SVG/1.1/DTD/svg11.dtd">
<!-- Generated by graphviz version 2.43.0 (0)
 -->
<!-- Title: MainPage.ProfileHandler.SendLogout Pages: 1 -->
<svg width="697pt" height="104pt"
 viewBox="0.00 0.00 697.00 104.00" xmlns="http://www.w3.org/2000/svg" xmlns:xlink="http://www.w3.org/1999/xlink">
<g id="graph0" class="graph" transform="scale(1 1) rotate(0) translate(4 100)">
<title>MainPage.ProfileHandler.SendLogout</title>
<polygon fill="white" stroke="transparent" points="-4,4 -4,-100 693,-100 693,4 -4,4"/>
<!-- Node1 -->
<g id="node1" class="node">
<title>Node1</title>
<g id="a_node1"><a xlink:title="Send a login request with the login panel&#39;s fields">
<polygon fill="#bfbfbf" stroke="black" points="0,-19.5 0,-38.5 195,-38.5 195,-19.5 0,-19.5"/>
<text text-anchor="middle" x="97.5" y="-26.5" font-family="Helvetica,sans-Serif" font-size="10.00">MainPage.ProfileHandler.SendLogout</text>
</a>
</g>
</g>
<!-- Node2 -->
<g id="node2" class="node">
<title>Node2</title>
<g id="a_node2"><a xlink:href="classMainPage_1_1ProfileHandler.html#ad54f411a26e9a3dd6d0efa9ad5f58914" target="_top" xlink:title="When the logout was a success">
<polygon fill="white" stroke="black" points="231,-38.5 231,-57.5 422,-57.5 422,-38.5 231,-38.5"/>
<text text-anchor="middle" x="326.5" y="-45.5" font-family="Helvetica,sans-Serif" font-size="10.00">MainPage.ProfileHandler.LoggedOut</text>
</a>
</g>
</g>
<!-- Node1&#45;&gt;Node2 -->
<g id="edge1" class="edge">
<title>Node1&#45;&gt;Node2</title>
<path fill="none" stroke="midnightblue" d="M195.1,-37.09C203.6,-37.8 212.23,-38.52 220.79,-39.24"/>
<polygon fill="midnightblue" stroke="midnightblue" points="220.54,-42.73 230.8,-40.07 221.12,-35.75 220.54,-42.73"/>
</g>
<!-- Node5 -->
<g id="node5" class="node">
<title>Node5</title>
<g id="a_node5"><a xlink:href="classUtility_1_1CoroutineRunner.html#a1c473dee723f16d86bab9d8475c8214a" target="_top" xlink:title="A helper method to start coroutines">
<polygon fill="white" stroke="black" points="474.5,-0.5 474.5,-19.5 672.5,-19.5 672.5,-0.5 474.5,-0.5"/>
<text text-anchor="middle" x="573.5" y="-7.5" font-family="Helvetica,sans-Serif" font-size="10.00">Utility.CoroutineRunner.RunCoroutine</text>
</a>
</g>
</g>
<!-- Node1&#45;&gt;Node5 -->
<g id="edge5" class="edge">
<title>Node1&#45;&gt;Node5</title>
<path fill="none" stroke="midnightblue" d="M195.28,-25.12C273.31,-21.99 383,-17.6 464,-14.35"/>
<polygon fill="midnightblue" stroke="midnightblue" points="464.37,-17.84 474.23,-13.94 464.09,-10.84 464.37,-17.84"/>
</g>
<!-- Node3 -->
<g id="node3" class="node">
<title>Node3</title>
<g id="a_node3"><a xlink:href="classUser_1_1UserData.html#a8c8911482003919ea4fbab040c755f8f" target="_top" xlink:title="Signal&#39;s that the user is logged out">
<polygon fill="white" stroke="black" points="512,-76.5 512,-95.5 635,-95.5 635,-76.5 512,-76.5"/>
<text text-anchor="middle" x="573.5" y="-83.5" font-family="Helvetica,sans-Serif" font-size="10.00">User.UserData.Logout</text>
</a>
</g>
</g>
<!-- Node2&#45;&gt;Node3 -->
<g id="edge2" class="edge">
<title>Node2&#45;&gt;Node3</title>
<path fill="none" stroke="midnightblue" d="M389.01,-57.54C423.2,-62.84 465.89,-69.46 501.5,-74.99"/>
<polygon fill="midnightblue" stroke="midnightblue" points="501.4,-78.51 511.82,-76.59 502.47,-71.6 501.4,-78.51"/>
</g>
<!-- Node4 -->
<g id="node4" class="node">
<title>Node4</title>
<g id="a_node4"><a xlink:href="classMainPage_1_1ProfileHandler.html#a1417a9eaae8fd0fd5c3e658562e4e65c" target="_top" xlink:title="Move to the login screen after the user has logged out">
<polygon fill="white" stroke="black" points="458,-38.5 458,-57.5 689,-57.5 689,-38.5 458,-38.5"/>
<text text-anchor="middle" x="573.5" y="-45.5" font-family="Helvetica,sans-Serif" font-size="10.00">MainPage.ProfileHandler.MoveToLoginScene</text>
</a>
</g>
</g>
<!-- Node2&#45;&gt;Node4 -->
<g id="edge3" class="edge">
<title>Node2&#45;&gt;Node4</title>
<path fill="none" stroke="midnightblue" d="M422.22,-48C430.64,-48 439.25,-48 447.87,-48"/>
<polygon fill="midnightblue" stroke="midnightblue" points="447.98,-51.5 457.98,-48 447.98,-44.5 447.98,-51.5"/>
</g>
<!-- Node2&#45;&gt;Node5 -->
<g id="edge4" class="edge">
<title>Node2&#45;&gt;Node5</title>
<path fill="none" stroke="midnightblue" d="M389.01,-38.46C422.94,-33.2 465.25,-26.63 500.69,-21.14"/>
<polygon fill="midnightblue" stroke="midnightblue" points="501.62,-24.54 510.97,-19.54 500.55,-17.62 501.62,-24.54"/>
</g>
</g>
</svg>
