<?xml version="1.0" encoding="UTF-8" standalone="no"?>
<!DOCTYPE svg PUBLIC "-//W3C//DTD SVG 1.1//EN"
 "http://www.w3.org/Graphics/SVG/1.1/DTD/svg11.dtd">
<!-- Generated by graphviz version 2.43.0 (0)
 -->
<!-- Title: MainPage.FriendWindowHandler Pages: 1 -->
<svg width="382pt" height="537pt"
 viewBox="0.00 0.00 381.50 537.00" xmlns="http://www.w3.org/2000/svg" xmlns:xlink="http://www.w3.org/1999/xlink">
<g id="graph0" class="graph" transform="scale(1 1) rotate(0) translate(4 533)">
<title>MainPage.FriendWindowHandler</title>
<polygon fill="white" stroke="transparent" points="-4,4 -4,-533 377.5,-533 377.5,4 -4,4"/>
<!-- Node1 -->
<g id="node1" class="node">
<title>Node1</title>
<g id="a_node1"><a xlink:title="Handles the friend window display">
<polygon fill="#bfbfbf" stroke="black" points="0,-0.5 0,-167.5 239,-167.5 239,-0.5 0,-0.5"/>
<text text-anchor="middle" x="119.5" y="-155.5" font-family="Helvetica,sans-Serif" font-size="10.00">MainPage.FriendWindowHandler</text>
<polyline fill="none" stroke="black" points="0,-148.5 239,-148.5 "/>
<text text-anchor="start" x="8" y="-136.5" font-family="Helvetica,sans-Serif" font-size="10.00">&#45; GameObject friendsParent</text>
<text text-anchor="start" x="8" y="-125.5" font-family="Helvetica,sans-Serif" font-size="10.00">&#45; TMP_InputField userIdentificationInput</text>
<text text-anchor="start" x="8" y="-114.5" font-family="Helvetica,sans-Serif" font-size="10.00">&#45; GameObject friendPrefab</text>
<text text-anchor="start" x="8" y="-103.5" font-family="Helvetica,sans-Serif" font-size="10.00">&#45; bool showPending</text>
<polyline fill="none" stroke="black" points="0,-96.5 239,-96.5 "/>
<text text-anchor="start" x="8" y="-84.5" font-family="Helvetica,sans-Serif" font-size="10.00">+ void ShowPendingChanged(bool newValue)</text>
<text text-anchor="start" x="8" y="-73.5" font-family="Helvetica,sans-Serif" font-size="10.00">+ void Show()</text>
<text text-anchor="start" x="8" y="-62.5" font-family="Helvetica,sans-Serif" font-size="10.00">+ void SendFriendRequest()</text>
<text text-anchor="start" x="8" y="-51.5" font-family="Helvetica,sans-Serif" font-size="10.00">+ void Hide()</text>
<text text-anchor="start" x="8" y="-40.5" font-family="Helvetica,sans-Serif" font-size="10.00">&#45; void ShowRequestFail(string content)</text>
<text text-anchor="start" x="8" y="-29.5" font-family="Helvetica,sans-Serif" font-size="10.00">&#45; void SentFriendRequest(Friend friend)</text>
<text text-anchor="start" x="8" y="-18.5" font-family="Helvetica,sans-Serif" font-size="10.00">&#45; void LoadFriends()</text>
<text text-anchor="start" x="8" y="-7.5" font-family="Helvetica,sans-Serif" font-size="10.00">&#45; void DisplayFriends(List&lt; Friend &gt; friends)</text>
</a>
</g>
</g>
<!-- Node2 -->
<g id="node2" class="node">
<title>Node2</title>
<g id="a_node2"><a xlink:href="classUtility_1_1ThreadSafeMonoBehaviour.html" target="_top" xlink:title="Safely stores if the gameobject been destroyed in a bool">
<polygon fill="white" stroke="black" points="41,-376.5 41,-433.5 190,-433.5 190,-376.5 41,-376.5"/>
<text text-anchor="middle" x="115.5" y="-421.5" font-family="Helvetica,sans-Serif" font-size="10.00">ThreadSafeMonoBehaviour</text>
<polyline fill="none" stroke="black" points="41,-414.5 190,-414.5 "/>
<text text-anchor="start" x="49" y="-402.5" font-family="Helvetica,sans-Serif" font-size="10.00">+ bool Destroyed</text>
<polyline fill="none" stroke="black" points="41,-395.5 190,-395.5 "/>
<text text-anchor="start" x="49" y="-383.5" font-family="Helvetica,sans-Serif" font-size="10.00"># void OnDestroy()</text>
</a>
</g>
</g>
<!-- Node2&#45;&gt;Node1 -->
<g id="edge1" class="edge">
<title>Node2&#45;&gt;Node1</title>
<path fill="none" stroke="midnightblue" d="M115.97,-366.17C116.58,-317.54 117.66,-231.74 118.46,-167.67"/>
<polygon fill="none" stroke="midnightblue" points="112.47,-366.21 115.85,-376.25 119.47,-366.29 112.47,-366.21"/>
</g>
<!-- Node4 -->
<g id="node4" class="node">
<title>Node4</title>
<g id="a_node4"><a xlink:href="classUtility_1_1ModalWindow.html" target="_top" xlink:title="Modal window for alerting the user">
<polygon fill="white" stroke="black" points="131.5,-215.5 131.5,-338.5 373.5,-338.5 373.5,-215.5 131.5,-215.5"/>
<text text-anchor="middle" x="252.5" y="-326.5" font-family="Helvetica,sans-Serif" font-size="10.00">Utility.ModalWindow</text>
<polyline fill="none" stroke="black" points="131.5,-319.5 373.5,-319.5 "/>
<text text-anchor="start" x="139.5" y="-307.5" font-family="Helvetica,sans-Serif" font-size="10.00">&#45; TMP_Text ModalTitleText</text>
<text text-anchor="start" x="139.5" y="-296.5" font-family="Helvetica,sans-Serif" font-size="10.00">&#45; TMP_Text ModalContentText</text>
<text text-anchor="start" x="139.5" y="-285.5" font-family="Helvetica,sans-Serif" font-size="10.00">&#45; Action onOkAction</text>
<polyline fill="none" stroke="black" points="131.5,-278.5 373.5,-278.5 "/>
<text text-anchor="start" x="139.5" y="-266.5" font-family="Helvetica,sans-Serif" font-size="10.00">+ void Show()</text>
<text text-anchor="start" x="139.5" y="-255.5" font-family="Helvetica,sans-Serif" font-size="10.00">+ void Show(string title, string content, Action</text>
<text text-anchor="start" x="139.5" y="-244.5" font-family="Helvetica,sans-Serif" font-size="10.00"> onOkAction=null)</text>
<text text-anchor="start" x="139.5" y="-233.5" font-family="Helvetica,sans-Serif" font-size="10.00">+ void Hide()</text>
<text text-anchor="start" x="139.5" y="-222.5" font-family="Helvetica,sans-Serif" font-size="10.00">+ void ConfirmButtonClick()</text>
</a>
</g>
</g>
<!-- Node2&#45;&gt;Node4 -->
<g id="edge4" class="edge">
<title>Node2&#45;&gt;Node4</title>
<path fill="none" stroke="midnightblue" d="M152.93,-369.58C163.36,-359.99 175.01,-349.27 186.56,-338.65"/>
<polygon fill="none" stroke="midnightblue" points="150.56,-367 145.57,-376.35 155.29,-372.16 150.56,-367"/>
</g>
<!-- Node3 -->
<g id="node3" class="node">
<title>Node3</title>
<g id="a_node3"><a xlink:title=" ">
<polygon fill="white" stroke="#bfbfbf" points="69,-471.5 69,-528.5 162,-528.5 162,-471.5 69,-471.5"/>
<text text-anchor="middle" x="115.5" y="-516.5" font-family="Helvetica,sans-Serif" font-size="10.00">MonoBehaviour</text>
<polyline fill="none" stroke="#bfbfbf" points="69,-509.5 162,-509.5 "/>
<text text-anchor="middle" x="115.5" y="-497.5" font-family="Helvetica,sans-Serif" font-size="10.00"> </text>
<polyline fill="none" stroke="#bfbfbf" points="69,-490.5 162,-490.5 "/>
<text text-anchor="middle" x="115.5" y="-478.5" font-family="Helvetica,sans-Serif" font-size="10.00"> </text>
</a>
</g>
</g>
<!-- Node3&#45;&gt;Node2 -->
<g id="edge2" class="edge">
<title>Node3&#45;&gt;Node2</title>
<path fill="none" stroke="midnightblue" d="M115.5,-461.24C115.5,-452.03 115.5,-442.35 115.5,-433.71"/>
<polygon fill="none" stroke="midnightblue" points="112,-461.35 115.5,-471.35 119,-461.35 112,-461.35"/>
</g>
<!-- Node4&#45;&gt;Node1 -->
<g id="edge3" class="edge">
<title>Node4&#45;&gt;Node1</title>
<path fill="none" stroke="#404040" d="M210.24,-215.3C201.89,-203.32 192.96,-190.5 184.07,-177.73"/>
<polygon fill="none" stroke="#404040" points="183.83,-177.38 177.12,-174.74 176.97,-167.53 183.68,-170.17 183.83,-177.38"/>
<text text-anchor="middle" x="232" y="-189" font-family="Helvetica,sans-Serif" font-size="10.00"> &#45;modalWindow</text>
</g>
</g>
</svg>
