<?xml version="1.0" encoding="UTF-8" standalone="no"?>
<!DOCTYPE svg PUBLIC "-//W3C//DTD SVG 1.1//EN"
 "http://www.w3.org/Graphics/SVG/1.1/DTD/svg11.dtd">
<!-- Generated by graphviz version 2.43.0 (0)
 -->
<!-- Title: MainPage.MainWindowController.LoadBadHabits Pages: 1 -->
<svg width="866pt" height="27pt"
 viewBox="0.00 0.00 866.00 27.00" xmlns="http://www.w3.org/2000/svg" xmlns:xlink="http://www.w3.org/1999/xlink">
<g id="graph0" class="graph" transform="scale(1 1) rotate(0) translate(4 23)">
<title>MainPage.MainWindowController.LoadBadHabits</title>
<!-- Node1 -->
<g id="Node000001" class="node">
<title>Node1</title>
<g id="a_Node000001"><a xlink:title="Load the good habits.">
<polygon fill="#999999" stroke="#666666" points="254,-19 0,-19 0,0 254,0 254,-19"/>
<text text-anchor="middle" x="127" y="-7" font-family="Helvetica,sans-Serif" font-size="10.00">MainPage.MainWindowController.LoadBadHabits</text>
</a>
</g>
</g>
<!-- Node2 -->
<g id="Node000002" class="node">
<title>Node2</title>
<g id="a_Node000002"><a xlink:href="classMainPage_1_1TaskOpenPanelController.html#a5513399c20f650915ca10f54805f416e" target="_top" xlink:title="Make this task a bad habit.">
<polygon fill="white" stroke="#666666" points="559,-19 290,-19 290,0 559,0 559,-19"/>
<text text-anchor="middle" x="424.5" y="-7" font-family="Helvetica,sans-Serif" font-size="10.00">MainPage.TaskOpenPanelController.MakeItBadHabit</text>
</a>
</g>
</g>
<!-- Node1&#45;&gt;Node2 -->
<g id="edge1_Node000001_Node000002" class="edge">
<title>Node1&#45;&gt;Node2</title>
<g id="a_edge1_Node000001_Node000002"><a xlink:title=" ">
<path fill="none" stroke="#63b8ff" d="M254.18,-2.81C262.63,-2.76 271.18,-2.74 279.72,-2.75"/>
<polygon fill="#63b8ff" stroke="#63b8ff" points="279.71,-6.25 289.72,-2.78 279.73,0.75 279.71,-6.25"/>
</a>
</g>
</g>
<!-- Node2&#45;&gt;Node1 -->
<g id="edge2_Node000002_Node000001" class="edge">
<title>Node2&#45;&gt;Node1</title>
<g id="a_edge2_Node000002_Node000001"><a xlink:title=" ">
<path fill="none" stroke="#63b8ff" d="M289.72,-16.22C281.31,-16.26 272.84,-16.26 264.42,-16.23"/>
<polygon fill="#63b8ff" stroke="#63b8ff" points="264.19,-12.73 254.18,-16.19 264.16,-19.73 264.19,-12.73"/>
</a>
</g>
</g>
<!-- Node3 -->
<g id="Node000003" class="node">
<title>Node3</title>
<g id="a_Node000003"><a xlink:href="classMainPage_1_1TaskOpenPanelController.html#aa0b6757dbad141375c50282278b23b1a" target="_top" xlink:title="Update the buttons with the appropriate color based on the current task.">
<polygon fill="white" stroke="#666666" points="858,-19 595,-19 595,0 858,0 858,-19"/>
<text text-anchor="middle" x="726.5" y="-7" font-family="Helvetica,sans-Serif" font-size="10.00">MainPage.TaskOpenPanelController.UpdateButtons</text>
</a>
</g>
</g>
<!-- Node2&#45;&gt;Node3 -->
<g id="edge3_Node000002_Node000003" class="edge">
<title>Node2&#45;&gt;Node3</title>
<g id="a_edge3_Node000002_Node000003"><a xlink:title=" ">
<path fill="none" stroke="#63b8ff" d="M559.27,-9.5C567.6,-9.5 576,-9.5 584.36,-9.5"/>
<polygon fill="#63b8ff" stroke="#63b8ff" points="584.54,-13 594.54,-9.5 584.54,-6 584.54,-13"/>
</a>
</g>
</g>
</g>
</svg>
