<?xml version="1.0" encoding="UTF-8" standalone="no"?>
<!DOCTYPE svg PUBLIC "-//W3C//DTD SVG 1.1//EN"
 "http://www.w3.org/Graphics/SVG/1.1/DTD/svg11.dtd">
<!-- Generated by graphviz version 2.43.0 (0)
 -->
<!-- Title: MainPage.FriendHandler.AcceptFriendRequest Pages: 1 -->
<svg width="535pt" height="104pt"
 viewBox="0.00 0.00 535.00 104.00" xmlns="http://www.w3.org/2000/svg" xmlns:xlink="http://www.w3.org/1999/xlink">
<g id="graph0" class="graph" transform="scale(1 1) rotate(0) translate(4 100)">
<title>MainPage.FriendHandler.AcceptFriendRequest</title>
<polygon fill="white" stroke="transparent" points="-4,4 -4,-100 531,-100 531,4 -4,4"/>
<!-- Node1 -->
<g id="node1" class="node">
<title>Node1</title>
<g id="a_node1"><a xlink:title="Send a request to the server that the user accepted the friend request">
<polygon fill="#bfbfbf" stroke="black" points="0,-38.5 0,-57.5 240,-57.5 240,-38.5 0,-38.5"/>
<text text-anchor="middle" x="120" y="-45.5" font-family="Helvetica,sans-Serif" font-size="10.00">MainPage.FriendHandler.AcceptFriendRequest</text>
</a>
</g>
</g>
<!-- Node2 -->
<g id="node2" class="node">
<title>Node2</title>
<g id="a_node2"><a xlink:href="classMainPage_1_1FriendHandler.html#afedea0dd2e647f77ec7968750395b004" target="_top" xlink:title="After the server responded successfully to the friend accept">
<polygon fill="white" stroke="black" points="310.5,-76.5 310.5,-95.5 492.5,-95.5 492.5,-76.5 310.5,-76.5"/>
<text text-anchor="middle" x="401.5" y="-83.5" font-family="Helvetica,sans-Serif" font-size="10.00">MainPage.FriendHandler.Accepted</text>
</a>
</g>
</g>
<!-- Node1&#45;&gt;Node2 -->
<g id="edge1" class="edge">
<title>Node1&#45;&gt;Node2</title>
<path fill="none" stroke="midnightblue" d="M191.17,-57.54C230.46,-62.88 279.6,-69.56 320.39,-75.11"/>
<polygon fill="midnightblue" stroke="midnightblue" points="319.92,-78.58 330.3,-76.46 320.86,-71.64 319.92,-78.58"/>
</g>
<!-- Node3 -->
<g id="node3" class="node">
<title>Node3</title>
<g id="a_node3"><a xlink:href="classConfig_1_1ServerConfig.html#a7e8a6c00e86ee263e4e91d76e91865d8" target="_top" xlink:title="Path for the friend accept api endpoint">
<polygon fill="white" stroke="black" points="276,-38.5 276,-57.5 527,-57.5 527,-38.5 276,-38.5"/>
<text text-anchor="middle" x="401.5" y="-45.5" font-family="Helvetica,sans-Serif" font-size="10.00">Config.ServerConfig.PATH_FOR_FRIEND_ACCEPT</text>
</a>
</g>
</g>
<!-- Node1&#45;&gt;Node3 -->
<g id="edge2" class="edge">
<title>Node1&#45;&gt;Node3</title>
<path fill="none" stroke="midnightblue" d="M240.34,-48C248.68,-48 257.11,-48 265.52,-48"/>
<polygon fill="midnightblue" stroke="midnightblue" points="265.76,-51.5 275.76,-48 265.76,-44.5 265.76,-51.5"/>
</g>
<!-- Node4 -->
<g id="node4" class="node">
<title>Node4</title>
<g id="a_node4"><a xlink:href="classUtility_1_1CoroutineRunner.html#a1c473dee723f16d86bab9d8475c8214a" target="_top" xlink:title="A helper method to start coroutines">
<polygon fill="white" stroke="black" points="302.5,-0.5 302.5,-19.5 500.5,-19.5 500.5,-0.5 302.5,-0.5"/>
<text text-anchor="middle" x="401.5" y="-7.5" font-family="Helvetica,sans-Serif" font-size="10.00">Utility.CoroutineRunner.RunCoroutine</text>
</a>
</g>
</g>
<!-- Node1&#45;&gt;Node4 -->
<g id="edge3" class="edge">
<title>Node1&#45;&gt;Node4</title>
<path fill="none" stroke="midnightblue" d="M191.17,-38.46C230.46,-33.12 279.6,-26.44 320.39,-20.89"/>
<polygon fill="midnightblue" stroke="midnightblue" points="320.86,-24.36 330.3,-19.54 319.92,-17.42 320.86,-24.36"/>
</g>
</g>
</svg>
