<?xml version="1.0" encoding="UTF-8" standalone="no"?>
<!DOCTYPE svg PUBLIC "-//W3C//DTD SVG 1.1//EN"
 "http://www.w3.org/Graphics/SVG/1.1/DTD/svg11.dtd">
<!-- Generated by graphviz version 2.43.0 (0)
 -->
<!-- Title: MainPage.MainWindowController.UpdateTaskLabel Pages: 1 -->
<svg width="800pt" height="28pt"
 viewBox="0.00 0.00 800.00 28.00" xmlns="http://www.w3.org/2000/svg" xmlns:xlink="http://www.w3.org/1999/xlink">
<g id="graph0" class="graph" transform="scale(1 1) rotate(0) translate(4 24)">
<title>MainPage.MainWindowController.UpdateTaskLabel</title>
<polygon fill="white" stroke="transparent" points="-4,4 -4,-24 796,-24 796,4 -4,4"/>
<!-- Node1 -->
<g id="node1" class="node">
<title>Node1</title>
<g id="a_node1"><a xlink:title="Update the task prebab&#39;s label">
<polygon fill="#bfbfbf" stroke="black" points="529,-0.5 529,-19.5 792,-19.5 792,-0.5 529,-0.5"/>
<text text-anchor="middle" x="660.5" y="-7.5" font-family="Helvetica,sans-Serif" font-size="10.00">MainPage.MainWindowController.UpdateTaskLabel</text>
</a>
</g>
</g>
<!-- Node2 -->
<g id="node2" class="node">
<title>Node2</title>
<g id="a_node2"><a xlink:href="classMainPage_1_1TaskOpenPanelController.html#a750d1acc6fd173296467fb9aca366a3d" target="_top" xlink:title="When the task was stored on the server show it also visually and close the panel">
<polygon fill="white" stroke="black" points="251,-0.5 251,-19.5 493,-19.5 493,-0.5 251,-0.5"/>
<text text-anchor="middle" x="372" y="-7.5" font-family="Helvetica,sans-Serif" font-size="10.00">MainPage.TaskOpenPanelController.SavedTask</text>
</a>
</g>
</g>
<!-- Node1&#45;&gt;Node2 -->
<g id="edge1" class="edge">
<title>Node1&#45;&gt;Node2</title>
<path fill="none" stroke="midnightblue" d="M518.57,-10C510.14,-10 501.71,-10 493.39,-10"/>
<polygon fill="midnightblue" stroke="midnightblue" points="518.83,-13.5 528.83,-10 518.83,-6.5 518.83,-13.5"/>
</g>
<!-- Node3 -->
<g id="node3" class="node">
<title>Node3</title>
<g id="a_node3"><a xlink:href="classMainPage_1_1TaskOpenPanelController.html#ab8def75cd4cdbdaf3033022ea114a8a6" target="_top" xlink:title="Save the task to the server">
<polygon fill="white" stroke="black" points="0,-0.5 0,-19.5 215,-19.5 215,-0.5 0,-0.5"/>
<text text-anchor="middle" x="107.5" y="-7.5" font-family="Helvetica,sans-Serif" font-size="10.00">MainPage.TaskOpenPanelController.Save</text>
</a>
</g>
</g>
<!-- Node2&#45;&gt;Node3 -->
<g id="edge2" class="edge">
<title>Node2&#45;&gt;Node3</title>
<path fill="none" stroke="midnightblue" d="M240.85,-10C232.28,-10 223.71,-10 215.27,-10"/>
<polygon fill="midnightblue" stroke="midnightblue" points="240.89,-13.5 250.89,-10 240.89,-6.5 240.89,-13.5"/>
</g>
</g>
</svg>
