<?xml version="1.0" encoding="UTF-8" standalone="no"?>
<!DOCTYPE svg PUBLIC "-//W3C//DTD SVG 1.1//EN"
 "http://www.w3.org/Graphics/SVG/1.1/DTD/svg11.dtd">
<!-- Generated by graphviz version 2.43.0 (0)
 -->
<!-- Title: Game.UI.GameUI Pages: 1 -->
<svg width="351pt" height="797pt"
 viewBox="0.00 0.00 351.00 797.00" xmlns="http://www.w3.org/2000/svg" xmlns:xlink="http://www.w3.org/1999/xlink">
<g id="graph0" class="graph" transform="scale(1 1) rotate(0) translate(4 793)">
<title>Game.UI.GameUI</title>
<!-- Node1 -->
<g id="Node000001" class="node">
<title>Node1</title>
<g id="a_Node000001"><a xlink:title="Controller for the game&#39;s UI.">
<polygon fill="#999999" stroke="transparent" points="343,-619 0,-619 0,0 343,0 343,-619"/>
<text text-anchor="start" x="129" y="-606.5" font-family="Helvetica,sans-Serif" font-size="10.00">Game.UI.GameUI</text>
<text text-anchor="start" x="4.5" y="-591.5" font-family="Helvetica,sans-Serif" font-size="10.00">+</text>
<text text-anchor="start" x="17.5" y="-591.5" font-family="Helvetica,sans-Serif" font-size="10.00">bool Doubled</text>
<text text-anchor="start" x="4.5" y="-576.5" font-family="Helvetica,sans-Serif" font-size="10.00">+</text>
<text text-anchor="start" x="17.5" y="-576.5" font-family="Helvetica,sans-Serif" font-size="10.00">int SelectedSkinIndex</text>
<text text-anchor="start" x="7" y="-561.5" font-family="Helvetica,sans-Serif" font-size="10.00">&#45;</text>
<text text-anchor="start" x="17.5" y="-561.5" font-family="Helvetica,sans-Serif" font-size="10.00">GameObject gameOverContainer</text>
<text text-anchor="start" x="7" y="-546.5" font-family="Helvetica,sans-Serif" font-size="10.00">&#45;</text>
<text text-anchor="start" x="17.5" y="-546.5" font-family="Helvetica,sans-Serif" font-size="10.00">GameObject ingameContainer</text>
<text text-anchor="start" x="7" y="-531.5" font-family="Helvetica,sans-Serif" font-size="10.00">&#45;</text>
<text text-anchor="start" x="17.5" y="-531.5" font-family="Helvetica,sans-Serif" font-size="10.00">ShopWindow ShopWindow</text>
<text text-anchor="start" x="7" y="-516.5" font-family="Helvetica,sans-Serif" font-size="10.00">&#45;</text>
<text text-anchor="start" x="17.5" y="-516.5" font-family="Helvetica,sans-Serif" font-size="10.00">GameObject mainMenuContainer</text>
<text text-anchor="start" x="7" y="-501.5" font-family="Helvetica,sans-Serif" font-size="10.00">&#45;</text>
<text text-anchor="start" x="17.5" y="-501.5" font-family="Helvetica,sans-Serif" font-size="10.00">Image SkinDisplay</text>
<text text-anchor="start" x="7" y="-486.5" font-family="Helvetica,sans-Serif" font-size="10.00">&#45;</text>
<text text-anchor="start" x="17.5" y="-486.5" font-family="Helvetica,sans-Serif" font-size="10.00">LeaderboardWindow leaderboardWindow</text>
<text text-anchor="start" x="7" y="-471.5" font-family="Helvetica,sans-Serif" font-size="10.00">&#45;</text>
<text text-anchor="start" x="17.5" y="-471.5" font-family="Helvetica,sans-Serif" font-size="10.00">TMP_Text InfamyGameOverText</text>
<text text-anchor="start" x="7" y="-456.5" font-family="Helvetica,sans-Serif" font-size="10.00">&#45;</text>
<text text-anchor="start" x="17.5" y="-456.5" font-family="Helvetica,sans-Serif" font-size="10.00">TMP_Text CoinGameOverText</text>
<text text-anchor="start" x="7" y="-441.5" font-family="Helvetica,sans-Serif" font-size="10.00">&#45;</text>
<text text-anchor="start" x="17.5" y="-441.5" font-family="Helvetica,sans-Serif" font-size="10.00">TMP_Text InfamyInGameText</text>
<text text-anchor="start" x="7" y="-426.5" font-family="Helvetica,sans-Serif" font-size="10.00">&#45;</text>
<text text-anchor="start" x="17.5" y="-426.5" font-family="Helvetica,sans-Serif" font-size="10.00">TMP_Text TaskScoreInGameText</text>
<text text-anchor="start" x="7" y="-411.5" font-family="Helvetica,sans-Serif" font-size="10.00">&#45;</text>
<text text-anchor="start" x="17.5" y="-411.5" font-family="Helvetica,sans-Serif" font-size="10.00">TMP_Text CoinInGameText</text>
<text text-anchor="start" x="7" y="-396.5" font-family="Helvetica,sans-Serif" font-size="10.00">&#45;</text>
<text text-anchor="start" x="17.5" y="-396.5" font-family="Helvetica,sans-Serif" font-size="10.00">StarHandler starHandler</text>
<text text-anchor="start" x="7" y="-381.5" font-family="Helvetica,sans-Serif" font-size="10.00">&#45;</text>
<text text-anchor="start" x="17.5" y="-381.5" font-family="Helvetica,sans-Serif" font-size="10.00">Button DoubleCoinButon</text>
<text text-anchor="start" x="7" y="-366.5" font-family="Helvetica,sans-Serif" font-size="10.00">&#45;</text>
<text text-anchor="start" x="17.5" y="-366.5" font-family="Helvetica,sans-Serif" font-size="10.00">ModalWindow ModalWindow</text>
<text text-anchor="start" x="7" y="-351.5" font-family="Helvetica,sans-Serif" font-size="10.00">&#45;</text>
<text text-anchor="start" x="17.5" y="-351.5" font-family="Helvetica,sans-Serif" font-size="10.00">GameController gameController</text>
<text text-anchor="start" x="4.5" y="-336.5" font-family="Helvetica,sans-Serif" font-size="10.00">+</text>
<text text-anchor="start" x="17.5" y="-336.5" font-family="Helvetica,sans-Serif" font-size="10.00">void SaveGameResult()</text>
<text text-anchor="start" x="4.5" y="-321.5" font-family="Helvetica,sans-Serif" font-size="10.00">+</text>
<text text-anchor="start" x="17.5" y="-321.5" font-family="Helvetica,sans-Serif" font-size="10.00">void DoubleCoins()</text>
<text text-anchor="start" x="4.5" y="-306.5" font-family="Helvetica,sans-Serif" font-size="10.00">+</text>
<text text-anchor="start" x="17.5" y="-306.5" font-family="Helvetica,sans-Serif" font-size="10.00">void BuyImmunity()</text>
<text text-anchor="start" x="4.5" y="-291.5" font-family="Helvetica,sans-Serif" font-size="10.00">+</text>
<text text-anchor="start" x="17.5" y="-291.5" font-family="Helvetica,sans-Serif" font-size="10.00">void BuyTurbo()</text>
<text text-anchor="start" x="4.5" y="-276.5" font-family="Helvetica,sans-Serif" font-size="10.00">+</text>
<text text-anchor="start" x="17.5" y="-276.5" font-family="Helvetica,sans-Serif" font-size="10.00">void ShowLeaderboard()</text>
<text text-anchor="start" x="4.5" y="-261.5" font-family="Helvetica,sans-Serif" font-size="10.00">+</text>
<text text-anchor="start" x="17.5" y="-261.5" font-family="Helvetica,sans-Serif" font-size="10.00">void LeftRotateSkin()</text>
<text text-anchor="start" x="4.5" y="-246.5" font-family="Helvetica,sans-Serif" font-size="10.00">+</text>
<text text-anchor="start" x="17.5" y="-246.5" font-family="Helvetica,sans-Serif" font-size="10.00">void RightRotateSkin()</text>
<text text-anchor="start" x="4.5" y="-231.5" font-family="Helvetica,sans-Serif" font-size="10.00">+</text>
<text text-anchor="start" x="17.5" y="-231.5" font-family="Helvetica,sans-Serif" font-size="10.00">void Init(GameController gameController)</text>
<text text-anchor="start" x="4.5" y="-216.5" font-family="Helvetica,sans-Serif" font-size="10.00">+</text>
<text text-anchor="start" x="17.5" y="-216.5" font-family="Helvetica,sans-Serif" font-size="10.00">async void NewGame(bool save=true)</text>
<text text-anchor="start" x="4.5" y="-201.5" font-family="Helvetica,sans-Serif" font-size="10.00">+</text>
<text text-anchor="start" x="17.5" y="-201.5" font-family="Helvetica,sans-Serif" font-size="10.00">void ChangeDifficulyDisplay(int difficulty)</text>
<text text-anchor="start" x="4.5" y="-186.5" font-family="Helvetica,sans-Serif" font-size="10.00">+</text>
<text text-anchor="start" x="17.5" y="-186.5" font-family="Helvetica,sans-Serif" font-size="10.00">void ShowEndGameScreen()</text>
<text text-anchor="start" x="4.5" y="-171.5" font-family="Helvetica,sans-Serif" font-size="10.00">+</text>
<text text-anchor="start" x="17.5" y="-171.5" font-family="Helvetica,sans-Serif" font-size="10.00">void HideGameOverScreen(bool saveGameResults=true)</text>
<text text-anchor="start" x="4.5" y="-156.5" font-family="Helvetica,sans-Serif" font-size="10.00">+</text>
<text text-anchor="start" x="17.5" y="-156.5" font-family="Helvetica,sans-Serif" font-size="10.00">void ShowShopWindow()</text>
<text text-anchor="start" x="4.5" y="-141.5" font-family="Helvetica,sans-Serif" font-size="10.00">+</text>
<text text-anchor="start" x="17.5" y="-141.5" font-family="Helvetica,sans-Serif" font-size="10.00">void HideShopWindow()</text>
<text text-anchor="start" x="4.5" y="-126.5" font-family="Helvetica,sans-Serif" font-size="10.00">+</text>
<text text-anchor="start" x="17.5" y="-126.5" font-family="Helvetica,sans-Serif" font-size="10.00">void BackToTasks()</text>
<text text-anchor="start" x="4.5" y="-111.5" font-family="Helvetica,sans-Serif" font-size="10.00">+</text>
<text text-anchor="start" x="17.5" y="-111.5" font-family="Helvetica,sans-Serif" font-size="10.00">void BackToGameMenuWithoutSave()</text>
<text text-anchor="start" x="4.5" y="-96.5" font-family="Helvetica,sans-Serif" font-size="10.00">+</text>
<text text-anchor="start" x="17.5" y="-96.5" font-family="Helvetica,sans-Serif" font-size="10.00">void BackToGameMenu()</text>
<text text-anchor="start" x="7" y="-81.5" font-family="Helvetica,sans-Serif" font-size="10.00">&#45;</text>
<text text-anchor="start" x="17.5" y="-81.5" font-family="Helvetica,sans-Serif" font-size="10.00">void Update()</text>
<text text-anchor="start" x="7" y="-66.5" font-family="Helvetica,sans-Serif" font-size="10.00">&#45;</text>
<text text-anchor="start" x="17.5" y="-66.5" font-family="Helvetica,sans-Serif" font-size="10.00">void SavedCoins(Thesis_backend.Data_Structures.Game game)</text>
<text text-anchor="start" x="7" y="-51.5" font-family="Helvetica,sans-Serif" font-size="10.00">&#45;</text>
<text text-anchor="start" x="17.5" y="-51.5" font-family="Helvetica,sans-Serif" font-size="10.00">void BoughtImmunity(Thesis_backend.Data_Structures.User user)</text>
<text text-anchor="start" x="7" y="-36.5" font-family="Helvetica,sans-Serif" font-size="10.00">&#45;</text>
<text text-anchor="start" x="17.5" y="-36.5" font-family="Helvetica,sans-Serif" font-size="10.00">void BoughtTurbo(Thesis_backend.Data_Structures.User user)</text>
<text text-anchor="start" x="7" y="-21.5" font-family="Helvetica,sans-Serif" font-size="10.00">&#45;</text>
<text text-anchor="start" x="17.5" y="-21.5" font-family="Helvetica,sans-Serif" font-size="10.00">void DoubledCoins(Thesis_backend.Data_Structures.User user)</text>
<text text-anchor="start" x="7" y="-6.5" font-family="Helvetica,sans-Serif" font-size="10.00">&#45;</text>
<text text-anchor="start" x="17.5" y="-6.5" font-family="Helvetica,sans-Serif" font-size="10.00">void ShowRequestFail(string content)</text>
<polygon fill="#666666" stroke="#666666" points="0.5,-601.5 0.5,-601.5 343.5,-601.5 343.5,-601.5 0.5,-601.5"/>
<polygon fill="#666666" stroke="#666666" points="0.5,-346.5 0.5,-346.5 15.5,-346.5 15.5,-346.5 0.5,-346.5"/>
<polygon fill="#666666" stroke="#666666" points="15.5,-346.5 15.5,-346.5 343.5,-346.5 343.5,-346.5 15.5,-346.5"/>
<polygon fill="none" stroke="#666666" points="0,0 0,-619 343,-619 343,0 0,0"/>
</a>
</g>
</g>
<!-- Node2 -->
<g id="Node000002" class="node">
<title>Node2</title>
<g id="a_Node000002"><a xlink:href="classUtility_1_1ThreadSafeMonoBehaviour.html" target="_top" xlink:title="Safely stores if the gameobject been destroyed in a bool.">
<polygon fill="white" stroke="transparent" points="243,-704 100,-704 100,-655 243,-655 243,-704"/>
<text text-anchor="start" x="105.5" y="-691.5" font-family="Helvetica,sans-Serif" font-size="10.00">ThreadSafeMonoBehaviour</text>
<text text-anchor="start" x="114" y="-676.5" font-family="Helvetica,sans-Serif" font-size="10.00">+</text>
<text text-anchor="start" x="136.5" y="-676.5" font-family="Helvetica,sans-Serif" font-size="10.00">bool Destroyed</text>
<text text-anchor="start" x="114" y="-661.5" font-family="Helvetica,sans-Serif" font-size="10.00">#</text>
<text text-anchor="start" x="136.5" y="-661.5" font-family="Helvetica,sans-Serif" font-size="10.00">void OnDestroy()</text>
<polygon fill="#666666" stroke="#666666" points="100.5,-686.5 100.5,-686.5 243.5,-686.5 243.5,-686.5 100.5,-686.5"/>
<polygon fill="#666666" stroke="#666666" points="100.5,-671.5 100.5,-671.5 134.5,-671.5 134.5,-671.5 100.5,-671.5"/>
<polygon fill="#666666" stroke="#666666" points="134.5,-671.5 134.5,-671.5 243.5,-671.5 243.5,-671.5 134.5,-671.5"/>
<polygon fill="none" stroke="#666666" points="100,-655 100,-704 243,-704 243,-655 100,-655"/>
</a>
</g>
</g>
<!-- Node2&#45;&gt;Node1 -->
<g id="edge1_Node000001_Node000002" class="edge">
<title>Node2&#45;&gt;Node1</title>
<g id="a_edge1_Node000001_Node000002"><a xlink:title=" ">
<path fill="none" stroke="#63b8ff" d="M171.5,-644.68C171.5,-637.16 171.5,-628.61 171.5,-619.24"/>
<polygon fill="none" stroke="#63b8ff" points="168,-644.92 171.5,-654.92 175,-644.92 168,-644.92"/>
</a>
</g>
</g>
<!-- Node3 -->
<g id="Node000003" class="node">
<title>Node3</title>
<g id="a_Node000003"><a xlink:title=" ">
<polygon fill="white" stroke="transparent" points="215,-789 128,-789 128,-740 215,-740 215,-789"/>
<text text-anchor="start" x="133.5" y="-776.5" font-family="Helvetica,sans-Serif" font-size="10.00">MonoBehaviour</text>
<text text-anchor="start" x="170" y="-761.5" font-family="Helvetica,sans-Serif" font-size="10.00"> </text>
<text text-anchor="start" x="170" y="-746.5" font-family="Helvetica,sans-Serif" font-size="10.00"> </text>
<polygon fill="#666666" stroke="#666666" points="128.5,-771.5 128.5,-771.5 215.5,-771.5 215.5,-771.5 128.5,-771.5"/>
<polygon fill="#666666" stroke="#666666" points="128.5,-756.5 128.5,-756.5 215.5,-756.5 215.5,-756.5 128.5,-756.5"/>
<polygon fill="none" stroke="#666666" points="128,-740 128,-789 215,-789 215,-740 128,-740"/>
</a>
</g>
</g>
<!-- Node3&#45;&gt;Node2 -->
<g id="edge2_Node000002_Node000003" class="edge">
<title>Node3&#45;&gt;Node2</title>
<g id="a_edge2_Node000002_Node000003"><a xlink:title=" ">
<path fill="none" stroke="#63b8ff" d="M171.5,-729.77C171.5,-721.17 171.5,-712.1 171.5,-704.12"/>
<polygon fill="none" stroke="#63b8ff" points="168,-729.94 171.5,-739.94 175,-729.94 168,-729.94"/>
</a>
</g>
</g>
</g>
</svg>
