<?xml version="1.0" encoding="UTF-8" standalone="no"?>
<!DOCTYPE svg PUBLIC "-//W3C//DTD SVG 1.1//EN"
 "http://www.w3.org/Graphics/SVG/1.1/DTD/svg11.dtd">
<!-- Generated by graphviz version 2.43.0 (0)
 -->
<!-- Title: User.UserData.UpdateTaskScore Pages: 1 -->
<svg width="788pt" height="104pt"
 viewBox="0.00 0.00 788.00 104.00" xmlns="http://www.w3.org/2000/svg" xmlns:xlink="http://www.w3.org/1999/xlink">
<g id="graph0" class="graph" transform="scale(1 1) rotate(0) translate(4 100)">
<title>User.UserData.UpdateTaskScore</title>
<polygon fill="white" stroke="transparent" points="-4,4 -4,-100 784,-100 784,4 -4,4"/>
<!-- Node1 -->
<g id="node1" class="node">
<title>Node1</title>
<g id="a_node1"><a xlink:title="Update the user&#39;s task score">
<polygon fill="#bfbfbf" stroke="black" points="606,-38.5 606,-57.5 780,-57.5 780,-38.5 606,-38.5"/>
<text text-anchor="middle" x="693" y="-45.5" font-family="Helvetica,sans-Serif" font-size="10.00">User.UserData.UpdateTaskScore</text>
</a>
</g>
</g>
<!-- Node2 -->
<g id="node2" class="node">
<title>Node2</title>
<g id="a_node2"><a xlink:href="classGame_1_1UI_1_1GameUI.html#a5917dd3ff591dc192c83474a0db6b79d" target="_top" xlink:title="Callback after the player bought the immunity">
<polygon fill="white" stroke="black" points="383,-76.5 383,-95.5 570,-95.5 570,-76.5 383,-76.5"/>
<text text-anchor="middle" x="476.5" y="-83.5" font-family="Helvetica,sans-Serif" font-size="10.00">Game.UI.GameUI.BoughtImmunity</text>
</a>
</g>
</g>
<!-- Node1&#45;&gt;Node2 -->
<g id="edge1" class="edge">
<title>Node1&#45;&gt;Node2</title>
<path fill="none" stroke="midnightblue" d="M627.95,-59.35C597.17,-64.8 560.7,-71.26 531.37,-76.46"/>
<polygon fill="midnightblue" stroke="midnightblue" points="628.91,-62.73 638.15,-57.54 627.69,-55.84 628.91,-62.73"/>
</g>
<!-- Node5 -->
<g id="node5" class="node">
<title>Node5</title>
<g id="a_node5"><a xlink:href="classGame_1_1UI_1_1GameUI.html#a1b43083f2e18b3389e4f654cc2d73bed" target="_top" xlink:title="Callback after the player bought the turbo">
<polygon fill="white" stroke="black" points="393.5,-38.5 393.5,-57.5 559.5,-57.5 559.5,-38.5 393.5,-38.5"/>
<text text-anchor="middle" x="476.5" y="-45.5" font-family="Helvetica,sans-Serif" font-size="10.00">Game.UI.GameUI.BoughtTurbo</text>
</a>
</g>
</g>
<!-- Node1&#45;&gt;Node5 -->
<g id="edge4" class="edge">
<title>Node1&#45;&gt;Node5</title>
<path fill="none" stroke="midnightblue" d="M595.9,-48C583.81,-48 571.54,-48 559.7,-48"/>
<polygon fill="midnightblue" stroke="midnightblue" points="595.99,-51.5 605.99,-48 595.99,-44.5 595.99,-51.5"/>
</g>
<!-- Node7 -->
<g id="node7" class="node">
<title>Node7</title>
<g id="a_node7"><a xlink:href="classGame_1_1UI_1_1GameUI.html#a3c2c26f77375693436ab41d77452948f" target="_top" xlink:title="Callback after the coins were doubled">
<polygon fill="white" stroke="black" points="390,-0.5 390,-19.5 563,-19.5 563,-0.5 390,-0.5"/>
<text text-anchor="middle" x="476.5" y="-7.5" font-family="Helvetica,sans-Serif" font-size="10.00">Game.UI.GameUI.DoubledCoins</text>
</a>
</g>
</g>
<!-- Node1&#45;&gt;Node7 -->
<g id="edge7" class="edge">
<title>Node1&#45;&gt;Node7</title>
<path fill="none" stroke="midnightblue" d="M627.95,-36.65C597.17,-31.2 560.7,-24.74 531.37,-19.54"/>
<polygon fill="midnightblue" stroke="midnightblue" points="627.69,-40.16 638.15,-38.46 628.91,-33.27 627.69,-40.16"/>
</g>
<!-- Node3 -->
<g id="node3" class="node">
<title>Node3</title>
<g id="a_node3"><a xlink:href="classGame_1_1UI_1_1GameUI.html#acd930ff070019fc74a3795a8b1452923" target="_top" xlink:title="Buy the immunity power up">
<polygon fill="white" stroke="black" points="176,-76.5 176,-95.5 347,-95.5 347,-76.5 176,-76.5"/>
<text text-anchor="middle" x="261.5" y="-83.5" font-family="Helvetica,sans-Serif" font-size="10.00">Game.UI.GameUI.BuyImmunity</text>
</a>
</g>
</g>
<!-- Node2&#45;&gt;Node3 -->
<g id="edge2" class="edge">
<title>Node2&#45;&gt;Node3</title>
<path fill="none" stroke="midnightblue" d="M372.44,-86C364.02,-86 355.56,-86 347.29,-86"/>
<polygon fill="midnightblue" stroke="midnightblue" points="372.69,-89.5 382.69,-86 372.69,-82.5 372.69,-89.5"/>
</g>
<!-- Node4 -->
<g id="node4" class="node">
<title>Node4</title>
<g id="a_node4"><a xlink:href="classGame_1_1UI_1_1GameUI.html#a77f6894867ecdecc2f7ca4bea695849f" target="_top" xlink:title="Called every frame">
<polygon fill="white" stroke="black" points="0,-57.5 0,-76.5 140,-76.5 140,-57.5 0,-57.5"/>
<text text-anchor="middle" x="70" y="-64.5" font-family="Helvetica,sans-Serif" font-size="10.00">Game.UI.GameUI.Update</text>
</a>
</g>
</g>
<!-- Node3&#45;&gt;Node4 -->
<g id="edge3" class="edge">
<title>Node3&#45;&gt;Node4</title>
<path fill="none" stroke="midnightblue" d="M165.63,-76.49C157.02,-75.62 148.41,-74.76 140.08,-73.93"/>
<polygon fill="midnightblue" stroke="midnightblue" points="165.43,-79.99 175.73,-77.5 166.13,-73.02 165.43,-79.99"/>
</g>
<!-- Node6 -->
<g id="node6" class="node">
<title>Node6</title>
<g id="a_node6"><a xlink:href="classGame_1_1UI_1_1GameUI.html#a97a84e72b5ac1d245d1bfd3eb802fdfd" target="_top" xlink:title="Buy the turbo power up">
<polygon fill="white" stroke="black" points="186.5,-38.5 186.5,-57.5 336.5,-57.5 336.5,-38.5 186.5,-38.5"/>
<text text-anchor="middle" x="261.5" y="-45.5" font-family="Helvetica,sans-Serif" font-size="10.00">Game.UI.GameUI.BuyTurbo</text>
</a>
</g>
</g>
<!-- Node5&#45;&gt;Node6 -->
<g id="edge5" class="edge">
<title>Node5&#45;&gt;Node6</title>
<path fill="none" stroke="midnightblue" d="M383.32,-48C367.79,-48 351.84,-48 336.84,-48"/>
<polygon fill="midnightblue" stroke="midnightblue" points="383.45,-51.5 393.45,-48 383.45,-44.5 383.45,-51.5"/>
</g>
<!-- Node6&#45;&gt;Node4 -->
<g id="edge6" class="edge">
<title>Node6&#45;&gt;Node4</title>
<path fill="none" stroke="midnightblue" d="M176.32,-56.44C164.2,-57.66 151.85,-58.89 140.08,-60.07"/>
<polygon fill="midnightblue" stroke="midnightblue" points="176.82,-59.91 186.42,-55.43 176.12,-52.94 176.82,-59.91"/>
</g>
<!-- Node8 -->
<g id="node8" class="node">
<title>Node8</title>
<g id="a_node8"><a xlink:href="classGame_1_1UI_1_1GameUI.html#aaed9ba7f6e28b2260d488f01c803e60a" target="_top" xlink:title="Buy the double coins bonus">
<polygon fill="white" stroke="black" points="178,-0.5 178,-19.5 345,-19.5 345,-0.5 178,-0.5"/>
<text text-anchor="middle" x="261.5" y="-7.5" font-family="Helvetica,sans-Serif" font-size="10.00">Game.UI.GameUI.DoubleCoins</text>
</a>
</g>
</g>
<!-- Node7&#45;&gt;Node8 -->
<g id="edge8" class="edge">
<title>Node7&#45;&gt;Node8</title>
<path fill="none" stroke="midnightblue" d="M379.74,-10C368.24,-10 356.57,-10 345.27,-10"/>
<polygon fill="midnightblue" stroke="midnightblue" points="379.79,-13.5 389.79,-10 379.79,-6.5 379.79,-13.5"/>
</g>
</g>
</svg>
