<?xml version="1.0" encoding="UTF-8" standalone="no"?>
<!DOCTYPE svg PUBLIC "-//W3C//DTD SVG 1.1//EN"
 "http://www.w3.org/Graphics/SVG/1.1/DTD/svg11.dtd">
<!-- Generated by graphviz version 2.43.0 (0)
 -->
<!-- Title: Game.GameController.ValidateAndLoadChunk Pages: 1 -->
<svg width="1012pt" height="28pt"
 viewBox="0.00 0.00 1012.00 28.00" xmlns="http://www.w3.org/2000/svg" xmlns:xlink="http://www.w3.org/1999/xlink">
<g id="graph0" class="graph" transform="scale(1 1) rotate(0) translate(4 24)">
<title>Game.GameController.ValidateAndLoadChunk</title>
<polygon fill="white" stroke="transparent" points="-4,4 -4,-24 1008,-24 1008,4 -4,4"/>
<!-- Node1 -->
<g id="node1" class="node">
<title>Node1</title>
<g id="a_node1"><a xlink:title="Checks if the selected chunk is in range and loads it if the world exists">
<polygon fill="#bfbfbf" stroke="black" points="763,-0.5 763,-19.5 1004,-19.5 1004,-0.5 763,-0.5"/>
<text text-anchor="middle" x="883.5" y="-7.5" font-family="Helvetica,sans-Serif" font-size="10.00">Game.GameController.ValidateAndLoadChunk</text>
</a>
</g>
</g>
<!-- Node2 -->
<g id="node2" class="node">
<title>Node2</title>
<g id="a_node2"><a xlink:href="classGame_1_1GameController.html#a2003e53e493cca6ace00e260e7161a03" target="_top" xlink:title="Spawns and loads the nearby chunks">
<polygon fill="white" stroke="black" points="495,-0.5 495,-19.5 727,-19.5 727,-0.5 495,-0.5"/>
<text text-anchor="middle" x="611" y="-7.5" font-family="Helvetica,sans-Serif" font-size="10.00">Game.GameController.SpawnNearbyChunks</text>
</a>
</g>
</g>
<!-- Node1&#45;&gt;Node2 -->
<g id="edge1" class="edge">
<title>Node1&#45;&gt;Node2</title>
<path fill="none" stroke="midnightblue" d="M752.47,-10C744.09,-10 735.68,-10 727.37,-10"/>
<polygon fill="midnightblue" stroke="midnightblue" points="752.67,-13.5 762.67,-10 752.67,-6.5 752.67,-13.5"/>
</g>
<!-- Node3 -->
<g id="node3" class="node">
<title>Node3</title>
<g id="a_node3"><a xlink:href="classGame_1_1GameController.html#af623e7876622503e3d0f985ad9b08e47" target="_top" xlink:title="Handle the load and despawning of the chunks relative to the given indices">
<polygon fill="white" stroke="black" points="208,-0.5 208,-19.5 459,-19.5 459,-0.5 208,-0.5"/>
<text text-anchor="middle" x="333.5" y="-7.5" font-family="Helvetica,sans-Serif" font-size="10.00">Game.GameController.LoadAndDespawnChunks</text>
</a>
</g>
</g>
<!-- Node2&#45;&gt;Node3 -->
<g id="edge2" class="edge">
<title>Node2&#45;&gt;Node3</title>
<path fill="none" stroke="midnightblue" d="M484.48,-10C476.02,-10 467.5,-10 459.05,-10"/>
<polygon fill="midnightblue" stroke="midnightblue" points="484.76,-13.5 494.76,-10 484.76,-6.5 484.76,-13.5"/>
</g>
<!-- Node4 -->
<g id="node4" class="node">
<title>Node4</title>
<g id="a_node4"><a xlink:href="classGame_1_1PlayerCar.html#a18f30f1f6873f043457ce9f81ac47ed4" target="_top" xlink:title="Override the chunk changed method to make it load and despawn the chunks">
<polygon fill="white" stroke="black" points="0,-0.5 0,-19.5 172,-19.5 172,-0.5 0,-0.5"/>
<text text-anchor="middle" x="86" y="-7.5" font-family="Helvetica,sans-Serif" font-size="10.00">Game.PlayerCar.ChunkChanged</text>
</a>
</g>
</g>
<!-- Node3&#45;&gt;Node4 -->
<g id="edge3" class="edge">
<title>Node3&#45;&gt;Node4</title>
<path fill="none" stroke="midnightblue" d="M197.75,-10C189.09,-10 180.5,-10 172.17,-10"/>
<polygon fill="midnightblue" stroke="midnightblue" points="197.95,-13.5 207.95,-10 197.95,-6.5 197.95,-13.5"/>
</g>
</g>
</svg>
