<?xml version="1.0" encoding="UTF-8" standalone="no"?>
<!DOCTYPE svg PUBLIC "-//W3C//DTD SVG 1.1//EN"
 "http://www.w3.org/Graphics/SVG/1.1/DTD/svg11.dtd">
<!-- Generated by graphviz version 2.43.0 (0)
 -->
<!-- Title: MainPage.TaskDisplayHandler.CompleteStateChange Pages: 1 -->
<svg width="2200pt" height="135pt"
 viewBox="0.00 0.00 2200.00 135.17" xmlns="http://www.w3.org/2000/svg" xmlns:xlink="http://www.w3.org/1999/xlink">
<g id="graph0" class="graph" transform="scale(1 1) rotate(0) translate(4 131.17)">
<title>MainPage.TaskDisplayHandler.CompleteStateChange</title>
<polygon fill="white" stroke="transparent" points="-4,4 -4,-131.17 2196,-131.17 2196,4 -4,4"/>
<!-- Node1 -->
<g id="node1" class="node">
<title>Node1</title>
<g id="a_node1"><a xlink:title="When the complete state is changed update the display to match it">
<polygon fill="#bfbfbf" stroke="black" points="1917,-57.5 1917,-76.5 2192,-76.5 2192,-57.5 1917,-57.5"/>
<text text-anchor="middle" x="2054.5" y="-64.5" font-family="Helvetica,sans-Serif" font-size="10.00">MainPage.TaskDisplayHandler.CompleteStateChange</text>
</a>
</g>
</g>
<!-- Node2 -->
<g id="node2" class="node">
<title>Node2</title>
<g id="a_node2"><a xlink:href="classMainPage_1_1TaskDisplayHandler.html#a8aedc4afb32d220352cf04cc77fdedf6" target="_top" xlink:title="Init it with the task to display and references to the controls">
<polygon fill="white" stroke="black" points="1082,-57.5 1082,-76.5 1296,-76.5 1296,-57.5 1082,-57.5"/>
<text text-anchor="middle" x="1189" y="-64.5" font-family="Helvetica,sans-Serif" font-size="10.00">MainPage.TaskDisplayHandler.InitValues</text>
</a>
</g>
</g>
<!-- Node1&#45;&gt;Node2 -->
<g id="edge1" class="edge">
<title>Node1&#45;&gt;Node2</title>
<path fill="none" stroke="midnightblue" d="M2010.68,-79.15C1976.03,-88.32 1925.81,-100.12 1881,-105 1638.43,-131.4 1573.92,-136.81 1332,-105 1291.14,-99.63 1245.32,-85.91 1217.06,-76.51"/>
<polygon fill="midnightblue" stroke="midnightblue" points="2011.71,-82.5 2020.46,-76.52 2009.9,-75.74 2011.71,-82.5"/>
</g>
<!-- Node9 -->
<g id="node9" class="node">
<title>Node9</title>
<g id="a_node9"><a xlink:href="classMainPage_1_1TaskDisplayHandler.html#a98b63052d0efc73233a32b69a06bf68e" target="_top" xlink:title="When the complete acknowledge were recieved from the server update the display">
<polygon fill="white" stroke="black" points="1621.5,-76.5 1621.5,-95.5 1862.5,-95.5 1862.5,-76.5 1621.5,-76.5"/>
<text text-anchor="middle" x="1742" y="-83.5" font-family="Helvetica,sans-Serif" font-size="10.00">MainPage.TaskDisplayHandler.TaskCompleted</text>
</a>
</g>
</g>
<!-- Node1&#45;&gt;Node9 -->
<g id="edge8" class="edge">
<title>Node1&#45;&gt;Node9</title>
<path fill="none" stroke="midnightblue" d="M1906.67,-75.98C1891.92,-76.89 1877.07,-77.8 1862.65,-78.68"/>
<polygon fill="midnightblue" stroke="midnightblue" points="1907.09,-79.47 1916.86,-75.36 1906.66,-72.48 1907.09,-79.47"/>
</g>
<!-- Node11 -->
<g id="node11" class="node">
<title>Node11</title>
<g id="a_node11"><a xlink:href="classMainPage_1_1TaskDisplayHandler.html#aa63f1bc894519b9d5872c2bb50b84415" target="_top" xlink:title="Update the time remaining until the task can be completed again">
<polygon fill="white" stroke="black" points="1603,-38.5 1603,-57.5 1881,-57.5 1881,-38.5 1603,-38.5"/>
<text text-anchor="middle" x="1742" y="-45.5" font-family="Helvetica,sans-Serif" font-size="10.00">MainPage.TaskDisplayHandler.UpdateTimeRemaining</text>
</a>
</g>
</g>
<!-- Node1&#45;&gt;Node11 -->
<g id="edge10" class="edge">
<title>Node1&#45;&gt;Node11</title>
<path fill="none" stroke="midnightblue" d="M1979,-56.58C1949.6,-54.07 1914.85,-51.66 1881.19,-49.74"/>
<polygon fill="midnightblue" stroke="midnightblue" points="1978.9,-60.08 1989.16,-57.47 1979.51,-53.11 1978.9,-60.08"/>
</g>
<!-- Node3 -->
<g id="node3" class="node">
<title>Node3</title>
<g id="a_node3"><a xlink:href="classMainPage_1_1MainWindowController.html#a827f62c47eb691eadd994bd51bf7cb74" target="_top" xlink:title="Creates a new task prefab to display">
<polygon fill="white" stroke="black" points="812,-57.5 812,-76.5 1046,-76.5 1046,-57.5 812,-57.5"/>
<text text-anchor="middle" x="929" y="-64.5" font-family="Helvetica,sans-Serif" font-size="10.00">MainPage.MainWindowController.CreateTask</text>
</a>
</g>
</g>
<!-- Node2&#45;&gt;Node3 -->
<g id="edge2" class="edge">
<title>Node2&#45;&gt;Node3</title>
<path fill="none" stroke="midnightblue" d="M1071.92,-67C1063.35,-67 1054.7,-67 1046.12,-67"/>
<polygon fill="midnightblue" stroke="midnightblue" points="1071.94,-70.5 1081.94,-67 1071.94,-63.5 1071.94,-70.5"/>
</g>
<!-- Node4 -->
<g id="node4" class="node">
<title>Node4</title>
<g id="a_node4"><a xlink:href="classMainPage_1_1MainWindowController.html#ab40b51689d2d8ca0497b0e53128f4992" target="_top" xlink:title="Create the task prefabs">
<polygon fill="white" stroke="black" points="505,-76.5 505,-95.5 776,-95.5 776,-76.5 505,-76.5"/>
<text text-anchor="middle" x="640.5" y="-83.5" font-family="Helvetica,sans-Serif" font-size="10.00">MainPage.MainWindowController.CreateTaskPrefabs</text>
</a>
</g>
</g>
<!-- Node3&#45;&gt;Node4 -->
<g id="edge3" class="edge">
<title>Node3&#45;&gt;Node4</title>
<path fill="none" stroke="midnightblue" d="M801.88,-75.36C793.33,-75.93 784.69,-76.5 776.09,-77.07"/>
<polygon fill="midnightblue" stroke="midnightblue" points="802.14,-78.85 811.88,-74.7 801.67,-71.87 802.14,-78.85"/>
</g>
<!-- Node7 -->
<g id="node7" class="node">
<title>Node7</title>
<g id="a_node7"><a xlink:href="classMainPage_1_1TaskOpenPanelController.html#a750d1acc6fd173296467fb9aca366a3d" target="_top" xlink:title="When the task was stored on the server show it also visually and close the panel">
<polygon fill="white" stroke="black" points="519.5,-38.5 519.5,-57.5 761.5,-57.5 761.5,-38.5 519.5,-38.5"/>
<text text-anchor="middle" x="640.5" y="-45.5" font-family="Helvetica,sans-Serif" font-size="10.00">MainPage.TaskOpenPanelController.SavedTask</text>
</a>
</g>
</g>
<!-- Node3&#45;&gt;Node7 -->
<g id="edge6" class="edge">
<title>Node3&#45;&gt;Node7</title>
<path fill="none" stroke="midnightblue" d="M801.71,-58.63C788.36,-57.74 774.8,-56.84 761.51,-55.96"/>
<polygon fill="midnightblue" stroke="midnightblue" points="801.67,-62.13 811.88,-59.3 802.14,-55.15 801.67,-62.13"/>
</g>
<!-- Node5 -->
<g id="node5" class="node">
<title>Node5</title>
<g id="a_node5"><a xlink:href="classMainPage_1_1MainWindowController.html#a47c21c97b7ba52af405119044e1434d0" target="_top" xlink:title="Load the tasks from the server">
<polygon fill="white" stroke="black" points="239,-76.5 239,-95.5 469,-95.5 469,-76.5 239,-76.5"/>
<text text-anchor="middle" x="354" y="-83.5" font-family="Helvetica,sans-Serif" font-size="10.00">MainPage.MainWindowController.LoadTasks</text>
</a>
</g>
</g>
<!-- Node4&#45;&gt;Node5 -->
<g id="edge4" class="edge">
<title>Node4&#45;&gt;Node5</title>
<path fill="none" stroke="midnightblue" d="M494.68,-86C486.1,-86 477.54,-86 469.11,-86"/>
<polygon fill="midnightblue" stroke="midnightblue" points="494.75,-89.5 504.75,-86 494.75,-82.5 494.75,-89.5"/>
</g>
<!-- Node6 -->
<g id="node6" class="node">
<title>Node6</title>
<g id="a_node6"><a xlink:href="classMainPage_1_1MainWindowController.html#acea2170099ea435298139c6c7fdce719" target="_top" xlink:title="Start is called before the first frame update">
<polygon fill="white" stroke="black" points="0,-76.5 0,-95.5 203,-95.5 203,-76.5 0,-76.5"/>
<text text-anchor="middle" x="101.5" y="-83.5" font-family="Helvetica,sans-Serif" font-size="10.00">MainPage.MainWindowController.Start</text>
</a>
</g>
</g>
<!-- Node5&#45;&gt;Node6 -->
<g id="edge5" class="edge">
<title>Node5&#45;&gt;Node6</title>
<path fill="none" stroke="midnightblue" d="M228.71,-86C220.15,-86 211.58,-86 203.16,-86"/>
<polygon fill="midnightblue" stroke="midnightblue" points="228.75,-89.5 238.75,-86 228.75,-82.5 228.75,-89.5"/>
</g>
<!-- Node8 -->
<g id="node8" class="node">
<title>Node8</title>
<g id="a_node8"><a xlink:href="classMainPage_1_1TaskOpenPanelController.html#ab8def75cd4cdbdaf3033022ea114a8a6" target="_top" xlink:title="Save the task to the server">
<polygon fill="white" stroke="black" points="246.5,-38.5 246.5,-57.5 461.5,-57.5 461.5,-38.5 246.5,-38.5"/>
<text text-anchor="middle" x="354" y="-45.5" font-family="Helvetica,sans-Serif" font-size="10.00">MainPage.TaskOpenPanelController.Save</text>
</a>
</g>
</g>
<!-- Node7&#45;&gt;Node8 -->
<g id="edge7" class="edge">
<title>Node7&#45;&gt;Node8</title>
<path fill="none" stroke="midnightblue" d="M508.91,-48C493.12,-48 477.13,-48 461.73,-48"/>
<polygon fill="midnightblue" stroke="midnightblue" points="509.26,-51.5 519.26,-48 509.26,-44.5 509.26,-51.5"/>
</g>
<!-- Node10 -->
<g id="node10" class="node">
<title>Node10</title>
<g id="a_node10"><a xlink:href="classMainPage_1_1TaskDisplayHandler.html#ab553f8eb77d9d038521af3813275a43d" target="_top" xlink:title="Complete the task and send this to the server">
<polygon fill="white" stroke="black" points="1332,-76.5 1332,-95.5 1567,-95.5 1567,-76.5 1332,-76.5"/>
<text text-anchor="middle" x="1449.5" y="-83.5" font-family="Helvetica,sans-Serif" font-size="10.00">MainPage.TaskDisplayHandler.CompleteTask</text>
</a>
</g>
</g>
<!-- Node9&#45;&gt;Node10 -->
<g id="edge9" class="edge">
<title>Node9&#45;&gt;Node10</title>
<path fill="none" stroke="midnightblue" d="M1611.09,-86C1596.49,-86 1581.68,-86 1567.25,-86"/>
<polygon fill="midnightblue" stroke="midnightblue" points="1611.17,-89.5 1621.17,-86 1611.17,-82.5 1611.17,-89.5"/>
</g>
<!-- Node11&#45;&gt;Node1 -->
<g id="edge11" class="edge">
<title>Node11&#45;&gt;Node1</title>
<path fill="none" stroke="midnightblue" d="M1817.35,-58.41C1847.23,-60.96 1882.66,-63.41 1916.86,-65.35"/>
<polygon fill="midnightblue" stroke="midnightblue" points="1817.3,-54.89 1807.03,-57.5 1816.68,-61.86 1817.3,-54.89"/>
</g>
<!-- Node12 -->
<g id="node12" class="node">
<title>Node12</title>
<g id="a_node12"><a xlink:href="classMainPage_1_1TaskDisplayHandler.html#a19067f6c6b504e4947d9473721e6877f" target="_top" xlink:title="Called every frame if it has been completed update the remaining time">
<polygon fill="white" stroke="black" points="1349,-38.5 1349,-57.5 1550,-57.5 1550,-38.5 1349,-38.5"/>
<text text-anchor="middle" x="1449.5" y="-45.5" font-family="Helvetica,sans-Serif" font-size="10.00">MainPage.TaskDisplayHandler.Update</text>
</a>
</g>
</g>
<!-- Node11&#45;&gt;Node12 -->
<g id="edge12" class="edge">
<title>Node11&#45;&gt;Node12</title>
<path fill="none" stroke="midnightblue" d="M1592.93,-48C1578.4,-48 1563.91,-48 1550.05,-48"/>
<polygon fill="midnightblue" stroke="midnightblue" points="1592.98,-51.5 1602.98,-48 1592.98,-44.5 1592.98,-51.5"/>
</g>
<!-- Node13 -->
<g id="node13" class="node">
<title>Node13</title>
<g id="a_node13"><a xlink:href="classMainPage_1_1TaskDisplayHandler.html#ac3773b76adb09298978a65c89136c20f" target="_top" xlink:title="Update the task&#39;s labels">
<polygon fill="white" stroke="black" points="1333,-0.5 1333,-19.5 1566,-19.5 1566,-0.5 1333,-0.5"/>
<text text-anchor="middle" x="1449.5" y="-7.5" font-family="Helvetica,sans-Serif" font-size="10.00">MainPage.TaskDisplayHandler.UpdateLabels</text>
</a>
</g>
</g>
<!-- Node11&#45;&gt;Node13 -->
<g id="edge13" class="edge">
<title>Node11&#45;&gt;Node13</title>
<path fill="none" stroke="midnightblue" d="M1658.02,-37.15C1615.49,-31.58 1564.17,-24.87 1523.21,-19.51"/>
<polygon fill="midnightblue" stroke="midnightblue" points="1657.7,-40.63 1668.07,-38.46 1658.61,-33.69 1657.7,-40.63"/>
</g>
<!-- Node13&#45;&gt;Node2 -->
<g id="edge14" class="edge">
<title>Node13&#45;&gt;Node2</title>
<path fill="none" stroke="midnightblue" d="M1373.08,-21.17C1359.37,-23.52 1345.22,-26.16 1332,-29 1293.82,-37.2 1250.56,-49.17 1221.92,-57.48"/>
<polygon fill="midnightblue" stroke="midnightblue" points="1373.69,-24.62 1382.97,-19.51 1372.53,-17.71 1373.69,-24.62"/>
</g>
</g>
</svg>
