<?xml version="1.0" encoding="UTF-8" standalone="no"?>
<!DOCTYPE svg PUBLIC "-//W3C//DTD SVG 1.1//EN"
 "http://www.w3.org/Graphics/SVG/1.1/DTD/svg11.dtd">
<!-- Generated by graphviz version 2.43.0 (0)
 -->
<!-- Title: MainPage.TaskDisplayHandler Pages: 1 -->
<svg width="277pt" height="441pt"
 viewBox="0.00 0.00 277.00 441.00" xmlns="http://www.w3.org/2000/svg" xmlns:xlink="http://www.w3.org/1999/xlink">
<g id="graph0" class="graph" transform="scale(1 1) rotate(0) translate(4 437)">
<title>MainPage.TaskDisplayHandler</title>
<polygon fill="white" stroke="transparent" points="-4,4 -4,-437 273,-437 273,4 -4,4"/>
<!-- Node1 -->
<g id="node1" class="node">
<title>Node1</title>
<g id="a_node1"><a xlink:title="Task prefab display handler">
<polygon fill="#bfbfbf" stroke="black" points="0,-0.5 0,-244.5 269,-244.5 269,-0.5 0,-0.5"/>
<text text-anchor="middle" x="134.5" y="-232.5" font-family="Helvetica,sans-Serif" font-size="10.00">MainPage.TaskDisplayHandler</text>
<polyline fill="none" stroke="black" points="0,-225.5 269,-225.5 "/>
<text text-anchor="start" x="8" y="-213.5" font-family="Helvetica,sans-Serif" font-size="10.00">+ PlayerTask CurrentTask</text>
<text text-anchor="start" x="8" y="-202.5" font-family="Helvetica,sans-Serif" font-size="10.00">&#45; TMP_Text taskNameLabel</text>
<text text-anchor="start" x="8" y="-191.5" font-family="Helvetica,sans-Serif" font-size="10.00">&#45; TMP_Text taskIntervalsLabel</text>
<text text-anchor="start" x="8" y="-180.5" font-family="Helvetica,sans-Serif" font-size="10.00">&#45; TMP_Text remainingTimeLabel</text>
<text text-anchor="start" x="8" y="-169.5" font-family="Helvetica,sans-Serif" font-size="10.00">&#45; Button completeButton</text>
<text text-anchor="start" x="8" y="-158.5" font-family="Helvetica,sans-Serif" font-size="10.00">&#45; MainWindowController mainWindowController</text>
<text text-anchor="start" x="8" y="-147.5" font-family="Helvetica,sans-Serif" font-size="10.00">&#45; TaskOpenPanelController taskOpenPanelController</text>
<polyline fill="none" stroke="black" points="0,-140.5 269,-140.5 "/>
<text text-anchor="start" x="8" y="-128.5" font-family="Helvetica,sans-Serif" font-size="10.00">+ void Update()</text>
<text text-anchor="start" x="8" y="-117.5" font-family="Helvetica,sans-Serif" font-size="10.00">+ void InitValues(PlayerTask playerTask,</text>
<text text-anchor="start" x="8" y="-106.5" font-family="Helvetica,sans-Serif" font-size="10.00"> TaskOpenPanelController taskOpenPanelController,</text>
<text text-anchor="start" x="8" y="-95.5" font-family="Helvetica,sans-Serif" font-size="10.00"> MainWindowController uIController)</text>
<text text-anchor="start" x="8" y="-84.5" font-family="Helvetica,sans-Serif" font-size="10.00">+ void CompleteTask()</text>
<text text-anchor="start" x="8" y="-73.5" font-family="Helvetica,sans-Serif" font-size="10.00">+ void OpenEditor()</text>
<text text-anchor="start" x="8" y="-62.5" font-family="Helvetica,sans-Serif" font-size="10.00">+ void UpdateLabels()</text>
<text text-anchor="start" x="8" y="-51.5" font-family="Helvetica,sans-Serif" font-size="10.00">&#45; void TaskCompleted(Thesis_backend.Data</text>
<text text-anchor="start" x="8" y="-40.5" font-family="Helvetica,sans-Serif" font-size="10.00">_Structures.PlayerTask result)</text>
<text text-anchor="start" x="8" y="-29.5" font-family="Helvetica,sans-Serif" font-size="10.00">&#45; void CompleteStateChange(bool state)</text>
<text text-anchor="start" x="8" y="-18.5" font-family="Helvetica,sans-Serif" font-size="10.00">&#45; void UpdateTimeRemaining()</text>
<text text-anchor="start" x="8" y="-7.5" font-family="Helvetica,sans-Serif" font-size="10.00">&#45; bool CalculateIfCompleteable()</text>
</a>
</g>
</g>
<!-- Node2 -->
<g id="node2" class="node">
<title>Node2</title>
<g id="a_node2"><a xlink:href="classUtility_1_1ThreadSafeMonoBehaviour.html" target="_top" xlink:title="Safely stores if the gameobject been destroyed in a bool">
<polygon fill="white" stroke="black" points="60,-281.5 60,-338.5 209,-338.5 209,-281.5 60,-281.5"/>
<text text-anchor="middle" x="134.5" y="-326.5" font-family="Helvetica,sans-Serif" font-size="10.00">ThreadSafeMonoBehaviour</text>
<polyline fill="none" stroke="black" points="60,-319.5 209,-319.5 "/>
<text text-anchor="start" x="68" y="-307.5" font-family="Helvetica,sans-Serif" font-size="10.00">+ bool Destroyed</text>
<polyline fill="none" stroke="black" points="60,-300.5 209,-300.5 "/>
<text text-anchor="start" x="68" y="-288.5" font-family="Helvetica,sans-Serif" font-size="10.00"># void OnDestroy()</text>
</a>
</g>
</g>
<!-- Node2&#45;&gt;Node1 -->
<g id="edge1" class="edge">
<title>Node2&#45;&gt;Node1</title>
<path fill="none" stroke="midnightblue" d="M134.5,-271.14C134.5,-263.05 134.5,-254.1 134.5,-244.72"/>
<polygon fill="none" stroke="midnightblue" points="131,-271.23 134.5,-281.23 138,-271.23 131,-271.23"/>
</g>
<!-- Node3 -->
<g id="node3" class="node">
<title>Node3</title>
<g id="a_node3"><a xlink:title=" ">
<polygon fill="white" stroke="#bfbfbf" points="88,-375.5 88,-432.5 181,-432.5 181,-375.5 88,-375.5"/>
<text text-anchor="middle" x="134.5" y="-420.5" font-family="Helvetica,sans-Serif" font-size="10.00">MonoBehaviour</text>
<polyline fill="none" stroke="#bfbfbf" points="88,-413.5 181,-413.5 "/>
<text text-anchor="middle" x="134.5" y="-401.5" font-family="Helvetica,sans-Serif" font-size="10.00"> </text>
<polyline fill="none" stroke="#bfbfbf" points="88,-394.5 181,-394.5 "/>
<text text-anchor="middle" x="134.5" y="-382.5" font-family="Helvetica,sans-Serif" font-size="10.00"> </text>
</a>
</g>
</g>
<!-- Node3&#45;&gt;Node2 -->
<g id="edge2" class="edge">
<title>Node3&#45;&gt;Node2</title>
<path fill="none" stroke="midnightblue" d="M134.5,-365.21C134.5,-356.29 134.5,-346.95 134.5,-338.58"/>
<polygon fill="none" stroke="midnightblue" points="131,-365.4 134.5,-375.4 138,-365.4 131,-365.4"/>
</g>
</g>
</svg>
