<?xml version="1.0" encoding="UTF-8" standalone="no"?>
<!DOCTYPE svg PUBLIC "-//W3C//DTD SVG 1.1//EN"
 "http://www.w3.org/Graphics/SVG/1.1/DTD/svg11.dtd">
<!-- Generated by graphviz version 2.43.0 (0)
 -->
<!-- Title: Graphical Class Hierarchy Pages: 1 -->
<svg width="806pt" height="1063pt"
 viewBox="0.00 0.00 806.00 1063.00" xmlns="http://www.w3.org/2000/svg" xmlns:xlink="http://www.w3.org/1999/xlink">
<g id="graph0" class="graph" transform="scale(1 1) rotate(0) translate(4 1059)">
<title>Graphical Class Hierarchy</title>
<!-- Node0 -->
<g id="Node000000" class="node">
<title>Node0</title>
<g id="a_Node000000"><a xlink:title=" ">
<polygon fill="#e0e0e0" stroke="#999999" points="93,-555 0,-555 0,-536 93,-536 93,-555"/>
<text text-anchor="middle" x="46.5" y="-543" font-family="Helvetica,sans-Serif" font-size="10.00">MonoBehaviour</text>
</a>
</g>
</g>
<!-- Node1 -->
<g id="Node000001" class="node">
<title>Node1</title>
<g id="a_Node000001"><a xlink:href="classUtility_1_1CoroutineRunner.html" target="_top" xlink:title="Singleton class to run the coroutines so they are easier to track.">
<polygon fill="white" stroke="#666666" points="284,-574 154,-574 154,-555 284,-555 284,-574"/>
<text text-anchor="middle" x="219" y="-562" font-family="Helvetica,sans-Serif" font-size="10.00">Utility.CoroutineRunner</text>
</a>
</g>
</g>
<!-- Node0&#45;&gt;Node1 -->
<g id="edge2_Node000000_Node000001" class="edge">
<title>Node0&#45;&gt;Node1</title>
<g id="a_edge2_Node000000_Node000001"><a xlink:title=" ">
<path fill="none" stroke="#63b8ff" d="M103.53,-551.74C119.64,-553.54 137.35,-555.51 153.92,-557.36"/>
<polygon fill="#63b8ff" stroke="#63b8ff" points="103.52,-548.22 93.19,-550.59 102.74,-555.18 103.52,-548.22"/>
</a>
</g>
</g>
<!-- Node2 -->
<g id="Node000002" class="node">
<title>Node2</title>
<g id="a_Node000002"><a xlink:href="classUtility_1_1ThreadSafeMonoBehaviour.html" target="_top" xlink:title="Safely stores if the gameobject been destroyed in a bool.">
<polygon fill="white" stroke="#666666" points="309,-537 129,-537 129,-518 309,-518 309,-537"/>
<text text-anchor="middle" x="219" y="-525" font-family="Helvetica,sans-Serif" font-size="10.00">Utility.ThreadSafeMonoBehaviour</text>
</a>
</g>
</g>
<!-- Node0&#45;&gt;Node2 -->
<g id="edge3_Node000000_Node000002" class="edge">
<title>Node0&#45;&gt;Node2</title>
<g id="a_edge3_Node000000_Node000002"><a xlink:title=" ">
<path fill="none" stroke="#63b8ff" d="M103.3,-539.61C111.48,-538.75 120.08,-537.84 128.72,-536.93"/>
<polygon fill="#63b8ff" stroke="#63b8ff" points="102.77,-536.15 93.19,-540.68 103.5,-543.11 102.77,-536.15"/>
</a>
</g>
</g>
<!-- Node3 -->
<g id="Node000003" class="node">
<title>Node3</title>
<g id="a_Node000003"><a xlink:href="classCameraScript.html" target="_top" xlink:title="Script which follows the player&#39;s car.">
<polygon fill="white" stroke="#666666" points="487,-1055 404,-1055 404,-1036 487,-1036 487,-1055"/>
<text text-anchor="middle" x="445.5" y="-1043" font-family="Helvetica,sans-Serif" font-size="10.00">CameraScript</text>
</a>
</g>
</g>
<!-- Node2&#45;&gt;Node3 -->
<g id="edge4_Node000002_Node000003" class="edge">
<title>Node2&#45;&gt;Node3</title>
<g id="a_edge4_Node000002_Node000003"><a xlink:title=" ">
<path fill="none" stroke="#63b8ff" d="M307.02,-543.4C307.7,-544.08 308.36,-544.78 309,-545.5 380.06,-626.05 273.12,-947.69 345,-1027.5 359.51,-1043.61 383.18,-1048.36 403.79,-1048.97"/>
<polygon fill="#63b8ff" stroke="#63b8ff" points="309.08,-540.56 299.09,-537.02 304.69,-546.02 309.08,-540.56"/>
</a>
</g>
</g>
<!-- Node4 -->
<g id="Node000004" class="node">
<title>Node4</title>
<g id="a_Node000004"><a xlink:href="classGame_1_1Car.html" target="_top" xlink:title="Handles the basic Car functionalities.">
<polygon fill="white" stroke="#666666" points="478,-1018 413,-1018 413,-999 478,-999 478,-1018"/>
<text text-anchor="middle" x="445.5" y="-1006" font-family="Helvetica,sans-Serif" font-size="10.00">Game.Car</text>
</a>
</g>
</g>
<!-- Node2&#45;&gt;Node4 -->
<g id="edge5_Node000002_Node000004" class="edge">
<title>Node2&#45;&gt;Node4</title>
<g id="a_edge5_Node000002_Node000004"><a xlink:title=" ">
<path fill="none" stroke="#63b8ff" d="M307.02,-543.41C307.7,-544.08 308.36,-544.78 309,-545.5 374.86,-619.7 278.38,-916.99 345,-990.5 361.74,-1008.97 390.52,-1012.49 412.84,-1011.96"/>
<polygon fill="#63b8ff" stroke="#63b8ff" points="309.06,-540.56 299.07,-537.05 304.69,-546.03 309.06,-540.56"/>
</a>
</g>
</g>
<!-- Node8 -->
<g id="Node000008" class="node">
<title>Node8</title>
<g id="a_Node000008"><a xlink:href="classGame_1_1CarController.html" target="_top" xlink:title=" ">
<polygon fill="white" stroke="#666666" points="502,-981 389,-981 389,-962 502,-962 502,-981"/>
<text text-anchor="middle" x="445.5" y="-969" font-family="Helvetica,sans-Serif" font-size="10.00">Game.CarController</text>
</a>
</g>
</g>
<!-- Node2&#45;&gt;Node8 -->
<g id="edge9_Node000002_Node000008" class="edge">
<title>Node2&#45;&gt;Node8</title>
<g id="a_edge9_Node000002_Node000008"><a xlink:title=" ">
<path fill="none" stroke="#63b8ff" d="M307.01,-543.41C307.69,-544.08 308.36,-544.78 309,-545.5 369.53,-613.18 284.1,-885.15 345,-952.5 356.15,-964.83 372.62,-970.64 388.97,-973.07"/>
<polygon fill="#63b8ff" stroke="#63b8ff" points="309.04,-540.56 299.04,-537.07 304.68,-546.04 309.04,-540.56"/>
</a>
</g>
</g>
<!-- Node9 -->
<g id="Node000009" class="node">
<title>Node9</title>
<g id="a_Node000009"><a xlink:href="classGame_1_1EffectScript.html" target="_top" xlink:title="Handles the car&#39;s effects.">
<polygon fill="white" stroke="#666666" points="497.5,-944 393.5,-944 393.5,-925 497.5,-925 497.5,-944"/>
<text text-anchor="middle" x="445.5" y="-932" font-family="Helvetica,sans-Serif" font-size="10.00">Game.EffectScript</text>
</a>
</g>
</g>
<!-- Node2&#45;&gt;Node9 -->
<g id="edge10_Node000002_Node000009" class="edge">
<title>Node2&#45;&gt;Node9</title>
<g id="a_edge10_Node000002_Node000009"><a xlink:title=" ">
<path fill="none" stroke="#63b8ff" d="M307,-543.42C307.69,-544.09 308.35,-544.78 309,-545.5 364.34,-606.83 289.32,-854.47 345,-915.5 357.21,-928.88 375.7,-934.57 393.44,-936.59"/>
<polygon fill="#63b8ff" stroke="#63b8ff" points="309.02,-540.55 299,-537.1 304.68,-546.05 309.02,-540.55"/>
</a>
</g>
</g>
<!-- Node10 -->
<g id="Node000010" class="node">
<title>Node10</title>
<g id="a_Node000010"><a xlink:href="classGame_1_1EnableWheelPhysicMaterial.html" target="_top" xlink:title="Script to enable the physics materials for the wheel colliders.">
<polygon fill="white" stroke="#666666" points="538,-907 353,-907 353,-888 538,-888 538,-907"/>
<text text-anchor="middle" x="445.5" y="-895" font-family="Helvetica,sans-Serif" font-size="10.00">Game.EnableWheelPhysicMaterial</text>
</a>
</g>
</g>
<!-- Node2&#45;&gt;Node10 -->
<g id="edge11_Node000002_Node000010" class="edge">
<title>Node2&#45;&gt;Node10</title>
<g id="a_edge11_Node000002_Node000010"><a xlink:title=" ">
<path fill="none" stroke="#63b8ff" d="M306.99,-543.43C307.68,-544.1 308.35,-544.79 309,-545.5 409.32,-655.48 244.09,-769.06 345,-878.5 348.34,-882.12 352.14,-885.18 356.25,-887.75"/>
<polygon fill="#63b8ff" stroke="#63b8ff" points="308.99,-540.55 298.96,-537.14 304.67,-546.06 308.99,-540.55"/>
</a>
</g>
</g>
<!-- Node11 -->
<g id="Node000011" class="node">
<title>Node11</title>
<g id="a_Node000011"><a xlink:href="classGame_1_1GameController.html" target="_top" xlink:title="Handles the main flow of the game scene.">
<polygon fill="white" stroke="#666666" points="508.5,-870 382.5,-870 382.5,-851 508.5,-851 508.5,-870"/>
<text text-anchor="middle" x="445.5" y="-858" font-family="Helvetica,sans-Serif" font-size="10.00">Game.GameController</text>
</a>
</g>
</g>
<!-- Node2&#45;&gt;Node11 -->
<g id="edge12_Node000002_Node000011" class="edge">
<title>Node2&#45;&gt;Node11</title>
<g id="a_edge12_Node000002_Node000011"><a xlink:title=" ">
<path fill="none" stroke="#63b8ff" d="M306.98,-543.44C307.67,-544.11 308.34,-544.79 309,-545.5 398.96,-642.82 254.51,-744.67 345,-841.5 354.79,-851.97 368.43,-857.7 382.47,-860.65"/>
<polygon fill="#63b8ff" stroke="#63b8ff" points="308.96,-540.55 298.91,-537.19 304.67,-546.08 308.96,-540.55"/>
</a>
</g>
</g>
<!-- Node12 -->
<g id="Node000012" class="node">
<title>Node12</title>
<g id="a_Node000012"><a xlink:href="classGame_1_1UI_1_1GameUI.html" target="_top" xlink:title="Controller for the game&#39;s UI.">
<polygon fill="white" stroke="#666666" points="496.5,-833 394.5,-833 394.5,-814 496.5,-814 496.5,-833"/>
<text text-anchor="middle" x="445.5" y="-821" font-family="Helvetica,sans-Serif" font-size="10.00">Game.UI.GameUI</text>
</a>
</g>
</g>
<!-- Node2&#45;&gt;Node12 -->
<g id="edge13_Node000002_Node000012" class="edge">
<title>Node2&#45;&gt;Node12</title>
<g id="a_edge13_Node000002_Node000012"><a xlink:title=" ">
<path fill="none" stroke="#63b8ff" d="M306.57,-543.1C307.41,-543.87 308.22,-544.67 309,-545.5 388.62,-630.16 264.93,-720.27 345,-804.5 357.6,-817.76 376.39,-823.38 394.25,-825.38"/>
<polygon fill="#63b8ff" stroke="#63b8ff" points="308.55,-540.2 298.45,-537 304.34,-545.8 308.55,-540.2"/>
</a>
</g>
</g>
<!-- Node13 -->
<g id="Node000013" class="node">
<title>Node13</title>
<g id="a_Node000013"><a xlink:href="classGame_1_1UI_1_1LeaderboardItem.html" target="_top" xlink:title="A single leaderboard item.">
<polygon fill="white" stroke="#666666" points="518.5,-796 372.5,-796 372.5,-777 518.5,-777 518.5,-796"/>
<text text-anchor="middle" x="445.5" y="-784" font-family="Helvetica,sans-Serif" font-size="10.00">Game.UI.LeaderboardItem</text>
</a>
</g>
</g>
<!-- Node2&#45;&gt;Node13 -->
<g id="edge14_Node000002_Node000013" class="edge">
<title>Node2&#45;&gt;Node13</title>
<g id="a_edge14_Node000002_Node000013"><a xlink:title=" ">
<path fill="none" stroke="#63b8ff" d="M306.55,-543.12C307.39,-543.88 308.21,-544.68 309,-545.5 378.3,-617.54 275.31,-695.84 345,-767.5 352.48,-775.19 362.04,-780.3 372.27,-783.61"/>
<polygon fill="#63b8ff" stroke="#63b8ff" points="308.48,-540.2 298.36,-537.09 304.33,-545.84 308.48,-540.2"/>
</a>
</g>
</g>
<!-- Node14 -->
<g id="Node000014" class="node">
<title>Node14</title>
<g id="a_Node000014"><a xlink:href="classGame_1_1UI_1_1LeaderboardWindow.html" target="_top" xlink:title="Handles the leaderboard display window.">
<polygon fill="white" stroke="#666666" points="526.5,-759 364.5,-759 364.5,-740 526.5,-740 526.5,-759"/>
<text text-anchor="middle" x="445.5" y="-747" font-family="Helvetica,sans-Serif" font-size="10.00">Game.UI.LeaderboardWindow</text>
</a>
</g>
</g>
<!-- Node2&#45;&gt;Node14 -->
<g id="edge15_Node000002_Node000014" class="edge">
<title>Node2&#45;&gt;Node14</title>
<g id="a_edge15_Node000002_Node000014"><a xlink:title=" ">
<path fill="none" stroke="#63b8ff" d="M306.51,-543.16C307.36,-543.91 308.19,-544.69 309,-545.5 368.01,-604.95 285.67,-671.37 345,-730.5 350.48,-735.96 357.02,-740.11 364.08,-743.23"/>
<polygon fill="#63b8ff" stroke="#63b8ff" points="308.4,-540.21 298.24,-537.21 304.31,-545.89 308.4,-540.21"/>
</a>
</g>
</g>
<!-- Node15 -->
<g id="Node000015" class="node">
<title>Node15</title>
<g id="a_Node000015"><a xlink:href="classGame_1_1UI_1_1ShopItem.html" target="_top" xlink:title="A single shop item.">
<polygon fill="white" stroke="#666666" points="500,-722 391,-722 391,-703 500,-703 500,-722"/>
<text text-anchor="middle" x="445.5" y="-710" font-family="Helvetica,sans-Serif" font-size="10.00">Game.UI.ShopItem</text>
</a>
</g>
</g>
<!-- Node2&#45;&gt;Node15 -->
<g id="edge16_Node000002_Node000015" class="edge">
<title>Node2&#45;&gt;Node15</title>
<g id="a_edge16_Node000002_Node000015"><a xlink:title=" ">
<path fill="none" stroke="#63b8ff" d="M306.03,-542.86C307.05,-543.7 308.04,-544.58 309,-545.5 357.79,-592.42 295.95,-646.84 345,-693.5 357.23,-705.14 374.28,-710.72 390.82,-713.15"/>
<polygon fill="#63b8ff" stroke="#63b8ff" points="307.89,-539.89 297.65,-537.15 303.95,-545.67 307.89,-539.89"/>
</a>
</g>
</g>
<!-- Node16 -->
<g id="Node000016" class="node">
<title>Node16</title>
<g id="a_Node000016"><a xlink:href="classGame_1_1UI_1_1ShopWindow.html" target="_top" xlink:title="Handles the shop window&#39;s content display.">
<polygon fill="white" stroke="#666666" points="508,-685 383,-685 383,-666 508,-666 508,-685"/>
<text text-anchor="middle" x="445.5" y="-673" font-family="Helvetica,sans-Serif" font-size="10.00">Game.UI.ShopWindow</text>
</a>
</g>
</g>
<!-- Node2&#45;&gt;Node16 -->
<g id="edge17_Node000002_Node000016" class="edge">
<title>Node2&#45;&gt;Node16</title>
<g id="a_edge17_Node000002_Node000016"><a xlink:title=" ">
<path fill="none" stroke="#63b8ff" d="M305.34,-542.51C306.6,-543.46 307.82,-544.45 309,-545.5 347.7,-580.02 306.11,-622.19 345,-656.5 355.48,-665.75 369.05,-671.09 382.78,-674.05"/>
<polygon fill="#63b8ff" stroke="#63b8ff" points="306.87,-539.34 296.53,-537.01 303.16,-545.28 306.87,-539.34"/>
</a>
</g>
</g>
<!-- Node17 -->
<g id="Node000017" class="node">
<title>Node17</title>
<g id="a_Node000017"><a xlink:href="classGame_1_1UI_1_1StarHandler.html" target="_top" xlink:title="Star handler.">
<polygon fill="white" stroke="#666666" points="505.5,-648 385.5,-648 385.5,-629 505.5,-629 505.5,-648"/>
<text text-anchor="middle" x="445.5" y="-636" font-family="Helvetica,sans-Serif" font-size="10.00">Game.UI.StarHandler</text>
</a>
</g>
</g>
<!-- Node2&#45;&gt;Node17 -->
<g id="edge18_Node000002_Node000017" class="edge">
<title>Node2&#45;&gt;Node17</title>
<g id="a_edge18_Node000002_Node000017"><a xlink:title=" ">
<path fill="none" stroke="#63b8ff" d="M303.9,-541.94C305.66,-543.05 307.36,-544.23 309,-545.5 337.92,-567.89 315.96,-597.27 345,-619.5 356.59,-628.37 371.12,-633.49 385.48,-636.35"/>
<polygon fill="#63b8ff" stroke="#63b8ff" points="305.18,-538.66 294.71,-537.03 301.88,-544.83 305.18,-538.66"/>
</a>
</g>
</g>
<!-- Node18 -->
<g id="Node000018" class="node">
<title>Node18</title>
<g id="a_Node000018"><a xlink:href="classGame_1_1World_1_1Building.html" target="_top" xlink:title="Building handler.">
<polygon fill="white" stroke="#666666" points="505,-611 386,-611 386,-592 505,-592 505,-611"/>
<text text-anchor="middle" x="445.5" y="-599" font-family="Helvetica,sans-Serif" font-size="10.00">Game.World.Building</text>
</a>
</g>
</g>
<!-- Node2&#45;&gt;Node18 -->
<g id="edge19_Node000002_Node000018" class="edge">
<title>Node2&#45;&gt;Node18</title>
<g id="a_edge19_Node000002_Node000018"><a xlink:title=" ">
<path fill="none" stroke="#63b8ff" d="M298.66,-540.61C302.22,-542.07 305.69,-543.7 309,-545.5 329.14,-556.49 324.8,-571.62 345,-582.5 357.47,-589.21 371.93,-593.58 385.9,-596.42"/>
<polygon fill="#63b8ff" stroke="#63b8ff" points="299.62,-537.23 289.02,-537.1 297.23,-543.81 299.62,-537.23"/>
</a>
</g>
</g>
<!-- Node19 -->
<g id="Node000019" class="node">
<title>Node19</title>
<g id="a_Node000019"><a xlink:href="classGame_1_1World_1_1CarSpawner.html" target="_top" xlink:title="Car spawner.">
<polygon fill="white" stroke="#666666" points="514.5,-574 376.5,-574 376.5,-555 514.5,-555 514.5,-574"/>
<text text-anchor="middle" x="445.5" y="-562" font-family="Helvetica,sans-Serif" font-size="10.00">Game.World.CarSpawner</text>
</a>
</g>
</g>
<!-- Node2&#45;&gt;Node19 -->
<g id="edge20_Node000002_Node000019" class="edge">
<title>Node2&#45;&gt;Node19</title>
<g id="a_edge20_Node000002_Node000019"><a xlink:title=" ">
<path fill="none" stroke="#63b8ff" d="M287.82,-538.68C319.3,-543.87 356.33,-549.97 386.49,-554.94"/>
<polygon fill="#63b8ff" stroke="#63b8ff" points="288.25,-535.2 277.81,-537.03 287.11,-542.11 288.25,-535.2"/>
</a>
</g>
</g>
<!-- Node20 -->
<g id="Node000020" class="node">
<title>Node20</title>
<g id="a_Node000020"><a xlink:href="classGame_1_1World_1_1Chunk.html" target="_top" xlink:title="Stores a single chunk of the world.">
<polygon fill="white" stroke="#666666" points="500.5,-537 390.5,-537 390.5,-518 500.5,-518 500.5,-537"/>
<text text-anchor="middle" x="445.5" y="-525" font-family="Helvetica,sans-Serif" font-size="10.00">Game.World.Chunk</text>
</a>
</g>
</g>
<!-- Node2&#45;&gt;Node20 -->
<g id="edge21_Node000002_Node000020" class="edge">
<title>Node2&#45;&gt;Node20</title>
<g id="a_edge21_Node000002_Node000020"><a xlink:title=" ">
<path fill="none" stroke="#63b8ff" d="M319.13,-527.5C343.66,-527.5 369.04,-527.5 390.5,-527.5"/>
<polygon fill="#63b8ff" stroke="#63b8ff" points="319.05,-524 309.05,-527.5 319.05,-531 319.05,-524"/>
</a>
</g>
</g>
<!-- Node21 -->
<g id="Node000021" class="node">
<title>Node21</title>
<g id="a_Node000021"><a xlink:href="classGame_1_1World_1_1Coin.html" target="_top" xlink:title="Coin gameobject.">
<polygon fill="white" stroke="#666666" points="496,-500 395,-500 395,-481 496,-481 496,-500"/>
<text text-anchor="middle" x="445.5" y="-488" font-family="Helvetica,sans-Serif" font-size="10.00">Game.World.Coin</text>
</a>
</g>
</g>
<!-- Node2&#45;&gt;Node21 -->
<g id="edge22_Node000002_Node000021" class="edge">
<title>Node2&#45;&gt;Node21</title>
<g id="a_edge22_Node000002_Node000021"><a xlink:title=" ">
<path fill="none" stroke="#63b8ff" d="M287.81,-516.32C322.28,-510.64 363.41,-503.86 394.88,-498.68"/>
<polygon fill="#63b8ff" stroke="#63b8ff" points="287.11,-512.89 277.81,-517.97 288.25,-519.8 287.11,-512.89"/>
</a>
</g>
</g>
<!-- Node22 -->
<g id="Node000022" class="node">
<title>Node22</title>
<g id="a_Node000022"><a xlink:href="classGame_1_1World_1_1GameWorld.html" target="_top" xlink:title="A class for handling chunk loading and unloading.">
<polygon fill="white" stroke="#666666" points="514,-463 377,-463 377,-444 514,-444 514,-463"/>
<text text-anchor="middle" x="445.5" y="-451" font-family="Helvetica,sans-Serif" font-size="10.00">Game.World.GameWorld</text>
</a>
</g>
</g>
<!-- Node2&#45;&gt;Node22 -->
<g id="edge23_Node000002_Node000022" class="edge">
<title>Node2&#45;&gt;Node22</title>
<g id="a_edge23_Node000002_Node000022"><a xlink:title=" ">
<path fill="none" stroke="#63b8ff" d="M246.82,-513.19C271.64,-500.51 309.9,-482.36 345,-471.5 355.82,-468.15 367.5,-465.35 378.92,-463.03"/>
<polygon fill="#63b8ff" stroke="#63b8ff" points="244.95,-510.22 237.68,-517.92 248.17,-516.43 244.95,-510.22"/>
</a>
</g>
</g>
<!-- Node23 -->
<g id="Node000023" class="node">
<title>Node23</title>
<g id="a_Node000023"><a xlink:href="classGame_1_1World_1_1Prop.html" target="_top" xlink:title="Prop handler.">
<polygon fill="white" stroke="#666666" points="496,-426 395,-426 395,-407 496,-407 496,-426"/>
<text text-anchor="middle" x="445.5" y="-414" font-family="Helvetica,sans-Serif" font-size="10.00">Game.World.Prop</text>
</a>
</g>
</g>
<!-- Node2&#45;&gt;Node23 -->
<g id="edge24_Node000002_Node000023" class="edge">
<title>Node2&#45;&gt;Node23</title>
<g id="a_edge24_Node000002_Node000023"><a xlink:title=" ">
<path fill="none" stroke="#63b8ff" d="M237.1,-510.63C259.75,-489.33 301.9,-453.2 345,-434.5 360.54,-427.76 378.5,-423.54 394.85,-420.9"/>
<polygon fill="#63b8ff" stroke="#63b8ff" points="234.47,-508.31 229.67,-517.75 239.31,-513.36 234.47,-508.31"/>
</a>
</g>
</g>
<!-- Node24 -->
<g id="Node000024" class="node">
<title>Node24</title>
<g id="a_Node000024"><a xlink:href="classMainPage_1_1FriendHandler.html" target="_top" xlink:title="Handles a single friend entry display.">
<polygon fill="white" stroke="#666666" points="513,-389 378,-389 378,-370 513,-370 513,-389"/>
<text text-anchor="middle" x="445.5" y="-377" font-family="Helvetica,sans-Serif" font-size="10.00">MainPage.FriendHandler</text>
</a>
</g>
</g>
<!-- Node2&#45;&gt;Node24 -->
<g id="edge25_Node000002_Node000024" class="edge">
<title>Node2&#45;&gt;Node24</title>
<g id="a_edge25_Node000002_Node000024"><a xlink:title=" ">
<path fill="none" stroke="#63b8ff" d="M231.74,-509.35C251.41,-480.56 293.95,-424.86 345,-397.5 355.06,-392.11 366.42,-388.3 377.78,-385.61"/>
<polygon fill="#63b8ff" stroke="#63b8ff" points="228.81,-507.43 226.17,-517.69 234.63,-511.32 228.81,-507.43"/>
</a>
</g>
</g>
<!-- Node25 -->
<g id="Node000025" class="node">
<title>Node25</title>
<g id="a_Node000025"><a xlink:href="classMainPage_1_1FriendWindowHandler.html" target="_top" xlink:title="Handles the friend window display.">
<polygon fill="white" stroke="#666666" points="532.5,-352 358.5,-352 358.5,-333 532.5,-333 532.5,-352"/>
<text text-anchor="middle" x="445.5" y="-340" font-family="Helvetica,sans-Serif" font-size="10.00">MainPage.FriendWindowHandler</text>
</a>
</g>
</g>
<!-- Node2&#45;&gt;Node25 -->
<g id="edge26_Node000002_Node000025" class="edge">
<title>Node2&#45;&gt;Node25</title>
<g id="a_edge26_Node000002_Node000025"><a xlink:title=" ">
<path fill="none" stroke="#63b8ff" d="M228.19,-508.79C244.71,-473.47 285.56,-397.24 345,-360.5 350.45,-357.13 356.37,-354.36 362.51,-352.08"/>
<polygon fill="#63b8ff" stroke="#63b8ff" points="224.97,-507.42 224.02,-517.97 231.34,-510.32 224.97,-507.42"/>
</a>
</g>
</g>
<!-- Node26 -->
<g id="Node000026" class="node">
<title>Node26</title>
<g id="a_Node000026"><a xlink:href="classMainPage_1_1MainWindowController.html" target="_top" xlink:title="Handles the main window&#39;s controls.">
<polygon fill="white" stroke="#666666" points="534.5,-315 356.5,-315 356.5,-296 534.5,-296 534.5,-315"/>
<text text-anchor="middle" x="445.5" y="-303" font-family="Helvetica,sans-Serif" font-size="10.00">MainPage.MainWindowController</text>
</a>
</g>
</g>
<!-- Node2&#45;&gt;Node26 -->
<g id="edge27_Node000002_Node000026" class="edge">
<title>Node2&#45;&gt;Node26</title>
<g id="a_edge27_Node000002_Node000026"><a xlink:title=" ">
<path fill="none" stroke="#63b8ff" d="M225.83,-508.16C239.36,-466.85 277.03,-370 345,-323.5 349.93,-320.13 355.3,-317.34 360.91,-315.03"/>
<polygon fill="#63b8ff" stroke="#63b8ff" points="222.45,-507.24 222.78,-517.83 229.13,-509.34 222.45,-507.24"/>
</a>
</g>
</g>
<!-- Node27 -->
<g id="Node000027" class="node">
<title>Node27</title>
<g id="a_Node000027"><a xlink:href="classMainPage_1_1ProfileHandler.html" target="_top" xlink:title="Handles the user&#39;s profile such as statistics and logout button.">
<polygon fill="white" stroke="#666666" points="513.5,-278 377.5,-278 377.5,-259 513.5,-259 513.5,-278"/>
<text text-anchor="middle" x="445.5" y="-266" font-family="Helvetica,sans-Serif" font-size="10.00">MainPage.ProfileHandler</text>
</a>
</g>
</g>
<!-- Node2&#45;&gt;Node27 -->
<g id="edge28_Node000002_Node000027" class="edge">
<title>Node2&#45;&gt;Node27</title>
<g id="a_edge28_Node000002_Node000027"><a xlink:title=" ">
<path fill="none" stroke="#63b8ff" d="M223.99,-507.94C234.59,-461.31 268.09,-343.24 345,-286.5 354.46,-279.52 365.79,-274.96 377.35,-272.03"/>
<polygon fill="#63b8ff" stroke="#63b8ff" points="220.52,-507.43 221.82,-517.95 227.36,-508.91 220.52,-507.43"/>
</a>
</g>
</g>
<!-- Node28 -->
<g id="Node000028" class="node">
<title>Node28</title>
<g id="a_Node000028"><a xlink:href="classMainPage_1_1TaskDisplayHandler.html" target="_top" xlink:title="Task prefab display handler.">
<polygon fill="white" stroke="#666666" points="527.5,-241 363.5,-241 363.5,-222 527.5,-222 527.5,-241"/>
<text text-anchor="middle" x="445.5" y="-229" font-family="Helvetica,sans-Serif" font-size="10.00">MainPage.TaskDisplayHandler</text>
</a>
</g>
</g>
<!-- Node2&#45;&gt;Node28 -->
<g id="edge29_Node000002_Node000028" class="edge">
<title>Node2&#45;&gt;Node28</title>
<g id="a_edge29_Node000002_Node000028"><a xlink:title=" ">
<path fill="none" stroke="#63b8ff" d="M222.57,-507.81C230.41,-456.27 258.96,-316.77 345,-249.5 350.53,-245.17 356.76,-241.76 363.34,-239.08"/>
<polygon fill="#63b8ff" stroke="#63b8ff" points="219.07,-507.53 221.13,-517.92 226,-508.51 219.07,-507.53"/>
</a>
</g>
</g>
<!-- Node29 -->
<g id="Node000029" class="node">
<title>Node29</title>
<g id="a_Node000029"><a xlink:href="classMainPage_1_1TaskHistoryHandler.html" target="_top" xlink:title="Handles the task history display.">
<polygon fill="white" stroke="#666666" points="526.5,-204 364.5,-204 364.5,-185 526.5,-185 526.5,-204"/>
<text text-anchor="middle" x="445.5" y="-192" font-family="Helvetica,sans-Serif" font-size="10.00">MainPage.TaskHistoryHandler</text>
</a>
</g>
</g>
<!-- Node2&#45;&gt;Node29 -->
<g id="edge30_Node000002_Node000029" class="edge">
<title>Node2&#45;&gt;Node29</title>
<g id="a_edge30_Node000002_Node000029"><a xlink:title=" ">
<path fill="none" stroke="#63b8ff" d="M221.43,-507.88C226.62,-451.92 249.59,-290.6 345,-212.5 350.71,-207.83 357.22,-204.21 364.12,-201.41"/>
<polygon fill="#63b8ff" stroke="#63b8ff" points="217.94,-507.62 220.59,-517.88 224.91,-508.21 217.94,-507.62"/>
</a>
</g>
</g>
<!-- Node30 -->
<g id="Node000030" class="node">
<title>Node30</title>
<g id="a_Node000030"><a xlink:href="classMainPage_1_1TaskHistoryWindowHandler.html" target="_top" xlink:title="Task histories window controller.">
<polygon fill="white" stroke="#666666" points="546,-167 345,-167 345,-148 546,-148 546,-167"/>
<text text-anchor="middle" x="445.5" y="-155" font-family="Helvetica,sans-Serif" font-size="10.00">MainPage.TaskHistoryWindowHandler</text>
</a>
</g>
</g>
<!-- Node2&#45;&gt;Node30 -->
<g id="edge31_Node000002_Node000030" class="edge">
<title>Node2&#45;&gt;Node30</title>
<g id="a_edge31_Node000002_Node000030"><a xlink:title=" ">
<path fill="none" stroke="#63b8ff" d="M220.53,-507.64C223.29,-447.23 240.3,-264.45 345,-175.5 348.88,-172.2 353.16,-169.42 357.69,-167.08"/>
<polygon fill="#63b8ff" stroke="#63b8ff" points="217.03,-507.61 220.15,-517.73 224.02,-507.87 217.03,-507.61"/>
</a>
</g>
</g>
<!-- Node31 -->
<g id="Node000031" class="node">
<title>Node31</title>
<g id="a_Node000031"><a xlink:href="classMainPage_1_1TaskOpenPanelController.html" target="_top" xlink:title="Controller for displaying, editing and creating tasks.">
<polygon fill="white" stroke="#666666" points="539.5,-130 351.5,-130 351.5,-111 539.5,-111 539.5,-130"/>
<text text-anchor="middle" x="445.5" y="-118" font-family="Helvetica,sans-Serif" font-size="10.00">MainPage.TaskOpenPanelController</text>
</a>
</g>
</g>
<!-- Node2&#45;&gt;Node31 -->
<g id="edge32_Node000002_Node000031" class="edge">
<title>Node2&#45;&gt;Node31</title>
<g id="a_edge32_Node000002_Node000031"><a xlink:title=" ">
<path fill="none" stroke="#63b8ff" d="M219.77,-507.73C220.17,-443.43 230.74,-238.6 345,-138.5 348.7,-135.26 352.78,-132.52 357.11,-130.19"/>
<polygon fill="#63b8ff" stroke="#63b8ff" points="216.27,-507.75 219.79,-517.74 223.27,-507.73 216.27,-507.75"/>
</a>
</g>
</g>
<!-- Node32 -->
<g id="Node000032" class="node">
<title>Node32</title>
<g id="a_Node000032"><a xlink:href="classUser_1_1LoggedInChecker.html" target="_top" xlink:title="Checks if the user has a session stored in the backend.">
<polygon fill="white" stroke="#666666" points="508,-93 383,-93 383,-74 508,-74 508,-93"/>
<text text-anchor="middle" x="445.5" y="-81" font-family="Helvetica,sans-Serif" font-size="10.00">User.LoggedInChecker</text>
</a>
</g>
</g>
<!-- Node2&#45;&gt;Node32 -->
<g id="edge33_Node000002_Node000032" class="edge">
<title>Node2&#45;&gt;Node32</title>
<g id="a_edge33_Node000002_Node000032"><a xlink:title=" ">
<path fill="none" stroke="#63b8ff" d="M223.03,-507.67C235.07,-431.36 282.02,-158.11 345,-101.5 355.44,-92.11 369.08,-86.83 382.89,-84.01"/>
<polygon fill="#63b8ff" stroke="#63b8ff" points="219.53,-507.39 221.45,-517.81 226.44,-508.46 219.53,-507.39"/>
</a>
</g>
</g>
<!-- Node33 -->
<g id="Node000033" class="node">
<title>Node33</title>
<g id="a_Node000033"><a xlink:href="classUser_1_1UserController.html" target="_top" xlink:title="Handles the user actions such as registering and login.">
<polygon fill="white" stroke="#666666" points="501.5,-56 389.5,-56 389.5,-37 501.5,-37 501.5,-56"/>
<text text-anchor="middle" x="445.5" y="-44" font-family="Helvetica,sans-Serif" font-size="10.00">User.UserController</text>
</a>
</g>
</g>
<!-- Node2&#45;&gt;Node33 -->
<g id="edge34_Node000002_Node000033" class="edge">
<title>Node2&#45;&gt;Node33</title>
<g id="a_edge34_Node000002_Node000033"><a xlink:title=" ">
<path fill="none" stroke="#63b8ff" d="M222.55,-507.53C233.27,-426.91 277.21,-126.78 345,-64.5 357.02,-53.46 373.44,-48.06 389.48,-45.67"/>
<polygon fill="#63b8ff" stroke="#63b8ff" points="219.04,-507.41 221.21,-517.78 225.98,-508.32 219.04,-507.41"/>
</a>
</g>
</g>
<!-- Node34 -->
<g id="Node000034" class="node">
<title>Node34</title>
<g id="a_Node000034"><a xlink:href="classUtility_1_1ModalWindow.html" target="_top" xlink:title="Modal window for alerting the user.">
<polygon fill="white" stroke="#666666" points="504,-19 387,-19 387,0 504,0 504,-19"/>
<text text-anchor="middle" x="445.5" y="-7" font-family="Helvetica,sans-Serif" font-size="10.00">Utility.ModalWindow</text>
</a>
</g>
</g>
<!-- Node2&#45;&gt;Node34 -->
<g id="edge35_Node000002_Node000034" class="edge">
<title>Node2&#45;&gt;Node34</title>
<g id="a_edge35_Node000002_Node000034"><a xlink:title=" ">
<path fill="none" stroke="#63b8ff" d="M222.09,-507.85C231.46,-423.77 272.24,-95.61 345,-27.5 356.28,-16.94 371.56,-11.52 386.76,-8.94"/>
<polygon fill="#63b8ff" stroke="#63b8ff" points="218.61,-507.52 221,-517.84 225.57,-508.28 218.61,-507.52"/>
</a>
</g>
</g>
<!-- Node5 -->
<g id="Node000005" class="node">
<title>Node5</title>
<g id="a_Node000005"><a xlink:href="classGame_1_1NpcCar.html" target="_top" xlink:title="Object for the npc cars It is not yet used.">
<polygon fill="white" stroke="#666666" points="672,-1036 588,-1036 588,-1017 672,-1017 672,-1036"/>
<text text-anchor="middle" x="630" y="-1024" font-family="Helvetica,sans-Serif" font-size="10.00">Game.NpcCar</text>
</a>
</g>
</g>
<!-- Node4&#45;&gt;Node5 -->
<g id="edge6_Node000004_Node000005" class="edge">
<title>Node4&#45;&gt;Node5</title>
<g id="a_edge6_Node000004_Node000005"><a xlink:title=" ">
<path fill="none" stroke="#63b8ff" d="M488.41,-1012.63C518.3,-1015.58 558.28,-1019.53 587.97,-1022.45"/>
<polygon fill="#63b8ff" stroke="#63b8ff" points="488.58,-1009.13 478.29,-1011.64 487.9,-1016.1 488.58,-1009.13"/>
</a>
</g>
</g>
<!-- Node7 -->
<g id="Node000007" class="node">
<title>Node7</title>
<g id="a_Node000007"><a xlink:href="classGame_1_1PlayerCar.html" target="_top" xlink:title="Handles the player&#39;s car.">
<polygon fill="white" stroke="#666666" points="678,-999 582,-999 582,-980 678,-980 678,-999"/>
<text text-anchor="middle" x="630" y="-987" font-family="Helvetica,sans-Serif" font-size="10.00">Game.PlayerCar</text>
</a>
</g>
</g>
<!-- Node4&#45;&gt;Node7 -->
<g id="edge8_Node000004_Node000007" class="edge">
<title>Node4&#45;&gt;Node7</title>
<g id="a_edge8_Node000004_Node000007"><a xlink:title=" ">
<path fill="none" stroke="#63b8ff" d="M488.5,-1004.13C516.36,-1001.23 552.96,-997.42 581.82,-994.41"/>
<polygon fill="#63b8ff" stroke="#63b8ff" points="487.87,-1000.67 478.29,-1005.19 488.6,-1007.64 487.87,-1000.67"/>
</a>
</g>
</g>
<!-- Node6 -->
<g id="Node000006" class="node">
<title>Node6</title>
<g id="a_Node000006"><a xlink:href="classGame_1_1CopCar.html" target="_top" xlink:title="Handles the police car.">
<polygon fill="white" stroke="#666666" points="798,-1036 714,-1036 714,-1017 798,-1017 798,-1036"/>
<text text-anchor="middle" x="756" y="-1024" font-family="Helvetica,sans-Serif" font-size="10.00">Game.CopCar</text>
</a>
</g>
</g>
<!-- Node5&#45;&gt;Node6 -->
<g id="edge7_Node000005_Node000006" class="edge">
<title>Node5&#45;&gt;Node6</title>
<g id="a_edge7_Node000005_Node000006"><a xlink:title=" ">
<path fill="none" stroke="#63b8ff" d="M682.56,-1026.5C693,-1026.5 703.86,-1026.5 713.89,-1026.5"/>
<polygon fill="#63b8ff" stroke="#63b8ff" points="682.29,-1023 672.29,-1026.5 682.29,-1030 682.29,-1023"/>
</a>
</g>
</g>
</g>
</svg>
