<?xml version="1.0" encoding="UTF-8" standalone="no"?>
<!DOCTYPE svg PUBLIC "-//W3C//DTD SVG 1.1//EN"
 "http://www.w3.org/Graphics/SVG/1.1/DTD/svg11.dtd">
<!-- Generated by graphviz version 2.43.0 (0)
 -->
<!-- Title: Graphical Class Hierarchy Pages: 1 -->
<svg width="806pt" height="1092pt"
 viewBox="0.00 0.00 806.00 1092.00" xmlns="http://www.w3.org/2000/svg" xmlns:xlink="http://www.w3.org/1999/xlink">
<g id="graph0" class="graph" transform="scale(1 1) rotate(0) translate(4 1088)">
<title>Graphical Class Hierarchy</title>
<polygon fill="white" stroke="transparent" points="-4,4 -4,-1088 802,-1088 802,4 -4,4"/>
<!-- Node6 -->
<g id="node1" class="node">
<title>Node6</title>
<g id="a_node1"><a xlink:title=" ">
<polygon fill="white" stroke="#bfbfbf" points="0,-551.5 0,-570.5 93,-570.5 93,-551.5 0,-551.5"/>
<text text-anchor="middle" x="46.5" y="-558.5" font-family="Helvetica,sans-Serif" font-size="10.00">MonoBehaviour</text>
</a>
</g>
</g>
<!-- Node0 -->
<g id="node2" class="node">
<title>Node0</title>
<g id="a_node2"><a xlink:href="classUtility_1_1CoroutineRunner.html" target="_top" xlink:title="Singleton class to run the coroutines so they are easier to track">
<polygon fill="white" stroke="black" points="154,-570.5 154,-589.5 284,-589.5 284,-570.5 154,-570.5"/>
<text text-anchor="middle" x="219" y="-577.5" font-family="Helvetica,sans-Serif" font-size="10.00">Utility.CoroutineRunner</text>
</a>
</g>
</g>
<!-- Node6&#45;&gt;Node0 -->
<g id="edge1" class="edge">
<title>Node6&#45;&gt;Node0</title>
<path fill="none" stroke="midnightblue" d="M103.53,-567.24C119.64,-569.04 137.35,-571.01 153.92,-572.86"/>
<polygon fill="midnightblue" stroke="midnightblue" points="103.52,-563.72 93.19,-566.09 102.74,-570.68 103.52,-563.72"/>
</g>
<!-- Node8 -->
<g id="node3" class="node">
<title>Node8</title>
<g id="a_node3"><a xlink:href="classUtility_1_1ThreadSafeMonoBehaviour.html" target="_top" xlink:title="Safely stores if the gameobject been destroyed in a bool">
<polygon fill="white" stroke="black" points="129,-532.5 129,-551.5 309,-551.5 309,-532.5 129,-532.5"/>
<text text-anchor="middle" x="219" y="-539.5" font-family="Helvetica,sans-Serif" font-size="10.00">Utility.ThreadSafeMonoBehaviour</text>
</a>
</g>
</g>
<!-- Node6&#45;&gt;Node8 -->
<g id="edge2" class="edge">
<title>Node6&#45;&gt;Node8</title>
<path fill="none" stroke="midnightblue" d="M103.21,-554.79C112.66,-553.74 122.67,-552.62 132.68,-551.51"/>
<polygon fill="midnightblue" stroke="midnightblue" points="102.74,-551.32 93.19,-555.91 103.52,-558.28 102.74,-551.32"/>
</g>
<!-- Node9 -->
<g id="node4" class="node">
<title>Node9</title>
<g id="a_node4"><a xlink:href="classCameraScript.html" target="_top" xlink:title="Script which follows the player&#39;s car">
<polygon fill="white" stroke="black" points="404,-1064.5 404,-1083.5 487,-1083.5 487,-1064.5 404,-1064.5"/>
<text text-anchor="middle" x="445.5" y="-1071.5" font-family="Helvetica,sans-Serif" font-size="10.00">CameraScript</text>
</a>
</g>
</g>
<!-- Node8&#45;&gt;Node9 -->
<g id="edge3" class="edge">
<title>Node8&#45;&gt;Node9</title>
<path fill="none" stroke="midnightblue" d="M306.16,-558.03C307.15,-558.97 308.1,-559.96 309,-561 381.3,-644 271.81,-972.79 345,-1055 359.5,-1071.29 383.3,-1076.25 403.98,-1077.05"/>
<polygon fill="midnightblue" stroke="midnightblue" points="308,-555.02 297.95,-551.67 303.72,-560.56 308,-555.02"/>
</g>
<!-- Node10 -->
<g id="node5" class="node">
<title>Node10</title>
<g id="a_node5"><a xlink:href="classGame_1_1Car.html" target="_top" xlink:title="Handles the basic Car functionalities">
<polygon fill="white" stroke="black" points="413,-1026.5 413,-1045.5 478,-1045.5 478,-1026.5 413,-1026.5"/>
<text text-anchor="middle" x="445.5" y="-1033.5" font-family="Helvetica,sans-Serif" font-size="10.00">Game.Car</text>
</a>
</g>
</g>
<!-- Node8&#45;&gt;Node10 -->
<g id="edge4" class="edge">
<title>Node8&#45;&gt;Node10</title>
<path fill="none" stroke="midnightblue" d="M306.16,-558.04C307.14,-558.98 308.09,-559.96 309,-561 376,-637.45 277.18,-941.28 345,-1017 361.66,-1035.6 390.45,-1039.41 412.79,-1039.12"/>
<polygon fill="midnightblue" stroke="midnightblue" points="307.98,-555.02 297.92,-551.7 303.71,-560.57 307.98,-555.02"/>
</g>
<!-- Node14 -->
<g id="node9" class="node">
<title>Node14</title>
<g id="a_node9"><a xlink:href="classGame_1_1CarController.html" target="_top" xlink:title=" ">
<polygon fill="white" stroke="black" points="389,-988.5 389,-1007.5 502,-1007.5 502,-988.5 389,-988.5"/>
<text text-anchor="middle" x="445.5" y="-995.5" font-family="Helvetica,sans-Serif" font-size="10.00">Game.CarController</text>
</a>
</g>
</g>
<!-- Node8&#45;&gt;Node14 -->
<g id="edge8" class="edge">
<title>Node8&#45;&gt;Node14</title>
<path fill="none" stroke="midnightblue" d="M306.15,-558.04C307.14,-558.98 308.09,-559.97 309,-561 370.7,-630.9 282.55,-909.78 345,-979 356.13,-991.34 372.6,-997.16 388.96,-999.59"/>
<polygon fill="midnightblue" stroke="midnightblue" points="307.96,-555.02 297.89,-551.72 303.7,-560.58 307.96,-555.02"/>
</g>
<!-- Node15 -->
<g id="node10" class="node">
<title>Node15</title>
<g id="a_node10"><a xlink:href="classGame_1_1EffectScript.html" target="_top" xlink:title="Handles the car&#39;s effects">
<polygon fill="white" stroke="black" points="393.5,-950.5 393.5,-969.5 497.5,-969.5 497.5,-950.5 393.5,-950.5"/>
<text text-anchor="middle" x="445.5" y="-957.5" font-family="Helvetica,sans-Serif" font-size="10.00">Game.EffectScript</text>
</a>
</g>
</g>
<!-- Node8&#45;&gt;Node15 -->
<g id="edge9" class="edge">
<title>Node8&#45;&gt;Node15</title>
<path fill="none" stroke="midnightblue" d="M305.69,-557.65C306.85,-558.7 307.95,-559.82 309,-561 365.41,-624.35 287.91,-878.26 345,-941 357.19,-954.4 375.68,-960.09 393.42,-962.11"/>
<polygon fill="midnightblue" stroke="midnightblue" points="307.56,-554.68 297.45,-551.51 303.38,-560.29 307.56,-554.68"/>
</g>
<!-- Node16 -->
<g id="node11" class="node">
<title>Node16</title>
<g id="a_node11"><a xlink:href="classGame_1_1EnableWheelPhysicMaterial.html" target="_top" xlink:title="Script to enable the physics materials for the wheel colliders">
<polygon fill="white" stroke="black" points="353,-912.5 353,-931.5 538,-931.5 538,-912.5 353,-912.5"/>
<text text-anchor="middle" x="445.5" y="-919.5" font-family="Helvetica,sans-Serif" font-size="10.00">Game.EnableWheelPhysicMaterial</text>
</a>
</g>
</g>
<!-- Node8&#45;&gt;Node16 -->
<g id="edge10" class="edge">
<title>Node8&#45;&gt;Node16</title>
<path fill="none" stroke="midnightblue" d="M305.68,-557.66C306.83,-558.71 307.94,-559.83 309,-561 411.23,-674.62 241.55,-790.49 345,-903 348.33,-906.62 352.13,-909.68 356.24,-912.26"/>
<polygon fill="midnightblue" stroke="midnightblue" points="307.53,-554.68 297.41,-551.55 303.37,-560.31 307.53,-554.68"/>
</g>
<!-- Node17 -->
<g id="node12" class="node">
<title>Node17</title>
<g id="a_node12"><a xlink:href="classGame_1_1GameController.html" target="_top" xlink:title="Handles the main flow of the game scene">
<polygon fill="white" stroke="black" points="382.5,-874.5 382.5,-893.5 508.5,-893.5 508.5,-874.5 382.5,-874.5"/>
<text text-anchor="middle" x="445.5" y="-881.5" font-family="Helvetica,sans-Serif" font-size="10.00">Game.GameController</text>
</a>
</g>
</g>
<!-- Node8&#45;&gt;Node17 -->
<g id="edge11" class="edge">
<title>Node8&#45;&gt;Node17</title>
<path fill="none" stroke="midnightblue" d="M305.65,-557.68C306.82,-558.73 307.94,-559.83 309,-561 400.66,-661.55 252.26,-765.45 345,-865 354.77,-875.49 368.4,-881.22 382.45,-884.17"/>
<polygon fill="midnightblue" stroke="midnightblue" points="307.49,-554.69 297.35,-551.6 303.35,-560.33 307.49,-554.69"/>
</g>
<!-- Node18 -->
<g id="node13" class="node">
<title>Node18</title>
<g id="a_node13"><a xlink:href="classGame_1_1UI_1_1GameUI.html" target="_top" xlink:title="Controller for the game&#39;s UI">
<polygon fill="white" stroke="black" points="394.5,-836.5 394.5,-855.5 496.5,-855.5 496.5,-836.5 394.5,-836.5"/>
<text text-anchor="middle" x="445.5" y="-843.5" font-family="Helvetica,sans-Serif" font-size="10.00">Game.UI.GameUI</text>
</a>
</g>
</g>
<!-- Node8&#45;&gt;Node18 -->
<g id="edge12" class="edge">
<title>Node8&#45;&gt;Node18</title>
<path fill="none" stroke="midnightblue" d="M305.63,-557.71C306.8,-558.74 307.93,-559.84 309,-561 390.1,-648.49 262.96,-740.39 345,-827 357.64,-840.34 376.54,-845.96 394.48,-847.93"/>
<polygon fill="midnightblue" stroke="midnightblue" points="307.43,-554.69 297.28,-551.67 303.33,-560.36 307.43,-554.69"/>
</g>
<!-- Node19 -->
<g id="node14" class="node">
<title>Node19</title>
<g id="a_node14"><a xlink:href="classGame_1_1UI_1_1LeaderboardItem.html" target="_top" xlink:title="A single leaderboard item">
<polygon fill="white" stroke="black" points="372.5,-798.5 372.5,-817.5 518.5,-817.5 518.5,-798.5 372.5,-798.5"/>
<text text-anchor="middle" x="445.5" y="-805.5" font-family="Helvetica,sans-Serif" font-size="10.00">Game.UI.LeaderboardItem</text>
</a>
</g>
</g>
<!-- Node8&#45;&gt;Node19 -->
<g id="edge13" class="edge">
<title>Node8&#45;&gt;Node19</title>
<path fill="none" stroke="midnightblue" d="M305.11,-557.33C306.47,-558.48 307.77,-559.7 309,-561 379.57,-635.46 273.63,-715.3 345,-789 352.52,-796.77 362.18,-801.9 372.5,-805.22"/>
<polygon fill="midnightblue" stroke="midnightblue" points="306.99,-554.37 296.78,-551.52 302.98,-560.11 306.99,-554.37"/>
</g>
<!-- Node20 -->
<g id="node15" class="node">
<title>Node20</title>
<g id="a_node15"><a xlink:href="classGame_1_1UI_1_1LeaderboardWindow.html" target="_top" xlink:title="Handles the leaderboard display window">
<polygon fill="white" stroke="black" points="364.5,-760.5 364.5,-779.5 526.5,-779.5 526.5,-760.5 364.5,-760.5"/>
<text text-anchor="middle" x="445.5" y="-767.5" font-family="Helvetica,sans-Serif" font-size="10.00">Game.UI.LeaderboardWindow</text>
</a>
</g>
</g>
<!-- Node8&#45;&gt;Node20 -->
<g id="edge14" class="edge">
<title>Node8&#45;&gt;Node20</title>
<path fill="none" stroke="midnightblue" d="M305.06,-557.38C306.43,-558.51 307.75,-559.72 309,-561 369.07,-622.47 284.27,-690.18 345,-751 350.47,-756.48 357,-760.63 364.06,-763.76"/>
<polygon fill="midnightblue" stroke="midnightblue" points="306.88,-554.39 296.65,-551.65 302.94,-560.17 306.88,-554.39"/>
</g>
<!-- Node21 -->
<g id="node16" class="node">
<title>Node21</title>
<g id="a_node16"><a xlink:href="classGame_1_1UI_1_1ShopItem.html" target="_top" xlink:title="A single shop item">
<polygon fill="white" stroke="black" points="391,-722.5 391,-741.5 500,-741.5 500,-722.5 391,-722.5"/>
<text text-anchor="middle" x="445.5" y="-729.5" font-family="Helvetica,sans-Serif" font-size="10.00">Game.UI.ShopItem</text>
</a>
</g>
</g>
<!-- Node8&#45;&gt;Node21 -->
<g id="edge15" class="edge">
<title>Node8&#45;&gt;Node21</title>
<path fill="none" stroke="midnightblue" d="M304.46,-557.05C306.04,-558.28 307.56,-559.59 309,-561 358.63,-609.54 294.84,-665 345,-713 357.2,-724.67 374.24,-730.26 390.78,-732.69"/>
<polygon fill="midnightblue" stroke="midnightblue" points="306.34,-554.1 296.04,-551.61 302.54,-559.98 306.34,-554.1"/>
</g>
<!-- Node22 -->
<g id="node17" class="node">
<title>Node22</title>
<g id="a_node17"><a xlink:href="classGame_1_1UI_1_1ShopWindow.html" target="_top" xlink:title="Handles the shop window&#39;s content display">
<polygon fill="white" stroke="black" points="383,-684.5 383,-703.5 508,-703.5 508,-684.5 383,-684.5"/>
<text text-anchor="middle" x="445.5" y="-691.5" font-family="Helvetica,sans-Serif" font-size="10.00">Game.UI.ShopWindow</text>
</a>
</g>
</g>
<!-- Node8&#45;&gt;Node22 -->
<g id="edge16" class="edge">
<title>Node8&#45;&gt;Node22</title>
<path fill="none" stroke="midnightblue" d="M303.6,-556.68C305.48,-558.01 307.29,-559.45 309,-561 348.32,-596.73 305.29,-639.69 345,-675 355.51,-684.35 369.17,-689.71 382.99,-692.66"/>
<polygon fill="midnightblue" stroke="midnightblue" points="305.27,-553.6 294.89,-551.5 301.7,-559.62 305.27,-553.6"/>
</g>
<!-- Node23 -->
<g id="node18" class="node">
<title>Node23</title>
<g id="a_node18"><a xlink:href="classGame_1_1UI_1_1StarHandler.html" target="_top" xlink:title="Star handler">
<polygon fill="white" stroke="black" points="385.5,-646.5 385.5,-665.5 505.5,-665.5 505.5,-646.5 385.5,-646.5"/>
<text text-anchor="middle" x="445.5" y="-653.5" font-family="Helvetica,sans-Serif" font-size="10.00">Game.UI.StarHandler</text>
</a>
</g>
</g>
<!-- Node8&#45;&gt;Node23 -->
<g id="edge17" class="edge">
<title>Node8&#45;&gt;Node23</title>
<path fill="none" stroke="midnightblue" d="M302.34,-556.39C304.66,-557.79 306.89,-559.33 309,-561 338.31,-584.19 315.44,-614.13 345,-637 356.54,-645.93 371.06,-651.07 385.41,-653.93"/>
<polygon fill="midnightblue" stroke="midnightblue" points="303.51,-553.05 293.02,-551.57 300.3,-559.27 303.51,-553.05"/>
</g>
<!-- Node24 -->
<g id="node19" class="node">
<title>Node24</title>
<g id="a_node19"><a xlink:href="classGame_1_1World_1_1Building.html" target="_top" xlink:title="Building handler">
<polygon fill="white" stroke="black" points="386,-608.5 386,-627.5 505,-627.5 505,-608.5 386,-608.5"/>
<text text-anchor="middle" x="445.5" y="-615.5" font-family="Helvetica,sans-Serif" font-size="10.00">Game.World.Building</text>
</a>
</g>
</g>
<!-- Node8&#45;&gt;Node24 -->
<g id="edge18" class="edge">
<title>Node8&#45;&gt;Node24</title>
<path fill="none" stroke="midnightblue" d="M296.45,-555.05C300.8,-556.79 305.02,-558.76 309,-561 329.29,-572.39 324.59,-587.84 345,-599 357.42,-605.79 371.87,-610.19 385.84,-613.03"/>
<polygon fill="midnightblue" stroke="midnightblue" points="297.35,-551.66 286.76,-551.6 295,-558.25 297.35,-551.66"/>
</g>
<!-- Node25 -->
<g id="node20" class="node">
<title>Node25</title>
<g id="a_node20"><a xlink:href="classGame_1_1World_1_1CarSpawner.html" target="_top" xlink:title="Car spawner">
<polygon fill="white" stroke="black" points="376.5,-570.5 376.5,-589.5 514.5,-589.5 514.5,-570.5 376.5,-570.5"/>
<text text-anchor="middle" x="445.5" y="-577.5" font-family="Helvetica,sans-Serif" font-size="10.00">Game.World.CarSpawner</text>
</a>
</g>
</g>
<!-- Node8&#45;&gt;Node25 -->
<g id="edge19" class="edge">
<title>Node8&#45;&gt;Node25</title>
<path fill="none" stroke="midnightblue" d="M286.62,-553.28C318.92,-558.74 357.29,-565.24 388.12,-570.46"/>
<polygon fill="midnightblue" stroke="midnightblue" points="286.8,-549.76 276.36,-551.54 285.64,-556.66 286.8,-549.76"/>
</g>
<!-- Node26 -->
<g id="node21" class="node">
<title>Node26</title>
<g id="a_node21"><a xlink:href="classGame_1_1World_1_1Chunk.html" target="_top" xlink:title="Stores a single chunk of the world">
<polygon fill="white" stroke="black" points="390.5,-532.5 390.5,-551.5 500.5,-551.5 500.5,-532.5 390.5,-532.5"/>
<text text-anchor="middle" x="445.5" y="-539.5" font-family="Helvetica,sans-Serif" font-size="10.00">Game.World.Chunk</text>
</a>
</g>
</g>
<!-- Node8&#45;&gt;Node26 -->
<g id="edge20" class="edge">
<title>Node8&#45;&gt;Node26</title>
<path fill="none" stroke="midnightblue" d="M319.13,-542C343.66,-542 369.04,-542 390.5,-542"/>
<polygon fill="midnightblue" stroke="midnightblue" points="319.05,-538.5 309.05,-542 319.05,-545.5 319.05,-538.5"/>
</g>
<!-- Node27 -->
<g id="node22" class="node">
<title>Node27</title>
<g id="a_node22"><a xlink:href="classGame_1_1World_1_1Coin.html" target="_top" xlink:title="Coin gameobject">
<polygon fill="white" stroke="black" points="395,-494.5 395,-513.5 496,-513.5 496,-494.5 395,-494.5"/>
<text text-anchor="middle" x="445.5" y="-501.5" font-family="Helvetica,sans-Serif" font-size="10.00">Game.World.Coin</text>
</a>
</g>
</g>
<!-- Node8&#45;&gt;Node27 -->
<g id="edge21" class="edge">
<title>Node8&#45;&gt;Node27</title>
<path fill="none" stroke="midnightblue" d="M286.44,-530.75C321.22,-524.87 363.09,-517.78 394.99,-512.38"/>
<polygon fill="midnightblue" stroke="midnightblue" points="285.64,-527.34 276.36,-532.46 286.8,-534.24 285.64,-527.34"/>
</g>
<!-- Node28 -->
<g id="node23" class="node">
<title>Node28</title>
<g id="a_node23"><a xlink:href="classGame_1_1World_1_1GameWorld.html" target="_top" xlink:title="A class for handling chunk loading and unloading">
<polygon fill="white" stroke="black" points="377,-456.5 377,-475.5 514,-475.5 514,-456.5 377,-456.5"/>
<text text-anchor="middle" x="445.5" y="-463.5" font-family="Helvetica,sans-Serif" font-size="10.00">Game.World.GameWorld</text>
</a>
</g>
</g>
<!-- Node8&#45;&gt;Node28 -->
<g id="edge22" class="edge">
<title>Node8&#45;&gt;Node28</title>
<path fill="none" stroke="midnightblue" d="M246.81,-527.49C271.63,-514.62 309.89,-496.18 345,-485 356.81,-481.24 369.67,-478.11 382.09,-475.55"/>
<polygon fill="midnightblue" stroke="midnightblue" points="244.9,-524.54 237.68,-532.3 248.16,-530.74 244.9,-524.54"/>
</g>
<!-- Node29 -->
<g id="node24" class="node">
<title>Node29</title>
<g id="a_node24"><a xlink:href="classGame_1_1World_1_1Prop.html" target="_top" xlink:title="Prop handler">
<polygon fill="white" stroke="black" points="395,-418.5 395,-437.5 496,-437.5 496,-418.5 395,-418.5"/>
<text text-anchor="middle" x="445.5" y="-425.5" font-family="Helvetica,sans-Serif" font-size="10.00">Game.World.Prop</text>
</a>
</g>
</g>
<!-- Node8&#45;&gt;Node29 -->
<g id="edge23" class="edge">
<title>Node8&#45;&gt;Node29</title>
<path fill="none" stroke="midnightblue" d="M236.71,-525.16C259.23,-503.5 301.54,-466.37 345,-447 360.5,-440.09 378.45,-435.69 394.81,-432.89"/>
<polygon fill="midnightblue" stroke="midnightblue" points="234.03,-522.88 229.34,-532.37 238.93,-527.88 234.03,-522.88"/>
</g>
<!-- Node30 -->
<g id="node25" class="node">
<title>Node30</title>
<g id="a_node25"><a xlink:href="classMainPage_1_1FriendHandler.html" target="_top" xlink:title="Handles a single friend entry display">
<polygon fill="white" stroke="black" points="378,-380.5 378,-399.5 513,-399.5 513,-380.5 378,-380.5"/>
<text text-anchor="middle" x="445.5" y="-387.5" font-family="Helvetica,sans-Serif" font-size="10.00">MainPage.FriendHandler</text>
</a>
</g>
</g>
<!-- Node8&#45;&gt;Node30 -->
<g id="edge24" class="edge">
<title>Node8&#45;&gt;Node30</title>
<path fill="none" stroke="midnightblue" d="M231.38,-523.92C250.82,-494.66 293.38,-437.37 345,-409 355.09,-403.45 366.54,-399.5 377.98,-396.69"/>
<polygon fill="midnightblue" stroke="midnightblue" points="228.41,-522.07 225.9,-532.36 234.28,-525.88 228.41,-522.07"/>
</g>
<!-- Node31 -->
<g id="node26" class="node">
<title>Node31</title>
<g id="a_node26"><a xlink:href="classMainPage_1_1FriendWindowHandler.html" target="_top" xlink:title="Handles the friend window display">
<polygon fill="white" stroke="black" points="358.5,-342.5 358.5,-361.5 532.5,-361.5 532.5,-342.5 358.5,-342.5"/>
<text text-anchor="middle" x="445.5" y="-349.5" font-family="Helvetica,sans-Serif" font-size="10.00">MainPage.FriendWindowHandler</text>
</a>
</g>
</g>
<!-- Node8&#45;&gt;Node31 -->
<g id="edge25" class="edge">
<title>Node8&#45;&gt;Node31</title>
<path fill="none" stroke="midnightblue" d="M228.1,-522.9C244.45,-486.83 285.04,-408.94 345,-371 351.09,-367.14 357.79,-364.04 364.73,-361.54"/>
<polygon fill="midnightblue" stroke="midnightblue" points="224.8,-521.71 223.97,-532.28 231.2,-524.53 224.8,-521.71"/>
</g>
<!-- Node32 -->
<g id="node27" class="node">
<title>Node32</title>
<g id="a_node27"><a xlink:href="classMainPage_1_1MainWindowController.html" target="_top" xlink:title="Handles the main window&#39;s controls">
<polygon fill="white" stroke="black" points="356.5,-304.5 356.5,-323.5 534.5,-323.5 534.5,-304.5 356.5,-304.5"/>
<text text-anchor="middle" x="445.5" y="-311.5" font-family="Helvetica,sans-Serif" font-size="10.00">MainPage.MainWindowController</text>
</a>
</g>
</g>
<!-- Node8&#45;&gt;Node32 -->
<g id="edge26" class="edge">
<title>Node8&#45;&gt;Node32</title>
<path fill="none" stroke="midnightblue" d="M225.64,-522.51C238.87,-480.46 276.15,-381.14 345,-333 350.48,-329.17 356.52,-326.06 362.84,-323.54"/>
<polygon fill="midnightblue" stroke="midnightblue" points="222.28,-521.53 222.72,-532.12 228.97,-523.57 222.28,-521.53"/>
</g>
<!-- Node33 -->
<g id="node28" class="node">
<title>Node33</title>
<g id="a_node28"><a xlink:href="classMainPage_1_1ProfileHandler.html" target="_top" xlink:title="Handles the user&#39;s profile such as statistics and logout button">
<polygon fill="white" stroke="black" points="377.5,-266.5 377.5,-285.5 513.5,-285.5 513.5,-266.5 377.5,-266.5"/>
<text text-anchor="middle" x="445.5" y="-273.5" font-family="Helvetica,sans-Serif" font-size="10.00">MainPage.ProfileHandler</text>
</a>
</g>
</g>
<!-- Node8&#45;&gt;Node33 -->
<g id="edge27" class="edge">
<title>Node8&#45;&gt;Node33</title>
<path fill="none" stroke="midnightblue" d="M223.73,-522.64C233.91,-475.42 266.81,-353.89 345,-295 354.41,-287.91 365.71,-283.23 377.27,-280.19"/>
<polygon fill="midnightblue" stroke="midnightblue" points="220.29,-521.99 221.71,-532.49 227.15,-523.4 220.29,-521.99"/>
</g>
<!-- Node34 -->
<g id="node29" class="node">
<title>Node34</title>
<g id="a_node29"><a xlink:href="classMainPage_1_1TaskDisplayHandler.html" target="_top" xlink:title="Task prefab display handler">
<polygon fill="white" stroke="black" points="363.5,-228.5 363.5,-247.5 527.5,-247.5 527.5,-228.5 363.5,-228.5"/>
<text text-anchor="middle" x="445.5" y="-235.5" font-family="Helvetica,sans-Serif" font-size="10.00">MainPage.TaskDisplayHandler</text>
</a>
</g>
</g>
<!-- Node8&#45;&gt;Node34 -->
<g id="edge28" class="edge">
<title>Node8&#45;&gt;Node34</title>
<path fill="none" stroke="midnightblue" d="M222.34,-522.56C229.72,-470.43 257.43,-326.82 345,-257 350.5,-252.61 356.71,-249.14 363.28,-246.39"/>
<polygon fill="midnightblue" stroke="midnightblue" points="218.87,-522.11 221.03,-532.49 225.81,-523.03 218.87,-522.11"/>
</g>
<!-- Node35 -->
<g id="node30" class="node">
<title>Node35</title>
<g id="a_node30"><a xlink:href="classMainPage_1_1TaskHistoryHandler.html" target="_top" xlink:title="Handles the task history display">
<polygon fill="white" stroke="black" points="364.5,-190.5 364.5,-209.5 526.5,-209.5 526.5,-190.5 364.5,-190.5"/>
<text text-anchor="middle" x="445.5" y="-197.5" font-family="Helvetica,sans-Serif" font-size="10.00">MainPage.TaskHistoryHandler</text>
</a>
</g>
</g>
<!-- Node8&#45;&gt;Node35 -->
<g id="edge29" class="edge">
<title>Node8&#45;&gt;Node35</title>
<path fill="none" stroke="midnightblue" d="M221.26,-522.32C226.03,-465.46 248.01,-299.89 345,-219 350.67,-214.27 357.16,-210.58 364.05,-207.72"/>
<polygon fill="midnightblue" stroke="midnightblue" points="217.76,-522.23 220.5,-532.46 224.74,-522.75 217.76,-522.23"/>
</g>
<!-- Node36 -->
<g id="node31" class="node">
<title>Node36</title>
<g id="a_node31"><a xlink:href="classMainPage_1_1TaskHistoryWindowHandler.html" target="_top" xlink:title="Task histories window controller">
<polygon fill="white" stroke="black" points="345,-152.5 345,-171.5 546,-171.5 546,-152.5 345,-152.5"/>
<text text-anchor="middle" x="445.5" y="-159.5" font-family="Helvetica,sans-Serif" font-size="10.00">MainPage.TaskHistoryWindowHandler</text>
</a>
</g>
</g>
<!-- Node8&#45;&gt;Node36 -->
<g id="edge30" class="edge">
<title>Node8&#45;&gt;Node36</title>
<path fill="none" stroke="midnightblue" d="M220.37,-522.1C222.67,-460.75 238.49,-273.12 345,-181 349.26,-177.32 354,-174.26 359.05,-171.73"/>
<polygon fill="midnightblue" stroke="midnightblue" points="216.87,-522.23 220.08,-532.33 223.86,-522.43 216.87,-522.23"/>
</g>
<!-- Node37 -->
<g id="node32" class="node">
<title>Node37</title>
<g id="a_node32"><a xlink:href="classMainPage_1_1TaskOpenPanelController.html" target="_top" xlink:title="Controller for displaying, editing and creating tasks">
<polygon fill="white" stroke="black" points="351.5,-114.5 351.5,-133.5 539.5,-133.5 539.5,-114.5 351.5,-114.5"/>
<text text-anchor="middle" x="445.5" y="-121.5" font-family="Helvetica,sans-Serif" font-size="10.00">MainPage.TaskOpenPanelController</text>
</a>
</g>
</g>
<!-- Node8&#45;&gt;Node37 -->
<g id="edge31" class="edge">
<title>Node8&#45;&gt;Node37</title>
<path fill="none" stroke="midnightblue" d="M219.63,-522.21C219.54,-456.93 228.7,-246.65 345,-143 349.2,-139.26 353.91,-136.15 358.93,-133.58"/>
<polygon fill="midnightblue" stroke="midnightblue" points="216.13,-522.38 219.72,-532.35 223.13,-522.32 216.13,-522.38"/>
</g>
<!-- Node38 -->
<g id="node33" class="node">
<title>Node38</title>
<g id="a_node33"><a xlink:href="classUser_1_1LoggedInChecker.html" target="_top" xlink:title="Checks if the user has a session stored in the backend">
<polygon fill="white" stroke="black" points="383,-76.5 383,-95.5 508,-95.5 508,-76.5 383,-76.5"/>
<text text-anchor="middle" x="445.5" y="-83.5" font-family="Helvetica,sans-Serif" font-size="10.00">User.LoggedInChecker</text>
</a>
</g>
</g>
<!-- Node8&#45;&gt;Node38 -->
<g id="edge32" class="edge">
<title>Node8&#45;&gt;Node38</title>
<path fill="none" stroke="midnightblue" d="M222.89,-522.19C234.58,-444.71 280.87,-163.61 345,-105 355.39,-95.51 369,-90.09 382.8,-87.14"/>
<polygon fill="midnightblue" stroke="midnightblue" points="219.37,-522.05 221.36,-532.45 226.29,-523.07 219.37,-522.05"/>
</g>
<!-- Node39 -->
<g id="node34" class="node">
<title>Node39</title>
<g id="a_node34"><a xlink:href="classUser_1_1UserController.html" target="_top" xlink:title="Handles the user actions such as registering and login">
<polygon fill="white" stroke="black" points="389.5,-38.5 389.5,-57.5 501.5,-57.5 501.5,-38.5 389.5,-38.5"/>
<text text-anchor="middle" x="445.5" y="-45.5" font-family="Helvetica,sans-Serif" font-size="10.00">User.UserController</text>
</a>
</g>
</g>
<!-- Node8&#45;&gt;Node39 -->
<g id="edge33" class="edge">
<title>Node8&#45;&gt;Node39</title>
<path fill="none" stroke="midnightblue" d="M222.42,-522.07C232.78,-440.25 275.94,-131.48 345,-67 356.96,-55.84 373.36,-50.28 389.39,-47.72"/>
<polygon fill="midnightblue" stroke="midnightblue" points="218.89,-522.08 221.13,-532.44 225.84,-522.95 218.89,-522.08"/>
</g>
<!-- Node40 -->
<g id="node35" class="node">
<title>Node40</title>
<g id="a_node35"><a xlink:href="classUtility_1_1ModalWindow.html" target="_top" xlink:title="Modal window for alerting the user">
<polygon fill="white" stroke="black" points="387,-0.5 387,-19.5 504,-19.5 504,-0.5 387,-0.5"/>
<text text-anchor="middle" x="445.5" y="-7.5" font-family="Helvetica,sans-Serif" font-size="10.00">Utility.ModalWindow</text>
</a>
</g>
</g>
<!-- Node8&#45;&gt;Node40 -->
<g id="edge34" class="edge">
<title>Node8&#45;&gt;Node40</title>
<path fill="none" stroke="midnightblue" d="M222,-522.12C231.06,-436.39 270.93,-99.43 345,-29 356.28,-18.27 371.65,-12.69 386.94,-9.98"/>
<polygon fill="midnightblue" stroke="midnightblue" points="218.52,-521.8 220.97,-532.1 225.48,-522.52 218.52,-521.8"/>
</g>
<!-- Node11 -->
<g id="node6" class="node">
<title>Node11</title>
<g id="a_node6"><a xlink:href="classGame_1_1NpcCar.html" target="_top" xlink:title="Object for the npc cars It is not yet used">
<polygon fill="white" stroke="black" points="588,-1045.5 588,-1064.5 672,-1064.5 672,-1045.5 588,-1045.5"/>
<text text-anchor="middle" x="630" y="-1052.5" font-family="Helvetica,sans-Serif" font-size="10.00">Game.NpcCar</text>
</a>
</g>
</g>
<!-- Node10&#45;&gt;Node11 -->
<g id="edge5" class="edge">
<title>Node10&#45;&gt;Node11</title>
<path fill="none" stroke="midnightblue" d="M488.41,-1040.36C518.3,-1043.47 558.28,-1047.64 587.97,-1050.73"/>
<polygon fill="midnightblue" stroke="midnightblue" points="488.6,-1036.86 478.29,-1039.31 487.87,-1043.83 488.6,-1036.86"/>
</g>
<!-- Node13 -->
<g id="node8" class="node">
<title>Node13</title>
<g id="a_node8"><a xlink:href="classGame_1_1PlayerCar.html" target="_top" xlink:title="Handles the player&#39;s car">
<polygon fill="white" stroke="black" points="582,-1007.5 582,-1026.5 678,-1026.5 678,-1007.5 582,-1007.5"/>
<text text-anchor="middle" x="630" y="-1014.5" font-family="Helvetica,sans-Serif" font-size="10.00">Game.PlayerCar</text>
</a>
</g>
</g>
<!-- Node10&#45;&gt;Node13 -->
<g id="edge7" class="edge">
<title>Node10&#45;&gt;Node13</title>
<path fill="none" stroke="midnightblue" d="M488.5,-1031.63C516.36,-1028.73 552.96,-1024.92 581.82,-1021.91"/>
<polygon fill="midnightblue" stroke="midnightblue" points="487.87,-1028.17 478.29,-1032.69 488.6,-1035.14 487.87,-1028.17"/>
</g>
<!-- Node12 -->
<g id="node7" class="node">
<title>Node12</title>
<g id="a_node7"><a xlink:href="classGame_1_1CopCar.html" target="_top" xlink:title="Handles the police car">
<polygon fill="white" stroke="black" points="714,-1045.5 714,-1064.5 798,-1064.5 798,-1045.5 714,-1045.5"/>
<text text-anchor="middle" x="756" y="-1052.5" font-family="Helvetica,sans-Serif" font-size="10.00">Game.CopCar</text>
</a>
</g>
</g>
<!-- Node11&#45;&gt;Node12 -->
<g id="edge6" class="edge">
<title>Node11&#45;&gt;Node12</title>
<path fill="none" stroke="midnightblue" d="M682.56,-1055C693,-1055 703.86,-1055 713.89,-1055"/>
<polygon fill="midnightblue" stroke="midnightblue" points="682.29,-1051.5 672.29,-1055 682.29,-1058.5 682.29,-1051.5"/>
</g>
</g>
</svg>
