<?xml version="1.0" encoding="UTF-8" standalone="no"?>
<!DOCTYPE svg PUBLIC "-//W3C//DTD SVG 1.1//EN"
 "http://www.w3.org/Graphics/SVG/1.1/DTD/svg11.dtd">
<!-- Generated by graphviz version 2.43.0 (0)
 -->
<!-- Title: Assets.Scripts.Client.DataTypes.ChunkCellContainer Pages: 1 -->
<svg width="330pt" height="72pt"
 viewBox="0.00 0.00 330.00 72.00" xmlns="http://www.w3.org/2000/svg" xmlns:xlink="http://www.w3.org/1999/xlink">
<g id="graph0" class="graph" transform="scale(1 1) rotate(0) translate(4 68)">
<title>Assets.Scripts.Client.DataTypes.ChunkCellContainer</title>
<!-- Node1 -->
<g id="Node000001" class="node">
<title>Node1</title>
<g id="a_Node000001"><a xlink:title="Creates a single chunk cell container object.">
<polygon fill="#999999" stroke="transparent" points="322,-64 0,-64 0,0 322,0 322,-64"/>
<text text-anchor="start" x="34" y="-52" font-family="Helvetica,sans-Serif" font-size="10.00">Assets.Scripts.Client.DataTypes.ChunkCellContainer</text>
<text text-anchor="start" x="4" y="-37" font-family="Helvetica,sans-Serif" font-size="10.00">+</text>
<text text-anchor="start" x="17" y="-37" font-family="Helvetica,sans-Serif" font-size="10.00">ChunkCellType Type</text>
<text text-anchor="start" x="4" y="-22" font-family="Helvetica,sans-Serif" font-size="10.00">+</text>
<text text-anchor="start" x="17" y="-22" font-family="Helvetica,sans-Serif" font-size="10.00">Vector3 Orientation</text>
<text text-anchor="start" x="4" y="-7" font-family="Helvetica,sans-Serif" font-size="10.00">+</text>
<text text-anchor="start" x="17" y="-7" font-family="Helvetica,sans-Serif" font-size="10.00">ChunkCellContainer(ChunkCellType type, Vector3 orientation)</text>
<polygon fill="#666666" stroke="#666666" points="0,-47 0,-47 322,-47 322,-47 0,-47"/>
<polygon fill="#666666" stroke="#666666" points="0,-17 0,-17 15,-17 15,-17 0,-17"/>
<polygon fill="#666666" stroke="#666666" points="15,-17 15,-17 322,-17 322,-17 15,-17"/>
<polygon fill="none" stroke="#666666" points="0,0 0,-64 322,-64 322,0 0,0"/>
</a>
</g>
</g>
</g>
</svg>
